<?xml version="1.0" encoding="UTF-8" standalone="no"?>
<!DOCTYPE svg PUBLIC "-//W3C//DTD SVG 1.1//EN"
 "http://www.w3.org/Graphics/SVG/1.1/DTD/svg11.dtd">
<!-- Generated by graphviz version 2.43.0 (0)
 -->
<!-- Title: ESP32BaseStation/ESP32BaseStation.ino Pages: 1 -->
<svg width="779pt" height="543pt"
 viewBox="0.00 0.00 778.50 543.00" xmlns="http://www.w3.org/2000/svg" xmlns:xlink="http://www.w3.org/1999/xlink">
<g id="graph0" class="graph" transform="scale(1 1) rotate(0) translate(4 539)">
<title>ESP32BaseStation/ESP32BaseStation.ino</title>
<polygon fill="white" stroke="transparent" points="-4,4 -4,-539 774.5,-539 774.5,4 -4,4"/>
<!-- Node1 -->
<g id="node1" class="node">
<title>Node1</title>
<g id="a_node1"><a xlink:title="Main file for a base station to connect to remote sensors on a farm.">
<polygon fill="#bfbfbf" stroke="black" points="477.5,-504.5 477.5,-534.5 639.5,-534.5 639.5,-504.5 477.5,-504.5"/>
<text text-anchor="start" x="485.5" y="-522.5" font-family="Helvetica,sans-Serif" font-size="10.00">ESP32BaseStation/ESP32Base</text>
<text text-anchor="middle" x="558.5" y="-511.5" font-family="Helvetica,sans-Serif" font-size="10.00">Station.ino</text>
</a>
</g>
</g>
<!-- Node2 -->
<g id="node2" class="node">
<title>Node2</title>
<g id="a_node2"><a xlink:href="defines_8h.html" target="_top" xlink:title="Definitions and other preprocessor and global stuff.">
<polygon fill="white" stroke="black" points="412,-56.5 412,-75.5 473,-75.5 473,-56.5 412,-56.5"/>
<text text-anchor="middle" x="442.5" y="-63.5" font-family="Helvetica,sans-Serif" font-size="10.00">defines.h</text>
</a>
</g>
</g>
<!-- Node1&#45;&gt;Node2 -->
<g id="edge1" class="edge">
<title>Node1&#45;&gt;Node2</title>
<path fill="none" stroke="midnightblue" d="M575.75,-504.43C598.17,-484.44 634.5,-445.49 634.5,-403 634.5,-403 634.5,-403 634.5,-345 634.5,-226.2 582.17,-201.02 503.5,-112 492.81,-99.9 478.35,-89.06 466.19,-81.05"/>
<polygon fill="midnightblue" stroke="midnightblue" points="467.76,-77.9 457.44,-75.51 464.02,-83.82 467.76,-77.9"/>
</g>
<!-- Node11 -->
<g id="node11" class="node">
<title>Node11</title>
<g id="a_node11"><a xlink:href="device__list_8h.html" target="_top" xlink:title="List of all devices and fields known to the system.">
<polygon fill="white" stroke="black" points="224.5,-280.5 224.5,-299.5 302.5,-299.5 302.5,-280.5 224.5,-280.5"/>
<text text-anchor="middle" x="263.5" y="-287.5" font-family="Helvetica,sans-Serif" font-size="10.00">device_list.h</text>
</a>
</g>
</g>
<!-- Node1&#45;&gt;Node11 -->
<g id="edge10" class="edge">
<title>Node1&#45;&gt;Node11</title>
<path fill="none" stroke="midnightblue" d="M477.09,-508.78C440.55,-501.64 398.19,-489.29 364.5,-468 305.96,-431 277.89,-347.09 267.92,-309.65"/>
<polygon fill="midnightblue" stroke="midnightblue" points="271.23,-308.46 265.4,-299.62 264.44,-310.18 271.23,-308.46"/>
</g>
<!-- Node16 -->
<g id="node16" class="node">
<title>Node16</title>
<g id="a_node16"><a xlink:href="networking_8h.html" target="_top" xlink:title="Header file for networking.cpp.">
<polygon fill="white" stroke="black" points="339.5,-392.5 339.5,-411.5 437.5,-411.5 437.5,-392.5 339.5,-392.5"/>
<text text-anchor="middle" x="388.5" y="-399.5" font-family="Helvetica,sans-Serif" font-size="10.00">src/networking.h</text>
</a>
</g>
</g>
<!-- Node1&#45;&gt;Node16 -->
<g id="edge21" class="edge">
<title>Node1&#45;&gt;Node16</title>
<path fill="none" stroke="midnightblue" d="M535.83,-504.44C519.92,-494.47 498.24,-480.67 479.5,-468 454.62,-451.18 426.58,-430.95 408.29,-417.58"/>
<polygon fill="midnightblue" stroke="midnightblue" points="410.28,-414.7 400.14,-411.61 406.14,-420.34 410.28,-414.7"/>
</g>
<!-- Node17 -->
<g id="node17" class="node">
<title>Node17</title>
<g id="a_node17"><a xlink:href="lora_8h.html" target="_top" xlink:title="File that handles the LoRa radio and PJON.">
<polygon fill="white" stroke="black" points="296.5,-336.5 296.5,-355.5 340.5,-355.5 340.5,-336.5 296.5,-336.5"/>
<text text-anchor="middle" x="318.5" y="-343.5" font-family="Helvetica,sans-Serif" font-size="10.00">lora.h</text>
</a>
</g>
</g>
<!-- Node1&#45;&gt;Node17 -->
<g id="edge37" class="edge">
<title>Node1&#45;&gt;Node17</title>
<path fill="none" stroke="midnightblue" d="M490.18,-504.5C438.29,-490.2 369.43,-462.67 330.5,-412 320.35,-398.79 317.85,-379.66 317.59,-365.57"/>
<polygon fill="midnightblue" stroke="midnightblue" points="321.09,-365.62 317.76,-355.56 314.09,-365.5 321.09,-365.62"/>
</g>
<!-- Node18 -->
<g id="node18" class="node">
<title>Node18</title>
<g id="a_node18"><a xlink:href="rpc_8h.html" target="_top" xlink:title="Handles RPC calls.">
<polygon fill="white" stroke="black" points="435,-280.5 435,-299.5 476,-299.5 476,-280.5 435,-280.5"/>
<text text-anchor="middle" x="455.5" y="-287.5" font-family="Helvetica,sans-Serif" font-size="10.00">rpc.h</text>
</a>
</g>
</g>
<!-- Node1&#45;&gt;Node18 -->
<g id="edge38" class="edge">
<title>Node1&#45;&gt;Node18</title>
<path fill="none" stroke="midnightblue" d="M561.49,-504.37C563.96,-489.88 566.23,-466.86 560.5,-448 542.88,-389.96 495.9,-333.82 471.19,-307.14"/>
<polygon fill="midnightblue" stroke="midnightblue" points="473.43,-304.42 464.02,-299.55 468.34,-309.22 473.43,-304.42"/>
</g>
<!-- Node19 -->
<g id="node19" class="node">
<title>Node19</title>
<g id="a_node19"><a xlink:href="alarm_8h.html" target="_top" xlink:title="Handles alarms.">
<polygon fill="white" stroke="black" points="649.5,-224.5 649.5,-243.5 703.5,-243.5 703.5,-224.5 649.5,-224.5"/>
<text text-anchor="middle" x="676.5" y="-231.5" font-family="Helvetica,sans-Serif" font-size="10.00">alarm.h</text>
</a>
</g>
</g>
<!-- Node1&#45;&gt;Node19 -->
<g id="edge39" class="edge">
<title>Node1&#45;&gt;Node19</title>
<path fill="none" stroke="midnightblue" d="M596.8,-504.32C614.58,-496.07 634.77,-484.08 648.5,-468 668.49,-444.58 672.5,-433.8 672.5,-403 672.5,-403 672.5,-403 672.5,-345 672.5,-312.93 674.22,-275.63 675.4,-253.74"/>
<polygon fill="midnightblue" stroke="midnightblue" points="678.91,-253.73 675.98,-243.55 671.92,-253.34 678.91,-253.73"/>
</g>
<!-- Node20 -->
<g id="node20" class="node">
<title>Node20</title>
<g id="a_node20"><a xlink:href="audio_8h.html" target="_top" xlink:title="Plays audio.">
<polygon fill="white" stroke="black" points="700.5,-280.5 700.5,-299.5 770.5,-299.5 770.5,-280.5 700.5,-280.5"/>
<text text-anchor="middle" x="735.5" y="-287.5" font-family="Helvetica,sans-Serif" font-size="10.00">src/audio.h</text>
</a>
</g>
</g>
<!-- Node1&#45;&gt;Node20 -->
<g id="edge40" class="edge">
<title>Node1&#45;&gt;Node20</title>
<path fill="none" stroke="midnightblue" d="M626.7,-504.43C648.42,-496.89 670.84,-485.41 686.5,-468 727.5,-422.42 734.55,-345.47 735.52,-309.97"/>
<polygon fill="midnightblue" stroke="midnightblue" points="739.03,-309.68 735.66,-299.63 732.03,-309.59 739.03,-309.68"/>
</g>
<!-- Node21 -->
<g id="node21" class="node">
<title>Node21</title>
<g id="a_node21"><a xlink:href="leds_8h.html" target="_top" xlink:title="Controls the LEDs on the unit.">
<polygon fill="white" stroke="black" points="489,-448.5 489,-467.5 552,-467.5 552,-448.5 489,-448.5"/>
<text text-anchor="middle" x="520.5" y="-455.5" font-family="Helvetica,sans-Serif" font-size="10.00">src/leds.h</text>
</a>
</g>
</g>
<!-- Node1&#45;&gt;Node21 -->
<g id="edge43" class="edge">
<title>Node1&#45;&gt;Node21</title>
<path fill="none" stroke="midnightblue" d="M549.49,-504.4C544.09,-495.93 537.17,-485.1 531.45,-476.14"/>
<polygon fill="midnightblue" stroke="midnightblue" points="534.36,-474.2 526.03,-467.66 528.46,-477.97 534.36,-474.2"/>
</g>
<!-- Node3 -->
<g id="node3" class="node">
<title>Node3</title>
<g id="a_node3"><a xlink:title=" ">
<polygon fill="white" stroke="#bfbfbf" points="598,-0.5 598,-19.5 661,-19.5 661,-0.5 598,-0.5"/>
<text text-anchor="middle" x="629.5" y="-7.5" font-family="Helvetica,sans-Serif" font-size="10.00">Arduino.h</text>
</a>
</g>
</g>
<!-- Node2&#45;&gt;Node3 -->
<g id="edge2" class="edge">
<title>Node2&#45;&gt;Node3</title>
<path fill="none" stroke="midnightblue" d="M472.13,-56.44C504,-47.24 554.83,-32.56 590.06,-22.39"/>
<polygon fill="midnightblue" stroke="midnightblue" points="591.37,-25.65 600.01,-19.52 589.43,-18.93 591.37,-25.65"/>
</g>
<!-- Node4 -->
<g id="node4" class="node">
<title>Node4</title>
<g id="a_node4"><a xlink:title=" ">
<polygon fill="white" stroke="#bfbfbf" points="0,-0.5 0,-19.5 47,-19.5 47,-0.5 0,-0.5"/>
<text text-anchor="middle" x="23.5" y="-7.5" font-family="Helvetica,sans-Serif" font-size="10.00">WiFi.h</text>
</a>
</g>
</g>
<!-- Node2&#45;&gt;Node4 -->
<g id="edge3" class="edge">
<title>Node2&#45;&gt;Node4</title>
<path fill="none" stroke="midnightblue" d="M411.99,-63.01C347.97,-58.5 194.89,-45.95 57.09,-19.82"/>
<polygon fill="midnightblue" stroke="midnightblue" points="57.67,-16.37 47.19,-17.92 56.35,-23.25 57.67,-16.37"/>
</g>
<!-- Node5 -->
<g id="node5" class="node">
<title>Node5</title>
<g id="a_node5"><a xlink:title=" ">
<polygon fill="white" stroke="#bfbfbf" points="65.5,-0.5 65.5,-19.5 155.5,-19.5 155.5,-0.5 65.5,-0.5"/>
<text text-anchor="middle" x="110.5" y="-7.5" font-family="Helvetica,sans-Serif" font-size="10.00">PubSubClient.h</text>
</a>
</g>
</g>
<!-- Node2&#45;&gt;Node5 -->
<g id="edge4" class="edge">
<title>Node2&#45;&gt;Node5</title>
<path fill="none" stroke="midnightblue" d="M411.64,-60.05C362.08,-52.1 261.43,-35.9 165.72,-20.19"/>
<polygon fill="midnightblue" stroke="midnightblue" points="166.01,-16.7 155.58,-18.53 164.88,-23.6 166.01,-16.7"/>
</g>
<!-- Node6 -->
<g id="node6" class="node">
<title>Node6</title>
<g id="a_node6"><a xlink:title=" ">
<polygon fill="white" stroke="#bfbfbf" points="174,-0.5 174,-19.5 257,-19.5 257,-0.5 174,-0.5"/>
<text text-anchor="middle" x="215.5" y="-7.5" font-family="Helvetica,sans-Serif" font-size="10.00">ArduinoJson.h</text>
</a>
</g>
</g>
<!-- Node2&#45;&gt;Node6 -->
<g id="edge5" class="edge">
<title>Node2&#45;&gt;Node6</title>
<path fill="none" stroke="midnightblue" d="M411.89,-57.72C373.18,-48.51 306.21,-32.58 261.38,-21.91"/>
<polygon fill="midnightblue" stroke="midnightblue" points="262.15,-18.5 251.61,-19.59 260.53,-25.31 262.15,-18.5"/>
</g>
<!-- Node7 -->
<g id="node7" class="node">
<title>Node7</title>
<g id="a_node7"><a xlink:title=" ">
<polygon fill="white" stroke="#bfbfbf" points="275.5,-0.5 275.5,-19.5 385.5,-19.5 385.5,-0.5 275.5,-0.5"/>
<text text-anchor="middle" x="330.5" y="-7.5" font-family="Helvetica,sans-Serif" font-size="10.00">PJONThroughLora.h</text>
</a>
</g>
</g>
<!-- Node2&#45;&gt;Node7 -->
<g id="edge6" class="edge">
<title>Node2&#45;&gt;Node7</title>
<path fill="none" stroke="midnightblue" d="M424.51,-56.32C406.46,-47.62 378.45,-34.12 357.7,-24.11"/>
<polygon fill="midnightblue" stroke="midnightblue" points="358.98,-20.84 348.45,-19.65 355.94,-27.15 358.98,-20.84"/>
</g>
<!-- Node8 -->
<g id="node8" class="node">
<title>Node8</title>
<g id="a_node8"><a xlink:title=" ">
<polygon fill="white" stroke="#bfbfbf" points="403.5,-0.5 403.5,-19.5 481.5,-19.5 481.5,-0.5 403.5,-0.5"/>
<text text-anchor="middle" x="442.5" y="-7.5" font-family="Helvetica,sans-Serif" font-size="10.00">TunePlayer.h</text>
</a>
</g>
</g>
<!-- Node2&#45;&gt;Node8 -->
<g id="edge7" class="edge">
<title>Node2&#45;&gt;Node8</title>
<path fill="none" stroke="midnightblue" d="M442.5,-56.08C442.5,-49.01 442.5,-38.86 442.5,-29.99"/>
<polygon fill="midnightblue" stroke="midnightblue" points="446,-29.75 442.5,-19.75 439,-29.75 446,-29.75"/>
</g>
<!-- Node9 -->
<g id="node9" class="node">
<title>Node9</title>
<g id="a_node9"><a xlink:title=" ">
<polygon fill="white" stroke="#bfbfbf" points="499.5,-0.5 499.5,-19.5 579.5,-19.5 579.5,-0.5 499.5,-0.5"/>
<text text-anchor="middle" x="539.5" y="-7.5" font-family="Helvetica,sans-Serif" font-size="10.00">credentials.h</text>
</a>
</g>
</g>
<!-- Node2&#45;&gt;Node9 -->
<g id="edge8" class="edge">
<title>Node2&#45;&gt;Node9</title>
<path fill="none" stroke="midnightblue" d="M458.08,-56.32C473.5,-47.74 497.31,-34.49 515.21,-24.52"/>
<polygon fill="midnightblue" stroke="midnightblue" points="516.92,-27.58 523.95,-19.65 513.51,-21.46 516.92,-27.58"/>
</g>
<!-- Node10 -->
<g id="node10" class="node">
<title>Node10</title>
<g id="a_node10"><a xlink:href="topics_8h.html" target="_top" xlink:title="MQTT topics for a thingsboard gateway.">
<polygon fill="white" stroke="black" points="679.5,-0.5 679.5,-19.5 751.5,-19.5 751.5,-0.5 679.5,-0.5"/>
<text text-anchor="middle" x="715.5" y="-7.5" font-family="Helvetica,sans-Serif" font-size="10.00">src/topics.h</text>
</a>
</g>
</g>
<!-- Node2&#45;&gt;Node10 -->
<g id="edge9" class="edge">
<title>Node2&#45;&gt;Node10</title>
<path fill="none" stroke="midnightblue" d="M473.02,-58.96C520.7,-49.53 613.17,-31.24 669.12,-20.17"/>
<polygon fill="midnightblue" stroke="midnightblue" points="670,-23.57 679.13,-18.19 668.64,-16.7 670,-23.57"/>
</g>
<!-- Node12 -->
<g id="node12" class="node">
<title>Node12</title>
<g id="a_node12"><a xlink:href="fields_8h.html" target="_top" xlink:title="Contains fields classes.">
<polygon fill="white" stroke="black" points="312,-168.5 312,-187.5 381,-187.5 381,-168.5 312,-168.5"/>
<text text-anchor="middle" x="346.5" y="-175.5" font-family="Helvetica,sans-Serif" font-size="10.00">src/fields.h</text>
</a>
</g>
</g>
<!-- Node11&#45;&gt;Node12 -->
<g id="edge11" class="edge">
<title>Node11&#45;&gt;Node12</title>
<path fill="none" stroke="midnightblue" d="M266.84,-280.45C272.15,-267.48 283.38,-242.38 297.5,-224 305.99,-212.95 317.36,-202.32 327.01,-194.17"/>
<polygon fill="midnightblue" stroke="midnightblue" points="329.4,-196.73 334.93,-187.69 324.98,-191.31 329.4,-196.73"/>
</g>
<!-- Node15 -->
<g id="node15" class="node">
<title>Node15</title>
<g id="a_node15"><a xlink:href="devices_8h.html" target="_top" xlink:title="Devices and manager for all known devices the base station connects to.">
<polygon fill="white" stroke="black" points="306.5,-224.5 306.5,-243.5 386.5,-243.5 386.5,-224.5 306.5,-224.5"/>
<text text-anchor="middle" x="346.5" y="-231.5" font-family="Helvetica,sans-Serif" font-size="10.00">src/devices.h</text>
</a>
</g>
</g>
<!-- Node11&#45;&gt;Node15 -->
<g id="edge17" class="edge">
<title>Node11&#45;&gt;Node15</title>
<path fill="none" stroke="midnightblue" d="M276.84,-280.32C289.66,-271.98 309.28,-259.21 324.44,-249.35"/>
<polygon fill="midnightblue" stroke="midnightblue" points="326.72,-252.04 333.2,-243.65 322.91,-246.17 326.72,-252.04"/>
</g>
<!-- Node12&#45;&gt;Node2 -->
<g id="edge12" class="edge">
<title>Node12&#45;&gt;Node2</title>
<path fill="none" stroke="midnightblue" d="M333.35,-168.46C315.67,-155.9 288.05,-131.82 302.5,-112 324.96,-81.19 368.86,-71.01 401.54,-67.88"/>
<polygon fill="midnightblue" stroke="midnightblue" points="402.01,-71.35 411.71,-67.09 401.47,-64.38 402.01,-71.35"/>
</g>
<!-- Node13 -->
<g id="node13" class="node">
<title>Node13</title>
<g id="a_node13"><a xlink:href="lookups_8h.html" target="_top" xlink:title="Lookupable and lookupable manager base classes.">
<polygon fill="white" stroke="black" points="192,-112.5 192,-131.5 255,-131.5 255,-112.5 192,-112.5"/>
<text text-anchor="middle" x="223.5" y="-119.5" font-family="Helvetica,sans-Serif" font-size="10.00">lookups.h</text>
</a>
</g>
</g>
<!-- Node12&#45;&gt;Node13 -->
<g id="edge13" class="edge">
<title>Node12&#45;&gt;Node13</title>
<path fill="none" stroke="midnightblue" d="M327.01,-168.44C306.86,-159.6 275.18,-145.69 252.17,-135.59"/>
<polygon fill="midnightblue" stroke="midnightblue" points="253.46,-132.33 242.9,-131.52 250.65,-138.74 253.46,-132.33"/>
</g>
<!-- Node14 -->
<g id="node14" class="node">
<title>Node14</title>
<g id="a_node14"><a xlink:href="conversions_8h.html" target="_top" xlink:title="General functions for converting to and from char arrays.">
<polygon fill="white" stroke="black" points="311.5,-112.5 311.5,-131.5 395.5,-131.5 395.5,-112.5 311.5,-112.5"/>
<text text-anchor="middle" x="353.5" y="-119.5" font-family="Helvetica,sans-Serif" font-size="10.00">conversions.h</text>
</a>
</g>
</g>
<!-- Node12&#45;&gt;Node14 -->
<g id="edge15" class="edge">
<title>Node12&#45;&gt;Node14</title>
<path fill="none" stroke="midnightblue" d="M347.66,-168.08C348.58,-160.93 349.92,-150.64 351.08,-141.69"/>
<polygon fill="midnightblue" stroke="midnightblue" points="354.55,-142.12 352.37,-131.75 347.61,-141.22 354.55,-142.12"/>
</g>
<!-- Node13&#45;&gt;Node2 -->
<g id="edge14" class="edge">
<title>Node13&#45;&gt;Node2</title>
<path fill="none" stroke="midnightblue" d="M255.34,-113.15C294.03,-103.61 359.36,-87.5 401.7,-77.06"/>
<polygon fill="midnightblue" stroke="midnightblue" points="402.81,-80.39 411.68,-74.6 401.13,-73.6 402.81,-80.39"/>
</g>
<!-- Node14&#45;&gt;Node2 -->
<g id="edge16" class="edge">
<title>Node14&#45;&gt;Node2</title>
<path fill="none" stroke="midnightblue" d="M367.8,-112.32C381.68,-103.9 402.99,-90.97 419.3,-81.07"/>
<polygon fill="midnightblue" stroke="midnightblue" points="421.5,-83.83 428.24,-75.65 417.87,-77.85 421.5,-83.83"/>
</g>
<!-- Node15&#45;&gt;Node2 -->
<g id="edge18" class="edge">
<title>Node15&#45;&gt;Node2</title>
<path fill="none" stroke="midnightblue" d="M356.78,-224.19C366.23,-215.67 380.15,-202.03 389.5,-188 411.78,-154.57 428.38,-110.23 436.65,-85.57"/>
<polygon fill="midnightblue" stroke="midnightblue" points="440.08,-86.33 439.85,-75.73 433.43,-84.16 440.08,-86.33"/>
</g>
<!-- Node15&#45;&gt;Node12 -->
<g id="edge20" class="edge">
<title>Node15&#45;&gt;Node12</title>
<path fill="none" stroke="midnightblue" d="M346.5,-224.08C346.5,-217.01 346.5,-206.86 346.5,-197.99"/>
<polygon fill="midnightblue" stroke="midnightblue" points="350,-197.75 346.5,-187.75 343,-197.75 350,-197.75"/>
</g>
<!-- Node15&#45;&gt;Node13 -->
<g id="edge19" class="edge">
<title>Node15&#45;&gt;Node13</title>
<path fill="none" stroke="midnightblue" d="M336.85,-224.37C316.1,-205.81 267.01,-161.91 240.76,-138.44"/>
<polygon fill="midnightblue" stroke="midnightblue" points="242.89,-135.65 233.11,-131.59 238.23,-140.87 242.89,-135.65"/>
</g>
<!-- Node16&#45;&gt;Node2 -->
<g id="edge22" class="edge">
<title>Node16&#45;&gt;Node2</title>
<path fill="none" stroke="midnightblue" d="M401.88,-392.44C424.34,-377.13 468.72,-342.66 484.5,-300 512.97,-223.04 471.5,-124.43 451.86,-84.73"/>
<polygon fill="midnightblue" stroke="midnightblue" points="454.94,-83.07 447.28,-75.75 448.7,-86.25 454.94,-83.07"/>
</g>
<!-- Node16&#45;&gt;Node15 -->
<g id="edge23" class="edge">
<title>Node16&#45;&gt;Node15</title>
<path fill="none" stroke="midnightblue" d="M386.24,-392.08C379.63,-365.95 360.22,-289.21 351.2,-253.58"/>
<polygon fill="midnightblue" stroke="midnightblue" points="354.51,-252.4 348.67,-243.57 347.73,-254.12 354.51,-252.4"/>
</g>
<!-- Node16&#45;&gt;Node17 -->
<g id="edge24" class="edge">
<title>Node16&#45;&gt;Node17</title>
<path fill="none" stroke="midnightblue" d="M372.14,-392.32C360.06,-384.34 344.11,-372.31 332.6,-362.65"/>
<polygon fill="midnightblue" stroke="midnightblue" points="334.63,-359.78 324.8,-355.83 330.03,-365.05 334.63,-359.78"/>
</g>
<!-- Node17&#45;&gt;Node2 -->
<g id="edge25" class="edge">
<title>Node17&#45;&gt;Node2</title>
<path fill="none" stroke="midnightblue" d="M296.25,-340.59C252.29,-330.45 158.5,-301.07 158.5,-235 158.5,-235 158.5,-235 158.5,-177 158.5,-146.2 158.83,-131.7 182.5,-112 215.1,-84.86 336.59,-73.44 401.31,-69.19"/>
<polygon fill="midnightblue" stroke="midnightblue" points="401.8,-72.67 411.57,-68.55 401.37,-65.68 401.8,-72.67"/>
</g>
<!-- Node17&#45;&gt;Node13 -->
<g id="edge26" class="edge">
<title>Node17&#45;&gt;Node13</title>
<path fill="none" stroke="midnightblue" d="M296.28,-342.35C271.74,-338.11 233.34,-327.27 215.5,-300 183.13,-250.53 203.87,-175.57 216.22,-141.28"/>
<polygon fill="midnightblue" stroke="midnightblue" points="219.6,-142.25 219.86,-131.66 213.05,-139.78 219.6,-142.25"/>
</g>
<!-- Node17&#45;&gt;Node15 -->
<g id="edge27" class="edge">
<title>Node17&#45;&gt;Node15</title>
<path fill="none" stroke="midnightblue" d="M320.7,-336.37C325.22,-318.62 335.64,-277.67 341.77,-253.6"/>
<polygon fill="midnightblue" stroke="midnightblue" points="345.24,-254.15 344.31,-243.59 338.45,-252.42 345.24,-254.15"/>
</g>
<!-- Node17&#45;&gt;Node16 -->
<g id="edge28" class="edge">
<title>Node17&#45;&gt;Node16</title>
<path fill="none" stroke="midnightblue" d="M334.83,-355.65C346.97,-363.68 363.04,-375.8 374.57,-385.49"/>
<polygon fill="midnightblue" stroke="midnightblue" points="372.54,-388.37 382.37,-392.32 377.15,-383.1 372.54,-388.37"/>
</g>
<!-- Node17&#45;&gt;Node18 -->
<g id="edge29" class="edge">
<title>Node17&#45;&gt;Node18</title>
<path fill="none" stroke="midnightblue" d="M340.21,-336.44C363.12,-327.41 399.41,-313.11 425.15,-302.96"/>
<polygon fill="midnightblue" stroke="midnightblue" points="426.77,-306.09 434.79,-299.16 424.2,-299.57 426.77,-306.09"/>
</g>
<!-- Node18&#45;&gt;Node2 -->
<g id="edge30" class="edge">
<title>Node18&#45;&gt;Node2</title>
<path fill="none" stroke="midnightblue" d="M454.99,-280.3C453.08,-247.63 446.3,-131.87 443.61,-85.96"/>
<polygon fill="midnightblue" stroke="midnightblue" points="447.1,-85.66 443.02,-75.88 440.11,-86.07 447.1,-85.66"/>
</g>
<!-- Node18&#45;&gt;Node10 -->
<g id="edge31" class="edge">
<title>Node18&#45;&gt;Node10</title>
<path fill="none" stroke="midnightblue" d="M468.31,-280.39C491.38,-263.74 537.5,-224.73 537.5,-179 537.5,-179 537.5,-179 537.5,-121 537.5,-87.04 632.43,-44.02 683.64,-23.28"/>
<polygon fill="midnightblue" stroke="midnightblue" points="684.97,-26.52 692.96,-19.56 682.37,-20.02 684.97,-26.52"/>
</g>
<!-- Node18&#45;&gt;Node12 -->
<g id="edge35" class="edge">
<title>Node18&#45;&gt;Node12</title>
<path fill="none" stroke="midnightblue" d="M447.95,-280.38C436.78,-267.73 415.07,-243.52 395.5,-224 385.38,-213.91 373.59,-203.06 364.12,-194.54"/>
<polygon fill="midnightblue" stroke="midnightblue" points="366.28,-191.78 356.48,-187.73 361.62,-197 366.28,-191.78"/>
</g>
<!-- Node18&#45;&gt;Node15 -->
<g id="edge34" class="edge">
<title>Node18&#45;&gt;Node15</title>
<path fill="none" stroke="midnightblue" d="M437.99,-280.32C420.43,-271.62 393.17,-258.12 372.97,-248.11"/>
<polygon fill="midnightblue" stroke="midnightblue" points="374.48,-244.96 363.97,-243.65 371.38,-251.23 374.48,-244.96"/>
</g>
<!-- Node18&#45;&gt;Node16 -->
<g id="edge36" class="edge">
<title>Node18&#45;&gt;Node16</title>
<path fill="none" stroke="midnightblue" d="M450.27,-299.59C439.28,-317.63 413.63,-359.74 399.07,-383.64"/>
<polygon fill="midnightblue" stroke="midnightblue" points="395.97,-382.01 393.76,-392.37 401.95,-385.65 395.97,-382.01"/>
</g>
<!-- Node18&#45;&gt;Node19 -->
<g id="edge32" class="edge">
<title>Node18&#45;&gt;Node19</title>
<path fill="none" stroke="midnightblue" d="M476.29,-283.92C513.73,-274.77 592.93,-255.42 639.72,-243.99"/>
<polygon fill="midnightblue" stroke="midnightblue" points="640.58,-247.38 649.47,-241.61 638.92,-240.58 640.58,-247.38"/>
</g>
<!-- Node19&#45;&gt;Node2 -->
<g id="edge33" class="edge">
<title>Node19&#45;&gt;Node2</title>
<path fill="none" stroke="midnightblue" d="M676.29,-224.47C675.27,-202.34 669.35,-142.69 635.5,-112 613.49,-92.04 533.33,-78.53 483.5,-71.85"/>
<polygon fill="midnightblue" stroke="midnightblue" points="483.73,-68.35 473.36,-70.53 482.83,-75.29 483.73,-68.35"/>
</g>
<!-- Node20&#45;&gt;Node2 -->
<g id="edge41" class="edge">
<title>Node20&#45;&gt;Node2</title>
<path fill="none" stroke="midnightblue" d="M734.53,-280.24C730.78,-251.03 714.52,-156.28 657.5,-112 630.76,-91.23 537.69,-77.63 483.16,-71.24"/>
<polygon fill="midnightblue" stroke="midnightblue" points="483.46,-67.75 473.12,-70.09 482.66,-74.7 483.46,-67.75"/>
</g>
<!-- Node20&#45;&gt;Node19 -->
<g id="edge42" class="edge">
<title>Node20&#45;&gt;Node19</title>
<path fill="none" stroke="midnightblue" d="M726.02,-280.32C717.3,-272.34 704.16,-260.31 693.6,-250.65"/>
<polygon fill="midnightblue" stroke="midnightblue" points="695.89,-248 686.15,-243.83 691.17,-253.17 695.89,-248"/>
</g>
<!-- Node21&#45;&gt;Node2 -->
<g id="edge44" class="edge">
<title>Node21&#45;&gt;Node2</title>
<path fill="none" stroke="midnightblue" d="M522.36,-448.42C528.7,-417.64 548.17,-310.07 530.5,-224 519.61,-170.95 511.53,-157.72 482.5,-112 475.86,-101.54 466.8,-91.13 458.98,-82.95"/>
<polygon fill="midnightblue" stroke="midnightblue" points="461.23,-80.25 451.71,-75.61 456.25,-85.17 461.23,-80.25"/>
</g>
<!-- Node21&#45;&gt;Node15 -->
<g id="edge47" class="edge">
<title>Node21&#45;&gt;Node15</title>
<path fill="none" stroke="midnightblue" d="M513.68,-448.3C487.7,-415.15 394.64,-296.41 359.79,-251.96"/>
<polygon fill="midnightblue" stroke="midnightblue" points="362.39,-249.6 353.46,-243.88 356.88,-253.91 362.39,-249.6"/>
</g>
<!-- Node21&#45;&gt;Node16 -->
<g id="edge46" class="edge">
<title>Node21&#45;&gt;Node16</title>
<path fill="none" stroke="midnightblue" d="M499.58,-448.44C477.76,-439.52 443.35,-425.44 418.61,-415.32"/>
<polygon fill="midnightblue" stroke="midnightblue" points="419.9,-412.06 409.32,-411.52 417.25,-418.54 419.9,-412.06"/>
</g>
<!-- Node21&#45;&gt;Node19 -->
<g id="edge45" class="edge">
<title>Node21&#45;&gt;Node19</title>
<path fill="none" stroke="midnightblue" d="M526.62,-448.3C549.86,-415.22 633,-296.91 664.38,-252.24"/>
<polygon fill="midnightblue" stroke="midnightblue" points="667.37,-254.08 670.26,-243.88 661.64,-250.05 667.37,-254.08"/>
</g>
</g>
</svg>
