<?xml version="1.0" encoding="UTF-8" standalone="no"?>
<!DOCTYPE svg PUBLIC "-//W3C//DTD SVG 1.1//EN"
 "http://www.w3.org/Graphics/SVG/1.1/DTD/svg11.dtd">
<!-- Generated by graphviz version 2.43.0 (0)
 -->
<!-- Title: ESP32BaseStation/ESP32BaseStation.ino Pages: 1 -->
<!--zoomable 487 -->
<svg id="main" version="1.1" xmlns="http://www.w3.org/2000/svg" xmlns:xlink="http://www.w3.org/1999/xlink" xml:space="preserve" onload="init(evt)">
<style type="text/css"><![CDATA[
.edge:hover path { stroke: red; }
.edge:hover polygon { stroke: red; fill: red; }
]]></style>
<script type="text/javascript"><![CDATA[
var edges = document.getElementsByTagName('g');
if (edges && edges.length) {
  for (var i=0;i<edges.length;i++) {
    if (edges[i].id.substr(0,4)=='edge') {
      edges[i].setAttribute('class','edge');
    }
  }
}
]]></script>
        <defs>
                <circle id="rim" cx="0" cy="0" r="7"/>
                <circle id="rim2" cx="0" cy="0" r="3.5"/>
                <g id="zoomPlus">
                        <use xlink:href="#rim" fill="#404040">
                                <set attributeName="fill" to="#808080" begin="zoomplus.mouseover" end="zoomplus.mouseout"/>
                        </use>
                        <path d="M-4,0h8M0,-4v8" fill="none" stroke="white" stroke-width="1.5" pointer-events="none"/>
                </g>
                <g id="zoomMin">
                        <use xlink:href="#rim" fill="#404040">
                                <set attributeName="fill" to="#808080" begin="zoomminus.mouseover" end="zoomminus.mouseout"/>
                        </use>
                        <path d="M-4,0h8" fill="none" stroke="white" stroke-width="1.5" pointer-events="none"/>
                </g>
                <g id="dirArrow">
                        <path fill="none" stroke="white" stroke-width="1.5" d="M0,-3.0v7 M-2.5,-0.5L0,-3.0L2.5,-0.5"/>
                </g>
               <g id="resetDef">
                       <use xlink:href="#rim2" fill="#404040">
                               <set attributeName="fill" to="#808080" begin="reset.mouseover" end="reset.mouseout"/>
                       </use>
               </g>
        </defs>

<script type="text/javascript">
var viewWidth = 803;
var viewHeight = 487;
var sectionId = 'dynsection-0';
</script>
<script xlink:href="svgpan.js"/>
<svg id="graph" class="graph">
<g id="viewport">
<title>ESP32BaseStation/ESP32BaseStation.ino</title>
<polygon fill="white" stroke="transparent" points="-4,4 -4,-483 798.5,-483 798.5,4 -4,4"/>
<!-- Node1 -->
<g id="node1" class="node">
<title>Node1</title>
<g id="a_node1"><a xlink:title="Main file for a base station to connect to remote sensors on a farm.">
<polygon fill="#bfbfbf" stroke="black" points="492.5,-448.5 492.5,-478.5 654.5,-478.5 654.5,-448.5 492.5,-448.5"/>
<text text-anchor="start" x="500.5" y="-466.5" font-family="Helvetica,sans-Serif" font-size="10.00">ESP32BaseStation/ESP32Base</text>
<text text-anchor="middle" x="573.5" y="-455.5" font-family="Helvetica,sans-Serif" font-size="10.00">Station.ino</text>
</a>
</g>
</g>
<!-- Node2 -->
<g id="node2" class="node">
<title>Node2</title>
<g id="a_node2"><a xlink:href="defines_8h.html" target="_top" xlink:title="Definitions and other preprocessor and global stuff.">
<polygon fill="white" stroke="black" points="412,-56.5 412,-75.5 473,-75.5 473,-56.5 412,-56.5"/>
<text text-anchor="middle" x="442.5" y="-63.5" font-family="Helvetica,sans-Serif" font-size="10.00">defines.h</text>
</a>
</g>
</g>
<!-- Node1&#45;&gt;Node2 -->
<g id="edge1" class="edge">
<title>Node1&#45;&gt;Node2</title>
<path fill="none" stroke="midnightblue" d="M593.64,-448.21C618.78,-428.54 658.5,-390.57 658.5,-347 658.5,-347 658.5,-347 658.5,-177 658.5,-99.27 546.04,-76.44 483.42,-69.76"/>
<polygon fill="midnightblue" stroke="midnightblue" points="483.74,-66.27 473.45,-68.78 483.06,-73.24 483.74,-66.27"/>
</g>
<!-- Node11 -->
<g id="node11" class="node">
<title>Node11</title>
<g id="a_node11"><a xlink:href="device__list_8h.html" target="_top" xlink:title="List of all devices and fields known to the system.">
<polygon fill="white" stroke="black" points="456.5,-280.5 456.5,-299.5 534.5,-299.5 534.5,-280.5 456.5,-280.5"/>
<text text-anchor="middle" x="495.5" y="-287.5" font-family="Helvetica,sans-Serif" font-size="10.00">device_list.h</text>
</a>
</g>
</g>
<!-- Node1&#45;&gt;Node11 -->
<g id="edge10" class="edge">
<title>Node1&#45;&gt;Node11</title>
<path fill="none" stroke="midnightblue" d="M567.12,-448.47C553,-417.44 519.17,-343.05 503.6,-308.81"/>
<polygon fill="midnightblue" stroke="midnightblue" points="506.72,-307.21 499.39,-299.56 500.35,-310.11 506.72,-307.21"/>
</g>
<!-- Node16 -->
<g id="node16" class="node">
<title>Node16</title>
<g id="a_node16"><a xlink:href="networking_8h.html" target="_top" xlink:title="Header file for networking.cpp.">
<polygon fill="white" stroke="black" points="399.5,-392.5 399.5,-411.5 497.5,-411.5 497.5,-392.5 399.5,-392.5"/>
<text text-anchor="middle" x="448.5" y="-399.5" font-family="Helvetica,sans-Serif" font-size="10.00">src/networking.h</text>
</a>
</g>
</g>
<!-- Node1&#45;&gt;Node16 -->
<g id="edge21" class="edge">
<title>Node1&#45;&gt;Node16</title>
<path fill="none" stroke="midnightblue" d="M543.88,-448.4C523.28,-438.59 496.02,-425.62 475.92,-416.05"/>
<polygon fill="midnightblue" stroke="midnightblue" points="477.22,-412.8 466.69,-411.66 474.21,-419.12 477.22,-412.8"/>
</g>
<!-- Node17 -->
<g id="node17" class="node">
<title>Node17</title>
<g id="a_node17"><a xlink:href="lora_8h.html" target="_top" xlink:title="File that handles the LoRa radio and PJON.">
<polygon fill="white" stroke="black" points="356.5,-336.5 356.5,-355.5 400.5,-355.5 400.5,-336.5 356.5,-336.5"/>
<text text-anchor="middle" x="378.5" y="-343.5" font-family="Helvetica,sans-Serif" font-size="10.00">lora.h</text>
</a>
</g>
</g>
<!-- Node1&#45;&gt;Node17 -->
<g id="edge37" class="edge">
<title>Node1&#45;&gt;Node17</title>
<path fill="none" stroke="midnightblue" d="M492.35,-458.99C456.33,-453.19 416.34,-440.18 390.5,-412 379.24,-399.72 376.89,-380.46 376.97,-366.09"/>
<polygon fill="midnightblue" stroke="midnightblue" points="380.48,-365.99 377.43,-355.84 373.48,-365.67 380.48,-365.99"/>
</g>
<!-- Node18 -->
<g id="node18" class="node">
<title>Node18</title>
<g id="a_node18"><a xlink:href="rpc_8h.html" target="_top" xlink:title="Handles RPC calls.">
<polygon fill="white" stroke="black" points="553,-280.5 553,-299.5 594,-299.5 594,-280.5 553,-280.5"/>
<text text-anchor="middle" x="573.5" y="-287.5" font-family="Helvetica,sans-Serif" font-size="10.00">rpc.h</text>
</a>
</g>
</g>
<!-- Node1&#45;&gt;Node18 -->
<g id="edge38" class="edge">
<title>Node1&#45;&gt;Node18</title>
<path fill="none" stroke="midnightblue" d="M573.5,-448.47C573.5,-417.7 573.5,-344.33 573.5,-309.7"/>
<polygon fill="midnightblue" stroke="midnightblue" points="577,-309.56 573.5,-299.56 570,-309.56 577,-309.56"/>
</g>
<!-- Node19 -->
<g id="node19" class="node">
<title>Node19</title>
<g id="a_node19"><a xlink:href="alarm_8h.html" target="_top" xlink:title="Handles alarms.">
<polygon fill="white" stroke="black" points="686.5,-224.5 686.5,-243.5 740.5,-243.5 740.5,-224.5 686.5,-224.5"/>
<text text-anchor="middle" x="713.5" y="-231.5" font-family="Helvetica,sans-Serif" font-size="10.00">alarm.h</text>
</a>
</g>
</g>
<!-- Node1&#45;&gt;Node19 -->
<g id="edge39" class="edge">
<title>Node1&#45;&gt;Node19</title>
<path fill="none" stroke="midnightblue" d="M620.11,-448.49C638.95,-440.61 659.31,-428.87 672.5,-412 709.67,-364.44 714.18,-289.08 714.09,-254.06"/>
<polygon fill="midnightblue" stroke="midnightblue" points="717.58,-253.76 713.92,-243.82 710.58,-253.88 717.58,-253.76"/>
</g>
<!-- Node20 -->
<g id="node20" class="node">
<title>Node20</title>
<g id="a_node20"><a xlink:href="audio_8h.html" target="_top" xlink:title="Plays audio.">
<polygon fill="white" stroke="black" points="724.5,-280.5 724.5,-299.5 794.5,-299.5 794.5,-280.5 724.5,-280.5"/>
<text text-anchor="middle" x="759.5" y="-287.5" font-family="Helvetica,sans-Serif" font-size="10.00">src/audio.h</text>
</a>
</g>
</g>
<!-- Node1&#45;&gt;Node20 -->
<g id="edge40" class="edge">
<title>Node1&#45;&gt;Node20</title>
<path fill="none" stroke="midnightblue" d="M644.9,-448.4C668.15,-440.85 692.57,-429.37 710.5,-412 739.57,-383.84 751.92,-336.09 756.74,-309.78"/>
<polygon fill="midnightblue" stroke="midnightblue" points="760.24,-310.08 758.41,-299.64 753.33,-308.94 760.24,-310.08"/>
</g>
<!-- Node3 -->
<g id="node3" class="node">
<title>Node3</title>
<g id="a_node3"><a xlink:title=" ">
<polygon fill="white" stroke="#bfbfbf" points="598,-0.5 598,-19.5 661,-19.5 661,-0.5 598,-0.5"/>
<text text-anchor="middle" x="629.5" y="-7.5" font-family="Helvetica,sans-Serif" font-size="10.00">Arduino.h</text>
</a>
</g>
</g>
<!-- Node2&#45;&gt;Node3 -->
<g id="edge2" class="edge">
<title>Node2&#45;&gt;Node3</title>
<path fill="none" stroke="midnightblue" d="M472.13,-56.44C504,-47.24 554.83,-32.56 590.06,-22.39"/>
<polygon fill="midnightblue" stroke="midnightblue" points="591.37,-25.65 600.01,-19.52 589.43,-18.93 591.37,-25.65"/>
</g>
<!-- Node4 -->
<g id="node4" class="node">
<title>Node4</title>
<g id="a_node4"><a xlink:title=" ">
<polygon fill="white" stroke="#bfbfbf" points="0,-0.5 0,-19.5 47,-19.5 47,-0.5 0,-0.5"/>
<text text-anchor="middle" x="23.5" y="-7.5" font-family="Helvetica,sans-Serif" font-size="10.00">WiFi.h</text>
</a>
</g>
</g>
<!-- Node2&#45;&gt;Node4 -->
<g id="edge3" class="edge">
<title>Node2&#45;&gt;Node4</title>
<path fill="none" stroke="midnightblue" d="M411.99,-63.01C347.97,-58.5 194.89,-45.95 57.09,-19.82"/>
<polygon fill="midnightblue" stroke="midnightblue" points="57.67,-16.37 47.19,-17.92 56.35,-23.25 57.67,-16.37"/>
</g>
<!-- Node5 -->
<g id="node5" class="node">
<title>Node5</title>
<g id="a_node5"><a xlink:title=" ">
<polygon fill="white" stroke="#bfbfbf" points="65.5,-0.5 65.5,-19.5 155.5,-19.5 155.5,-0.5 65.5,-0.5"/>
<text text-anchor="middle" x="110.5" y="-7.5" font-family="Helvetica,sans-Serif" font-size="10.00">PubSubClient.h</text>
</a>
</g>
</g>
<!-- Node2&#45;&gt;Node5 -->
<g id="edge4" class="edge">
<title>Node2&#45;&gt;Node5</title>
<path fill="none" stroke="midnightblue" d="M411.64,-60.05C362.08,-52.1 261.43,-35.9 165.72,-20.19"/>
<polygon fill="midnightblue" stroke="midnightblue" points="166.01,-16.7 155.58,-18.53 164.88,-23.6 166.01,-16.7"/>
</g>
<!-- Node6 -->
<g id="node6" class="node">
<title>Node6</title>
<g id="a_node6"><a xlink:title=" ">
<polygon fill="white" stroke="#bfbfbf" points="174,-0.5 174,-19.5 257,-19.5 257,-0.5 174,-0.5"/>
<text text-anchor="middle" x="215.5" y="-7.5" font-family="Helvetica,sans-Serif" font-size="10.00">ArduinoJson.h</text>
</a>
</g>
</g>
<!-- Node2&#45;&gt;Node6 -->
<g id="edge5" class="edge">
<title>Node2&#45;&gt;Node6</title>
<path fill="none" stroke="midnightblue" d="M411.89,-57.72C373.18,-48.51 306.21,-32.58 261.38,-21.91"/>
<polygon fill="midnightblue" stroke="midnightblue" points="262.15,-18.5 251.61,-19.59 260.53,-25.31 262.15,-18.5"/>
</g>
<!-- Node7 -->
<g id="node7" class="node">
<title>Node7</title>
<g id="a_node7"><a xlink:title=" ">
<polygon fill="white" stroke="#bfbfbf" points="275.5,-0.5 275.5,-19.5 385.5,-19.5 385.5,-0.5 275.5,-0.5"/>
<text text-anchor="middle" x="330.5" y="-7.5" font-family="Helvetica,sans-Serif" font-size="10.00">PJONThroughLora.h</text>
</a>
</g>
</g>
<!-- Node2&#45;&gt;Node7 -->
<g id="edge6" class="edge">
<title>Node2&#45;&gt;Node7</title>
<path fill="none" stroke="midnightblue" d="M424.51,-56.32C406.46,-47.62 378.45,-34.12 357.7,-24.11"/>
<polygon fill="midnightblue" stroke="midnightblue" points="358.98,-20.84 348.45,-19.65 355.94,-27.15 358.98,-20.84"/>
</g>
<!-- Node8 -->
<g id="node8" class="node">
<title>Node8</title>
<g id="a_node8"><a xlink:title=" ">
<polygon fill="white" stroke="#bfbfbf" points="403.5,-0.5 403.5,-19.5 481.5,-19.5 481.5,-0.5 403.5,-0.5"/>
<text text-anchor="middle" x="442.5" y="-7.5" font-family="Helvetica,sans-Serif" font-size="10.00">TunePlayer.h</text>
</a>
</g>
</g>
<!-- Node2&#45;&gt;Node8 -->
<g id="edge7" class="edge">
<title>Node2&#45;&gt;Node8</title>
<path fill="none" stroke="midnightblue" d="M442.5,-56.08C442.5,-49.01 442.5,-38.86 442.5,-29.99"/>
<polygon fill="midnightblue" stroke="midnightblue" points="446,-29.75 442.5,-19.75 439,-29.75 446,-29.75"/>
</g>
<!-- Node9 -->
<g id="node9" class="node">
<title>Node9</title>
<g id="a_node9"><a xlink:title=" ">
<polygon fill="white" stroke="#bfbfbf" points="499.5,-0.5 499.5,-19.5 579.5,-19.5 579.5,-0.5 499.5,-0.5"/>
<text text-anchor="middle" x="539.5" y="-7.5" font-family="Helvetica,sans-Serif" font-size="10.00">credentials.h</text>
</a>
</g>
</g>
<!-- Node2&#45;&gt;Node9 -->
<g id="edge8" class="edge">
<title>Node2&#45;&gt;Node9</title>
<path fill="none" stroke="midnightblue" d="M458.08,-56.32C473.5,-47.74 497.31,-34.49 515.21,-24.52"/>
<polygon fill="midnightblue" stroke="midnightblue" points="516.92,-27.58 523.95,-19.65 513.51,-21.46 516.92,-27.58"/>
</g>
<!-- Node10 -->
<g id="node10" class="node">
<title>Node10</title>
<g id="a_node10"><a xlink:href="topics_8h.html" target="_top" xlink:title="MQTT topics for a thingsboard gateway.">
<polygon fill="white" stroke="black" points="679.5,-0.5 679.5,-19.5 751.5,-19.5 751.5,-0.5 679.5,-0.5"/>
<text text-anchor="middle" x="715.5" y="-7.5" font-family="Helvetica,sans-Serif" font-size="10.00">src/topics.h</text>
</a>
</g>
</g>
<!-- Node2&#45;&gt;Node10 -->
<g id="edge9" class="edge">
<title>Node2&#45;&gt;Node10</title>
<path fill="none" stroke="midnightblue" d="M473.11,-58.98C515,-50.75 592.8,-35.42 668.91,-20.31"/>
<polygon fill="midnightblue" stroke="midnightblue" points="670.03,-23.66 679.15,-18.28 668.66,-16.79 670.03,-23.66"/>
</g>
<!-- Node12 -->
<g id="node12" class="node">
<title>Node12</title>
<g id="a_node12"><a xlink:href="fields_8h.html" target="_top" xlink:title="Contains fields classes.">
<polygon fill="white" stroke="black" points="454,-168.5 454,-187.5 523,-187.5 523,-168.5 454,-168.5"/>
<text text-anchor="middle" x="488.5" y="-175.5" font-family="Helvetica,sans-Serif" font-size="10.00">src/fields.h</text>
</a>
</g>
</g>
<!-- Node11&#45;&gt;Node12 -->
<g id="edge11" class="edge">
<title>Node11&#45;&gt;Node12</title>
<path fill="none" stroke="midnightblue" d="M494.95,-280.37C493.82,-262.62 491.22,-221.67 489.68,-197.6"/>
<polygon fill="midnightblue" stroke="midnightblue" points="493.17,-197.35 489.05,-187.59 486.19,-197.79 493.17,-197.35"/>
</g>
<!-- Node15 -->
<g id="node15" class="node">
<title>Node15</title>
<g id="a_node15"><a xlink:href="devices_8h.html" target="_top" xlink:title="Devices and manager for all known devices the base station connects to.">
<polygon fill="white" stroke="black" points="387.5,-224.5 387.5,-243.5 467.5,-243.5 467.5,-224.5 387.5,-224.5"/>
<text text-anchor="middle" x="427.5" y="-231.5" font-family="Helvetica,sans-Serif" font-size="10.00">src/devices.h</text>
</a>
</g>
</g>
<!-- Node11&#45;&gt;Node15 -->
<g id="edge17" class="edge">
<title>Node11&#45;&gt;Node15</title>
<path fill="none" stroke="midnightblue" d="M484.57,-280.32C474.33,-272.18 458.78,-259.84 446.5,-250.09"/>
<polygon fill="midnightblue" stroke="midnightblue" points="448.63,-247.31 438.62,-243.83 444.28,-252.79 448.63,-247.31"/>
</g>
<!-- Node12&#45;&gt;Node2 -->
<g id="edge12" class="edge">
<title>Node12&#45;&gt;Node2</title>
<path fill="none" stroke="midnightblue" d="M482.42,-168.4C476.43,-159.59 467.34,-145.36 461.5,-132 454.87,-116.85 449.79,-98.73 446.56,-85.48"/>
<polygon fill="midnightblue" stroke="midnightblue" points="449.95,-84.61 444.29,-75.66 443.13,-86.19 449.95,-84.61"/>
</g>
<!-- Node13 -->
<g id="node13" class="node">
<title>Node13</title>
<g id="a_node13"><a xlink:href="lookups_8h.html" target="_top" xlink:title="Lookupable and lookupable manager base classes.">
<polygon fill="white" stroke="black" points="351,-112.5 351,-131.5 414,-131.5 414,-112.5 351,-112.5"/>
<text text-anchor="middle" x="382.5" y="-119.5" font-family="Helvetica,sans-Serif" font-size="10.00">lookups.h</text>
</a>
</g>
</g>
<!-- Node12&#45;&gt;Node13 -->
<g id="edge13" class="edge">
<title>Node12&#45;&gt;Node13</title>
<path fill="none" stroke="midnightblue" d="M471.47,-168.32C454.47,-159.66 428.12,-146.24 408.51,-136.25"/>
<polygon fill="midnightblue" stroke="midnightblue" points="409.99,-133.08 399.49,-131.65 406.81,-139.31 409.99,-133.08"/>
</g>
<!-- Node14 -->
<g id="node14" class="node">
<title>Node14</title>
<g id="a_node14"><a xlink:href="conversions_8h.html" target="_top" xlink:title="General functions for converting to and from char arrays.">
<polygon fill="white" stroke="black" points="470.5,-112.5 470.5,-131.5 554.5,-131.5 554.5,-112.5 470.5,-112.5"/>
<text text-anchor="middle" x="512.5" y="-119.5" font-family="Helvetica,sans-Serif" font-size="10.00">conversions.h</text>
</a>
</g>
</g>
<!-- Node12&#45;&gt;Node14 -->
<g id="edge15" class="edge">
<title>Node12&#45;&gt;Node14</title>
<path fill="none" stroke="midnightblue" d="M492.46,-168.08C495.71,-160.77 500.42,-150.18 504.45,-141.1"/>
<polygon fill="midnightblue" stroke="midnightblue" points="507.75,-142.31 508.61,-131.75 501.35,-139.47 507.75,-142.31"/>
</g>
<!-- Node13&#45;&gt;Node2 -->
<g id="edge14" class="edge">
<title>Node13&#45;&gt;Node2</title>
<path fill="none" stroke="midnightblue" d="M392.14,-112.32C401.01,-104.34 414.37,-92.31 425.11,-82.65"/>
<polygon fill="midnightblue" stroke="midnightblue" points="427.59,-85.13 432.68,-75.83 422.91,-79.92 427.59,-85.13"/>
</g>
<!-- Node14&#45;&gt;Node2 -->
<g id="edge16" class="edge">
<title>Node14&#45;&gt;Node2</title>
<path fill="none" stroke="midnightblue" d="M501.25,-112.32C490.7,-104.18 474.7,-91.84 462.06,-82.09"/>
<polygon fill="midnightblue" stroke="midnightblue" points="464.01,-79.17 453.95,-75.83 459.73,-84.71 464.01,-79.17"/>
</g>
<!-- Node15&#45;&gt;Node2 -->
<g id="edge18" class="edge">
<title>Node15&#45;&gt;Node2</title>
<path fill="none" stroke="midnightblue" d="M412.93,-224.37C381.71,-204.77 313.43,-155.23 341.5,-112 354.92,-91.34 380.27,-80.08 402.21,-73.99"/>
<polygon fill="midnightblue" stroke="midnightblue" points="403.15,-77.37 412,-71.55 401.45,-70.58 403.15,-77.37"/>
</g>
<!-- Node15&#45;&gt;Node12 -->
<g id="edge20" class="edge">
<title>Node15&#45;&gt;Node12</title>
<path fill="none" stroke="midnightblue" d="M437.3,-224.32C446.32,-216.34 459.91,-204.31 470.82,-194.65"/>
<polygon fill="midnightblue" stroke="midnightblue" points="473.35,-197.08 478.52,-187.83 468.71,-191.84 473.35,-197.08"/>
</g>
<!-- Node15&#45;&gt;Node13 -->
<g id="edge19" class="edge">
<title>Node15&#45;&gt;Node13</title>
<path fill="none" stroke="midnightblue" d="M423.97,-224.37C416.64,-206.46 399.65,-164.92 389.84,-140.95"/>
<polygon fill="midnightblue" stroke="midnightblue" points="393.04,-139.52 386.01,-131.59 386.56,-142.17 393.04,-139.52"/>
</g>
<!-- Node16&#45;&gt;Node2 -->
<g id="edge22" class="edge">
<title>Node16&#45;&gt;Node2</title>
<path fill="none" stroke="midnightblue" d="M399.34,-395.72C339.55,-386.25 246.5,-360.38 246.5,-291 246.5,-291 246.5,-291 246.5,-177 246.5,-106.47 344.21,-80.7 401.65,-71.64"/>
<polygon fill="midnightblue" stroke="midnightblue" points="402.49,-75.06 411.88,-70.14 401.47,-68.13 402.49,-75.06"/>
</g>
<!-- Node16&#45;&gt;Node15 -->
<g id="edge23" class="edge">
<title>Node16&#45;&gt;Node15</title>
<path fill="none" stroke="midnightblue" d="M447.37,-392.08C444.07,-365.95 434.36,-289.21 429.85,-253.58"/>
<polygon fill="midnightblue" stroke="midnightblue" points="433.31,-253.05 428.58,-243.57 426.37,-253.93 433.31,-253.05"/>
</g>
<!-- Node16&#45;&gt;Node17 -->
<g id="edge24" class="edge">
<title>Node16&#45;&gt;Node17</title>
<path fill="none" stroke="midnightblue" d="M432.14,-392.32C420.06,-384.34 404.11,-372.31 392.6,-362.65"/>
<polygon fill="midnightblue" stroke="midnightblue" points="394.63,-359.78 384.8,-355.83 390.03,-365.05 394.63,-359.78"/>
</g>
<!-- Node17&#45;&gt;Node2 -->
<g id="edge25" class="edge">
<title>Node17&#45;&gt;Node2</title>
<path fill="none" stroke="midnightblue" d="M362.98,-336.35C336.28,-320.2 284.5,-282.73 284.5,-235 284.5,-235 284.5,-235 284.5,-177 284.5,-119.86 354.96,-89.98 401.77,-76.44"/>
<polygon fill="midnightblue" stroke="midnightblue" points="402.95,-79.74 411.66,-73.71 401.09,-72.99 402.95,-79.74"/>
</g>
<!-- Node17&#45;&gt;Node13 -->
<g id="edge26" class="edge">
<title>Node17&#45;&gt;Node13</title>
<path fill="none" stroke="midnightblue" d="M378.38,-336.49C378.14,-316.73 377.66,-266.22 378.5,-224 379.07,-195.27 380.55,-161.96 381.54,-141.69"/>
<polygon fill="midnightblue" stroke="midnightblue" points="385.04,-141.81 382.04,-131.64 378.05,-141.46 385.04,-141.81"/>
</g>
<!-- Node17&#45;&gt;Node15 -->
<g id="edge27" class="edge">
<title>Node17&#45;&gt;Node15</title>
<path fill="none" stroke="midnightblue" d="M382.34,-336.37C390.32,-318.46 408.83,-276.92 419.5,-252.95"/>
<polygon fill="midnightblue" stroke="midnightblue" points="422.8,-254.15 423.67,-243.59 416.41,-251.3 422.8,-254.15"/>
</g>
<!-- Node17&#45;&gt;Node16 -->
<g id="edge28" class="edge">
<title>Node17&#45;&gt;Node16</title>
<path fill="none" stroke="midnightblue" d="M394.83,-355.65C406.97,-363.68 423.04,-375.8 434.57,-385.49"/>
<polygon fill="midnightblue" stroke="midnightblue" points="432.54,-388.37 442.37,-392.32 437.15,-383.1 432.54,-388.37"/>
</g>
<!-- Node17&#45;&gt;Node18 -->
<g id="edge29" class="edge">
<title>Node17&#45;&gt;Node18</title>
<path fill="none" stroke="midnightblue" d="M400.7,-339.14C430.69,-331.17 486.06,-316.33 542.97,-300.1"/>
<polygon fill="midnightblue" stroke="midnightblue" points="544.21,-303.38 552.86,-297.27 542.29,-296.65 544.21,-303.38"/>
</g>
<!-- Node18&#45;&gt;Node2 -->
<g id="edge30" class="edge">
<title>Node18&#45;&gt;Node2</title>
<path fill="none" stroke="midnightblue" d="M576.04,-280.16C583.5,-252.26 602.42,-164.76 563.5,-112 544.92,-86.81 510.6,-75.71 483.24,-70.83"/>
<polygon fill="midnightblue" stroke="midnightblue" points="483.57,-67.34 473.15,-69.24 482.48,-74.25 483.57,-67.34"/>
</g>
<!-- Node18&#45;&gt;Node10 -->
<g id="edge31" class="edge">
<title>Node18&#45;&gt;Node10</title>
<path fill="none" stroke="midnightblue" d="M580.04,-280.41C592.95,-262.56 620.5,-219.7 620.5,-179 620.5,-179 620.5,-179 620.5,-121 620.5,-77.74 663.11,-43.09 691.25,-24.91"/>
<polygon fill="midnightblue" stroke="midnightblue" points="693.16,-27.85 699.81,-19.6 689.47,-21.9 693.16,-27.85"/>
</g>
<!-- Node18&#45;&gt;Node12 -->
<g id="edge35" class="edge">
<title>Node18&#45;&gt;Node12</title>
<path fill="none" stroke="midnightblue" d="M566.83,-280.37C552.74,-262.14 519.74,-219.43 501.39,-195.68"/>
<polygon fill="midnightblue" stroke="midnightblue" points="504.02,-193.36 495.14,-187.59 498.48,-197.64 504.02,-193.36"/>
</g>
<!-- Node18&#45;&gt;Node15 -->
<g id="edge34" class="edge">
<title>Node18&#45;&gt;Node15</title>
<path fill="none" stroke="midnightblue" d="M552.89,-281.38C528.84,-272.48 488.77,-257.66 460.4,-247.17"/>
<polygon fill="midnightblue" stroke="midnightblue" points="461.49,-243.84 450.9,-243.65 459.07,-250.41 461.49,-243.84"/>
</g>
<!-- Node18&#45;&gt;Node16 -->
<g id="edge36" class="edge">
<title>Node18&#45;&gt;Node16</title>
<path fill="none" stroke="midnightblue" d="M563.74,-299.59C542.69,-318.11 492.81,-362.01 466.1,-385.51"/>
<polygon fill="midnightblue" stroke="midnightblue" points="463.5,-383.13 458.31,-392.37 468.13,-388.39 463.5,-383.13"/>
</g>
<!-- Node18&#45;&gt;Node19 -->
<g id="edge32" class="edge">
<title>Node18&#45;&gt;Node19</title>
<path fill="none" stroke="midnightblue" d="M594.16,-281.03C617.33,-272.1 655.16,-257.5 682.02,-247.14"/>
<polygon fill="midnightblue" stroke="midnightblue" points="683.3,-250.4 691.37,-243.54 680.78,-243.87 683.3,-250.4"/>
</g>
<!-- Node19&#45;&gt;Node2 -->
<g id="edge33" class="edge">
<title>Node19&#45;&gt;Node2</title>
<path fill="none" stroke="midnightblue" d="M713.35,-224.4C712.48,-202.1 706.89,-142.08 672.5,-112 644.84,-87.8 541.68,-75.35 483.35,-70.11"/>
<polygon fill="midnightblue" stroke="midnightblue" points="483.62,-66.62 473.36,-69.25 483.02,-73.6 483.62,-66.62"/>
</g>
<!-- Node20&#45;&gt;Node2 -->
<g id="edge41" class="edge">
<title>Node20&#45;&gt;Node2</title>
<path fill="none" stroke="midnightblue" d="M759.32,-280.49C758.21,-251.27 750.22,-154.43 693.5,-112 660.91,-87.62 545.66,-75.05 483.3,-69.9"/>
<polygon fill="midnightblue" stroke="midnightblue" points="483.28,-66.39 473.03,-69.08 482.72,-73.36 483.28,-66.39"/>
</g>
<!-- Node20&#45;&gt;Node19 -->
<g id="edge42" class="edge">
<title>Node20&#45;&gt;Node19</title>
<path fill="none" stroke="midnightblue" d="M751.9,-280.08C745.27,-272.3 735.48,-260.8 727.44,-251.37"/>
<polygon fill="midnightblue" stroke="midnightblue" points="730.1,-249.09 720.95,-243.75 724.77,-253.63 730.1,-249.09"/>
</g>
</g>
</svg>
        <g id="navigator" transform="translate(0 0)" fill="#404254">
                <rect fill="#f2f5e9" fill-opacity="0.5" stroke="#606060" stroke-width=".5" x="0" y="0" width="60" height="60"/>
                <use id="zoomplus" xlink:href="#zoomPlus" x="17" y="9" onmousedown="handleZoom(evt,'in')"/>
                <use id="zoomminus" xlink:href="#zoomMin" x="42" y="9" onmousedown="handleZoom(evt,'out')"/>
                <use id="reset" xlink:href="#resetDef" x="30" y="36" onmousedown="handleReset()"/>
                <g id="arrowUp" xlink:href="#dirArrow" transform="translate(30 24)" onmousedown="handlePan(0,-1)">
                  <use xlink:href="#rim" fill="#404040">
                        <set attributeName="fill" to="#808080" begin="arrowUp.mouseover" end="arrowUp.mouseout"/>
                  </use>
                  <path fill="none" stroke="white" stroke-width="1.5" d="M0,-3.0v7 M-2.5,-0.5L0,-3.0L2.5,-0.5"/>
                </g>
                <g id="arrowRight" xlink:href="#dirArrow" transform="rotate(90) translate(36 -43)" onmousedown="handlePan(1,0)">
                  <use xlink:href="#rim" fill="#404040">
                        <set attributeName="fill" to="#808080" begin="arrowRight.mouseover" end="arrowRight.mouseout"/>
                  </use>
                  <path fill="none" stroke="white" stroke-width="1.5" d="M0,-3.0v7 M-2.5,-0.5L0,-3.0L2.5,-0.5"/>
                </g>
                <g id="arrowDown" xlink:href="#dirArrow" transform="rotate(180) translate(-30 -48)" onmousedown="handlePan(0,1)">
                  <use xlink:href="#rim" fill="#404040">
                        <set attributeName="fill" to="#808080" begin="arrowDown.mouseover" end="arrowDown.mouseout"/>
                  </use>
                  <path fill="none" stroke="white" stroke-width="1.5" d="M0,-3.0v7 M-2.5,-0.5L0,-3.0L2.5,-0.5"/>
                </g>
                <g id="arrowLeft" xlink:href="#dirArrow" transform="rotate(270) translate(-36 17)" onmousedown="handlePan(-1,0)">
                  <use xlink:href="#rim" fill="#404040">
                        <set attributeName="fill" to="#808080" begin="arrowLeft.mouseover" end="arrowLeft.mouseout"/>
                  </use>
                  <path fill="none" stroke="white" stroke-width="1.5" d="M0,-3.0v7 M-2.5,-0.5L0,-3.0L2.5,-0.5"/>
                </g>
        </g>
        <svg viewBox="0 0 15 15" width="100%" height="30px" preserveAspectRatio="xMaxYMin meet">
         <g id="arrow_out" transform="scale(0.3 0.3)">
          <a xlink:href="_e_s_p32_base_station_8ino__incl_org.svg" target="_base">
           <rect id="button" ry="5" rx="5" y="6" x="6" height="38" width="38"
                fill="#f2f5e9" fill-opacity="0.5" stroke="#606060" stroke-width="1.0"/>
           <path id="arrow"
             d="M 11.500037,31.436501 C 11.940474,20.09759 22.043105,11.32322 32.158766,21.979434 L 37.068811,17.246167 C 37.068811,17.246167 37.088388,32 37.088388,32 L 22.160133,31.978069 C 22.160133,31.978069 26.997745,27.140456 26.997745,27.140456 C 18.528582,18.264221 13.291696,25.230495 11.500037,31.436501 z"
             style="fill:#404040;"/>
          </a>
         </g>
        </svg>
</svg>
