<?xml version="1.0" encoding="UTF-8" standalone="no"?>
<!DOCTYPE svg PUBLIC "-//W3C//DTD SVG 1.1//EN"
 "http://www.w3.org/Graphics/SVG/1.1/DTD/svg11.dtd">
<!-- Generated by graphviz version 2.43.0 (0)
 -->
<!-- Title: ESP32BaseStation/ESP32BaseStation.ino Pages: 1 -->
<svg width="792pt" height="543pt"
 viewBox="0.00 0.00 791.50 543.00" xmlns="http://www.w3.org/2000/svg" xmlns:xlink="http://www.w3.org/1999/xlink">
<g id="graph0" class="graph" transform="scale(1 1) rotate(0) translate(4 539)">
<title>ESP32BaseStation/ESP32BaseStation.ino</title>
<polygon fill="white" stroke="transparent" points="-4,4 -4,-539 787.5,-539 787.5,4 -4,4"/>
<!-- Node1 -->
<g id="node1" class="node">
<title>Node1</title>
<g id="a_node1"><a xlink:title="Main file for a base station to connect to remote sensors on a farm.">
<polygon fill="#bfbfbf" stroke="black" points="465.5,-504.5 465.5,-534.5 627.5,-534.5 627.5,-504.5 465.5,-504.5"/>
<text text-anchor="start" x="473.5" y="-522.5" font-family="Helvetica,sans-Serif" font-size="10.00">ESP32BaseStation/ESP32Base</text>
<text text-anchor="middle" x="546.5" y="-511.5" font-family="Helvetica,sans-Serif" font-size="10.00">Station.ino</text>
</a>
</g>
</g>
<!-- Node2 -->
<g id="node2" class="node">
<title>Node2</title>
<g id="a_node2"><a xlink:href="defines_8h.html" target="_top" xlink:title="Definitions and other preprocessor and global stuff.">
<polygon fill="white" stroke="black" points="381,-56.5 381,-75.5 442,-75.5 442,-56.5 381,-56.5"/>
<text text-anchor="middle" x="411.5" y="-63.5" font-family="Helvetica,sans-Serif" font-size="10.00">defines.h</text>
</a>
</g>
</g>
<!-- Node1&#45;&gt;Node2 -->
<g id="edge1" class="edge">
<title>Node1&#45;&gt;Node2</title>
<path fill="none" stroke="midnightblue" d="M465.3,-512.22C345.52,-500.7 135.5,-470.82 135.5,-403 135.5,-403 135.5,-403 135.5,-177 135.5,-140.28 155.22,-131.24 186.5,-112 243.6,-76.88 322.85,-68.49 370.46,-66.86"/>
<polygon fill="midnightblue" stroke="midnightblue" points="370.79,-70.35 380.69,-66.6 370.61,-63.35 370.79,-70.35"/>
</g>
<!-- Node11 -->
<g id="node11" class="node">
<title>Node11</title>
<g id="a_node11"><a xlink:href="device__list_8h.html" target="_top" xlink:title="List of all devices and fields known to the system.">
<polygon fill="white" stroke="black" points="239.5,-280.5 239.5,-299.5 317.5,-299.5 317.5,-280.5 239.5,-280.5"/>
<text text-anchor="middle" x="278.5" y="-287.5" font-family="Helvetica,sans-Serif" font-size="10.00">device_list.h</text>
</a>
</g>
</g>
<!-- Node1&#45;&gt;Node11 -->
<g id="edge10" class="edge">
<title>Node1&#45;&gt;Node11</title>
<path fill="none" stroke="midnightblue" d="M465.12,-504.5C438.41,-496.97 409.87,-485.47 387.5,-468 332.35,-424.91 298.2,-345.53 284.89,-309.57"/>
<polygon fill="midnightblue" stroke="midnightblue" points="288.09,-308.13 281.42,-299.89 281.5,-310.48 288.09,-308.13"/>
</g>
<!-- Node16 -->
<g id="node16" class="node">
<title>Node16</title>
<g id="a_node16"><a xlink:href="networking_8h.html" target="_top" xlink:title="Header file for networking.cpp.">
<polygon fill="white" stroke="black" points="398.5,-392.5 398.5,-411.5 496.5,-411.5 496.5,-392.5 398.5,-392.5"/>
<text text-anchor="middle" x="447.5" y="-399.5" font-family="Helvetica,sans-Serif" font-size="10.00">src/networking.h</text>
</a>
</g>
</g>
<!-- Node1&#45;&gt;Node16 -->
<g id="edge21" class="edge">
<title>Node1&#45;&gt;Node16</title>
<path fill="none" stroke="midnightblue" d="M534.36,-504.34C515.96,-482.86 481.08,-442.17 461.58,-419.43"/>
<polygon fill="midnightblue" stroke="midnightblue" points="464.1,-416.98 454.93,-411.67 458.78,-421.54 464.1,-416.98"/>
</g>
<!-- Node17 -->
<g id="node17" class="node">
<title>Node17</title>
<g id="a_node17"><a xlink:href="lora_8h.html" target="_top" xlink:title="File that handles the LoRa radio and PJON.">
<polygon fill="white" stroke="black" points="425.5,-336.5 425.5,-355.5 469.5,-355.5 469.5,-336.5 425.5,-336.5"/>
<text text-anchor="middle" x="447.5" y="-343.5" font-family="Helvetica,sans-Serif" font-size="10.00">lora.h</text>
</a>
</g>
</g>
<!-- Node1&#45;&gt;Node17 -->
<g id="edge37" class="edge">
<title>Node1&#45;&gt;Node17</title>
<path fill="none" stroke="midnightblue" d="M563.03,-504.3C577.4,-490.15 594.47,-467.73 584.5,-448 562.49,-404.43 511.84,-375.03 478.68,-359.66"/>
<polygon fill="midnightblue" stroke="midnightblue" points="479.97,-356.41 469.41,-355.52 477.11,-362.8 479.97,-356.41"/>
</g>
<!-- Node18 -->
<g id="node18" class="node">
<title>Node18</title>
<g id="a_node18"><a xlink:href="rpc_8h.html" target="_top" xlink:title="Handles RPC calls.">
<polygon fill="white" stroke="black" points="538,-280.5 538,-299.5 579,-299.5 579,-280.5 538,-280.5"/>
<text text-anchor="middle" x="558.5" y="-287.5" font-family="Helvetica,sans-Serif" font-size="10.00">rpc.h</text>
</a>
</g>
</g>
<!-- Node1&#45;&gt;Node18 -->
<g id="edge38" class="edge">
<title>Node1&#45;&gt;Node18</title>
<path fill="none" stroke="midnightblue" d="M568.87,-504.35C580.67,-495.5 594.01,-482.95 600.5,-468 624.54,-412.6 589.23,-341.21 569.83,-308.62"/>
<polygon fill="midnightblue" stroke="midnightblue" points="572.62,-306.49 564.4,-299.82 566.67,-310.17 572.62,-306.49"/>
</g>
<!-- Node19 -->
<g id="node19" class="node">
<title>Node19</title>
<g id="a_node19"><a xlink:href="alarm_8h.html" target="_top" xlink:title="Handles alarms.">
<polygon fill="white" stroke="black" points="651.5,-224.5 651.5,-243.5 705.5,-243.5 705.5,-224.5 651.5,-224.5"/>
<text text-anchor="middle" x="678.5" y="-231.5" font-family="Helvetica,sans-Serif" font-size="10.00">alarm.h</text>
</a>
</g>
</g>
<!-- Node1&#45;&gt;Node19 -->
<g id="edge39" class="edge">
<title>Node1&#45;&gt;Node19</title>
<path fill="none" stroke="midnightblue" d="M587.45,-504.41C628.45,-487.39 685.5,-454.46 685.5,-403 685.5,-403 685.5,-403 685.5,-345 685.5,-312.88 682.49,-275.6 680.42,-253.73"/>
<polygon fill="midnightblue" stroke="midnightblue" points="683.88,-253.15 679.42,-243.55 676.91,-253.84 683.88,-253.15"/>
</g>
<!-- Node20 -->
<g id="node20" class="node">
<title>Node20</title>
<g id="a_node20"><a xlink:href="audio_8h.html" target="_top" xlink:title="Plays audio.">
<polygon fill="white" stroke="black" points="713.5,-280.5 713.5,-299.5 783.5,-299.5 783.5,-280.5 713.5,-280.5"/>
<text text-anchor="middle" x="748.5" y="-287.5" font-family="Helvetica,sans-Serif" font-size="10.00">src/audio.h</text>
</a>
</g>
</g>
<!-- Node1&#45;&gt;Node20 -->
<g id="edge40" class="edge">
<title>Node1&#45;&gt;Node20</title>
<path fill="none" stroke="midnightblue" d="M627.8,-507.22C653.74,-499.9 680.59,-487.85 699.5,-468 741.78,-423.61 748.19,-346.06 748.76,-310.2"/>
<polygon fill="midnightblue" stroke="midnightblue" points="752.26,-309.74 748.78,-299.74 745.26,-309.74 752.26,-309.74"/>
</g>
<!-- Node21 -->
<g id="node21" class="node">
<title>Node21</title>
<g id="a_node21"><a xlink:href="leds_8h.html" target="_top" xlink:title="Controls the LEDs on the unit.">
<polygon fill="white" stroke="black" points="397,-448.5 397,-467.5 460,-467.5 460,-448.5 397,-448.5"/>
<text text-anchor="middle" x="428.5" y="-455.5" font-family="Helvetica,sans-Serif" font-size="10.00">src/leds.h</text>
</a>
</g>
</g>
<!-- Node1&#45;&gt;Node21 -->
<g id="edge43" class="edge">
<title>Node1&#45;&gt;Node21</title>
<path fill="none" stroke="midnightblue" d="M518.54,-504.4C499.18,-494.64 473.59,-481.74 454.64,-472.18"/>
<polygon fill="midnightblue" stroke="midnightblue" points="456.17,-469.04 445.67,-467.66 453.02,-475.29 456.17,-469.04"/>
</g>
<!-- Node22 -->
<g id="node22" class="node">
<title>Node22</title>
<g id="a_node22"><a xlink:href="ota_8h.html" target="_top" xlink:title="Handles over the air (OTA) updates.">
<polygon fill="white" stroke="black" points="517,-448.5 517,-467.5 576,-467.5 576,-448.5 517,-448.5"/>
<text text-anchor="middle" x="546.5" y="-455.5" font-family="Helvetica,sans-Serif" font-size="10.00">src/ota.h</text>
</a>
</g>
</g>
<!-- Node1&#45;&gt;Node22 -->
<g id="edge48" class="edge">
<title>Node1&#45;&gt;Node22</title>
<path fill="none" stroke="midnightblue" d="M546.5,-504.4C546.5,-496.47 546.5,-486.46 546.5,-477.86"/>
<polygon fill="midnightblue" stroke="midnightblue" points="550,-477.66 546.5,-467.66 543,-477.66 550,-477.66"/>
</g>
<!-- Node3 -->
<g id="node3" class="node">
<title>Node3</title>
<g id="a_node3"><a xlink:title=" ">
<polygon fill="white" stroke="#bfbfbf" points="580.5,-0.5 580.5,-19.5 660.5,-19.5 660.5,-0.5 580.5,-0.5"/>
<text text-anchor="middle" x="620.5" y="-7.5" font-family="Helvetica,sans-Serif" font-size="10.00">credentials.h</text>
</a>
</g>
</g>
<!-- Node2&#45;&gt;Node3 -->
<g id="edge2" class="edge">
<title>Node2&#45;&gt;Node3</title>
<path fill="none" stroke="midnightblue" d="M442.34,-57.03C478.14,-47.78 537.41,-32.47 577.66,-22.07"/>
<polygon fill="midnightblue" stroke="midnightblue" points="578.66,-25.43 587.46,-19.54 576.91,-18.65 578.66,-25.43"/>
</g>
<!-- Node4 -->
<g id="node4" class="node">
<title>Node4</title>
<g id="a_node4"><a xlink:title=" ">
<polygon fill="white" stroke="#bfbfbf" points="0,-0.5 0,-19.5 63,-19.5 63,-0.5 0,-0.5"/>
<text text-anchor="middle" x="31.5" y="-7.5" font-family="Helvetica,sans-Serif" font-size="10.00">Arduino.h</text>
</a>
</g>
</g>
<!-- Node2&#45;&gt;Node4 -->
<g id="edge3" class="edge">
<title>Node2&#45;&gt;Node4</title>
<path fill="none" stroke="midnightblue" d="M380.88,-61.88C322.77,-55.76 192.32,-41.06 73.33,-20.2"/>
<polygon fill="midnightblue" stroke="midnightblue" points="73.78,-16.73 63.32,-18.43 72.56,-23.62 73.78,-16.73"/>
</g>
<!-- Node5 -->
<g id="node5" class="node">
<title>Node5</title>
<g id="a_node5"><a xlink:title=" ">
<polygon fill="white" stroke="#bfbfbf" points="81,-0.5 81,-19.5 128,-19.5 128,-0.5 81,-0.5"/>
<text text-anchor="middle" x="104.5" y="-7.5" font-family="Helvetica,sans-Serif" font-size="10.00">WiFi.h</text>
</a>
</g>
</g>
<!-- Node2&#45;&gt;Node5 -->
<g id="edge4" class="edge">
<title>Node2&#45;&gt;Node5</title>
<path fill="none" stroke="midnightblue" d="M380.9,-61.03C331.79,-54.43 232.22,-40.11 138.18,-19.95"/>
<polygon fill="midnightblue" stroke="midnightblue" points="138.74,-16.49 128.22,-17.78 137.25,-23.33 138.74,-16.49"/>
</g>
<!-- Node6 -->
<g id="node6" class="node">
<title>Node6</title>
<g id="a_node6"><a xlink:title=" ">
<polygon fill="white" stroke="#bfbfbf" points="146.5,-0.5 146.5,-19.5 236.5,-19.5 236.5,-0.5 146.5,-0.5"/>
<text text-anchor="middle" x="191.5" y="-7.5" font-family="Helvetica,sans-Serif" font-size="10.00">PubSubClient.h</text>
</a>
</g>
</g>
<!-- Node2&#45;&gt;Node6 -->
<g id="edge5" class="edge">
<title>Node2&#45;&gt;Node6</title>
<path fill="none" stroke="midnightblue" d="M380.91,-57.49C343.31,-48.26 279.2,-32.53 236.11,-21.95"/>
<polygon fill="midnightblue" stroke="midnightblue" points="236.72,-18.5 226.18,-19.51 235.05,-25.29 236.72,-18.5"/>
</g>
<!-- Node7 -->
<g id="node7" class="node">
<title>Node7</title>
<g id="a_node7"><a xlink:title=" ">
<polygon fill="white" stroke="#bfbfbf" points="255,-0.5 255,-19.5 338,-19.5 338,-0.5 255,-0.5"/>
<text text-anchor="middle" x="296.5" y="-7.5" font-family="Helvetica,sans-Serif" font-size="10.00">ArduinoJson.h</text>
</a>
</g>
</g>
<!-- Node2&#45;&gt;Node7 -->
<g id="edge6" class="edge">
<title>Node2&#45;&gt;Node7</title>
<path fill="none" stroke="midnightblue" d="M393.28,-56.44C374.6,-47.68 345.34,-33.94 323.88,-23.86"/>
<polygon fill="midnightblue" stroke="midnightblue" points="325.18,-20.6 314.64,-19.52 322.2,-26.93 325.18,-20.6"/>
</g>
<!-- Node8 -->
<g id="node8" class="node">
<title>Node8</title>
<g id="a_node8"><a xlink:title=" ">
<polygon fill="white" stroke="#bfbfbf" points="356.5,-0.5 356.5,-19.5 466.5,-19.5 466.5,-0.5 356.5,-0.5"/>
<text text-anchor="middle" x="411.5" y="-7.5" font-family="Helvetica,sans-Serif" font-size="10.00">PJONThroughLora.h</text>
</a>
</g>
</g>
<!-- Node2&#45;&gt;Node8 -->
<g id="edge7" class="edge">
<title>Node2&#45;&gt;Node8</title>
<path fill="none" stroke="midnightblue" d="M411.5,-56.08C411.5,-49.01 411.5,-38.86 411.5,-29.99"/>
<polygon fill="midnightblue" stroke="midnightblue" points="415,-29.75 411.5,-19.75 408,-29.75 415,-29.75"/>
</g>
<!-- Node9 -->
<g id="node9" class="node">
<title>Node9</title>
<g id="a_node9"><a xlink:title=" ">
<polygon fill="white" stroke="#bfbfbf" points="484.5,-0.5 484.5,-19.5 562.5,-19.5 562.5,-0.5 484.5,-0.5"/>
<text text-anchor="middle" x="523.5" y="-7.5" font-family="Helvetica,sans-Serif" font-size="10.00">TunePlayer.h</text>
</a>
</g>
</g>
<!-- Node2&#45;&gt;Node9 -->
<g id="edge8" class="edge">
<title>Node2&#45;&gt;Node9</title>
<path fill="none" stroke="midnightblue" d="M429.49,-56.32C447.54,-47.62 475.55,-34.12 496.3,-24.11"/>
<polygon fill="midnightblue" stroke="midnightblue" points="498.06,-27.15 505.55,-19.65 495.02,-20.84 498.06,-27.15"/>
</g>
<!-- Node10 -->
<g id="node10" class="node">
<title>Node10</title>
<g id="a_node10"><a xlink:href="topics_8h.html" target="_top" xlink:title="MQTT topics for a thingsboard gateway.">
<polygon fill="white" stroke="black" points="678.5,-0.5 678.5,-19.5 750.5,-19.5 750.5,-0.5 678.5,-0.5"/>
<text text-anchor="middle" x="714.5" y="-7.5" font-family="Helvetica,sans-Serif" font-size="10.00">src/topics.h</text>
</a>
</g>
</g>
<!-- Node2&#45;&gt;Node10 -->
<g id="edge9" class="edge">
<title>Node2&#45;&gt;Node10</title>
<path fill="none" stroke="midnightblue" d="M442.13,-59.91C488.74,-52.11 580.54,-36.53 668.31,-20.19"/>
<polygon fill="midnightblue" stroke="midnightblue" points="668.98,-23.62 678.17,-18.35 667.69,-16.74 668.98,-23.62"/>
</g>
<!-- Node12 -->
<g id="node12" class="node">
<title>Node12</title>
<g id="a_node12"><a xlink:href="fields_8h.html" target="_top" xlink:title="Contains fields classes.">
<polygon fill="white" stroke="black" points="298,-168.5 298,-187.5 367,-187.5 367,-168.5 298,-168.5"/>
<text text-anchor="middle" x="332.5" y="-175.5" font-family="Helvetica,sans-Serif" font-size="10.00">src/fields.h</text>
</a>
</g>
</g>
<!-- Node11&#45;&gt;Node12 -->
<g id="edge11" class="edge">
<title>Node11&#45;&gt;Node12</title>
<path fill="none" stroke="midnightblue" d="M282.74,-280.37C291.57,-262.38 312.1,-220.55 323.85,-196.63"/>
<polygon fill="midnightblue" stroke="midnightblue" points="327.02,-198.11 328.28,-187.59 320.73,-195.03 327.02,-198.11"/>
</g>
<!-- Node15 -->
<g id="node15" class="node">
<title>Node15</title>
<g id="a_node15"><a xlink:href="devices_8h.html" target="_top" xlink:title="Devices and manager for all known devices the base station connects to.">
<polygon fill="white" stroke="black" points="325.5,-224.5 325.5,-243.5 405.5,-243.5 405.5,-224.5 325.5,-224.5"/>
<text text-anchor="middle" x="365.5" y="-231.5" font-family="Helvetica,sans-Serif" font-size="10.00">src/devices.h</text>
</a>
</g>
</g>
<!-- Node11&#45;&gt;Node15 -->
<g id="edge17" class="edge">
<title>Node11&#45;&gt;Node15</title>
<path fill="none" stroke="midnightblue" d="M292.48,-280.32C306.05,-271.9 326.88,-258.97 342.82,-249.07"/>
<polygon fill="midnightblue" stroke="midnightblue" points="344.91,-251.9 351.56,-243.65 341.21,-245.95 344.91,-251.9"/>
</g>
<!-- Node12&#45;&gt;Node2 -->
<g id="edge12" class="edge">
<title>Node12&#45;&gt;Node2</title>
<path fill="none" stroke="midnightblue" d="M336.87,-168.23C343.44,-155.39 356.56,-130.96 370.5,-112 378,-101.8 387.45,-91.3 395.39,-83.01"/>
<polygon fill="midnightblue" stroke="midnightblue" points="397.93,-85.42 402.42,-75.82 392.93,-80.52 397.93,-85.42"/>
</g>
<!-- Node13 -->
<g id="node13" class="node">
<title>Node13</title>
<g id="a_node13"><a xlink:href="lookups_8h.html" target="_top" xlink:title="Lookupable and lookupable manager base classes.">
<polygon fill="white" stroke="black" points="380,-112.5 380,-131.5 443,-131.5 443,-112.5 380,-112.5"/>
<text text-anchor="middle" x="411.5" y="-119.5" font-family="Helvetica,sans-Serif" font-size="10.00">lookups.h</text>
</a>
</g>
</g>
<!-- Node12&#45;&gt;Node13 -->
<g id="edge13" class="edge">
<title>Node12&#45;&gt;Node13</title>
<path fill="none" stroke="midnightblue" d="M345.19,-168.32C357.4,-159.98 376.08,-147.21 390.5,-137.35"/>
<polygon fill="midnightblue" stroke="midnightblue" points="392.56,-140.19 398.84,-131.65 388.61,-134.41 392.56,-140.19"/>
</g>
<!-- Node14 -->
<g id="node14" class="node">
<title>Node14</title>
<g id="a_node14"><a xlink:href="conversions_8h.html" target="_top" xlink:title="General functions for converting to and from char arrays.">
<polygon fill="white" stroke="black" points="239.5,-112.5 239.5,-131.5 323.5,-131.5 323.5,-112.5 239.5,-112.5"/>
<text text-anchor="middle" x="281.5" y="-119.5" font-family="Helvetica,sans-Serif" font-size="10.00">conversions.h</text>
</a>
</g>
</g>
<!-- Node12&#45;&gt;Node14 -->
<g id="edge15" class="edge">
<title>Node12&#45;&gt;Node14</title>
<path fill="none" stroke="midnightblue" d="M324.08,-168.08C316.65,-160.22 305.65,-148.57 296.69,-139.08"/>
<polygon fill="midnightblue" stroke="midnightblue" points="299.18,-136.62 289.76,-131.75 294.09,-141.42 299.18,-136.62"/>
</g>
<!-- Node13&#45;&gt;Node2 -->
<g id="edge14" class="edge">
<title>Node13&#45;&gt;Node2</title>
<path fill="none" stroke="midnightblue" d="M411.5,-112.08C411.5,-105.01 411.5,-94.86 411.5,-85.99"/>
<polygon fill="midnightblue" stroke="midnightblue" points="415,-85.75 411.5,-75.75 408,-85.75 415,-85.75"/>
</g>
<!-- Node14&#45;&gt;Node2 -->
<g id="edge16" class="edge">
<title>Node14&#45;&gt;Node2</title>
<path fill="none" stroke="midnightblue" d="M302.1,-112.44C323.49,-103.56 357.18,-89.56 381.52,-79.45"/>
<polygon fill="midnightblue" stroke="midnightblue" points="383.11,-82.58 391,-75.52 380.42,-76.12 383.11,-82.58"/>
</g>
<!-- Node15&#45;&gt;Node2 -->
<g id="edge18" class="edge">
<title>Node15&#45;&gt;Node2</title>
<path fill="none" stroke="midnightblue" d="M377,-224.26C396.76,-208.43 436.47,-172.85 451.5,-132 458.23,-113.71 444.02,-94.97 430.7,-82.34"/>
<polygon fill="midnightblue" stroke="midnightblue" points="432.95,-79.66 423.14,-75.66 428.32,-84.91 432.95,-79.66"/>
</g>
<!-- Node15&#45;&gt;Node12 -->
<g id="edge20" class="edge">
<title>Node15&#45;&gt;Node12</title>
<path fill="none" stroke="midnightblue" d="M360.05,-224.08C355.49,-216.61 348.83,-205.72 343.21,-196.52"/>
<polygon fill="midnightblue" stroke="midnightblue" points="346.05,-194.46 337.85,-187.75 340.08,-198.11 346.05,-194.46"/>
</g>
<!-- Node15&#45;&gt;Node13 -->
<g id="edge19" class="edge">
<title>Node15&#45;&gt;Node13</title>
<path fill="none" stroke="midnightblue" d="M369.11,-224.37C376.6,-206.46 393.97,-164.92 403.99,-140.95"/>
<polygon fill="midnightblue" stroke="midnightblue" points="407.28,-142.17 407.91,-131.59 400.82,-139.47 407.28,-142.17"/>
</g>
<!-- Node16&#45;&gt;Node2 -->
<g id="edge22" class="edge">
<title>Node16&#45;&gt;Node2</title>
<path fill="none" stroke="midnightblue" d="M405.64,-392.5C356.65,-380.38 276.4,-353.43 230.5,-300 210.89,-277.17 211.5,-265.1 211.5,-235 211.5,-235 211.5,-235 211.5,-177 211.5,-146.9 208.79,-132.84 230.5,-112 250.37,-92.92 323.77,-79.33 370.78,-72.35"/>
<polygon fill="midnightblue" stroke="midnightblue" points="371.56,-75.78 380.95,-70.89 370.56,-68.85 371.56,-75.78"/>
</g>
<!-- Node16&#45;&gt;Node15 -->
<g id="edge23" class="edge">
<title>Node16&#45;&gt;Node15</title>
<path fill="none" stroke="midnightblue" d="M440.77,-392.38C434.08,-383.56 423.79,-369.31 416.5,-356 397.41,-321.15 380.67,-277.66 371.93,-253.46"/>
<polygon fill="midnightblue" stroke="midnightblue" points="375.15,-252.04 368.5,-243.79 368.55,-254.39 375.15,-252.04"/>
</g>
<!-- Node16&#45;&gt;Node17 -->
<g id="edge24" class="edge">
<title>Node16&#45;&gt;Node17</title>
<path fill="none" stroke="midnightblue" d="M442.33,-392.08C440.82,-384.93 440.39,-374.64 441.04,-365.69"/>
<polygon fill="midnightblue" stroke="midnightblue" points="444.52,-366.13 442.37,-355.75 437.58,-365.2 444.52,-366.13"/>
</g>
<!-- Node17&#45;&gt;Node2 -->
<g id="edge25" class="edge">
<title>Node17&#45;&gt;Node2</title>
<path fill="none" stroke="midnightblue" d="M456.65,-336.25C473.89,-318.77 509.5,-277.53 509.5,-235 509.5,-235 509.5,-235 509.5,-177 509.5,-133.38 466.01,-99.06 436.97,-81.01"/>
<polygon fill="midnightblue" stroke="midnightblue" points="438.5,-77.85 428.12,-75.73 434.92,-83.86 438.5,-77.85"/>
</g>
<!-- Node17&#45;&gt;Node13 -->
<g id="edge26" class="edge">
<title>Node17&#45;&gt;Node13</title>
<path fill="none" stroke="midnightblue" d="M446.09,-336.3C440.79,-303.63 422.02,-187.87 414.57,-141.96"/>
<polygon fill="midnightblue" stroke="midnightblue" points="418,-141.19 412.94,-131.88 411.09,-142.32 418,-141.19"/>
</g>
<!-- Node17&#45;&gt;Node15 -->
<g id="edge27" class="edge">
<title>Node17&#45;&gt;Node15</title>
<path fill="none" stroke="midnightblue" d="M443.21,-336.16C436.76,-323.24 423.77,-298.71 409.5,-280 401.48,-269.49 391.22,-258.87 382.62,-250.58"/>
<polygon fill="midnightblue" stroke="midnightblue" points="384.99,-248 375.3,-243.7 380.19,-253.1 384.99,-248"/>
</g>
<!-- Node17&#45;&gt;Node16 -->
<g id="edge28" class="edge">
<title>Node17&#45;&gt;Node16</title>
<path fill="none" stroke="midnightblue" d="M452.63,-355.75C454.16,-362.86 454.6,-373.14 453.97,-382.1"/>
<polygon fill="midnightblue" stroke="midnightblue" points="450.49,-381.71 452.67,-392.08 457.43,-382.62 450.49,-381.71"/>
</g>
<!-- Node17&#45;&gt;Node18 -->
<g id="edge29" class="edge">
<title>Node17&#45;&gt;Node18</title>
<path fill="none" stroke="midnightblue" d="M465.33,-336.32C483.22,-327.62 510.98,-314.12 531.55,-304.11"/>
<polygon fill="midnightblue" stroke="midnightblue" points="533.25,-307.18 540.71,-299.65 530.19,-300.88 533.25,-307.18"/>
</g>
<!-- Node18&#45;&gt;Node2 -->
<g id="edge30" class="edge">
<title>Node18&#45;&gt;Node2</title>
<path fill="none" stroke="midnightblue" d="M559.44,-280.44C561.99,-252.62 566.27,-163.61 523.5,-112 505.78,-90.61 476.38,-79.31 452.14,-73.38"/>
<polygon fill="midnightblue" stroke="midnightblue" points="452.65,-69.91 442.13,-71.15 451.13,-76.74 452.65,-69.91"/>
</g>
<!-- Node18&#45;&gt;Node10 -->
<g id="edge31" class="edge">
<title>Node18&#45;&gt;Node10</title>
<path fill="none" stroke="midnightblue" d="M562.14,-280.34C569.51,-262 585.5,-217.74 585.5,-179 585.5,-179 585.5,-179 585.5,-121 585.5,-71.35 641.52,-39.37 679.73,-23.33"/>
<polygon fill="midnightblue" stroke="midnightblue" points="681.04,-26.57 689.01,-19.59 678.43,-20.08 681.04,-26.57"/>
</g>
<!-- Node18&#45;&gt;Node12 -->
<g id="edge35" class="edge">
<title>Node18&#45;&gt;Node12</title>
<path fill="none" stroke="midnightblue" d="M540.77,-280.37C501.32,-261.17 406.14,-214.84 359.36,-192.07"/>
<polygon fill="midnightblue" stroke="midnightblue" points="360.67,-188.82 350.15,-187.59 357.61,-195.11 360.67,-188.82"/>
</g>
<!-- Node18&#45;&gt;Node15 -->
<g id="edge34" class="edge">
<title>Node18&#45;&gt;Node15</title>
<path fill="none" stroke="midnightblue" d="M537.85,-283.22C506.47,-274.44 446.19,-257.58 405.9,-246.3"/>
<polygon fill="midnightblue" stroke="midnightblue" points="406.69,-242.89 396.12,-243.57 404.81,-249.63 406.69,-242.89"/>
</g>
<!-- Node18&#45;&gt;Node16 -->
<g id="edge36" class="edge">
<title>Node18&#45;&gt;Node16</title>
<path fill="none" stroke="midnightblue" d="M549.83,-299.59C531.22,-318.03 487.23,-361.63 463.44,-385.21"/>
<polygon fill="midnightblue" stroke="midnightblue" points="460.85,-382.84 456.21,-392.37 465.78,-387.82 460.85,-382.84"/>
</g>
<!-- Node18&#45;&gt;Node19 -->
<g id="edge32" class="edge">
<title>Node18&#45;&gt;Node19</title>
<path fill="none" stroke="midnightblue" d="M577.51,-280.44C597.09,-271.64 627.81,-257.81 650.23,-247.72"/>
<polygon fill="midnightblue" stroke="midnightblue" points="651.89,-250.81 659.57,-243.52 649.02,-244.43 651.89,-250.81"/>
</g>
<!-- Node19&#45;&gt;Node2 -->
<g id="edge33" class="edge">
<title>Node19&#45;&gt;Node2</title>
<path fill="none" stroke="midnightblue" d="M678.35,-224.4C677.46,-202.12 671.84,-142.14 637.5,-112 610.47,-88.27 509.92,-75.68 452.46,-70.28"/>
<polygon fill="midnightblue" stroke="midnightblue" points="452.53,-66.77 442.26,-69.36 451.9,-73.74 452.53,-66.77"/>
</g>
<!-- Node20&#45;&gt;Node2 -->
<g id="edge41" class="edge">
<title>Node20&#45;&gt;Node2</title>
<path fill="none" stroke="midnightblue" d="M746.94,-280.24C741.24,-251.03 718.72,-156.29 659.5,-112 627.37,-87.97 514,-75.27 452.28,-70.01"/>
<polygon fill="midnightblue" stroke="midnightblue" points="452.37,-66.5 442.11,-69.17 451.79,-73.48 452.37,-66.5"/>
</g>
<!-- Node20&#45;&gt;Node19 -->
<g id="edge42" class="edge">
<title>Node20&#45;&gt;Node19</title>
<path fill="none" stroke="midnightblue" d="M737.25,-280.32C726.7,-272.18 710.7,-259.84 698.06,-250.09"/>
<polygon fill="midnightblue" stroke="midnightblue" points="700.01,-247.17 689.95,-243.83 695.73,-252.71 700.01,-247.17"/>
</g>
<!-- Node21&#45;&gt;Node2 -->
<g id="edge44" class="edge">
<title>Node21&#45;&gt;Node2</title>
<path fill="none" stroke="midnightblue" d="M402.17,-448.41C337.02,-425.3 173.5,-355.33 173.5,-235 173.5,-235 173.5,-235 173.5,-177 173.5,-91.23 302.43,-72.13 370.5,-68.02"/>
<polygon fill="midnightblue" stroke="midnightblue" points="371.07,-71.49 380.87,-67.48 370.7,-64.5 371.07,-71.49"/>
</g>
<!-- Node21&#45;&gt;Node15 -->
<g id="edge47" class="edge">
<title>Node21&#45;&gt;Node15</title>
<path fill="none" stroke="midnightblue" d="M418.34,-448.49C409.17,-440.19 396.14,-426.7 389.5,-412 365.28,-358.41 363.77,-287.09 364.62,-253.71"/>
<polygon fill="midnightblue" stroke="midnightblue" points="368.12,-253.7 364.98,-243.58 361.13,-253.45 368.12,-253.7"/>
</g>
<!-- Node21&#45;&gt;Node16 -->
<g id="edge46" class="edge">
<title>Node21&#45;&gt;Node16</title>
<path fill="none" stroke="midnightblue" d="M431.64,-448.08C434.18,-440.85 437.86,-430.41 441.03,-421.4"/>
<polygon fill="midnightblue" stroke="midnightblue" points="444.4,-422.35 444.42,-411.75 437.8,-420.02 444.4,-422.35"/>
</g>
<!-- Node21&#45;&gt;Node19 -->
<g id="edge45" class="edge">
<title>Node21&#45;&gt;Node19</title>
<path fill="none" stroke="midnightblue" d="M446.17,-448.41C462.35,-440.15 486.58,-426.77 505.5,-412 571.73,-360.3 637.71,-284.32 665.19,-251.31"/>
<polygon fill="midnightblue" stroke="midnightblue" points="667.94,-253.48 671.6,-243.54 662.54,-249.02 667.94,-253.48"/>
</g>
<!-- Node22&#45;&gt;Node2 -->
<g id="edge49" class="edge">
<title>Node22&#45;&gt;Node2</title>
<path fill="none" stroke="midnightblue" d="M550.71,-448.11C564.85,-417.16 608.73,-311.31 591.5,-224 581.05,-171.04 584.14,-148.64 544.5,-112 519.15,-88.57 481.15,-77.29 452.25,-71.89"/>
<polygon fill="midnightblue" stroke="midnightblue" points="452.5,-68.38 442.06,-70.16 451.33,-75.28 452.5,-68.38"/>
</g>
<!-- Node22&#45;&gt;Node16 -->
<g id="edge50" class="edge">
<title>Node22&#45;&gt;Node16</title>
<path fill="none" stroke="midnightblue" d="M530.59,-448.32C514.86,-439.74 490.56,-426.49 472.29,-416.52"/>
<polygon fill="midnightblue" stroke="midnightblue" points="473.82,-413.37 463.37,-411.65 470.47,-419.52 473.82,-413.37"/>
</g>
</g>
</svg>
