<?xml version="1.0" encoding="UTF-8" standalone="no"?>
<!DOCTYPE svg PUBLIC "-//W3C//DTD SVG 1.1//EN"
 "http://www.w3.org/Graphics/SVG/1.1/DTD/svg11.dtd">
<!-- Generated by graphviz version 2.43.0 (0)
 -->
<!-- Title: BaseStationCode/src/src/alarm.h Pages: 1 -->
<svg width="696pt" height="374pt"
 viewBox="0.00 0.00 695.59 374.00" xmlns="http://www.w3.org/2000/svg" xmlns:xlink="http://www.w3.org/1999/xlink">
<g id="graph0" class="graph" transform="scale(1 1) rotate(0) translate(4 370)">
<title>BaseStationCode/src/src/alarm.h</title>
<polygon fill="white" stroke="transparent" points="-4,4 -4,-370 691.59,-370 691.59,4 -4,4"/>
<!-- Node1 -->
<g id="node1" class="node">
<title>Node1</title>
<g id="a_node1"><a xlink:title="Handles alarms.">
<polygon fill="#bfbfbf" stroke="black" points="175,-335.5 175,-365.5 292,-365.5 292,-335.5 175,-335.5"/>
<text text-anchor="start" x="183" y="-353.5" font-family="Helvetica,sans-Serif" font-size="10.00">BaseStationCode/src</text>
<text text-anchor="middle" x="233.5" y="-342.5" font-family="Helvetica,sans-Serif" font-size="10.00">/src/alarm.h</text>
</a>
</g>
</g>
<!-- Node2 -->
<g id="node2" class="node">
<title>Node2</title>
<g id="a_node2"><a xlink:href="main_8cpp.html" target="_top" xlink:title=" ">
<polygon fill="white" stroke="black" points="286,-0.5 286,-30.5 403,-30.5 403,-0.5 286,-0.5"/>
<text text-anchor="start" x="294" y="-18.5" font-family="Helvetica,sans-Serif" font-size="10.00">BaseStationCode/src</text>
<text text-anchor="middle" x="344.5" y="-7.5" font-family="Helvetica,sans-Serif" font-size="10.00">/main.cpp</text>
</a>
</g>
</g>
<!-- Node1&#45;&gt;Node2 -->
<g id="edge1" class="edge">
<title>Node1&#45;&gt;Node2</title>
<path fill="none" stroke="midnightblue" d="M197.27,-329.84C185.48,-321.76 173.41,-311.36 165.5,-299 141.79,-261.93 134.21,-241.46 151.5,-201 186.21,-119.8 276.13,-57.28 319.88,-30.61"/>
<polygon fill="midnightblue" stroke="midnightblue" points="195.44,-332.83 205.74,-335.32 199.24,-326.95 195.44,-332.83"/>
</g>
<!-- Node3 -->
<g id="node3" class="node">
<title>Node3</title>
<g id="a_node3"><a xlink:href="alarm_8cpp.html" target="_top" xlink:title="Handles alarms.">
<polygon fill="white" stroke="black" points="452,-268.5 452,-298.5 569,-298.5 569,-268.5 452,-268.5"/>
<text text-anchor="start" x="460" y="-286.5" font-family="Helvetica,sans-Serif" font-size="10.00">BaseStationCode/src</text>
<text text-anchor="middle" x="510.5" y="-275.5" font-family="Helvetica,sans-Serif" font-size="10.00">/src/alarm.cpp</text>
</a>
</g>
</g>
<!-- Node1&#45;&gt;Node3 -->
<g id="edge2" class="edge">
<title>Node1&#45;&gt;Node3</title>
<path fill="none" stroke="midnightblue" d="M302.13,-333.39C348.13,-322.6 408.07,-308.54 451.84,-298.26"/>
<polygon fill="midnightblue" stroke="midnightblue" points="301.18,-330.02 292.24,-335.72 302.78,-336.84 301.18,-330.02"/>
</g>
<!-- Node4 -->
<g id="node4" class="node">
<title>Node4</title>
<g id="a_node4"><a xlink:href="audio_8h.html" target="_top" xlink:title="Plays audio.">
<polygon fill="white" stroke="black" points="175,-268.5 175,-298.5 292,-298.5 292,-268.5 175,-268.5"/>
<text text-anchor="start" x="183" y="-286.5" font-family="Helvetica,sans-Serif" font-size="10.00">BaseStationCode/src</text>
<text text-anchor="middle" x="233.5" y="-275.5" font-family="Helvetica,sans-Serif" font-size="10.00">/src/audio.h</text>
</a>
</g>
</g>
<!-- Node1&#45;&gt;Node4 -->
<g id="edge3" class="edge">
<title>Node1&#45;&gt;Node4</title>
<path fill="none" stroke="midnightblue" d="M233.5,-325.11C233.5,-316.15 233.5,-306.32 233.5,-298.58"/>
<polygon fill="midnightblue" stroke="midnightblue" points="230,-325.4 233.5,-335.4 237,-325.4 230,-325.4"/>
</g>
<!-- Node6 -->
<g id="node6" class="node">
<title>Node6</title>
<g id="a_node6"><a xlink:href="leds_8h.html" target="_top" xlink:title="Controls the LEDs on the unit.">
<polygon fill="white" stroke="black" points="0,-67.5 0,-97.5 117,-97.5 117,-67.5 0,-67.5"/>
<text text-anchor="start" x="8" y="-85.5" font-family="Helvetica,sans-Serif" font-size="10.00">BaseStationCode/src</text>
<text text-anchor="middle" x="58.5" y="-74.5" font-family="Helvetica,sans-Serif" font-size="10.00">/src/leds.h</text>
</a>
</g>
</g>
<!-- Node1&#45;&gt;Node6 -->
<g id="edge6" class="edge">
<title>Node1&#45;&gt;Node6</title>
<path fill="none" stroke="midnightblue" d="M166.27,-331.58C148.66,-324.04 131.09,-313.53 118.5,-299 65.97,-238.41 59.14,-135.35 58.47,-97.76"/>
<polygon fill="midnightblue" stroke="midnightblue" points="165.44,-335.01 176.03,-335.46 168.03,-328.51 165.44,-335.01"/>
</g>
<!-- Node8 -->
<g id="node8" class="node">
<title>Node8</title>
<g id="a_node8"><a xlink:href="rpc_8h.html" target="_top" xlink:title="Handles RPC calls.">
<polygon fill="white" stroke="black" points="317,-268.5 317,-298.5 434,-298.5 434,-268.5 317,-268.5"/>
<text text-anchor="start" x="325" y="-286.5" font-family="Helvetica,sans-Serif" font-size="10.00">BaseStationCode/src</text>
<text text-anchor="middle" x="375.5" y="-275.5" font-family="Helvetica,sans-Serif" font-size="10.00">/src/rpc.h</text>
</a>
</g>
</g>
<!-- Node1&#45;&gt;Node8 -->
<g id="edge9" class="edge">
<title>Node1&#45;&gt;Node8</title>
<path fill="none" stroke="midnightblue" d="M273.63,-331.13C296.19,-320.8 323.92,-308.11 344.75,-298.58"/>
<polygon fill="midnightblue" stroke="midnightblue" points="271.95,-328.05 264.31,-335.4 274.86,-334.42 271.95,-328.05"/>
</g>
<!-- Node4&#45;&gt;Node2 -->
<g id="edge4" class="edge">
<title>Node4&#45;&gt;Node2</title>
<path fill="none" stroke="midnightblue" d="M260.68,-261.85C270.05,-253.49 279.85,-243.18 286.5,-232 327.08,-163.72 339.86,-66.61 343.34,-30.62"/>
<polygon fill="midnightblue" stroke="midnightblue" points="258.34,-259.24 252.98,-268.37 262.87,-264.57 258.34,-259.24"/>
</g>
<!-- Node5 -->
<g id="node5" class="node">
<title>Node5</title>
<g id="a_node5"><a xlink:href="audio_8cpp.html" target="_top" xlink:title="Plays audio.">
<polygon fill="white" stroke="black" points="161,-201.5 161,-231.5 278,-231.5 278,-201.5 161,-201.5"/>
<text text-anchor="start" x="169" y="-219.5" font-family="Helvetica,sans-Serif" font-size="10.00">BaseStationCode/src</text>
<text text-anchor="middle" x="219.5" y="-208.5" font-family="Helvetica,sans-Serif" font-size="10.00">/src/audio.cpp</text>
</a>
</g>
</g>
<!-- Node4&#45;&gt;Node5 -->
<g id="edge5" class="edge">
<title>Node4&#45;&gt;Node5</title>
<path fill="none" stroke="midnightblue" d="M228.31,-258.4C226.36,-249.37 224.22,-239.41 222.53,-231.58"/>
<polygon fill="midnightblue" stroke="midnightblue" points="224.94,-259.36 230.46,-268.4 231.78,-257.88 224.94,-259.36"/>
</g>
<!-- Node6&#45;&gt;Node2 -->
<g id="edge7" class="edge">
<title>Node6&#45;&gt;Node2</title>
<path fill="none" stroke="midnightblue" d="M126.83,-65.97C175.19,-54.98 239.39,-40.39 285.52,-29.9"/>
<polygon fill="midnightblue" stroke="midnightblue" points="126.04,-62.56 117.07,-68.19 127.59,-69.39 126.04,-62.56"/>
</g>
<!-- Node7 -->
<g id="node7" class="node">
<title>Node7</title>
<g id="a_node7"><a xlink:href="leds_8cpp.html" target="_top" xlink:title="Controls the LEDs on the unit.">
<polygon fill="white" stroke="black" points="0,-0.5 0,-30.5 117,-30.5 117,-0.5 0,-0.5"/>
<text text-anchor="start" x="8" y="-18.5" font-family="Helvetica,sans-Serif" font-size="10.00">BaseStationCode/src</text>
<text text-anchor="middle" x="58.5" y="-7.5" font-family="Helvetica,sans-Serif" font-size="10.00">/src/leds.cpp</text>
</a>
</g>
</g>
<!-- Node6&#45;&gt;Node7 -->
<g id="edge8" class="edge">
<title>Node6&#45;&gt;Node7</title>
<path fill="none" stroke="midnightblue" d="M58.5,-57.11C58.5,-48.15 58.5,-38.32 58.5,-30.58"/>
<polygon fill="midnightblue" stroke="midnightblue" points="55,-57.4 58.5,-67.4 62,-57.4 55,-57.4"/>
</g>
<!-- Node8&#45;&gt;Node2 -->
<g id="edge10" class="edge">
<title>Node8&#45;&gt;Node2</title>
<path fill="none" stroke="midnightblue" d="M372.65,-258.07C366.3,-203.57 351.15,-73.52 346.14,-30.55"/>
<polygon fill="midnightblue" stroke="midnightblue" points="369.2,-258.67 373.83,-268.2 376.15,-257.86 369.2,-258.67"/>
</g>
<!-- Node9 -->
<g id="node9" class="node">
<title>Node9</title>
<g id="a_node9"><a xlink:href="lora_8h.html" target="_top" xlink:title="File that handles the LoRa radio and PJON.">
<polygon fill="white" stroke="black" points="411,-201.5 411,-231.5 528,-231.5 528,-201.5 411,-201.5"/>
<text text-anchor="start" x="419" y="-219.5" font-family="Helvetica,sans-Serif" font-size="10.00">BaseStationCode/src</text>
<text text-anchor="middle" x="469.5" y="-208.5" font-family="Helvetica,sans-Serif" font-size="10.00">/src/lora.h</text>
</a>
</g>
</g>
<!-- Node8&#45;&gt;Node9 -->
<g id="edge11" class="edge">
<title>Node8&#45;&gt;Node9</title>
<path fill="none" stroke="midnightblue" d="M404.49,-262.45C418.95,-252.45 436.09,-240.6 449.14,-231.58"/>
<polygon fill="midnightblue" stroke="midnightblue" points="402.13,-259.83 395.9,-268.4 406.11,-265.59 402.13,-259.83"/>
</g>
<!-- Node15 -->
<g id="node15" class="node">
<title>Node15</title>
<g id="a_node15"><a xlink:href="rpc_8cpp.html" target="_top" xlink:title="Handles RPC calls.">
<polygon fill="white" stroke="black" points="546,-201.5 546,-231.5 663,-231.5 663,-201.5 546,-201.5"/>
<text text-anchor="start" x="554" y="-219.5" font-family="Helvetica,sans-Serif" font-size="10.00">BaseStationCode/src</text>
<text text-anchor="middle" x="604.5" y="-208.5" font-family="Helvetica,sans-Serif" font-size="10.00">/src/rpc.cpp</text>
</a>
</g>
</g>
<!-- Node8&#45;&gt;Node15 -->
<g id="edge23" class="edge">
<title>Node8&#45;&gt;Node15</title>
<path fill="none" stroke="midnightblue" d="M434.64,-265.71C471.9,-255.14 519.47,-241.63 554.79,-231.61"/>
<polygon fill="midnightblue" stroke="midnightblue" points="433.57,-262.38 424.91,-268.48 435.48,-269.11 433.57,-262.38"/>
</g>
<!-- Node9&#45;&gt;Node2 -->
<g id="edge12" class="edge">
<title>Node9&#45;&gt;Node2</title>
<path fill="none" stroke="midnightblue" d="M537.99,-200.13C586.69,-188.63 644.95,-173.48 653.5,-165 685,-133.76 701.39,-100.67 672.5,-67 655.22,-46.86 492.91,-29.55 403.28,-21.43"/>
<polygon fill="midnightblue" stroke="midnightblue" points="537.02,-196.77 528.08,-202.45 538.61,-203.58 537.02,-196.77"/>
</g>
<!-- Node10 -->
<g id="node10" class="node">
<title>Node10</title>
<g id="a_node10"><a xlink:href="lora_8cpp.html" target="_top" xlink:title="File that handles the LoRa radio and PJON.">
<polygon fill="white" stroke="black" points="527,-134.5 527,-164.5 644,-164.5 644,-134.5 527,-134.5"/>
<text text-anchor="start" x="535" y="-152.5" font-family="Helvetica,sans-Serif" font-size="10.00">BaseStationCode/src</text>
<text text-anchor="middle" x="585.5" y="-141.5" font-family="Helvetica,sans-Serif" font-size="10.00">/src/lora.cpp</text>
</a>
</g>
</g>
<!-- Node9&#45;&gt;Node10 -->
<g id="edge13" class="edge">
<title>Node9&#45;&gt;Node10</title>
<path fill="none" stroke="midnightblue" d="M503.77,-196.3C521.92,-186.12 543.82,-173.85 560.38,-164.58"/>
<polygon fill="midnightblue" stroke="midnightblue" points="501.68,-193.45 494.67,-201.4 505.1,-199.56 501.68,-193.45"/>
</g>
<!-- Node11 -->
<g id="node11" class="node">
<title>Node11</title>
<g id="a_node11"><a xlink:href="networking_8h.html" target="_top" xlink:title="Header file for networking.cpp.">
<polygon fill="white" stroke="black" points="392,-134.5 392,-164.5 509,-164.5 509,-134.5 392,-134.5"/>
<text text-anchor="start" x="400" y="-152.5" font-family="Helvetica,sans-Serif" font-size="10.00">BaseStationCode/src</text>
<text text-anchor="middle" x="450.5" y="-141.5" font-family="Helvetica,sans-Serif" font-size="10.00">/src/networking.h</text>
</a>
</g>
</g>
<!-- Node9&#45;&gt;Node11 -->
<g id="edge14" class="edge">
<title>Node9&#45;&gt;Node11</title>
<path fill="none" stroke="midnightblue" d="M456.11,-191.99C452.94,-182.8 450.23,-172.58 448.94,-164.58"/>
<polygon fill="midnightblue" stroke="midnightblue" points="452.87,-193.3 459.7,-201.4 459.41,-190.81 452.87,-193.3"/>
</g>
<!-- Node11&#45;&gt;Node2 -->
<g id="edge15" class="edge">
<title>Node11&#45;&gt;Node2</title>
<path fill="none" stroke="midnightblue" d="M428.95,-127.18C420.42,-118.4 410.71,-107.96 402.5,-98 383.95,-75.48 364.76,-47.42 353.77,-30.79"/>
<polygon fill="midnightblue" stroke="midnightblue" points="426.56,-129.74 436.07,-134.41 431.55,-124.83 426.56,-129.74"/>
</g>
<!-- Node11&#45;&gt;Node6 -->
<g id="edge16" class="edge">
<title>Node11&#45;&gt;Node6</title>
<path fill="none" stroke="midnightblue" d="M381.53,-137.06C306.55,-124.63 187.99,-104.97 117.27,-93.24"/>
<polygon fill="midnightblue" stroke="midnightblue" points="381.38,-140.59 391.81,-138.77 382.52,-133.68 381.38,-140.59"/>
</g>
<!-- Node11&#45;&gt;Node8 -->
<g id="edge22" class="edge">
<title>Node11&#45;&gt;Node8</title>
<path fill="none" stroke="midnightblue" d="M426.58,-171.44C418.04,-179.92 408.94,-190.25 402.5,-201 389.47,-222.73 381.84,-251.54 378.18,-268.45"/>
<polygon fill="midnightblue" stroke="midnightblue" points="429.04,-173.94 433.86,-164.5 424.21,-168.87 429.04,-173.94"/>
</g>
<!-- Node11&#45;&gt;Node9 -->
<g id="edge17" class="edge">
<title>Node11&#45;&gt;Node9</title>
<path fill="none" stroke="midnightblue" d="M463.88,-173.98C467.05,-183.16 469.77,-193.39 471.06,-201.4"/>
<polygon fill="midnightblue" stroke="midnightblue" points="467.12,-172.67 460.29,-164.58 460.58,-175.17 467.12,-172.67"/>
</g>
<!-- Node12 -->
<g id="node12" class="node">
<title>Node12</title>
<g id="a_node12"><a xlink:href="networking_8cpp.html" target="_top" xlink:title="File that handles connecting to WiFi and MQTT and staying connected.">
<polygon fill="white" stroke="black" points="411,-67.5 411,-97.5 528,-97.5 528,-67.5 411,-67.5"/>
<text text-anchor="start" x="419" y="-85.5" font-family="Helvetica,sans-Serif" font-size="10.00">BaseStationCode/src</text>
<text text-anchor="middle" x="469.5" y="-74.5" font-family="Helvetica,sans-Serif" font-size="10.00">/src/networking.cpp</text>
</a>
</g>
</g>
<!-- Node11&#45;&gt;Node12 -->
<g id="edge18" class="edge">
<title>Node11&#45;&gt;Node12</title>
<path fill="none" stroke="midnightblue" d="M457.46,-124.7C460.12,-115.59 463.07,-105.49 465.39,-97.58"/>
<polygon fill="midnightblue" stroke="midnightblue" points="454.07,-123.82 454.62,-134.4 460.79,-125.78 454.07,-123.82"/>
</g>
<!-- Node13 -->
<g id="node13" class="node">
<title>Node13</title>
<g id="a_node13"><a xlink:href="ota_8h.html" target="_top" xlink:title="Handles over the air (OTA) updates.">
<polygon fill="white" stroke="black" points="546,-67.5 546,-97.5 663,-97.5 663,-67.5 546,-67.5"/>
<text text-anchor="start" x="554" y="-85.5" font-family="Helvetica,sans-Serif" font-size="10.00">BaseStationCode/src</text>
<text text-anchor="middle" x="604.5" y="-74.5" font-family="Helvetica,sans-Serif" font-size="10.00">/src/ota.h</text>
</a>
</g>
</g>
<!-- Node11&#45;&gt;Node13 -->
<g id="edge19" class="edge">
<title>Node11&#45;&gt;Node13</title>
<path fill="none" stroke="midnightblue" d="M493.37,-130.41C517.95,-120.03 548.36,-107.2 571.15,-97.58"/>
<polygon fill="midnightblue" stroke="midnightblue" points="491.77,-127.28 483.92,-134.4 494.49,-133.73 491.77,-127.28"/>
</g>
<!-- Node13&#45;&gt;Node2 -->
<g id="edge20" class="edge">
<title>Node13&#45;&gt;Node2</title>
<path fill="none" stroke="midnightblue" d="M538.44,-64.98C495.97,-54.37 441.38,-40.72 400.94,-30.61"/>
<polygon fill="midnightblue" stroke="midnightblue" points="537.85,-68.45 548.4,-67.48 539.55,-61.66 537.85,-68.45"/>
</g>
<!-- Node14 -->
<g id="node14" class="node">
<title>Node14</title>
<g id="a_node14"><a xlink:href="ota_8cpp.html" target="_top" xlink:title="Handles over the air (OTA) updates.">
<polygon fill="white" stroke="black" points="546,-0.5 546,-30.5 663,-30.5 663,-0.5 546,-0.5"/>
<text text-anchor="start" x="554" y="-18.5" font-family="Helvetica,sans-Serif" font-size="10.00">BaseStationCode/src</text>
<text text-anchor="middle" x="604.5" y="-7.5" font-family="Helvetica,sans-Serif" font-size="10.00">/src/ota.cpp</text>
</a>
</g>
</g>
<!-- Node13&#45;&gt;Node14 -->
<g id="edge21" class="edge">
<title>Node13&#45;&gt;Node14</title>
<path fill="none" stroke="midnightblue" d="M604.5,-57.11C604.5,-48.15 604.5,-38.32 604.5,-30.58"/>
<polygon fill="midnightblue" stroke="midnightblue" points="601,-57.4 604.5,-67.4 608,-57.4 601,-57.4"/>
</g>
</g>
</svg>
