<?xml version="1.0" encoding="UTF-8" standalone="no"?>
<!DOCTYPE svg PUBLIC "-//W3C//DTD SVG 1.1//EN"
 "http://www.w3.org/Graphics/SVG/1.1/DTD/svg11.dtd">
<!-- Generated by graphviz version 2.43.0 (0)
 -->
<!-- Title: ESP32BaseStation/src/alarm.h Pages: 1 -->
<svg width="621pt" height="307pt"
 viewBox="0.00 0.00 621.33 307.00" xmlns="http://www.w3.org/2000/svg" xmlns:xlink="http://www.w3.org/1999/xlink">
<g id="graph0" class="graph" transform="scale(1 1) rotate(0) translate(4 303)">
<title>ESP32BaseStation/src/alarm.h</title>
<polygon fill="white" stroke="transparent" points="-4,4 -4,-303 617.33,-303 617.33,4 -4,4"/>
<!-- Node1 -->
<g id="node1" class="node">
<title>Node1</title>
<g id="a_node1"><a xlink:title="Handles alarms.">
<polygon fill="#bfbfbf" stroke="black" points="84.33,-268.5 84.33,-298.5 206.33,-298.5 206.33,-268.5 84.33,-268.5"/>
<text text-anchor="start" x="92.33" y="-286.5" font-family="Helvetica,sans-Serif" font-size="10.00">ESP32BaseStation/src</text>
<text text-anchor="middle" x="145.33" y="-275.5" font-family="Helvetica,sans-Serif" font-size="10.00">/alarm.h</text>
</a>
</g>
</g>
<!-- Node2 -->
<g id="node2" class="node">
<title>Node2</title>
<g id="a_node2"><a xlink:href="_e_s_p32_base_station_8ino.html" target="_top" xlink:title="Main file for a base station to connect to remote sensors on a farm.">
<polygon fill="white" stroke="black" points="204.33,-0.5 204.33,-30.5 366.33,-30.5 366.33,-0.5 204.33,-0.5"/>
<text text-anchor="start" x="212.33" y="-18.5" font-family="Helvetica,sans-Serif" font-size="10.00">ESP32BaseStation/ESP32Base</text>
<text text-anchor="middle" x="285.33" y="-7.5" font-family="Helvetica,sans-Serif" font-size="10.00">Station.ino</text>
</a>
</g>
</g>
<!-- Node1&#45;&gt;Node2 -->
<g id="edge1" class="edge">
<title>Node1&#45;&gt;Node2</title>
<path fill="none" stroke="midnightblue" d="M74.3,-274.06C48.21,-267.12 21.2,-254.59 5.33,-232 -2.58,-220.73 -0.17,-213.63 5.33,-201 46.99,-105.33 167.59,-53.18 236.16,-30.51"/>
<polygon fill="midnightblue" stroke="midnightblue" points="73.69,-277.51 84.23,-276.45 75.33,-270.7 73.69,-277.51"/>
</g>
<!-- Node3 -->
<g id="node3" class="node">
<title>Node3</title>
<g id="a_node3"><a xlink:href="alarm_8cpp.html" target="_top" xlink:title="Handles alarms.">
<polygon fill="white" stroke="black" points="14.33,-201.5 14.33,-231.5 136.33,-231.5 136.33,-201.5 14.33,-201.5"/>
<text text-anchor="start" x="22.33" y="-219.5" font-family="Helvetica,sans-Serif" font-size="10.00">ESP32BaseStation/src</text>
<text text-anchor="middle" x="75.33" y="-208.5" font-family="Helvetica,sans-Serif" font-size="10.00">/alarm.cpp</text>
</a>
</g>
</g>
<!-- Node1&#45;&gt;Node3 -->
<g id="edge2" class="edge">
<title>Node1&#45;&gt;Node3</title>
<path fill="none" stroke="midnightblue" d="M122.52,-261.31C112.02,-251.56 99.84,-240.26 90.49,-231.58"/>
<polygon fill="midnightblue" stroke="midnightblue" points="120.44,-264.16 130.15,-268.4 125.2,-259.03 120.44,-264.16"/>
</g>
<!-- Node4 -->
<g id="node4" class="node">
<title>Node4</title>
<g id="a_node4"><a xlink:href="audio_8h.html" target="_top" xlink:title="Plays audio.">
<polygon fill="white" stroke="black" points="154.33,-201.5 154.33,-231.5 276.33,-231.5 276.33,-201.5 154.33,-201.5"/>
<text text-anchor="start" x="162.33" y="-219.5" font-family="Helvetica,sans-Serif" font-size="10.00">ESP32BaseStation/src</text>
<text text-anchor="middle" x="215.33" y="-208.5" font-family="Helvetica,sans-Serif" font-size="10.00">/audio.h</text>
</a>
</g>
</g>
<!-- Node1&#45;&gt;Node4 -->
<g id="edge3" class="edge">
<title>Node1&#45;&gt;Node4</title>
<path fill="none" stroke="midnightblue" d="M168.15,-261.31C178.65,-251.56 190.82,-240.26 200.18,-231.58"/>
<polygon fill="midnightblue" stroke="midnightblue" points="165.47,-259.03 160.52,-268.4 170.23,-264.16 165.47,-259.03"/>
</g>
<!-- Node6 -->
<g id="node6" class="node">
<title>Node6</title>
<g id="a_node6"><a xlink:href="rpc_8h.html" target="_top" xlink:title="Handles RPC calls.">
<polygon fill="white" stroke="black" points="313.33,-201.5 313.33,-231.5 435.33,-231.5 435.33,-201.5 313.33,-201.5"/>
<text text-anchor="start" x="321.33" y="-219.5" font-family="Helvetica,sans-Serif" font-size="10.00">ESP32BaseStation/src</text>
<text text-anchor="middle" x="374.33" y="-208.5" font-family="Helvetica,sans-Serif" font-size="10.00">/rpc.h</text>
</a>
</g>
</g>
<!-- Node1&#45;&gt;Node6 -->
<g id="edge6" class="edge">
<title>Node1&#45;&gt;Node6</title>
<path fill="none" stroke="midnightblue" d="M204.47,-265.71C241.74,-255.14 289.31,-241.63 324.62,-231.61"/>
<polygon fill="midnightblue" stroke="midnightblue" points="203.41,-262.38 194.74,-268.48 205.32,-269.11 203.41,-262.38"/>
</g>
<!-- Node4&#45;&gt;Node2 -->
<g id="edge4" class="edge">
<title>Node4&#45;&gt;Node2</title>
<path fill="none" stroke="midnightblue" d="M161.86,-196.82C147.84,-189.21 134.4,-178.85 126.33,-165 119.4,-153.09 120.13,-146.3 126.33,-134 152.23,-82.67 212.31,-48.21 250.75,-30.51"/>
<polygon fill="midnightblue" stroke="midnightblue" points="160.59,-200.1 171.11,-201.44 163.72,-193.84 160.59,-200.1"/>
</g>
<!-- Node5 -->
<g id="node5" class="node">
<title>Node5</title>
<g id="a_node5"><a xlink:href="audio_8cpp.html" target="_top" xlink:title="Plays audio.">
<polygon fill="white" stroke="black" points="135.33,-134.5 135.33,-164.5 257.33,-164.5 257.33,-134.5 135.33,-134.5"/>
<text text-anchor="start" x="143.33" y="-152.5" font-family="Helvetica,sans-Serif" font-size="10.00">ESP32BaseStation/src</text>
<text text-anchor="middle" x="196.33" y="-141.5" font-family="Helvetica,sans-Serif" font-size="10.00">/audio.cpp</text>
</a>
</g>
</g>
<!-- Node4&#45;&gt;Node5 -->
<g id="edge5" class="edge">
<title>Node4&#45;&gt;Node5</title>
<path fill="none" stroke="midnightblue" d="M208.38,-191.7C205.71,-182.59 202.76,-172.49 200.45,-164.58"/>
<polygon fill="midnightblue" stroke="midnightblue" points="205.05,-192.78 211.21,-201.4 211.77,-190.82 205.05,-192.78"/>
</g>
<!-- Node6&#45;&gt;Node2 -->
<g id="edge7" class="edge">
<title>Node6&#45;&gt;Node2</title>
<path fill="none" stroke="midnightblue" d="M335.9,-196C323.9,-188.02 311.85,-177.64 304.33,-165 278.56,-121.66 280.94,-58.73 283.6,-30.79"/>
<polygon fill="midnightblue" stroke="midnightblue" points="334.22,-199.08 344.56,-201.39 337.92,-193.14 334.22,-199.08"/>
</g>
<!-- Node7 -->
<g id="node7" class="node">
<title>Node7</title>
<g id="a_node7"><a xlink:href="lora_8h.html" target="_top" xlink:title="File that handles the LoRa radio and PJON.">
<polygon fill="white" stroke="black" points="313.33,-134.5 313.33,-164.5 435.33,-164.5 435.33,-134.5 313.33,-134.5"/>
<text text-anchor="start" x="321.33" y="-152.5" font-family="Helvetica,sans-Serif" font-size="10.00">ESP32BaseStation/src</text>
<text text-anchor="middle" x="374.33" y="-141.5" font-family="Helvetica,sans-Serif" font-size="10.00">/lora.h</text>
</a>
</g>
</g>
<!-- Node6&#45;&gt;Node7 -->
<g id="edge8" class="edge">
<title>Node6&#45;&gt;Node7</title>
<path fill="none" stroke="midnightblue" d="M374.33,-191.11C374.33,-182.15 374.33,-172.32 374.33,-164.58"/>
<polygon fill="midnightblue" stroke="midnightblue" points="370.83,-191.4 374.33,-201.4 377.83,-191.4 370.83,-191.4"/>
</g>
<!-- Node11 -->
<g id="node11" class="node">
<title>Node11</title>
<g id="a_node11"><a xlink:href="rpc_8cpp.html" target="_top" xlink:title="Handles RPC calls.">
<polygon fill="white" stroke="black" points="453.33,-134.5 453.33,-164.5 575.33,-164.5 575.33,-134.5 453.33,-134.5"/>
<text text-anchor="start" x="461.33" y="-152.5" font-family="Helvetica,sans-Serif" font-size="10.00">ESP32BaseStation/src</text>
<text text-anchor="middle" x="514.33" y="-141.5" font-family="Helvetica,sans-Serif" font-size="10.00">/rpc.cpp</text>
</a>
</g>
</g>
<!-- Node6&#45;&gt;Node11 -->
<g id="edge16" class="edge">
<title>Node6&#45;&gt;Node11</title>
<path fill="none" stroke="midnightblue" d="M413.9,-197.13C436.14,-186.8 463.48,-174.11 484.02,-164.58"/>
<polygon fill="midnightblue" stroke="midnightblue" points="412.31,-194.01 404.71,-201.4 415.26,-200.36 412.31,-194.01"/>
</g>
<!-- Node7&#45;&gt;Node2 -->
<g id="edge9" class="edge">
<title>Node7&#45;&gt;Node2</title>
<path fill="none" stroke="midnightblue" d="M359.05,-125.83C340.6,-98.47 310.14,-53.28 294.79,-30.52"/>
<polygon fill="midnightblue" stroke="midnightblue" points="356.32,-128.04 364.81,-134.37 362.12,-124.13 356.32,-128.04"/>
</g>
<!-- Node8 -->
<g id="node8" class="node">
<title>Node8</title>
<g id="a_node8"><a xlink:href="lora_8cpp.html" target="_top" xlink:title="File that handles the LoRa radio and PJON.">
<polygon fill="white" stroke="black" points="351.33,-67.5 351.33,-97.5 473.33,-97.5 473.33,-67.5 351.33,-67.5"/>
<text text-anchor="start" x="359.33" y="-85.5" font-family="Helvetica,sans-Serif" font-size="10.00">ESP32BaseStation/src</text>
<text text-anchor="middle" x="412.33" y="-74.5" font-family="Helvetica,sans-Serif" font-size="10.00">/lora.cpp</text>
</a>
</g>
</g>
<!-- Node7&#45;&gt;Node8 -->
<g id="edge10" class="edge">
<title>Node7&#45;&gt;Node8</title>
<path fill="none" stroke="midnightblue" d="M387.74,-125.58C393.19,-116.24 399.33,-105.75 404.11,-97.58"/>
<polygon fill="midnightblue" stroke="midnightblue" points="384.61,-124 382.58,-134.4 390.65,-127.53 384.61,-124"/>
</g>
<!-- Node9 -->
<g id="node9" class="node">
<title>Node9</title>
<g id="a_node9"><a xlink:href="networking_8h.html" target="_top" xlink:title="Header file for networking.cpp.">
<polygon fill="white" stroke="black" points="491.33,-67.5 491.33,-97.5 613.33,-97.5 613.33,-67.5 491.33,-67.5"/>
<text text-anchor="start" x="499.33" y="-85.5" font-family="Helvetica,sans-Serif" font-size="10.00">ESP32BaseStation/src</text>
<text text-anchor="middle" x="552.33" y="-74.5" font-family="Helvetica,sans-Serif" font-size="10.00">/networking.h</text>
</a>
</g>
</g>
<!-- Node7&#45;&gt;Node9 -->
<g id="edge11" class="edge">
<title>Node7&#45;&gt;Node9</title>
<path fill="none" stroke="midnightblue" d="M416.67,-130.82C444.27,-120.37 480.14,-107.32 508.11,-97.58"/>
<polygon fill="midnightblue" stroke="midnightblue" points="415.38,-127.57 407.28,-134.4 417.87,-134.11 415.38,-127.57"/>
</g>
<!-- Node9&#45;&gt;Node2 -->
<g id="edge12" class="edge">
<title>Node9&#45;&gt;Node2</title>
<path fill="none" stroke="midnightblue" d="M484.77,-65.05C441.12,-54.43 384.91,-40.74 343.3,-30.61"/>
<polygon fill="midnightblue" stroke="midnightblue" points="484.18,-68.51 494.73,-67.48 485.84,-61.71 484.18,-68.51"/>
</g>
<!-- Node9&#45;&gt;Node6 -->
<g id="edge15" class="edge">
<title>Node9&#45;&gt;Node6</title>
<path fill="none" stroke="midnightblue" d="M572.33,-105.71C585.57,-123.2 598.16,-147.45 584.33,-165 566.06,-188.19 490.78,-201.96 435.56,-209.13"/>
<polygon fill="midnightblue" stroke="midnightblue" points="574.9,-103.32 565.9,-97.74 569.45,-107.72 574.9,-103.32"/>
</g>
<!-- Node9&#45;&gt;Node7 -->
<g id="edge13" class="edge">
<title>Node9&#45;&gt;Node7</title>
<path fill="none" stroke="midnightblue" d="M510.08,-101.15C482.49,-111.59 446.62,-124.64 418.64,-134.4"/>
<polygon fill="midnightblue" stroke="midnightblue" points="511.36,-104.41 519.46,-97.58 508.87,-97.87 511.36,-104.41"/>
</g>
<!-- Node10 -->
<g id="node10" class="node">
<title>Node10</title>
<g id="a_node10"><a xlink:href="networking_8cpp.html" target="_top" xlink:title="File that handles connecting to WiFi and MQTT and staying connected.">
<polygon fill="white" stroke="black" points="491.33,-0.5 491.33,-30.5 613.33,-30.5 613.33,-0.5 491.33,-0.5"/>
<text text-anchor="start" x="499.33" y="-18.5" font-family="Helvetica,sans-Serif" font-size="10.00">ESP32BaseStation/src</text>
<text text-anchor="middle" x="552.33" y="-7.5" font-family="Helvetica,sans-Serif" font-size="10.00">/networking.cpp</text>
</a>
</g>
</g>
<!-- Node9&#45;&gt;Node10 -->
<g id="edge14" class="edge">
<title>Node9&#45;&gt;Node10</title>
<path fill="none" stroke="midnightblue" d="M552.33,-57.11C552.33,-48.15 552.33,-38.32 552.33,-30.58"/>
<polygon fill="midnightblue" stroke="midnightblue" points="548.83,-57.4 552.33,-67.4 555.83,-57.4 548.83,-57.4"/>
</g>
</g>
</svg>
