<?xml version="1.0" encoding="UTF-8" standalone="no"?>
<!DOCTYPE svg PUBLIC "-//W3C//DTD SVG 1.1//EN"
 "http://www.w3.org/Graphics/SVG/1.1/DTD/svg11.dtd">
<!-- Generated by graphviz version 2.43.0 (0)
 -->
<!-- Title: ESP32BaseStation/src/alarm.h Pages: 1 -->
<svg width="759pt" height="151pt"
 viewBox="0.00 0.00 758.50 151.00" xmlns="http://www.w3.org/2000/svg" xmlns:xlink="http://www.w3.org/1999/xlink">
<g id="graph0" class="graph" transform="scale(1 1) rotate(0) translate(4 147)">
<title>ESP32BaseStation/src/alarm.h</title>
<polygon fill="white" stroke="transparent" points="-4,4 -4,-147 754.5,-147 754.5,4 -4,4"/>
<!-- Node1 -->
<g id="node1" class="node">
<title>Node1</title>
<g id="a_node1"><a xlink:title="Handles alarms.">
<polygon fill="#bfbfbf" stroke="black" points="292.5,-112.5 292.5,-142.5 414.5,-142.5 414.5,-112.5 292.5,-112.5"/>
<text text-anchor="start" x="300.5" y="-130.5" font-family="Helvetica,sans-Serif" font-size="10.00">ESP32BaseStation/src</text>
<text text-anchor="middle" x="353.5" y="-119.5" font-family="Helvetica,sans-Serif" font-size="10.00">/alarm.h</text>
</a>
</g>
</g>
<!-- Node2 -->
<g id="node2" class="node">
<title>Node2</title>
<g id="a_node2"><a xlink:href="defines_8h.html" target="_top" xlink:title="Definitions and other preprocessor and global stuff.">
<polygon fill="white" stroke="black" points="318.5,-56.5 318.5,-75.5 388.5,-75.5 388.5,-56.5 318.5,-56.5"/>
<text text-anchor="middle" x="353.5" y="-63.5" font-family="Helvetica,sans-Serif" font-size="10.00">../defines.h</text>
</a>
</g>
</g>
<!-- Node1&#45;&gt;Node2 -->
<g id="edge1" class="edge">
<title>Node1&#45;&gt;Node2</title>
<path fill="none" stroke="midnightblue" d="M353.5,-112.4C353.5,-104.47 353.5,-94.46 353.5,-85.86"/>
<polygon fill="midnightblue" stroke="midnightblue" points="357,-85.66 353.5,-75.66 350,-85.66 357,-85.66"/>
</g>
<!-- Node3 -->
<g id="node3" class="node">
<title>Node3</title>
<g id="a_node3"><a xlink:title=" ">
<polygon fill="white" stroke="#bfbfbf" points="0,-0.5 0,-19.5 63,-19.5 63,-0.5 0,-0.5"/>
<text text-anchor="middle" x="31.5" y="-7.5" font-family="Helvetica,sans-Serif" font-size="10.00">Arduino.h</text>
</a>
</g>
</g>
<!-- Node2&#45;&gt;Node3 -->
<g id="edge2" class="edge">
<title>Node2&#45;&gt;Node3</title>
<path fill="none" stroke="midnightblue" d="M318.2,-60.1C266.51,-52.76 166.97,-38.03 73.26,-20.25"/>
<polygon fill="midnightblue" stroke="midnightblue" points="73.82,-16.79 63.34,-18.35 72.5,-23.67 73.82,-16.79"/>
</g>
<!-- Node4 -->
<g id="node4" class="node">
<title>Node4</title>
<g id="a_node4"><a xlink:title=" ">
<polygon fill="white" stroke="#bfbfbf" points="81,-0.5 81,-19.5 128,-19.5 128,-0.5 81,-0.5"/>
<text text-anchor="middle" x="104.5" y="-7.5" font-family="Helvetica,sans-Serif" font-size="10.00">WiFi.h</text>
</a>
</g>
</g>
<!-- Node2&#45;&gt;Node4 -->
<g id="edge3" class="edge">
<title>Node2&#45;&gt;Node4</title>
<path fill="none" stroke="midnightblue" d="M318.19,-58.33C277.22,-50.44 207.44,-36.54 138.04,-20.01"/>
<polygon fill="midnightblue" stroke="midnightblue" points="138.79,-16.59 128.25,-17.66 137.16,-23.4 138.79,-16.59"/>
</g>
<!-- Node5 -->
<g id="node5" class="node">
<title>Node5</title>
<g id="a_node5"><a xlink:title=" ">
<polygon fill="white" stroke="#bfbfbf" points="146.5,-0.5 146.5,-19.5 236.5,-19.5 236.5,-0.5 146.5,-0.5"/>
<text text-anchor="middle" x="191.5" y="-7.5" font-family="Helvetica,sans-Serif" font-size="10.00">PubSubClient.h</text>
</a>
</g>
</g>
<!-- Node2&#45;&gt;Node5 -->
<g id="edge4" class="edge">
<title>Node2&#45;&gt;Node5</title>
<path fill="none" stroke="midnightblue" d="M327.83,-56.44C300.58,-47.36 257.32,-32.94 226.85,-22.78"/>
<polygon fill="midnightblue" stroke="midnightblue" points="227.64,-19.36 217.05,-19.52 225.43,-26 227.64,-19.36"/>
</g>
<!-- Node6 -->
<g id="node6" class="node">
<title>Node6</title>
<g id="a_node6"><a xlink:title=" ">
<polygon fill="white" stroke="#bfbfbf" points="255,-0.5 255,-19.5 338,-19.5 338,-0.5 255,-0.5"/>
<text text-anchor="middle" x="296.5" y="-7.5" font-family="Helvetica,sans-Serif" font-size="10.00">ArduinoJson.h</text>
</a>
</g>
</g>
<!-- Node2&#45;&gt;Node6 -->
<g id="edge5" class="edge">
<title>Node2&#45;&gt;Node6</title>
<path fill="none" stroke="midnightblue" d="M344.34,-56.32C336,-48.42 323.47,-36.55 313.32,-26.94"/>
<polygon fill="midnightblue" stroke="midnightblue" points="315.49,-24.17 305.82,-19.83 310.68,-29.25 315.49,-24.17"/>
</g>
<!-- Node7 -->
<g id="node7" class="node">
<title>Node7</title>
<g id="a_node7"><a xlink:title=" ">
<polygon fill="white" stroke="#bfbfbf" points="356.5,-0.5 356.5,-19.5 466.5,-19.5 466.5,-0.5 356.5,-0.5"/>
<text text-anchor="middle" x="411.5" y="-7.5" font-family="Helvetica,sans-Serif" font-size="10.00">PJONThroughLora.h</text>
</a>
</g>
</g>
<!-- Node2&#45;&gt;Node7 -->
<g id="edge6" class="edge">
<title>Node2&#45;&gt;Node7</title>
<path fill="none" stroke="midnightblue" d="M362.82,-56.32C371.39,-48.34 384.31,-36.31 394.69,-26.65"/>
<polygon fill="midnightblue" stroke="midnightblue" points="397.08,-29.21 402.01,-19.83 392.31,-24.09 397.08,-29.21"/>
</g>
<!-- Node8 -->
<g id="node8" class="node">
<title>Node8</title>
<g id="a_node8"><a xlink:title=" ">
<polygon fill="white" stroke="#bfbfbf" points="484.5,-0.5 484.5,-19.5 562.5,-19.5 562.5,-0.5 484.5,-0.5"/>
<text text-anchor="middle" x="523.5" y="-7.5" font-family="Helvetica,sans-Serif" font-size="10.00">TunePlayer.h</text>
</a>
</g>
</g>
<!-- Node2&#45;&gt;Node8 -->
<g id="edge7" class="edge">
<title>Node2&#45;&gt;Node8</title>
<path fill="none" stroke="midnightblue" d="M380.44,-56.44C409.16,-47.32 454.83,-32.81 486.82,-22.65"/>
<polygon fill="midnightblue" stroke="midnightblue" points="488.22,-25.88 496.69,-19.52 486.1,-19.21 488.22,-25.88"/>
</g>
<!-- Node9 -->
<g id="node9" class="node">
<title>Node9</title>
<g id="a_node9"><a xlink:title=" ">
<polygon fill="white" stroke="#bfbfbf" points="580.5,-0.5 580.5,-19.5 660.5,-19.5 660.5,-0.5 580.5,-0.5"/>
<text text-anchor="middle" x="620.5" y="-7.5" font-family="Helvetica,sans-Serif" font-size="10.00">credentials.h</text>
</a>
</g>
</g>
<!-- Node2&#45;&gt;Node9 -->
<g id="edge8" class="edge">
<title>Node2&#45;&gt;Node9</title>
<path fill="none" stroke="midnightblue" d="M388.68,-57.88C435.24,-48.47 517.61,-31.81 570.59,-21.09"/>
<polygon fill="midnightblue" stroke="midnightblue" points="571.34,-24.51 580.45,-19.1 569.95,-17.65 571.34,-24.51"/>
</g>
<!-- Node10 -->
<g id="node10" class="node">
<title>Node10</title>
<g id="a_node10"><a xlink:href="topics_8h.html" target="_top" xlink:title="MQTT topics for a thingsboard gateway.">
<polygon fill="white" stroke="black" points="678.5,-0.5 678.5,-19.5 750.5,-19.5 750.5,-0.5 678.5,-0.5"/>
<text text-anchor="middle" x="714.5" y="-7.5" font-family="Helvetica,sans-Serif" font-size="10.00">src/topics.h</text>
</a>
</g>
</g>
<!-- Node2&#45;&gt;Node10 -->
<g id="edge9" class="edge">
<title>Node2&#45;&gt;Node10</title>
<path fill="none" stroke="midnightblue" d="M388.67,-60.64C445.36,-53.48 560.65,-38.33 668.14,-20.16"/>
<polygon fill="midnightblue" stroke="midnightblue" points="668.91,-23.57 678.18,-18.44 667.74,-16.67 668.91,-23.57"/>
</g>
</g>
</svg>
