<?xml version="1.0" encoding="UTF-8" standalone="no"?>
<!DOCTYPE svg PUBLIC "-//W3C//DTD SVG 1.1//EN"
 "http://www.w3.org/Graphics/SVG/1.1/DTD/svg11.dtd">
<!-- Generated by graphviz version 2.43.0 (0)
 -->
<!-- Title: BaseStationCode/src/src/alarm.h Pages: 1 -->
<svg width="598pt" height="151pt"
 viewBox="0.00 0.00 598.00 151.00" xmlns="http://www.w3.org/2000/svg" xmlns:xlink="http://www.w3.org/1999/xlink">
<g id="graph0" class="graph" transform="scale(1 1) rotate(0) translate(4 147)">
<title>BaseStationCode/src/src/alarm.h</title>
<polygon fill="white" stroke="transparent" points="-4,4 -4,-147 594,-147 594,4 -4,4"/>
<!-- Node1 -->
<g id="node1" class="node">
<title>Node1</title>
<g id="a_node1"><a xlink:title="Handles alarms.">
<polygon fill="#bfbfbf" stroke="black" points="218.5,-112.5 218.5,-142.5 335.5,-142.5 335.5,-112.5 218.5,-112.5"/>
<text text-anchor="start" x="226.5" y="-130.5" font-family="Helvetica,sans-Serif" font-size="10.00">BaseStationCode/src</text>
<text text-anchor="middle" x="277" y="-119.5" font-family="Helvetica,sans-Serif" font-size="10.00">/src/alarm.h</text>
</a>
</g>
</g>
<!-- Node2 -->
<g id="node2" class="node">
<title>Node2</title>
<g id="a_node2"><a xlink:href="defines_8h.html" target="_top" xlink:title="Definitions and other preprocessor and global stuff.">
<polygon fill="white" stroke="black" points="242,-56.5 242,-75.5 312,-75.5 312,-56.5 242,-56.5"/>
<text text-anchor="middle" x="277" y="-63.5" font-family="Helvetica,sans-Serif" font-size="10.00">../defines.h</text>
</a>
</g>
</g>
<!-- Node1&#45;&gt;Node2 -->
<g id="edge1" class="edge">
<title>Node1&#45;&gt;Node2</title>
<path fill="none" stroke="midnightblue" d="M277,-112.4C277,-104.47 277,-94.46 277,-85.86"/>
<polygon fill="midnightblue" stroke="midnightblue" points="280.5,-85.66 277,-75.66 273.5,-85.66 280.5,-85.66"/>
</g>
<!-- Node3 -->
<g id="node3" class="node">
<title>Node3</title>
<g id="a_node3"><a xlink:title=" ">
<polygon fill="white" stroke="#bfbfbf" points="0,-0.5 0,-19.5 80,-19.5 80,-0.5 0,-0.5"/>
<text text-anchor="middle" x="40" y="-7.5" font-family="Helvetica,sans-Serif" font-size="10.00">credentials.h</text>
</a>
</g>
</g>
<!-- Node2&#45;&gt;Node3 -->
<g id="edge2" class="edge">
<title>Node2&#45;&gt;Node3</title>
<path fill="none" stroke="midnightblue" d="M241.77,-56.97C200.78,-47.63 132.88,-32.16 87.31,-21.78"/>
<polygon fill="midnightblue" stroke="midnightblue" points="87.9,-18.33 77.38,-19.52 86.35,-25.15 87.9,-18.33"/>
</g>
<!-- Node4 -->
<g id="node4" class="node">
<title>Node4</title>
<g id="a_node4"><a xlink:title=" ">
<polygon fill="white" stroke="#bfbfbf" points="98.5,-0.5 98.5,-19.5 161.5,-19.5 161.5,-0.5 98.5,-0.5"/>
<text text-anchor="middle" x="130" y="-7.5" font-family="Helvetica,sans-Serif" font-size="10.00">Arduino.h</text>
</a>
</g>
</g>
<!-- Node2&#45;&gt;Node4 -->
<g id="edge3" class="edge">
<title>Node2&#45;&gt;Node4</title>
<path fill="none" stroke="midnightblue" d="M253.71,-56.44C229.19,-47.44 190.4,-33.19 162.8,-23.05"/>
<polygon fill="midnightblue" stroke="midnightblue" points="163.78,-19.68 153.18,-19.52 161.36,-26.25 163.78,-19.68"/>
</g>
<!-- Node5 -->
<g id="node5" class="node">
<title>Node5</title>
<g id="a_node5"><a xlink:title=" ">
<polygon fill="white" stroke="#bfbfbf" points="180,-0.5 180,-19.5 270,-19.5 270,-0.5 180,-0.5"/>
<text text-anchor="middle" x="225" y="-7.5" font-family="Helvetica,sans-Serif" font-size="10.00">PubSubClient.h</text>
</a>
</g>
</g>
<!-- Node2&#45;&gt;Node5 -->
<g id="edge4" class="edge">
<title>Node2&#45;&gt;Node5</title>
<path fill="none" stroke="midnightblue" d="M268.41,-56.08C260.84,-48.22 249.62,-36.57 240.49,-27.08"/>
<polygon fill="midnightblue" stroke="midnightblue" points="242.88,-24.53 233.43,-19.75 237.84,-29.38 242.88,-24.53"/>
</g>
<!-- Node6 -->
<g id="node6" class="node">
<title>Node6</title>
<g id="a_node6"><a xlink:title=" ">
<polygon fill="white" stroke="#bfbfbf" points="288.5,-0.5 288.5,-19.5 371.5,-19.5 371.5,-0.5 288.5,-0.5"/>
<text text-anchor="middle" x="330" y="-7.5" font-family="Helvetica,sans-Serif" font-size="10.00">ArduinoJson.h</text>
</a>
</g>
</g>
<!-- Node2&#45;&gt;Node6 -->
<g id="edge5" class="edge">
<title>Node2&#45;&gt;Node6</title>
<path fill="none" stroke="midnightblue" d="M285.75,-56.08C293.47,-48.22 304.9,-36.57 314.22,-27.08"/>
<polygon fill="midnightblue" stroke="midnightblue" points="316.9,-29.34 321.41,-19.75 311.91,-24.44 316.9,-29.34"/>
</g>
<!-- Node7 -->
<g id="node7" class="node">
<title>Node7</title>
<g id="a_node7"><a xlink:title=" ">
<polygon fill="white" stroke="#bfbfbf" points="390,-0.5 390,-19.5 500,-19.5 500,-0.5 390,-0.5"/>
<text text-anchor="middle" x="445" y="-7.5" font-family="Helvetica,sans-Serif" font-size="10.00">PJONThroughLora.h</text>
</a>
</g>
</g>
<!-- Node2&#45;&gt;Node7 -->
<g id="edge6" class="edge">
<title>Node2&#45;&gt;Node7</title>
<path fill="none" stroke="midnightblue" d="M303.62,-56.44C332.01,-47.32 377.14,-32.81 408.75,-22.65"/>
<polygon fill="midnightblue" stroke="midnightblue" points="410.06,-25.91 418.5,-19.52 407.91,-19.24 410.06,-25.91"/>
</g>
<!-- Node8 -->
<g id="node8" class="node">
<title>Node8</title>
<g id="a_node8"><a xlink:href="topics_8h.html" target="_top" xlink:title="MQTT topics for a thingsboard gateway.">
<polygon fill="white" stroke="black" points="518,-0.5 518,-19.5 590,-19.5 590,-0.5 518,-0.5"/>
<text text-anchor="middle" x="554" y="-7.5" font-family="Helvetica,sans-Serif" font-size="10.00">src/topics.h</text>
</a>
</g>
</g>
<!-- Node2&#45;&gt;Node8 -->
<g id="edge7" class="edge">
<title>Node2&#45;&gt;Node8</title>
<path fill="none" stroke="midnightblue" d="M312.39,-58.2C355.94,-49.82 432.42,-35.06 507.55,-20.28"/>
<polygon fill="midnightblue" stroke="midnightblue" points="508.52,-23.65 517.65,-18.29 507.17,-16.79 508.52,-23.65"/>
</g>
</g>
</svg>
