<?xml version="1.0" encoding="UTF-8" standalone="no"?>
<!DOCTYPE svg PUBLIC "-//W3C//DTD SVG 1.1//EN"
 "http://www.w3.org/Graphics/SVG/1.1/DTD/svg11.dtd">
<!-- Generated by graphviz version 2.43.0 (0)
 -->
<!-- Title: BaseStationCode/src/src/audio.h Pages: 1 -->
<svg width="759pt" height="207pt"
 viewBox="0.00 0.00 759.00 207.00" xmlns="http://www.w3.org/2000/svg" xmlns:xlink="http://www.w3.org/1999/xlink">
<g id="graph0" class="graph" transform="scale(1 1) rotate(0) translate(4 203)">
<title>BaseStationCode/src/src/audio.h</title>
<polygon fill="white" stroke="transparent" points="-4,4 -4,-203 755,-203 755,4 -4,4"/>
<!-- Node1 -->
<g id="node1" class="node">
<title>Node1</title>
<g id="a_node1"><a xlink:title="Plays audio.">
<polygon fill="#bfbfbf" stroke="black" points="283.5,-168.5 283.5,-198.5 400.5,-198.5 400.5,-168.5 283.5,-168.5"/>
<text text-anchor="start" x="291.5" y="-186.5" font-family="Helvetica,sans-Serif" font-size="10.00">BaseStationCode/src</text>
<text text-anchor="middle" x="342" y="-175.5" font-family="Helvetica,sans-Serif" font-size="10.00">/src/audio.h</text>
</a>
</g>
</g>
<!-- Node2 -->
<g id="node2" class="node">
<title>Node2</title>
<g id="a_node2"><a xlink:href="defines_8h.html" target="_top" xlink:title="Definitions and other preprocessor and global stuff.">
<polygon fill="white" stroke="black" points="307,-56.5 307,-75.5 377,-75.5 377,-56.5 307,-56.5"/>
<text text-anchor="middle" x="342" y="-63.5" font-family="Helvetica,sans-Serif" font-size="10.00">../defines.h</text>
</a>
</g>
</g>
<!-- Node1&#45;&gt;Node2 -->
<g id="edge1" class="edge">
<title>Node1&#45;&gt;Node2</title>
<path fill="none" stroke="midnightblue" d="M338.74,-168.48C335.83,-154.26 332.27,-131.63 334,-112 334.78,-103.2 336.39,-93.54 337.97,-85.43"/>
<polygon fill="midnightblue" stroke="midnightblue" points="341.41,-86.07 340.01,-75.57 334.56,-84.65 341.41,-86.07"/>
</g>
<!-- Node11 -->
<g id="node11" class="node">
<title>Node11</title>
<g id="a_node11"><a xlink:href="alarm_8h.html" target="_top" xlink:title="Handles alarms.">
<polygon fill="white" stroke="black" points="343,-112.5 343,-131.5 397,-131.5 397,-112.5 343,-112.5"/>
<text text-anchor="middle" x="370" y="-119.5" font-family="Helvetica,sans-Serif" font-size="10.00">alarm.h</text>
</a>
</g>
</g>
<!-- Node1&#45;&gt;Node11 -->
<g id="edge10" class="edge">
<title>Node1&#45;&gt;Node11</title>
<path fill="none" stroke="midnightblue" d="M348.64,-168.4C352.54,-160.11 357.5,-149.55 361.67,-140.71"/>
<polygon fill="midnightblue" stroke="midnightblue" points="364.83,-142.2 365.93,-131.66 358.5,-139.22 364.83,-142.2"/>
</g>
<!-- Node3 -->
<g id="node3" class="node">
<title>Node3</title>
<g id="a_node3"><a xlink:title=" ">
<polygon fill="white" stroke="#bfbfbf" points="0,-0.5 0,-19.5 80,-19.5 80,-0.5 0,-0.5"/>
<text text-anchor="middle" x="40" y="-7.5" font-family="Helvetica,sans-Serif" font-size="10.00">credentials.h</text>
</a>
</g>
</g>
<!-- Node2&#45;&gt;Node3 -->
<g id="edge2" class="edge">
<title>Node2&#45;&gt;Node3</title>
<path fill="none" stroke="midnightblue" d="M306.79,-58.8C259.77,-50.51 173.59,-35.26 90.02,-20.18"/>
<polygon fill="midnightblue" stroke="midnightblue" points="90.57,-16.72 80.11,-18.39 89.33,-23.61 90.57,-16.72"/>
</g>
<!-- Node4 -->
<g id="node4" class="node">
<title>Node4</title>
<g id="a_node4"><a xlink:title=" ">
<polygon fill="white" stroke="#bfbfbf" points="98.5,-0.5 98.5,-19.5 161.5,-19.5 161.5,-0.5 98.5,-0.5"/>
<text text-anchor="middle" x="130" y="-7.5" font-family="Helvetica,sans-Serif" font-size="10.00">Arduino.h</text>
</a>
</g>
</g>
<!-- Node2&#45;&gt;Node4 -->
<g id="edge3" class="edge">
<title>Node2&#45;&gt;Node4</title>
<path fill="none" stroke="midnightblue" d="M308.41,-56.44C271.27,-46.99 211.43,-31.74 171.42,-21.55"/>
<polygon fill="midnightblue" stroke="midnightblue" points="172.26,-18.15 161.7,-19.08 170.53,-24.94 172.26,-18.15"/>
</g>
<!-- Node5 -->
<g id="node5" class="node">
<title>Node5</title>
<g id="a_node5"><a xlink:title=" ">
<polygon fill="white" stroke="#bfbfbf" points="179.5,-0.5 179.5,-19.5 226.5,-19.5 226.5,-0.5 179.5,-0.5"/>
<text text-anchor="middle" x="203" y="-7.5" font-family="Helvetica,sans-Serif" font-size="10.00">WiFi.h</text>
</a>
</g>
</g>
<!-- Node2&#45;&gt;Node5 -->
<g id="edge4" class="edge">
<title>Node2&#45;&gt;Node5</title>
<path fill="none" stroke="midnightblue" d="M319.98,-56.44C296.9,-47.48 260.44,-33.31 234.36,-23.18"/>
<polygon fill="midnightblue" stroke="midnightblue" points="235.51,-19.88 224.92,-19.52 232.98,-26.4 235.51,-19.88"/>
</g>
<!-- Node6 -->
<g id="node6" class="node">
<title>Node6</title>
<g id="a_node6"><a xlink:title=" ">
<polygon fill="white" stroke="#bfbfbf" points="245,-0.5 245,-19.5 335,-19.5 335,-0.5 245,-0.5"/>
<text text-anchor="middle" x="290" y="-7.5" font-family="Helvetica,sans-Serif" font-size="10.00">PubSubClient.h</text>
</a>
</g>
</g>
<!-- Node2&#45;&gt;Node6 -->
<g id="edge5" class="edge">
<title>Node2&#45;&gt;Node6</title>
<path fill="none" stroke="midnightblue" d="M333.41,-56.08C325.84,-48.22 314.62,-36.57 305.49,-27.08"/>
<polygon fill="midnightblue" stroke="midnightblue" points="307.88,-24.53 298.43,-19.75 302.84,-29.38 307.88,-24.53"/>
</g>
<!-- Node7 -->
<g id="node7" class="node">
<title>Node7</title>
<g id="a_node7"><a xlink:title=" ">
<polygon fill="white" stroke="#bfbfbf" points="353.5,-0.5 353.5,-19.5 436.5,-19.5 436.5,-0.5 353.5,-0.5"/>
<text text-anchor="middle" x="395" y="-7.5" font-family="Helvetica,sans-Serif" font-size="10.00">ArduinoJson.h</text>
</a>
</g>
</g>
<!-- Node2&#45;&gt;Node7 -->
<g id="edge6" class="edge">
<title>Node2&#45;&gt;Node7</title>
<path fill="none" stroke="midnightblue" d="M350.75,-56.08C358.47,-48.22 369.9,-36.57 379.22,-27.08"/>
<polygon fill="midnightblue" stroke="midnightblue" points="381.9,-29.34 386.41,-19.75 376.91,-24.44 381.9,-29.34"/>
</g>
<!-- Node8 -->
<g id="node8" class="node">
<title>Node8</title>
<g id="a_node8"><a xlink:title=" ">
<polygon fill="white" stroke="#bfbfbf" points="455,-0.5 455,-19.5 565,-19.5 565,-0.5 455,-0.5"/>
<text text-anchor="middle" x="510" y="-7.5" font-family="Helvetica,sans-Serif" font-size="10.00">PJONThroughLora.h</text>
</a>
</g>
</g>
<!-- Node2&#45;&gt;Node8 -->
<g id="edge7" class="edge">
<title>Node2&#45;&gt;Node8</title>
<path fill="none" stroke="midnightblue" d="M368.62,-56.44C397.01,-47.32 442.14,-32.81 473.75,-22.65"/>
<polygon fill="midnightblue" stroke="midnightblue" points="475.06,-25.91 483.5,-19.52 472.91,-19.24 475.06,-25.91"/>
</g>
<!-- Node9 -->
<g id="node9" class="node">
<title>Node9</title>
<g id="a_node9"><a xlink:title=" ">
<polygon fill="white" stroke="#bfbfbf" points="583,-0.5 583,-19.5 661,-19.5 661,-0.5 583,-0.5"/>
<text text-anchor="middle" x="622" y="-7.5" font-family="Helvetica,sans-Serif" font-size="10.00">TunePlayer.h</text>
</a>
</g>
</g>
<!-- Node2&#45;&gt;Node9 -->
<g id="edge8" class="edge">
<title>Node2&#45;&gt;Node9</title>
<path fill="none" stroke="midnightblue" d="M377.18,-58.22C426.54,-48.7 516.59,-31.33 572.64,-20.52"/>
<polygon fill="midnightblue" stroke="midnightblue" points="573.53,-23.91 582.69,-18.58 572.21,-17.04 573.53,-23.91"/>
</g>
<!-- Node10 -->
<g id="node10" class="node">
<title>Node10</title>
<g id="a_node10"><a xlink:href="topics_8h.html" target="_top" xlink:title="MQTT topics for a thingsboard gateway.">
<polygon fill="white" stroke="black" points="679,-0.5 679,-19.5 751,-19.5 751,-0.5 679,-0.5"/>
<text text-anchor="middle" x="715" y="-7.5" font-family="Helvetica,sans-Serif" font-size="10.00">src/topics.h</text>
</a>
</g>
</g>
<!-- Node2&#45;&gt;Node10 -->
<g id="edge9" class="edge">
<title>Node2&#45;&gt;Node10</title>
<path fill="none" stroke="midnightblue" d="M377.06,-60.9C435.41,-53.93 556.37,-38.82 668.55,-20.16"/>
<polygon fill="midnightblue" stroke="midnightblue" points="669.4,-23.57 678.69,-18.46 668.24,-16.66 669.4,-23.57"/>
</g>
<!-- Node11&#45;&gt;Node2 -->
<g id="edge11" class="edge">
<title>Node11&#45;&gt;Node2</title>
<path fill="none" stroke="midnightblue" d="M365.38,-112.08C361.54,-104.69 355.98,-93.95 351.24,-84.81"/>
<polygon fill="midnightblue" stroke="midnightblue" points="354.25,-83.02 346.54,-75.75 348.03,-86.24 354.25,-83.02"/>
</g>
</g>
</svg>
