<?xml version="1.0" encoding="UTF-8" standalone="no"?>
<!DOCTYPE svg PUBLIC "-//W3C//DTD SVG 1.1//EN"
 "http://www.w3.org/Graphics/SVG/1.1/DTD/svg11.dtd">
<!-- Generated by graphviz version 2.43.0 (0)
 -->
<!-- Title: Field Pages: 1 -->
<svg width="664pt" height="321pt"
 viewBox="0.00 0.00 664.00 321.12" xmlns="http://www.w3.org/2000/svg" xmlns:xlink="http://www.w3.org/1999/xlink">
<g id="graph0" class="graph" transform="scale(1 1) rotate(0) translate(4 317.12)">
<title>Field</title>
<polygon fill="white" stroke="transparent" points="-4,4 -4,-317.12 660,-317.12 660,4 -4,4"/>
<!-- Node1 -->
<g id="node1" class="node">
<title>Node1</title>
<g id="a_node1"><a xlink:title="Class for handling data fields in messages.">
<polygon fill="#bfbfbf" stroke="black" points="109,-152.5 109,-171.5 149,-171.5 149,-152.5 109,-152.5"/>
<text text-anchor="middle" x="129" y="-159.5" font-family="Helvetica,sans-Serif" font-size="10.00">Field</text>
</a>
</g>
</g>
<!-- Node3 -->
<g id="node3" class="node">
<title>Node3</title>
<g id="a_node3"><a xlink:href="class_settable_field.html" target="_top" xlink:title=" ">
<polygon fill="white" stroke="black" points="385,-209.5 385,-228.5 516,-228.5 516,-209.5 385,-209.5"/>
<text text-anchor="middle" x="450.5" y="-216.5" font-family="Helvetica,sans-Serif" font-size="10.00">SettableField&lt; int8_t &gt;</text>
</a>
</g>
</g>
<!-- Node1&#45;&gt;Node3 -->
<g id="edge2" class="edge">
<title>Node1&#45;&gt;Node3</title>
<path fill="none" stroke="midnightblue" d="M131.66,-181.9C135.4,-212.42 147.47,-269.9 186,-295 271.77,-350.87 399.33,-259.29 437.99,-228.52"/>
<polygon fill="midnightblue" stroke="midnightblue" points="135.11,-181.23 130.59,-171.64 128.15,-181.95 135.11,-181.23"/>
</g>
<!-- Node6 -->
<g id="node6" class="node">
<title>Node6</title>
<g id="a_node6"><a xlink:href="class_byte_field.html" target="_top" xlink:title="Fields that contain an unsigned, single byte integer.">
<polygon fill="white" stroke="black" points="209.5,-266.5 209.5,-285.5 271.5,-285.5 271.5,-266.5 209.5,-266.5"/>
<text text-anchor="middle" x="240.5" y="-273.5" font-family="Helvetica,sans-Serif" font-size="10.00">ByteField</text>
</a>
</g>
</g>
<!-- Node1&#45;&gt;Node6 -->
<g id="edge5" class="edge">
<title>Node1&#45;&gt;Node6</title>
<path fill="none" stroke="midnightblue" d="M136.68,-181.16C145.06,-202.5 161.36,-236.68 186,-257 192.69,-262.52 201.1,-266.49 209.26,-269.32"/>
<polygon fill="midnightblue" stroke="midnightblue" points="139.88,-179.72 133.12,-171.56 133.32,-182.16 139.88,-179.72"/>
</g>
<!-- Node7 -->
<g id="node7" class="node">
<title>Node7</title>
<g id="a_node7"><a xlink:href="class_flag_field.html" target="_top" xlink:title="Fields that don&#39;t have any value or payload.">
<polygon fill="white" stroke="black" points="210,-228.5 210,-247.5 271,-247.5 271,-228.5 210,-228.5"/>
<text text-anchor="middle" x="240.5" y="-235.5" font-family="Helvetica,sans-Serif" font-size="10.00">FlagField</text>
</a>
</g>
</g>
<!-- Node1&#45;&gt;Node7 -->
<g id="edge6" class="edge">
<title>Node1&#45;&gt;Node7</title>
<path fill="none" stroke="midnightblue" d="M143.68,-179.71C154.11,-192.17 169.46,-208.45 186,-219 193.23,-223.61 201.72,-227.28 209.79,-230.12"/>
<polygon fill="midnightblue" stroke="midnightblue" points="146.3,-177.38 137.29,-171.8 140.86,-181.78 146.3,-177.38"/>
</g>
<!-- Node8 -->
<g id="node8" class="node">
<title>Node8</title>
<g id="a_node8"><a xlink:href="class_long_u_int_field.html" target="_top" xlink:title="Fields that contain an unsigned, 4 byte integer.">
<polygon fill="white" stroke="black" points="199,-190.5 199,-209.5 282,-209.5 282,-190.5 199,-190.5"/>
<text text-anchor="middle" x="240.5" y="-197.5" font-family="Helvetica,sans-Serif" font-size="10.00">LongUIntField</text>
</a>
</g>
</g>
<!-- Node1&#45;&gt;Node8 -->
<g id="edge7" class="edge">
<title>Node1&#45;&gt;Node8</title>
<path fill="none" stroke="midnightblue" d="M158.6,-172.96C161.43,-174 164.27,-175.03 167,-176 181,-180.96 196.62,-186.18 209.77,-190.47"/>
<polygon fill="midnightblue" stroke="midnightblue" points="159.74,-169.65 149.15,-169.42 157.29,-176.2 159.74,-169.65"/>
</g>
<!-- Node9 -->
<g id="node9" class="node">
<title>Node9</title>
<g id="a_node9"><a xlink:href="class_pump_on_time_field.html" target="_top" xlink:title="Fields for pump on times (2 bytes in 0.5s increments)">
<polygon fill="white" stroke="black" points="187.5,-152.5 187.5,-171.5 293.5,-171.5 293.5,-152.5 187.5,-152.5"/>
<text text-anchor="middle" x="240.5" y="-159.5" font-family="Helvetica,sans-Serif" font-size="10.00">PumpOnTimeField</text>
</a>
</g>
</g>
<!-- Node1&#45;&gt;Node9 -->
<g id="edge8" class="edge">
<title>Node1&#45;&gt;Node9</title>
<path fill="none" stroke="midnightblue" d="M159.33,-162C167.95,-162 177.65,-162 187.25,-162"/>
<polygon fill="midnightblue" stroke="midnightblue" points="159.07,-158.5 149.07,-162 159.07,-165.5 159.07,-158.5"/>
</g>
<!-- Node10 -->
<g id="node10" class="node">
<title>Node10</title>
<g id="a_node10"><a xlink:href="class_settable_field.html" target="_top" xlink:title="Class for fields that can be set.">
<polygon fill="white" stroke="black" points="186,-114.5 186,-133.5 295,-133.5 295,-114.5 186,-114.5"/>
<text text-anchor="middle" x="240.5" y="-121.5" font-family="Helvetica,sans-Serif" font-size="10.00">SettableField&lt; T &gt;</text>
</a>
</g>
</g>
<!-- Node1&#45;&gt;Node10 -->
<g id="edge9" class="edge">
<title>Node1&#45;&gt;Node10</title>
<path fill="none" stroke="midnightblue" d="M158.73,-152.03C175.2,-146.31 195.77,-139.18 212.03,-133.53"/>
<polygon fill="midnightblue" stroke="midnightblue" points="157.37,-148.8 149.07,-155.38 159.67,-155.41 157.37,-148.8"/>
</g>
<!-- Node11 -->
<g id="node11" class="node">
<title>Node11</title>
<g id="a_node11"><a xlink:href="class_tenths_byte_field.html" target="_top" xlink:title="Field for decoding 1 byte signed data in tenths.">
<polygon fill="white" stroke="black" points="193.5,-76.5 193.5,-95.5 287.5,-95.5 287.5,-76.5 193.5,-76.5"/>
<text text-anchor="middle" x="240.5" y="-83.5" font-family="Helvetica,sans-Serif" font-size="10.00">TenthsByteField</text>
</a>
</g>
</g>
<!-- Node1&#45;&gt;Node11 -->
<g id="edge11" class="edge">
<title>Node1&#45;&gt;Node11</title>
<path fill="none" stroke="midnightblue" d="M143.68,-144.29C154.11,-131.83 169.46,-115.55 186,-105 191.9,-101.24 198.64,-98.1 205.31,-95.53"/>
<polygon fill="midnightblue" stroke="midnightblue" points="140.86,-142.22 137.29,-152.2 146.3,-146.62 140.86,-142.22"/>
</g>
<!-- Node12 -->
<g id="node12" class="node">
<title>Node12</title>
<g id="a_node12"><a xlink:href="class_tenths_field.html" target="_top" xlink:title="Field for decoding 2 byte signed data in tenths.">
<polygon fill="white" stroke="black" points="205,-38.5 205,-57.5 276,-57.5 276,-38.5 205,-38.5"/>
<text text-anchor="middle" x="240.5" y="-45.5" font-family="Helvetica,sans-Serif" font-size="10.00">TenthsField</text>
</a>
</g>
</g>
<!-- Node1&#45;&gt;Node12 -->
<g id="edge12" class="edge">
<title>Node1&#45;&gt;Node12</title>
<path fill="none" stroke="midnightblue" d="M136.68,-142.84C145.06,-121.5 161.36,-87.32 186,-67 191.47,-62.48 198.1,-59.01 204.8,-56.34"/>
<polygon fill="midnightblue" stroke="midnightblue" points="133.32,-141.84 133.12,-152.44 139.88,-144.28 133.32,-141.84"/>
</g>
<!-- Node13 -->
<g id="node13" class="node">
<title>Node13</title>
<g id="a_node13"><a xlink:href="class_u_int_field.html" target="_top" xlink:title="Fields that contain an unsigned, 2 byte integer.">
<polygon fill="white" stroke="black" points="210.5,-0.5 210.5,-19.5 270.5,-19.5 270.5,-0.5 210.5,-0.5"/>
<text text-anchor="middle" x="240.5" y="-7.5" font-family="Helvetica,sans-Serif" font-size="10.00">UIntField</text>
</a>
</g>
</g>
<!-- Node1&#45;&gt;Node13 -->
<g id="edge13" class="edge">
<title>Node1&#45;&gt;Node13</title>
<path fill="none" stroke="midnightblue" d="M133.12,-142.45C138.69,-113.71 153.03,-60.13 186,-29 192.74,-22.64 201.74,-18.39 210.44,-15.55"/>
<polygon fill="midnightblue" stroke="midnightblue" points="129.64,-142.01 131.34,-152.47 136.53,-143.23 129.64,-142.01"/>
</g>
<!-- Node2 -->
<g id="node2" class="node">
<title>Node2</title>
<g id="a_node2"><a xlink:href="class_lookupable.html" target="_top" xlink:title="Class for fields and devices that can be managed by LookupManager.">
<polygon fill="white" stroke="black" points="0,-152.5 0,-171.5 72,-171.5 72,-152.5 0,-152.5"/>
<text text-anchor="middle" x="36" y="-159.5" font-family="Helvetica,sans-Serif" font-size="10.00">Lookupable</text>
</a>
</g>
</g>
<!-- Node2&#45;&gt;Node1 -->
<g id="edge1" class="edge">
<title>Node2&#45;&gt;Node1</title>
<path fill="none" stroke="midnightblue" d="M82.3,-162C91.7,-162 101.12,-162 108.93,-162"/>
<polygon fill="midnightblue" stroke="midnightblue" points="82.18,-158.5 72.18,-162 82.18,-165.5 82.18,-158.5"/>
</g>
<!-- Node4 -->
<g id="node4" class="node">
<title>Node4</title>
<g id="a_node4"><a xlink:href="class_settable_byte_field.html" target="_top" xlink:title="Fields that contain an unsigned, single byte integer that can be set using an RPC call.">
<polygon fill="white" stroke="black" points="553,-228.5 553,-247.5 656,-247.5 656,-228.5 553,-228.5"/>
<text text-anchor="middle" x="604.5" y="-235.5" font-family="Helvetica,sans-Serif" font-size="10.00">SettableByteField</text>
</a>
</g>
</g>
<!-- Node3&#45;&gt;Node4 -->
<g id="edge3" class="edge">
<title>Node3&#45;&gt;Node4</title>
<path fill="none" stroke="midnightblue" d="M526.39,-228.36C535.27,-229.47 544.17,-230.58 552.6,-231.64"/>
<polygon fill="midnightblue" stroke="midnightblue" points="526.76,-224.88 516.4,-227.11 525.89,-231.83 526.76,-224.88"/>
</g>
<!-- Node5 -->
<g id="node5" class="node">
<title>Node5</title>
<g id="a_node5"><a xlink:href="class_settable_flag_field.html" target="_top" xlink:title="Class for flags that can be set via an RPC call.">
<polygon fill="white" stroke="black" points="554,-190.5 554,-209.5 655,-209.5 655,-190.5 554,-190.5"/>
<text text-anchor="middle" x="604.5" y="-197.5" font-family="Helvetica,sans-Serif" font-size="10.00">SettableFlagField</text>
</a>
</g>
</g>
<!-- Node3&#45;&gt;Node5 -->
<g id="edge4" class="edge">
<title>Node3&#45;&gt;Node5</title>
<path fill="none" stroke="midnightblue" d="M526.49,-209.63C535.83,-208.46 545.18,-207.29 553.99,-206.19"/>
<polygon fill="midnightblue" stroke="midnightblue" points="525.89,-206.17 516.4,-210.89 526.76,-213.12 525.89,-206.17"/>
</g>
<!-- Node10&#45;&gt;Node3 -->
<g id="edge10" class="edge">
<title>Node10&#45;&gt;Node3</title>
<path fill="none" stroke="orange" stroke-dasharray="5,2" d="M279.99,-137.06C285.07,-138.96 290.19,-140.97 295,-143 345.68,-164.38 403.32,-194.29 431.74,-209.42"/>
<polygon fill="orange" stroke="orange" points="280.93,-133.68 270.33,-133.55 278.53,-140.26 280.93,-133.68"/>
<text text-anchor="middle" x="340" y="-178" font-family="Helvetica,sans-Serif" font-size="10.00"> &lt; int8_t &gt;</text>
</g>
</g>
</svg>
