<?xml version="1.0" encoding="UTF-8" standalone="no"?>
<!DOCTYPE svg PUBLIC "-//W3C//DTD SVG 1.1//EN"
 "http://www.w3.org/Graphics/SVG/1.1/DTD/svg11.dtd">
<!-- Generated by graphviz version 2.43.0 (0)
 -->
<!-- Title: Led::begin Pages: 1 -->
<svg width="244pt" height="28pt"
 viewBox="0.00 0.00 244.00 28.00" xmlns="http://www.w3.org/2000/svg" xmlns:xlink="http://www.w3.org/1999/xlink">
<g id="graph0" class="graph" transform="scale(1 1) rotate(0) translate(4 24)">
<title>Led::begin</title>
<polygon fill="white" stroke="transparent" points="-4,4 -4,-24 240,-24 240,4 -4,4"/>
<!-- Node1 -->
<g id="node1" class="node">
<title>Node1</title>
<g id="a_node1"><a xlink:title="Initialises the pins.">
<polygon fill="#bfbfbf" stroke="black" points="169,-0.5 169,-19.5 236,-19.5 236,-0.5 169,-0.5"/>
<text text-anchor="middle" x="202.5" y="-7.5" font-family="Helvetica,sans-Serif" font-size="10.00">Led::begin</text>
</a>
</g>
</g>
<!-- Node2 -->
<g id="node2" class="node">
<title>Node2</title>
<g id="a_node2"><a xlink:href="leds_8cpp.html#a0e9abc4adafb917c6af448aca6042e96" target="_top" xlink:title="Task that manages the LEDs on the unit.">
<polygon fill="white" stroke="black" points="80,-0.5 80,-19.5 133,-19.5 133,-0.5 80,-0.5"/>
<text text-anchor="middle" x="106.5" y="-7.5" font-family="Helvetica,sans-Serif" font-size="10.00">ledTask</text>
</a>
</g>
</g>
<!-- Node1&#45;&gt;Node2 -->
<g id="edge1" class="edge">
<title>Node1&#45;&gt;Node2</title>
<path fill="none" stroke="midnightblue" d="M158.81,-10C150.08,-10 141.15,-10 133.24,-10"/>
<polygon fill="midnightblue" stroke="midnightblue" points="158.89,-13.5 168.89,-10 158.89,-6.5 158.89,-13.5"/>
</g>
<!-- Node3 -->
<g id="node3" class="node">
<title>Node3</title>
<g id="a_node3"><a xlink:href="main_8cpp.html#a4fc01d736fe50cf5b977f755b675f11d" target="_top" xlink:title=" ">
<polygon fill="white" stroke="black" points="0,-0.5 0,-19.5 44,-19.5 44,-0.5 0,-0.5"/>
<text text-anchor="middle" x="22" y="-7.5" font-family="Helvetica,sans-Serif" font-size="10.00">setup</text>
</a>
</g>
</g>
<!-- Node2&#45;&gt;Node3 -->
<g id="edge2" class="edge">
<title>Node2&#45;&gt;Node3</title>
<path fill="none" stroke="midnightblue" d="M69.84,-10C61.1,-10 52.02,-10 44.2,-10"/>
<polygon fill="midnightblue" stroke="midnightblue" points="69.85,-13.5 79.85,-10 69.85,-6.5 69.85,-13.5"/>
</g>
</g>
</svg>
