<?xml version="1.0" encoding="UTF-8" standalone="no"?>
<!DOCTYPE svg PUBLIC "-//W3C//DTD SVG 1.1//EN"
 "http://www.w3.org/Graphics/SVG/1.1/DTD/svg11.dtd">
<!-- Generated by graphviz version 2.43.0 (0)
 -->
<!-- Title: Device Pages: 1 -->
<svg width="373pt" height="240pt"
 viewBox="0.00 0.00 373.00 240.00" xmlns="http://www.w3.org/2000/svg" xmlns:xlink="http://www.w3.org/1999/xlink">
<g id="graph0" class="graph" transform="scale(1 1) rotate(0) translate(4 236)">
<title>Device</title>
<polygon fill="white" stroke="transparent" points="-4,4 -4,-236 369,-236 369,4 -4,4"/>
<!-- Node1 -->
<g id="node1" class="node">
<title>Node1</title>
<g id="a_node1"><a xlink:title="Each sensor / device on the PJON network.">
<polygon fill="#bfbfbf" stroke="black" points="188.5,-0.5 188.5,-19.5 238.5,-19.5 238.5,-0.5 188.5,-0.5"/>
<text text-anchor="middle" x="213.5" y="-7.5" font-family="Helvetica,sans-Serif" font-size="10.00">Device</text>
</a>
</g>
</g>
<!-- Node2 -->
<g id="node2" class="node">
<title>Node2</title>
<g id="a_node2"><a xlink:href="class_lookupable.html" target="_top" xlink:title="Class for fields and devices that can be managed by LookupManager.">
<polygon fill="white" stroke="black" points="116.5,-67.5 116.5,-86.5 188.5,-86.5 188.5,-67.5 116.5,-67.5"/>
<text text-anchor="middle" x="152.5" y="-74.5" font-family="Helvetica,sans-Serif" font-size="10.00">Lookupable</text>
</a>
</g>
</g>
<!-- Node2&#45;&gt;Node1 -->
<g id="edge1" class="edge">
<title>Node2&#45;&gt;Node1</title>
<path fill="none" stroke="midnightblue" d="M167.86,-59.63C179.79,-46.92 195.86,-29.8 205.4,-19.63"/>
<polygon fill="midnightblue" stroke="midnightblue" points="165.02,-57.55 160.73,-67.23 170.12,-62.34 165.02,-57.55"/>
</g>
<!-- Node3 -->
<g id="node3" class="node">
<title>Node3</title>
<g id="a_node3"><a xlink:title=" ">
<polygon fill="white" stroke="#bfbfbf" points="0,-140 0,-159 101,-159 101,-140 0,-140"/>
<text text-anchor="middle" x="50.5" y="-147" font-family="Helvetica,sans-Serif" font-size="10.00">const char *const</text>
</a>
</g>
</g>
<!-- Node3&#45;&gt;Node2 -->
<g id="edge2" class="edge">
<title>Node3&#45;&gt;Node2</title>
<path fill="none" stroke="#9a32cd" stroke-dasharray="5,2" d="M71.4,-134.05C92,-119.82 122.78,-98.54 139.89,-86.72"/>
<polygon fill="#9a32cd" stroke="#9a32cd" points="69.24,-131.29 63.01,-139.86 73.22,-137.05 69.24,-131.29"/>
<text text-anchor="middle" x="126" y="-108" font-family="Helvetica,sans-Serif" font-size="10.00"> name</text>
</g>
<!-- Node4 -->
<g id="node4" class="node">
<title>Node4</title>
<g id="a_node4"><a xlink:title=" ">
<polygon fill="white" stroke="#bfbfbf" points="119,-140 119,-159 186,-159 186,-140 119,-140"/>
<text text-anchor="middle" x="152.5" y="-147" font-family="Helvetica,sans-Serif" font-size="10.00">const char</text>
</a>
</g>
</g>
<!-- Node4&#45;&gt;Node2 -->
<g id="edge3" class="edge">
<title>Node4&#45;&gt;Node2</title>
<path fill="none" stroke="#9a32cd" stroke-dasharray="5,2" d="M152.5,-129.44C152.5,-115.53 152.5,-97.32 152.5,-86.72"/>
<polygon fill="#9a32cd" stroke="#9a32cd" points="149,-129.86 152.5,-139.86 156,-129.86 149,-129.86"/>
<text text-anchor="middle" x="172.5" y="-108" font-family="Helvetica,sans-Serif" font-size="10.00"> symbol</text>
</g>
<!-- Node5 -->
<g id="node5" class="node">
<title>Node5</title>
<g id="a_node5"><a xlink:href="class_lookup_manager.html" target="_top" xlink:title=" ">
<polygon fill="white" stroke="black" points="210.5,-67.5 210.5,-86.5 350.5,-86.5 350.5,-67.5 210.5,-67.5"/>
<text text-anchor="middle" x="280.5" y="-74.5" font-family="Helvetica,sans-Serif" font-size="10.00">LookupManager&lt; Field &gt;</text>
</a>
</g>
</g>
<!-- Node5&#45;&gt;Node1 -->
<g id="edge4" class="edge">
<title>Node5&#45;&gt;Node1</title>
<path fill="none" stroke="#9a32cd" stroke-dasharray="5,2" d="M264,-60C250.86,-47.25 232.98,-29.89 222.39,-19.63"/>
<polygon fill="#9a32cd" stroke="#9a32cd" points="261.85,-62.78 271.46,-67.23 266.72,-57.76 261.85,-62.78"/>
<text text-anchor="middle" x="265.5" y="-41" font-family="Helvetica,sans-Serif" font-size="10.00"> fields</text>
</g>
<!-- Node6 -->
<g id="node6" class="node">
<title>Node6</title>
<g id="a_node6"><a xlink:href="class_lookup_manager.html" target="_top" xlink:title="Class for looking up and managing devices and fields.">
<polygon fill="white" stroke="black" points="204,-134.5 204,-164.5 365,-164.5 365,-134.5 204,-134.5"/>
<text text-anchor="start" x="212" y="-152.5" font-family="Helvetica,sans-Serif" font-size="10.00">LookupManager&lt; Lookupable</text>
<text text-anchor="middle" x="284.5" y="-141.5" font-family="Helvetica,sans-Serif" font-size="10.00">Class &gt;</text>
</a>
</g>
</g>
<!-- Node6&#45;&gt;Node5 -->
<g id="edge5" class="edge">
<title>Node6&#45;&gt;Node5</title>
<path fill="none" stroke="orange" stroke-dasharray="5,2" d="M283.12,-124.09C282.38,-111.21 281.53,-96.2 281,-86.89"/>
<polygon fill="orange" stroke="orange" points="279.63,-124.45 283.69,-134.23 286.62,-124.05 279.63,-124.45"/>
<text text-anchor="middle" x="307" y="-108" font-family="Helvetica,sans-Serif" font-size="10.00"> &lt; Field &gt;</text>
</g>
<!-- Node7 -->
<g id="node7" class="node">
<title>Node7</title>
<g id="a_node7"><a xlink:title=" ">
<polygon fill="white" stroke="#bfbfbf" points="178.5,-212.5 178.5,-231.5 290.5,-231.5 290.5,-212.5 178.5,-212.5"/>
<text text-anchor="middle" x="234.5" y="-219.5" font-family="Helvetica,sans-Serif" font-size="10.00">LookupableClass **</text>
</a>
</g>
</g>
<!-- Node7&#45;&gt;Node6 -->
<g id="edge6" class="edge">
<title>Node7&#45;&gt;Node6</title>
<path fill="none" stroke="#9a32cd" stroke-dasharray="5,2" d="M244.34,-203.53C248.23,-196.95 252.87,-189.5 257.5,-183 261.92,-176.79 267.21,-170.26 271.93,-164.69"/>
<polygon fill="#9a32cd" stroke="#9a32cd" points="241.23,-201.91 239.26,-212.32 247.29,-205.41 241.23,-201.91"/>
<text text-anchor="middle" x="280.5" y="-186" font-family="Helvetica,sans-Serif" font-size="10.00"> m_items</text>
</g>
<!-- Node8 -->
<g id="node8" class="node">
<title>Node8</title>
<g id="a_node8"><a xlink:title=" ">
<polygon fill="white" stroke="#bfbfbf" points="308.5,-212.5 308.5,-231.5 358.5,-231.5 358.5,-212.5 308.5,-212.5"/>
<text text-anchor="middle" x="333.5" y="-219.5" font-family="Helvetica,sans-Serif" font-size="10.00">uint8_t</text>
</a>
</g>
</g>
<!-- Node8&#45;&gt;Node6 -->
<g id="edge7" class="edge">
<title>Node8&#45;&gt;Node6</title>
<path fill="none" stroke="#9a32cd" stroke-dasharray="5,2" d="M321.71,-204.04C313.32,-191.97 302.18,-175.94 294.28,-164.58"/>
<polygon fill="#9a32cd" stroke="#9a32cd" points="318.91,-206.14 327.49,-212.36 324.66,-202.15 318.91,-206.14"/>
<text text-anchor="middle" x="335.5" y="-186" font-family="Helvetica,sans-Serif" font-size="10.00"> m_count</text>
</g>
</g>
</svg>
