<?xml version="1.0" encoding="UTF-8" standalone="no"?>
<!DOCTYPE svg PUBLIC "-//W3C//DTD SVG 1.1//EN"
 "http://www.w3.org/Graphics/SVG/1.1/DTD/svg11.dtd">
<!-- Generated by graphviz version 2.43.0 (0)
 -->
<!-- Title: SettableFlagField Pages: 1 -->
<svg width="334pt" height="369pt"
 viewBox="0.00 0.00 333.50 369.00" xmlns="http://www.w3.org/2000/svg" xmlns:xlink="http://www.w3.org/1999/xlink">
<g id="graph0" class="graph" transform="scale(1 1) rotate(0) translate(4 365)">
<title>SettableFlagField</title>
<!-- Node1 -->
<g id="Node000001" class="node">
<title>Node1</title>
<g id="a_Node000001"><a xlink:title="Class for flags that can be set via an RPC call.">
<polygon fill="#999999" stroke="#666666" points="244,-19 143,-19 143,0 244,0 244,-19"/>
<text text-anchor="middle" x="193.5" y="-7" font-family="Helvetica,sans-Serif" font-size="10.00">SettableFlagField</text>
</a>
</g>
</g>
<!-- Node2 -->
<g id="Node000002" class="node">
<title>Node2</title>
<g id="a_Node000002"><a xlink:href="class_settable_field.html" target="_top" xlink:title=" ">
<polygon fill="white" stroke="#666666" points="259,-75 128,-75 128,-56 259,-56 259,-75"/>
<text text-anchor="middle" x="193.5" y="-63" font-family="Helvetica,sans-Serif" font-size="10.00">SettableField&lt; int8_t &gt;</text>
</a>
</g>
</g>
<!-- Node2&#45;&gt;Node1 -->
<g id="edge1_Node000001_Node000002" class="edge">
<title>Node2&#45;&gt;Node1</title>
<g id="a_edge1_Node000001_Node000002"><a xlink:title=" ">
<path fill="none" stroke="#63b8ff" d="M193.5,-45.3C193.5,-36.41 193.5,-26.28 193.5,-19.25"/>
<polygon fill="#63b8ff" stroke="#63b8ff" points="190,-45.58 193.5,-55.58 197,-45.58 190,-45.58"/>
</a>
</g>
</g>
<!-- Node3 -->
<g id="Node000003" class="node">
<title>Node3</title>
<g id="a_Node000003"><a xlink:href="class_field.html" target="_top" xlink:title="Class for handling data fields in messages.">
<polygon fill="white" stroke="#666666" points="200.5,-229 160.5,-229 160.5,-210 200.5,-210 200.5,-229"/>
<text text-anchor="middle" x="180.5" y="-217" font-family="Helvetica,sans-Serif" font-size="10.00">Field</text>
</a>
</g>
</g>
<!-- Node3&#45;&gt;Node2 -->
<g id="edge2_Node000002_Node000003" class="edge">
<title>Node3&#45;&gt;Node2</title>
<g id="a_edge2_Node000002_Node000003"><a xlink:title=" ">
<path fill="none" stroke="#63b8ff" d="M182.11,-199.73C184.94,-166.56 190.73,-98.83 192.77,-75.01"/>
<polygon fill="#63b8ff" stroke="#63b8ff" points="178.6,-199.63 181.24,-209.89 185.58,-200.23 178.6,-199.63"/>
</a>
</g>
</g>
<!-- Node10 -->
<g id="Node000010" class="node">
<title>Node10</title>
<g id="a_Node000010"><a xlink:href="class_settable_field.html" target="_top" xlink:title="Class for fields that can be set.">
<polygon fill="white" stroke="#666666" points="165,-152 56,-152 56,-133 165,-133 165,-152"/>
<text text-anchor="middle" x="110.5" y="-140" font-family="Helvetica,sans-Serif" font-size="10.00">SettableField&lt; T &gt;</text>
</a>
</g>
</g>
<!-- Node3&#45;&gt;Node10 -->
<g id="edge10_Node000010_Node000003" class="edge">
<title>Node3&#45;&gt;Node10</title>
<g id="a_edge10_Node000010_Node000003"><a xlink:title=" ">
<path fill="none" stroke="#63b8ff" d="M173.63,-200.47C169.24,-190.64 162.81,-178.73 154.5,-170 147.49,-162.63 138,-156.57 129.63,-152.12"/>
<polygon fill="#63b8ff" stroke="#63b8ff" points="170.41,-201.83 177.46,-209.74 176.88,-199.16 170.41,-201.83"/>
</a>
</g>
</g>
<!-- Node4 -->
<g id="Node000004" class="node">
<title>Node4</title>
<g id="a_Node000004"><a xlink:href="class_lookupable.html" target="_top" xlink:title="Class for fields and devices that can be managed by LookupManager.">
<polygon fill="white" stroke="#666666" points="137.5,-295 65.5,-295 65.5,-276 137.5,-276 137.5,-295"/>
<text text-anchor="middle" x="101.5" y="-283" font-family="Helvetica,sans-Serif" font-size="10.00">Lookupable</text>
</a>
</g>
</g>
<!-- Node4&#45;&gt;Node3 -->
<g id="edge3_Node000003_Node000004" class="edge">
<title>Node4&#45;&gt;Node3</title>
<g id="a_edge3_Node000003_Node000004"><a xlink:title=" ">
<path fill="none" stroke="#63b8ff" d="M120.03,-269.49C135.5,-256.96 157,-239.54 169.76,-229.2"/>
<polygon fill="#63b8ff" stroke="#63b8ff" points="117.72,-266.85 112.15,-275.87 122.13,-272.29 117.72,-266.85"/>
</a>
</g>
</g>
<!-- Node5 -->
<g id="Node000005" class="node">
<title>Node5</title>
<g id="a_Node000005"><a xlink:title=" ">
<polygon fill="white" stroke="#666666" points="101,-361 0,-361 0,-342 101,-342 101,-361"/>
<text text-anchor="middle" x="50.5" y="-349" font-family="Helvetica,sans-Serif" font-size="10.00">const char *const</text>
</a>
</g>
</g>
<!-- Node5&#45;&gt;Node4 -->
<g id="edge4_Node000004_Node000005" class="edge">
<title>Node5&#45;&gt;Node4</title>
<g id="a_edge4_Node000004_Node000005"><a xlink:title=" ">
<path fill="none" stroke="#9a32cd" stroke-dasharray="5,2" d="M63.83,-333.77C73.62,-321.49 86.52,-305.3 94.4,-295.41"/>
<polygon fill="#9a32cd" stroke="#9a32cd" points="60.87,-331.87 57.38,-341.87 66.35,-336.23 60.87,-331.87"/>
</a>
</g>
<text text-anchor="middle" x="95" y="-316" font-family="Helvetica,sans-Serif" font-size="10.00" fill="grey"> name</text>
</g>
<!-- Node6 -->
<g id="Node000006" class="node">
<title>Node6</title>
<g id="a_Node000006"><a xlink:title=" ">
<polygon fill="white" stroke="#666666" points="186,-361 119,-361 119,-342 186,-342 186,-361"/>
<text text-anchor="middle" x="152.5" y="-349" font-family="Helvetica,sans-Serif" font-size="10.00">const char</text>
</a>
</g>
</g>
<!-- Node6&#45;&gt;Node4 -->
<g id="edge5_Node000004_Node000006" class="edge">
<title>Node6&#45;&gt;Node4</title>
<g id="a_edge5_Node000004_Node000006"><a xlink:title=" ">
<path fill="none" stroke="#9a32cd" stroke-dasharray="5,2" d="M139.17,-333.77C129.38,-321.49 116.48,-305.3 108.6,-295.41"/>
<polygon fill="#9a32cd" stroke="#9a32cd" points="136.65,-336.23 145.62,-341.87 142.13,-331.87 136.65,-336.23"/>
</a>
</g>
<text text-anchor="middle" x="150.5" y="-316" font-family="Helvetica,sans-Serif" font-size="10.00" fill="grey"> symbol</text>
</g>
<!-- Node7 -->
<g id="Node000007" class="node">
<title>Node7</title>
<g id="a_Node000007"><a xlink:href="classuint8__t.html" target="_top" xlink:title=" ">
<polygon fill="white" stroke="#666666" points="205.5,-295 155.5,-295 155.5,-276 205.5,-276 205.5,-295"/>
<text text-anchor="middle" x="180.5" y="-283" font-family="Helvetica,sans-Serif" font-size="10.00">uint8_t</text>
</a>
</g>
</g>
<!-- Node7&#45;&gt;Node3 -->
<g id="edge6_Node000003_Node000007" class="edge">
<title>Node7&#45;&gt;Node3</title>
<g id="a_edge6_Node000003_Node000007"><a xlink:title=" ">
<path fill="none" stroke="#9a32cd" stroke-dasharray="5,2" d="M180.5,-265.58C180.5,-253.63 180.5,-238.72 180.5,-229.41"/>
<polygon fill="#9a32cd" stroke="#9a32cd" points="177,-265.87 180.5,-275.87 184,-265.87 177,-265.87"/>
</a>
</g>
<text text-anchor="middle" x="219.5" y="-250" font-family="Helvetica,sans-Serif" font-size="10.00" fill="grey"> encodedLength</text>
</g>
<!-- Node8 -->
<g id="Node000008" class="node">
<title>Node8</title>
<g id="a_Node000008"><a xlink:title=" ">
<polygon fill="white" stroke="#666666" points="300.5,-295 262.5,-295 262.5,-276 300.5,-276 300.5,-295"/>
<text text-anchor="middle" x="281.5" y="-283" font-family="Helvetica,sans-Serif" font-size="10.00">bool</text>
</a>
</g>
</g>
<!-- Node8&#45;&gt;Node3 -->
<g id="edge7_Node000003_Node000008" class="edge">
<title>Node8&#45;&gt;Node3</title>
<g id="a_edge7_Node000003_Node000008"><a xlink:title=" ">
<path fill="none" stroke="#9a32cd" stroke-dasharray="5,2" d="M274.24,-266.45C270.69,-259.55 265.8,-252.11 259.5,-247 242.43,-233.14 217.78,-226.4 200.57,-223.2"/>
<polygon fill="#9a32cd" stroke="#9a32cd" points="271.18,-268.18 278.49,-275.85 277.56,-265.29 271.18,-268.18"/>
</a>
</g>
<text text-anchor="middle" x="297" y="-250" font-family="Helvetica,sans-Serif" font-size="10.00" fill="grey"> txRequired</text>
</g>
<!-- Node9 -->
<g id="Node000009" class="node">
<title>Node9</title>
<g id="a_Node000009"><a xlink:href="classint8__t.html" target="_top" xlink:title=" ">
<polygon fill="white" stroke="#666666" points="265.5,-152 221.5,-152 221.5,-133 265.5,-133 265.5,-152"/>
<text text-anchor="middle" x="243.5" y="-140" font-family="Helvetica,sans-Serif" font-size="10.00">int8_t</text>
</a>
</g>
</g>
<!-- Node9&#45;&gt;Node2 -->
<g id="edge8_Node000002_Node000009" class="edge">
<title>Node9&#45;&gt;Node2</title>
<g id="a_edge8_Node000002_Node000009"><a xlink:title=" ">
<path fill="none" stroke="#9a32cd" stroke-dasharray="5,2" d="M232.03,-124.29C221.76,-108.88 207.12,-86.93 199.17,-75"/>
<polygon fill="#9a32cd" stroke="#9a32cd" points="229.31,-126.52 237.76,-132.9 235.13,-122.63 229.31,-126.52"/>
</a>
</g>
<text text-anchor="middle" x="246.5" y="-107" font-family="Helvetica,sans-Serif" font-size="10.00" fill="grey"> curValue</text>
<text text-anchor="middle" x="246.5" y="-96" font-family="Helvetica,sans-Serif" font-size="10.00" fill="grey">setValue</text>
</g>
<!-- Node10&#45;&gt;Node2 -->
<g id="edge9_Node000002_Node000010" class="edge">
<title>Node10&#45;&gt;Node2</title>
<g id="a_edge9_Node000002_Node000010"><a xlink:title=" ">
<path fill="none" stroke="orange" stroke-dasharray="5,2" d="M112.37,-122.73C114.24,-112.81 118,-101.06 125.5,-93 133.18,-84.75 143.74,-79.03 154.25,-75.08"/>
<polygon fill="orange" stroke="orange" points="108.87,-122.46 110.95,-132.85 115.8,-123.43 108.87,-122.46"/>
</a>
</g>
<text text-anchor="middle" x="152.5" y="-101.5" font-family="Helvetica,sans-Serif" font-size="10.00" fill="grey"> &lt; int8_t &gt;</text>
</g>
<!-- Node11 -->
<g id="Node000011" class="node">
<title>Node11</title>
<g id="a_Node000011"><a xlink:title=" ">
<polygon fill="white" stroke="#666666" points="122,-229 93,-229 93,-210 122,-210 122,-229"/>
<text text-anchor="middle" x="107.5" y="-217" font-family="Helvetica,sans-Serif" font-size="10.00">T</text>
</a>
</g>
</g>
<!-- Node11&#45;&gt;Node10 -->
<g id="edge11_Node000010_Node000011" class="edge">
<title>Node11&#45;&gt;Node10</title>
<g id="a_edge11_Node000010_Node000011"><a xlink:title=" ">
<path fill="none" stroke="#9a32cd" stroke-dasharray="5,2" d="M107.65,-199.77C107.78,-190.77 108.03,-179.82 108.5,-170 108.78,-164.1 109.28,-157.48 109.71,-152.33"/>
<polygon fill="#9a32cd" stroke="#9a32cd" points="104.15,-199.87 107.54,-209.91 111.15,-199.95 104.15,-199.87"/>
</a>
</g>
<text text-anchor="middle" x="131.5" y="-184" font-family="Helvetica,sans-Serif" font-size="10.00" fill="grey"> curValue</text>
<text text-anchor="middle" x="131.5" y="-173" font-family="Helvetica,sans-Serif" font-size="10.00" fill="grey">setValue</text>
</g>
</g>
</svg>
