<?xml version="1.0" encoding="UTF-8" standalone="no"?>
<!DOCTYPE svg PUBLIC "-//W3C//DTD SVG 1.1//EN"
 "http://www.w3.org/Graphics/SVG/1.1/DTD/svg11.dtd">
<!-- Generated by graphviz version 2.43.0 (0)
 -->
<!-- Title: Field::writeSymbol Pages: 1 -->
<svg width="260pt" height="88pt"
 viewBox="0.00 0.00 260.00 88.00" xmlns="http://www.w3.org/2000/svg" xmlns:xlink="http://www.w3.org/1999/xlink">
<g id="graph0" class="graph" transform="scale(1 1) rotate(0) translate(4 84)">
<title>Field::writeSymbol</title>
<polygon fill="white" stroke="transparent" points="-4,4 -4,-84 256,-84 256,4 -4,4"/>
<!-- Node1 -->
<g id="node1" class="node">
<title>Node1</title>
<g id="a_node1"><a xlink:title="Returns the symbol in write mode (MSB set to 1).">
<polygon fill="#bfbfbf" stroke="black" points="145,-30 145,-49 252,-49 252,-30 145,-30"/>
<text text-anchor="middle" x="198.5" y="-37" font-family="Helvetica,sans-Serif" font-size="10.00">Field::writeSymbol</text>
</a>
</g>
</g>
<!-- Node2 -->
<g id="node2" class="node">
<title>Node2</title>
<g id="a_node2"><a xlink:href="class_settable_byte_field.html#ad9a73e287bbb6c844685dd06de96c5e8" target="_top" xlink:title="Encodes the value to set into a packet ready to send.">
<polygon fill="white" stroke="black" points="0,-49.5 0,-79.5 109,-79.5 109,-49.5 0,-49.5"/>
<text text-anchor="start" x="8" y="-67.5" font-family="Helvetica,sans-Serif" font-size="10.00">SettableByteField::</text>
<text text-anchor="middle" x="54.5" y="-56.5" font-family="Helvetica,sans-Serif" font-size="10.00">encode</text>
</a>
</g>
</g>
<!-- Node1&#45;&gt;Node2 -->
<g id="edge1" class="edge">
<title>Node1&#45;&gt;Node2</title>
<path fill="none" stroke="midnightblue" d="M134.5,-50.59C126.12,-52.07 117.58,-53.57 109.37,-55.02"/>
<polygon fill="midnightblue" stroke="midnightblue" points="135.38,-53.99 144.62,-48.81 134.17,-47.1 135.38,-53.99"/>
</g>
<!-- Node3 -->
<g id="node3" class="node">
<title>Node3</title>
<g id="a_node3"><a xlink:href="class_settable_flag_field.html#ab24dbdb23e45a176c378b3d6c3f2345c" target="_top" xlink:title="Encodes the value to set into a packet ready to send.">
<polygon fill="white" stroke="black" points="1,-0.5 1,-30.5 108,-30.5 108,-0.5 1,-0.5"/>
<text text-anchor="start" x="9" y="-18.5" font-family="Helvetica,sans-Serif" font-size="10.00">SettableFlagField::</text>
<text text-anchor="middle" x="54.5" y="-7.5" font-family="Helvetica,sans-Serif" font-size="10.00">encode</text>
</a>
</g>
</g>
<!-- Node1&#45;&gt;Node3 -->
<g id="edge2" class="edge">
<title>Node1&#45;&gt;Node3</title>
<path fill="none" stroke="midnightblue" d="M134.51,-28.85C125.8,-27.38 116.92,-25.88 108.42,-24.44"/>
<polygon fill="midnightblue" stroke="midnightblue" points="134.18,-32.35 144.62,-30.56 135.35,-25.45 134.18,-32.35"/>
</g>
</g>
</svg>
