<?xml version="1.0" encoding="UTF-8" standalone="no"?>
<!DOCTYPE svg PUBLIC "-//W3C//DTD SVG 1.1//EN"
 "http://www.w3.org/Graphics/SVG/1.1/DTD/svg11.dtd">
<!-- Generated by graphviz version 2.43.0 (0)
 -->
<!-- Title: SettableByteField Pages: 1 -->
<svg width="195pt" height="261pt"
 viewBox="0.00 0.00 195.00 261.00" xmlns="http://www.w3.org/2000/svg" xmlns:xlink="http://www.w3.org/1999/xlink">
<g id="graph0" class="graph" transform="scale(1 1) rotate(0) translate(4 257)">
<title>SettableByteField</title>
<!-- Node1 -->
<g id="Node000001" class="node">
<title>Node1</title>
<g id="a_Node000001"><a xlink:title="Fields that contain an unsigned, single byte integer that can be set using an RPC call.">
<polygon fill="#999999" stroke="#666666" points="117,-19 14,-19 14,0 117,0 117,-19"/>
<text text-anchor="middle" x="65.5" y="-7" font-family="Helvetica,sans-Serif" font-size="10.00">SettableByteField</text>
</a>
</g>
</g>
<!-- Node2 -->
<g id="Node000002" class="node">
<title>Node2</title>
<g id="a_Node000002"><a xlink:href="class_settable_field.html" target="_top" xlink:title=" ">
<polygon fill="white" stroke="#666666" points="131,-75 0,-75 0,-56 131,-56 131,-75"/>
<text text-anchor="middle" x="65.5" y="-63" font-family="Helvetica,sans-Serif" font-size="10.00">SettableField&lt; int8_t &gt;</text>
</a>
</g>
</g>
<!-- Node2&#45;&gt;Node1 -->
<g id="edge1_Node000001_Node000002" class="edge">
<title>Node2&#45;&gt;Node1</title>
<g id="a_edge1_Node000001_Node000002"><a xlink:title=" ">
<path fill="none" stroke="#63b8ff" d="M65.5,-45.3C65.5,-36.41 65.5,-26.28 65.5,-19.25"/>
<polygon fill="#63b8ff" stroke="#63b8ff" points="62,-45.58 65.5,-55.58 69,-45.58 62,-45.58"/>
</a>
</g>
</g>
<!-- Node3 -->
<g id="Node000003" class="node">
<title>Node3</title>
<g id="a_Node000003"><a xlink:href="class_field.html" target="_top" xlink:title="Class for handling data fields in messages.">
<polygon fill="white" stroke="#666666" points="81.5,-197 41.5,-197 41.5,-178 81.5,-178 81.5,-197"/>
<text text-anchor="middle" x="61.5" y="-185" font-family="Helvetica,sans-Serif" font-size="10.00">Field</text>
</a>
</g>
</g>
<!-- Node3&#45;&gt;Node2 -->
<g id="edge2_Node000002_Node000003" class="edge">
<title>Node3&#45;&gt;Node2</title>
<g id="a_edge2_Node000002_Node000003"><a xlink:title=" ">
<path fill="none" stroke="#63b8ff" d="M62.13,-167.65C63.01,-141.22 64.57,-94.26 65.21,-75.05"/>
<polygon fill="#63b8ff" stroke="#63b8ff" points="58.62,-167.76 61.79,-177.87 65.62,-167.99 58.62,-167.76"/>
</a>
</g>
</g>
<!-- Node5 -->
<g id="Node000005" class="node">
<title>Node5</title>
<g id="a_Node000005"><a xlink:href="class_settable_field.html" target="_top" xlink:title="Class for fields that can be set.">
<polygon fill="white" stroke="#666666" points="187,-141 78,-141 78,-122 187,-122 187,-141"/>
<text text-anchor="middle" x="132.5" y="-129" font-family="Helvetica,sans-Serif" font-size="10.00">SettableField&lt; T &gt;</text>
</a>
</g>
</g>
<!-- Node3&#45;&gt;Node5 -->
<g id="edge5_Node000005_Node000003" class="edge">
<title>Node3&#45;&gt;Node5</title>
<g id="a_edge5_Node000005_Node000003"><a xlink:title=" ">
<path fill="none" stroke="#63b8ff" d="M81.09,-171.6C93.87,-161.88 110.11,-149.53 120.89,-141.33"/>
<polygon fill="#63b8ff" stroke="#63b8ff" points="78.75,-168.98 72.91,-177.82 82.99,-174.56 78.75,-168.98"/>
</a>
</g>
</g>
<!-- Node4 -->
<g id="Node000004" class="node">
<title>Node4</title>
<g id="a_Node000004"><a xlink:href="class_lookupable.html" target="_top" xlink:title="Class for fields and devices that can be managed by LookupManager.">
<polygon fill="white" stroke="#666666" points="97.5,-253 25.5,-253 25.5,-234 97.5,-234 97.5,-253"/>
<text text-anchor="middle" x="61.5" y="-241" font-family="Helvetica,sans-Serif" font-size="10.00">Lookupable</text>
</a>
</g>
</g>
<!-- Node4&#45;&gt;Node3 -->
<g id="edge3_Node000003_Node000004" class="edge">
<title>Node4&#45;&gt;Node3</title>
<g id="a_edge3_Node000003_Node000004"><a xlink:title=" ">
<path fill="none" stroke="#63b8ff" d="M61.5,-223.3C61.5,-214.41 61.5,-204.28 61.5,-197.25"/>
<polygon fill="#63b8ff" stroke="#63b8ff" points="58,-223.58 61.5,-233.58 65,-223.58 58,-223.58"/>
</a>
</g>
</g>
<!-- Node5&#45;&gt;Node2 -->
<g id="edge4_Node000002_Node000005" class="edge">
<title>Node5&#45;&gt;Node2</title>
<g id="a_edge4_Node000002_Node000005"><a xlink:title=" ">
<path fill="none" stroke="orange" stroke-dasharray="5,2" d="M116.1,-114.83C103.12,-102.44 85.48,-85.59 74.82,-75.41"/>
<polygon fill="orange" stroke="orange" points="113.82,-117.49 123.46,-121.87 118.65,-112.43 113.82,-117.49"/>
</a>
</g>
<text text-anchor="middle" x="129.5" y="-96" font-family="Helvetica,sans-Serif" font-size="10.00" fill="grey"> &lt; int8_t &gt;</text>
</g>
</g>
</svg>
