<?xml version="1.0" encoding="UTF-8" standalone="no"?>
<!DOCTYPE svg PUBLIC "-//W3C//DTD SVG 1.1//EN"
 "http://www.w3.org/Graphics/SVG/1.1/DTD/svg11.dtd">
<!-- Generated by graphviz version 2.43.0 (0)
 -->
<!-- Title: Field Pages: 1 -->
<svg width="271pt" height="162pt"
 viewBox="0.00 0.00 270.50 162.00" xmlns="http://www.w3.org/2000/svg" xmlns:xlink="http://www.w3.org/1999/xlink">
<g id="graph0" class="graph" transform="scale(1 1) rotate(0) translate(4 158)">
<title>Field</title>
<polygon fill="white" stroke="transparent" points="-4,4 -4,-158 266.5,-158 266.5,4 -4,4"/>
<!-- Node1 -->
<g id="node1" class="node">
<title>Node1</title>
<g id="a_node1"><a xlink:title="Class for handling data fields in messages.">
<polygon fill="#bfbfbf" stroke="black" points="151.5,-0.5 151.5,-19.5 191.5,-19.5 191.5,-0.5 151.5,-0.5"/>
<text text-anchor="middle" x="171.5" y="-7.5" font-family="Helvetica,sans-Serif" font-size="10.00">Field</text>
</a>
</g>
</g>
<!-- Node2 -->
<g id="node2" class="node">
<title>Node2</title>
<g id="a_node2"><a xlink:href="class_lookupable.html" target="_top" xlink:title="Class for fields and devices that can be managed by LookupManager.">
<polygon fill="white" stroke="black" points="65.5,-67.5 65.5,-86.5 137.5,-86.5 137.5,-67.5 65.5,-67.5"/>
<text text-anchor="middle" x="101.5" y="-74.5" font-family="Helvetica,sans-Serif" font-size="10.00">Lookupable</text>
</a>
</g>
</g>
<!-- Node2&#45;&gt;Node1 -->
<g id="edge1" class="edge">
<title>Node2&#45;&gt;Node1</title>
<path fill="none" stroke="midnightblue" d="M118.35,-60.36C132.11,-47.58 151.05,-29.99 162.21,-19.63"/>
<polygon fill="midnightblue" stroke="midnightblue" points="115.89,-57.86 110.94,-67.23 120.65,-62.99 115.89,-57.86"/>
</g>
<!-- Node3 -->
<g id="node3" class="node">
<title>Node3</title>
<g id="a_node3"><a xlink:title=" ">
<polygon fill="white" stroke="#bfbfbf" points="0,-134.5 0,-153.5 101,-153.5 101,-134.5 0,-134.5"/>
<text text-anchor="middle" x="50.5" y="-141.5" font-family="Helvetica,sans-Serif" font-size="10.00">const char *const</text>
</a>
</g>
</g>
<!-- Node3&#45;&gt;Node2 -->
<g id="edge2" class="edge">
<title>Node3&#45;&gt;Node2</title>
<path fill="none" stroke="#9a32cd" stroke-dasharray="5,2" d="M63.63,-126.27C73.57,-113.6 86.83,-96.7 94.73,-86.63"/>
<polygon fill="#9a32cd" stroke="#9a32cd" points="60.8,-124.21 57.38,-134.23 66.3,-128.53 60.8,-124.21"/>
<text text-anchor="middle" x="95" y="-108" font-family="Helvetica,sans-Serif" font-size="10.00"> name</text>
</g>
<!-- Node4 -->
<g id="node4" class="node">
<title>Node4</title>
<g id="a_node4"><a xlink:title=" ">
<polygon fill="white" stroke="#bfbfbf" points="119,-134.5 119,-153.5 186,-153.5 186,-134.5 119,-134.5"/>
<text text-anchor="middle" x="152.5" y="-141.5" font-family="Helvetica,sans-Serif" font-size="10.00">const char</text>
</a>
</g>
</g>
<!-- Node4&#45;&gt;Node2 -->
<g id="edge3" class="edge">
<title>Node4&#45;&gt;Node2</title>
<path fill="none" stroke="#9a32cd" stroke-dasharray="5,2" d="M139.37,-126.27C129.43,-113.6 116.17,-96.7 108.27,-86.63"/>
<polygon fill="#9a32cd" stroke="#9a32cd" points="136.7,-128.53 145.62,-134.23 142.2,-124.21 136.7,-128.53"/>
<text text-anchor="middle" x="150.5" y="-108" font-family="Helvetica,sans-Serif" font-size="10.00"> symbol</text>
</g>
<!-- Node5 -->
<g id="node5" class="node">
<title>Node5</title>
<g id="a_node5"><a xlink:title=" ">
<polygon fill="white" stroke="#bfbfbf" points="155.5,-67.5 155.5,-86.5 235.5,-86.5 235.5,-67.5 155.5,-67.5"/>
<text text-anchor="middle" x="195.5" y="-74.5" font-family="Helvetica,sans-Serif" font-size="10.00">const uint8_t</text>
</a>
</g>
</g>
<!-- Node5&#45;&gt;Node1 -->
<g id="edge4" class="edge">
<title>Node5&#45;&gt;Node1</title>
<path fill="none" stroke="#9a32cd" stroke-dasharray="5,2" d="M188.78,-57.79C184.17,-45.31 178.26,-29.31 174.69,-19.63"/>
<polygon fill="#9a32cd" stroke="#9a32cd" points="185.52,-59.07 192.26,-67.23 192.08,-56.64 185.52,-59.07"/>
<text text-anchor="middle" x="223.5" y="-41" font-family="Helvetica,sans-Serif" font-size="10.00"> encodedLength</text>
</g>
</g>
</svg>
