<?xml version="1.0" encoding="UTF-8" standalone="no"?>
<!DOCTYPE svg PUBLIC "-//W3C//DTD SVG 1.1//EN"
 "http://www.w3.org/Graphics/SVG/1.1/DTD/svg11.dtd">
<!-- Generated by graphviz version 2.43.0 (0)
 -->
<!-- Title: SettableField&lt; T &gt; Pages: 1 -->
<svg width="230pt" height="266pt"
 viewBox="0.00 0.00 230.00 266.00" xmlns="http://www.w3.org/2000/svg" xmlns:xlink="http://www.w3.org/1999/xlink">
<g id="graph0" class="graph" transform="scale(1 1) rotate(0) translate(4 262)">
<title>SettableField&lt; T &gt;</title>
<polygon fill="white" stroke="transparent" points="-4,4 -4,-262 226,-262 226,4 -4,4"/>
<!-- Node1 -->
<g id="node1" class="node">
<title>Node1</title>
<g id="a_node1"><a xlink:title="Class for fields that can be set.">
<polygon fill="#bfbfbf" stroke="black" points="57,-124.5 57,-143.5 166,-143.5 166,-124.5 57,-124.5"/>
<text text-anchor="middle" x="111.5" y="-131.5" font-family="Helvetica,sans-Serif" font-size="10.00">SettableField&lt; T &gt;</text>
</a>
</g>
</g>
<!-- Node4 -->
<g id="node4" class="node">
<title>Node4</title>
<g id="a_node4"><a xlink:href="class_settable_field.html" target="_top" xlink:title=" ">
<polygon fill="white" stroke="black" points="46,-57.5 46,-76.5 177,-76.5 177,-57.5 46,-57.5"/>
<text text-anchor="middle" x="111.5" y="-64.5" font-family="Helvetica,sans-Serif" font-size="10.00">SettableField&lt; int8_t &gt;</text>
</a>
</g>
</g>
<!-- Node1&#45;&gt;Node4 -->
<g id="edge3" class="edge">
<title>Node1&#45;&gt;Node4</title>
<path fill="none" stroke="orange" stroke-dasharray="5,2" d="M111.5,-114.04C111.5,-101.67 111.5,-86.12 111.5,-76.63"/>
<polygon fill="orange" stroke="orange" points="108,-114.23 111.5,-124.23 115,-114.23 108,-114.23"/>
<text text-anchor="middle" x="138.5" y="-98" font-family="Helvetica,sans-Serif" font-size="10.00"> &lt; int8_t &gt;</text>
</g>
<!-- Node2 -->
<g id="node2" class="node">
<title>Node2</title>
<g id="a_node2"><a xlink:href="class_field.html" target="_top" xlink:title="Class for handling data fields in messages.">
<polygon fill="white" stroke="black" points="91.5,-181.5 91.5,-200.5 131.5,-200.5 131.5,-181.5 91.5,-181.5"/>
<text text-anchor="middle" x="111.5" y="-188.5" font-family="Helvetica,sans-Serif" font-size="10.00">Field</text>
</a>
</g>
</g>
<!-- Node2&#45;&gt;Node1 -->
<g id="edge1" class="edge">
<title>Node2&#45;&gt;Node1</title>
<path fill="none" stroke="midnightblue" d="M111.5,-171.12C111.5,-161.82 111.5,-151.06 111.5,-143.71"/>
<polygon fill="midnightblue" stroke="midnightblue" points="108,-171.41 111.5,-181.41 115,-171.41 108,-171.41"/>
</g>
<!-- Node3 -->
<g id="node3" class="node">
<title>Node3</title>
<g id="a_node3"><a xlink:href="class_lookupable.html" target="_top" xlink:title="Class for fields and devices that can be managed by LookupManager.">
<polygon fill="white" stroke="black" points="75.5,-238.5 75.5,-257.5 147.5,-257.5 147.5,-238.5 75.5,-238.5"/>
<text text-anchor="middle" x="111.5" y="-245.5" font-family="Helvetica,sans-Serif" font-size="10.00">Lookupable</text>
</a>
</g>
</g>
<!-- Node3&#45;&gt;Node2 -->
<g id="edge2" class="edge">
<title>Node3&#45;&gt;Node2</title>
<path fill="none" stroke="midnightblue" d="M111.5,-228.12C111.5,-218.82 111.5,-208.06 111.5,-200.71"/>
<polygon fill="midnightblue" stroke="midnightblue" points="108,-228.41 111.5,-238.41 115,-228.41 108,-228.41"/>
</g>
<!-- Node5 -->
<g id="node5" class="node">
<title>Node5</title>
<g id="a_node5"><a xlink:href="class_settable_byte_field.html" target="_top" xlink:title="Fields that contain an unsigned, single byte integer that can be set using an RPC call.">
<polygon fill="white" stroke="black" points="0,-0.5 0,-19.5 103,-19.5 103,-0.5 0,-0.5"/>
<text text-anchor="middle" x="51.5" y="-7.5" font-family="Helvetica,sans-Serif" font-size="10.00">SettableByteField</text>
</a>
</g>
</g>
<!-- Node4&#45;&gt;Node5 -->
<g id="edge4" class="edge">
<title>Node4&#45;&gt;Node5</title>
<path fill="none" stroke="midnightblue" d="M94.5,-50.42C83.65,-40.47 69.98,-27.94 61.01,-19.71"/>
<polygon fill="midnightblue" stroke="midnightblue" points="92.39,-53.23 102.12,-57.41 97.12,-48.07 92.39,-53.23"/>
</g>
<!-- Node6 -->
<g id="node6" class="node">
<title>Node6</title>
<g id="a_node6"><a xlink:href="class_settable_flag_field.html" target="_top" xlink:title="Class for flags that can be set via an RPC call.">
<polygon fill="white" stroke="black" points="121,-0.5 121,-19.5 222,-19.5 222,-0.5 121,-0.5"/>
<text text-anchor="middle" x="171.5" y="-7.5" font-family="Helvetica,sans-Serif" font-size="10.00">SettableFlagField</text>
</a>
</g>
</g>
<!-- Node4&#45;&gt;Node6 -->
<g id="edge5" class="edge">
<title>Node4&#45;&gt;Node6</title>
<path fill="none" stroke="midnightblue" d="M128.5,-50.42C139.35,-40.47 153.02,-27.94 161.99,-19.71"/>
<polygon fill="midnightblue" stroke="midnightblue" points="125.88,-48.07 120.88,-57.41 130.61,-53.23 125.88,-48.07"/>
</g>
</g>
</svg>
