<?xml version="1.0" encoding="UTF-8" standalone="no"?>
<!DOCTYPE svg PUBLIC "-//W3C//DTD SVG 1.1//EN"
 "http://www.w3.org/Graphics/SVG/1.1/DTD/svg11.dtd">
<!-- Generated by graphviz version 2.43.0 (0)
 -->
<!-- Title: SettableField&lt; T &gt; Pages: 1 -->
<svg width="334pt" height="236pt"
 viewBox="0.00 0.00 333.50 236.00" xmlns="http://www.w3.org/2000/svg" xmlns:xlink="http://www.w3.org/1999/xlink">
<g id="graph0" class="graph" transform="scale(1 1) rotate(0) translate(4 232)">
<title>SettableField&lt; T &gt;</title>
<!-- Node1 -->
<g id="Node000001" class="node">
<title>Node1</title>
<g id="a_Node000001"><a xlink:title="Class for fields that can be set.">
<polygon fill="#999999" stroke="#666666" points="261,-19 152,-19 152,0 261,0 261,-19"/>
<text text-anchor="middle" x="206.5" y="-7" font-family="Helvetica,sans-Serif" font-size="10.00">SettableField&lt; T &gt;</text>
</a>
</g>
</g>
<!-- Node2 -->
<g id="Node000002" class="node">
<title>Node2</title>
<g id="a_Node000002"><a xlink:href="class_field.html" target="_top" xlink:title="Class for handling data fields in messages.">
<polygon fill="white" stroke="#666666" points="200.5,-96 160.5,-96 160.5,-77 200.5,-77 200.5,-96"/>
<text text-anchor="middle" x="180.5" y="-84" font-family="Helvetica,sans-Serif" font-size="10.00">Field</text>
</a>
</g>
</g>
<!-- Node2&#45;&gt;Node1 -->
<g id="edge1_Node000001_Node000002" class="edge">
<title>Node2&#45;&gt;Node1</title>
<g id="a_edge1_Node000001_Node000002"><a xlink:title=" ">
<path fill="none" stroke="#63b8ff" d="M186.77,-67.42C192.09,-52.06 199.5,-30.7 203.55,-19"/>
<polygon fill="#63b8ff" stroke="#63b8ff" points="183.45,-66.3 183.48,-76.9 190.06,-68.59 183.45,-66.3"/>
</a>
</g>
</g>
<!-- Node3 -->
<g id="Node000003" class="node">
<title>Node3</title>
<g id="a_Node000003"><a xlink:href="class_lookupable.html" target="_top" xlink:title="Class for fields and devices that can be managed by LookupManager.">
<polygon fill="white" stroke="#666666" points="137.5,-162 65.5,-162 65.5,-143 137.5,-143 137.5,-162"/>
<text text-anchor="middle" x="101.5" y="-150" font-family="Helvetica,sans-Serif" font-size="10.00">Lookupable</text>
</a>
</g>
</g>
<!-- Node3&#45;&gt;Node2 -->
<g id="edge2_Node000002_Node000003" class="edge">
<title>Node3&#45;&gt;Node2</title>
<g id="a_edge2_Node000002_Node000003"><a xlink:title=" ">
<path fill="none" stroke="#63b8ff" d="M120.03,-136.49C135.5,-123.96 157,-106.54 169.76,-96.2"/>
<polygon fill="#63b8ff" stroke="#63b8ff" points="117.72,-133.85 112.15,-142.87 122.13,-139.29 117.72,-133.85"/>
</a>
</g>
</g>
<!-- Node4 -->
<g id="Node000004" class="node">
<title>Node4</title>
<g id="a_Node000004"><a xlink:title=" ">
<polygon fill="white" stroke="#666666" points="101,-228 0,-228 0,-209 101,-209 101,-228"/>
<text text-anchor="middle" x="50.5" y="-216" font-family="Helvetica,sans-Serif" font-size="10.00">const char *const</text>
</a>
</g>
</g>
<!-- Node4&#45;&gt;Node3 -->
<g id="edge3_Node000003_Node000004" class="edge">
<title>Node4&#45;&gt;Node3</title>
<g id="a_edge3_Node000003_Node000004"><a xlink:title=" ">
<path fill="none" stroke="#9a32cd" stroke-dasharray="5,2" d="M63.83,-200.77C73.62,-188.49 86.52,-172.3 94.4,-162.41"/>
<polygon fill="#9a32cd" stroke="#9a32cd" points="60.87,-198.87 57.38,-208.87 66.35,-203.23 60.87,-198.87"/>
</a>
</g>
<text text-anchor="middle" x="95" y="-183" font-family="Helvetica,sans-Serif" font-size="10.00" fill="grey"> name</text>
</g>
<!-- Node5 -->
<g id="Node000005" class="node">
<title>Node5</title>
<g id="a_Node000005"><a xlink:title=" ">
<polygon fill="white" stroke="#666666" points="186,-228 119,-228 119,-209 186,-209 186,-228"/>
<text text-anchor="middle" x="152.5" y="-216" font-family="Helvetica,sans-Serif" font-size="10.00">const char</text>
</a>
</g>
</g>
<!-- Node5&#45;&gt;Node3 -->
<g id="edge4_Node000003_Node000005" class="edge">
<title>Node5&#45;&gt;Node3</title>
<g id="a_edge4_Node000003_Node000005"><a xlink:title=" ">
<path fill="none" stroke="#9a32cd" stroke-dasharray="5,2" d="M139.17,-200.77C129.38,-188.49 116.48,-172.3 108.6,-162.41"/>
<polygon fill="#9a32cd" stroke="#9a32cd" points="136.65,-203.23 145.62,-208.87 142.13,-198.87 136.65,-203.23"/>
</a>
</g>
<text text-anchor="middle" x="150.5" y="-183" font-family="Helvetica,sans-Serif" font-size="10.00" fill="grey"> symbol</text>
</g>
<!-- Node6 -->
<g id="Node000006" class="node">
<title>Node6</title>
<g id="a_Node000006"><a xlink:href="classuint8__t.html" target="_top" xlink:title=" ">
<polygon fill="white" stroke="#666666" points="205.5,-162 155.5,-162 155.5,-143 205.5,-143 205.5,-162"/>
<text text-anchor="middle" x="180.5" y="-150" font-family="Helvetica,sans-Serif" font-size="10.00">uint8_t</text>
</a>
</g>
</g>
<!-- Node6&#45;&gt;Node2 -->
<g id="edge5_Node000002_Node000006" class="edge">
<title>Node6&#45;&gt;Node2</title>
<g id="a_edge5_Node000002_Node000006"><a xlink:title=" ">
<path fill="none" stroke="#9a32cd" stroke-dasharray="5,2" d="M180.5,-132.58C180.5,-120.63 180.5,-105.72 180.5,-96.41"/>
<polygon fill="#9a32cd" stroke="#9a32cd" points="177,-132.87 180.5,-142.87 184,-132.87 177,-132.87"/>
</a>
</g>
<text text-anchor="middle" x="219.5" y="-117" font-family="Helvetica,sans-Serif" font-size="10.00" fill="grey"> encodedLength</text>
</g>
<!-- Node7 -->
<g id="Node000007" class="node">
<title>Node7</title>
<g id="a_Node000007"><a xlink:title=" ">
<polygon fill="white" stroke="#666666" points="300.5,-162 262.5,-162 262.5,-143 300.5,-143 300.5,-162"/>
<text text-anchor="middle" x="281.5" y="-150" font-family="Helvetica,sans-Serif" font-size="10.00">bool</text>
</a>
</g>
</g>
<!-- Node7&#45;&gt;Node2 -->
<g id="edge6_Node000002_Node000007" class="edge">
<title>Node7&#45;&gt;Node2</title>
<g id="a_edge6_Node000002_Node000007"><a xlink:title=" ">
<path fill="none" stroke="#9a32cd" stroke-dasharray="5,2" d="M274.24,-133.45C270.69,-126.55 265.8,-119.11 259.5,-114 254.81,-110.19 222.62,-100.08 200.81,-93.5"/>
<polygon fill="#9a32cd" stroke="#9a32cd" points="271.18,-135.18 278.49,-142.85 277.56,-132.29 271.18,-135.18"/>
</a>
</g>
<text text-anchor="middle" x="297" y="-117" font-family="Helvetica,sans-Serif" font-size="10.00" fill="grey"> txRequired</text>
</g>
<!-- Node8 -->
<g id="Node000008" class="node">
<title>Node8</title>
<g id="a_Node000008"><a xlink:title=" ">
<polygon fill="white" stroke="#666666" points="248,-96 219,-96 219,-77 248,-77 248,-96"/>
<text text-anchor="middle" x="233.5" y="-84" font-family="Helvetica,sans-Serif" font-size="10.00">T</text>
</a>
</g>
</g>
<!-- Node8&#45;&gt;Node1 -->
<g id="edge7_Node000001_Node000008" class="edge">
<title>Node8&#45;&gt;Node1</title>
<g id="a_edge7_Node000001_Node000008"><a xlink:title=" ">
<path fill="none" stroke="#9a32cd" stroke-dasharray="5,2" d="M226.99,-67.42C221.46,-52.06 213.77,-30.7 209.56,-19"/>
<polygon fill="#9a32cd" stroke="#9a32cd" points="223.72,-68.67 230.4,-76.9 230.31,-66.3 223.72,-68.67"/>
</a>
</g>
<text text-anchor="middle" x="245.5" y="-51" font-family="Helvetica,sans-Serif" font-size="10.00" fill="grey"> curValue</text>
<text text-anchor="middle" x="245.5" y="-40" font-family="Helvetica,sans-Serif" font-size="10.00" fill="grey">setValue</text>
</g>
</g>
</svg>
