<?xml version="1.0" encoding="UTF-8" standalone="no"?>
<!DOCTYPE svg PUBLIC "-//W3C//DTD SVG 1.1//EN"
 "http://www.w3.org/Graphics/SVG/1.1/DTD/svg11.dtd">
<!-- Generated by graphviz version 2.43.0 (0)
 -->
<!-- Title: LookupManager&lt; LookupableClass &gt; Pages: 1 -->
<svg width="194pt" height="106pt"
 viewBox="0.00 0.00 193.50 106.00" xmlns="http://www.w3.org/2000/svg" xmlns:xlink="http://www.w3.org/1999/xlink">
<g id="graph0" class="graph" transform="scale(1 1) rotate(0) translate(4 102)">
<title>LookupManager&lt; LookupableClass &gt;</title>
<polygon fill="white" stroke="transparent" points="-4,4 -4,-102 189.5,-102 189.5,4 -4,4"/>
<!-- Node1 -->
<g id="node1" class="node">
<title>Node1</title>
<g id="a_node1"><a xlink:title="Class for looking up and managing devices and fields.">
<polygon fill="#bfbfbf" stroke="black" points="24.5,-0.5 24.5,-30.5 185.5,-30.5 185.5,-0.5 24.5,-0.5"/>
<text text-anchor="start" x="32.5" y="-18.5" font-family="Helvetica,sans-Serif" font-size="10.00">LookupManager&lt; Lookupable</text>
<text text-anchor="middle" x="105" y="-7.5" font-family="Helvetica,sans-Serif" font-size="10.00">Class &gt;</text>
</a>
</g>
</g>
<!-- Node2 -->
<g id="node2" class="node">
<title>Node2</title>
<g id="a_node2"><a xlink:title=" ">
<polygon fill="white" stroke="#bfbfbf" points="0,-78.5 0,-97.5 112,-97.5 112,-78.5 0,-78.5"/>
<text text-anchor="middle" x="56" y="-85.5" font-family="Helvetica,sans-Serif" font-size="10.00">LookupableClass **</text>
</a>
</g>
</g>
<!-- Node2&#45;&gt;Node1 -->
<g id="edge1" class="edge">
<title>Node2&#45;&gt;Node1</title>
<path fill="none" stroke="#9a32cd" stroke-dasharray="5,2" d="M67.79,-70.04C76.18,-57.97 87.32,-41.94 95.22,-30.58"/>
<polygon fill="#9a32cd" stroke="#9a32cd" points="64.84,-68.15 62.01,-78.36 70.59,-72.14 64.84,-68.15"/>
<text text-anchor="middle" x="97.5" y="-52" font-family="Helvetica,sans-Serif" font-size="10.00"> items</text>
</g>
<!-- Node3 -->
<g id="node3" class="node">
<title>Node3</title>
<g id="a_node3"><a xlink:title=" ">
<polygon fill="white" stroke="#bfbfbf" points="130,-78.5 130,-97.5 180,-97.5 180,-78.5 130,-78.5"/>
<text text-anchor="middle" x="155" y="-85.5" font-family="Helvetica,sans-Serif" font-size="10.00">uint8_t</text>
</a>
</g>
</g>
<!-- Node3&#45;&gt;Node1 -->
<g id="edge2" class="edge">
<title>Node3&#45;&gt;Node1</title>
<path fill="none" stroke="#9a32cd" stroke-dasharray="5,2" d="M142.97,-70.04C134.41,-57.97 123.04,-41.94 114.98,-30.58"/>
<polygon fill="#9a32cd" stroke="#9a32cd" points="140.23,-72.22 148.87,-78.36 145.94,-68.17 140.23,-72.22"/>
<text text-anchor="middle" x="149.5" y="-52" font-family="Helvetica,sans-Serif" font-size="10.00"> count</text>
</g>
</g>
</svg>
