<?xml version="1.0" encoding="UTF-8" standalone="no"?>
<!DOCTYPE svg PUBLIC "-//W3C//DTD SVG 1.1//EN"
 "http://www.w3.org/Graphics/SVG/1.1/DTD/svg11.dtd">
<!-- Generated by graphviz version 2.43.0 (0)
 -->
<!-- Title: LookupManager::getWithSymbol Pages: 1 -->
<svg width="773pt" height="104pt"
 viewBox="0.00 0.00 773.00 104.00" xmlns="http://www.w3.org/2000/svg" xmlns:xlink="http://www.w3.org/1999/xlink">
<g id="graph0" class="graph" transform="scale(1 1) rotate(0) translate(4 100)">
<title>LookupManager::getWithSymbol</title>
<polygon fill="white" stroke="transparent" points="-4,4 -4,-100 769,-100 769,4 -4,4"/>
<!-- Node1 -->
<g id="node1" class="node">
<title>Node1</title>
<g id="a_node1"><a xlink:title="Gets the object with the given symbol.">
<polygon fill="#bfbfbf" stroke="black" points="590,-57.5 590,-76.5 765,-76.5 765,-57.5 590,-57.5"/>
<text text-anchor="middle" x="677.5" y="-64.5" font-family="Helvetica,sans-Serif" font-size="10.00">LookupManager::getWithSymbol</text>
</a>
</g>
</g>
<!-- Node2 -->
<g id="node2" class="node">
<title>Node2</title>
<g id="a_node2"><a xlink:href="class_device.html#add7ef6f786d670584e3bf5818ce134a0" target="_top" xlink:title="Decodes the payload from a PJON packet and converts it to thingsboard MQTT JSON.">
<polygon fill="white" stroke="black" points="402,-76.5 402,-95.5 554,-95.5 554,-76.5 402,-76.5"/>
<text text-anchor="middle" x="478" y="-83.5" font-family="Helvetica,sans-Serif" font-size="10.00">Device::decodePacketFields</text>
</a>
</g>
</g>
<!-- Node1&#45;&gt;Node2 -->
<g id="edge1" class="edge">
<title>Node1&#45;&gt;Node2</title>
<path fill="none" stroke="midnightblue" d="M579.78,-76.31C571.15,-77.13 562.51,-77.97 554.11,-78.77"/>
<polygon fill="midnightblue" stroke="midnightblue" points="580.25,-79.78 589.87,-75.33 579.58,-72.81 580.25,-79.78"/>
</g>
<!-- Node4 -->
<g id="node4" class="node">
<title>Node4</title>
<g id="a_node4"><a xlink:href="lora_8cpp.html#a73337b280bec4397780b012ccc949113" target="_top" xlink:title="Handles an incoming packet received from the radio and adds the given snr and rssi to the packet.">
<polygon fill="white" stroke="black" points="251.5,-38.5 251.5,-57.5 328.5,-57.5 328.5,-38.5 251.5,-38.5"/>
<text text-anchor="middle" x="290" y="-45.5" font-family="Helvetica,sans-Serif" font-size="10.00">pjonReceive</text>
</a>
</g>
</g>
<!-- Node1&#45;&gt;Node4 -->
<g id="edge8" class="edge">
<title>Node1&#45;&gt;Node4</title>
<path fill="none" stroke="midnightblue" d="M579.73,-62.23C498.4,-58.22 386.46,-52.71 328.77,-49.86"/>
<polygon fill="midnightblue" stroke="midnightblue" points="579.83,-65.74 589.99,-62.74 580.17,-58.75 579.83,-65.74"/>
</g>
<!-- Node3 -->
<g id="node3" class="node">
<title>Node3</title>
<g id="a_node3"><a xlink:href="class_device.html#a44edcfdcd677e11331e1423ddfd26a5e" target="_top" xlink:title="Decodes the payload from a PJON packet and converts it to thingsboard MQTT JSON. Also adds on packet ...">
<polygon fill="white" stroke="black" points="214,-76.5 214,-95.5 366,-95.5 366,-76.5 214,-76.5"/>
<text text-anchor="middle" x="290" y="-83.5" font-family="Helvetica,sans-Serif" font-size="10.00">Device::decodePacketFields</text>
</a>
</g>
</g>
<!-- Node2&#45;&gt;Node3 -->
<g id="edge2" class="edge">
<title>Node2&#45;&gt;Node3</title>
<path fill="none" stroke="midnightblue" d="M391.85,-86C383.26,-86 374.57,-86 366.1,-86"/>
<polygon fill="midnightblue" stroke="midnightblue" points="391.88,-89.5 401.88,-86 391.88,-82.5 391.88,-89.5"/>
</g>
<!-- Node2&#45;&gt;Node4 -->
<g id="edge3" class="edge">
<title>Node2&#45;&gt;Node4</title>
<path fill="none" stroke="midnightblue" d="M420.22,-74.4C390.47,-68.32 354.85,-61.05 328.56,-55.67"/>
<polygon fill="midnightblue" stroke="midnightblue" points="419.57,-77.84 430.06,-76.41 420.97,-70.98 419.57,-77.84"/>
</g>
<!-- Node5 -->
<g id="node5" class="node">
<title>Node5</title>
<g id="a_node5"><a xlink:href="lora_8cpp.html#aa8801dfe2a42386ac27371814cc9f987" target="_top" xlink:title="&quot;Receives&quot; some fake data for testing purposes.">
<polygon fill="white" stroke="black" points="80,-76.5 80,-95.5 178,-95.5 178,-76.5 80,-76.5"/>
<text text-anchor="middle" x="129" y="-83.5" font-family="Helvetica,sans-Serif" font-size="10.00">fakeReceiveTask</text>
</a>
</g>
</g>
<!-- Node4&#45;&gt;Node5 -->
<g id="edge4" class="edge">
<title>Node4&#45;&gt;Node5</title>
<path fill="none" stroke="midnightblue" d="M241.5,-59.35C218.68,-64.81 191.64,-71.27 169.91,-76.46"/>
<polygon fill="midnightblue" stroke="midnightblue" points="242.41,-62.73 251.32,-57.01 240.78,-55.93 242.41,-62.73"/>
</g>
<!-- Node6 -->
<g id="node6" class="node">
<title>Node6</title>
<g id="a_node6"><a xlink:href="lora_8cpp.html#a0b02ed993c4ccbea85307991879844a6" target="_top" xlink:title="Handles an incoming packet received from the radio. Uses the latest received snr and rssi.">
<polygon fill="white" stroke="black" points="90.5,-38.5 90.5,-57.5 167.5,-57.5 167.5,-38.5 90.5,-38.5"/>
<text text-anchor="middle" x="129" y="-45.5" font-family="Helvetica,sans-Serif" font-size="10.00">pjonReceive</text>
</a>
</g>
</g>
<!-- Node4&#45;&gt;Node6 -->
<g id="edge5" class="edge">
<title>Node4&#45;&gt;Node6</title>
<path fill="none" stroke="midnightblue" d="M241.19,-48C217.66,-48 189.69,-48 167.69,-48"/>
<polygon fill="midnightblue" stroke="midnightblue" points="241.32,-51.5 251.32,-48 241.32,-44.5 241.32,-51.5"/>
</g>
<!-- Node7 -->
<g id="node7" class="node">
<title>Node7</title>
<g id="a_node7"><a xlink:href="lora_8cpp.html#a6042a1af9411d9eafc7088497f536eb8" target="_top" xlink:title="Task that manages the pjon protocol and radio.">
<polygon fill="white" stroke="black" points="99.5,-0.5 99.5,-19.5 158.5,-19.5 158.5,-0.5 99.5,-0.5"/>
<text text-anchor="middle" x="129" y="-7.5" font-family="Helvetica,sans-Serif" font-size="10.00">pjonTask</text>
</a>
</g>
</g>
<!-- Node4&#45;&gt;Node7 -->
<g id="edge6" class="edge">
<title>Node4&#45;&gt;Node7</title>
<path fill="none" stroke="midnightblue" d="M241.33,-36.61C214.42,-30.18 181.69,-22.35 158.71,-16.86"/>
<polygon fill="midnightblue" stroke="midnightblue" points="240.78,-40.07 251.32,-38.99 242.41,-33.27 240.78,-40.07"/>
</g>
<!-- Node8 -->
<g id="node8" class="node">
<title>Node8</title>
<g id="a_node8"><a xlink:href="main_8cpp.html#a4fc01d736fe50cf5b977f755b675f11d" target="_top" xlink:title=" ">
<polygon fill="white" stroke="black" points="0,-0.5 0,-19.5 44,-19.5 44,-0.5 0,-0.5"/>
<text text-anchor="middle" x="22" y="-7.5" font-family="Helvetica,sans-Serif" font-size="10.00">setup</text>
</a>
</g>
</g>
<!-- Node7&#45;&gt;Node8 -->
<g id="edge7" class="edge">
<title>Node7&#45;&gt;Node8</title>
<path fill="none" stroke="midnightblue" d="M89.14,-10C73.99,-10 57.2,-10 44.33,-10"/>
<polygon fill="midnightblue" stroke="midnightblue" points="89.31,-13.5 99.31,-10 89.31,-6.5 89.31,-13.5"/>
</g>
</g>
</svg>
