<?xml version="1.0" encoding="UTF-8" standalone="no"?>
<!DOCTYPE svg PUBLIC "-//W3C//DTD SVG 1.1//EN"
 "http://www.w3.org/Graphics/SVG/1.1/DTD/svg11.dtd">
<!-- Generated by graphviz version 2.43.0 (0)
 -->
<!-- Title: Device Pages: 1 -->
<svg width="564pt" height="302pt"
 viewBox="0.00 0.00 564.00 302.00" xmlns="http://www.w3.org/2000/svg" xmlns:xlink="http://www.w3.org/1999/xlink">
<g id="graph0" class="graph" transform="scale(1 1) rotate(0) translate(4 298)">
<title>Device</title>
<!-- Node1 -->
<g id="Node000001" class="node">
<title>Node1</title>
<g id="a_Node000001"><a xlink:title="Each sensor / device on the PJON network.">
<polygon fill="#999999" stroke="#666666" points="149.5,-19 99.5,-19 99.5,0 149.5,0 149.5,-19"/>
<text text-anchor="middle" x="124.5" y="-7" font-family="Helvetica,sans-Serif" font-size="10.00">Device</text>
</a>
</g>
</g>
<!-- Node2 -->
<g id="Node000002" class="node">
<title>Node2</title>
<g id="a_Node000002"><a xlink:href="class_lookupable.html" target="_top" xlink:title="Class for fields and devices that can be managed by LookupManager.">
<polygon fill="white" stroke="#666666" points="137.5,-228 65.5,-228 65.5,-209 137.5,-209 137.5,-228"/>
<text text-anchor="middle" x="101.5" y="-216" font-family="Helvetica,sans-Serif" font-size="10.00">Lookupable</text>
</a>
</g>
</g>
<!-- Node2&#45;&gt;Node1 -->
<g id="edge1_Node000001_Node000002" class="edge">
<title>Node2&#45;&gt;Node1</title>
<g id="a_edge1_Node000001_Node000002"><a xlink:title=" ">
<path fill="none" stroke="#63b8ff" d="M103.57,-198.89C108.36,-155.73 120.1,-50.13 123.54,-19.17"/>
<polygon fill="#63b8ff" stroke="#63b8ff" points="100.08,-198.54 102.46,-208.87 107.04,-199.32 100.08,-198.54"/>
</a>
</g>
</g>
<!-- Node6 -->
<g id="Node000006" class="node">
<title>Node6</title>
<g id="a_Node000006"><a xlink:href="class_field.html" target="_top" xlink:title="Class for handling data fields in messages.">
<polygon fill="white" stroke="#666666" points="232.5,-156.5 192.5,-156.5 192.5,-137.5 232.5,-137.5 232.5,-156.5"/>
<text text-anchor="middle" x="212.5" y="-144.5" font-family="Helvetica,sans-Serif" font-size="10.00">Field</text>
</a>
</g>
</g>
<!-- Node2&#45;&gt;Node6 -->
<g id="edge6_Node000006_Node000002" class="edge">
<title>Node2&#45;&gt;Node6</title>
<g id="a_edge6_Node000006_Node000002"><a xlink:title=" ">
<path fill="none" stroke="#63b8ff" d="M123.65,-203.63C146.05,-189.6 179.99,-168.35 198.78,-156.59"/>
<polygon fill="#63b8ff" stroke="#63b8ff" points="121.73,-200.7 115.11,-208.98 125.44,-206.64 121.73,-200.7"/>
</a>
</g>
</g>
<!-- Node3 -->
<g id="Node000003" class="node">
<title>Node3</title>
<g id="a_Node000003"><a xlink:title=" ">
<polygon fill="white" stroke="#666666" points="101,-294 0,-294 0,-275 101,-275 101,-294"/>
<text text-anchor="middle" x="50.5" y="-282" font-family="Helvetica,sans-Serif" font-size="10.00">const char *const</text>
</a>
</g>
</g>
<!-- Node3&#45;&gt;Node2 -->
<g id="edge2_Node000002_Node000003" class="edge">
<title>Node3&#45;&gt;Node2</title>
<g id="a_edge2_Node000002_Node000003"><a xlink:title=" ">
<path fill="none" stroke="#9a32cd" stroke-dasharray="5,2" d="M63.83,-266.77C73.62,-254.49 86.52,-238.3 94.4,-228.41"/>
<polygon fill="#9a32cd" stroke="#9a32cd" points="60.87,-264.87 57.38,-274.87 66.35,-269.23 60.87,-264.87"/>
</a>
</g>
<text text-anchor="middle" x="95" y="-249" font-family="Helvetica,sans-Serif" font-size="10.00" fill="grey"> name</text>
</g>
<!-- Node4 -->
<g id="Node000004" class="node">
<title>Node4</title>
<g id="a_Node000004"><a xlink:title=" ">
<polygon fill="white" stroke="#666666" points="186,-294 119,-294 119,-275 186,-275 186,-294"/>
<text text-anchor="middle" x="152.5" y="-282" font-family="Helvetica,sans-Serif" font-size="10.00">const char</text>
</a>
</g>
</g>
<!-- Node4&#45;&gt;Node2 -->
<g id="edge3_Node000002_Node000004" class="edge">
<title>Node4&#45;&gt;Node2</title>
<g id="a_edge3_Node000002_Node000004"><a xlink:title=" ">
<path fill="none" stroke="#9a32cd" stroke-dasharray="5,2" d="M139.17,-266.77C129.38,-254.49 116.48,-238.3 108.6,-228.41"/>
<polygon fill="#9a32cd" stroke="#9a32cd" points="136.65,-269.23 145.62,-274.87 142.13,-264.87 136.65,-269.23"/>
</a>
</g>
<text text-anchor="middle" x="149.5" y="-249" font-family="Helvetica,sans-Serif" font-size="10.00" fill="grey"> symbol</text>
</g>
<!-- Node5 -->
<g id="Node000005" class="node">
<title>Node5</title>
<g id="a_Node000005"><a xlink:href="class_lookup_manager.html" target="_top" xlink:title=" ">
<polygon fill="white" stroke="#666666" points="380.5,-85 240.5,-85 240.5,-66 380.5,-66 380.5,-85"/>
<text text-anchor="middle" x="310.5" y="-73" font-family="Helvetica,sans-Serif" font-size="10.00">LookupManager&lt; Field &gt;</text>
</a>
</g>
</g>
<!-- Node5&#45;&gt;Node1 -->
<g id="edge4_Node000001_Node000005" class="edge">
<title>Node5&#45;&gt;Node1</title>
<g id="a_edge4_Node000001_Node000005"><a xlink:title=" ">
<path fill="none" stroke="#9a32cd" stroke-dasharray="5,2" d="M275.63,-62.5C238.9,-49.86 181.97,-30.28 149.48,-19.1"/>
<polygon fill="#9a32cd" stroke="#9a32cd" points="274.82,-65.92 285.42,-65.87 277.1,-59.31 274.82,-65.92"/>
</a>
</g>
<text text-anchor="middle" x="243.5" y="-40" font-family="Helvetica,sans-Serif" font-size="10.00" fill="grey"> fields</text>
</g>
<!-- Node6&#45;&gt;Node5 -->
<g id="edge5_Node000005_Node000006" class="edge">
<title>Node6&#45;&gt;Node5</title>
<g id="a_edge5_Node000005_Node000006"><a xlink:title=" ">
<path fill="none" stroke="#9a32cd" stroke-dasharray="5,2" d="M232.85,-131.57C252.63,-117.54 282.02,-96.7 298.38,-85.09"/>
<polygon fill="#9a32cd" stroke="#9a32cd" points="230.65,-128.84 224.52,-137.48 234.7,-134.55 230.65,-128.84"/>
</a>
</g>
<text text-anchor="middle" x="285" y="-106" font-family="Helvetica,sans-Serif" font-size="10.00" fill="grey"> items</text>
</g>
<!-- Node7 -->
<g id="Node000007" class="node">
<title>Node7</title>
<g id="a_Node000007"><a xlink:href="classuint8__t.html" target="_top" xlink:title=" ">
<polygon fill="white" stroke="#666666" points="370.5,-228 320.5,-228 320.5,-209 370.5,-209 370.5,-228"/>
<text text-anchor="middle" x="345.5" y="-216" font-family="Helvetica,sans-Serif" font-size="10.00">uint8_t</text>
</a>
</g>
</g>
<!-- Node7&#45;&gt;Node5 -->
<g id="edge9_Node000005_Node000007" class="edge">
<title>Node7&#45;&gt;Node5</title>
<g id="a_edge9_Node000005_Node000007"><a xlink:title=" ">
<path fill="none" stroke="#9a32cd" stroke-dasharray="5,2" d="M340.86,-198.79C333.22,-168.02 318.29,-107.87 312.69,-85.32"/>
<polygon fill="#9a32cd" stroke="#9a32cd" points="337.5,-199.82 343.31,-208.68 344.3,-198.13 337.5,-199.82"/>
</a>
</g>
<text text-anchor="middle" x="346" y="-144.5" font-family="Helvetica,sans-Serif" font-size="10.00" fill="grey"> count</text>
</g>
<!-- Node7&#45;&gt;Node6 -->
<g id="edge7_Node000006_Node000007" class="edge">
<title>Node7&#45;&gt;Node6</title>
<g id="a_edge7_Node000006_Node000007"><a xlink:title=" ">
<path fill="none" stroke="#9a32cd" stroke-dasharray="5,2" d="M310.42,-211.94C292.47,-208 270.81,-201.49 253.5,-191 238.68,-182.02 225.65,-166.31 218.45,-156.57"/>
<polygon fill="#9a32cd" stroke="#9a32cd" points="309.74,-215.37 320.24,-213.92 311.13,-208.51 309.74,-215.37"/>
</a>
</g>
<text text-anchor="middle" x="292.5" y="-183" font-family="Helvetica,sans-Serif" font-size="10.00" fill="grey"> encodedLength</text>
</g>
<!-- Node9 -->
<g id="Node000009" class="node">
<title>Node9</title>
<g id="a_Node000009"><a xlink:href="class_lookup_manager.html" target="_top" xlink:title="Class for looking up and managing devices and fields.">
<polygon fill="white" stroke="#666666" points="556,-162 395,-162 395,-132 556,-132 556,-162"/>
<text text-anchor="start" x="403" y="-150" font-family="Helvetica,sans-Serif" font-size="10.00">LookupManager&lt; Lookupable</text>
<text text-anchor="middle" x="475.5" y="-139" font-family="Helvetica,sans-Serif" font-size="10.00">Class &gt;</text>
</a>
</g>
</g>
<!-- Node7&#45;&gt;Node9 -->
<g id="edge12_Node000009_Node000007" class="edge">
<title>Node7&#45;&gt;Node9</title>
<g id="a_edge12_Node000009_Node000007"><a xlink:title=" ">
<path fill="none" stroke="#9a32cd" stroke-dasharray="5,2" d="M370.39,-204.19C392.94,-192.14 426.04,-174.44 449.06,-162.14"/>
<polygon fill="#9a32cd" stroke="#9a32cd" points="368.61,-201.18 361.44,-208.98 371.91,-207.35 368.61,-201.18"/>
</a>
</g>
<text text-anchor="middle" x="429" y="-183" font-family="Helvetica,sans-Serif" font-size="10.00" fill="grey"> count</text>
</g>
<!-- Node8 -->
<g id="Node000008" class="node">
<title>Node8</title>
<g id="a_Node000008"><a xlink:title=" ">
<polygon fill="white" stroke="#666666" points="193.5,-228 155.5,-228 155.5,-209 193.5,-209 193.5,-228"/>
<text text-anchor="middle" x="174.5" y="-216" font-family="Helvetica,sans-Serif" font-size="10.00">bool</text>
</a>
</g>
</g>
<!-- Node8&#45;&gt;Node6 -->
<g id="edge8_Node000006_Node000008" class="edge">
<title>Node8&#45;&gt;Node6</title>
<g id="a_edge8_Node000006_Node000008"><a xlink:title=" ">
<path fill="none" stroke="#9a32cd" stroke-dasharray="5,2" d="M170.69,-198.54C170.3,-192.37 170.82,-185.67 173.5,-180 178.22,-170.02 187.74,-162.12 196.19,-156.66"/>
<polygon fill="#9a32cd" stroke="#9a32cd" points="167.26,-199.28 172.11,-208.7 174.19,-198.31 167.26,-199.28"/>
</a>
</g>
<text text-anchor="middle" x="202" y="-183" font-family="Helvetica,sans-Serif" font-size="10.00" fill="grey"> txRequired</text>
</g>
<!-- Node9&#45;&gt;Node5 -->
<g id="edge10_Node000005_Node000009" class="edge">
<title>Node9&#45;&gt;Node5</title>
<g id="a_edge10_Node000005_Node000009"><a xlink:title=" ">
<path fill="none" stroke="orange" stroke-dasharray="5,2" d="M432.75,-127.99C399.94,-114.17 356.12,-95.72 330.84,-85.07"/>
<polygon fill="orange" stroke="orange" points="431.54,-131.28 442.11,-131.94 434.25,-124.83 431.54,-131.28"/>
</a>
</g>
<text text-anchor="middle" x="422" y="-106" font-family="Helvetica,sans-Serif" font-size="10.00" fill="grey"> &lt; Field &gt;</text>
</g>
<!-- Node10 -->
<g id="Node000010" class="node">
<title>Node10</title>
<g id="a_Node000010"><a xlink:title=" ">
<polygon fill="white" stroke="#666666" points="531.5,-228 419.5,-228 419.5,-209 531.5,-209 531.5,-228"/>
<text text-anchor="middle" x="475.5" y="-216" font-family="Helvetica,sans-Serif" font-size="10.00">LookupableClass **</text>
</a>
</g>
</g>
<!-- Node10&#45;&gt;Node9 -->
<g id="edge11_Node000009_Node000010" class="edge">
<title>Node10&#45;&gt;Node9</title>
<g id="a_edge11_Node000009_Node000010"><a xlink:title=" ">
<path fill="none" stroke="#9a32cd" stroke-dasharray="5,2" d="M475.5,-198.71C475.5,-187.19 475.5,-172.68 475.5,-162.14"/>
<polygon fill="#9a32cd" stroke="#9a32cd" points="472,-198.98 475.5,-208.98 479,-198.98 472,-198.98"/>
</a>
</g>
<text text-anchor="middle" x="491" y="-183" font-family="Helvetica,sans-Serif" font-size="10.00" fill="grey"> items</text>
</g>
</g>
</svg>
