<?xml version="1.0" encoding="UTF-8" standalone="no"?>
<!DOCTYPE svg PUBLIC "-//W3C//DTD SVG 1.1//EN"
 "http://www.w3.org/Graphics/SVG/1.1/DTD/svg11.dtd">
<!-- Generated by graphviz version 2.43.0 (0)
 -->
<!-- Title: SettableFlagField Pages: 1 -->
<svg width="195pt" height="266pt"
 viewBox="0.00 0.00 195.00 266.00" xmlns="http://www.w3.org/2000/svg" xmlns:xlink="http://www.w3.org/1999/xlink">
<g id="graph0" class="graph" transform="scale(1 1) rotate(0) translate(4 262)">
<title>SettableFlagField</title>
<polygon fill="white" stroke="transparent" points="-4,4 -4,-262 191,-262 191,4 -4,4"/>
<!-- Node1 -->
<g id="node1" class="node">
<title>Node1</title>
<g id="a_node1"><a xlink:title="Class for flags that can be set via an RPC call.">
<polygon fill="#bfbfbf" stroke="black" points="15,-0.5 15,-19.5 116,-19.5 116,-0.5 15,-0.5"/>
<text text-anchor="middle" x="65.5" y="-7.5" font-family="Helvetica,sans-Serif" font-size="10.00">SettableFlagField</text>
</a>
</g>
</g>
<!-- Node2 -->
<g id="node2" class="node">
<title>Node2</title>
<g id="a_node2"><a xlink:href="class_settable_field.html" target="_top" xlink:title=" ">
<polygon fill="white" stroke="black" points="0,-57.5 0,-76.5 131,-76.5 131,-57.5 0,-57.5"/>
<text text-anchor="middle" x="65.5" y="-64.5" font-family="Helvetica,sans-Serif" font-size="10.00">SettableField&lt; int8_t &gt;</text>
</a>
</g>
</g>
<!-- Node2&#45;&gt;Node1 -->
<g id="edge1" class="edge">
<title>Node2&#45;&gt;Node1</title>
<path fill="none" stroke="midnightblue" d="M65.5,-47.12C65.5,-37.82 65.5,-27.06 65.5,-19.71"/>
<polygon fill="midnightblue" stroke="midnightblue" points="62,-47.41 65.5,-57.41 69,-47.41 62,-47.41"/>
</g>
<!-- Node3 -->
<g id="node3" class="node">
<title>Node3</title>
<g id="a_node3"><a xlink:href="class_field.html" target="_top" xlink:title="Class for handling data fields in messages.">
<polygon fill="white" stroke="black" points="41.5,-181.5 41.5,-200.5 81.5,-200.5 81.5,-181.5 41.5,-181.5"/>
<text text-anchor="middle" x="61.5" y="-188.5" font-family="Helvetica,sans-Serif" font-size="10.00">Field</text>
</a>
</g>
</g>
<!-- Node3&#45;&gt;Node2 -->
<g id="edge2" class="edge">
<title>Node3&#45;&gt;Node2</title>
<path fill="none" stroke="midnightblue" d="M62.12,-171.19C63,-144.4 64.57,-96.31 65.21,-76.69"/>
<polygon fill="midnightblue" stroke="midnightblue" points="58.62,-171.12 61.79,-181.23 65.61,-171.35 58.62,-171.12"/>
</g>
<!-- Node5 -->
<g id="node5" class="node">
<title>Node5</title>
<g id="a_node5"><a xlink:href="class_settable_field.html" target="_top" xlink:title="Class for fields that can be set.">
<polygon fill="white" stroke="black" points="78,-124.5 78,-143.5 187,-143.5 187,-124.5 78,-124.5"/>
<text text-anchor="middle" x="132.5" y="-131.5" font-family="Helvetica,sans-Serif" font-size="10.00">SettableField&lt; T &gt;</text>
</a>
</g>
</g>
<!-- Node3&#45;&gt;Node5 -->
<g id="edge5" class="edge">
<title>Node3&#45;&gt;Node5</title>
<path fill="none" stroke="midnightblue" d="M80.87,-175C93.82,-164.96 110.42,-152.1 121.25,-143.71"/>
<polygon fill="midnightblue" stroke="midnightblue" points="78.36,-172.52 72.59,-181.41 82.64,-178.05 78.36,-172.52"/>
</g>
<!-- Node4 -->
<g id="node4" class="node">
<title>Node4</title>
<g id="a_node4"><a xlink:href="class_lookupable.html" target="_top" xlink:title="Class for fields and devices that can be managed by LookupManager.">
<polygon fill="white" stroke="black" points="25.5,-238.5 25.5,-257.5 97.5,-257.5 97.5,-238.5 25.5,-238.5"/>
<text text-anchor="middle" x="61.5" y="-245.5" font-family="Helvetica,sans-Serif" font-size="10.00">Lookupable</text>
</a>
</g>
</g>
<!-- Node4&#45;&gt;Node3 -->
<g id="edge3" class="edge">
<title>Node4&#45;&gt;Node3</title>
<path fill="none" stroke="midnightblue" d="M61.5,-228.12C61.5,-218.82 61.5,-208.06 61.5,-200.71"/>
<polygon fill="midnightblue" stroke="midnightblue" points="58,-228.41 61.5,-238.41 65,-228.41 58,-228.41"/>
</g>
<!-- Node5&#45;&gt;Node2 -->
<g id="edge4" class="edge">
<title>Node5&#45;&gt;Node2</title>
<path fill="none" stroke="orange" stroke-dasharray="5,2" d="M116,-117C102.86,-104.25 84.98,-86.89 74.39,-76.63"/>
<polygon fill="orange" stroke="orange" points="113.85,-119.78 123.46,-124.23 118.72,-114.76 113.85,-119.78"/>
<text text-anchor="middle" x="129.5" y="-98" font-family="Helvetica,sans-Serif" font-size="10.00"> &lt; int8_t &gt;</text>
</g>
</g>
</svg>
