<?xml version="1.0" encoding="UTF-8" standalone="no"?>
<!DOCTYPE svg PUBLIC "-//W3C//DTD SVG 1.1//EN"
 "http://www.w3.org/Graphics/SVG/1.1/DTD/svg11.dtd">
<!-- Generated by graphviz version 2.43.0 (0)
 -->
<!-- Title: Led::set Pages: 1 -->
<svg width="335pt" height="46pt"
 viewBox="0.00 0.00 335.00 46.00" xmlns="http://www.w3.org/2000/svg" xmlns:xlink="http://www.w3.org/1999/xlink">
<g id="graph0" class="graph" transform="scale(1 1) rotate(0) translate(4 42)">
<title>Led::set</title>
<!-- Node1 -->
<g id="Node000001" class="node">
<title>Node1</title>
<g id="a_Node000001"><a xlink:title="Turns the LED on or off.">
<polygon fill="#999999" stroke="#666666" points="327,-19 272,-19 272,0 327,0 327,-19"/>
<text text-anchor="middle" x="299.5" y="-7" font-family="Helvetica,sans-Serif" font-size="10.00">Led::set</text>
</a>
</g>
</g>
<!-- Node2 -->
<g id="Node000002" class="node">
<title>Node2</title>
<g id="a_Node000002"><a xlink:href="class_led.html#aca41751e53023a56a30b541a1c23edfe" target="_top" xlink:title="Initialises the pins.">
<polygon fill="white" stroke="#666666" points="236,-38 169,-38 169,-19 236,-19 236,-38"/>
<text text-anchor="middle" x="202.5" y="-26" font-family="Helvetica,sans-Serif" font-size="10.00">Led::begin</text>
</a>
</g>
</g>
<!-- Node1&#45;&gt;Node2 -->
<g id="edge1_Node000001_Node000002" class="edge">
<title>Node1&#45;&gt;Node2</title>
<g id="a_edge1_Node000001_Node000002"><a xlink:title=" ">
<path fill="none" stroke="#63b8ff" d="M261.78,-16.84C253.31,-18.54 244.37,-20.33 236.09,-21.98"/>
<polygon fill="#63b8ff" stroke="#63b8ff" points="262.67,-20.24 271.78,-14.84 261.29,-13.37 262.67,-20.24"/>
</a>
</g>
</g>
<!-- Node3 -->
<g id="Node000003" class="node">
<title>Node3</title>
<g id="a_Node000003"><a xlink:href="leds_8cpp.html#a0e9abc4adafb917c6af448aca6042e96" target="_top" xlink:title="Task that manages the LEDs on the unit.">
<polygon fill="white" stroke="#666666" points="133,-19 80,-19 80,0 133,0 133,-19"/>
<text text-anchor="middle" x="106.5" y="-7" font-family="Helvetica,sans-Serif" font-size="10.00">ledTask</text>
</a>
</g>
</g>
<!-- Node1&#45;&gt;Node3 -->
<g id="edge4_Node000001_Node000003" class="edge">
<title>Node1&#45;&gt;Node3</title>
<g id="a_edge4_Node000001_Node000003"><a xlink:title=" ">
<path fill="none" stroke="#63b8ff" d="M261.87,-9.5C224.16,-9.5 166.36,-9.5 133.22,-9.5"/>
<polygon fill="#63b8ff" stroke="#63b8ff" points="261.94,-13 271.94,-9.5 261.94,-6 261.94,-13"/>
</a>
</g>
</g>
<!-- Node2&#45;&gt;Node3 -->
<g id="edge2_Node000002_Node000003" class="edge">
<title>Node2&#45;&gt;Node3</title>
<g id="a_edge2_Node000002_Node000003"><a xlink:title=" ">
<path fill="none" stroke="#63b8ff" d="M158.81,-19.87C150.08,-18.11 141.15,-16.3 133.24,-14.7"/>
<polygon fill="#63b8ff" stroke="#63b8ff" points="158.39,-23.36 168.89,-21.91 159.78,-16.5 158.39,-23.36"/>
</a>
</g>
</g>
<!-- Node4 -->
<g id="Node000004" class="node">
<title>Node4</title>
<g id="a_Node000004"><a xlink:href="main_8cpp.html#a4fc01d736fe50cf5b977f755b675f11d" target="_top" xlink:title=" ">
<polygon fill="white" stroke="#666666" points="44,-19 0,-19 0,0 44,0 44,-19"/>
<text text-anchor="middle" x="22" y="-7" font-family="Helvetica,sans-Serif" font-size="10.00">setup</text>
</a>
</g>
</g>
<!-- Node3&#45;&gt;Node4 -->
<g id="edge3_Node000003_Node000004" class="edge">
<title>Node3&#45;&gt;Node4</title>
<g id="a_edge3_Node000003_Node000004"><a xlink:title=" ">
<path fill="none" stroke="#63b8ff" d="M69.84,-9.5C61.1,-9.5 52.02,-9.5 44.2,-9.5"/>
<polygon fill="#63b8ff" stroke="#63b8ff" points="69.85,-13 79.85,-9.5 69.85,-6 69.85,-13"/>
</a>
</g>
</g>
</g>
</svg>
