<?xml version="1.0" encoding="UTF-8" standalone="no"?>
<!DOCTYPE svg PUBLIC "-//W3C//DTD SVG 1.1//EN"
 "http://www.w3.org/Graphics/SVG/1.1/DTD/svg11.dtd">
<!-- Generated by graphviz version 2.43.0 (0)
 -->
<!-- Title: Field Pages: 1 -->
<svg width="349pt" height="162pt"
 viewBox="0.00 0.00 348.50 162.00" xmlns="http://www.w3.org/2000/svg" xmlns:xlink="http://www.w3.org/1999/xlink">
<g id="graph0" class="graph" transform="scale(1 1) rotate(0) translate(4 158)">
<title>Field</title>
<polygon fill="white" stroke="transparent" points="-4,4 -4,-158 344.5,-158 344.5,4 -4,4"/>
<!-- Node1 -->
<g id="node1" class="node">
<title>Node1</title>
<g id="a_node1"><a xlink:title="Class for handling data fields in messages.">
<polygon fill="#bfbfbf" stroke="black" points="175.5,-0.5 175.5,-19.5 215.5,-19.5 215.5,-0.5 175.5,-0.5"/>
<text text-anchor="middle" x="195.5" y="-7.5" font-family="Helvetica,sans-Serif" font-size="10.00">Field</text>
</a>
</g>
</g>
<!-- Node2 -->
<g id="node2" class="node">
<title>Node2</title>
<g id="a_node2"><a xlink:href="class_lookupable.html" target="_top" xlink:title="Class for fields and devices that can be managed by LookupManager.">
<polygon fill="white" stroke="black" points="65.5,-67.5 65.5,-86.5 137.5,-86.5 137.5,-67.5 65.5,-67.5"/>
<text text-anchor="middle" x="101.5" y="-74.5" font-family="Helvetica,sans-Serif" font-size="10.00">Lookupable</text>
</a>
</g>
</g>
<!-- Node2&#45;&gt;Node1 -->
<g id="edge1" class="edge">
<title>Node2&#45;&gt;Node1</title>
<path fill="none" stroke="midnightblue" d="M122.59,-61.42C141.17,-48.57 167.62,-30.28 183.02,-19.63"/>
<polygon fill="midnightblue" stroke="midnightblue" points="120.41,-58.67 114.18,-67.23 124.39,-64.43 120.41,-58.67"/>
</g>
<!-- Node3 -->
<g id="node3" class="node">
<title>Node3</title>
<g id="a_node3"><a xlink:title=" ">
<polygon fill="white" stroke="#bfbfbf" points="0,-134.5 0,-153.5 101,-153.5 101,-134.5 0,-134.5"/>
<text text-anchor="middle" x="50.5" y="-141.5" font-family="Helvetica,sans-Serif" font-size="10.00">const char *const</text>
</a>
</g>
</g>
<!-- Node3&#45;&gt;Node2 -->
<g id="edge2" class="edge">
<title>Node3&#45;&gt;Node2</title>
<path fill="none" stroke="#9a32cd" stroke-dasharray="5,2" d="M63.63,-126.27C73.57,-113.6 86.83,-96.7 94.73,-86.63"/>
<polygon fill="#9a32cd" stroke="#9a32cd" points="60.8,-124.21 57.38,-134.23 66.3,-128.53 60.8,-124.21"/>
<text text-anchor="middle" x="95" y="-108" font-family="Helvetica,sans-Serif" font-size="10.00"> name</text>
</g>
<!-- Node4 -->
<g id="node4" class="node">
<title>Node4</title>
<g id="a_node4"><a xlink:title=" ">
<polygon fill="white" stroke="#bfbfbf" points="119,-134.5 119,-153.5 186,-153.5 186,-134.5 119,-134.5"/>
<text text-anchor="middle" x="152.5" y="-141.5" font-family="Helvetica,sans-Serif" font-size="10.00">const char</text>
</a>
</g>
</g>
<!-- Node4&#45;&gt;Node2 -->
<g id="edge3" class="edge">
<title>Node4&#45;&gt;Node2</title>
<path fill="none" stroke="#9a32cd" stroke-dasharray="5,2" d="M139.37,-126.27C129.43,-113.6 116.17,-96.7 108.27,-86.63"/>
<polygon fill="#9a32cd" stroke="#9a32cd" points="136.7,-128.53 145.62,-134.23 142.2,-124.21 136.7,-128.53"/>
<text text-anchor="middle" x="150.5" y="-108" font-family="Helvetica,sans-Serif" font-size="10.00"> symbol</text>
</g>
<!-- Node5 -->
<g id="node5" class="node">
<title>Node5</title>
<g id="a_node5"><a xlink:title=" ">
<polygon fill="white" stroke="#bfbfbf" points="155.5,-67.5 155.5,-86.5 235.5,-86.5 235.5,-67.5 155.5,-67.5"/>
<text text-anchor="middle" x="195.5" y="-74.5" font-family="Helvetica,sans-Serif" font-size="10.00">const uint8_t</text>
</a>
</g>
</g>
<!-- Node5&#45;&gt;Node1 -->
<g id="edge4" class="edge">
<title>Node5&#45;&gt;Node1</title>
<path fill="none" stroke="#9a32cd" stroke-dasharray="5,2" d="M195.5,-57.04C195.5,-44.67 195.5,-29.12 195.5,-19.63"/>
<polygon fill="#9a32cd" stroke="#9a32cd" points="192,-57.23 195.5,-67.23 199,-57.23 192,-57.23"/>
<text text-anchor="middle" x="234.5" y="-41" font-family="Helvetica,sans-Serif" font-size="10.00"> encodedLength</text>
</g>
<!-- Node6 -->
<g id="node6" class="node">
<title>Node6</title>
<g id="a_node6"><a xlink:title=" ">
<polygon fill="white" stroke="#bfbfbf" points="277.5,-67.5 277.5,-86.5 315.5,-86.5 315.5,-67.5 277.5,-67.5"/>
<text text-anchor="middle" x="296.5" y="-74.5" font-family="Helvetica,sans-Serif" font-size="10.00">bool</text>
</a>
</g>
</g>
<!-- Node6&#45;&gt;Node1 -->
<g id="edge5" class="edge">
<title>Node6&#45;&gt;Node1</title>
<path fill="none" stroke="#9a32cd" stroke-dasharray="5,2" d="M289.27,-57.73C285.73,-50.74 280.83,-43.2 274.5,-38 257.48,-24.02 232.82,-17.12 215.59,-13.82"/>
<polygon fill="#9a32cd" stroke="#9a32cd" points="286.25,-59.53 293.52,-67.24 292.64,-56.68 286.25,-59.53"/>
<text text-anchor="middle" x="312" y="-41" font-family="Helvetica,sans-Serif" font-size="10.00"> txRequired</text>
</g>
</g>
</svg>
