<?xml version="1.0" encoding="UTF-8" standalone="no"?>
<!DOCTYPE svg PUBLIC "-//W3C//DTD SVG 1.1//EN"
 "http://www.w3.org/Graphics/SVG/1.1/DTD/svg11.dtd">
<!-- Generated by graphviz version 2.43.0 (0)
 -->
<!-- Title: Lookupable Pages: 1 -->
<svg width="674pt" height="284pt"
 viewBox="0.00 0.00 674.00 283.94" xmlns="http://www.w3.org/2000/svg" xmlns:xlink="http://www.w3.org/1999/xlink">
<g id="graph0" class="graph" transform="scale(1 1) rotate(0) translate(4 279.94)">
<title>Lookupable</title>
<polygon fill="white" stroke="transparent" points="-4,4 -4,-279.94 670,-279.94 670,4 -4,4"/>
<!-- Node1 -->
<g id="node1" class="node">
<title>Node1</title>
<g id="a_node1"><a xlink:title="Class for fields and devices that can be managed by LookupManager.">
<polygon fill="#bfbfbf" stroke="black" points="0,-152.5 0,-171.5 72,-171.5 72,-152.5 0,-152.5"/>
<text text-anchor="middle" x="36" y="-159.5" font-family="Helvetica,sans-Serif" font-size="10.00">Lookupable</text>
</a>
</g>
</g>
<!-- Node2 -->
<g id="node2" class="node">
<title>Node2</title>
<g id="a_node2"><a xlink:href="class_device.html" target="_top" xlink:title="Each sensor / device on the PJON network.">
<polygon fill="white" stroke="black" points="109,-171.5 109,-190.5 159,-190.5 159,-171.5 109,-171.5"/>
<text text-anchor="middle" x="134" y="-178.5" font-family="Helvetica,sans-Serif" font-size="10.00">Device</text>
</a>
</g>
</g>
<!-- Node1&#45;&gt;Node2 -->
<g id="edge1" class="edge">
<title>Node1&#45;&gt;Node2</title>
<path fill="none" stroke="midnightblue" d="M82.11,-170.93C91.35,-172.76 100.74,-174.62 108.9,-176.23"/>
<polygon fill="midnightblue" stroke="midnightblue" points="82.69,-167.48 72.2,-168.97 81.33,-174.34 82.69,-167.48"/>
</g>
<!-- Node3 -->
<g id="node3" class="node">
<title>Node3</title>
<g id="a_node3"><a xlink:href="class_field.html" target="_top" xlink:title="Class for handling data fields in messages.">
<polygon fill="white" stroke="black" points="114,-133.5 114,-152.5 154,-152.5 154,-133.5 114,-133.5"/>
<text text-anchor="middle" x="134" y="-140.5" font-family="Helvetica,sans-Serif" font-size="10.00">Field</text>
</a>
</g>
</g>
<!-- Node1&#45;&gt;Node3 -->
<g id="edge2" class="edge">
<title>Node1&#45;&gt;Node3</title>
<path fill="none" stroke="midnightblue" d="M82.33,-153.03C93.49,-150.82 104.84,-148.57 113.97,-146.77"/>
<polygon fill="midnightblue" stroke="midnightblue" points="81.33,-149.66 72.2,-155.03 82.69,-156.52 81.33,-149.66"/>
</g>
<!-- Node4 -->
<g id="node4" class="node">
<title>Node4</title>
<g id="a_node4"><a xlink:href="class_settable_field.html" target="_top" xlink:title=" ">
<polygon fill="white" stroke="black" points="395,-171.5 395,-190.5 526,-190.5 526,-171.5 395,-171.5"/>
<text text-anchor="middle" x="460.5" y="-178.5" font-family="Helvetica,sans-Serif" font-size="10.00">SettableField&lt; int8_t &gt;</text>
</a>
</g>
</g>
<!-- Node3&#45;&gt;Node4 -->
<g id="edge3" class="edge">
<title>Node3&#45;&gt;Node4</title>
<path fill="none" stroke="midnightblue" d="M157.24,-159.8C157.86,-160.52 158.45,-161.25 159,-162 185.92,-198.44 158.6,-231.43 196,-257 280.5,-314.77 408.92,-221.9 447.89,-190.67"/>
<polygon fill="midnightblue" stroke="midnightblue" points="159.5,-157.12 149.85,-152.74 154.67,-162.18 159.5,-157.12"/>
</g>
<!-- Node7 -->
<g id="node7" class="node">
<title>Node7</title>
<g id="a_node7"><a xlink:href="class_byte_field.html" target="_top" xlink:title="Fields that contain an unsigned, single byte integer.">
<polygon fill="white" stroke="black" points="219.5,-228.5 219.5,-247.5 281.5,-247.5 281.5,-228.5 219.5,-228.5"/>
<text text-anchor="middle" x="250.5" y="-235.5" font-family="Helvetica,sans-Serif" font-size="10.00">ByteField</text>
</a>
</g>
</g>
<!-- Node3&#45;&gt;Node7 -->
<g id="edge6" class="edge">
<title>Node3&#45;&gt;Node7</title>
<path fill="none" stroke="midnightblue" d="M156.64,-159.55C157.46,-160.36 158.25,-161.17 159,-162 179.33,-184.34 172.29,-200.29 196,-219 202.81,-224.37 211.26,-228.3 219.42,-231.13"/>
<polygon fill="midnightblue" stroke="midnightblue" points="158.7,-156.7 148.87,-152.73 154.08,-161.96 158.7,-156.7"/>
</g>
<!-- Node8 -->
<g id="node8" class="node">
<title>Node8</title>
<g id="a_node8"><a xlink:href="class_flag_field.html" target="_top" xlink:title="Fields that don&#39;t have any value or payload.">
<polygon fill="white" stroke="black" points="220,-190.5 220,-209.5 281,-209.5 281,-190.5 220,-190.5"/>
<text text-anchor="middle" x="250.5" y="-197.5" font-family="Helvetica,sans-Serif" font-size="10.00">FlagField</text>
</a>
</g>
</g>
<!-- Node3&#45;&gt;Node8 -->
<g id="edge7" class="edge">
<title>Node3&#45;&gt;Node8</title>
<path fill="none" stroke="midnightblue" d="M156.95,-158.29C168.28,-165.75 182.52,-174.5 196,-181 203.55,-184.64 211.98,-187.95 219.88,-190.76"/>
<polygon fill="midnightblue" stroke="midnightblue" points="158.81,-155.32 148.56,-152.64 154.91,-161.13 158.81,-155.32"/>
</g>
<!-- Node9 -->
<g id="node9" class="node">
<title>Node9</title>
<g id="a_node9"><a xlink:href="class_long_u_int_field.html" target="_top" xlink:title="Fields that contain an unsigned, 4 byte integer.">
<polygon fill="white" stroke="black" points="209,-152.5 209,-171.5 292,-171.5 292,-152.5 209,-152.5"/>
<text text-anchor="middle" x="250.5" y="-159.5" font-family="Helvetica,sans-Serif" font-size="10.00">LongUIntField</text>
</a>
</g>
</g>
<!-- Node3&#45;&gt;Node9 -->
<g id="edge8" class="edge">
<title>Node3&#45;&gt;Node9</title>
<path fill="none" stroke="midnightblue" d="M164.35,-147.87C177.89,-150.12 194.18,-152.82 208.88,-155.26"/>
<polygon fill="midnightblue" stroke="midnightblue" points="164.6,-144.36 154.16,-146.18 163.46,-151.27 164.6,-144.36"/>
</g>
<!-- Node10 -->
<g id="node10" class="node">
<title>Node10</title>
<g id="a_node10"><a xlink:href="class_pump_on_time_field.html" target="_top" xlink:title="Fields for pump on times (2 bytes in 0.5s increments)">
<polygon fill="white" stroke="black" points="197.5,-114.5 197.5,-133.5 303.5,-133.5 303.5,-114.5 197.5,-114.5"/>
<text text-anchor="middle" x="250.5" y="-121.5" font-family="Helvetica,sans-Serif" font-size="10.00">PumpOnTimeField</text>
</a>
</g>
</g>
<!-- Node3&#45;&gt;Node10 -->
<g id="edge9" class="edge">
<title>Node3&#45;&gt;Node10</title>
<path fill="none" stroke="midnightblue" d="M164.04,-138.18C174.13,-136.51 185.78,-134.57 197.17,-132.68"/>
<polygon fill="midnightblue" stroke="midnightblue" points="163.46,-134.73 154.16,-139.82 164.6,-141.64 163.46,-134.73"/>
</g>
<!-- Node11 -->
<g id="node11" class="node">
<title>Node11</title>
<g id="a_node11"><a xlink:href="class_settable_field.html" target="_top" xlink:title="Class for fields that can be set.">
<polygon fill="white" stroke="black" points="196,-76.5 196,-95.5 305,-95.5 305,-76.5 196,-76.5"/>
<text text-anchor="middle" x="250.5" y="-83.5" font-family="Helvetica,sans-Serif" font-size="10.00">SettableField&lt; T &gt;</text>
</a>
</g>
</g>
<!-- Node3&#45;&gt;Node11 -->
<g id="edge10" class="edge">
<title>Node3&#45;&gt;Node11</title>
<path fill="none" stroke="midnightblue" d="M156.95,-127.71C168.28,-120.25 182.52,-111.5 196,-105 203.28,-101.49 211.39,-98.28 219.04,-95.54"/>
<polygon fill="midnightblue" stroke="midnightblue" points="154.91,-124.87 148.56,-133.36 158.81,-130.68 154.91,-124.87"/>
</g>
<!-- Node12 -->
<g id="node12" class="node">
<title>Node12</title>
<g id="a_node12"><a xlink:href="class_tenths_field.html" target="_top" xlink:title="Field for decoding 2 byte signed data in tenths.">
<polygon fill="white" stroke="black" points="215,-38.5 215,-57.5 286,-57.5 286,-38.5 215,-38.5"/>
<text text-anchor="middle" x="250.5" y="-45.5" font-family="Helvetica,sans-Serif" font-size="10.00">TenthsField</text>
</a>
</g>
</g>
<!-- Node3&#45;&gt;Node12 -->
<g id="edge12" class="edge">
<title>Node3&#45;&gt;Node12</title>
<path fill="none" stroke="midnightblue" d="M145.74,-124.37C156.47,-107.27 174.44,-82.32 196,-67 201.7,-62.95 208.36,-59.68 215,-57.07"/>
<polygon fill="midnightblue" stroke="midnightblue" points="142.46,-123.04 140.29,-133.41 148.45,-126.65 142.46,-123.04"/>
</g>
<!-- Node13 -->
<g id="node13" class="node">
<title>Node13</title>
<g id="a_node13"><a xlink:href="class_u_int_field.html" target="_top" xlink:title="Fields that contain an unsigned, 2 byte integer.">
<polygon fill="white" stroke="black" points="220.5,-0.5 220.5,-19.5 280.5,-19.5 280.5,-0.5 220.5,-0.5"/>
<text text-anchor="middle" x="250.5" y="-7.5" font-family="Helvetica,sans-Serif" font-size="10.00">UIntField</text>
</a>
</g>
</g>
<!-- Node3&#45;&gt;Node13 -->
<g id="edge13" class="edge">
<title>Node3&#45;&gt;Node13</title>
<path fill="none" stroke="midnightblue" d="M140.62,-123.34C148.81,-98.09 166.35,-54.5 196,-29 202.87,-23.09 211.72,-18.97 220.23,-16.12"/>
<polygon fill="midnightblue" stroke="midnightblue" points="137.18,-122.64 137.59,-133.22 143.87,-124.69 137.18,-122.64"/>
</g>
<!-- Node5 -->
<g id="node5" class="node">
<title>Node5</title>
<g id="a_node5"><a xlink:href="class_settable_byte_field.html" target="_top" xlink:title="Fields that contain an unsigned, single byte integer that can be set using an RPC call.">
<polygon fill="white" stroke="black" points="563,-190.5 563,-209.5 666,-209.5 666,-190.5 563,-190.5"/>
<text text-anchor="middle" x="614.5" y="-197.5" font-family="Helvetica,sans-Serif" font-size="10.00">SettableByteField</text>
</a>
</g>
</g>
<!-- Node4&#45;&gt;Node5 -->
<g id="edge4" class="edge">
<title>Node4&#45;&gt;Node5</title>
<path fill="none" stroke="midnightblue" d="M536.39,-190.36C545.27,-191.47 554.17,-192.58 562.6,-193.64"/>
<polygon fill="midnightblue" stroke="midnightblue" points="536.76,-186.88 526.4,-189.11 535.89,-193.83 536.76,-186.88"/>
</g>
<!-- Node6 -->
<g id="node6" class="node">
<title>Node6</title>
<g id="a_node6"><a xlink:href="class_settable_flag_field.html" target="_top" xlink:title="Class for flags that can be set via an RPC call.">
<polygon fill="white" stroke="black" points="564,-152.5 564,-171.5 665,-171.5 665,-152.5 564,-152.5"/>
<text text-anchor="middle" x="614.5" y="-159.5" font-family="Helvetica,sans-Serif" font-size="10.00">SettableFlagField</text>
</a>
</g>
</g>
<!-- Node4&#45;&gt;Node6 -->
<g id="edge5" class="edge">
<title>Node4&#45;&gt;Node6</title>
<path fill="none" stroke="midnightblue" d="M536.49,-171.63C545.83,-170.46 555.18,-169.29 563.99,-168.19"/>
<polygon fill="midnightblue" stroke="midnightblue" points="535.89,-168.17 526.4,-172.89 536.76,-175.12 535.89,-168.17"/>
</g>
<!-- Node11&#45;&gt;Node4 -->
<g id="edge11" class="edge">
<title>Node11&#45;&gt;Node4</title>
<path fill="none" stroke="orange" stroke-dasharray="5,2" d="M289.99,-99.06C295.07,-100.96 300.19,-102.97 305,-105 355.68,-126.38 413.32,-156.29 441.74,-171.42"/>
<polygon fill="orange" stroke="orange" points="290.93,-95.68 280.33,-95.55 288.53,-102.26 290.93,-95.68"/>
<text text-anchor="middle" x="350" y="-139" font-family="Helvetica,sans-Serif" font-size="10.00"> &lt; int8_t &gt;</text>
</g>
</g>
</svg>
