<?xml version="1.0" encoding="UTF-8" standalone="no"?>
<!DOCTYPE svg PUBLIC "-//W3C//DTD SVG 1.1//EN"
 "http://www.w3.org/Graphics/SVG/1.1/DTD/svg11.dtd">
<!-- Generated by graphviz version 2.43.0 (0)
 -->
<!-- Title: Lookupable Pages: 1 -->
<svg width="674pt" height="323pt"
 viewBox="0.00 0.00 674.00 322.54" xmlns="http://www.w3.org/2000/svg" xmlns:xlink="http://www.w3.org/1999/xlink">
<g id="graph0" class="graph" transform="scale(1 1) rotate(0) translate(4 318.54)">
<title>Lookupable</title>
<polygon fill="white" stroke="transparent" points="-4,4 -4,-318.54 670,-318.54 670,4 -4,4"/>
<!-- Node1 -->
<g id="node1" class="node">
<title>Node1</title>
<g id="a_node1"><a xlink:title="Class for fields and devices that can be managed by LookupManager.">
<polygon fill="#bfbfbf" stroke="black" points="0,-171.5 0,-190.5 72,-190.5 72,-171.5 0,-171.5"/>
<text text-anchor="middle" x="36" y="-178.5" font-family="Helvetica,sans-Serif" font-size="10.00">Lookupable</text>
</a>
</g>
</g>
<!-- Node2 -->
<g id="node2" class="node">
<title>Node2</title>
<g id="a_node2"><a xlink:href="class_device.html" target="_top" xlink:title="Each sensor / device on the PJON network.">
<polygon fill="white" stroke="black" points="109,-190.5 109,-209.5 159,-209.5 159,-190.5 109,-190.5"/>
<text text-anchor="middle" x="134" y="-197.5" font-family="Helvetica,sans-Serif" font-size="10.00">Device</text>
</a>
</g>
</g>
<!-- Node1&#45;&gt;Node2 -->
<g id="edge1" class="edge">
<title>Node1&#45;&gt;Node2</title>
<path fill="none" stroke="midnightblue" d="M82.11,-189.93C91.35,-191.76 100.74,-193.62 108.9,-195.23"/>
<polygon fill="midnightblue" stroke="midnightblue" points="82.69,-186.48 72.2,-187.97 81.33,-193.34 82.69,-186.48"/>
</g>
<!-- Node3 -->
<g id="node3" class="node">
<title>Node3</title>
<g id="a_node3"><a xlink:href="class_field.html" target="_top" xlink:title="Class for handling data fields in messages.">
<polygon fill="white" stroke="black" points="114,-152.5 114,-171.5 154,-171.5 154,-152.5 114,-152.5"/>
<text text-anchor="middle" x="134" y="-159.5" font-family="Helvetica,sans-Serif" font-size="10.00">Field</text>
</a>
</g>
</g>
<!-- Node1&#45;&gt;Node3 -->
<g id="edge2" class="edge">
<title>Node1&#45;&gt;Node3</title>
<path fill="none" stroke="midnightblue" d="M82.33,-172.03C93.49,-169.82 104.84,-167.57 113.97,-165.77"/>
<polygon fill="midnightblue" stroke="midnightblue" points="81.33,-168.66 72.2,-174.03 82.69,-175.52 81.33,-168.66"/>
</g>
<!-- Node4 -->
<g id="node4" class="node">
<title>Node4</title>
<g id="a_node4"><a xlink:href="class_settable_field.html" target="_top" xlink:title=" ">
<polygon fill="white" stroke="black" points="395,-209.5 395,-228.5 526,-228.5 526,-209.5 395,-209.5"/>
<text text-anchor="middle" x="460.5" y="-216.5" font-family="Helvetica,sans-Serif" font-size="10.00">SettableField&lt; int8_t &gt;</text>
</a>
</g>
</g>
<!-- Node3&#45;&gt;Node4 -->
<g id="edge3" class="edge">
<title>Node3&#45;&gt;Node4</title>
<path fill="none" stroke="midnightblue" d="M157.32,-178.74C157.91,-179.48 158.48,-180.23 159,-181 188.92,-225.08 152.53,-264.21 196,-295 279.73,-354.3 409.21,-259.91 448.09,-228.56"/>
<polygon fill="midnightblue" stroke="midnightblue" points="159.64,-176.11 150.05,-171.61 154.73,-181.11 159.64,-176.11"/>
</g>
<!-- Node7 -->
<g id="node7" class="node">
<title>Node7</title>
<g id="a_node7"><a xlink:href="class_byte_field.html" target="_top" xlink:title="Fields that contain an unsigned, single byte integer.">
<polygon fill="white" stroke="black" points="219.5,-266.5 219.5,-285.5 281.5,-285.5 281.5,-266.5 219.5,-266.5"/>
<text text-anchor="middle" x="250.5" y="-273.5" font-family="Helvetica,sans-Serif" font-size="10.00">ByteField</text>
</a>
</g>
</g>
<!-- Node3&#45;&gt;Node7 -->
<g id="edge6" class="edge">
<title>Node3&#45;&gt;Node7</title>
<path fill="none" stroke="midnightblue" d="M157.16,-178.86C157.8,-179.56 158.42,-180.28 159,-181 182.54,-210.28 167.99,-231.96 196,-257 202.54,-262.85 211,-266.92 219.25,-269.76"/>
<polygon fill="midnightblue" stroke="midnightblue" points="159.37,-176.13 149.66,-171.89 154.61,-181.26 159.37,-176.13"/>
</g>
<!-- Node8 -->
<g id="node8" class="node">
<title>Node8</title>
<g id="a_node8"><a xlink:href="class_flag_field.html" target="_top" xlink:title="Fields that don&#39;t have any value or payload.">
<polygon fill="white" stroke="black" points="220,-228.5 220,-247.5 281,-247.5 281,-228.5 220,-228.5"/>
<text text-anchor="middle" x="250.5" y="-235.5" font-family="Helvetica,sans-Serif" font-size="10.00">FlagField</text>
</a>
</g>
</g>
<!-- Node3&#45;&gt;Node8 -->
<g id="edge7" class="edge">
<title>Node3&#45;&gt;Node8</title>
<path fill="none" stroke="midnightblue" d="M155.98,-178.34C157.01,-179.23 158.02,-180.12 159,-181 176.5,-196.79 176.15,-206.28 196,-219 203.22,-223.63 211.71,-227.3 219.78,-230.14"/>
<polygon fill="midnightblue" stroke="midnightblue" points="157.91,-175.4 147.96,-171.76 153.47,-180.81 157.91,-175.4"/>
</g>
<!-- Node9 -->
<g id="node9" class="node">
<title>Node9</title>
<g id="a_node9"><a xlink:href="class_long_u_int_field.html" target="_top" xlink:title="Fields that contain an unsigned, 4 byte integer.">
<polygon fill="white" stroke="black" points="209,-190.5 209,-209.5 292,-209.5 292,-190.5 209,-190.5"/>
<text text-anchor="middle" x="250.5" y="-197.5" font-family="Helvetica,sans-Serif" font-size="10.00">LongUIntField</text>
</a>
</g>
</g>
<!-- Node3&#45;&gt;Node9 -->
<g id="edge8" class="edge">
<title>Node3&#45;&gt;Node9</title>
<path fill="none" stroke="midnightblue" d="M164.06,-171.69C168.4,-173.14 172.81,-174.61 177,-176 191.34,-180.76 207.29,-186.05 220.57,-190.44"/>
<polygon fill="midnightblue" stroke="midnightblue" points="164.83,-168.26 154.23,-168.42 162.61,-174.9 164.83,-168.26"/>
</g>
<!-- Node10 -->
<g id="node10" class="node">
<title>Node10</title>
<g id="a_node10"><a xlink:href="class_pump_on_time_field.html" target="_top" xlink:title="Fields for pump on times (2 bytes in 0.5s increments)">
<polygon fill="white" stroke="black" points="197.5,-152.5 197.5,-171.5 303.5,-171.5 303.5,-152.5 197.5,-152.5"/>
<text text-anchor="middle" x="250.5" y="-159.5" font-family="Helvetica,sans-Serif" font-size="10.00">PumpOnTimeField</text>
</a>
</g>
</g>
<!-- Node3&#45;&gt;Node10 -->
<g id="edge9" class="edge">
<title>Node3&#45;&gt;Node10</title>
<path fill="none" stroke="midnightblue" d="M164.36,-162C174.38,-162 185.9,-162 197.17,-162"/>
<polygon fill="midnightblue" stroke="midnightblue" points="164.16,-158.5 154.16,-162 164.16,-165.5 164.16,-158.5"/>
</g>
<!-- Node11 -->
<g id="node11" class="node">
<title>Node11</title>
<g id="a_node11"><a xlink:href="class_settable_field.html" target="_top" xlink:title="Class for fields that can be set.">
<polygon fill="white" stroke="black" points="196,-114.5 196,-133.5 305,-133.5 305,-114.5 196,-114.5"/>
<text text-anchor="middle" x="250.5" y="-121.5" font-family="Helvetica,sans-Serif" font-size="10.00">SettableField&lt; T &gt;</text>
</a>
</g>
</g>
<!-- Node3&#45;&gt;Node11 -->
<g id="edge10" class="edge">
<title>Node3&#45;&gt;Node11</title>
<path fill="none" stroke="midnightblue" d="M163.81,-152.44C181.25,-146.65 203.4,-139.3 220.82,-133.52"/>
<polygon fill="midnightblue" stroke="midnightblue" points="162.55,-149.17 154.16,-155.64 164.76,-155.81 162.55,-149.17"/>
</g>
<!-- Node12 -->
<g id="node12" class="node">
<title>Node12</title>
<g id="a_node12"><a xlink:href="class_tenths_byte_field.html" target="_top" xlink:title="Field for decoding 1 byte signed data in tenths.">
<polygon fill="white" stroke="black" points="203.5,-76.5 203.5,-95.5 297.5,-95.5 297.5,-76.5 203.5,-76.5"/>
<text text-anchor="middle" x="250.5" y="-83.5" font-family="Helvetica,sans-Serif" font-size="10.00">TenthsByteField</text>
</a>
</g>
</g>
<!-- Node3&#45;&gt;Node12 -->
<g id="edge12" class="edge">
<title>Node3&#45;&gt;Node12</title>
<path fill="none" stroke="midnightblue" d="M149.88,-144.71C161.4,-132.23 178.32,-115.75 196,-105 202.15,-101.26 209.14,-98.11 215.99,-95.51"/>
<polygon fill="midnightblue" stroke="midnightblue" points="147.2,-142.45 143.13,-152.24 152.41,-147.12 147.2,-142.45"/>
</g>
<!-- Node13 -->
<g id="node13" class="node">
<title>Node13</title>
<g id="a_node13"><a xlink:href="class_tenths_field.html" target="_top" xlink:title="Field for decoding 2 byte signed data in tenths.">
<polygon fill="white" stroke="black" points="215,-38.5 215,-57.5 286,-57.5 286,-38.5 215,-38.5"/>
<text text-anchor="middle" x="250.5" y="-45.5" font-family="Helvetica,sans-Serif" font-size="10.00">TenthsField</text>
</a>
</g>
</g>
<!-- Node3&#45;&gt;Node13 -->
<g id="edge13" class="edge">
<title>Node3&#45;&gt;Node13</title>
<path fill="none" stroke="midnightblue" d="M142.6,-143.13C152.09,-121.81 170.27,-87.41 196,-67 201.56,-62.59 208.22,-59.16 214.93,-56.5"/>
<polygon fill="midnightblue" stroke="midnightblue" points="139.33,-141.86 138.64,-152.43 145.77,-144.6 139.33,-141.86"/>
</g>
<!-- Node14 -->
<g id="node14" class="node">
<title>Node14</title>
<g id="a_node14"><a xlink:href="class_u_int_field.html" target="_top" xlink:title="Fields that contain an unsigned, 2 byte integer.">
<polygon fill="white" stroke="black" points="220.5,-0.5 220.5,-19.5 280.5,-19.5 280.5,-0.5 220.5,-0.5"/>
<text text-anchor="middle" x="250.5" y="-7.5" font-family="Helvetica,sans-Serif" font-size="10.00">UIntField</text>
</a>
</g>
</g>
<!-- Node3&#45;&gt;Node14 -->
<g id="edge14" class="edge">
<title>Node3&#45;&gt;Node14</title>
<path fill="none" stroke="midnightblue" d="M138.91,-142.42C145.63,-113.66 162.08,-60.03 196,-29 202.76,-22.81 211.67,-18.61 220.28,-15.77"/>
<polygon fill="midnightblue" stroke="midnightblue" points="135.43,-141.94 136.72,-152.45 142.27,-143.43 135.43,-141.94"/>
</g>
<!-- Node5 -->
<g id="node5" class="node">
<title>Node5</title>
<g id="a_node5"><a xlink:href="class_settable_byte_field.html" target="_top" xlink:title="Fields that contain an unsigned, single byte integer that can be set using an RPC call.">
<polygon fill="white" stroke="black" points="563,-228.5 563,-247.5 666,-247.5 666,-228.5 563,-228.5"/>
<text text-anchor="middle" x="614.5" y="-235.5" font-family="Helvetica,sans-Serif" font-size="10.00">SettableByteField</text>
</a>
</g>
</g>
<!-- Node4&#45;&gt;Node5 -->
<g id="edge4" class="edge">
<title>Node4&#45;&gt;Node5</title>
<path fill="none" stroke="midnightblue" d="M536.39,-228.36C545.27,-229.47 554.17,-230.58 562.6,-231.64"/>
<polygon fill="midnightblue" stroke="midnightblue" points="536.76,-224.88 526.4,-227.11 535.89,-231.83 536.76,-224.88"/>
</g>
<!-- Node6 -->
<g id="node6" class="node">
<title>Node6</title>
<g id="a_node6"><a xlink:href="class_settable_flag_field.html" target="_top" xlink:title="Class for flags that can be set via an RPC call.">
<polygon fill="white" stroke="black" points="564,-190.5 564,-209.5 665,-209.5 665,-190.5 564,-190.5"/>
<text text-anchor="middle" x="614.5" y="-197.5" font-family="Helvetica,sans-Serif" font-size="10.00">SettableFlagField</text>
</a>
</g>
</g>
<!-- Node4&#45;&gt;Node6 -->
<g id="edge5" class="edge">
<title>Node4&#45;&gt;Node6</title>
<path fill="none" stroke="midnightblue" d="M536.49,-209.63C545.83,-208.46 555.18,-207.29 563.99,-206.19"/>
<polygon fill="midnightblue" stroke="midnightblue" points="535.89,-206.17 526.4,-210.89 536.76,-213.12 535.89,-206.17"/>
</g>
<!-- Node11&#45;&gt;Node4 -->
<g id="edge11" class="edge">
<title>Node11&#45;&gt;Node4</title>
<path fill="none" stroke="orange" stroke-dasharray="5,2" d="M289.99,-137.06C295.07,-138.96 300.19,-140.97 305,-143 355.68,-164.38 413.32,-194.29 441.74,-209.42"/>
<polygon fill="orange" stroke="orange" points="290.93,-133.68 280.33,-133.55 288.53,-140.26 290.93,-133.68"/>
<text text-anchor="middle" x="350" y="-177" font-family="Helvetica,sans-Serif" font-size="10.00"> &lt; int8_t &gt;</text>
</g>
</g>
</svg>
