<?xml version="1.0" encoding="UTF-8" standalone="no"?>
<!DOCTYPE svg PUBLIC "-//W3C//DTD SVG 1.1//EN"
 "http://www.w3.org/Graphics/SVG/1.1/DTD/svg11.dtd">
<!-- Generated by graphviz version 2.43.0 (0)
 -->
<!-- Title: SettableField&lt; T &gt; Pages: 1 -->
<svg width="261pt" height="240pt"
 viewBox="0.00 0.00 260.50 240.00" xmlns="http://www.w3.org/2000/svg" xmlns:xlink="http://www.w3.org/1999/xlink">
<g id="graph0" class="graph" transform="scale(1 1) rotate(0) translate(4 236)">
<title>SettableField&lt; T &gt;</title>
<polygon fill="white" stroke="transparent" points="-4,4 -4,-236 256.5,-236 256.5,4 -4,4"/>
<!-- Node1 -->
<g id="node1" class="node">
<title>Node1</title>
<g id="a_node1"><a xlink:title="Class for fields that can be set.">
<polygon fill="#bfbfbf" stroke="black" points="120,-0.5 120,-19.5 229,-19.5 229,-0.5 120,-0.5"/>
<text text-anchor="middle" x="174.5" y="-7.5" font-family="Helvetica,sans-Serif" font-size="10.00">SettableField&lt; T &gt;</text>
</a>
</g>
</g>
<!-- Node2 -->
<g id="node2" class="node">
<title>Node2</title>
<g id="a_node2"><a xlink:href="class_field.html" target="_top" xlink:title="Class for handling data fields in messages.">
<polygon fill="white" stroke="black" points="128.5,-78.5 128.5,-97.5 168.5,-97.5 168.5,-78.5 128.5,-78.5"/>
<text text-anchor="middle" x="148.5" y="-85.5" font-family="Helvetica,sans-Serif" font-size="10.00">Field</text>
</a>
</g>
</g>
<!-- Node2&#45;&gt;Node1 -->
<g id="edge1" class="edge">
<title>Node2&#45;&gt;Node1</title>
<path fill="none" stroke="midnightblue" d="M154.77,-68.67C160.09,-53.11 167.5,-31.47 171.55,-19.62"/>
<polygon fill="midnightblue" stroke="midnightblue" points="151.41,-67.69 151.48,-78.28 158.03,-69.95 151.41,-67.69"/>
</g>
<!-- Node3 -->
<g id="node3" class="node">
<title>Node3</title>
<g id="a_node3"><a xlink:href="class_lookupable.html" target="_top" xlink:title="Class for fields and devices that can be managed by LookupManager.">
<polygon fill="white" stroke="black" points="65.5,-145.5 65.5,-164.5 137.5,-164.5 137.5,-145.5 65.5,-145.5"/>
<text text-anchor="middle" x="101.5" y="-152.5" font-family="Helvetica,sans-Serif" font-size="10.00">Lookupable</text>
</a>
</g>
</g>
<!-- Node3&#45;&gt;Node2 -->
<g id="edge2" class="edge">
<title>Node3&#45;&gt;Node2</title>
<path fill="none" stroke="midnightblue" d="M113.86,-136.9C122.99,-124.27 135.05,-107.6 142.26,-97.63"/>
<polygon fill="midnightblue" stroke="midnightblue" points="110.86,-135.08 107.84,-145.23 116.53,-139.18 110.86,-135.08"/>
</g>
<!-- Node4 -->
<g id="node4" class="node">
<title>Node4</title>
<g id="a_node4"><a xlink:title=" ">
<polygon fill="white" stroke="#bfbfbf" points="0,-212.5 0,-231.5 101,-231.5 101,-212.5 0,-212.5"/>
<text text-anchor="middle" x="50.5" y="-219.5" font-family="Helvetica,sans-Serif" font-size="10.00">const char *const</text>
</a>
</g>
</g>
<!-- Node4&#45;&gt;Node3 -->
<g id="edge3" class="edge">
<title>Node4&#45;&gt;Node3</title>
<path fill="none" stroke="#9a32cd" stroke-dasharray="5,2" d="M63.63,-204.27C73.57,-191.6 86.83,-174.7 94.73,-164.63"/>
<polygon fill="#9a32cd" stroke="#9a32cd" points="60.8,-202.21 57.38,-212.23 66.3,-206.53 60.8,-202.21"/>
<text text-anchor="middle" x="95" y="-186" font-family="Helvetica,sans-Serif" font-size="10.00"> name</text>
</g>
<!-- Node5 -->
<g id="node5" class="node">
<title>Node5</title>
<g id="a_node5"><a xlink:title=" ">
<polygon fill="white" stroke="#bfbfbf" points="119,-212.5 119,-231.5 186,-231.5 186,-212.5 119,-212.5"/>
<text text-anchor="middle" x="152.5" y="-219.5" font-family="Helvetica,sans-Serif" font-size="10.00">const char</text>
</a>
</g>
</g>
<!-- Node5&#45;&gt;Node3 -->
<g id="edge4" class="edge">
<title>Node5&#45;&gt;Node3</title>
<path fill="none" stroke="#9a32cd" stroke-dasharray="5,2" d="M139.37,-204.27C129.43,-191.6 116.17,-174.7 108.27,-164.63"/>
<polygon fill="#9a32cd" stroke="#9a32cd" points="136.7,-206.53 145.62,-212.23 142.2,-202.21 136.7,-206.53"/>
<text text-anchor="middle" x="150.5" y="-186" font-family="Helvetica,sans-Serif" font-size="10.00"> symbol</text>
</g>
<!-- Node6 -->
<g id="node6" class="node">
<title>Node6</title>
<g id="a_node6"><a xlink:title=" ">
<polygon fill="white" stroke="#bfbfbf" points="155.5,-145.5 155.5,-164.5 235.5,-164.5 235.5,-145.5 155.5,-145.5"/>
<text text-anchor="middle" x="195.5" y="-152.5" font-family="Helvetica,sans-Serif" font-size="10.00">const uint8_t</text>
</a>
</g>
</g>
<!-- Node6&#45;&gt;Node2 -->
<g id="edge5" class="edge">
<title>Node6&#45;&gt;Node2</title>
<path fill="none" stroke="#9a32cd" stroke-dasharray="5,2" d="M183.14,-136.9C174.01,-124.27 161.95,-107.6 154.74,-97.63"/>
<polygon fill="#9a32cd" stroke="#9a32cd" points="180.47,-139.18 189.16,-145.23 186.14,-135.08 180.47,-139.18"/>
<text text-anchor="middle" x="213.5" y="-119" font-family="Helvetica,sans-Serif" font-size="10.00"> encodedLength</text>
</g>
<!-- Node7 -->
<g id="node7" class="node">
<title>Node7</title>
<g id="a_node7"><a xlink:title=" ">
<polygon fill="white" stroke="#bfbfbf" points="187,-78.5 187,-97.5 216,-97.5 216,-78.5 187,-78.5"/>
<text text-anchor="middle" x="201.5" y="-85.5" font-family="Helvetica,sans-Serif" font-size="10.00">T</text>
</a>
</g>
</g>
<!-- Node7&#45;&gt;Node1 -->
<g id="edge6" class="edge">
<title>Node7&#45;&gt;Node1</title>
<path fill="none" stroke="#9a32cd" stroke-dasharray="5,2" d="M194.99,-68.67C189.46,-53.11 181.77,-31.47 177.56,-19.62"/>
<polygon fill="#9a32cd" stroke="#9a32cd" points="191.76,-70.03 198.4,-78.28 198.35,-67.69 191.76,-70.03"/>
<text text-anchor="middle" x="213.5" y="-52" font-family="Helvetica,sans-Serif" font-size="10.00"> curValue</text>
<text text-anchor="middle" x="213.5" y="-41" font-family="Helvetica,sans-Serif" font-size="10.00">setValue</text>
</g>
</g>
</svg>
