<?xml version="1.0" encoding="UTF-8" standalone="no"?>
<!DOCTYPE svg PUBLIC "-//W3C//DTD SVG 1.1//EN"
 "http://www.w3.org/Graphics/SVG/1.1/DTD/svg11.dtd">
<!-- Generated by graphviz version 2.43.0 (0)
 -->
<!-- Title: SettableField&lt; T &gt; Pages: 1 -->
<svg width="230pt" height="261pt"
 viewBox="0.00 0.00 230.00 261.00" xmlns="http://www.w3.org/2000/svg" xmlns:xlink="http://www.w3.org/1999/xlink">

<svg id="main" version="1.1" xmlns="http://www.w3.org/2000/svg" xmlns:xlink="http://www.w3.org/1999/xlink" xml:space="preserve" onload="init(evt)">
<style type="text/css"><![CDATA[
.node, .edge {opacity: 0.7;}
.node.selected, .edge.selected {opacity: 1;}
.edge:hover path { stroke: red; }
.edge:hover polygon { stroke: red; fill: red; }
]]></style>
<script type="application/ecmascript" xlink:href="svg.min.js"/>
<svg id="graph" class="graph">
<g id="graph0" class="graph" transform="scale(1 1) rotate(0) translate(4 257)">
<title>SettableField&lt; T &gt;</title>
<!-- Node1 -->
<g id="Node000001" class="node">
<title>Node1</title>
<g id="a_Node000001"><a xlink:title="Class for fields that can be set.">
<polygon fill="#999999" stroke="#666666" points="166,-141 57,-141 57,-122 166,-122 166,-141"/>
<text text-anchor="middle" x="111.5" y="-129" font-family="Helvetica,sans-Serif" font-size="10.00">SettableField&lt; T &gt;</text>
</a>
</g>
</g>
<!-- Node4 -->
<g id="Node000004" class="node">
<title>Node4</title>
<g id="a_Node000004"><a xlink:href="class_settable_field.html" target="_top" xlink:title=" ">
<polygon fill="white" stroke="#666666" points="177,-75 46,-75 46,-56 177,-56 177,-75"/>
<text text-anchor="middle" x="111.5" y="-63" font-family="Helvetica,sans-Serif" font-size="10.00">SettableField&lt; int8_t &gt;</text>
</a>
</g>
</g>
<!-- Node1&#45;&gt;Node4 -->
<g id="edge3_Node000001_Node000004" class="edge">
<title>Node1&#45;&gt;Node4</title>
<g id="a_edge3_Node000001_Node000004"><a xlink:title=" ">
<path fill="none" stroke="orange" stroke-dasharray="5,2" d="M111.5,-111.58C111.5,-99.63 111.5,-84.72 111.5,-75.41"/>
<polygon fill="orange" stroke="orange" points="108,-111.87 111.5,-121.87 115,-111.87 108,-111.87"/>
</a>
</g>
<text text-anchor="middle" x="138.5" y="-96" font-family="Helvetica,sans-Serif" font-size="10.00" fill="grey"> &lt; int8_t &gt;</text>
</g>
<!-- Node2 -->
<g id="Node000002" class="node">
<title>Node2</title>
<g id="a_Node000002"><a xlink:href="class_field.html" target="_top" xlink:title="Class for handling data fields in messages.">
<polygon fill="white" stroke="#666666" points="131.5,-197 91.5,-197 91.5,-178 131.5,-178 131.5,-197"/>
<text text-anchor="middle" x="111.5" y="-185" font-family="Helvetica,sans-Serif" font-size="10.00">Field</text>
</a>
</g>
</g>
<!-- Node2&#45;&gt;Node1 -->
<g id="edge1_Node000001_Node000002" class="edge">
<title>Node2&#45;&gt;Node1</title>
<g id="a_edge1_Node000001_Node000002"><a xlink:title=" ">
<path fill="none" stroke="#63b8ff" d="M111.5,-167.3C111.5,-158.41 111.5,-148.28 111.5,-141.25"/>
<polygon fill="#63b8ff" stroke="#63b8ff" points="108,-167.58 111.5,-177.58 115,-167.58 108,-167.58"/>
</a>
</g>
</g>
<!-- Node3 -->
<g id="Node000003" class="node">
<title>Node3</title>
<g id="a_Node000003"><a xlink:href="class_lookupable.html" target="_top" xlink:title="Class for fields and devices that can be managed by LookupManager.">
<polygon fill="white" stroke="#666666" points="147.5,-253 75.5,-253 75.5,-234 147.5,-234 147.5,-253"/>
<text text-anchor="middle" x="111.5" y="-241" font-family="Helvetica,sans-Serif" font-size="10.00">Lookupable</text>
</a>
</g>
</g>
<!-- Node3&#45;&gt;Node2 -->
<g id="edge2_Node000002_Node000003" class="edge">
<title>Node3&#45;&gt;Node2</title>
<g id="a_edge2_Node000002_Node000003"><a xlink:title=" ">
<path fill="none" stroke="#63b8ff" d="M111.5,-223.3C111.5,-214.41 111.5,-204.28 111.5,-197.25"/>
<polygon fill="#63b8ff" stroke="#63b8ff" points="108,-223.58 111.5,-233.58 115,-223.58 108,-223.58"/>
</a>
</g>
</g>
<!-- Node5 -->
<g id="Node000005" class="node">
<title>Node5</title>
<g id="a_Node000005"><a xlink:href="class_settable_byte_field.html" target="_top" xlink:title="Fields that contain an unsigned, single byte integer that can be set using an RPC call.">
<polygon fill="white" stroke="#666666" points="103,-19 0,-19 0,0 103,0 103,-19"/>
<text text-anchor="middle" x="51.5" y="-7" font-family="Helvetica,sans-Serif" font-size="10.00">SettableByteField</text>
</a>
</g>
</g>
<!-- Node4&#45;&gt;Node5 -->
<g id="edge4_Node000004_Node000005" class="edge">
<title>Node4&#45;&gt;Node5</title>
<g id="a_edge4_Node000004_Node000005"><a xlink:title=" ">
<path fill="none" stroke="#63b8ff" d="M94.32,-49.04C83.62,-39.41 70.24,-27.37 61.32,-19.33"/>
<polygon fill="#63b8ff" stroke="#63b8ff" points="92.09,-51.74 101.86,-55.82 96.77,-46.53 92.09,-51.74"/>
</a>
</g>
</g>
<!-- Node6 -->
<g id="Node000006" class="node">
<title>Node6</title>
<g id="a_Node000006"><a xlink:href="class_settable_flag_field.html" target="_top" xlink:title="Class for flags that can be set via an RPC call.">
<polygon fill="white" stroke="#666666" points="222,-19 121,-19 121,0 222,0 222,-19"/>
<text text-anchor="middle" x="171.5" y="-7" font-family="Helvetica,sans-Serif" font-size="10.00">SettableFlagField</text>
</a>
</g>
</g>
<!-- Node4&#45;&gt;Node6 -->
<g id="edge5_Node000004_Node000006" class="edge">
<title>Node4&#45;&gt;Node6</title>
<g id="a_edge5_Node000004_Node000006"><a xlink:title=" ">
<path fill="none" stroke="#63b8ff" d="M128.68,-49.04C139.38,-39.41 152.76,-27.37 161.68,-19.33"/>
<polygon fill="#63b8ff" stroke="#63b8ff" points="126.23,-46.53 121.14,-55.82 130.91,-51.74 126.23,-46.53"/>
</a>
</g>
</g>
</g>
</svg>
</svg>

<style type='text/css'>
<![CDATA[
[data-mouse-over-selected='false'] { opacity: 0.7; }
[data-mouse-over-selected='true']  { opacity: 1.0; }
]]>
</style>
<script type="application/ecmascript"><![CDATA[
document.addEventListener('DOMContentLoaded', (event) => {
  highlightEdges();
  highlightAdjacentNodes();
});
]]></script>
</svg>
