<?xml version="1.0" encoding="UTF-8" standalone="no"?>
<!DOCTYPE svg PUBLIC "-//W3C//DTD SVG 1.1//EN"
 "http://www.w3.org/Graphics/SVG/1.1/DTD/svg11.dtd">
<!-- Generated by graphviz version 2.43.0 (0)
 -->
<!-- Title: ByteField Pages: 1 -->
<svg width="334pt" height="215pt"
 viewBox="0.00 0.00 333.50 215.00" xmlns="http://www.w3.org/2000/svg" xmlns:xlink="http://www.w3.org/1999/xlink">
<g id="graph0" class="graph" transform="scale(1 1) rotate(0) translate(4 211)">
<title>ByteField</title>
<!-- Node1 -->
<g id="Node000001" class="node">
<title>Node1</title>
<g id="a_Node000001"><a xlink:title="Fields that contain an unsigned, single byte integer.">
<polygon fill="#999999" stroke="#666666" points="211.5,-19 149.5,-19 149.5,0 211.5,0 211.5,-19"/>
<text text-anchor="middle" x="180.5" y="-7" font-family="Helvetica,sans-Serif" font-size="10.00">ByteField</text>
</a>
</g>
</g>
<!-- Node2 -->
<g id="Node000002" class="node">
<title>Node2</title>
<g id="a_Node000002"><a xlink:href="class_field.html" target="_top" xlink:title="Class for handling data fields in messages.">
<polygon fill="white" stroke="#666666" points="200.5,-75 160.5,-75 160.5,-56 200.5,-56 200.5,-75"/>
<text text-anchor="middle" x="180.5" y="-63" font-family="Helvetica,sans-Serif" font-size="10.00">Field</text>
</a>
</g>
</g>
<!-- Node2&#45;&gt;Node1 -->
<g id="edge1_Node000001_Node000002" class="edge">
<title>Node2&#45;&gt;Node1</title>
<g id="a_edge1_Node000001_Node000002"><a xlink:title=" ">
<path fill="none" stroke="#63b8ff" d="M180.5,-45.3C180.5,-36.41 180.5,-26.28 180.5,-19.25"/>
<polygon fill="#63b8ff" stroke="#63b8ff" points="177,-45.58 180.5,-55.58 184,-45.58 177,-45.58"/>
</a>
</g>
</g>
<!-- Node3 -->
<g id="Node000003" class="node">
<title>Node3</title>
<g id="a_Node000003"><a xlink:href="class_lookupable.html" target="_top" xlink:title="Class for fields and devices that can be managed by LookupManager.">
<polygon fill="white" stroke="#666666" points="137.5,-141 65.5,-141 65.5,-122 137.5,-122 137.5,-141"/>
<text text-anchor="middle" x="101.5" y="-129" font-family="Helvetica,sans-Serif" font-size="10.00">Lookupable</text>
</a>
</g>
</g>
<!-- Node3&#45;&gt;Node2 -->
<g id="edge2_Node000002_Node000003" class="edge">
<title>Node3&#45;&gt;Node2</title>
<g id="a_edge2_Node000002_Node000003"><a xlink:title=" ">
<path fill="none" stroke="#63b8ff" d="M120.03,-115.49C135.5,-102.96 157,-85.54 169.76,-75.2"/>
<polygon fill="#63b8ff" stroke="#63b8ff" points="117.72,-112.85 112.15,-121.87 122.13,-118.29 117.72,-112.85"/>
</a>
</g>
</g>
<!-- Node4 -->
<g id="Node000004" class="node">
<title>Node4</title>
<g id="a_Node000004"><a xlink:title=" ">
<polygon fill="white" stroke="#666666" points="101,-207 0,-207 0,-188 101,-188 101,-207"/>
<text text-anchor="middle" x="50.5" y="-195" font-family="Helvetica,sans-Serif" font-size="10.00">const char *const</text>
</a>
</g>
</g>
<!-- Node4&#45;&gt;Node3 -->
<g id="edge3_Node000003_Node000004" class="edge">
<title>Node4&#45;&gt;Node3</title>
<g id="a_edge3_Node000003_Node000004"><a xlink:title=" ">
<path fill="none" stroke="#9a32cd" stroke-dasharray="5,2" d="M63.83,-179.77C73.62,-167.49 86.52,-151.3 94.4,-141.41"/>
<polygon fill="#9a32cd" stroke="#9a32cd" points="60.87,-177.87 57.38,-187.87 66.35,-182.23 60.87,-177.87"/>
</a>
</g>
<text text-anchor="middle" x="95" y="-162" font-family="Helvetica,sans-Serif" font-size="10.00" fill="grey"> name</text>
</g>
<!-- Node5 -->
<g id="Node000005" class="node">
<title>Node5</title>
<g id="a_Node000005"><a xlink:title=" ">
<polygon fill="white" stroke="#666666" points="186,-207 119,-207 119,-188 186,-188 186,-207"/>
<text text-anchor="middle" x="152.5" y="-195" font-family="Helvetica,sans-Serif" font-size="10.00">const char</text>
</a>
</g>
</g>
<!-- Node5&#45;&gt;Node3 -->
<g id="edge4_Node000003_Node000005" class="edge">
<title>Node5&#45;&gt;Node3</title>
<g id="a_edge4_Node000003_Node000005"><a xlink:title=" ">
<path fill="none" stroke="#9a32cd" stroke-dasharray="5,2" d="M139.17,-179.77C129.38,-167.49 116.48,-151.3 108.6,-141.41"/>
<polygon fill="#9a32cd" stroke="#9a32cd" points="136.65,-182.23 145.62,-187.87 142.13,-177.87 136.65,-182.23"/>
</a>
</g>
<text text-anchor="middle" x="150.5" y="-162" font-family="Helvetica,sans-Serif" font-size="10.00" fill="grey"> symbol</text>
</g>
<!-- Node6 -->
<g id="Node000006" class="node">
<title>Node6</title>
<g id="a_Node000006"><a xlink:href="classuint8__t.html" target="_top" xlink:title=" ">
<polygon fill="white" stroke="#666666" points="205.5,-141 155.5,-141 155.5,-122 205.5,-122 205.5,-141"/>
<text text-anchor="middle" x="180.5" y="-129" font-family="Helvetica,sans-Serif" font-size="10.00">uint8_t</text>
</a>
</g>
</g>
<!-- Node6&#45;&gt;Node2 -->
<g id="edge5_Node000002_Node000006" class="edge">
<title>Node6&#45;&gt;Node2</title>
<g id="a_edge5_Node000002_Node000006"><a xlink:title=" ">
<path fill="none" stroke="#9a32cd" stroke-dasharray="5,2" d="M180.5,-111.58C180.5,-99.63 180.5,-84.72 180.5,-75.41"/>
<polygon fill="#9a32cd" stroke="#9a32cd" points="177,-111.87 180.5,-121.87 184,-111.87 177,-111.87"/>
</a>
</g>
<text text-anchor="middle" x="219.5" y="-96" font-family="Helvetica,sans-Serif" font-size="10.00" fill="grey"> encodedLength</text>
</g>
<!-- Node7 -->
<g id="Node000007" class="node">
<title>Node7</title>
<g id="a_Node000007"><a xlink:title=" ">
<polygon fill="white" stroke="#666666" points="300.5,-141 262.5,-141 262.5,-122 300.5,-122 300.5,-141"/>
<text text-anchor="middle" x="281.5" y="-129" font-family="Helvetica,sans-Serif" font-size="10.00">bool</text>
</a>
</g>
</g>
<!-- Node7&#45;&gt;Node2 -->
<g id="edge6_Node000002_Node000007" class="edge">
<title>Node7&#45;&gt;Node2</title>
<g id="a_edge6_Node000002_Node000007"><a xlink:title=" ">
<path fill="none" stroke="#9a32cd" stroke-dasharray="5,2" d="M274.24,-112.45C270.69,-105.55 265.8,-98.11 259.5,-93 242.43,-79.14 217.78,-72.4 200.57,-69.2"/>
<polygon fill="#9a32cd" stroke="#9a32cd" points="271.18,-114.18 278.49,-121.85 277.56,-111.29 271.18,-114.18"/>
</a>
</g>
<text text-anchor="middle" x="297" y="-96" font-family="Helvetica,sans-Serif" font-size="10.00" fill="grey"> txRequired</text>
</g>
</g>
</svg>
