<?xml version="1.0" encoding="UTF-8" standalone="no"?>
<!DOCTYPE svg PUBLIC "-//W3C//DTD SVG 1.1//EN"
 "http://www.w3.org/Graphics/SVG/1.1/DTD/svg11.dtd">
<!-- Generated by graphviz version 2.43.0 (0)
 -->
<!-- Title: Led::set Pages: 1 -->
<svg width="335pt" height="47pt"
 viewBox="0.00 0.00 335.00 47.00" xmlns="http://www.w3.org/2000/svg" xmlns:xlink="http://www.w3.org/1999/xlink">
<g id="graph0" class="graph" transform="scale(1 1) rotate(0) translate(4 43)">
<title>Led::set</title>
<polygon fill="white" stroke="transparent" points="-4,4 -4,-43 331,-43 331,4 -4,4"/>
<!-- Node1 -->
<g id="node1" class="node">
<title>Node1</title>
<g id="a_node1"><a xlink:title="Turns the LED on or off.">
<polygon fill="#bfbfbf" stroke="black" points="272,-0.5 272,-19.5 327,-19.5 327,-0.5 272,-0.5"/>
<text text-anchor="middle" x="299.5" y="-7.5" font-family="Helvetica,sans-Serif" font-size="10.00">Led::set</text>
</a>
</g>
</g>
<!-- Node2 -->
<g id="node2" class="node">
<title>Node2</title>
<g id="a_node2"><a xlink:href="class_led.html#aca41751e53023a56a30b541a1c23edfe" target="_top" xlink:title="Initialises the pins.">
<polygon fill="white" stroke="black" points="169,-19.5 169,-38.5 236,-38.5 236,-19.5 169,-19.5"/>
<text text-anchor="middle" x="202.5" y="-26.5" font-family="Helvetica,sans-Serif" font-size="10.00">Led::begin</text>
</a>
</g>
</g>
<!-- Node1&#45;&gt;Node2 -->
<g id="edge1" class="edge">
<title>Node1&#45;&gt;Node2</title>
<path fill="none" stroke="midnightblue" d="M261.78,-17.34C253.31,-19.04 244.37,-20.83 236.09,-22.48"/>
<polygon fill="midnightblue" stroke="midnightblue" points="262.67,-20.74 271.78,-15.34 261.29,-13.87 262.67,-20.74"/>
</g>
<!-- Node3 -->
<g id="node3" class="node">
<title>Node3</title>
<g id="a_node3"><a xlink:href="leds_8cpp.html#a0e9abc4adafb917c6af448aca6042e96" target="_top" xlink:title="Task that manages the LEDs on the unit.">
<polygon fill="white" stroke="black" points="80,-0.5 80,-19.5 133,-19.5 133,-0.5 80,-0.5"/>
<text text-anchor="middle" x="106.5" y="-7.5" font-family="Helvetica,sans-Serif" font-size="10.00">ledTask</text>
</a>
</g>
</g>
<!-- Node1&#45;&gt;Node3 -->
<g id="edge4" class="edge">
<title>Node1&#45;&gt;Node3</title>
<path fill="none" stroke="midnightblue" d="M261.87,-10C224.16,-10 166.36,-10 133.22,-10"/>
<polygon fill="midnightblue" stroke="midnightblue" points="261.94,-13.5 271.94,-10 261.94,-6.5 261.94,-13.5"/>
</g>
<!-- Node2&#45;&gt;Node3 -->
<g id="edge2" class="edge">
<title>Node2&#45;&gt;Node3</title>
<path fill="none" stroke="midnightblue" d="M158.81,-20.37C150.08,-18.61 141.15,-16.8 133.24,-15.2"/>
<polygon fill="midnightblue" stroke="midnightblue" points="158.39,-23.86 168.89,-22.41 159.78,-17 158.39,-23.86"/>
</g>
<!-- Node4 -->
<g id="node4" class="node">
<title>Node4</title>
<g id="a_node4"><a xlink:href="main_8cpp.html#a4fc01d736fe50cf5b977f755b675f11d" target="_top" xlink:title=" ">
<polygon fill="white" stroke="black" points="0,-0.5 0,-19.5 44,-19.5 44,-0.5 0,-0.5"/>
<text text-anchor="middle" x="22" y="-7.5" font-family="Helvetica,sans-Serif" font-size="10.00">setup</text>
</a>
</g>
</g>
<!-- Node3&#45;&gt;Node4 -->
<g id="edge3" class="edge">
<title>Node3&#45;&gt;Node4</title>
<path fill="none" stroke="midnightblue" d="M69.84,-10C61.1,-10 52.02,-10 44.2,-10"/>
<polygon fill="midnightblue" stroke="midnightblue" points="69.85,-13.5 79.85,-10 69.85,-6.5 69.85,-13.5"/>
</g>
</g>
</svg>
