<?xml version="1.0" encoding="UTF-8" standalone="no"?>
<!DOCTYPE svg PUBLIC "-//W3C//DTD SVG 1.1//EN"
 "http://www.w3.org/Graphics/SVG/1.1/DTD/svg11.dtd">
<!-- Generated by graphviz version 2.43.0 (0)
 -->
<!-- Title: SettableByteField Pages: 1 -->
<svg width="349pt" height="364pt"
 viewBox="0.00 0.00 348.50 364.00" xmlns="http://www.w3.org/2000/svg" xmlns:xlink="http://www.w3.org/1999/xlink">
<g id="graph0" class="graph" transform="scale(1 1) rotate(0) translate(4 360)">
<title>SettableByteField</title>
<polygon fill="white" stroke="transparent" points="-4,4 -4,-360 344.5,-360 344.5,4 -4,4"/>
<!-- Node1 -->
<g id="node1" class="node">
<title>Node1</title>
<g id="a_node1"><a xlink:title="Fields that contain an unsigned, single byte integer that can be set using an RPC call.">
<polygon fill="#bfbfbf" stroke="black" points="115,-0.5 115,-19.5 218,-19.5 218,-0.5 115,-0.5"/>
<text text-anchor="middle" x="166.5" y="-7.5" font-family="Helvetica,sans-Serif" font-size="10.00">SettableByteField</text>
</a>
</g>
</g>
<!-- Node2 -->
<g id="node2" class="node">
<title>Node2</title>
<g id="a_node2"><a xlink:href="class_settable_field.html" target="_top" xlink:title=" ">
<polygon fill="white" stroke="black" points="101,-57.5 101,-76.5 232,-76.5 232,-57.5 101,-57.5"/>
<text text-anchor="middle" x="166.5" y="-64.5" font-family="Helvetica,sans-Serif" font-size="10.00">SettableField&lt; int8_t &gt;</text>
</a>
</g>
</g>
<!-- Node2&#45;&gt;Node1 -->
<g id="edge1" class="edge">
<title>Node2&#45;&gt;Node1</title>
<path fill="none" stroke="midnightblue" d="M166.5,-47.12C166.5,-37.82 166.5,-27.06 166.5,-19.71"/>
<polygon fill="midnightblue" stroke="midnightblue" points="163,-47.41 166.5,-57.41 170,-47.41 163,-47.41"/>
</g>
<!-- Node3 -->
<g id="node3" class="node">
<title>Node3</title>
<g id="a_node3"><a xlink:href="class_field.html" target="_top" xlink:title="Class for handling data fields in messages.">
<polygon fill="white" stroke="black" points="175.5,-202.5 175.5,-221.5 215.5,-221.5 215.5,-202.5 175.5,-202.5"/>
<text text-anchor="middle" x="195.5" y="-209.5" font-family="Helvetica,sans-Serif" font-size="10.00">Field</text>
</a>
</g>
</g>
<!-- Node3&#45;&gt;Node2 -->
<g id="edge2" class="edge">
<title>Node3&#45;&gt;Node2</title>
<path fill="none" stroke="midnightblue" d="M199.61,-192.31C203.89,-168.6 208.24,-126.96 194.5,-95 191.35,-87.68 185.16,-81.37 179.39,-76.7"/>
<polygon fill="midnightblue" stroke="midnightblue" points="196.13,-191.89 197.6,-202.39 202.99,-193.27 196.13,-191.89"/>
</g>
<!-- Node9 -->
<g id="node9" class="node">
<title>Node9</title>
<g id="a_node9"><a xlink:href="class_settable_field.html" target="_top" xlink:title="Class for fields that can be set.">
<polygon fill="white" stroke="black" points="71,-124.5 71,-143.5 180,-143.5 180,-124.5 71,-124.5"/>
<text text-anchor="middle" x="125.5" y="-131.5" font-family="Helvetica,sans-Serif" font-size="10.00">SettableField&lt; T &gt;</text>
</a>
</g>
</g>
<!-- Node3&#45;&gt;Node9 -->
<g id="edge9" class="edge">
<title>Node3&#45;&gt;Node9</title>
<path fill="none" stroke="midnightblue" d="M188.64,-192.81C184.25,-182.89 177.82,-170.86 169.5,-162 162.38,-154.42 152.68,-148.17 144.2,-143.59"/>
<polygon fill="midnightblue" stroke="midnightblue" points="185.44,-194.23 192.46,-202.17 191.92,-191.58 185.44,-194.23"/>
</g>
<!-- Node4 -->
<g id="node4" class="node">
<title>Node4</title>
<g id="a_node4"><a xlink:href="class_lookupable.html" target="_top" xlink:title="Class for fields and devices that can be managed by LookupManager.">
<polygon fill="white" stroke="black" points="65.5,-269.5 65.5,-288.5 137.5,-288.5 137.5,-269.5 65.5,-269.5"/>
<text text-anchor="middle" x="101.5" y="-276.5" font-family="Helvetica,sans-Serif" font-size="10.00">Lookupable</text>
</a>
</g>
</g>
<!-- Node4&#45;&gt;Node3 -->
<g id="edge3" class="edge">
<title>Node4&#45;&gt;Node3</title>
<path fill="none" stroke="midnightblue" d="M122.59,-263.42C141.17,-250.57 167.62,-232.28 183.02,-221.63"/>
<polygon fill="midnightblue" stroke="midnightblue" points="120.41,-260.67 114.18,-269.23 124.39,-266.43 120.41,-260.67"/>
</g>
<!-- Node5 -->
<g id="node5" class="node">
<title>Node5</title>
<g id="a_node5"><a xlink:title=" ">
<polygon fill="white" stroke="#bfbfbf" points="0,-336.5 0,-355.5 101,-355.5 101,-336.5 0,-336.5"/>
<text text-anchor="middle" x="50.5" y="-343.5" font-family="Helvetica,sans-Serif" font-size="10.00">const char *const</text>
</a>
</g>
</g>
<!-- Node5&#45;&gt;Node4 -->
<g id="edge4" class="edge">
<title>Node5&#45;&gt;Node4</title>
<path fill="none" stroke="#9a32cd" stroke-dasharray="5,2" d="M63.63,-328.27C73.57,-315.6 86.83,-298.7 94.73,-288.63"/>
<polygon fill="#9a32cd" stroke="#9a32cd" points="60.8,-326.21 57.38,-336.23 66.3,-330.53 60.8,-326.21"/>
<text text-anchor="middle" x="95" y="-310" font-family="Helvetica,sans-Serif" font-size="10.00"> name</text>
</g>
<!-- Node6 -->
<g id="node6" class="node">
<title>Node6</title>
<g id="a_node6"><a xlink:title=" ">
<polygon fill="white" stroke="#bfbfbf" points="119,-336.5 119,-355.5 186,-355.5 186,-336.5 119,-336.5"/>
<text text-anchor="middle" x="152.5" y="-343.5" font-family="Helvetica,sans-Serif" font-size="10.00">const char</text>
</a>
</g>
</g>
<!-- Node6&#45;&gt;Node4 -->
<g id="edge5" class="edge">
<title>Node6&#45;&gt;Node4</title>
<path fill="none" stroke="#9a32cd" stroke-dasharray="5,2" d="M139.37,-328.27C129.43,-315.6 116.17,-298.7 108.27,-288.63"/>
<polygon fill="#9a32cd" stroke="#9a32cd" points="136.7,-330.53 145.62,-336.23 142.2,-326.21 136.7,-330.53"/>
<text text-anchor="middle" x="150.5" y="-310" font-family="Helvetica,sans-Serif" font-size="10.00"> symbol</text>
</g>
<!-- Node7 -->
<g id="node7" class="node">
<title>Node7</title>
<g id="a_node7"><a xlink:title=" ">
<polygon fill="white" stroke="#bfbfbf" points="155.5,-269.5 155.5,-288.5 235.5,-288.5 235.5,-269.5 155.5,-269.5"/>
<text text-anchor="middle" x="195.5" y="-276.5" font-family="Helvetica,sans-Serif" font-size="10.00">const uint8_t</text>
</a>
</g>
</g>
<!-- Node7&#45;&gt;Node3 -->
<g id="edge6" class="edge">
<title>Node7&#45;&gt;Node3</title>
<path fill="none" stroke="#9a32cd" stroke-dasharray="5,2" d="M195.5,-259.04C195.5,-246.67 195.5,-231.12 195.5,-221.63"/>
<polygon fill="#9a32cd" stroke="#9a32cd" points="192,-259.23 195.5,-269.23 199,-259.23 192,-259.23"/>
<text text-anchor="middle" x="234.5" y="-243" font-family="Helvetica,sans-Serif" font-size="10.00"> encodedLength</text>
</g>
<!-- Node8 -->
<g id="node8" class="node">
<title>Node8</title>
<g id="a_node8"><a xlink:title=" ">
<polygon fill="white" stroke="#bfbfbf" points="277.5,-269.5 277.5,-288.5 315.5,-288.5 315.5,-269.5 277.5,-269.5"/>
<text text-anchor="middle" x="296.5" y="-276.5" font-family="Helvetica,sans-Serif" font-size="10.00">bool</text>
</a>
</g>
</g>
<!-- Node8&#45;&gt;Node3 -->
<g id="edge7" class="edge">
<title>Node8&#45;&gt;Node3</title>
<path fill="none" stroke="#9a32cd" stroke-dasharray="5,2" d="M289.27,-259.73C285.73,-252.74 280.83,-245.2 274.5,-240 257.48,-226.02 232.82,-219.12 215.59,-215.82"/>
<polygon fill="#9a32cd" stroke="#9a32cd" points="286.25,-261.53 293.52,-269.24 292.64,-258.68 286.25,-261.53"/>
<text text-anchor="middle" x="312" y="-243" font-family="Helvetica,sans-Serif" font-size="10.00"> txRequired</text>
</g>
<!-- Node9&#45;&gt;Node2 -->
<g id="edge8" class="edge">
<title>Node9&#45;&gt;Node2</title>
<path fill="none" stroke="orange" stroke-dasharray="5,2" d="M131.15,-114.5C133.54,-108.06 136.67,-100.96 140.5,-95 144.86,-88.21 151.1,-81.67 156.37,-76.72"/>
<polygon fill="orange" stroke="orange" points="127.7,-113.8 127.84,-124.4 134.33,-116.02 127.7,-113.8"/>
<text text-anchor="middle" x="167.5" y="-98" font-family="Helvetica,sans-Serif" font-size="10.00"> &lt; int8_t &gt;</text>
</g>
<!-- Node10 -->
<g id="node10" class="node">
<title>Node10</title>
<g id="a_node10"><a xlink:title=" ">
<polygon fill="white" stroke="#bfbfbf" points="108,-202.5 108,-221.5 137,-221.5 137,-202.5 108,-202.5"/>
<text text-anchor="middle" x="122.5" y="-209.5" font-family="Helvetica,sans-Serif" font-size="10.00">T</text>
</a>
</g>
</g>
<!-- Node10&#45;&gt;Node9 -->
<g id="edge10" class="edge">
<title>Node10&#45;&gt;Node9</title>
<path fill="none" stroke="#9a32cd" stroke-dasharray="5,2" d="M122.65,-192.08C122.78,-182.98 123.03,-171.92 123.5,-162 123.79,-155.8 124.32,-148.82 124.75,-143.51"/>
<polygon fill="#9a32cd" stroke="#9a32cd" points="119.15,-192.28 122.54,-202.32 126.15,-192.36 119.15,-192.28"/>
<text text-anchor="middle" x="146.5" y="-176" font-family="Helvetica,sans-Serif" font-size="10.00"> curValue</text>
<text text-anchor="middle" x="146.5" y="-165" font-family="Helvetica,sans-Serif" font-size="10.00">setValue</text>
</g>
</g>
</svg>
