<?xml version="1.0" encoding="UTF-8" standalone="no"?>
<!DOCTYPE svg PUBLIC "-//W3C//DTD SVG 1.1//EN"
 "http://www.w3.org/Graphics/SVG/1.1/DTD/svg11.dtd">
<!-- Generated by graphviz version 2.43.0 (0)
 -->
<!-- Title: LookupManager&lt; LookupableClass &gt; Pages: 1 -->
<svg width="316pt" height="160pt"
 viewBox="0.00 0.00 316.00 160.00" xmlns="http://www.w3.org/2000/svg" xmlns:xlink="http://www.w3.org/1999/xlink">
<g id="graph0" class="graph" transform="scale(1 1) rotate(0) translate(4 156)">
<title>LookupManager&lt; LookupableClass &gt;</title>
<!-- Node1 -->
<g id="Node000001" class="node">
<title>Node1</title>
<g id="a_Node000001"><a xlink:title="Class for looking up and managing devices and fields.">
<polygon fill="#999999" stroke="#666666" points="276.5,-152 115.5,-152 115.5,-122 276.5,-122 276.5,-152"/>
<text text-anchor="start" x="123.5" y="-140" font-family="Helvetica,sans-Serif" font-size="10.00">LookupManager&lt; Lookupable</text>
<text text-anchor="middle" x="196" y="-129" font-family="Helvetica,sans-Serif" font-size="10.00">Class &gt;</text>
</a>
</g>
</g>
<!-- Node2 -->
<g id="Node000002" class="node">
<title>Node2</title>
<g id="a_Node000002"><a xlink:href="class_lookup_manager.html" target="_top" xlink:title=" ">
<polygon fill="white" stroke="#666666" points="150,-75 0,-75 0,-56 150,-56 150,-75"/>
<text text-anchor="middle" x="75" y="-63" font-family="Helvetica,sans-Serif" font-size="10.00">LookupManager&lt; Device &gt;</text>
</a>
</g>
</g>
<!-- Node1&#45;&gt;Node2 -->
<g id="edge1_Node000001_Node000002" class="edge">
<title>Node1&#45;&gt;Node2</title>
<g id="a_edge1_Node000001_Node000002"><a xlink:title=" ">
<path fill="none" stroke="orange" stroke-dasharray="5,2" d="M162.77,-116.92C138.95,-103.23 107.98,-85.44 89.92,-75.07"/>
<polygon fill="orange" stroke="orange" points="161.1,-119.99 171.51,-121.94 164.59,-113.92 161.1,-119.99"/>
</a>
</g>
<text text-anchor="middle" x="170" y="-96" font-family="Helvetica,sans-Serif" font-size="10.00" fill="grey"> &lt; Device &gt;</text>
</g>
<!-- Node4 -->
<g id="Node000004" class="node">
<title>Node4</title>
<g id="a_Node000004"><a xlink:href="class_lookup_manager.html" target="_top" xlink:title=" ">
<polygon fill="white" stroke="#666666" points="308,-75 168,-75 168,-56 308,-56 308,-75"/>
<text text-anchor="middle" x="238" y="-63" font-family="Helvetica,sans-Serif" font-size="10.00">LookupManager&lt; Field &gt;</text>
</a>
</g>
</g>
<!-- Node1&#45;&gt;Node4 -->
<g id="edge3_Node000001_Node000004" class="edge">
<title>Node1&#45;&gt;Node4</title>
<g id="a_edge3_Node000001_Node000004"><a xlink:title=" ">
<path fill="none" stroke="orange" stroke-dasharray="5,2" d="M209.85,-113.07C217.67,-100.14 226.99,-84.71 232.7,-75.27"/>
<polygon fill="orange" stroke="orange" points="206.68,-111.57 204.5,-121.94 212.67,-115.19 206.68,-111.57"/>
</a>
</g>
<text text-anchor="middle" x="244.5" y="-96" font-family="Helvetica,sans-Serif" font-size="10.00" fill="grey"> &lt; Field &gt;</text>
</g>
<!-- Node3 -->
<g id="Node000003" class="node">
<title>Node3</title>
<g id="a_Node000003"><a xlink:href="class_device_manager.html" target="_top" xlink:title="Class for managing all devices.">
<polygon fill="white" stroke="#666666" points="121.5,-19 28.5,-19 28.5,0 121.5,0 121.5,-19"/>
<text text-anchor="middle" x="75" y="-7" font-family="Helvetica,sans-Serif" font-size="10.00">DeviceManager</text>
</a>
</g>
</g>
<!-- Node2&#45;&gt;Node3 -->
<g id="edge2_Node000002_Node000003" class="edge">
<title>Node2&#45;&gt;Node3</title>
<g id="a_edge2_Node000002_Node000003"><a xlink:title=" ">
<path fill="none" stroke="#63b8ff" d="M75,-45.3C75,-36.41 75,-26.28 75,-19.25"/>
<polygon fill="#63b8ff" stroke="#63b8ff" points="71.5,-45.58 75,-55.58 78.5,-45.58 71.5,-45.58"/>
</a>
</g>
</g>
</g>
</svg>
