<?xml version="1.0" encoding="UTF-8" standalone="no"?>
<!DOCTYPE svg PUBLIC "-//W3C//DTD SVG 1.1//EN"
 "http://www.w3.org/Graphics/SVG/1.1/DTD/svg11.dtd">
<!-- Generated by graphviz version 2.43.0 (0)
 -->
<!-- Title: DeviceManager Pages: 1 -->
<svg width="194pt" height="230pt"
 viewBox="0.00 0.00 193.50 230.00" xmlns="http://www.w3.org/2000/svg" xmlns:xlink="http://www.w3.org/1999/xlink">
<g id="graph0" class="graph" transform="scale(1 1) rotate(0) translate(4 226)">
<title>DeviceManager</title>
<polygon fill="white" stroke="transparent" points="-4,4 -4,-226 189.5,-226 189.5,4 -4,4"/>
<!-- Node1 -->
<g id="node1" class="node">
<title>Node1</title>
<g id="a_node1"><a xlink:title="Class for managing all devices.">
<polygon fill="#bfbfbf" stroke="black" points="58.5,-0.5 58.5,-19.5 151.5,-19.5 151.5,-0.5 58.5,-0.5"/>
<text text-anchor="middle" x="105" y="-7.5" font-family="Helvetica,sans-Serif" font-size="10.00">DeviceManager</text>
</a>
</g>
</g>
<!-- Node2 -->
<g id="node2" class="node">
<title>Node2</title>
<g id="a_node2"><a xlink:href="class_lookup_manager.html" target="_top" xlink:title=" ">
<polygon fill="white" stroke="black" points="30,-57.5 30,-76.5 180,-76.5 180,-57.5 30,-57.5"/>
<text text-anchor="middle" x="105" y="-64.5" font-family="Helvetica,sans-Serif" font-size="10.00">LookupManager&lt; Device &gt;</text>
</a>
</g>
</g>
<!-- Node2&#45;&gt;Node1 -->
<g id="edge1" class="edge">
<title>Node2&#45;&gt;Node1</title>
<path fill="none" stroke="midnightblue" d="M105,-47.12C105,-37.82 105,-27.06 105,-19.71"/>
<polygon fill="midnightblue" stroke="midnightblue" points="101.5,-47.41 105,-57.41 108.5,-47.41 101.5,-47.41"/>
</g>
<!-- Node3 -->
<g id="node3" class="node">
<title>Node3</title>
<g id="a_node3"><a xlink:href="class_lookup_manager.html" target="_top" xlink:title="Class for looking up and managing devices and fields.">
<polygon fill="white" stroke="black" points="24.5,-124.5 24.5,-154.5 185.5,-154.5 185.5,-124.5 24.5,-124.5"/>
<text text-anchor="start" x="32.5" y="-142.5" font-family="Helvetica,sans-Serif" font-size="10.00">LookupManager&lt; Lookupable</text>
<text text-anchor="middle" x="105" y="-131.5" font-family="Helvetica,sans-Serif" font-size="10.00">Class &gt;</text>
</a>
</g>
</g>
<!-- Node3&#45;&gt;Node2 -->
<g id="edge2" class="edge">
<title>Node3&#45;&gt;Node2</title>
<path fill="none" stroke="orange" stroke-dasharray="5,2" d="M105,-114.09C105,-101.21 105,-86.2 105,-76.89"/>
<polygon fill="orange" stroke="orange" points="101.5,-114.23 105,-124.23 108.5,-114.23 101.5,-114.23"/>
<text text-anchor="middle" x="135" y="-98" font-family="Helvetica,sans-Serif" font-size="10.00"> &lt; Device &gt;</text>
</g>
<!-- Node4 -->
<g id="node4" class="node">
<title>Node4</title>
<g id="a_node4"><a xlink:title=" ">
<polygon fill="white" stroke="#bfbfbf" points="0,-202.5 0,-221.5 112,-221.5 112,-202.5 0,-202.5"/>
<text text-anchor="middle" x="56" y="-209.5" font-family="Helvetica,sans-Serif" font-size="10.00">LookupableClass **</text>
</a>
</g>
</g>
<!-- Node4&#45;&gt;Node3 -->
<g id="edge3" class="edge">
<title>Node4&#45;&gt;Node3</title>
<path fill="none" stroke="#9a32cd" stroke-dasharray="5,2" d="M67.79,-194.04C76.18,-181.97 87.32,-165.94 95.22,-154.58"/>
<polygon fill="#9a32cd" stroke="#9a32cd" points="64.84,-192.15 62.01,-202.36 70.59,-196.14 64.84,-192.15"/>
<text text-anchor="middle" x="97.5" y="-176" font-family="Helvetica,sans-Serif" font-size="10.00"> items</text>
</g>
<!-- Node5 -->
<g id="node5" class="node">
<title>Node5</title>
<g id="a_node5"><a xlink:title=" ">
<polygon fill="white" stroke="#bfbfbf" points="130,-202.5 130,-221.5 180,-221.5 180,-202.5 130,-202.5"/>
<text text-anchor="middle" x="155" y="-209.5" font-family="Helvetica,sans-Serif" font-size="10.00">uint8_t</text>
</a>
</g>
</g>
<!-- Node5&#45;&gt;Node3 -->
<g id="edge4" class="edge">
<title>Node5&#45;&gt;Node3</title>
<path fill="none" stroke="#9a32cd" stroke-dasharray="5,2" d="M142.97,-194.04C134.41,-181.97 123.04,-165.94 114.98,-154.58"/>
<polygon fill="#9a32cd" stroke="#9a32cd" points="140.23,-196.22 148.87,-202.36 145.94,-192.17 140.23,-196.22"/>
<text text-anchor="middle" x="149.5" y="-176" font-family="Helvetica,sans-Serif" font-size="10.00"> count</text>
</g>
</g>
</svg>
