<?xml version="1.0" encoding="UTF-8" standalone="no"?>
<!DOCTYPE svg PUBLIC "-//W3C//DTD SVG 1.1//EN"
 "http://www.w3.org/Graphics/SVG/1.1/DTD/svg11.dtd">
<!-- Generated by graphviz version 2.43.0 (0)
 -->
<!-- Title: Led::begin Pages: 1 -->
<svg width="244pt" height="27pt"
 viewBox="0.00 0.00 244.00 27.00" xmlns="http://www.w3.org/2000/svg" xmlns:xlink="http://www.w3.org/1999/xlink">
<g id="graph0" class="graph" transform="scale(1 1) rotate(0) translate(4 23)">
<title>Led::begin</title>
<!-- Node1 -->
<g id="Node000001" class="node">
<title>Node1</title>
<g id="a_Node000001"><a xlink:title="Initialises the pins.">
<polygon fill="#999999" stroke="#666666" points="236,-19 169,-19 169,0 236,0 236,-19"/>
<text text-anchor="middle" x="202.5" y="-7" font-family="Helvetica,sans-Serif" font-size="10.00">Led::begin</text>
</a>
</g>
</g>
<!-- Node2 -->
<g id="Node000002" class="node">
<title>Node2</title>
<g id="a_Node000002"><a xlink:href="leds_8cpp.html#a0e9abc4adafb917c6af448aca6042e96" target="_top" xlink:title="Task that manages the LEDs on the unit.">
<polygon fill="white" stroke="#666666" points="133,-19 80,-19 80,0 133,0 133,-19"/>
<text text-anchor="middle" x="106.5" y="-7" font-family="Helvetica,sans-Serif" font-size="10.00">ledTask</text>
</a>
</g>
</g>
<!-- Node1&#45;&gt;Node2 -->
<g id="edge1_Node000001_Node000002" class="edge">
<title>Node1&#45;&gt;Node2</title>
<g id="a_edge1_Node000001_Node000002"><a xlink:title=" ">
<path fill="none" stroke="#63b8ff" d="M158.81,-9.5C150.08,-9.5 141.15,-9.5 133.24,-9.5"/>
<polygon fill="#63b8ff" stroke="#63b8ff" points="158.89,-13 168.89,-9.5 158.89,-6 158.89,-13"/>
</a>
</g>
</g>
<!-- Node3 -->
<g id="Node000003" class="node">
<title>Node3</title>
<g id="a_Node000003"><a xlink:href="main_8cpp.html#a4fc01d736fe50cf5b977f755b675f11d" target="_top" xlink:title=" ">
<polygon fill="white" stroke="#666666" points="44,-19 0,-19 0,0 44,0 44,-19"/>
<text text-anchor="middle" x="22" y="-7" font-family="Helvetica,sans-Serif" font-size="10.00">setup</text>
</a>
</g>
</g>
<!-- Node2&#45;&gt;Node3 -->
<g id="edge2_Node000002_Node000003" class="edge">
<title>Node2&#45;&gt;Node3</title>
<g id="a_edge2_Node000002_Node000003"><a xlink:title=" ">
<path fill="none" stroke="#63b8ff" d="M69.84,-9.5C61.1,-9.5 52.02,-9.5 44.2,-9.5"/>
<polygon fill="#63b8ff" stroke="#63b8ff" points="69.85,-13 79.85,-9.5 69.85,-6 69.85,-13"/>
</a>
</g>
</g>
</g>
</svg>
