<?xml version="1.0" encoding="UTF-8" standalone="no"?>
<!DOCTYPE svg PUBLIC "-//W3C//DTD SVG 1.1//EN"
 "http://www.w3.org/Graphics/SVG/1.1/DTD/svg11.dtd">
<!-- Generated by graphviz version 2.43.0 (0)
 -->
<!-- Title: LookupManager::getWithSymbol Pages: 1 -->
<svg width="752pt" height="82pt"
 viewBox="0.00 0.00 752.00 82.00" xmlns="http://www.w3.org/2000/svg" xmlns:xlink="http://www.w3.org/1999/xlink">
<g id="graph0" class="graph" transform="scale(1 1) rotate(0) translate(4 78)">
<title>LookupManager::getWithSymbol</title>
<!-- Node1 -->
<g id="Node000001" class="node">
<title>Node1</title>
<g id="a_Node000001"><a xlink:title="Gets the object with the given symbol.">
<polygon fill="#999999" stroke="#666666" points="744,-55 569,-55 569,-36 744,-36 744,-55"/>
<text text-anchor="middle" x="656.5" y="-43" font-family="Helvetica,sans-Serif" font-size="10.00">LookupManager::getWithSymbol</text>
</a>
</g>
</g>
<!-- Node2 -->
<g id="Node000002" class="node">
<title>Node2</title>
<g id="a_Node000002"><a xlink:href="class_device.html#a35eba370894e0e1ec39f2043e466b2f6" target="_top" xlink:title="Decodes the payload from a PJON packet and converts it to thingsboard MQTT JSON.">
<polygon fill="white" stroke="#666666" points="533,-74 381,-74 381,-55 533,-55 533,-74"/>
<text text-anchor="middle" x="457" y="-62" font-family="Helvetica,sans-Serif" font-size="10.00">Device::decodePacketFields</text>
</a>
</g>
</g>
<!-- Node1&#45;&gt;Node2 -->
<g id="edge1_Node000001_Node000002" class="edge">
<title>Node1&#45;&gt;Node2</title>
<g id="a_edge1_Node000001_Node000002"><a xlink:title=" ">
<path fill="none" stroke="#63b8ff" d="M558.78,-54.81C550.15,-55.63 541.51,-56.47 533.11,-57.27"/>
<polygon fill="#63b8ff" stroke="#63b8ff" points="559.25,-58.28 568.87,-53.83 558.58,-51.31 559.25,-58.28"/>
</a>
</g>
</g>
<!-- Node4 -->
<g id="Node000004" class="node">
<title>Node4</title>
<g id="a_Node000004"><a xlink:href="lora_8cpp.html#a73337b280bec4397780b012ccc949113" target="_top" xlink:title="Handles an incoming packet received from the radio and adds the given snr and rssi to the packet.">
<polygon fill="white" stroke="#666666" points="307.5,-37 230.5,-37 230.5,-18 307.5,-18 307.5,-37"/>
<text text-anchor="middle" x="269" y="-25" font-family="Helvetica,sans-Serif" font-size="10.00">pjonReceive</text>
</a>
</g>
</g>
<!-- Node1&#45;&gt;Node4 -->
<g id="edge7_Node000001_Node000004" class="edge">
<title>Node1&#45;&gt;Node4</title>
<g id="a_edge7_Node000001_Node000004"><a xlink:title=" ">
<path fill="none" stroke="#63b8ff" d="M558.73,-40.98C477.4,-37.18 365.46,-31.96 307.77,-29.26"/>
<polygon fill="#63b8ff" stroke="#63b8ff" points="558.83,-44.49 568.99,-41.46 559.16,-37.5 558.83,-44.49"/>
</a>
</g>
</g>
<!-- Node3 -->
<g id="Node000003" class="node">
<title>Node3</title>
<g id="a_Node000003"><a xlink:href="class_device.html#af62935178e82991678e319e5b840edbf" target="_top" xlink:title="Decodes the payload from a PJON packet and converts it to thingsboard MQTT JSON. Also adds on packet ...">
<polygon fill="white" stroke="#666666" points="345,-74 193,-74 193,-55 345,-55 345,-74"/>
<text text-anchor="middle" x="269" y="-62" font-family="Helvetica,sans-Serif" font-size="10.00">Device::decodePacketFields</text>
</a>
</g>
</g>
<!-- Node2&#45;&gt;Node3 -->
<g id="edge2_Node000002_Node000003" class="edge">
<title>Node2&#45;&gt;Node3</title>
<g id="a_edge2_Node000002_Node000003"><a xlink:title=" ">
<path fill="none" stroke="#63b8ff" d="M370.85,-64.5C362.26,-64.5 353.57,-64.5 345.1,-64.5"/>
<polygon fill="#63b8ff" stroke="#63b8ff" points="370.88,-68 380.88,-64.5 370.88,-61 370.88,-68"/>
</a>
</g>
</g>
<!-- Node2&#45;&gt;Node4 -->
<g id="edge3_Node000002_Node000004" class="edge">
<title>Node2&#45;&gt;Node4</title>
<g id="a_edge3_Node000002_Node000004"><a xlink:title=" ">
<path fill="none" stroke="#63b8ff" d="M397.95,-52.95C368.54,-47.1 333.67,-40.17 307.77,-35.01"/>
<polygon fill="#63b8ff" stroke="#63b8ff" points="397.61,-56.45 408.1,-54.97 398.98,-49.59 397.61,-56.45"/>
</a>
</g>
</g>
<!-- Node5 -->
<g id="Node000005" class="node">
<title>Node5</title>
<g id="a_Node000005"><a xlink:href="lora_8cpp.html#a0b02ed993c4ccbea85307991879844a6" target="_top" xlink:title="Handles an incoming packet received from the radio. Uses the latest received snr and rssi.">
<polygon fill="white" stroke="#666666" points="157,-56 80,-56 80,-37 157,-37 157,-56"/>
<text text-anchor="middle" x="118.5" y="-44" font-family="Helvetica,sans-Serif" font-size="10.00">pjonReceive</text>
</a>
</g>
</g>
<!-- Node4&#45;&gt;Node5 -->
<g id="edge4_Node000004_Node000005" class="edge">
<title>Node4&#45;&gt;Node5</title>
<g id="a_edge4_Node000004_Node000005"><a xlink:title=" ">
<path fill="none" stroke="#63b8ff" d="M220.09,-33.63C199.65,-36.24 176.17,-39.25 157.03,-41.7"/>
<polygon fill="#63b8ff" stroke="#63b8ff" points="220.67,-37.08 230.14,-32.34 219.78,-30.14 220.67,-37.08"/>
</a>
</g>
</g>
<!-- Node6 -->
<g id="Node000006" class="node">
<title>Node6</title>
<g id="a_Node000006"><a xlink:href="lora_8cpp.html#a6042a1af9411d9eafc7088497f536eb8" target="_top" xlink:title="&quot;Receives&quot; some fake data for testing purposes.">
<polygon fill="white" stroke="#666666" points="148,-19 89,-19 89,0 148,0 148,-19"/>
<text text-anchor="middle" x="118.5" y="-7" font-family="Helvetica,sans-Serif" font-size="10.00">pjonTask</text>
</a>
</g>
</g>
<!-- Node4&#45;&gt;Node6 -->
<g id="edge5_Node000004_Node000006" class="edge">
<title>Node4&#45;&gt;Node6</title>
<g id="a_edge5_Node000004_Node000006"><a xlink:title=" ">
<path fill="none" stroke="#63b8ff" d="M219.97,-21.68C196.36,-18.82 168.7,-15.46 148.38,-13"/>
<polygon fill="#63b8ff" stroke="#63b8ff" points="219.79,-25.18 230.14,-22.91 220.64,-18.23 219.79,-25.18"/>
</a>
</g>
</g>
<!-- Node7 -->
<g id="Node000007" class="node">
<title>Node7</title>
<g id="a_Node000007"><a xlink:href="main_8cpp.html#a4fc01d736fe50cf5b977f755b675f11d" target="_top" xlink:title=" ">
<polygon fill="white" stroke="#666666" points="44,-19 0,-19 0,0 44,0 44,-19"/>
<text text-anchor="middle" x="22" y="-7" font-family="Helvetica,sans-Serif" font-size="10.00">setup</text>
</a>
</g>
</g>
<!-- Node6&#45;&gt;Node7 -->
<g id="edge6_Node000006_Node000007" class="edge">
<title>Node6&#45;&gt;Node7</title>
<g id="a_edge6_Node000006_Node000007"><a xlink:title=" ">
<path fill="none" stroke="#63b8ff" d="M78.72,-9.5C66.84,-9.5 54.23,-9.5 44.01,-9.5"/>
<polygon fill="#63b8ff" stroke="#63b8ff" points="78.89,-13 88.89,-9.5 78.89,-6 78.89,-13"/>
</a>
</g>
</g>
</g>
</svg>
