<?xml version="1.0" encoding="UTF-8" standalone="no"?>
<!DOCTYPE svg PUBLIC "-//W3C//DTD SVG 1.1//EN"
 "http://www.w3.org/Graphics/SVG/1.1/DTD/svg11.dtd">
<!-- Generated by graphviz version 2.43.0 (0)
 -->
<!-- Title: DeviceManager Pages: 1 -->
<svg width="616pt" height="424pt"
 viewBox="0.00 0.00 615.50 424.00" xmlns="http://www.w3.org/2000/svg" xmlns:xlink="http://www.w3.org/1999/xlink">
<g id="graph0" class="graph" transform="scale(1 1) rotate(0) translate(4 420)">
<title>DeviceManager</title>
<!-- Node1 -->
<g id="Node000001" class="node">
<title>Node1</title>
<g id="a_Node000001"><a xlink:title="Class for managing all devices.">
<polygon fill="#999999" stroke="#666666" points="514,-19 421,-19 421,0 514,0 514,-19"/>
<text text-anchor="middle" x="467.5" y="-7" font-family="Helvetica,sans-Serif" font-size="10.00">DeviceManager</text>
</a>
</g>
</g>
<!-- Node2 -->
<g id="Node000002" class="node">
<title>Node2</title>
<g id="a_Node000002"><a xlink:href="class_lookup_manager.html" target="_top" xlink:title=" ">
<polygon fill="white" stroke="#666666" points="542.5,-75 392.5,-75 392.5,-56 542.5,-56 542.5,-75"/>
<text text-anchor="middle" x="467.5" y="-63" font-family="Helvetica,sans-Serif" font-size="10.00">LookupManager&lt; Device &gt;</text>
</a>
</g>
</g>
<!-- Node2&#45;&gt;Node1 -->
<g id="edge1_Node000001_Node000002" class="edge">
<title>Node2&#45;&gt;Node1</title>
<g id="a_edge1_Node000001_Node000002"><a xlink:title=" ">
<path fill="none" stroke="#63b8ff" d="M467.5,-45.3C467.5,-36.41 467.5,-26.28 467.5,-19.25"/>
<polygon fill="#63b8ff" stroke="#63b8ff" points="464,-45.58 467.5,-55.58 471,-45.58 464,-45.58"/>
</a>
</g>
</g>
<!-- Node3 -->
<g id="Node000003" class="node">
<title>Node3</title>
<g id="a_Node000003"><a xlink:href="class_device.html" target="_top" xlink:title="Each sensor / device on the PJON network.">
<polygon fill="white" stroke="#666666" points="362.5,-141 312.5,-141 312.5,-122 362.5,-122 362.5,-141"/>
<text text-anchor="middle" x="337.5" y="-129" font-family="Helvetica,sans-Serif" font-size="10.00">Device</text>
</a>
</g>
</g>
<!-- Node3&#45;&gt;Node2 -->
<g id="edge2_Node000002_Node000003" class="edge">
<title>Node3&#45;&gt;Node2</title>
<g id="a_edge2_Node000002_Node000003"><a xlink:title=" ">
<path fill="none" stroke="#9a32cd" stroke-dasharray="5,2" d="M364.19,-117.36C389.8,-104.75 427.76,-86.06 449.83,-75.2"/>
<polygon fill="#9a32cd" stroke="#9a32cd" points="362.46,-114.31 355.03,-121.87 365.55,-120.59 362.46,-114.31"/>
</a>
</g>
<text text-anchor="middle" x="425" y="-96" font-family="Helvetica,sans-Serif" font-size="10.00" fill="grey"> items</text>
</g>
<!-- Node4 -->
<g id="Node000004" class="node">
<title>Node4</title>
<g id="a_Node000004"><a xlink:href="class_lookupable.html" target="_top" xlink:title="Class for fields and devices that can be managed by LookupManager.">
<polygon fill="white" stroke="#666666" points="137.5,-350 65.5,-350 65.5,-331 137.5,-331 137.5,-350"/>
<text text-anchor="middle" x="101.5" y="-338" font-family="Helvetica,sans-Serif" font-size="10.00">Lookupable</text>
</a>
</g>
</g>
<!-- Node4&#45;&gt;Node3 -->
<g id="edge3_Node000003_Node000004" class="edge">
<title>Node4&#45;&gt;Node3</title>
<g id="a_edge3_Node000003_Node000004"><a xlink:title=" ">
<path fill="none" stroke="#63b8ff" d="M114.65,-322.5C128.82,-304.63 152.46,-276.1 175.5,-254 209.51,-221.37 220.76,-216.23 258.5,-188 281.45,-170.83 308.99,-151.84 324.75,-141.12"/>
<polygon fill="#63b8ff" stroke="#63b8ff" points="111.57,-320.75 108.16,-330.78 117.08,-325.07 111.57,-320.75"/>
</a>
</g>
</g>
<!-- Node8 -->
<g id="Node000008" class="node">
<title>Node8</title>
<g id="a_Node000008"><a xlink:href="class_field.html" target="_top" xlink:title="Class for handling data fields in messages.">
<polygon fill="white" stroke="#666666" points="224.5,-278.5 184.5,-278.5 184.5,-259.5 224.5,-259.5 224.5,-278.5"/>
<text text-anchor="middle" x="204.5" y="-266.5" font-family="Helvetica,sans-Serif" font-size="10.00">Field</text>
</a>
</g>
</g>
<!-- Node4&#45;&gt;Node8 -->
<g id="edge8_Node000008_Node000004" class="edge">
<title>Node4&#45;&gt;Node8</title>
<g id="a_edge8_Node000008_Node000004"><a xlink:title=" ">
<path fill="none" stroke="#63b8ff" d="M122.61,-325.26C143.4,-311.23 174.49,-290.25 191.77,-278.59"/>
<polygon fill="#63b8ff" stroke="#63b8ff" points="120.46,-322.48 114.13,-330.98 124.38,-328.29 120.46,-322.48"/>
</a>
</g>
</g>
<!-- Node5 -->
<g id="Node000005" class="node">
<title>Node5</title>
<g id="a_Node000005"><a xlink:title=" ">
<polygon fill="white" stroke="#666666" points="101,-416 0,-416 0,-397 101,-397 101,-416"/>
<text text-anchor="middle" x="50.5" y="-404" font-family="Helvetica,sans-Serif" font-size="10.00">const char *const</text>
</a>
</g>
</g>
<!-- Node5&#45;&gt;Node4 -->
<g id="edge4_Node000004_Node000005" class="edge">
<title>Node5&#45;&gt;Node4</title>
<g id="a_edge4_Node000004_Node000005"><a xlink:title=" ">
<path fill="none" stroke="#9a32cd" stroke-dasharray="5,2" d="M63.83,-388.77C73.62,-376.49 86.52,-360.3 94.4,-350.41"/>
<polygon fill="#9a32cd" stroke="#9a32cd" points="60.87,-386.87 57.38,-396.87 66.35,-391.23 60.87,-386.87"/>
</a>
</g>
<text text-anchor="middle" x="95" y="-371" font-family="Helvetica,sans-Serif" font-size="10.00" fill="grey"> name</text>
</g>
<!-- Node6 -->
<g id="Node000006" class="node">
<title>Node6</title>
<g id="a_Node000006"><a xlink:title=" ">
<polygon fill="white" stroke="#666666" points="186,-416 119,-416 119,-397 186,-397 186,-416"/>
<text text-anchor="middle" x="152.5" y="-404" font-family="Helvetica,sans-Serif" font-size="10.00">const char</text>
</a>
</g>
</g>
<!-- Node6&#45;&gt;Node4 -->
<g id="edge5_Node000004_Node000006" class="edge">
<title>Node6&#45;&gt;Node4</title>
<g id="a_edge5_Node000004_Node000006"><a xlink:title=" ">
<path fill="none" stroke="#9a32cd" stroke-dasharray="5,2" d="M139.17,-388.77C129.38,-376.49 116.48,-360.3 108.6,-350.41"/>
<polygon fill="#9a32cd" stroke="#9a32cd" points="136.65,-391.23 145.62,-396.87 142.13,-386.87 136.65,-391.23"/>
</a>
</g>
<text text-anchor="middle" x="149.5" y="-371" font-family="Helvetica,sans-Serif" font-size="10.00" fill="grey"> symbol</text>
</g>
<!-- Node7 -->
<g id="Node000007" class="node">
<title>Node7</title>
<g id="a_Node000007"><a xlink:href="class_lookup_manager.html" target="_top" xlink:title=" ">
<polygon fill="white" stroke="#666666" points="407.5,-207 267.5,-207 267.5,-188 407.5,-188 407.5,-207"/>
<text text-anchor="middle" x="337.5" y="-195" font-family="Helvetica,sans-Serif" font-size="10.00">LookupManager&lt; Field &gt;</text>
</a>
</g>
</g>
<!-- Node7&#45;&gt;Node3 -->
<g id="edge6_Node000003_Node000007" class="edge">
<title>Node7&#45;&gt;Node3</title>
<g id="a_edge6_Node000003_Node000007"><a xlink:title=" ">
<path fill="none" stroke="#9a32cd" stroke-dasharray="5,2" d="M337.5,-177.58C337.5,-165.63 337.5,-150.72 337.5,-141.41"/>
<polygon fill="#9a32cd" stroke="#9a32cd" points="334,-177.87 337.5,-187.87 341,-177.87 334,-177.87"/>
</a>
</g>
<text text-anchor="middle" x="352.5" y="-162" font-family="Helvetica,sans-Serif" font-size="10.00" fill="grey"> fields</text>
</g>
<!-- Node8&#45;&gt;Node7 -->
<g id="edge7_Node000007_Node000008" class="edge">
<title>Node8&#45;&gt;Node7</title>
<g id="a_edge7_Node000007_Node000008"><a xlink:title=" ">
<path fill="none" stroke="#9a32cd" stroke-dasharray="5,2" d="M229.97,-254.69C256.8,-240.67 298.25,-219.01 321.06,-207.09"/>
<polygon fill="#9a32cd" stroke="#9a32cd" points="228.05,-251.74 220.81,-259.48 231.29,-257.95 228.05,-251.74"/>
</a>
</g>
<text text-anchor="middle" x="298" y="-228" font-family="Helvetica,sans-Serif" font-size="10.00" fill="grey"> items</text>
</g>
<!-- Node9 -->
<g id="Node000009" class="node">
<title>Node9</title>
<g id="a_Node000009"><a xlink:href="classuint8__t.html" target="_top" xlink:title=" ">
<polygon fill="white" stroke="#666666" points="378.5,-350 328.5,-350 328.5,-331 378.5,-331 378.5,-350"/>
<text text-anchor="middle" x="353.5" y="-338" font-family="Helvetica,sans-Serif" font-size="10.00">uint8_t</text>
</a>
</g>
</g>
<!-- Node9&#45;&gt;Node2 -->
<g id="edge15_Node000002_Node000009" class="edge">
<title>Node9&#45;&gt;Node2</title>
<g id="a_edge15_Node000002_Node000009"><a xlink:title=" ">
<path fill="none" stroke="#9a32cd" stroke-dasharray="5,2" d="M388.36,-333.44C431.54,-325.91 499.79,-313.93 502.5,-313 528.64,-304.03 534.09,-298.68 557.5,-284 566.39,-278.43 576.5,-280.49 576.5,-270 576.5,-270 576.5,-270 576.5,-130.5 576.5,-99.78 543.9,-83.52 514.36,-75.09"/>
<polygon fill="#9a32cd" stroke="#9a32cd" points="387.75,-329.99 378.5,-335.15 388.96,-336.89 387.75,-329.99"/>
</a>
</g>
<text text-anchor="middle" x="592" y="-195" font-family="Helvetica,sans-Serif" font-size="10.00" fill="grey"> count</text>
</g>
<!-- Node9&#45;&gt;Node7 -->
<g id="edge11_Node000007_Node000009" class="edge">
<title>Node9&#45;&gt;Node7</title>
<g id="a_edge11_Node000007_Node000009"><a xlink:title=" ">
<path fill="none" stroke="#9a32cd" stroke-dasharray="5,2" d="M351.33,-320.39C347.83,-289.49 341.05,-229.77 338.5,-207.32"/>
<polygon fill="#9a32cd" stroke="#9a32cd" points="347.89,-321.14 352.5,-330.68 354.85,-320.35 347.89,-321.14"/>
</a>
</g>
<text text-anchor="middle" x="362" y="-266.5" font-family="Helvetica,sans-Serif" font-size="10.00" fill="grey"> count</text>
</g>
<!-- Node9&#45;&gt;Node8 -->
<g id="edge9_Node000008_Node000009" class="edge">
<title>Node9&#45;&gt;Node8</title>
<g id="a_edge9_Node000008_Node000009"><a xlink:title=" ">
<path fill="none" stroke="#9a32cd" stroke-dasharray="5,2" d="M318.59,-334.33C298.68,-330.41 273.75,-323.79 253.5,-313 236.72,-304.06 220.86,-288.33 211.94,-278.58"/>
<polygon fill="#9a32cd" stroke="#9a32cd" points="318.02,-337.79 328.49,-336.15 319.29,-330.9 318.02,-337.79"/>
</a>
</g>
<text text-anchor="middle" x="292.5" y="-305" font-family="Helvetica,sans-Serif" font-size="10.00" fill="grey"> encodedLength</text>
</g>
<!-- Node11 -->
<g id="Node000011" class="node">
<title>Node11</title>
<g id="a_Node000011"><a xlink:href="class_lookup_manager.html" target="_top" xlink:title="Class for looking up and managing devices and fields.">
<polygon fill="white" stroke="#666666" points="548,-284 387,-284 387,-254 548,-254 548,-284"/>
<text text-anchor="start" x="395" y="-272" font-family="Helvetica,sans-Serif" font-size="10.00">LookupManager&lt; Lookupable</text>
<text text-anchor="middle" x="467.5" y="-261" font-family="Helvetica,sans-Serif" font-size="10.00">Class &gt;</text>
</a>
</g>
</g>
<!-- Node9&#45;&gt;Node11 -->
<g id="edge14_Node000011_Node000009" class="edge">
<title>Node9&#45;&gt;Node11</title>
<g id="a_edge14_Node000011_Node000009"><a xlink:title=" ">
<path fill="none" stroke="#9a32cd" stroke-dasharray="5,2" d="M376.13,-325.7C395.87,-313.67 424.4,-296.28 444.31,-284.14"/>
<polygon fill="#9a32cd" stroke="#9a32cd" points="374.2,-322.78 367.48,-330.98 377.84,-328.76 374.2,-322.78"/>
</a>
</g>
<text text-anchor="middle" x="429" y="-305" font-family="Helvetica,sans-Serif" font-size="10.00" fill="grey"> count</text>
</g>
<!-- Node10 -->
<g id="Node000010" class="node">
<title>Node10</title>
<g id="a_Node000010"><a xlink:title=" ">
<polygon fill="white" stroke="#666666" points="193.5,-350 155.5,-350 155.5,-331 193.5,-331 193.5,-350"/>
<text text-anchor="middle" x="174.5" y="-338" font-family="Helvetica,sans-Serif" font-size="10.00">bool</text>
</a>
</g>
</g>
<!-- Node10&#45;&gt;Node8 -->
<g id="edge10_Node000008_Node000010" class="edge">
<title>Node10&#45;&gt;Node8</title>
<g id="a_edge10_Node000008_Node000010"><a xlink:title=" ">
<path fill="none" stroke="#9a32cd" stroke-dasharray="5,2" d="M171.07,-320.7C170.7,-314.55 171.15,-307.81 173.5,-302 177.33,-292.54 185.45,-284.32 192.42,-278.59"/>
<polygon fill="#9a32cd" stroke="#9a32cd" points="167.62,-321.33 172.36,-330.81 174.56,-320.45 167.62,-321.33"/>
</a>
</g>
<text text-anchor="middle" x="202" y="-305" font-family="Helvetica,sans-Serif" font-size="10.00" fill="grey"> txRequired</text>
</g>
<!-- Node11&#45;&gt;Node2 -->
<g id="edge16_Node000002_Node000011" class="edge">
<title>Node11&#45;&gt;Node2</title>
<g id="a_edge16_Node000002_Node000011"><a xlink:title=" ">
<path fill="none" stroke="orange" stroke-dasharray="5,2" d="M467.5,-243.76C467.5,-198.71 467.5,-104.01 467.5,-75.08"/>
<polygon fill="orange" stroke="orange" points="464,-243.83 467.5,-253.83 471,-243.83 464,-243.83"/>
</a>
</g>
<text text-anchor="middle" x="497.5" y="-162" font-family="Helvetica,sans-Serif" font-size="10.00" fill="grey"> &lt; Device &gt;</text>
</g>
<!-- Node11&#45;&gt;Node7 -->
<g id="edge12_Node000007_Node000011" class="edge">
<title>Node11&#45;&gt;Node7</title>
<g id="a_edge12_Node000007_Node000011"><a xlink:title=" ">
<path fill="none" stroke="orange" stroke-dasharray="5,2" d="M430.19,-249.36C421.71,-245.04 412.77,-240.41 404.5,-236 386.39,-226.34 365.82,-214.73 352.31,-207.01"/>
<polygon fill="orange" stroke="orange" points="428.65,-252.5 439.15,-253.9 431.81,-246.26 428.65,-252.5"/>
</a>
</g>
<text text-anchor="middle" x="429" y="-228" font-family="Helvetica,sans-Serif" font-size="10.00" fill="grey"> &lt; Field &gt;</text>
</g>
<!-- Node12 -->
<g id="Node000012" class="node">
<title>Node12</title>
<g id="a_Node000012"><a xlink:title=" ">
<polygon fill="white" stroke="#666666" points="523.5,-350 411.5,-350 411.5,-331 523.5,-331 523.5,-350"/>
<text text-anchor="middle" x="467.5" y="-338" font-family="Helvetica,sans-Serif" font-size="10.00">LookupableClass **</text>
</a>
</g>
</g>
<!-- Node12&#45;&gt;Node11 -->
<g id="edge13_Node000011_Node000012" class="edge">
<title>Node12&#45;&gt;Node11</title>
<g id="a_edge13_Node000011_Node000012"><a xlink:title=" ">
<path fill="none" stroke="#9a32cd" stroke-dasharray="5,2" d="M467.5,-320.71C467.5,-309.19 467.5,-294.68 467.5,-284.14"/>
<polygon fill="#9a32cd" stroke="#9a32cd" points="464,-320.98 467.5,-330.98 471,-320.98 464,-320.98"/>
</a>
</g>
<text text-anchor="middle" x="483" y="-305" font-family="Helvetica,sans-Serif" font-size="10.00" fill="grey"> items</text>
</g>
</g>
</svg>
