<?xml version="1.0" encoding="UTF-8" standalone="no"?>
<!DOCTYPE svg PUBLIC "-//W3C//DTD SVG 1.1//EN"
 "http://www.w3.org/Graphics/SVG/1.1/DTD/svg11.dtd">
<!-- Generated by graphviz version 2.43.0 (0)
 -->
<!-- Title: Field Pages: 1 -->
<svg width="334pt" height="159pt"
 viewBox="0.00 0.00 333.50 159.00" xmlns="http://www.w3.org/2000/svg" xmlns:xlink="http://www.w3.org/1999/xlink">
<g id="graph0" class="graph" transform="scale(1 1) rotate(0) translate(4 155)">
<title>Field</title>
<!-- Node1 -->
<g id="Node000001" class="node">
<title>Node1</title>
<g id="a_Node000001"><a xlink:title="Class for handling data fields in messages.">
<polygon fill="#999999" stroke="#666666" points="200.5,-19 160.5,-19 160.5,0 200.5,0 200.5,-19"/>
<text text-anchor="middle" x="180.5" y="-7" font-family="Helvetica,sans-Serif" font-size="10.00">Field</text>
</a>
</g>
</g>
<!-- Node2 -->
<g id="Node000002" class="node">
<title>Node2</title>
<g id="a_Node000002"><a xlink:href="class_lookupable.html" target="_top" xlink:title="Class for fields and devices that can be managed by LookupManager.">
<polygon fill="white" stroke="#666666" points="137.5,-85 65.5,-85 65.5,-66 137.5,-66 137.5,-85"/>
<text text-anchor="middle" x="101.5" y="-73" font-family="Helvetica,sans-Serif" font-size="10.00">Lookupable</text>
</a>
</g>
</g>
<!-- Node2&#45;&gt;Node1 -->
<g id="edge1_Node000001_Node000002" class="edge">
<title>Node2&#45;&gt;Node1</title>
<g id="a_edge1_Node000001_Node000002"><a xlink:title=" ">
<path fill="none" stroke="#63b8ff" d="M120.03,-59.49C135.5,-46.96 157,-29.54 169.76,-19.2"/>
<polygon fill="#63b8ff" stroke="#63b8ff" points="117.72,-56.85 112.15,-65.87 122.13,-62.29 117.72,-56.85"/>
</a>
</g>
</g>
<!-- Node3 -->
<g id="Node000003" class="node">
<title>Node3</title>
<g id="a_Node000003"><a xlink:title=" ">
<polygon fill="white" stroke="#666666" points="101,-151 0,-151 0,-132 101,-132 101,-151"/>
<text text-anchor="middle" x="50.5" y="-139" font-family="Helvetica,sans-Serif" font-size="10.00">const char *const</text>
</a>
</g>
</g>
<!-- Node3&#45;&gt;Node2 -->
<g id="edge2_Node000002_Node000003" class="edge">
<title>Node3&#45;&gt;Node2</title>
<g id="a_edge2_Node000002_Node000003"><a xlink:title=" ">
<path fill="none" stroke="#9a32cd" stroke-dasharray="5,2" d="M63.83,-123.77C73.62,-111.49 86.52,-95.3 94.4,-85.41"/>
<polygon fill="#9a32cd" stroke="#9a32cd" points="60.87,-121.87 57.38,-131.87 66.35,-126.23 60.87,-121.87"/>
</a>
</g>
<text text-anchor="middle" x="95" y="-106" font-family="Helvetica,sans-Serif" font-size="10.00" fill="grey"> name</text>
</g>
<!-- Node4 -->
<g id="Node000004" class="node">
<title>Node4</title>
<g id="a_Node000004"><a xlink:title=" ">
<polygon fill="white" stroke="#666666" points="186,-151 119,-151 119,-132 186,-132 186,-151"/>
<text text-anchor="middle" x="152.5" y="-139" font-family="Helvetica,sans-Serif" font-size="10.00">const char</text>
</a>
</g>
</g>
<!-- Node4&#45;&gt;Node2 -->
<g id="edge3_Node000002_Node000004" class="edge">
<title>Node4&#45;&gt;Node2</title>
<g id="a_edge3_Node000002_Node000004"><a xlink:title=" ">
<path fill="none" stroke="#9a32cd" stroke-dasharray="5,2" d="M139.17,-123.77C129.38,-111.49 116.48,-95.3 108.6,-85.41"/>
<polygon fill="#9a32cd" stroke="#9a32cd" points="136.65,-126.23 145.62,-131.87 142.13,-121.87 136.65,-126.23"/>
</a>
</g>
<text text-anchor="middle" x="150.5" y="-106" font-family="Helvetica,sans-Serif" font-size="10.00" fill="grey"> symbol</text>
</g>
<!-- Node5 -->
<g id="Node000005" class="node">
<title>Node5</title>
<g id="a_Node000005"><a xlink:href="classuint8__t.html" target="_top" xlink:title=" ">
<polygon fill="white" stroke="#666666" points="205.5,-85 155.5,-85 155.5,-66 205.5,-66 205.5,-85"/>
<text text-anchor="middle" x="180.5" y="-73" font-family="Helvetica,sans-Serif" font-size="10.00">uint8_t</text>
</a>
</g>
</g>
<!-- Node5&#45;&gt;Node1 -->
<g id="edge4_Node000001_Node000005" class="edge">
<title>Node5&#45;&gt;Node1</title>
<g id="a_edge4_Node000001_Node000005"><a xlink:title=" ">
<path fill="none" stroke="#9a32cd" stroke-dasharray="5,2" d="M180.5,-55.58C180.5,-43.63 180.5,-28.72 180.5,-19.41"/>
<polygon fill="#9a32cd" stroke="#9a32cd" points="177,-55.87 180.5,-65.87 184,-55.87 177,-55.87"/>
</a>
</g>
<text text-anchor="middle" x="219.5" y="-40" font-family="Helvetica,sans-Serif" font-size="10.00" fill="grey"> encodedLength</text>
</g>
<!-- Node6 -->
<g id="Node000006" class="node">
<title>Node6</title>
<g id="a_Node000006"><a xlink:title=" ">
<polygon fill="white" stroke="#666666" points="300.5,-85 262.5,-85 262.5,-66 300.5,-66 300.5,-85"/>
<text text-anchor="middle" x="281.5" y="-73" font-family="Helvetica,sans-Serif" font-size="10.00">bool</text>
</a>
</g>
</g>
<!-- Node6&#45;&gt;Node1 -->
<g id="edge5_Node000001_Node000006" class="edge">
<title>Node6&#45;&gt;Node1</title>
<g id="a_edge5_Node000001_Node000006"><a xlink:title=" ">
<path fill="none" stroke="#9a32cd" stroke-dasharray="5,2" d="M274.24,-56.45C270.69,-49.55 265.8,-42.11 259.5,-37 242.43,-23.14 217.78,-16.4 200.57,-13.2"/>
<polygon fill="#9a32cd" stroke="#9a32cd" points="271.18,-58.18 278.49,-65.85 277.56,-55.29 271.18,-58.18"/>
</a>
</g>
<text text-anchor="middle" x="297" y="-40" font-family="Helvetica,sans-Serif" font-size="10.00" fill="grey"> txRequired</text>
</g>
</g>
</svg>
