<?xml version="1.0" encoding="UTF-8" standalone="no"?>
<!DOCTYPE svg PUBLIC "-//W3C//DTD SVG 1.1//EN"
 "http://www.w3.org/Graphics/SVG/1.1/DTD/svg11.dtd">
<!-- Generated by graphviz version 2.43.0 (0)
 -->
<!-- Title: DeviceManager::txRequired Pages: 1 -->
<svg width="507pt" height="64pt"
 viewBox="0.00 0.00 507.00 64.00" xmlns="http://www.w3.org/2000/svg" xmlns:xlink="http://www.w3.org/1999/xlink">
<g id="graph0" class="graph" transform="scale(1 1) rotate(0) translate(4 60)">
<title>DeviceManager::txRequired</title>
<!-- Node1 -->
<g id="Node000001" class="node">
<title>Node1</title>
<g id="a_Node000001"><a xlink:title="Returns the number of packets that need to be sent across all devices.">
<polygon fill="#999999" stroke="#666666" points="499,-38 347,-38 347,-19 499,-19 499,-38"/>
<text text-anchor="middle" x="423" y="-26" font-family="Helvetica,sans-Serif" font-size="10.00">DeviceManager::txRequired</text>
</a>
</g>
</g>
<!-- Node2 -->
<g id="Node000002" class="node">
<title>Node2</title>
<g id="a_Node000002"><a xlink:href="leds_8cpp.html#a0e9abc4adafb917c6af448aca6042e96" target="_top" xlink:title="Task that manages the LEDs on the unit.">
<polygon fill="white" stroke="#666666" points="141,-56 88,-56 88,-37 141,-37 141,-56"/>
<text text-anchor="middle" x="114.5" y="-44" font-family="Helvetica,sans-Serif" font-size="10.00">ledTask</text>
</a>
</g>
</g>
<!-- Node1&#45;&gt;Node2 -->
<g id="edge1_Node000001_Node000002" class="edge">
<title>Node1&#45;&gt;Node2</title>
<g id="a_edge1_Node000001_Node000002"><a xlink:title=" ">
<path fill="none" stroke="#63b8ff" d="M336.25,-33.54C270.41,-37.4 183.8,-42.49 141.3,-44.99"/>
<polygon fill="#63b8ff" stroke="#63b8ff" points="336.85,-37.01 346.63,-32.93 336.44,-30.02 336.85,-37.01"/>
</a>
</g>
</g>
<!-- Node4 -->
<g id="Node000004" class="node">
<title>Node4</title>
<g id="a_Node000004"><a xlink:href="lora_8cpp.html#ab4d91a7f25182323f789a4e986c08cd8" target="_top" xlink:title="Updates the attribute waiting to false if required.">
<polygon fill="white" stroke="#666666" points="311,-19 185,-19 185,0 311,0 311,-19"/>
<text text-anchor="middle" x="248" y="-7" font-family="Helvetica,sans-Serif" font-size="10.00">sendOnTxNotRequired</text>
</a>
</g>
</g>
<!-- Node1&#45;&gt;Node4 -->
<g id="edge3_Node000001_Node000004" class="edge">
<title>Node1&#45;&gt;Node4</title>
<g id="a_edge3_Node000001_Node000004"><a xlink:title=" ">
<path fill="none" stroke="#63b8ff" d="M336.75,-19.14C328.09,-18.19 319.43,-17.23 311.09,-16.32"/>
<polygon fill="#63b8ff" stroke="#63b8ff" points="336.55,-22.64 346.87,-20.25 337.32,-15.68 336.55,-22.64"/>
</a>
</g>
</g>
<!-- Node3 -->
<g id="Node000003" class="node">
<title>Node3</title>
<g id="a_Node000003"><a xlink:href="main_8cpp.html#a4fc01d736fe50cf5b977f755b675f11d" target="_top" xlink:title=" ">
<polygon fill="white" stroke="#666666" points="44,-37 0,-37 0,-18 44,-18 44,-37"/>
<text text-anchor="middle" x="22" y="-25" font-family="Helvetica,sans-Serif" font-size="10.00">setup</text>
</a>
</g>
</g>
<!-- Node2&#45;&gt;Node3 -->
<g id="edge2_Node000002_Node000003" class="edge">
<title>Node2&#45;&gt;Node3</title>
<g id="a_edge2_Node000002_Node000003"><a xlink:title=" ">
<path fill="none" stroke="#63b8ff" d="M77.7,-38.98C66.34,-36.6 54.16,-34.04 44.18,-31.95"/>
<polygon fill="#63b8ff" stroke="#63b8ff" points="77.3,-42.48 87.81,-41.11 78.74,-35.63 77.3,-42.48"/>
</a>
</g>
</g>
<!-- Node5 -->
<g id="Node000005" class="node">
<title>Node5</title>
<g id="a_Node000005"><a xlink:href="lora_8cpp.html#aa56d712b5af48cc40bd9ef0dac6cb797" target="_top" xlink:title="Task for sending packets when needed.">
<polygon fill="white" stroke="#666666" points="149,-19 80,-19 80,0 149,0 149,-19"/>
<text text-anchor="middle" x="114.5" y="-7" font-family="Helvetica,sans-Serif" font-size="10.00">loraTxTask</text>
</a>
</g>
</g>
<!-- Node4&#45;&gt;Node5 -->
<g id="edge4_Node000004_Node000005" class="edge">
<title>Node4&#45;&gt;Node5</title>
<g id="a_edge4_Node000004_Node000005"><a xlink:title=" ">
<path fill="none" stroke="#63b8ff" d="M174.69,-9.5C165.85,-9.5 157.16,-9.5 149.28,-9.5"/>
<polygon fill="#63b8ff" stroke="#63b8ff" points="174.72,-13 184.72,-9.5 174.72,-6 174.72,-13"/>
</a>
</g>
</g>
<!-- Node5&#45;&gt;Node3 -->
<g id="edge5_Node000005_Node000003" class="edge">
<title>Node5&#45;&gt;Node3</title>
<g id="a_edge5_Node000005_Node000003"><a xlink:title=" ">
<path fill="none" stroke="#63b8ff" d="M69.81,-18.19C60.86,-19.97 51.82,-21.77 44.11,-23.3"/>
<polygon fill="#63b8ff" stroke="#63b8ff" points="70.68,-21.59 79.8,-16.2 69.31,-14.72 70.68,-21.59"/>
</a>
</g>
</g>
</g>
</svg>
