<?xml version="1.0" encoding="UTF-8" standalone="no"?>
<!DOCTYPE svg PUBLIC "-//W3C//DTD SVG 1.1//EN"
 "http://www.w3.org/Graphics/SVG/1.1/DTD/svg11.dtd">
<!-- Generated by graphviz version 2.43.0 (0)
 -->
<!-- Title: PumpOnTimeField::decode Pages: 1 -->
<svg width="323pt" height="66pt"
 viewBox="0.00 0.00 323.00 66.00" xmlns="http://www.w3.org/2000/svg" xmlns:xlink="http://www.w3.org/1999/xlink">
<g id="graph0" class="graph" transform="scale(1 1) rotate(0) translate(4 62)">
<title>PumpOnTimeField::decode</title>
<polygon fill="white" stroke="transparent" points="-4,4 -4,-62 319,-62 319,4 -4,4"/>
<!-- Node1 -->
<g id="node1" class="node">
<title>Node1</title>
<g id="a_node1"><a xlink:title="Decodes the value from bytes into an existing json document.">
<polygon fill="#bfbfbf" stroke="black" points="0,-19.5 0,-38.5 147,-38.5 147,-19.5 0,-19.5"/>
<text text-anchor="middle" x="73.5" y="-26.5" font-family="Helvetica,sans-Serif" font-size="10.00">PumpOnTimeField::decode</text>
</a>
</g>
</g>
<!-- Node2 -->
<g id="node2" class="node">
<title>Node2</title>
<g id="a_node2"><a xlink:href="fields_8cpp.html#a3bf8d3e001342549c5a7773994db5870" target="_top" xlink:title=" ">
<polygon fill="white" stroke="black" points="201.5,-38.5 201.5,-57.5 296.5,-57.5 296.5,-38.5 201.5,-38.5"/>
<text text-anchor="middle" x="249" y="-45.5" font-family="Helvetica,sans-Serif" font-size="10.00">byteArrayToUInt</text>
</a>
</g>
</g>
<!-- Node1&#45;&gt;Node2 -->
<g id="edge1" class="edge">
<title>Node1&#45;&gt;Node2</title>
<path fill="none" stroke="midnightblue" d="M147.07,-36.95C161.87,-38.57 177.23,-40.25 191.37,-41.8"/>
<polygon fill="midnightblue" stroke="midnightblue" points="191.11,-45.29 201.43,-42.9 191.87,-38.33 191.11,-45.29"/>
</g>
<!-- Node3 -->
<g id="node3" class="node">
<title>Node3</title>
<g id="a_node3"><a xlink:href="class_field.html#a0f6c46168ecc1113ff61d9fb68d8c763" target="_top" xlink:title="Checks if the value can be decoded from the packet.">
<polygon fill="white" stroke="black" points="183,-0.5 183,-19.5 315,-19.5 315,-0.5 183,-0.5"/>
<text text-anchor="middle" x="249" y="-7.5" font-family="Helvetica,sans-Serif" font-size="10.00">Field::checkDecodeable</text>
</a>
</g>
</g>
<!-- Node1&#45;&gt;Node3 -->
<g id="edge2" class="edge">
<title>Node1&#45;&gt;Node3</title>
<path fill="none" stroke="midnightblue" d="M147.07,-21.05C155.62,-20.12 164.35,-19.16 172.93,-18.22"/>
<polygon fill="midnightblue" stroke="midnightblue" points="173.34,-21.7 182.9,-17.13 172.58,-14.74 173.34,-21.7"/>
</g>
</g>
</svg>
