<?xml version="1.0" encoding="UTF-8" standalone="no"?>
<!DOCTYPE svg PUBLIC "-//W3C//DTD SVG 1.1//EN"
 "http://www.w3.org/Graphics/SVG/1.1/DTD/svg11.dtd">
<!-- Generated by graphviz version 2.43.0 (0)
 -->
<!-- Title: Field Pages: 1 -->
<svg width="664pt" height="314pt"
 viewBox="0.00 0.00 664.00 313.56" xmlns="http://www.w3.org/2000/svg" xmlns:xlink="http://www.w3.org/1999/xlink">
<g id="graph0" class="graph" transform="scale(1 1) rotate(0) translate(4 309.56)">
<title>Field</title>
<!-- Node1 -->
<g id="Node000001" class="node">
<title>Node1</title>
<g id="a_Node000001"><a xlink:title="Class for handling data fields in messages.">
<polygon fill="#999999" stroke="#666666" points="149,-167 109,-167 109,-148 149,-148 149,-167"/>
<text text-anchor="middle" x="129" y="-155" font-family="Helvetica,sans-Serif" font-size="10.00">Field</text>
</a>
</g>
</g>
<!-- Node3 -->
<g id="Node000003" class="node">
<title>Node3</title>
<g id="a_Node000003"><a xlink:href="class_settable_field.html" target="_top" xlink:title=" ">
<polygon fill="white" stroke="#666666" points="516,-223 385,-223 385,-204 516,-204 516,-223"/>
<text text-anchor="middle" x="450.5" y="-211" font-family="Helvetica,sans-Serif" font-size="10.00">SettableField&lt; int8_t &gt;</text>
</a>
</g>
</g>
<!-- Node1&#45;&gt;Node3 -->
<g id="edge2_Node000001_Node000003" class="edge">
<title>Node1&#45;&gt;Node3</title>
<g id="a_edge2_Node000001_Node000003"><a xlink:title=" ">
<path fill="none" stroke="#63b8ff" d="M131.87,-177.4C135.88,-207.37 148.28,-263.16 186,-287.5 271.64,-342.76 398.76,-253.46 437.72,-223.06"/>
<polygon fill="#63b8ff" stroke="#63b8ff" points="135.33,-176.83 130.71,-167.3 128.37,-177.63 135.33,-176.83"/>
</a>
</g>
</g>
<!-- Node6 -->
<g id="Node000006" class="node">
<title>Node6</title>
<g id="a_Node000006"><a xlink:href="class_byte_field.html" target="_top" xlink:title="Fields that contain an unsigned, single byte integer.">
<polygon fill="white" stroke="#666666" points="271.5,-278 209.5,-278 209.5,-259 271.5,-259 271.5,-278"/>
<text text-anchor="middle" x="240.5" y="-266" font-family="Helvetica,sans-Serif" font-size="10.00">ByteField</text>
</a>
</g>
</g>
<!-- Node1&#45;&gt;Node6 -->
<g id="edge5_Node000001_Node000006" class="edge">
<title>Node1&#45;&gt;Node6</title>
<g id="a_edge5_Node000001_Node000006"><a xlink:title=" ">
<path fill="none" stroke="#63b8ff" d="M136.86,-176.65C145.31,-197.64 161.61,-230.91 186,-250.5 192.72,-255.9 201.15,-259.71 209.31,-262.4"/>
<polygon fill="#63b8ff" stroke="#63b8ff" points="140.08,-175.29 133.25,-167.19 133.55,-177.78 140.08,-175.29"/>
</a>
</g>
</g>
<!-- Node7 -->
<g id="Node000007" class="node">
<title>Node7</title>
<g id="a_Node000007"><a xlink:href="class_flag_field.html" target="_top" xlink:title="Fields that don&#39;t have any value or payload.">
<polygon fill="white" stroke="#666666" points="271,-241 210,-241 210,-222 271,-222 271,-241"/>
<text text-anchor="middle" x="240.5" y="-229" font-family="Helvetica,sans-Serif" font-size="10.00">FlagField</text>
</a>
</g>
</g>
<!-- Node1&#45;&gt;Node7 -->
<g id="edge6_Node000001_Node000007" class="edge">
<title>Node1&#45;&gt;Node7</title>
<g id="a_edge6_Node000001_Node000007"><a xlink:title=" ">
<path fill="none" stroke="#63b8ff" d="M143.69,-174.97C154.13,-187.25 169.48,-203.26 186,-213.5 193.25,-217.99 201.75,-221.51 209.81,-224.2"/>
<polygon fill="#63b8ff" stroke="#63b8ff" points="146.35,-172.69 137.3,-167.18 140.94,-177.13 146.35,-172.69"/>
</a>
</g>
</g>
<!-- Node8 -->
<g id="Node000008" class="node">
<title>Node8</title>
<g id="a_Node000008"><a xlink:href="class_long_u_int_field.html" target="_top" xlink:title="Fields that contain an unsigned, 4 byte integer.">
<polygon fill="white" stroke="#666666" points="282,-204 199,-204 199,-185 282,-185 282,-204"/>
<text text-anchor="middle" x="240.5" y="-192" font-family="Helvetica,sans-Serif" font-size="10.00">LongUIntField</text>
</a>
</g>
</g>
<!-- Node1&#45;&gt;Node8 -->
<g id="edge7_Node000001_Node000008" class="edge">
<title>Node1&#45;&gt;Node8</title>
<g id="a_edge7_Node000001_Node000008"><a xlink:title=" ">
<path fill="none" stroke="#63b8ff" d="M158.59,-168.49C161.42,-169.53 164.26,-170.55 167,-171.5 180.35,-176.14 195.2,-180.92 207.97,-184.91"/>
<polygon fill="#63b8ff" stroke="#63b8ff" points="159.72,-165.18 149.13,-164.97 157.28,-171.74 159.72,-165.18"/>
</a>
</g>
</g>
<!-- Node9 -->
<g id="Node000009" class="node">
<title>Node9</title>
<g id="a_Node000009"><a xlink:href="class_pump_on_time_field.html" target="_top" xlink:title="Fields for pump on times (2 bytes in 0.5s increments)">
<polygon fill="white" stroke="#666666" points="293.5,-167 187.5,-167 187.5,-148 293.5,-148 293.5,-167"/>
<text text-anchor="middle" x="240.5" y="-155" font-family="Helvetica,sans-Serif" font-size="10.00">PumpOnTimeField</text>
</a>
</g>
</g>
<!-- Node1&#45;&gt;Node9 -->
<g id="edge8_Node000001_Node000009" class="edge">
<title>Node1&#45;&gt;Node9</title>
<g id="a_edge8_Node000001_Node000009"><a xlink:title=" ">
<path fill="none" stroke="#63b8ff" d="M159.33,-157.5C167.95,-157.5 177.65,-157.5 187.25,-157.5"/>
<polygon fill="#63b8ff" stroke="#63b8ff" points="159.07,-154 149.07,-157.5 159.07,-161 159.07,-154"/>
</a>
</g>
</g>
<!-- Node10 -->
<g id="Node000010" class="node">
<title>Node10</title>
<g id="a_Node000010"><a xlink:href="class_settable_field.html" target="_top" xlink:title="Class for fields that can be set.">
<polygon fill="white" stroke="#666666" points="295,-130 186,-130 186,-111 295,-111 295,-130"/>
<text text-anchor="middle" x="240.5" y="-118" font-family="Helvetica,sans-Serif" font-size="10.00">SettableField&lt; T &gt;</text>
</a>
</g>
</g>
<!-- Node1&#45;&gt;Node10 -->
<g id="edge9_Node000001_Node000010" class="edge">
<title>Node1&#45;&gt;Node10</title>
<g id="a_edge9_Node000001_Node000010"><a xlink:title=" ">
<path fill="none" stroke="#63b8ff" d="M158.9,-147.68C167.61,-144.72 177.19,-141.48 186,-138.5 194.17,-135.74 203.05,-132.75 211.17,-130.01"/>
<polygon fill="#63b8ff" stroke="#63b8ff" points="157.52,-144.45 149.18,-150.98 159.77,-151.08 157.52,-144.45"/>
</a>
</g>
</g>
<!-- Node11 -->
<g id="Node000011" class="node">
<title>Node11</title>
<g id="a_Node000011"><a xlink:href="class_tenths_byte_field.html" target="_top" xlink:title="Field for decoding 1 byte signed data in tenths.">
<polygon fill="white" stroke="#666666" points="287.5,-93 193.5,-93 193.5,-74 287.5,-74 287.5,-93"/>
<text text-anchor="middle" x="240.5" y="-81" font-family="Helvetica,sans-Serif" font-size="10.00">TenthsByteField</text>
</a>
</g>
</g>
<!-- Node1&#45;&gt;Node11 -->
<g id="edge11_Node000001_Node000011" class="edge">
<title>Node1&#45;&gt;Node11</title>
<g id="a_edge11_Node000001_Node000011"><a xlink:title=" ">
<path fill="none" stroke="#63b8ff" d="M143.69,-140.03C154.13,-127.75 169.48,-111.74 186,-101.5 191.41,-98.14 197.53,-95.33 203.64,-93"/>
<polygon fill="#63b8ff" stroke="#63b8ff" points="140.94,-137.87 137.3,-147.82 146.35,-142.31 140.94,-137.87"/>
</a>
</g>
</g>
<!-- Node12 -->
<g id="Node000012" class="node">
<title>Node12</title>
<g id="a_Node000012"><a xlink:href="class_tenths_field.html" target="_top" xlink:title="Field for decoding 2 byte signed data in tenths.">
<polygon fill="white" stroke="#666666" points="276,-56 205,-56 205,-37 276,-37 276,-56"/>
<text text-anchor="middle" x="240.5" y="-44" font-family="Helvetica,sans-Serif" font-size="10.00">TenthsField</text>
</a>
</g>
</g>
<!-- Node1&#45;&gt;Node12 -->
<g id="edge12_Node000001_Node000012" class="edge">
<title>Node1&#45;&gt;Node12</title>
<g id="a_edge12_Node000001_Node000012"><a xlink:title=" ">
<path fill="none" stroke="#63b8ff" d="M136.86,-138.35C145.31,-117.36 161.61,-84.09 186,-64.5 191.5,-60.08 198.14,-56.72 204.84,-54.18"/>
<polygon fill="#63b8ff" stroke="#63b8ff" points="133.55,-137.22 133.25,-147.81 140.08,-139.71 133.55,-137.22"/>
</a>
</g>
</g>
<!-- Node13 -->
<g id="Node000013" class="node">
<title>Node13</title>
<g id="a_Node000013"><a xlink:href="class_u_int_field.html" target="_top" xlink:title="Fields that contain an unsigned, 2 byte integer.">
<polygon fill="white" stroke="#666666" points="270.5,-19 210.5,-19 210.5,0 270.5,0 270.5,-19"/>
<text text-anchor="middle" x="240.5" y="-7" font-family="Helvetica,sans-Serif" font-size="10.00">UIntField</text>
</a>
</g>
</g>
<!-- Node1&#45;&gt;Node13 -->
<g id="edge13_Node000001_Node000013" class="edge">
<title>Node1&#45;&gt;Node13</title>
<g id="a_edge13_Node000001_Node000013"><a xlink:title=" ">
<path fill="none" stroke="#63b8ff" d="M133.26,-137.9C138.98,-109.62 153.45,-57.48 186,-27.5 192.78,-21.26 201.79,-17.17 210.48,-14.5"/>
<polygon fill="#63b8ff" stroke="#63b8ff" points="129.81,-137.32 131.43,-147.79 136.69,-138.6 129.81,-137.32"/>
</a>
</g>
</g>
<!-- Node2 -->
<g id="Node000002" class="node">
<title>Node2</title>
<g id="a_Node000002"><a xlink:href="class_lookupable.html" target="_top" xlink:title="Class for fields and devices that can be managed by LookupManager.">
<polygon fill="white" stroke="#666666" points="72,-167 0,-167 0,-148 72,-148 72,-167"/>
<text text-anchor="middle" x="36" y="-155" font-family="Helvetica,sans-Serif" font-size="10.00">Lookupable</text>
</a>
</g>
</g>
<!-- Node2&#45;&gt;Node1 -->
<g id="edge1_Node000001_Node000002" class="edge">
<title>Node2&#45;&gt;Node1</title>
<g id="a_edge1_Node000001_Node000002"><a xlink:title=" ">
<path fill="none" stroke="#63b8ff" d="M82.3,-157.5C91.7,-157.5 101.12,-157.5 108.93,-157.5"/>
<polygon fill="#63b8ff" stroke="#63b8ff" points="82.18,-154 72.18,-157.5 82.18,-161 82.18,-154"/>
</a>
</g>
</g>
<!-- Node4 -->
<g id="Node000004" class="node">
<title>Node4</title>
<g id="a_Node000004"><a xlink:href="class_settable_byte_field.html" target="_top" xlink:title="Fields that contain an unsigned, single byte integer that can be set using an RPC call.">
<polygon fill="white" stroke="#666666" points="656,-242 553,-242 553,-223 656,-223 656,-242"/>
<text text-anchor="middle" x="604.5" y="-230" font-family="Helvetica,sans-Serif" font-size="10.00">SettableByteField</text>
</a>
</g>
</g>
<!-- Node3&#45;&gt;Node4 -->
<g id="edge3_Node000003_Node000004" class="edge">
<title>Node3&#45;&gt;Node4</title>
<g id="a_edge3_Node000003_Node000004"><a xlink:title=" ">
<path fill="none" stroke="#63b8ff" d="M526.39,-222.86C535.27,-223.97 544.17,-225.08 552.6,-226.14"/>
<polygon fill="#63b8ff" stroke="#63b8ff" points="526.76,-219.38 516.4,-221.61 525.89,-226.33 526.76,-219.38"/>
</a>
</g>
</g>
<!-- Node5 -->
<g id="Node000005" class="node">
<title>Node5</title>
<g id="a_Node000005"><a xlink:href="class_settable_flag_field.html" target="_top" xlink:title="Class for flags that can be set via an RPC call.">
<polygon fill="white" stroke="#666666" points="655,-205 554,-205 554,-186 655,-186 655,-205"/>
<text text-anchor="middle" x="604.5" y="-193" font-family="Helvetica,sans-Serif" font-size="10.00">SettableFlagField</text>
</a>
</g>
</g>
<!-- Node3&#45;&gt;Node5 -->
<g id="edge4_Node000003_Node000005" class="edge">
<title>Node3&#45;&gt;Node5</title>
<g id="a_edge4_Node000003_Node000005"><a xlink:title=" ">
<path fill="none" stroke="#63b8ff" d="M526.49,-204.62C535.83,-203.51 545.18,-202.41 553.99,-201.36"/>
<polygon fill="#63b8ff" stroke="#63b8ff" points="525.92,-201.16 516.4,-205.81 526.74,-208.11 525.92,-201.16"/>
</a>
</g>
</g>
<!-- Node10&#45;&gt;Node3 -->
<g id="edge10_Node000010_Node000003" class="edge">
<title>Node10&#45;&gt;Node3</title>
<g id="a_edge10_Node000010_Node000003"><a xlink:title=" ">
<path fill="none" stroke="orange" stroke-dasharray="5,2" d="M281.78,-133.43C286.27,-135.06 290.75,-136.76 295,-138.5 345.78,-159.27 403.38,-188.93 431.76,-203.97"/>
<polygon fill="orange" stroke="orange" points="282.62,-130.02 272.02,-130.02 280.3,-136.63 282.62,-130.02"/>
</a>
</g>
<text text-anchor="middle" x="340" y="-172.5" font-family="Helvetica,sans-Serif" font-size="10.00" fill="grey"> &lt; int8_t &gt;</text>
</g>
</g>
</svg>
