<?xml version="1.0" encoding="UTF-8" standalone="no"?>
<!DOCTYPE svg PUBLIC "-//W3C//DTD SVG 1.1//EN"
 "http://www.w3.org/Graphics/SVG/1.1/DTD/svg11.dtd">
<!-- Generated by graphviz version 2.43.0 (0)
 -->
<!-- Title: DeviceManager::txRequired Pages: 1 -->
<svg width="507pt" height="66pt"
 viewBox="0.00 0.00 507.00 66.00" xmlns="http://www.w3.org/2000/svg" xmlns:xlink="http://www.w3.org/1999/xlink">
<g id="graph0" class="graph" transform="scale(1 1) rotate(0) translate(4 62)">
<title>DeviceManager::txRequired</title>
<polygon fill="white" stroke="transparent" points="-4,4 -4,-62 503,-62 503,4 -4,4"/>
<!-- Node1 -->
<g id="node1" class="node">
<title>Node1</title>
<g id="a_node1"><a xlink:title="Returns the number of packets that need to be sent across all devices.">
<polygon fill="#bfbfbf" stroke="black" points="347,-19.5 347,-38.5 499,-38.5 499,-19.5 347,-19.5"/>
<text text-anchor="middle" x="423" y="-26.5" font-family="Helvetica,sans-Serif" font-size="10.00">DeviceManager::txRequired</text>
</a>
</g>
</g>
<!-- Node2 -->
<g id="node2" class="node">
<title>Node2</title>
<g id="a_node2"><a xlink:href="leds_8cpp.html#a0e9abc4adafb917c6af448aca6042e96" target="_top" xlink:title="Task that manages the LEDs on the unit.">
<polygon fill="white" stroke="black" points="88,-38.5 88,-57.5 141,-57.5 141,-38.5 88,-38.5"/>
<text text-anchor="middle" x="114.5" y="-45.5" font-family="Helvetica,sans-Serif" font-size="10.00">ledTask</text>
</a>
</g>
</g>
<!-- Node1&#45;&gt;Node2 -->
<g id="edge1" class="edge">
<title>Node1&#45;&gt;Node2</title>
<path fill="none" stroke="midnightblue" d="M336.25,-34.32C270.41,-38.4 183.8,-43.77 141.3,-46.4"/>
<polygon fill="midnightblue" stroke="midnightblue" points="336.86,-37.78 346.63,-33.67 336.43,-30.8 336.86,-37.78"/>
</g>
<!-- Node4 -->
<g id="node4" class="node">
<title>Node4</title>
<g id="a_node4"><a xlink:href="lora_8cpp.html#ab4d91a7f25182323f789a4e986c08cd8" target="_top" xlink:title="updates the attribute waiting to false if required.">
<polygon fill="white" stroke="black" points="185,-0.5 185,-19.5 311,-19.5 311,-0.5 185,-0.5"/>
<text text-anchor="middle" x="248" y="-7.5" font-family="Helvetica,sans-Serif" font-size="10.00">sendOnTxNotRequired</text>
</a>
</g>
</g>
<!-- Node1&#45;&gt;Node4 -->
<g id="edge3" class="edge">
<title>Node1&#45;&gt;Node4</title>
<path fill="none" stroke="midnightblue" d="M336.75,-19.64C328.09,-18.69 319.43,-17.73 311.09,-16.82"/>
<polygon fill="midnightblue" stroke="midnightblue" points="336.55,-23.14 346.87,-20.75 337.32,-16.18 336.55,-23.14"/>
</g>
<!-- Node3 -->
<g id="node3" class="node">
<title>Node3</title>
<g id="a_node3"><a xlink:href="main_8cpp.html#a4fc01d736fe50cf5b977f755b675f11d" target="_top" xlink:title=" ">
<polygon fill="white" stroke="black" points="0,-19.5 0,-38.5 44,-38.5 44,-19.5 0,-19.5"/>
<text text-anchor="middle" x="22" y="-26.5" font-family="Helvetica,sans-Serif" font-size="10.00">setup</text>
</a>
</g>
</g>
<!-- Node2&#45;&gt;Node3 -->
<g id="edge2" class="edge">
<title>Node2&#45;&gt;Node3</title>
<path fill="none" stroke="midnightblue" d="M77.7,-40.48C66.34,-38.1 54.16,-35.54 44.18,-33.45"/>
<polygon fill="midnightblue" stroke="midnightblue" points="77.3,-43.98 87.81,-42.61 78.74,-37.13 77.3,-43.98"/>
</g>
<!-- Node5 -->
<g id="node5" class="node">
<title>Node5</title>
<g id="a_node5"><a xlink:href="lora_8cpp.html#aa56d712b5af48cc40bd9ef0dac6cb797" target="_top" xlink:title="Task for sending packets when needed.">
<polygon fill="white" stroke="black" points="80,-0.5 80,-19.5 149,-19.5 149,-0.5 80,-0.5"/>
<text text-anchor="middle" x="114.5" y="-7.5" font-family="Helvetica,sans-Serif" font-size="10.00">loraTxTask</text>
</a>
</g>
</g>
<!-- Node4&#45;&gt;Node5 -->
<g id="edge4" class="edge">
<title>Node4&#45;&gt;Node5</title>
<path fill="none" stroke="midnightblue" d="M174.69,-10C165.85,-10 157.16,-10 149.28,-10"/>
<polygon fill="midnightblue" stroke="midnightblue" points="174.72,-13.5 184.72,-10 174.72,-6.5 174.72,-13.5"/>
</g>
<!-- Node5&#45;&gt;Node3 -->
<g id="edge5" class="edge">
<title>Node5&#45;&gt;Node3</title>
<path fill="none" stroke="midnightblue" d="M69.81,-19.17C60.86,-21.05 51.82,-22.95 44.11,-24.57"/>
<polygon fill="midnightblue" stroke="midnightblue" points="70.73,-22.55 79.8,-17.07 69.3,-15.7 70.73,-22.55"/>
</g>
</g>
</svg>
