<?xml version="1.0" encoding="UTF-8" standalone="no"?>
<!DOCTYPE svg PUBLIC "-//W3C//DTD SVG 1.1//EN"
 "http://www.w3.org/Graphics/SVG/1.1/DTD/svg11.dtd">
<!-- Generated by graphviz version 2.43.0 (0)
 -->
<!-- Title: Field::checkDecodeable Pages: 1 -->
<svg width="323pt" height="318pt"
 viewBox="0.00 0.00 323.00 318.00" xmlns="http://www.w3.org/2000/svg" xmlns:xlink="http://www.w3.org/1999/xlink">
<g id="graph0" class="graph" transform="scale(1 1) rotate(0) translate(4 314)">
<title>Field::checkDecodeable</title>
<polygon fill="white" stroke="transparent" points="-4,4 -4,-314 319,-314 319,4 -4,4"/>
<!-- Node1 -->
<g id="node1" class="node">
<title>Node1</title>
<g id="a_node1"><a xlink:title="Checks if the value can be decoded from the packet.">
<polygon fill="#bfbfbf" stroke="black" points="183,-148.5 183,-167.5 315,-167.5 315,-148.5 183,-148.5"/>
<text text-anchor="middle" x="249" y="-155.5" font-family="Helvetica,sans-Serif" font-size="10.00">Field::checkDecodeable</text>
</a>
</g>
</g>
<!-- Node2 -->
<g id="node2" class="node">
<title>Node2</title>
<g id="a_node2"><a xlink:href="class_tenths_field.html#a559987579b531c15fcb383aad6487d43" target="_top" xlink:title="Decodes the value from bytes into an existing json document.">
<polygon fill="white" stroke="black" points="17,-290.5 17,-309.5 130,-309.5 130,-290.5 17,-290.5"/>
<text text-anchor="middle" x="73.5" y="-297.5" font-family="Helvetica,sans-Serif" font-size="10.00">TenthsField::decode</text>
</a>
</g>
</g>
<!-- Node1&#45;&gt;Node2 -->
<g id="edge1" class="edge">
<title>Node1&#45;&gt;Node2</title>
<path fill="none" stroke="midnightblue" d="M237.86,-176.63C222.09,-203.82 189.06,-254.05 147,-281 140.97,-284.86 134.19,-287.94 127.25,-290.39"/>
<polygon fill="midnightblue" stroke="midnightblue" points="241.01,-178.17 242.88,-167.74 234.92,-174.73 241.01,-178.17"/>
</g>
<!-- Node3 -->
<g id="node3" class="node">
<title>Node3</title>
<g id="a_node3"><a xlink:href="class_long_u_int_field.html#a719f137da9de237d749644af4e1ffc2e" target="_top" xlink:title="Decodes the value from bytes into an existing json document.">
<polygon fill="white" stroke="black" points="11,-252.5 11,-271.5 136,-271.5 136,-252.5 11,-252.5"/>
<text text-anchor="middle" x="73.5" y="-259.5" font-family="Helvetica,sans-Serif" font-size="10.00">LongUIntField::decode</text>
</a>
</g>
</g>
<!-- Node1&#45;&gt;Node3 -->
<g id="edge2" class="edge">
<title>Node1&#45;&gt;Node3</title>
<path fill="none" stroke="midnightblue" d="M232.23,-175.25C213.66,-194.54 181.01,-225.38 147,-243 139.61,-246.83 131.38,-249.93 123.19,-252.43"/>
<polygon fill="midnightblue" stroke="midnightblue" points="234.98,-177.44 239.29,-167.76 229.88,-172.64 234.98,-177.44"/>
</g>
<!-- Node4 -->
<g id="node4" class="node">
<title>Node4</title>
<g id="a_node4"><a xlink:href="class_byte_field.html#ab81d073f3c791b9a8e0ba15f7f6b1af0" target="_top" xlink:title="Decodes the value from bytes into an existing json document.">
<polygon fill="white" stroke="black" points="21.5,-214.5 21.5,-233.5 125.5,-233.5 125.5,-214.5 21.5,-214.5"/>
<text text-anchor="middle" x="73.5" y="-221.5" font-family="Helvetica,sans-Serif" font-size="10.00">ByteField::decode</text>
</a>
</g>
</g>
<!-- Node1&#45;&gt;Node4 -->
<g id="edge3" class="edge">
<title>Node1&#45;&gt;Node4</title>
<path fill="none" stroke="midnightblue" d="M220.67,-172.35C200.66,-182.45 172.64,-195.76 147,-205 137.21,-208.53 126.45,-211.71 116.3,-214.41"/>
<polygon fill="midnightblue" stroke="midnightblue" points="222.49,-175.35 229.8,-167.68 219.31,-169.11 222.49,-175.35"/>
</g>
<!-- Node5 -->
<g id="node5" class="node">
<title>Node5</title>
<g id="a_node5"><a xlink:href="class_settable_byte_field.html#ad677f1c126fb69e1f41edfa138aa37f7" target="_top" xlink:title="Decodes the value from bytes into an existing json document.">
<polygon fill="white" stroke="black" points="19,-165 19,-195 128,-195 128,-165 19,-165"/>
<text text-anchor="start" x="27" y="-183" font-family="Helvetica,sans-Serif" font-size="10.00">SettableByteField::</text>
<text text-anchor="middle" x="73.5" y="-172" font-family="Helvetica,sans-Serif" font-size="10.00">decode</text>
</a>
</g>
</g>
<!-- Node1&#45;&gt;Node5 -->
<g id="edge4" class="edge">
<title>Node1&#45;&gt;Node5</title>
<path fill="none" stroke="midnightblue" d="M172.61,-167.56C157.62,-169.46 142.16,-171.42 128.07,-173.21"/>
<polygon fill="midnightblue" stroke="midnightblue" points="173.42,-170.98 182.9,-166.25 172.54,-164.04 173.42,-170.98"/>
</g>
<!-- Node6 -->
<g id="node6" class="node">
<title>Node6</title>
<g id="a_node6"><a xlink:href="class_flag_field.html#a5a5f75fee9d58da514f457cb0adfcb6c" target="_top" xlink:title="Decodes the value from bytes into an existing json document.">
<polygon fill="white" stroke="black" points="22.5,-126.5 22.5,-145.5 124.5,-145.5 124.5,-126.5 22.5,-126.5"/>
<text text-anchor="middle" x="73.5" y="-133.5" font-family="Helvetica,sans-Serif" font-size="10.00">FlagField::decode</text>
</a>
</g>
</g>
<!-- Node1&#45;&gt;Node6 -->
<g id="edge5" class="edge">
<title>Node1&#45;&gt;Node6</title>
<path fill="none" stroke="midnightblue" d="M172.82,-148.47C156.48,-146.4 139.59,-144.25 124.51,-142.34"/>
<polygon fill="midnightblue" stroke="midnightblue" points="172.54,-151.96 182.9,-149.75 173.42,-145.02 172.54,-151.96"/>
</g>
<!-- Node7 -->
<g id="node7" class="node">
<title>Node7</title>
<g id="a_node7"><a xlink:href="class_settable_flag_field.html#a61f1589e7f86b94bfb956e5fa6711483" target="_top" xlink:title="Decodes the value from bytes into an existing json document.">
<polygon fill="white" stroke="black" points="20,-77 20,-107 127,-107 127,-77 20,-77"/>
<text text-anchor="start" x="28" y="-95" font-family="Helvetica,sans-Serif" font-size="10.00">SettableFlagField::</text>
<text text-anchor="middle" x="73.5" y="-84" font-family="Helvetica,sans-Serif" font-size="10.00">decode</text>
</a>
</g>
</g>
<!-- Node1&#45;&gt;Node7 -->
<g id="edge6" class="edge">
<title>Node1&#45;&gt;Node7</title>
<path fill="none" stroke="midnightblue" d="M215.83,-144.43C196.07,-136.22 170.19,-125.7 147,-117 138.15,-113.68 128.63,-110.28 119.5,-107.1"/>
<polygon fill="midnightblue" stroke="midnightblue" points="214.7,-147.75 225.27,-148.37 217.39,-141.29 214.7,-147.75"/>
</g>
<!-- Node8 -->
<g id="node8" class="node">
<title>Node8</title>
<g id="a_node8"><a xlink:href="class_pump_on_time_field.html#afc688cd2270f95d14f75fa31d4dbbd84" target="_top" xlink:title="Decodes the value from bytes into an existing json document.">
<polygon fill="white" stroke="black" points="0,-38.5 0,-57.5 147,-57.5 147,-38.5 0,-38.5"/>
<text text-anchor="middle" x="73.5" y="-45.5" font-family="Helvetica,sans-Serif" font-size="10.00">PumpOnTimeField::decode</text>
</a>
</g>
</g>
<!-- Node1&#45;&gt;Node8 -->
<g id="edge7" class="edge">
<title>Node1&#45;&gt;Node8</title>
<path fill="none" stroke="midnightblue" d="M233.22,-140.68C214.96,-120.37 181.99,-87.05 147,-68 139.09,-63.69 130.17,-60.25 121.37,-57.53"/>
<polygon fill="midnightblue" stroke="midnightblue" points="230.66,-143.08 239.89,-148.27 235.91,-138.45 230.66,-143.08"/>
</g>
<!-- Node9 -->
<g id="node9" class="node">
<title>Node9</title>
<g id="a_node9"><a xlink:href="class_u_int_field.html#a72984fadf6b1619c513442c0036fe96f" target="_top" xlink:title="Decodes the value from bytes into an existing json document.">
<polygon fill="white" stroke="black" points="23,-0.5 23,-19.5 124,-19.5 124,-0.5 23,-0.5"/>
<text text-anchor="middle" x="73.5" y="-7.5" font-family="Helvetica,sans-Serif" font-size="10.00">UIntField::decode</text>
</a>
</g>
</g>
<!-- Node1&#45;&gt;Node9 -->
<g id="edge8" class="edge">
<title>Node1&#45;&gt;Node9</title>
<path fill="none" stroke="midnightblue" d="M238.55,-139.29C223.27,-110.98 190.4,-57.52 147,-29 140.15,-24.5 132.28,-21.06 124.31,-18.44"/>
<polygon fill="midnightblue" stroke="midnightblue" points="235.63,-141.26 243.37,-148.49 241.83,-138.01 235.63,-141.26"/>
</g>
</g>
</svg>
