<?xml version="1.0" encoding="UTF-8" standalone="no"?>
<!DOCTYPE svg PUBLIC "-//W3C//DTD SVG 1.1//EN"
 "http://www.w3.org/Graphics/SVG/1.1/DTD/svg11.dtd">
<!-- Generated by graphviz version 2.43.0 (0)
 -->
<!-- Title: Field::actuallyDecode Pages: 1 -->
<svg width="816pt" height="85pt"
 viewBox="0.00 0.00 816.00 85.00" xmlns="http://www.w3.org/2000/svg" xmlns:xlink="http://www.w3.org/1999/xlink">
<g id="graph0" class="graph" transform="scale(1 1) rotate(0) translate(4 81)">
<title>Field::actuallyDecode</title>
<polygon fill="white" stroke="transparent" points="-4,4 -4,-81 812,-81 812,4 -4,4"/>
<!-- Node1 -->
<g id="node1" class="node">
<title>Node1</title>
<g id="a_node1"><a xlink:title="Decodes the value from bytes into an existing json document. decode does the checking for length,...">
<polygon fill="#bfbfbf" stroke="black" points="686,-38.5 686,-57.5 808,-57.5 808,-38.5 686,-38.5"/>
<text text-anchor="middle" x="747" y="-45.5" font-family="Helvetica,sans-Serif" font-size="10.00">Field::actuallyDecode</text>
</a>
</g>
</g>
<!-- Node2 -->
<g id="node2" class="node">
<title>Node2</title>
<g id="a_node2"><a xlink:href="class_field.html#aa036e196f5805e9406b8169200e3915a" target="_top" xlink:title="Decodes the value from bytes into an existing json document.">
<polygon fill="white" stroke="black" points="569,-38.5 569,-57.5 650,-57.5 650,-38.5 569,-38.5"/>
<text text-anchor="middle" x="609.5" y="-45.5" font-family="Helvetica,sans-Serif" font-size="10.00">Field::decode</text>
</a>
</g>
</g>
<!-- Node1&#45;&gt;Node2 -->
<g id="edge1" class="edge">
<title>Node1&#45;&gt;Node2</title>
<path fill="none" stroke="midnightblue" d="M675.6,-48C666.92,-48 658.3,-48 650.31,-48"/>
<polygon fill="midnightblue" stroke="midnightblue" points="675.78,-51.5 685.78,-48 675.78,-44.5 675.78,-51.5"/>
</g>
<!-- Node3 -->
<g id="node3" class="node">
<title>Node3</title>
<g id="a_node3"><a xlink:href="class_device.html#a35eba370894e0e1ec39f2043e466b2f6" target="_top" xlink:title="Decodes the payload from a PJON packet and converts it to thingsboard MQTT JSON.">
<polygon fill="white" stroke="black" points="381,-38.5 381,-57.5 533,-57.5 533,-38.5 381,-38.5"/>
<text text-anchor="middle" x="457" y="-45.5" font-family="Helvetica,sans-Serif" font-size="10.00">Device::decodePacketFields</text>
</a>
</g>
</g>
<!-- Node2&#45;&gt;Node3 -->
<g id="edge2" class="edge">
<title>Node2&#45;&gt;Node3</title>
<path fill="none" stroke="midnightblue" d="M558.79,-48C550.54,-48 541.82,-48 533.1,-48"/>
<polygon fill="midnightblue" stroke="midnightblue" points="558.96,-51.5 568.96,-48 558.96,-44.5 558.96,-51.5"/>
</g>
<!-- Node4 -->
<g id="node4" class="node">
<title>Node4</title>
<g id="a_node4"><a xlink:href="class_device.html#af62935178e82991678e319e5b840edbf" target="_top" xlink:title="Decodes the payload from a PJON packet and converts it to thingsboard MQTT JSON. Also adds on packet ...">
<polygon fill="white" stroke="black" points="193,-57.5 193,-76.5 345,-76.5 345,-57.5 193,-57.5"/>
<text text-anchor="middle" x="269" y="-64.5" font-family="Helvetica,sans-Serif" font-size="10.00">Device::decodePacketFields</text>
</a>
</g>
</g>
<!-- Node3&#45;&gt;Node4 -->
<g id="edge3" class="edge">
<title>Node3&#45;&gt;Node4</title>
<path fill="none" stroke="midnightblue" d="M370.85,-56.7C362.26,-57.58 353.57,-58.46 345.1,-59.33"/>
<polygon fill="midnightblue" stroke="midnightblue" points="371.29,-60.17 380.88,-55.67 370.58,-53.21 371.29,-60.17"/>
</g>
<!-- Node5 -->
<g id="node5" class="node">
<title>Node5</title>
<g id="a_node5"><a xlink:href="lora_8cpp.html#a73337b280bec4397780b012ccc949113" target="_top" xlink:title="Handles an incoming packet received from the radio and adds the given snr and rssi to the packet.">
<polygon fill="white" stroke="black" points="230.5,-19.5 230.5,-38.5 307.5,-38.5 307.5,-19.5 230.5,-19.5"/>
<text text-anchor="middle" x="269" y="-26.5" font-family="Helvetica,sans-Serif" font-size="10.00">pjonReceive</text>
</a>
</g>
</g>
<!-- Node3&#45;&gt;Node5 -->
<g id="edge4" class="edge">
<title>Node3&#45;&gt;Node5</title>
<path fill="none" stroke="midnightblue" d="M370.76,-39.29C348.6,-37.03 325.85,-34.71 307.59,-32.84"/>
<polygon fill="midnightblue" stroke="midnightblue" points="370.58,-42.79 380.88,-40.33 371.29,-35.83 370.58,-42.79"/>
</g>
<!-- Node6 -->
<g id="node6" class="node">
<title>Node6</title>
<g id="a_node6"><a xlink:href="lora_8cpp.html#a0b02ed993c4ccbea85307991879844a6" target="_top" xlink:title="Handles an incoming packet received from the radio. Uses the latest received snr and rssi.">
<polygon fill="white" stroke="black" points="80,-38.5 80,-57.5 157,-57.5 157,-38.5 80,-38.5"/>
<text text-anchor="middle" x="118.5" y="-45.5" font-family="Helvetica,sans-Serif" font-size="10.00">pjonReceive</text>
</a>
</g>
</g>
<!-- Node5&#45;&gt;Node6 -->
<g id="edge5" class="edge">
<title>Node5&#45;&gt;Node6</title>
<path fill="none" stroke="midnightblue" d="M220.09,-35.13C199.65,-37.74 176.17,-40.75 157.03,-43.2"/>
<polygon fill="midnightblue" stroke="midnightblue" points="220.67,-38.58 230.14,-33.84 219.78,-31.64 220.67,-38.58"/>
</g>
<!-- Node7 -->
<g id="node7" class="node">
<title>Node7</title>
<g id="a_node7"><a xlink:href="lora_8cpp.html#a6042a1af9411d9eafc7088497f536eb8" target="_top" xlink:title="&quot;Receives&quot; some fake data for testing purposes.">
<polygon fill="white" stroke="black" points="89,-0.5 89,-19.5 148,-19.5 148,-0.5 89,-0.5"/>
<text text-anchor="middle" x="118.5" y="-7.5" font-family="Helvetica,sans-Serif" font-size="10.00">pjonTask</text>
</a>
</g>
</g>
<!-- Node5&#45;&gt;Node7 -->
<g id="edge6" class="edge">
<title>Node5&#45;&gt;Node7</title>
<path fill="none" stroke="midnightblue" d="M219.97,-22.85C196.36,-19.83 168.7,-16.29 148.38,-13.7"/>
<polygon fill="midnightblue" stroke="midnightblue" points="219.78,-26.36 230.14,-24.16 220.67,-19.42 219.78,-26.36"/>
</g>
<!-- Node8 -->
<g id="node8" class="node">
<title>Node8</title>
<g id="a_node8"><a xlink:href="main_8cpp.html#a4fc01d736fe50cf5b977f755b675f11d" target="_top" xlink:title=" ">
<polygon fill="white" stroke="black" points="0,-0.5 0,-19.5 44,-19.5 44,-0.5 0,-0.5"/>
<text text-anchor="middle" x="22" y="-7.5" font-family="Helvetica,sans-Serif" font-size="10.00">setup</text>
</a>
</g>
</g>
<!-- Node7&#45;&gt;Node8 -->
<g id="edge7" class="edge">
<title>Node7&#45;&gt;Node8</title>
<path fill="none" stroke="midnightblue" d="M78.72,-10C66.84,-10 54.23,-10 44.01,-10"/>
<polygon fill="midnightblue" stroke="midnightblue" points="78.89,-13.5 88.89,-10 78.89,-6.5 78.89,-13.5"/>
</g>
</g>
</svg>
