<?xml version="1.0" encoding="UTF-8" standalone="no"?>
<!DOCTYPE svg PUBLIC "-//W3C//DTD SVG 1.1//EN"
 "http://www.w3.org/Graphics/SVG/1.1/DTD/svg11.dtd">
<!-- Generated by graphviz version 2.43.0 (0)
 -->
<!-- Title: Lookupable Pages: 1 -->
<!--zoomable 315 -->

<svg id="main" version="1.1" xmlns="http://www.w3.org/2000/svg" xmlns:xlink="http://www.w3.org/1999/xlink" xml:space="preserve" onload="init(evt)">
<style type="text/css"><![CDATA[
.node, .edge {opacity: 0.7;}
.node.selected, .edge.selected {opacity: 1;}
.edge:hover path { stroke: red; }
.edge:hover polygon { stroke: red; fill: red; }
]]></style>

<defs>
  <circle id="rim" cx="0" cy="0" r="7"/>
  <circle id="rim2" cx="0" cy="0" r="3.5"/>
  <g id="zoomPlus">
    <use xlink:href="#rim" fill="#404040"><set attributeName="fill" to="#808080" begin="zoomplus.mouseover" end="zoomplus.mouseout"/></use>
    <path d="M-4,0h8M0,-4v8" fill="none" stroke="white" stroke-width="1.5" pointer-events="none"/>
  </g>
  <g id="zoomMin">
    <use xlink:href="#rim" fill="#404040"><set attributeName="fill" to="#808080" begin="zoomminus.mouseover" end="zoomminus.mouseout"/></use>
    <path d="M-4,0h8" fill="none" stroke="white" stroke-width="1.5" pointer-events="none"/>
  </g>
  <g id="arrowUp" transform="translate(30 24)">
    <use xlink:href="#rim"/>
    <path pointer-events="none" fill="none" stroke="white" stroke-width="1.5" d="M0,-3.0v7 M-2.5,-0.5L0,-3.0L2.5,-0.5"/>
  </g>
  <g id="arrowRight" transform="rotate(90) translate(36 -43)">
    <use xlink:href="#rim"/>
    <path pointer-events="none" fill="none" stroke="white" stroke-width="1.5" d="M0,-3.0v7 M-2.5,-0.5L0,-3.0L2.5,-0.5"/>
  </g>
  <g id="arrowDown" transform="rotate(180) translate(-30 -48)">
    <use xlink:href="#rim"/>
    <path pointer-events="none" fill="none" stroke="white" stroke-width="1.5" d="M0,-3.0v7 M-2.5,-0.5L0,-3.0L2.5,-0.5"/>
  </g>
  <g id="arrowLeft" transform="rotate(270) translate(-36 17)">
    <use xlink:href="#rim"/>
    <path pointer-events="none" fill="none" stroke="white" stroke-width="1.5" d="M0,-3.0v7 M-2.5,-0.5L0,-3.0L2.5,-0.5"/>
  </g>
  <g id="resetDef">
    <use xlink:href="#rim2" fill="#404040"><set attributeName="fill" to="#808080" begin="reset.mouseover" end="reset.mouseout"/></use>
  </g>
</defs>
<script type="application/ecmascript">
var viewWidth = 674;
var viewHeight = 315;
var sectionId = 'dynsection-0';
</script>
<script type="application/ecmascript" xlink:href="svg.min.js"/>
<svg id="graph" class="graph">
<g id="viewport">
<title>Lookupable</title>
<!-- Node1 -->
<g id="Node000001" class="node">
<title>Node1</title>
<g id="a_Node000001"><a xlink:title="Class for fields and devices that can be managed by LookupManager.">
<polygon fill="#999999" stroke="#666666" points="72,-185 0,-185 0,-166 72,-166 72,-185"/>
<text text-anchor="middle" x="36" y="-173" font-family="Helvetica,sans-Serif" font-size="10.00">Lookupable</text>
</a>
</g>
</g>
<!-- Node2 -->
<g id="Node000002" class="node">
<title>Node2</title>
<g id="a_Node000002"><a xlink:href="class_device.html" target="_top" xlink:title="Each sensor / device on the PJON network.">
<polygon fill="white" stroke="#666666" points="159,-204 109,-204 109,-185 159,-185 159,-204"/>
<text text-anchor="middle" x="134" y="-192" font-family="Helvetica,sans-Serif" font-size="10.00">Device</text>
</a>
</g>
</g>
<!-- Node1&#45;&gt;Node2 -->
<g id="edge1_Node000001_Node000002" class="edge">
<title>Node1&#45;&gt;Node2</title>
<g id="a_edge1_Node000001_Node000002"><a xlink:title=" ">
<path fill="none" stroke="#63b8ff" d="M82.11,-184.43C91.35,-186.26 100.74,-188.12 108.9,-189.73"/>
<polygon fill="#63b8ff" stroke="#63b8ff" points="82.69,-180.98 72.2,-182.47 81.33,-187.84 82.69,-180.98"/>
</a>
</g>
</g>
<!-- Node3 -->
<g id="Node000003" class="node">
<title>Node3</title>
<g id="a_Node000003"><a xlink:href="class_field.html" target="_top" xlink:title="Class for handling data fields in messages.">
<polygon fill="white" stroke="#666666" points="154,-167 114,-167 114,-148 154,-148 154,-167"/>
<text text-anchor="middle" x="134" y="-155" font-family="Helvetica,sans-Serif" font-size="10.00">Field</text>
</a>
</g>
</g>
<!-- Node1&#45;&gt;Node3 -->
<g id="edge2_Node000001_Node000003" class="edge">
<title>Node1&#45;&gt;Node3</title>
<g id="a_edge2_Node000001_Node000003"><a xlink:title=" ">
<path fill="none" stroke="#63b8ff" d="M82.33,-167C93.49,-164.91 104.84,-162.78 113.97,-161.07"/>
<polygon fill="#63b8ff" stroke="#63b8ff" points="81.39,-163.62 72.2,-168.9 82.68,-170.5 81.39,-163.62"/>
</a>
</g>
</g>
<!-- Node4 -->
<g id="Node000004" class="node">
<title>Node4</title>
<g id="a_Node000004"><a xlink:href="class_settable_field.html" target="_top" xlink:title=" ">
<polygon fill="white" stroke="#666666" points="526,-223 395,-223 395,-204 526,-204 526,-223"/>
<text text-anchor="middle" x="460.5" y="-211" font-family="Helvetica,sans-Serif" font-size="10.00">SettableField&lt; int8_t &gt;</text>
</a>
</g>
</g>
<!-- Node3&#45;&gt;Node4 -->
<g id="edge3_Node000003_Node000004" class="edge">
<title>Node3&#45;&gt;Node4</title>
<g id="a_edge3_Node000003_Node000004"><a xlink:title=" ">
<path fill="none" stroke="#63b8ff" d="M157.31,-174.25C157.91,-174.98 158.48,-175.73 159,-176.5 188.3,-219.46 153.38,-257.7 196,-287.5 279.72,-346.04 408.67,-254.06 447.83,-223.09"/>
<polygon fill="#63b8ff" stroke="#63b8ff" points="159.63,-171.61 150.04,-167.11 154.73,-176.61 159.63,-171.61"/>
</a>
</g>
</g>
<!-- Node7 -->
<g id="Node000007" class="node">
<title>Node7</title>
<g id="a_Node000007"><a xlink:href="class_byte_field.html" target="_top" xlink:title="Fields that contain an unsigned, single byte integer.">
<polygon fill="white" stroke="#666666" points="281.5,-278 219.5,-278 219.5,-259 281.5,-259 281.5,-278"/>
<text text-anchor="middle" x="250.5" y="-266" font-family="Helvetica,sans-Serif" font-size="10.00">ByteField</text>
</a>
</g>
</g>
<!-- Node3&#45;&gt;Node7 -->
<g id="edge6_Node000003_Node000007" class="edge">
<title>Node3&#45;&gt;Node7</title>
<g id="a_edge6_Node000003_Node000007"><a xlink:title=" ">
<path fill="none" stroke="#63b8ff" d="M156.76,-173.95C157.55,-174.78 158.3,-175.63 159,-176.5 182.19,-205.04 168.26,-226.37 196,-250.5 202.58,-256.22 211.05,-260.14 219.3,-262.82"/>
<polygon fill="#63b8ff" stroke="#63b8ff" points="158.89,-171.15 149.13,-167.01 154.18,-176.33 158.89,-171.15"/>
</a>
</g>
</g>
<!-- Node8 -->
<g id="Node000008" class="node">
<title>Node8</title>
<g id="a_Node000008"><a xlink:href="class_flag_field.html" target="_top" xlink:title="Fields that don&#39;t have any value or payload.">
<polygon fill="white" stroke="#666666" points="281,-241 220,-241 220,-222 281,-222 281,-241"/>
<text text-anchor="middle" x="250.5" y="-229" font-family="Helvetica,sans-Serif" font-size="10.00">FlagField</text>
</a>
</g>
</g>
<!-- Node3&#45;&gt;Node8 -->
<g id="edge7_Node000003_Node000008" class="edge">
<title>Node3&#45;&gt;Node8</title>
<g id="a_edge7_Node000003_Node000008"><a xlink:title=" ">
<path fill="none" stroke="#63b8ff" d="M155.97,-173.86C157,-174.74 158.02,-175.63 159,-176.5 176.37,-191.97 176.23,-201.25 196,-213.5 203.25,-217.99 211.75,-221.51 219.81,-224.2"/>
<polygon fill="#63b8ff" stroke="#63b8ff" points="157.89,-170.91 147.93,-167.29 153.46,-176.33 157.89,-170.91"/>
</a>
</g>
</g>
<!-- Node9 -->
<g id="Node000009" class="node">
<title>Node9</title>
<g id="a_Node000009"><a xlink:href="class_long_u_int_field.html" target="_top" xlink:title="Fields that contain an unsigned, 4 byte integer.">
<polygon fill="white" stroke="#666666" points="292,-204 209,-204 209,-185 292,-185 292,-204"/>
<text text-anchor="middle" x="250.5" y="-192" font-family="Helvetica,sans-Serif" font-size="10.00">LongUIntField</text>
</a>
</g>
</g>
<!-- Node3&#45;&gt;Node9 -->
<g id="edge8_Node000003_Node000009" class="edge">
<title>Node3&#45;&gt;Node9</title>
<g id="a_edge8_Node000003_Node000009"><a xlink:title=" ">
<path fill="none" stroke="#63b8ff" d="M164.04,-167.24C168.38,-168.68 172.81,-170.14 177,-171.5 190.81,-175.99 206.14,-180.87 219.13,-184.97"/>
<polygon fill="#63b8ff" stroke="#63b8ff" points="164.81,-163.81 154.22,-163.97 162.6,-170.45 164.81,-163.81"/>
</a>
</g>
</g>
<!-- Node10 -->
<g id="Node000010" class="node">
<title>Node10</title>
<g id="a_Node000010"><a xlink:href="class_pump_on_time_field.html" target="_top" xlink:title="Fields for pump on times (2 bytes in 0.5s increments)">
<polygon fill="white" stroke="#666666" points="303.5,-167 197.5,-167 197.5,-148 303.5,-148 303.5,-167"/>
<text text-anchor="middle" x="250.5" y="-155" font-family="Helvetica,sans-Serif" font-size="10.00">PumpOnTimeField</text>
</a>
</g>
</g>
<!-- Node3&#45;&gt;Node10 -->
<g id="edge9_Node000003_Node000010" class="edge">
<title>Node3&#45;&gt;Node10</title>
<g id="a_edge9_Node000003_Node000010"><a xlink:title=" ">
<path fill="none" stroke="#63b8ff" d="M164.36,-157.5C174.38,-157.5 185.9,-157.5 197.17,-157.5"/>
<polygon fill="#63b8ff" stroke="#63b8ff" points="164.16,-154 154.16,-157.5 164.16,-161 164.16,-154"/>
</a>
</g>
</g>
<!-- Node11 -->
<g id="Node000011" class="node">
<title>Node11</title>
<g id="a_Node000011"><a xlink:href="class_settable_field.html" target="_top" xlink:title="Class for fields that can be set.">
<polygon fill="white" stroke="#666666" points="305,-130 196,-130 196,-111 305,-111 305,-130"/>
<text text-anchor="middle" x="250.5" y="-118" font-family="Helvetica,sans-Serif" font-size="10.00">SettableField&lt; T &gt;</text>
</a>
</g>
</g>
<!-- Node3&#45;&gt;Node11 -->
<g id="edge10_Node000003_Node000011" class="edge">
<title>Node3&#45;&gt;Node11</title>
<g id="a_edge10_Node000003_Node000011"><a xlink:title=" ">
<path fill="none" stroke="#63b8ff" d="M164.15,-148.08C181.24,-142.56 202.78,-135.6 219.94,-130.05"/>
<polygon fill="#63b8ff" stroke="#63b8ff" points="162.6,-144.9 154.16,-151.31 164.76,-151.56 162.6,-144.9"/>
</a>
</g>
</g>
<!-- Node12 -->
<g id="Node000012" class="node">
<title>Node12</title>
<g id="a_Node000012"><a xlink:href="class_tenths_byte_field.html" target="_top" xlink:title="Field for decoding 1 byte signed data in tenths.">
<polygon fill="white" stroke="#666666" points="297.5,-93 203.5,-93 203.5,-74 297.5,-74 297.5,-93"/>
<text text-anchor="middle" x="250.5" y="-81" font-family="Helvetica,sans-Serif" font-size="10.00">TenthsByteField</text>
</a>
</g>
</g>
<!-- Node3&#45;&gt;Node12 -->
<g id="edge12_Node000003_Node000012" class="edge">
<title>Node3&#45;&gt;Node12</title>
<g id="a_edge12_Node000003_Node000012"><a xlink:title=" ">
<path fill="none" stroke="#63b8ff" d="M150.72,-140.09C162.28,-128.16 178.88,-112.7 196,-102.5 202.18,-98.82 209.19,-95.69 216.04,-93.1"/>
<polygon fill="#63b8ff" stroke="#63b8ff" points="147.89,-137.99 143.59,-147.68 152.99,-142.79 147.89,-137.99"/>
</a>
</g>
</g>
<!-- Node13 -->
<g id="Node000013" class="node">
<title>Node13</title>
<g id="a_Node000013"><a xlink:href="class_tenths_field.html" target="_top" xlink:title="Field for decoding 2 byte signed data in tenths.">
<polygon fill="white" stroke="#666666" points="286,-56 215,-56 215,-37 286,-37 286,-56"/>
<text text-anchor="middle" x="250.5" y="-44" font-family="Helvetica,sans-Serif" font-size="10.00">TenthsField</text>
</a>
</g>
</g>
<!-- Node3&#45;&gt;Node13 -->
<g id="edge13_Node000003_Node000013" class="edge">
<title>Node3&#45;&gt;Node13</title>
<g id="a_edge13_Node000003_Node000013"><a xlink:title=" ">
<path fill="none" stroke="#63b8ff" d="M143.03,-138.63C152.73,-117.94 170.94,-85.08 196,-65.5 201.59,-61.13 208.27,-57.72 214.98,-55.06"/>
<polygon fill="#63b8ff" stroke="#63b8ff" points="139.75,-137.4 138.85,-147.95 146.13,-140.26 139.75,-137.4"/>
</a>
</g>
</g>
<!-- Node14 -->
<g id="Node000014" class="node">
<title>Node14</title>
<g id="a_Node000014"><a xlink:href="class_u_int_field.html" target="_top" xlink:title="Fields that contain an unsigned, 2 byte integer.">
<polygon fill="white" stroke="#666666" points="280.5,-19 220.5,-19 220.5,0 280.5,0 280.5,-19"/>
<text text-anchor="middle" x="250.5" y="-7" font-family="Helvetica,sans-Serif" font-size="10.00">UIntField</text>
</a>
</g>
</g>
<!-- Node3&#45;&gt;Node14 -->
<g id="edge14_Node000003_Node000014" class="edge">
<title>Node3&#45;&gt;Node14</title>
<g id="a_edge14_Node000003_Node000014"><a xlink:title=" ">
<path fill="none" stroke="#63b8ff" d="M139.07,-137.87C145.94,-109.56 162.49,-57.38 196,-27.5 202.8,-21.43 211.72,-17.4 220.32,-14.72"/>
<polygon fill="#63b8ff" stroke="#63b8ff" points="135.62,-137.25 136.83,-147.78 142.45,-138.8 135.62,-137.25"/>
</a>
</g>
</g>
<!-- Node5 -->
<g id="Node000005" class="node">
<title>Node5</title>
<g id="a_Node000005"><a xlink:href="class_settable_byte_field.html" target="_top" xlink:title="Fields that contain an unsigned, single byte integer that can be set using an RPC call.">
<polygon fill="white" stroke="#666666" points="666,-242 563,-242 563,-223 666,-223 666,-242"/>
<text text-anchor="middle" x="614.5" y="-230" font-family="Helvetica,sans-Serif" font-size="10.00">SettableByteField</text>
</a>
</g>
</g>
<!-- Node4&#45;&gt;Node5 -->
<g id="edge4_Node000004_Node000005" class="edge">
<title>Node4&#45;&gt;Node5</title>
<g id="a_edge4_Node000004_Node000005"><a xlink:title=" ">
<path fill="none" stroke="#63b8ff" d="M536.39,-222.86C545.27,-223.97 554.17,-225.08 562.6,-226.14"/>
<polygon fill="#63b8ff" stroke="#63b8ff" points="536.76,-219.38 526.4,-221.61 535.89,-226.33 536.76,-219.38"/>
</a>
</g>
</g>
<!-- Node6 -->
<g id="Node000006" class="node">
<title>Node6</title>
<g id="a_Node000006"><a xlink:href="class_settable_flag_field.html" target="_top" xlink:title="Class for flags that can be set via an RPC call.">
<polygon fill="white" stroke="#666666" points="665,-205 564,-205 564,-186 665,-186 665,-205"/>
<text text-anchor="middle" x="614.5" y="-193" font-family="Helvetica,sans-Serif" font-size="10.00">SettableFlagField</text>
</a>
</g>
</g>
<!-- Node4&#45;&gt;Node6 -->
<g id="edge5_Node000004_Node000006" class="edge">
<title>Node4&#45;&gt;Node6</title>
<g id="a_edge5_Node000004_Node000006"><a xlink:title=" ">
<path fill="none" stroke="#63b8ff" d="M536.49,-204.62C545.83,-203.51 555.18,-202.41 563.99,-201.36"/>
<polygon fill="#63b8ff" stroke="#63b8ff" points="535.92,-201.16 526.4,-205.81 536.74,-208.11 535.92,-201.16"/>
</a>
</g>
</g>
<!-- Node11&#45;&gt;Node4 -->
<g id="edge11_Node000011_Node000004" class="edge">
<title>Node11&#45;&gt;Node4</title>
<g id="a_edge11_Node000011_Node000004"><a xlink:title=" ">
<path fill="none" stroke="orange" stroke-dasharray="5,2" d="M289.79,-133.54C294.94,-135.46 300.12,-137.47 305,-139.5 355.26,-160.39 412.61,-189.23 441.24,-203.98"/>
<polygon fill="orange" stroke="orange" points="290.63,-130.12 280.03,-130.01 288.24,-136.71 290.63,-130.12"/>
</a>
</g>
<text text-anchor="middle" x="350" y="-172.5" font-family="Helvetica,sans-Serif" font-size="10.00" fill="grey"> &lt; int8_t &gt;</text>
</g>
</g>
</svg>

<g id="navigator" transform="translate(0 0)" fill="#404254">
  <rect fill="#f2f5e9" fill-opacity="0.5" stroke="#606060" stroke-width=".5" x="0" y="0" width="60" height="60"/>
  <use id="zoomplus" xlink:href="#zoomPlus" x="17" y="9" onmousedown="handleZoom(evt,'in')"/>
  <use id="zoomminus" xlink:href="#zoomMin" x="42" y="9" onmousedown="handleZoom(evt,'out')"/>
  <use id="reset" xlink:href="#resetDef" x="30" y="36" onmousedown="handleReset()"/>
   <use id="arrowup" xlink:href="#arrowUp" x="0" y="0" onmousedown="handlePan(0,-1)"/>
  <use id="arrowright" xlink:href="#arrowRight" x="0" y="0" onmousedown="handlePan(1,0)"/>
  <use id="arrowdown" xlink:href="#arrowDown" x="0" y="0" onmousedown="handlePan(0,1)"/>
  <use id="arrowleft" xlink:href="#arrowLeft" x="0" y="0" onmousedown="handlePan(-1,0)"/>
</g>
<svg viewBox="0 0 15 15" width="100%" height="30px" preserveAspectRatio="xMaxYMin meet">
 <g id="arrow_out" transform="scale(0.3 0.3)">
  <a xlink:href="class_lookupable__inherit__graph_org.svg" target="_base">
   <rect id="button" ry="5" rx="5" y="6" x="6" height="38" width="38"
        fill="#f2f5e9" fill-opacity="0.5" stroke="#606060" stroke-width="1.0"/>
   <path id="arrow"
     d="M 11.500037,31.436501 C 11.940474,20.09759 22.043105,11.32322 32.158766,21.979434 L 37.068811,17.246167 C 37.068811,17.246167 37.088388,32 37.088388,32 L 22.160133,31.978069 C 22.160133,31.978069 26.997745,27.140456 26.997745,27.140456 C 18.528582,18.264221 13.291696,25.230495 11.500037,31.436501 z"
     style="fill:#404040;"/>
  </a>
 </g>
</svg>

<style type='text/css'>
<![CDATA[
[data-mouse-over-selected='false'] { opacity: 0.7; }
[data-mouse-over-selected='true']  { opacity: 1.0; }
]]>
</style>
<script type="application/ecmascript"><![CDATA[
document.addEventListener('DOMContentLoaded', (event) => {
  highlightEdges();
  highlightAdjacentNodes();
});
]]></script>
</svg>
