<?xml version="1.0" encoding="UTF-8" standalone="no"?>
<!DOCTYPE svg PUBLIC "-//W3C//DTD SVG 1.1//EN"
 "http://www.w3.org/Graphics/SVG/1.1/DTD/svg11.dtd">
<!-- Generated by graphviz version 2.43.0 (0)
 -->
<!-- Title: Device::decodePacketFields Pages: 1 -->
<svg width="727pt" height="85pt"
 viewBox="0.00 0.00 727.00 85.00" xmlns="http://www.w3.org/2000/svg" xmlns:xlink="http://www.w3.org/1999/xlink">
<g id="graph0" class="graph" transform="scale(1 1) rotate(0) translate(4 81)">
<title>Device::decodePacketFields</title>
<polygon fill="white" stroke="transparent" points="-4,4 -4,-81 723,-81 723,4 -4,4"/>
<!-- Node1 -->
<g id="node1" class="node">
<title>Node1</title>
<g id="a_node1"><a xlink:title="Decodes the payload from a PJON packet and converts it to thingsboard MQTT JSON. Also adds on packet ...">
<polygon fill="#bfbfbf" stroke="black" points="0,-19.5 0,-38.5 152,-38.5 152,-19.5 0,-19.5"/>
<text text-anchor="middle" x="76" y="-26.5" font-family="Helvetica,sans-Serif" font-size="10.00">Device::decodePacketFields</text>
</a>
</g>
</g>
<!-- Node2 -->
<g id="node2" class="node">
<title>Node2</title>
<g id="a_node2"><a xlink:href="class_device.html#a35eba370894e0e1ec39f2043e466b2f6" target="_top" xlink:title="Decodes the payload from a PJON packet and converts it to thingsboard MQTT JSON.">
<polygon fill="white" stroke="black" points="188,-19.5 188,-38.5 340,-38.5 340,-19.5 188,-19.5"/>
<text text-anchor="middle" x="264" y="-26.5" font-family="Helvetica,sans-Serif" font-size="10.00">Device::decodePacketFields</text>
</a>
</g>
</g>
<!-- Node1&#45;&gt;Node2 -->
<g id="edge1" class="edge">
<title>Node1&#45;&gt;Node2</title>
<path fill="none" stroke="midnightblue" d="M152.12,-29C160.6,-29 169.28,-29 177.87,-29"/>
<polygon fill="midnightblue" stroke="midnightblue" points="177.9,-32.5 187.9,-29 177.9,-25.5 177.9,-32.5"/>
</g>
<!-- Node3 -->
<g id="node3" class="node">
<title>Node3</title>
<g id="a_node3"><a xlink:href="class_field.html#aa036e196f5805e9406b8169200e3915a" target="_top" xlink:title="Decodes the value from bytes into an existing json document.">
<polygon fill="white" stroke="black" points="423,-38.5 423,-57.5 504,-57.5 504,-38.5 423,-38.5"/>
<text text-anchor="middle" x="463.5" y="-45.5" font-family="Helvetica,sans-Serif" font-size="10.00">Field::decode</text>
</a>
</g>
</g>
<!-- Node2&#45;&gt;Node3 -->
<g id="edge2" class="edge">
<title>Node2&#45;&gt;Node3</title>
<path fill="none" stroke="midnightblue" d="M340.23,-36.24C364.51,-38.57 390.8,-41.1 412.76,-43.22"/>
<polygon fill="midnightblue" stroke="midnightblue" points="412.56,-46.71 422.85,-44.19 413.23,-39.74 412.56,-46.71"/>
</g>
<!-- Node6 -->
<g id="node6" class="node">
<title>Node6</title>
<g id="a_node6"><a xlink:href="class_lookup_manager.html#a8d3d926f82bfb89594abd2430b9d4326" target="_top" xlink:title="Gets the object with the given symbol.">
<polygon fill="white" stroke="black" points="376,-0.5 376,-19.5 551,-19.5 551,-0.5 376,-0.5"/>
<text text-anchor="middle" x="463.5" y="-7.5" font-family="Helvetica,sans-Serif" font-size="10.00">LookupManager::getWithSymbol</text>
</a>
</g>
</g>
<!-- Node2&#45;&gt;Node6 -->
<g id="edge5" class="edge">
<title>Node2&#45;&gt;Node6</title>
<path fill="none" stroke="midnightblue" d="M340.23,-21.76C348.61,-20.96 357.24,-20.13 365.84,-19.3"/>
<polygon fill="midnightblue" stroke="midnightblue" points="366.29,-22.77 375.91,-18.33 365.62,-15.8 366.29,-22.77"/>
</g>
<!-- Node4 -->
<g id="node4" class="node">
<title>Node4</title>
<g id="a_node4"><a xlink:href="class_field.html#a536d757818e186d83b2ab71415bb0bba" target="_top" xlink:title="Decodes the value from bytes into an existing json document. decode does the checking for length,...">
<polygon fill="white" stroke="black" points="592,-57.5 592,-76.5 714,-76.5 714,-57.5 592,-57.5"/>
<text text-anchor="middle" x="653" y="-64.5" font-family="Helvetica,sans-Serif" font-size="10.00">Field::actuallyDecode</text>
</a>
</g>
</g>
<!-- Node3&#45;&gt;Node4 -->
<g id="edge3" class="edge">
<title>Node3&#45;&gt;Node4</title>
<path fill="none" stroke="midnightblue" d="M504.26,-52.03C526.76,-54.31 555.54,-57.22 581.71,-59.88"/>
<polygon fill="midnightblue" stroke="midnightblue" points="581.67,-63.39 591.97,-60.92 582.38,-56.43 581.67,-63.39"/>
</g>
<!-- Node5 -->
<g id="node5" class="node">
<title>Node5</title>
<g id="a_node5"><a xlink:href="class_field.html#a0f6c46168ecc1113ff61d9fb68d8c763" target="_top" xlink:title="Checks if the value can be decoded from the packet.">
<polygon fill="white" stroke="black" points="587,-19.5 587,-38.5 719,-38.5 719,-19.5 587,-19.5"/>
<text text-anchor="middle" x="653" y="-26.5" font-family="Helvetica,sans-Serif" font-size="10.00">Field::checkDecodeable</text>
</a>
</g>
</g>
<!-- Node3&#45;&gt;Node5 -->
<g id="edge4" class="edge">
<title>Node3&#45;&gt;Node5</title>
<path fill="none" stroke="midnightblue" d="M504.26,-43.97C525.33,-41.84 551.92,-39.14 576.71,-36.63"/>
<polygon fill="midnightblue" stroke="midnightblue" points="577.24,-40.09 586.84,-35.6 576.54,-33.13 577.24,-40.09"/>
</g>
</g>
</svg>
