<?xml version="1.0" encoding="UTF-8" standalone="no"?>
<!DOCTYPE svg PUBLIC "-//W3C//DTD SVG 1.1//EN"
 "http://www.w3.org/Graphics/SVG/1.1/DTD/svg11.dtd">
<!-- Generated by graphviz version 2.43.0 (0)
 -->
<!-- Title: ByteField Pages: 1 -->
<svg width="349pt" height="219pt"
 viewBox="0.00 0.00 348.50 219.00" xmlns="http://www.w3.org/2000/svg" xmlns:xlink="http://www.w3.org/1999/xlink">
<g id="graph0" class="graph" transform="scale(1 1) rotate(0) translate(4 215)">
<title>ByteField</title>
<polygon fill="white" stroke="transparent" points="-4,4 -4,-215 344.5,-215 344.5,4 -4,4"/>
<!-- Node1 -->
<g id="node1" class="node">
<title>Node1</title>
<g id="a_node1"><a xlink:title="Fields that contain an unsigned, single byte integer.">
<polygon fill="#bfbfbf" stroke="black" points="164.5,-0.5 164.5,-19.5 226.5,-19.5 226.5,-0.5 164.5,-0.5"/>
<text text-anchor="middle" x="195.5" y="-7.5" font-family="Helvetica,sans-Serif" font-size="10.00">ByteField</text>
</a>
</g>
</g>
<!-- Node2 -->
<g id="node2" class="node">
<title>Node2</title>
<g id="a_node2"><a xlink:href="class_field.html" target="_top" xlink:title="Class for handling data fields in messages.">
<polygon fill="white" stroke="black" points="175.5,-57.5 175.5,-76.5 215.5,-76.5 215.5,-57.5 175.5,-57.5"/>
<text text-anchor="middle" x="195.5" y="-64.5" font-family="Helvetica,sans-Serif" font-size="10.00">Field</text>
</a>
</g>
</g>
<!-- Node2&#45;&gt;Node1 -->
<g id="edge1" class="edge">
<title>Node2&#45;&gt;Node1</title>
<path fill="none" stroke="midnightblue" d="M195.5,-47.12C195.5,-37.82 195.5,-27.06 195.5,-19.71"/>
<polygon fill="midnightblue" stroke="midnightblue" points="192,-47.41 195.5,-57.41 199,-47.41 192,-47.41"/>
</g>
<!-- Node3 -->
<g id="node3" class="node">
<title>Node3</title>
<g id="a_node3"><a xlink:href="class_lookupable.html" target="_top" xlink:title="Class for fields and devices that can be managed by LookupManager.">
<polygon fill="white" stroke="black" points="65.5,-124.5 65.5,-143.5 137.5,-143.5 137.5,-124.5 65.5,-124.5"/>
<text text-anchor="middle" x="101.5" y="-131.5" font-family="Helvetica,sans-Serif" font-size="10.00">Lookupable</text>
</a>
</g>
</g>
<!-- Node3&#45;&gt;Node2 -->
<g id="edge2" class="edge">
<title>Node3&#45;&gt;Node2</title>
<path fill="none" stroke="midnightblue" d="M122.59,-118.42C141.17,-105.57 167.62,-87.28 183.02,-76.63"/>
<polygon fill="midnightblue" stroke="midnightblue" points="120.41,-115.67 114.18,-124.23 124.39,-121.43 120.41,-115.67"/>
</g>
<!-- Node4 -->
<g id="node4" class="node">
<title>Node4</title>
<g id="a_node4"><a xlink:title=" ">
<polygon fill="white" stroke="#bfbfbf" points="0,-191.5 0,-210.5 101,-210.5 101,-191.5 0,-191.5"/>
<text text-anchor="middle" x="50.5" y="-198.5" font-family="Helvetica,sans-Serif" font-size="10.00">const char *const</text>
</a>
</g>
</g>
<!-- Node4&#45;&gt;Node3 -->
<g id="edge3" class="edge">
<title>Node4&#45;&gt;Node3</title>
<path fill="none" stroke="#9a32cd" stroke-dasharray="5,2" d="M63.63,-183.27C73.57,-170.6 86.83,-153.7 94.73,-143.63"/>
<polygon fill="#9a32cd" stroke="#9a32cd" points="60.8,-181.21 57.38,-191.23 66.3,-185.53 60.8,-181.21"/>
<text text-anchor="middle" x="95" y="-165" font-family="Helvetica,sans-Serif" font-size="10.00"> name</text>
</g>
<!-- Node5 -->
<g id="node5" class="node">
<title>Node5</title>
<g id="a_node5"><a xlink:title=" ">
<polygon fill="white" stroke="#bfbfbf" points="119,-191.5 119,-210.5 186,-210.5 186,-191.5 119,-191.5"/>
<text text-anchor="middle" x="152.5" y="-198.5" font-family="Helvetica,sans-Serif" font-size="10.00">const char</text>
</a>
</g>
</g>
<!-- Node5&#45;&gt;Node3 -->
<g id="edge4" class="edge">
<title>Node5&#45;&gt;Node3</title>
<path fill="none" stroke="#9a32cd" stroke-dasharray="5,2" d="M139.37,-183.27C129.43,-170.6 116.17,-153.7 108.27,-143.63"/>
<polygon fill="#9a32cd" stroke="#9a32cd" points="136.7,-185.53 145.62,-191.23 142.2,-181.21 136.7,-185.53"/>
<text text-anchor="middle" x="150.5" y="-165" font-family="Helvetica,sans-Serif" font-size="10.00"> symbol</text>
</g>
<!-- Node6 -->
<g id="node6" class="node">
<title>Node6</title>
<g id="a_node6"><a xlink:title=" ">
<polygon fill="white" stroke="#bfbfbf" points="155.5,-124.5 155.5,-143.5 235.5,-143.5 235.5,-124.5 155.5,-124.5"/>
<text text-anchor="middle" x="195.5" y="-131.5" font-family="Helvetica,sans-Serif" font-size="10.00">const uint8_t</text>
</a>
</g>
</g>
<!-- Node6&#45;&gt;Node2 -->
<g id="edge5" class="edge">
<title>Node6&#45;&gt;Node2</title>
<path fill="none" stroke="#9a32cd" stroke-dasharray="5,2" d="M195.5,-114.04C195.5,-101.67 195.5,-86.12 195.5,-76.63"/>
<polygon fill="#9a32cd" stroke="#9a32cd" points="192,-114.23 195.5,-124.23 199,-114.23 192,-114.23"/>
<text text-anchor="middle" x="234.5" y="-98" font-family="Helvetica,sans-Serif" font-size="10.00"> encodedLength</text>
</g>
<!-- Node7 -->
<g id="node7" class="node">
<title>Node7</title>
<g id="a_node7"><a xlink:title=" ">
<polygon fill="white" stroke="#bfbfbf" points="277.5,-124.5 277.5,-143.5 315.5,-143.5 315.5,-124.5 277.5,-124.5"/>
<text text-anchor="middle" x="296.5" y="-131.5" font-family="Helvetica,sans-Serif" font-size="10.00">bool</text>
</a>
</g>
</g>
<!-- Node7&#45;&gt;Node2 -->
<g id="edge6" class="edge">
<title>Node7&#45;&gt;Node2</title>
<path fill="none" stroke="#9a32cd" stroke-dasharray="5,2" d="M289.27,-114.73C285.73,-107.74 280.83,-100.2 274.5,-95 257.48,-81.02 232.82,-74.12 215.59,-70.82"/>
<polygon fill="#9a32cd" stroke="#9a32cd" points="286.25,-116.53 293.52,-124.24 292.64,-113.68 286.25,-116.53"/>
<text text-anchor="middle" x="312" y="-98" font-family="Helvetica,sans-Serif" font-size="10.00"> txRequired</text>
</g>
</g>
</svg>
