<?xml version="1.0" encoding="UTF-8" standalone="no"?>
<!DOCTYPE svg PUBLIC "-//W3C//DTD SVG 1.1//EN"
 "http://www.w3.org/Graphics/SVG/1.1/DTD/svg11.dtd">
<!-- Generated by graphviz version 2.43.0 (0)
 -->
<!-- Title: SettableField&lt; T &gt; Pages: 1 -->
<svg width="349pt" height="240pt"
 viewBox="0.00 0.00 348.50 240.00" xmlns="http://www.w3.org/2000/svg" xmlns:xlink="http://www.w3.org/1999/xlink">
<g id="graph0" class="graph" transform="scale(1 1) rotate(0) translate(4 236)">
<title>SettableField&lt; T &gt;</title>
<polygon fill="white" stroke="transparent" points="-4,4 -4,-236 344.5,-236 344.5,4 -4,4"/>
<!-- Node1 -->
<g id="node1" class="node">
<title>Node1</title>
<g id="a_node1"><a xlink:title="Class for fields that can be set.">
<polygon fill="#bfbfbf" stroke="black" points="167,-0.5 167,-19.5 276,-19.5 276,-0.5 167,-0.5"/>
<text text-anchor="middle" x="221.5" y="-7.5" font-family="Helvetica,sans-Serif" font-size="10.00">SettableField&lt; T &gt;</text>
</a>
</g>
</g>
<!-- Node2 -->
<g id="node2" class="node">
<title>Node2</title>
<g id="a_node2"><a xlink:href="class_field.html" target="_top" xlink:title="Class for handling data fields in messages.">
<polygon fill="white" stroke="black" points="175.5,-78.5 175.5,-97.5 215.5,-97.5 215.5,-78.5 175.5,-78.5"/>
<text text-anchor="middle" x="195.5" y="-85.5" font-family="Helvetica,sans-Serif" font-size="10.00">Field</text>
</a>
</g>
</g>
<!-- Node2&#45;&gt;Node1 -->
<g id="edge1" class="edge">
<title>Node2&#45;&gt;Node1</title>
<path fill="none" stroke="midnightblue" d="M201.77,-68.67C207.09,-53.11 214.5,-31.47 218.55,-19.62"/>
<polygon fill="midnightblue" stroke="midnightblue" points="198.41,-67.69 198.48,-78.28 205.03,-69.95 198.41,-67.69"/>
</g>
<!-- Node3 -->
<g id="node3" class="node">
<title>Node3</title>
<g id="a_node3"><a xlink:href="class_lookupable.html" target="_top" xlink:title="Class for fields and devices that can be managed by LookupManager.">
<polygon fill="white" stroke="black" points="65.5,-145.5 65.5,-164.5 137.5,-164.5 137.5,-145.5 65.5,-145.5"/>
<text text-anchor="middle" x="101.5" y="-152.5" font-family="Helvetica,sans-Serif" font-size="10.00">Lookupable</text>
</a>
</g>
</g>
<!-- Node3&#45;&gt;Node2 -->
<g id="edge2" class="edge">
<title>Node3&#45;&gt;Node2</title>
<path fill="none" stroke="midnightblue" d="M122.59,-139.42C141.17,-126.57 167.62,-108.28 183.02,-97.63"/>
<polygon fill="midnightblue" stroke="midnightblue" points="120.41,-136.67 114.18,-145.23 124.39,-142.43 120.41,-136.67"/>
</g>
<!-- Node4 -->
<g id="node4" class="node">
<title>Node4</title>
<g id="a_node4"><a xlink:title=" ">
<polygon fill="white" stroke="#bfbfbf" points="0,-212.5 0,-231.5 101,-231.5 101,-212.5 0,-212.5"/>
<text text-anchor="middle" x="50.5" y="-219.5" font-family="Helvetica,sans-Serif" font-size="10.00">const char *const</text>
</a>
</g>
</g>
<!-- Node4&#45;&gt;Node3 -->
<g id="edge3" class="edge">
<title>Node4&#45;&gt;Node3</title>
<path fill="none" stroke="#9a32cd" stroke-dasharray="5,2" d="M63.63,-204.27C73.57,-191.6 86.83,-174.7 94.73,-164.63"/>
<polygon fill="#9a32cd" stroke="#9a32cd" points="60.8,-202.21 57.38,-212.23 66.3,-206.53 60.8,-202.21"/>
<text text-anchor="middle" x="95" y="-186" font-family="Helvetica,sans-Serif" font-size="10.00"> name</text>
</g>
<!-- Node5 -->
<g id="node5" class="node">
<title>Node5</title>
<g id="a_node5"><a xlink:title=" ">
<polygon fill="white" stroke="#bfbfbf" points="119,-212.5 119,-231.5 186,-231.5 186,-212.5 119,-212.5"/>
<text text-anchor="middle" x="152.5" y="-219.5" font-family="Helvetica,sans-Serif" font-size="10.00">const char</text>
</a>
</g>
</g>
<!-- Node5&#45;&gt;Node3 -->
<g id="edge4" class="edge">
<title>Node5&#45;&gt;Node3</title>
<path fill="none" stroke="#9a32cd" stroke-dasharray="5,2" d="M139.37,-204.27C129.43,-191.6 116.17,-174.7 108.27,-164.63"/>
<polygon fill="#9a32cd" stroke="#9a32cd" points="136.7,-206.53 145.62,-212.23 142.2,-202.21 136.7,-206.53"/>
<text text-anchor="middle" x="150.5" y="-186" font-family="Helvetica,sans-Serif" font-size="10.00"> symbol</text>
</g>
<!-- Node6 -->
<g id="node6" class="node">
<title>Node6</title>
<g id="a_node6"><a xlink:title=" ">
<polygon fill="white" stroke="#bfbfbf" points="155.5,-145.5 155.5,-164.5 235.5,-164.5 235.5,-145.5 155.5,-145.5"/>
<text text-anchor="middle" x="195.5" y="-152.5" font-family="Helvetica,sans-Serif" font-size="10.00">const uint8_t</text>
</a>
</g>
</g>
<!-- Node6&#45;&gt;Node2 -->
<g id="edge5" class="edge">
<title>Node6&#45;&gt;Node2</title>
<path fill="none" stroke="#9a32cd" stroke-dasharray="5,2" d="M195.5,-135.04C195.5,-122.67 195.5,-107.12 195.5,-97.63"/>
<polygon fill="#9a32cd" stroke="#9a32cd" points="192,-135.23 195.5,-145.23 199,-135.23 192,-135.23"/>
<text text-anchor="middle" x="234.5" y="-119" font-family="Helvetica,sans-Serif" font-size="10.00"> encodedLength</text>
</g>
<!-- Node7 -->
<g id="node7" class="node">
<title>Node7</title>
<g id="a_node7"><a xlink:title=" ">
<polygon fill="white" stroke="#bfbfbf" points="277.5,-145.5 277.5,-164.5 315.5,-164.5 315.5,-145.5 277.5,-145.5"/>
<text text-anchor="middle" x="296.5" y="-152.5" font-family="Helvetica,sans-Serif" font-size="10.00">bool</text>
</a>
</g>
</g>
<!-- Node7&#45;&gt;Node2 -->
<g id="edge6" class="edge">
<title>Node7&#45;&gt;Node2</title>
<path fill="none" stroke="#9a32cd" stroke-dasharray="5,2" d="M289.27,-135.73C285.73,-128.74 280.83,-121.2 274.5,-116 269.82,-112.16 237.63,-101.84 215.81,-95.13"/>
<polygon fill="#9a32cd" stroke="#9a32cd" points="286.25,-137.53 293.52,-145.24 292.64,-134.68 286.25,-137.53"/>
<text text-anchor="middle" x="312" y="-119" font-family="Helvetica,sans-Serif" font-size="10.00"> txRequired</text>
</g>
<!-- Node8 -->
<g id="node8" class="node">
<title>Node8</title>
<g id="a_node8"><a xlink:title=" ">
<polygon fill="white" stroke="#bfbfbf" points="234,-78.5 234,-97.5 263,-97.5 263,-78.5 234,-78.5"/>
<text text-anchor="middle" x="248.5" y="-85.5" font-family="Helvetica,sans-Serif" font-size="10.00">T</text>
</a>
</g>
</g>
<!-- Node8&#45;&gt;Node1 -->
<g id="edge7" class="edge">
<title>Node8&#45;&gt;Node1</title>
<path fill="none" stroke="#9a32cd" stroke-dasharray="5,2" d="M241.99,-68.67C236.46,-53.11 228.77,-31.47 224.56,-19.62"/>
<polygon fill="#9a32cd" stroke="#9a32cd" points="238.76,-70.03 245.4,-78.28 245.35,-67.69 238.76,-70.03"/>
<text text-anchor="middle" x="260.5" y="-52" font-family="Helvetica,sans-Serif" font-size="10.00"> curValue</text>
<text text-anchor="middle" x="260.5" y="-41" font-family="Helvetica,sans-Serif" font-size="10.00">setValue</text>
</g>
</g>
</svg>
