<?xml version="1.0" encoding="UTF-8" standalone="no"?>
<!DOCTYPE svg PUBLIC "-//W3C//DTD SVG 1.1//EN"
 "http://www.w3.org/Graphics/SVG/1.1/DTD/svg11.dtd">
<!-- Generated by graphviz version 2.43.0 (0)
 -->
<!-- Title: SettableByteField::decode Pages: 1 -->
<svg width="285pt" height="78pt"
 viewBox="0.00 0.00 285.00 77.50" xmlns="http://www.w3.org/2000/svg" xmlns:xlink="http://www.w3.org/1999/xlink">
<g id="graph0" class="graph" transform="scale(1 1) rotate(0) translate(4 73.5)">
<title>SettableByteField::decode</title>
<polygon fill="white" stroke="transparent" points="-4,4 -4,-73.5 281,-73.5 281,4 -4,4"/>
<!-- Node1 -->
<g id="node1" class="node">
<title>Node1</title>
<g id="a_node1"><a xlink:title="Decodes the value from bytes into an existing json document.">
<polygon fill="#bfbfbf" stroke="black" points="0,-22.5 0,-52.5 109,-52.5 109,-22.5 0,-22.5"/>
<text text-anchor="start" x="8" y="-40.5" font-family="Helvetica,sans-Serif" font-size="10.00">SettableByteField::</text>
<text text-anchor="middle" x="54.5" y="-29.5" font-family="Helvetica,sans-Serif" font-size="10.00">decode</text>
</a>
</g>
</g>
<!-- Node2 -->
<g id="node2" class="node">
<title>Node2</title>
<g id="a_node2"><a xlink:href="class_field.html#a0f6c46168ecc1113ff61d9fb68d8c763" target="_top" xlink:title="Checks if the value can be decoded from the packet.">
<polygon fill="white" stroke="black" points="145,-50 145,-69 277,-69 277,-50 145,-50"/>
<text text-anchor="middle" x="211" y="-57" font-family="Helvetica,sans-Serif" font-size="10.00">Field::checkDecodeable</text>
</a>
</g>
</g>
<!-- Node1&#45;&gt;Node2 -->
<g id="edge1" class="edge">
<title>Node1&#45;&gt;Node2</title>
<path fill="none" stroke="midnightblue" d="M109.1,-45.13C117.37,-46.31 126.04,-47.54 134.68,-48.77"/>
<polygon fill="midnightblue" stroke="midnightblue" points="134.38,-52.27 144.78,-50.21 135.37,-45.34 134.38,-52.27"/>
</g>
<!-- Node3 -->
<g id="node3" class="node">
<title>Node3</title>
<g id="a_node3"><a xlink:href="class_settable_field.html#a6ee15f7dd88d8e012b9a01912134a905" target="_top" xlink:title="Updates txRequired (if setValue == current, then not required).">
<polygon fill="white" stroke="black" points="154.5,-0.5 154.5,-30.5 267.5,-30.5 267.5,-0.5 154.5,-0.5"/>
<text text-anchor="start" x="162.5" y="-18.5" font-family="Helvetica,sans-Serif" font-size="10.00">SettableField&lt; int8</text>
<text text-anchor="middle" x="211" y="-7.5" font-family="Helvetica,sans-Serif" font-size="10.00">_t &gt;::setTxRequired</text>
</a>
</g>
</g>
<!-- Node1&#45;&gt;Node3 -->
<g id="edge2" class="edge">
<title>Node1&#45;&gt;Node3</title>
<path fill="none" stroke="midnightblue" d="M109.1,-29.87C120.43,-28.25 132.5,-26.54 144.22,-24.87"/>
<polygon fill="midnightblue" stroke="midnightblue" points="144.99,-28.29 154.39,-23.42 144,-21.36 144.99,-28.29"/>
</g>
</g>
</svg>
