<?xml version="1.0" encoding="UTF-8" standalone="no"?>
<!DOCTYPE svg PUBLIC "-//W3C//DTD SVG 1.1//EN"
 "http://www.w3.org/Graphics/SVG/1.1/DTD/svg11.dtd">
<!-- Generated by graphviz version 2.43.0 (0)
 -->
<!-- Title: Field::checkDecodeable Pages: 1 -->
<svg width="323pt" height="356pt"
 viewBox="0.00 0.00 323.00 356.00" xmlns="http://www.w3.org/2000/svg" xmlns:xlink="http://www.w3.org/1999/xlink">
<g id="graph0" class="graph" transform="scale(1 1) rotate(0) translate(4 352)">
<title>Field::checkDecodeable</title>
<polygon fill="white" stroke="transparent" points="-4,4 -4,-352 319,-352 319,4 -4,4"/>
<!-- Node1 -->
<g id="node1" class="node">
<title>Node1</title>
<g id="a_node1"><a xlink:title="Checks if the value can be decoded from the packet.">
<polygon fill="#bfbfbf" stroke="black" points="183,-170.5 183,-189.5 315,-189.5 315,-170.5 183,-170.5"/>
<text text-anchor="middle" x="249" y="-177.5" font-family="Helvetica,sans-Serif" font-size="10.00">Field::checkDecodeable</text>
</a>
</g>
</g>
<!-- Node2 -->
<g id="node2" class="node">
<title>Node2</title>
<g id="a_node2"><a xlink:href="class_tenths_byte_field.html#a71aff44c2db0542b592a99b9aa9b1799" target="_top" xlink:title="Decodes the value from bytes into an existing json document.">
<polygon fill="white" stroke="black" points="6,-328.5 6,-347.5 141,-347.5 141,-328.5 6,-328.5"/>
<text text-anchor="middle" x="73.5" y="-335.5" font-family="Helvetica,sans-Serif" font-size="10.00">TenthsByteField::decode</text>
</a>
</g>
</g>
<!-- Node1&#45;&gt;Node2 -->
<g id="edge1" class="edge">
<title>Node1&#45;&gt;Node2</title>
<path fill="none" stroke="midnightblue" d="M239.35,-199.32C224.77,-229.6 192.39,-287.99 147,-319 141.31,-322.89 134.86,-325.98 128.22,-328.44"/>
<polygon fill="midnightblue" stroke="midnightblue" points="242.7,-200.41 243.75,-189.87 236.35,-197.45 242.7,-200.41"/>
</g>
<!-- Node3 -->
<g id="node3" class="node">
<title>Node3</title>
<g id="a_node3"><a xlink:href="class_tenths_field.html#a559987579b531c15fcb383aad6487d43" target="_top" xlink:title="Decodes the value from bytes into an existing json document.">
<polygon fill="white" stroke="black" points="17,-290.5 17,-309.5 130,-309.5 130,-290.5 17,-290.5"/>
<text text-anchor="middle" x="73.5" y="-297.5" font-family="Helvetica,sans-Serif" font-size="10.00">TenthsField::decode</text>
</a>
</g>
</g>
<!-- Node1&#45;&gt;Node3 -->
<g id="edge2" class="edge">
<title>Node1&#45;&gt;Node3</title>
<path fill="none" stroke="midnightblue" d="M235.04,-197.87C217.6,-220.62 184.41,-259.54 147,-281 140.23,-284.88 132.65,-287.99 125.01,-290.47"/>
<polygon fill="midnightblue" stroke="midnightblue" points="237.94,-199.85 241.13,-189.75 232.33,-195.65 237.94,-199.85"/>
</g>
<!-- Node4 -->
<g id="node4" class="node">
<title>Node4</title>
<g id="a_node4"><a xlink:href="class_long_u_int_field.html#a719f137da9de237d749644af4e1ffc2e" target="_top" xlink:title="Decodes the value from bytes into an existing json document.">
<polygon fill="white" stroke="black" points="11,-252.5 11,-271.5 136,-271.5 136,-252.5 11,-252.5"/>
<text text-anchor="middle" x="73.5" y="-259.5" font-family="Helvetica,sans-Serif" font-size="10.00">LongUIntField::decode</text>
</a>
</g>
</g>
<!-- Node1&#45;&gt;Node4 -->
<g id="edge3" class="edge">
<title>Node1&#45;&gt;Node4</title>
<path fill="none" stroke="midnightblue" d="M227.06,-195.7C207.33,-209.84 176.46,-230.3 147,-243 138.4,-246.71 128.9,-249.83 119.69,-252.41"/>
<polygon fill="midnightblue" stroke="midnightblue" points="229.28,-198.41 235.3,-189.7 225.16,-192.75 229.28,-198.41"/>
</g>
<!-- Node5 -->
<g id="node5" class="node">
<title>Node5</title>
<g id="a_node5"><a xlink:href="class_byte_field.html#ab81d073f3c791b9a8e0ba15f7f6b1af0" target="_top" xlink:title="Decodes the value from bytes into an existing json document.">
<polygon fill="white" stroke="black" points="21.5,-214.5 21.5,-233.5 125.5,-233.5 125.5,-214.5 21.5,-214.5"/>
<text text-anchor="middle" x="73.5" y="-221.5" font-family="Helvetica,sans-Serif" font-size="10.00">ByteField::decode</text>
</a>
</g>
</g>
<!-- Node1&#45;&gt;Node5 -->
<g id="edge4" class="edge">
<title>Node1&#45;&gt;Node5</title>
<path fill="none" stroke="midnightblue" d="M200.44,-192.06C172.61,-199.12 137.98,-207.9 112.07,-214.47"/>
<polygon fill="midnightblue" stroke="midnightblue" points="201.52,-195.4 210.35,-189.55 199.8,-188.61 201.52,-195.4"/>
</g>
<!-- Node6 -->
<g id="node6" class="node">
<title>Node6</title>
<g id="a_node6"><a xlink:href="class_settable_byte_field.html#ad677f1c126fb69e1f41edfa138aa37f7" target="_top" xlink:title="Decodes the value from bytes into an existing json document.">
<polygon fill="white" stroke="black" points="19,-165 19,-195 128,-195 128,-165 19,-165"/>
<text text-anchor="start" x="27" y="-183" font-family="Helvetica,sans-Serif" font-size="10.00">SettableByteField::</text>
<text text-anchor="middle" x="73.5" y="-172" font-family="Helvetica,sans-Serif" font-size="10.00">decode</text>
</a>
</g>
</g>
<!-- Node1&#45;&gt;Node6 -->
<g id="edge5" class="edge">
<title>Node1&#45;&gt;Node6</title>
<path fill="none" stroke="midnightblue" d="M172.61,-180C157.62,-180 142.16,-180 128.07,-180"/>
<polygon fill="midnightblue" stroke="midnightblue" points="172.9,-183.5 182.9,-180 172.9,-176.5 172.9,-183.5"/>
</g>
<!-- Node7 -->
<g id="node7" class="node">
<title>Node7</title>
<g id="a_node7"><a xlink:href="class_flag_field.html#a5a5f75fee9d58da514f457cb0adfcb6c" target="_top" xlink:title="Decodes the value from bytes into an existing json document.">
<polygon fill="white" stroke="black" points="22.5,-126.5 22.5,-145.5 124.5,-145.5 124.5,-126.5 22.5,-126.5"/>
<text text-anchor="middle" x="73.5" y="-133.5" font-family="Helvetica,sans-Serif" font-size="10.00">FlagField::decode</text>
</a>
</g>
</g>
<!-- Node1&#45;&gt;Node7 -->
<g id="edge6" class="edge">
<title>Node1&#45;&gt;Node7</title>
<path fill="none" stroke="midnightblue" d="M200.44,-167.94C172.61,-160.88 137.98,-152.1 112.07,-145.53"/>
<polygon fill="midnightblue" stroke="midnightblue" points="199.8,-171.39 210.35,-170.45 201.52,-164.6 199.8,-171.39"/>
</g>
<!-- Node8 -->
<g id="node8" class="node">
<title>Node8</title>
<g id="a_node8"><a xlink:href="class_settable_flag_field.html#a61f1589e7f86b94bfb956e5fa6711483" target="_top" xlink:title="Decodes the value from bytes into an existing json document.">
<polygon fill="white" stroke="black" points="20,-77 20,-107 127,-107 127,-77 20,-77"/>
<text text-anchor="start" x="28" y="-95" font-family="Helvetica,sans-Serif" font-size="10.00">SettableFlagField::</text>
<text text-anchor="middle" x="73.5" y="-84" font-family="Helvetica,sans-Serif" font-size="10.00">decode</text>
</a>
</g>
</g>
<!-- Node1&#45;&gt;Node8 -->
<g id="edge7" class="edge">
<title>Node1&#45;&gt;Node8</title>
<path fill="none" stroke="midnightblue" d="M226.5,-164.59C206.59,-150.81 175.8,-130.73 147,-117 139.43,-113.39 131.19,-110.04 123.08,-107.05"/>
<polygon fill="midnightblue" stroke="midnightblue" points="224.63,-167.55 234.83,-170.43 228.65,-161.82 224.63,-167.55"/>
</g>
<!-- Node9 -->
<g id="node9" class="node">
<title>Node9</title>
<g id="a_node9"><a xlink:href="class_pump_on_time_field.html#afc688cd2270f95d14f75fa31d4dbbd84" target="_top" xlink:title="Decodes the value from bytes into an existing json document.">
<polygon fill="white" stroke="black" points="0,-38.5 0,-57.5 147,-57.5 147,-38.5 0,-38.5"/>
<text text-anchor="middle" x="73.5" y="-45.5" font-family="Helvetica,sans-Serif" font-size="10.00">PumpOnTimeField::decode</text>
</a>
</g>
</g>
<!-- Node1&#45;&gt;Node9 -->
<g id="edge8" class="edge">
<title>Node1&#45;&gt;Node9</title>
<path fill="none" stroke="midnightblue" d="M236.44,-161.69C219.75,-136.74 186.51,-92.39 147,-68 140,-63.68 132.06,-60.27 124.05,-57.59"/>
<polygon fill="midnightblue" stroke="midnightblue" points="233.62,-163.75 242.01,-170.22 239.48,-159.93 233.62,-163.75"/>
</g>
<!-- Node10 -->
<g id="node10" class="node">
<title>Node10</title>
<g id="a_node10"><a xlink:href="class_u_int_field.html#a72984fadf6b1619c513442c0036fe96f" target="_top" xlink:title="Decodes the value from bytes into an existing json document.">
<polygon fill="white" stroke="black" points="23,-0.5 23,-19.5 124,-19.5 124,-0.5 23,-0.5"/>
<text text-anchor="middle" x="73.5" y="-7.5" font-family="Helvetica,sans-Serif" font-size="10.00">UIntField::decode</text>
</a>
</g>
</g>
<!-- Node1&#45;&gt;Node10 -->
<g id="edge9" class="edge">
<title>Node1&#45;&gt;Node10</title>
<path fill="none" stroke="midnightblue" d="M240.58,-160.86C227.05,-128.55 195.24,-63.35 147,-29 140.22,-24.17 132.29,-20.57 124.22,-17.88"/>
<polygon fill="midnightblue" stroke="midnightblue" points="237.47,-162.51 244.47,-170.47 243.96,-159.88 237.47,-162.51"/>
</g>
</g>
</svg>
