<?xml version="1.0" encoding="UTF-8" standalone="no"?>
<!DOCTYPE svg PUBLIC "-//W3C//DTD SVG 1.1//EN"
 "http://www.w3.org/Graphics/SVG/1.1/DTD/svg11.dtd">
<!-- Generated by graphviz version 2.43.0 (0)
 -->
<!-- Title: LookupManager&lt; LookupableClass &gt; Pages: 1 -->
<svg width="316pt" height="163pt"
 viewBox="0.00 0.00 316.00 163.00" xmlns="http://www.w3.org/2000/svg" xmlns:xlink="http://www.w3.org/1999/xlink">
<g id="graph0" class="graph" transform="scale(1 1) rotate(0) translate(4 159)">
<title>LookupManager&lt; LookupableClass &gt;</title>
<polygon fill="white" stroke="transparent" points="-4,4 -4,-159 312,-159 312,4 -4,4"/>
<!-- Node1 -->
<g id="node1" class="node">
<title>Node1</title>
<g id="a_node1"><a xlink:title="Class for looking up and managing devices and fields.">
<polygon fill="#bfbfbf" stroke="black" points="47.5,-124.5 47.5,-154.5 208.5,-154.5 208.5,-124.5 47.5,-124.5"/>
<text text-anchor="start" x="55.5" y="-142.5" font-family="Helvetica,sans-Serif" font-size="10.00">LookupManager&lt; Lookupable</text>
<text text-anchor="middle" x="128" y="-131.5" font-family="Helvetica,sans-Serif" font-size="10.00">Class &gt;</text>
</a>
</g>
</g>
<!-- Node2 -->
<g id="node2" class="node">
<title>Node2</title>
<g id="a_node2"><a xlink:href="class_lookup_manager.html" target="_top" xlink:title=" ">
<polygon fill="white" stroke="black" points="0,-57.5 0,-76.5 140,-76.5 140,-57.5 0,-57.5"/>
<text text-anchor="middle" x="70" y="-64.5" font-family="Helvetica,sans-Serif" font-size="10.00">LookupManager&lt; Field &gt;</text>
</a>
</g>
</g>
<!-- Node1&#45;&gt;Node2 -->
<g id="edge1" class="edge">
<title>Node1&#45;&gt;Node2</title>
<path fill="none" stroke="orange" stroke-dasharray="5,2" d="M109.81,-116.38C98.82,-103.04 85.43,-86.76 77.32,-76.89"/>
<polygon fill="orange" stroke="orange" points="107.21,-118.73 116.26,-124.23 112.61,-114.29 107.21,-118.73"/>
<text text-anchor="middle" x="124.5" y="-98" font-family="Helvetica,sans-Serif" font-size="10.00"> &lt; Field &gt;</text>
</g>
<!-- Node3 -->
<g id="node3" class="node">
<title>Node3</title>
<g id="a_node3"><a xlink:href="class_lookup_manager.html" target="_top" xlink:title=" ">
<polygon fill="white" stroke="black" points="158,-57.5 158,-76.5 308,-76.5 308,-57.5 158,-57.5"/>
<text text-anchor="middle" x="233" y="-64.5" font-family="Helvetica,sans-Serif" font-size="10.00">LookupManager&lt; Device &gt;</text>
</a>
</g>
</g>
<!-- Node1&#45;&gt;Node3 -->
<g id="edge2" class="edge">
<title>Node1&#45;&gt;Node3</title>
<path fill="none" stroke="orange" stroke-dasharray="5,2" d="M157.45,-118.73C178.15,-104.83 204.8,-86.93 220.29,-76.53"/>
<polygon fill="orange" stroke="orange" points="155.35,-115.92 149,-124.4 159.25,-121.73 155.35,-115.92"/>
<text text-anchor="middle" x="219" y="-98" font-family="Helvetica,sans-Serif" font-size="10.00"> &lt; Device &gt;</text>
</g>
<!-- Node4 -->
<g id="node4" class="node">
<title>Node4</title>
<g id="a_node4"><a xlink:href="class_device_manager.html" target="_top" xlink:title="Class for managing all devices.">
<polygon fill="white" stroke="black" points="186.5,-0.5 186.5,-19.5 279.5,-19.5 279.5,-0.5 186.5,-0.5"/>
<text text-anchor="middle" x="233" y="-7.5" font-family="Helvetica,sans-Serif" font-size="10.00">DeviceManager</text>
</a>
</g>
</g>
<!-- Node3&#45;&gt;Node4 -->
<g id="edge3" class="edge">
<title>Node3&#45;&gt;Node4</title>
<path fill="none" stroke="midnightblue" d="M233,-47.12C233,-37.82 233,-27.06 233,-19.71"/>
<polygon fill="midnightblue" stroke="midnightblue" points="229.5,-47.41 233,-57.41 236.5,-47.41 229.5,-47.41"/>
</g>
</g>
</svg>
