<?xml version="1.0" encoding="UTF-8" standalone="no"?>
<!DOCTYPE svg PUBLIC "-//W3C//DTD SVG 1.1//EN"
 "http://www.w3.org/Graphics/SVG/1.1/DTD/svg11.dtd">
<!-- Generated by graphviz version 2.43.0 (0)
 -->
<!-- Title: SettableFlagField Pages: 1 -->
<svg width="267pt" height="364pt"
 viewBox="0.00 0.00 266.50 364.00" xmlns="http://www.w3.org/2000/svg" xmlns:xlink="http://www.w3.org/1999/xlink">
<g id="graph0" class="graph" transform="scale(1 1) rotate(0) translate(4 360)">
<title>SettableFlagField</title>
<polygon fill="white" stroke="transparent" points="-4,4 -4,-360 262.5,-360 262.5,4 -4,4"/>
<!-- Node1 -->
<g id="node1" class="node">
<title>Node1</title>
<g id="a_node1"><a xlink:title="Class for flags that can be set via an RPC call.">
<polygon fill="#bfbfbf" stroke="black" points="84,-0.5 84,-19.5 185,-19.5 185,-0.5 84,-0.5"/>
<text text-anchor="middle" x="134.5" y="-7.5" font-family="Helvetica,sans-Serif" font-size="10.00">SettableFlagField</text>
</a>
</g>
</g>
<!-- Node2 -->
<g id="node2" class="node">
<title>Node2</title>
<g id="a_node2"><a xlink:href="class_settable_field.html" target="_top" xlink:title=" ">
<polygon fill="white" stroke="black" points="69,-57.5 69,-76.5 200,-76.5 200,-57.5 69,-57.5"/>
<text text-anchor="middle" x="134.5" y="-64.5" font-family="Helvetica,sans-Serif" font-size="10.00">SettableField&lt; int8_t &gt;</text>
</a>
</g>
</g>
<!-- Node2&#45;&gt;Node1 -->
<g id="edge1" class="edge">
<title>Node2&#45;&gt;Node1</title>
<path fill="none" stroke="midnightblue" d="M134.5,-47.12C134.5,-37.82 134.5,-27.06 134.5,-19.71"/>
<polygon fill="midnightblue" stroke="midnightblue" points="131,-47.41 134.5,-57.41 138,-47.41 131,-47.41"/>
</g>
<!-- Node3 -->
<g id="node3" class="node">
<title>Node3</title>
<g id="a_node3"><a xlink:href="class_field.html" target="_top" xlink:title="Class for handling data fields in messages.">
<polygon fill="white" stroke="black" points="143.5,-202.5 143.5,-221.5 183.5,-221.5 183.5,-202.5 143.5,-202.5"/>
<text text-anchor="middle" x="163.5" y="-209.5" font-family="Helvetica,sans-Serif" font-size="10.00">Field</text>
</a>
</g>
</g>
<!-- Node3&#45;&gt;Node2 -->
<g id="edge2" class="edge">
<title>Node3&#45;&gt;Node2</title>
<path fill="none" stroke="midnightblue" d="M167.61,-192.31C171.89,-168.6 176.24,-126.96 162.5,-95 159.35,-87.68 153.16,-81.37 147.39,-76.7"/>
<polygon fill="midnightblue" stroke="midnightblue" points="164.13,-191.89 165.6,-202.39 170.99,-193.27 164.13,-191.89"/>
</g>
<!-- Node8 -->
<g id="node8" class="node">
<title>Node8</title>
<g id="a_node8"><a xlink:href="class_settable_field.html" target="_top" xlink:title="Class for fields that can be set.">
<polygon fill="white" stroke="black" points="39,-124.5 39,-143.5 148,-143.5 148,-124.5 39,-124.5"/>
<text text-anchor="middle" x="93.5" y="-131.5" font-family="Helvetica,sans-Serif" font-size="10.00">SettableField&lt; T &gt;</text>
</a>
</g>
</g>
<!-- Node3&#45;&gt;Node8 -->
<g id="edge8" class="edge">
<title>Node3&#45;&gt;Node8</title>
<path fill="none" stroke="midnightblue" d="M156.64,-192.81C152.25,-182.89 145.82,-170.86 137.5,-162 130.38,-154.42 120.68,-148.17 112.2,-143.59"/>
<polygon fill="midnightblue" stroke="midnightblue" points="153.44,-194.23 160.46,-202.17 159.92,-191.58 153.44,-194.23"/>
</g>
<!-- Node4 -->
<g id="node4" class="node">
<title>Node4</title>
<g id="a_node4"><a xlink:href="class_lookupable.html" target="_top" xlink:title="Class for fields and devices that can be managed by LookupManager.">
<polygon fill="white" stroke="black" points="65.5,-269.5 65.5,-288.5 137.5,-288.5 137.5,-269.5 65.5,-269.5"/>
<text text-anchor="middle" x="101.5" y="-276.5" font-family="Helvetica,sans-Serif" font-size="10.00">Lookupable</text>
</a>
</g>
</g>
<!-- Node4&#45;&gt;Node3 -->
<g id="edge3" class="edge">
<title>Node4&#45;&gt;Node3</title>
<path fill="none" stroke="midnightblue" d="M116.76,-262C128.92,-249.25 145.48,-231.89 155.27,-221.63"/>
<polygon fill="midnightblue" stroke="midnightblue" points="114.23,-259.58 109.86,-269.23 119.3,-264.41 114.23,-259.58"/>
</g>
<!-- Node5 -->
<g id="node5" class="node">
<title>Node5</title>
<g id="a_node5"><a xlink:title=" ">
<polygon fill="white" stroke="#bfbfbf" points="0,-336.5 0,-355.5 101,-355.5 101,-336.5 0,-336.5"/>
<text text-anchor="middle" x="50.5" y="-343.5" font-family="Helvetica,sans-Serif" font-size="10.00">const char *const</text>
</a>
</g>
</g>
<!-- Node5&#45;&gt;Node4 -->
<g id="edge4" class="edge">
<title>Node5&#45;&gt;Node4</title>
<path fill="none" stroke="#9a32cd" stroke-dasharray="5,2" d="M63.63,-328.27C73.57,-315.6 86.83,-298.7 94.73,-288.63"/>
<polygon fill="#9a32cd" stroke="#9a32cd" points="60.8,-326.21 57.38,-336.23 66.3,-330.53 60.8,-326.21"/>
<text text-anchor="middle" x="95" y="-310" font-family="Helvetica,sans-Serif" font-size="10.00"> name</text>
</g>
<!-- Node6 -->
<g id="node6" class="node">
<title>Node6</title>
<g id="a_node6"><a xlink:title=" ">
<polygon fill="white" stroke="#bfbfbf" points="119,-336.5 119,-355.5 186,-355.5 186,-336.5 119,-336.5"/>
<text text-anchor="middle" x="152.5" y="-343.5" font-family="Helvetica,sans-Serif" font-size="10.00">const char</text>
</a>
</g>
</g>
<!-- Node6&#45;&gt;Node4 -->
<g id="edge5" class="edge">
<title>Node6&#45;&gt;Node4</title>
<path fill="none" stroke="#9a32cd" stroke-dasharray="5,2" d="M139.37,-328.27C129.43,-315.6 116.17,-298.7 108.27,-288.63"/>
<polygon fill="#9a32cd" stroke="#9a32cd" points="136.7,-330.53 145.62,-336.23 142.2,-326.21 136.7,-330.53"/>
<text text-anchor="middle" x="150.5" y="-310" font-family="Helvetica,sans-Serif" font-size="10.00"> symbol</text>
</g>
<!-- Node7 -->
<g id="node7" class="node">
<title>Node7</title>
<g id="a_node7"><a xlink:title=" ">
<polygon fill="white" stroke="#bfbfbf" points="155.5,-269.5 155.5,-288.5 235.5,-288.5 235.5,-269.5 155.5,-269.5"/>
<text text-anchor="middle" x="195.5" y="-276.5" font-family="Helvetica,sans-Serif" font-size="10.00">const uint8_t</text>
</a>
</g>
</g>
<!-- Node7&#45;&gt;Node3 -->
<g id="edge6" class="edge">
<title>Node7&#45;&gt;Node3</title>
<path fill="none" stroke="#9a32cd" stroke-dasharray="5,2" d="M186.72,-260.16C180.55,-247.63 172.56,-231.41 167.75,-221.63"/>
<polygon fill="#9a32cd" stroke="#9a32cd" points="183.63,-261.81 191.18,-269.23 189.91,-258.72 183.63,-261.81"/>
<text text-anchor="middle" x="219.5" y="-243" font-family="Helvetica,sans-Serif" font-size="10.00"> encodedLength</text>
</g>
<!-- Node8&#45;&gt;Node2 -->
<g id="edge7" class="edge">
<title>Node8&#45;&gt;Node2</title>
<path fill="none" stroke="orange" stroke-dasharray="5,2" d="M99.15,-114.5C101.54,-108.06 104.67,-100.96 108.5,-95 112.86,-88.21 119.1,-81.67 124.37,-76.72"/>
<polygon fill="orange" stroke="orange" points="95.7,-113.8 95.84,-124.4 102.33,-116.02 95.7,-113.8"/>
<text text-anchor="middle" x="135.5" y="-98" font-family="Helvetica,sans-Serif" font-size="10.00"> &lt; int8_t &gt;</text>
</g>
<!-- Node9 -->
<g id="node9" class="node">
<title>Node9</title>
<g id="a_node9"><a xlink:title=" ">
<polygon fill="white" stroke="#bfbfbf" points="76,-202.5 76,-221.5 105,-221.5 105,-202.5 76,-202.5"/>
<text text-anchor="middle" x="90.5" y="-209.5" font-family="Helvetica,sans-Serif" font-size="10.00">T</text>
</a>
</g>
</g>
<!-- Node9&#45;&gt;Node8 -->
<g id="edge9" class="edge">
<title>Node9&#45;&gt;Node8</title>
<path fill="none" stroke="#9a32cd" stroke-dasharray="5,2" d="M90.65,-192.08C90.78,-182.98 91.03,-171.92 91.5,-162 91.79,-155.8 92.32,-148.82 92.75,-143.51"/>
<polygon fill="#9a32cd" stroke="#9a32cd" points="87.15,-192.28 90.54,-202.32 94.15,-192.36 87.15,-192.28"/>
<text text-anchor="middle" x="114.5" y="-176" font-family="Helvetica,sans-Serif" font-size="10.00"> curValue</text>
<text text-anchor="middle" x="114.5" y="-165" font-family="Helvetica,sans-Serif" font-size="10.00">setValue</text>
</g>
</g>
</svg>
