<?xml version="1.0" encoding="UTF-8" standalone="no"?>
<!DOCTYPE svg PUBLIC "-//W3C//DTD SVG 1.1//EN"
 "http://www.w3.org/Graphics/SVG/1.1/DTD/svg11.dtd">
<!-- Generated by graphviz version 2.43.0 (0)
 -->
<!-- Title: Device::rpcWaiting Pages: 1 -->
<svg width="301pt" height="28pt"
 viewBox="0.00 0.00 301.00 28.00" xmlns="http://www.w3.org/2000/svg" xmlns:xlink="http://www.w3.org/1999/xlink">
<g id="graph0" class="graph" transform="scale(1 1) rotate(0) translate(4 24)">
<title>Device::rpcWaiting</title>
<polygon fill="white" stroke="transparent" points="-4,4 -4,-24 297,-24 297,4 -4,4"/>
<!-- Node1 -->
<g id="node1" class="node">
<title>Node1</title>
<g id="a_node1"><a xlink:title="Checks if a transmission is required.">
<polygon fill="#bfbfbf" stroke="black" points="185,-0.5 185,-19.5 293,-19.5 293,-0.5 185,-0.5"/>
<text text-anchor="middle" x="239" y="-7.5" font-family="Helvetica,sans-Serif" font-size="10.00">Device::rpcWaiting</text>
</a>
</g>
</g>
<!-- Node2 -->
<g id="node2" class="node">
<title>Node2</title>
<g id="a_node2"><a xlink:href="lora_8cpp.html#aa56d712b5af48cc40bd9ef0dac6cb797" target="_top" xlink:title="Task for sending packets when needed.">
<polygon fill="white" stroke="black" points="80,-0.5 80,-19.5 149,-19.5 149,-0.5 80,-0.5"/>
<text text-anchor="middle" x="114.5" y="-7.5" font-family="Helvetica,sans-Serif" font-size="10.00">loraTxTask</text>
</a>
</g>
</g>
<!-- Node1&#45;&gt;Node2 -->
<g id="edge1" class="edge">
<title>Node1&#45;&gt;Node2</title>
<path fill="none" stroke="midnightblue" d="M174.95,-10C166.05,-10 157.2,-10 149.15,-10"/>
<polygon fill="midnightblue" stroke="midnightblue" points="174.98,-13.5 184.98,-10 174.98,-6.5 174.98,-13.5"/>
</g>
<!-- Node3 -->
<g id="node3" class="node">
<title>Node3</title>
<g id="a_node3"><a xlink:href="main_8cpp.html#a4fc01d736fe50cf5b977f755b675f11d" target="_top" xlink:title=" ">
<polygon fill="white" stroke="black" points="0,-0.5 0,-19.5 44,-19.5 44,-0.5 0,-0.5"/>
<text text-anchor="middle" x="22" y="-7.5" font-family="Helvetica,sans-Serif" font-size="10.00">setup</text>
</a>
</g>
</g>
<!-- Node2&#45;&gt;Node3 -->
<g id="edge2" class="edge">
<title>Node2&#45;&gt;Node3</title>
<path fill="none" stroke="midnightblue" d="M69.52,-10C60.66,-10 51.74,-10 44.11,-10"/>
<polygon fill="midnightblue" stroke="midnightblue" points="69.8,-13.5 79.8,-10 69.8,-6.5 69.8,-13.5"/>
</g>
</g>
</svg>
