<?xml version="1.0" encoding="UTF-8" standalone="no"?>
<!DOCTYPE svg PUBLIC "-//W3C//DTD SVG 1.1//EN"
 "http://www.w3.org/Graphics/SVG/1.1/DTD/svg11.dtd">
<!-- Generated by graphviz version 2.43.0 (0)
 -->
<!-- Title: byteArrayToUInt Pages: 1 -->
<svg width="290pt" height="78pt"
 viewBox="0.00 0.00 290.00 77.50" xmlns="http://www.w3.org/2000/svg" xmlns:xlink="http://www.w3.org/1999/xlink">
<g id="graph0" class="graph" transform="scale(1 1) rotate(0) translate(4 73.5)">
<title>byteArrayToUInt</title>
<polygon fill="white" stroke="transparent" points="-4,4 -4,-73.5 286,-73.5 286,4 -4,4"/>
<!-- Node1 -->
<g id="node1" class="node">
<title>Node1</title>
<g id="a_node1"><a xlink:title=" ">
<polygon fill="#bfbfbf" stroke="black" points="187,-22.5 187,-41.5 282,-41.5 282,-22.5 187,-22.5"/>
<text text-anchor="middle" x="234.5" y="-29.5" font-family="Helvetica,sans-Serif" font-size="10.00">byteArrayToUInt</text>
</a>
</g>
</g>
<!-- Node2 -->
<g id="node2" class="node">
<title>Node2</title>
<g id="a_node2"><a xlink:href="class_pump_on_time_field.html#a0a1c8d75840b12c4066c3fa2c7f0d884" target="_top" xlink:title="Decodes the value from bytes into an existing json document. decode does the checking for length,...">
<polygon fill="white" stroke="black" points="0,-39 0,-69 151,-69 151,-39 0,-39"/>
<text text-anchor="start" x="8" y="-57" font-family="Helvetica,sans-Serif" font-size="10.00">PumpOnTimeField::actually</text>
<text text-anchor="middle" x="75.5" y="-46" font-family="Helvetica,sans-Serif" font-size="10.00">Decode</text>
</a>
</g>
</g>
<!-- Node1&#45;&gt;Node2 -->
<g id="edge1" class="edge">
<title>Node1&#45;&gt;Node2</title>
<path fill="none" stroke="midnightblue" d="M176.87,-39.94C168.54,-41.1 159.86,-42.32 151.23,-43.53"/>
<polygon fill="midnightblue" stroke="midnightblue" points="177.4,-43.4 186.82,-38.54 176.43,-36.46 177.4,-43.4"/>
</g>
<!-- Node3 -->
<g id="node3" class="node">
<title>Node3</title>
<g id="a_node3"><a xlink:href="class_u_int_field.html#ae4a65d650f90c5d637594db2920bcf73" target="_top" xlink:title="Decodes the value from bytes into an existing json document. decode does the checking for length,...">
<polygon fill="white" stroke="black" points="4.5,-0.5 4.5,-19.5 146.5,-19.5 146.5,-0.5 4.5,-0.5"/>
<text text-anchor="middle" x="75.5" y="-7.5" font-family="Helvetica,sans-Serif" font-size="10.00">UIntField::actuallyDecode</text>
</a>
</g>
</g>
<!-- Node1&#45;&gt;Node3 -->
<g id="edge2" class="edge">
<title>Node1&#45;&gt;Node3</title>
<path fill="none" stroke="midnightblue" d="M176.61,-24.03C166.19,-22.57 155.21,-21.03 144.5,-19.53"/>
<polygon fill="midnightblue" stroke="midnightblue" points="176.43,-27.54 186.82,-25.46 177.4,-20.6 176.43,-27.54"/>
</g>
</g>
</svg>
