<?xml version="1.0" encoding="UTF-8" standalone="no"?>
<!DOCTYPE svg PUBLIC "-//W3C//DTD SVG 1.1//EN"
 "http://www.w3.org/Graphics/SVG/1.1/DTD/svg11.dtd">
<!-- Generated by graphviz version 2.43.0 (0)
 -->
<!-- Title: BaseStationCode/src/src/conversions.h Pages: 1 -->
<!--zoomable 441 -->
<svg id="main" version="1.1" xmlns="http://www.w3.org/2000/svg" xmlns:xlink="http://www.w3.org/1999/xlink" xml:space="preserve" onload="init(evt)">
<style type="text/css"><![CDATA[
.edge:hover path { stroke: red; }
.edge:hover polygon { stroke: red; fill: red; }
]]></style>
<script type="text/javascript"><![CDATA[
var edges = document.getElementsByTagName('g');
if (edges && edges.length) {
  for (var i=0;i<edges.length;i++) {
    if (edges[i].id.substr(0,4)=='edge') {
      edges[i].setAttribute('class','edge');
    }
  }
}
]]></script>
        <defs>
                <circle id="rim" cx="0" cy="0" r="7"/>
                <circle id="rim2" cx="0" cy="0" r="3.5"/>
                <g id="zoomPlus">
                        <use xlink:href="#rim" fill="#404040">
                                <set attributeName="fill" to="#808080" begin="zoomplus.mouseover" end="zoomplus.mouseout"/>
                        </use>
                        <path d="M-4,0h8M0,-4v8" fill="none" stroke="white" stroke-width="1.5" pointer-events="none"/>
                </g>
                <g id="zoomMin">
                        <use xlink:href="#rim" fill="#404040">
                                <set attributeName="fill" to="#808080" begin="zoomminus.mouseover" end="zoomminus.mouseout"/>
                        </use>
                        <path d="M-4,0h8" fill="none" stroke="white" stroke-width="1.5" pointer-events="none"/>
                </g>
                <g id="dirArrow">
                        <path fill="none" stroke="white" stroke-width="1.5" d="M0,-3.0v7 M-2.5,-0.5L0,-3.0L2.5,-0.5"/>
                </g>
               <g id="resetDef">
                       <use xlink:href="#rim2" fill="#404040">
                               <set attributeName="fill" to="#808080" begin="reset.mouseover" end="reset.mouseout"/>
                       </use>
               </g>
        </defs>

<script type="text/javascript">
var viewWidth = 725;
var viewHeight = 441;
var sectionId = 'dynsection-1';
</script>
<script xlink:href="svgpan.js"/>
<svg id="graph" class="graph">
<g id="viewport">
<title>BaseStationCode/src/src/conversions.h</title>
<polygon fill="white" stroke="transparent" points="-4,4 -4,-437 721,-437 721,4 -4,4"/>
<!-- Node1 -->
<g id="node1" class="node">
<title>Node1</title>
<g id="a_node1"><a xlink:title="General functions for converting to and from char arrays.">
<polygon fill="#bfbfbf" stroke="black" points="363,-402.5 363,-432.5 480,-432.5 480,-402.5 363,-402.5"/>
<text text-anchor="start" x="371" y="-420.5" font-family="Helvetica,sans-Serif" font-size="10.00">BaseStationCode/src</text>
<text text-anchor="middle" x="421.5" y="-409.5" font-family="Helvetica,sans-Serif" font-size="10.00">/src/conversions.h</text>
</a>
</g>
</g>
<!-- Node2 -->
<g id="node2" class="node">
<title>Node2</title>
<g id="a_node2"><a xlink:href="conversions_8cpp.html" target="_top" xlink:title="General functions for converting to and from char arrays.">
<polygon fill="white" stroke="black" points="296,-335.5 296,-365.5 413,-365.5 413,-335.5 296,-335.5"/>
<text text-anchor="start" x="304" y="-353.5" font-family="Helvetica,sans-Serif" font-size="10.00">BaseStationCode/src</text>
<text text-anchor="middle" x="354.5" y="-342.5" font-family="Helvetica,sans-Serif" font-size="10.00">/src/conversions.cpp</text>
</a>
</g>
</g>
<!-- Node1&#45;&gt;Node2 -->
<g id="edge1" class="edge">
<title>Node1&#45;&gt;Node2</title>
<path fill="none" stroke="midnightblue" d="M399.66,-395.31C389.61,-385.56 377.96,-374.26 369.01,-365.58"/>
<polygon fill="midnightblue" stroke="midnightblue" points="397.35,-397.94 406.96,-402.4 402.22,-392.92 397.35,-397.94"/>
</g>
<!-- Node3 -->
<g id="node3" class="node">
<title>Node3</title>
<g id="a_node3"><a xlink:href="fields_8h.html" target="_top" xlink:title="Contains fields classes.">
<polygon fill="white" stroke="black" points="431,-335.5 431,-365.5 548,-365.5 548,-335.5 431,-335.5"/>
<text text-anchor="start" x="439" y="-353.5" font-family="Helvetica,sans-Serif" font-size="10.00">BaseStationCode/src</text>
<text text-anchor="middle" x="489.5" y="-342.5" font-family="Helvetica,sans-Serif" font-size="10.00">/src/fields.h</text>
</a>
</g>
</g>
<!-- Node1&#45;&gt;Node3 -->
<g id="edge2" class="edge">
<title>Node1&#45;&gt;Node3</title>
<path fill="none" stroke="midnightblue" d="M443.67,-395.31C453.87,-385.56 465.69,-374.26 474.77,-365.58"/>
<polygon fill="midnightblue" stroke="midnightblue" points="441.07,-392.96 436.25,-402.4 445.9,-398.02 441.07,-392.96"/>
</g>
<!-- Node4 -->
<g id="node4" class="node">
<title>Node4</title>
<g id="a_node4"><a xlink:href="device__list_8h.html" target="_top" xlink:title="List of all devices and fields known to the system.">
<polygon fill="white" stroke="black" points="3,-201.5 3,-231.5 120,-231.5 120,-201.5 3,-201.5"/>
<text text-anchor="start" x="11" y="-219.5" font-family="Helvetica,sans-Serif" font-size="10.00">BaseStationCode/src</text>
<text text-anchor="middle" x="61.5" y="-208.5" font-family="Helvetica,sans-Serif" font-size="10.00">/device_list.h</text>
</a>
</g>
</g>
<!-- Node3&#45;&gt;Node4 -->
<g id="edge3" class="edge">
<title>Node3&#45;&gt;Node4</title>
<path fill="none" stroke="midnightblue" d="M434.33,-332.48C348.91,-306.14 186.26,-255.98 107.08,-231.56"/>
<polygon fill="midnightblue" stroke="midnightblue" points="433.51,-335.9 444.1,-335.5 435.58,-329.21 433.51,-335.9"/>
</g>
<!-- Node6 -->
<g id="node6" class="node">
<title>Node6</title>
<g id="a_node6"><a xlink:href="devices_8h.html" target="_top" xlink:title="Devices and manager for all known devices the base station connects to.">
<polygon fill="white" stroke="black" points="350,-268.5 350,-298.5 467,-298.5 467,-268.5 350,-268.5"/>
<text text-anchor="start" x="358" y="-286.5" font-family="Helvetica,sans-Serif" font-size="10.00">BaseStationCode/src</text>
<text text-anchor="middle" x="408.5" y="-275.5" font-family="Helvetica,sans-Serif" font-size="10.00">/src/devices.h</text>
</a>
</g>
</g>
<!-- Node3&#45;&gt;Node6 -->
<g id="edge5" class="edge">
<title>Node3&#45;&gt;Node6</title>
<path fill="none" stroke="midnightblue" d="M463.81,-328.88C451.5,-319.01 437.07,-307.43 426.04,-298.58"/>
<polygon fill="midnightblue" stroke="midnightblue" points="461.93,-331.87 471.92,-335.4 466.32,-326.41 461.93,-331.87"/>
</g>
<!-- Node16 -->
<g id="node16" class="node">
<title>Node16</title>
<g id="a_node16"><a xlink:href="rpc_8h.html" target="_top" xlink:title="Handles RPC calls.">
<polygon fill="white" stroke="black" points="562,-67.5 562,-97.5 679,-97.5 679,-67.5 562,-67.5"/>
<text text-anchor="start" x="570" y="-85.5" font-family="Helvetica,sans-Serif" font-size="10.00">BaseStationCode/src</text>
<text text-anchor="middle" x="620.5" y="-74.5" font-family="Helvetica,sans-Serif" font-size="10.00">/src/rpc.h</text>
</a>
</g>
</g>
<!-- Node3&#45;&gt;Node16 -->
<g id="edge31" class="edge">
<title>Node3&#45;&gt;Node16</title>
<path fill="none" stroke="midnightblue" d="M501.03,-326.08C527.57,-272.2 592.29,-140.79 613.58,-97.55"/>
<polygon fill="midnightblue" stroke="midnightblue" points="497.82,-324.68 496.54,-335.2 504.1,-327.77 497.82,-324.68"/>
</g>
<!-- Node19 -->
<g id="node19" class="node">
<title>Node19</title>
<g id="a_node19"><a xlink:href="fields_8cpp.html" target="_top" xlink:title="Contains fields classes.">
<polygon fill="white" stroke="black" points="600,-268.5 600,-298.5 717,-298.5 717,-268.5 600,-268.5"/>
<text text-anchor="start" x="608" y="-286.5" font-family="Helvetica,sans-Serif" font-size="10.00">BaseStationCode/src</text>
<text text-anchor="middle" x="658.5" y="-275.5" font-family="Helvetica,sans-Serif" font-size="10.00">/src/fields.cpp</text>
</a>
</g>
</g>
<!-- Node3&#45;&gt;Node19 -->
<g id="edge30" class="edge">
<title>Node3&#45;&gt;Node19</title>
<path fill="none" stroke="midnightblue" d="M535.83,-331.68C562.93,-321.26 596.67,-308.28 621.9,-298.58"/>
<polygon fill="midnightblue" stroke="midnightblue" points="534.25,-328.54 526.17,-335.4 536.76,-335.07 534.25,-328.54"/>
</g>
<!-- Node5 -->
<g id="node5" class="node">
<title>Node5</title>
<g id="a_node5"><a xlink:href="main_8cpp.html" target="_top" xlink:title=" ">
<polygon fill="white" stroke="black" points="135,-0.5 135,-30.5 252,-30.5 252,-0.5 135,-0.5"/>
<text text-anchor="start" x="143" y="-18.5" font-family="Helvetica,sans-Serif" font-size="10.00">BaseStationCode/src</text>
<text text-anchor="middle" x="193.5" y="-7.5" font-family="Helvetica,sans-Serif" font-size="10.00">/main.cpp</text>
</a>
</g>
</g>
<!-- Node4&#45;&gt;Node5 -->
<g id="edge4" class="edge">
<title>Node4&#45;&gt;Node5</title>
<path fill="none" stroke="midnightblue" d="M46.72,-192.37C28.73,-160.95 3.95,-104.44 31.5,-67 38.07,-58.07 92.9,-42.19 136.98,-30.61"/>
<polygon fill="midnightblue" stroke="midnightblue" points="43.9,-194.46 52.02,-201.26 49.91,-190.88 43.9,-194.46"/>
</g>
<!-- Node6&#45;&gt;Node4 -->
<g id="edge6" class="edge">
<title>Node6&#45;&gt;Node4</title>
<path fill="none" stroke="midnightblue" d="M339.87,-270.12C284.42,-260.06 204.38,-245.38 134.5,-232 129.8,-231.1 124.94,-230.16 120.06,-229.21"/>
<polygon fill="midnightblue" stroke="midnightblue" points="339.46,-273.61 349.93,-271.95 340.71,-266.72 339.46,-273.61"/>
</g>
<!-- Node7 -->
<g id="node7" class="node">
<title>Node7</title>
<g id="a_node7"><a xlink:href="devices_8cpp.html" target="_top" xlink:title="Devices and manager for all known devices the base station connects to.">
<polygon fill="white" stroke="black" points="350,-201.5 350,-231.5 467,-231.5 467,-201.5 350,-201.5"/>
<text text-anchor="start" x="358" y="-219.5" font-family="Helvetica,sans-Serif" font-size="10.00">BaseStationCode/src</text>
<text text-anchor="middle" x="408.5" y="-208.5" font-family="Helvetica,sans-Serif" font-size="10.00">/src/devices.cpp</text>
</a>
</g>
</g>
<!-- Node6&#45;&gt;Node7 -->
<g id="edge7" class="edge">
<title>Node6&#45;&gt;Node7</title>
<path fill="none" stroke="midnightblue" d="M408.5,-258.11C408.5,-249.15 408.5,-239.32 408.5,-231.58"/>
<polygon fill="midnightblue" stroke="midnightblue" points="405,-258.4 408.5,-268.4 412,-258.4 405,-258.4"/>
</g>
<!-- Node8 -->
<g id="node8" class="node">
<title>Node8</title>
<g id="a_node8"><a xlink:href="leds_8h.html" target="_top" xlink:title="Controls the LEDs on the unit.">
<polygon fill="white" stroke="black" points="41,-67.5 41,-97.5 158,-97.5 158,-67.5 41,-67.5"/>
<text text-anchor="start" x="49" y="-85.5" font-family="Helvetica,sans-Serif" font-size="10.00">BaseStationCode/src</text>
<text text-anchor="middle" x="99.5" y="-74.5" font-family="Helvetica,sans-Serif" font-size="10.00">/src/leds.h</text>
</a>
</g>
</g>
<!-- Node6&#45;&gt;Node8 -->
<g id="edge8" class="edge">
<title>Node6&#45;&gt;Node8</title>
<path fill="none" stroke="midnightblue" d="M339.76,-277.43C297.96,-271.57 245.17,-258.98 205.5,-232 153.91,-196.9 118.95,-127.88 105.57,-97.93"/>
<polygon fill="midnightblue" stroke="midnightblue" points="339.49,-280.92 349.86,-278.74 340.4,-273.98 339.49,-280.92"/>
</g>
<!-- Node10 -->
<g id="node10" class="node">
<title>Node10</title>
<g id="a_node10"><a xlink:href="lora_8h.html" target="_top" xlink:title="File that handles the LoRa radio and PJON.">
<polygon fill="white" stroke="black" points="215,-201.5 215,-231.5 332,-231.5 332,-201.5 215,-201.5"/>
<text text-anchor="start" x="223" y="-219.5" font-family="Helvetica,sans-Serif" font-size="10.00">BaseStationCode/src</text>
<text text-anchor="middle" x="273.5" y="-208.5" font-family="Helvetica,sans-Serif" font-size="10.00">/src/lora.h</text>
</a>
</g>
</g>
<!-- Node6&#45;&gt;Node10 -->
<g id="edge11" class="edge">
<title>Node6&#45;&gt;Node10</title>
<path fill="none" stroke="midnightblue" d="M370.06,-263.99C348.66,-253.69 322.45,-241.07 302.74,-231.58"/>
<polygon fill="midnightblue" stroke="midnightblue" points="368.68,-267.21 379.21,-268.4 371.72,-260.9 368.68,-267.21"/>
</g>
<!-- Node12 -->
<g id="node12" class="node">
<title>Node12</title>
<g id="a_node12"><a xlink:href="networking_8h.html" target="_top" xlink:title="Header file for networking.cpp.">
<polygon fill="white" stroke="black" points="350,-134.5 350,-164.5 467,-164.5 467,-134.5 350,-134.5"/>
<text text-anchor="start" x="358" y="-152.5" font-family="Helvetica,sans-Serif" font-size="10.00">BaseStationCode/src</text>
<text text-anchor="middle" x="408.5" y="-141.5" font-family="Helvetica,sans-Serif" font-size="10.00">/src/networking.h</text>
</a>
</g>
</g>
<!-- Node6&#45;&gt;Node12 -->
<g id="edge28" class="edge">
<title>Node6&#45;&gt;Node12</title>
<path fill="none" stroke="midnightblue" d="M447.4,-262.86C458.91,-254.96 470.13,-244.67 476.5,-232 482.69,-219.69 482.69,-213.31 476.5,-201 468.51,-185.1 452.88,-172.95 438.62,-164.56"/>
<polygon fill="midnightblue" stroke="midnightblue" points="445.18,-260.13 438.62,-268.44 448.93,-266.03 445.18,-260.13"/>
</g>
<!-- Node6&#45;&gt;Node16 -->
<g id="edge29" class="edge">
<title>Node6&#45;&gt;Node16</title>
<path fill="none" stroke="midnightblue" d="M448.15,-263.45C463.08,-255.1 479.57,-244.37 492.5,-232 530.27,-195.87 522.24,-172.58 557.5,-134 570.17,-120.13 586.84,-106.95 599.85,-97.53"/>
<polygon fill="midnightblue" stroke="midnightblue" points="446.24,-260.5 439.1,-268.33 449.56,-266.67 446.24,-260.5"/>
</g>
<!-- Node8&#45;&gt;Node5 -->
<g id="edge9" class="edge">
<title>Node8&#45;&gt;Node5</title>
<path fill="none" stroke="midnightblue" d="M128.49,-61.45C142.95,-51.45 160.09,-39.6 173.14,-30.58"/>
<polygon fill="midnightblue" stroke="midnightblue" points="126.13,-58.83 119.9,-67.4 130.11,-64.59 126.13,-58.83"/>
</g>
<!-- Node9 -->
<g id="node9" class="node">
<title>Node9</title>
<g id="a_node9"><a xlink:href="leds_8cpp.html" target="_top" xlink:title="Controls the LEDs on the unit.">
<polygon fill="white" stroke="black" points="0,-0.5 0,-30.5 117,-30.5 117,-0.5 0,-0.5"/>
<text text-anchor="start" x="8" y="-18.5" font-family="Helvetica,sans-Serif" font-size="10.00">BaseStationCode/src</text>
<text text-anchor="middle" x="58.5" y="-7.5" font-family="Helvetica,sans-Serif" font-size="10.00">/src/leds.cpp</text>
</a>
</g>
</g>
<!-- Node8&#45;&gt;Node9 -->
<g id="edge10" class="edge">
<title>Node8&#45;&gt;Node9</title>
<path fill="none" stroke="midnightblue" d="M85.22,-58.87C79.29,-49.46 72.59,-38.83 67.38,-30.58"/>
<polygon fill="midnightblue" stroke="midnightblue" points="82.31,-60.81 90.6,-67.4 88.23,-57.07 82.31,-60.81"/>
</g>
<!-- Node10&#45;&gt;Node5 -->
<g id="edge12" class="edge">
<title>Node10&#45;&gt;Node5</title>
<path fill="none" stroke="midnightblue" d="M235.81,-195.98C224.13,-187.99 212.5,-177.62 205.5,-165 181.17,-121.12 186.82,-58.46 190.99,-30.69"/>
<polygon fill="midnightblue" stroke="midnightblue" points="233.95,-198.94 244.26,-201.37 237.72,-193.04 233.95,-198.94"/>
</g>
<!-- Node11 -->
<g id="node11" class="node">
<title>Node11</title>
<g id="a_node11"><a xlink:href="lora_8cpp.html" target="_top" xlink:title="File that handles the LoRa radio and PJON.">
<polygon fill="white" stroke="black" points="215,-134.5 215,-164.5 332,-164.5 332,-134.5 215,-134.5"/>
<text text-anchor="start" x="223" y="-152.5" font-family="Helvetica,sans-Serif" font-size="10.00">BaseStationCode/src</text>
<text text-anchor="middle" x="273.5" y="-141.5" font-family="Helvetica,sans-Serif" font-size="10.00">/src/lora.cpp</text>
</a>
</g>
</g>
<!-- Node10&#45;&gt;Node11 -->
<g id="edge13" class="edge">
<title>Node10&#45;&gt;Node11</title>
<path fill="none" stroke="midnightblue" d="M273.5,-191.11C273.5,-182.15 273.5,-172.32 273.5,-164.58"/>
<polygon fill="midnightblue" stroke="midnightblue" points="270,-191.4 273.5,-201.4 277,-191.4 270,-191.4"/>
</g>
<!-- Node10&#45;&gt;Node12 -->
<g id="edge14" class="edge">
<title>Node10&#45;&gt;Node12</title>
<path fill="none" stroke="midnightblue" d="M306.06,-196.85C326.49,-186.58 352.72,-174.03 373.59,-164.58"/>
<polygon fill="midnightblue" stroke="midnightblue" points="304.44,-193.75 297.11,-201.4 307.62,-199.99 304.44,-193.75"/>
</g>
<!-- Node12&#45;&gt;Node5 -->
<g id="edge15" class="edge">
<title>Node12&#45;&gt;Node5</title>
<path fill="none" stroke="midnightblue" d="M339.83,-132.69C301.73,-122.92 258.99,-109.99 243.5,-98 220.66,-80.32 205.77,-49.02 198.57,-30.79"/>
<polygon fill="midnightblue" stroke="midnightblue" points="339.36,-136.18 349.91,-135.23 341.07,-129.39 339.36,-136.18"/>
</g>
<!-- Node12&#45;&gt;Node8 -->
<g id="edge16" class="edge">
<title>Node12&#45;&gt;Node8</title>
<path fill="none" stroke="midnightblue" d="M339.73,-133.63C272.27,-119.32 204.93,-105.3 158.21,-95.62"/>
<polygon fill="midnightblue" stroke="midnightblue" points="339.17,-137.09 349.68,-135.74 340.62,-130.24 339.17,-137.09"/>
</g>
<!-- Node12&#45;&gt;Node10 -->
<g id="edge17" class="edge">
<title>Node12&#45;&gt;Node10</title>
<path fill="none" stroke="midnightblue" d="M376,-169.12C355.58,-179.39 329.35,-191.94 308.47,-201.4"/>
<polygon fill="midnightblue" stroke="midnightblue" points="377.61,-172.23 384.94,-164.58 374.44,-165.99 377.61,-172.23"/>
</g>
<!-- Node13 -->
<g id="node13" class="node">
<title>Node13</title>
<g id="a_node13"><a xlink:href="networking_8cpp.html" target="_top" xlink:title="File that handles connecting to WiFi and MQTT and staying connected.">
<polygon fill="white" stroke="black" points="413,-0.5 413,-30.5 530,-30.5 530,-0.5 413,-0.5"/>
<text text-anchor="start" x="421" y="-18.5" font-family="Helvetica,sans-Serif" font-size="10.00">BaseStationCode/src</text>
<text text-anchor="middle" x="471.5" y="-7.5" font-family="Helvetica,sans-Serif" font-size="10.00">/src/networking.cpp</text>
</a>
</g>
</g>
<!-- Node12&#45;&gt;Node13 -->
<g id="edge18" class="edge">
<title>Node12&#45;&gt;Node13</title>
<path fill="none" stroke="midnightblue" d="M407.28,-124.25C407.4,-107.36 409.57,-84.76 418.5,-67 425.86,-52.35 439.26,-39.64 450.75,-30.64"/>
<polygon fill="midnightblue" stroke="midnightblue" points="403.78,-124.47 407.44,-134.42 410.78,-124.36 403.78,-124.47"/>
</g>
<!-- Node14 -->
<g id="node14" class="node">
<title>Node14</title>
<g id="a_node14"><a xlink:href="ota_8h.html" target="_top" xlink:title="Handles over the air (OTA) updates.">
<polygon fill="white" stroke="black" points="253,-67.5 253,-97.5 370,-97.5 370,-67.5 253,-67.5"/>
<text text-anchor="start" x="261" y="-85.5" font-family="Helvetica,sans-Serif" font-size="10.00">BaseStationCode/src</text>
<text text-anchor="middle" x="311.5" y="-74.5" font-family="Helvetica,sans-Serif" font-size="10.00">/src/ota.h</text>
</a>
</g>
</g>
<!-- Node12&#45;&gt;Node14 -->
<g id="edge19" class="edge">
<title>Node12&#45;&gt;Node14</title>
<path fill="none" stroke="midnightblue" d="M379,-128.73C363.99,-118.68 346.1,-106.68 332.51,-97.58"/>
<polygon fill="midnightblue" stroke="midnightblue" points="377.2,-131.74 387.45,-134.4 381.09,-125.92 377.2,-131.74"/>
</g>
<!-- Node12&#45;&gt;Node16 -->
<g id="edge22" class="edge">
<title>Node12&#45;&gt;Node16</title>
<path fill="none" stroke="midnightblue" d="M464.13,-131.44C498.49,-120.91 542.06,-107.55 574.48,-97.61"/>
<polygon fill="midnightblue" stroke="midnightblue" points="462.77,-128.2 454.24,-134.48 464.83,-134.89 462.77,-128.2"/>
</g>
<!-- Node18 -->
<g id="node18" class="node">
<title>Node18</title>
<g id="a_node18"><a xlink:href="timeseries_8cpp.html" target="_top" xlink:title=" ">
<polygon fill="white" stroke="black" points="427,-67.5 427,-97.5 544,-97.5 544,-67.5 427,-67.5"/>
<text text-anchor="start" x="435" y="-85.5" font-family="Helvetica,sans-Serif" font-size="10.00">BaseStationCode/src</text>
<text text-anchor="middle" x="485.5" y="-74.5" font-family="Helvetica,sans-Serif" font-size="10.00">/src/timeseries.cpp</text>
</a>
</g>
</g>
<!-- Node12&#45;&gt;Node18 -->
<g id="edge27" class="edge">
<title>Node12&#45;&gt;Node18</title>
<path fill="none" stroke="midnightblue" d="M432.92,-127.88C444.62,-118.01 458.34,-106.43 468.82,-97.58"/>
<polygon fill="midnightblue" stroke="midnightblue" points="430.59,-125.27 425.21,-134.4 435.11,-130.62 430.59,-125.27"/>
</g>
<!-- Node14&#45;&gt;Node5 -->
<g id="edge20" class="edge">
<title>Node14&#45;&gt;Node5</title>
<path fill="none" stroke="midnightblue" d="M276.89,-62.44C258.38,-52.24 235.98,-39.9 219.05,-30.58"/>
<polygon fill="midnightblue" stroke="midnightblue" points="275.45,-65.64 285.9,-67.4 278.83,-59.51 275.45,-65.64"/>
</g>
<!-- Node15 -->
<g id="node15" class="node">
<title>Node15</title>
<g id="a_node15"><a xlink:href="ota_8cpp.html" target="_top" xlink:title="Handles over the air (OTA) updates.">
<polygon fill="white" stroke="black" points="270,-0.5 270,-30.5 387,-30.5 387,-0.5 270,-0.5"/>
<text text-anchor="start" x="278" y="-18.5" font-family="Helvetica,sans-Serif" font-size="10.00">BaseStationCode/src</text>
<text text-anchor="middle" x="328.5" y="-7.5" font-family="Helvetica,sans-Serif" font-size="10.00">/src/ota.cpp</text>
</a>
</g>
</g>
<!-- Node14&#45;&gt;Node15 -->
<g id="edge21" class="edge">
<title>Node14&#45;&gt;Node15</title>
<path fill="none" stroke="midnightblue" d="M317.73,-57.7C320.11,-48.59 322.75,-38.49 324.82,-30.58"/>
<polygon fill="midnightblue" stroke="midnightblue" points="314.33,-56.84 315.19,-67.4 321.11,-58.61 314.33,-56.84"/>
</g>
<!-- Node16&#45;&gt;Node5 -->
<g id="edge23" class="edge">
<title>Node16&#45;&gt;Node5</title>
<path fill="none" stroke="midnightblue" d="M551.84,-66.81C422.41,-45.46 386.7,-52.36 260.5,-31 257.8,-30.54 255.05,-30.05 252.27,-29.53"/>
<polygon fill="midnightblue" stroke="midnightblue" points="551.29,-70.27 561.73,-68.47 552.45,-63.36 551.29,-70.27"/>
</g>
<!-- Node16&#45;&gt;Node10 -->
<g id="edge24" class="edge">
<title>Node16&#45;&gt;Node10</title>
<path fill="none" stroke="midnightblue" d="M579.71,-102.05C560.99,-111.03 538.73,-122.37 519.5,-134 499.34,-146.2 497.87,-155.09 476.5,-165 463.32,-171.11 387.32,-189.31 332.17,-202.1"/>
<polygon fill="midnightblue" stroke="midnightblue" points="581.32,-105.16 588.86,-97.71 578.33,-98.83 581.32,-105.16"/>
</g>
<!-- Node16&#45;&gt;Node13 -->
<g id="edge25" class="edge">
<title>Node16&#45;&gt;Node13</title>
<path fill="none" stroke="midnightblue" d="M578.71,-63.27C554.98,-52.92 525.72,-40.15 503.77,-30.58"/>
<polygon fill="midnightblue" stroke="midnightblue" points="577.6,-66.61 588.17,-67.4 580.4,-60.19 577.6,-66.61"/>
</g>
<!-- Node17 -->
<g id="node17" class="node">
<title>Node17</title>
<g id="a_node17"><a xlink:href="rpc_8cpp.html" target="_top" xlink:title="Handles RPC calls.">
<polygon fill="white" stroke="black" points="562,-0.5 562,-30.5 679,-30.5 679,-0.5 562,-0.5"/>
<text text-anchor="start" x="570" y="-18.5" font-family="Helvetica,sans-Serif" font-size="10.00">BaseStationCode/src</text>
<text text-anchor="middle" x="620.5" y="-7.5" font-family="Helvetica,sans-Serif" font-size="10.00">/src/rpc.cpp</text>
</a>
</g>
</g>
<!-- Node16&#45;&gt;Node17 -->
<g id="edge26" class="edge">
<title>Node16&#45;&gt;Node17</title>
<path fill="none" stroke="midnightblue" d="M620.5,-57.11C620.5,-48.15 620.5,-38.32 620.5,-30.58"/>
<polygon fill="midnightblue" stroke="midnightblue" points="617,-57.4 620.5,-67.4 624,-57.4 617,-57.4"/>
</g>
</g>
</svg>
        <g id="navigator" transform="translate(0 0)" fill="#404254">
                <rect fill="#f2f5e9" fill-opacity="0.5" stroke="#606060" stroke-width=".5" x="0" y="0" width="60" height="60"/>
                <use id="zoomplus" xlink:href="#zoomPlus" x="17" y="9" onmousedown="handleZoom(evt,'in')"/>
                <use id="zoomminus" xlink:href="#zoomMin" x="42" y="9" onmousedown="handleZoom(evt,'out')"/>
                <use id="reset" xlink:href="#resetDef" x="30" y="36" onmousedown="handleReset()"/>
                <g id="arrowUp" xlink:href="#dirArrow" transform="translate(30 24)" onmousedown="handlePan(0,-1)">
                  <use xlink:href="#rim" fill="#404040">
                        <set attributeName="fill" to="#808080" begin="arrowUp.mouseover" end="arrowUp.mouseout"/>
                  </use>
                  <path fill="none" stroke="white" stroke-width="1.5" d="M0,-3.0v7 M-2.5,-0.5L0,-3.0L2.5,-0.5"/>
                </g>
                <g id="arrowRight" xlink:href="#dirArrow" transform="rotate(90) translate(36 -43)" onmousedown="handlePan(1,0)">
                  <use xlink:href="#rim" fill="#404040">
                        <set attributeName="fill" to="#808080" begin="arrowRight.mouseover" end="arrowRight.mouseout"/>
                  </use>
                  <path fill="none" stroke="white" stroke-width="1.5" d="M0,-3.0v7 M-2.5,-0.5L0,-3.0L2.5,-0.5"/>
                </g>
                <g id="arrowDown" xlink:href="#dirArrow" transform="rotate(180) translate(-30 -48)" onmousedown="handlePan(0,1)">
                  <use xlink:href="#rim" fill="#404040">
                        <set attributeName="fill" to="#808080" begin="arrowDown.mouseover" end="arrowDown.mouseout"/>
                  </use>
                  <path fill="none" stroke="white" stroke-width="1.5" d="M0,-3.0v7 M-2.5,-0.5L0,-3.0L2.5,-0.5"/>
                </g>
                <g id="arrowLeft" xlink:href="#dirArrow" transform="rotate(270) translate(-36 17)" onmousedown="handlePan(-1,0)">
                  <use xlink:href="#rim" fill="#404040">
                        <set attributeName="fill" to="#808080" begin="arrowLeft.mouseover" end="arrowLeft.mouseout"/>
                  </use>
                  <path fill="none" stroke="white" stroke-width="1.5" d="M0,-3.0v7 M-2.5,-0.5L0,-3.0L2.5,-0.5"/>
                </g>
        </g>
        <svg viewBox="0 0 15 15" width="100%" height="30px" preserveAspectRatio="xMaxYMin meet">
         <g id="arrow_out" transform="scale(0.3 0.3)">
          <a xlink:href="conversions_8h__dep__incl_org.svg" target="_base">
           <rect id="button" ry="5" rx="5" y="6" x="6" height="38" width="38"
                fill="#f2f5e9" fill-opacity="0.5" stroke="#606060" stroke-width="1.0"/>
           <path id="arrow"
             d="M 11.500037,31.436501 C 11.940474,20.09759 22.043105,11.32322 32.158766,21.979434 L 37.068811,17.246167 C 37.068811,17.246167 37.088388,32 37.088388,32 L 22.160133,31.978069 C 22.160133,31.978069 26.997745,27.140456 26.997745,27.140456 C 18.528582,18.264221 13.291696,25.230495 11.500037,31.436501 z"
             style="fill:#404040;"/>
          </a>
         </g>
        </svg>
</svg>
