<?xml version="1.0" encoding="UTF-8" standalone="no"?>
<!DOCTYPE svg PUBLIC "-//W3C//DTD SVG 1.1//EN"
 "http://www.w3.org/Graphics/SVG/1.1/DTD/svg11.dtd">
<!-- Generated by graphviz version 2.43.0 (0)
 -->
<!-- Title: ESP32BaseStation/src/conversions.h Pages: 1 -->
<!--zoomable 441 -->
<svg id="main" version="1.1" xmlns="http://www.w3.org/2000/svg" xmlns:xlink="http://www.w3.org/1999/xlink" xml:space="preserve" onload="init(evt)">
<style type="text/css"><![CDATA[
.edge:hover path { stroke: red; }
.edge:hover polygon { stroke: red; fill: red; }
]]></style>
<script type="text/javascript"><![CDATA[
var edges = document.getElementsByTagName('g');
if (edges && edges.length) {
  for (var i=0;i<edges.length;i++) {
    if (edges[i].id.substr(0,4)=='edge') {
      edges[i].setAttribute('class','edge');
    }
  }
}
]]></script>
        <defs>
                <circle id="rim" cx="0" cy="0" r="7"/>
                <circle id="rim2" cx="0" cy="0" r="3.5"/>
                <g id="zoomPlus">
                        <use xlink:href="#rim" fill="#404040">
                                <set attributeName="fill" to="#808080" begin="zoomplus.mouseover" end="zoomplus.mouseout"/>
                        </use>
                        <path d="M-4,0h8M0,-4v8" fill="none" stroke="white" stroke-width="1.5" pointer-events="none"/>
                </g>
                <g id="zoomMin">
                        <use xlink:href="#rim" fill="#404040">
                                <set attributeName="fill" to="#808080" begin="zoomminus.mouseover" end="zoomminus.mouseout"/>
                        </use>
                        <path d="M-4,0h8" fill="none" stroke="white" stroke-width="1.5" pointer-events="none"/>
                </g>
                <g id="dirArrow">
                        <path fill="none" stroke="white" stroke-width="1.5" d="M0,-3.0v7 M-2.5,-0.5L0,-3.0L2.5,-0.5"/>
                </g>
               <g id="resetDef">
                       <use xlink:href="#rim2" fill="#404040">
                               <set attributeName="fill" to="#808080" begin="reset.mouseover" end="reset.mouseout"/>
                       </use>
               </g>
        </defs>

<script type="text/javascript">
var viewWidth = 675;
var viewHeight = 441;
var sectionId = 'dynsection-1';
</script>
<script xlink:href="svgpan.js"/>
<svg id="graph" class="graph">
<g id="viewport">
<title>ESP32BaseStation/src/conversions.h</title>
<polygon fill="white" stroke="transparent" points="-4,4 -4,-437 671.09,-437 671.09,4 -4,4"/>
<!-- Node1 -->
<g id="node1" class="node">
<title>Node1</title>
<g id="a_node1"><a xlink:title="General functions for converting to and from char arrays.">
<polygon fill="#bfbfbf" stroke="black" points="279.09,-402.5 279.09,-432.5 401.09,-432.5 401.09,-402.5 279.09,-402.5"/>
<text text-anchor="start" x="287.09" y="-420.5" font-family="Helvetica,sans-Serif" font-size="10.00">ESP32BaseStation/src</text>
<text text-anchor="middle" x="340.09" y="-409.5" font-family="Helvetica,sans-Serif" font-size="10.00">/conversions.h</text>
</a>
</g>
</g>
<!-- Node2 -->
<g id="node2" class="node">
<title>Node2</title>
<g id="a_node2"><a xlink:href="conversions_8cpp.html" target="_top" xlink:title="General functions for converting to and from char arrays.">
<polygon fill="white" stroke="black" points="209.09,-335.5 209.09,-365.5 331.09,-365.5 331.09,-335.5 209.09,-335.5"/>
<text text-anchor="start" x="217.09" y="-353.5" font-family="Helvetica,sans-Serif" font-size="10.00">ESP32BaseStation/src</text>
<text text-anchor="middle" x="270.09" y="-342.5" font-family="Helvetica,sans-Serif" font-size="10.00">/conversions.cpp</text>
</a>
</g>
</g>
<!-- Node1&#45;&gt;Node2 -->
<g id="edge1" class="edge">
<title>Node1&#45;&gt;Node2</title>
<path fill="none" stroke="midnightblue" d="M317.27,-395.31C306.77,-385.56 294.6,-374.26 285.25,-365.58"/>
<polygon fill="midnightblue" stroke="midnightblue" points="315.19,-398.16 324.9,-402.4 319.95,-393.03 315.19,-398.16"/>
</g>
<!-- Node3 -->
<g id="node3" class="node">
<title>Node3</title>
<g id="a_node3"><a xlink:href="fields_8h.html" target="_top" xlink:title="Contains fields classes.">
<polygon fill="white" stroke="black" points="349.09,-335.5 349.09,-365.5 471.09,-365.5 471.09,-335.5 349.09,-335.5"/>
<text text-anchor="start" x="357.09" y="-353.5" font-family="Helvetica,sans-Serif" font-size="10.00">ESP32BaseStation/src</text>
<text text-anchor="middle" x="410.09" y="-342.5" font-family="Helvetica,sans-Serif" font-size="10.00">/fields.h</text>
</a>
</g>
</g>
<!-- Node1&#45;&gt;Node3 -->
<g id="edge2" class="edge">
<title>Node1&#45;&gt;Node3</title>
<path fill="none" stroke="midnightblue" d="M362.91,-395.31C373.41,-385.56 385.58,-374.26 394.93,-365.58"/>
<polygon fill="midnightblue" stroke="midnightblue" points="360.22,-393.03 355.28,-402.4 364.99,-398.16 360.22,-393.03"/>
</g>
<!-- Node4 -->
<g id="node4" class="node">
<title>Node4</title>
<g id="a_node4"><a xlink:href="device__list_8h.html" target="_top" xlink:title="List of all devices and fields known to the system.">
<polygon fill="white" stroke="black" points="527.09,-201.5 527.09,-231.5 667.09,-231.5 667.09,-201.5 527.09,-201.5"/>
<text text-anchor="start" x="535.09" y="-219.5" font-family="Helvetica,sans-Serif" font-size="10.00">ESP32BaseStation/device</text>
<text text-anchor="middle" x="597.09" y="-208.5" font-family="Helvetica,sans-Serif" font-size="10.00">_list.h</text>
</a>
</g>
</g>
<!-- Node3&#45;&gt;Node4 -->
<g id="edge3" class="edge">
<title>Node3&#45;&gt;Node4</title>
<path fill="none" stroke="midnightblue" d="M423.17,-326.52C434.41,-308.52 452.11,-283.94 473.09,-268 494.65,-251.62 522.27,-239.69 545.96,-231.55"/>
<polygon fill="midnightblue" stroke="midnightblue" points="420.07,-324.89 417.89,-335.26 426.06,-328.51 420.07,-324.89"/>
</g>
<!-- Node6 -->
<g id="node6" class="node">
<title>Node6</title>
<g id="a_node6"><a xlink:href="devices_8h.html" target="_top" xlink:title="Devices and manager for all known devices the base station connects to.">
<polygon fill="white" stroke="black" points="304.09,-268.5 304.09,-298.5 426.09,-298.5 426.09,-268.5 304.09,-268.5"/>
<text text-anchor="start" x="312.09" y="-286.5" font-family="Helvetica,sans-Serif" font-size="10.00">ESP32BaseStation/src</text>
<text text-anchor="middle" x="365.09" y="-275.5" font-family="Helvetica,sans-Serif" font-size="10.00">/devices.h</text>
</a>
</g>
</g>
<!-- Node3&#45;&gt;Node6 -->
<g id="edge5" class="edge">
<title>Node3&#45;&gt;Node6</title>
<path fill="none" stroke="midnightblue" d="M394.62,-327.16C388.06,-317.68 380.61,-306.92 374.83,-298.58"/>
<polygon fill="midnightblue" stroke="midnightblue" points="391.75,-329.17 400.32,-335.4 397.51,-325.18 391.75,-329.17"/>
</g>
<!-- Node14 -->
<g id="node14" class="node">
<title>Node14</title>
<g id="a_node14"><a xlink:href="rpc_8h.html" target="_top" xlink:title="Handles RPC calls.">
<polygon fill="white" stroke="black" points="82.09,-67.5 82.09,-97.5 204.09,-97.5 204.09,-67.5 82.09,-67.5"/>
<text text-anchor="start" x="90.09" y="-85.5" font-family="Helvetica,sans-Serif" font-size="10.00">ESP32BaseStation/src</text>
<text text-anchor="middle" x="143.09" y="-74.5" font-family="Helvetica,sans-Serif" font-size="10.00">/rpc.h</text>
</a>
</g>
</g>
<!-- Node3&#45;&gt;Node14 -->
<g id="edge26" class="edge">
<title>Node3&#45;&gt;Node14</title>
<path fill="none" stroke="midnightblue" d="M339.01,-333.47C229.53,-308.08 30.12,-258.76 10.09,-232 -29.32,-179.36 63.03,-123.06 113.27,-97.52"/>
<polygon fill="midnightblue" stroke="midnightblue" points="338.46,-336.94 348.99,-335.78 340.03,-330.12 338.46,-336.94"/>
</g>
<!-- Node16 -->
<g id="node16" class="node">
<title>Node16</title>
<g id="a_node16"><a xlink:href="fields_8cpp.html" target="_top" xlink:title="Contains fields classes.">
<polygon fill="white" stroke="black" points="482.09,-268.5 482.09,-298.5 604.09,-298.5 604.09,-268.5 482.09,-268.5"/>
<text text-anchor="start" x="490.09" y="-286.5" font-family="Helvetica,sans-Serif" font-size="10.00">ESP32BaseStation/src</text>
<text text-anchor="middle" x="543.09" y="-275.5" font-family="Helvetica,sans-Serif" font-size="10.00">/fields.cpp</text>
</a>
</g>
</g>
<!-- Node3&#45;&gt;Node16 -->
<g id="edge25" class="edge">
<title>Node3&#45;&gt;Node16</title>
<path fill="none" stroke="midnightblue" d="M447.96,-330.99C469.04,-320.69 494.87,-308.07 514.29,-298.58"/>
<polygon fill="midnightblue" stroke="midnightblue" points="446.39,-327.86 438.95,-335.4 449.47,-334.15 446.39,-327.86"/>
</g>
<!-- Node5 -->
<g id="node5" class="node">
<title>Node5</title>
<g id="a_node5"><a xlink:href="_e_s_p32_base_station_8ino.html" target="_top" xlink:title="Main file for a base station to connect to remote sensors on a farm.">
<polygon fill="white" stroke="black" points="342.09,-0.5 342.09,-30.5 504.09,-30.5 504.09,-0.5 342.09,-0.5"/>
<text text-anchor="start" x="350.09" y="-18.5" font-family="Helvetica,sans-Serif" font-size="10.00">ESP32BaseStation/ESP32Base</text>
<text text-anchor="middle" x="423.09" y="-7.5" font-family="Helvetica,sans-Serif" font-size="10.00">Station.ino</text>
</a>
</g>
</g>
<!-- Node4&#45;&gt;Node5 -->
<g id="edge4" class="edge">
<title>Node4&#45;&gt;Node5</title>
<path fill="none" stroke="midnightblue" d="M609.99,-192.06C625.53,-160.3 646.25,-103.39 618.09,-67 610.2,-56.8 546.66,-41.59 494.23,-30.53"/>
<polygon fill="midnightblue" stroke="midnightblue" points="606.82,-190.57 605.39,-201.06 613.06,-193.75 606.82,-190.57"/>
</g>
<!-- Node6&#45;&gt;Node4 -->
<g id="edge6" class="edge">
<title>Node6&#45;&gt;Node4</title>
<path fill="none" stroke="midnightblue" d="M425,-265.71C462.75,-255.14 510.95,-241.63 546.72,-231.61"/>
<polygon fill="midnightblue" stroke="midnightblue" points="423.83,-262.41 415.14,-268.48 425.72,-269.15 423.83,-262.41"/>
</g>
<!-- Node7 -->
<g id="node7" class="node">
<title>Node7</title>
<g id="a_node7"><a xlink:href="devices_8cpp.html" target="_top" xlink:title="Devices and manager for all known devices the base station connects to.">
<polygon fill="white" stroke="black" points="19.09,-201.5 19.09,-231.5 141.09,-231.5 141.09,-201.5 19.09,-201.5"/>
<text text-anchor="start" x="27.09" y="-219.5" font-family="Helvetica,sans-Serif" font-size="10.00">ESP32BaseStation/src</text>
<text text-anchor="middle" x="80.09" y="-208.5" font-family="Helvetica,sans-Serif" font-size="10.00">/devices.cpp</text>
</a>
</g>
</g>
<!-- Node6&#45;&gt;Node7 -->
<g id="edge7" class="edge">
<title>Node6&#45;&gt;Node7</title>
<path fill="none" stroke="midnightblue" d="M294.13,-266.32C247.09,-255.59 186,-241.65 141.13,-231.42"/>
<polygon fill="midnightblue" stroke="midnightblue" points="293.42,-269.74 303.95,-268.56 294.98,-262.92 293.42,-269.74"/>
</g>
<!-- Node8 -->
<g id="node8" class="node">
<title>Node8</title>
<g id="a_node8"><a xlink:href="leds_8h.html" target="_top" xlink:title="Controls the LEDs on the unit.">
<polygon fill="white" stroke="black" points="487.09,-67.5 487.09,-97.5 609.09,-97.5 609.09,-67.5 487.09,-67.5"/>
<text text-anchor="start" x="495.09" y="-85.5" font-family="Helvetica,sans-Serif" font-size="10.00">ESP32BaseStation/src</text>
<text text-anchor="middle" x="548.09" y="-74.5" font-family="Helvetica,sans-Serif" font-size="10.00">/leds.h</text>
</a>
</g>
</g>
<!-- Node6&#45;&gt;Node8 -->
<g id="edge8" class="edge">
<title>Node6&#45;&gt;Node8</title>
<path fill="none" stroke="midnightblue" d="M387.02,-261.13C410.56,-237.95 448.79,-199.62 480.09,-165 500.85,-142.03 523.65,-114.11 536.87,-97.63"/>
<polygon fill="midnightblue" stroke="midnightblue" points="384.31,-258.88 379.63,-268.38 389.22,-263.88 384.31,-258.88"/>
</g>
<!-- Node10 -->
<g id="node10" class="node">
<title>Node10</title>
<g id="a_node10"><a xlink:href="lora_8h.html" target="_top" xlink:title="File that handles the LoRa radio and PJON.">
<polygon fill="white" stroke="black" points="260.09,-201.5 260.09,-231.5 382.09,-231.5 382.09,-201.5 260.09,-201.5"/>
<text text-anchor="start" x="268.09" y="-219.5" font-family="Helvetica,sans-Serif" font-size="10.00">ESP32BaseStation/src</text>
<text text-anchor="middle" x="321.09" y="-208.5" font-family="Helvetica,sans-Serif" font-size="10.00">/lora.h</text>
</a>
</g>
</g>
<!-- Node6&#45;&gt;Node10 -->
<g id="edge11" class="edge">
<title>Node6&#45;&gt;Node10</title>
<path fill="none" stroke="midnightblue" d="M349.77,-259.87C343.4,-250.46 336.21,-239.83 330.62,-231.58"/>
<polygon fill="midnightblue" stroke="midnightblue" points="347.04,-262.08 355.54,-268.4 352.83,-258.15 347.04,-262.08"/>
</g>
<!-- Node12 -->
<g id="node12" class="node">
<title>Node12</title>
<g id="a_node12"><a xlink:href="networking_8h.html" target="_top" xlink:title="Header file for networking.cpp.">
<polygon fill="white" stroke="black" points="349.09,-134.5 349.09,-164.5 471.09,-164.5 471.09,-134.5 349.09,-134.5"/>
<text text-anchor="start" x="357.09" y="-152.5" font-family="Helvetica,sans-Serif" font-size="10.00">ESP32BaseStation/src</text>
<text text-anchor="middle" x="410.09" y="-141.5" font-family="Helvetica,sans-Serif" font-size="10.00">/networking.h</text>
</a>
</g>
</g>
<!-- Node6&#45;&gt;Node12 -->
<g id="edge23" class="edge">
<title>Node6&#45;&gt;Node12</title>
<path fill="none" stroke="midnightblue" d="M378.46,-259.47C382.95,-251.04 387.68,-241.28 391.09,-232 399.51,-209.09 405.06,-181.15 407.88,-164.65"/>
<polygon fill="midnightblue" stroke="midnightblue" points="375.33,-257.9 373.58,-268.34 381.47,-261.27 375.33,-257.9"/>
</g>
<!-- Node6&#45;&gt;Node14 -->
<g id="edge24" class="edge">
<title>Node6&#45;&gt;Node14</title>
<path fill="none" stroke="midnightblue" d="M294.39,-267C241.56,-251.21 173.3,-220.82 142.09,-165 130.28,-143.88 134.69,-114.61 138.93,-97.5"/>
<polygon fill="midnightblue" stroke="midnightblue" points="293.48,-270.38 304.06,-269.78 295.42,-263.65 293.48,-270.38"/>
</g>
<!-- Node8&#45;&gt;Node5 -->
<g id="edge9" class="edge">
<title>Node8&#45;&gt;Node5</title>
<path fill="none" stroke="midnightblue" d="M511.96,-62.71C492.25,-52.46 468.25,-39.98 450.16,-30.58"/>
<polygon fill="midnightblue" stroke="midnightblue" points="510.48,-65.89 520.97,-67.4 513.71,-59.68 510.48,-65.89"/>
</g>
<!-- Node9 -->
<g id="node9" class="node">
<title>Node9</title>
<g id="a_node9"><a xlink:href="leds_8cpp.html" target="_top" xlink:title="Controls the LEDs on the unit.">
<polygon fill="white" stroke="black" points="522.09,-0.5 522.09,-30.5 644.09,-30.5 644.09,-0.5 522.09,-0.5"/>
<text text-anchor="start" x="530.09" y="-18.5" font-family="Helvetica,sans-Serif" font-size="10.00">ESP32BaseStation/src</text>
<text text-anchor="middle" x="583.09" y="-7.5" font-family="Helvetica,sans-Serif" font-size="10.00">/leds.cpp</text>
</a>
</g>
</g>
<!-- Node8&#45;&gt;Node9 -->
<g id="edge10" class="edge">
<title>Node8&#45;&gt;Node9</title>
<path fill="none" stroke="midnightblue" d="M560.43,-58.58C565.46,-49.24 571.11,-38.75 575.51,-30.58"/>
<polygon fill="midnightblue" stroke="midnightblue" points="557.34,-56.93 555.68,-67.4 563.51,-60.25 557.34,-56.93"/>
</g>
<!-- Node10&#45;&gt;Node5 -->
<g id="edge12" class="edge">
<title>Node10&#45;&gt;Node5</title>
<path fill="none" stroke="midnightblue" d="M315.96,-191.65C307.76,-152.31 293.28,-77.15 300.09,-67 311.85,-49.46 330.92,-38 350.57,-30.53"/>
<polygon fill="midnightblue" stroke="midnightblue" points="312.55,-192.42 318.04,-201.49 319.4,-190.98 312.55,-192.42"/>
</g>
<!-- Node11 -->
<g id="node11" class="node">
<title>Node11</title>
<g id="a_node11"><a xlink:href="lora_8cpp.html" target="_top" xlink:title="File that handles the LoRa radio and PJON.">
<polygon fill="white" stroke="black" points="171.09,-134.5 171.09,-164.5 293.09,-164.5 293.09,-134.5 171.09,-134.5"/>
<text text-anchor="start" x="179.09" y="-152.5" font-family="Helvetica,sans-Serif" font-size="10.00">ESP32BaseStation/src</text>
<text text-anchor="middle" x="232.09" y="-141.5" font-family="Helvetica,sans-Serif" font-size="10.00">/lora.cpp</text>
</a>
</g>
</g>
<!-- Node10&#45;&gt;Node11 -->
<g id="edge13" class="edge">
<title>Node10&#45;&gt;Node11</title>
<path fill="none" stroke="midnightblue" d="M293.64,-195.45C279.95,-185.45 263.72,-173.6 251.36,-164.58"/>
<polygon fill="midnightblue" stroke="midnightblue" points="291.64,-198.32 301.78,-201.4 295.77,-192.67 291.64,-198.32"/>
</g>
<!-- Node10&#45;&gt;Node12 -->
<g id="edge14" class="edge">
<title>Node10&#45;&gt;Node12</title>
<path fill="none" stroke="midnightblue" d="M342.62,-195.17C355.48,-185.23 371.73,-173.51 385.14,-164.58"/>
<polygon fill="midnightblue" stroke="midnightblue" points="340.41,-192.45 334.72,-201.4 344.74,-197.95 340.41,-192.45"/>
</g>
<!-- Node12&#45;&gt;Node5 -->
<g id="edge15" class="edge">
<title>Node12&#45;&gt;Node5</title>
<path fill="none" stroke="midnightblue" d="M426.94,-126.02C432.23,-117.67 437.39,-107.82 440.09,-98 446.48,-74.72 437.3,-47.13 430.14,-30.76"/>
<polygon fill="midnightblue" stroke="midnightblue" points="423.96,-124.18 421.26,-134.43 429.76,-128.1 423.96,-124.18"/>
</g>
<!-- Node12&#45;&gt;Node8 -->
<g id="edge16" class="edge">
<title>Node12&#45;&gt;Node8</title>
<path fill="none" stroke="midnightblue" d="M449.09,-130.13C471.02,-119.8 497.96,-107.11 518.2,-97.58"/>
<polygon fill="midnightblue" stroke="midnightblue" points="447.59,-126.97 440.03,-134.4 450.57,-133.3 447.59,-126.97"/>
</g>
<!-- Node12&#45;&gt;Node10 -->
<g id="edge17" class="edge">
<title>Node12&#45;&gt;Node10</title>
<path fill="none" stroke="midnightblue" d="M388.6,-170.8C375.75,-180.74 359.5,-192.45 346.08,-201.4"/>
<polygon fill="midnightblue" stroke="midnightblue" points="390.81,-173.52 396.49,-164.58 386.47,-168.02 390.81,-173.52"/>
</g>
<!-- Node13 -->
<g id="node13" class="node">
<title>Node13</title>
<g id="a_node13"><a xlink:href="networking_8cpp.html" target="_top" xlink:title="File that handles connecting to WiFi and MQTT and staying connected.">
<polygon fill="white" stroke="black" points="309.09,-67.5 309.09,-97.5 431.09,-97.5 431.09,-67.5 309.09,-67.5"/>
<text text-anchor="start" x="317.09" y="-85.5" font-family="Helvetica,sans-Serif" font-size="10.00">ESP32BaseStation/src</text>
<text text-anchor="middle" x="370.09" y="-74.5" font-family="Helvetica,sans-Serif" font-size="10.00">/networking.cpp</text>
</a>
</g>
</g>
<!-- Node12&#45;&gt;Node13 -->
<g id="edge18" class="edge">
<title>Node12&#45;&gt;Node13</title>
<path fill="none" stroke="midnightblue" d="M396.16,-125.87C390.37,-116.46 383.83,-105.83 378.75,-97.58"/>
<polygon fill="midnightblue" stroke="midnightblue" points="393.19,-127.71 401.41,-134.4 399.15,-124.05 393.19,-127.71"/>
</g>
<!-- Node12&#45;&gt;Node14 -->
<g id="edge19" class="edge">
<title>Node12&#45;&gt;Node14</title>
<path fill="none" stroke="midnightblue" d="M342.52,-132.05C298.87,-121.43 242.66,-107.74 201.05,-97.61"/>
<polygon fill="midnightblue" stroke="midnightblue" points="341.94,-135.51 352.48,-134.48 343.59,-128.71 341.94,-135.51"/>
</g>
<!-- Node14&#45;&gt;Node5 -->
<g id="edge20" class="edge">
<title>Node14&#45;&gt;Node5</title>
<path fill="none" stroke="midnightblue" d="M213.37,-65.19C259.22,-54.54 318.48,-40.78 362.3,-30.61"/>
<polygon fill="midnightblue" stroke="midnightblue" points="212.45,-61.81 203.5,-67.48 214.03,-68.62 212.45,-61.81"/>
</g>
<!-- Node14&#45;&gt;Node10 -->
<g id="edge21" class="edge">
<title>Node14&#45;&gt;Node10</title>
<path fill="none" stroke="midnightblue" d="M142.65,-107.54C143.6,-125.51 147.81,-149.55 162.09,-165 187.16,-192.12 226.69,-204.75 260.07,-210.6"/>
<polygon fill="midnightblue" stroke="midnightblue" points="146.14,-107.43 142.41,-97.52 139.15,-107.6 146.14,-107.43"/>
</g>
<!-- Node15 -->
<g id="node15" class="node">
<title>Node15</title>
<g id="a_node15"><a xlink:href="rpc_8cpp.html" target="_top" xlink:title="Handles RPC calls.">
<polygon fill="white" stroke="black" points="82.09,-0.5 82.09,-30.5 204.09,-30.5 204.09,-0.5 82.09,-0.5"/>
<text text-anchor="start" x="90.09" y="-18.5" font-family="Helvetica,sans-Serif" font-size="10.00">ESP32BaseStation/src</text>
<text text-anchor="middle" x="143.09" y="-7.5" font-family="Helvetica,sans-Serif" font-size="10.00">/rpc.cpp</text>
</a>
</g>
</g>
<!-- Node14&#45;&gt;Node15 -->
<g id="edge22" class="edge">
<title>Node14&#45;&gt;Node15</title>
<path fill="none" stroke="midnightblue" d="M143.09,-57.11C143.09,-48.15 143.09,-38.32 143.09,-30.58"/>
<polygon fill="midnightblue" stroke="midnightblue" points="139.59,-57.4 143.09,-67.4 146.59,-57.4 139.59,-57.4"/>
</g>
</g>
</svg>
        <g id="navigator" transform="translate(0 0)" fill="#404254">
                <rect fill="#f2f5e9" fill-opacity="0.5" stroke="#606060" stroke-width=".5" x="0" y="0" width="60" height="60"/>
                <use id="zoomplus" xlink:href="#zoomPlus" x="17" y="9" onmousedown="handleZoom(evt,'in')"/>
                <use id="zoomminus" xlink:href="#zoomMin" x="42" y="9" onmousedown="handleZoom(evt,'out')"/>
                <use id="reset" xlink:href="#resetDef" x="30" y="36" onmousedown="handleReset()"/>
                <g id="arrowUp" xlink:href="#dirArrow" transform="translate(30 24)" onmousedown="handlePan(0,-1)">
                  <use xlink:href="#rim" fill="#404040">
                        <set attributeName="fill" to="#808080" begin="arrowUp.mouseover" end="arrowUp.mouseout"/>
                  </use>
                  <path fill="none" stroke="white" stroke-width="1.5" d="M0,-3.0v7 M-2.5,-0.5L0,-3.0L2.5,-0.5"/>
                </g>
                <g id="arrowRight" xlink:href="#dirArrow" transform="rotate(90) translate(36 -43)" onmousedown="handlePan(1,0)">
                  <use xlink:href="#rim" fill="#404040">
                        <set attributeName="fill" to="#808080" begin="arrowRight.mouseover" end="arrowRight.mouseout"/>
                  </use>
                  <path fill="none" stroke="white" stroke-width="1.5" d="M0,-3.0v7 M-2.5,-0.5L0,-3.0L2.5,-0.5"/>
                </g>
                <g id="arrowDown" xlink:href="#dirArrow" transform="rotate(180) translate(-30 -48)" onmousedown="handlePan(0,1)">
                  <use xlink:href="#rim" fill="#404040">
                        <set attributeName="fill" to="#808080" begin="arrowDown.mouseover" end="arrowDown.mouseout"/>
                  </use>
                  <path fill="none" stroke="white" stroke-width="1.5" d="M0,-3.0v7 M-2.5,-0.5L0,-3.0L2.5,-0.5"/>
                </g>
                <g id="arrowLeft" xlink:href="#dirArrow" transform="rotate(270) translate(-36 17)" onmousedown="handlePan(-1,0)">
                  <use xlink:href="#rim" fill="#404040">
                        <set attributeName="fill" to="#808080" begin="arrowLeft.mouseover" end="arrowLeft.mouseout"/>
                  </use>
                  <path fill="none" stroke="white" stroke-width="1.5" d="M0,-3.0v7 M-2.5,-0.5L0,-3.0L2.5,-0.5"/>
                </g>
        </g>
        <svg viewBox="0 0 15 15" width="100%" height="30px" preserveAspectRatio="xMaxYMin meet">
         <g id="arrow_out" transform="scale(0.3 0.3)">
          <a xlink:href="conversions_8h__dep__incl_org.svg" target="_base">
           <rect id="button" ry="5" rx="5" y="6" x="6" height="38" width="38"
                fill="#f2f5e9" fill-opacity="0.5" stroke="#606060" stroke-width="1.0"/>
           <path id="arrow"
             d="M 11.500037,31.436501 C 11.940474,20.09759 22.043105,11.32322 32.158766,21.979434 L 37.068811,17.246167 C 37.068811,17.246167 37.088388,32 37.088388,32 L 22.160133,31.978069 C 22.160133,31.978069 26.997745,27.140456 26.997745,27.140456 C 18.528582,18.264221 13.291696,25.230495 11.500037,31.436501 z"
             style="fill:#404040;"/>
          </a>
         </g>
        </svg>
</svg>
