<?xml version="1.0" encoding="UTF-8" standalone="no"?>
<!DOCTYPE svg PUBLIC "-//W3C//DTD SVG 1.1//EN"
 "http://www.w3.org/Graphics/SVG/1.1/DTD/svg11.dtd">
<!-- Generated by graphviz version 2.43.0 (0)
 -->
<!-- Title: ESP32BaseStation/src/conversions.h Pages: 1 -->
<svg width="761pt" height="441pt"
 viewBox="0.00 0.00 761.00 441.00" xmlns="http://www.w3.org/2000/svg" xmlns:xlink="http://www.w3.org/1999/xlink">
<g id="graph0" class="graph" transform="scale(1 1) rotate(0) translate(4 437)">
<title>ESP32BaseStation/src/conversions.h</title>
<polygon fill="white" stroke="transparent" points="-4,4 -4,-437 757,-437 757,4 -4,4"/>
<!-- Node1 -->
<g id="node1" class="node">
<title>Node1</title>
<g id="a_node1"><a xlink:title="General functions for converting to and from char arrays.">
<polygon fill="#bfbfbf" stroke="black" points="347,-402.5 347,-432.5 469,-432.5 469,-402.5 347,-402.5"/>
<text text-anchor="start" x="355" y="-420.5" font-family="Helvetica,sans-Serif" font-size="10.00">ESP32BaseStation/src</text>
<text text-anchor="middle" x="408" y="-409.5" font-family="Helvetica,sans-Serif" font-size="10.00">/conversions.h</text>
</a>
</g>
</g>
<!-- Node2 -->
<g id="node2" class="node">
<title>Node2</title>
<g id="a_node2"><a xlink:href="conversions_8cpp.html" target="_top" xlink:title="General functions for converting to and from char arrays.">
<polygon fill="white" stroke="black" points="277,-335.5 277,-365.5 399,-365.5 399,-335.5 277,-335.5"/>
<text text-anchor="start" x="285" y="-353.5" font-family="Helvetica,sans-Serif" font-size="10.00">ESP32BaseStation/src</text>
<text text-anchor="middle" x="338" y="-342.5" font-family="Helvetica,sans-Serif" font-size="10.00">/conversions.cpp</text>
</a>
</g>
</g>
<!-- Node1&#45;&gt;Node2 -->
<g id="edge1" class="edge">
<title>Node1&#45;&gt;Node2</title>
<path fill="none" stroke="midnightblue" d="M385.18,-395.31C374.68,-385.56 362.51,-374.26 353.16,-365.58"/>
<polygon fill="midnightblue" stroke="midnightblue" points="383.1,-398.16 392.81,-402.4 387.86,-393.03 383.1,-398.16"/>
</g>
<!-- Node3 -->
<g id="node3" class="node">
<title>Node3</title>
<g id="a_node3"><a xlink:href="fields_8h.html" target="_top" xlink:title="Contains fields classes.">
<polygon fill="white" stroke="black" points="417,-335.5 417,-365.5 539,-365.5 539,-335.5 417,-335.5"/>
<text text-anchor="start" x="425" y="-353.5" font-family="Helvetica,sans-Serif" font-size="10.00">ESP32BaseStation/src</text>
<text text-anchor="middle" x="478" y="-342.5" font-family="Helvetica,sans-Serif" font-size="10.00">/fields.h</text>
</a>
</g>
</g>
<!-- Node1&#45;&gt;Node3 -->
<g id="edge2" class="edge">
<title>Node1&#45;&gt;Node3</title>
<path fill="none" stroke="midnightblue" d="M430.82,-395.31C441.32,-385.56 453.49,-374.26 462.84,-365.58"/>
<polygon fill="midnightblue" stroke="midnightblue" points="428.14,-393.03 423.19,-402.4 432.9,-398.16 428.14,-393.03"/>
</g>
<!-- Node4 -->
<g id="node4" class="node">
<title>Node4</title>
<g id="a_node4"><a xlink:href="device__list_8h.html" target="_top" xlink:title="List of all devices and fields known to the system.">
<polygon fill="white" stroke="black" points="0,-201.5 0,-231.5 140,-231.5 140,-201.5 0,-201.5"/>
<text text-anchor="start" x="8" y="-219.5" font-family="Helvetica,sans-Serif" font-size="10.00">ESP32BaseStation/device</text>
<text text-anchor="middle" x="70" y="-208.5" font-family="Helvetica,sans-Serif" font-size="10.00">_list.h</text>
</a>
</g>
</g>
<!-- Node3&#45;&gt;Node4 -->
<g id="edge3" class="edge">
<title>Node3&#45;&gt;Node4</title>
<path fill="none" stroke="midnightblue" d="M407.13,-333.17C369.9,-324.09 323.67,-312 283,-299 218.32,-278.32 144.71,-248.77 103.16,-231.52"/>
<polygon fill="midnightblue" stroke="midnightblue" points="406.35,-336.59 416.89,-335.54 408,-329.78 406.35,-336.59"/>
</g>
<!-- Node6 -->
<g id="node6" class="node">
<title>Node6</title>
<g id="a_node6"><a xlink:href="devices_8h.html" target="_top" xlink:title="Devices and manager for all known devices the base station connects to.">
<polygon fill="white" stroke="black" points="292,-268.5 292,-298.5 414,-298.5 414,-268.5 292,-268.5"/>
<text text-anchor="start" x="300" y="-286.5" font-family="Helvetica,sans-Serif" font-size="10.00">ESP32BaseStation/src</text>
<text text-anchor="middle" x="353" y="-275.5" font-family="Helvetica,sans-Serif" font-size="10.00">/devices.h</text>
</a>
</g>
</g>
<!-- Node3&#45;&gt;Node6 -->
<g id="edge5" class="edge">
<title>Node3&#45;&gt;Node6</title>
<path fill="none" stroke="midnightblue" d="M441.87,-330.71C422.16,-320.46 398.16,-307.98 380.07,-298.58"/>
<polygon fill="midnightblue" stroke="midnightblue" points="440.39,-333.89 450.88,-335.4 443.62,-327.68 440.39,-333.89"/>
</g>
<!-- Node12 -->
<g id="node12" class="node">
<title>Node12</title>
<g id="a_node12"><a xlink:href="rpc_8h.html" target="_top" xlink:title="Handles RPC calls.">
<polygon fill="white" stroke="black" points="389,-67.5 389,-97.5 511,-97.5 511,-67.5 389,-67.5"/>
<text text-anchor="start" x="397" y="-85.5" font-family="Helvetica,sans-Serif" font-size="10.00">ESP32BaseStation/src</text>
<text text-anchor="middle" x="450" y="-74.5" font-family="Helvetica,sans-Serif" font-size="10.00">/rpc.h</text>
</a>
</g>
</g>
<!-- Node3&#45;&gt;Node12 -->
<g id="edge22" class="edge">
<title>Node3&#45;&gt;Node12</title>
<path fill="none" stroke="midnightblue" d="M498.86,-328.09C535.54,-287.77 603.88,-198.82 562,-134 550.43,-116.08 530.8,-104.46 511.19,-96.94"/>
<polygon fill="midnightblue" stroke="midnightblue" points="496.24,-325.77 491.99,-335.48 501.36,-330.54 496.24,-325.77"/>
</g>
<!-- Node14 -->
<g id="node14" class="node">
<title>Node14</title>
<g id="a_node14"><a xlink:href="fields_8cpp.html" target="_top" xlink:title="Contains fields classes.">
<polygon fill="white" stroke="black" points="631,-268.5 631,-298.5 753,-298.5 753,-268.5 631,-268.5"/>
<text text-anchor="start" x="639" y="-286.5" font-family="Helvetica,sans-Serif" font-size="10.00">ESP32BaseStation/src</text>
<text text-anchor="middle" x="692" y="-275.5" font-family="Helvetica,sans-Serif" font-size="10.00">/fields.cpp</text>
</a>
</g>
</g>
<!-- Node3&#45;&gt;Node14 -->
<g id="edge21" class="edge">
<title>Node3&#45;&gt;Node14</title>
<path fill="none" stroke="midnightblue" d="M534.15,-332.44C568.84,-321.91 612.82,-308.55 645.54,-298.61"/>
<polygon fill="midnightblue" stroke="midnightblue" points="532.72,-329.22 524.17,-335.48 534.76,-335.92 532.72,-329.22"/>
</g>
<!-- Node5 -->
<g id="node5" class="node">
<title>Node5</title>
<g id="a_node5"><a xlink:href="_e_s_p32_base_station_8ino.html" target="_top" xlink:title="Main file for a base station to connect to remote sensors on a farm.">
<polygon fill="white" stroke="black" points="221,-0.5 221,-30.5 383,-30.5 383,-0.5 221,-0.5"/>
<text text-anchor="start" x="229" y="-18.5" font-family="Helvetica,sans-Serif" font-size="10.00">ESP32BaseStation/ESP32Base</text>
<text text-anchor="middle" x="302" y="-7.5" font-family="Helvetica,sans-Serif" font-size="10.00">Station.ino</text>
</a>
</g>
</g>
<!-- Node4&#45;&gt;Node5 -->
<g id="edge4" class="edge">
<title>Node4&#45;&gt;Node5</title>
<path fill="none" stroke="midnightblue" d="M75.56,-191.28C84.32,-158.46 104.46,-100.17 143,-67 164.84,-48.2 193.72,-36.38 220.87,-28.97"/>
<polygon fill="midnightblue" stroke="midnightblue" points="72.07,-190.8 73.01,-201.36 78.85,-192.52 72.07,-190.8"/>
</g>
<!-- Node6&#45;&gt;Node4 -->
<g id="edge6" class="edge">
<title>Node6&#45;&gt;Node4</title>
<path fill="none" stroke="midnightblue" d="M281.97,-266.19C235.62,-255.54 175.73,-241.78 131.44,-231.61"/>
<polygon fill="midnightblue" stroke="midnightblue" points="281.41,-269.65 291.94,-268.48 282.98,-262.83 281.41,-269.65"/>
</g>
<!-- Node7 -->
<g id="node7" class="node">
<title>Node7</title>
<g id="a_node7"><a xlink:href="devices_8cpp.html" target="_top" xlink:title="Devices and manager for all known devices the base station connects to.">
<polygon fill="white" stroke="black" points="158,-201.5 158,-231.5 280,-231.5 280,-201.5 158,-201.5"/>
<text text-anchor="start" x="166" y="-219.5" font-family="Helvetica,sans-Serif" font-size="10.00">ESP32BaseStation/src</text>
<text text-anchor="middle" x="219" y="-208.5" font-family="Helvetica,sans-Serif" font-size="10.00">/devices.cpp</text>
</a>
</g>
</g>
<!-- Node6&#45;&gt;Node7 -->
<g id="edge7" class="edge">
<title>Node6&#45;&gt;Node7</title>
<path fill="none" stroke="midnightblue" d="M314.85,-263.99C293.61,-253.69 267.59,-241.07 248.02,-231.58"/>
<polygon fill="midnightblue" stroke="midnightblue" points="313.4,-267.18 323.92,-268.4 316.45,-260.88 313.4,-267.18"/>
</g>
<!-- Node8 -->
<g id="node8" class="node">
<title>Node8</title>
<g id="a_node8"><a xlink:href="lora_8h.html" target="_top" xlink:title="File that handles the LoRa radio and PJON.">
<polygon fill="white" stroke="black" points="336,-201.5 336,-231.5 458,-231.5 458,-201.5 336,-201.5"/>
<text text-anchor="start" x="344" y="-219.5" font-family="Helvetica,sans-Serif" font-size="10.00">ESP32BaseStation/src</text>
<text text-anchor="middle" x="397" y="-208.5" font-family="Helvetica,sans-Serif" font-size="10.00">/lora.h</text>
</a>
</g>
</g>
<!-- Node6&#45;&gt;Node8 -->
<g id="edge8" class="edge">
<title>Node6&#45;&gt;Node8</title>
<path fill="none" stroke="midnightblue" d="M368.32,-259.87C374.69,-250.46 381.88,-239.83 387.47,-231.58"/>
<polygon fill="midnightblue" stroke="midnightblue" points="365.25,-258.15 362.55,-268.4 371.05,-262.08 365.25,-258.15"/>
</g>
<!-- Node10 -->
<g id="node10" class="node">
<title>Node10</title>
<g id="a_node10"><a xlink:href="networking_8h.html" target="_top" xlink:title="Header file for networking.cpp.">
<polygon fill="white" stroke="black" points="199,-134.5 199,-164.5 321,-164.5 321,-134.5 199,-134.5"/>
<text text-anchor="start" x="207" y="-152.5" font-family="Helvetica,sans-Serif" font-size="10.00">ESP32BaseStation/src</text>
<text text-anchor="middle" x="260" y="-141.5" font-family="Helvetica,sans-Serif" font-size="10.00">/networking.h</text>
</a>
</g>
</g>
<!-- Node6&#45;&gt;Node10 -->
<g id="edge19" class="edge">
<title>Node6&#45;&gt;Node10</title>
<path fill="none" stroke="midnightblue" d="M337.28,-260.19C318.03,-232.86 285.99,-187.38 269.88,-164.52"/>
<polygon fill="midnightblue" stroke="midnightblue" points="334.43,-262.21 343.05,-268.37 340.15,-258.18 334.43,-262.21"/>
</g>
<!-- Node6&#45;&gt;Node12 -->
<g id="edge20" class="edge">
<title>Node6&#45;&gt;Node12</title>
<path fill="none" stroke="midnightblue" d="M415.11,-265.15C461.82,-248.25 521.79,-217.28 546,-165 551.79,-152.5 553.12,-145.79 546,-134 535.68,-116.91 517.45,-105.32 499.62,-97.6"/>
<polygon fill="midnightblue" stroke="midnightblue" points="413.94,-261.85 405.65,-268.45 416.25,-268.46 413.94,-261.85"/>
</g>
<!-- Node8&#45;&gt;Node5 -->
<g id="edge9" class="edge">
<title>Node8&#45;&gt;Node5</title>
<path fill="none" stroke="midnightblue" d="M385.81,-192.06C365.91,-150.38 324.93,-64.54 308.77,-30.68"/>
<polygon fill="midnightblue" stroke="midnightblue" points="382.7,-193.67 390.17,-201.19 389.02,-190.66 382.7,-193.67"/>
</g>
<!-- Node9 -->
<g id="node9" class="node">
<title>Node9</title>
<g id="a_node9"><a xlink:href="lora_8cpp.html" target="_top" xlink:title="File that handles the LoRa radio and PJON.">
<polygon fill="white" stroke="black" points="415,-134.5 415,-164.5 537,-164.5 537,-134.5 415,-134.5"/>
<text text-anchor="start" x="423" y="-152.5" font-family="Helvetica,sans-Serif" font-size="10.00">ESP32BaseStation/src</text>
<text text-anchor="middle" x="476" y="-141.5" font-family="Helvetica,sans-Serif" font-size="10.00">/lora.cpp</text>
</a>
</g>
</g>
<!-- Node8&#45;&gt;Node9 -->
<g id="edge10" class="edge">
<title>Node8&#45;&gt;Node9</title>
<path fill="none" stroke="midnightblue" d="M422.06,-194.88C434.06,-185.01 448.13,-173.43 458.89,-164.58"/>
<polygon fill="midnightblue" stroke="midnightblue" points="419.64,-192.34 414.14,-201.4 424.09,-197.75 419.64,-192.34"/>
</g>
<!-- Node8&#45;&gt;Node10 -->
<g id="edge11" class="edge">
<title>Node8&#45;&gt;Node10</title>
<path fill="none" stroke="midnightblue" d="M352.44,-197.27C329.67,-186.92 302.92,-174.15 283.99,-164.58"/>
<polygon fill="midnightblue" stroke="midnightblue" points="351.04,-200.48 361.59,-201.4 353.92,-194.1 351.04,-200.48"/>
</g>
<!-- Node10&#45;&gt;Node5 -->
<g id="edge12" class="edge">
<title>Node10&#45;&gt;Node5</title>
<path fill="none" stroke="midnightblue" d="M271.85,-125.05C275.77,-116.66 279.92,-107.05 283,-98 290.87,-74.89 296.59,-47.02 299.6,-30.58"/>
<polygon fill="midnightblue" stroke="midnightblue" points="268.62,-123.7 267.42,-134.22 274.92,-126.74 268.62,-123.7"/>
</g>
<!-- Node10&#45;&gt;Node8 -->
<g id="edge13" class="edge">
<title>Node10&#45;&gt;Node8</title>
<path fill="none" stroke="midnightblue" d="M304.5,-168.7C327.26,-179.05 354.01,-191.81 372.95,-201.4"/>
<polygon fill="midnightblue" stroke="midnightblue" points="305.9,-165.49 295.34,-164.58 303.02,-171.88 305.9,-165.49"/>
</g>
<!-- Node11 -->
<g id="node11" class="node">
<title>Node11</title>
<g id="a_node11"><a xlink:href="networking_8cpp.html" target="_top" xlink:title="File that handles connecting to WiFi and MQTT and staying connected.">
<polygon fill="white" stroke="black" points="152,-67.5 152,-97.5 274,-97.5 274,-67.5 152,-67.5"/>
<text text-anchor="start" x="160" y="-85.5" font-family="Helvetica,sans-Serif" font-size="10.00">ESP32BaseStation/src</text>
<text text-anchor="middle" x="213" y="-74.5" font-family="Helvetica,sans-Serif" font-size="10.00">/networking.cpp</text>
</a>
</g>
</g>
<!-- Node10&#45;&gt;Node11 -->
<g id="edge14" class="edge">
<title>Node10&#45;&gt;Node11</title>
<path fill="none" stroke="midnightblue" d="M243.84,-126.16C236.99,-116.68 229.21,-105.92 223.18,-97.58"/>
<polygon fill="midnightblue" stroke="midnightblue" points="241.11,-128.34 249.8,-134.4 246.78,-124.24 241.11,-128.34"/>
</g>
<!-- Node10&#45;&gt;Node12 -->
<g id="edge15" class="edge">
<title>Node10&#45;&gt;Node12</title>
<path fill="none" stroke="midnightblue" d="M310.89,-131.09C341.56,-120.6 380.11,-107.41 408.85,-97.58"/>
<polygon fill="midnightblue" stroke="midnightblue" points="309.56,-127.85 301.23,-134.4 311.82,-134.47 309.56,-127.85"/>
</g>
<!-- Node12&#45;&gt;Node5 -->
<g id="edge16" class="edge">
<title>Node12&#45;&gt;Node5</title>
<path fill="none" stroke="midnightblue" d="M408.49,-63.27C384.92,-52.92 355.86,-40.15 334.05,-30.58"/>
<polygon fill="midnightblue" stroke="midnightblue" points="407.32,-66.58 417.89,-67.4 410.14,-60.17 407.32,-66.58"/>
</g>
<!-- Node12&#45;&gt;Node8 -->
<g id="edge17" class="edge">
<title>Node12&#45;&gt;Node8</title>
<path fill="none" stroke="midnightblue" d="M426.11,-105.03C418.41,-113.31 410.67,-123.35 406,-134 396.34,-156.03 395.51,-184.49 396.06,-201.29"/>
<polygon fill="midnightblue" stroke="midnightblue" points="428.84,-107.25 433.37,-97.67 423.85,-102.33 428.84,-107.25"/>
</g>
<!-- Node13 -->
<g id="node13" class="node">
<title>Node13</title>
<g id="a_node13"><a xlink:href="rpc_8cpp.html" target="_top" xlink:title="Handles RPC calls.">
<polygon fill="white" stroke="black" points="401,-0.5 401,-30.5 523,-30.5 523,-0.5 401,-0.5"/>
<text text-anchor="start" x="409" y="-18.5" font-family="Helvetica,sans-Serif" font-size="10.00">ESP32BaseStation/src</text>
<text text-anchor="middle" x="462" y="-7.5" font-family="Helvetica,sans-Serif" font-size="10.00">/rpc.cpp</text>
</a>
</g>
</g>
<!-- Node12&#45;&gt;Node13 -->
<g id="edge18" class="edge">
<title>Node12&#45;&gt;Node13</title>
<path fill="none" stroke="midnightblue" d="M454.45,-57.4C456.12,-48.37 457.96,-38.41 459.4,-30.58"/>
<polygon fill="midnightblue" stroke="midnightblue" points="450.98,-56.93 452.6,-67.4 457.86,-58.2 450.98,-56.93"/>
</g>
</g>
</svg>
