<?xml version="1.0" encoding="UTF-8" standalone="no"?>
<!DOCTYPE svg PUBLIC "-//W3C//DTD SVG 1.1//EN"
 "http://www.w3.org/Graphics/SVG/1.1/DTD/svg11.dtd">
<!-- Generated by graphviz version 2.43.0 (0)
 -->
<!-- Title: BaseStationCode/src/defines.h Pages: 1 -->
<svg width="1252pt" height="566pt"
 viewBox="0.00 0.00 1251.50 566.00" xmlns="http://www.w3.org/2000/svg" xmlns:xlink="http://www.w3.org/1999/xlink">
<g id="graph0" class="graph" transform="scale(1 1) rotate(0) translate(4 562)">
<title>BaseStationCode/src/defines.h</title>
<!-- Node1 -->
<g id="Node000001" class="node">
<title>Node1</title>
<g id="a_Node000001"><a xlink:title="Definitions and other preprocessor and global stuff.">
<polygon fill="#999999" stroke="#666666" points="705.5,-558 588.5,-558 588.5,-528 705.5,-528 705.5,-558"/>
<text text-anchor="start" x="596.5" y="-546" font-family="Helvetica,sans-Serif" font-size="10.00">BaseStationCode/src</text>
<text text-anchor="middle" x="647" y="-535" font-family="Helvetica,sans-Serif" font-size="10.00">/defines.h</text>
</a>
</g>
</g>
<!-- Node2 -->
<g id="Node000002" class="node">
<title>Node2</title>
<g id="a_Node000002"><a xlink:href="main_8cpp.html" target="_top" xlink:title=" ">
<polygon fill="white" stroke="#666666" points="707.5,-30 590.5,-30 590.5,0 707.5,0 707.5,-30"/>
<text text-anchor="start" x="598.5" y="-18" font-family="Helvetica,sans-Serif" font-size="10.00">BaseStationCode/src</text>
<text text-anchor="middle" x="649" y="-7" font-family="Helvetica,sans-Serif" font-size="10.00">/main.cpp</text>
</a>
</g>
</g>
<!-- Node1&#45;&gt;Node2 -->
<g id="edge1_Node000001_Node000002" class="edge">
<title>Node1&#45;&gt;Node2</title>
<g id="a_edge1_Node000001_Node000002"><a xlink:title=" ">
<path fill="none" stroke="#63b8ff" d="M715.88,-539.84C813.88,-535.68 987.63,-523.92 1041,-492 1078.47,-469.59 1098,-455.66 1098,-412 1098,-412 1098,-412 1098,-146 1098,-88.74 1049.6,-88.63 997,-66 901.4,-24.87 778.78,-16.35 707.53,-15.24"/>
<polygon fill="#63b8ff" stroke="#63b8ff" points="715.61,-536.35 705.76,-540.26 715.9,-543.35 715.61,-536.35"/>
</a>
</g>
</g>
<!-- Node3 -->
<g id="Node000003" class="node">
<title>Node3</title>
<g id="a_Node000003"><a xlink:href="alarm_8h.html" target="_top" xlink:title="Handles alarms.">
<polygon fill="white" stroke="#666666" points="270.5,-360 153.5,-360 153.5,-330 270.5,-330 270.5,-360"/>
<text text-anchor="start" x="161.5" y="-348" font-family="Helvetica,sans-Serif" font-size="10.00">BaseStationCode/src</text>
<text text-anchor="middle" x="212" y="-337" font-family="Helvetica,sans-Serif" font-size="10.00">/src/alarm.h</text>
</a>
</g>
</g>
<!-- Node1&#45;&gt;Node3 -->
<g id="edge2_Node000001_Node000003" class="edge">
<title>Node1&#45;&gt;Node3</title>
<g id="a_edge2_Node000001_Node000003"><a xlink:title=" ">
<path fill="none" stroke="#63b8ff" d="M578.14,-539.86C512.14,-535.82 410.76,-524.35 329,-492 280.51,-472.82 261.84,-468.76 232,-426 218.07,-406.04 213.82,-377.31 212.54,-360.26"/>
<polygon fill="#63b8ff" stroke="#63b8ff" points="578.23,-543.37 588.42,-540.44 578.63,-536.38 578.23,-543.37"/>
</a>
</g>
</g>
<!-- Node5 -->
<g id="Node000005" class="node">
<title>Node5</title>
<g id="a_Node000005"><a xlink:href="leds_8h.html" target="_top" xlink:title="Controls the LEDs on the unit.">
<polygon fill="white" stroke="#666666" points="221.5,-96 104.5,-96 104.5,-66 221.5,-66 221.5,-96"/>
<text text-anchor="start" x="112.5" y="-84" font-family="Helvetica,sans-Serif" font-size="10.00">BaseStationCode/src</text>
<text text-anchor="middle" x="163" y="-73" font-family="Helvetica,sans-Serif" font-size="10.00">/src/leds.h</text>
</a>
</g>
</g>
<!-- Node1&#45;&gt;Node5 -->
<g id="edge44_Node000001_Node000005" class="edge">
<title>Node1&#45;&gt;Node5</title>
<g id="a_edge44_Node000001_Node000005"><a xlink:title=" ">
<path fill="none" stroke="#63b8ff" d="M578.31,-542.55C411.75,-542.06 0,-528.99 0,-412 0,-412 0,-412 0,-212 0,-151.37 69.78,-114.43 118.03,-96.13"/>
<polygon fill="#63b8ff" stroke="#63b8ff" points="578.44,-546.05 588.44,-542.57 578.45,-539.05 578.44,-546.05"/>
</a>
</g>
</g>
<!-- Node7 -->
<g id="Node000007" class="node">
<title>Node7</title>
<g id="a_Node000007"><a xlink:href="rpc_8h.html" target="_top" xlink:title="Handles RPC calls.">
<polygon fill="white" stroke="#666666" points="531.5,-294 414.5,-294 414.5,-264 531.5,-264 531.5,-294"/>
<text text-anchor="start" x="422.5" y="-282" font-family="Helvetica,sans-Serif" font-size="10.00">BaseStationCode/src</text>
<text text-anchor="middle" x="473" y="-271" font-family="Helvetica,sans-Serif" font-size="10.00">/src/rpc.h</text>
</a>
</g>
</g>
<!-- Node1&#45;&gt;Node7 -->
<g id="edge52_Node000001_Node000007" class="edge">
<title>Node1&#45;&gt;Node7</title>
<g id="a_edge52_Node000001_Node000007"><a xlink:title=" ">
<path fill="none" stroke="#63b8ff" d="M589.81,-523.84C573.68,-516.26 557.43,-505.9 546,-492 498.61,-434.37 530.74,-398.85 502,-330 496.74,-317.41 488.89,-304.08 482.68,-294.36"/>
<polygon fill="#63b8ff" stroke="#63b8ff" points="588.69,-527.17 599.26,-527.98 591.5,-520.76 588.69,-527.17"/>
</a>
</g>
</g>
<!-- Node8 -->
<g id="Node000008" class="node">
<title>Node8</title>
<g id="a_Node000008"><a xlink:href="lora_8h.html" target="_top" xlink:title="File that handles the LoRa radio and PJON.">
<polygon fill="white" stroke="#666666" points="789.5,-228 672.5,-228 672.5,-198 789.5,-198 789.5,-228"/>
<text text-anchor="start" x="680.5" y="-216" font-family="Helvetica,sans-Serif" font-size="10.00">BaseStationCode/src</text>
<text text-anchor="middle" x="731" y="-205" font-family="Helvetica,sans-Serif" font-size="10.00">/src/lora.h</text>
</a>
</g>
</g>
<!-- Node1&#45;&gt;Node8 -->
<g id="edge49_Node000001_Node000008" class="edge">
<title>Node1&#45;&gt;Node8</title>
<g id="a_edge49_Node000001_Node000008"><a xlink:title=" ">
<path fill="none" stroke="#63b8ff" d="M715.61,-527.5C773.84,-510.71 848,-476.62 848,-412 848,-412 848,-412 848,-344 848,-290.26 792.07,-248.68 757.55,-228.14"/>
<polygon fill="#63b8ff" stroke="#63b8ff" points="714.38,-524.21 705.68,-530.25 716.25,-530.96 714.38,-524.21"/>
</a>
</g>
</g>
<!-- Node10 -->
<g id="Node000010" class="node">
<title>Node10</title>
<g id="a_Node000010"><a xlink:href="networking_8h.html" target="_top" xlink:title="Header file for networking.cpp.">
<polygon fill="white" stroke="#666666" points="645.5,-162 528.5,-162 528.5,-132 645.5,-132 645.5,-162"/>
<text text-anchor="start" x="536.5" y="-150" font-family="Helvetica,sans-Serif" font-size="10.00">BaseStationCode/src</text>
<text text-anchor="middle" x="587" y="-139" font-family="Helvetica,sans-Serif" font-size="10.00">/src/networking.h</text>
</a>
</g>
</g>
<!-- Node1&#45;&gt;Node10 -->
<g id="edge50_Node000001_Node000010" class="edge">
<title>Node1&#45;&gt;Node10</title>
<g id="a_edge50_Node000001_Node000010"><a xlink:title=" ">
<path fill="none" stroke="#63b8ff" d="M610.96,-522.48C599.18,-514.47 587.07,-504.19 579,-492 558.82,-461.53 560,-448.54 560,-412 560,-412 560,-412 560,-344 560,-275.3 576.48,-194.32 583.69,-162.17"/>
<polygon fill="#63b8ff" stroke="#63b8ff" points="609.1,-525.45 619.41,-527.91 612.89,-519.56 609.1,-525.45"/>
</a>
</g>
</g>
<!-- Node12 -->
<g id="Node000012" class="node">
<title>Node12</title>
<g id="a_Node000012"><a xlink:href="ota_8h.html" target="_top" xlink:title="Handles over the air (OTA) updates.">
<polygon fill="white" stroke="#666666" points="1243.5,-96 1126.5,-96 1126.5,-66 1243.5,-66 1243.5,-96"/>
<text text-anchor="start" x="1134.5" y="-84" font-family="Helvetica,sans-Serif" font-size="10.00">BaseStationCode/src</text>
<text text-anchor="middle" x="1185" y="-73" font-family="Helvetica,sans-Serif" font-size="10.00">/src/ota.h</text>
</a>
</g>
</g>
<!-- Node1&#45;&gt;Node12 -->
<g id="edge51_Node000001_Node000012" class="edge">
<title>Node1&#45;&gt;Node12</title>
<g id="a_edge51_Node000001_Node000012"><a xlink:title=" ">
<path fill="none" stroke="#63b8ff" d="M715.91,-541.98C829.03,-540.73 1047.98,-532.92 1112,-492 1146.94,-469.67 1160,-453.46 1160,-412 1160,-412 1160,-412 1160,-212 1160,-169.25 1173.2,-120 1180.41,-96.26"/>
<polygon fill="#63b8ff" stroke="#63b8ff" points="715.6,-538.48 705.63,-542.07 715.66,-545.48 715.6,-538.48"/>
</a>
</g>
</g>
<!-- Node16 -->
<g id="Node000016" class="node">
<title>Node16</title>
<g id="a_Node000016"><a xlink:href="audio_8h.html" target="_top" xlink:title="Plays audio.">
<polygon fill="white" stroke="#666666" points="1031.5,-492 914.5,-492 914.5,-462 1031.5,-462 1031.5,-492"/>
<text text-anchor="start" x="922.5" y="-480" font-family="Helvetica,sans-Serif" font-size="10.00">BaseStationCode/src</text>
<text text-anchor="middle" x="973" y="-469" font-family="Helvetica,sans-Serif" font-size="10.00">/src/audio.h</text>
</a>
</g>
</g>
<!-- Node1&#45;&gt;Node16 -->
<g id="edge25_Node000001_Node000016" class="edge">
<title>Node1&#45;&gt;Node16</title>
<g id="a_edge25_Node000001_Node000016"><a xlink:title=" ">
<path fill="none" stroke="#63b8ff" d="M715.62,-528.53C774.49,-516.97 858.44,-500.49 914.26,-489.53"/>
<polygon fill="#63b8ff" stroke="#63b8ff" points="714.8,-525.12 705.66,-530.48 716.15,-531.99 714.8,-525.12"/>
</a>
</g>
</g>
<!-- Node18 -->
<g id="Node000018" class="node">
<title>Node18</title>
<g id="a_Node000018"><a xlink:href="conversions_8h.html" target="_top" xlink:title="General functions for converting to and from char arrays.">
<polygon fill="white" stroke="#666666" points="455.5,-492 338.5,-492 338.5,-462 455.5,-462 455.5,-492"/>
<text text-anchor="start" x="346.5" y="-480" font-family="Helvetica,sans-Serif" font-size="10.00">BaseStationCode/src</text>
<text text-anchor="middle" x="397" y="-469" font-family="Helvetica,sans-Serif" font-size="10.00">/src/conversions.h</text>
</a>
</g>
</g>
<!-- Node1&#45;&gt;Node18 -->
<g id="edge28_Node000001_Node000018" class="edge">
<title>Node1&#45;&gt;Node18</title>
<g id="a_edge28_Node000001_Node000018"><a xlink:title=" ">
<path fill="none" stroke="#63b8ff" d="M582.36,-525.45C541.85,-515.08 490.21,-501.86 451.74,-492.01"/>
<polygon fill="#63b8ff" stroke="#63b8ff" points="581.58,-528.87 592.14,-527.95 583.32,-522.08 581.58,-528.87"/>
</a>
</g>
</g>
<!-- Node20 -->
<g id="Node000020" class="node">
<title>Node20</title>
<g id="a_Node000020"><a xlink:href="fields_8h.html" target="_top" xlink:title="Contains fields classes.">
<polygon fill="white" stroke="#666666" points="493.5,-426 376.5,-426 376.5,-396 493.5,-396 493.5,-426"/>
<text text-anchor="start" x="384.5" y="-414" font-family="Helvetica,sans-Serif" font-size="10.00">BaseStationCode/src</text>
<text text-anchor="middle" x="435" y="-403" font-family="Helvetica,sans-Serif" font-size="10.00">/src/fields.h</text>
</a>
</g>
</g>
<!-- Node1&#45;&gt;Node20 -->
<g id="edge43_Node000001_Node000020" class="edge">
<title>Node1&#45;&gt;Node20</title>
<g id="a_edge43_Node000001_Node000020"><a xlink:title=" ">
<path fill="none" stroke="#63b8ff" d="M579.28,-524.93C555.54,-517.11 529.47,-506.32 508,-492 480.94,-473.95 457.11,-443.76 444.51,-426.08"/>
<polygon fill="#63b8ff" stroke="#63b8ff" points="578.35,-528.31 588.94,-527.99 580.46,-521.63 578.35,-528.31"/>
</a>
</g>
</g>
<!-- Node22 -->
<g id="Node000022" class="node">
<title>Node22</title>
<g id="a_Node000022"><a xlink:href="devices_8h.html" target="_top" xlink:title="Devices and manager for all known devices the base station connects to.">
<polygon fill="white" stroke="#666666" points="705.5,-360 588.5,-360 588.5,-330 705.5,-330 705.5,-360"/>
<text text-anchor="start" x="596.5" y="-348" font-family="Helvetica,sans-Serif" font-size="10.00">BaseStationCode/src</text>
<text text-anchor="middle" x="647" y="-337" font-family="Helvetica,sans-Serif" font-size="10.00">/src/devices.h</text>
</a>
</g>
</g>
<!-- Node1&#45;&gt;Node22 -->
<g id="edge42_Node000001_Node000022" class="edge">
<title>Node1&#45;&gt;Node22</title>
<g id="a_edge42_Node000001_Node000022"><a xlink:title=" ">
<path fill="none" stroke="#63b8ff" d="M685.61,-522.32C696.86,-514.52 707.78,-504.41 714,-492 719.98,-480.08 717.45,-474.88 714,-462 703.22,-421.79 674.76,-381.1 658.61,-360.26"/>
<polygon fill="#63b8ff" stroke="#63b8ff" points="683.55,-519.49 677.03,-527.84 687.33,-525.38 683.55,-519.49"/>
</a>
</g>
</g>
<!-- Node25 -->
<g id="Node000025" class="node">
<title>Node25</title>
<g id="a_Node000025"><a xlink:href="lookups_8h.html" target="_top" xlink:title="Lookupable and lookupable manager base classes.">
<polygon fill="white" stroke="#666666" points="705.5,-492 588.5,-492 588.5,-462 705.5,-462 705.5,-492"/>
<text text-anchor="start" x="596.5" y="-480" font-family="Helvetica,sans-Serif" font-size="10.00">BaseStationCode/src</text>
<text text-anchor="middle" x="647" y="-469" font-family="Helvetica,sans-Serif" font-size="10.00">/src/lookups.h</text>
</a>
</g>
</g>
<!-- Node1&#45;&gt;Node25 -->
<g id="edge45_Node000001_Node000025" class="edge">
<title>Node1&#45;&gt;Node25</title>
<g id="a_edge45_Node000001_Node000025"><a xlink:title=" ">
<path fill="none" stroke="#63b8ff" d="M647,-517.54C647,-508.96 647,-499.61 647,-492.16"/>
<polygon fill="#63b8ff" stroke="#63b8ff" points="643.5,-517.8 647,-527.8 650.5,-517.8 643.5,-517.8"/>
</a>
</g>
</g>
<!-- Node26 -->
<g id="Node000026" class="node">
<title>Node26</title>
<g id="a_Node000026"><a xlink:href="timeseries_8h.html" target="_top" xlink:title="Measures the temperature and pressure and sends them every so often as timeseries.">
<polygon fill="white" stroke="#666666" points="954.5,-162 837.5,-162 837.5,-132 954.5,-132 954.5,-162"/>
<text text-anchor="start" x="845.5" y="-150" font-family="Helvetica,sans-Serif" font-size="10.00">BaseStationCode/src</text>
<text text-anchor="middle" x="896" y="-139" font-family="Helvetica,sans-Serif" font-size="10.00">/src/timeseries.h</text>
</a>
</g>
</g>
<!-- Node1&#45;&gt;Node26 -->
<g id="edge53_Node000001_Node000026" class="edge">
<title>Node1&#45;&gt;Node26</title>
<g id="a_edge53_Node000001_Node000026"><a xlink:title=" ">
<path fill="none" stroke="#63b8ff" d="M715.96,-533.97C786.56,-521.46 886,-490 886,-412 886,-412 886,-412 886,-278 886,-235.67 891.34,-185.82 894.21,-162.02"/>
<polygon fill="#63b8ff" stroke="#63b8ff" points="715.05,-530.58 705.77,-535.68 716.21,-537.48 715.05,-530.58"/>
</a>
</g>
</g>
<!-- Node3&#45;&gt;Node2 -->
<g id="edge3_Node000003_Node000002" class="edge">
<title>Node3&#45;&gt;Node2</title>
<g id="a_edge3_Node000003_Node000002"><a xlink:title=" ">
<path fill="none" stroke="#63b8ff" d="M215.43,-319.64C218.28,-303.4 223.16,-281.84 231,-264 273.75,-166.72 275.83,-123.79 365,-66 401.34,-42.45 518.26,-27.89 590.26,-20.93"/>
<polygon fill="#63b8ff" stroke="#63b8ff" points="211.91,-319.49 213.77,-329.92 218.82,-320.61 211.91,-319.49"/>
</a>
</g>
</g>
<!-- Node4 -->
<g id="Node000004" class="node">
<title>Node4</title>
<g id="a_Node000004"><a xlink:href="alarm_8cpp.html" target="_top" xlink:title="Handles alarms.">
<polygon fill="white" stroke="#666666" points="183.5,-294 66.5,-294 66.5,-264 183.5,-264 183.5,-294"/>
<text text-anchor="start" x="74.5" y="-282" font-family="Helvetica,sans-Serif" font-size="10.00">BaseStationCode/src</text>
<text text-anchor="middle" x="125" y="-271" font-family="Helvetica,sans-Serif" font-size="10.00">/src/alarm.cpp</text>
</a>
</g>
</g>
<!-- Node3&#45;&gt;Node4 -->
<g id="edge4_Node000003_Node000004" class="edge">
<title>Node3&#45;&gt;Node4</title>
<g id="a_edge4_Node000003_Node000004"><a xlink:title=" ">
<path fill="none" stroke="#63b8ff" d="M184.48,-323.75C171.39,-314.13 156.07,-302.86 144.25,-294.16"/>
<polygon fill="#63b8ff" stroke="#63b8ff" points="182.56,-326.69 192.69,-329.8 186.71,-321.05 182.56,-326.69"/>
</a>
</g>
</g>
<!-- Node3&#45;&gt;Node5 -->
<g id="edge5_Node000003_Node000005" class="edge">
<title>Node3&#45;&gt;Node5</title>
<g id="a_edge5_Node000003_Node000005"><a xlink:title=" ">
<path fill="none" stroke="#63b8ff" d="M143.08,-339.69C111.49,-333.84 76.75,-321.12 57,-294 7.46,-225.97 104.71,-131.35 145.84,-96.03"/>
<polygon fill="#63b8ff" stroke="#63b8ff" points="142.77,-343.18 153.21,-341.35 143.91,-336.28 142.77,-343.18"/>
</a>
</g>
</g>
<!-- Node3&#45;&gt;Node7 -->
<g id="edge8_Node000003_Node000007" class="edge">
<title>Node3&#45;&gt;Node7</title>
<g id="a_edge8_Node000003_Node000007"><a xlink:title=" ">
<path fill="none" stroke="#63b8ff" d="M279.22,-327.52C321.55,-317.14 375.6,-303.88 415.86,-294.01"/>
<polygon fill="#63b8ff" stroke="#63b8ff" points="278.16,-324.17 269.28,-329.95 279.82,-330.97 278.16,-324.17"/>
</a>
</g>
</g>
<!-- Node5&#45;&gt;Node2 -->
<g id="edge6_Node000005_Node000002" class="edge">
<title>Node5&#45;&gt;Node2</title>
<g id="a_edge6_Node000005_Node000002"><a xlink:title=" ">
<path fill="none" stroke="#63b8ff" d="M231.53,-66.71C233.04,-66.47 234.53,-66.23 236,-66 361.77,-46.35 510.12,-30.06 590.35,-21.81"/>
<polygon fill="#63b8ff" stroke="#63b8ff" points="230.78,-63.29 221.51,-68.41 231.95,-70.19 230.78,-63.29"/>
</a>
</g>
</g>
<!-- Node6 -->
<g id="Node000006" class="node">
<title>Node6</title>
<g id="a_Node000006"><a xlink:href="leds_8cpp.html" target="_top" xlink:title="Controls the LEDs on the unit.">
<polygon fill="white" stroke="#666666" points="221.5,-30 104.5,-30 104.5,0 221.5,0 221.5,-30"/>
<text text-anchor="start" x="112.5" y="-18" font-family="Helvetica,sans-Serif" font-size="10.00">BaseStationCode/src</text>
<text text-anchor="middle" x="163" y="-7" font-family="Helvetica,sans-Serif" font-size="10.00">/src/leds.cpp</text>
</a>
</g>
</g>
<!-- Node5&#45;&gt;Node6 -->
<g id="edge7_Node000005_Node000006" class="edge">
<title>Node5&#45;&gt;Node6</title>
<g id="a_edge7_Node000005_Node000006"><a xlink:title=" ">
<path fill="none" stroke="#63b8ff" d="M163,-55.54C163,-46.96 163,-37.61 163,-30.16"/>
<polygon fill="#63b8ff" stroke="#63b8ff" points="159.5,-55.8 163,-65.8 166.5,-55.8 159.5,-55.8"/>
</a>
</g>
</g>
<!-- Node7&#45;&gt;Node2 -->
<g id="edge9_Node000007_Node000002" class="edge">
<title>Node7&#45;&gt;Node2</title>
<g id="a_edge9_Node000007_Node000002"><a xlink:title=" ">
<path fill="none" stroke="#63b8ff" d="M410.75,-260.96C382.32,-251.8 353.16,-239.95 345,-228 337.48,-216.99 340.78,-210.65 345,-198 368.19,-128.43 382.79,-106.39 444,-66 487.88,-37.05 546.98,-24.84 590.45,-19.71"/>
<polygon fill="#63b8ff" stroke="#63b8ff" points="409.74,-264.31 420.33,-263.96 411.83,-257.63 409.74,-264.31"/>
</a>
</g>
</g>
<!-- Node7&#45;&gt;Node8 -->
<g id="edge10_Node000007_Node000008" class="edge">
<title>Node7&#45;&gt;Node8</title>
<g id="a_edge10_Node000007_Node000008"><a xlink:title=" ">
<path fill="none" stroke="#63b8ff" d="M539.45,-261.52C581.29,-251.14 634.72,-237.88 674.51,-228.01"/>
<polygon fill="#63b8ff" stroke="#63b8ff" points="538.48,-258.15 529.62,-263.95 540.17,-264.94 538.48,-258.15"/>
</a>
</g>
</g>
<!-- Node11 -->
<g id="Node000011" class="node">
<title>Node11</title>
<g id="a_Node000011"><a xlink:href="networking_8cpp.html" target="_top" xlink:title="File that handles connecting to WiFi and MQTT and staying connected.">
<polygon fill="white" stroke="#666666" points="570.5,-96 453.5,-96 453.5,-66 570.5,-66 570.5,-96"/>
<text text-anchor="start" x="461.5" y="-84" font-family="Helvetica,sans-Serif" font-size="10.00">BaseStationCode/src</text>
<text text-anchor="middle" x="512" y="-73" font-family="Helvetica,sans-Serif" font-size="10.00">/src/networking.cpp</text>
</a>
</g>
</g>
<!-- Node7&#45;&gt;Node11 -->
<g id="edge23_Node000007_Node000011" class="edge">
<title>Node7&#45;&gt;Node11</title>
<g id="a_edge23_Node000007_Node000011"><a xlink:title=" ">
<path fill="none" stroke="#63b8ff" d="M477.8,-253.89C486.02,-212.58 502.55,-129.48 509.17,-96.23"/>
<polygon fill="#63b8ff" stroke="#63b8ff" points="474.32,-253.41 475.8,-263.9 481.19,-254.78 474.32,-253.41"/>
</a>
</g>
</g>
<!-- Node15 -->
<g id="Node000015" class="node">
<title>Node15</title>
<g id="a_Node000015"><a xlink:href="rpc_8cpp.html" target="_top" xlink:title="Handles RPC calls.">
<polygon fill="white" stroke="#666666" points="471.5,-228 354.5,-228 354.5,-198 471.5,-198 471.5,-228"/>
<text text-anchor="start" x="362.5" y="-216" font-family="Helvetica,sans-Serif" font-size="10.00">BaseStationCode/src</text>
<text text-anchor="middle" x="413" y="-205" font-family="Helvetica,sans-Serif" font-size="10.00">/src/rpc.cpp</text>
</a>
</g>
</g>
<!-- Node7&#45;&gt;Node15 -->
<g id="edge24_Node000007_Node000015" class="edge">
<title>Node7&#45;&gt;Node15</title>
<g id="a_edge24_Node000007_Node000015"><a xlink:title=" ">
<path fill="none" stroke="#63b8ff" d="M452.72,-256.37C443.99,-247.06 434.04,-236.44 426.28,-228.16"/>
<polygon fill="#63b8ff" stroke="#63b8ff" points="450.29,-258.89 459.68,-263.8 455.4,-254.11 450.29,-258.89"/>
</a>
</g>
</g>
<!-- Node8&#45;&gt;Node2 -->
<g id="edge11_Node000008_Node000002" class="edge">
<title>Node8&#45;&gt;Node2</title>
<g id="a_edge11_Node000008_Node000002"><a xlink:title=" ">
<path fill="none" stroke="#63b8ff" d="M711.48,-189.87C704.9,-181.57 697.98,-171.76 693,-162 669.92,-116.71 656.71,-57.23 651.55,-30.32"/>
<polygon fill="#63b8ff" stroke="#63b8ff" points="708.8,-192.13 717.85,-197.63 714.2,-187.68 708.8,-192.13"/>
</a>
</g>
</g>
<!-- Node9 -->
<g id="Node000009" class="node">
<title>Node9</title>
<g id="a_Node000009"><a xlink:href="lora_8cpp.html" target="_top" xlink:title="File that handles the LoRa radio and PJON.">
<polygon fill="white" stroke="#666666" points="819.5,-162 702.5,-162 702.5,-132 819.5,-132 819.5,-162"/>
<text text-anchor="start" x="710.5" y="-150" font-family="Helvetica,sans-Serif" font-size="10.00">BaseStationCode/src</text>
<text text-anchor="middle" x="761" y="-139" font-family="Helvetica,sans-Serif" font-size="10.00">/src/lora.cpp</text>
</a>
</g>
</g>
<!-- Node8&#45;&gt;Node9 -->
<g id="edge12_Node000008_Node000009" class="edge">
<title>Node8&#45;&gt;Node9</title>
<g id="a_edge12_Node000008_Node000009"><a xlink:title=" ">
<path fill="none" stroke="#63b8ff" d="M741.93,-188.68C746.1,-179.79 750.71,-169.95 754.36,-162.16"/>
<polygon fill="#63b8ff" stroke="#63b8ff" points="738.73,-187.26 737.66,-197.8 745.07,-190.23 738.73,-187.26"/>
</a>
</g>
</g>
<!-- Node8&#45;&gt;Node10 -->
<g id="edge13_Node000008_Node000010" class="edge">
<title>Node8&#45;&gt;Node10</title>
<g id="a_edge13_Node000008_Node000010"><a xlink:title=" ">
<path fill="none" stroke="#63b8ff" d="M684.49,-194.05C660.73,-183.91 632.77,-171.43 612.83,-162.01"/>
<polygon fill="#63b8ff" stroke="#63b8ff" points="683.13,-197.28 693.7,-197.95 685.86,-190.83 683.13,-197.28"/>
</a>
</g>
</g>
<!-- Node10&#45;&gt;Node2 -->
<g id="edge14_Node000010_Node000002" class="edge">
<title>Node10&#45;&gt;Node2</title>
<g id="a_edge14_Node000010_Node000002"><a xlink:title=" ">
<path fill="none" stroke="#63b8ff" d="M598.09,-122.75C610.92,-95.84 631.64,-52.4 642.26,-30.14"/>
<polygon fill="#63b8ff" stroke="#63b8ff" points="594.9,-121.31 593.75,-131.84 601.22,-124.32 594.9,-121.31"/>
</a>
</g>
</g>
<!-- Node10&#45;&gt;Node5 -->
<g id="edge15_Node000010_Node000005" class="edge">
<title>Node10&#45;&gt;Node5</title>
<g id="a_edge15_Node000010_Node000005"><a xlink:title=" ">
<path fill="none" stroke="#63b8ff" d="M518.47,-135.66C436.1,-123.22 299.27,-102.57 221.59,-90.84"/>
<polygon fill="#63b8ff" stroke="#63b8ff" points="518.08,-139.14 528.49,-137.17 519.12,-132.21 518.08,-139.14"/>
</a>
</g>
</g>
<!-- Node10&#45;&gt;Node7 -->
<g id="edge21_Node000010_Node000007" class="edge">
<title>Node10&#45;&gt;Node7</title>
<g id="a_edge21_Node000010_Node000007"><a xlink:title=" ">
<path fill="none" stroke="#63b8ff" d="M567.86,-169.83C544.39,-196.6 505.29,-241.18 485.42,-263.84"/>
<polygon fill="#63b8ff" stroke="#63b8ff" points="570.64,-171.97 574.6,-162.14 565.37,-167.35 570.64,-171.97"/>
</a>
</g>
</g>
<!-- Node10&#45;&gt;Node8 -->
<g id="edge16_Node000010_Node000008" class="edge">
<title>Node10&#45;&gt;Node8</title>
<g id="a_edge16_Node000010_Node000008"><a xlink:title=" ">
<path fill="none" stroke="#63b8ff" d="M633.75,-166.05C657.43,-176.16 685.23,-188.58 705.1,-197.95"/>
<polygon fill="#63b8ff" stroke="#63b8ff" points="634.8,-162.69 624.22,-162.01 632.07,-169.13 634.8,-162.69"/>
</a>
</g>
</g>
<!-- Node10&#45;&gt;Node11 -->
<g id="edge17_Node000010_Node000011" class="edge">
<title>Node10&#45;&gt;Node11</title>
<g id="a_edge17_Node000010_Node000011"><a xlink:title=" ">
<path fill="none" stroke="#63b8ff" d="M562.63,-125.2C551.49,-115.7 538.59,-104.69 528.6,-96.16"/>
<polygon fill="#63b8ff" stroke="#63b8ff" points="560.48,-127.97 570.36,-131.8 565.02,-122.64 560.48,-127.97"/>
</a>
</g>
</g>
<!-- Node10&#45;&gt;Node12 -->
<g id="edge18_Node000010_Node000012" class="edge">
<title>Node10&#45;&gt;Node12</title>
<g id="a_edge18_Node000010_Node000012"><a xlink:title=" ">
<path fill="none" stroke="#63b8ff" d="M655.82,-136.6C668.19,-135 680.97,-133.41 693,-132 849.27,-113.74 1033.92,-96 1126.24,-87.4"/>
<polygon fill="#63b8ff" stroke="#63b8ff" points="655.02,-133.18 645.56,-137.95 655.92,-140.12 655.02,-133.18"/>
</a>
</g>
</g>
<!-- Node14 -->
<g id="Node000014" class="node">
<title>Node14</title>
<g id="a_Node000014"><a xlink:href="timeseries_8cpp.html" target="_top" xlink:title=" ">
<polygon fill="white" stroke="#666666" points="831.5,-96 714.5,-96 714.5,-66 831.5,-66 831.5,-96"/>
<text text-anchor="start" x="722.5" y="-84" font-family="Helvetica,sans-Serif" font-size="10.00">BaseStationCode/src</text>
<text text-anchor="middle" x="773" y="-73" font-family="Helvetica,sans-Serif" font-size="10.00">/src/timeseries.cpp</text>
</a>
</g>
</g>
<!-- Node10&#45;&gt;Node14 -->
<g id="edge22_Node000010_Node000014" class="edge">
<title>Node10&#45;&gt;Node14</title>
<g id="a_edge22_Node000010_Node000014"><a xlink:title=" ">
<path fill="none" stroke="#63b8ff" d="M637.6,-128.59C667.34,-118.36 704.44,-105.59 732.28,-96.01"/>
<polygon fill="#63b8ff" stroke="#63b8ff" points="636.14,-125.39 627.82,-131.95 638.41,-132.01 636.14,-125.39"/>
</a>
</g>
</g>
<!-- Node12&#45;&gt;Node2 -->
<g id="edge19_Node000012_Node000002" class="edge">
<title>Node12&#45;&gt;Node2</title>
<g id="a_edge19_Node000012_Node000002"><a xlink:title=" ">
<path fill="none" stroke="#63b8ff" d="M1115.91,-66.6C1114.6,-66.39 1113.29,-66.19 1112,-66 967.27,-44.34 795.75,-28.32 707.67,-20.78"/>
<polygon fill="#63b8ff" stroke="#63b8ff" points="1115.67,-70.11 1126.1,-68.28 1116.8,-63.2 1115.67,-70.11"/>
</a>
</g>
</g>
<!-- Node13 -->
<g id="Node000013" class="node">
<title>Node13</title>
<g id="a_Node000013"><a xlink:href="ota_8cpp.html" target="_top" xlink:title="Handles over the air (OTA) updates.">
<polygon fill="white" stroke="#666666" points="1243.5,-30 1126.5,-30 1126.5,0 1243.5,0 1243.5,-30"/>
<text text-anchor="start" x="1134.5" y="-18" font-family="Helvetica,sans-Serif" font-size="10.00">BaseStationCode/src</text>
<text text-anchor="middle" x="1185" y="-7" font-family="Helvetica,sans-Serif" font-size="10.00">/src/ota.cpp</text>
</a>
</g>
</g>
<!-- Node12&#45;&gt;Node13 -->
<g id="edge20_Node000012_Node000013" class="edge">
<title>Node12&#45;&gt;Node13</title>
<g id="a_edge20_Node000012_Node000013"><a xlink:title=" ">
<path fill="none" stroke="#63b8ff" d="M1185,-55.54C1185,-46.96 1185,-37.61 1185,-30.16"/>
<polygon fill="#63b8ff" stroke="#63b8ff" points="1181.5,-55.8 1185,-65.8 1188.5,-55.8 1181.5,-55.8"/>
</a>
</g>
</g>
<!-- Node16&#45;&gt;Node2 -->
<g id="edge26_Node000016_Node000002" class="edge">
<title>Node16&#45;&gt;Node2</title>
<g id="a_edge26_Node000016_Node000002"><a xlink:title=" ">
<path fill="none" stroke="#63b8ff" d="M1009.04,-456.48C1020.82,-448.47 1032.93,-438.19 1041,-426 1061.18,-395.53 1060,-382.54 1060,-346 1060,-346 1060,-346 1060,-146 1060,-73.03 821.53,-35.8 707.89,-22.2"/>
<polygon fill="#63b8ff" stroke="#63b8ff" points="1007.11,-453.56 1000.59,-461.91 1010.9,-459.45 1007.11,-453.56"/>
</a>
</g>
</g>
<!-- Node17 -->
<g id="Node000017" class="node">
<title>Node17</title>
<g id="a_Node000017"><a xlink:href="audio_8cpp.html" target="_top" xlink:title="Plays audio.">
<polygon fill="white" stroke="#666666" points="1031.5,-426 914.5,-426 914.5,-396 1031.5,-396 1031.5,-426"/>
<text text-anchor="start" x="922.5" y="-414" font-family="Helvetica,sans-Serif" font-size="10.00">BaseStationCode/src</text>
<text text-anchor="middle" x="973" y="-403" font-family="Helvetica,sans-Serif" font-size="10.00">/src/audio.cpp</text>
</a>
</g>
</g>
<!-- Node16&#45;&gt;Node17 -->
<g id="edge27_Node000016_Node000017" class="edge">
<title>Node16&#45;&gt;Node17</title>
<g id="a_edge27_Node000016_Node000017"><a xlink:title=" ">
<path fill="none" stroke="#63b8ff" d="M973,-451.54C973,-442.96 973,-433.61 973,-426.16"/>
<polygon fill="#63b8ff" stroke="#63b8ff" points="969.5,-451.8 973,-461.8 976.5,-451.8 969.5,-451.8"/>
</a>
</g>
</g>
<!-- Node19 -->
<g id="Node000019" class="node">
<title>Node19</title>
<g id="a_Node000019"><a xlink:href="conversions_8cpp.html" target="_top" xlink:title="General functions for converting to and from char arrays.">
<polygon fill="white" stroke="#666666" points="358.5,-426 241.5,-426 241.5,-396 358.5,-396 358.5,-426"/>
<text text-anchor="start" x="249.5" y="-414" font-family="Helvetica,sans-Serif" font-size="10.00">BaseStationCode/src</text>
<text text-anchor="middle" x="300" y="-403" font-family="Helvetica,sans-Serif" font-size="10.00">/src/conversions.cpp</text>
</a>
</g>
</g>
<!-- Node18&#45;&gt;Node19 -->
<g id="edge29_Node000018_Node000019" class="edge">
<title>Node18&#45;&gt;Node19</title>
<g id="a_edge29_Node000018_Node000019"><a xlink:title=" ">
<path fill="none" stroke="#63b8ff" d="M366.73,-456.03C352.05,-446.34 334.77,-434.94 321.47,-426.16"/>
<polygon fill="#63b8ff" stroke="#63b8ff" points="365.2,-459.21 375.47,-461.8 369.05,-453.37 365.2,-459.21"/>
</a>
</g>
</g>
<!-- Node18&#45;&gt;Node20 -->
<g id="edge30_Node000018_Node000020" class="edge">
<title>Node18&#45;&gt;Node20</title>
<g id="a_edge30_Node000018_Node000020"><a xlink:title=" ">
<path fill="none" stroke="#63b8ff" d="M410.68,-452.96C416,-444 421.92,-434.03 426.59,-426.16"/>
<polygon fill="#63b8ff" stroke="#63b8ff" points="407.53,-451.41 405.43,-461.8 413.55,-454.98 407.53,-451.41"/>
</a>
</g>
</g>
<!-- Node20&#45;&gt;Node7 -->
<g id="edge41_Node000020_Node000007" class="edge">
<title>Node20&#45;&gt;Node7</title>
<g id="a_edge41_Node000020_Node000007"><a xlink:title=" ">
<path fill="none" stroke="#63b8ff" d="M395.82,-390.44C384.41,-382.64 373.33,-372.5 367,-360 360.98,-348.1 359.86,-341.26 367,-330 377.84,-312.9 396.27,-301.54 414.75,-294.04"/>
<polygon fill="#63b8ff" stroke="#63b8ff" points="394.21,-393.56 404.54,-395.94 397.95,-387.64 394.21,-393.56"/>
</a>
</g>
</g>
<!-- Node21 -->
<g id="Node000021" class="node">
<title>Node21</title>
<g id="a_Node000021"><a xlink:href="device__list_8h.html" target="_top" xlink:title="List of all devices and fields known to the system.">
<polygon fill="white" stroke="#666666" points="357.5,-294 240.5,-294 240.5,-264 357.5,-264 357.5,-294"/>
<text text-anchor="start" x="248.5" y="-282" font-family="Helvetica,sans-Serif" font-size="10.00">BaseStationCode/src</text>
<text text-anchor="middle" x="299" y="-271" font-family="Helvetica,sans-Serif" font-size="10.00">/device_list.h</text>
</a>
</g>
</g>
<!-- Node20&#45;&gt;Node21 -->
<g id="edge31_Node000020_Node000021" class="edge">
<title>Node20&#45;&gt;Node21</title>
<g id="a_edge31_Node000020_Node000021"><a xlink:title=" ">
<path fill="none" stroke="#63b8ff" d="M400.11,-390.58C386.51,-382.14 371.27,-371.54 359,-360 337.5,-339.78 318.09,-311.14 307.48,-294.17"/>
<polygon fill="#63b8ff" stroke="#63b8ff" points="398.39,-393.63 408.76,-395.81 402.01,-387.64 398.39,-393.63"/>
</a>
</g>
</g>
<!-- Node20&#45;&gt;Node22 -->
<g id="edge33_Node000020_Node000022" class="edge">
<title>Node20&#45;&gt;Node22</title>
<g id="a_edge33_Node000020_Node000022"><a xlink:title=" ">
<path fill="none" stroke="#63b8ff" d="M491.35,-392.99C525.46,-382.69 568.44,-369.72 600.58,-360.01"/>
<polygon fill="#63b8ff" stroke="#63b8ff" points="490.09,-389.71 481.52,-395.95 492.11,-396.42 490.09,-389.71"/>
</a>
</g>
</g>
<!-- Node24 -->
<g id="Node000024" class="node">
<title>Node24</title>
<g id="a_Node000024"><a xlink:href="fields_8cpp.html" target="_top" xlink:title="Contains fields classes.">
<polygon fill="white" stroke="#666666" points="493.5,-360 376.5,-360 376.5,-330 493.5,-330 493.5,-360"/>
<text text-anchor="start" x="384.5" y="-348" font-family="Helvetica,sans-Serif" font-size="10.00">BaseStationCode/src</text>
<text text-anchor="middle" x="435" y="-337" font-family="Helvetica,sans-Serif" font-size="10.00">/src/fields.cpp</text>
</a>
</g>
</g>
<!-- Node20&#45;&gt;Node24 -->
<g id="edge40_Node000020_Node000024" class="edge">
<title>Node20&#45;&gt;Node24</title>
<g id="a_edge40_Node000020_Node000024"><a xlink:title=" ">
<path fill="none" stroke="#63b8ff" d="M435,-385.54C435,-376.96 435,-367.61 435,-360.16"/>
<polygon fill="#63b8ff" stroke="#63b8ff" points="431.5,-385.8 435,-395.8 438.5,-385.8 431.5,-385.8"/>
</a>
</g>
</g>
<!-- Node21&#45;&gt;Node2 -->
<g id="edge32_Node000021_Node000002" class="edge">
<title>Node21&#45;&gt;Node2</title>
<g id="a_edge32_Node000021_Node000002"><a xlink:title=" ">
<path fill="none" stroke="#63b8ff" d="M302.36,-254.05C310.19,-208.39 334.25,-109.58 400,-66 457.15,-28.12 536.74,-17.81 590.43,-15.56"/>
<polygon fill="#63b8ff" stroke="#63b8ff" points="298.9,-253.52 300.78,-263.95 305.82,-254.62 298.9,-253.52"/>
</a>
</g>
</g>
<!-- Node22&#45;&gt;Node5 -->
<g id="edge36_Node000022_Node000005" class="edge">
<title>Node22&#45;&gt;Node5</title>
<g id="a_edge36_Node000022_Node000005"><a xlink:title=" ">
<path fill="none" stroke="#63b8ff" d="M578.19,-339.22C528.01,-333.54 459.53,-321.13 405,-294 391.56,-287.31 230,-142.33 178.6,-96.06"/>
<polygon fill="#63b8ff" stroke="#63b8ff" points="577.97,-342.72 588.29,-340.3 578.72,-335.76 577.97,-342.72"/>
</a>
</g>
</g>
<!-- Node22&#45;&gt;Node7 -->
<g id="edge39_Node000022_Node000007" class="edge">
<title>Node22&#45;&gt;Node7</title>
<g id="a_edge39_Node000022_Node000007"><a xlink:title=" ">
<path fill="none" stroke="#63b8ff" d="M599.3,-326.46C571.54,-316.25 537.03,-303.55 511.1,-294.01"/>
<polygon fill="#63b8ff" stroke="#63b8ff" points="598.22,-329.79 608.81,-329.95 600.64,-323.22 598.22,-329.79"/>
</a>
</g>
</g>
<!-- Node22&#45;&gt;Node8 -->
<g id="edge37_Node000022_Node000008" class="edge">
<title>Node22&#45;&gt;Node8</title>
<g id="a_edge37_Node000022_Node000008"><a xlink:title=" ">
<path fill="none" stroke="#63b8ff" d="M713.89,-325.72C728.93,-318.36 743.07,-308.14 752,-294 765.03,-273.36 751.5,-244.85 740.93,-228.03"/>
<polygon fill="#63b8ff" stroke="#63b8ff" points="712.14,-322.67 704.44,-329.95 715,-329.06 712.14,-322.67"/>
</a>
</g>
</g>
<!-- Node22&#45;&gt;Node10 -->
<g id="edge38_Node000022_Node000010" class="edge">
<title>Node22&#45;&gt;Node10</title>
<g id="a_edge38_Node000022_Node000010"><a xlink:title=" ">
<path fill="none" stroke="#63b8ff" d="M631.23,-321.4C626.04,-313.1 620.67,-303.42 617,-294 598.96,-247.71 591.11,-188.73 588.31,-162.13"/>
<polygon fill="#63b8ff" stroke="#63b8ff" points="628.31,-323.33 636.7,-329.8 634.17,-319.51 628.31,-323.33"/>
</a>
</g>
</g>
<!-- Node22&#45;&gt;Node21 -->
<g id="edge34_Node000022_Node000021" class="edge">
<title>Node22&#45;&gt;Node21</title>
<g id="a_edge34_Node000022_Node000021"><a xlink:title=" ">
<path fill="none" stroke="#63b8ff" d="M578.4,-331.72C522.75,-321.71 442.28,-307.13 372,-294 367.31,-293.12 362.44,-292.21 357.56,-291.28"/>
<polygon fill="#63b8ff" stroke="#63b8ff" points="578.03,-335.21 588.5,-333.53 579.27,-328.32 578.03,-335.21"/>
</a>
</g>
</g>
<!-- Node23 -->
<g id="Node000023" class="node">
<title>Node23</title>
<g id="a_Node000023"><a xlink:href="devices_8cpp.html" target="_top" xlink:title="Devices and manager for all known devices the base station connects to.">
<polygon fill="white" stroke="#666666" points="743.5,-294 626.5,-294 626.5,-264 743.5,-264 743.5,-294"/>
<text text-anchor="start" x="634.5" y="-282" font-family="Helvetica,sans-Serif" font-size="10.00">BaseStationCode/src</text>
<text text-anchor="middle" x="685" y="-271" font-family="Helvetica,sans-Serif" font-size="10.00">/src/devices.cpp</text>
</a>
</g>
</g>
<!-- Node22&#45;&gt;Node23 -->
<g id="edge35_Node000022_Node000023" class="edge">
<title>Node22&#45;&gt;Node23</title>
<g id="a_edge35_Node000022_Node000023"><a xlink:title=" ">
<path fill="none" stroke="#63b8ff" d="M660.68,-320.96C666,-312 671.92,-302.03 676.59,-294.16"/>
<polygon fill="#63b8ff" stroke="#63b8ff" points="657.53,-319.41 655.43,-329.8 663.55,-322.98 657.53,-319.41"/>
</a>
</g>
</g>
<!-- Node25&#45;&gt;Node8 -->
<g id="edge48_Node000025_Node000008" class="edge">
<title>Node25&#45;&gt;Node8</title>
<g id="a_edge48_Node000025_Node000008"><a xlink:title=" ">
<path fill="none" stroke="#63b8ff" d="M668.17,-454.11C697.52,-422.06 749.2,-359.09 769,-294 772.88,-281.24 773.26,-276.64 769,-264 764.41,-250.36 754.45,-237.49 745.88,-228.23"/>
<polygon fill="#63b8ff" stroke="#63b8ff" points="665.48,-451.86 661.22,-461.57 670.6,-456.63 665.48,-451.86"/>
</a>
</g>
</g>
<!-- Node25&#45;&gt;Node20 -->
<g id="edge47_Node000025_Node000020" class="edge">
<title>Node25&#45;&gt;Node20</title>
<g id="a_edge47_Node000025_Node000020"><a xlink:title=" ">
<path fill="none" stroke="#63b8ff" d="M590.65,-458.99C556.54,-448.69 513.56,-435.72 481.42,-426.01"/>
<polygon fill="#63b8ff" stroke="#63b8ff" points="589.89,-462.42 600.48,-461.95 591.91,-455.71 589.89,-462.42"/>
</a>
</g>
</g>
<!-- Node25&#45;&gt;Node22 -->
<g id="edge46_Node000025_Node000022" class="edge">
<title>Node25&#45;&gt;Node22</title>
<g id="a_edge46_Node000025_Node000022"><a xlink:title=" ">
<path fill="none" stroke="#63b8ff" d="M647,-451.68C647,-424.7 647,-382.11 647,-360.14"/>
<polygon fill="#63b8ff" stroke="#63b8ff" points="643.5,-451.84 647,-461.84 650.5,-451.84 643.5,-451.84"/>
</a>
</g>
</g>
<!-- Node26&#45;&gt;Node2 -->
<g id="edge54_Node000026_Node000002" class="edge">
<title>Node26&#45;&gt;Node2</title>
<g id="a_edge54_Node000026_Node000002"><a xlink:title=" ">
<path fill="none" stroke="#63b8ff" d="M885.28,-122.51C875.84,-104.44 860.43,-80.22 840,-66 800.89,-38.78 747.95,-26.38 707.72,-20.73"/>
<polygon fill="#63b8ff" stroke="#63b8ff" points="882.32,-124.42 889.9,-131.82 888.59,-121.31 882.32,-124.42"/>
</a>
</g>
</g>
<!-- Node26&#45;&gt;Node14 -->
<g id="edge55_Node000026_Node000014" class="edge">
<title>Node26&#45;&gt;Node14</title>
<g id="a_edge55_Node000026_Node000014"><a xlink:title=" ">
<path fill="none" stroke="#63b8ff" d="M859.95,-127.24C840.75,-117.25 817.54,-105.18 799.93,-96.01"/>
<polygon fill="#63b8ff" stroke="#63b8ff" points="858.52,-130.44 869.01,-131.95 861.75,-124.23 858.52,-130.44"/>
</a>
</g>
</g>
</g>
</svg>
