<?xml version="1.0" encoding="UTF-8" standalone="no"?>
<!DOCTYPE svg PUBLIC "-//W3C//DTD SVG 1.1//EN"
 "http://www.w3.org/Graphics/SVG/1.1/DTD/svg11.dtd">
<!-- Generated by graphviz version 2.43.0 (0)
 -->
<!-- Title: BaseStationCode/src/defines.h Pages: 1 -->
<!--zoomable 575 -->
<svg id="main" version="1.1" xmlns="http://www.w3.org/2000/svg" xmlns:xlink="http://www.w3.org/1999/xlink" xml:space="preserve" onload="init(evt)">
<style type="text/css"><![CDATA[
.edge:hover path { stroke: red; }
.edge:hover polygon { stroke: red; fill: red; }
]]></style>
<script type="text/javascript"><![CDATA[
var edges = document.getElementsByTagName('g');
if (edges && edges.length) {
  for (var i=0;i<edges.length;i++) {
    if (edges[i].id.substr(0,4)=='edge') {
      edges[i].setAttribute('class','edge');
    }
  }
}
]]></script>
        <defs>
                <circle id="rim" cx="0" cy="0" r="7"/>
                <circle id="rim2" cx="0" cy="0" r="3.5"/>
                <g id="zoomPlus">
                        <use xlink:href="#rim" fill="#404040">
                                <set attributeName="fill" to="#808080" begin="zoomplus.mouseover" end="zoomplus.mouseout"/>
                        </use>
                        <path d="M-4,0h8M0,-4v8" fill="none" stroke="white" stroke-width="1.5" pointer-events="none"/>
                </g>
                <g id="zoomMin">
                        <use xlink:href="#rim" fill="#404040">
                                <set attributeName="fill" to="#808080" begin="zoomminus.mouseover" end="zoomminus.mouseout"/>
                        </use>
                        <path d="M-4,0h8" fill="none" stroke="white" stroke-width="1.5" pointer-events="none"/>
                </g>
                <g id="dirArrow">
                        <path fill="none" stroke="white" stroke-width="1.5" d="M0,-3.0v7 M-2.5,-0.5L0,-3.0L2.5,-0.5"/>
                </g>
               <g id="resetDef">
                       <use xlink:href="#rim2" fill="#404040">
                               <set attributeName="fill" to="#808080" begin="reset.mouseover" end="reset.mouseout"/>
                       </use>
               </g>
        </defs>

<script type="text/javascript">
var viewWidth = 1183;
var viewHeight = 575;
var sectionId = 'dynsection-1';
</script>
<script xlink:href="svgpan.js"/>
<svg id="graph" class="graph">
<g id="viewport">
<title>BaseStationCode/src/defines.h</title>
<polygon fill="white" stroke="transparent" points="-4,4 -4,-571 1178.5,-571 1178.5,4 -4,4"/>
<!-- Node1 -->
<g id="node1" class="node">
<title>Node1</title>
<g id="a_node1"><a xlink:title="Definitions and other preprocessor and global stuff.">
<polygon fill="#bfbfbf" stroke="black" points="348.5,-536.5 348.5,-566.5 465.5,-566.5 465.5,-536.5 348.5,-536.5"/>
<text text-anchor="start" x="356.5" y="-554.5" font-family="Helvetica,sans-Serif" font-size="10.00">BaseStationCode/src</text>
<text text-anchor="middle" x="407" y="-543.5" font-family="Helvetica,sans-Serif" font-size="10.00">/defines.h</text>
</a>
</g>
</g>
<!-- Node2 -->
<g id="node2" class="node">
<title>Node2</title>
<g id="a_node2"><a xlink:href="main_8cpp.html" target="_top" xlink:title=" ">
<polygon fill="white" stroke="black" points="357.5,-0.5 357.5,-30.5 474.5,-30.5 474.5,-0.5 357.5,-0.5"/>
<text text-anchor="start" x="365.5" y="-18.5" font-family="Helvetica,sans-Serif" font-size="10.00">BaseStationCode/src</text>
<text text-anchor="middle" x="416" y="-7.5" font-family="Helvetica,sans-Serif" font-size="10.00">/main.cpp</text>
</a>
</g>
</g>
<!-- Node1&#45;&gt;Node2 -->
<g id="edge1" class="edge">
<title>Node1&#45;&gt;Node2</title>
<path fill="none" stroke="midnightblue" d="M338.04,-542.54C221.94,-527.21 0,-488.71 0,-418.5 0,-418.5 0,-418.5 0,-148.5 0,-103.52 21.2,-89.75 60,-67 171.28,-1.76 220.8,-52.47 348,-31 351.09,-30.48 354.26,-29.91 357.46,-29.32"/>
<polygon fill="midnightblue" stroke="midnightblue" points="337.89,-546.05 348.25,-543.87 338.79,-539.11 337.89,-546.05"/>
</g>
<!-- Node3 -->
<g id="node3" class="node">
<title>Node3</title>
<g id="a_node3"><a xlink:href="alarm_8h.html" target="_top" xlink:title="Handles alarms.">
<polygon fill="white" stroke="black" points="104.5,-335.5 104.5,-365.5 221.5,-365.5 221.5,-335.5 104.5,-335.5"/>
<text text-anchor="start" x="112.5" y="-353.5" font-family="Helvetica,sans-Serif" font-size="10.00">BaseStationCode/src</text>
<text text-anchor="middle" x="163" y="-342.5" font-family="Helvetica,sans-Serif" font-size="10.00">/src/alarm.h</text>
</a>
</g>
</g>
<!-- Node1&#45;&gt;Node3 -->
<g id="edge2" class="edge">
<title>Node1&#45;&gt;Node3</title>
<path fill="none" stroke="midnightblue" d="M338.43,-543.33C304.44,-536.76 264.65,-524.15 236,-500 192.73,-463.52 172.83,-395.25 165.95,-365.71"/>
<polygon fill="midnightblue" stroke="midnightblue" points="337.84,-546.78 348.3,-545.11 339.08,-539.89 337.84,-546.78"/>
</g>
<!-- Node5 -->
<g id="node5" class="node">
<title>Node5</title>
<g id="a_node5"><a xlink:href="leds_8h.html" target="_top" xlink:title="Controls the LEDs on the unit.">
<polygon fill="white" stroke="black" points="224.5,-67.5 224.5,-97.5 341.5,-97.5 341.5,-67.5 224.5,-67.5"/>
<text text-anchor="start" x="232.5" y="-85.5" font-family="Helvetica,sans-Serif" font-size="10.00">BaseStationCode/src</text>
<text text-anchor="middle" x="283" y="-74.5" font-family="Helvetica,sans-Serif" font-size="10.00">/src/leds.h</text>
</a>
</g>
</g>
<!-- Node1&#45;&gt;Node5 -->
<g id="edge42" class="edge">
<title>Node1&#45;&gt;Node5</title>
<path fill="none" stroke="midnightblue" d="M356.9,-532.59C310.95,-512.57 250,-475.3 250,-418.5 250,-418.5 250,-418.5 250,-349.5 250,-252.8 178.15,-221.18 220,-134 227.46,-118.46 242.3,-106.19 255.7,-97.64"/>
<polygon fill="midnightblue" stroke="midnightblue" points="355.59,-535.83 366.16,-536.48 358.3,-529.38 355.59,-535.83"/>
</g>
<!-- Node7 -->
<g id="node7" class="node">
<title>Node7</title>
<g id="a_node7"><a xlink:href="rpc_8h.html" target="_top" xlink:title="Handles RPC calls.">
<polygon fill="white" stroke="black" points="436.5,-268.5 436.5,-298.5 553.5,-298.5 553.5,-268.5 436.5,-268.5"/>
<text text-anchor="start" x="444.5" y="-286.5" font-family="Helvetica,sans-Serif" font-size="10.00">BaseStationCode/src</text>
<text text-anchor="middle" x="495" y="-275.5" font-family="Helvetica,sans-Serif" font-size="10.00">/src/rpc.h</text>
</a>
</g>
</g>
<!-- Node1&#45;&gt;Node7 -->
<g id="edge50" class="edge">
<title>Node1&#45;&gt;Node7</title>
<path fill="none" stroke="midnightblue" d="M393.22,-527.08C389.08,-518.81 385.09,-509.26 383,-500 369.72,-441.1 415.74,-342.3 421,-335 432.18,-319.48 449.7,-307.21 464.89,-298.66"/>
<polygon fill="midnightblue" stroke="midnightblue" points="390.24,-528.93 398.04,-536.1 396.42,-525.63 390.24,-528.93"/>
</g>
<!-- Node8 -->
<g id="node8" class="node">
<title>Node8</title>
<g id="a_node8"><a xlink:href="lora_8h.html" target="_top" xlink:title="File that handles the LoRa radio and PJON.">
<polygon fill="white" stroke="black" points="316.5,-201.5 316.5,-231.5 433.5,-231.5 433.5,-201.5 316.5,-201.5"/>
<text text-anchor="start" x="324.5" y="-219.5" font-family="Helvetica,sans-Serif" font-size="10.00">BaseStationCode/src</text>
<text text-anchor="middle" x="375" y="-208.5" font-family="Helvetica,sans-Serif" font-size="10.00">/src/lora.h</text>
</a>
</g>
</g>
<!-- Node1&#45;&gt;Node8 -->
<g id="edge47" class="edge">
<title>Node1&#45;&gt;Node8</title>
<path fill="none" stroke="midnightblue" d="M383.63,-529.19C359.7,-504.94 326,-462.9 326,-418.5 326,-418.5 326,-418.5 326,-349.5 326,-304.03 351.87,-254.95 366.01,-231.51"/>
<polygon fill="midnightblue" stroke="midnightblue" points="381.41,-531.92 391,-536.42 386.31,-526.92 381.41,-531.92"/>
</g>
<!-- Node10 -->
<g id="node10" class="node">
<title>Node10</title>
<g id="a_node10"><a xlink:href="networking_8h.html" target="_top" xlink:title="Header file for networking.cpp.">
<polygon fill="white" stroke="black" points="403.5,-134.5 403.5,-164.5 520.5,-164.5 520.5,-134.5 403.5,-134.5"/>
<text text-anchor="start" x="411.5" y="-152.5" font-family="Helvetica,sans-Serif" font-size="10.00">BaseStationCode/src</text>
<text text-anchor="middle" x="462" y="-141.5" font-family="Helvetica,sans-Serif" font-size="10.00">/src/networking.h</text>
</a>
</g>
</g>
<!-- Node1&#45;&gt;Node10 -->
<g id="edge48" class="edge">
<title>Node1&#45;&gt;Node10</title>
<path fill="none" stroke="midnightblue" d="M371.7,-531.07C336.62,-508.86 288,-468.99 288,-418.5 288,-418.5 288,-418.5 288,-282.5 288,-245.31 281.85,-228.41 307,-201 331.59,-174.2 370.55,-161.58 403.25,-155.66"/>
<polygon fill="midnightblue" stroke="midnightblue" points="369.94,-534.09 380.29,-536.33 373.59,-528.12 369.94,-534.09"/>
</g>
<!-- Node12 -->
<g id="node12" class="node">
<title>Node12</title>
<g id="a_node12"><a xlink:href="ota_8h.html" target="_top" xlink:title="Handles over the air (OTA) updates.">
<polygon fill="white" stroke="black" points="778.5,-67.5 778.5,-97.5 895.5,-97.5 895.5,-67.5 778.5,-67.5"/>
<text text-anchor="start" x="786.5" y="-85.5" font-family="Helvetica,sans-Serif" font-size="10.00">BaseStationCode/src</text>
<text text-anchor="middle" x="837" y="-74.5" font-family="Helvetica,sans-Serif" font-size="10.00">/src/ota.h</text>
</a>
</g>
</g>
<!-- Node1&#45;&gt;Node12 -->
<g id="edge49" class="edge">
<title>Node1&#45;&gt;Node12</title>
<path fill="none" stroke="midnightblue" d="M475.99,-549.31C630.52,-544.79 991,-523.03 991,-418.5 991,-418.5 991,-418.5 991,-215.5 991,-155.28 922.29,-116.62 876.66,-97.58"/>
<polygon fill="midnightblue" stroke="midnightblue" points="475.57,-545.82 465.67,-549.6 475.76,-552.82 475.57,-545.82"/>
</g>
<!-- Node15 -->
<g id="node15" class="node">
<title>Node15</title>
<g id="a_node15"><a xlink:href="audio_8h.html" target="_top" xlink:title="Plays audio.">
<polygon fill="white" stroke="black" points="1019.5,-469.5 1019.5,-499.5 1136.5,-499.5 1136.5,-469.5 1019.5,-469.5"/>
<text text-anchor="start" x="1027.5" y="-487.5" font-family="Helvetica,sans-Serif" font-size="10.00">BaseStationCode/src</text>
<text text-anchor="middle" x="1078" y="-476.5" font-family="Helvetica,sans-Serif" font-size="10.00">/src/audio.h</text>
</a>
</g>
</g>
<!-- Node1&#45;&gt;Node15 -->
<g id="edge23" class="edge">
<title>Node1&#45;&gt;Node15</title>
<path fill="none" stroke="midnightblue" d="M475.92,-547.19C587.49,-541.27 814.42,-526.89 1005,-500 1009.61,-499.35 1014.36,-498.6 1019.13,-497.78"/>
<polygon fill="midnightblue" stroke="midnightblue" points="475.62,-543.7 465.81,-547.72 475.98,-550.69 475.62,-543.7"/>
</g>
<!-- Node17 -->
<g id="node17" class="node">
<title>Node17</title>
<g id="a_node17"><a xlink:href="conversions_8h.html" target="_top" xlink:title="General functions for converting to and from char arrays.">
<polygon fill="white" stroke="black" points="566.5,-469.5 566.5,-499.5 683.5,-499.5 683.5,-469.5 566.5,-469.5"/>
<text text-anchor="start" x="574.5" y="-487.5" font-family="Helvetica,sans-Serif" font-size="10.00">BaseStationCode/src</text>
<text text-anchor="middle" x="625" y="-476.5" font-family="Helvetica,sans-Serif" font-size="10.00">/src/conversions.h</text>
</a>
</g>
</g>
<!-- Node1&#45;&gt;Node17 -->
<g id="edge26" class="edge">
<title>Node1&#45;&gt;Node17</title>
<path fill="none" stroke="midnightblue" d="M463.75,-533.58C499.16,-523.02 544.2,-509.59 577.67,-499.61"/>
<polygon fill="midnightblue" stroke="midnightblue" points="462.62,-530.26 454.03,-536.48 464.62,-536.97 462.62,-530.26"/>
</g>
<!-- Node19 -->
<g id="node19" class="node">
<title>Node19</title>
<g id="a_node19"><a xlink:href="fields_8h.html" target="_top" xlink:title="Contains fields classes.">
<polygon fill="white" stroke="black" points="479.5,-402.5 479.5,-432.5 596.5,-432.5 596.5,-402.5 479.5,-402.5"/>
<text text-anchor="start" x="487.5" y="-420.5" font-family="Helvetica,sans-Serif" font-size="10.00">BaseStationCode/src</text>
<text text-anchor="middle" x="538" y="-409.5" font-family="Helvetica,sans-Serif" font-size="10.00">/src/fields.h</text>
</a>
</g>
</g>
<!-- Node1&#45;&gt;Node19 -->
<g id="edge41" class="edge">
<title>Node1&#45;&gt;Node19</title>
<path fill="none" stroke="midnightblue" d="M471.72,-532.59C488.89,-525.03 505.97,-514.51 518,-500 534.09,-480.6 537.57,-450.2 538.13,-432.53"/>
<polygon fill="midnightblue" stroke="midnightblue" points="470.13,-529.46 462.2,-536.49 472.78,-535.94 470.13,-529.46"/>
</g>
<!-- Node21 -->
<g id="node21" class="node">
<title>Node21</title>
<g id="a_node21"><a xlink:href="devices_8h.html" target="_top" xlink:title="Devices and manager for all known devices the base station connects to.">
<polygon fill="white" stroke="black" points="604.5,-335.5 604.5,-365.5 721.5,-365.5 721.5,-335.5 604.5,-335.5"/>
<text text-anchor="start" x="612.5" y="-353.5" font-family="Helvetica,sans-Serif" font-size="10.00">BaseStationCode/src</text>
<text text-anchor="middle" x="663" y="-342.5" font-family="Helvetica,sans-Serif" font-size="10.00">/src/devices.h</text>
</a>
</g>
</g>
<!-- Node1&#45;&gt;Node21 -->
<g id="edge40" class="edge">
<title>Node1&#45;&gt;Node21</title>
<path fill="none" stroke="midnightblue" d="M475.52,-544.34C548.06,-536.77 656.83,-522.16 692,-500 733.03,-474.15 763.05,-444.67 740,-402 731.19,-385.68 714.55,-373.78 698.99,-365.65"/>
<polygon fill="midnightblue" stroke="midnightblue" points="475.13,-540.86 465.54,-545.36 475.84,-547.82 475.13,-540.86"/>
</g>
<!-- Node24 -->
<g id="node24" class="node">
<title>Node24</title>
<g id="a_node24"><a xlink:href="lookups_8h.html" target="_top" xlink:title="Lookupable and lookupable manager base classes.">
<polygon fill="white" stroke="black" points="392.5,-469.5 392.5,-499.5 509.5,-499.5 509.5,-469.5 392.5,-469.5"/>
<text text-anchor="start" x="400.5" y="-487.5" font-family="Helvetica,sans-Serif" font-size="10.00">BaseStationCode/src</text>
<text text-anchor="middle" x="451" y="-476.5" font-family="Helvetica,sans-Serif" font-size="10.00">/src/lookups.h</text>
</a>
</g>
</g>
<!-- Node1&#45;&gt;Node24 -->
<g id="edge43" class="edge">
<title>Node1&#45;&gt;Node24</title>
<path fill="none" stroke="midnightblue" d="M422.32,-527.87C428.69,-518.46 435.88,-507.83 441.47,-499.58"/>
<polygon fill="midnightblue" stroke="midnightblue" points="419.25,-526.15 416.55,-536.4 425.05,-530.08 419.25,-526.15"/>
</g>
<!-- Node3&#45;&gt;Node2 -->
<g id="edge3" class="edge">
<title>Node3&#45;&gt;Node2</title>
<path fill="none" stroke="midnightblue" d="M125.3,-330.15C88.5,-308.25 38,-268.85 38,-217.5 38,-217.5 38,-217.5 38,-148.5 38,-61.89 133.32,-95.79 215,-67 240.96,-57.85 307.69,-41.6 357.18,-30"/>
<polygon fill="midnightblue" stroke="midnightblue" points="123.91,-333.38 134.32,-335.33 127.4,-327.32 123.91,-333.38"/>
</g>
<!-- Node4 -->
<g id="node4" class="node">
<title>Node4</title>
<g id="a_node4"><a xlink:href="alarm_8cpp.html" target="_top" xlink:title="Handles alarms.">
<polygon fill="white" stroke="black" points="104.5,-268.5 104.5,-298.5 221.5,-298.5 221.5,-268.5 104.5,-268.5"/>
<text text-anchor="start" x="112.5" y="-286.5" font-family="Helvetica,sans-Serif" font-size="10.00">BaseStationCode/src</text>
<text text-anchor="middle" x="163" y="-275.5" font-family="Helvetica,sans-Serif" font-size="10.00">/src/alarm.cpp</text>
</a>
</g>
</g>
<!-- Node3&#45;&gt;Node4 -->
<g id="edge4" class="edge">
<title>Node3&#45;&gt;Node4</title>
<path fill="none" stroke="midnightblue" d="M163,-325.11C163,-316.15 163,-306.32 163,-298.58"/>
<polygon fill="midnightblue" stroke="midnightblue" points="159.5,-325.4 163,-335.4 166.5,-325.4 159.5,-325.4"/>
</g>
<!-- Node3&#45;&gt;Node5 -->
<g id="edge5" class="edge">
<title>Node3&#45;&gt;Node5</title>
<path fill="none" stroke="midnightblue" d="M124.1,-329.86C112.59,-321.96 101.37,-311.67 95,-299 88.81,-286.69 90.92,-281.16 95,-268 116.41,-199 133.01,-182 187,-134 204.45,-118.48 227.52,-106.15 246.67,-97.56"/>
<polygon fill="midnightblue" stroke="midnightblue" points="122.57,-333.03 132.88,-335.44 126.32,-327.13 122.57,-333.03"/>
</g>
<!-- Node3&#45;&gt;Node7 -->
<g id="edge8" class="edge">
<title>Node3&#45;&gt;Node7</title>
<path fill="none" stroke="midnightblue" d="M231.43,-336.1C291.9,-324.26 379.14,-307.18 436.44,-295.97"/>
<polygon fill="midnightblue" stroke="midnightblue" points="230.73,-332.67 221.59,-338.03 232.08,-339.54 230.73,-332.67"/>
</g>
<!-- Node5&#45;&gt;Node2 -->
<g id="edge6" class="edge">
<title>Node5&#45;&gt;Node2</title>
<path fill="none" stroke="midnightblue" d="M320.87,-62.99C341.95,-52.69 367.78,-40.07 387.2,-30.58"/>
<polygon fill="midnightblue" stroke="midnightblue" points="319.31,-59.86 311.86,-67.4 322.38,-66.15 319.31,-59.86"/>
</g>
<!-- Node6 -->
<g id="node6" class="node">
<title>Node6</title>
<g id="a_node6"><a xlink:href="leds_8cpp.html" target="_top" xlink:title="Controls the LEDs on the unit.">
<polygon fill="white" stroke="black" points="222.5,-0.5 222.5,-30.5 339.5,-30.5 339.5,-0.5 222.5,-0.5"/>
<text text-anchor="start" x="230.5" y="-18.5" font-family="Helvetica,sans-Serif" font-size="10.00">BaseStationCode/src</text>
<text text-anchor="middle" x="281" y="-7.5" font-family="Helvetica,sans-Serif" font-size="10.00">/src/leds.cpp</text>
</a>
</g>
</g>
<!-- Node5&#45;&gt;Node6 -->
<g id="edge7" class="edge">
<title>Node5&#45;&gt;Node6</title>
<path fill="none" stroke="midnightblue" d="M282.25,-57.11C281.97,-48.15 281.67,-38.32 281.43,-30.58"/>
<polygon fill="midnightblue" stroke="midnightblue" points="278.76,-57.51 282.57,-67.4 285.76,-57.29 278.76,-57.51"/>
</g>
<!-- Node7&#45;&gt;Node2 -->
<g id="edge9" class="edge">
<title>Node7&#45;&gt;Node2</title>
<path fill="none" stroke="midnightblue" d="M501.03,-258.59C505.41,-242.18 511.82,-220.02 519,-201 541.36,-141.82 603.96,-118.34 567,-67 546.08,-37.95 507.69,-25.37 474.85,-20.03"/>
<polygon fill="midnightblue" stroke="midnightblue" points="497.59,-257.89 498.45,-268.45 504.37,-259.66 497.59,-257.89"/>
</g>
<!-- Node7&#45;&gt;Node8 -->
<g id="edge10" class="edge">
<title>Node7&#45;&gt;Node8</title>
<path fill="none" stroke="midnightblue" d="M460.06,-263.57C441.18,-253.35 418.27,-240.94 400.99,-231.58"/>
<polygon fill="midnightblue" stroke="midnightblue" points="458.5,-266.71 468.96,-268.4 461.84,-260.56 458.5,-266.71"/>
</g>
<!-- Node14 -->
<g id="node14" class="node">
<title>Node14</title>
<g id="a_node14"><a xlink:href="rpc_8cpp.html" target="_top" xlink:title="Handles RPC calls.">
<polygon fill="white" stroke="black" points="528.5,-201.5 528.5,-231.5 645.5,-231.5 645.5,-201.5 528.5,-201.5"/>
<text text-anchor="start" x="536.5" y="-219.5" font-family="Helvetica,sans-Serif" font-size="10.00">BaseStationCode/src</text>
<text text-anchor="middle" x="587" y="-208.5" font-family="Helvetica,sans-Serif" font-size="10.00">/src/rpc.cpp</text>
</a>
</g>
</g>
<!-- Node7&#45;&gt;Node14 -->
<g id="edge22" class="edge">
<title>Node7&#45;&gt;Node14</title>
<path fill="none" stroke="midnightblue" d="M523.38,-262.45C537.53,-252.45 554.31,-240.6 567.08,-231.58"/>
<polygon fill="midnightblue" stroke="midnightblue" points="521.11,-259.77 514.96,-268.4 525.15,-265.48 521.11,-259.77"/>
</g>
<!-- Node8&#45;&gt;Node2 -->
<g id="edge11" class="edge">
<title>Node8&#45;&gt;Node2</title>
<path fill="none" stroke="midnightblue" d="M379.99,-191.27C388.64,-149.29 406.15,-64.33 413.08,-30.68"/>
<polygon fill="midnightblue" stroke="midnightblue" points="376.54,-190.69 377.95,-201.19 383.39,-192.1 376.54,-190.69"/>
</g>
<!-- Node9 -->
<g id="node9" class="node">
<title>Node9</title>
<g id="a_node9"><a xlink:href="lora_8cpp.html" target="_top" xlink:title="File that handles the LoRa radio and PJON.">
<polygon fill="white" stroke="black" points="229.5,-134.5 229.5,-164.5 346.5,-164.5 346.5,-134.5 229.5,-134.5"/>
<text text-anchor="start" x="237.5" y="-152.5" font-family="Helvetica,sans-Serif" font-size="10.00">BaseStationCode/src</text>
<text text-anchor="middle" x="288" y="-141.5" font-family="Helvetica,sans-Serif" font-size="10.00">/src/lora.cpp</text>
</a>
</g>
</g>
<!-- Node8&#45;&gt;Node9 -->
<g id="edge12" class="edge">
<title>Node8&#45;&gt;Node9</title>
<path fill="none" stroke="midnightblue" d="M347.79,-195.17C334.48,-185.23 318.8,-173.51 306.84,-164.58"/>
<polygon fill="midnightblue" stroke="midnightblue" points="346.02,-198.21 356.12,-201.4 350.21,-192.61 346.02,-198.21"/>
</g>
<!-- Node8&#45;&gt;Node10 -->
<g id="edge13" class="edge">
<title>Node8&#45;&gt;Node10</title>
<path fill="none" stroke="midnightblue" d="M396.26,-194.88C408.76,-185.01 424.47,-173.43 437.48,-164.58"/>
<polygon fill="midnightblue" stroke="midnightblue" points="393.78,-192.39 388.2,-201.4 398.18,-197.84 393.78,-192.39"/>
</g>
<!-- Node10&#45;&gt;Node2 -->
<g id="edge14" class="edge">
<title>Node10&#45;&gt;Node2</title>
<path fill="none" stroke="midnightblue" d="M446.19,-125.68C441,-117.29 435.64,-107.51 432,-98 423.35,-75.37 419.17,-47.34 417.31,-30.75"/>
<polygon fill="midnightblue" stroke="midnightblue" points="443.3,-127.65 451.67,-134.15 449.18,-123.86 443.3,-127.65"/>
</g>
<!-- Node10&#45;&gt;Node5 -->
<g id="edge15" class="edge">
<title>Node10&#45;&gt;Node5</title>
<path fill="none" stroke="midnightblue" d="M413.68,-130.96C384.85,-120.48 348.72,-107.37 321.76,-97.58"/>
<polygon fill="midnightblue" stroke="midnightblue" points="412.57,-134.27 423.16,-134.4 414.95,-127.69 412.57,-134.27"/>
</g>
<!-- Node10&#45;&gt;Node7 -->
<g id="edge21" class="edge">
<title>Node10&#45;&gt;Node7</title>
<path fill="none" stroke="midnightblue" d="M468,-174.49C474.86,-201.92 485.86,-245.94 491.47,-268.37"/>
<polygon fill="midnightblue" stroke="midnightblue" points="471.33,-173.38 465.51,-164.52 464.54,-175.08 471.33,-173.38"/>
</g>
<!-- Node10&#45;&gt;Node8 -->
<g id="edge16" class="edge">
<title>Node10&#45;&gt;Node8</title>
<path fill="none" stroke="midnightblue" d="M440.78,-171.09C428.29,-180.96 412.57,-192.54 399.56,-201.4"/>
<polygon fill="midnightblue" stroke="midnightblue" points="443.25,-173.58 448.83,-164.58 438.86,-168.14 443.25,-173.58"/>
</g>
<!-- Node11 -->
<g id="node11" class="node">
<title>Node11</title>
<g id="a_node11"><a xlink:href="networking_8cpp.html" target="_top" xlink:title="File that handles connecting to WiFi and MQTT and staying connected.">
<polygon fill="white" stroke="black" points="441.5,-67.5 441.5,-97.5 558.5,-97.5 558.5,-67.5 441.5,-67.5"/>
<text text-anchor="start" x="449.5" y="-85.5" font-family="Helvetica,sans-Serif" font-size="10.00">BaseStationCode/src</text>
<text text-anchor="middle" x="500" y="-74.5" font-family="Helvetica,sans-Serif" font-size="10.00">/src/networking.cpp</text>
</a>
</g>
</g>
<!-- Node10&#45;&gt;Node11 -->
<g id="edge17" class="edge">
<title>Node10&#45;&gt;Node11</title>
<path fill="none" stroke="midnightblue" d="M475.4,-125.58C480.86,-116.24 486.99,-105.75 491.77,-97.58"/>
<polygon fill="midnightblue" stroke="midnightblue" points="472.27,-124 470.25,-134.4 478.31,-127.53 472.27,-124"/>
</g>
<!-- Node10&#45;&gt;Node12 -->
<g id="edge18" class="edge">
<title>Node10&#45;&gt;Node12</title>
<path fill="none" stroke="midnightblue" d="M530.77,-136.58C601.71,-124.28 711.16,-105.31 778.2,-93.69"/>
<polygon fill="midnightblue" stroke="midnightblue" points="529.85,-133.19 520.59,-138.34 531.04,-140.08 529.85,-133.19"/>
</g>
<!-- Node12&#45;&gt;Node2 -->
<g id="edge19" class="edge">
<title>Node12&#45;&gt;Node2</title>
<path fill="none" stroke="midnightblue" d="M768.46,-67.78C766.96,-67.51 765.47,-67.25 764,-67 662.62,-49.59 543.93,-33.22 474.64,-24.06"/>
<polygon fill="midnightblue" stroke="midnightblue" points="768.01,-71.25 778.48,-69.6 769.27,-64.37 768.01,-71.25"/>
</g>
<!-- Node13 -->
<g id="node13" class="node">
<title>Node13</title>
<g id="a_node13"><a xlink:href="ota_8cpp.html" target="_top" xlink:title="Handles over the air (OTA) updates.">
<polygon fill="white" stroke="black" points="778.5,-0.5 778.5,-30.5 895.5,-30.5 895.5,-0.5 778.5,-0.5"/>
<text text-anchor="start" x="786.5" y="-18.5" font-family="Helvetica,sans-Serif" font-size="10.00">BaseStationCode/src</text>
<text text-anchor="middle" x="837" y="-7.5" font-family="Helvetica,sans-Serif" font-size="10.00">/src/ota.cpp</text>
</a>
</g>
</g>
<!-- Node12&#45;&gt;Node13 -->
<g id="edge20" class="edge">
<title>Node12&#45;&gt;Node13</title>
<path fill="none" stroke="midnightblue" d="M837,-57.11C837,-48.15 837,-38.32 837,-30.58"/>
<polygon fill="midnightblue" stroke="midnightblue" points="833.5,-57.4 837,-67.4 840.5,-57.4 833.5,-57.4"/>
</g>
<!-- Node15&#45;&gt;Node2 -->
<g id="edge24" class="edge">
<title>Node15&#45;&gt;Node2</title>
<path fill="none" stroke="midnightblue" d="M1062.38,-460.6C1057.2,-452.21 1051.8,-442.45 1048,-433 1034.12,-398.49 1029,-388.69 1029,-351.5 1029,-351.5 1029,-351.5 1029,-148.5 1029,-35.83 628.21,-19.06 474.78,-16.77"/>
<polygon fill="midnightblue" stroke="midnightblue" points="1059.48,-462.56 1067.82,-469.1 1065.37,-458.79 1059.48,-462.56"/>
</g>
<!-- Node16 -->
<g id="node16" class="node">
<title>Node16</title>
<g id="a_node16"><a xlink:href="audio_8cpp.html" target="_top" xlink:title="Plays audio.">
<polygon fill="white" stroke="black" points="1057.5,-402.5 1057.5,-432.5 1174.5,-432.5 1174.5,-402.5 1057.5,-402.5"/>
<text text-anchor="start" x="1065.5" y="-420.5" font-family="Helvetica,sans-Serif" font-size="10.00">BaseStationCode/src</text>
<text text-anchor="middle" x="1116" y="-409.5" font-family="Helvetica,sans-Serif" font-size="10.00">/src/audio.cpp</text>
</a>
</g>
</g>
<!-- Node15&#45;&gt;Node16 -->
<g id="edge25" class="edge">
<title>Node15&#45;&gt;Node16</title>
<path fill="none" stroke="midnightblue" d="M1091.4,-460.58C1096.86,-451.24 1102.99,-440.75 1107.77,-432.58"/>
<polygon fill="midnightblue" stroke="midnightblue" points="1088.27,-459 1086.25,-469.4 1094.31,-462.53 1088.27,-459"/>
</g>
<!-- Node18 -->
<g id="node18" class="node">
<title>Node18</title>
<g id="a_node18"><a xlink:href="conversions_8cpp.html" target="_top" xlink:title="General functions for converting to and from char arrays.">
<polygon fill="white" stroke="black" points="614.5,-402.5 614.5,-432.5 731.5,-432.5 731.5,-402.5 614.5,-402.5"/>
<text text-anchor="start" x="622.5" y="-420.5" font-family="Helvetica,sans-Serif" font-size="10.00">BaseStationCode/src</text>
<text text-anchor="middle" x="673" y="-409.5" font-family="Helvetica,sans-Serif" font-size="10.00">/src/conversions.cpp</text>
</a>
</g>
</g>
<!-- Node17&#45;&gt;Node18 -->
<g id="edge27" class="edge">
<title>Node17&#45;&gt;Node18</title>
<path fill="none" stroke="midnightblue" d="M641.5,-461.16C648.5,-451.68 656.44,-440.92 662.61,-432.58"/>
<polygon fill="midnightblue" stroke="midnightblue" points="638.54,-459.27 635.42,-469.4 644.17,-463.43 638.54,-459.27"/>
</g>
<!-- Node17&#45;&gt;Node19 -->
<g id="edge28" class="edge">
<title>Node17&#45;&gt;Node19</title>
<path fill="none" stroke="midnightblue" d="M597.79,-463.17C584.48,-453.23 568.8,-441.51 556.84,-432.58"/>
<polygon fill="midnightblue" stroke="midnightblue" points="596.02,-466.21 606.12,-469.4 600.21,-460.61 596.02,-466.21"/>
</g>
<!-- Node19&#45;&gt;Node7 -->
<g id="edge39" class="edge">
<title>Node19&#45;&gt;Node7</title>
<path fill="none" stroke="midnightblue" d="M550.85,-393.23C558.33,-376.42 564.71,-353.52 556,-335 548.74,-319.57 534.21,-307.24 521.14,-298.63"/>
<polygon fill="midnightblue" stroke="midnightblue" points="547.65,-391.81 546.43,-402.34 553.95,-394.87 547.65,-391.81"/>
</g>
<!-- Node20 -->
<g id="node20" class="node">
<title>Node20</title>
<g id="a_node20"><a xlink:href="device__list_8h.html" target="_top" xlink:title="List of all devices and fields known to the system.">
<polygon fill="white" stroke="black" points="845.5,-268.5 845.5,-298.5 962.5,-298.5 962.5,-268.5 845.5,-268.5"/>
<text text-anchor="start" x="853.5" y="-286.5" font-family="Helvetica,sans-Serif" font-size="10.00">BaseStationCode/src</text>
<text text-anchor="middle" x="904" y="-275.5" font-family="Helvetica,sans-Serif" font-size="10.00">/device_list.h</text>
</a>
</g>
</g>
<!-- Node19&#45;&gt;Node20 -->
<g id="edge29" class="edge">
<title>Node19&#45;&gt;Node20</title>
<path fill="none" stroke="midnightblue" d="M605.91,-400.02C651.48,-388.69 707.21,-374.26 730,-366 784.1,-346.4 844.3,-316.21 877.81,-298.6"/>
<polygon fill="midnightblue" stroke="midnightblue" points="604.92,-396.66 596.06,-402.46 606.6,-403.45 604.92,-396.66"/>
</g>
<!-- Node19&#45;&gt;Node21 -->
<g id="edge31" class="edge">
<title>Node19&#45;&gt;Node21</title>
<path fill="none" stroke="midnightblue" d="M574.13,-397.71C593.84,-387.46 617.84,-374.98 635.93,-365.58"/>
<polygon fill="midnightblue" stroke="midnightblue" points="572.38,-394.68 565.12,-402.4 575.61,-400.89 572.38,-394.68"/>
</g>
<!-- Node23 -->
<g id="node23" class="node">
<title>Node23</title>
<g id="a_node23"><a xlink:href="fields_8cpp.html" target="_top" xlink:title="Contains fields classes.">
<polygon fill="white" stroke="black" points="430.5,-335.5 430.5,-365.5 547.5,-365.5 547.5,-335.5 430.5,-335.5"/>
<text text-anchor="start" x="438.5" y="-353.5" font-family="Helvetica,sans-Serif" font-size="10.00">BaseStationCode/src</text>
<text text-anchor="middle" x="489" y="-342.5" font-family="Helvetica,sans-Serif" font-size="10.00">/src/fields.cpp</text>
</a>
</g>
</g>
<!-- Node19&#45;&gt;Node23 -->
<g id="edge38" class="edge">
<title>Node19&#45;&gt;Node23</title>
<path fill="none" stroke="midnightblue" d="M521.16,-394.16C514.01,-384.68 505.9,-373.92 499.61,-365.58"/>
<polygon fill="midnightblue" stroke="midnightblue" points="518.55,-396.52 527.37,-402.4 524.14,-392.3 518.55,-396.52"/>
</g>
<!-- Node20&#45;&gt;Node2 -->
<g id="edge30" class="edge">
<title>Node20&#45;&gt;Node2</title>
<path fill="none" stroke="midnightblue" d="M879.42,-261.79C828.19,-219.56 704.94,-122.83 587,-67 551.19,-50.05 508.44,-37.42 474.64,-29.04"/>
<polygon fill="midnightblue" stroke="midnightblue" points="877.36,-264.63 887.29,-268.31 881.83,-259.24 877.36,-264.63"/>
</g>
<!-- Node21&#45;&gt;Node5 -->
<g id="edge34" class="edge">
<title>Node21&#45;&gt;Node5</title>
<path fill="none" stroke="midnightblue" d="M672.63,-325.86C683.68,-294.65 697.34,-239.17 673,-201 637.07,-144.66 441.62,-107.46 341.78,-91.85"/>
<polygon fill="midnightblue" stroke="midnightblue" points="669.27,-324.87 669.05,-335.46 675.83,-327.32 669.27,-324.87"/>
</g>
<!-- Node21&#45;&gt;Node7 -->
<g id="edge37" class="edge">
<title>Node21&#45;&gt;Node7</title>
<path fill="none" stroke="midnightblue" d="M616.95,-331.68C590,-321.26 556.46,-308.28 531.38,-298.58"/>
<polygon fill="midnightblue" stroke="midnightblue" points="615.96,-335.05 626.55,-335.4 618.48,-328.52 615.96,-335.05"/>
</g>
<!-- Node21&#45;&gt;Node8 -->
<g id="edge35" class="edge">
<title>Node21&#45;&gt;Node8</title>
<path fill="none" stroke="midnightblue" d="M642,-328.11C622.76,-309.68 592.7,-283.65 562,-268 521.55,-247.38 471.76,-234.47 433.73,-226.86"/>
<polygon fill="midnightblue" stroke="midnightblue" points="639.7,-330.77 649.3,-335.25 644.59,-325.76 639.7,-330.77"/>
</g>
<!-- Node21&#45;&gt;Node10 -->
<g id="edge36" class="edge">
<title>Node21&#45;&gt;Node10</title>
<path fill="none" stroke="midnightblue" d="M664.85,-325.14C667.13,-287.94 669.06,-219.36 654,-201 637.11,-180.42 570.68,-166.28 520.65,-158.31"/>
<polygon fill="midnightblue" stroke="midnightblue" points="661.35,-324.95 664.18,-335.16 668.34,-325.41 661.35,-324.95"/>
</g>
<!-- Node21&#45;&gt;Node20 -->
<g id="edge32" class="edge">
<title>Node21&#45;&gt;Node20</title>
<path fill="none" stroke="midnightblue" d="M724.73,-332.85C764.03,-322.25 814.36,-308.68 851.68,-298.61"/>
<polygon fill="midnightblue" stroke="midnightblue" points="723.74,-329.49 715,-335.48 725.56,-336.25 723.74,-329.49"/>
</g>
<!-- Node22 -->
<g id="node22" class="node">
<title>Node22</title>
<g id="a_node22"><a xlink:href="devices_8cpp.html" target="_top" xlink:title="Devices and manager for all known devices the base station connects to.">
<polygon fill="white" stroke="black" points="710.5,-268.5 710.5,-298.5 827.5,-298.5 827.5,-268.5 710.5,-268.5"/>
<text text-anchor="start" x="718.5" y="-286.5" font-family="Helvetica,sans-Serif" font-size="10.00">BaseStationCode/src</text>
<text text-anchor="middle" x="769" y="-275.5" font-family="Helvetica,sans-Serif" font-size="10.00">/src/devices.cpp</text>
</a>
</g>
</g>
<!-- Node21&#45;&gt;Node22 -->
<g id="edge33" class="edge">
<title>Node21&#45;&gt;Node22</title>
<path fill="none" stroke="midnightblue" d="M694.78,-330.02C711.27,-319.9 731.05,-307.77 746.04,-298.58"/>
<polygon fill="midnightblue" stroke="midnightblue" points="692.7,-327.18 686,-335.4 696.35,-333.15 692.7,-327.18"/>
</g>
<!-- Node24&#45;&gt;Node8 -->
<g id="edge46" class="edge">
<title>Node24&#45;&gt;Node8</title>
<path fill="none" stroke="midnightblue" d="M444.12,-459.41C428.6,-405.12 391.32,-274.61 379.01,-231.55"/>
<polygon fill="midnightblue" stroke="midnightblue" points="440.8,-460.54 446.91,-469.2 447.53,-458.62 440.8,-460.54"/>
</g>
<!-- Node24&#45;&gt;Node19 -->
<g id="edge45" class="edge">
<title>Node24&#45;&gt;Node19</title>
<path fill="none" stroke="midnightblue" d="M478.21,-463.17C491.52,-453.23 507.2,-441.51 519.16,-432.58"/>
<polygon fill="midnightblue" stroke="midnightblue" points="475.79,-460.61 469.88,-469.4 479.98,-466.21 475.79,-460.61"/>
</g>
<!-- Node24&#45;&gt;Node21 -->
<g id="edge44" class="edge">
<title>Node24&#45;&gt;Node21</title>
<path fill="none" stroke="midnightblue" d="M450.33,-459.25C451.17,-441.16 455.33,-417.07 470,-402 488.6,-382.89 554.67,-368.5 604.36,-360.06"/>
<polygon fill="midnightblue" stroke="midnightblue" points="446.83,-459.29 450.17,-469.35 453.83,-459.4 446.83,-459.29"/>
</g>
</g>
</svg>
        <g id="navigator" transform="translate(0 0)" fill="#404254">
                <rect fill="#f2f5e9" fill-opacity="0.5" stroke="#606060" stroke-width=".5" x="0" y="0" width="60" height="60"/>
                <use id="zoomplus" xlink:href="#zoomPlus" x="17" y="9" onmousedown="handleZoom(evt,'in')"/>
                <use id="zoomminus" xlink:href="#zoomMin" x="42" y="9" onmousedown="handleZoom(evt,'out')"/>
                <use id="reset" xlink:href="#resetDef" x="30" y="36" onmousedown="handleReset()"/>
                <g id="arrowUp" xlink:href="#dirArrow" transform="translate(30 24)" onmousedown="handlePan(0,-1)">
                  <use xlink:href="#rim" fill="#404040">
                        <set attributeName="fill" to="#808080" begin="arrowUp.mouseover" end="arrowUp.mouseout"/>
                  </use>
                  <path fill="none" stroke="white" stroke-width="1.5" d="M0,-3.0v7 M-2.5,-0.5L0,-3.0L2.5,-0.5"/>
                </g>
                <g id="arrowRight" xlink:href="#dirArrow" transform="rotate(90) translate(36 -43)" onmousedown="handlePan(1,0)">
                  <use xlink:href="#rim" fill="#404040">
                        <set attributeName="fill" to="#808080" begin="arrowRight.mouseover" end="arrowRight.mouseout"/>
                  </use>
                  <path fill="none" stroke="white" stroke-width="1.5" d="M0,-3.0v7 M-2.5,-0.5L0,-3.0L2.5,-0.5"/>
                </g>
                <g id="arrowDown" xlink:href="#dirArrow" transform="rotate(180) translate(-30 -48)" onmousedown="handlePan(0,1)">
                  <use xlink:href="#rim" fill="#404040">
                        <set attributeName="fill" to="#808080" begin="arrowDown.mouseover" end="arrowDown.mouseout"/>
                  </use>
                  <path fill="none" stroke="white" stroke-width="1.5" d="M0,-3.0v7 M-2.5,-0.5L0,-3.0L2.5,-0.5"/>
                </g>
                <g id="arrowLeft" xlink:href="#dirArrow" transform="rotate(270) translate(-36 17)" onmousedown="handlePan(-1,0)">
                  <use xlink:href="#rim" fill="#404040">
                        <set attributeName="fill" to="#808080" begin="arrowLeft.mouseover" end="arrowLeft.mouseout"/>
                  </use>
                  <path fill="none" stroke="white" stroke-width="1.5" d="M0,-3.0v7 M-2.5,-0.5L0,-3.0L2.5,-0.5"/>
                </g>
        </g>
        <svg viewBox="0 0 15 15" width="100%" height="30px" preserveAspectRatio="xMaxYMin meet">
         <g id="arrow_out" transform="scale(0.3 0.3)">
          <a xlink:href="defines_8h__dep__incl_org.svg" target="_base">
           <rect id="button" ry="5" rx="5" y="6" x="6" height="38" width="38"
                fill="#f2f5e9" fill-opacity="0.5" stroke="#606060" stroke-width="1.0"/>
           <path id="arrow"
             d="M 11.500037,31.436501 C 11.940474,20.09759 22.043105,11.32322 32.158766,21.979434 L 37.068811,17.246167 C 37.068811,17.246167 37.088388,32 37.088388,32 L 22.160133,31.978069 C 22.160133,31.978069 26.997745,27.140456 26.997745,27.140456 C 18.528582,18.264221 13.291696,25.230495 11.500037,31.436501 z"
             style="fill:#404040;"/>
          </a>
         </g>
        </svg>
</svg>
