<?xml version="1.0" encoding="UTF-8" standalone="no"?>
<!DOCTYPE svg PUBLIC "-//W3C//DTD SVG 1.1//EN"
 "http://www.w3.org/Graphics/SVG/1.1/DTD/svg11.dtd">
<!-- Generated by graphviz version 2.43.0 (0)
 -->
<!-- Title: ESP32BaseStation/defines.h Pages: 1 -->
<!--zoomable 564 -->
<svg id="main" version="1.1" xmlns="http://www.w3.org/2000/svg" xmlns:xlink="http://www.w3.org/1999/xlink" xml:space="preserve" onload="init(evt)">
<style type="text/css"><![CDATA[
.edge:hover path { stroke: red; }
.edge:hover polygon { stroke: red; fill: red; }
]]></style>
<script type="text/javascript"><![CDATA[
var edges = document.getElementsByTagName('g');
if (edges && edges.length) {
  for (var i=0;i<edges.length;i++) {
    if (edges[i].id.substr(0,4)=='edge') {
      edges[i].setAttribute('class','edge');
    }
  }
}
]]></script>
        <defs>
                <circle id="rim" cx="0" cy="0" r="7"/>
                <circle id="rim2" cx="0" cy="0" r="3.5"/>
                <g id="zoomPlus">
                        <use xlink:href="#rim" fill="#404040">
                                <set attributeName="fill" to="#808080" begin="zoomplus.mouseover" end="zoomplus.mouseout"/>
                        </use>
                        <path d="M-4,0h8M0,-4v8" fill="none" stroke="white" stroke-width="1.5" pointer-events="none"/>
                </g>
                <g id="zoomMin">
                        <use xlink:href="#rim" fill="#404040">
                                <set attributeName="fill" to="#808080" begin="zoomminus.mouseover" end="zoomminus.mouseout"/>
                        </use>
                        <path d="M-4,0h8" fill="none" stroke="white" stroke-width="1.5" pointer-events="none"/>
                </g>
                <g id="dirArrow">
                        <path fill="none" stroke="white" stroke-width="1.5" d="M0,-3.0v7 M-2.5,-0.5L0,-3.0L2.5,-0.5"/>
                </g>
               <g id="resetDef">
                       <use xlink:href="#rim2" fill="#404040">
                               <set attributeName="fill" to="#808080" begin="reset.mouseover" end="reset.mouseout"/>
                       </use>
               </g>
        </defs>

<script type="text/javascript">
var viewWidth = 1131;
var viewHeight = 564;
var sectionId = 'dynsection-1';
</script>
<script xlink:href="svgpan.js"/>
<svg id="graph" class="graph">
<g id="viewport">
<title>ESP32BaseStation/defines.h</title>
<polygon fill="white" stroke="transparent" points="-4,4 -4,-560 1127,-560 1127,4 -4,4"/>
<!-- Node1 -->
<g id="node1" class="node">
<title>Node1</title>
<g id="a_node1"><a xlink:title="Definitions and other preprocessor and global stuff.">
<polygon fill="#bfbfbf" stroke="black" points="476,-536.5 476,-555.5 628,-555.5 628,-536.5 476,-536.5"/>
<text text-anchor="middle" x="552" y="-543.5" font-family="Helvetica,sans-Serif" font-size="10.00">ESP32BaseStation/defines.h</text>
</a>
</g>
</g>
<!-- Node2 -->
<g id="node2" class="node">
<title>Node2</title>
<g id="a_node2"><a xlink:href="_e_s_p32_base_station_8ino.html" target="_top" xlink:title="Main file for a base station to connect to remote sensors on a farm.">
<polygon fill="white" stroke="black" points="474,-0.5 474,-30.5 636,-30.5 636,-0.5 474,-0.5"/>
<text text-anchor="start" x="482" y="-18.5" font-family="Helvetica,sans-Serif" font-size="10.00">ESP32BaseStation/ESP32Base</text>
<text text-anchor="middle" x="555" y="-7.5" font-family="Helvetica,sans-Serif" font-size="10.00">Station.ino</text>
</a>
</g>
</g>
<!-- Node1&#45;&gt;Node2 -->
<g id="edge1" class="edge">
<title>Node1&#45;&gt;Node2</title>
<path fill="none" stroke="midnightblue" d="M638.26,-543.65C757.86,-540.64 967.11,-530.99 1036,-500 1084.32,-478.26 1123,-471.48 1123,-418.5 1123,-418.5 1123,-418.5 1123,-148.5 1123,-49.73 793.01,-24.84 636.08,-18.59"/>
<polygon fill="midnightblue" stroke="midnightblue" points="637.95,-540.15 628.04,-543.89 638.12,-547.15 637.95,-540.15"/>
</g>
<!-- Node3 -->
<g id="node3" class="node">
<title>Node3</title>
<g id="a_node3"><a xlink:href="alarm_8h.html" target="_top" xlink:title="Handles alarms.">
<polygon fill="white" stroke="black" points="228,-335.5 228,-365.5 350,-365.5 350,-335.5 228,-335.5"/>
<text text-anchor="start" x="236" y="-353.5" font-family="Helvetica,sans-Serif" font-size="10.00">ESP32BaseStation/src</text>
<text text-anchor="middle" x="289" y="-342.5" font-family="Helvetica,sans-Serif" font-size="10.00">/alarm.h</text>
</a>
</g>
</g>
<!-- Node1&#45;&gt;Node3 -->
<g id="edge2" class="edge">
<title>Node1&#45;&gt;Node3</title>
<path fill="none" stroke="midnightblue" d="M483.44,-534.21C456.05,-527.54 425.31,-516.89 401,-500 348.75,-463.71 310.59,-395.33 295.78,-365.74"/>
<polygon fill="midnightblue" stroke="midnightblue" points="482.83,-537.66 493.36,-536.49 484.4,-530.84 482.83,-537.66"/>
</g>
<!-- Node5 -->
<g id="node5" class="node">
<title>Node5</title>
<g id="a_node5"><a xlink:href="audio_8h.html" target="_top" xlink:title="Plays audio.">
<polygon fill="white" stroke="black" points="282,-268.5 282,-298.5 404,-298.5 404,-268.5 282,-268.5"/>
<text text-anchor="start" x="290" y="-286.5" font-family="Helvetica,sans-Serif" font-size="10.00">ESP32BaseStation/src</text>
<text text-anchor="middle" x="343" y="-275.5" font-family="Helvetica,sans-Serif" font-size="10.00">/audio.h</text>
</a>
</g>
</g>
<!-- Node1&#45;&gt;Node5 -->
<g id="edge26" class="edge">
<title>Node1&#45;&gt;Node5</title>
<path fill="none" stroke="midnightblue" d="M512.25,-533.02C493.45,-525.81 471.75,-515.06 456,-500 423.64,-469.05 367.38,-341.57 349,-298.67"/>
<polygon fill="midnightblue" stroke="midnightblue" points="511.17,-536.35 521.76,-536.47 513.55,-529.77 511.17,-536.35"/>
</g>
<!-- Node7 -->
<g id="node7" class="node">
<title>Node7</title>
<g id="a_node7"><a xlink:href="leds_8h.html" target="_top" xlink:title="Controls the LEDs on the unit.">
<polygon fill="white" stroke="black" points="244,-67.5 244,-97.5 366,-97.5 366,-67.5 244,-67.5"/>
<text text-anchor="start" x="252" y="-85.5" font-family="Helvetica,sans-Serif" font-size="10.00">ESP32BaseStation/src</text>
<text text-anchor="middle" x="305" y="-74.5" font-family="Helvetica,sans-Serif" font-size="10.00">/leds.h</text>
</a>
</g>
</g>
<!-- Node1&#45;&gt;Node7 -->
<g id="edge43" class="edge">
<title>Node1&#45;&gt;Node7</title>
<path fill="none" stroke="midnightblue" d="M465.58,-541.43C319.14,-533 38,-505.5 38,-418.5 38,-418.5 38,-418.5 38,-215.5 38,-167.86 176.31,-120.42 253.84,-97.57"/>
<polygon fill="midnightblue" stroke="midnightblue" points="465.7,-544.94 475.88,-542.01 466.09,-537.95 465.7,-544.94"/>
</g>
<!-- Node9 -->
<g id="node9" class="node">
<title>Node9</title>
<g id="a_node9"><a xlink:href="rpc_8h.html" target="_top" xlink:title="Handles RPC calls.">
<polygon fill="white" stroke="black" points="517,-268.5 517,-298.5 639,-298.5 639,-268.5 517,-268.5"/>
<text text-anchor="start" x="525" y="-286.5" font-family="Helvetica,sans-Serif" font-size="10.00">ESP32BaseStation/src</text>
<text text-anchor="middle" x="578" y="-275.5" font-family="Helvetica,sans-Serif" font-size="10.00">/rpc.h</text>
</a>
</g>
</g>
<!-- Node1&#45;&gt;Node9 -->
<g id="edge51" class="edge">
<title>Node1&#45;&gt;Node9</title>
<path fill="none" stroke="midnightblue" d="M539.76,-527.83C534.75,-519.79 529.55,-509.82 527,-500 516.07,-457.84 518.14,-444.65 527,-402 535.18,-362.59 557.29,-320.17 569.54,-298.7"/>
<polygon fill="midnightblue" stroke="midnightblue" points="536.92,-529.89 545.37,-536.27 542.75,-526.01 536.92,-529.89"/>
</g>
<!-- Node10 -->
<g id="node10" class="node">
<title>Node10</title>
<g id="a_node10"><a xlink:href="lora_8h.html" target="_top" xlink:title="File that handles the LoRa radio and PJON.">
<polygon fill="white" stroke="black" points="752,-201.5 752,-231.5 874,-231.5 874,-201.5 752,-201.5"/>
<text text-anchor="start" x="760" y="-219.5" font-family="Helvetica,sans-Serif" font-size="10.00">ESP32BaseStation/src</text>
<text text-anchor="middle" x="813" y="-208.5" font-family="Helvetica,sans-Serif" font-size="10.00">/lora.h</text>
</a>
</g>
</g>
<!-- Node1&#45;&gt;Node10 -->
<g id="edge48" class="edge">
<title>Node1&#45;&gt;Node10</title>
<path fill="none" stroke="midnightblue" d="M638.33,-541.86C746.29,-536.93 924.31,-525.21 985,-500 1037.95,-478.01 1085,-475.84 1085,-418.5 1085,-418.5 1085,-418.5 1085,-349.5 1085,-309.72 1078.98,-292.96 1048,-268 1021.68,-246.79 934.56,-232.2 874.14,-224.35"/>
<polygon fill="midnightblue" stroke="midnightblue" points="637.94,-538.37 628.11,-542.32 638.25,-545.37 637.94,-538.37"/>
</g>
<!-- Node12 -->
<g id="node12" class="node">
<title>Node12</title>
<g id="a_node12"><a xlink:href="networking_8h.html" target="_top" xlink:title="Header file for networking.cpp.">
<polygon fill="white" stroke="black" points="583,-134.5 583,-164.5 705,-164.5 705,-134.5 583,-134.5"/>
<text text-anchor="start" x="591" y="-152.5" font-family="Helvetica,sans-Serif" font-size="10.00">ESP32BaseStation/src</text>
<text text-anchor="middle" x="644" y="-141.5" font-family="Helvetica,sans-Serif" font-size="10.00">/networking.h</text>
</a>
</g>
</g>
<!-- Node1&#45;&gt;Node12 -->
<g id="edge49" class="edge">
<title>Node1&#45;&gt;Node12</title>
<path fill="none" stroke="midnightblue" d="M533.44,-529.57C509.25,-507.62 470,-464.86 470,-418.5 470,-418.5 470,-418.5 470,-282.5 470,-240.46 486.12,-228.4 518,-201 537.66,-184.11 563.69,-172.41 586.98,-164.56"/>
<polygon fill="midnightblue" stroke="midnightblue" points="531.45,-532.48 541.28,-536.44 536.07,-527.22 531.45,-532.48"/>
</g>
<!-- Node14 -->
<g id="node14" class="node">
<title>Node14</title>
<g id="a_node14"><a xlink:href="ota_8h.html" target="_top" xlink:title="Handles over the air (OTA) updates.">
<polygon fill="white" stroke="black" points="104,-67.5 104,-97.5 226,-97.5 226,-67.5 104,-67.5"/>
<text text-anchor="start" x="112" y="-85.5" font-family="Helvetica,sans-Serif" font-size="10.00">ESP32BaseStation/src</text>
<text text-anchor="middle" x="165" y="-74.5" font-family="Helvetica,sans-Serif" font-size="10.00">/ota.h</text>
</a>
</g>
</g>
<!-- Node1&#45;&gt;Node14 -->
<g id="edge50" class="edge">
<title>Node1&#45;&gt;Node14</title>
<path fill="none" stroke="midnightblue" d="M465.85,-543.96C348.2,-541.33 144.33,-532.12 78,-500 32.88,-478.15 0,-468.64 0,-418.5 0,-418.5 0,-418.5 0,-215.5 0,-153.69 71.48,-116.06 120.35,-97.56"/>
<polygon fill="midnightblue" stroke="midnightblue" points="465.83,-547.46 475.91,-544.17 465.98,-540.46 465.83,-547.46"/>
</g>
<!-- Node17 -->
<g id="node17" class="node">
<title>Node17</title>
<g id="a_node17"><a xlink:href="conversions_8h.html" target="_top" xlink:title="General functions for converting to and from char arrays.">
<polygon fill="white" stroke="black" points="536,-469.5 536,-499.5 658,-499.5 658,-469.5 536,-469.5"/>
<text text-anchor="start" x="544" y="-487.5" font-family="Helvetica,sans-Serif" font-size="10.00">ESP32BaseStation/src</text>
<text text-anchor="middle" x="597" y="-476.5" font-family="Helvetica,sans-Serif" font-size="10.00">/conversions.h</text>
</a>
</g>
</g>
<!-- Node1&#45;&gt;Node17 -->
<g id="edge27" class="edge">
<title>Node1&#45;&gt;Node17</title>
<path fill="none" stroke="midnightblue" d="M564.67,-528.25C571.52,-519.19 579.89,-508.12 586.39,-499.52"/>
<polygon fill="midnightblue" stroke="midnightblue" points="561.69,-526.39 558.45,-536.48 567.27,-530.61 561.69,-526.39"/>
</g>
<!-- Node19 -->
<g id="node19" class="node">
<title>Node19</title>
<g id="a_node19"><a xlink:href="fields_8h.html" target="_top" xlink:title="Contains fields classes.">
<polygon fill="white" stroke="black" points="676,-402.5 676,-432.5 798,-432.5 798,-402.5 676,-402.5"/>
<text text-anchor="start" x="684" y="-420.5" font-family="Helvetica,sans-Serif" font-size="10.00">ESP32BaseStation/src</text>
<text text-anchor="middle" x="737" y="-409.5" font-family="Helvetica,sans-Serif" font-size="10.00">/fields.h</text>
</a>
</g>
</g>
<!-- Node1&#45;&gt;Node19 -->
<g id="edge42" class="edge">
<title>Node1&#45;&gt;Node19</title>
<path fill="none" stroke="midnightblue" d="M595.79,-533.43C618.38,-526.13 645.6,-515.18 667,-500 693.32,-481.33 716.03,-450.67 728,-432.76"/>
<polygon fill="midnightblue" stroke="midnightblue" points="594.62,-530.13 586.1,-536.43 596.69,-536.81 594.62,-530.13"/>
</g>
<!-- Node21 -->
<g id="node21" class="node">
<title>Node21</title>
<g id="a_node21"><a xlink:href="devices_8h.html" target="_top" xlink:title="Devices and manager for all known devices the base station connects to.">
<polygon fill="white" stroke="black" points="743,-335.5 743,-365.5 865,-365.5 865,-335.5 743,-335.5"/>
<text text-anchor="start" x="751" y="-353.5" font-family="Helvetica,sans-Serif" font-size="10.00">ESP32BaseStation/src</text>
<text text-anchor="middle" x="804" y="-342.5" font-family="Helvetica,sans-Serif" font-size="10.00">/devices.h</text>
</a>
</g>
</g>
<!-- Node1&#45;&gt;Node21 -->
<g id="edge41" class="edge">
<title>Node1&#45;&gt;Node21</title>
<path fill="none" stroke="midnightblue" d="M635.26,-534.49C695.74,-521.82 772.73,-494 807,-433 818.86,-411.89 813.54,-382.62 808.69,-365.51"/>
<polygon fill="midnightblue" stroke="midnightblue" points="634.45,-531.08 625.33,-536.46 635.82,-537.94 634.45,-531.08"/>
</g>
<!-- Node24 -->
<g id="node24" class="node">
<title>Node24</title>
<g id="a_node24"><a xlink:href="lookups_8h.html" target="_top" xlink:title="Lookupable and lookupable manager base classes.">
<polygon fill="white" stroke="black" points="854,-469.5 854,-499.5 976,-499.5 976,-469.5 854,-469.5"/>
<text text-anchor="start" x="862" y="-487.5" font-family="Helvetica,sans-Serif" font-size="10.00">ESP32BaseStation/src</text>
<text text-anchor="middle" x="915" y="-476.5" font-family="Helvetica,sans-Serif" font-size="10.00">/lookups.h</text>
</a>
</g>
</g>
<!-- Node1&#45;&gt;Node24 -->
<g id="edge44" class="edge">
<title>Node1&#45;&gt;Node24</title>
<path fill="none" stroke="midnightblue" d="M620.79,-534.96C679.21,-526.27 765.23,-513.07 840,-500 844.44,-499.22 849.03,-498.4 853.64,-497.55"/>
<polygon fill="midnightblue" stroke="midnightblue" points="619.95,-531.55 610.57,-536.48 620.98,-538.47 619.95,-531.55"/>
</g>
<!-- Node3&#45;&gt;Node2 -->
<g id="edge3" class="edge">
<title>Node3&#45;&gt;Node2</title>
<path fill="none" stroke="midnightblue" d="M275.76,-326.35C255.98,-290.38 222.34,-222.91 235,-201 267.28,-145.13 446.57,-63.08 521.78,-30.54"/>
<polygon fill="midnightblue" stroke="midnightblue" points="272.76,-328.16 280.68,-335.19 278.87,-324.75 272.76,-328.16"/>
</g>
<!-- Node4 -->
<g id="node4" class="node">
<title>Node4</title>
<g id="a_node4"><a xlink:href="alarm_8cpp.html" target="_top" xlink:title="Handles alarms.">
<polygon fill="white" stroke="black" points="104,-268.5 104,-298.5 226,-298.5 226,-268.5 104,-268.5"/>
<text text-anchor="start" x="112" y="-286.5" font-family="Helvetica,sans-Serif" font-size="10.00">ESP32BaseStation/src</text>
<text text-anchor="middle" x="165" y="-275.5" font-family="Helvetica,sans-Serif" font-size="10.00">/alarm.cpp</text>
</a>
</g>
</g>
<!-- Node3&#45;&gt;Node4 -->
<g id="edge4" class="edge">
<title>Node3&#45;&gt;Node4</title>
<path fill="none" stroke="midnightblue" d="M253.16,-330.71C233.61,-320.46 209.8,-307.98 191.85,-298.58"/>
<polygon fill="midnightblue" stroke="midnightblue" points="251.61,-333.85 262.09,-335.4 254.86,-327.65 251.61,-333.85"/>
</g>
<!-- Node3&#45;&gt;Node5 -->
<g id="edge5" class="edge">
<title>Node3&#45;&gt;Node5</title>
<path fill="none" stroke="midnightblue" d="M307.32,-327.45C315.25,-317.9 324.3,-307 331.31,-298.58"/>
<polygon fill="midnightblue" stroke="midnightblue" points="304.42,-325.47 300.72,-335.4 309.8,-329.94 304.42,-325.47"/>
</g>
<!-- Node3&#45;&gt;Node7 -->
<g id="edge8" class="edge">
<title>Node3&#45;&gt;Node7</title>
<path fill="none" stroke="midnightblue" d="M217.67,-346.2C152.89,-339.82 70.87,-321.31 95,-268 132.82,-184.44 229.26,-123.7 277.15,-97.63"/>
<polygon fill="midnightblue" stroke="midnightblue" points="217.62,-349.71 227.9,-347.12 218.25,-342.74 217.62,-349.71"/>
</g>
<!-- Node3&#45;&gt;Node9 -->
<g id="edge11" class="edge">
<title>Node3&#45;&gt;Node9</title>
<path fill="none" stroke="midnightblue" d="M360.31,-333.46C408.34,-322.66 471.03,-308.56 516.8,-298.26"/>
<polygon fill="midnightblue" stroke="midnightblue" points="359.28,-330.11 350.29,-335.72 360.81,-336.94 359.28,-330.11"/>
</g>
<!-- Node5&#45;&gt;Node2 -->
<g id="edge6" class="edge">
<title>Node5&#45;&gt;Node2</title>
<path fill="none" stroke="midnightblue" d="M360.87,-260.08C403.3,-206.84 509.13,-74.06 543.8,-30.55"/>
<polygon fill="midnightblue" stroke="midnightblue" points="357.89,-258.2 354.4,-268.2 363.37,-262.56 357.89,-258.2"/>
</g>
<!-- Node6 -->
<g id="node6" class="node">
<title>Node6</title>
<g id="a_node6"><a xlink:href="audio_8cpp.html" target="_top" xlink:title="Plays audio.">
<polygon fill="white" stroke="black" points="244,-201.5 244,-231.5 366,-231.5 366,-201.5 244,-201.5"/>
<text text-anchor="start" x="252" y="-219.5" font-family="Helvetica,sans-Serif" font-size="10.00">ESP32BaseStation/src</text>
<text text-anchor="middle" x="305" y="-208.5" font-family="Helvetica,sans-Serif" font-size="10.00">/audio.cpp</text>
</a>
</g>
</g>
<!-- Node5&#45;&gt;Node6 -->
<g id="edge7" class="edge">
<title>Node5&#45;&gt;Node6</title>
<path fill="none" stroke="midnightblue" d="M329.6,-259.58C324.14,-250.24 318.01,-239.75 313.23,-231.58"/>
<polygon fill="midnightblue" stroke="midnightblue" points="326.69,-261.53 334.75,-268.4 332.73,-258 326.69,-261.53"/>
</g>
<!-- Node7&#45;&gt;Node2 -->
<g id="edge9" class="edge">
<title>Node7&#45;&gt;Node2</title>
<path fill="none" stroke="midnightblue" d="M368.78,-64.92C409.58,-54.31 461.93,-40.7 500.73,-30.61"/>
<polygon fill="midnightblue" stroke="midnightblue" points="367.74,-61.57 358.94,-67.48 369.5,-68.35 367.74,-61.57"/>
</g>
<!-- Node8 -->
<g id="node8" class="node">
<title>Node8</title>
<g id="a_node8"><a xlink:href="leds_8cpp.html" target="_top" xlink:title="Controls the LEDs on the unit.">
<polygon fill="white" stroke="black" points="244,-0.5 244,-30.5 366,-30.5 366,-0.5 244,-0.5"/>
<text text-anchor="start" x="252" y="-18.5" font-family="Helvetica,sans-Serif" font-size="10.00">ESP32BaseStation/src</text>
<text text-anchor="middle" x="305" y="-7.5" font-family="Helvetica,sans-Serif" font-size="10.00">/leds.cpp</text>
</a>
</g>
</g>
<!-- Node7&#45;&gt;Node8 -->
<g id="edge10" class="edge">
<title>Node7&#45;&gt;Node8</title>
<path fill="none" stroke="midnightblue" d="M305,-57.11C305,-48.15 305,-38.32 305,-30.58"/>
<polygon fill="midnightblue" stroke="midnightblue" points="301.5,-57.4 305,-67.4 308.5,-57.4 301.5,-57.4"/>
</g>
<!-- Node9&#45;&gt;Node2 -->
<g id="edge12" class="edge">
<title>Node9&#45;&gt;Node2</title>
<path fill="none" stroke="midnightblue" d="M631.48,-263.82C645.5,-256.21 658.93,-245.85 667,-232 673.93,-220.09 674.79,-212.37 667,-201 641.95,-164.44 601.33,-199.9 574,-165 542.59,-124.89 548.14,-59.15 552.47,-30.54"/>
<polygon fill="midnightblue" stroke="midnightblue" points="629.61,-260.84 622.23,-268.44 632.74,-267.1 629.61,-260.84"/>
</g>
<!-- Node9&#45;&gt;Node10 -->
<g id="edge13" class="edge">
<title>Node9&#45;&gt;Node10</title>
<path fill="none" stroke="midnightblue" d="M638.68,-265.71C676.93,-255.14 725.74,-241.63 761.98,-231.61"/>
<polygon fill="midnightblue" stroke="midnightblue" points="637.41,-262.44 628.7,-268.48 639.27,-269.18 637.41,-262.44"/>
</g>
<!-- Node16 -->
<g id="node16" class="node">
<title>Node16</title>
<g id="a_node16"><a xlink:href="rpc_8cpp.html" target="_top" xlink:title="Handles RPC calls.">
<polygon fill="white" stroke="black" points="536,-201.5 536,-231.5 658,-231.5 658,-201.5 536,-201.5"/>
<text text-anchor="start" x="544" y="-219.5" font-family="Helvetica,sans-Serif" font-size="10.00">ESP32BaseStation/src</text>
<text text-anchor="middle" x="597" y="-208.5" font-family="Helvetica,sans-Serif" font-size="10.00">/rpc.cpp</text>
</a>
</g>
</g>
<!-- Node9&#45;&gt;Node16 -->
<g id="edge25" class="edge">
<title>Node9&#45;&gt;Node16</title>
<path fill="none" stroke="midnightblue" d="M584.96,-258.7C587.62,-249.59 590.57,-239.49 592.89,-231.58"/>
<polygon fill="midnightblue" stroke="midnightblue" points="581.57,-257.82 582.12,-268.4 588.29,-259.78 581.57,-257.82"/>
</g>
<!-- Node10&#45;&gt;Node2 -->
<g id="edge14" class="edge">
<title>Node10&#45;&gt;Node2</title>
<path fill="none" stroke="midnightblue" d="M802.03,-192.15C798.12,-183.65 793.76,-173.93 790,-165 771.87,-121.95 786.94,-98.01 752,-67 720.44,-38.99 675.42,-26.13 636.38,-20.37"/>
<polygon fill="midnightblue" stroke="midnightblue" points="798.96,-193.85 806.34,-201.45 805.31,-190.9 798.96,-193.85"/>
</g>
<!-- Node11 -->
<g id="node11" class="node">
<title>Node11</title>
<g id="a_node11"><a xlink:href="lora_8cpp.html" target="_top" xlink:title="File that handles the LoRa radio and PJON.">
<polygon fill="white" stroke="black" points="799,-134.5 799,-164.5 921,-164.5 921,-134.5 799,-134.5"/>
<text text-anchor="start" x="807" y="-152.5" font-family="Helvetica,sans-Serif" font-size="10.00">ESP32BaseStation/src</text>
<text text-anchor="middle" x="860" y="-141.5" font-family="Helvetica,sans-Serif" font-size="10.00">/lora.cpp</text>
</a>
</g>
</g>
<!-- Node10&#45;&gt;Node11 -->
<g id="edge15" class="edge">
<title>Node10&#45;&gt;Node11</title>
<path fill="none" stroke="midnightblue" d="M829.16,-193.16C836.01,-183.68 843.79,-172.92 849.82,-164.58"/>
<polygon fill="midnightblue" stroke="midnightblue" points="826.22,-191.24 823.2,-201.4 831.89,-195.34 826.22,-191.24"/>
</g>
<!-- Node10&#45;&gt;Node12 -->
<g id="edge16" class="edge">
<title>Node10&#45;&gt;Node12</title>
<path fill="none" stroke="midnightblue" d="M760.95,-197.82C732.77,-187.37 698.98,-174.32 674.92,-164.58"/>
<polygon fill="midnightblue" stroke="midnightblue" points="760.06,-201.22 770.65,-201.4 762.48,-194.65 760.06,-201.22"/>
</g>
<!-- Node12&#45;&gt;Node2 -->
<g id="edge17" class="edge">
<title>Node12&#45;&gt;Node2</title>
<path fill="none" stroke="midnightblue" d="M628.72,-125.83C610.26,-98.47 579.8,-53.28 564.46,-30.52"/>
<polygon fill="midnightblue" stroke="midnightblue" points="625.98,-128.04 634.48,-134.37 631.79,-124.13 625.98,-128.04"/>
</g>
<!-- Node12&#45;&gt;Node7 -->
<g id="edge18" class="edge">
<title>Node12&#45;&gt;Node7</title>
<path fill="none" stroke="midnightblue" d="M572.64,-134.82C511.47,-123.09 424.27,-106.37 366.22,-95.24"/>
<polygon fill="midnightblue" stroke="midnightblue" points="572.13,-138.28 582.61,-136.73 573.45,-131.41 572.13,-138.28"/>
</g>
<!-- Node12&#45;&gt;Node9 -->
<g id="edge24" class="edge">
<title>Node12&#45;&gt;Node9</title>
<path fill="none" stroke="midnightblue" d="M573.39,-165.93C555.25,-173.43 537.82,-184.55 527,-201 511.69,-224.29 538.05,-251.88 558.24,-268.24"/>
<polygon fill="midnightblue" stroke="midnightblue" points="574.8,-169.14 582.92,-162.33 572.32,-162.59 574.8,-169.14"/>
</g>
<!-- Node12&#45;&gt;Node10 -->
<g id="edge19" class="edge">
<title>Node12&#45;&gt;Node10</title>
<path fill="none" stroke="midnightblue" d="M695.98,-168.15C724.14,-178.59 757.93,-191.64 782.01,-201.4"/>
<polygon fill="midnightblue" stroke="midnightblue" points="696.87,-164.75 686.27,-164.58 694.45,-171.32 696.87,-164.75"/>
</g>
<!-- Node13 -->
<g id="node13" class="node">
<title>Node13</title>
<g id="a_node13"><a xlink:href="networking_8cpp.html" target="_top" xlink:title="File that handles connecting to WiFi and MQTT and staying connected.">
<polygon fill="white" stroke="black" points="621,-67.5 621,-97.5 743,-97.5 743,-67.5 621,-67.5"/>
<text text-anchor="start" x="629" y="-85.5" font-family="Helvetica,sans-Serif" font-size="10.00">ESP32BaseStation/src</text>
<text text-anchor="middle" x="682" y="-74.5" font-family="Helvetica,sans-Serif" font-size="10.00">/networking.cpp</text>
</a>
</g>
</g>
<!-- Node12&#45;&gt;Node13 -->
<g id="edge20" class="edge">
<title>Node12&#45;&gt;Node13</title>
<path fill="none" stroke="midnightblue" d="M657.4,-125.58C662.86,-116.24 668.99,-105.75 673.77,-97.58"/>
<polygon fill="midnightblue" stroke="midnightblue" points="654.27,-124 652.25,-134.4 660.31,-127.53 654.27,-124"/>
</g>
<!-- Node12&#45;&gt;Node14 -->
<g id="edge21" class="edge">
<title>Node12&#45;&gt;Node14</title>
<path fill="none" stroke="midnightblue" d="M572.62,-141.47C490.79,-132.99 352.79,-117.44 235,-98 232.06,-97.52 229.06,-96.99 226.03,-96.45"/>
<polygon fill="midnightblue" stroke="midnightblue" points="572.49,-144.97 582.8,-142.51 573.21,-138.01 572.49,-144.97"/>
</g>
<!-- Node14&#45;&gt;Node2 -->
<g id="edge22" class="edge">
<title>Node14&#45;&gt;Node2</title>
<path fill="none" stroke="midnightblue" d="M236.08,-66.85C322.93,-51.15 411.54,-37.46 473.94,-28.2"/>
<polygon fill="midnightblue" stroke="midnightblue" points="235.26,-63.44 226.05,-68.68 236.51,-70.33 235.26,-63.44"/>
</g>
<!-- Node15 -->
<g id="node15" class="node">
<title>Node15</title>
<g id="a_node15"><a xlink:href="ota_8cpp.html" target="_top" xlink:title="Handles over the air (OTA) updates.">
<polygon fill="white" stroke="black" points="104,-0.5 104,-30.5 226,-30.5 226,-0.5 104,-0.5"/>
<text text-anchor="start" x="112" y="-18.5" font-family="Helvetica,sans-Serif" font-size="10.00">ESP32BaseStation/src</text>
<text text-anchor="middle" x="165" y="-7.5" font-family="Helvetica,sans-Serif" font-size="10.00">/ota.cpp</text>
</a>
</g>
</g>
<!-- Node14&#45;&gt;Node15 -->
<g id="edge23" class="edge">
<title>Node14&#45;&gt;Node15</title>
<path fill="none" stroke="midnightblue" d="M165,-57.11C165,-48.15 165,-38.32 165,-30.58"/>
<polygon fill="midnightblue" stroke="midnightblue" points="161.5,-57.4 165,-67.4 168.5,-57.4 161.5,-57.4"/>
</g>
<!-- Node18 -->
<g id="node18" class="node">
<title>Node18</title>
<g id="a_node18"><a xlink:href="conversions_8cpp.html" target="_top" xlink:title="General functions for converting to and from char arrays.">
<polygon fill="white" stroke="black" points="536,-402.5 536,-432.5 658,-432.5 658,-402.5 536,-402.5"/>
<text text-anchor="start" x="544" y="-420.5" font-family="Helvetica,sans-Serif" font-size="10.00">ESP32BaseStation/src</text>
<text text-anchor="middle" x="597" y="-409.5" font-family="Helvetica,sans-Serif" font-size="10.00">/conversions.cpp</text>
</a>
</g>
</g>
<!-- Node17&#45;&gt;Node18 -->
<g id="edge28" class="edge">
<title>Node17&#45;&gt;Node18</title>
<path fill="none" stroke="midnightblue" d="M597,-459.11C597,-450.15 597,-440.32 597,-432.58"/>
<polygon fill="midnightblue" stroke="midnightblue" points="593.5,-459.4 597,-469.4 600.5,-459.4 593.5,-459.4"/>
</g>
<!-- Node17&#45;&gt;Node19 -->
<g id="edge29" class="edge">
<title>Node17&#45;&gt;Node19</title>
<path fill="none" stroke="midnightblue" d="M636.57,-465.13C658.81,-454.8 686.15,-442.11 706.68,-432.58"/>
<polygon fill="midnightblue" stroke="midnightblue" points="634.97,-462.01 627.38,-469.4 637.92,-468.36 634.97,-462.01"/>
</g>
<!-- Node19&#45;&gt;Node9 -->
<g id="edge40" class="edge">
<title>Node19&#45;&gt;Node9</title>
<path fill="none" stroke="midnightblue" d="M669.73,-399.65C637.9,-390.35 604.57,-378.23 594,-366 577.69,-347.12 576.12,-316.54 576.81,-298.69"/>
<polygon fill="midnightblue" stroke="midnightblue" points="668.95,-403.06 679.53,-402.44 670.87,-396.33 668.95,-403.06"/>
</g>
<!-- Node20 -->
<g id="node20" class="node">
<title>Node20</title>
<g id="a_node20"><a xlink:href="device__list_8h.html" target="_top" xlink:title="List of all devices and fields known to the system.">
<polygon fill="white" stroke="black" points="879,-268.5 879,-298.5 1019,-298.5 1019,-268.5 879,-268.5"/>
<text text-anchor="start" x="887" y="-286.5" font-family="Helvetica,sans-Serif" font-size="10.00">ESP32BaseStation/device</text>
<text text-anchor="middle" x="949" y="-275.5" font-family="Helvetica,sans-Serif" font-size="10.00">_list.h</text>
</a>
</g>
</g>
<!-- Node19&#45;&gt;Node20 -->
<g id="edge30" class="edge">
<title>Node19&#45;&gt;Node20</title>
<path fill="none" stroke="midnightblue" d="M802.49,-399.37C826.2,-391.41 852.43,-380.44 874,-366 901.64,-347.49 926.17,-316.78 939.18,-298.81"/>
<polygon fill="midnightblue" stroke="midnightblue" points="801.28,-396.08 792.85,-402.49 803.44,-402.74 801.28,-396.08"/>
</g>
<!-- Node19&#45;&gt;Node21 -->
<g id="edge32" class="edge">
<title>Node19&#45;&gt;Node21</title>
<path fill="none" stroke="midnightblue" d="M758.84,-395.31C768.89,-385.56 780.54,-374.26 789.49,-365.58"/>
<polygon fill="midnightblue" stroke="midnightblue" points="756.28,-392.92 751.54,-402.4 761.15,-397.94 756.28,-392.92"/>
</g>
<!-- Node23 -->
<g id="node23" class="node">
<title>Node23</title>
<g id="a_node23"><a xlink:href="fields_8cpp.html" target="_top" xlink:title="Contains fields classes.">
<polygon fill="white" stroke="black" points="603,-335.5 603,-365.5 725,-365.5 725,-335.5 603,-335.5"/>
<text text-anchor="start" x="611" y="-353.5" font-family="Helvetica,sans-Serif" font-size="10.00">ESP32BaseStation/src</text>
<text text-anchor="middle" x="664" y="-342.5" font-family="Helvetica,sans-Serif" font-size="10.00">/fields.cpp</text>
</a>
</g>
</g>
<!-- Node19&#45;&gt;Node23 -->
<g id="edge39" class="edge">
<title>Node19&#45;&gt;Node23</title>
<path fill="none" stroke="midnightblue" d="M713.53,-395.6C702.5,-385.78 689.66,-374.34 679.81,-365.58"/>
<polygon fill="midnightblue" stroke="midnightblue" points="711.36,-398.36 721.16,-402.4 716.02,-393.13 711.36,-398.36"/>
</g>
<!-- Node20&#45;&gt;Node2 -->
<g id="edge31" class="edge">
<title>Node20&#45;&gt;Node2</title>
<path fill="none" stroke="midnightblue" d="M952.73,-257.92C956.16,-226.05 957.22,-170.26 930,-134 894.52,-86.73 735.31,-49.63 636.1,-30.58"/>
<polygon fill="midnightblue" stroke="midnightblue" points="949.22,-257.77 951.46,-268.13 956.17,-258.64 949.22,-257.77"/>
</g>
<!-- Node21&#45;&gt;Node7 -->
<g id="edge35" class="edge">
<title>Node21&#45;&gt;Node7</title>
<path fill="none" stroke="midnightblue" d="M732.94,-334.95C631.65,-318.47 595.09,-345.08 508,-299 413.05,-248.77 337.83,-136.92 313.41,-97.54"/>
<polygon fill="midnightblue" stroke="midnightblue" points="732.5,-338.42 742.95,-336.68 733.69,-331.53 732.5,-338.42"/>
</g>
<!-- Node21&#45;&gt;Node9 -->
<g id="edge38" class="edge">
<title>Node21&#45;&gt;Node9</title>
<path fill="none" stroke="midnightblue" d="M745.17,-332.58C708.46,-322.02 661.77,-308.59 627.06,-298.61"/>
<polygon fill="midnightblue" stroke="midnightblue" points="744.66,-336.08 755.24,-335.48 746.6,-329.35 744.66,-336.08"/>
</g>
<!-- Node21&#45;&gt;Node10 -->
<g id="edge36" class="edge">
<title>Node21&#45;&gt;Node10</title>
<path fill="none" stroke="midnightblue" d="M761.18,-330.19C748.86,-322.38 736.9,-312.06 730,-299 723.56,-286.82 723.25,-280.01 730,-268 739.34,-251.38 756.61,-239.6 772.98,-231.62"/>
<polygon fill="midnightblue" stroke="midnightblue" points="759.75,-333.41 770.15,-335.44 763.29,-327.37 759.75,-333.41"/>
</g>
<!-- Node21&#45;&gt;Node12 -->
<g id="edge37" class="edge">
<title>Node21&#45;&gt;Node12</title>
<path fill="none" stroke="midnightblue" d="M758.6,-330.64C744.63,-322.78 730.46,-312.31 721,-299 695.2,-262.69 722.29,-239.57 700,-201 691.55,-186.38 677.4,-173.67 665.43,-164.66"/>
<polygon fill="midnightblue" stroke="midnightblue" points="757.22,-333.87 767.69,-335.44 760.48,-327.68 757.22,-333.87"/>
</g>
<!-- Node21&#45;&gt;Node20 -->
<g id="edge33" class="edge">
<title>Node21&#45;&gt;Node20</title>
<path fill="none" stroke="midnightblue" d="M844.67,-331.27C867.76,-320.92 896.24,-308.15 917.6,-298.58"/>
<polygon fill="midnightblue" stroke="midnightblue" points="843.16,-328.11 835.46,-335.4 846.02,-334.5 843.16,-328.11"/>
</g>
<!-- Node22 -->
<g id="node22" class="node">
<title>Node22</title>
<g id="a_node22"><a xlink:href="devices_8cpp.html" target="_top" xlink:title="Devices and manager for all known devices the base station connects to.">
<polygon fill="white" stroke="black" points="739,-268.5 739,-298.5 861,-298.5 861,-268.5 739,-268.5"/>
<text text-anchor="start" x="747" y="-286.5" font-family="Helvetica,sans-Serif" font-size="10.00">ESP32BaseStation/src</text>
<text text-anchor="middle" x="800" y="-275.5" font-family="Helvetica,sans-Serif" font-size="10.00">/devices.cpp</text>
</a>
</g>
</g>
<!-- Node21&#45;&gt;Node22 -->
<g id="edge34" class="edge">
<title>Node21&#45;&gt;Node22</title>
<path fill="none" stroke="midnightblue" d="M802.52,-325.4C801.96,-316.37 801.35,-306.41 800.87,-298.58"/>
<polygon fill="midnightblue" stroke="midnightblue" points="799.02,-325.63 803.13,-335.4 806.01,-325.2 799.02,-325.63"/>
</g>
<!-- Node24&#45;&gt;Node10 -->
<g id="edge47" class="edge">
<title>Node24&#45;&gt;Node10</title>
<path fill="none" stroke="midnightblue" d="M940.78,-462.87C987.96,-422.67 1078.84,-332.17 1028,-268 1009.07,-244.11 930.72,-230.41 874.06,-223.47"/>
<polygon fill="midnightblue" stroke="midnightblue" points="938.49,-460.23 933.07,-469.33 942.99,-465.6 938.49,-460.23"/>
</g>
<!-- Node24&#45;&gt;Node19 -->
<g id="edge46" class="edge">
<title>Node24&#45;&gt;Node19</title>
<path fill="none" stroke="midnightblue" d="M866.95,-465.96C838.28,-455.48 802.36,-442.37 775.55,-432.58"/>
<polygon fill="midnightblue" stroke="midnightblue" points="865.78,-469.25 876.38,-469.4 868.18,-462.68 865.78,-469.25"/>
</g>
<!-- Node24&#45;&gt;Node21 -->
<g id="edge45" class="edge">
<title>Node24&#45;&gt;Node21</title>
<path fill="none" stroke="midnightblue" d="M896.54,-461.54C873.59,-434.25 835.1,-388.48 815.79,-365.52"/>
<polygon fill="midnightblue" stroke="midnightblue" points="894.01,-463.97 903.12,-469.37 899.36,-459.47 894.01,-463.97"/>
</g>
</g>
</svg>
        <g id="navigator" transform="translate(0 0)" fill="#404254">
                <rect fill="#f2f5e9" fill-opacity="0.5" stroke="#606060" stroke-width=".5" x="0" y="0" width="60" height="60"/>
                <use id="zoomplus" xlink:href="#zoomPlus" x="17" y="9" onmousedown="handleZoom(evt,'in')"/>
                <use id="zoomminus" xlink:href="#zoomMin" x="42" y="9" onmousedown="handleZoom(evt,'out')"/>
                <use id="reset" xlink:href="#resetDef" x="30" y="36" onmousedown="handleReset()"/>
                <g id="arrowUp" xlink:href="#dirArrow" transform="translate(30 24)" onmousedown="handlePan(0,-1)">
                  <use xlink:href="#rim" fill="#404040">
                        <set attributeName="fill" to="#808080" begin="arrowUp.mouseover" end="arrowUp.mouseout"/>
                  </use>
                  <path fill="none" stroke="white" stroke-width="1.5" d="M0,-3.0v7 M-2.5,-0.5L0,-3.0L2.5,-0.5"/>
                </g>
                <g id="arrowRight" xlink:href="#dirArrow" transform="rotate(90) translate(36 -43)" onmousedown="handlePan(1,0)">
                  <use xlink:href="#rim" fill="#404040">
                        <set attributeName="fill" to="#808080" begin="arrowRight.mouseover" end="arrowRight.mouseout"/>
                  </use>
                  <path fill="none" stroke="white" stroke-width="1.5" d="M0,-3.0v7 M-2.5,-0.5L0,-3.0L2.5,-0.5"/>
                </g>
                <g id="arrowDown" xlink:href="#dirArrow" transform="rotate(180) translate(-30 -48)" onmousedown="handlePan(0,1)">
                  <use xlink:href="#rim" fill="#404040">
                        <set attributeName="fill" to="#808080" begin="arrowDown.mouseover" end="arrowDown.mouseout"/>
                  </use>
                  <path fill="none" stroke="white" stroke-width="1.5" d="M0,-3.0v7 M-2.5,-0.5L0,-3.0L2.5,-0.5"/>
                </g>
                <g id="arrowLeft" xlink:href="#dirArrow" transform="rotate(270) translate(-36 17)" onmousedown="handlePan(-1,0)">
                  <use xlink:href="#rim" fill="#404040">
                        <set attributeName="fill" to="#808080" begin="arrowLeft.mouseover" end="arrowLeft.mouseout"/>
                  </use>
                  <path fill="none" stroke="white" stroke-width="1.5" d="M0,-3.0v7 M-2.5,-0.5L0,-3.0L2.5,-0.5"/>
                </g>
        </g>
        <svg viewBox="0 0 15 15" width="100%" height="30px" preserveAspectRatio="xMaxYMin meet">
         <g id="arrow_out" transform="scale(0.3 0.3)">
          <a xlink:href="defines_8h__dep__incl_org.svg" target="_base">
           <rect id="button" ry="5" rx="5" y="6" x="6" height="38" width="38"
                fill="#f2f5e9" fill-opacity="0.5" stroke="#606060" stroke-width="1.0"/>
           <path id="arrow"
             d="M 11.500037,31.436501 C 11.940474,20.09759 22.043105,11.32322 32.158766,21.979434 L 37.068811,17.246167 C 37.068811,17.246167 37.088388,32 37.088388,32 L 22.160133,31.978069 C 22.160133,31.978069 26.997745,27.140456 26.997745,27.140456 C 18.528582,18.264221 13.291696,25.230495 11.500037,31.436501 z"
             style="fill:#404040;"/>
          </a>
         </g>
        </svg>
</svg>
