<?xml version="1.0" encoding="UTF-8" standalone="no"?>
<!DOCTYPE svg PUBLIC "-//W3C//DTD SVG 1.1//EN"
 "http://www.w3.org/Graphics/SVG/1.1/DTD/svg11.dtd">
<!-- Generated by graphviz version 2.43.0 (0)
 -->
<!-- Title: BaseStationCode/src/defines.h Pages: 1 -->
<svg width="1091pt" height="575pt"
 viewBox="0.00 0.00 1091.00 575.00" xmlns="http://www.w3.org/2000/svg" xmlns:xlink="http://www.w3.org/1999/xlink">
<g id="graph0" class="graph" transform="scale(1 1) rotate(0) translate(4 571)">
<title>BaseStationCode/src/defines.h</title>
<polygon fill="white" stroke="transparent" points="-4,4 -4,-571 1087,-571 1087,4 -4,4"/>
<!-- Node1 -->
<g id="node1" class="node">
<title>Node1</title>
<g id="a_node1"><a xlink:title="Definitions and other preprocessor and global stuff.">
<polygon fill="#bfbfbf" stroke="black" points="484.5,-536.5 484.5,-566.5 601.5,-566.5 601.5,-536.5 484.5,-536.5"/>
<text text-anchor="start" x="492.5" y="-554.5" font-family="Helvetica,sans-Serif" font-size="10.00">BaseStationCode/src</text>
<text text-anchor="middle" x="543" y="-543.5" font-family="Helvetica,sans-Serif" font-size="10.00">/defines.h</text>
</a>
</g>
</g>
<!-- Node2 -->
<g id="node2" class="node">
<title>Node2</title>
<g id="a_node2"><a xlink:href="main_8cpp.html" target="_top" xlink:title=" ">
<polygon fill="white" stroke="black" points="475.5,-0.5 475.5,-30.5 592.5,-30.5 592.5,-0.5 475.5,-0.5"/>
<text text-anchor="start" x="483.5" y="-18.5" font-family="Helvetica,sans-Serif" font-size="10.00">BaseStationCode/src</text>
<text text-anchor="middle" x="534" y="-7.5" font-family="Helvetica,sans-Serif" font-size="10.00">/main.cpp</text>
</a>
</g>
</g>
<!-- Node1&#45;&gt;Node2 -->
<g id="edge1" class="edge">
<title>Node1&#45;&gt;Node2</title>
<path fill="none" stroke="midnightblue" d="M612.04,-548.77C723.77,-545.01 938.5,-533.54 1006,-500 1050.63,-477.82 1083,-468.33 1083,-418.5 1083,-418.5 1083,-418.5 1083,-148.5 1083,-48.51 734.38,-24.06 592.75,-18.25"/>
<polygon fill="midnightblue" stroke="midnightblue" points="611.77,-545.28 601.89,-549.1 612,-552.27 611.77,-545.28"/>
</g>
<!-- Node3 -->
<g id="node3" class="node">
<title>Node3</title>
<g id="a_node3"><a xlink:href="alarm_8h.html" target="_top" xlink:title="Handles alarms.">
<polygon fill="white" stroke="black" points="213.5,-335.5 213.5,-365.5 330.5,-365.5 330.5,-335.5 213.5,-335.5"/>
<text text-anchor="start" x="221.5" y="-353.5" font-family="Helvetica,sans-Serif" font-size="10.00">BaseStationCode/src</text>
<text text-anchor="middle" x="272" y="-342.5" font-family="Helvetica,sans-Serif" font-size="10.00">/src/alarm.h</text>
</a>
</g>
</g>
<!-- Node1&#45;&gt;Node3 -->
<g id="edge2" class="edge">
<title>Node1&#45;&gt;Node3</title>
<path fill="none" stroke="midnightblue" d="M474.34,-542.52C439.5,-535.73 398.08,-523.17 367,-500 318.66,-463.97 288.46,-395.45 277.11,-365.79"/>
<polygon fill="midnightblue" stroke="midnightblue" points="473.99,-546.01 484.45,-544.37 475.24,-539.13 473.99,-546.01"/>
</g>
<!-- Node5 -->
<g id="node5" class="node">
<title>Node5</title>
<g id="a_node5"><a xlink:href="audio_8h.html" target="_top" xlink:title="Plays audio.">
<polygon fill="white" stroke="black" points="278.5,-268.5 278.5,-298.5 395.5,-298.5 395.5,-268.5 278.5,-268.5"/>
<text text-anchor="start" x="286.5" y="-286.5" font-family="Helvetica,sans-Serif" font-size="10.00">BaseStationCode/src</text>
<text text-anchor="middle" x="337" y="-275.5" font-family="Helvetica,sans-Serif" font-size="10.00">/src/audio.h</text>
</a>
</g>
</g>
<!-- Node1&#45;&gt;Node5 -->
<g id="edge26" class="edge">
<title>Node1&#45;&gt;Node5</title>
<path fill="none" stroke="midnightblue" d="M494.93,-531.98C478.6,-523.97 461.16,-513.33 448,-500 386.95,-438.15 352.17,-335.86 341,-298.62"/>
<polygon fill="midnightblue" stroke="midnightblue" points="493.84,-535.33 504.38,-536.39 496.8,-528.99 493.84,-535.33"/>
</g>
<!-- Node7 -->
<g id="node7" class="node">
<title>Node7</title>
<g id="a_node7"><a xlink:href="leds_8h.html" target="_top" xlink:title="Controls the LEDs on the unit.">
<polygon fill="white" stroke="black" points="240.5,-67.5 240.5,-97.5 357.5,-97.5 357.5,-67.5 240.5,-67.5"/>
<text text-anchor="start" x="248.5" y="-85.5" font-family="Helvetica,sans-Serif" font-size="10.00">BaseStationCode/src</text>
<text text-anchor="middle" x="299" y="-74.5" font-family="Helvetica,sans-Serif" font-size="10.00">/src/leds.h</text>
</a>
</g>
</g>
<!-- Node1&#45;&gt;Node7 -->
<g id="edge43" class="edge">
<title>Node1&#45;&gt;Node7</title>
<path fill="none" stroke="midnightblue" d="M474.01,-546.86C335.78,-537.68 38,-507.57 38,-418.5 38,-418.5 38,-418.5 38,-215.5 38,-168.59 173.93,-120.64 249.6,-97.58"/>
<polygon fill="midnightblue" stroke="midnightblue" points="473.88,-550.36 484.08,-547.51 474.33,-543.38 473.88,-550.36"/>
</g>
<!-- Node9 -->
<g id="node9" class="node">
<title>Node9</title>
<g id="a_node9"><a xlink:href="rpc_8h.html" target="_top" xlink:title="Handles RPC calls.">
<polygon fill="white" stroke="black" points="509.5,-268.5 509.5,-298.5 626.5,-298.5 626.5,-268.5 509.5,-268.5"/>
<text text-anchor="start" x="517.5" y="-286.5" font-family="Helvetica,sans-Serif" font-size="10.00">BaseStationCode/src</text>
<text text-anchor="middle" x="568" y="-275.5" font-family="Helvetica,sans-Serif" font-size="10.00">/src/rpc.h</text>
</a>
</g>
</g>
<!-- Node1&#45;&gt;Node9 -->
<g id="edge51" class="edge">
<title>Node1&#45;&gt;Node9</title>
<path fill="none" stroke="midnightblue" d="M529.96,-527.38C525.94,-519.02 522.03,-509.34 520,-500 510.76,-457.44 511.61,-444.74 520,-402 527.69,-362.86 548.5,-320.33 560.03,-298.77"/>
<polygon fill="midnightblue" stroke="midnightblue" points="526.96,-529.19 534.64,-536.48 533.18,-525.99 526.96,-529.19"/>
</g>
<!-- Node10 -->
<g id="node10" class="node">
<title>Node10</title>
<g id="a_node10"><a xlink:href="lora_8h.html" target="_top" xlink:title="File that handles the LoRa radio and PJON.">
<polygon fill="white" stroke="black" points="740.5,-201.5 740.5,-231.5 857.5,-231.5 857.5,-201.5 740.5,-201.5"/>
<text text-anchor="start" x="748.5" y="-219.5" font-family="Helvetica,sans-Serif" font-size="10.00">BaseStationCode/src</text>
<text text-anchor="middle" x="799" y="-208.5" font-family="Helvetica,sans-Serif" font-size="10.00">/src/lora.h</text>
</a>
</g>
</g>
<!-- Node1&#45;&gt;Node10 -->
<g id="edge48" class="edge">
<title>Node1&#45;&gt;Node10</title>
<path fill="none" stroke="midnightblue" d="M611.56,-547.72C714.53,-542.64 903.49,-529.52 964,-500 1009.9,-477.61 1045,-469.57 1045,-418.5 1045,-418.5 1045,-418.5 1045,-349.5 1045,-309.72 1038.66,-293.35 1008,-268 965.85,-233.15 903.5,-221.65 857.87,-218.19"/>
<polygon fill="midnightblue" stroke="midnightblue" points="611.39,-544.22 601.57,-548.2 611.73,-551.22 611.39,-544.22"/>
</g>
<!-- Node12 -->
<g id="node12" class="node">
<title>Node12</title>
<g id="a_node12"><a xlink:href="networking_8h.html" target="_top" xlink:title="Header file for networking.cpp.">
<polygon fill="white" stroke="black" points="562.5,-134.5 562.5,-164.5 679.5,-164.5 679.5,-134.5 562.5,-134.5"/>
<text text-anchor="start" x="570.5" y="-152.5" font-family="Helvetica,sans-Serif" font-size="10.00">BaseStationCode/src</text>
<text text-anchor="middle" x="621" y="-141.5" font-family="Helvetica,sans-Serif" font-size="10.00">/src/networking.h</text>
</a>
</g>
</g>
<!-- Node1&#45;&gt;Node12 -->
<g id="edge49" class="edge">
<title>Node1&#45;&gt;Node12</title>
<path fill="none" stroke="midnightblue" d="M519.63,-529.19C495.7,-504.94 462,-462.9 462,-418.5 462,-418.5 462,-418.5 462,-282.5 462,-240.24 479.5,-229.18 511,-201 529.24,-184.68 553.66,-172.75 574.86,-164.6"/>
<polygon fill="midnightblue" stroke="midnightblue" points="517.41,-531.92 527,-536.42 522.31,-526.92 517.41,-531.92"/>
</g>
<!-- Node14 -->
<g id="node14" class="node">
<title>Node14</title>
<g id="a_node14"><a xlink:href="ota_8h.html" target="_top" xlink:title="Handles over the air (OTA) updates.">
<polygon fill="white" stroke="black" points="105.5,-67.5 105.5,-97.5 222.5,-97.5 222.5,-67.5 105.5,-67.5"/>
<text text-anchor="start" x="113.5" y="-85.5" font-family="Helvetica,sans-Serif" font-size="10.00">BaseStationCode/src</text>
<text text-anchor="middle" x="164" y="-74.5" font-family="Helvetica,sans-Serif" font-size="10.00">/src/ota.h</text>
</a>
</g>
</g>
<!-- Node1&#45;&gt;Node14 -->
<g id="edge50" class="edge">
<title>Node1&#45;&gt;Node14</title>
<path fill="none" stroke="midnightblue" d="M474.12,-548.76C362.07,-544.99 145.99,-533.5 78,-500 33.02,-477.84 0,-468.64 0,-418.5 0,-418.5 0,-418.5 0,-215.5 0,-153.91 71.05,-116.21 119.62,-97.64"/>
<polygon fill="midnightblue" stroke="midnightblue" points="474.2,-552.27 484.3,-549.1 474.42,-545.27 474.2,-552.27"/>
</g>
<!-- Node17 -->
<g id="node17" class="node">
<title>Node17</title>
<g id="a_node17"><a xlink:href="conversions_8h.html" target="_top" xlink:title="General functions for converting to and from char arrays.">
<polygon fill="white" stroke="black" points="528.5,-469.5 528.5,-499.5 645.5,-499.5 645.5,-469.5 528.5,-469.5"/>
<text text-anchor="start" x="536.5" y="-487.5" font-family="Helvetica,sans-Serif" font-size="10.00">BaseStationCode/src</text>
<text text-anchor="middle" x="587" y="-476.5" font-family="Helvetica,sans-Serif" font-size="10.00">/src/conversions.h</text>
</a>
</g>
</g>
<!-- Node1&#45;&gt;Node17 -->
<g id="edge27" class="edge">
<title>Node1&#45;&gt;Node17</title>
<path fill="none" stroke="midnightblue" d="M558.32,-527.87C564.69,-518.46 571.88,-507.83 577.47,-499.58"/>
<polygon fill="midnightblue" stroke="midnightblue" points="555.25,-526.15 552.55,-536.4 561.05,-530.08 555.25,-526.15"/>
</g>
<!-- Node19 -->
<g id="node19" class="node">
<title>Node19</title>
<g id="a_node19"><a xlink:href="fields_8h.html" target="_top" xlink:title="Contains fields classes.">
<polygon fill="white" stroke="black" points="663.5,-402.5 663.5,-432.5 780.5,-432.5 780.5,-402.5 663.5,-402.5"/>
<text text-anchor="start" x="671.5" y="-420.5" font-family="Helvetica,sans-Serif" font-size="10.00">BaseStationCode/src</text>
<text text-anchor="middle" x="722" y="-409.5" font-family="Helvetica,sans-Serif" font-size="10.00">/src/fields.h</text>
</a>
</g>
</g>
<!-- Node1&#45;&gt;Node19 -->
<g id="edge42" class="edge">
<title>Node1&#45;&gt;Node19</title>
<path fill="none" stroke="midnightblue" d="M595.46,-532.69C615.24,-524.52 637.24,-513.59 655,-500 680.17,-480.74 701.92,-450.29 713.37,-432.57"/>
<polygon fill="midnightblue" stroke="midnightblue" points="593.94,-529.52 585.95,-536.47 596.53,-536.02 593.94,-529.52"/>
</g>
<!-- Node21 -->
<g id="node21" class="node">
<title>Node21</title>
<g id="a_node21"><a xlink:href="devices_8h.html" target="_top" xlink:title="Devices and manager for all known devices the base station connects to.">
<polygon fill="white" stroke="black" points="729.5,-335.5 729.5,-365.5 846.5,-365.5 846.5,-335.5 729.5,-335.5"/>
<text text-anchor="start" x="737.5" y="-353.5" font-family="Helvetica,sans-Serif" font-size="10.00">BaseStationCode/src</text>
<text text-anchor="middle" x="788" y="-342.5" font-family="Helvetica,sans-Serif" font-size="10.00">/src/devices.h</text>
</a>
</g>
</g>
<!-- Node1&#45;&gt;Node21 -->
<g id="edge41" class="edge">
<title>Node1&#45;&gt;Node21</title>
<path fill="none" stroke="midnightblue" d="M611.56,-540.14C671.56,-526.9 754.51,-497.42 790,-433 801.61,-411.93 796.92,-382.9 792.46,-365.78"/>
<polygon fill="midnightblue" stroke="midnightblue" points="610.83,-536.71 601.77,-542.2 612.27,-543.56 610.83,-536.71"/>
</g>
<!-- Node24 -->
<g id="node24" class="node">
<title>Node24</title>
<g id="a_node24"><a xlink:href="lookups_8h.html" target="_top" xlink:title="Lookupable and lookupable manager base classes.">
<polygon fill="white" stroke="black" points="837.5,-469.5 837.5,-499.5 954.5,-499.5 954.5,-469.5 837.5,-469.5"/>
<text text-anchor="start" x="845.5" y="-487.5" font-family="Helvetica,sans-Serif" font-size="10.00">BaseStationCode/src</text>
<text text-anchor="middle" x="896" y="-476.5" font-family="Helvetica,sans-Serif" font-size="10.00">/src/lookups.h</text>
</a>
</g>
</g>
<!-- Node1&#45;&gt;Node24 -->
<g id="edge44" class="edge">
<title>Node1&#45;&gt;Node24</title>
<path fill="none" stroke="midnightblue" d="M611.44,-538.5C668.17,-528.48 750.89,-513.66 823,-500 827.7,-499.11 832.56,-498.17 837.45,-497.22"/>
<polygon fill="midnightblue" stroke="midnightblue" points="610.75,-535.07 601.51,-540.26 611.97,-541.96 610.75,-535.07"/>
</g>
<!-- Node3&#45;&gt;Node2 -->
<g id="edge3" class="edge">
<title>Node3&#45;&gt;Node2</title>
<path fill="none" stroke="midnightblue" d="M261.16,-325.8C245.32,-289.58 218.96,-222.42 231,-201 261.43,-146.84 432.09,-63.45 503.05,-30.55"/>
<polygon fill="midnightblue" stroke="midnightblue" points="258.05,-327.41 265.31,-335.13 264.45,-324.57 258.05,-327.41"/>
</g>
<!-- Node4 -->
<g id="node4" class="node">
<title>Node4</title>
<g id="a_node4"><a xlink:href="alarm_8cpp.html" target="_top" xlink:title="Handles alarms.">
<polygon fill="white" stroke="black" points="104.5,-268.5 104.5,-298.5 221.5,-298.5 221.5,-268.5 104.5,-268.5"/>
<text text-anchor="start" x="112.5" y="-286.5" font-family="Helvetica,sans-Serif" font-size="10.00">BaseStationCode/src</text>
<text text-anchor="middle" x="163" y="-275.5" font-family="Helvetica,sans-Serif" font-size="10.00">/src/alarm.cpp</text>
</a>
</g>
</g>
<!-- Node3&#45;&gt;Node4 -->
<g id="edge4" class="edge">
<title>Node3&#45;&gt;Node4</title>
<path fill="none" stroke="midnightblue" d="M239.33,-330.02C222.36,-319.9 202.02,-307.77 186.61,-298.58"/>
<polygon fill="midnightblue" stroke="midnightblue" points="237.97,-333.28 248.35,-335.4 241.55,-327.27 237.97,-333.28"/>
</g>
<!-- Node3&#45;&gt;Node5 -->
<g id="edge5" class="edge">
<title>Node3&#45;&gt;Node5</title>
<path fill="none" stroke="midnightblue" d="M293.19,-328.31C302.94,-318.56 314.24,-307.26 322.92,-298.58"/>
<polygon fill="midnightblue" stroke="midnightblue" points="290.7,-325.85 286.1,-335.4 295.65,-330.8 290.7,-325.85"/>
</g>
<!-- Node3&#45;&gt;Node7 -->
<g id="edge8" class="edge">
<title>Node3&#45;&gt;Node7</title>
<path fill="none" stroke="midnightblue" d="M203.31,-344.13C144.83,-336.18 73.46,-316.52 95,-268 131.71,-185.29 225.86,-123.93 272.29,-97.64"/>
<polygon fill="midnightblue" stroke="midnightblue" points="202.94,-347.61 213.3,-345.4 203.82,-340.67 202.94,-347.61"/>
</g>
<!-- Node3&#45;&gt;Node9 -->
<g id="edge11" class="edge">
<title>Node3&#45;&gt;Node9</title>
<path fill="none" stroke="midnightblue" d="M340.8,-334.39C391.87,-323.18 460.78,-308.04 509.28,-297.4"/>
<polygon fill="midnightblue" stroke="midnightblue" points="339.85,-331.02 330.83,-336.58 341.35,-337.85 339.85,-331.02"/>
</g>
<!-- Node5&#45;&gt;Node2 -->
<g id="edge6" class="edge">
<title>Node5&#45;&gt;Node2</title>
<path fill="none" stroke="midnightblue" d="M353.61,-260.08C393.03,-206.84 491.37,-74.06 523.6,-30.55"/>
<polygon fill="midnightblue" stroke="midnightblue" points="350.73,-258.08 347.59,-268.2 356.36,-262.25 350.73,-258.08"/>
</g>
<!-- Node6 -->
<g id="node6" class="node">
<title>Node6</title>
<g id="a_node6"><a xlink:href="audio_8cpp.html" target="_top" xlink:title="Plays audio.">
<polygon fill="white" stroke="black" points="240.5,-201.5 240.5,-231.5 357.5,-231.5 357.5,-201.5 240.5,-201.5"/>
<text text-anchor="start" x="248.5" y="-219.5" font-family="Helvetica,sans-Serif" font-size="10.00">BaseStationCode/src</text>
<text text-anchor="middle" x="299" y="-208.5" font-family="Helvetica,sans-Serif" font-size="10.00">/src/audio.cpp</text>
</a>
</g>
</g>
<!-- Node5&#45;&gt;Node6 -->
<g id="edge7" class="edge">
<title>Node5&#45;&gt;Node6</title>
<path fill="none" stroke="midnightblue" d="M323.6,-259.58C318.14,-250.24 312.01,-239.75 307.23,-231.58"/>
<polygon fill="midnightblue" stroke="midnightblue" points="320.69,-261.53 328.75,-268.4 326.73,-258 320.69,-261.53"/>
</g>
<!-- Node7&#45;&gt;Node2 -->
<g id="edge9" class="edge">
<title>Node7&#45;&gt;Node2</title>
<path fill="none" stroke="midnightblue" d="M359.68,-64.71C397.93,-54.14 446.74,-40.63 482.98,-30.61"/>
<polygon fill="midnightblue" stroke="midnightblue" points="358.41,-61.44 349.7,-67.48 360.27,-68.18 358.41,-61.44"/>
</g>
<!-- Node8 -->
<g id="node8" class="node">
<title>Node8</title>
<g id="a_node8"><a xlink:href="leds_8cpp.html" target="_top" xlink:title="Controls the LEDs on the unit.">
<polygon fill="white" stroke="black" points="240.5,-0.5 240.5,-30.5 357.5,-30.5 357.5,-0.5 240.5,-0.5"/>
<text text-anchor="start" x="248.5" y="-18.5" font-family="Helvetica,sans-Serif" font-size="10.00">BaseStationCode/src</text>
<text text-anchor="middle" x="299" y="-7.5" font-family="Helvetica,sans-Serif" font-size="10.00">/src/leds.cpp</text>
</a>
</g>
</g>
<!-- Node7&#45;&gt;Node8 -->
<g id="edge10" class="edge">
<title>Node7&#45;&gt;Node8</title>
<path fill="none" stroke="midnightblue" d="M299,-57.11C299,-48.15 299,-38.32 299,-30.58"/>
<polygon fill="midnightblue" stroke="midnightblue" points="295.5,-57.4 299,-67.4 302.5,-57.4 295.5,-57.4"/>
</g>
<!-- Node9&#45;&gt;Node2 -->
<g id="edge12" class="edge">
<title>Node9&#45;&gt;Node2</title>
<path fill="none" stroke="midnightblue" d="M619.93,-263.78C633.77,-256.15 647.07,-245.78 655,-232 661.87,-220.06 662.94,-212.26 655,-201 627.54,-162.05 584.01,-202.02 554,-165 521.89,-125.39 527.23,-59.38 531.49,-30.62"/>
<polygon fill="midnightblue" stroke="midnightblue" points="618.14,-260.77 610.81,-268.42 621.31,-267.01 618.14,-260.77"/>
</g>
<!-- Node9&#45;&gt;Node10 -->
<g id="edge13" class="edge">
<title>Node9&#45;&gt;Node10</title>
<path fill="none" stroke="midnightblue" d="M627.65,-265.71C665.24,-255.14 713.23,-241.63 748.85,-231.61"/>
<polygon fill="midnightblue" stroke="midnightblue" points="626.52,-262.4 617.84,-268.48 628.41,-269.14 626.52,-262.4"/>
</g>
<!-- Node16 -->
<g id="node16" class="node">
<title>Node16</title>
<g id="a_node16"><a xlink:href="rpc_8cpp.html" target="_top" xlink:title="Handles RPC calls.">
<polygon fill="white" stroke="black" points="528.5,-201.5 528.5,-231.5 645.5,-231.5 645.5,-201.5 528.5,-201.5"/>
<text text-anchor="start" x="536.5" y="-219.5" font-family="Helvetica,sans-Serif" font-size="10.00">BaseStationCode/src</text>
<text text-anchor="middle" x="587" y="-208.5" font-family="Helvetica,sans-Serif" font-size="10.00">/src/rpc.cpp</text>
</a>
</g>
</g>
<!-- Node9&#45;&gt;Node16 -->
<g id="edge25" class="edge">
<title>Node9&#45;&gt;Node16</title>
<path fill="none" stroke="midnightblue" d="M574.96,-258.7C577.62,-249.59 580.57,-239.49 582.89,-231.58"/>
<polygon fill="midnightblue" stroke="midnightblue" points="571.57,-257.82 572.12,-268.4 578.29,-259.78 571.57,-257.82"/>
</g>
<!-- Node10&#45;&gt;Node2 -->
<g id="edge14" class="edge">
<title>Node10&#45;&gt;Node2</title>
<path fill="none" stroke="midnightblue" d="M782.96,-193.06C777.21,-184.51 770.94,-174.52 766,-165 744.4,-123.39 762.12,-98.05 727,-67 690.15,-34.42 634.8,-22.45 592.81,-18.24"/>
<polygon fill="midnightblue" stroke="midnightblue" points="780.12,-195.12 788.67,-201.38 785.89,-191.16 780.12,-195.12"/>
</g>
<!-- Node11 -->
<g id="node11" class="node">
<title>Node11</title>
<g id="a_node11"><a xlink:href="lora_8cpp.html" target="_top" xlink:title="File that handles the LoRa radio and PJON.">
<polygon fill="white" stroke="black" points="774.5,-134.5 774.5,-164.5 891.5,-164.5 891.5,-134.5 774.5,-134.5"/>
<text text-anchor="start" x="782.5" y="-152.5" font-family="Helvetica,sans-Serif" font-size="10.00">BaseStationCode/src</text>
<text text-anchor="middle" x="833" y="-141.5" font-family="Helvetica,sans-Serif" font-size="10.00">/src/lora.cpp</text>
</a>
</g>
</g>
<!-- Node10&#45;&gt;Node11 -->
<g id="edge15" class="edge">
<title>Node10&#45;&gt;Node11</title>
<path fill="none" stroke="midnightblue" d="M811.14,-192.28C815.99,-183.02 821.41,-172.66 825.64,-164.58"/>
<polygon fill="midnightblue" stroke="midnightblue" points="807.91,-190.91 806.38,-201.4 814.11,-194.16 807.91,-190.91"/>
</g>
<!-- Node10&#45;&gt;Node12 -->
<g id="edge16" class="edge">
<title>Node10&#45;&gt;Node12</title>
<path fill="none" stroke="midnightblue" d="M744.88,-197.96C715.19,-187.48 679.39,-174.37 653.87,-164.58"/>
<polygon fill="midnightblue" stroke="midnightblue" points="744.1,-201.39 754.7,-201.4 746.42,-194.78 744.1,-201.39"/>
</g>
<!-- Node12&#45;&gt;Node2 -->
<g id="edge17" class="edge">
<title>Node12&#45;&gt;Node2</title>
<path fill="none" stroke="midnightblue" d="M606.06,-125.83C588.02,-98.47 558.24,-53.28 543.24,-30.52"/>
<polygon fill="midnightblue" stroke="midnightblue" points="603.26,-127.95 611.69,-134.37 609.11,-124.1 603.26,-127.95"/>
</g>
<!-- Node12&#45;&gt;Node7 -->
<g id="edge18" class="edge">
<title>Node12&#45;&gt;Node7</title>
<path fill="none" stroke="midnightblue" d="M552.15,-134.6C494.25,-122.91 412.36,-106.38 357.55,-95.32"/>
<polygon fill="midnightblue" stroke="midnightblue" points="551.82,-138.11 562.31,-136.65 553.2,-131.24 551.82,-138.11"/>
</g>
<!-- Node12&#45;&gt;Node9 -->
<g id="edge24" class="edge">
<title>Node12&#45;&gt;Node9</title>
<path fill="none" stroke="midnightblue" d="M558.11,-168.83C543.07,-176.32 528.83,-186.71 520,-201 505.58,-224.33 530.4,-251.9 549.4,-268.26"/>
<polygon fill="midnightblue" stroke="midnightblue" points="559.89,-171.87 567.53,-164.54 556.98,-165.5 559.89,-171.87"/>
</g>
<!-- Node12&#45;&gt;Node10 -->
<g id="edge19" class="edge">
<title>Node12&#45;&gt;Node10</title>
<path fill="none" stroke="midnightblue" d="M675.03,-168.02C704.72,-178.48 740.52,-191.6 766.06,-201.4"/>
<polygon fill="midnightblue" stroke="midnightblue" points="675.82,-164.58 665.22,-164.58 673.5,-171.19 675.82,-164.58"/>
</g>
<!-- Node13 -->
<g id="node13" class="node">
<title>Node13</title>
<g id="a_node13"><a xlink:href="networking_8cpp.html" target="_top" xlink:title="File that handles connecting to WiFi and MQTT and staying connected.">
<polygon fill="white" stroke="black" points="600.5,-67.5 600.5,-97.5 717.5,-97.5 717.5,-67.5 600.5,-67.5"/>
<text text-anchor="start" x="608.5" y="-85.5" font-family="Helvetica,sans-Serif" font-size="10.00">BaseStationCode/src</text>
<text text-anchor="middle" x="659" y="-74.5" font-family="Helvetica,sans-Serif" font-size="10.00">/src/networking.cpp</text>
</a>
</g>
</g>
<!-- Node12&#45;&gt;Node13 -->
<g id="edge20" class="edge">
<title>Node12&#45;&gt;Node13</title>
<path fill="none" stroke="midnightblue" d="M634.4,-125.58C639.86,-116.24 645.99,-105.75 650.77,-97.58"/>
<polygon fill="midnightblue" stroke="midnightblue" points="631.27,-124 629.25,-134.4 637.31,-127.53 631.27,-124"/>
</g>
<!-- Node12&#45;&gt;Node14 -->
<g id="edge21" class="edge">
<title>Node12&#45;&gt;Node14</title>
<path fill="none" stroke="midnightblue" d="M552.1,-141.36C473.96,-132.84 342.87,-117.31 231,-98 228.3,-97.53 225.55,-97.04 222.77,-96.51"/>
<polygon fill="midnightblue" stroke="midnightblue" points="551.98,-144.86 562.29,-142.46 552.73,-137.9 551.98,-144.86"/>
</g>
<!-- Node14&#45;&gt;Node2 -->
<g id="edge22" class="edge">
<title>Node14&#45;&gt;Node2</title>
<path fill="none" stroke="midnightblue" d="M232.89,-66.68C322.8,-49.64 416.56,-34.55 475.48,-25.4"/>
<polygon fill="midnightblue" stroke="midnightblue" points="231.96,-63.3 222.79,-68.61 233.27,-70.17 231.96,-63.3"/>
</g>
<!-- Node15 -->
<g id="node15" class="node">
<title>Node15</title>
<g id="a_node15"><a xlink:href="ota_8cpp.html" target="_top" xlink:title="Handles over the air (OTA) updates.">
<polygon fill="white" stroke="black" points="105.5,-0.5 105.5,-30.5 222.5,-30.5 222.5,-0.5 105.5,-0.5"/>
<text text-anchor="start" x="113.5" y="-18.5" font-family="Helvetica,sans-Serif" font-size="10.00">BaseStationCode/src</text>
<text text-anchor="middle" x="164" y="-7.5" font-family="Helvetica,sans-Serif" font-size="10.00">/src/ota.cpp</text>
</a>
</g>
</g>
<!-- Node14&#45;&gt;Node15 -->
<g id="edge23" class="edge">
<title>Node14&#45;&gt;Node15</title>
<path fill="none" stroke="midnightblue" d="M164,-57.11C164,-48.15 164,-38.32 164,-30.58"/>
<polygon fill="midnightblue" stroke="midnightblue" points="160.5,-57.4 164,-67.4 167.5,-57.4 160.5,-57.4"/>
</g>
<!-- Node18 -->
<g id="node18" class="node">
<title>Node18</title>
<g id="a_node18"><a xlink:href="conversions_8cpp.html" target="_top" xlink:title="General functions for converting to and from char arrays.">
<polygon fill="white" stroke="black" points="528.5,-402.5 528.5,-432.5 645.5,-432.5 645.5,-402.5 528.5,-402.5"/>
<text text-anchor="start" x="536.5" y="-420.5" font-family="Helvetica,sans-Serif" font-size="10.00">BaseStationCode/src</text>
<text text-anchor="middle" x="587" y="-409.5" font-family="Helvetica,sans-Serif" font-size="10.00">/src/conversions.cpp</text>
</a>
</g>
</g>
<!-- Node17&#45;&gt;Node18 -->
<g id="edge28" class="edge">
<title>Node17&#45;&gt;Node18</title>
<path fill="none" stroke="midnightblue" d="M587,-459.11C587,-450.15 587,-440.32 587,-432.58"/>
<polygon fill="midnightblue" stroke="midnightblue" points="583.5,-459.4 587,-469.4 590.5,-459.4 583.5,-459.4"/>
</g>
<!-- Node17&#45;&gt;Node19 -->
<g id="edge29" class="edge">
<title>Node17&#45;&gt;Node19</title>
<path fill="none" stroke="midnightblue" d="M625.44,-464.99C646.84,-454.69 673.05,-442.07 692.76,-432.58"/>
<polygon fill="midnightblue" stroke="midnightblue" points="623.78,-461.9 616.29,-469.4 626.82,-468.21 623.78,-461.9"/>
</g>
<!-- Node19&#45;&gt;Node9 -->
<g id="edge40" class="edge">
<title>Node19&#45;&gt;Node9</title>
<path fill="none" stroke="midnightblue" d="M659.04,-399.48C628.52,-390.01 596.26,-377.78 586,-366 569.54,-347.09 567.11,-316.52 567.26,-298.68"/>
<polygon fill="midnightblue" stroke="midnightblue" points="658.28,-402.9 668.86,-402.45 660.31,-396.2 658.28,-402.9"/>
</g>
<!-- Node20 -->
<g id="node20" class="node">
<title>Node20</title>
<g id="a_node20"><a xlink:href="device__list_8h.html" target="_top" xlink:title="List of all devices and fields known to the system.">
<polygon fill="white" stroke="black" points="861.5,-268.5 861.5,-298.5 978.5,-298.5 978.5,-268.5 861.5,-268.5"/>
<text text-anchor="start" x="869.5" y="-286.5" font-family="Helvetica,sans-Serif" font-size="10.00">BaseStationCode/src</text>
<text text-anchor="middle" x="920" y="-275.5" font-family="Helvetica,sans-Serif" font-size="10.00">/device_list.h</text>
</a>
</g>
</g>
<!-- Node19&#45;&gt;Node20 -->
<g id="edge30" class="edge">
<title>Node19&#45;&gt;Node20</title>
<path fill="none" stroke="midnightblue" d="M788.77,-399.31C811.46,-391.47 836.09,-380.6 856,-366 881.24,-347.49 901.74,-316.49 912.28,-298.53"/>
<polygon fill="midnightblue" stroke="midnightblue" points="787.58,-396.02 779.18,-402.49 789.78,-402.67 787.58,-396.02"/>
</g>
<!-- Node19&#45;&gt;Node21 -->
<g id="edge32" class="edge">
<title>Node19&#45;&gt;Node21</title>
<path fill="none" stroke="midnightblue" d="M743.51,-395.31C753.41,-385.56 764.89,-374.26 773.71,-365.58"/>
<polygon fill="midnightblue" stroke="midnightblue" points="740.99,-392.89 736.32,-402.4 745.9,-397.87 740.99,-392.89"/>
</g>
<!-- Node23 -->
<g id="node23" class="node">
<title>Node23</title>
<g id="a_node23"><a xlink:href="fields_8cpp.html" target="_top" xlink:title="Contains fields classes.">
<polygon fill="white" stroke="black" points="594.5,-335.5 594.5,-365.5 711.5,-365.5 711.5,-335.5 594.5,-335.5"/>
<text text-anchor="start" x="602.5" y="-353.5" font-family="Helvetica,sans-Serif" font-size="10.00">BaseStationCode/src</text>
<text text-anchor="middle" x="653" y="-342.5" font-family="Helvetica,sans-Serif" font-size="10.00">/src/fields.cpp</text>
</a>
</g>
</g>
<!-- Node19&#45;&gt;Node23 -->
<g id="edge39" class="edge">
<title>Node19&#45;&gt;Node23</title>
<path fill="none" stroke="midnightblue" d="M699.51,-395.31C689.16,-385.56 677.16,-374.26 667.94,-365.58"/>
<polygon fill="midnightblue" stroke="midnightblue" points="697.35,-398.09 707.03,-402.4 702.15,-392.99 697.35,-398.09"/>
</g>
<!-- Node20&#45;&gt;Node2 -->
<g id="edge31" class="edge">
<title>Node20&#45;&gt;Node2</title>
<path fill="none" stroke="midnightblue" d="M923.68,-257.96C927.05,-226.14 928.04,-170.39 901,-134 863.84,-83.99 686.5,-44.55 592.61,-26.78"/>
<polygon fill="midnightblue" stroke="midnightblue" points="920.17,-257.8 922.43,-268.15 927.12,-258.65 920.17,-257.8"/>
</g>
<!-- Node21&#45;&gt;Node7 -->
<g id="edge35" class="edge">
<title>Node21&#45;&gt;Node7</title>
<path fill="none" stroke="midnightblue" d="M719.22,-334.81C621.34,-318.31 585.6,-344.12 501,-299 406.43,-248.56 331.64,-136.85 307.36,-97.52"/>
<polygon fill="midnightblue" stroke="midnightblue" points="718.75,-338.28 729.21,-336.6 719.98,-331.39 718.75,-338.28"/>
</g>
<!-- Node21&#45;&gt;Node9 -->
<g id="edge38" class="edge">
<title>Node21&#45;&gt;Node9</title>
<path fill="none" stroke="midnightblue" d="M730.73,-332.58C695,-322.02 649.54,-308.59 615.76,-298.61"/>
<polygon fill="midnightblue" stroke="midnightblue" points="729.95,-336 740.53,-335.48 731.94,-329.29 729.95,-336"/>
</g>
<!-- Node21&#45;&gt;Node10 -->
<g id="edge36" class="edge">
<title>Node21&#45;&gt;Node10</title>
<path fill="none" stroke="midnightblue" d="M748.03,-330.12C736.17,-322.23 724.59,-311.88 718,-299 711.72,-286.73 711.31,-280.05 718,-268 727.17,-251.48 744.23,-239.66 760.34,-231.63"/>
<polygon fill="midnightblue" stroke="midnightblue" points="746.31,-333.17 756.66,-335.44 749.98,-327.21 746.31,-333.17"/>
</g>
<!-- Node21&#45;&gt;Node12 -->
<g id="edge37" class="edge">
<title>Node21&#45;&gt;Node12</title>
<path fill="none" stroke="midnightblue" d="M745.44,-330.62C731.92,-322.67 718.13,-312.17 709,-299 683.61,-262.4 711.96,-238.55 688,-201 678.21,-185.65 662,-173.25 647.98,-164.58"/>
<polygon fill="midnightblue" stroke="midnightblue" points="743.78,-333.7 754.23,-335.47 747.17,-327.58 743.78,-333.7"/>
</g>
<!-- Node21&#45;&gt;Node20 -->
<g id="edge33" class="edge">
<title>Node21&#45;&gt;Node20</title>
<path fill="none" stroke="midnightblue" d="M825.87,-330.85C846.74,-320.58 872.23,-308.03 891.41,-298.58"/>
<polygon fill="midnightblue" stroke="midnightblue" points="824.07,-327.84 816.64,-335.4 827.16,-334.12 824.07,-327.84"/>
</g>
<!-- Node22 -->
<g id="node22" class="node">
<title>Node22</title>
<g id="a_node22"><a xlink:href="devices_8cpp.html" target="_top" xlink:title="Devices and manager for all known devices the base station connects to.">
<polygon fill="white" stroke="black" points="726.5,-268.5 726.5,-298.5 843.5,-298.5 843.5,-268.5 726.5,-268.5"/>
<text text-anchor="start" x="734.5" y="-286.5" font-family="Helvetica,sans-Serif" font-size="10.00">BaseStationCode/src</text>
<text text-anchor="middle" x="785" y="-275.5" font-family="Helvetica,sans-Serif" font-size="10.00">/src/devices.cpp</text>
</a>
</g>
</g>
<!-- Node21&#45;&gt;Node22 -->
<g id="edge34" class="edge">
<title>Node21&#45;&gt;Node22</title>
<path fill="none" stroke="midnightblue" d="M786.89,-325.4C786.47,-316.37 786.01,-306.41 785.65,-298.58"/>
<polygon fill="midnightblue" stroke="midnightblue" points="783.39,-325.57 787.35,-335.4 790.38,-325.25 783.39,-325.57"/>
</g>
<!-- Node24&#45;&gt;Node10 -->
<g id="edge47" class="edge">
<title>Node24&#45;&gt;Node10</title>
<path fill="none" stroke="midnightblue" d="M918.62,-462.12C959.2,-421.19 1035.83,-330.29 988,-268 972.07,-247.26 906.91,-233.2 857.52,-225.28"/>
<polygon fill="midnightblue" stroke="midnightblue" points="915.92,-459.87 911.27,-469.39 920.84,-464.85 915.92,-459.87"/>
</g>
<!-- Node24&#45;&gt;Node19 -->
<g id="edge46" class="edge">
<title>Node24&#45;&gt;Node19</title>
<path fill="none" stroke="midnightblue" d="M848.67,-465.82C820.7,-455.37 785.77,-442.32 759.68,-432.58"/>
<polygon fill="midnightblue" stroke="midnightblue" points="847.65,-469.18 858.24,-469.4 850.1,-462.62 847.65,-469.18"/>
</g>
<!-- Node24&#45;&gt;Node21 -->
<g id="edge45" class="edge">
<title>Node24&#45;&gt;Node21</title>
<path fill="none" stroke="midnightblue" d="M878.04,-461.54C855.71,-434.25 818.26,-388.48 799.47,-365.52"/>
<polygon fill="midnightblue" stroke="midnightblue" points="875.4,-463.85 884.44,-469.37 880.82,-459.42 875.4,-463.85"/>
</g>
</g>
</svg>
