<?xml version="1.0" encoding="UTF-8" standalone="no"?>
<!DOCTYPE svg PUBLIC "-//W3C//DTD SVG 1.1//EN"
 "http://www.w3.org/Graphics/SVG/1.1/DTD/svg11.dtd">
<!-- Generated by graphviz version 2.43.0 (0)
 -->
<!-- Title: BaseStationCode/src/defines.h Pages: 1 -->
<svg width="565pt" height="95pt"
 viewBox="0.00 0.00 564.50 95.00" xmlns="http://www.w3.org/2000/svg" xmlns:xlink="http://www.w3.org/1999/xlink">
<g id="graph0" class="graph" transform="scale(1 1) rotate(0) translate(4 91)">
<title>BaseStationCode/src/defines.h</title>
<polygon fill="white" stroke="transparent" points="-4,4 -4,-91 560.5,-91 560.5,4 -4,4"/>
<!-- Node1 -->
<g id="node1" class="node">
<title>Node1</title>
<g id="a_node1"><a xlink:title="Definitions and other preprocessor and global stuff.">
<polygon fill="#bfbfbf" stroke="black" points="185,-56.5 185,-86.5 302,-86.5 302,-56.5 185,-56.5"/>
<text text-anchor="start" x="193" y="-74.5" font-family="Helvetica,sans-Serif" font-size="10.00">BaseStationCode/src</text>
<text text-anchor="middle" x="243.5" y="-63.5" font-family="Helvetica,sans-Serif" font-size="10.00">/defines.h</text>
</a>
</g>
</g>
<!-- Node2 -->
<g id="node2" class="node">
<title>Node2</title>
<g id="a_node2"><a xlink:title=" ">
<polygon fill="white" stroke="#bfbfbf" points="0,-0.5 0,-19.5 63,-19.5 63,-0.5 0,-0.5"/>
<text text-anchor="middle" x="31.5" y="-7.5" font-family="Helvetica,sans-Serif" font-size="10.00">Arduino.h</text>
</a>
</g>
</g>
<!-- Node1&#45;&gt;Node2 -->
<g id="edge1" class="edge">
<title>Node1&#45;&gt;Node2</title>
<path fill="none" stroke="midnightblue" d="M193.53,-56.47C156.31,-46.03 106.17,-31.96 71.57,-22.25"/>
<polygon fill="midnightblue" stroke="midnightblue" points="72.38,-18.84 61.81,-19.51 70.49,-25.58 72.38,-18.84"/>
</g>
<!-- Node3 -->
<g id="node3" class="node">
<title>Node3</title>
<g id="a_node3"><a xlink:title=" ">
<polygon fill="white" stroke="#bfbfbf" points="81,-0.5 81,-19.5 128,-19.5 128,-0.5 81,-0.5"/>
<text text-anchor="middle" x="104.5" y="-7.5" font-family="Helvetica,sans-Serif" font-size="10.00">WiFi.h</text>
</a>
</g>
</g>
<!-- Node1&#45;&gt;Node3 -->
<g id="edge2" class="edge">
<title>Node1&#45;&gt;Node3</title>
<path fill="none" stroke="midnightblue" d="M210.56,-56.4C187.34,-46.46 156.51,-33.26 134.08,-23.66"/>
<polygon fill="midnightblue" stroke="midnightblue" points="135.3,-20.38 124.73,-19.66 132.54,-26.81 135.3,-20.38"/>
</g>
<!-- Node4 -->
<g id="node4" class="node">
<title>Node4</title>
<g id="a_node4"><a xlink:title=" ">
<polygon fill="white" stroke="#bfbfbf" points="146.5,-0.5 146.5,-19.5 236.5,-19.5 236.5,-0.5 146.5,-0.5"/>
<text text-anchor="middle" x="191.5" y="-7.5" font-family="Helvetica,sans-Serif" font-size="10.00">PubSubClient.h</text>
</a>
</g>
</g>
<!-- Node1&#45;&gt;Node4 -->
<g id="edge3" class="edge">
<title>Node1&#45;&gt;Node4</title>
<path fill="none" stroke="midnightblue" d="M231.18,-56.4C223.54,-47.66 213.71,-36.41 205.74,-27.3"/>
<polygon fill="midnightblue" stroke="midnightblue" points="208.28,-24.88 199.07,-19.66 203.01,-29.49 208.28,-24.88"/>
</g>
<!-- Node5 -->
<g id="node5" class="node">
<title>Node5</title>
<g id="a_node5"><a xlink:title=" ">
<polygon fill="white" stroke="#bfbfbf" points="255,-0.5 255,-19.5 338,-19.5 338,-0.5 255,-0.5"/>
<text text-anchor="middle" x="296.5" y="-7.5" font-family="Helvetica,sans-Serif" font-size="10.00">ArduinoJson.h</text>
</a>
</g>
</g>
<!-- Node1&#45;&gt;Node5 -->
<g id="edge4" class="edge">
<title>Node1&#45;&gt;Node5</title>
<path fill="none" stroke="midnightblue" d="M256.06,-56.4C263.84,-47.66 273.86,-36.41 281.98,-27.3"/>
<polygon fill="midnightblue" stroke="midnightblue" points="284.75,-29.45 288.79,-19.66 279.52,-24.8 284.75,-29.45"/>
</g>
<!-- Node6 -->
<g id="node6" class="node">
<title>Node6</title>
<g id="a_node6"><a xlink:title=" ">
<polygon fill="white" stroke="#bfbfbf" points="356.5,-0.5 356.5,-19.5 466.5,-19.5 466.5,-0.5 356.5,-0.5"/>
<text text-anchor="middle" x="411.5" y="-7.5" font-family="Helvetica,sans-Serif" font-size="10.00">PJONThroughLora.h</text>
</a>
</g>
</g>
<!-- Node1&#45;&gt;Node6 -->
<g id="edge5" class="edge">
<title>Node1&#45;&gt;Node6</title>
<path fill="none" stroke="midnightblue" d="M283.31,-56.4C312,-46.24 350.31,-32.67 377.56,-23.02"/>
<polygon fill="midnightblue" stroke="midnightblue" points="378.8,-26.3 387.05,-19.66 376.46,-19.7 378.8,-26.3"/>
</g>
<!-- Node7 -->
<g id="node7" class="node">
<title>Node7</title>
<g id="a_node7"><a xlink:href="topics_8h.html" target="_top" xlink:title="MQTT topics for a thingsboard gateway.">
<polygon fill="white" stroke="black" points="484.5,-0.5 484.5,-19.5 556.5,-19.5 556.5,-0.5 484.5,-0.5"/>
<text text-anchor="middle" x="520.5" y="-7.5" font-family="Helvetica,sans-Serif" font-size="10.00">src/topics.h</text>
</a>
</g>
</g>
<!-- Node1&#45;&gt;Node7 -->
<g id="edge6" class="edge">
<title>Node1&#45;&gt;Node7</title>
<path fill="none" stroke="midnightblue" d="M302.24,-57.88C353.58,-46.85 427.1,-31.06 474.33,-20.92"/>
<polygon fill="midnightblue" stroke="midnightblue" points="475.24,-24.3 484.28,-18.78 473.77,-17.46 475.24,-24.3"/>
</g>
</g>
</svg>
