<?xml version="1.0" encoding="UTF-8" standalone="no"?>
<!DOCTYPE svg PUBLIC "-//W3C//DTD SVG 1.1//EN"
 "http://www.w3.org/Graphics/SVG/1.1/DTD/svg11.dtd">
<!-- Generated by graphviz version 2.43.0 (0)
 -->
<!-- Title: BaseStationCode/src/defines.h Pages: 1 -->
<svg width="1252pt" height="575pt"
 viewBox="0.00 0.00 1251.50 575.00" xmlns="http://www.w3.org/2000/svg" xmlns:xlink="http://www.w3.org/1999/xlink">
<g id="graph0" class="graph" transform="scale(1 1) rotate(0) translate(4 571)">
<title>BaseStationCode/src/defines.h</title>
<polygon fill="white" stroke="transparent" points="-4,4 -4,-571 1247.5,-571 1247.5,4 -4,4"/>
<!-- Node1 -->
<g id="node1" class="node">
<title>Node1</title>
<g id="a_node1"><a xlink:title="Definitions and other preprocessor and global stuff.">
<polygon fill="#bfbfbf" stroke="black" points="588.5,-536.5 588.5,-566.5 705.5,-566.5 705.5,-536.5 588.5,-536.5"/>
<text text-anchor="start" x="596.5" y="-554.5" font-family="Helvetica,sans-Serif" font-size="10.00">BaseStationCode/src</text>
<text text-anchor="middle" x="647" y="-543.5" font-family="Helvetica,sans-Serif" font-size="10.00">/defines.h</text>
</a>
</g>
</g>
<!-- Node2 -->
<g id="node2" class="node">
<title>Node2</title>
<g id="a_node2"><a xlink:href="main_8cpp.html" target="_top" xlink:title=" ">
<polygon fill="white" stroke="black" points="590.5,-0.5 590.5,-30.5 707.5,-30.5 707.5,-0.5 590.5,-0.5"/>
<text text-anchor="start" x="598.5" y="-18.5" font-family="Helvetica,sans-Serif" font-size="10.00">BaseStationCode/src</text>
<text text-anchor="middle" x="649" y="-7.5" font-family="Helvetica,sans-Serif" font-size="10.00">/main.cpp</text>
</a>
</g>
</g>
<!-- Node1&#45;&gt;Node2 -->
<g id="edge1" class="edge">
<title>Node1&#45;&gt;Node2</title>
<path fill="none" stroke="midnightblue" d="M715.92,-548.31C813.97,-544.09 987.78,-532.19 1041,-500 1078.82,-477.12 1098,-462.7 1098,-418.5 1098,-418.5 1098,-418.5 1098,-148.5 1098,-88.72 1046.09,-90.21 991,-67 897.25,-27.5 777.72,-18.17 707.64,-16.37"/>
<polygon fill="midnightblue" stroke="midnightblue" points="715.65,-544.82 705.8,-548.73 715.94,-551.81 715.65,-544.82"/>
</g>
<!-- Node3 -->
<g id="node3" class="node">
<title>Node3</title>
<g id="a_node3"><a xlink:href="alarm_8h.html" target="_top" xlink:title="Handles alarms.">
<polygon fill="white" stroke="black" points="153.5,-335.5 153.5,-365.5 270.5,-365.5 270.5,-335.5 153.5,-335.5"/>
<text text-anchor="start" x="161.5" y="-353.5" font-family="Helvetica,sans-Serif" font-size="10.00">BaseStationCode/src</text>
<text text-anchor="middle" x="212" y="-342.5" font-family="Helvetica,sans-Serif" font-size="10.00">/src/alarm.h</text>
</a>
</g>
</g>
<!-- Node1&#45;&gt;Node3 -->
<g id="edge2" class="edge">
<title>Node1&#45;&gt;Node3</title>
<path fill="none" stroke="midnightblue" d="M578.08,-548.35C512.05,-544.28 410.64,-532.7 329,-500 280.36,-480.52 261.74,-476.14 232,-433 217.86,-412.49 213.69,-383.01 212.47,-365.7"/>
<polygon fill="midnightblue" stroke="midnightblue" points="578.18,-551.86 588.37,-548.94 578.59,-544.87 578.18,-551.86"/>
</g>
<!-- Node5 -->
<g id="node5" class="node">
<title>Node5</title>
<g id="a_node5"><a xlink:href="leds_8h.html" target="_top" xlink:title="Controls the LEDs on the unit.">
<polygon fill="white" stroke="black" points="104.5,-67.5 104.5,-97.5 221.5,-97.5 221.5,-67.5 104.5,-67.5"/>
<text text-anchor="start" x="112.5" y="-85.5" font-family="Helvetica,sans-Serif" font-size="10.00">BaseStationCode/src</text>
<text text-anchor="middle" x="163" y="-74.5" font-family="Helvetica,sans-Serif" font-size="10.00">/src/leds.h</text>
</a>
</g>
</g>
<!-- Node1&#45;&gt;Node5 -->
<g id="edge44" class="edge">
<title>Node1&#45;&gt;Node5</title>
<path fill="none" stroke="midnightblue" d="M578.31,-550.85C411.75,-549.86 0,-535.56 0,-418.5 0,-418.5 0,-418.5 0,-215.5 0,-153.96 71.04,-116.15 119.32,-97.55"/>
<polygon fill="midnightblue" stroke="midnightblue" points="578.43,-554.35 588.44,-550.9 578.46,-547.35 578.43,-554.35"/>
</g>
<!-- Node7 -->
<g id="node7" class="node">
<title>Node7</title>
<g id="a_node7"><a xlink:href="rpc_8h.html" target="_top" xlink:title="Handles RPC calls.">
<polygon fill="white" stroke="black" points="414.5,-268.5 414.5,-298.5 531.5,-298.5 531.5,-268.5 414.5,-268.5"/>
<text text-anchor="start" x="422.5" y="-286.5" font-family="Helvetica,sans-Serif" font-size="10.00">BaseStationCode/src</text>
<text text-anchor="middle" x="473" y="-275.5" font-family="Helvetica,sans-Serif" font-size="10.00">/src/rpc.h</text>
</a>
</g>
</g>
<!-- Node1&#45;&gt;Node7 -->
<g id="edge52" class="edge">
<title>Node1&#45;&gt;Node7</title>
<path fill="none" stroke="midnightblue" d="M590.2,-532.29C573.92,-524.61 557.49,-514.1 546,-500 498.05,-441.17 530.92,-405.17 502,-335 496.68,-322.1 488.67,-308.43 482.42,-298.58"/>
<polygon fill="midnightblue" stroke="midnightblue" points="589.17,-535.66 599.73,-536.48 591.99,-529.25 589.17,-535.66"/>
</g>
<!-- Node8 -->
<g id="node8" class="node">
<title>Node8</title>
<g id="a_node8"><a xlink:href="lora_8h.html" target="_top" xlink:title="File that handles the LoRa radio and PJON.">
<polygon fill="white" stroke="black" points="672.5,-201.5 672.5,-231.5 789.5,-231.5 789.5,-201.5 672.5,-201.5"/>
<text text-anchor="start" x="680.5" y="-219.5" font-family="Helvetica,sans-Serif" font-size="10.00">BaseStationCode/src</text>
<text text-anchor="middle" x="731" y="-208.5" font-family="Helvetica,sans-Serif" font-size="10.00">/src/lora.h</text>
</a>
</g>
</g>
<!-- Node1&#45;&gt;Node8 -->
<g id="edge49" class="edge">
<title>Node1&#45;&gt;Node8</title>
<path fill="none" stroke="midnightblue" d="M715.61,-535.46C773.84,-518.18 848,-483.42 848,-418.5 848,-418.5 848,-418.5 848,-349.5 848,-294.99 791.44,-252.47 756.97,-231.61"/>
<polygon fill="midnightblue" stroke="midnightblue" points="714.34,-532.18 705.68,-538.29 716.25,-538.91 714.34,-532.18"/>
</g>
<!-- Node10 -->
<g id="node10" class="node">
<title>Node10</title>
<g id="a_node10"><a xlink:href="networking_8h.html" target="_top" xlink:title="Header file for networking.cpp.">
<polygon fill="white" stroke="black" points="528.5,-134.5 528.5,-164.5 645.5,-164.5 645.5,-134.5 528.5,-134.5"/>
<text text-anchor="start" x="536.5" y="-152.5" font-family="Helvetica,sans-Serif" font-size="10.00">BaseStationCode/src</text>
<text text-anchor="middle" x="587" y="-141.5" font-family="Helvetica,sans-Serif" font-size="10.00">/src/networking.h</text>
</a>
</g>
</g>
<!-- Node1&#45;&gt;Node10 -->
<g id="edge50" class="edge">
<title>Node1&#45;&gt;Node10</title>
<path fill="none" stroke="midnightblue" d="M611.21,-530.94C599.35,-522.81 587.11,-512.37 579,-500 558.6,-468.9 560,-455.69 560,-418.5 560,-418.5 560,-418.5 560,-349.5 560,-279.77 576.48,-197.53 583.69,-164.89"/>
<polygon fill="midnightblue" stroke="midnightblue" points="609.43,-533.95 619.72,-536.44 613.23,-528.07 609.43,-533.95"/>
</g>
<!-- Node12 -->
<g id="node12" class="node">
<title>Node12</title>
<g id="a_node12"><a xlink:href="ota_8h.html" target="_top" xlink:title="Handles over the air (OTA) updates.">
<polygon fill="white" stroke="black" points="1126.5,-67.5 1126.5,-97.5 1243.5,-97.5 1243.5,-67.5 1126.5,-67.5"/>
<text text-anchor="start" x="1134.5" y="-85.5" font-family="Helvetica,sans-Serif" font-size="10.00">BaseStationCode/src</text>
<text text-anchor="middle" x="1185" y="-74.5" font-family="Helvetica,sans-Serif" font-size="10.00">/src/ota.h</text>
</a>
</g>
</g>
<!-- Node1&#45;&gt;Node12 -->
<g id="edge51" class="edge">
<title>Node1&#45;&gt;Node12</title>
<path fill="none" stroke="midnightblue" d="M715.95,-550.45C829.13,-549.16 1048.16,-541.22 1112,-500 1147.32,-477.2 1160,-460.54 1160,-418.5 1160,-418.5 1160,-418.5 1160,-215.5 1160,-171.88 1173.34,-121.56 1180.53,-97.59"/>
<polygon fill="midnightblue" stroke="midnightblue" points="715.63,-546.95 705.66,-550.55 715.7,-553.95 715.63,-546.95"/>
</g>
<!-- Node16 -->
<g id="node16" class="node">
<title>Node16</title>
<g id="a_node16"><a xlink:href="audio_8h.html" target="_top" xlink:title="Plays audio.">
<polygon fill="white" stroke="black" points="914.5,-469.5 914.5,-499.5 1031.5,-499.5 1031.5,-469.5 914.5,-469.5"/>
<text text-anchor="start" x="922.5" y="-487.5" font-family="Helvetica,sans-Serif" font-size="10.00">BaseStationCode/src</text>
<text text-anchor="middle" x="973" y="-476.5" font-family="Helvetica,sans-Serif" font-size="10.00">/src/audio.h</text>
</a>
</g>
</g>
<!-- Node1&#45;&gt;Node16 -->
<g id="edge25" class="edge">
<title>Node1&#45;&gt;Node16</title>
<path fill="none" stroke="midnightblue" d="M715.62,-536.82C774.49,-525.08 858.44,-508.34 914.26,-497.21"/>
<polygon fill="midnightblue" stroke="midnightblue" points="714.78,-533.42 705.66,-538.8 716.15,-540.28 714.78,-533.42"/>
</g>
<!-- Node18 -->
<g id="node18" class="node">
<title>Node18</title>
<g id="a_node18"><a xlink:href="conversions_8h.html" target="_top" xlink:title="General functions for converting to and from char arrays.">
<polygon fill="white" stroke="black" points="338.5,-469.5 338.5,-499.5 455.5,-499.5 455.5,-469.5 338.5,-469.5"/>
<text text-anchor="start" x="346.5" y="-487.5" font-family="Helvetica,sans-Serif" font-size="10.00">BaseStationCode/src</text>
<text text-anchor="middle" x="397" y="-476.5" font-family="Helvetica,sans-Serif" font-size="10.00">/src/conversions.h</text>
</a>
</g>
</g>
<!-- Node1&#45;&gt;Node18 -->
<g id="edge28" class="edge">
<title>Node1&#45;&gt;Node18</title>
<path fill="none" stroke="midnightblue" d="M583.22,-533.92C542.42,-523.31 490.07,-509.7 451.27,-499.61"/>
<polygon fill="midnightblue" stroke="midnightblue" points="582.5,-537.35 593.06,-536.48 584.26,-530.57 582.5,-537.35"/>
</g>
<!-- Node20 -->
<g id="node20" class="node">
<title>Node20</title>
<g id="a_node20"><a xlink:href="fields_8h.html" target="_top" xlink:title="Contains fields classes.">
<polygon fill="white" stroke="black" points="376.5,-402.5 376.5,-432.5 493.5,-432.5 493.5,-402.5 376.5,-402.5"/>
<text text-anchor="start" x="384.5" y="-420.5" font-family="Helvetica,sans-Serif" font-size="10.00">BaseStationCode/src</text>
<text text-anchor="middle" x="435" y="-409.5" font-family="Helvetica,sans-Serif" font-size="10.00">/src/fields.h</text>
</a>
</g>
</g>
<!-- Node1&#45;&gt;Node20 -->
<g id="edge43" class="edge">
<title>Node1&#45;&gt;Node20</title>
<path fill="none" stroke="midnightblue" d="M579.52,-533.37C555.69,-525.46 529.5,-514.53 508,-500 480.62,-481.49 456.73,-450.49 444.24,-432.53"/>
<polygon fill="midnightblue" stroke="midnightblue" points="578.62,-536.76 589.21,-536.47 580.75,-530.09 578.62,-536.76"/>
</g>
<!-- Node22 -->
<g id="node22" class="node">
<title>Node22</title>
<g id="a_node22"><a xlink:href="devices_8h.html" target="_top" xlink:title="Devices and manager for all known devices the base station connects to.">
<polygon fill="white" stroke="black" points="588.5,-335.5 588.5,-365.5 705.5,-365.5 705.5,-335.5 588.5,-335.5"/>
<text text-anchor="start" x="596.5" y="-353.5" font-family="Helvetica,sans-Serif" font-size="10.00">BaseStationCode/src</text>
<text text-anchor="middle" x="647" y="-342.5" font-family="Helvetica,sans-Serif" font-size="10.00">/src/devices.h</text>
</a>
</g>
</g>
<!-- Node1&#45;&gt;Node22 -->
<g id="edge42" class="edge">
<title>Node1&#45;&gt;Node22</title>
<path fill="none" stroke="midnightblue" d="M685.34,-530.75C696.68,-522.83 707.73,-512.57 714,-500 720.15,-487.67 717.53,-482.32 714,-469 703.17,-428.14 674.45,-386.65 658.35,-365.62"/>
<polygon fill="midnightblue" stroke="midnightblue" points="683.19,-527.97 676.69,-536.34 686.98,-533.85 683.19,-527.97"/>
</g>
<!-- Node25 -->
<g id="node25" class="node">
<title>Node25</title>
<g id="a_node25"><a xlink:href="lookups_8h.html" target="_top" xlink:title="Lookupable and lookupable manager base classes.">
<polygon fill="white" stroke="black" points="588.5,-469.5 588.5,-499.5 705.5,-499.5 705.5,-469.5 588.5,-469.5"/>
<text text-anchor="start" x="596.5" y="-487.5" font-family="Helvetica,sans-Serif" font-size="10.00">BaseStationCode/src</text>
<text text-anchor="middle" x="647" y="-476.5" font-family="Helvetica,sans-Serif" font-size="10.00">/src/lookups.h</text>
</a>
</g>
</g>
<!-- Node1&#45;&gt;Node25 -->
<g id="edge45" class="edge">
<title>Node1&#45;&gt;Node25</title>
<path fill="none" stroke="midnightblue" d="M647,-526.11C647,-517.15 647,-507.32 647,-499.58"/>
<polygon fill="midnightblue" stroke="midnightblue" points="643.5,-526.4 647,-536.4 650.5,-526.4 643.5,-526.4"/>
</g>
<!-- Node26 -->
<g id="node26" class="node">
<title>Node26</title>
<g id="a_node26"><a xlink:href="timeseries_8h.html" target="_top" xlink:title="Measures the temperature and pressure and sends them every so often as timeseries.">
<polygon fill="white" stroke="black" points="837.5,-134.5 837.5,-164.5 954.5,-164.5 954.5,-134.5 837.5,-134.5"/>
<text text-anchor="start" x="845.5" y="-152.5" font-family="Helvetica,sans-Serif" font-size="10.00">BaseStationCode/src</text>
<text text-anchor="middle" x="896" y="-141.5" font-family="Helvetica,sans-Serif" font-size="10.00">/src/timeseries.h</text>
</a>
</g>
</g>
<!-- Node1&#45;&gt;Node26 -->
<g id="edge53" class="edge">
<title>Node1&#45;&gt;Node26</title>
<path fill="none" stroke="midnightblue" d="M715.96,-542C786.56,-528.99 886,-496.77 886,-418.5 886,-418.5 886,-418.5 886,-282.5 886,-239.52 891.34,-188.9 894.21,-164.73"/>
<polygon fill="midnightblue" stroke="midnightblue" points="715.02,-538.61 705.77,-543.78 716.23,-545.51 715.02,-538.61"/>
</g>
<!-- Node3&#45;&gt;Node2 -->
<g id="edge3" class="edge">
<title>Node3&#45;&gt;Node2</title>
<path fill="none" stroke="midnightblue" d="M215.31,-325.49C218.15,-308.87 223.06,-286.51 231,-268 273.12,-169.77 273.73,-125.77 363,-67 399.53,-42.95 517.91,-28.3 590.42,-21.36"/>
<polygon fill="midnightblue" stroke="midnightblue" points="211.84,-325.06 213.74,-335.48 218.75,-326.15 211.84,-325.06"/>
</g>
<!-- Node4 -->
<g id="node4" class="node">
<title>Node4</title>
<g id="a_node4"><a xlink:href="alarm_8cpp.html" target="_top" xlink:title="Handles alarms.">
<polygon fill="white" stroke="black" points="66.5,-268.5 66.5,-298.5 183.5,-298.5 183.5,-268.5 66.5,-268.5"/>
<text text-anchor="start" x="74.5" y="-286.5" font-family="Helvetica,sans-Serif" font-size="10.00">BaseStationCode/src</text>
<text text-anchor="middle" x="125" y="-275.5" font-family="Helvetica,sans-Serif" font-size="10.00">/src/alarm.cpp</text>
</a>
</g>
</g>
<!-- Node3&#45;&gt;Node4 -->
<g id="edge4" class="edge">
<title>Node3&#45;&gt;Node4</title>
<path fill="none" stroke="midnightblue" d="M184.79,-329.17C171.48,-319.23 155.8,-307.51 143.84,-298.58"/>
<polygon fill="midnightblue" stroke="midnightblue" points="183.02,-332.21 193.12,-335.4 187.21,-326.61 183.02,-332.21"/>
</g>
<!-- Node3&#45;&gt;Node5 -->
<g id="edge5" class="edge">
<title>Node3&#45;&gt;Node5</title>
<path fill="none" stroke="midnightblue" d="M143.07,-344.96C111.47,-339.01 76.73,-326.18 57,-299 6.79,-229.83 104.97,-133.25 146.08,-97.52"/>
<polygon fill="midnightblue" stroke="midnightblue" points="142.75,-348.45 153.19,-346.66 143.91,-341.55 142.75,-348.45"/>
</g>
<!-- Node3&#45;&gt;Node7 -->
<g id="edge8" class="edge">
<title>Node3&#45;&gt;Node7</title>
<path fill="none" stroke="midnightblue" d="M278.05,-333.05C320.72,-322.43 375.66,-308.74 416.34,-298.61"/>
<polygon fill="midnightblue" stroke="midnightblue" points="277.17,-329.66 268.31,-335.48 278.86,-336.46 277.17,-329.66"/>
</g>
<!-- Node5&#45;&gt;Node2 -->
<g id="edge6" class="edge">
<title>Node5&#45;&gt;Node2</title>
<path fill="none" stroke="midnightblue" d="M231.53,-67.73C233.03,-67.48 234.52,-67.24 236,-67 361.71,-46.86 510.09,-30.51 590.33,-22.28"/>
<polygon fill="midnightblue" stroke="midnightblue" points="230.75,-64.32 221.5,-69.48 231.95,-71.21 230.75,-64.32"/>
</g>
<!-- Node6 -->
<g id="node6" class="node">
<title>Node6</title>
<g id="a_node6"><a xlink:href="leds_8cpp.html" target="_top" xlink:title="Controls the LEDs on the unit.">
<polygon fill="white" stroke="black" points="104.5,-0.5 104.5,-30.5 221.5,-30.5 221.5,-0.5 104.5,-0.5"/>
<text text-anchor="start" x="112.5" y="-18.5" font-family="Helvetica,sans-Serif" font-size="10.00">BaseStationCode/src</text>
<text text-anchor="middle" x="163" y="-7.5" font-family="Helvetica,sans-Serif" font-size="10.00">/src/leds.cpp</text>
</a>
</g>
</g>
<!-- Node5&#45;&gt;Node6 -->
<g id="edge7" class="edge">
<title>Node5&#45;&gt;Node6</title>
<path fill="none" stroke="midnightblue" d="M163,-57.11C163,-48.15 163,-38.32 163,-30.58"/>
<polygon fill="midnightblue" stroke="midnightblue" points="159.5,-57.4 163,-67.4 166.5,-57.4 159.5,-57.4"/>
</g>
<!-- Node7&#45;&gt;Node2 -->
<g id="edge9" class="edge">
<title>Node7&#45;&gt;Node2</title>
<path fill="none" stroke="midnightblue" d="M411.37,-265.42C382.74,-256.12 353.21,-244.07 345,-232 337.25,-220.61 340.69,-214.09 345,-201 368.16,-130.67 382.39,-108.07 444,-67 487.76,-37.82 546.88,-25.49 590.38,-20.28"/>
<polygon fill="midnightblue" stroke="midnightblue" points="410.43,-268.79 421.02,-268.47 412.53,-262.12 410.43,-268.79"/>
</g>
<!-- Node7&#45;&gt;Node8 -->
<g id="edge10" class="edge">
<title>Node7&#45;&gt;Node8</title>
<path fill="none" stroke="midnightblue" d="M538.55,-265.98C580.7,-255.37 634.86,-241.72 674.99,-231.61"/>
<polygon fill="midnightblue" stroke="midnightblue" points="537.51,-262.64 528.66,-268.48 539.22,-269.43 537.51,-262.64"/>
</g>
<!-- Node11 -->
<g id="node11" class="node">
<title>Node11</title>
<g id="a_node11"><a xlink:href="networking_8cpp.html" target="_top" xlink:title="File that handles connecting to WiFi and MQTT and staying connected.">
<polygon fill="white" stroke="black" points="453.5,-67.5 453.5,-97.5 570.5,-97.5 570.5,-67.5 453.5,-67.5"/>
<text text-anchor="start" x="461.5" y="-85.5" font-family="Helvetica,sans-Serif" font-size="10.00">BaseStationCode/src</text>
<text text-anchor="middle" x="512" y="-74.5" font-family="Helvetica,sans-Serif" font-size="10.00">/src/networking.cpp</text>
</a>
</g>
</g>
<!-- Node7&#45;&gt;Node11 -->
<g id="edge23" class="edge">
<title>Node7&#45;&gt;Node11</title>
<path fill="none" stroke="midnightblue" d="M477.75,-258.27C485.98,-216.29 502.63,-131.33 509.22,-97.68"/>
<polygon fill="midnightblue" stroke="midnightblue" points="474.29,-257.7 475.8,-268.19 481.16,-259.05 474.29,-257.7"/>
</g>
<!-- Node15 -->
<g id="node15" class="node">
<title>Node15</title>
<g id="a_node15"><a xlink:href="rpc_8cpp.html" target="_top" xlink:title="Handles RPC calls.">
<polygon fill="white" stroke="black" points="354.5,-201.5 354.5,-231.5 471.5,-231.5 471.5,-201.5 354.5,-201.5"/>
<text text-anchor="start" x="362.5" y="-219.5" font-family="Helvetica,sans-Serif" font-size="10.00">BaseStationCode/src</text>
<text text-anchor="middle" x="413" y="-208.5" font-family="Helvetica,sans-Serif" font-size="10.00">/src/rpc.cpp</text>
</a>
</g>
</g>
<!-- Node7&#45;&gt;Node15 -->
<g id="edge24" class="edge">
<title>Node7&#45;&gt;Node15</title>
<path fill="none" stroke="midnightblue" d="M453.18,-261.02C444.24,-251.34 433.93,-240.17 425.99,-231.58"/>
<polygon fill="midnightblue" stroke="midnightblue" points="450.63,-263.42 459.98,-268.4 455.77,-258.67 450.63,-263.42"/>
</g>
<!-- Node8&#45;&gt;Node2 -->
<g id="edge11" class="edge">
<title>Node8&#45;&gt;Node2</title>
<path fill="none" stroke="midnightblue" d="M711.76,-193.51C705.09,-185.04 698.03,-175 693,-165 669.66,-118.65 656.5,-57.78 651.44,-30.63"/>
<polygon fill="midnightblue" stroke="midnightblue" points="709.16,-195.87 718.2,-201.4 714.58,-191.44 709.16,-195.87"/>
</g>
<!-- Node9 -->
<g id="node9" class="node">
<title>Node9</title>
<g id="a_node9"><a xlink:href="lora_8cpp.html" target="_top" xlink:title="File that handles the LoRa radio and PJON.">
<polygon fill="white" stroke="black" points="702.5,-134.5 702.5,-164.5 819.5,-164.5 819.5,-134.5 702.5,-134.5"/>
<text text-anchor="start" x="710.5" y="-152.5" font-family="Helvetica,sans-Serif" font-size="10.00">BaseStationCode/src</text>
<text text-anchor="middle" x="761" y="-141.5" font-family="Helvetica,sans-Serif" font-size="10.00">/src/lora.cpp</text>
</a>
</g>
</g>
<!-- Node8&#45;&gt;Node9 -->
<g id="edge12" class="edge">
<title>Node8&#45;&gt;Node9</title>
<path fill="none" stroke="midnightblue" d="M741.72,-192.28C745.99,-183.02 750.77,-172.66 754.5,-164.58"/>
<polygon fill="midnightblue" stroke="midnightblue" points="738.52,-190.85 737.51,-201.4 744.88,-193.78 738.52,-190.85"/>
</g>
<!-- Node8&#45;&gt;Node10 -->
<g id="edge13" class="edge">
<title>Node8&#45;&gt;Node10</title>
<path fill="none" stroke="midnightblue" d="M684.79,-197.41C660.84,-187.03 632.56,-174.2 612.51,-164.58"/>
<polygon fill="midnightblue" stroke="midnightblue" points="683.51,-200.66 694.08,-201.4 686.27,-194.23 683.51,-200.66"/>
</g>
<!-- Node10&#45;&gt;Node2 -->
<g id="edge14" class="edge">
<title>Node10&#45;&gt;Node2</title>
<path fill="none" stroke="midnightblue" d="M597.98,-125.12C610.87,-97.68 631.82,-53.09 642.41,-30.52"/>
<polygon fill="midnightblue" stroke="midnightblue" points="594.72,-123.83 593.64,-134.37 601.05,-126.81 594.72,-123.83"/>
</g>
<!-- Node10&#45;&gt;Node5 -->
<g id="edge15" class="edge">
<title>Node10&#45;&gt;Node5</title>
<path fill="none" stroke="midnightblue" d="M518.47,-137.99C436.1,-125.37 299.27,-104.39 221.59,-92.48"/>
<polygon fill="midnightblue" stroke="midnightblue" points="518.07,-141.47 528.49,-139.53 519.14,-134.56 518.07,-141.47"/>
</g>
<!-- Node10&#45;&gt;Node7 -->
<g id="edge21" class="edge">
<title>Node10&#45;&gt;Node7</title>
<path fill="none" stroke="midnightblue" d="M568.14,-172.34C544.62,-199.57 505.08,-245.35 485.2,-268.37"/>
<polygon fill="midnightblue" stroke="midnightblue" points="571,-174.38 574.89,-164.52 565.7,-169.81 571,-174.38"/>
</g>
<!-- Node10&#45;&gt;Node8 -->
<g id="edge16" class="edge">
<title>Node10&#45;&gt;Node8</title>
<path fill="none" stroke="midnightblue" d="M633.14,-168.56C657.09,-178.94 685.37,-191.77 705.43,-201.4"/>
<polygon fill="midnightblue" stroke="midnightblue" points="634.43,-165.31 623.86,-164.58 631.67,-171.74 634.43,-165.31"/>
</g>
<!-- Node10&#45;&gt;Node11 -->
<g id="edge17" class="edge">
<title>Node10&#45;&gt;Node11</title>
<path fill="none" stroke="midnightblue" d="M562.88,-127.6C551.56,-117.78 538.36,-106.34 528.24,-97.58"/>
<polygon fill="midnightblue" stroke="midnightblue" points="560.88,-130.49 570.73,-134.4 565.46,-125.2 560.88,-130.49"/>
</g>
<!-- Node10&#45;&gt;Node12 -->
<g id="edge18" class="edge">
<title>Node10&#45;&gt;Node12</title>
<path fill="none" stroke="midnightblue" d="M655.82,-138.74C668.19,-137.09 680.97,-135.44 693,-134 849.23,-115.3 1033.9,-97.5 1126.24,-88.89"/>
<polygon fill="midnightblue" stroke="midnightblue" points="654.99,-135.32 645.55,-140.13 655.93,-142.26 654.99,-135.32"/>
</g>
<!-- Node14 -->
<g id="node14" class="node">
<title>Node14</title>
<g id="a_node14"><a xlink:href="timeseries_8cpp.html" target="_top" xlink:title=" ">
<polygon fill="white" stroke="black" points="714.5,-67.5 714.5,-97.5 831.5,-97.5 831.5,-67.5 714.5,-67.5"/>
<text text-anchor="start" x="722.5" y="-85.5" font-family="Helvetica,sans-Serif" font-size="10.00">BaseStationCode/src</text>
<text text-anchor="middle" x="773" y="-74.5" font-family="Helvetica,sans-Serif" font-size="10.00">/src/timeseries.cpp</text>
</a>
</g>
</g>
<!-- Node10&#45;&gt;Node14 -->
<g id="edge22" class="edge">
<title>Node10&#45;&gt;Node14</title>
<path fill="none" stroke="midnightblue" d="M636.81,-131.09C666.84,-120.6 704.59,-107.41 732.72,-97.58"/>
<polygon fill="midnightblue" stroke="midnightblue" points="635.64,-127.79 627.36,-134.4 637.95,-134.4 635.64,-127.79"/>
</g>
<!-- Node12&#45;&gt;Node2 -->
<g id="edge19" class="edge">
<title>Node12&#45;&gt;Node2</title>
<path fill="none" stroke="midnightblue" d="M1115.91,-67.62C1114.6,-67.4 1113.29,-67.2 1112,-67 967.34,-44.79 795.79,-28.74 707.69,-21.24"/>
<polygon fill="midnightblue" stroke="midnightblue" points="1115.67,-71.12 1126.11,-69.34 1116.84,-64.22 1115.67,-71.12"/>
</g>
<!-- Node13 -->
<g id="node13" class="node">
<title>Node13</title>
<g id="a_node13"><a xlink:href="ota_8cpp.html" target="_top" xlink:title="Handles over the air (OTA) updates.">
<polygon fill="white" stroke="black" points="1126.5,-0.5 1126.5,-30.5 1243.5,-30.5 1243.5,-0.5 1126.5,-0.5"/>
<text text-anchor="start" x="1134.5" y="-18.5" font-family="Helvetica,sans-Serif" font-size="10.00">BaseStationCode/src</text>
<text text-anchor="middle" x="1185" y="-7.5" font-family="Helvetica,sans-Serif" font-size="10.00">/src/ota.cpp</text>
</a>
</g>
</g>
<!-- Node12&#45;&gt;Node13 -->
<g id="edge20" class="edge">
<title>Node12&#45;&gt;Node13</title>
<path fill="none" stroke="midnightblue" d="M1185,-57.11C1185,-48.15 1185,-38.32 1185,-30.58"/>
<polygon fill="midnightblue" stroke="midnightblue" points="1181.5,-57.4 1185,-67.4 1188.5,-57.4 1181.5,-57.4"/>
</g>
<!-- Node16&#45;&gt;Node2 -->
<g id="edge26" class="edge">
<title>Node16&#45;&gt;Node2</title>
<path fill="none" stroke="midnightblue" d="M1008.79,-463.94C1020.65,-455.81 1032.89,-445.37 1041,-433 1061.4,-401.9 1060,-388.69 1060,-351.5 1060,-351.5 1060,-351.5 1060,-148.5 1060,-75.43 821.53,-37.09 707.89,-22.97"/>
<polygon fill="midnightblue" stroke="midnightblue" points="1006.77,-461.07 1000.28,-469.44 1010.57,-466.95 1006.77,-461.07"/>
</g>
<!-- Node17 -->
<g id="node17" class="node">
<title>Node17</title>
<g id="a_node17"><a xlink:href="audio_8cpp.html" target="_top" xlink:title="Plays audio.">
<polygon fill="white" stroke="black" points="914.5,-402.5 914.5,-432.5 1031.5,-432.5 1031.5,-402.5 914.5,-402.5"/>
<text text-anchor="start" x="922.5" y="-420.5" font-family="Helvetica,sans-Serif" font-size="10.00">BaseStationCode/src</text>
<text text-anchor="middle" x="973" y="-409.5" font-family="Helvetica,sans-Serif" font-size="10.00">/src/audio.cpp</text>
</a>
</g>
</g>
<!-- Node16&#45;&gt;Node17 -->
<g id="edge27" class="edge">
<title>Node16&#45;&gt;Node17</title>
<path fill="none" stroke="midnightblue" d="M973,-459.11C973,-450.15 973,-440.32 973,-432.58"/>
<polygon fill="midnightblue" stroke="midnightblue" points="969.5,-459.4 973,-469.4 976.5,-459.4 969.5,-459.4"/>
</g>
<!-- Node19 -->
<g id="node19" class="node">
<title>Node19</title>
<g id="a_node19"><a xlink:href="conversions_8cpp.html" target="_top" xlink:title="General functions for converting to and from char arrays.">
<polygon fill="white" stroke="black" points="241.5,-402.5 241.5,-432.5 358.5,-432.5 358.5,-402.5 241.5,-402.5"/>
<text text-anchor="start" x="249.5" y="-420.5" font-family="Helvetica,sans-Serif" font-size="10.00">BaseStationCode/src</text>
<text text-anchor="middle" x="300" y="-409.5" font-family="Helvetica,sans-Serif" font-size="10.00">/src/conversions.cpp</text>
</a>
</g>
</g>
<!-- Node18&#45;&gt;Node19 -->
<g id="edge29" class="edge">
<title>Node18&#45;&gt;Node19</title>
<path fill="none" stroke="midnightblue" d="M367.5,-463.73C352.49,-453.68 334.6,-441.68 321.01,-432.58"/>
<polygon fill="midnightblue" stroke="midnightblue" points="365.7,-466.74 375.95,-469.4 369.59,-460.92 365.7,-466.74"/>
</g>
<!-- Node18&#45;&gt;Node20 -->
<g id="edge30" class="edge">
<title>Node18&#45;&gt;Node20</title>
<path fill="none" stroke="midnightblue" d="M410.4,-460.58C415.86,-451.24 421.99,-440.75 426.77,-432.58"/>
<polygon fill="midnightblue" stroke="midnightblue" points="407.27,-459 405.25,-469.4 413.31,-462.53 407.27,-459"/>
</g>
<!-- Node20&#45;&gt;Node7 -->
<g id="edge41" class="edge">
<title>Node20&#45;&gt;Node7</title>
<path fill="none" stroke="midnightblue" d="M396.1,-396.86C384.59,-388.96 373.37,-378.67 367,-366 360.81,-353.69 359.65,-346.65 367,-335 377.94,-317.68 396.62,-306.17 415.29,-298.59"/>
<polygon fill="midnightblue" stroke="midnightblue" points="394.57,-400.03 404.88,-402.44 398.32,-394.13 394.57,-400.03"/>
</g>
<!-- Node21 -->
<g id="node21" class="node">
<title>Node21</title>
<g id="a_node21"><a xlink:href="device__list_8h.html" target="_top" xlink:title="List of all devices and fields known to the system.">
<polygon fill="white" stroke="black" points="240.5,-268.5 240.5,-298.5 357.5,-298.5 357.5,-268.5 240.5,-268.5"/>
<text text-anchor="start" x="248.5" y="-286.5" font-family="Helvetica,sans-Serif" font-size="10.00">BaseStationCode/src</text>
<text text-anchor="middle" x="299" y="-275.5" font-family="Helvetica,sans-Serif" font-size="10.00">/device_list.h</text>
</a>
</g>
</g>
<!-- Node20&#45;&gt;Node21 -->
<g id="edge31" class="edge">
<title>Node20&#45;&gt;Node21</title>
<path fill="none" stroke="midnightblue" d="M399.86,-397.21C385.99,-388.67 370.42,-377.86 358,-366 336.4,-345.37 317.33,-315.94 307.05,-298.67"/>
<polygon fill="midnightblue" stroke="midnightblue" points="398.31,-400.36 408.69,-402.48 401.9,-394.35 398.31,-400.36"/>
</g>
<!-- Node20&#45;&gt;Node22 -->
<g id="edge33" class="edge">
<title>Node20&#45;&gt;Node22</title>
<path fill="none" stroke="midnightblue" d="M490.63,-399.44C524.99,-388.91 568.56,-375.55 600.98,-365.61"/>
<polygon fill="midnightblue" stroke="midnightblue" points="489.27,-396.2 480.74,-402.48 491.33,-402.89 489.27,-396.2"/>
</g>
<!-- Node24 -->
<g id="node24" class="node">
<title>Node24</title>
<g id="a_node24"><a xlink:href="fields_8cpp.html" target="_top" xlink:title="Contains fields classes.">
<polygon fill="white" stroke="black" points="376.5,-335.5 376.5,-365.5 493.5,-365.5 493.5,-335.5 376.5,-335.5"/>
<text text-anchor="start" x="384.5" y="-353.5" font-family="Helvetica,sans-Serif" font-size="10.00">BaseStationCode/src</text>
<text text-anchor="middle" x="435" y="-342.5" font-family="Helvetica,sans-Serif" font-size="10.00">/src/fields.cpp</text>
</a>
</g>
</g>
<!-- Node20&#45;&gt;Node24 -->
<g id="edge40" class="edge">
<title>Node20&#45;&gt;Node24</title>
<path fill="none" stroke="midnightblue" d="M435,-392.11C435,-383.15 435,-373.32 435,-365.58"/>
<polygon fill="midnightblue" stroke="midnightblue" points="431.5,-392.4 435,-402.4 438.5,-392.4 431.5,-392.4"/>
</g>
<!-- Node21&#45;&gt;Node2 -->
<g id="edge32" class="edge">
<title>Node21&#45;&gt;Node2</title>
<path fill="none" stroke="midnightblue" d="M302.24,-258.18C309.85,-211.82 333.56,-111.46 400,-67 457,-28.85 536.63,-18.42 590.36,-16.1"/>
<polygon fill="midnightblue" stroke="midnightblue" points="298.76,-257.82 300.71,-268.23 305.67,-258.87 298.76,-257.82"/>
</g>
<!-- Node22&#45;&gt;Node5 -->
<g id="edge36" class="edge">
<title>Node22&#45;&gt;Node5</title>
<path fill="none" stroke="midnightblue" d="M578.37,-344.71C528.13,-338.99 459.51,-326.46 405,-299 391.5,-292.2 229.98,-144.82 178.59,-97.79"/>
<polygon fill="midnightblue" stroke="midnightblue" points="578.16,-348.21 588.48,-345.8 578.91,-341.25 578.16,-348.21"/>
</g>
<!-- Node22&#45;&gt;Node7 -->
<g id="edge39" class="edge">
<title>Node22&#45;&gt;Node7</title>
<path fill="none" stroke="midnightblue" d="M599.67,-331.82C571.7,-321.37 536.77,-308.32 510.68,-298.58"/>
<polygon fill="midnightblue" stroke="midnightblue" points="598.65,-335.18 609.24,-335.4 601.1,-328.62 598.65,-335.18"/>
</g>
<!-- Node22&#45;&gt;Node8 -->
<g id="edge37" class="edge">
<title>Node22&#45;&gt;Node8</title>
<path fill="none" stroke="midnightblue" d="M713.45,-331.13C728.67,-323.68 743,-313.32 752,-299 765.22,-277.97 751.62,-248.93 740.99,-231.79"/>
<polygon fill="midnightblue" stroke="midnightblue" points="711.6,-328.12 703.91,-335.4 714.46,-334.51 711.6,-328.12"/>
</g>
<!-- Node22&#45;&gt;Node10 -->
<g id="edge38" class="edge">
<title>Node22&#45;&gt;Node10</title>
<path fill="none" stroke="midnightblue" d="M631.22,-326.67C626.03,-318.28 620.66,-308.5 617,-299 598.85,-251.88 591.05,-191.91 588.28,-164.87"/>
<polygon fill="midnightblue" stroke="midnightblue" points="628.33,-328.64 636.69,-335.15 634.21,-324.84 628.33,-328.64"/>
</g>
<!-- Node22&#45;&gt;Node21 -->
<g id="edge34" class="edge">
<title>Node22&#45;&gt;Node21</title>
<path fill="none" stroke="midnightblue" d="M578.38,-337.18C522.72,-327.12 442.24,-312.43 372,-299 367.3,-298.1 362.44,-297.16 357.56,-296.21"/>
<polygon fill="midnightblue" stroke="midnightblue" points="578.02,-340.67 588.48,-339.01 579.26,-333.79 578.02,-340.67"/>
</g>
<!-- Node23 -->
<g id="node23" class="node">
<title>Node23</title>
<g id="a_node23"><a xlink:href="devices_8cpp.html" target="_top" xlink:title="Devices and manager for all known devices the base station connects to.">
<polygon fill="white" stroke="black" points="626.5,-268.5 626.5,-298.5 743.5,-298.5 743.5,-268.5 626.5,-268.5"/>
<text text-anchor="start" x="634.5" y="-286.5" font-family="Helvetica,sans-Serif" font-size="10.00">BaseStationCode/src</text>
<text text-anchor="middle" x="685" y="-275.5" font-family="Helvetica,sans-Serif" font-size="10.00">/src/devices.cpp</text>
</a>
</g>
</g>
<!-- Node22&#45;&gt;Node23 -->
<g id="edge35" class="edge">
<title>Node22&#45;&gt;Node23</title>
<path fill="none" stroke="midnightblue" d="M660.4,-326.58C665.86,-317.24 671.99,-306.75 676.77,-298.58"/>
<polygon fill="midnightblue" stroke="midnightblue" points="657.27,-325 655.25,-335.4 663.31,-328.53 657.27,-325"/>
</g>
<!-- Node25&#45;&gt;Node8 -->
<g id="edge48" class="edge">
<title>Node25&#45;&gt;Node8</title>
<path fill="none" stroke="midnightblue" d="M667.72,-461.75C697,-429.35 749.12,-365.11 769,-299 772.97,-285.81 773.37,-281.07 769,-268 764.41,-254.26 754.45,-241.27 745.88,-231.9"/>
<polygon fill="midnightblue" stroke="midnightblue" points="664.99,-459.55 660.81,-469.28 670.15,-464.28 664.99,-459.55"/>
</g>
<!-- Node25&#45;&gt;Node20 -->
<g id="edge47" class="edge">
<title>Node25&#45;&gt;Node20</title>
<path fill="none" stroke="midnightblue" d="M591.37,-466.44C557.01,-455.91 513.44,-442.55 481.02,-432.61"/>
<polygon fill="midnightblue" stroke="midnightblue" points="590.67,-469.89 601.26,-469.48 592.73,-463.2 590.67,-469.89"/>
</g>
<!-- Node25&#45;&gt;Node22 -->
<g id="edge46" class="edge">
<title>Node25&#45;&gt;Node22</title>
<path fill="none" stroke="midnightblue" d="M647,-459.02C647,-431.51 647,-387.79 647,-365.52"/>
<polygon fill="midnightblue" stroke="midnightblue" points="643.5,-459.37 647,-469.37 650.5,-459.37 643.5,-459.37"/>
</g>
<!-- Node26&#45;&gt;Node2 -->
<g id="edge54" class="edge">
<title>Node26&#45;&gt;Node2</title>
<path fill="none" stroke="midnightblue" d="M885.66,-125.16C876.31,-106.7 860.82,-81.66 840,-67 801.02,-39.55 748.06,-27.02 707.79,-21.3"/>
<polygon fill="midnightblue" stroke="midnightblue" points="882.61,-126.89 890.11,-134.38 888.92,-123.85 882.61,-126.89"/>
</g>
<!-- Node26&#45;&gt;Node14 -->
<g id="edge55" class="edge">
<title>Node26&#45;&gt;Node14</title>
<path fill="none" stroke="midnightblue" d="M860.45,-129.71C841.05,-119.46 817.44,-106.98 799.64,-97.58"/>
<polygon fill="midnightblue" stroke="midnightblue" points="858.83,-132.82 869.31,-134.4 862.1,-126.63 858.83,-132.82"/>
</g>
</g>
</svg>
