<?xml version="1.0" encoding="UTF-8" standalone="no"?>
<!DOCTYPE svg PUBLIC "-//W3C//DTD SVG 1.1//EN"
 "http://www.w3.org/Graphics/SVG/1.1/DTD/svg11.dtd">
<!-- Generated by graphviz version 2.43.0 (0)
 -->
<!-- Title: ESP32BaseStation/defines.h Pages: 1 -->
<svg width="1087pt" height="564pt"
 viewBox="0.00 0.00 1087.00 564.00" xmlns="http://www.w3.org/2000/svg" xmlns:xlink="http://www.w3.org/1999/xlink">
<g id="graph0" class="graph" transform="scale(1 1) rotate(0) translate(4 560)">
<title>ESP32BaseStation/defines.h</title>
<polygon fill="white" stroke="transparent" points="-4,4 -4,-560 1083,-560 1083,4 -4,4"/>
<!-- Node1 -->
<g id="node1" class="node">
<title>Node1</title>
<g id="a_node1"><a xlink:title="Definitions and other preprocessor and global stuff.">
<polygon fill="#bfbfbf" stroke="black" points="464,-536.5 464,-555.5 616,-555.5 616,-536.5 464,-536.5"/>
<text text-anchor="middle" x="540" y="-543.5" font-family="Helvetica,sans-Serif" font-size="10.00">ESP32BaseStation/defines.h</text>
</a>
</g>
</g>
<!-- Node2 -->
<g id="node2" class="node">
<title>Node2</title>
<g id="a_node2"><a xlink:href="_e_s_p32_base_station_8ino.html" target="_top" xlink:title="Main file for a base station to connect to remote sensors on a farm.">
<polygon fill="white" stroke="black" points="399,-0.5 399,-30.5 561,-30.5 561,-0.5 399,-0.5"/>
<text text-anchor="start" x="407" y="-18.5" font-family="Helvetica,sans-Serif" font-size="10.00">ESP32BaseStation/ESP32Base</text>
<text text-anchor="middle" x="480" y="-7.5" font-family="Helvetica,sans-Serif" font-size="10.00">Station.ino</text>
</a>
</g>
</g>
<!-- Node1&#45;&gt;Node2 -->
<g id="edge1" class="edge">
<title>Node1&#45;&gt;Node2</title>
<path fill="none" stroke="midnightblue" d="M453.5,-542.47C300.94,-535.64 0,-510.51 0,-418.5 0,-418.5 0,-418.5 0,-148.5 0,-66.77 261.97,-33.76 398.85,-22.09"/>
<polygon fill="midnightblue" stroke="midnightblue" points="453.64,-545.98 463.78,-542.91 453.94,-538.99 453.64,-545.98"/>
</g>
<!-- Node3 -->
<g id="node3" class="node">
<title>Node3</title>
<g id="a_node3"><a xlink:href="alarm_8h.html" target="_top" xlink:title="Handles alarms.">
<polygon fill="white" stroke="black" points="244,-335.5 244,-365.5 366,-365.5 366,-335.5 244,-335.5"/>
<text text-anchor="start" x="252" y="-353.5" font-family="Helvetica,sans-Serif" font-size="10.00">ESP32BaseStation/src</text>
<text text-anchor="middle" x="305" y="-342.5" font-family="Helvetica,sans-Serif" font-size="10.00">/alarm.h</text>
</a>
</g>
</g>
<!-- Node1&#45;&gt;Node3 -->
<g id="edge2" class="edge">
<title>Node1&#45;&gt;Node3</title>
<path fill="none" stroke="midnightblue" d="M473.98,-533.98C448.63,-527.3 420.63,-516.71 399,-500 351.43,-463.26 321.41,-395.12 310.1,-365.67"/>
<polygon fill="midnightblue" stroke="midnightblue" points="473.36,-537.43 483.91,-536.43 475.04,-530.63 473.36,-537.43"/>
</g>
<!-- Node5 -->
<g id="node5" class="node">
<title>Node5</title>
<g id="a_node5"><a xlink:href="audio_8h.html" target="_top" xlink:title="Plays audio.">
<polygon fill="white" stroke="black" points="47,-268.5 47,-298.5 169,-298.5 169,-268.5 47,-268.5"/>
<text text-anchor="start" x="55" y="-286.5" font-family="Helvetica,sans-Serif" font-size="10.00">ESP32BaseStation/src</text>
<text text-anchor="middle" x="108" y="-275.5" font-family="Helvetica,sans-Serif" font-size="10.00">/audio.h</text>
</a>
</g>
</g>
<!-- Node1&#45;&gt;Node5 -->
<g id="edge23" class="edge">
<title>Node1&#45;&gt;Node5</title>
<path fill="none" stroke="midnightblue" d="M470.43,-534.51C437.25,-527.69 397.74,-516.83 365,-500 257.28,-444.64 154.94,-336.98 120.36,-298.55"/>
<polygon fill="midnightblue" stroke="midnightblue" points="470.02,-538 480.51,-536.5 471.37,-531.13 470.02,-538"/>
</g>
<!-- Node7 -->
<g id="node7" class="node">
<title>Node7</title>
<g id="a_node7"><a xlink:href="leds_8h.html" target="_top" xlink:title="Controls the LEDs on the unit.">
<polygon fill="white" stroke="black" points="866,-67.5 866,-97.5 988,-97.5 988,-67.5 866,-67.5"/>
<text text-anchor="start" x="874" y="-85.5" font-family="Helvetica,sans-Serif" font-size="10.00">ESP32BaseStation/src</text>
<text text-anchor="middle" x="927" y="-74.5" font-family="Helvetica,sans-Serif" font-size="10.00">/leds.h</text>
</a>
</g>
</g>
<!-- Node1&#45;&gt;Node7 -->
<g id="edge40" class="edge">
<title>Node1&#45;&gt;Node7</title>
<path fill="none" stroke="midnightblue" d="M626.34,-542.44C778.62,-535.56 1079,-510.35 1079,-418.5 1079,-418.5 1079,-418.5 1079,-215.5 1079,-155.56 1010.78,-116.69 965.75,-97.56"/>
<polygon fill="midnightblue" stroke="midnightblue" points="625.92,-538.96 616.08,-542.89 626.22,-545.95 625.92,-538.96"/>
</g>
<!-- Node9 -->
<g id="node9" class="node">
<title>Node9</title>
<g id="a_node9"><a xlink:href="rpc_8h.html" target="_top" xlink:title="Handles RPC calls.">
<polygon fill="white" stroke="black" points="441,-268.5 441,-298.5 563,-298.5 563,-268.5 441,-268.5"/>
<text text-anchor="start" x="449" y="-286.5" font-family="Helvetica,sans-Serif" font-size="10.00">ESP32BaseStation/src</text>
<text text-anchor="middle" x="502" y="-275.5" font-family="Helvetica,sans-Serif" font-size="10.00">/rpc.h</text>
</a>
</g>
</g>
<!-- Node1&#45;&gt;Node9 -->
<g id="edge47" class="edge">
<title>Node1&#45;&gt;Node9</title>
<path fill="none" stroke="midnightblue" d="M506.18,-531.96C492.36,-524.76 477.82,-514.32 470,-500 432.84,-431.94 475.72,-334.69 494.27,-298.65"/>
<polygon fill="midnightblue" stroke="midnightblue" points="505,-535.28 515.53,-536.44 508.02,-528.97 505,-535.28"/>
</g>
<!-- Node10 -->
<g id="node10" class="node">
<title>Node10</title>
<g id="a_node10"><a xlink:href="lora_8h.html" target="_top" xlink:title="File that handles the LoRa radio and PJON.">
<polygon fill="white" stroke="black" points="777,-201.5 777,-231.5 899,-231.5 899,-201.5 777,-201.5"/>
<text text-anchor="start" x="785" y="-219.5" font-family="Helvetica,sans-Serif" font-size="10.00">ESP32BaseStation/src</text>
<text text-anchor="middle" x="838" y="-208.5" font-family="Helvetica,sans-Serif" font-size="10.00">/lora.h</text>
</a>
</g>
</g>
<!-- Node1&#45;&gt;Node10 -->
<g id="edge45" class="edge">
<title>Node1&#45;&gt;Node10</title>
<path fill="none" stroke="midnightblue" d="M626.44,-539.05C760.43,-527.42 1003,-495.7 1003,-418.5 1003,-418.5 1003,-418.5 1003,-349.5 1003,-308.95 991.79,-295.51 962,-268 943.56,-250.97 918.61,-239.32 895.92,-231.54"/>
<polygon fill="midnightblue" stroke="midnightblue" points="625.86,-535.59 616.2,-539.92 626.46,-542.56 625.86,-535.59"/>
</g>
<!-- Node12 -->
<g id="node12" class="node">
<title>Node12</title>
<g id="a_node12"><a xlink:href="networking_8h.html" target="_top" xlink:title="Header file for networking.cpp.">
<polygon fill="white" stroke="black" points="688,-134.5 688,-164.5 810,-164.5 810,-134.5 688,-134.5"/>
<text text-anchor="start" x="696" y="-152.5" font-family="Helvetica,sans-Serif" font-size="10.00">ESP32BaseStation/src</text>
<text text-anchor="middle" x="749" y="-141.5" font-family="Helvetica,sans-Serif" font-size="10.00">/networking.h</text>
</a>
</g>
</g>
<!-- Node1&#45;&gt;Node12 -->
<g id="edge46" class="edge">
<title>Node1&#45;&gt;Node12</title>
<path fill="none" stroke="midnightblue" d="M504.79,-532.51C487.81,-525.12 468.13,-514.36 454,-500 425.56,-471.1 413,-459.05 413,-418.5 413,-418.5 413,-418.5 413,-282.5 413,-240.91 425.02,-224.99 459,-201 494.96,-175.62 613.82,-161.53 687.74,-155.03"/>
<polygon fill="midnightblue" stroke="midnightblue" points="503.82,-535.9 514.4,-536.48 506.49,-529.43 503.82,-535.9"/>
</g>
<!-- Node15 -->
<g id="node15" class="node">
<title>Node15</title>
<g id="a_node15"><a xlink:href="conversions_8h.html" target="_top" xlink:title="General functions for converting to and from char arrays.">
<polygon fill="white" stroke="black" points="479,-469.5 479,-499.5 601,-499.5 601,-469.5 479,-469.5"/>
<text text-anchor="start" x="487" y="-487.5" font-family="Helvetica,sans-Serif" font-size="10.00">ESP32BaseStation/src</text>
<text text-anchor="middle" x="540" y="-476.5" font-family="Helvetica,sans-Serif" font-size="10.00">/conversions.h</text>
</a>
</g>
</g>
<!-- Node1&#45;&gt;Node15 -->
<g id="edge24" class="edge">
<title>Node1&#45;&gt;Node15</title>
<path fill="none" stroke="midnightblue" d="M540,-526.23C540,-517.59 540,-507.5 540,-499.52"/>
<polygon fill="midnightblue" stroke="midnightblue" points="536.5,-526.48 540,-536.48 543.5,-526.48 536.5,-526.48"/>
</g>
<!-- Node17 -->
<g id="node17" class="node">
<title>Node17</title>
<g id="a_node17"><a xlink:href="fields_8h.html" target="_top" xlink:title="Contains fields classes.">
<polygon fill="white" stroke="black" points="619,-402.5 619,-432.5 741,-432.5 741,-402.5 619,-402.5"/>
<text text-anchor="start" x="627" y="-420.5" font-family="Helvetica,sans-Serif" font-size="10.00">ESP32BaseStation/src</text>
<text text-anchor="middle" x="680" y="-409.5" font-family="Helvetica,sans-Serif" font-size="10.00">/fields.h</text>
</a>
</g>
</g>
<!-- Node1&#45;&gt;Node17 -->
<g id="edge39" class="edge">
<title>Node1&#45;&gt;Node17</title>
<path fill="none" stroke="midnightblue" d="M565.22,-531.21C579.11,-523.03 596.28,-511.95 610,-500 634.06,-479.06 657.21,-449.73 669.93,-432.56"/>
<polygon fill="midnightblue" stroke="midnightblue" points="563.13,-528.37 556.2,-536.38 566.62,-534.44 563.13,-528.37"/>
</g>
<!-- Node19 -->
<g id="node19" class="node">
<title>Node19</title>
<g id="a_node19"><a xlink:href="devices_8h.html" target="_top" xlink:title="Devices and manager for all known devices the base station connects to.">
<polygon fill="white" stroke="black" points="737,-335.5 737,-365.5 859,-365.5 859,-335.5 737,-335.5"/>
<text text-anchor="start" x="745" y="-353.5" font-family="Helvetica,sans-Serif" font-size="10.00">ESP32BaseStation/src</text>
<text text-anchor="middle" x="798" y="-342.5" font-family="Helvetica,sans-Serif" font-size="10.00">/devices.h</text>
</a>
</g>
</g>
<!-- Node1&#45;&gt;Node19 -->
<g id="edge38" class="edge">
<title>Node1&#45;&gt;Node19</title>
<path fill="none" stroke="midnightblue" d="M626.38,-540.39C689.17,-535.09 766.73,-523.8 788,-500 821.75,-462.24 809.68,-395.25 802.17,-365.92"/>
<polygon fill="midnightblue" stroke="midnightblue" points="625.73,-536.94 616.05,-541.23 626.29,-543.91 625.73,-536.94"/>
</g>
<!-- Node22 -->
<g id="node22" class="node">
<title>Node22</title>
<g id="a_node22"><a xlink:href="lookups_8h.html" target="_top" xlink:title="Lookupable and lookupable manager base classes.">
<polygon fill="white" stroke="black" points="657,-469.5 657,-499.5 779,-499.5 779,-469.5 657,-469.5"/>
<text text-anchor="start" x="665" y="-487.5" font-family="Helvetica,sans-Serif" font-size="10.00">ESP32BaseStation/src</text>
<text text-anchor="middle" x="718" y="-476.5" font-family="Helvetica,sans-Serif" font-size="10.00">/lookups.h</text>
</a>
</g>
</g>
<!-- Node1&#45;&gt;Node22 -->
<g id="edge41" class="edge">
<title>Node1&#45;&gt;Node22</title>
<path fill="none" stroke="midnightblue" d="M575.21,-533.23C604.19,-523.54 645.36,-509.78 676.05,-499.52"/>
<polygon fill="midnightblue" stroke="midnightblue" points="573.88,-529.99 565.5,-536.48 576.1,-536.62 573.88,-529.99"/>
</g>
<!-- Node3&#45;&gt;Node2 -->
<g id="edge3" class="edge">
<title>Node3&#45;&gt;Node2</title>
<path fill="none" stroke="midnightblue" d="M251.52,-330.82C237.5,-323.21 224.07,-312.85 216,-299 209.07,-287.09 210.57,-280.66 216,-268 265.86,-151.63 398.95,-63.58 454.79,-30.63"/>
<polygon fill="midnightblue" stroke="midnightblue" points="250.26,-334.1 260.77,-335.44 253.39,-327.84 250.26,-334.1"/>
</g>
<!-- Node4 -->
<g id="node4" class="node">
<title>Node4</title>
<g id="a_node4"><a xlink:href="alarm_8cpp.html" target="_top" xlink:title="Handles alarms.">
<polygon fill="white" stroke="black" points="225,-268.5 225,-298.5 347,-298.5 347,-268.5 225,-268.5"/>
<text text-anchor="start" x="233" y="-286.5" font-family="Helvetica,sans-Serif" font-size="10.00">ESP32BaseStation/src</text>
<text text-anchor="middle" x="286" y="-275.5" font-family="Helvetica,sans-Serif" font-size="10.00">/alarm.cpp</text>
</a>
</g>
</g>
<!-- Node3&#45;&gt;Node4 -->
<g id="edge4" class="edge">
<title>Node3&#45;&gt;Node4</title>
<path fill="none" stroke="midnightblue" d="M298.04,-325.7C295.38,-316.59 292.43,-306.49 290.11,-298.58"/>
<polygon fill="midnightblue" stroke="midnightblue" points="294.71,-326.78 300.88,-335.4 301.43,-324.82 294.71,-326.78"/>
</g>
<!-- Node3&#45;&gt;Node5 -->
<g id="edge5" class="edge">
<title>Node3&#45;&gt;Node5</title>
<path fill="none" stroke="midnightblue" d="M252.65,-332.23C220.78,-321.71 180.59,-308.45 150.66,-298.58"/>
<polygon fill="midnightblue" stroke="midnightblue" points="251.66,-335.59 262.25,-335.4 253.85,-328.94 251.66,-335.59"/>
</g>
<!-- Node3&#45;&gt;Node7 -->
<g id="edge8" class="edge">
<title>Node3&#45;&gt;Node7</title>
<path fill="none" stroke="midnightblue" d="M329.92,-328.44C338.94,-319.95 348.69,-309.64 356,-299 382.93,-259.8 362.5,-231.5 399,-201 434.9,-171 734.77,-116.52 865.95,-93.84"/>
<polygon fill="midnightblue" stroke="midnightblue" points="327.31,-326.08 322.27,-335.4 332.02,-331.26 327.31,-326.08"/>
</g>
<!-- Node3&#45;&gt;Node9 -->
<g id="edge11" class="edge">
<title>Node3&#45;&gt;Node9</title>
<path fill="none" stroke="midnightblue" d="M357.35,-332.23C389.22,-321.71 429.41,-308.45 459.34,-298.58"/>
<polygon fill="midnightblue" stroke="midnightblue" points="356.15,-328.94 347.75,-335.4 358.34,-335.59 356.15,-328.94"/>
</g>
<!-- Node5&#45;&gt;Node2 -->
<g id="edge6" class="edge">
<title>Node5&#45;&gt;Node2</title>
<path fill="none" stroke="midnightblue" d="M134.25,-261.64C143.25,-253.29 152.65,-243.02 159,-232 196.83,-166.33 146.44,-118.53 202,-67 230.05,-40.98 327.15,-27.92 398.72,-21.69"/>
<polygon fill="midnightblue" stroke="midnightblue" points="131.7,-259.22 126.53,-268.46 136.34,-264.47 131.7,-259.22"/>
</g>
<!-- Node6 -->
<g id="node6" class="node">
<title>Node6</title>
<g id="a_node6"><a xlink:href="audio_8cpp.html" target="_top" xlink:title="Plays audio.">
<polygon fill="white" stroke="black" points="28,-201.5 28,-231.5 150,-231.5 150,-201.5 28,-201.5"/>
<text text-anchor="start" x="36" y="-219.5" font-family="Helvetica,sans-Serif" font-size="10.00">ESP32BaseStation/src</text>
<text text-anchor="middle" x="89" y="-208.5" font-family="Helvetica,sans-Serif" font-size="10.00">/audio.cpp</text>
</a>
</g>
</g>
<!-- Node5&#45;&gt;Node6 -->
<g id="edge7" class="edge">
<title>Node5&#45;&gt;Node6</title>
<path fill="none" stroke="midnightblue" d="M101.04,-258.7C98.38,-249.59 95.43,-239.49 93.11,-231.58"/>
<polygon fill="midnightblue" stroke="midnightblue" points="97.71,-259.78 103.88,-268.4 104.43,-257.82 97.71,-259.78"/>
</g>
<!-- Node7&#45;&gt;Node2 -->
<g id="edge9" class="edge">
<title>Node7&#45;&gt;Node2</title>
<path fill="none" stroke="midnightblue" d="M855.79,-67.63C854.51,-67.42 853.25,-67.21 852,-67 752.16,-50.58 636.6,-35.51 561.11,-26.18"/>
<polygon fill="midnightblue" stroke="midnightblue" points="855.2,-71.08 865.66,-69.35 856.4,-64.19 855.2,-71.08"/>
</g>
<!-- Node8 -->
<g id="node8" class="node">
<title>Node8</title>
<g id="a_node8"><a xlink:href="leds_8cpp.html" target="_top" xlink:title="Controls the LEDs on the unit.">
<polygon fill="white" stroke="black" points="866,-0.5 866,-30.5 988,-30.5 988,-0.5 866,-0.5"/>
<text text-anchor="start" x="874" y="-18.5" font-family="Helvetica,sans-Serif" font-size="10.00">ESP32BaseStation/src</text>
<text text-anchor="middle" x="927" y="-7.5" font-family="Helvetica,sans-Serif" font-size="10.00">/leds.cpp</text>
</a>
</g>
</g>
<!-- Node7&#45;&gt;Node8 -->
<g id="edge10" class="edge">
<title>Node7&#45;&gt;Node8</title>
<path fill="none" stroke="midnightblue" d="M927,-57.11C927,-48.15 927,-38.32 927,-30.58"/>
<polygon fill="midnightblue" stroke="midnightblue" points="923.5,-57.4 927,-67.4 930.5,-57.4 923.5,-57.4"/>
</g>
<!-- Node9&#45;&gt;Node2 -->
<g id="edge12" class="edge">
<title>Node9&#45;&gt;Node2</title>
<path fill="none" stroke="midnightblue" d="M478,-261.14C470.41,-252.88 462.98,-242.81 459,-232 432.51,-160.04 461.57,-65.92 474.47,-30.65"/>
<polygon fill="midnightblue" stroke="midnightblue" points="475.7,-263.8 485.2,-268.47 480.69,-258.89 475.7,-263.8"/>
</g>
<!-- Node9&#45;&gt;Node10 -->
<g id="edge13" class="edge">
<title>Node9&#45;&gt;Node10</title>
<path fill="none" stroke="midnightblue" d="M573.28,-267.76C649.09,-252.77 725.3,-238.41 776.93,-228.8"/>
<polygon fill="midnightblue" stroke="midnightblue" points="572.2,-264.41 563.07,-269.79 573.56,-271.28 572.2,-264.41"/>
</g>
<!-- Node14 -->
<g id="node14" class="node">
<title>Node14</title>
<g id="a_node14"><a xlink:href="rpc_8cpp.html" target="_top" xlink:title="Handles RPC calls.">
<polygon fill="white" stroke="black" points="479,-201.5 479,-231.5 601,-231.5 601,-201.5 479,-201.5"/>
<text text-anchor="start" x="487" y="-219.5" font-family="Helvetica,sans-Serif" font-size="10.00">ESP32BaseStation/src</text>
<text text-anchor="middle" x="540" y="-208.5" font-family="Helvetica,sans-Serif" font-size="10.00">/rpc.cpp</text>
</a>
</g>
</g>
<!-- Node9&#45;&gt;Node14 -->
<g id="edge22" class="edge">
<title>Node9&#45;&gt;Node14</title>
<path fill="none" stroke="midnightblue" d="M515.4,-259.58C520.86,-250.24 526.99,-239.75 531.77,-231.58"/>
<polygon fill="midnightblue" stroke="midnightblue" points="512.27,-258 510.25,-268.4 518.31,-261.53 512.27,-258"/>
</g>
<!-- Node10&#45;&gt;Node2 -->
<g id="edge14" class="edge">
<title>Node10&#45;&gt;Node2</title>
<path fill="none" stroke="midnightblue" d="M842.89,-191.19C847.95,-158.27 851.19,-99.86 819,-67 784.13,-31.4 649.76,-20.77 561.03,-17.67"/>
<polygon fill="midnightblue" stroke="midnightblue" points="839.39,-190.85 841.15,-201.3 846.29,-192.04 839.39,-190.85"/>
</g>
<!-- Node11 -->
<g id="node11" class="node">
<title>Node11</title>
<g id="a_node11"><a xlink:href="lora_8cpp.html" target="_top" xlink:title="File that handles the LoRa radio and PJON.">
<polygon fill="white" stroke="black" points="866,-134.5 866,-164.5 988,-164.5 988,-134.5 866,-134.5"/>
<text text-anchor="start" x="874" y="-152.5" font-family="Helvetica,sans-Serif" font-size="10.00">ESP32BaseStation/src</text>
<text text-anchor="middle" x="927" y="-141.5" font-family="Helvetica,sans-Serif" font-size="10.00">/lora.cpp</text>
</a>
</g>
</g>
<!-- Node10&#45;&gt;Node11 -->
<g id="edge15" class="edge">
<title>Node10&#45;&gt;Node11</title>
<path fill="none" stroke="midnightblue" d="M865.45,-195.45C879.14,-185.45 895.37,-173.6 907.73,-164.58"/>
<polygon fill="midnightblue" stroke="midnightblue" points="863.32,-192.67 857.31,-201.4 867.45,-198.32 863.32,-192.67"/>
</g>
<!-- Node10&#45;&gt;Node12 -->
<g id="edge16" class="edge">
<title>Node10&#45;&gt;Node12</title>
<path fill="none" stroke="midnightblue" d="M804.67,-195.73C790.09,-185.68 773.87,-173.68 762.6,-164.58"/>
<polygon fill="midnightblue" stroke="midnightblue" points="802.77,-198.68 813.01,-201.4 806.7,-192.88 802.77,-198.68"/>
</g>
<!-- Node12&#45;&gt;Node2 -->
<g id="edge17" class="edge">
<title>Node12&#45;&gt;Node2</title>
<path fill="none" stroke="midnightblue" d="M720.87,-128.2C687.45,-104.09 636.15,-67.07 636,-67 604.89,-51.24 567.84,-39 537.65,-30.52"/>
<polygon fill="midnightblue" stroke="midnightblue" points="719.19,-131.31 729.35,-134.32 723.29,-125.63 719.19,-131.31"/>
</g>
<!-- Node12&#45;&gt;Node7 -->
<g id="edge18" class="edge">
<title>Node12&#45;&gt;Node7</title>
<path fill="none" stroke="midnightblue" d="M797.05,-130.96C825.72,-120.48 861.64,-107.37 888.45,-97.58"/>
<polygon fill="midnightblue" stroke="midnightblue" points="795.82,-127.68 787.62,-134.4 798.22,-134.25 795.82,-127.68"/>
</g>
<!-- Node12&#45;&gt;Node9 -->
<g id="edge21" class="edge">
<title>Node12&#45;&gt;Node9</title>
<path fill="none" stroke="midnightblue" d="M677.52,-153.33C603.77,-157.93 495.96,-169.92 470,-201 453.24,-221.07 473.45,-250.96 488.51,-268.42"/>
<polygon fill="midnightblue" stroke="midnightblue" points="677.91,-156.82 687.68,-152.73 677.49,-149.83 677.91,-156.82"/>
</g>
<!-- Node12&#45;&gt;Node10 -->
<g id="edge19" class="edge">
<title>Node12&#45;&gt;Node10</title>
<path fill="none" stroke="midnightblue" d="M782.29,-170.24C796.86,-180.29 813.08,-192.28 824.37,-201.4"/>
<polygon fill="midnightblue" stroke="midnightblue" points="784.19,-167.3 773.95,-164.58 780.26,-173.09 784.19,-167.3"/>
</g>
<!-- Node13 -->
<g id="node13" class="node">
<title>Node13</title>
<g id="a_node13"><a xlink:href="networking_8cpp.html" target="_top" xlink:title="File that handles connecting to WiFi and MQTT and staying connected.">
<polygon fill="white" stroke="black" points="688,-67.5 688,-97.5 810,-97.5 810,-67.5 688,-67.5"/>
<text text-anchor="start" x="696" y="-85.5" font-family="Helvetica,sans-Serif" font-size="10.00">ESP32BaseStation/src</text>
<text text-anchor="middle" x="749" y="-74.5" font-family="Helvetica,sans-Serif" font-size="10.00">/networking.cpp</text>
</a>
</g>
</g>
<!-- Node12&#45;&gt;Node13 -->
<g id="edge20" class="edge">
<title>Node12&#45;&gt;Node13</title>
<path fill="none" stroke="midnightblue" d="M749,-124.11C749,-115.15 749,-105.32 749,-97.58"/>
<polygon fill="midnightblue" stroke="midnightblue" points="745.5,-124.4 749,-134.4 752.5,-124.4 745.5,-124.4"/>
</g>
<!-- Node16 -->
<g id="node16" class="node">
<title>Node16</title>
<g id="a_node16"><a xlink:href="conversions_8cpp.html" target="_top" xlink:title="General functions for converting to and from char arrays.">
<polygon fill="white" stroke="black" points="479,-402.5 479,-432.5 601,-432.5 601,-402.5 479,-402.5"/>
<text text-anchor="start" x="487" y="-420.5" font-family="Helvetica,sans-Serif" font-size="10.00">ESP32BaseStation/src</text>
<text text-anchor="middle" x="540" y="-409.5" font-family="Helvetica,sans-Serif" font-size="10.00">/conversions.cpp</text>
</a>
</g>
</g>
<!-- Node15&#45;&gt;Node16 -->
<g id="edge25" class="edge">
<title>Node15&#45;&gt;Node16</title>
<path fill="none" stroke="midnightblue" d="M540,-459.11C540,-450.15 540,-440.32 540,-432.58"/>
<polygon fill="midnightblue" stroke="midnightblue" points="536.5,-459.4 540,-469.4 543.5,-459.4 536.5,-459.4"/>
</g>
<!-- Node15&#45;&gt;Node17 -->
<g id="edge26" class="edge">
<title>Node15&#45;&gt;Node17</title>
<path fill="none" stroke="midnightblue" d="M579.57,-465.13C601.81,-454.8 629.15,-442.11 649.68,-432.58"/>
<polygon fill="midnightblue" stroke="midnightblue" points="577.97,-462.01 570.38,-469.4 580.92,-468.36 577.97,-462.01"/>
</g>
<!-- Node17&#45;&gt;Node9 -->
<g id="edge37" class="edge">
<title>Node17&#45;&gt;Node9</title>
<path fill="none" stroke="midnightblue" d="M635.31,-398.27C617.01,-389.79 596.16,-378.74 579,-366 552.12,-346.04 526.6,-316.11 512.75,-298.62"/>
<polygon fill="midnightblue" stroke="midnightblue" points="634.06,-401.54 644.61,-402.47 636.94,-395.17 634.06,-401.54"/>
</g>
<!-- Node18 -->
<g id="node18" class="node">
<title>Node18</title>
<g id="a_node18"><a xlink:href="device__list_8h.html" target="_top" xlink:title="List of all devices and fields known to the system.">
<polygon fill="white" stroke="black" points="581,-268.5 581,-298.5 721,-298.5 721,-268.5 581,-268.5"/>
<text text-anchor="start" x="589" y="-286.5" font-family="Helvetica,sans-Serif" font-size="10.00">ESP32BaseStation/device</text>
<text text-anchor="middle" x="651" y="-275.5" font-family="Helvetica,sans-Serif" font-size="10.00">_list.h</text>
</a>
</g>
</g>
<!-- Node17&#45;&gt;Node18 -->
<g id="edge27" class="edge">
<title>Node17&#45;&gt;Node18</title>
<path fill="none" stroke="midnightblue" d="M623.98,-397.78C609.77,-390.22 596.22,-379.89 588,-366 580.98,-354.14 582.04,-347.42 588,-335 595.46,-319.46 610.3,-307.19 623.7,-298.64"/>
<polygon fill="midnightblue" stroke="midnightblue" points="622.83,-401.12 633.36,-402.36 625.91,-394.83 622.83,-401.12"/>
</g>
<!-- Node17&#45;&gt;Node19 -->
<g id="edge29" class="edge">
<title>Node17&#45;&gt;Node19</title>
<path fill="none" stroke="midnightblue" d="M714.61,-397.44C733.12,-387.24 755.52,-374.9 772.45,-365.58"/>
<polygon fill="midnightblue" stroke="midnightblue" points="712.67,-394.51 705.6,-402.4 716.05,-400.64 712.67,-394.51"/>
</g>
<!-- Node21 -->
<g id="node21" class="node">
<title>Node21</title>
<g id="a_node21"><a xlink:href="fields_8cpp.html" target="_top" xlink:title="Contains fields classes.">
<polygon fill="white" stroke="black" points="597,-335.5 597,-365.5 719,-365.5 719,-335.5 597,-335.5"/>
<text text-anchor="start" x="605" y="-353.5" font-family="Helvetica,sans-Serif" font-size="10.00">ESP32BaseStation/src</text>
<text text-anchor="middle" x="658" y="-342.5" font-family="Helvetica,sans-Serif" font-size="10.00">/fields.cpp</text>
</a>
</g>
</g>
<!-- Node17&#45;&gt;Node21 -->
<g id="edge36" class="edge">
<title>Node17&#45;&gt;Node21</title>
<path fill="none" stroke="midnightblue" d="M671.94,-392.7C668.86,-383.59 665.44,-373.49 662.76,-365.58"/>
<polygon fill="midnightblue" stroke="midnightblue" points="668.71,-394.05 675.23,-402.4 675.34,-391.8 668.71,-394.05"/>
</g>
<!-- Node18&#45;&gt;Node2 -->
<g id="edge28" class="edge">
<title>Node18&#45;&gt;Node2</title>
<path fill="none" stroke="midnightblue" d="M640.25,-258.87C632.45,-242.33 621.33,-219.9 610,-201 570.32,-134.79 514.72,-61.22 491.21,-30.83"/>
<polygon fill="midnightblue" stroke="midnightblue" points="637.26,-260.73 644.65,-268.32 643.6,-257.78 637.26,-260.73"/>
</g>
<!-- Node19&#45;&gt;Node7 -->
<g id="edge32" class="edge">
<title>Node19&#45;&gt;Node7</title>
<path fill="none" stroke="midnightblue" d="M868.91,-338.58C895.89,-331.28 925.13,-319.16 946,-299 1001.21,-245.68 1031.96,-202.33 997,-134 988.81,-117.99 972.92,-105.89 958.34,-97.56"/>
<polygon fill="midnightblue" stroke="midnightblue" points="867.93,-335.21 859.09,-341.05 869.64,-342 867.93,-335.21"/>
</g>
<!-- Node19&#45;&gt;Node9 -->
<g id="edge35" class="edge">
<title>Node19&#45;&gt;Node9</title>
<path fill="none" stroke="midnightblue" d="M726.59,-333.82C676.7,-322.86 610.76,-308.38 563.25,-297.95"/>
<polygon fill="midnightblue" stroke="midnightblue" points="726.15,-337.31 736.67,-336.03 727.65,-330.47 726.15,-337.31"/>
</g>
<!-- Node19&#45;&gt;Node10 -->
<g id="edge33" class="edge">
<title>Node19&#45;&gt;Node10</title>
<path fill="none" stroke="midnightblue" d="M797.48,-324.8C797.83,-308.3 799.69,-286.35 806,-268 810.59,-254.65 819.34,-241.23 826.52,-231.59"/>
<polygon fill="midnightblue" stroke="midnightblue" points="793.97,-325.22 797.43,-335.24 800.97,-325.25 793.97,-325.22"/>
</g>
<!-- Node19&#45;&gt;Node12 -->
<g id="edge34" class="edge">
<title>Node19&#45;&gt;Node12</title>
<path fill="none" stroke="midnightblue" d="M791.73,-325.55C785.55,-301.83 775.93,-264.46 768,-232 762.24,-208.43 755.91,-180.93 752.21,-164.66"/>
<polygon fill="midnightblue" stroke="midnightblue" points="788.39,-326.62 794.3,-335.42 795.16,-324.86 788.39,-326.62"/>
</g>
<!-- Node19&#45;&gt;Node18 -->
<g id="edge30" class="edge">
<title>Node19&#45;&gt;Node18</title>
<path fill="none" stroke="midnightblue" d="M756.77,-331.27C733.36,-320.92 704.49,-308.15 682.83,-298.58"/>
<polygon fill="midnightblue" stroke="midnightblue" points="755.54,-334.55 766.1,-335.4 758.37,-328.15 755.54,-334.55"/>
</g>
<!-- Node20 -->
<g id="node20" class="node">
<title>Node20</title>
<g id="a_node20"><a xlink:href="devices_8cpp.html" target="_top" xlink:title="Devices and manager for all known devices the base station connects to.">
<polygon fill="white" stroke="black" points="815,-268.5 815,-298.5 937,-298.5 937,-268.5 815,-268.5"/>
<text text-anchor="start" x="823" y="-286.5" font-family="Helvetica,sans-Serif" font-size="10.00">ESP32BaseStation/src</text>
<text text-anchor="middle" x="876" y="-275.5" font-family="Helvetica,sans-Serif" font-size="10.00">/devices.cpp</text>
</a>
</g>
</g>
<!-- Node19&#45;&gt;Node20 -->
<g id="edge31" class="edge">
<title>Node19&#45;&gt;Node20</title>
<path fill="none" stroke="midnightblue" d="M822.74,-328.88C834.59,-319.01 848.48,-307.43 859.11,-298.58"/>
<polygon fill="midnightblue" stroke="midnightblue" points="820.37,-326.31 814.92,-335.4 824.85,-331.68 820.37,-326.31"/>
</g>
<!-- Node22&#45;&gt;Node10 -->
<g id="edge44" class="edge">
<title>Node22&#45;&gt;Node10</title>
<path fill="none" stroke="midnightblue" d="M759.2,-464.93C814.03,-437.6 908.43,-380.8 946,-299 951.75,-286.48 953.4,-279.62 946,-268 934.94,-250.62 916.17,-239.13 897.34,-231.56"/>
<polygon fill="midnightblue" stroke="midnightblue" points="757.55,-461.84 750.1,-469.37 760.62,-468.13 757.55,-461.84"/>
</g>
<!-- Node22&#45;&gt;Node17 -->
<g id="edge43" class="edge">
<title>Node22&#45;&gt;Node17</title>
<path fill="none" stroke="midnightblue" d="M704.6,-460.58C699.14,-451.24 693.01,-440.75 688.23,-432.58"/>
<polygon fill="midnightblue" stroke="midnightblue" points="701.69,-462.53 709.75,-469.4 707.73,-459 701.69,-462.53"/>
</g>
<!-- Node22&#45;&gt;Node19 -->
<g id="edge42" class="edge">
<title>Node22&#45;&gt;Node19</title>
<path fill="none" stroke="midnightblue" d="M732.51,-460.95C738.05,-452.25 744.38,-442.2 750,-433 764.3,-409.6 780.37,-382.05 789.81,-365.72"/>
<polygon fill="midnightblue" stroke="midnightblue" points="729.53,-459.12 727.09,-469.43 735.42,-462.89 729.53,-459.12"/>
</g>
</g>
</svg>
