<?xml version="1.0" encoding="UTF-8" standalone="no"?>
<!DOCTYPE svg PUBLIC "-//W3C//DTD SVG 1.1//EN"
 "http://www.w3.org/Graphics/SVG/1.1/DTD/svg11.dtd">
<!-- Generated by graphviz version 2.43.0 (0)
 -->
<!-- Title: ESP32BaseStation/defines.h Pages: 1 -->
<!--zoomable 497 -->
<svg id="main" version="1.1" xmlns="http://www.w3.org/2000/svg" xmlns:xlink="http://www.w3.org/1999/xlink" xml:space="preserve" onload="init(evt)">
<style type="text/css"><![CDATA[
.edge:hover path { stroke: red; }
.edge:hover polygon { stroke: red; fill: red; }
]]></style>
<script type="text/javascript"><![CDATA[
var edges = document.getElementsByTagName('g');
if (edges && edges.length) {
  for (var i=0;i<edges.length;i++) {
    if (edges[i].id.substr(0,4)=='edge') {
      edges[i].setAttribute('class','edge');
    }
  }
}
]]></script>
        <defs>
                <circle id="rim" cx="0" cy="0" r="7"/>
                <circle id="rim2" cx="0" cy="0" r="3.5"/>
                <g id="zoomPlus">
                        <use xlink:href="#rim" fill="#404040">
                                <set attributeName="fill" to="#808080" begin="zoomplus.mouseover" end="zoomplus.mouseout"/>
                        </use>
                        <path d="M-4,0h8M0,-4v8" fill="none" stroke="white" stroke-width="1.5" pointer-events="none"/>
                </g>
                <g id="zoomMin">
                        <use xlink:href="#rim" fill="#404040">
                                <set attributeName="fill" to="#808080" begin="zoomminus.mouseover" end="zoomminus.mouseout"/>
                        </use>
                        <path d="M-4,0h8" fill="none" stroke="white" stroke-width="1.5" pointer-events="none"/>
                </g>
                <g id="dirArrow">
                        <path fill="none" stroke="white" stroke-width="1.5" d="M0,-3.0v7 M-2.5,-0.5L0,-3.0L2.5,-0.5"/>
                </g>
               <g id="resetDef">
                       <use xlink:href="#rim2" fill="#404040">
                               <set attributeName="fill" to="#808080" begin="reset.mouseover" end="reset.mouseout"/>
                       </use>
               </g>
        </defs>

<script type="text/javascript">
var viewWidth = 978;
var viewHeight = 497;
var sectionId = 'dynsection-1';
</script>
<script xlink:href="svgpan.js"/>
<svg id="graph" class="graph">
<g id="viewport">
<title>ESP32BaseStation/defines.h</title>
<polygon fill="white" stroke="transparent" points="-4,4 -4,-493 974.28,-493 974.28,4 -4,4"/>
<!-- Node1 -->
<g id="node1" class="node">
<title>Node1</title>
<g id="a_node1"><a xlink:title="Definitions and other preprocessor and global stuff.">
<polygon fill="#bfbfbf" stroke="black" points="446.28,-469.5 446.28,-488.5 598.28,-488.5 598.28,-469.5 446.28,-469.5"/>
<text text-anchor="middle" x="522.28" y="-476.5" font-family="Helvetica,sans-Serif" font-size="10.00">ESP32BaseStation/defines.h</text>
</a>
</g>
</g>
<!-- Node2 -->
<g id="node2" class="node">
<title>Node2</title>
<g id="a_node2"><a xlink:href="_e_s_p32_base_station_8ino.html" target="_top" xlink:title="Main file for a base station to connect to remote sensors on a farm.">
<polygon fill="white" stroke="black" points="299.28,-0.5 299.28,-30.5 461.28,-30.5 461.28,-0.5 299.28,-0.5"/>
<text text-anchor="start" x="307.28" y="-18.5" font-family="Helvetica,sans-Serif" font-size="10.00">ESP32BaseStation/ESP32Base</text>
<text text-anchor="middle" x="380.28" y="-7.5" font-family="Helvetica,sans-Serif" font-size="10.00">Station.ino</text>
</a>
</g>
</g>
<!-- Node1&#45;&gt;Node2 -->
<g id="edge1" class="edge">
<title>Node1&#45;&gt;Node2</title>
<path fill="none" stroke="midnightblue" d="M452.22,-467.83C348.01,-450.71 164.28,-411.95 164.28,-351.5 164.28,-351.5 164.28,-351.5 164.28,-148.5 164.28,-80.93 242.19,-46.91 304.43,-30.51"/>
<polygon fill="midnightblue" stroke="midnightblue" points="451.93,-471.33 462.36,-469.47 453.05,-464.42 451.93,-471.33"/>
</g>
<!-- Node3 -->
<g id="node3" class="node">
<title>Node3</title>
<g id="a_node3"><a xlink:href="alarm_8h.html" target="_top" xlink:title="Handles alarms.">
<polygon fill="white" stroke="black" points="281.28,-268.5 281.28,-298.5 403.28,-298.5 403.28,-268.5 281.28,-268.5"/>
<text text-anchor="start" x="289.28" y="-286.5" font-family="Helvetica,sans-Serif" font-size="10.00">ESP32BaseStation/src</text>
<text text-anchor="middle" x="342.28" y="-275.5" font-family="Helvetica,sans-Serif" font-size="10.00">/alarm.h</text>
</a>
</g>
</g>
<!-- Node1&#45;&gt;Node3 -->
<g id="edge2" class="edge">
<title>Node1&#45;&gt;Node3</title>
<path fill="none" stroke="midnightblue" d="M483.14,-465.96C464.3,-458.7 442.38,-447.91 426.28,-433 383.69,-393.55 357.08,-327.46 346.94,-298.65"/>
<polygon fill="midnightblue" stroke="midnightblue" points="482.06,-469.29 492.66,-469.44 484.47,-462.72 482.06,-469.29"/>
</g>
<!-- Node5 -->
<g id="node5" class="node">
<title>Node5</title>
<g id="a_node5"><a xlink:href="audio_8h.html" target="_top" xlink:title="Plays audio.">
<polygon fill="white" stroke="black" points="14.28,-201.5 14.28,-231.5 136.28,-231.5 136.28,-201.5 14.28,-201.5"/>
<text text-anchor="start" x="22.28" y="-219.5" font-family="Helvetica,sans-Serif" font-size="10.00">ESP32BaseStation/src</text>
<text text-anchor="middle" x="75.28" y="-208.5" font-family="Helvetica,sans-Serif" font-size="10.00">/audio.h</text>
</a>
</g>
</g>
<!-- Node1&#45;&gt;Node5 -->
<g id="edge19" class="edge">
<title>Node1&#45;&gt;Node5</title>
<path fill="none" stroke="midnightblue" d="M435.93,-477.86C339.96,-475.96 192.87,-467.31 150.28,-433 85.96,-381.18 76.66,-270.82 75.43,-231.65"/>
<polygon fill="midnightblue" stroke="midnightblue" points="436.15,-481.36 446.21,-478.04 436.27,-474.37 436.15,-481.36"/>
</g>
<!-- Node7 -->
<g id="node7" class="node">
<title>Node7</title>
<g id="a_node7"><a xlink:href="rpc_8h.html" target="_top" xlink:title="Handles RPC calls.">
<polygon fill="white" stroke="black" points="370.28,-201.5 370.28,-231.5 492.28,-231.5 492.28,-201.5 370.28,-201.5"/>
<text text-anchor="start" x="378.28" y="-219.5" font-family="Helvetica,sans-Serif" font-size="10.00">ESP32BaseStation/src</text>
<text text-anchor="middle" x="431.28" y="-208.5" font-family="Helvetica,sans-Serif" font-size="10.00">/rpc.h</text>
</a>
</g>
</g>
<!-- Node1&#45;&gt;Node7 -->
<g id="edge41" class="edge">
<title>Node1&#45;&gt;Node7</title>
<path fill="none" stroke="midnightblue" d="M496.51,-464.16C484.81,-456.53 471.9,-445.96 464.28,-433 424.86,-365.95 427.46,-267.68 430.02,-231.52"/>
<polygon fill="midnightblue" stroke="midnightblue" points="494.77,-467.19 505.13,-469.41 498.41,-461.22 494.77,-467.19"/>
</g>
<!-- Node8 -->
<g id="node8" class="node">
<title>Node8</title>
<g id="a_node8"><a xlink:href="lora_8h.html" target="_top" xlink:title="File that handles the LoRa radio and PJON.">
<polygon fill="white" stroke="black" points="722.28,-134.5 722.28,-164.5 844.28,-164.5 844.28,-134.5 722.28,-134.5"/>
<text text-anchor="start" x="730.28" y="-152.5" font-family="Helvetica,sans-Serif" font-size="10.00">ESP32BaseStation/src</text>
<text text-anchor="middle" x="783.28" y="-141.5" font-family="Helvetica,sans-Serif" font-size="10.00">/lora.h</text>
</a>
</g>
</g>
<!-- Node1&#45;&gt;Node8 -->
<g id="edge39" class="edge">
<title>Node1&#45;&gt;Node8</title>
<path fill="none" stroke="midnightblue" d="M510.04,-460.83C505.03,-452.79 499.83,-442.82 497.28,-433 471,-331.56 461.59,-271.31 539.28,-201 552.79,-188.77 654.23,-170.76 721.99,-159.88"/>
<polygon fill="midnightblue" stroke="midnightblue" points="507.2,-462.89 515.65,-469.27 513.03,-459.01 507.2,-462.89"/>
</g>
<!-- Node10 -->
<g id="node10" class="node">
<title>Node10</title>
<g id="a_node10"><a xlink:href="networking_8h.html" target="_top" xlink:title="Header file for networking.cpp.">
<polygon fill="white" stroke="black" points="802.28,-67.5 802.28,-97.5 924.28,-97.5 924.28,-67.5 802.28,-67.5"/>
<text text-anchor="start" x="810.28" y="-85.5" font-family="Helvetica,sans-Serif" font-size="10.00">ESP32BaseStation/src</text>
<text text-anchor="middle" x="863.28" y="-74.5" font-family="Helvetica,sans-Serif" font-size="10.00">/networking.h</text>
</a>
</g>
</g>
<!-- Node1&#45;&gt;Node10 -->
<g id="edge40" class="edge">
<title>Node1&#45;&gt;Node10</title>
<path fill="none" stroke="midnightblue" d="M608.49,-471.27C738.64,-458.7 970.28,-425.89 970.28,-351.5 970.28,-351.5 970.28,-351.5 970.28,-215.5 970.28,-162.55 917.67,-118.96 886.23,-97.63"/>
<polygon fill="midnightblue" stroke="midnightblue" points="608.16,-467.79 598.53,-472.21 608.82,-474.75 608.16,-467.79"/>
</g>
<!-- Node13 -->
<g id="node13" class="node">
<title>Node13</title>
<g id="a_node13"><a xlink:href="conversions_8h.html" target="_top" xlink:title="General functions for converting to and from char arrays.">
<polygon fill="white" stroke="black" points="506.28,-402.5 506.28,-432.5 628.28,-432.5 628.28,-402.5 506.28,-402.5"/>
<text text-anchor="start" x="514.28" y="-420.5" font-family="Helvetica,sans-Serif" font-size="10.00">ESP32BaseStation/src</text>
<text text-anchor="middle" x="567.28" y="-409.5" font-family="Helvetica,sans-Serif" font-size="10.00">/conversions.h</text>
</a>
</g>
</g>
<!-- Node1&#45;&gt;Node13 -->
<g id="edge20" class="edge">
<title>Node1&#45;&gt;Node13</title>
<path fill="none" stroke="midnightblue" d="M534.95,-461.25C541.8,-452.19 550.17,-441.12 556.67,-432.52"/>
<polygon fill="midnightblue" stroke="midnightblue" points="531.97,-459.39 528.73,-469.48 537.55,-463.61 531.97,-459.39"/>
</g>
<!-- Node15 -->
<g id="node15" class="node">
<title>Node15</title>
<g id="a_node15"><a xlink:href="fields_8h.html" target="_top" xlink:title="Contains fields classes.">
<polygon fill="white" stroke="black" points="646.28,-335.5 646.28,-365.5 768.28,-365.5 768.28,-335.5 646.28,-335.5"/>
<text text-anchor="start" x="654.28" y="-353.5" font-family="Helvetica,sans-Serif" font-size="10.00">ESP32BaseStation/src</text>
<text text-anchor="middle" x="707.28" y="-342.5" font-family="Helvetica,sans-Serif" font-size="10.00">/fields.h</text>
</a>
</g>
</g>
<!-- Node1&#45;&gt;Node15 -->
<g id="edge34" class="edge">
<title>Node1&#45;&gt;Node15</title>
<path fill="none" stroke="midnightblue" d="M566.07,-466.43C588.66,-459.13 615.88,-448.18 637.28,-433 663.6,-414.33 686.31,-383.67 698.28,-365.76"/>
<polygon fill="midnightblue" stroke="midnightblue" points="564.9,-463.13 556.38,-469.43 566.97,-469.81 564.9,-463.13"/>
</g>
<!-- Node17 -->
<g id="node17" class="node">
<title>Node17</title>
<g id="a_node17"><a xlink:href="devices_8h.html" target="_top" xlink:title="Devices and manager for all known devices the base station connects to.">
<polygon fill="white" stroke="black" points="744.28,-268.5 744.28,-298.5 866.28,-298.5 866.28,-268.5 744.28,-268.5"/>
<text text-anchor="start" x="752.28" y="-286.5" font-family="Helvetica,sans-Serif" font-size="10.00">ESP32BaseStation/src</text>
<text text-anchor="middle" x="805.28" y="-275.5" font-family="Helvetica,sans-Serif" font-size="10.00">/devices.h</text>
</a>
</g>
</g>
<!-- Node1&#45;&gt;Node17 -->
<g id="edge33" class="edge">
<title>Node1&#45;&gt;Node17</title>
<path fill="none" stroke="midnightblue" d="M608.46,-476.75C685.11,-473.6 789.02,-463.6 815.28,-433 848.26,-394.57 824.88,-327.94 812.11,-298.81"/>
<polygon fill="midnightblue" stroke="midnightblue" points="608.17,-473.26 598.31,-477.14 608.44,-480.26 608.17,-473.26"/>
</g>
<!-- Node20 -->
<g id="node20" class="node">
<title>Node20</title>
<g id="a_node20"><a xlink:href="lookups_8h.html" target="_top" xlink:title="Lookupable and lookupable manager base classes.">
<polygon fill="white" stroke="black" points="684.28,-402.5 684.28,-432.5 806.28,-432.5 806.28,-402.5 684.28,-402.5"/>
<text text-anchor="start" x="692.28" y="-420.5" font-family="Helvetica,sans-Serif" font-size="10.00">ESP32BaseStation/src</text>
<text text-anchor="middle" x="745.28" y="-409.5" font-family="Helvetica,sans-Serif" font-size="10.00">/lookups.h</text>
</a>
</g>
</g>
<!-- Node1&#45;&gt;Node20 -->
<g id="edge35" class="edge">
<title>Node1&#45;&gt;Node20</title>
<path fill="none" stroke="midnightblue" d="M564.04,-466.86C600.45,-457.14 653.44,-443.01 692.72,-432.52"/>
<polygon fill="midnightblue" stroke="midnightblue" points="562.99,-463.52 554.23,-469.48 564.8,-470.28 562.99,-463.52"/>
</g>
<!-- Node3&#45;&gt;Node2 -->
<g id="edge3" class="edge">
<title>Node3&#45;&gt;Node2</title>
<path fill="none" stroke="midnightblue" d="M345.77,-258.07C353.56,-203.57 372.13,-73.52 378.27,-30.55"/>
<polygon fill="midnightblue" stroke="midnightblue" points="342.27,-257.8 344.32,-268.2 349.2,-258.79 342.27,-257.8"/>
</g>
<!-- Node4 -->
<g id="node4" class="node">
<title>Node4</title>
<g id="a_node4"><a xlink:href="alarm_8cpp.html" target="_top" xlink:title="Handles alarms.">
<polygon fill="white" stroke="black" points="192.28,-201.5 192.28,-231.5 314.28,-231.5 314.28,-201.5 192.28,-201.5"/>
<text text-anchor="start" x="200.28" y="-219.5" font-family="Helvetica,sans-Serif" font-size="10.00">ESP32BaseStation/src</text>
<text text-anchor="middle" x="253.28" y="-208.5" font-family="Helvetica,sans-Serif" font-size="10.00">/alarm.cpp</text>
</a>
</g>
</g>
<!-- Node3&#45;&gt;Node4 -->
<g id="edge4" class="edge">
<title>Node3&#45;&gt;Node4</title>
<path fill="none" stroke="midnightblue" d="M314.83,-262.45C301.14,-252.45 284.91,-240.6 272.55,-231.58"/>
<polygon fill="midnightblue" stroke="midnightblue" points="312.83,-265.32 322.97,-268.4 316.96,-259.67 312.83,-265.32"/>
</g>
<!-- Node3&#45;&gt;Node5 -->
<g id="edge5" class="edge">
<title>Node3&#45;&gt;Node5</title>
<path fill="none" stroke="midnightblue" d="M274.72,-266.05C231.06,-255.43 174.86,-241.74 133.24,-231.61"/>
<polygon fill="midnightblue" stroke="midnightblue" points="274.13,-269.51 284.67,-268.48 275.79,-262.71 274.13,-269.51"/>
</g>
<!-- Node3&#45;&gt;Node7 -->
<g id="edge8" class="edge">
<title>Node3&#45;&gt;Node7</title>
<path fill="none" stroke="midnightblue" d="M369.73,-262.45C383.42,-252.45 399.65,-240.6 412.01,-231.58"/>
<polygon fill="midnightblue" stroke="midnightblue" points="367.6,-259.67 361.59,-268.4 371.73,-265.32 367.6,-259.67"/>
</g>
<!-- Node5&#45;&gt;Node2 -->
<g id="edge6" class="edge">
<title>Node5&#45;&gt;Node2</title>
<path fill="none" stroke="midnightblue" d="M35.31,-196.12C23.45,-188.23 11.87,-177.88 5.28,-165 -1,-152.73 -2.14,-145.61 5.28,-134 37.21,-84.07 198.54,-47.79 298.91,-29.63"/>
<polygon fill="midnightblue" stroke="midnightblue" points="33.59,-199.17 43.94,-201.44 37.26,-193.21 33.59,-199.17"/>
</g>
<!-- Node6 -->
<g id="node6" class="node">
<title>Node6</title>
<g id="a_node6"><a xlink:href="audio_8cpp.html" target="_top" xlink:title="Plays audio.">
<polygon fill="white" stroke="black" points="14.28,-134.5 14.28,-164.5 136.28,-164.5 136.28,-134.5 14.28,-134.5"/>
<text text-anchor="start" x="22.28" y="-152.5" font-family="Helvetica,sans-Serif" font-size="10.00">ESP32BaseStation/src</text>
<text text-anchor="middle" x="75.28" y="-141.5" font-family="Helvetica,sans-Serif" font-size="10.00">/audio.cpp</text>
</a>
</g>
</g>
<!-- Node5&#45;&gt;Node6 -->
<g id="edge7" class="edge">
<title>Node5&#45;&gt;Node6</title>
<path fill="none" stroke="midnightblue" d="M75.28,-191.11C75.28,-182.15 75.28,-172.32 75.28,-164.58"/>
<polygon fill="midnightblue" stroke="midnightblue" points="71.78,-191.4 75.28,-201.4 78.78,-191.4 71.78,-191.4"/>
</g>
<!-- Node7&#45;&gt;Node2 -->
<g id="edge9" class="edge">
<title>Node7&#45;&gt;Node2</title>
<path fill="none" stroke="midnightblue" d="M414.01,-192.94C408.44,-184.58 402.8,-174.75 399.28,-165 382.35,-118.05 380.13,-58 380.08,-30.9"/>
<polygon fill="midnightblue" stroke="midnightblue" points="411.32,-195.2 419.93,-201.37 417.05,-191.17 411.32,-195.2"/>
</g>
<!-- Node7&#45;&gt;Node8 -->
<g id="edge10" class="edge">
<title>Node7&#45;&gt;Node8</title>
<path fill="none" stroke="midnightblue" d="M502.51,-201.71C503.78,-201.47 505.03,-201.23 506.28,-201 580.51,-187.06 666.03,-171.55 722.18,-161.45"/>
<polygon fill="midnightblue" stroke="midnightblue" points="501.84,-198.27 492.67,-203.58 503.14,-205.15 501.84,-198.27"/>
</g>
<!-- Node12 -->
<g id="node12" class="node">
<title>Node12</title>
<g id="a_node12"><a xlink:href="rpc_8cpp.html" target="_top" xlink:title="Handles RPC calls.">
<polygon fill="white" stroke="black" points="408.28,-134.5 408.28,-164.5 530.28,-164.5 530.28,-134.5 408.28,-134.5"/>
<text text-anchor="start" x="416.28" y="-152.5" font-family="Helvetica,sans-Serif" font-size="10.00">ESP32BaseStation/src</text>
<text text-anchor="middle" x="469.28" y="-141.5" font-family="Helvetica,sans-Serif" font-size="10.00">/rpc.cpp</text>
</a>
</g>
</g>
<!-- Node7&#45;&gt;Node12 -->
<g id="edge18" class="edge">
<title>Node7&#45;&gt;Node12</title>
<path fill="none" stroke="midnightblue" d="M444.68,-192.58C450.14,-183.24 456.27,-172.75 461.05,-164.58"/>
<polygon fill="midnightblue" stroke="midnightblue" points="441.55,-191 439.53,-201.4 447.59,-194.53 441.55,-191"/>
</g>
<!-- Node8&#45;&gt;Node2 -->
<g id="edge11" class="edge">
<title>Node8&#45;&gt;Node2</title>
<path fill="none" stroke="midnightblue" d="M729.37,-131.04C705.44,-122.42 677.31,-111.05 653.28,-98 632.58,-86.75 631.79,-76.62 610.28,-67 563.16,-45.94 506.58,-33.37 461.33,-26.03"/>
<polygon fill="midnightblue" stroke="midnightblue" points="728.41,-134.41 739.01,-134.45 730.75,-127.81 728.41,-134.41"/>
</g>
<!-- Node9 -->
<g id="node9" class="node">
<title>Node9</title>
<g id="a_node9"><a xlink:href="lora_8cpp.html" target="_top" xlink:title="File that handles the LoRa radio and PJON.">
<polygon fill="white" stroke="black" points="662.28,-67.5 662.28,-97.5 784.28,-97.5 784.28,-67.5 662.28,-67.5"/>
<text text-anchor="start" x="670.28" y="-85.5" font-family="Helvetica,sans-Serif" font-size="10.00">ESP32BaseStation/src</text>
<text text-anchor="middle" x="723.28" y="-74.5" font-family="Helvetica,sans-Serif" font-size="10.00">/lora.cpp</text>
</a>
</g>
</g>
<!-- Node8&#45;&gt;Node9 -->
<g id="edge12" class="edge">
<title>Node8&#45;&gt;Node9</title>
<path fill="none" stroke="midnightblue" d="M763.46,-127.02C754.52,-117.34 744.21,-106.17 736.27,-97.58"/>
<polygon fill="midnightblue" stroke="midnightblue" points="760.91,-129.42 770.26,-134.4 766.05,-124.67 760.91,-129.42"/>
</g>
<!-- Node8&#45;&gt;Node10 -->
<g id="edge13" class="edge">
<title>Node8&#45;&gt;Node10</title>
<path fill="none" stroke="midnightblue" d="M802.65,-127.6C814.03,-117.78 828.34,-106.34 840.28,-97.58"/>
<polygon fill="midnightblue" stroke="midnightblue" points="800.14,-125.15 794.96,-134.4 804.77,-130.4 800.14,-125.15"/>
</g>
<!-- Node10&#45;&gt;Node2 -->
<g id="edge14" class="edge">
<title>Node10&#45;&gt;Node2</title>
<path fill="none" stroke="midnightblue" d="M792.08,-66.89C671.24,-47.31 542.47,-32.79 461.28,-24.41"/>
<polygon fill="midnightblue" stroke="midnightblue" points="791.82,-70.39 802.25,-68.55 792.95,-63.48 791.82,-70.39"/>
</g>
<!-- Node10&#45;&gt;Node7 -->
<g id="edge17" class="edge">
<title>Node10&#45;&gt;Node7</title>
<path fill="none" stroke="midnightblue" d="M807.66,-100.49C721.4,-126.85 556.98,-177.09 477.1,-201.5"/>
<polygon fill="midnightblue" stroke="midnightblue" points="808.74,-103.83 817.28,-97.56 806.69,-97.13 808.74,-103.83"/>
</g>
<!-- Node10&#45;&gt;Node8 -->
<g id="edge15" class="edge">
<title>Node10&#45;&gt;Node8</title>
<path fill="none" stroke="midnightblue" d="M843.94,-104.37C832.57,-114.18 818.27,-125.62 806.32,-134.4"/>
<polygon fill="midnightblue" stroke="midnightblue" points="846.46,-106.82 851.63,-97.58 841.82,-101.58 846.46,-106.82"/>
</g>
<!-- Node11 -->
<g id="node11" class="node">
<title>Node11</title>
<g id="a_node11"><a xlink:href="networking_8cpp.html" target="_top" xlink:title="File that handles connecting to WiFi and MQTT and staying connected.">
<polygon fill="white" stroke="black" points="802.28,-0.5 802.28,-30.5 924.28,-30.5 924.28,-0.5 802.28,-0.5"/>
<text text-anchor="start" x="810.28" y="-18.5" font-family="Helvetica,sans-Serif" font-size="10.00">ESP32BaseStation/src</text>
<text text-anchor="middle" x="863.28" y="-7.5" font-family="Helvetica,sans-Serif" font-size="10.00">/networking.cpp</text>
</a>
</g>
</g>
<!-- Node10&#45;&gt;Node11 -->
<g id="edge16" class="edge">
<title>Node10&#45;&gt;Node11</title>
<path fill="none" stroke="midnightblue" d="M863.28,-57.11C863.28,-48.15 863.28,-38.32 863.28,-30.58"/>
<polygon fill="midnightblue" stroke="midnightblue" points="859.78,-57.4 863.28,-67.4 866.78,-57.4 859.78,-57.4"/>
</g>
<!-- Node14 -->
<g id="node14" class="node">
<title>Node14</title>
<g id="a_node14"><a xlink:href="conversions_8cpp.html" target="_top" xlink:title="General functions for converting to and from char arrays.">
<polygon fill="white" stroke="black" points="506.28,-335.5 506.28,-365.5 628.28,-365.5 628.28,-335.5 506.28,-335.5"/>
<text text-anchor="start" x="514.28" y="-353.5" font-family="Helvetica,sans-Serif" font-size="10.00">ESP32BaseStation/src</text>
<text text-anchor="middle" x="567.28" y="-342.5" font-family="Helvetica,sans-Serif" font-size="10.00">/conversions.cpp</text>
</a>
</g>
</g>
<!-- Node13&#45;&gt;Node14 -->
<g id="edge21" class="edge">
<title>Node13&#45;&gt;Node14</title>
<path fill="none" stroke="midnightblue" d="M567.28,-392.11C567.28,-383.15 567.28,-373.32 567.28,-365.58"/>
<polygon fill="midnightblue" stroke="midnightblue" points="563.78,-392.4 567.28,-402.4 570.78,-392.4 563.78,-392.4"/>
</g>
<!-- Node13&#45;&gt;Node15 -->
<g id="edge22" class="edge">
<title>Node13&#45;&gt;Node15</title>
<path fill="none" stroke="midnightblue" d="M606.85,-398.13C629.09,-387.8 656.43,-375.11 676.96,-365.58"/>
<polygon fill="midnightblue" stroke="midnightblue" points="605.25,-395.01 597.66,-402.4 608.2,-401.36 605.25,-395.01"/>
</g>
<!-- Node15&#45;&gt;Node7 -->
<g id="edge32" class="edge">
<title>Node15&#45;&gt;Node7</title>
<path fill="none" stroke="midnightblue" d="M661.32,-331.67C638.27,-322.42 610.06,-310.65 585.28,-299 538.75,-277.11 486.1,-248.36 455.99,-231.5"/>
<polygon fill="midnightblue" stroke="midnightblue" points="660.27,-335.02 670.86,-335.47 662.86,-328.51 660.27,-335.02"/>
</g>
<!-- Node16 -->
<g id="node16" class="node">
<title>Node16</title>
<g id="a_node16"><a xlink:href="device__list_8h.html" target="_top" xlink:title="List of all devices and fields known to the system.">
<polygon fill="white" stroke="black" points="548.28,-201.5 548.28,-231.5 688.28,-231.5 688.28,-201.5 548.28,-201.5"/>
<text text-anchor="start" x="556.28" y="-219.5" font-family="Helvetica,sans-Serif" font-size="10.00">ESP32BaseStation/device</text>
<text text-anchor="middle" x="618.28" y="-208.5" font-family="Helvetica,sans-Serif" font-size="10.00">_list.h</text>
</a>
</g>
</g>
<!-- Node15&#45;&gt;Node16 -->
<g id="edge23" class="edge">
<title>Node15&#45;&gt;Node16</title>
<path fill="none" stroke="midnightblue" d="M636.47,-332.02C620.26,-324.56 604.96,-313.98 595.28,-299 581.64,-277.88 596.48,-248.61 607.85,-231.5"/>
<polygon fill="midnightblue" stroke="midnightblue" points="635.52,-335.41 646.09,-336.06 638.23,-328.96 635.52,-335.41"/>
</g>
<!-- Node15&#45;&gt;Node17 -->
<g id="edge25" class="edge">
<title>Node15&#45;&gt;Node17</title>
<path fill="none" stroke="midnightblue" d="M737.08,-329.73C752.25,-319.68 770.33,-307.68 784.06,-298.58"/>
<polygon fill="midnightblue" stroke="midnightblue" points="734.94,-326.95 728.54,-335.4 738.81,-332.79 734.94,-326.95"/>
</g>
<!-- Node19 -->
<g id="node19" class="node">
<title>Node19</title>
<g id="a_node19"><a xlink:href="fields_8cpp.html" target="_top" xlink:title="Contains fields classes.">
<polygon fill="white" stroke="black" points="604.28,-268.5 604.28,-298.5 726.28,-298.5 726.28,-268.5 604.28,-268.5"/>
<text text-anchor="start" x="612.28" y="-286.5" font-family="Helvetica,sans-Serif" font-size="10.00">ESP32BaseStation/src</text>
<text text-anchor="middle" x="665.28" y="-275.5" font-family="Helvetica,sans-Serif" font-size="10.00">/fields.cpp</text>
</a>
</g>
</g>
<!-- Node15&#45;&gt;Node19 -->
<g id="edge31" class="edge">
<title>Node15&#45;&gt;Node19</title>
<path fill="none" stroke="midnightblue" d="M692.66,-326.87C686.58,-317.46 679.71,-306.83 674.38,-298.58"/>
<polygon fill="midnightblue" stroke="midnightblue" points="689.8,-328.9 698.17,-335.4 695.68,-325.1 689.8,-328.9"/>
</g>
<!-- Node16&#45;&gt;Node2 -->
<g id="edge24" class="edge">
<title>Node16&#45;&gt;Node2</title>
<path fill="none" stroke="midnightblue" d="M598.81,-193.51C583.35,-176.54 560.82,-152.84 539.28,-134 492.78,-93.32 433.06,-51.76 401.7,-30.66"/>
<polygon fill="midnightblue" stroke="midnightblue" points="596.5,-196.18 605.79,-201.26 601.69,-191.49 596.5,-196.18"/>
</g>
<!-- Node17&#45;&gt;Node7 -->
<g id="edge30" class="edge">
<title>Node17&#45;&gt;Node7</title>
<path fill="none" stroke="midnightblue" d="M734.15,-267.83C644.4,-251.22 551.81,-236.25 492.54,-226.95"/>
<polygon fill="midnightblue" stroke="midnightblue" points="733.75,-271.32 744.23,-269.7 735.03,-264.43 733.75,-271.32"/>
</g>
<!-- Node17&#45;&gt;Node8 -->
<g id="edge28" class="edge">
<title>Node17&#45;&gt;Node8</title>
<path fill="none" stroke="midnightblue" d="M824.04,-259.81C835.25,-243.36 845.81,-220.65 837.28,-201 830.79,-186.05 817.45,-173.5 805.65,-164.65"/>
<polygon fill="midnightblue" stroke="midnightblue" points="820.95,-258.11 817.86,-268.24 826.59,-262.24 820.95,-258.11"/>
</g>
<!-- Node17&#45;&gt;Node10 -->
<g id="edge29" class="edge">
<title>Node17&#45;&gt;Node10</title>
<path fill="none" stroke="midnightblue" d="M831.14,-261.21C839.34,-252.99 847.51,-242.92 852.28,-232 872.25,-186.28 868.36,-125.09 865.24,-97.75"/>
<polygon fill="midnightblue" stroke="midnightblue" points="828.59,-258.81 823.7,-268.21 833.38,-263.91 828.59,-258.81"/>
</g>
<!-- Node17&#45;&gt;Node16 -->
<g id="edge26" class="edge">
<title>Node17&#45;&gt;Node16</title>
<path fill="none" stroke="midnightblue" d="M755.2,-265.09C725.01,-254.6 687.06,-241.41 658.78,-231.58"/>
<polygon fill="midnightblue" stroke="midnightblue" points="754.11,-268.42 764.7,-268.4 756.41,-261.81 754.11,-268.42"/>
</g>
<!-- Node18 -->
<g id="node18" class="node">
<title>Node18</title>
<g id="a_node18"><a xlink:href="devices_8cpp.html" target="_top" xlink:title="Devices and manager for all known devices the base station connects to.">
<polygon fill="white" stroke="black" points="706.28,-201.5 706.28,-231.5 828.28,-231.5 828.28,-201.5 706.28,-201.5"/>
<text text-anchor="start" x="714.28" y="-219.5" font-family="Helvetica,sans-Serif" font-size="10.00">ESP32BaseStation/src</text>
<text text-anchor="middle" x="767.28" y="-208.5" font-family="Helvetica,sans-Serif" font-size="10.00">/devices.cpp</text>
</a>
</g>
</g>
<!-- Node17&#45;&gt;Node18 -->
<g id="edge27" class="edge">
<title>Node17&#45;&gt;Node18</title>
<path fill="none" stroke="midnightblue" d="M791.88,-259.58C786.42,-250.24 780.29,-239.75 775.51,-231.58"/>
<polygon fill="midnightblue" stroke="midnightblue" points="788.97,-261.53 797.03,-268.4 795.01,-258 788.97,-261.53"/>
</g>
<!-- Node20&#45;&gt;Node8 -->
<g id="edge38" class="edge">
<title>Node20&#45;&gt;Node8</title>
<path fill="none" stroke="midnightblue" d="M779.87,-396.96C811.39,-376.96 855.89,-342.65 875.28,-299 893.44,-258.11 878.81,-237.02 852.28,-201 841.19,-185.94 824.3,-173.47 810.01,-164.69"/>
<polygon fill="midnightblue" stroke="midnightblue" points="777.63,-394.23 770.95,-402.46 781.3,-400.19 777.63,-394.23"/>
</g>
<!-- Node20&#45;&gt;Node15 -->
<g id="edge37" class="edge">
<title>Node20&#45;&gt;Node15</title>
<path fill="none" stroke="midnightblue" d="M731.88,-393.58C726.42,-384.24 720.29,-373.75 715.51,-365.58"/>
<polygon fill="midnightblue" stroke="midnightblue" points="728.97,-395.53 737.03,-402.4 735.01,-392 728.97,-395.53"/>
</g>
<!-- Node20&#45;&gt;Node17 -->
<g id="edge36" class="edge">
<title>Node20&#45;&gt;Node17</title>
<path fill="none" stroke="midnightblue" d="M761.04,-394.13C766.63,-385.58 772.68,-375.58 777.28,-366 788.16,-343.34 796.82,-315.33 801.49,-298.74"/>
<polygon fill="midnightblue" stroke="midnightblue" points="758.13,-392.18 755.46,-402.43 763.94,-396.09 758.13,-392.18"/>
</g>
</g>
</svg>
        <g id="navigator" transform="translate(0 0)" fill="#404254">
                <rect fill="#f2f5e9" fill-opacity="0.5" stroke="#606060" stroke-width=".5" x="0" y="0" width="60" height="60"/>
                <use id="zoomplus" xlink:href="#zoomPlus" x="17" y="9" onmousedown="handleZoom(evt,'in')"/>
                <use id="zoomminus" xlink:href="#zoomMin" x="42" y="9" onmousedown="handleZoom(evt,'out')"/>
                <use id="reset" xlink:href="#resetDef" x="30" y="36" onmousedown="handleReset()"/>
                <g id="arrowUp" xlink:href="#dirArrow" transform="translate(30 24)" onmousedown="handlePan(0,-1)">
                  <use xlink:href="#rim" fill="#404040">
                        <set attributeName="fill" to="#808080" begin="arrowUp.mouseover" end="arrowUp.mouseout"/>
                  </use>
                  <path fill="none" stroke="white" stroke-width="1.5" d="M0,-3.0v7 M-2.5,-0.5L0,-3.0L2.5,-0.5"/>
                </g>
                <g id="arrowRight" xlink:href="#dirArrow" transform="rotate(90) translate(36 -43)" onmousedown="handlePan(1,0)">
                  <use xlink:href="#rim" fill="#404040">
                        <set attributeName="fill" to="#808080" begin="arrowRight.mouseover" end="arrowRight.mouseout"/>
                  </use>
                  <path fill="none" stroke="white" stroke-width="1.5" d="M0,-3.0v7 M-2.5,-0.5L0,-3.0L2.5,-0.5"/>
                </g>
                <g id="arrowDown" xlink:href="#dirArrow" transform="rotate(180) translate(-30 -48)" onmousedown="handlePan(0,1)">
                  <use xlink:href="#rim" fill="#404040">
                        <set attributeName="fill" to="#808080" begin="arrowDown.mouseover" end="arrowDown.mouseout"/>
                  </use>
                  <path fill="none" stroke="white" stroke-width="1.5" d="M0,-3.0v7 M-2.5,-0.5L0,-3.0L2.5,-0.5"/>
                </g>
                <g id="arrowLeft" xlink:href="#dirArrow" transform="rotate(270) translate(-36 17)" onmousedown="handlePan(-1,0)">
                  <use xlink:href="#rim" fill="#404040">
                        <set attributeName="fill" to="#808080" begin="arrowLeft.mouseover" end="arrowLeft.mouseout"/>
                  </use>
                  <path fill="none" stroke="white" stroke-width="1.5" d="M0,-3.0v7 M-2.5,-0.5L0,-3.0L2.5,-0.5"/>
                </g>
        </g>
        <svg viewBox="0 0 15 15" width="100%" height="30px" preserveAspectRatio="xMaxYMin meet">
         <g id="arrow_out" transform="scale(0.3 0.3)">
          <a xlink:href="defines_8h__dep__incl_org.svg" target="_base">
           <rect id="button" ry="5" rx="5" y="6" x="6" height="38" width="38"
                fill="#f2f5e9" fill-opacity="0.5" stroke="#606060" stroke-width="1.0"/>
           <path id="arrow"
             d="M 11.500037,31.436501 C 11.940474,20.09759 22.043105,11.32322 32.158766,21.979434 L 37.068811,17.246167 C 37.068811,17.246167 37.088388,32 37.088388,32 L 22.160133,31.978069 C 22.160133,31.978069 26.997745,27.140456 26.997745,27.140456 C 18.528582,18.264221 13.291696,25.230495 11.500037,31.436501 z"
             style="fill:#404040;"/>
          </a>
         </g>
        </svg>
</svg>
