<?xml version="1.0" encoding="UTF-8" standalone="no"?>
<!DOCTYPE svg PUBLIC "-//W3C//DTD SVG 1.1//EN"
 "http://www.w3.org/Graphics/SVG/1.1/DTD/svg11.dtd">
<!-- Generated by graphviz version 2.43.0 (0)
 -->
<!-- Title: BaseStationCode/src/defines.h Pages: 1 -->
<!--zoomable 575 -->
<svg id="main" version="1.1" xmlns="http://www.w3.org/2000/svg" xmlns:xlink="http://www.w3.org/1999/xlink" xml:space="preserve" onload="init(evt)">
<style type="text/css"><![CDATA[
.edge:hover path { stroke: red; }
.edge:hover polygon { stroke: red; fill: red; }
]]></style>
<script type="text/javascript"><![CDATA[
var edges = document.getElementsByTagName('g');
if (edges && edges.length) {
  for (var i=0;i<edges.length;i++) {
    if (edges[i].id.substr(0,4)=='edge') {
      edges[i].setAttribute('class','edge');
    }
  }
}
]]></script>
        <defs>
                <circle id="rim" cx="0" cy="0" r="7"/>
                <circle id="rim2" cx="0" cy="0" r="3.5"/>
                <g id="zoomPlus">
                        <use xlink:href="#rim" fill="#404040">
                                <set attributeName="fill" to="#808080" begin="zoomplus.mouseover" end="zoomplus.mouseout"/>
                        </use>
                        <path d="M-4,0h8M0,-4v8" fill="none" stroke="white" stroke-width="1.5" pointer-events="none"/>
                </g>
                <g id="zoomMin">
                        <use xlink:href="#rim" fill="#404040">
                                <set attributeName="fill" to="#808080" begin="zoomminus.mouseover" end="zoomminus.mouseout"/>
                        </use>
                        <path d="M-4,0h8" fill="none" stroke="white" stroke-width="1.5" pointer-events="none"/>
                </g>
                <g id="dirArrow">
                        <path fill="none" stroke="white" stroke-width="1.5" d="M0,-3.0v7 M-2.5,-0.5L0,-3.0L2.5,-0.5"/>
                </g>
               <g id="resetDef">
                       <use xlink:href="#rim2" fill="#404040">
                               <set attributeName="fill" to="#808080" begin="reset.mouseover" end="reset.mouseout"/>
                       </use>
               </g>
        </defs>

<script type="text/javascript">
var viewWidth = 1140;
var viewHeight = 575;
var sectionId = 'dynsection-1';
</script>
<script xlink:href="svgpan.js"/>
<svg id="graph" class="graph">
<g id="viewport">
<title>BaseStationCode/src/defines.h</title>
<polygon fill="white" stroke="transparent" points="-4,4 -4,-571 1136,-571 1136,4 -4,4"/>
<!-- Node1 -->
<g id="node1" class="node">
<title>Node1</title>
<g id="a_node1"><a xlink:title="Definitions and other preprocessor and global stuff.">
<polygon fill="#bfbfbf" stroke="black" points="557.5,-536.5 557.5,-566.5 674.5,-566.5 674.5,-536.5 557.5,-536.5"/>
<text text-anchor="start" x="565.5" y="-554.5" font-family="Helvetica,sans-Serif" font-size="10.00">BaseStationCode/src</text>
<text text-anchor="middle" x="616" y="-543.5" font-family="Helvetica,sans-Serif" font-size="10.00">/defines.h</text>
</a>
</g>
</g>
<!-- Node2 -->
<g id="node2" class="node">
<title>Node2</title>
<g id="a_node2"><a xlink:href="main_8cpp.html" target="_top" xlink:title=" ">
<polygon fill="white" stroke="black" points="698.5,-0.5 698.5,-30.5 815.5,-30.5 815.5,-0.5 698.5,-0.5"/>
<text text-anchor="start" x="706.5" y="-18.5" font-family="Helvetica,sans-Serif" font-size="10.00">BaseStationCode/src</text>
<text text-anchor="middle" x="757" y="-7.5" font-family="Helvetica,sans-Serif" font-size="10.00">/main.cpp</text>
</a>
</g>
</g>
<!-- Node1&#45;&gt;Node2 -->
<g id="edge1" class="edge">
<title>Node1&#45;&gt;Node2</title>
<path fill="none" stroke="midnightblue" d="M684.72,-549.66C774.39,-544.5 920,-520.44 920,-418.5 920,-418.5 920,-418.5 920,-148.5 920,-86.96 848.96,-49.15 800.68,-30.55"/>
<polygon fill="midnightblue" stroke="midnightblue" points="684.42,-546.17 674.61,-550.17 684.78,-553.16 684.42,-546.17"/>
</g>
<!-- Node3 -->
<g id="node3" class="node">
<title>Node3</title>
<g id="a_node3"><a xlink:href="alarm_8h.html" target="_top" xlink:title="Handles alarms.">
<polygon fill="white" stroke="black" points="153.5,-335.5 153.5,-365.5 270.5,-365.5 270.5,-335.5 153.5,-335.5"/>
<text text-anchor="start" x="161.5" y="-353.5" font-family="Helvetica,sans-Serif" font-size="10.00">BaseStationCode/src</text>
<text text-anchor="middle" x="212" y="-342.5" font-family="Helvetica,sans-Serif" font-size="10.00">/src/alarm.h</text>
</a>
</g>
</g>
<!-- Node1&#45;&gt;Node3 -->
<g id="edge2" class="edge">
<title>Node1&#45;&gt;Node3</title>
<path fill="none" stroke="midnightblue" d="M547.12,-548.21C492.65,-543.86 416.18,-531.94 357,-500 294.22,-466.11 241.81,-395.81 221.29,-365.7"/>
<polygon fill="midnightblue" stroke="midnightblue" points="547.14,-551.72 557.37,-548.96 547.65,-544.74 547.14,-551.72"/>
</g>
<!-- Node5 -->
<g id="node5" class="node">
<title>Node5</title>
<g id="a_node5"><a xlink:href="leds_8h.html" target="_top" xlink:title="Controls the LEDs on the unit.">
<polygon fill="white" stroke="black" points="104.5,-67.5 104.5,-97.5 221.5,-97.5 221.5,-67.5 104.5,-67.5"/>
<text text-anchor="start" x="112.5" y="-85.5" font-family="Helvetica,sans-Serif" font-size="10.00">BaseStationCode/src</text>
<text text-anchor="middle" x="163" y="-74.5" font-family="Helvetica,sans-Serif" font-size="10.00">/src/leds.h</text>
</a>
</g>
</g>
<!-- Node1&#45;&gt;Node5 -->
<g id="edge43" class="edge">
<title>Node1&#45;&gt;Node5</title>
<path fill="none" stroke="midnightblue" d="M547.24,-550.14C386.57,-547.43 0,-529.4 0,-418.5 0,-418.5 0,-418.5 0,-215.5 0,-153.96 71.04,-116.15 119.32,-97.55"/>
<polygon fill="midnightblue" stroke="midnightblue" points="547.44,-553.64 557.49,-550.29 547.55,-546.64 547.44,-553.64"/>
</g>
<!-- Node7 -->
<g id="node7" class="node">
<title>Node7</title>
<g id="a_node7"><a xlink:href="rpc_8h.html" target="_top" xlink:title="Handles RPC calls.">
<polygon fill="white" stroke="black" points="312.5,-268.5 312.5,-298.5 429.5,-298.5 429.5,-268.5 312.5,-268.5"/>
<text text-anchor="start" x="320.5" y="-286.5" font-family="Helvetica,sans-Serif" font-size="10.00">BaseStationCode/src</text>
<text text-anchor="middle" x="371" y="-275.5" font-family="Helvetica,sans-Serif" font-size="10.00">/src/rpc.h</text>
</a>
</g>
</g>
<!-- Node1&#45;&gt;Node7 -->
<g id="edge51" class="edge">
<title>Node1&#45;&gt;Node7</title>
<path fill="none" stroke="midnightblue" d="M547.46,-547.36C509.42,-542.11 463.9,-529.49 434,-500 376.42,-443.2 370.79,-336.9 370.73,-298.66"/>
<polygon fill="midnightblue" stroke="midnightblue" points="547.11,-550.85 557.46,-548.6 547.97,-543.9 547.11,-550.85"/>
</g>
<!-- Node8 -->
<g id="node8" class="node">
<title>Node8</title>
<g id="a_node8"><a xlink:href="lora_8h.html" target="_top" xlink:title="File that handles the LoRa radio and PJON.">
<polygon fill="white" stroke="black" points="609.5,-201.5 609.5,-231.5 726.5,-231.5 726.5,-201.5 609.5,-201.5"/>
<text text-anchor="start" x="617.5" y="-219.5" font-family="Helvetica,sans-Serif" font-size="10.00">BaseStationCode/src</text>
<text text-anchor="middle" x="668" y="-208.5" font-family="Helvetica,sans-Serif" font-size="10.00">/src/lora.h</text>
</a>
</g>
</g>
<!-- Node1&#45;&gt;Node8 -->
<g id="edge48" class="edge">
<title>Node1&#45;&gt;Node8</title>
<path fill="none" stroke="midnightblue" d="M685.07,-545.59C763.88,-535.8 882,-506.45 882,-418.5 882,-418.5 882,-418.5 882,-349.5 882,-312.2 888.19,-294.56 862,-268 843.18,-248.92 776.8,-234.52 726.89,-226.07"/>
<polygon fill="midnightblue" stroke="midnightblue" points="684.23,-542.17 674.7,-546.8 685.04,-549.12 684.23,-542.17"/>
</g>
<!-- Node10 -->
<g id="node10" class="node">
<title>Node10</title>
<g id="a_node10"><a xlink:href="networking_8h.html" target="_top" xlink:title="Header file for networking.cpp.">
<polygon fill="white" stroke="black" points="476.5,-134.5 476.5,-164.5 593.5,-164.5 593.5,-134.5 476.5,-134.5"/>
<text text-anchor="start" x="484.5" y="-152.5" font-family="Helvetica,sans-Serif" font-size="10.00">BaseStationCode/src</text>
<text text-anchor="middle" x="535" y="-141.5" font-family="Helvetica,sans-Serif" font-size="10.00">/src/networking.h</text>
</a>
</g>
</g>
<!-- Node1&#45;&gt;Node10 -->
<g id="edge49" class="edge">
<title>Node1&#45;&gt;Node10</title>
<path fill="none" stroke="midnightblue" d="M547.6,-536.58C526.59,-529.07 505.27,-517.57 491,-500 444.29,-442.47 453.05,-407.78 467,-335 476.28,-286.61 491.13,-278.29 508,-232 516.52,-208.61 525.41,-181.06 530.57,-164.72"/>
<polygon fill="midnightblue" stroke="midnightblue" points="546.61,-539.94 557.21,-539.76 548.81,-533.3 546.61,-539.94"/>
</g>
<!-- Node12 -->
<g id="node12" class="node">
<title>Node12</title>
<g id="a_node12"><a xlink:href="ota_8h.html" target="_top" xlink:title="Handles over the air (OTA) updates.">
<polygon fill="white" stroke="black" points="986.5,-67.5 986.5,-97.5 1103.5,-97.5 1103.5,-67.5 986.5,-67.5"/>
<text text-anchor="start" x="994.5" y="-85.5" font-family="Helvetica,sans-Serif" font-size="10.00">BaseStationCode/src</text>
<text text-anchor="middle" x="1045" y="-74.5" font-family="Helvetica,sans-Serif" font-size="10.00">/src/ota.h</text>
</a>
</g>
</g>
<!-- Node1&#45;&gt;Node12 -->
<g id="edge50" class="edge">
<title>Node1&#45;&gt;Node12</title>
<path fill="none" stroke="midnightblue" d="M685.03,-549.78C796.64,-547.49 1010.71,-538.1 1075,-500 1113.02,-477.46 1132,-462.7 1132,-418.5 1132,-418.5 1132,-418.5 1132,-215.5 1132,-165.55 1088.03,-119.9 1062.61,-97.69"/>
<polygon fill="midnightblue" stroke="midnightblue" points="684.81,-546.28 674.88,-549.97 684.95,-553.28 684.81,-546.28"/>
</g>
<!-- Node15 -->
<g id="node15" class="node">
<title>Node15</title>
<g id="a_node15"><a xlink:href="audio_8h.html" target="_top" xlink:title="Plays audio.">
<polygon fill="white" stroke="black" points="948.5,-469.5 948.5,-499.5 1065.5,-499.5 1065.5,-469.5 948.5,-469.5"/>
<text text-anchor="start" x="956.5" y="-487.5" font-family="Helvetica,sans-Serif" font-size="10.00">BaseStationCode/src</text>
<text text-anchor="middle" x="1007" y="-476.5" font-family="Helvetica,sans-Serif" font-size="10.00">/src/audio.h</text>
</a>
</g>
</g>
<!-- Node1&#45;&gt;Node15 -->
<g id="edge24" class="edge">
<title>Node1&#45;&gt;Node15</title>
<path fill="none" stroke="midnightblue" d="M684.77,-540.36C749.27,-530.67 848.34,-515.3 934,-500 938.71,-499.16 943.58,-498.26 948.47,-497.33"/>
<polygon fill="midnightblue" stroke="midnightblue" points="684.09,-536.92 674.72,-541.87 685.13,-543.85 684.09,-536.92"/>
</g>
<!-- Node17 -->
<g id="node17" class="node">
<title>Node17</title>
<g id="a_node17"><a xlink:href="conversions_8h.html" target="_top" xlink:title="General functions for converting to and from char arrays.">
<polygon fill="white" stroke="black" points="688.5,-469.5 688.5,-499.5 805.5,-499.5 805.5,-469.5 688.5,-469.5"/>
<text text-anchor="start" x="696.5" y="-487.5" font-family="Helvetica,sans-Serif" font-size="10.00">BaseStationCode/src</text>
<text text-anchor="middle" x="747" y="-476.5" font-family="Helvetica,sans-Serif" font-size="10.00">/src/conversions.h</text>
</a>
</g>
</g>
<!-- Node1&#45;&gt;Node17 -->
<g id="edge27" class="edge">
<title>Node1&#45;&gt;Node17</title>
<path fill="none" stroke="midnightblue" d="M653.58,-531.85C674.29,-521.58 699.59,-509.03 718.63,-499.58"/>
<polygon fill="midnightblue" stroke="midnightblue" points="651.83,-528.82 644.43,-536.4 654.94,-535.09 651.83,-528.82"/>
</g>
<!-- Node19 -->
<g id="node19" class="node">
<title>Node19</title>
<g id="a_node19"><a xlink:href="fields_8h.html" target="_top" xlink:title="Contains fields classes.">
<polygon fill="white" stroke="black" points="601.5,-402.5 601.5,-432.5 718.5,-432.5 718.5,-402.5 601.5,-402.5"/>
<text text-anchor="start" x="609.5" y="-420.5" font-family="Helvetica,sans-Serif" font-size="10.00">BaseStationCode/src</text>
<text text-anchor="middle" x="660" y="-409.5" font-family="Helvetica,sans-Serif" font-size="10.00">/src/fields.h</text>
</a>
</g>
</g>
<!-- Node1&#45;&gt;Node19 -->
<g id="edge42" class="edge">
<title>Node1&#45;&gt;Node19</title>
<path fill="none" stroke="midnightblue" d="M628.35,-527.08C632.44,-518.69 636.77,-509.07 640,-500 648.21,-476.94 654.26,-449.05 657.45,-432.6"/>
<polygon fill="midnightblue" stroke="midnightblue" points="625.1,-525.74 623.73,-536.25 631.35,-528.89 625.1,-525.74"/>
</g>
<!-- Node21 -->
<g id="node21" class="node">
<title>Node21</title>
<g id="a_node21"><a xlink:href="devices_8h.html" target="_top" xlink:title="Devices and manager for all known devices the base station connects to.">
<polygon fill="white" stroke="black" points="476.5,-335.5 476.5,-365.5 593.5,-365.5 593.5,-335.5 476.5,-335.5"/>
<text text-anchor="start" x="484.5" y="-353.5" font-family="Helvetica,sans-Serif" font-size="10.00">BaseStationCode/src</text>
<text text-anchor="middle" x="535" y="-342.5" font-family="Helvetica,sans-Serif" font-size="10.00">/src/devices.h</text>
</a>
</g>
</g>
<!-- Node1&#45;&gt;Node21 -->
<g id="edge41" class="edge">
<title>Node1&#45;&gt;Node21</title>
<path fill="none" stroke="midnightblue" d="M547.97,-533.87C531.1,-526.36 515.01,-515.55 505,-500 477.38,-457.09 508.85,-393.94 525.71,-365.86"/>
<polygon fill="midnightblue" stroke="midnightblue" points="546.8,-537.17 557.39,-537.7 549.45,-530.69 546.8,-537.17"/>
</g>
<!-- Node24 -->
<g id="node24" class="node">
<title>Node24</title>
<g id="a_node24"><a xlink:href="lookups_8h.html" target="_top" xlink:title="Lookupable and lookupable manager base classes.">
<polygon fill="white" stroke="black" points="514.5,-469.5 514.5,-499.5 631.5,-499.5 631.5,-469.5 514.5,-469.5"/>
<text text-anchor="start" x="522.5" y="-487.5" font-family="Helvetica,sans-Serif" font-size="10.00">BaseStationCode/src</text>
<text text-anchor="middle" x="573" y="-476.5" font-family="Helvetica,sans-Serif" font-size="10.00">/src/lookups.h</text>
</a>
</g>
</g>
<!-- Node1&#45;&gt;Node24 -->
<g id="edge44" class="edge">
<title>Node1&#45;&gt;Node24</title>
<path fill="none" stroke="midnightblue" d="M601.03,-527.87C594.8,-518.46 587.77,-507.83 582.31,-499.58"/>
<polygon fill="midnightblue" stroke="midnightblue" points="598.23,-529.99 606.67,-536.4 604.07,-526.12 598.23,-529.99"/>
</g>
<!-- Node3&#45;&gt;Node2 -->
<g id="edge3" class="edge">
<title>Node3&#45;&gt;Node2</title>
<path fill="none" stroke="midnightblue" d="M216.18,-325.27C227.24,-269.28 262.83,-130.85 353,-67 407.3,-28.55 600.2,-19.34 698.5,-17.16"/>
<polygon fill="midnightblue" stroke="midnightblue" points="212.7,-324.85 214.29,-335.32 219.58,-326.14 212.7,-324.85"/>
</g>
<!-- Node4 -->
<g id="node4" class="node">
<title>Node4</title>
<g id="a_node4"><a xlink:href="alarm_8cpp.html" target="_top" xlink:title="Handles alarms.">
<polygon fill="white" stroke="black" points="66.5,-268.5 66.5,-298.5 183.5,-298.5 183.5,-268.5 66.5,-268.5"/>
<text text-anchor="start" x="74.5" y="-286.5" font-family="Helvetica,sans-Serif" font-size="10.00">BaseStationCode/src</text>
<text text-anchor="middle" x="125" y="-275.5" font-family="Helvetica,sans-Serif" font-size="10.00">/src/alarm.cpp</text>
</a>
</g>
</g>
<!-- Node3&#45;&gt;Node4 -->
<g id="edge4" class="edge">
<title>Node3&#45;&gt;Node4</title>
<path fill="none" stroke="midnightblue" d="M184.79,-329.17C171.48,-319.23 155.8,-307.51 143.84,-298.58"/>
<polygon fill="midnightblue" stroke="midnightblue" points="183.02,-332.21 193.12,-335.4 187.21,-326.61 183.02,-332.21"/>
</g>
<!-- Node3&#45;&gt;Node5 -->
<g id="edge5" class="edge">
<title>Node3&#45;&gt;Node5</title>
<path fill="none" stroke="midnightblue" d="M143.07,-344.96C111.47,-339.01 76.73,-326.18 57,-299 6.79,-229.83 104.97,-133.25 146.08,-97.52"/>
<polygon fill="midnightblue" stroke="midnightblue" points="142.75,-348.45 153.19,-346.66 143.91,-341.55 142.75,-348.45"/>
</g>
<!-- Node3&#45;&gt;Node7 -->
<g id="edge8" class="edge">
<title>Node3&#45;&gt;Node7</title>
<path fill="none" stroke="midnightblue" d="M255.92,-331.54C281.37,-321.14 312.93,-308.24 336.57,-298.58"/>
<polygon fill="midnightblue" stroke="midnightblue" points="254.43,-328.37 246.5,-335.4 257.08,-334.85 254.43,-328.37"/>
</g>
<!-- Node5&#45;&gt;Node2 -->
<g id="edge6" class="edge">
<title>Node5&#45;&gt;Node2</title>
<path fill="none" stroke="midnightblue" d="M232.08,-67.59C233.4,-67.39 234.71,-67.19 236,-67 402.77,-42.42 601.41,-26.94 698.17,-20.29"/>
<polygon fill="midnightblue" stroke="midnightblue" points="231.17,-64.2 221.88,-69.28 232.32,-71.1 231.17,-64.2"/>
</g>
<!-- Node6 -->
<g id="node6" class="node">
<title>Node6</title>
<g id="a_node6"><a xlink:href="leds_8cpp.html" target="_top" xlink:title="Controls the LEDs on the unit.">
<polygon fill="white" stroke="black" points="104.5,-0.5 104.5,-30.5 221.5,-30.5 221.5,-0.5 104.5,-0.5"/>
<text text-anchor="start" x="112.5" y="-18.5" font-family="Helvetica,sans-Serif" font-size="10.00">BaseStationCode/src</text>
<text text-anchor="middle" x="163" y="-7.5" font-family="Helvetica,sans-Serif" font-size="10.00">/src/leds.cpp</text>
</a>
</g>
</g>
<!-- Node5&#45;&gt;Node6 -->
<g id="edge7" class="edge">
<title>Node5&#45;&gt;Node6</title>
<path fill="none" stroke="midnightblue" d="M163,-57.11C163,-48.15 163,-38.32 163,-30.58"/>
<polygon fill="midnightblue" stroke="midnightblue" points="159.5,-57.4 163,-67.4 166.5,-57.4 159.5,-57.4"/>
</g>
<!-- Node7&#45;&gt;Node2 -->
<g id="edge9" class="edge">
<title>Node7&#45;&gt;Node2</title>
<path fill="none" stroke="midnightblue" d="M352.79,-259.8C347.23,-251.54 341.85,-241.81 339,-232 317.68,-158.53 328.27,-114.79 388,-67 434.7,-29.63 606.61,-19.9 698.37,-17.38"/>
<polygon fill="midnightblue" stroke="midnightblue" points="350.09,-262.05 358.76,-268.12 355.77,-257.96 350.09,-262.05"/>
</g>
<!-- Node7&#45;&gt;Node8 -->
<g id="edge10" class="edge">
<title>Node7&#45;&gt;Node8</title>
<path fill="none" stroke="midnightblue" d="M439.71,-267.46C491.11,-256.21 560.66,-240.99 609.44,-230.32"/>
<polygon fill="midnightblue" stroke="midnightblue" points="438.7,-264.1 429.68,-269.66 440.19,-270.94 438.7,-264.1"/>
</g>
<!-- Node11 -->
<g id="node11" class="node">
<title>Node11</title>
<g id="a_node11"><a xlink:href="networking_8cpp.html" target="_top" xlink:title="File that handles connecting to WiFi and MQTT and staying connected.">
<polygon fill="white" stroke="black" points="397.5,-67.5 397.5,-97.5 514.5,-97.5 514.5,-67.5 397.5,-67.5"/>
<text text-anchor="start" x="405.5" y="-85.5" font-family="Helvetica,sans-Serif" font-size="10.00">BaseStationCode/src</text>
<text text-anchor="middle" x="456" y="-74.5" font-family="Helvetica,sans-Serif" font-size="10.00">/src/networking.cpp</text>
</a>
</g>
</g>
<!-- Node7&#45;&gt;Node11 -->
<g id="edge22" class="edge">
<title>Node7&#45;&gt;Node11</title>
<path fill="none" stroke="midnightblue" d="M355.18,-259.52C345.87,-243.03 337.29,-220.38 345,-201 363.15,-155.37 408.35,-117.21 435.14,-97.64"/>
<polygon fill="midnightblue" stroke="midnightblue" points="352.43,-261.74 360.63,-268.45 358.41,-258.09 352.43,-261.74"/>
</g>
<!-- Node14 -->
<g id="node14" class="node">
<title>Node14</title>
<g id="a_node14"><a xlink:href="rpc_8cpp.html" target="_top" xlink:title="Handles RPC calls.">
<polygon fill="white" stroke="black" points="354.5,-201.5 354.5,-231.5 471.5,-231.5 471.5,-201.5 354.5,-201.5"/>
<text text-anchor="start" x="362.5" y="-219.5" font-family="Helvetica,sans-Serif" font-size="10.00">BaseStationCode/src</text>
<text text-anchor="middle" x="413" y="-208.5" font-family="Helvetica,sans-Serif" font-size="10.00">/src/rpc.cpp</text>
</a>
</g>
</g>
<!-- Node7&#45;&gt;Node14 -->
<g id="edge23" class="edge">
<title>Node7&#45;&gt;Node14</title>
<path fill="none" stroke="midnightblue" d="M385.62,-259.87C391.7,-250.46 398.57,-239.83 403.9,-231.58"/>
<polygon fill="midnightblue" stroke="midnightblue" points="382.6,-258.1 380.11,-268.4 388.48,-261.9 382.6,-258.1"/>
</g>
<!-- Node8&#45;&gt;Node2 -->
<g id="edge11" class="edge">
<title>Node8&#45;&gt;Node2</title>
<path fill="none" stroke="midnightblue" d="M705.56,-196.06C717.47,-188.04 729.49,-177.63 737,-165 762.79,-121.62 760.98,-58.71 758.59,-30.78"/>
<polygon fill="midnightblue" stroke="midnightblue" points="703.56,-193.19 696.96,-201.48 707.29,-199.11 703.56,-193.19"/>
</g>
<!-- Node9 -->
<g id="node9" class="node">
<title>Node9</title>
<g id="a_node9"><a xlink:href="lora_8cpp.html" target="_top" xlink:title="File that handles the LoRa radio and PJON.">
<polygon fill="white" stroke="black" points="611.5,-134.5 611.5,-164.5 728.5,-164.5 728.5,-134.5 611.5,-134.5"/>
<text text-anchor="start" x="619.5" y="-152.5" font-family="Helvetica,sans-Serif" font-size="10.00">BaseStationCode/src</text>
<text text-anchor="middle" x="670" y="-141.5" font-family="Helvetica,sans-Serif" font-size="10.00">/src/lora.cpp</text>
</a>
</g>
</g>
<!-- Node8&#45;&gt;Node9 -->
<g id="edge12" class="edge">
<title>Node8&#45;&gt;Node9</title>
<path fill="none" stroke="midnightblue" d="M668.75,-191.11C669.03,-182.15 669.33,-172.32 669.57,-164.58"/>
<polygon fill="midnightblue" stroke="midnightblue" points="665.24,-191.29 668.43,-201.4 672.24,-191.51 665.24,-191.29"/>
</g>
<!-- Node8&#45;&gt;Node10 -->
<g id="edge13" class="edge">
<title>Node8&#45;&gt;Node10</title>
<path fill="none" stroke="midnightblue" d="M624.27,-197.13C602.19,-186.8 576.38,-174.11 558.13,-164.58"/>
<polygon fill="midnightblue" stroke="midnightblue" points="622.92,-200.36 633.46,-201.4 625.86,-194.01 622.92,-200.36"/>
</g>
<!-- Node10&#45;&gt;Node2 -->
<g id="edge14" class="edge">
<title>Node10&#45;&gt;Node2</title>
<path fill="none" stroke="midnightblue" d="M567.58,-129.13C612.81,-102.24 693.55,-54.22 733.41,-30.52"/>
<polygon fill="midnightblue" stroke="midnightblue" points="565.56,-126.25 558.76,-134.37 569.14,-132.27 565.56,-126.25"/>
</g>
<!-- Node10&#45;&gt;Node5 -->
<g id="edge15" class="edge">
<title>Node10&#45;&gt;Node5</title>
<path fill="none" stroke="midnightblue" d="M466.39,-136.51C396.18,-124.24 288.23,-105.38 221.81,-93.78"/>
<polygon fill="midnightblue" stroke="midnightblue" points="466.01,-140 476.47,-138.27 467.22,-133.1 466.01,-140"/>
</g>
<!-- Node10&#45;&gt;Node7 -->
<g id="edge21" class="edge">
<title>Node10&#45;&gt;Node7</title>
<path fill="none" stroke="midnightblue" d="M523.77,-173.77C514.19,-191.61 498.97,-215.84 480,-232 461.11,-248.09 436.22,-260.14 415.01,-268.42"/>
<polygon fill="midnightblue" stroke="midnightblue" points="527.02,-175.1 528.49,-164.61 520.8,-171.89 527.02,-175.1"/>
</g>
<!-- Node10&#45;&gt;Node8 -->
<g id="edge16" class="edge">
<title>Node10&#45;&gt;Node8</title>
<path fill="none" stroke="midnightblue" d="M578.67,-168.84C600.73,-179.16 626.55,-191.86 644.82,-201.4"/>
<polygon fill="midnightblue" stroke="midnightblue" points="580.02,-165.61 569.48,-164.58 577.08,-171.96 580.02,-165.61"/>
</g>
<!-- Node10&#45;&gt;Node11 -->
<g id="edge17" class="edge">
<title>Node10&#45;&gt;Node11</title>
<path fill="none" stroke="midnightblue" d="M509.94,-127.88C497.94,-118.01 483.87,-106.43 473.11,-97.58"/>
<polygon fill="midnightblue" stroke="midnightblue" points="507.91,-130.75 517.86,-134.4 512.36,-125.34 507.91,-130.75"/>
</g>
<!-- Node10&#45;&gt;Node12 -->
<g id="edge18" class="edge">
<title>Node10&#45;&gt;Node12</title>
<path fill="none" stroke="midnightblue" d="M604,-133.76C746.48,-110.71 903.28,-95.54 986.34,-88.31"/>
<polygon fill="midnightblue" stroke="midnightblue" points="603.07,-130.37 593.76,-135.44 604.2,-137.28 603.07,-130.37"/>
</g>
<!-- Node12&#45;&gt;Node2 -->
<g id="edge19" class="edge">
<title>Node12&#45;&gt;Node2</title>
<path fill="none" stroke="midnightblue" d="M976.48,-66.04C927.45,-54.97 862.15,-40.23 815.55,-29.71"/>
<polygon fill="midnightblue" stroke="midnightblue" points="975.85,-69.48 986.37,-68.27 977.39,-62.65 975.85,-69.48"/>
</g>
<!-- Node13 -->
<g id="node13" class="node">
<title>Node13</title>
<g id="a_node13"><a xlink:href="ota_8cpp.html" target="_top" xlink:title="Handles over the air (OTA) updates.">
<polygon fill="white" stroke="black" points="986.5,-0.5 986.5,-30.5 1103.5,-30.5 1103.5,-0.5 986.5,-0.5"/>
<text text-anchor="start" x="994.5" y="-18.5" font-family="Helvetica,sans-Serif" font-size="10.00">BaseStationCode/src</text>
<text text-anchor="middle" x="1045" y="-7.5" font-family="Helvetica,sans-Serif" font-size="10.00">/src/ota.cpp</text>
</a>
</g>
</g>
<!-- Node12&#45;&gt;Node13 -->
<g id="edge20" class="edge">
<title>Node12&#45;&gt;Node13</title>
<path fill="none" stroke="midnightblue" d="M1045,-57.11C1045,-48.15 1045,-38.32 1045,-30.58"/>
<polygon fill="midnightblue" stroke="midnightblue" points="1041.5,-57.4 1045,-67.4 1048.5,-57.4 1041.5,-57.4"/>
</g>
<!-- Node15&#45;&gt;Node2 -->
<g id="edge25" class="edge">
<title>Node15&#45;&gt;Node2</title>
<path fill="none" stroke="midnightblue" d="M991.38,-460.6C986.2,-452.21 980.8,-442.45 977,-433 963.12,-398.49 958,-388.69 958,-351.5 958,-351.5 958,-351.5 958,-148.5 958,-110.74 960.81,-93.59 934,-67 902.8,-36.06 854.05,-23.79 815.61,-19.06"/>
<polygon fill="midnightblue" stroke="midnightblue" points="988.48,-462.56 996.82,-469.1 994.37,-458.79 988.48,-462.56"/>
</g>
<!-- Node16 -->
<g id="node16" class="node">
<title>Node16</title>
<g id="a_node16"><a xlink:href="audio_8cpp.html" target="_top" xlink:title="Plays audio.">
<polygon fill="white" stroke="black" points="986.5,-402.5 986.5,-432.5 1103.5,-432.5 1103.5,-402.5 986.5,-402.5"/>
<text text-anchor="start" x="994.5" y="-420.5" font-family="Helvetica,sans-Serif" font-size="10.00">BaseStationCode/src</text>
<text text-anchor="middle" x="1045" y="-409.5" font-family="Helvetica,sans-Serif" font-size="10.00">/src/audio.cpp</text>
</a>
</g>
</g>
<!-- Node15&#45;&gt;Node16 -->
<g id="edge26" class="edge">
<title>Node15&#45;&gt;Node16</title>
<path fill="none" stroke="midnightblue" d="M1020.4,-460.58C1025.86,-451.24 1031.99,-440.75 1036.77,-432.58"/>
<polygon fill="midnightblue" stroke="midnightblue" points="1017.27,-459 1015.25,-469.4 1023.31,-462.53 1017.27,-459"/>
</g>
<!-- Node18 -->
<g id="node18" class="node">
<title>Node18</title>
<g id="a_node18"><a xlink:href="conversions_8cpp.html" target="_top" xlink:title="General functions for converting to and from char arrays.">
<polygon fill="white" stroke="black" points="736.5,-402.5 736.5,-432.5 853.5,-432.5 853.5,-402.5 736.5,-402.5"/>
<text text-anchor="start" x="744.5" y="-420.5" font-family="Helvetica,sans-Serif" font-size="10.00">BaseStationCode/src</text>
<text text-anchor="middle" x="795" y="-409.5" font-family="Helvetica,sans-Serif" font-size="10.00">/src/conversions.cpp</text>
</a>
</g>
</g>
<!-- Node17&#45;&gt;Node18 -->
<g id="edge28" class="edge">
<title>Node17&#45;&gt;Node18</title>
<path fill="none" stroke="midnightblue" d="M763.5,-461.16C770.5,-451.68 778.44,-440.92 784.61,-432.58"/>
<polygon fill="midnightblue" stroke="midnightblue" points="760.54,-459.27 757.42,-469.4 766.17,-463.43 760.54,-459.27"/>
</g>
<!-- Node17&#45;&gt;Node19 -->
<g id="edge29" class="edge">
<title>Node17&#45;&gt;Node19</title>
<path fill="none" stroke="midnightblue" d="M719.79,-463.17C706.48,-453.23 690.8,-441.51 678.84,-432.58"/>
<polygon fill="midnightblue" stroke="midnightblue" points="718.02,-466.21 728.12,-469.4 722.21,-460.61 718.02,-466.21"/>
</g>
<!-- Node19&#45;&gt;Node7 -->
<g id="edge40" class="edge">
<title>Node19&#45;&gt;Node7</title>
<path fill="none" stroke="midnightblue" d="M591.39,-406.29C553.24,-398.74 505.78,-386.18 467,-366 433.06,-348.34 400.66,-316.74 383.56,-298.51"/>
<polygon fill="midnightblue" stroke="midnightblue" points="590.9,-409.76 601.38,-408.19 592.21,-402.88 590.9,-409.76"/>
</g>
<!-- Node20 -->
<g id="node20" class="node">
<title>Node20</title>
<g id="a_node20"><a xlink:href="device__list_8h.html" target="_top" xlink:title="List of all devices and fields known to the system.">
<polygon fill="white" stroke="black" points="736.5,-268.5 736.5,-298.5 853.5,-298.5 853.5,-268.5 736.5,-268.5"/>
<text text-anchor="start" x="744.5" y="-286.5" font-family="Helvetica,sans-Serif" font-size="10.00">BaseStationCode/src</text>
<text text-anchor="middle" x="795" y="-275.5" font-family="Helvetica,sans-Serif" font-size="10.00">/device_list.h</text>
</a>
</g>
</g>
<!-- Node19&#45;&gt;Node20 -->
<g id="edge30" class="edge">
<title>Node19&#45;&gt;Node20</title>
<path fill="none" stroke="midnightblue" d="M727.98,-399.13C745.83,-391.59 763.55,-380.95 776,-366 792.09,-346.69 795.11,-316.26 795.38,-298.56"/>
<polygon fill="midnightblue" stroke="midnightblue" points="726.68,-395.88 718.66,-402.79 729.24,-402.39 726.68,-395.88"/>
</g>
<!-- Node19&#45;&gt;Node21 -->
<g id="edge32" class="edge">
<title>Node19&#45;&gt;Node21</title>
<path fill="none" stroke="midnightblue" d="M623.87,-397.71C604.16,-387.46 580.16,-374.98 562.07,-365.58"/>
<polygon fill="midnightblue" stroke="midnightblue" points="622.39,-400.89 632.88,-402.4 625.62,-394.68 622.39,-400.89"/>
</g>
<!-- Node23 -->
<g id="node23" class="node">
<title>Node23</title>
<g id="a_node23"><a xlink:href="fields_8cpp.html" target="_top" xlink:title="Contains fields classes.">
<polygon fill="white" stroke="black" points="650.5,-335.5 650.5,-365.5 767.5,-365.5 767.5,-335.5 650.5,-335.5"/>
<text text-anchor="start" x="658.5" y="-353.5" font-family="Helvetica,sans-Serif" font-size="10.00">BaseStationCode/src</text>
<text text-anchor="middle" x="709" y="-342.5" font-family="Helvetica,sans-Serif" font-size="10.00">/src/fields.cpp</text>
</a>
</g>
</g>
<!-- Node19&#45;&gt;Node23 -->
<g id="edge39" class="edge">
<title>Node19&#45;&gt;Node23</title>
<path fill="none" stroke="midnightblue" d="M676.84,-394.16C683.99,-384.68 692.1,-373.92 698.39,-365.58"/>
<polygon fill="midnightblue" stroke="midnightblue" points="673.86,-392.3 670.63,-402.4 679.45,-396.52 673.86,-392.3"/>
</g>
<!-- Node20&#45;&gt;Node2 -->
<g id="edge31" class="edge">
<title>Node20&#45;&gt;Node2</title>
<path fill="none" stroke="midnightblue" d="M794.15,-258.35C792.37,-218.23 787.19,-135.5 773,-67 770.43,-54.57 765.98,-40.87 762.42,-30.88"/>
<polygon fill="midnightblue" stroke="midnightblue" points="790.66,-258.63 794.56,-268.48 797.65,-258.35 790.66,-258.63"/>
</g>
<!-- Node21&#45;&gt;Node5 -->
<g id="edge35" class="edge">
<title>Node21&#45;&gt;Node5</title>
<path fill="none" stroke="midnightblue" d="M466.02,-348.12C416.75,-344.07 350.97,-332.14 303,-299 226.46,-246.13 181.73,-136.43 167.77,-97.54"/>
<polygon fill="midnightblue" stroke="midnightblue" points="466.04,-351.63 476.27,-348.87 466.55,-344.65 466.04,-351.63"/>
</g>
<!-- Node21&#45;&gt;Node7 -->
<g id="edge38" class="edge">
<title>Node21&#45;&gt;Node7</title>
<path fill="none" stroke="midnightblue" d="M490.04,-331.68C463.74,-321.26 431,-308.28 406.52,-298.58"/>
<polygon fill="midnightblue" stroke="midnightblue" points="488.83,-334.97 499.41,-335.4 491.41,-328.46 488.83,-334.97"/>
</g>
<!-- Node21&#45;&gt;Node8 -->
<g id="edge36" class="edge">
<title>Node21&#45;&gt;Node8</title>
<path fill="none" stroke="midnightblue" d="M534.74,-325.34C535.76,-307.66 539.83,-284.05 553,-268 567.32,-250.55 588.85,-238.96 609.43,-231.34"/>
<polygon fill="midnightblue" stroke="midnightblue" points="531.23,-325.37 534.43,-335.46 538.23,-325.57 531.23,-325.37"/>
</g>
<!-- Node21&#45;&gt;Node10 -->
<g id="edge37" class="edge">
<title>Node21&#45;&gt;Node10</title>
<path fill="none" stroke="midnightblue" d="M532.24,-325.12C531.05,-308.77 530.77,-286.85 535,-268 538.87,-250.73 548.13,-249.27 552,-232 555.01,-218.56 554.23,-214.6 552,-201 549.94,-188.4 545.16,-174.71 541.19,-164.77"/>
<polygon fill="midnightblue" stroke="midnightblue" points="528.78,-325.8 533.16,-335.45 535.76,-325.18 528.78,-325.8"/>
</g>
<!-- Node21&#45;&gt;Node20 -->
<g id="edge33" class="edge">
<title>Node21&#45;&gt;Node20</title>
<path fill="none" stroke="midnightblue" d="M601.06,-332.98C643.53,-322.37 698.12,-308.72 738.56,-298.61"/>
<polygon fill="midnightblue" stroke="midnightblue" points="599.95,-329.66 591.1,-335.48 601.65,-336.45 599.95,-329.66"/>
</g>
<!-- Node22 -->
<g id="node22" class="node">
<title>Node22</title>
<g id="a_node22"><a xlink:href="devices_8cpp.html" target="_top" xlink:title="Devices and manager for all known devices the base station connects to.">
<polygon fill="white" stroke="black" points="562.5,-268.5 562.5,-298.5 679.5,-298.5 679.5,-268.5 562.5,-268.5"/>
<text text-anchor="start" x="570.5" y="-286.5" font-family="Helvetica,sans-Serif" font-size="10.00">BaseStationCode/src</text>
<text text-anchor="middle" x="621" y="-275.5" font-family="Helvetica,sans-Serif" font-size="10.00">/src/devices.cpp</text>
</a>
</g>
</g>
<!-- Node21&#45;&gt;Node22 -->
<g id="edge34" class="edge">
<title>Node21&#45;&gt;Node22</title>
<path fill="none" stroke="midnightblue" d="M561.9,-329.17C575.05,-319.23 590.55,-307.51 602.38,-298.58"/>
<polygon fill="midnightblue" stroke="midnightblue" points="559.53,-326.57 553.66,-335.4 563.75,-332.16 559.53,-326.57"/>
</g>
<!-- Node24&#45;&gt;Node8 -->
<g id="edge47" class="edge">
<title>Node24&#45;&gt;Node8</title>
<path fill="none" stroke="midnightblue" d="M576.02,-459.36C578.72,-442.69 583.6,-420.31 592,-402 607.39,-368.47 615.2,-361.37 641,-335 659.4,-316.19 676.35,-322.59 688,-299 698.9,-276.92 686.69,-248.48 677.14,-231.69"/>
<polygon fill="midnightblue" stroke="midnightblue" points="572.54,-458.99 574.54,-469.39 579.46,-460.01 572.54,-458.99"/>
</g>
<!-- Node24&#45;&gt;Node19 -->
<g id="edge46" class="edge">
<title>Node24&#45;&gt;Node19</title>
<path fill="none" stroke="midnightblue" d="M600.21,-463.17C613.52,-453.23 629.2,-441.51 641.16,-432.58"/>
<polygon fill="midnightblue" stroke="midnightblue" points="597.79,-460.61 591.88,-469.4 601.98,-466.21 597.79,-460.61"/>
</g>
<!-- Node24&#45;&gt;Node21 -->
<g id="edge45" class="edge">
<title>Node24&#45;&gt;Node21</title>
<path fill="none" stroke="midnightblue" d="M566.16,-459.75C558.26,-432.29 545.5,-387.99 539.04,-365.52"/>
<polygon fill="midnightblue" stroke="midnightblue" points="562.8,-460.73 568.93,-469.37 569.53,-458.8 562.8,-460.73"/>
</g>
</g>
</svg>
        <g id="navigator" transform="translate(0 0)" fill="#404254">
                <rect fill="#f2f5e9" fill-opacity="0.5" stroke="#606060" stroke-width=".5" x="0" y="0" width="60" height="60"/>
                <use id="zoomplus" xlink:href="#zoomPlus" x="17" y="9" onmousedown="handleZoom(evt,'in')"/>
                <use id="zoomminus" xlink:href="#zoomMin" x="42" y="9" onmousedown="handleZoom(evt,'out')"/>
                <use id="reset" xlink:href="#resetDef" x="30" y="36" onmousedown="handleReset()"/>
                <g id="arrowUp" xlink:href="#dirArrow" transform="translate(30 24)" onmousedown="handlePan(0,-1)">
                  <use xlink:href="#rim" fill="#404040">
                        <set attributeName="fill" to="#808080" begin="arrowUp.mouseover" end="arrowUp.mouseout"/>
                  </use>
                  <path fill="none" stroke="white" stroke-width="1.5" d="M0,-3.0v7 M-2.5,-0.5L0,-3.0L2.5,-0.5"/>
                </g>
                <g id="arrowRight" xlink:href="#dirArrow" transform="rotate(90) translate(36 -43)" onmousedown="handlePan(1,0)">
                  <use xlink:href="#rim" fill="#404040">
                        <set attributeName="fill" to="#808080" begin="arrowRight.mouseover" end="arrowRight.mouseout"/>
                  </use>
                  <path fill="none" stroke="white" stroke-width="1.5" d="M0,-3.0v7 M-2.5,-0.5L0,-3.0L2.5,-0.5"/>
                </g>
                <g id="arrowDown" xlink:href="#dirArrow" transform="rotate(180) translate(-30 -48)" onmousedown="handlePan(0,1)">
                  <use xlink:href="#rim" fill="#404040">
                        <set attributeName="fill" to="#808080" begin="arrowDown.mouseover" end="arrowDown.mouseout"/>
                  </use>
                  <path fill="none" stroke="white" stroke-width="1.5" d="M0,-3.0v7 M-2.5,-0.5L0,-3.0L2.5,-0.5"/>
                </g>
                <g id="arrowLeft" xlink:href="#dirArrow" transform="rotate(270) translate(-36 17)" onmousedown="handlePan(-1,0)">
                  <use xlink:href="#rim" fill="#404040">
                        <set attributeName="fill" to="#808080" begin="arrowLeft.mouseover" end="arrowLeft.mouseout"/>
                  </use>
                  <path fill="none" stroke="white" stroke-width="1.5" d="M0,-3.0v7 M-2.5,-0.5L0,-3.0L2.5,-0.5"/>
                </g>
        </g>
        <svg viewBox="0 0 15 15" width="100%" height="30px" preserveAspectRatio="xMaxYMin meet">
         <g id="arrow_out" transform="scale(0.3 0.3)">
          <a xlink:href="defines_8h__dep__incl_org.svg" target="_base">
           <rect id="button" ry="5" rx="5" y="6" x="6" height="38" width="38"
                fill="#f2f5e9" fill-opacity="0.5" stroke="#606060" stroke-width="1.0"/>
           <path id="arrow"
             d="M 11.500037,31.436501 C 11.940474,20.09759 22.043105,11.32322 32.158766,21.979434 L 37.068811,17.246167 C 37.068811,17.246167 37.088388,32 37.088388,32 L 22.160133,31.978069 C 22.160133,31.978069 26.997745,27.140456 26.997745,27.140456 C 18.528582,18.264221 13.291696,25.230495 11.500037,31.436501 z"
             style="fill:#404040;"/>
          </a>
         </g>
        </svg>
</svg>
