<?xml version="1.0" encoding="UTF-8" standalone="no"?>
<!DOCTYPE svg PUBLIC "-//W3C//DTD SVG 1.1//EN"
 "http://www.w3.org/Graphics/SVG/1.1/DTD/svg11.dtd">
<!-- Generated by graphviz version 2.43.0 (0)
 -->
<!-- Title: BaseStationCode/src/device_list.h Pages: 1 -->
<svg width="565pt" height="313pt"
 viewBox="0.00 0.00 564.50 313.00" xmlns="http://www.w3.org/2000/svg" xmlns:xlink="http://www.w3.org/1999/xlink">
<g id="graph0" class="graph" transform="scale(1 1) rotate(0) translate(4 309)">
<title>BaseStationCode/src/device_list.h</title>
<!-- Node1 -->
<g id="Node000001" class="node">
<title>Node1</title>
<g id="a_Node000001"><a xlink:title="List of all devices and fields known to the system.">
<polygon fill="#999999" stroke="#666666" points="314,-305 197,-305 197,-275 314,-275 314,-305"/>
<text text-anchor="start" x="205" y="-293" font-family="Helvetica,sans-Serif" font-size="10.00">BaseStationCode/src</text>
<text text-anchor="middle" x="255.5" y="-282" font-family="Helvetica,sans-Serif" font-size="10.00">/device_list.h</text>
</a>
</g>
</g>
<!-- Node2 -->
<g id="Node000002" class="node">
<title>Node2</title>
<g id="a_Node000002"><a xlink:href="fields_8h.html" target="_top" xlink:title="Contains fields classes.">
<polygon fill="white" stroke="#666666" points="256,-184 187,-184 187,-165 256,-165 256,-184"/>
<text text-anchor="middle" x="221.5" y="-172" font-family="Helvetica,sans-Serif" font-size="10.00">src/fields.h</text>
</a>
</g>
</g>
<!-- Node1&#45;&gt;Node2 -->
<g id="edge1_Node000001_Node000002" class="edge">
<title>Node1&#45;&gt;Node2</title>
<g id="a_edge1_Node000001_Node000002"><a xlink:title=" ">
<path fill="none" stroke="#63b8ff" d="M251.29,-274.99C248.29,-264.97 244.14,-251.15 240.5,-239 235.95,-223.82 230.8,-206.61 227.01,-193.93"/>
<polygon fill="#63b8ff" stroke="#63b8ff" points="230.3,-192.71 224.08,-184.13 223.59,-194.71 230.3,-192.71"/>
</a>
</g>
</g>
<!-- Node12 -->
<g id="Node000012" class="node">
<title>Node12</title>
<g id="a_Node000012"><a xlink:href="devices_8h.html" target="_top" xlink:title="Devices and manager for all known devices the base station connects to.">
<polygon fill="white" stroke="#666666" points="329.5,-239 249.5,-239 249.5,-220 329.5,-220 329.5,-239"/>
<text text-anchor="middle" x="289.5" y="-227" font-family="Helvetica,sans-Serif" font-size="10.00">src/devices.h</text>
</a>
</g>
</g>
<!-- Node1&#45;&gt;Node12 -->
<g id="edge13_Node000001_Node000012" class="edge">
<title>Node1&#45;&gt;Node12</title>
<g id="a_edge13_Node000001_Node000012"><a xlink:title=" ">
<path fill="none" stroke="#63b8ff" d="M263.73,-274.84C268.41,-266.78 274.32,-256.62 279.3,-248.06"/>
<polygon fill="#63b8ff" stroke="#63b8ff" points="282.41,-249.67 284.41,-239.27 276.35,-246.15 282.41,-249.67"/>
</a>
</g>
</g>
<!-- Node3 -->
<g id="Node000003" class="node">
<title>Node3</title>
<g id="a_Node000003"><a xlink:href="defines_8h.html" target="_top" xlink:title="Definitions and other preprocessor and global stuff.">
<polygon fill="white" stroke="#666666" points="278.5,-74 208.5,-74 208.5,-55 278.5,-55 278.5,-74"/>
<text text-anchor="middle" x="243.5" y="-62" font-family="Helvetica,sans-Serif" font-size="10.00">../defines.h</text>
</a>
</g>
</g>
<!-- Node2&#45;&gt;Node3 -->
<g id="edge2_Node000002_Node000003" class="edge">
<title>Node2&#45;&gt;Node3</title>
<g id="a_edge2_Node000002_Node000003"><a xlink:title=" ">
<path fill="none" stroke="#63b8ff" d="M196.01,-164.89C168.6,-154.17 130.93,-134.27 146.5,-110 158.05,-91.99 178.92,-81.17 198.35,-74.72"/>
<polygon fill="#63b8ff" stroke="#63b8ff" points="199.46,-78.05 208.03,-71.82 197.44,-71.34 199.46,-78.05"/>
</a>
</g>
</g>
<!-- Node10 -->
<g id="Node000010" class="node">
<title>Node10</title>
<g id="a_Node000010"><a xlink:href="lookups_8h.html" target="_top" xlink:title="Lookupable and lookupable manager base classes.">
<polygon fill="white" stroke="#666666" points="321,-129 258,-129 258,-110 321,-110 321,-129"/>
<text text-anchor="middle" x="289.5" y="-117" font-family="Helvetica,sans-Serif" font-size="10.00">lookups.h</text>
</a>
</g>
</g>
<!-- Node2&#45;&gt;Node10 -->
<g id="edge9_Node000002_Node000010" class="edge">
<title>Node2&#45;&gt;Node10</title>
<g id="a_edge9_Node000002_Node000010"><a xlink:title=" ">
<path fill="none" stroke="#63b8ff" d="M232.43,-164.98C242.58,-157.07 257.92,-145.11 270.15,-135.58"/>
<polygon fill="#63b8ff" stroke="#63b8ff" points="272.64,-138.08 278.38,-129.17 268.34,-132.56 272.64,-138.08"/>
</a>
</g>
</g>
<!-- Node11 -->
<g id="Node000011" class="node">
<title>Node11</title>
<g id="a_Node000011"><a xlink:href="conversions_8h.html" target="_top" xlink:title="General functions for converting to and from char arrays.">
<polygon fill="white" stroke="#666666" points="239.5,-129 155.5,-129 155.5,-110 239.5,-110 239.5,-129"/>
<text text-anchor="middle" x="197.5" y="-117" font-family="Helvetica,sans-Serif" font-size="10.00">conversions.h</text>
</a>
</g>
</g>
<!-- Node2&#45;&gt;Node11 -->
<g id="edge11_Node000002_Node000011" class="edge">
<title>Node2&#45;&gt;Node11</title>
<g id="a_edge11_Node000002_Node000011"><a xlink:title=" ">
<path fill="none" stroke="#63b8ff" d="M217.54,-164.75C214.29,-157.57 209.58,-147.18 205.55,-138.27"/>
<polygon fill="#63b8ff" stroke="#63b8ff" points="208.7,-136.75 201.39,-129.09 202.33,-139.64 208.7,-136.75"/>
</a>
</g>
</g>
<!-- Node4 -->
<g id="Node000004" class="node">
<title>Node4</title>
<g id="a_Node000004"><a xlink:title=" ">
<polygon fill="#e0e0e0" stroke="#999999" points="63,-19 0,-19 0,0 63,0 63,-19"/>
<text text-anchor="middle" x="31.5" y="-7" font-family="Helvetica,sans-Serif" font-size="10.00">Arduino.h</text>
</a>
</g>
</g>
<!-- Node3&#45;&gt;Node4 -->
<g id="edge3_Node000003_Node000004" class="edge">
<title>Node3&#45;&gt;Node4</title>
<g id="a_edge3_Node000003_Node000004"><a xlink:title=" ">
<path fill="none" stroke="#63b8ff" d="M209.44,-54.98C172.29,-45.7 112.83,-30.83 72.98,-20.87"/>
<polygon fill="#63b8ff" stroke="#63b8ff" points="73.6,-17.42 63.05,-18.39 71.91,-24.21 73.6,-17.42"/>
</a>
</g>
</g>
<!-- Node5 -->
<g id="Node000005" class="node">
<title>Node5</title>
<g id="a_Node000005"><a xlink:title=" ">
<polygon fill="#e0e0e0" stroke="#999999" points="128,-19 81,-19 81,0 128,0 128,-19"/>
<text text-anchor="middle" x="104.5" y="-7" font-family="Helvetica,sans-Serif" font-size="10.00">WiFi.h</text>
</a>
</g>
</g>
<!-- Node3&#45;&gt;Node5 -->
<g id="edge4_Node000003_Node000005" class="edge">
<title>Node3&#45;&gt;Node5</title>
<g id="a_edge4_Node000003_Node000005"><a xlink:title=" ">
<path fill="none" stroke="#63b8ff" d="M221.17,-54.98C198.3,-46.27 162.54,-32.63 136.64,-22.75"/>
<polygon fill="#63b8ff" stroke="#63b8ff" points="137.83,-19.46 127.24,-19.17 135.34,-26 137.83,-19.46"/>
</a>
</g>
</g>
<!-- Node6 -->
<g id="Node000006" class="node">
<title>Node6</title>
<g id="a_Node000006"><a xlink:title=" ">
<polygon fill="#e0e0e0" stroke="#999999" points="236.5,-19 146.5,-19 146.5,0 236.5,0 236.5,-19"/>
<text text-anchor="middle" x="191.5" y="-7" font-family="Helvetica,sans-Serif" font-size="10.00">PubSubClient.h</text>
</a>
</g>
</g>
<!-- Node3&#45;&gt;Node6 -->
<g id="edge5_Node000003_Node000006" class="edge">
<title>Node3&#45;&gt;Node6</title>
<g id="a_edge5_Node000003_Node000006"><a xlink:title=" ">
<path fill="none" stroke="#63b8ff" d="M234.91,-54.75C227.34,-47.03 216.12,-35.6 206.99,-26.28"/>
<polygon fill="#63b8ff" stroke="#63b8ff" points="209.43,-23.78 199.93,-19.09 204.43,-28.68 209.43,-23.78"/>
</a>
</g>
</g>
<!-- Node7 -->
<g id="Node000007" class="node">
<title>Node7</title>
<g id="a_Node000007"><a xlink:title=" ">
<polygon fill="#e0e0e0" stroke="#999999" points="338,-19 255,-19 255,0 338,0 338,-19"/>
<text text-anchor="middle" x="296.5" y="-7" font-family="Helvetica,sans-Serif" font-size="10.00">ArduinoJson.h</text>
</a>
</g>
</g>
<!-- Node3&#45;&gt;Node7 -->
<g id="edge6_Node000003_Node000007" class="edge">
<title>Node3&#45;&gt;Node7</title>
<g id="a_edge6_Node000003_Node000007"><a xlink:title=" ">
<path fill="none" stroke="#63b8ff" d="M252.25,-54.75C259.97,-47.03 271.4,-35.6 280.72,-26.28"/>
<polygon fill="#63b8ff" stroke="#63b8ff" points="283.31,-28.64 287.91,-19.09 278.36,-23.69 283.31,-28.64"/>
</a>
</g>
</g>
<!-- Node8 -->
<g id="Node000008" class="node">
<title>Node8</title>
<g id="a_Node000008"><a xlink:title=" ">
<polygon fill="#e0e0e0" stroke="#999999" points="466.5,-19 356.5,-19 356.5,0 466.5,0 466.5,-19"/>
<text text-anchor="middle" x="411.5" y="-7" font-family="Helvetica,sans-Serif" font-size="10.00">PJONThroughLora.h</text>
</a>
</g>
</g>
<!-- Node3&#45;&gt;Node8 -->
<g id="edge7_Node000003_Node000008" class="edge">
<title>Node3&#45;&gt;Node8</title>
<g id="a_edge7_Node000003_Node000008"><a xlink:title=" ">
<path fill="none" stroke="#63b8ff" d="M270.49,-54.98C298.7,-46.09 343.14,-32.07 374.58,-22.15"/>
<polygon fill="#63b8ff" stroke="#63b8ff" points="375.81,-25.43 384.3,-19.08 373.71,-18.75 375.81,-25.43"/>
</a>
</g>
</g>
<!-- Node9 -->
<g id="Node000009" class="node">
<title>Node9</title>
<g id="a_Node000009"><a xlink:href="topics_8h.html" target="_top" xlink:title="MQTT topics for a thingsboard gateway.">
<polygon fill="white" stroke="#666666" points="556.5,-19 484.5,-19 484.5,0 556.5,0 556.5,-19"/>
<text text-anchor="middle" x="520.5" y="-7" font-family="Helvetica,sans-Serif" font-size="10.00">src/topics.h</text>
</a>
</g>
</g>
<!-- Node3&#45;&gt;Node9 -->
<g id="edge8_Node000003_Node000009" class="edge">
<title>Node3&#45;&gt;Node9</title>
<g id="a_edge8_Node000003_Node000009"><a xlink:title=" ">
<path fill="none" stroke="#63b8ff" d="M278.58,-56.79C328.33,-47.27 419.44,-29.84 474.54,-19.29"/>
<polygon fill="#63b8ff" stroke="#63b8ff" points="475.22,-22.73 484.39,-17.41 473.91,-15.85 475.22,-22.73"/>
</a>
</g>
</g>
<!-- Node10&#45;&gt;Node3 -->
<g id="edge10_Node000010_Node000003" class="edge">
<title>Node10&#45;&gt;Node3</title>
<g id="a_edge10_Node000010_Node000003"><a xlink:title=" ">
<path fill="none" stroke="#63b8ff" d="M281.9,-109.75C275.34,-102.18 265.68,-91.05 257.69,-81.84"/>
<polygon fill="#63b8ff" stroke="#63b8ff" points="260.15,-79.35 250.95,-74.09 254.87,-83.94 260.15,-79.35"/>
</a>
</g>
</g>
<!-- Node11&#45;&gt;Node3 -->
<g id="edge12_Node000011_Node000003" class="edge">
<title>Node11&#45;&gt;Node3</title>
<g id="a_edge12_Node000011_Node000003"><a xlink:title=" ">
<path fill="none" stroke="#63b8ff" d="M205.1,-109.75C211.66,-102.18 221.32,-91.05 229.31,-81.84"/>
<polygon fill="#63b8ff" stroke="#63b8ff" points="232.13,-83.94 236.05,-74.09 226.85,-79.35 232.13,-83.94"/>
</a>
</g>
</g>
<!-- Node12&#45;&gt;Node2 -->
<g id="edge16_Node000012_Node000002" class="edge">
<title>Node12&#45;&gt;Node2</title>
<g id="a_edge16_Node000012_Node000002"><a xlink:title=" ">
<path fill="none" stroke="#63b8ff" d="M278.57,-219.98C268.42,-212.07 253.08,-200.11 240.85,-190.58"/>
<polygon fill="#63b8ff" stroke="#63b8ff" points="242.66,-187.56 232.62,-184.17 238.36,-193.08 242.66,-187.56"/>
</a>
</g>
</g>
<!-- Node12&#45;&gt;Node3 -->
<g id="edge14_Node000012_Node000003" class="edge">
<title>Node12&#45;&gt;Node3</title>
<g id="a_edge14_Node000012_Node000003"><a xlink:title=" ">
<path fill="none" stroke="#63b8ff" d="M297.27,-219.91C314.65,-199.61 353.45,-147.51 330.5,-110 321.03,-94.51 304.27,-84.2 287.98,-77.44"/>
<polygon fill="#63b8ff" stroke="#63b8ff" points="289.09,-74.12 278.5,-73.86 286.62,-80.67 289.09,-74.12"/>
</a>
</g>
</g>
<!-- Node12&#45;&gt;Node10 -->
<g id="edge15_Node000012_Node000010" class="edge">
<title>Node12&#45;&gt;Node10</title>
<g id="a_edge15_Node000012_Node000010"><a xlink:title=" ">
<path fill="none" stroke="#63b8ff" d="M289.5,-219.66C289.5,-202.17 289.5,-162.8 289.5,-139.27"/>
<polygon fill="#63b8ff" stroke="#63b8ff" points="293,-139.16 289.5,-129.16 286,-139.16 293,-139.16"/>
</a>
</g>
</g>
</g>
</svg>
