<?xml version="1.0" encoding="UTF-8" standalone="no"?>
<!DOCTYPE svg PUBLIC "-//W3C//DTD SVG 1.1//EN"
 "http://www.w3.org/Graphics/SVG/1.1/DTD/svg11.dtd">
<!-- Generated by graphviz version 2.43.0 (0)
 -->
<!-- Title: BaseStationCode/src/src/devices.h Pages: 1 -->
<svg width="756pt" height="302pt"
 viewBox="0.00 0.00 756.00 302.00" xmlns="http://www.w3.org/2000/svg" xmlns:xlink="http://www.w3.org/1999/xlink">
<g id="graph0" class="graph" transform="scale(1 1) rotate(0) translate(4 298)">
<title>BaseStationCode/src/src/devices.h</title>
<!-- Node1 -->
<g id="Node000001" class="node">
<title>Node1</title>
<g id="a_Node000001"><a xlink:title="Devices and manager for all known devices the base station connects to.">
<polygon fill="#999999" stroke="#666666" points="482,-294 365,-294 365,-264 482,-264 482,-294"/>
<text text-anchor="start" x="373" y="-282" font-family="Helvetica,sans-Serif" font-size="10.00">BaseStationCode/src</text>
<text text-anchor="middle" x="423.5" y="-271" font-family="Helvetica,sans-Serif" font-size="10.00">/src/devices.h</text>
</a>
</g>
</g>
<!-- Node2 -->
<g id="Node000002" class="node">
<title>Node2</title>
<g id="a_Node000002"><a xlink:href="device__list_8h.html" target="_top" xlink:title="List of all devices and fields known to the system.">
<polygon fill="white" stroke="#666666" points="174,-162 57,-162 57,-132 174,-132 174,-162"/>
<text text-anchor="start" x="65" y="-150" font-family="Helvetica,sans-Serif" font-size="10.00">BaseStationCode/src</text>
<text text-anchor="middle" x="115.5" y="-139" font-family="Helvetica,sans-Serif" font-size="10.00">/device_list.h</text>
</a>
</g>
</g>
<!-- Node1&#45;&gt;Node2 -->
<g id="edge1_Node000001_Node000002" class="edge">
<title>Node1&#45;&gt;Node2</title>
<g id="a_edge1_Node000001_Node000002"><a xlink:title=" ">
<path fill="none" stroke="#63b8ff" d="M380.77,-259.96C318.84,-233.82 205.41,-185.95 149.08,-162.17"/>
<polygon fill="#63b8ff" stroke="#63b8ff" points="379.67,-263.3 390.25,-263.96 382.39,-256.85 379.67,-263.3"/>
</a>
</g>
</g>
<!-- Node4 -->
<g id="Node000004" class="node">
<title>Node4</title>
<g id="a_Node000004"><a xlink:href="devices_8cpp.html" target="_top" xlink:title="Devices and manager for all known devices the base station connects to.">
<polygon fill="white" stroke="#666666" points="695,-228 578,-228 578,-198 695,-198 695,-228"/>
<text text-anchor="start" x="586" y="-216" font-family="Helvetica,sans-Serif" font-size="10.00">BaseStationCode/src</text>
<text text-anchor="middle" x="636.5" y="-205" font-family="Helvetica,sans-Serif" font-size="10.00">/src/devices.cpp</text>
</a>
</g>
</g>
<!-- Node1&#45;&gt;Node4 -->
<g id="edge3_Node000001_Node000004" class="edge">
<title>Node1&#45;&gt;Node4</title>
<g id="a_edge3_Node000001_Node000004"><a xlink:title=" ">
<path fill="none" stroke="#63b8ff" d="M480.11,-260.99C514.39,-250.69 557.57,-237.72 589.87,-228.01"/>
<polygon fill="#63b8ff" stroke="#63b8ff" points="478.81,-257.73 470.24,-263.95 480.83,-264.43 478.81,-257.73"/>
</a>
</g>
</g>
<!-- Node5 -->
<g id="Node000005" class="node">
<title>Node5</title>
<g id="a_Node000005"><a xlink:href="leds_8h.html" target="_top" xlink:title="Controls the LEDs on the unit.">
<polygon fill="white" stroke="#666666" points="117,-96 0,-96 0,-66 117,-66 117,-96"/>
<text text-anchor="start" x="8" y="-84" font-family="Helvetica,sans-Serif" font-size="10.00">BaseStationCode/src</text>
<text text-anchor="middle" x="58.5" y="-73" font-family="Helvetica,sans-Serif" font-size="10.00">/src/leds.h</text>
</a>
</g>
</g>
<!-- Node1&#45;&gt;Node5 -->
<g id="edge4_Node000001_Node000005" class="edge">
<title>Node1&#45;&gt;Node5</title>
<g id="a_edge4_Node000001_Node000005"><a xlink:title=" ">
<path fill="none" stroke="#63b8ff" d="M354.88,-266.94C256.54,-249.5 83.38,-212.36 47.5,-162 33.59,-142.48 43.17,-113.34 51.07,-96.14"/>
<polygon fill="#63b8ff" stroke="#63b8ff" points="354.29,-270.39 364.74,-268.67 355.5,-263.49 354.29,-270.39"/>
</a>
</g>
</g>
<!-- Node7 -->
<g id="Node000007" class="node">
<title>Node7</title>
<g id="a_Node000007"><a xlink:href="lora_8h.html" target="_top" xlink:title="File that handles the LoRa radio and PJON.">
<polygon fill="white" stroke="#666666" points="439,-228 322,-228 322,-198 439,-198 439,-228"/>
<text text-anchor="start" x="330" y="-216" font-family="Helvetica,sans-Serif" font-size="10.00">BaseStationCode/src</text>
<text text-anchor="middle" x="380.5" y="-205" font-family="Helvetica,sans-Serif" font-size="10.00">/src/lora.h</text>
</a>
</g>
</g>
<!-- Node1&#45;&gt;Node7 -->
<g id="edge7_Node000001_Node000007" class="edge">
<title>Node1&#45;&gt;Node7</title>
<g id="a_edge7_Node000001_Node000007"><a xlink:title=" ">
<path fill="none" stroke="#63b8ff" d="M408.21,-255.24C402.14,-246.21 395.36,-236.11 390.02,-228.16"/>
<polygon fill="#63b8ff" stroke="#63b8ff" points="405.47,-257.45 413.96,-263.8 411.29,-253.54 405.47,-257.45"/>
</a>
</g>
</g>
<!-- Node9 -->
<g id="Node000009" class="node">
<title>Node9</title>
<g id="a_Node000009"><a xlink:href="networking_8h.html" target="_top" xlink:title="Header file for networking.cpp.">
<polygon fill="white" stroke="#666666" points="483,-162 366,-162 366,-132 483,-132 483,-162"/>
<text text-anchor="start" x="374" y="-150" font-family="Helvetica,sans-Serif" font-size="10.00">BaseStationCode/src</text>
<text text-anchor="middle" x="424.5" y="-139" font-family="Helvetica,sans-Serif" font-size="10.00">/src/networking.h</text>
</a>
</g>
</g>
<!-- Node1&#45;&gt;Node9 -->
<g id="edge24_Node000001_Node000009" class="edge">
<title>Node1&#45;&gt;Node9</title>
<g id="a_edge24_Node000001_Node000009"><a xlink:title=" ">
<path fill="none" stroke="#63b8ff" d="M437.28,-254.82C441.42,-246.64 445.41,-237.18 447.5,-228 450.46,-215 450.35,-211.02 447.5,-198 444.72,-185.31 438.4,-171.99 433.09,-162.29"/>
<polygon fill="#63b8ff" stroke="#63b8ff" points="434.13,-253.29 432.46,-263.76 440.29,-256.62 434.13,-253.29"/>
</a>
</g>
</g>
<!-- Node13 -->
<g id="Node000013" class="node">
<title>Node13</title>
<g id="a_Node000013"><a xlink:href="rpc_8h.html" target="_top" xlink:title="Handles RPC calls.">
<polygon fill="white" stroke="#666666" points="676,-96 559,-96 559,-66 676,-66 676,-96"/>
<text text-anchor="start" x="567" y="-84" font-family="Helvetica,sans-Serif" font-size="10.00">BaseStationCode/src</text>
<text text-anchor="middle" x="617.5" y="-73" font-family="Helvetica,sans-Serif" font-size="10.00">/src/rpc.h</text>
</a>
</g>
</g>
<!-- Node1&#45;&gt;Node13 -->
<g id="edge25_Node000001_Node000013" class="edge">
<title>Node1&#45;&gt;Node13</title>
<g id="a_edge25_Node000001_Node000013"><a xlink:title=" ">
<path fill="none" stroke="#63b8ff" d="M444.81,-256.47C484.73,-216.14 569.8,-130.19 603.41,-96.23"/>
<polygon fill="#63b8ff" stroke="#63b8ff" points="442,-254.33 437.45,-263.9 446.97,-259.26 442,-254.33"/>
</a>
</g>
</g>
<!-- Node3 -->
<g id="Node000003" class="node">
<title>Node3</title>
<g id="a_Node000003"><a xlink:href="main_8cpp.html" target="_top" xlink:title=" ">
<polygon fill="white" stroke="#666666" points="266,-30 149,-30 149,0 266,0 266,-30"/>
<text text-anchor="start" x="157" y="-18" font-family="Helvetica,sans-Serif" font-size="10.00">BaseStationCode/src</text>
<text text-anchor="middle" x="207.5" y="-7" font-family="Helvetica,sans-Serif" font-size="10.00">/main.cpp</text>
</a>
</g>
</g>
<!-- Node2&#45;&gt;Node3 -->
<g id="edge2_Node000002_Node000003" class="edge">
<title>Node2&#45;&gt;Node3</title>
<g id="a_edge2_Node000002_Node000003"><a xlink:title=" ">
<path fill="none" stroke="#63b8ff" d="M130.39,-123.22C141.05,-107.08 155.87,-85.01 169.5,-66 178.26,-53.77 188.62,-40.2 196.31,-30.28"/>
<polygon fill="#63b8ff" stroke="#63b8ff" points="127.21,-121.69 124.63,-131.96 133.05,-125.53 127.21,-121.69"/>
</a>
</g>
</g>
<!-- Node5&#45;&gt;Node3 -->
<g id="edge5_Node000005_Node000003" class="edge">
<title>Node5&#45;&gt;Node3</title>
<g id="a_edge5_Node000005_Node000003"><a xlink:title=" ">
<path fill="none" stroke="#63b8ff" d="M100.59,-61.92C124.14,-51.8 153.06,-39.38 174.88,-30.01"/>
<polygon fill="#63b8ff" stroke="#63b8ff" points="99.01,-58.79 91.2,-65.95 101.77,-65.22 99.01,-58.79"/>
</a>
</g>
</g>
<!-- Node6 -->
<g id="Node000006" class="node">
<title>Node6</title>
<g id="a_Node000006"><a xlink:href="leds_8cpp.html" target="_top" xlink:title="Controls the LEDs on the unit.">
<polygon fill="white" stroke="#666666" points="117,-30 0,-30 0,0 117,0 117,-30"/>
<text text-anchor="start" x="8" y="-18" font-family="Helvetica,sans-Serif" font-size="10.00">BaseStationCode/src</text>
<text text-anchor="middle" x="58.5" y="-7" font-family="Helvetica,sans-Serif" font-size="10.00">/src/leds.cpp</text>
</a>
</g>
</g>
<!-- Node5&#45;&gt;Node6 -->
<g id="edge6_Node000005_Node000006" class="edge">
<title>Node5&#45;&gt;Node6</title>
<g id="a_edge6_Node000005_Node000006"><a xlink:title=" ">
<path fill="none" stroke="#63b8ff" d="M58.5,-55.54C58.5,-46.96 58.5,-37.61 58.5,-30.16"/>
<polygon fill="#63b8ff" stroke="#63b8ff" points="55,-55.8 58.5,-65.8 62,-55.8 55,-55.8"/>
</a>
</g>
</g>
<!-- Node7&#45;&gt;Node3 -->
<g id="edge8_Node000007_Node000003" class="edge">
<title>Node7&#45;&gt;Node3</title>
<g id="a_edge8_Node000007_Node000003"><a xlink:title=" ">
<path fill="none" stroke="#63b8ff" d="M311.77,-198.28C274.38,-189.35 233.37,-176.65 221.5,-162 190.24,-123.42 198.48,-58.9 204.18,-30.35"/>
<polygon fill="#63b8ff" stroke="#63b8ff" points="311.15,-201.73 321.68,-200.58 312.74,-194.91 311.15,-201.73"/>
</a>
</g>
</g>
<!-- Node8 -->
<g id="Node000008" class="node">
<title>Node8</title>
<g id="a_Node000008"><a xlink:href="lora_8cpp.html" target="_top" xlink:title="File that handles the LoRa radio and PJON.">
<polygon fill="white" stroke="#666666" points="348,-162 231,-162 231,-132 348,-132 348,-162"/>
<text text-anchor="start" x="239" y="-150" font-family="Helvetica,sans-Serif" font-size="10.00">BaseStationCode/src</text>
<text text-anchor="middle" x="289.5" y="-139" font-family="Helvetica,sans-Serif" font-size="10.00">/src/lora.cpp</text>
</a>
</g>
</g>
<!-- Node7&#45;&gt;Node8 -->
<g id="edge9_Node000007_Node000008" class="edge">
<title>Node7&#45;&gt;Node8</title>
<g id="a_edge9_Node000007_Node000008"><a xlink:title=" ">
<path fill="none" stroke="#63b8ff" d="M352.1,-192.03C338.33,-182.34 322.12,-170.94 309.64,-162.16"/>
<polygon fill="#63b8ff" stroke="#63b8ff" points="350.11,-194.91 360.3,-197.8 354.14,-189.18 350.11,-194.91"/>
</a>
</g>
</g>
<!-- Node7&#45;&gt;Node9 -->
<g id="edge10_Node000007_Node000009" class="edge">
<title>Node7&#45;&gt;Node9</title>
<g id="a_edge10_Node000007_Node000009"><a xlink:title=" ">
<path fill="none" stroke="#63b8ff" d="M389.83,-188.96C395.49,-180 402.62,-170.03 409.05,-162.16"/>
<polygon fill="#63b8ff" stroke="#63b8ff" points="386.67,-187.42 384.54,-197.8 392.68,-191.01 386.67,-187.42"/>
</a>
</g>
</g>
<!-- Node9&#45;&gt;Node3 -->
<g id="edge11_Node000009_Node000003" class="edge">
<title>Node9&#45;&gt;Node3</title>
<g id="a_edge11_Node000009_Node000003"><a xlink:title=" ">
<path fill="none" stroke="#63b8ff" d="M355.81,-130.43C307.34,-118.92 249.5,-103.94 240.5,-96 220.89,-78.71 212.69,-47.97 209.45,-30.05"/>
<polygon fill="#63b8ff" stroke="#63b8ff" points="355.13,-133.87 365.67,-132.75 356.74,-127.05 355.13,-133.87"/>
</a>
</g>
</g>
<!-- Node9&#45;&gt;Node5 -->
<g id="edge12_Node000009_Node000005" class="edge">
<title>Node9&#45;&gt;Node5</title>
<g id="a_edge12_Node000009_Node000005"><a xlink:title=" ">
<path fill="none" stroke="#63b8ff" d="M355.9,-131.93C266.69,-115.39 175.14,-100.42 117.14,-91.18"/>
<polygon fill="#63b8ff" stroke="#63b8ff" points="355.45,-135.41 365.92,-133.8 356.73,-128.52 355.45,-135.41"/>
</a>
</g>
</g>
<!-- Node9&#45;&gt;Node7 -->
<g id="edge13_Node000009_Node000007" class="edge">
<title>Node9&#45;&gt;Node7</title>
<g id="a_edge13_Node000009_Node000007"><a xlink:title=" ">
<path fill="none" stroke="#63b8ff" d="M415.2,-170.99C409.54,-179.95 402.42,-189.92 395.99,-197.8"/>
<polygon fill="#63b8ff" stroke="#63b8ff" points="418.35,-172.54 420.48,-162.16 412.34,-168.95 418.35,-172.54"/>
</a>
</g>
</g>
<!-- Node10 -->
<g id="Node000010" class="node">
<title>Node10</title>
<g id="a_Node000010"><a xlink:href="networking_8cpp.html" target="_top" xlink:title="File that handles connecting to WiFi and MQTT and staying connected.">
<polygon fill="white" stroke="#666666" points="613,-30 496,-30 496,0 613,0 613,-30"/>
<text text-anchor="start" x="504" y="-18" font-family="Helvetica,sans-Serif" font-size="10.00">BaseStationCode/src</text>
<text text-anchor="middle" x="554.5" y="-7" font-family="Helvetica,sans-Serif" font-size="10.00">/src/networking.cpp</text>
</a>
</g>
</g>
<!-- Node9&#45;&gt;Node10 -->
<g id="edge14_Node000009_Node000010" class="edge">
<title>Node9&#45;&gt;Node10</title>
<g id="a_edge14_Node000009_Node000010"><a xlink:title=" ">
<path fill="none" stroke="#63b8ff" d="M467.69,-127.29C482.83,-119.24 499.13,-108.72 511.5,-96 530.29,-76.66 543.17,-47.47 549.64,-30.21"/>
<polygon fill="#63b8ff" stroke="#63b8ff" points="465.79,-124.33 458.45,-131.98 468.96,-130.57 465.79,-124.33"/>
</a>
</g>
</g>
<!-- Node11 -->
<g id="Node000011" class="node">
<title>Node11</title>
<g id="a_Node000011"><a xlink:href="ota_8h.html" target="_top" xlink:title="Handles over the air (OTA) updates.">
<polygon fill="white" stroke="#666666" points="502,-96 385,-96 385,-66 502,-66 502,-96"/>
<text text-anchor="start" x="393" y="-84" font-family="Helvetica,sans-Serif" font-size="10.00">BaseStationCode/src</text>
<text text-anchor="middle" x="443.5" y="-73" font-family="Helvetica,sans-Serif" font-size="10.00">/src/ota.h</text>
</a>
</g>
</g>
<!-- Node9&#45;&gt;Node11 -->
<g id="edge15_Node000009_Node000011" class="edge">
<title>Node9&#45;&gt;Node11</title>
<g id="a_edge15_Node000009_Node000011"><a xlink:title=" ">
<path fill="none" stroke="#63b8ff" d="M431.59,-122.11C434.19,-113.38 437.03,-103.78 439.3,-96.16"/>
<polygon fill="#63b8ff" stroke="#63b8ff" points="428.21,-121.21 428.72,-131.8 434.92,-123.21 428.21,-121.21"/>
</a>
</g>
</g>
<!-- Node9&#45;&gt;Node13 -->
<g id="edge18_Node000009_Node000013" class="edge">
<title>Node9&#45;&gt;Node13</title>
<g id="a_edge18_Node000009_Node000013"><a xlink:title=" ">
<path fill="none" stroke="#63b8ff" d="M476.6,-128.72C507.52,-118.47 546.23,-105.63 575.24,-96.01"/>
<polygon fill="#63b8ff" stroke="#63b8ff" points="475.24,-125.49 466.85,-131.95 477.45,-132.13 475.24,-125.49"/>
</a>
</g>
</g>
<!-- Node15 -->
<g id="Node000015" class="node">
<title>Node15</title>
<g id="a_Node000015"><a xlink:href="timeseries_8cpp.html" target="_top" xlink:title=" ">
<polygon fill="white" stroke="#666666" points="367,-96 250,-96 250,-66 367,-66 367,-96"/>
<text text-anchor="start" x="258" y="-84" font-family="Helvetica,sans-Serif" font-size="10.00">BaseStationCode/src</text>
<text text-anchor="middle" x="308.5" y="-73" font-family="Helvetica,sans-Serif" font-size="10.00">/src/timeseries.cpp</text>
</a>
</g>
</g>
<!-- Node9&#45;&gt;Node15 -->
<g id="edge23_Node000009_Node000015" class="edge">
<title>Node9&#45;&gt;Node15</title>
<g id="a_edge23_Node000009_Node000015"><a xlink:title=" ">
<path fill="none" stroke="#63b8ff" d="M390.01,-126.97C372,-117.03 350.35,-105.09 333.9,-96.01"/>
<polygon fill="#63b8ff" stroke="#63b8ff" points="388.6,-130.19 399.04,-131.95 391.98,-124.06 388.6,-130.19"/>
</a>
</g>
</g>
<!-- Node11&#45;&gt;Node3 -->
<g id="edge16_Node000011_Node000003" class="edge">
<title>Node11&#45;&gt;Node3</title>
<g id="a_edge16_Node000011_Node000003"><a xlink:title=" ">
<path fill="none" stroke="#63b8ff" d="M381.75,-63.25C343.62,-52.91 295.26,-39.8 259.17,-30.01"/>
<polygon fill="#63b8ff" stroke="#63b8ff" points="381.14,-66.72 391.71,-65.95 382.97,-59.96 381.14,-66.72"/>
</a>
</g>
</g>
<!-- Node12 -->
<g id="Node000012" class="node">
<title>Node12</title>
<g id="a_Node000012"><a xlink:href="ota_8cpp.html" target="_top" xlink:title="Handles over the air (OTA) updates.">
<polygon fill="white" stroke="#666666" points="478,-30 361,-30 361,0 478,0 478,-30"/>
<text text-anchor="start" x="369" y="-18" font-family="Helvetica,sans-Serif" font-size="10.00">BaseStationCode/src</text>
<text text-anchor="middle" x="419.5" y="-7" font-family="Helvetica,sans-Serif" font-size="10.00">/src/ota.cpp</text>
</a>
</g>
</g>
<!-- Node11&#45;&gt;Node12 -->
<g id="edge17_Node000011_Node000012" class="edge">
<title>Node11&#45;&gt;Node12</title>
<g id="a_edge17_Node000011_Node000012"><a xlink:title=" ">
<path fill="none" stroke="#63b8ff" d="M434.65,-56.39C431.34,-47.59 427.7,-37.86 424.81,-30.16"/>
<polygon fill="#63b8ff" stroke="#63b8ff" points="431.39,-57.66 438.17,-65.8 437.94,-55.2 431.39,-57.66"/>
</a>
</g>
</g>
<!-- Node13&#45;&gt;Node3 -->
<g id="edge19_Node000013_Node000003" class="edge">
<title>Node13&#45;&gt;Node3</title>
<g id="a_edge19_Node000013_Node000003"><a xlink:title=" ">
<path fill="none" stroke="#63b8ff" d="M548.39,-69.21C469.17,-56.85 340.67,-36.79 266.13,-25.15"/>
<polygon fill="#63b8ff" stroke="#63b8ff" points="548.34,-72.75 558.76,-70.83 549.42,-65.83 548.34,-72.75"/>
</a>
</g>
</g>
<!-- Node13&#45;&gt;Node7 -->
<g id="edge20_Node000013_Node000007" class="edge">
<title>Node13&#45;&gt;Node7</title>
<g id="a_edge20_Node000013_Node000007"><a xlink:title=" ">
<path fill="none" stroke="#63b8ff" d="M584.6,-101.43C569.51,-110.5 551.46,-121.58 535.5,-132 515.99,-144.74 512.79,-150.53 492.5,-162 468.03,-175.83 439.02,-188.69 416.65,-197.91"/>
<polygon fill="#63b8ff" stroke="#63b8ff" points="586.79,-104.2 593.58,-96.06 583.2,-98.19 586.79,-104.2"/>
</a>
</g>
</g>
<!-- Node13&#45;&gt;Node10 -->
<g id="edge21_Node000013_Node000010" class="edge">
<title>Node13&#45;&gt;Node10</title>
<g id="a_edge21_Node000013_Node000010"><a xlink:title=" ">
<path fill="none" stroke="#63b8ff" d="M596.48,-58.65C587.25,-49.27 576.67,-38.53 568.44,-30.16"/>
<polygon fill="#63b8ff" stroke="#63b8ff" points="594.01,-61.13 603.52,-65.8 599,-56.21 594.01,-61.13"/>
</a>
</g>
</g>
<!-- Node14 -->
<g id="Node000014" class="node">
<title>Node14</title>
<g id="a_Node000014"><a xlink:href="rpc_8cpp.html" target="_top" xlink:title="Handles RPC calls.">
<polygon fill="white" stroke="#666666" points="748,-30 631,-30 631,0 748,0 748,-30"/>
<text text-anchor="start" x="639" y="-18" font-family="Helvetica,sans-Serif" font-size="10.00">BaseStationCode/src</text>
<text text-anchor="middle" x="689.5" y="-7" font-family="Helvetica,sans-Serif" font-size="10.00">/src/rpc.cpp</text>
</a>
</g>
</g>
<!-- Node13&#45;&gt;Node14 -->
<g id="edge22_Node000013_Node000014" class="edge">
<title>Node13&#45;&gt;Node14</title>
<g id="a_edge22_Node000013_Node000014"><a xlink:title=" ">
<path fill="none" stroke="#63b8ff" d="M641.21,-58.92C651.83,-49.49 664.07,-38.61 673.57,-30.16"/>
<polygon fill="#63b8ff" stroke="#63b8ff" points="638.63,-56.54 633.48,-65.8 643.28,-61.77 638.63,-56.54"/>
</a>
</g>
</g>
</g>
</svg>
