<?xml version="1.0" encoding="UTF-8" standalone="no"?>
<!DOCTYPE svg PUBLIC "-//W3C//DTD SVG 1.1//EN"
 "http://www.w3.org/Graphics/SVG/1.1/DTD/svg11.dtd">
<!-- Generated by graphviz version 2.43.0 (0)
 -->
<!-- Title: BaseStationCode/src/device_list.h Pages: 1 -->
<svg width="759pt" height="319pt"
 viewBox="0.00 0.00 759.00 319.00" xmlns="http://www.w3.org/2000/svg" xmlns:xlink="http://www.w3.org/1999/xlink">
<g id="graph0" class="graph" transform="scale(1 1) rotate(0) translate(4 315)">
<title>BaseStationCode/src/device_list.h</title>
<polygon fill="white" stroke="transparent" points="-4,4 -4,-315 755,-315 755,4 -4,4"/>
<!-- Node1 -->
<g id="node1" class="node">
<title>Node1</title>
<g id="a_node1"><a xlink:title="List of all devices and fields known to the system.">
<polygon fill="#bfbfbf" stroke="black" points="295.5,-280.5 295.5,-310.5 412.5,-310.5 412.5,-280.5 295.5,-280.5"/>
<text text-anchor="start" x="303.5" y="-298.5" font-family="Helvetica,sans-Serif" font-size="10.00">BaseStationCode/src</text>
<text text-anchor="middle" x="354" y="-287.5" font-family="Helvetica,sans-Serif" font-size="10.00">/device_list.h</text>
</a>
</g>
</g>
<!-- Node2 -->
<g id="node2" class="node">
<title>Node2</title>
<g id="a_node2"><a xlink:href="fields_8h.html" target="_top" xlink:title="Contains fields classes.">
<polygon fill="white" stroke="black" points="285.5,-168.5 285.5,-187.5 354.5,-187.5 354.5,-168.5 285.5,-168.5"/>
<text text-anchor="middle" x="320" y="-175.5" font-family="Helvetica,sans-Serif" font-size="10.00">src/fields.h</text>
</a>
</g>
</g>
<!-- Node1&#45;&gt;Node2 -->
<g id="edge1" class="edge">
<title>Node1&#45;&gt;Node2</title>
<path fill="none" stroke="midnightblue" d="M349.78,-280.36C346.77,-270.23 342.62,-256.28 339,-244 334.38,-228.32 329.17,-210.49 325.38,-197.48"/>
<polygon fill="midnightblue" stroke="midnightblue" points="328.73,-196.46 322.57,-187.83 322.01,-198.41 328.73,-196.46"/>
</g>
<!-- Node14 -->
<g id="node14" class="node">
<title>Node14</title>
<g id="a_node14"><a xlink:href="devices_8h.html" target="_top" xlink:title="Devices and manager for all known devices the base station connects to.">
<polygon fill="white" stroke="black" points="348,-224.5 348,-243.5 428,-243.5 428,-224.5 348,-224.5"/>
<text text-anchor="middle" x="388" y="-231.5" font-family="Helvetica,sans-Serif" font-size="10.00">src/devices.h</text>
</a>
</g>
</g>
<!-- Node1&#45;&gt;Node14 -->
<g id="edge15" class="edge">
<title>Node1&#45;&gt;Node14</title>
<path fill="none" stroke="midnightblue" d="M362.06,-280.4C366.85,-272.02 372.96,-261.33 378.04,-252.42"/>
<polygon fill="midnightblue" stroke="midnightblue" points="381.13,-254.08 383.05,-243.66 375.05,-250.6 381.13,-254.08"/>
</g>
<!-- Node3 -->
<g id="node3" class="node">
<title>Node3</title>
<g id="a_node3"><a xlink:href="defines_8h.html" target="_top" xlink:title="Definitions and other preprocessor and global stuff.">
<polygon fill="white" stroke="black" points="307,-56.5 307,-75.5 377,-75.5 377,-56.5 307,-56.5"/>
<text text-anchor="middle" x="342" y="-63.5" font-family="Helvetica,sans-Serif" font-size="10.00">../defines.h</text>
</a>
</g>
</g>
<!-- Node2&#45;&gt;Node3 -->
<g id="edge2" class="edge">
<title>Node2&#45;&gt;Node3</title>
<path fill="none" stroke="midnightblue" d="M295.44,-168.47C267.93,-157.49 229.14,-136.83 245,-112 256.62,-93.8 277.72,-82.84 297.27,-76.31"/>
<polygon fill="midnightblue" stroke="midnightblue" points="298.44,-79.61 307,-73.37 296.41,-72.91 298.44,-79.61"/>
</g>
<!-- Node12 -->
<g id="node12" class="node">
<title>Node12</title>
<g id="a_node12"><a xlink:href="lookups_8h.html" target="_top" xlink:title="Lookupable and lookupable manager base classes.">
<polygon fill="white" stroke="black" points="356.5,-112.5 356.5,-131.5 419.5,-131.5 419.5,-112.5 356.5,-112.5"/>
<text text-anchor="middle" x="388" y="-119.5" font-family="Helvetica,sans-Serif" font-size="10.00">lookups.h</text>
</a>
</g>
</g>
<!-- Node2&#45;&gt;Node12 -->
<g id="edge11" class="edge">
<title>Node2&#45;&gt;Node12</title>
<path fill="none" stroke="midnightblue" d="M330.93,-168.32C341.17,-160.18 356.72,-147.84 369,-138.09"/>
<polygon fill="midnightblue" stroke="midnightblue" points="371.22,-140.79 376.88,-131.83 366.87,-135.31 371.22,-140.79"/>
</g>
<!-- Node13 -->
<g id="node13" class="node">
<title>Node13</title>
<g id="a_node13"><a xlink:href="conversions_8h.html" target="_top" xlink:title="General functions for converting to and from char arrays.">
<polygon fill="white" stroke="black" points="254,-112.5 254,-131.5 338,-131.5 338,-112.5 254,-112.5"/>
<text text-anchor="middle" x="296" y="-119.5" font-family="Helvetica,sans-Serif" font-size="10.00">conversions.h</text>
</a>
</g>
</g>
<!-- Node2&#45;&gt;Node13 -->
<g id="edge13" class="edge">
<title>Node2&#45;&gt;Node13</title>
<path fill="none" stroke="midnightblue" d="M316.04,-168.08C312.79,-160.77 308.08,-150.18 304.05,-141.1"/>
<polygon fill="midnightblue" stroke="midnightblue" points="307.15,-139.47 299.89,-131.75 300.75,-142.31 307.15,-139.47"/>
</g>
<!-- Node4 -->
<g id="node4" class="node">
<title>Node4</title>
<g id="a_node4"><a xlink:title=" ">
<polygon fill="white" stroke="#bfbfbf" points="0,-0.5 0,-19.5 80,-19.5 80,-0.5 0,-0.5"/>
<text text-anchor="middle" x="40" y="-7.5" font-family="Helvetica,sans-Serif" font-size="10.00">credentials.h</text>
</a>
</g>
</g>
<!-- Node3&#45;&gt;Node4 -->
<g id="edge3" class="edge">
<title>Node3&#45;&gt;Node4</title>
<path fill="none" stroke="midnightblue" d="M306.79,-58.8C259.77,-50.51 173.59,-35.26 90.02,-20.18"/>
<polygon fill="midnightblue" stroke="midnightblue" points="90.57,-16.72 80.11,-18.39 89.33,-23.61 90.57,-16.72"/>
</g>
<!-- Node5 -->
<g id="node5" class="node">
<title>Node5</title>
<g id="a_node5"><a xlink:title=" ">
<polygon fill="white" stroke="#bfbfbf" points="98.5,-0.5 98.5,-19.5 161.5,-19.5 161.5,-0.5 98.5,-0.5"/>
<text text-anchor="middle" x="130" y="-7.5" font-family="Helvetica,sans-Serif" font-size="10.00">Arduino.h</text>
</a>
</g>
</g>
<!-- Node3&#45;&gt;Node5 -->
<g id="edge4" class="edge">
<title>Node3&#45;&gt;Node5</title>
<path fill="none" stroke="midnightblue" d="M308.41,-56.44C271.27,-46.99 211.43,-31.74 171.42,-21.55"/>
<polygon fill="midnightblue" stroke="midnightblue" points="172.26,-18.15 161.7,-19.08 170.53,-24.94 172.26,-18.15"/>
</g>
<!-- Node6 -->
<g id="node6" class="node">
<title>Node6</title>
<g id="a_node6"><a xlink:title=" ">
<polygon fill="white" stroke="#bfbfbf" points="179.5,-0.5 179.5,-19.5 226.5,-19.5 226.5,-0.5 179.5,-0.5"/>
<text text-anchor="middle" x="203" y="-7.5" font-family="Helvetica,sans-Serif" font-size="10.00">WiFi.h</text>
</a>
</g>
</g>
<!-- Node3&#45;&gt;Node6 -->
<g id="edge5" class="edge">
<title>Node3&#45;&gt;Node6</title>
<path fill="none" stroke="midnightblue" d="M319.98,-56.44C296.9,-47.48 260.44,-33.31 234.36,-23.18"/>
<polygon fill="midnightblue" stroke="midnightblue" points="235.51,-19.88 224.92,-19.52 232.98,-26.4 235.51,-19.88"/>
</g>
<!-- Node7 -->
<g id="node7" class="node">
<title>Node7</title>
<g id="a_node7"><a xlink:title=" ">
<polygon fill="white" stroke="#bfbfbf" points="245,-0.5 245,-19.5 335,-19.5 335,-0.5 245,-0.5"/>
<text text-anchor="middle" x="290" y="-7.5" font-family="Helvetica,sans-Serif" font-size="10.00">PubSubClient.h</text>
</a>
</g>
</g>
<!-- Node3&#45;&gt;Node7 -->
<g id="edge6" class="edge">
<title>Node3&#45;&gt;Node7</title>
<path fill="none" stroke="midnightblue" d="M333.41,-56.08C325.84,-48.22 314.62,-36.57 305.49,-27.08"/>
<polygon fill="midnightblue" stroke="midnightblue" points="307.88,-24.53 298.43,-19.75 302.84,-29.38 307.88,-24.53"/>
</g>
<!-- Node8 -->
<g id="node8" class="node">
<title>Node8</title>
<g id="a_node8"><a xlink:title=" ">
<polygon fill="white" stroke="#bfbfbf" points="353.5,-0.5 353.5,-19.5 436.5,-19.5 436.5,-0.5 353.5,-0.5"/>
<text text-anchor="middle" x="395" y="-7.5" font-family="Helvetica,sans-Serif" font-size="10.00">ArduinoJson.h</text>
</a>
</g>
</g>
<!-- Node3&#45;&gt;Node8 -->
<g id="edge7" class="edge">
<title>Node3&#45;&gt;Node8</title>
<path fill="none" stroke="midnightblue" d="M350.75,-56.08C358.47,-48.22 369.9,-36.57 379.22,-27.08"/>
<polygon fill="midnightblue" stroke="midnightblue" points="381.9,-29.34 386.41,-19.75 376.91,-24.44 381.9,-29.34"/>
</g>
<!-- Node9 -->
<g id="node9" class="node">
<title>Node9</title>
<g id="a_node9"><a xlink:title=" ">
<polygon fill="white" stroke="#bfbfbf" points="455,-0.5 455,-19.5 565,-19.5 565,-0.5 455,-0.5"/>
<text text-anchor="middle" x="510" y="-7.5" font-family="Helvetica,sans-Serif" font-size="10.00">PJONThroughLora.h</text>
</a>
</g>
</g>
<!-- Node3&#45;&gt;Node9 -->
<g id="edge8" class="edge">
<title>Node3&#45;&gt;Node9</title>
<path fill="none" stroke="midnightblue" d="M368.62,-56.44C397.01,-47.32 442.14,-32.81 473.75,-22.65"/>
<polygon fill="midnightblue" stroke="midnightblue" points="475.06,-25.91 483.5,-19.52 472.91,-19.24 475.06,-25.91"/>
</g>
<!-- Node10 -->
<g id="node10" class="node">
<title>Node10</title>
<g id="a_node10"><a xlink:title=" ">
<polygon fill="white" stroke="#bfbfbf" points="583,-0.5 583,-19.5 661,-19.5 661,-0.5 583,-0.5"/>
<text text-anchor="middle" x="622" y="-7.5" font-family="Helvetica,sans-Serif" font-size="10.00">TunePlayer.h</text>
</a>
</g>
</g>
<!-- Node3&#45;&gt;Node10 -->
<g id="edge9" class="edge">
<title>Node3&#45;&gt;Node10</title>
<path fill="none" stroke="midnightblue" d="M377.18,-58.22C426.54,-48.7 516.59,-31.33 572.64,-20.52"/>
<polygon fill="midnightblue" stroke="midnightblue" points="573.53,-23.91 582.69,-18.58 572.21,-17.04 573.53,-23.91"/>
</g>
<!-- Node11 -->
<g id="node11" class="node">
<title>Node11</title>
<g id="a_node11"><a xlink:href="topics_8h.html" target="_top" xlink:title="MQTT topics for a thingsboard gateway.">
<polygon fill="white" stroke="black" points="679,-0.5 679,-19.5 751,-19.5 751,-0.5 679,-0.5"/>
<text text-anchor="middle" x="715" y="-7.5" font-family="Helvetica,sans-Serif" font-size="10.00">src/topics.h</text>
</a>
</g>
</g>
<!-- Node3&#45;&gt;Node11 -->
<g id="edge10" class="edge">
<title>Node3&#45;&gt;Node11</title>
<path fill="none" stroke="midnightblue" d="M377.06,-60.9C435.41,-53.93 556.37,-38.82 668.55,-20.16"/>
<polygon fill="midnightblue" stroke="midnightblue" points="669.4,-23.57 678.69,-18.46 668.24,-16.66 669.4,-23.57"/>
</g>
<!-- Node12&#45;&gt;Node3 -->
<g id="edge12" class="edge">
<title>Node12&#45;&gt;Node3</title>
<path fill="none" stroke="midnightblue" d="M380.4,-112.08C373.77,-104.3 363.98,-92.8 355.94,-83.37"/>
<polygon fill="midnightblue" stroke="midnightblue" points="358.6,-81.09 349.45,-75.75 353.27,-85.63 358.6,-81.09"/>
</g>
<!-- Node13&#45;&gt;Node3 -->
<g id="edge14" class="edge">
<title>Node13&#45;&gt;Node3</title>
<path fill="none" stroke="midnightblue" d="M303.6,-112.08C310.23,-104.3 320.02,-92.8 328.06,-83.37"/>
<polygon fill="midnightblue" stroke="midnightblue" points="330.73,-85.63 334.55,-75.75 325.4,-81.09 330.73,-85.63"/>
</g>
<!-- Node14&#45;&gt;Node2 -->
<g id="edge18" class="edge">
<title>Node14&#45;&gt;Node2</title>
<path fill="none" stroke="midnightblue" d="M377.07,-224.32C366.83,-216.18 351.28,-203.84 339,-194.09"/>
<polygon fill="midnightblue" stroke="midnightblue" points="341.13,-191.31 331.12,-187.83 336.78,-196.79 341.13,-191.31"/>
</g>
<!-- Node14&#45;&gt;Node3 -->
<g id="edge16" class="edge">
<title>Node14&#45;&gt;Node3</title>
<path fill="none" stroke="midnightblue" d="M395.81,-224.23C413.3,-203.48 452.29,-150.27 429,-112 419.54,-96.46 402.79,-86.05 386.5,-79.19"/>
<polygon fill="midnightblue" stroke="midnightblue" points="387.6,-75.87 377.01,-75.55 385.1,-82.4 387.6,-75.87"/>
</g>
<!-- Node14&#45;&gt;Node12 -->
<g id="edge17" class="edge">
<title>Node14&#45;&gt;Node12</title>
<path fill="none" stroke="midnightblue" d="M388,-224.37C388,-206.62 388,-165.67 388,-141.6"/>
<polygon fill="midnightblue" stroke="midnightblue" points="391.5,-141.59 388,-131.59 384.5,-141.59 391.5,-141.59"/>
</g>
</g>
</svg>
