<?xml version="1.0" encoding="UTF-8" standalone="no"?>
<!DOCTYPE svg PUBLIC "-//W3C//DTD SVG 1.1//EN"
 "http://www.w3.org/Graphics/SVG/1.1/DTD/svg11.dtd">
<!-- Generated by graphviz version 2.43.0 (0)
 -->
<!-- Title: BaseStationCode/src/src/devices.h Pages: 1 -->
<svg width="859pt" height="307pt"
 viewBox="0.00 0.00 859.00 307.00" xmlns="http://www.w3.org/2000/svg" xmlns:xlink="http://www.w3.org/1999/xlink">
<g id="graph0" class="graph" transform="scale(1 1) rotate(0) translate(4 303)">
<title>BaseStationCode/src/src/devices.h</title>
<polygon fill="white" stroke="transparent" points="-4,4 -4,-303 855,-303 855,4 -4,4"/>
<!-- Node1 -->
<g id="node1" class="node">
<title>Node1</title>
<g id="a_node1"><a xlink:title="Devices and manager for all known devices the base station connects to.">
<polygon fill="#bfbfbf" stroke="black" points="391,-268.5 391,-298.5 508,-298.5 508,-268.5 391,-268.5"/>
<text text-anchor="start" x="399" y="-286.5" font-family="Helvetica,sans-Serif" font-size="10.00">BaseStationCode/src</text>
<text text-anchor="middle" x="449.5" y="-275.5" font-family="Helvetica,sans-Serif" font-size="10.00">/src/devices.h</text>
</a>
</g>
</g>
<!-- Node2 -->
<g id="node2" class="node">
<title>Node2</title>
<g id="a_node2"><a xlink:href="device__list_8h.html" target="_top" xlink:title="List of all devices and fields known to the system.">
<polygon fill="white" stroke="black" points="182,-134.5 182,-164.5 299,-164.5 299,-134.5 182,-134.5"/>
<text text-anchor="start" x="190" y="-152.5" font-family="Helvetica,sans-Serif" font-size="10.00">BaseStationCode/src</text>
<text text-anchor="middle" x="240.5" y="-141.5" font-family="Helvetica,sans-Serif" font-size="10.00">/device_list.h</text>
</a>
</g>
</g>
<!-- Node1&#45;&gt;Node2 -->
<g id="edge1" class="edge">
<title>Node1&#45;&gt;Node2</title>
<path fill="none" stroke="midnightblue" d="M418.56,-262.96C375.93,-236.04 300.15,-188.17 262.71,-164.52"/>
<polygon fill="midnightblue" stroke="midnightblue" points="416.81,-265.99 427.13,-268.37 420.55,-260.07 416.81,-265.99"/>
</g>
<!-- Node4 -->
<g id="node4" class="node">
<title>Node4</title>
<g id="a_node4"><a xlink:href="devices_8cpp.html" target="_top" xlink:title="Devices and manager for all known devices the base station connects to.">
<polygon fill="white" stroke="black" points="734,-201.5 734,-231.5 851,-231.5 851,-201.5 734,-201.5"/>
<text text-anchor="start" x="742" y="-219.5" font-family="Helvetica,sans-Serif" font-size="10.00">BaseStationCode/src</text>
<text text-anchor="middle" x="792.5" y="-208.5" font-family="Helvetica,sans-Serif" font-size="10.00">/src/devices.cpp</text>
</a>
</g>
</g>
<!-- Node1&#45;&gt;Node4 -->
<g id="edge3" class="edge">
<title>Node1&#45;&gt;Node4</title>
<path fill="none" stroke="midnightblue" d="M518.17,-269.87C572.77,-259.78 651.06,-245.2 719.5,-232 724.19,-231.09 729.06,-230.15 733.94,-229.19"/>
<polygon fill="midnightblue" stroke="midnightblue" points="517.46,-266.45 508.26,-271.7 518.73,-273.33 517.46,-266.45"/>
</g>
<!-- Node5 -->
<g id="node5" class="node">
<title>Node5</title>
<g id="a_node5"><a xlink:href="leds_8h.html" target="_top" xlink:title="Controls the LEDs on the unit.">
<polygon fill="white" stroke="black" points="0,-67.5 0,-97.5 117,-97.5 117,-67.5 0,-67.5"/>
<text text-anchor="start" x="8" y="-85.5" font-family="Helvetica,sans-Serif" font-size="10.00">BaseStationCode/src</text>
<text text-anchor="middle" x="58.5" y="-74.5" font-family="Helvetica,sans-Serif" font-size="10.00">/src/leds.h</text>
</a>
</g>
</g>
<!-- Node1&#45;&gt;Node5 -->
<g id="edge4" class="edge">
<title>Node1&#45;&gt;Node5</title>
<path fill="none" stroke="midnightblue" d="M398.66,-265.09C341.76,-244.68 247.69,-208.09 172.5,-165 136.4,-144.31 97.67,-114.9 75.92,-97.65"/>
<polygon fill="midnightblue" stroke="midnightblue" points="397.56,-268.42 408.15,-268.47 399.9,-261.82 397.56,-268.42"/>
</g>
<!-- Node7 -->
<g id="node7" class="node">
<title>Node7</title>
<g id="a_node7"><a xlink:href="lora_8h.html" target="_top" xlink:title="File that handles the LoRa radio and PJON.">
<polygon fill="white" stroke="black" points="435,-201.5 435,-231.5 552,-231.5 552,-201.5 435,-201.5"/>
<text text-anchor="start" x="443" y="-219.5" font-family="Helvetica,sans-Serif" font-size="10.00">BaseStationCode/src</text>
<text text-anchor="middle" x="493.5" y="-208.5" font-family="Helvetica,sans-Serif" font-size="10.00">/src/lora.h</text>
</a>
</g>
</g>
<!-- Node1&#45;&gt;Node7 -->
<g id="edge7" class="edge">
<title>Node1&#45;&gt;Node7</title>
<path fill="none" stroke="midnightblue" d="M464.82,-259.87C471.19,-250.46 478.38,-239.83 483.97,-231.58"/>
<polygon fill="midnightblue" stroke="midnightblue" points="461.75,-258.15 459.05,-268.4 467.55,-262.08 461.75,-258.15"/>
</g>
<!-- Node9 -->
<g id="node9" class="node">
<title>Node9</title>
<g id="a_node9"><a xlink:href="networking_8h.html" target="_top" xlink:title="Header file for networking.cpp.">
<polygon fill="white" stroke="black" points="348,-134.5 348,-164.5 465,-164.5 465,-134.5 348,-134.5"/>
<text text-anchor="start" x="356" y="-152.5" font-family="Helvetica,sans-Serif" font-size="10.00">BaseStationCode/src</text>
<text text-anchor="middle" x="406.5" y="-141.5" font-family="Helvetica,sans-Serif" font-size="10.00">/src/networking.h</text>
</a>
</g>
</g>
<!-- Node1&#45;&gt;Node9 -->
<g id="edge22" class="edge">
<title>Node1&#45;&gt;Node9</title>
<path fill="none" stroke="midnightblue" d="M437.09,-259.1C433,-250.72 428.68,-241.09 425.5,-232 417.44,-208.96 411.78,-181.06 408.84,-164.6"/>
<polygon fill="midnightblue" stroke="midnightblue" points="434.09,-260.91 441.72,-268.26 440.34,-257.76 434.09,-260.91"/>
</g>
<!-- Node13 -->
<g id="node13" class="node">
<title>Node13</title>
<g id="a_node13"><a xlink:href="rpc_8h.html" target="_top" xlink:title="Handles RPC calls.">
<polygon fill="white" stroke="black" points="522,-67.5 522,-97.5 639,-97.5 639,-67.5 522,-67.5"/>
<text text-anchor="start" x="530" y="-85.5" font-family="Helvetica,sans-Serif" font-size="10.00">BaseStationCode/src</text>
<text text-anchor="middle" x="580.5" y="-74.5" font-family="Helvetica,sans-Serif" font-size="10.00">/src/rpc.h</text>
</a>
</g>
</g>
<!-- Node1&#45;&gt;Node13 -->
<g id="edge23" class="edge">
<title>Node1&#45;&gt;Node13</title>
<path fill="none" stroke="midnightblue" d="M517.97,-269.56C574.41,-254.85 650.79,-224.66 686.5,-165 693.58,-153.18 693.85,-145.65 686.5,-134 675.56,-116.68 656.88,-105.17 638.21,-97.59"/>
<polygon fill="midnightblue" stroke="midnightblue" points="516.88,-266.23 508.03,-272.05 518.58,-273.02 516.88,-266.23"/>
</g>
<!-- Node3 -->
<g id="node3" class="node">
<title>Node3</title>
<g id="a_node3"><a xlink:href="main_8cpp.html" target="_top" xlink:title=" ">
<polygon fill="white" stroke="black" points="256,-0.5 256,-30.5 373,-30.5 373,-0.5 256,-0.5"/>
<text text-anchor="start" x="264" y="-18.5" font-family="Helvetica,sans-Serif" font-size="10.00">BaseStationCode/src</text>
<text text-anchor="middle" x="314.5" y="-7.5" font-family="Helvetica,sans-Serif" font-size="10.00">/main.cpp</text>
</a>
</g>
</g>
<!-- Node2&#45;&gt;Node3 -->
<g id="edge2" class="edge">
<title>Node2&#45;&gt;Node3</title>
<path fill="none" stroke="midnightblue" d="M196.59,-129.46C183.93,-121.65 171.62,-111.27 164.5,-98 157.99,-85.86 156.46,-78.19 164.5,-67 185.18,-38.21 223.11,-25.62 255.65,-20.2"/>
<polygon fill="midnightblue" stroke="midnightblue" points="194.94,-132.54 205.36,-134.45 198.4,-126.46 194.94,-132.54"/>
</g>
<!-- Node5&#45;&gt;Node3 -->
<g id="edge5" class="edge">
<title>Node5&#45;&gt;Node3</title>
<path fill="none" stroke="midnightblue" d="M123.55,-64.98C165.36,-54.37 219.11,-40.72 258.92,-30.61"/>
<polygon fill="midnightblue" stroke="midnightblue" points="122.56,-61.62 113.73,-67.48 124.29,-68.41 122.56,-61.62"/>
</g>
<!-- Node6 -->
<g id="node6" class="node">
<title>Node6</title>
<g id="a_node6"><a xlink:href="leds_8cpp.html" target="_top" xlink:title="Controls the LEDs on the unit.">
<polygon fill="white" stroke="black" points="0,-0.5 0,-30.5 117,-30.5 117,-0.5 0,-0.5"/>
<text text-anchor="start" x="8" y="-18.5" font-family="Helvetica,sans-Serif" font-size="10.00">BaseStationCode/src</text>
<text text-anchor="middle" x="58.5" y="-7.5" font-family="Helvetica,sans-Serif" font-size="10.00">/src/leds.cpp</text>
</a>
</g>
</g>
<!-- Node5&#45;&gt;Node6 -->
<g id="edge6" class="edge">
<title>Node5&#45;&gt;Node6</title>
<path fill="none" stroke="midnightblue" d="M58.5,-57.11C58.5,-48.15 58.5,-38.32 58.5,-30.58"/>
<polygon fill="midnightblue" stroke="midnightblue" points="55,-57.4 58.5,-67.4 62,-57.4 55,-57.4"/>
</g>
<!-- Node7&#45;&gt;Node3 -->
<g id="edge8" class="edge">
<title>Node7&#45;&gt;Node3</title>
<path fill="none" stroke="midnightblue" d="M497.68,-191.39C501.81,-159.19 503.85,-102.12 474.5,-67 467.4,-58.51 412.33,-42.3 368.75,-30.53"/>
<polygon fill="midnightblue" stroke="midnightblue" points="494.22,-190.89 496.24,-201.29 501.14,-191.9 494.22,-190.89"/>
</g>
<!-- Node8 -->
<g id="node8" class="node">
<title>Node8</title>
<g id="a_node8"><a xlink:href="lora_8cpp.html" target="_top" xlink:title="File that handles the LoRa radio and PJON.">
<polygon fill="white" stroke="black" points="560,-134.5 560,-164.5 677,-164.5 677,-134.5 560,-134.5"/>
<text text-anchor="start" x="568" y="-152.5" font-family="Helvetica,sans-Serif" font-size="10.00">BaseStationCode/src</text>
<text text-anchor="middle" x="618.5" y="-141.5" font-family="Helvetica,sans-Serif" font-size="10.00">/src/lora.cpp</text>
</a>
</g>
</g>
<!-- Node7&#45;&gt;Node8 -->
<g id="edge9" class="edge">
<title>Node7&#45;&gt;Node8</title>
<path fill="none" stroke="midnightblue" d="M529.63,-196.71C549.34,-186.46 573.34,-173.98 591.43,-164.58"/>
<polygon fill="midnightblue" stroke="midnightblue" points="527.88,-193.68 520.62,-201.4 531.11,-199.89 527.88,-193.68"/>
</g>
<!-- Node7&#45;&gt;Node9 -->
<g id="edge10" class="edge">
<title>Node7&#45;&gt;Node9</title>
<path fill="none" stroke="midnightblue" d="M460.38,-195.45C446.22,-185.45 430.56,-173.6 419.67,-164.58"/>
<polygon fill="midnightblue" stroke="midnightblue" points="458.73,-198.57 468.94,-201.4 462.72,-192.82 458.73,-198.57"/>
</g>
<!-- Node9&#45;&gt;Node3 -->
<g id="edge11" class="edge">
<title>Node9&#45;&gt;Node3</title>
<path fill="none" stroke="midnightblue" d="M371.39,-128.87C359.47,-120.69 347.03,-110.23 338.5,-98 324.07,-77.31 318.21,-47.9 315.91,-30.65"/>
<polygon fill="midnightblue" stroke="midnightblue" points="369.61,-131.89 379.91,-134.41 373.43,-126.03 369.61,-131.89"/>
</g>
<!-- Node9&#45;&gt;Node5 -->
<g id="edge12" class="edge">
<title>Node9&#45;&gt;Node5</title>
<path fill="none" stroke="midnightblue" d="M337.79,-135.67C273.35,-123.63 178.02,-105.82 117.09,-94.44"/>
<polygon fill="midnightblue" stroke="midnightblue" points="337.39,-139.15 347.86,-137.55 338.67,-132.27 337.39,-139.15"/>
</g>
<!-- Node9&#45;&gt;Node7 -->
<g id="edge13" class="edge">
<title>Node9&#45;&gt;Node7</title>
<path fill="none" stroke="midnightblue" d="M439.58,-170.52C453.74,-180.51 469.4,-192.37 480.3,-201.4"/>
<polygon fill="midnightblue" stroke="midnightblue" points="441.23,-167.4 431.02,-164.58 437.24,-173.15 441.23,-167.4"/>
</g>
<!-- Node10 -->
<g id="node10" class="node">
<title>Node10</title>
<g id="a_node10"><a xlink:href="networking_8cpp.html" target="_top" xlink:title="File that handles connecting to WiFi and MQTT and staying connected.">
<polygon fill="white" stroke="black" points="174,-67.5 174,-97.5 291,-97.5 291,-67.5 174,-67.5"/>
<text text-anchor="start" x="182" y="-85.5" font-family="Helvetica,sans-Serif" font-size="10.00">BaseStationCode/src</text>
<text text-anchor="middle" x="232.5" y="-74.5" font-family="Helvetica,sans-Serif" font-size="10.00">/src/networking.cpp</text>
</a>
</g>
</g>
<!-- Node9&#45;&gt;Node10 -->
<g id="edge14" class="edge">
<title>Node9&#45;&gt;Node10</title>
<path fill="none" stroke="midnightblue" d="M359.17,-130.82C331.2,-120.37 296.27,-107.32 270.18,-97.58"/>
<polygon fill="midnightblue" stroke="midnightblue" points="358.15,-134.18 368.74,-134.4 360.6,-127.62 358.15,-134.18"/>
</g>
<!-- Node11 -->
<g id="node11" class="node">
<title>Node11</title>
<g id="a_node11"><a xlink:href="ota_8h.html" target="_top" xlink:title="Handles over the air (OTA) updates.">
<polygon fill="white" stroke="black" points="348,-67.5 348,-97.5 465,-97.5 465,-67.5 348,-67.5"/>
<text text-anchor="start" x="356" y="-85.5" font-family="Helvetica,sans-Serif" font-size="10.00">BaseStationCode/src</text>
<text text-anchor="middle" x="406.5" y="-74.5" font-family="Helvetica,sans-Serif" font-size="10.00">/src/ota.h</text>
</a>
</g>
</g>
<!-- Node9&#45;&gt;Node11 -->
<g id="edge15" class="edge">
<title>Node9&#45;&gt;Node11</title>
<path fill="none" stroke="midnightblue" d="M406.5,-124.11C406.5,-115.15 406.5,-105.32 406.5,-97.58"/>
<polygon fill="midnightblue" stroke="midnightblue" points="403,-124.4 406.5,-134.4 410,-124.4 403,-124.4"/>
</g>
<!-- Node9&#45;&gt;Node13 -->
<g id="edge18" class="edge">
<title>Node9&#45;&gt;Node13</title>
<path fill="none" stroke="midnightblue" d="M453.83,-130.82C481.8,-120.37 516.73,-107.32 542.82,-97.58"/>
<polygon fill="midnightblue" stroke="midnightblue" points="452.4,-127.62 444.26,-134.4 454.85,-134.18 452.4,-127.62"/>
</g>
<!-- Node11&#45;&gt;Node3 -->
<g id="edge16" class="edge">
<title>Node11&#45;&gt;Node3</title>
<path fill="none" stroke="midnightblue" d="M378.12,-61.45C363.97,-51.45 347.19,-39.6 334.42,-30.58"/>
<polygon fill="midnightblue" stroke="midnightblue" points="376.35,-64.48 386.54,-67.4 380.39,-58.77 376.35,-64.48"/>
</g>
<!-- Node12 -->
<g id="node12" class="node">
<title>Node12</title>
<g id="a_node12"><a xlink:href="ota_8cpp.html" target="_top" xlink:title="Handles over the air (OTA) updates.">
<polygon fill="white" stroke="black" points="391,-0.5 391,-30.5 508,-30.5 508,-0.5 391,-0.5"/>
<text text-anchor="start" x="399" y="-18.5" font-family="Helvetica,sans-Serif" font-size="10.00">BaseStationCode/src</text>
<text text-anchor="middle" x="449.5" y="-7.5" font-family="Helvetica,sans-Serif" font-size="10.00">/src/ota.cpp</text>
</a>
</g>
</g>
<!-- Node11&#45;&gt;Node12 -->
<g id="edge17" class="edge">
<title>Node11&#45;&gt;Node12</title>
<path fill="none" stroke="midnightblue" d="M421.47,-58.87C427.7,-49.46 434.73,-38.83 440.19,-30.58"/>
<polygon fill="midnightblue" stroke="midnightblue" points="418.43,-57.12 415.83,-67.4 424.27,-60.99 418.43,-57.12"/>
</g>
<!-- Node13&#45;&gt;Node3 -->
<g id="edge19" class="edge">
<title>Node13&#45;&gt;Node3</title>
<path fill="none" stroke="midnightblue" d="M513.19,-65.05C469.7,-54.43 413.7,-40.74 372.25,-30.61"/>
<polygon fill="midnightblue" stroke="midnightblue" points="512.56,-68.5 523.11,-67.48 514.23,-61.7 512.56,-68.5"/>
</g>
<!-- Node13&#45;&gt;Node7 -->
<g id="edge20" class="edge">
<title>Node13&#45;&gt;Node7</title>
<path fill="none" stroke="midnightblue" d="M565.64,-106.04C547.64,-133.36 517.85,-178.55 502.81,-201.37"/>
<polygon fill="midnightblue" stroke="midnightblue" points="568.68,-107.8 571.26,-97.52 562.83,-103.95 568.68,-107.8"/>
</g>
<!-- Node14 -->
<g id="node14" class="node">
<title>Node14</title>
<g id="a_node14"><a xlink:href="rpc_8cpp.html" target="_top" xlink:title="Handles RPC calls.">
<polygon fill="white" stroke="black" points="526,-0.5 526,-30.5 643,-30.5 643,-0.5 526,-0.5"/>
<text text-anchor="start" x="534" y="-18.5" font-family="Helvetica,sans-Serif" font-size="10.00">BaseStationCode/src</text>
<text text-anchor="middle" x="584.5" y="-7.5" font-family="Helvetica,sans-Serif" font-size="10.00">/src/rpc.cpp</text>
</a>
</g>
</g>
<!-- Node13&#45;&gt;Node14 -->
<g id="edge21" class="edge">
<title>Node13&#45;&gt;Node14</title>
<path fill="none" stroke="midnightblue" d="M581.98,-57.4C582.54,-48.37 583.15,-38.41 583.63,-30.58"/>
<polygon fill="midnightblue" stroke="midnightblue" points="578.49,-57.2 581.37,-67.4 585.48,-57.63 578.49,-57.2"/>
</g>
</g>
</svg>
