<?xml version="1.0" encoding="UTF-8" standalone="no"?>
<!DOCTYPE svg PUBLIC "-//W3C//DTD SVG 1.1//EN"
 "http://www.w3.org/Graphics/SVG/1.1/DTD/svg11.dtd">
<!-- Generated by graphviz version 2.43.0 (0)
 -->
<!-- Title: BaseStationCode/src/src/devices.h Pages: 1 -->
<svg width="756pt" height="307pt"
 viewBox="0.00 0.00 756.00 307.00" xmlns="http://www.w3.org/2000/svg" xmlns:xlink="http://www.w3.org/1999/xlink">
<g id="graph0" class="graph" transform="scale(1 1) rotate(0) translate(4 303)">
<title>BaseStationCode/src/src/devices.h</title>
<polygon fill="white" stroke="transparent" points="-4,4 -4,-303 752,-303 752,4 -4,4"/>
<!-- Node1 -->
<g id="node1" class="node">
<title>Node1</title>
<g id="a_node1"><a xlink:title="Devices and manager for all known devices the base station connects to.">
<polygon fill="#bfbfbf" stroke="black" points="365,-268.5 365,-298.5 482,-298.5 482,-268.5 365,-268.5"/>
<text text-anchor="start" x="373" y="-286.5" font-family="Helvetica,sans-Serif" font-size="10.00">BaseStationCode/src</text>
<text text-anchor="middle" x="423.5" y="-275.5" font-family="Helvetica,sans-Serif" font-size="10.00">/src/devices.h</text>
</a>
</g>
</g>
<!-- Node2 -->
<g id="node2" class="node">
<title>Node2</title>
<g id="a_node2"><a xlink:href="device__list_8h.html" target="_top" xlink:title="List of all devices and fields known to the system.">
<polygon fill="white" stroke="black" points="57,-134.5 57,-164.5 174,-164.5 174,-134.5 57,-134.5"/>
<text text-anchor="start" x="65" y="-152.5" font-family="Helvetica,sans-Serif" font-size="10.00">BaseStationCode/src</text>
<text text-anchor="middle" x="115.5" y="-141.5" font-family="Helvetica,sans-Serif" font-size="10.00">/device_list.h</text>
</a>
</g>
</g>
<!-- Node1&#45;&gt;Node2 -->
<g id="edge1" class="edge">
<title>Node1&#45;&gt;Node2</title>
<path fill="none" stroke="midnightblue" d="M381.33,-264.43C319.25,-237.82 204.53,-188.65 148.3,-164.56"/>
<polygon fill="midnightblue" stroke="midnightblue" points="380.26,-267.78 390.83,-268.5 383.02,-261.34 380.26,-267.78"/>
</g>
<!-- Node4 -->
<g id="node4" class="node">
<title>Node4</title>
<g id="a_node4"><a xlink:href="devices_8cpp.html" target="_top" xlink:title="Devices and manager for all known devices the base station connects to.">
<polygon fill="white" stroke="black" points="578,-201.5 578,-231.5 695,-231.5 695,-201.5 578,-201.5"/>
<text text-anchor="start" x="586" y="-219.5" font-family="Helvetica,sans-Serif" font-size="10.00">BaseStationCode/src</text>
<text text-anchor="middle" x="636.5" y="-208.5" font-family="Helvetica,sans-Serif" font-size="10.00">/src/devices.cpp</text>
</a>
</g>
</g>
<!-- Node1&#45;&gt;Node4 -->
<g id="edge3" class="edge">
<title>Node1&#45;&gt;Node4</title>
<path fill="none" stroke="midnightblue" d="M479.39,-265.44C513.92,-254.91 557.69,-241.55 590.26,-231.61"/>
<polygon fill="midnightblue" stroke="midnightblue" points="478,-262.21 469.46,-268.48 480.04,-268.9 478,-262.21"/>
</g>
<!-- Node5 -->
<g id="node5" class="node">
<title>Node5</title>
<g id="a_node5"><a xlink:href="leds_8h.html" target="_top" xlink:title="Controls the LEDs on the unit.">
<polygon fill="white" stroke="black" points="0,-67.5 0,-97.5 117,-97.5 117,-67.5 0,-67.5"/>
<text text-anchor="start" x="8" y="-85.5" font-family="Helvetica,sans-Serif" font-size="10.00">BaseStationCode/src</text>
<text text-anchor="middle" x="58.5" y="-74.5" font-family="Helvetica,sans-Serif" font-size="10.00">/src/leds.h</text>
</a>
</g>
</g>
<!-- Node1&#45;&gt;Node5 -->
<g id="edge4" class="edge">
<title>Node1&#45;&gt;Node5</title>
<path fill="none" stroke="midnightblue" d="M354.86,-271.16C256.5,-253.34 83.3,-215.5 47.5,-165 33.3,-144.97 43.14,-115.06 51.14,-97.6"/>
<polygon fill="midnightblue" stroke="midnightblue" points="354.26,-274.61 364.72,-272.93 355.5,-267.72 354.26,-274.61"/>
</g>
<!-- Node7 -->
<g id="node7" class="node">
<title>Node7</title>
<g id="a_node7"><a xlink:href="lora_8h.html" target="_top" xlink:title="File that handles the LoRa radio and PJON.">
<polygon fill="white" stroke="black" points="322,-201.5 322,-231.5 439,-231.5 439,-201.5 322,-201.5"/>
<text text-anchor="start" x="330" y="-219.5" font-family="Helvetica,sans-Serif" font-size="10.00">BaseStationCode/src</text>
<text text-anchor="middle" x="380.5" y="-208.5" font-family="Helvetica,sans-Serif" font-size="10.00">/src/lora.h</text>
</a>
</g>
</g>
<!-- Node1&#45;&gt;Node7 -->
<g id="edge7" class="edge">
<title>Node1&#45;&gt;Node7</title>
<path fill="none" stroke="midnightblue" d="M408.53,-259.87C402.3,-250.46 395.27,-239.83 389.81,-231.58"/>
<polygon fill="midnightblue" stroke="midnightblue" points="405.73,-261.99 414.17,-268.4 411.57,-258.12 405.73,-261.99"/>
</g>
<!-- Node9 -->
<g id="node9" class="node">
<title>Node9</title>
<g id="a_node9"><a xlink:href="networking_8h.html" target="_top" xlink:title="Header file for networking.cpp.">
<polygon fill="white" stroke="black" points="366,-134.5 366,-164.5 483,-164.5 483,-134.5 366,-134.5"/>
<text text-anchor="start" x="374" y="-152.5" font-family="Helvetica,sans-Serif" font-size="10.00">BaseStationCode/src</text>
<text text-anchor="middle" x="424.5" y="-141.5" font-family="Helvetica,sans-Serif" font-size="10.00">/src/networking.h</text>
</a>
</g>
</g>
<!-- Node1&#45;&gt;Node9 -->
<g id="edge24" class="edge">
<title>Node1&#45;&gt;Node9</title>
<path fill="none" stroke="midnightblue" d="M437.28,-259.08C441.42,-250.81 445.41,-241.26 447.5,-232 450.53,-218.56 450.42,-214.46 447.5,-201 444.68,-188.01 438.22,-174.35 432.86,-164.52"/>
<polygon fill="midnightblue" stroke="midnightblue" points="434.08,-257.63 432.46,-268.1 440.26,-260.93 434.08,-257.63"/>
</g>
<!-- Node13 -->
<g id="node13" class="node">
<title>Node13</title>
<g id="a_node13"><a xlink:href="rpc_8h.html" target="_top" xlink:title="Handles RPC calls.">
<polygon fill="white" stroke="black" points="559,-67.5 559,-97.5 676,-97.5 676,-67.5 559,-67.5"/>
<text text-anchor="start" x="567" y="-85.5" font-family="Helvetica,sans-Serif" font-size="10.00">BaseStationCode/src</text>
<text text-anchor="middle" x="617.5" y="-74.5" font-family="Helvetica,sans-Serif" font-size="10.00">/src/rpc.h</text>
</a>
</g>
</g>
<!-- Node1&#45;&gt;Node13 -->
<g id="edge25" class="edge">
<title>Node1&#45;&gt;Node13</title>
<path fill="none" stroke="midnightblue" d="M444.58,-260.88C484.51,-219.92 570.18,-132.04 603.67,-97.68"/>
<polygon fill="midnightblue" stroke="midnightblue" points="441.93,-258.58 437.45,-268.19 446.94,-263.47 441.93,-258.58"/>
</g>
<!-- Node3 -->
<g id="node3" class="node">
<title>Node3</title>
<g id="a_node3"><a xlink:href="main_8cpp.html" target="_top" xlink:title=" ">
<polygon fill="white" stroke="black" points="149,-0.5 149,-30.5 266,-30.5 266,-0.5 149,-0.5"/>
<text text-anchor="start" x="157" y="-18.5" font-family="Helvetica,sans-Serif" font-size="10.00">BaseStationCode/src</text>
<text text-anchor="middle" x="207.5" y="-7.5" font-family="Helvetica,sans-Serif" font-size="10.00">/main.cpp</text>
</a>
</g>
</g>
<!-- Node2&#45;&gt;Node3 -->
<g id="edge2" class="edge">
<title>Node2&#45;&gt;Node3</title>
<path fill="none" stroke="midnightblue" d="M129.87,-126.03C140.55,-109.53 155.62,-86.65 169.5,-67 178.24,-54.63 188.6,-40.93 196.29,-30.91"/>
<polygon fill="midnightblue" stroke="midnightblue" points="126.9,-124.18 124.42,-134.49 132.78,-127.98 126.9,-124.18"/>
</g>
<!-- Node5&#45;&gt;Node3 -->
<g id="edge5" class="edge">
<title>Node5&#45;&gt;Node3</title>
<path fill="none" stroke="midnightblue" d="M100.29,-63.27C124.02,-52.92 153.28,-40.15 175.23,-30.58"/>
<polygon fill="midnightblue" stroke="midnightblue" points="98.6,-60.19 90.83,-67.4 101.4,-66.61 98.6,-60.19"/>
</g>
<!-- Node6 -->
<g id="node6" class="node">
<title>Node6</title>
<g id="a_node6"><a xlink:href="leds_8cpp.html" target="_top" xlink:title="Controls the LEDs on the unit.">
<polygon fill="white" stroke="black" points="0,-0.5 0,-30.5 117,-30.5 117,-0.5 0,-0.5"/>
<text text-anchor="start" x="8" y="-18.5" font-family="Helvetica,sans-Serif" font-size="10.00">BaseStationCode/src</text>
<text text-anchor="middle" x="58.5" y="-7.5" font-family="Helvetica,sans-Serif" font-size="10.00">/src/leds.cpp</text>
</a>
</g>
</g>
<!-- Node5&#45;&gt;Node6 -->
<g id="edge6" class="edge">
<title>Node5&#45;&gt;Node6</title>
<path fill="none" stroke="midnightblue" d="M58.5,-57.11C58.5,-48.15 58.5,-38.32 58.5,-30.58"/>
<polygon fill="midnightblue" stroke="midnightblue" points="55,-57.4 58.5,-67.4 62,-57.4 55,-57.4"/>
</g>
<!-- Node7&#45;&gt;Node3 -->
<g id="edge8" class="edge">
<title>Node7&#45;&gt;Node3</title>
<path fill="none" stroke="midnightblue" d="M311.75,-201.57C274.36,-192.52 233.35,-179.69 221.5,-165 189.64,-125.49 198.36,-59.43 204.2,-30.64"/>
<polygon fill="midnightblue" stroke="midnightblue" points="311.13,-205.02 321.67,-203.9 312.74,-198.2 311.13,-205.02"/>
</g>
<!-- Node8 -->
<g id="node8" class="node">
<title>Node8</title>
<g id="a_node8"><a xlink:href="lora_8cpp.html" target="_top" xlink:title="File that handles the LoRa radio and PJON.">
<polygon fill="white" stroke="black" points="231,-134.5 231,-164.5 348,-164.5 348,-134.5 231,-134.5"/>
<text text-anchor="start" x="239" y="-152.5" font-family="Helvetica,sans-Serif" font-size="10.00">BaseStationCode/src</text>
<text text-anchor="middle" x="289.5" y="-141.5" font-family="Helvetica,sans-Serif" font-size="10.00">/src/lora.cpp</text>
</a>
</g>
</g>
<!-- Node7&#45;&gt;Node8 -->
<g id="edge9" class="edge">
<title>Node7&#45;&gt;Node8</title>
<path fill="none" stroke="midnightblue" d="M352.43,-195.45C338.43,-185.45 321.84,-173.6 309.21,-164.58"/>
<polygon fill="midnightblue" stroke="midnightblue" points="350.58,-198.43 360.75,-201.4 354.65,-192.74 350.58,-198.43"/>
</g>
<!-- Node7&#45;&gt;Node9 -->
<g id="edge10" class="edge">
<title>Node7&#45;&gt;Node9</title>
<path fill="none" stroke="midnightblue" d="M389.54,-192.58C395.32,-183.24 402.69,-172.75 409.3,-164.58"/>
<polygon fill="midnightblue" stroke="midnightblue" points="386.4,-191 384.37,-201.4 392.44,-194.54 386.4,-191"/>
</g>
<!-- Node9&#45;&gt;Node3 -->
<g id="edge11" class="edge">
<title>Node9&#45;&gt;Node3</title>
<path fill="none" stroke="midnightblue" d="M355.79,-132.75C307.32,-121.12 249.47,-105.98 240.5,-98 220.65,-80.35 212.54,-49.04 209.38,-30.8"/>
<polygon fill="midnightblue" stroke="midnightblue" points="355.12,-136.19 365.66,-135.1 356.74,-129.38 355.12,-136.19"/>
</g>
<!-- Node9&#45;&gt;Node5 -->
<g id="edge12" class="edge">
<title>Node9&#45;&gt;Node5</title>
<path fill="none" stroke="midnightblue" d="M355.91,-133.94C266.74,-117.02 175.17,-101.95 117.16,-92.69"/>
<polygon fill="midnightblue" stroke="midnightblue" points="355.45,-137.41 365.93,-135.85 356.76,-130.53 355.45,-137.41"/>
</g>
<!-- Node9&#45;&gt;Node7 -->
<g id="edge13" class="edge">
<title>Node9&#45;&gt;Node7</title>
<path fill="none" stroke="midnightblue" d="M415.48,-173.39C409.7,-182.73 402.33,-193.22 395.73,-201.4"/>
<polygon fill="midnightblue" stroke="midnightblue" points="418.61,-174.97 420.65,-164.58 412.57,-171.44 418.61,-174.97"/>
</g>
<!-- Node10 -->
<g id="node10" class="node">
<title>Node10</title>
<g id="a_node10"><a xlink:href="networking_8cpp.html" target="_top" xlink:title="File that handles connecting to WiFi and MQTT and staying connected.">
<polygon fill="white" stroke="black" points="496,-0.5 496,-30.5 613,-30.5 613,-0.5 496,-0.5"/>
<text text-anchor="start" x="504" y="-18.5" font-family="Helvetica,sans-Serif" font-size="10.00">BaseStationCode/src</text>
<text text-anchor="middle" x="554.5" y="-7.5" font-family="Helvetica,sans-Serif" font-size="10.00">/src/networking.cpp</text>
</a>
</g>
</g>
<!-- Node9&#45;&gt;Node10 -->
<g id="edge14" class="edge">
<title>Node9&#45;&gt;Node10</title>
<path fill="none" stroke="midnightblue" d="M467.74,-129.58C482.89,-121.45 499.18,-110.83 511.5,-98 530.56,-78.15 543.42,-48.19 549.81,-30.66"/>
<polygon fill="midnightblue" stroke="midnightblue" points="465.8,-126.64 458.5,-134.32 468.99,-132.87 465.8,-126.64"/>
</g>
<!-- Node11 -->
<g id="node11" class="node">
<title>Node11</title>
<g id="a_node11"><a xlink:href="ota_8h.html" target="_top" xlink:title="Handles over the air (OTA) updates.">
<polygon fill="white" stroke="black" points="385,-67.5 385,-97.5 502,-97.5 502,-67.5 385,-67.5"/>
<text text-anchor="start" x="393" y="-85.5" font-family="Helvetica,sans-Serif" font-size="10.00">BaseStationCode/src</text>
<text text-anchor="middle" x="443.5" y="-74.5" font-family="Helvetica,sans-Serif" font-size="10.00">/src/ota.h</text>
</a>
</g>
</g>
<!-- Node9&#45;&gt;Node11 -->
<g id="edge15" class="edge">
<title>Node9&#45;&gt;Node11</title>
<path fill="none" stroke="midnightblue" d="M431.46,-124.7C434.12,-115.59 437.07,-105.49 439.39,-97.58"/>
<polygon fill="midnightblue" stroke="midnightblue" points="428.07,-123.82 428.62,-134.4 434.79,-125.78 428.07,-123.82"/>
</g>
<!-- Node9&#45;&gt;Node13 -->
<g id="edge18" class="edge">
<title>Node9&#45;&gt;Node13</title>
<path fill="none" stroke="midnightblue" d="M476.19,-131.09C507.34,-120.6 546.51,-107.41 575.7,-97.58"/>
<polygon fill="midnightblue" stroke="midnightblue" points="474.74,-127.89 466.38,-134.4 476.97,-134.52 474.74,-127.89"/>
</g>
<!-- Node15 -->
<g id="node15" class="node">
<title>Node15</title>
<g id="a_node15"><a xlink:href="timeseries_8cpp.html" target="_top" xlink:title=" ">
<polygon fill="white" stroke="black" points="250,-67.5 250,-97.5 367,-97.5 367,-67.5 250,-67.5"/>
<text text-anchor="start" x="258" y="-85.5" font-family="Helvetica,sans-Serif" font-size="10.00">BaseStationCode/src</text>
<text text-anchor="middle" x="308.5" y="-74.5" font-family="Helvetica,sans-Serif" font-size="10.00">/src/timeseries.cpp</text>
</a>
</g>
</g>
<!-- Node9&#45;&gt;Node15 -->
<g id="edge23" class="edge">
<title>Node9&#45;&gt;Node15</title>
<path fill="none" stroke="midnightblue" d="M390.23,-129.3C372.08,-119.12 350.18,-106.85 333.62,-97.58"/>
<polygon fill="midnightblue" stroke="midnightblue" points="388.9,-132.56 399.33,-134.4 392.32,-126.45 388.9,-132.56"/>
</g>
<!-- Node11&#45;&gt;Node3 -->
<g id="edge16" class="edge">
<title>Node11&#45;&gt;Node3</title>
<path fill="none" stroke="midnightblue" d="M382.56,-64.71C344.15,-54.14 295.13,-40.63 258.73,-30.61"/>
<polygon fill="midnightblue" stroke="midnightblue" points="382.01,-68.19 392.58,-67.48 383.87,-61.45 382.01,-68.19"/>
</g>
<!-- Node12 -->
<g id="node12" class="node">
<title>Node12</title>
<g id="a_node12"><a xlink:href="ota_8cpp.html" target="_top" xlink:title="Handles over the air (OTA) updates.">
<polygon fill="white" stroke="black" points="361,-0.5 361,-30.5 478,-30.5 478,-0.5 361,-0.5"/>
<text text-anchor="start" x="369" y="-18.5" font-family="Helvetica,sans-Serif" font-size="10.00">BaseStationCode/src</text>
<text text-anchor="middle" x="419.5" y="-7.5" font-family="Helvetica,sans-Serif" font-size="10.00">/src/ota.cpp</text>
</a>
</g>
</g>
<!-- Node11&#45;&gt;Node12 -->
<g id="edge17" class="edge">
<title>Node11&#45;&gt;Node12</title>
<path fill="none" stroke="midnightblue" d="M434.82,-57.99C431.43,-48.8 427.65,-38.58 424.7,-30.58"/>
<polygon fill="midnightblue" stroke="midnightblue" points="431.55,-59.23 438.29,-67.4 438.11,-56.8 431.55,-59.23"/>
</g>
<!-- Node13&#45;&gt;Node3 -->
<g id="edge19" class="edge">
<title>Node13&#45;&gt;Node3</title>
<path fill="none" stroke="midnightblue" d="M548.88,-70.62C469.69,-58.07 340.83,-37.64 266.13,-25.8"/>
<polygon fill="midnightblue" stroke="midnightblue" points="548.33,-74.08 558.76,-72.19 549.43,-67.16 548.33,-74.08"/>
</g>
<!-- Node13&#45;&gt;Node7 -->
<g id="edge20" class="edge">
<title>Node13&#45;&gt;Node7</title>
<path fill="none" stroke="midnightblue" d="M584.55,-103.05C569.44,-112.2 551.39,-123.4 535.5,-134 515.9,-147.07 512.9,-153.21 492.5,-165 468.03,-179.14 438.89,-192.17 416.46,-201.46"/>
<polygon fill="midnightblue" stroke="midnightblue" points="586.77,-105.79 593.53,-97.64 583.16,-99.8 586.77,-105.79"/>
</g>
<!-- Node13&#45;&gt;Node10 -->
<g id="edge21" class="edge">
<title>Node13&#45;&gt;Node10</title>
<path fill="none" stroke="midnightblue" d="M596.69,-60.02C587.3,-50.34 576.48,-39.17 568.14,-30.58"/>
<polygon fill="midnightblue" stroke="midnightblue" points="594.36,-62.65 603.83,-67.4 599.38,-57.78 594.36,-62.65"/>
</g>
<!-- Node14 -->
<g id="node14" class="node">
<title>Node14</title>
<g id="a_node14"><a xlink:href="rpc_8cpp.html" target="_top" xlink:title="Handles RPC calls.">
<polygon fill="white" stroke="black" points="631,-0.5 631,-30.5 748,-30.5 748,-0.5 631,-0.5"/>
<text text-anchor="start" x="639" y="-18.5" font-family="Helvetica,sans-Serif" font-size="10.00">BaseStationCode/src</text>
<text text-anchor="middle" x="689.5" y="-7.5" font-family="Helvetica,sans-Serif" font-size="10.00">/src/rpc.cpp</text>
</a>
</g>
</g>
<!-- Node13&#45;&gt;Node14 -->
<g id="edge22" class="edge">
<title>Node13&#45;&gt;Node14</title>
<path fill="none" stroke="midnightblue" d="M640.65,-60.6C651.52,-50.78 664.2,-39.34 673.91,-30.58"/>
<polygon fill="midnightblue" stroke="midnightblue" points="638.2,-58.1 633.12,-67.4 642.89,-63.29 638.2,-58.1"/>
</g>
</g>
</svg>
