<?xml version="1.0" encoding="UTF-8" standalone="no"?>
<!DOCTYPE svg PUBLIC "-//W3C//DTD SVG 1.1//EN"
 "http://www.w3.org/Graphics/SVG/1.1/DTD/svg11.dtd">
<!-- Generated by graphviz version 2.43.0 (0)
 -->
<!-- Title: ESP32BaseStation/device_list.h Pages: 1 -->
<!--zoomable 319 -->
<svg id="main" version="1.1" xmlns="http://www.w3.org/2000/svg" xmlns:xlink="http://www.w3.org/1999/xlink" xml:space="preserve" onload="init(evt)">
<style type="text/css"><![CDATA[
.edge:hover path { stroke: red; }
.edge:hover polygon { stroke: red; fill: red; }
]]></style>
<script type="text/javascript"><![CDATA[
var edges = document.getElementsByTagName('g');
if (edges && edges.length) {
  for (var i=0;i<edges.length;i++) {
    if (edges[i].id.substr(0,4)=='edge') {
      edges[i].setAttribute('class','edge');
    }
  }
}
]]></script>
        <defs>
                <circle id="rim" cx="0" cy="0" r="7"/>
                <circle id="rim2" cx="0" cy="0" r="3.5"/>
                <g id="zoomPlus">
                        <use xlink:href="#rim" fill="#404040">
                                <set attributeName="fill" to="#808080" begin="zoomplus.mouseover" end="zoomplus.mouseout"/>
                        </use>
                        <path d="M-4,0h8M0,-4v8" fill="none" stroke="white" stroke-width="1.5" pointer-events="none"/>
                </g>
                <g id="zoomMin">
                        <use xlink:href="#rim" fill="#404040">
                                <set attributeName="fill" to="#808080" begin="zoomminus.mouseover" end="zoomminus.mouseout"/>
                        </use>
                        <path d="M-4,0h8" fill="none" stroke="white" stroke-width="1.5" pointer-events="none"/>
                </g>
                <g id="dirArrow">
                        <path fill="none" stroke="white" stroke-width="1.5" d="M0,-3.0v7 M-2.5,-0.5L0,-3.0L2.5,-0.5"/>
                </g>
               <g id="resetDef">
                       <use xlink:href="#rim2" fill="#404040">
                               <set attributeName="fill" to="#808080" begin="reset.mouseover" end="reset.mouseout"/>
                       </use>
               </g>
        </defs>

<script type="text/javascript">
var viewWidth = 759;
var viewHeight = 319;
var sectionId = 'dynsection-0';
</script>
<script xlink:href="svgpan.js"/>
<svg id="graph" class="graph">
<g id="viewport">
<title>ESP32BaseStation/device_list.h</title>
<polygon fill="white" stroke="transparent" points="-4,4 -4,-315 754.5,-315 754.5,4 -4,4"/>
<!-- Node1 -->
<g id="node1" class="node">
<title>Node1</title>
<g id="a_node1"><a xlink:title="List of all devices and fields known to the system.">
<polygon fill="#bfbfbf" stroke="black" points="295.5,-280.5 295.5,-310.5 435.5,-310.5 435.5,-280.5 295.5,-280.5"/>
<text text-anchor="start" x="303.5" y="-298.5" font-family="Helvetica,sans-Serif" font-size="10.00">ESP32BaseStation/device</text>
<text text-anchor="middle" x="365.5" y="-287.5" font-family="Helvetica,sans-Serif" font-size="10.00">_list.h</text>
</a>
</g>
</g>
<!-- Node2 -->
<g id="node2" class="node">
<title>Node2</title>
<g id="a_node2"><a xlink:href="fields_8h.html" target="_top" xlink:title="Contains fields classes.">
<polygon fill="white" stroke="black" points="297,-168.5 297,-187.5 366,-187.5 366,-168.5 297,-168.5"/>
<text text-anchor="middle" x="331.5" y="-175.5" font-family="Helvetica,sans-Serif" font-size="10.00">src/fields.h</text>
</a>
</g>
</g>
<!-- Node1&#45;&gt;Node2 -->
<g id="edge1" class="edge">
<title>Node1&#45;&gt;Node2</title>
<path fill="none" stroke="midnightblue" d="M361.28,-280.36C358.27,-270.23 354.12,-256.28 350.5,-244 345.88,-228.32 340.67,-210.49 336.88,-197.48"/>
<polygon fill="midnightblue" stroke="midnightblue" points="340.23,-196.46 334.07,-187.83 333.51,-198.41 340.23,-196.46"/>
</g>
<!-- Node14 -->
<g id="node14" class="node">
<title>Node14</title>
<g id="a_node14"><a xlink:href="devices_8h.html" target="_top" xlink:title="Devices and manager for all known devices the base station connects to.">
<polygon fill="white" stroke="black" points="359.5,-224.5 359.5,-243.5 439.5,-243.5 439.5,-224.5 359.5,-224.5"/>
<text text-anchor="middle" x="399.5" y="-231.5" font-family="Helvetica,sans-Serif" font-size="10.00">src/devices.h</text>
</a>
</g>
</g>
<!-- Node1&#45;&gt;Node14 -->
<g id="edge15" class="edge">
<title>Node1&#45;&gt;Node14</title>
<path fill="none" stroke="midnightblue" d="M373.56,-280.4C378.35,-272.02 384.46,-261.33 389.54,-252.42"/>
<polygon fill="midnightblue" stroke="midnightblue" points="392.63,-254.08 394.55,-243.66 386.55,-250.6 392.63,-254.08"/>
</g>
<!-- Node3 -->
<g id="node3" class="node">
<title>Node3</title>
<g id="a_node3"><a xlink:href="defines_8h.html" target="_top" xlink:title="Definitions and other preprocessor and global stuff.">
<polygon fill="white" stroke="black" points="318.5,-56.5 318.5,-75.5 388.5,-75.5 388.5,-56.5 318.5,-56.5"/>
<text text-anchor="middle" x="353.5" y="-63.5" font-family="Helvetica,sans-Serif" font-size="10.00">../defines.h</text>
</a>
</g>
</g>
<!-- Node2&#45;&gt;Node3 -->
<g id="edge2" class="edge">
<title>Node2&#45;&gt;Node3</title>
<path fill="none" stroke="midnightblue" d="M306.94,-168.47C279.43,-157.49 240.64,-136.83 256.5,-112 268.12,-93.8 289.22,-82.84 308.77,-76.31"/>
<polygon fill="midnightblue" stroke="midnightblue" points="309.94,-79.61 318.5,-73.37 307.91,-72.91 309.94,-79.61"/>
</g>
<!-- Node12 -->
<g id="node12" class="node">
<title>Node12</title>
<g id="a_node12"><a xlink:href="lookups_8h.html" target="_top" xlink:title="Lookupable and lookupable manager base classes.">
<polygon fill="white" stroke="black" points="368,-112.5 368,-131.5 431,-131.5 431,-112.5 368,-112.5"/>
<text text-anchor="middle" x="399.5" y="-119.5" font-family="Helvetica,sans-Serif" font-size="10.00">lookups.h</text>
</a>
</g>
</g>
<!-- Node2&#45;&gt;Node12 -->
<g id="edge11" class="edge">
<title>Node2&#45;&gt;Node12</title>
<path fill="none" stroke="midnightblue" d="M342.43,-168.32C352.67,-160.18 368.22,-147.84 380.5,-138.09"/>
<polygon fill="midnightblue" stroke="midnightblue" points="382.72,-140.79 388.38,-131.83 378.37,-135.31 382.72,-140.79"/>
</g>
<!-- Node13 -->
<g id="node13" class="node">
<title>Node13</title>
<g id="a_node13"><a xlink:href="conversions_8h.html" target="_top" xlink:title="General functions for converting to and from char arrays.">
<polygon fill="white" stroke="black" points="265.5,-112.5 265.5,-131.5 349.5,-131.5 349.5,-112.5 265.5,-112.5"/>
<text text-anchor="middle" x="307.5" y="-119.5" font-family="Helvetica,sans-Serif" font-size="10.00">conversions.h</text>
</a>
</g>
</g>
<!-- Node2&#45;&gt;Node13 -->
<g id="edge13" class="edge">
<title>Node2&#45;&gt;Node13</title>
<path fill="none" stroke="midnightblue" d="M327.54,-168.08C324.29,-160.77 319.58,-150.18 315.55,-141.1"/>
<polygon fill="midnightblue" stroke="midnightblue" points="318.65,-139.47 311.39,-131.75 312.25,-142.31 318.65,-139.47"/>
</g>
<!-- Node4 -->
<g id="node4" class="node">
<title>Node4</title>
<g id="a_node4"><a xlink:title=" ">
<polygon fill="white" stroke="#bfbfbf" points="0,-0.5 0,-19.5 63,-19.5 63,-0.5 0,-0.5"/>
<text text-anchor="middle" x="31.5" y="-7.5" font-family="Helvetica,sans-Serif" font-size="10.00">Arduino.h</text>
</a>
</g>
</g>
<!-- Node3&#45;&gt;Node4 -->
<g id="edge3" class="edge">
<title>Node3&#45;&gt;Node4</title>
<path fill="none" stroke="midnightblue" d="M318.2,-60.1C266.51,-52.76 166.97,-38.03 73.26,-20.25"/>
<polygon fill="midnightblue" stroke="midnightblue" points="73.82,-16.79 63.34,-18.35 72.5,-23.67 73.82,-16.79"/>
</g>
<!-- Node5 -->
<g id="node5" class="node">
<title>Node5</title>
<g id="a_node5"><a xlink:title=" ">
<polygon fill="white" stroke="#bfbfbf" points="81,-0.5 81,-19.5 128,-19.5 128,-0.5 81,-0.5"/>
<text text-anchor="middle" x="104.5" y="-7.5" font-family="Helvetica,sans-Serif" font-size="10.00">WiFi.h</text>
</a>
</g>
</g>
<!-- Node3&#45;&gt;Node5 -->
<g id="edge4" class="edge">
<title>Node3&#45;&gt;Node5</title>
<path fill="none" stroke="midnightblue" d="M318.19,-58.33C277.22,-50.44 207.44,-36.54 138.04,-20.01"/>
<polygon fill="midnightblue" stroke="midnightblue" points="138.79,-16.59 128.25,-17.66 137.16,-23.4 138.79,-16.59"/>
</g>
<!-- Node6 -->
<g id="node6" class="node">
<title>Node6</title>
<g id="a_node6"><a xlink:title=" ">
<polygon fill="white" stroke="#bfbfbf" points="146.5,-0.5 146.5,-19.5 236.5,-19.5 236.5,-0.5 146.5,-0.5"/>
<text text-anchor="middle" x="191.5" y="-7.5" font-family="Helvetica,sans-Serif" font-size="10.00">PubSubClient.h</text>
</a>
</g>
</g>
<!-- Node3&#45;&gt;Node6 -->
<g id="edge5" class="edge">
<title>Node3&#45;&gt;Node6</title>
<path fill="none" stroke="midnightblue" d="M327.83,-56.44C300.58,-47.36 257.32,-32.94 226.85,-22.78"/>
<polygon fill="midnightblue" stroke="midnightblue" points="227.64,-19.36 217.05,-19.52 225.43,-26 227.64,-19.36"/>
</g>
<!-- Node7 -->
<g id="node7" class="node">
<title>Node7</title>
<g id="a_node7"><a xlink:title=" ">
<polygon fill="white" stroke="#bfbfbf" points="255,-0.5 255,-19.5 338,-19.5 338,-0.5 255,-0.5"/>
<text text-anchor="middle" x="296.5" y="-7.5" font-family="Helvetica,sans-Serif" font-size="10.00">ArduinoJson.h</text>
</a>
</g>
</g>
<!-- Node3&#45;&gt;Node7 -->
<g id="edge6" class="edge">
<title>Node3&#45;&gt;Node7</title>
<path fill="none" stroke="midnightblue" d="M344.34,-56.32C336,-48.42 323.47,-36.55 313.32,-26.94"/>
<polygon fill="midnightblue" stroke="midnightblue" points="315.49,-24.17 305.82,-19.83 310.68,-29.25 315.49,-24.17"/>
</g>
<!-- Node8 -->
<g id="node8" class="node">
<title>Node8</title>
<g id="a_node8"><a xlink:title=" ">
<polygon fill="white" stroke="#bfbfbf" points="356.5,-0.5 356.5,-19.5 466.5,-19.5 466.5,-0.5 356.5,-0.5"/>
<text text-anchor="middle" x="411.5" y="-7.5" font-family="Helvetica,sans-Serif" font-size="10.00">PJONThroughLora.h</text>
</a>
</g>
</g>
<!-- Node3&#45;&gt;Node8 -->
<g id="edge7" class="edge">
<title>Node3&#45;&gt;Node8</title>
<path fill="none" stroke="midnightblue" d="M362.82,-56.32C371.39,-48.34 384.31,-36.31 394.69,-26.65"/>
<polygon fill="midnightblue" stroke="midnightblue" points="397.08,-29.21 402.01,-19.83 392.31,-24.09 397.08,-29.21"/>
</g>
<!-- Node9 -->
<g id="node9" class="node">
<title>Node9</title>
<g id="a_node9"><a xlink:title=" ">
<polygon fill="white" stroke="#bfbfbf" points="484.5,-0.5 484.5,-19.5 562.5,-19.5 562.5,-0.5 484.5,-0.5"/>
<text text-anchor="middle" x="523.5" y="-7.5" font-family="Helvetica,sans-Serif" font-size="10.00">TunePlayer.h</text>
</a>
</g>
</g>
<!-- Node3&#45;&gt;Node9 -->
<g id="edge8" class="edge">
<title>Node3&#45;&gt;Node9</title>
<path fill="none" stroke="midnightblue" d="M380.44,-56.44C409.16,-47.32 454.83,-32.81 486.82,-22.65"/>
<polygon fill="midnightblue" stroke="midnightblue" points="488.22,-25.88 496.69,-19.52 486.1,-19.21 488.22,-25.88"/>
</g>
<!-- Node10 -->
<g id="node10" class="node">
<title>Node10</title>
<g id="a_node10"><a xlink:title=" ">
<polygon fill="white" stroke="#bfbfbf" points="580.5,-0.5 580.5,-19.5 660.5,-19.5 660.5,-0.5 580.5,-0.5"/>
<text text-anchor="middle" x="620.5" y="-7.5" font-family="Helvetica,sans-Serif" font-size="10.00">credentials.h</text>
</a>
</g>
</g>
<!-- Node3&#45;&gt;Node10 -->
<g id="edge9" class="edge">
<title>Node3&#45;&gt;Node10</title>
<path fill="none" stroke="midnightblue" d="M388.68,-57.88C435.24,-48.47 517.61,-31.81 570.59,-21.09"/>
<polygon fill="midnightblue" stroke="midnightblue" points="571.34,-24.51 580.45,-19.1 569.95,-17.65 571.34,-24.51"/>
</g>
<!-- Node11 -->
<g id="node11" class="node">
<title>Node11</title>
<g id="a_node11"><a xlink:href="topics_8h.html" target="_top" xlink:title="MQTT topics for a thingsboard gateway.">
<polygon fill="white" stroke="black" points="678.5,-0.5 678.5,-19.5 750.5,-19.5 750.5,-0.5 678.5,-0.5"/>
<text text-anchor="middle" x="714.5" y="-7.5" font-family="Helvetica,sans-Serif" font-size="10.00">src/topics.h</text>
</a>
</g>
</g>
<!-- Node3&#45;&gt;Node11 -->
<g id="edge10" class="edge">
<title>Node3&#45;&gt;Node11</title>
<path fill="none" stroke="midnightblue" d="M388.67,-60.64C445.36,-53.48 560.65,-38.33 668.14,-20.16"/>
<polygon fill="midnightblue" stroke="midnightblue" points="668.91,-23.57 678.18,-18.44 667.74,-16.67 668.91,-23.57"/>
</g>
<!-- Node12&#45;&gt;Node3 -->
<g id="edge12" class="edge">
<title>Node12&#45;&gt;Node3</title>
<path fill="none" stroke="midnightblue" d="M391.9,-112.08C385.27,-104.3 375.48,-92.8 367.44,-83.37"/>
<polygon fill="midnightblue" stroke="midnightblue" points="370.1,-81.09 360.95,-75.75 364.77,-85.63 370.1,-81.09"/>
</g>
<!-- Node13&#45;&gt;Node3 -->
<g id="edge14" class="edge">
<title>Node13&#45;&gt;Node3</title>
<path fill="none" stroke="midnightblue" d="M315.1,-112.08C321.73,-104.3 331.52,-92.8 339.56,-83.37"/>
<polygon fill="midnightblue" stroke="midnightblue" points="342.23,-85.63 346.05,-75.75 336.9,-81.09 342.23,-85.63"/>
</g>
<!-- Node14&#45;&gt;Node2 -->
<g id="edge18" class="edge">
<title>Node14&#45;&gt;Node2</title>
<path fill="none" stroke="midnightblue" d="M388.57,-224.32C378.33,-216.18 362.78,-203.84 350.5,-194.09"/>
<polygon fill="midnightblue" stroke="midnightblue" points="352.63,-191.31 342.62,-187.83 348.28,-196.79 352.63,-191.31"/>
</g>
<!-- Node14&#45;&gt;Node3 -->
<g id="edge16" class="edge">
<title>Node14&#45;&gt;Node3</title>
<path fill="none" stroke="midnightblue" d="M407.31,-224.23C424.8,-203.48 463.79,-150.27 440.5,-112 431.04,-96.46 414.29,-86.05 398,-79.19"/>
<polygon fill="midnightblue" stroke="midnightblue" points="399.1,-75.87 388.51,-75.55 396.6,-82.4 399.1,-75.87"/>
</g>
<!-- Node14&#45;&gt;Node12 -->
<g id="edge17" class="edge">
<title>Node14&#45;&gt;Node12</title>
<path fill="none" stroke="midnightblue" d="M399.5,-224.37C399.5,-206.62 399.5,-165.67 399.5,-141.6"/>
<polygon fill="midnightblue" stroke="midnightblue" points="403,-141.59 399.5,-131.59 396,-141.59 403,-141.59"/>
</g>
</g>
</svg>
        <g id="navigator" transform="translate(0 0)" fill="#404254">
                <rect fill="#f2f5e9" fill-opacity="0.5" stroke="#606060" stroke-width=".5" x="0" y="0" width="60" height="60"/>
                <use id="zoomplus" xlink:href="#zoomPlus" x="17" y="9" onmousedown="handleZoom(evt,'in')"/>
                <use id="zoomminus" xlink:href="#zoomMin" x="42" y="9" onmousedown="handleZoom(evt,'out')"/>
                <use id="reset" xlink:href="#resetDef" x="30" y="36" onmousedown="handleReset()"/>
                <g id="arrowUp" xlink:href="#dirArrow" transform="translate(30 24)" onmousedown="handlePan(0,-1)">
                  <use xlink:href="#rim" fill="#404040">
                        <set attributeName="fill" to="#808080" begin="arrowUp.mouseover" end="arrowUp.mouseout"/>
                  </use>
                  <path fill="none" stroke="white" stroke-width="1.5" d="M0,-3.0v7 M-2.5,-0.5L0,-3.0L2.5,-0.5"/>
                </g>
                <g id="arrowRight" xlink:href="#dirArrow" transform="rotate(90) translate(36 -43)" onmousedown="handlePan(1,0)">
                  <use xlink:href="#rim" fill="#404040">
                        <set attributeName="fill" to="#808080" begin="arrowRight.mouseover" end="arrowRight.mouseout"/>
                  </use>
                  <path fill="none" stroke="white" stroke-width="1.5" d="M0,-3.0v7 M-2.5,-0.5L0,-3.0L2.5,-0.5"/>
                </g>
                <g id="arrowDown" xlink:href="#dirArrow" transform="rotate(180) translate(-30 -48)" onmousedown="handlePan(0,1)">
                  <use xlink:href="#rim" fill="#404040">
                        <set attributeName="fill" to="#808080" begin="arrowDown.mouseover" end="arrowDown.mouseout"/>
                  </use>
                  <path fill="none" stroke="white" stroke-width="1.5" d="M0,-3.0v7 M-2.5,-0.5L0,-3.0L2.5,-0.5"/>
                </g>
                <g id="arrowLeft" xlink:href="#dirArrow" transform="rotate(270) translate(-36 17)" onmousedown="handlePan(-1,0)">
                  <use xlink:href="#rim" fill="#404040">
                        <set attributeName="fill" to="#808080" begin="arrowLeft.mouseover" end="arrowLeft.mouseout"/>
                  </use>
                  <path fill="none" stroke="white" stroke-width="1.5" d="M0,-3.0v7 M-2.5,-0.5L0,-3.0L2.5,-0.5"/>
                </g>
        </g>
        <svg viewBox="0 0 15 15" width="100%" height="30px" preserveAspectRatio="xMaxYMin meet">
         <g id="arrow_out" transform="scale(0.3 0.3)">
          <a xlink:href="device__list_8h__incl_org.svg" target="_base">
           <rect id="button" ry="5" rx="5" y="6" x="6" height="38" width="38"
                fill="#f2f5e9" fill-opacity="0.5" stroke="#606060" stroke-width="1.0"/>
           <path id="arrow"
             d="M 11.500037,31.436501 C 11.940474,20.09759 22.043105,11.32322 32.158766,21.979434 L 37.068811,17.246167 C 37.068811,17.246167 37.088388,32 37.088388,32 L 22.160133,31.978069 C 22.160133,31.978069 26.997745,27.140456 26.997745,27.140456 C 18.528582,18.264221 13.291696,25.230495 11.500037,31.436501 z"
             style="fill:#404040;"/>
          </a>
         </g>
        </svg>
</svg>
