<?xml version="1.0" encoding="UTF-8" standalone="no"?>
<!DOCTYPE svg PUBLIC "-//W3C//DTD SVG 1.1//EN"
 "http://www.w3.org/Graphics/SVG/1.1/DTD/svg11.dtd">
<!-- Generated by graphviz version 2.43.0 (0)
 -->
<!-- Title: BaseStationCode/src/src/devices.cpp Pages: 1 -->
<svg width="565pt" height="319pt"
 viewBox="0.00 0.00 564.50 319.00" xmlns="http://www.w3.org/2000/svg" xmlns:xlink="http://www.w3.org/1999/xlink">
<g id="graph0" class="graph" transform="scale(1 1) rotate(0) translate(4 315)">
<title>BaseStationCode/src/src/devices.cpp</title>
<polygon fill="white" stroke="transparent" points="-4,4 -4,-315 560.5,-315 560.5,4 -4,4"/>
<!-- Node1 -->
<g id="node1" class="node">
<title>Node1</title>
<g id="a_node1"><a xlink:title="Devices and manager for all known devices the base station connects to.">
<polygon fill="#bfbfbf" stroke="black" points="155,-280.5 155,-310.5 272,-310.5 272,-280.5 155,-280.5"/>
<text text-anchor="start" x="163" y="-298.5" font-family="Helvetica,sans-Serif" font-size="10.00">BaseStationCode/src</text>
<text text-anchor="middle" x="213.5" y="-287.5" font-family="Helvetica,sans-Serif" font-size="10.00">/src/devices.cpp</text>
</a>
</g>
</g>
<!-- Node2 -->
<g id="node2" class="node">
<title>Node2</title>
<g id="a_node2"><a xlink:href="devices_8h.html" target="_top" xlink:title="Devices and manager for all known devices the base station connects to.">
<polygon fill="white" stroke="black" points="182,-224.5 182,-243.5 245,-243.5 245,-224.5 182,-224.5"/>
<text text-anchor="middle" x="213.5" y="-231.5" font-family="Helvetica,sans-Serif" font-size="10.00">devices.h</text>
</a>
</g>
</g>
<!-- Node1&#45;&gt;Node2 -->
<g id="edge1" class="edge">
<title>Node1&#45;&gt;Node2</title>
<path fill="none" stroke="midnightblue" d="M213.5,-280.4C213.5,-272.47 213.5,-262.46 213.5,-253.86"/>
<polygon fill="midnightblue" stroke="midnightblue" points="217,-253.66 213.5,-243.66 210,-253.66 217,-253.66"/>
</g>
<!-- Node3 -->
<g id="node3" class="node">
<title>Node3</title>
<g id="a_node3"><a xlink:href="defines_8h.html" target="_top" xlink:title="Definitions and other preprocessor and global stuff.">
<polygon fill="white" stroke="black" points="208.5,-56.5 208.5,-75.5 278.5,-75.5 278.5,-56.5 208.5,-56.5"/>
<text text-anchor="middle" x="243.5" y="-63.5" font-family="Helvetica,sans-Serif" font-size="10.00">../defines.h</text>
</a>
</g>
</g>
<!-- Node2&#45;&gt;Node3 -->
<g id="edge2" class="edge">
<title>Node2&#45;&gt;Node3</title>
<path fill="none" stroke="midnightblue" d="M205.91,-224.36C188.92,-203.9 150.9,-151.26 172.5,-112 180.39,-97.66 194.99,-87.25 208.9,-80.08"/>
<polygon fill="midnightblue" stroke="midnightblue" points="210.79,-83.06 218.34,-75.62 207.8,-76.73 210.79,-83.06"/>
</g>
<!-- Node10 -->
<g id="node10" class="node">
<title>Node10</title>
<g id="a_node10"><a xlink:href="lookups_8h.html" target="_top" xlink:title="Lookupable and lookupable manager base classes.">
<polygon fill="white" stroke="black" points="182,-112.5 182,-131.5 245,-131.5 245,-112.5 182,-112.5"/>
<text text-anchor="middle" x="213.5" y="-119.5" font-family="Helvetica,sans-Serif" font-size="10.00">lookups.h</text>
</a>
</g>
</g>
<!-- Node2&#45;&gt;Node10 -->
<g id="edge9" class="edge">
<title>Node2&#45;&gt;Node10</title>
<path fill="none" stroke="midnightblue" d="M213.5,-224.37C213.5,-206.62 213.5,-165.67 213.5,-141.6"/>
<polygon fill="midnightblue" stroke="midnightblue" points="217,-141.59 213.5,-131.59 210,-141.59 217,-141.59"/>
</g>
<!-- Node11 -->
<g id="node11" class="node">
<title>Node11</title>
<g id="a_node11"><a xlink:href="fields_8h.html" target="_top" xlink:title="Contains fields classes.">
<polygon fill="white" stroke="black" points="244.5,-168.5 244.5,-187.5 296.5,-187.5 296.5,-168.5 244.5,-168.5"/>
<text text-anchor="middle" x="270.5" y="-175.5" font-family="Helvetica,sans-Serif" font-size="10.00">fields.h</text>
</a>
</g>
</g>
<!-- Node2&#45;&gt;Node11 -->
<g id="edge11" class="edge">
<title>Node2&#45;&gt;Node11</title>
<path fill="none" stroke="midnightblue" d="M222.66,-224.32C231,-216.42 243.53,-204.55 253.68,-194.94"/>
<polygon fill="midnightblue" stroke="midnightblue" points="256.32,-197.25 261.18,-187.83 251.51,-192.17 256.32,-197.25"/>
</g>
<!-- Node4 -->
<g id="node4" class="node">
<title>Node4</title>
<g id="a_node4"><a xlink:title=" ">
<polygon fill="white" stroke="#bfbfbf" points="0,-0.5 0,-19.5 63,-19.5 63,-0.5 0,-0.5"/>
<text text-anchor="middle" x="31.5" y="-7.5" font-family="Helvetica,sans-Serif" font-size="10.00">Arduino.h</text>
</a>
</g>
</g>
<!-- Node3&#45;&gt;Node4 -->
<g id="edge3" class="edge">
<title>Node3&#45;&gt;Node4</title>
<path fill="none" stroke="midnightblue" d="M209.91,-56.44C172.77,-46.99 112.93,-31.74 72.92,-21.55"/>
<polygon fill="midnightblue" stroke="midnightblue" points="73.76,-18.15 63.2,-19.08 72.03,-24.94 73.76,-18.15"/>
</g>
<!-- Node5 -->
<g id="node5" class="node">
<title>Node5</title>
<g id="a_node5"><a xlink:title=" ">
<polygon fill="white" stroke="#bfbfbf" points="81,-0.5 81,-19.5 128,-19.5 128,-0.5 81,-0.5"/>
<text text-anchor="middle" x="104.5" y="-7.5" font-family="Helvetica,sans-Serif" font-size="10.00">WiFi.h</text>
</a>
</g>
</g>
<!-- Node3&#45;&gt;Node5 -->
<g id="edge4" class="edge">
<title>Node3&#45;&gt;Node5</title>
<path fill="none" stroke="midnightblue" d="M221.48,-56.44C198.4,-47.48 161.94,-33.31 135.86,-23.18"/>
<polygon fill="midnightblue" stroke="midnightblue" points="137.01,-19.88 126.42,-19.52 134.48,-26.4 137.01,-19.88"/>
</g>
<!-- Node6 -->
<g id="node6" class="node">
<title>Node6</title>
<g id="a_node6"><a xlink:title=" ">
<polygon fill="white" stroke="#bfbfbf" points="146.5,-0.5 146.5,-19.5 236.5,-19.5 236.5,-0.5 146.5,-0.5"/>
<text text-anchor="middle" x="191.5" y="-7.5" font-family="Helvetica,sans-Serif" font-size="10.00">PubSubClient.h</text>
</a>
</g>
</g>
<!-- Node3&#45;&gt;Node6 -->
<g id="edge5" class="edge">
<title>Node3&#45;&gt;Node6</title>
<path fill="none" stroke="midnightblue" d="M234.91,-56.08C227.34,-48.22 216.12,-36.57 206.99,-27.08"/>
<polygon fill="midnightblue" stroke="midnightblue" points="209.38,-24.53 199.93,-19.75 204.34,-29.38 209.38,-24.53"/>
</g>
<!-- Node7 -->
<g id="node7" class="node">
<title>Node7</title>
<g id="a_node7"><a xlink:title=" ">
<polygon fill="white" stroke="#bfbfbf" points="255,-0.5 255,-19.5 338,-19.5 338,-0.5 255,-0.5"/>
<text text-anchor="middle" x="296.5" y="-7.5" font-family="Helvetica,sans-Serif" font-size="10.00">ArduinoJson.h</text>
</a>
</g>
</g>
<!-- Node3&#45;&gt;Node7 -->
<g id="edge6" class="edge">
<title>Node3&#45;&gt;Node7</title>
<path fill="none" stroke="midnightblue" d="M252.25,-56.08C259.97,-48.22 271.4,-36.57 280.72,-27.08"/>
<polygon fill="midnightblue" stroke="midnightblue" points="283.4,-29.34 287.91,-19.75 278.41,-24.44 283.4,-29.34"/>
</g>
<!-- Node8 -->
<g id="node8" class="node">
<title>Node8</title>
<g id="a_node8"><a xlink:title=" ">
<polygon fill="white" stroke="#bfbfbf" points="356.5,-0.5 356.5,-19.5 466.5,-19.5 466.5,-0.5 356.5,-0.5"/>
<text text-anchor="middle" x="411.5" y="-7.5" font-family="Helvetica,sans-Serif" font-size="10.00">PJONThroughLora.h</text>
</a>
</g>
</g>
<!-- Node3&#45;&gt;Node8 -->
<g id="edge7" class="edge">
<title>Node3&#45;&gt;Node8</title>
<path fill="none" stroke="midnightblue" d="M270.12,-56.44C298.51,-47.32 343.64,-32.81 375.25,-22.65"/>
<polygon fill="midnightblue" stroke="midnightblue" points="376.56,-25.91 385,-19.52 374.41,-19.24 376.56,-25.91"/>
</g>
<!-- Node9 -->
<g id="node9" class="node">
<title>Node9</title>
<g id="a_node9"><a xlink:href="topics_8h.html" target="_top" xlink:title="MQTT topics for a thingsboard gateway.">
<polygon fill="white" stroke="black" points="484.5,-0.5 484.5,-19.5 556.5,-19.5 556.5,-0.5 484.5,-0.5"/>
<text text-anchor="middle" x="520.5" y="-7.5" font-family="Helvetica,sans-Serif" font-size="10.00">src/topics.h</text>
</a>
</g>
</g>
<!-- Node3&#45;&gt;Node9 -->
<g id="edge8" class="edge">
<title>Node3&#45;&gt;Node9</title>
<path fill="none" stroke="midnightblue" d="M278.89,-58.2C322.44,-49.82 398.92,-35.06 474.05,-20.28"/>
<polygon fill="midnightblue" stroke="midnightblue" points="475.02,-23.65 484.15,-18.29 473.67,-16.79 475.02,-23.65"/>
</g>
<!-- Node10&#45;&gt;Node3 -->
<g id="edge10" class="edge">
<title>Node10&#45;&gt;Node3</title>
<path fill="none" stroke="midnightblue" d="M218.45,-112.08C222.6,-104.61 228.65,-93.72 233.77,-84.52"/>
<polygon fill="midnightblue" stroke="midnightblue" points="236.84,-86.19 238.64,-75.75 230.72,-82.79 236.84,-86.19"/>
</g>
<!-- Node11&#45;&gt;Node3 -->
<g id="edge12" class="edge">
<title>Node11&#45;&gt;Node3</title>
<path fill="none" stroke="midnightblue" d="M268.38,-168.37C264.02,-150.62 253.97,-109.67 248.06,-85.6"/>
<polygon fill="midnightblue" stroke="midnightblue" points="251.39,-84.47 245.61,-75.59 244.59,-86.14 251.39,-84.47"/>
</g>
<!-- Node11&#45;&gt;Node10 -->
<g id="edge13" class="edge">
<title>Node11&#45;&gt;Node10</title>
<path fill="none" stroke="midnightblue" d="M261.34,-168.32C253,-160.42 240.47,-148.55 230.32,-138.94"/>
<polygon fill="midnightblue" stroke="midnightblue" points="232.49,-136.17 222.82,-131.83 227.68,-141.25 232.49,-136.17"/>
</g>
<!-- Node12 -->
<g id="node12" class="node">
<title>Node12</title>
<g id="a_node12"><a xlink:href="conversions_8h.html" target="_top" xlink:title="General functions for converting to and from char arrays.">
<polygon fill="white" stroke="black" points="301.5,-112.5 301.5,-131.5 385.5,-131.5 385.5,-112.5 301.5,-112.5"/>
<text text-anchor="middle" x="343.5" y="-119.5" font-family="Helvetica,sans-Serif" font-size="10.00">conversions.h</text>
</a>
</g>
</g>
<!-- Node11&#45;&gt;Node12 -->
<g id="edge14" class="edge">
<title>Node11&#45;&gt;Node12</title>
<path fill="none" stroke="midnightblue" d="M282.23,-168.32C293.34,-160.11 310.24,-147.6 323.48,-137.81"/>
<polygon fill="midnightblue" stroke="midnightblue" points="325.6,-140.59 331.56,-131.83 321.44,-134.97 325.6,-140.59"/>
</g>
<!-- Node12&#45;&gt;Node3 -->
<g id="edge15" class="edge">
<title>Node12&#45;&gt;Node3</title>
<path fill="none" stroke="midnightblue" d="M327.43,-112.32C311.54,-103.74 286.99,-90.49 268.54,-80.52"/>
<polygon fill="midnightblue" stroke="midnightblue" points="269.99,-77.33 259.53,-75.65 266.66,-83.49 269.99,-77.33"/>
</g>
</g>
</svg>
