<?xml version="1.0" encoding="UTF-8" standalone="no"?>
<!DOCTYPE svg PUBLIC "-//W3C//DTD SVG 1.1//EN"
 "http://www.w3.org/Graphics/SVG/1.1/DTD/svg11.dtd">
<!-- Generated by graphviz version 2.43.0 (0)
 -->
<!-- Title: ESP32BaseStation/src/devices.h Pages: 1 -->
<svg width="682pt" height="307pt"
 viewBox="0.00 0.00 682.00 307.00" xmlns="http://www.w3.org/2000/svg" xmlns:xlink="http://www.w3.org/1999/xlink">
<g id="graph0" class="graph" transform="scale(1 1) rotate(0) translate(4 303)">
<title>ESP32BaseStation/src/devices.h</title>
<polygon fill="white" stroke="transparent" points="-4,4 -4,-303 678,-303 678,4 -4,4"/>
<!-- Node1 -->
<g id="node1" class="node">
<title>Node1</title>
<g id="a_node1"><a xlink:title="Devices and manager for all known devices the base station connects to.">
<polygon fill="#bfbfbf" stroke="black" points="247,-268.5 247,-298.5 369,-298.5 369,-268.5 247,-268.5"/>
<text text-anchor="start" x="255" y="-286.5" font-family="Helvetica,sans-Serif" font-size="10.00">ESP32BaseStation/src</text>
<text text-anchor="middle" x="308" y="-275.5" font-family="Helvetica,sans-Serif" font-size="10.00">/devices.h</text>
</a>
</g>
</g>
<!-- Node2 -->
<g id="node2" class="node">
<title>Node2</title>
<g id="a_node2"><a xlink:href="device__list_8h.html" target="_top" xlink:title="List of all devices and fields known to the system.">
<polygon fill="white" stroke="black" points="0,-134.5 0,-164.5 140,-164.5 140,-134.5 0,-134.5"/>
<text text-anchor="start" x="8" y="-152.5" font-family="Helvetica,sans-Serif" font-size="10.00">ESP32BaseStation/device</text>
<text text-anchor="middle" x="70" y="-141.5" font-family="Helvetica,sans-Serif" font-size="10.00">_list.h</text>
</a>
</g>
</g>
<!-- Node1&#45;&gt;Node2 -->
<g id="edge1" class="edge">
<title>Node1&#45;&gt;Node2</title>
<path fill="none" stroke="midnightblue" d="M273.68,-263.47C225.31,-236.64 138.2,-188.32 95.29,-164.52"/>
<polygon fill="midnightblue" stroke="midnightblue" points="272.09,-266.58 282.53,-268.37 275.48,-260.46 272.09,-266.58"/>
</g>
<!-- Node4 -->
<g id="node4" class="node">
<title>Node4</title>
<g id="a_node4"><a xlink:href="devices_8cpp.html" target="_top" xlink:title="Devices and manager for all known devices the base station connects to.">
<polygon fill="white" stroke="black" points="552,-201.5 552,-231.5 674,-231.5 674,-201.5 552,-201.5"/>
<text text-anchor="start" x="560" y="-219.5" font-family="Helvetica,sans-Serif" font-size="10.00">ESP32BaseStation/src</text>
<text text-anchor="middle" x="613" y="-208.5" font-family="Helvetica,sans-Serif" font-size="10.00">/devices.cpp</text>
</a>
</g>
</g>
<!-- Node1&#45;&gt;Node4 -->
<g id="edge3" class="edge">
<title>Node1&#45;&gt;Node4</title>
<path fill="none" stroke="midnightblue" d="M379.24,-267.32C431.57,-256.17 501.93,-241.17 551.74,-230.55"/>
<polygon fill="midnightblue" stroke="midnightblue" points="378.41,-263.92 369.35,-269.42 379.86,-270.76 378.41,-263.92"/>
</g>
<!-- Node5 -->
<g id="node5" class="node">
<title>Node5</title>
<g id="a_node5"><a xlink:href="lora_8h.html" target="_top" xlink:title="File that handles the LoRa radio and PJON.">
<polygon fill="white" stroke="black" points="247,-201.5 247,-231.5 369,-231.5 369,-201.5 247,-201.5"/>
<text text-anchor="start" x="255" y="-219.5" font-family="Helvetica,sans-Serif" font-size="10.00">ESP32BaseStation/src</text>
<text text-anchor="middle" x="308" y="-208.5" font-family="Helvetica,sans-Serif" font-size="10.00">/lora.h</text>
</a>
</g>
</g>
<!-- Node1&#45;&gt;Node5 -->
<g id="edge4" class="edge">
<title>Node1&#45;&gt;Node5</title>
<path fill="none" stroke="midnightblue" d="M308,-258.11C308,-249.15 308,-239.32 308,-231.58"/>
<polygon fill="midnightblue" stroke="midnightblue" points="304.5,-258.4 308,-268.4 311.5,-258.4 304.5,-258.4"/>
</g>
<!-- Node7 -->
<g id="node7" class="node">
<title>Node7</title>
<g id="a_node7"><a xlink:href="networking_8h.html" target="_top" xlink:title="Header file for networking.cpp.">
<polygon fill="white" stroke="black" points="158,-134.5 158,-164.5 280,-164.5 280,-134.5 158,-134.5"/>
<text text-anchor="start" x="166" y="-152.5" font-family="Helvetica,sans-Serif" font-size="10.00">ESP32BaseStation/src</text>
<text text-anchor="middle" x="219" y="-141.5" font-family="Helvetica,sans-Serif" font-size="10.00">/networking.h</text>
</a>
</g>
</g>
<!-- Node1&#45;&gt;Node7 -->
<g id="edge15" class="edge">
<title>Node1&#45;&gt;Node7</title>
<path fill="none" stroke="midnightblue" d="M270.87,-262.94C258.75,-254.86 246.29,-244.45 238,-232 224.23,-211.32 220.38,-181.9 219.34,-164.65"/>
<polygon fill="midnightblue" stroke="midnightblue" points="269.24,-266.05 279.57,-268.4 272.97,-260.12 269.24,-266.05"/>
</g>
<!-- Node9 -->
<g id="node9" class="node">
<title>Node9</title>
<g id="a_node9"><a xlink:href="rpc_8h.html" target="_top" xlink:title="Handles RPC calls.">
<polygon fill="white" stroke="black" points="336,-67.5 336,-97.5 458,-97.5 458,-67.5 336,-67.5"/>
<text text-anchor="start" x="344" y="-85.5" font-family="Helvetica,sans-Serif" font-size="10.00">ESP32BaseStation/src</text>
<text text-anchor="middle" x="397" y="-74.5" font-family="Helvetica,sans-Serif" font-size="10.00">/rpc.h</text>
</a>
</g>
</g>
<!-- Node1&#45;&gt;Node9 -->
<g id="edge16" class="edge">
<title>Node1&#45;&gt;Node9</title>
<path fill="none" stroke="midnightblue" d="M367.65,-264.93C414.23,-247.7 475.81,-216.4 505,-165 511.8,-153.02 512.4,-145.62 505,-134 493.94,-116.62 475.17,-105.13 456.34,-97.56"/>
<polygon fill="midnightblue" stroke="midnightblue" points="366.19,-261.73 357.95,-268.39 368.54,-268.32 366.19,-261.73"/>
</g>
<!-- Node3 -->
<g id="node3" class="node">
<title>Node3</title>
<g id="a_node3"><a xlink:href="_e_s_p32_base_station_8ino.html" target="_top" xlink:title="Main file for a base station to connect to remote sensors on a farm.">
<polygon fill="white" stroke="black" points="183,-0.5 183,-30.5 345,-30.5 345,-0.5 183,-0.5"/>
<text text-anchor="start" x="191" y="-18.5" font-family="Helvetica,sans-Serif" font-size="10.00">ESP32BaseStation/ESP32Base</text>
<text text-anchor="middle" x="264" y="-7.5" font-family="Helvetica,sans-Serif" font-size="10.00">Station.ino</text>
</a>
</g>
</g>
<!-- Node2&#45;&gt;Node3 -->
<g id="edge2" class="edge">
<title>Node2&#45;&gt;Node3</title>
<path fill="none" stroke="midnightblue" d="M74.66,-124.45C79.37,-106.3 88.4,-82.04 105,-67 126.46,-47.55 155.42,-35.59 182.74,-28.23"/>
<polygon fill="midnightblue" stroke="midnightblue" points="71.22,-123.78 72.36,-134.31 78.04,-125.36 71.22,-123.78"/>
</g>
<!-- Node5&#45;&gt;Node3 -->
<g id="edge5" class="edge">
<title>Node5&#45;&gt;Node3</title>
<path fill="none" stroke="midnightblue" d="M302.64,-191.27C293.36,-149.29 274.57,-64.33 267.14,-30.68"/>
<polygon fill="midnightblue" stroke="midnightblue" points="299.26,-192.18 304.84,-201.19 306.09,-190.67 299.26,-192.18"/>
</g>
<!-- Node6 -->
<g id="node6" class="node">
<title>Node6</title>
<g id="a_node6"><a xlink:href="lora_8cpp.html" target="_top" xlink:title="File that handles the LoRa radio and PJON.">
<polygon fill="white" stroke="black" points="374,-134.5 374,-164.5 496,-164.5 496,-134.5 374,-134.5"/>
<text text-anchor="start" x="382" y="-152.5" font-family="Helvetica,sans-Serif" font-size="10.00">ESP32BaseStation/src</text>
<text text-anchor="middle" x="435" y="-141.5" font-family="Helvetica,sans-Serif" font-size="10.00">/lora.cpp</text>
</a>
</g>
</g>
<!-- Node5&#45;&gt;Node6 -->
<g id="edge6" class="edge">
<title>Node5&#45;&gt;Node6</title>
<path fill="none" stroke="midnightblue" d="M344.7,-196.71C364.73,-186.46 389.12,-173.98 407.5,-164.58"/>
<polygon fill="midnightblue" stroke="midnightblue" points="342.86,-193.72 335.56,-201.4 346.05,-199.96 342.86,-193.72"/>
</g>
<!-- Node5&#45;&gt;Node7 -->
<g id="edge7" class="edge">
<title>Node5&#45;&gt;Node7</title>
<path fill="none" stroke="midnightblue" d="M274.67,-195.73C260.09,-185.68 243.87,-173.68 232.6,-164.58"/>
<polygon fill="midnightblue" stroke="midnightblue" points="272.77,-198.68 283.01,-201.4 276.7,-192.88 272.77,-198.68"/>
</g>
<!-- Node7&#45;&gt;Node3 -->
<g id="edge8" class="edge">
<title>Node7&#45;&gt;Node3</title>
<path fill="none" stroke="midnightblue" d="M232.37,-125.47C236.86,-117.04 241.59,-107.28 245,-98 253.42,-75.09 258.97,-47.15 261.79,-30.65"/>
<polygon fill="midnightblue" stroke="midnightblue" points="229.25,-123.9 227.49,-134.34 235.38,-127.27 229.25,-123.9"/>
</g>
<!-- Node7&#45;&gt;Node5 -->
<g id="edge9" class="edge">
<title>Node7&#45;&gt;Node5</title>
<path fill="none" stroke="midnightblue" d="M252.29,-170.24C266.86,-180.29 283.08,-192.28 294.37,-201.4"/>
<polygon fill="midnightblue" stroke="midnightblue" points="254.19,-167.3 243.95,-164.58 250.26,-173.09 254.19,-167.3"/>
</g>
<!-- Node8 -->
<g id="node8" class="node">
<title>Node8</title>
<g id="a_node8"><a xlink:href="networking_8cpp.html" target="_top" xlink:title="File that handles connecting to WiFi and MQTT and staying connected.">
<polygon fill="white" stroke="black" points="114,-67.5 114,-97.5 236,-97.5 236,-67.5 114,-67.5"/>
<text text-anchor="start" x="122" y="-85.5" font-family="Helvetica,sans-Serif" font-size="10.00">ESP32BaseStation/src</text>
<text text-anchor="middle" x="175" y="-74.5" font-family="Helvetica,sans-Serif" font-size="10.00">/networking.cpp</text>
</a>
</g>
</g>
<!-- Node7&#45;&gt;Node8 -->
<g id="edge10" class="edge">
<title>Node7&#45;&gt;Node8</title>
<path fill="none" stroke="midnightblue" d="M203.68,-125.87C197.31,-116.46 190.12,-105.83 184.53,-97.58"/>
<polygon fill="midnightblue" stroke="midnightblue" points="200.95,-128.08 209.45,-134.4 206.75,-124.15 200.95,-128.08"/>
</g>
<!-- Node7&#45;&gt;Node9 -->
<g id="edge11" class="edge">
<title>Node7&#45;&gt;Node9</title>
<path fill="none" stroke="midnightblue" d="M267.05,-130.96C295.72,-120.48 331.64,-107.37 358.45,-97.58"/>
<polygon fill="midnightblue" stroke="midnightblue" points="265.82,-127.68 257.62,-134.4 268.22,-134.25 265.82,-127.68"/>
</g>
<!-- Node9&#45;&gt;Node3 -->
<g id="edge12" class="edge">
<title>Node9&#45;&gt;Node3</title>
<path fill="none" stroke="midnightblue" d="M359.13,-62.99C338.05,-52.69 312.22,-40.07 292.8,-30.58"/>
<polygon fill="midnightblue" stroke="midnightblue" points="357.62,-66.15 368.14,-67.4 360.69,-59.86 357.62,-66.15"/>
</g>
<!-- Node9&#45;&gt;Node5 -->
<g id="edge13" class="edge">
<title>Node9&#45;&gt;Node5</title>
<path fill="none" stroke="midnightblue" d="M381.8,-106.04C363.38,-133.36 332.91,-178.55 317.52,-201.37"/>
<polygon fill="midnightblue" stroke="midnightblue" points="384.86,-107.77 387.54,-97.52 379.05,-103.86 384.86,-107.77"/>
</g>
<!-- Node10 -->
<g id="node10" class="node">
<title>Node10</title>
<g id="a_node10"><a xlink:href="rpc_8cpp.html" target="_top" xlink:title="Handles RPC calls.">
<polygon fill="white" stroke="black" points="363,-0.5 363,-30.5 485,-30.5 485,-0.5 363,-0.5"/>
<text text-anchor="start" x="371" y="-18.5" font-family="Helvetica,sans-Serif" font-size="10.00">ESP32BaseStation/src</text>
<text text-anchor="middle" x="424" y="-7.5" font-family="Helvetica,sans-Serif" font-size="10.00">/rpc.cpp</text>
</a>
</g>
</g>
<!-- Node9&#45;&gt;Node10 -->
<g id="edge14" class="edge">
<title>Node9&#45;&gt;Node10</title>
<path fill="none" stroke="midnightblue" d="M406.77,-57.99C410.58,-48.8 414.83,-38.58 418.15,-30.58"/>
<polygon fill="midnightblue" stroke="midnightblue" points="403.46,-56.82 402.86,-67.4 409.93,-59.5 403.46,-56.82"/>
</g>
</g>
</svg>
