<?xml version="1.0" encoding="UTF-8" standalone="no"?>
<!DOCTYPE svg PUBLIC "-//W3C//DTD SVG 1.1//EN"
 "http://www.w3.org/Graphics/SVG/1.1/DTD/svg11.dtd">
<!-- Generated by graphviz version 2.43.0 (0)
 -->
<!-- Title: BaseStationCode/src/src/devices.cpp Pages: 1 -->
<svg width="565pt" height="313pt"
 viewBox="0.00 0.00 564.50 313.00" xmlns="http://www.w3.org/2000/svg" xmlns:xlink="http://www.w3.org/1999/xlink">
<g id="graph0" class="graph" transform="scale(1 1) rotate(0) translate(4 309)">
<title>BaseStationCode/src/src/devices.cpp</title>
<!-- Node1 -->
<g id="Node000001" class="node">
<title>Node1</title>
<g id="a_Node000001"><a xlink:title="Devices and manager for all known devices the base station connects to.">
<polygon fill="#999999" stroke="#666666" points="272,-305 155,-305 155,-275 272,-275 272,-305"/>
<text text-anchor="start" x="163" y="-293" font-family="Helvetica,sans-Serif" font-size="10.00">BaseStationCode/src</text>
<text text-anchor="middle" x="213.5" y="-282" font-family="Helvetica,sans-Serif" font-size="10.00">/src/devices.cpp</text>
</a>
</g>
</g>
<!-- Node2 -->
<g id="Node000002" class="node">
<title>Node2</title>
<g id="a_Node000002"><a xlink:href="devices_8h.html" target="_top" xlink:title="Devices and manager for all known devices the base station connects to.">
<polygon fill="white" stroke="#666666" points="245,-239 182,-239 182,-220 245,-220 245,-239"/>
<text text-anchor="middle" x="213.5" y="-227" font-family="Helvetica,sans-Serif" font-size="10.00">devices.h</text>
</a>
</g>
</g>
<!-- Node1&#45;&gt;Node2 -->
<g id="edge1_Node000001_Node000002" class="edge">
<title>Node1&#45;&gt;Node2</title>
<g id="a_edge1_Node000001_Node000002"><a xlink:title=" ">
<path fill="none" stroke="#63b8ff" d="M213.5,-274.84C213.5,-267.21 213.5,-257.7 213.5,-249.45"/>
<polygon fill="#63b8ff" stroke="#63b8ff" points="217,-249.27 213.5,-239.27 210,-249.27 217,-249.27"/>
</a>
</g>
</g>
<!-- Node3 -->
<g id="Node000003" class="node">
<title>Node3</title>
<g id="a_Node000003"><a xlink:href="defines_8h.html" target="_top" xlink:title="Definitions and other preprocessor and global stuff.">
<polygon fill="white" stroke="#666666" points="278.5,-74 208.5,-74 208.5,-55 278.5,-55 278.5,-74"/>
<text text-anchor="middle" x="243.5" y="-62" font-family="Helvetica,sans-Serif" font-size="10.00">../defines.h</text>
</a>
</g>
</g>
<!-- Node2&#45;&gt;Node3 -->
<g id="edge2_Node000002_Node000003" class="edge">
<title>Node2&#45;&gt;Node3</title>
<g id="a_edge2_Node000002_Node000003"><a xlink:title=" ">
<path fill="none" stroke="#63b8ff" d="M205.7,-219.74C188.67,-199.5 151.31,-148.28 172.5,-110 180.34,-95.83 194.79,-85.57 208.61,-78.5"/>
<polygon fill="#63b8ff" stroke="#63b8ff" points="210.42,-81.52 217.99,-74.1 207.45,-75.18 210.42,-81.52"/>
</a>
</g>
</g>
<!-- Node10 -->
<g id="Node000010" class="node">
<title>Node10</title>
<g id="a_Node000010"><a xlink:href="lookups_8h.html" target="_top" xlink:title="Lookupable and lookupable manager base classes.">
<polygon fill="white" stroke="#666666" points="245,-129 182,-129 182,-110 245,-110 245,-129"/>
<text text-anchor="middle" x="213.5" y="-117" font-family="Helvetica,sans-Serif" font-size="10.00">lookups.h</text>
</a>
</g>
</g>
<!-- Node2&#45;&gt;Node10 -->
<g id="edge9_Node000002_Node000010" class="edge">
<title>Node2&#45;&gt;Node10</title>
<g id="a_edge9_Node000002_Node000010"><a xlink:title=" ">
<path fill="none" stroke="#63b8ff" d="M213.5,-219.66C213.5,-202.17 213.5,-162.8 213.5,-139.27"/>
<polygon fill="#63b8ff" stroke="#63b8ff" points="217,-139.16 213.5,-129.16 210,-139.16 217,-139.16"/>
</a>
</g>
</g>
<!-- Node11 -->
<g id="Node000011" class="node">
<title>Node11</title>
<g id="a_Node000011"><a xlink:href="fields_8h.html" target="_top" xlink:title="Contains fields classes.">
<polygon fill="white" stroke="#666666" points="296.5,-184 244.5,-184 244.5,-165 296.5,-165 296.5,-184"/>
<text text-anchor="middle" x="270.5" y="-172" font-family="Helvetica,sans-Serif" font-size="10.00">fields.h</text>
</a>
</g>
</g>
<!-- Node2&#45;&gt;Node11 -->
<g id="edge11_Node000002_Node000011" class="edge">
<title>Node2&#45;&gt;Node11</title>
<g id="a_edge11_Node000002_Node000011"><a xlink:title=" ">
<path fill="none" stroke="#63b8ff" d="M222.66,-219.98C231,-212.23 243.53,-200.58 253.68,-191.14"/>
<polygon fill="#63b8ff" stroke="#63b8ff" points="256.24,-193.54 261.18,-184.17 251.47,-188.42 256.24,-193.54"/>
</a>
</g>
</g>
<!-- Node4 -->
<g id="Node000004" class="node">
<title>Node4</title>
<g id="a_Node000004"><a xlink:title=" ">
<polygon fill="#e0e0e0" stroke="#999999" points="63,-19 0,-19 0,0 63,0 63,-19"/>
<text text-anchor="middle" x="31.5" y="-7" font-family="Helvetica,sans-Serif" font-size="10.00">Arduino.h</text>
</a>
</g>
</g>
<!-- Node3&#45;&gt;Node4 -->
<g id="edge3_Node000003_Node000004" class="edge">
<title>Node3&#45;&gt;Node4</title>
<g id="a_edge3_Node000003_Node000004"><a xlink:title=" ">
<path fill="none" stroke="#63b8ff" d="M209.44,-54.98C172.29,-45.7 112.83,-30.83 72.98,-20.87"/>
<polygon fill="#63b8ff" stroke="#63b8ff" points="73.6,-17.42 63.05,-18.39 71.91,-24.21 73.6,-17.42"/>
</a>
</g>
</g>
<!-- Node5 -->
<g id="Node000005" class="node">
<title>Node5</title>
<g id="a_Node000005"><a xlink:title=" ">
<polygon fill="#e0e0e0" stroke="#999999" points="128,-19 81,-19 81,0 128,0 128,-19"/>
<text text-anchor="middle" x="104.5" y="-7" font-family="Helvetica,sans-Serif" font-size="10.00">WiFi.h</text>
</a>
</g>
</g>
<!-- Node3&#45;&gt;Node5 -->
<g id="edge4_Node000003_Node000005" class="edge">
<title>Node3&#45;&gt;Node5</title>
<g id="a_edge4_Node000003_Node000005"><a xlink:title=" ">
<path fill="none" stroke="#63b8ff" d="M221.17,-54.98C198.3,-46.27 162.54,-32.63 136.64,-22.75"/>
<polygon fill="#63b8ff" stroke="#63b8ff" points="137.83,-19.46 127.24,-19.17 135.34,-26 137.83,-19.46"/>
</a>
</g>
</g>
<!-- Node6 -->
<g id="Node000006" class="node">
<title>Node6</title>
<g id="a_Node000006"><a xlink:title=" ">
<polygon fill="#e0e0e0" stroke="#999999" points="236.5,-19 146.5,-19 146.5,0 236.5,0 236.5,-19"/>
<text text-anchor="middle" x="191.5" y="-7" font-family="Helvetica,sans-Serif" font-size="10.00">PubSubClient.h</text>
</a>
</g>
</g>
<!-- Node3&#45;&gt;Node6 -->
<g id="edge5_Node000003_Node000006" class="edge">
<title>Node3&#45;&gt;Node6</title>
<g id="a_edge5_Node000003_Node000006"><a xlink:title=" ">
<path fill="none" stroke="#63b8ff" d="M234.91,-54.75C227.34,-47.03 216.12,-35.6 206.99,-26.28"/>
<polygon fill="#63b8ff" stroke="#63b8ff" points="209.43,-23.78 199.93,-19.09 204.43,-28.68 209.43,-23.78"/>
</a>
</g>
</g>
<!-- Node7 -->
<g id="Node000007" class="node">
<title>Node7</title>
<g id="a_Node000007"><a xlink:title=" ">
<polygon fill="#e0e0e0" stroke="#999999" points="338,-19 255,-19 255,0 338,0 338,-19"/>
<text text-anchor="middle" x="296.5" y="-7" font-family="Helvetica,sans-Serif" font-size="10.00">ArduinoJson.h</text>
</a>
</g>
</g>
<!-- Node3&#45;&gt;Node7 -->
<g id="edge6_Node000003_Node000007" class="edge">
<title>Node3&#45;&gt;Node7</title>
<g id="a_edge6_Node000003_Node000007"><a xlink:title=" ">
<path fill="none" stroke="#63b8ff" d="M252.25,-54.75C259.97,-47.03 271.4,-35.6 280.72,-26.28"/>
<polygon fill="#63b8ff" stroke="#63b8ff" points="283.31,-28.64 287.91,-19.09 278.36,-23.69 283.31,-28.64"/>
</a>
</g>
</g>
<!-- Node8 -->
<g id="Node000008" class="node">
<title>Node8</title>
<g id="a_Node000008"><a xlink:title=" ">
<polygon fill="#e0e0e0" stroke="#999999" points="466.5,-19 356.5,-19 356.5,0 466.5,0 466.5,-19"/>
<text text-anchor="middle" x="411.5" y="-7" font-family="Helvetica,sans-Serif" font-size="10.00">PJONThroughLora.h</text>
</a>
</g>
</g>
<!-- Node3&#45;&gt;Node8 -->
<g id="edge7_Node000003_Node000008" class="edge">
<title>Node3&#45;&gt;Node8</title>
<g id="a_edge7_Node000003_Node000008"><a xlink:title=" ">
<path fill="none" stroke="#63b8ff" d="M270.49,-54.98C298.7,-46.09 343.14,-32.07 374.58,-22.15"/>
<polygon fill="#63b8ff" stroke="#63b8ff" points="375.81,-25.43 384.3,-19.08 373.71,-18.75 375.81,-25.43"/>
</a>
</g>
</g>
<!-- Node9 -->
<g id="Node000009" class="node">
<title>Node9</title>
<g id="a_Node000009"><a xlink:href="topics_8h.html" target="_top" xlink:title="MQTT topics for a thingsboard gateway.">
<polygon fill="white" stroke="#666666" points="556.5,-19 484.5,-19 484.5,0 556.5,0 556.5,-19"/>
<text text-anchor="middle" x="520.5" y="-7" font-family="Helvetica,sans-Serif" font-size="10.00">src/topics.h</text>
</a>
</g>
</g>
<!-- Node3&#45;&gt;Node9 -->
<g id="edge8_Node000003_Node000009" class="edge">
<title>Node3&#45;&gt;Node9</title>
<g id="a_edge8_Node000003_Node000009"><a xlink:title=" ">
<path fill="none" stroke="#63b8ff" d="M278.58,-56.79C328.33,-47.27 419.44,-29.84 474.54,-19.29"/>
<polygon fill="#63b8ff" stroke="#63b8ff" points="475.22,-22.73 484.39,-17.41 473.91,-15.85 475.22,-22.73"/>
</a>
</g>
</g>
<!-- Node10&#45;&gt;Node3 -->
<g id="edge10_Node000010_Node000003" class="edge">
<title>Node10&#45;&gt;Node3</title>
<g id="a_edge10_Node000010_Node000003"><a xlink:title=" ">
<path fill="none" stroke="#63b8ff" d="M218.45,-109.75C222.56,-102.49 228.53,-91.95 233.6,-82.98"/>
<polygon fill="#63b8ff" stroke="#63b8ff" points="236.76,-84.52 238.64,-74.09 230.67,-81.07 236.76,-84.52"/>
</a>
</g>
</g>
<!-- Node11&#45;&gt;Node3 -->
<g id="edge12_Node000011_Node000003" class="edge">
<title>Node11&#45;&gt;Node3</title>
<g id="a_edge12_Node000011_Node000003"><a xlink:title=" ">
<path fill="none" stroke="#63b8ff" d="M268.29,-164.66C263.9,-147.09 253.99,-107.45 248.11,-83.95"/>
<polygon fill="#63b8ff" stroke="#63b8ff" points="251.49,-83.01 245.66,-74.16 244.69,-84.71 251.49,-83.01"/>
</a>
</g>
</g>
<!-- Node11&#45;&gt;Node10 -->
<g id="edge13_Node000011_Node000010" class="edge">
<title>Node11&#45;&gt;Node10</title>
<g id="a_edge13_Node000011_Node000010"><a xlink:title=" ">
<path fill="none" stroke="#63b8ff" d="M261.34,-164.98C253,-157.23 240.47,-145.58 230.32,-136.14"/>
<polygon fill="#63b8ff" stroke="#63b8ff" points="232.53,-133.42 222.82,-129.17 227.76,-138.54 232.53,-133.42"/>
</a>
</g>
</g>
<!-- Node12 -->
<g id="Node000012" class="node">
<title>Node12</title>
<g id="a_Node000012"><a xlink:href="conversions_8h.html" target="_top" xlink:title="General functions for converting to and from char arrays.">
<polygon fill="white" stroke="#666666" points="385.5,-129 301.5,-129 301.5,-110 385.5,-110 385.5,-129"/>
<text text-anchor="middle" x="343.5" y="-117" font-family="Helvetica,sans-Serif" font-size="10.00">conversions.h</text>
</a>
</g>
</g>
<!-- Node11&#45;&gt;Node12 -->
<g id="edge14_Node000011_Node000012" class="edge">
<title>Node11&#45;&gt;Node12</title>
<g id="a_edge14_Node000011_Node000012"><a xlink:title=" ">
<path fill="none" stroke="#63b8ff" d="M282.23,-164.98C293.23,-157 309.92,-144.88 323.1,-135.31"/>
<polygon fill="#63b8ff" stroke="#63b8ff" points="325.52,-137.88 331.56,-129.17 321.41,-132.21 325.52,-137.88"/>
</a>
</g>
</g>
<!-- Node12&#45;&gt;Node3 -->
<g id="edge15_Node000012_Node000003" class="edge">
<title>Node12&#45;&gt;Node3</title>
<g id="a_edge15_Node000012_Node000003"><a xlink:title=" ">
<path fill="none" stroke="#63b8ff" d="M327.43,-109.98C311.64,-101.61 287.28,-88.7 268.87,-78.95"/>
<polygon fill="#63b8ff" stroke="#63b8ff" points="270.33,-75.76 259.86,-74.17 267.06,-81.95 270.33,-75.76"/>
</a>
</g>
</g>
</g>
</svg>
