<?xml version="1.0" encoding="UTF-8" standalone="no"?>
<!DOCTYPE svg PUBLIC "-//W3C//DTD SVG 1.1//EN"
 "http://www.w3.org/Graphics/SVG/1.1/DTD/svg11.dtd">
<!-- Generated by graphviz version 2.43.0 (0)
 -->
<!-- Title: ESP32BaseStation/src/devices.h Pages: 1 -->
<svg width="880pt" height="307pt"
 viewBox="0.00 0.00 880.00 307.00" xmlns="http://www.w3.org/2000/svg" xmlns:xlink="http://www.w3.org/1999/xlink">
<g id="graph0" class="graph" transform="scale(1 1) rotate(0) translate(4 303)">
<title>ESP32BaseStation/src/devices.h</title>
<polygon fill="white" stroke="transparent" points="-4,4 -4,-303 876,-303 876,4 -4,4"/>
<!-- Node1 -->
<g id="node1" class="node">
<title>Node1</title>
<g id="a_node1"><a xlink:title="Devices and manager for all known devices the base station connects to.">
<polygon fill="#bfbfbf" stroke="black" points="400,-268.5 400,-298.5 522,-298.5 522,-268.5 400,-268.5"/>
<text text-anchor="start" x="408" y="-286.5" font-family="Helvetica,sans-Serif" font-size="10.00">ESP32BaseStation/src</text>
<text text-anchor="middle" x="461" y="-275.5" font-family="Helvetica,sans-Serif" font-size="10.00">/devices.h</text>
</a>
</g>
</g>
<!-- Node2 -->
<g id="node2" class="node">
<title>Node2</title>
<g id="a_node2"><a xlink:href="device__list_8h.html" target="_top" xlink:title="List of all devices and fields known to the system.">
<polygon fill="white" stroke="black" points="171,-134.5 171,-164.5 311,-164.5 311,-134.5 171,-134.5"/>
<text text-anchor="start" x="179" y="-152.5" font-family="Helvetica,sans-Serif" font-size="10.00">ESP32BaseStation/device</text>
<text text-anchor="middle" x="241" y="-141.5" font-family="Helvetica,sans-Serif" font-size="10.00">_list.h</text>
</a>
</g>
</g>
<!-- Node1&#45;&gt;Node2 -->
<g id="edge1" class="edge">
<title>Node1&#45;&gt;Node2</title>
<path fill="none" stroke="midnightblue" d="M428.72,-263.13C383.89,-236.24 303.87,-188.22 264.37,-164.52"/>
<polygon fill="midnightblue" stroke="midnightblue" points="427.08,-266.23 437.46,-268.37 430.68,-260.23 427.08,-266.23"/>
</g>
<!-- Node4 -->
<g id="node4" class="node">
<title>Node4</title>
<g id="a_node4"><a xlink:href="devices_8cpp.html" target="_top" xlink:title="Devices and manager for all known devices the base station connects to.">
<polygon fill="white" stroke="black" points="750,-201.5 750,-231.5 872,-231.5 872,-201.5 750,-201.5"/>
<text text-anchor="start" x="758" y="-219.5" font-family="Helvetica,sans-Serif" font-size="10.00">ESP32BaseStation/src</text>
<text text-anchor="middle" x="811" y="-208.5" font-family="Helvetica,sans-Serif" font-size="10.00">/devices.cpp</text>
</a>
</g>
</g>
<!-- Node1&#45;&gt;Node4 -->
<g id="edge3" class="edge">
<title>Node1&#45;&gt;Node4</title>
<path fill="none" stroke="midnightblue" d="M532.28,-269.6C587.82,-259.5 666.84,-245.03 736,-232 740.43,-231.16 745.01,-230.3 749.61,-229.42"/>
<polygon fill="midnightblue" stroke="midnightblue" points="531.41,-266.2 522.2,-271.43 532.66,-273.09 531.41,-266.2"/>
</g>
<!-- Node5 -->
<g id="node5" class="node">
<title>Node5</title>
<g id="a_node5"><a xlink:href="leds_8h.html" target="_top" xlink:title="Controls the LEDs on the unit.">
<polygon fill="white" stroke="black" points="0,-67.5 0,-97.5 122,-97.5 122,-67.5 0,-67.5"/>
<text text-anchor="start" x="8" y="-85.5" font-family="Helvetica,sans-Serif" font-size="10.00">ESP32BaseStation/src</text>
<text text-anchor="middle" x="61" y="-74.5" font-family="Helvetica,sans-Serif" font-size="10.00">/leds.h</text>
</a>
</g>
</g>
<!-- Node1&#45;&gt;Node5 -->
<g id="edge4" class="edge">
<title>Node1&#45;&gt;Node5</title>
<path fill="none" stroke="midnightblue" d="M402.35,-265.49C340.2,-246.11 240.39,-211.07 162,-165 128.59,-145.37 94.48,-115.32 75.69,-97.72"/>
<polygon fill="midnightblue" stroke="midnightblue" points="401.41,-268.86 412,-268.47 403.47,-262.17 401.41,-268.86"/>
</g>
<!-- Node7 -->
<g id="node7" class="node">
<title>Node7</title>
<g id="a_node7"><a xlink:href="lora_8h.html" target="_top" xlink:title="File that handles the LoRa radio and PJON.">
<polygon fill="white" stroke="black" points="445,-201.5 445,-231.5 567,-231.5 567,-201.5 445,-201.5"/>
<text text-anchor="start" x="453" y="-219.5" font-family="Helvetica,sans-Serif" font-size="10.00">ESP32BaseStation/src</text>
<text text-anchor="middle" x="506" y="-208.5" font-family="Helvetica,sans-Serif" font-size="10.00">/lora.h</text>
</a>
</g>
</g>
<!-- Node1&#45;&gt;Node7 -->
<g id="edge7" class="edge">
<title>Node1&#45;&gt;Node7</title>
<path fill="none" stroke="midnightblue" d="M476.47,-260.16C483.03,-250.68 490.48,-239.92 496.25,-231.58"/>
<polygon fill="midnightblue" stroke="midnightblue" points="473.58,-258.18 470.76,-268.4 479.33,-262.17 473.58,-258.18"/>
</g>
<!-- Node9 -->
<g id="node9" class="node">
<title>Node9</title>
<g id="a_node9"><a xlink:href="networking_8h.html" target="_top" xlink:title="Header file for networking.cpp.">
<polygon fill="white" stroke="black" points="356,-134.5 356,-164.5 478,-164.5 478,-134.5 356,-134.5"/>
<text text-anchor="start" x="364" y="-152.5" font-family="Helvetica,sans-Serif" font-size="10.00">ESP32BaseStation/src</text>
<text text-anchor="middle" x="417" y="-141.5" font-family="Helvetica,sans-Serif" font-size="10.00">/networking.h</text>
</a>
</g>
</g>
<!-- Node1&#45;&gt;Node9 -->
<g id="edge22" class="edge">
<title>Node1&#45;&gt;Node9</title>
<path fill="none" stroke="midnightblue" d="M448.18,-259.42C443.86,-250.98 439.31,-241.23 436,-232 427.76,-209.02 422.15,-181.11 419.27,-164.63"/>
<polygon fill="midnightblue" stroke="midnightblue" points="445.1,-261.09 452.87,-268.3 451.29,-257.83 445.1,-261.09"/>
</g>
<!-- Node13 -->
<g id="node13" class="node">
<title>Node13</title>
<g id="a_node13"><a xlink:href="rpc_8h.html" target="_top" xlink:title="Handles RPC calls.">
<polygon fill="white" stroke="black" points="534,-67.5 534,-97.5 656,-97.5 656,-67.5 534,-67.5"/>
<text text-anchor="start" x="542" y="-85.5" font-family="Helvetica,sans-Serif" font-size="10.00">ESP32BaseStation/src</text>
<text text-anchor="middle" x="595" y="-74.5" font-family="Helvetica,sans-Serif" font-size="10.00">/rpc.h</text>
</a>
</g>
</g>
<!-- Node1&#45;&gt;Node13 -->
<g id="edge23" class="edge">
<title>Node1&#45;&gt;Node13</title>
<path fill="none" stroke="midnightblue" d="M531.88,-269.76C589.4,-255.24 666.69,-225.21 703,-165 710.12,-153.2 710.4,-145.62 703,-134 691.94,-116.62 673.17,-105.13 654.34,-97.56"/>
<polygon fill="midnightblue" stroke="midnightblue" points="531,-266.37 522.11,-272.13 532.65,-273.18 531,-266.37"/>
</g>
<!-- Node3 -->
<g id="node3" class="node">
<title>Node3</title>
<g id="a_node3"><a xlink:href="_e_s_p32_base_station_8ino.html" target="_top" xlink:title="Main file for a base station to connect to remote sensors on a farm.">
<polygon fill="white" stroke="black" points="230,-0.5 230,-30.5 392,-30.5 392,-0.5 230,-0.5"/>
<text text-anchor="start" x="238" y="-18.5" font-family="Helvetica,sans-Serif" font-size="10.00">ESP32BaseStation/ESP32Base</text>
<text text-anchor="middle" x="311" y="-7.5" font-family="Helvetica,sans-Serif" font-size="10.00">Station.ino</text>
</a>
</g>
</g>
<!-- Node2&#45;&gt;Node3 -->
<g id="edge2" class="edge">
<title>Node2&#45;&gt;Node3</title>
<path fill="none" stroke="midnightblue" d="M199.61,-129.16C187.52,-121.3 175.75,-110.97 169,-98 162.64,-85.78 161.06,-78.26 169,-67 183.26,-46.8 206.34,-34.63 229.79,-27.32"/>
<polygon fill="midnightblue" stroke="midnightblue" points="198.04,-132.29 208.41,-134.44 201.64,-126.29 198.04,-132.29"/>
</g>
<!-- Node5&#45;&gt;Node3 -->
<g id="edge5" class="edge">
<title>Node5&#45;&gt;Node3</title>
<path fill="none" stroke="midnightblue" d="M124.78,-64.92C165.58,-54.31 217.93,-40.7 256.73,-30.61"/>
<polygon fill="midnightblue" stroke="midnightblue" points="123.74,-61.57 114.94,-67.48 125.5,-68.35 123.74,-61.57"/>
</g>
<!-- Node6 -->
<g id="node6" class="node">
<title>Node6</title>
<g id="a_node6"><a xlink:href="leds_8cpp.html" target="_top" xlink:title="Controls the LEDs on the unit.">
<polygon fill="white" stroke="black" points="0,-0.5 0,-30.5 122,-30.5 122,-0.5 0,-0.5"/>
<text text-anchor="start" x="8" y="-18.5" font-family="Helvetica,sans-Serif" font-size="10.00">ESP32BaseStation/src</text>
<text text-anchor="middle" x="61" y="-7.5" font-family="Helvetica,sans-Serif" font-size="10.00">/leds.cpp</text>
</a>
</g>
</g>
<!-- Node5&#45;&gt;Node6 -->
<g id="edge6" class="edge">
<title>Node5&#45;&gt;Node6</title>
<path fill="none" stroke="midnightblue" d="M61,-57.11C61,-48.15 61,-38.32 61,-30.58"/>
<polygon fill="midnightblue" stroke="midnightblue" points="57.5,-57.4 61,-67.4 64.5,-57.4 57.5,-57.4"/>
</g>
<!-- Node7&#45;&gt;Node3 -->
<g id="edge8" class="edge">
<title>Node7&#45;&gt;Node3</title>
<path fill="none" stroke="midnightblue" d="M510.32,-191.28C514.6,-158.95 516.81,-101.73 487,-67 473.96,-51.8 431.12,-39.33 390.97,-30.59"/>
<polygon fill="midnightblue" stroke="midnightblue" points="506.85,-190.81 508.83,-201.22 513.77,-191.85 506.85,-190.81"/>
</g>
<!-- Node8 -->
<g id="node8" class="node">
<title>Node8</title>
<g id="a_node8"><a xlink:href="lora_8cpp.html" target="_top" xlink:title="File that handles the LoRa radio and PJON.">
<polygon fill="white" stroke="black" points="572,-134.5 572,-164.5 694,-164.5 694,-134.5 572,-134.5"/>
<text text-anchor="start" x="580" y="-152.5" font-family="Helvetica,sans-Serif" font-size="10.00">ESP32BaseStation/src</text>
<text text-anchor="middle" x="633" y="-141.5" font-family="Helvetica,sans-Serif" font-size="10.00">/lora.cpp</text>
</a>
</g>
</g>
<!-- Node7&#45;&gt;Node8 -->
<g id="edge9" class="edge">
<title>Node7&#45;&gt;Node8</title>
<path fill="none" stroke="midnightblue" d="M542.7,-196.71C562.73,-186.46 587.12,-173.98 605.5,-164.58"/>
<polygon fill="midnightblue" stroke="midnightblue" points="540.86,-193.72 533.56,-201.4 544.05,-199.96 540.86,-193.72"/>
</g>
<!-- Node7&#45;&gt;Node9 -->
<g id="edge10" class="edge">
<title>Node7&#45;&gt;Node9</title>
<path fill="none" stroke="midnightblue" d="M472.67,-195.73C458.09,-185.68 441.87,-173.68 430.6,-164.58"/>
<polygon fill="midnightblue" stroke="midnightblue" points="470.77,-198.68 481.01,-201.4 474.7,-192.88 470.77,-198.68"/>
</g>
<!-- Node9&#45;&gt;Node3 -->
<g id="edge11" class="edge">
<title>Node9&#45;&gt;Node3</title>
<path fill="none" stroke="midnightblue" d="M382.29,-128.8C369.95,-120.51 356.72,-109.99 347,-98 330.35,-77.45 319.88,-47.99 314.76,-30.69"/>
<polygon fill="midnightblue" stroke="midnightblue" points="380.75,-131.97 391.06,-134.43 384.53,-126.08 380.75,-131.97"/>
</g>
<!-- Node9&#45;&gt;Node5 -->
<g id="edge12" class="edge">
<title>Node9&#45;&gt;Node5</title>
<path fill="none" stroke="midnightblue" d="M345.57,-135.46C280.15,-123.51 184.32,-106.02 122.29,-94.69"/>
<polygon fill="midnightblue" stroke="midnightblue" points="345.34,-138.97 355.8,-137.33 346.59,-132.09 345.34,-138.97"/>
</g>
<!-- Node9&#45;&gt;Node7 -->
<g id="edge13" class="edge">
<title>Node9&#45;&gt;Node7</title>
<path fill="none" stroke="midnightblue" d="M450.29,-170.24C464.86,-180.29 481.08,-192.28 492.37,-201.4"/>
<polygon fill="midnightblue" stroke="midnightblue" points="452.19,-167.3 441.95,-164.58 448.26,-173.09 452.19,-167.3"/>
</g>
<!-- Node10 -->
<g id="node10" class="node">
<title>Node10</title>
<g id="a_node10"><a xlink:href="networking_8cpp.html" target="_top" xlink:title="File that handles connecting to WiFi and MQTT and staying connected.">
<polygon fill="white" stroke="black" points="178,-67.5 178,-97.5 300,-97.5 300,-67.5 178,-67.5"/>
<text text-anchor="start" x="186" y="-85.5" font-family="Helvetica,sans-Serif" font-size="10.00">ESP32BaseStation/src</text>
<text text-anchor="middle" x="239" y="-74.5" font-family="Helvetica,sans-Serif" font-size="10.00">/networking.cpp</text>
</a>
</g>
</g>
<!-- Node9&#45;&gt;Node10 -->
<g id="edge14" class="edge">
<title>Node9&#45;&gt;Node10</title>
<path fill="none" stroke="midnightblue" d="M368.95,-130.96C340.28,-120.48 304.36,-107.37 277.55,-97.58"/>
<polygon fill="midnightblue" stroke="midnightblue" points="367.78,-134.25 378.38,-134.4 370.18,-127.68 367.78,-134.25"/>
</g>
<!-- Node11 -->
<g id="node11" class="node">
<title>Node11</title>
<g id="a_node11"><a xlink:href="ota_8h.html" target="_top" xlink:title="Handles over the air (OTA) updates.">
<polygon fill="white" stroke="black" points="356,-67.5 356,-97.5 478,-97.5 478,-67.5 356,-67.5"/>
<text text-anchor="start" x="364" y="-85.5" font-family="Helvetica,sans-Serif" font-size="10.00">ESP32BaseStation/src</text>
<text text-anchor="middle" x="417" y="-74.5" font-family="Helvetica,sans-Serif" font-size="10.00">/ota.h</text>
</a>
</g>
</g>
<!-- Node9&#45;&gt;Node11 -->
<g id="edge15" class="edge">
<title>Node9&#45;&gt;Node11</title>
<path fill="none" stroke="midnightblue" d="M417,-124.11C417,-115.15 417,-105.32 417,-97.58"/>
<polygon fill="midnightblue" stroke="midnightblue" points="413.5,-124.4 417,-134.4 420.5,-124.4 413.5,-124.4"/>
</g>
<!-- Node9&#45;&gt;Node13 -->
<g id="edge18" class="edge">
<title>Node9&#45;&gt;Node13</title>
<path fill="none" stroke="midnightblue" d="M465.05,-130.96C493.72,-120.48 529.64,-107.37 556.45,-97.58"/>
<polygon fill="midnightblue" stroke="midnightblue" points="463.82,-127.68 455.62,-134.4 466.22,-134.25 463.82,-127.68"/>
</g>
<!-- Node11&#45;&gt;Node3 -->
<g id="edge16" class="edge">
<title>Node11&#45;&gt;Node3</title>
<path fill="none" stroke="midnightblue" d="M385.22,-62.02C368.73,-51.9 348.95,-39.77 333.96,-30.58"/>
<polygon fill="midnightblue" stroke="midnightblue" points="383.65,-65.15 394,-67.4 387.3,-59.18 383.65,-65.15"/>
</g>
<!-- Node12 -->
<g id="node12" class="node">
<title>Node12</title>
<g id="a_node12"><a xlink:href="ota_8cpp.html" target="_top" xlink:title="Handles over the air (OTA) updates.">
<polygon fill="white" stroke="black" points="410,-0.5 410,-30.5 532,-30.5 532,-0.5 410,-0.5"/>
<text text-anchor="start" x="418" y="-18.5" font-family="Helvetica,sans-Serif" font-size="10.00">ESP32BaseStation/src</text>
<text text-anchor="middle" x="471" y="-7.5" font-family="Helvetica,sans-Serif" font-size="10.00">/ota.cpp</text>
</a>
</g>
</g>
<!-- Node11&#45;&gt;Node12 -->
<g id="edge17" class="edge">
<title>Node11&#45;&gt;Node12</title>
<path fill="none" stroke="midnightblue" d="M435.32,-59.45C443.25,-49.9 452.3,-39 459.31,-30.58"/>
<polygon fill="midnightblue" stroke="midnightblue" points="432.42,-57.47 428.72,-67.4 437.8,-61.94 432.42,-57.47"/>
</g>
<!-- Node13&#45;&gt;Node3 -->
<g id="edge19" class="edge">
<title>Node13&#45;&gt;Node3</title>
<path fill="none" stroke="midnightblue" d="M523.72,-65.19C477.21,-54.54 417.1,-40.78 372.65,-30.61"/>
<polygon fill="midnightblue" stroke="midnightblue" points="523.2,-68.66 533.73,-67.48 524.76,-61.83 523.2,-68.66"/>
</g>
<!-- Node13&#45;&gt;Node7 -->
<g id="edge20" class="edge">
<title>Node13&#45;&gt;Node7</title>
<path fill="none" stroke="midnightblue" d="M579.8,-106.04C561.38,-133.36 530.91,-178.55 515.52,-201.37"/>
<polygon fill="midnightblue" stroke="midnightblue" points="582.86,-107.77 585.54,-97.52 577.05,-103.86 582.86,-107.77"/>
</g>
<!-- Node14 -->
<g id="node14" class="node">
<title>Node14</title>
<g id="a_node14"><a xlink:href="rpc_8cpp.html" target="_top" xlink:title="Handles RPC calls.">
<polygon fill="white" stroke="black" points="550,-0.5 550,-30.5 672,-30.5 672,-0.5 550,-0.5"/>
<text text-anchor="start" x="558" y="-18.5" font-family="Helvetica,sans-Serif" font-size="10.00">ESP32BaseStation/src</text>
<text text-anchor="middle" x="611" y="-7.5" font-family="Helvetica,sans-Serif" font-size="10.00">/rpc.cpp</text>
</a>
</g>
</g>
<!-- Node13&#45;&gt;Node14 -->
<g id="edge21" class="edge">
<title>Node13&#45;&gt;Node14</title>
<path fill="none" stroke="midnightblue" d="M600.93,-57.4C603.16,-48.37 605.61,-38.41 607.54,-30.58"/>
<polygon fill="midnightblue" stroke="midnightblue" points="597.46,-56.85 598.47,-67.4 604.26,-58.52 597.46,-56.85"/>
</g>
</g>
</svg>
