<?xml version="1.0" encoding="UTF-8" standalone="no"?>
<!DOCTYPE svg PUBLIC "-//W3C//DTD SVG 1.1//EN"
 "http://www.w3.org/Graphics/SVG/1.1/DTD/svg11.dtd">
<!-- Generated by graphviz version 2.43.0 (0)
 -->
<!-- Title: BaseStationCode/src/src/devices.h Pages: 1 -->
<svg width="598pt" height="263pt"
 viewBox="0.00 0.00 598.00 263.00" xmlns="http://www.w3.org/2000/svg" xmlns:xlink="http://www.w3.org/1999/xlink">
<g id="graph0" class="graph" transform="scale(1 1) rotate(0) translate(4 259)">
<title>BaseStationCode/src/src/devices.h</title>
<polygon fill="white" stroke="transparent" points="-4,4 -4,-259 594,-259 594,4 -4,4"/>
<!-- Node1 -->
<g id="node1" class="node">
<title>Node1</title>
<g id="a_node1"><a xlink:title="Devices and manager for all known devices the base station connects to.">
<polygon fill="#bfbfbf" stroke="black" points="188.5,-224.5 188.5,-254.5 305.5,-254.5 305.5,-224.5 188.5,-224.5"/>
<text text-anchor="start" x="196.5" y="-242.5" font-family="Helvetica,sans-Serif" font-size="10.00">BaseStationCode/src</text>
<text text-anchor="middle" x="247" y="-231.5" font-family="Helvetica,sans-Serif" font-size="10.00">/src/devices.h</text>
</a>
</g>
</g>
<!-- Node2 -->
<g id="node2" class="node">
<title>Node2</title>
<g id="a_node2"><a xlink:href="defines_8h.html" target="_top" xlink:title="Definitions and other preprocessor and global stuff.">
<polygon fill="white" stroke="black" points="242,-56.5 242,-75.5 312,-75.5 312,-56.5 242,-56.5"/>
<text text-anchor="middle" x="277" y="-63.5" font-family="Helvetica,sans-Serif" font-size="10.00">../defines.h</text>
</a>
</g>
</g>
<!-- Node1&#45;&gt;Node2 -->
<g id="edge1" class="edge">
<title>Node1&#45;&gt;Node2</title>
<path fill="none" stroke="midnightblue" d="M235.13,-224.13C216.66,-199.89 185.19,-149.83 206,-112 213.89,-97.66 228.49,-87.25 242.4,-80.08"/>
<polygon fill="midnightblue" stroke="midnightblue" points="244.29,-83.06 251.84,-75.62 241.3,-76.73 244.29,-83.06"/>
</g>
<!-- Node9 -->
<g id="node9" class="node">
<title>Node9</title>
<g id="a_node9"><a xlink:href="lookups_8h.html" target="_top" xlink:title="Lookupable and lookupable manager base classes.">
<polygon fill="white" stroke="black" points="215.5,-112.5 215.5,-131.5 278.5,-131.5 278.5,-112.5 215.5,-112.5"/>
<text text-anchor="middle" x="247" y="-119.5" font-family="Helvetica,sans-Serif" font-size="10.00">lookups.h</text>
</a>
</g>
</g>
<!-- Node1&#45;&gt;Node9 -->
<g id="edge8" class="edge">
<title>Node1&#45;&gt;Node9</title>
<path fill="none" stroke="midnightblue" d="M247,-224.34C247,-203.62 247,-165.02 247,-141.9"/>
<polygon fill="midnightblue" stroke="midnightblue" points="250.5,-141.67 247,-131.67 243.5,-141.67 250.5,-141.67"/>
</g>
<!-- Node10 -->
<g id="node10" class="node">
<title>Node10</title>
<g id="a_node10"><a xlink:href="fields_8h.html" target="_top" xlink:title="Contains fields classes.">
<polygon fill="white" stroke="black" points="278,-168.5 278,-187.5 330,-187.5 330,-168.5 278,-168.5"/>
<text text-anchor="middle" x="304" y="-175.5" font-family="Helvetica,sans-Serif" font-size="10.00">fields.h</text>
</a>
</g>
</g>
<!-- Node1&#45;&gt;Node10 -->
<g id="edge10" class="edge">
<title>Node1&#45;&gt;Node10</title>
<path fill="none" stroke="midnightblue" d="M260.51,-224.4C268.96,-215.58 279.88,-204.18 288.66,-195.02"/>
<polygon fill="midnightblue" stroke="midnightblue" points="291.32,-197.3 295.71,-187.66 286.26,-192.46 291.32,-197.3"/>
</g>
<!-- Node3 -->
<g id="node3" class="node">
<title>Node3</title>
<g id="a_node3"><a xlink:title=" ">
<polygon fill="white" stroke="#bfbfbf" points="0,-0.5 0,-19.5 80,-19.5 80,-0.5 0,-0.5"/>
<text text-anchor="middle" x="40" y="-7.5" font-family="Helvetica,sans-Serif" font-size="10.00">credentials.h</text>
</a>
</g>
</g>
<!-- Node2&#45;&gt;Node3 -->
<g id="edge2" class="edge">
<title>Node2&#45;&gt;Node3</title>
<path fill="none" stroke="midnightblue" d="M241.77,-56.97C200.78,-47.63 132.88,-32.16 87.31,-21.78"/>
<polygon fill="midnightblue" stroke="midnightblue" points="87.9,-18.33 77.38,-19.52 86.35,-25.15 87.9,-18.33"/>
</g>
<!-- Node4 -->
<g id="node4" class="node">
<title>Node4</title>
<g id="a_node4"><a xlink:title=" ">
<polygon fill="white" stroke="#bfbfbf" points="98.5,-0.5 98.5,-19.5 161.5,-19.5 161.5,-0.5 98.5,-0.5"/>
<text text-anchor="middle" x="130" y="-7.5" font-family="Helvetica,sans-Serif" font-size="10.00">Arduino.h</text>
</a>
</g>
</g>
<!-- Node2&#45;&gt;Node4 -->
<g id="edge3" class="edge">
<title>Node2&#45;&gt;Node4</title>
<path fill="none" stroke="midnightblue" d="M253.71,-56.44C229.19,-47.44 190.4,-33.19 162.8,-23.05"/>
<polygon fill="midnightblue" stroke="midnightblue" points="163.78,-19.68 153.18,-19.52 161.36,-26.25 163.78,-19.68"/>
</g>
<!-- Node5 -->
<g id="node5" class="node">
<title>Node5</title>
<g id="a_node5"><a xlink:title=" ">
<polygon fill="white" stroke="#bfbfbf" points="180,-0.5 180,-19.5 270,-19.5 270,-0.5 180,-0.5"/>
<text text-anchor="middle" x="225" y="-7.5" font-family="Helvetica,sans-Serif" font-size="10.00">PubSubClient.h</text>
</a>
</g>
</g>
<!-- Node2&#45;&gt;Node5 -->
<g id="edge4" class="edge">
<title>Node2&#45;&gt;Node5</title>
<path fill="none" stroke="midnightblue" d="M268.41,-56.08C260.84,-48.22 249.62,-36.57 240.49,-27.08"/>
<polygon fill="midnightblue" stroke="midnightblue" points="242.88,-24.53 233.43,-19.75 237.84,-29.38 242.88,-24.53"/>
</g>
<!-- Node6 -->
<g id="node6" class="node">
<title>Node6</title>
<g id="a_node6"><a xlink:title=" ">
<polygon fill="white" stroke="#bfbfbf" points="288.5,-0.5 288.5,-19.5 371.5,-19.5 371.5,-0.5 288.5,-0.5"/>
<text text-anchor="middle" x="330" y="-7.5" font-family="Helvetica,sans-Serif" font-size="10.00">ArduinoJson.h</text>
</a>
</g>
</g>
<!-- Node2&#45;&gt;Node6 -->
<g id="edge5" class="edge">
<title>Node2&#45;&gt;Node6</title>
<path fill="none" stroke="midnightblue" d="M285.75,-56.08C293.47,-48.22 304.9,-36.57 314.22,-27.08"/>
<polygon fill="midnightblue" stroke="midnightblue" points="316.9,-29.34 321.41,-19.75 311.91,-24.44 316.9,-29.34"/>
</g>
<!-- Node7 -->
<g id="node7" class="node">
<title>Node7</title>
<g id="a_node7"><a xlink:title=" ">
<polygon fill="white" stroke="#bfbfbf" points="390,-0.5 390,-19.5 500,-19.5 500,-0.5 390,-0.5"/>
<text text-anchor="middle" x="445" y="-7.5" font-family="Helvetica,sans-Serif" font-size="10.00">PJONThroughLora.h</text>
</a>
</g>
</g>
<!-- Node2&#45;&gt;Node7 -->
<g id="edge6" class="edge">
<title>Node2&#45;&gt;Node7</title>
<path fill="none" stroke="midnightblue" d="M303.62,-56.44C332.01,-47.32 377.14,-32.81 408.75,-22.65"/>
<polygon fill="midnightblue" stroke="midnightblue" points="410.06,-25.91 418.5,-19.52 407.91,-19.24 410.06,-25.91"/>
</g>
<!-- Node8 -->
<g id="node8" class="node">
<title>Node8</title>
<g id="a_node8"><a xlink:href="topics_8h.html" target="_top" xlink:title="MQTT topics for a thingsboard gateway.">
<polygon fill="white" stroke="black" points="518,-0.5 518,-19.5 590,-19.5 590,-0.5 518,-0.5"/>
<text text-anchor="middle" x="554" y="-7.5" font-family="Helvetica,sans-Serif" font-size="10.00">src/topics.h</text>
</a>
</g>
</g>
<!-- Node2&#45;&gt;Node8 -->
<g id="edge7" class="edge">
<title>Node2&#45;&gt;Node8</title>
<path fill="none" stroke="midnightblue" d="M312.39,-58.2C355.94,-49.82 432.42,-35.06 507.55,-20.28"/>
<polygon fill="midnightblue" stroke="midnightblue" points="508.52,-23.65 517.65,-18.29 507.17,-16.79 508.52,-23.65"/>
</g>
<!-- Node9&#45;&gt;Node2 -->
<g id="edge9" class="edge">
<title>Node9&#45;&gt;Node2</title>
<path fill="none" stroke="midnightblue" d="M251.95,-112.08C256.1,-104.61 262.15,-93.72 267.27,-84.52"/>
<polygon fill="midnightblue" stroke="midnightblue" points="270.34,-86.19 272.14,-75.75 264.22,-82.79 270.34,-86.19"/>
</g>
<!-- Node10&#45;&gt;Node2 -->
<g id="edge11" class="edge">
<title>Node10&#45;&gt;Node2</title>
<path fill="none" stroke="midnightblue" d="M301.88,-168.37C297.52,-150.62 287.47,-109.67 281.56,-85.6"/>
<polygon fill="midnightblue" stroke="midnightblue" points="284.89,-84.47 279.11,-75.59 278.09,-86.14 284.89,-84.47"/>
</g>
<!-- Node10&#45;&gt;Node9 -->
<g id="edge12" class="edge">
<title>Node10&#45;&gt;Node9</title>
<path fill="none" stroke="midnightblue" d="M294.84,-168.32C286.5,-160.42 273.97,-148.55 263.82,-138.94"/>
<polygon fill="midnightblue" stroke="midnightblue" points="265.99,-136.17 256.32,-131.83 261.18,-141.25 265.99,-136.17"/>
</g>
<!-- Node11 -->
<g id="node11" class="node">
<title>Node11</title>
<g id="a_node11"><a xlink:href="conversions_8h.html" target="_top" xlink:title="General functions for converting to and from char arrays.">
<polygon fill="white" stroke="black" points="335,-112.5 335,-131.5 419,-131.5 419,-112.5 335,-112.5"/>
<text text-anchor="middle" x="377" y="-119.5" font-family="Helvetica,sans-Serif" font-size="10.00">conversions.h</text>
</a>
</g>
</g>
<!-- Node10&#45;&gt;Node11 -->
<g id="edge13" class="edge">
<title>Node10&#45;&gt;Node11</title>
<path fill="none" stroke="midnightblue" d="M315.73,-168.32C326.84,-160.11 343.74,-147.6 356.98,-137.81"/>
<polygon fill="midnightblue" stroke="midnightblue" points="359.1,-140.59 365.06,-131.83 354.94,-134.97 359.1,-140.59"/>
</g>
<!-- Node11&#45;&gt;Node2 -->
<g id="edge14" class="edge">
<title>Node11&#45;&gt;Node2</title>
<path fill="none" stroke="midnightblue" d="M360.93,-112.32C345.04,-103.74 320.49,-90.49 302.04,-80.52"/>
<polygon fill="midnightblue" stroke="midnightblue" points="303.49,-77.33 293.03,-75.65 300.16,-83.49 303.49,-77.33"/>
</g>
</g>
</svg>
