<?xml version="1.0" encoding="UTF-8" standalone="no"?>
<!DOCTYPE svg PUBLIC "-//W3C//DTD SVG 1.1//EN"
 "http://www.w3.org/Graphics/SVG/1.1/DTD/svg11.dtd">
<!-- Generated by graphviz version 2.43.0 (0)
 -->
<!-- Title: BaseStationCode/src/src/devices.h Pages: 1 -->
<svg width="721pt" height="307pt"
 viewBox="0.00 0.00 721.00 307.00" xmlns="http://www.w3.org/2000/svg" xmlns:xlink="http://www.w3.org/1999/xlink">
<g id="graph0" class="graph" transform="scale(1 1) rotate(0) translate(4 303)">
<title>BaseStationCode/src/src/devices.h</title>
<polygon fill="white" stroke="transparent" points="-4,4 -4,-303 717,-303 717,4 -4,4"/>
<!-- Node1 -->
<g id="node1" class="node">
<title>Node1</title>
<g id="a_node1"><a xlink:title="Devices and manager for all known devices the base station connects to.">
<polygon fill="#bfbfbf" stroke="black" points="247,-268.5 247,-298.5 364,-298.5 364,-268.5 247,-268.5"/>
<text text-anchor="start" x="255" y="-286.5" font-family="Helvetica,sans-Serif" font-size="10.00">BaseStationCode/src</text>
<text text-anchor="middle" x="305.5" y="-275.5" font-family="Helvetica,sans-Serif" font-size="10.00">/src/devices.h</text>
</a>
</g>
</g>
<!-- Node2 -->
<g id="node2" class="node">
<title>Node2</title>
<g id="a_node2"><a xlink:href="device__list_8h.html" target="_top" xlink:title="List of all devices and fields known to the system.">
<polygon fill="white" stroke="black" points="0,-134.5 0,-164.5 117,-164.5 117,-134.5 0,-134.5"/>
<text text-anchor="start" x="8" y="-152.5" font-family="Helvetica,sans-Serif" font-size="10.00">BaseStationCode/src</text>
<text text-anchor="middle" x="58.5" y="-141.5" font-family="Helvetica,sans-Serif" font-size="10.00">/device_list.h</text>
</a>
</g>
</g>
<!-- Node1&#45;&gt;Node2 -->
<g id="edge1" class="edge">
<title>Node1&#45;&gt;Node2</title>
<path fill="none" stroke="midnightblue" d="M237.83,-265.59C211.22,-257.46 181,-246.32 155.5,-232 122.32,-213.37 89.69,-182.7 72.02,-164.77"/>
<polygon fill="midnightblue" stroke="midnightblue" points="236.88,-268.96 247.46,-268.45 238.87,-262.25 236.88,-268.96"/>
</g>
<!-- Node4 -->
<g id="node4" class="node">
<title>Node4</title>
<g id="a_node4"><a xlink:href="devices_8cpp.html" target="_top" xlink:title="Devices and manager for all known devices the base station connects to.">
<polygon fill="white" stroke="black" points="596,-201.5 596,-231.5 713,-231.5 713,-201.5 596,-201.5"/>
<text text-anchor="start" x="604" y="-219.5" font-family="Helvetica,sans-Serif" font-size="10.00">BaseStationCode/src</text>
<text text-anchor="middle" x="654.5" y="-208.5" font-family="Helvetica,sans-Serif" font-size="10.00">/src/devices.cpp</text>
</a>
</g>
</g>
<!-- Node1&#45;&gt;Node4 -->
<g id="edge3" class="edge">
<title>Node1&#45;&gt;Node4</title>
<path fill="none" stroke="midnightblue" d="M374.37,-270.2C430.24,-260.14 511,-245.45 581.5,-232 586.2,-231.1 591.06,-230.16 595.94,-229.21"/>
<polygon fill="midnightblue" stroke="midnightblue" points="373.46,-266.8 364.23,-272.02 374.7,-273.69 373.46,-266.8"/>
</g>
<!-- Node5 -->
<g id="node5" class="node">
<title>Node5</title>
<g id="a_node5"><a xlink:href="leds_8h.html" target="_top" xlink:title="Controls the LEDs on the unit.">
<polygon fill="white" stroke="black" points="74,-67.5 74,-97.5 191,-97.5 191,-67.5 74,-67.5"/>
<text text-anchor="start" x="82" y="-85.5" font-family="Helvetica,sans-Serif" font-size="10.00">BaseStationCode/src</text>
<text text-anchor="middle" x="132.5" y="-74.5" font-family="Helvetica,sans-Serif" font-size="10.00">/src/leds.h</text>
</a>
</g>
</g>
<!-- Node1&#45;&gt;Node5 -->
<g id="edge4" class="edge">
<title>Node1&#45;&gt;Node5</title>
<path fill="none" stroke="midnightblue" d="M286.48,-260.62C250.78,-219.56 174.64,-131.97 144.83,-97.68"/>
<polygon fill="midnightblue" stroke="midnightblue" points="283.86,-262.94 293.06,-268.19 289.14,-258.35 283.86,-262.94"/>
</g>
<!-- Node7 -->
<g id="node7" class="node">
<title>Node7</title>
<g id="a_node7"><a xlink:href="lora_8h.html" target="_top" xlink:title="File that handles the LoRa radio and PJON.">
<polygon fill="white" stroke="black" points="291,-201.5 291,-231.5 408,-231.5 408,-201.5 291,-201.5"/>
<text text-anchor="start" x="299" y="-219.5" font-family="Helvetica,sans-Serif" font-size="10.00">BaseStationCode/src</text>
<text text-anchor="middle" x="349.5" y="-208.5" font-family="Helvetica,sans-Serif" font-size="10.00">/src/lora.h</text>
</a>
</g>
</g>
<!-- Node1&#45;&gt;Node7 -->
<g id="edge7" class="edge">
<title>Node1&#45;&gt;Node7</title>
<path fill="none" stroke="midnightblue" d="M320.82,-259.87C327.19,-250.46 334.38,-239.83 339.97,-231.58"/>
<polygon fill="midnightblue" stroke="midnightblue" points="317.75,-258.15 315.05,-268.4 323.55,-262.08 317.75,-258.15"/>
</g>
<!-- Node9 -->
<g id="node9" class="node">
<title>Node9</title>
<g id="a_node9"><a xlink:href="networking_8h.html" target="_top" xlink:title="Header file for networking.cpp.">
<polygon fill="white" stroke="black" points="248,-134.5 248,-164.5 365,-164.5 365,-134.5 248,-134.5"/>
<text text-anchor="start" x="256" y="-152.5" font-family="Helvetica,sans-Serif" font-size="10.00">BaseStationCode/src</text>
<text text-anchor="middle" x="306.5" y="-141.5" font-family="Helvetica,sans-Serif" font-size="10.00">/src/networking.h</text>
</a>
</g>
</g>
<!-- Node1&#45;&gt;Node9 -->
<g id="edge23" class="edge">
<title>Node1&#45;&gt;Node9</title>
<path fill="none" stroke="midnightblue" d="M291.72,-259.08C287.58,-250.81 283.59,-241.26 281.5,-232 278.47,-218.56 278.36,-214.42 281.5,-201 284.53,-188.05 291.4,-174.6 297.17,-164.85"/>
<polygon fill="midnightblue" stroke="midnightblue" points="288.74,-260.93 296.54,-268.1 294.92,-257.63 288.74,-260.93"/>
</g>
<!-- Node13 -->
<g id="node13" class="node">
<title>Node13</title>
<g id="a_node13"><a xlink:href="rpc_8h.html" target="_top" xlink:title="Handles RPC calls.">
<polygon fill="white" stroke="black" points="460,-67.5 460,-97.5 577,-97.5 577,-67.5 460,-67.5"/>
<text text-anchor="start" x="468" y="-85.5" font-family="Helvetica,sans-Serif" font-size="10.00">BaseStationCode/src</text>
<text text-anchor="middle" x="518.5" y="-74.5" font-family="Helvetica,sans-Serif" font-size="10.00">/src/rpc.h</text>
</a>
</g>
</g>
<!-- Node1&#45;&gt;Node13 -->
<g id="edge24" class="edge">
<title>Node1&#45;&gt;Node13</title>
<path fill="none" stroke="midnightblue" d="M374.02,-270.32C431.86,-256.01 511.07,-225.97 548.5,-165 561.91,-143.16 544.28,-114.38 530.92,-97.52"/>
<polygon fill="midnightblue" stroke="midnightblue" points="373.13,-266.94 364.21,-272.65 374.74,-273.75 373.13,-266.94"/>
</g>
<!-- Node3 -->
<g id="node3" class="node">
<title>Node3</title>
<g id="a_node3"><a xlink:href="main_8cpp.html" target="_top" xlink:title=" ">
<polygon fill="white" stroke="black" points="161,-0.5 161,-30.5 278,-30.5 278,-0.5 161,-0.5"/>
<text text-anchor="start" x="169" y="-18.5" font-family="Helvetica,sans-Serif" font-size="10.00">BaseStationCode/src</text>
<text text-anchor="middle" x="219.5" y="-7.5" font-family="Helvetica,sans-Serif" font-size="10.00">/main.cpp</text>
</a>
</g>
</g>
<!-- Node2&#45;&gt;Node3 -->
<g id="edge2" class="edge">
<title>Node2&#45;&gt;Node3</title>
<path fill="none" stroke="midnightblue" d="M53.67,-124.31C51.58,-106.62 51.96,-83 64.5,-67 71.13,-58.53 124.53,-42.32 166.83,-30.54"/>
<polygon fill="midnightblue" stroke="midnightblue" points="50.25,-125.08 55.21,-134.45 57.17,-124.03 50.25,-125.08"/>
</g>
<!-- Node5&#45;&gt;Node3 -->
<g id="edge5" class="edge">
<title>Node5&#45;&gt;Node3</title>
<path fill="none" stroke="midnightblue" d="M159.71,-61.17C173.02,-51.23 188.7,-39.51 200.66,-30.58"/>
<polygon fill="midnightblue" stroke="midnightblue" points="157.29,-58.61 151.38,-67.4 161.48,-64.21 157.29,-58.61"/>
</g>
<!-- Node6 -->
<g id="node6" class="node">
<title>Node6</title>
<g id="a_node6"><a xlink:href="leds_8cpp.html" target="_top" xlink:title="Controls the LEDs on the unit.">
<polygon fill="white" stroke="black" points="26,-0.5 26,-30.5 143,-30.5 143,-0.5 26,-0.5"/>
<text text-anchor="start" x="34" y="-18.5" font-family="Helvetica,sans-Serif" font-size="10.00">BaseStationCode/src</text>
<text text-anchor="middle" x="84.5" y="-7.5" font-family="Helvetica,sans-Serif" font-size="10.00">/src/leds.cpp</text>
</a>
</g>
</g>
<!-- Node5&#45;&gt;Node6 -->
<g id="edge6" class="edge">
<title>Node5&#45;&gt;Node6</title>
<path fill="none" stroke="midnightblue" d="M116,-59.16C109,-49.68 101.06,-38.92 94.89,-30.58"/>
<polygon fill="midnightblue" stroke="midnightblue" points="113.33,-61.43 122.08,-67.4 118.96,-57.27 113.33,-61.43"/>
</g>
<!-- Node7&#45;&gt;Node3 -->
<g id="edge8" class="edge">
<title>Node7&#45;&gt;Node3</title>
<path fill="none" stroke="midnightblue" d="M281.3,-197.35C264.95,-189.88 249.16,-179.46 238.5,-165 208.41,-124.21 213.14,-59.4 217.1,-30.83"/>
<polygon fill="midnightblue" stroke="midnightblue" points="280.38,-200.76 290.95,-201.42 283.09,-194.31 280.38,-200.76"/>
</g>
<!-- Node8 -->
<g id="node8" class="node">
<title>Node8</title>
<g id="a_node8"><a xlink:href="lora_8cpp.html" target="_top" xlink:title="File that handles the LoRa radio and PJON.">
<polygon fill="white" stroke="black" points="422,-134.5 422,-164.5 539,-164.5 539,-134.5 422,-134.5"/>
<text text-anchor="start" x="430" y="-152.5" font-family="Helvetica,sans-Serif" font-size="10.00">BaseStationCode/src</text>
<text text-anchor="middle" x="480.5" y="-141.5" font-family="Helvetica,sans-Serif" font-size="10.00">/src/lora.cpp</text>
</a>
</g>
</g>
<!-- Node7&#45;&gt;Node8 -->
<g id="edge9" class="edge">
<title>Node7&#45;&gt;Node8</title>
<path fill="none" stroke="midnightblue" d="M387.08,-196.85C407.79,-186.58 433.09,-174.03 452.13,-164.58"/>
<polygon fill="midnightblue" stroke="midnightblue" points="385.33,-193.82 377.93,-201.4 388.44,-200.09 385.33,-193.82"/>
</g>
<!-- Node7&#45;&gt;Node9 -->
<g id="edge10" class="edge">
<title>Node7&#45;&gt;Node9</title>
<path fill="none" stroke="midnightblue" d="M328.27,-193.16C321.42,-183.68 314.56,-172.92 310.14,-164.58"/>
<polygon fill="midnightblue" stroke="midnightblue" points="325.67,-195.52 334.49,-201.4 331.26,-191.31 325.67,-195.52"/>
</g>
<!-- Node9&#45;&gt;Node3 -->
<g id="edge11" class="edge">
<title>Node9&#45;&gt;Node3</title>
<path fill="none" stroke="midnightblue" d="M291.56,-125.83C273.52,-98.47 243.74,-53.28 228.74,-30.52"/>
<polygon fill="midnightblue" stroke="midnightblue" points="288.76,-127.95 297.19,-134.37 294.61,-124.1 288.76,-127.95"/>
</g>
<!-- Node9&#45;&gt;Node5 -->
<g id="edge12" class="edge">
<title>Node9&#45;&gt;Node5</title>
<path fill="none" stroke="midnightblue" d="M259.17,-130.82C231.2,-120.37 196.27,-107.32 170.18,-97.58"/>
<polygon fill="midnightblue" stroke="midnightblue" points="258.15,-134.18 268.74,-134.4 260.6,-127.62 258.15,-134.18"/>
</g>
<!-- Node9&#45;&gt;Node7 -->
<g id="edge13" class="edge">
<title>Node9&#45;&gt;Node7</title>
<path fill="none" stroke="midnightblue" d="M327.71,-172.81C334.56,-182.29 341.42,-193.05 345.85,-201.4"/>
<polygon fill="midnightblue" stroke="midnightblue" points="330.31,-170.45 321.49,-164.58 324.72,-174.67 330.31,-170.45"/>
</g>
<!-- Node10 -->
<g id="node10" class="node">
<title>Node10</title>
<g id="a_node10"><a xlink:href="networking_8cpp.html" target="_top" xlink:title="File that handles connecting to WiFi and MQTT and staying connected.">
<polygon fill="white" stroke="black" points="431,-0.5 431,-30.5 548,-30.5 548,-0.5 431,-0.5"/>
<text text-anchor="start" x="439" y="-18.5" font-family="Helvetica,sans-Serif" font-size="10.00">BaseStationCode/src</text>
<text text-anchor="middle" x="489.5" y="-7.5" font-family="Helvetica,sans-Serif" font-size="10.00">/src/networking.cpp</text>
</a>
</g>
</g>
<!-- Node9&#45;&gt;Node10 -->
<g id="edge14" class="edge">
<title>Node9&#45;&gt;Node10</title>
<path fill="none" stroke="midnightblue" d="M353.14,-130.4C372.11,-121.96 393.71,-110.91 411.5,-98 438.76,-78.21 464.6,-48.22 478.62,-30.67"/>
<polygon fill="midnightblue" stroke="midnightblue" points="351.56,-127.26 343.78,-134.45 354.35,-133.69 351.56,-127.26"/>
</g>
<!-- Node11 -->
<g id="node11" class="node">
<title>Node11</title>
<g id="a_node11"><a xlink:href="ota_8h.html" target="_top" xlink:title="Handles over the air (OTA) updates.">
<polygon fill="white" stroke="black" points="286,-67.5 286,-97.5 403,-97.5 403,-67.5 286,-67.5"/>
<text text-anchor="start" x="294" y="-85.5" font-family="Helvetica,sans-Serif" font-size="10.00">BaseStationCode/src</text>
<text text-anchor="middle" x="344.5" y="-74.5" font-family="Helvetica,sans-Serif" font-size="10.00">/src/ota.h</text>
</a>
</g>
</g>
<!-- Node9&#45;&gt;Node11 -->
<g id="edge15" class="edge">
<title>Node9&#45;&gt;Node11</title>
<path fill="none" stroke="midnightblue" d="M319.9,-125.58C325.36,-116.24 331.49,-105.75 336.27,-97.58"/>
<polygon fill="midnightblue" stroke="midnightblue" points="316.77,-124 314.75,-134.4 322.81,-127.53 316.77,-124"/>
</g>
<!-- Node9&#45;&gt;Node13 -->
<g id="edge18" class="edge">
<title>Node9&#45;&gt;Node13</title>
<path fill="none" stroke="midnightblue" d="M362.13,-131.44C396.49,-120.91 440.06,-107.55 472.48,-97.61"/>
<polygon fill="midnightblue" stroke="midnightblue" points="360.77,-128.2 352.24,-134.48 362.83,-134.89 360.77,-128.2"/>
</g>
<!-- Node11&#45;&gt;Node3 -->
<g id="edge16" class="edge">
<title>Node11&#45;&gt;Node3</title>
<path fill="none" stroke="midnightblue" d="M308.37,-62.71C288.66,-52.46 264.66,-39.98 246.57,-30.58"/>
<polygon fill="midnightblue" stroke="midnightblue" points="306.89,-65.89 317.38,-67.4 310.12,-59.68 306.89,-65.89"/>
</g>
<!-- Node12 -->
<g id="node12" class="node">
<title>Node12</title>
<g id="a_node12"><a xlink:href="ota_8cpp.html" target="_top" xlink:title="Handles over the air (OTA) updates.">
<polygon fill="white" stroke="black" points="296,-0.5 296,-30.5 413,-30.5 413,-0.5 296,-0.5"/>
<text text-anchor="start" x="304" y="-18.5" font-family="Helvetica,sans-Serif" font-size="10.00">BaseStationCode/src</text>
<text text-anchor="middle" x="354.5" y="-7.5" font-family="Helvetica,sans-Serif" font-size="10.00">/src/ota.cpp</text>
</a>
</g>
</g>
<!-- Node11&#45;&gt;Node12 -->
<g id="edge17" class="edge">
<title>Node11&#45;&gt;Node12</title>
<path fill="none" stroke="midnightblue" d="M348.21,-57.4C349.6,-48.37 351.13,-38.41 352.33,-30.58"/>
<polygon fill="midnightblue" stroke="midnightblue" points="344.73,-56.98 346.67,-67.4 351.65,-58.04 344.73,-56.98"/>
</g>
<!-- Node13&#45;&gt;Node3 -->
<g id="edge19" class="edge">
<title>Node13&#45;&gt;Node3</title>
<path fill="none" stroke="midnightblue" d="M449.98,-66.61C398.04,-55.31 327.41,-39.96 278.08,-29.24"/>
<polygon fill="midnightblue" stroke="midnightblue" points="449.27,-70.03 459.78,-68.74 450.76,-63.19 449.27,-70.03"/>
</g>
<!-- Node13&#45;&gt;Node7 -->
<g id="edge20" class="edge">
<title>Node13&#45;&gt;Node7</title>
<path fill="none" stroke="midnightblue" d="M468.65,-101.51C449.91,-109.7 429.13,-120.59 412.5,-134 388.42,-153.42 368.11,-183.81 357.48,-201.48"/>
<polygon fill="midnightblue" stroke="midnightblue" points="470.09,-104.7 477.94,-97.59 467.37,-98.25 470.09,-104.7"/>
</g>
<!-- Node13&#45;&gt;Node10 -->
<g id="edge21" class="edge">
<title>Node13&#45;&gt;Node10</title>
<path fill="none" stroke="midnightblue" d="M508.01,-57.99C503.91,-48.8 499.35,-38.58 495.78,-30.58"/>
<polygon fill="midnightblue" stroke="midnightblue" points="504.94,-59.69 512.21,-67.4 511.33,-56.84 504.94,-59.69"/>
</g>
<!-- Node14 -->
<g id="node14" class="node">
<title>Node14</title>
<g id="a_node14"><a xlink:href="rpc_8cpp.html" target="_top" xlink:title="Handles RPC calls.">
<polygon fill="white" stroke="black" points="566,-0.5 566,-30.5 683,-30.5 683,-0.5 566,-0.5"/>
<text text-anchor="start" x="574" y="-18.5" font-family="Helvetica,sans-Serif" font-size="10.00">BaseStationCode/src</text>
<text text-anchor="middle" x="624.5" y="-7.5" font-family="Helvetica,sans-Serif" font-size="10.00">/src/rpc.cpp</text>
</a>
</g>
</g>
<!-- Node13&#45;&gt;Node14 -->
<g id="edge22" class="edge">
<title>Node13&#45;&gt;Node14</title>
<path fill="none" stroke="midnightblue" d="M550.28,-62.02C566.77,-51.9 586.55,-39.77 601.54,-30.58"/>
<polygon fill="midnightblue" stroke="midnightblue" points="548.2,-59.18 541.5,-67.4 551.85,-65.15 548.2,-59.18"/>
</g>
</g>
</svg>
