<?xml version="1.0" encoding="UTF-8" standalone="no"?>
<!DOCTYPE svg PUBLIC "-//W3C//DTD SVG 1.1//EN"
 "http://www.w3.org/Graphics/SVG/1.1/DTD/svg11.dtd">
<!-- Generated by graphviz version 2.43.0 (0)
 -->
<!-- Title: BaseStationCode/src Pages: 1 -->
<svg width="124pt" height="183pt"
 viewBox="0.00 0.00 124.00 183.00" xmlns="http://www.w3.org/2000/svg" xmlns:xlink="http://www.w3.org/1999/xlink">
<g id="graph0" class="graph" transform="scale(1 1) rotate(0) translate(4 179)">
<title>BaseStationCode/src</title>
<polygon fill="white" stroke="transparent" points="-4,4 -4,-179 120,-179 120,4 -4,4"/>
<g id="clust1" class="cluster">
<title>clusterdir_1bfa34a7fd069c322cf9c40181e548fc</title>
<g id="a_clust1"><a xlink:href="dir_1bfa34a7fd069c322cf9c40181e548fc.html" target="_top" xlink:title="BaseStationCode">
<polygon fill="#ddddee" stroke="black" points="8,-8 8,-167 108,-167 108,-8 8,-8"/>
<text text-anchor="middle" x="58" y="-155" font-family="Helvetica,sans-Serif" font-size="10.00">BaseStationCode</text>
</a>
</g>
</g>
<g id="clust2" class="cluster">
<title>clusterdir_f63607e1acfe1c55d01a2faf58f7911a</title>
<g id="a_clust2"><a xlink:href="dir_f63607e1acfe1c55d01a2faf58f7911a.html" target="_top">
<polygon fill="#eeeeff" stroke="black" points="23,-16 23,-140 93,-140 93,-16 23,-16"/>
</a>
</g>
</g>
<!-- dir_f63607e1acfe1c55d01a2faf58f7911a -->
<g id="node1" class="node">
<title>dir_f63607e1acfe1c55d01a2faf58f7911a</title>
<text text-anchor="middle" x="58" y="-111.5" font-family="Helvetica,sans-Serif" font-size="10.00">src</text>
</g>
<!-- dir_bad7734e6982521456135a51120f4e1e -->
<g id="node2" class="node">
<title>dir_bad7734e6982521456135a51120f4e1e</title>
<g id="a_node2"><a xlink:href="dir_bad7734e6982521456135a51120f4e1e.html" target="_top" xlink:title="src">
<polygon fill="white" stroke="black" points="85,-60 31,-60 31,-24 85,-24 85,-60"/>
<text text-anchor="middle" x="58" y="-39.5" font-family="Helvetica,sans-Serif" font-size="10.00">src</text>
</a>
</g>
</g>
<!-- dir_f63607e1acfe1c55d01a2faf58f7911a&#45;&gt;dir_bad7734e6982521456135a51120f4e1e -->
<g id="edge1" class="edge">
<title>dir_f63607e1acfe1c55d01a2faf58f7911a&#45;&gt;dir_bad7734e6982521456135a51120f4e1e</title>
<path fill="none" stroke="black" d="M58,-95.7C58,-87.98 58,-78.71 58,-70.11"/>
<polygon fill="black" stroke="black" points="61.5,-70.1 58,-60.1 54.5,-70.1 61.5,-70.1"/>
<g id="a_edge1&#45;headlabel"><a xlink:href="dir_000001_000002.html" target="_top" xlink:title="10">
<text text-anchor="middle" x="64.34" y="-71.2" font-family="Helvetica,sans-Serif" font-size="10.00">10</text>
</a>
</g>
</g>
</g>
</svg>
