<?xml version="1.0" encoding="UTF-8" standalone="no"?>
<!DOCTYPE svg PUBLIC "-//W3C//DTD SVG 1.1//EN"
 "http://www.w3.org/Graphics/SVG/1.1/DTD/svg11.dtd">
<!-- Generated by graphviz version 2.43.0 (0)
 -->
<!-- Title: ESP32BaseStation/src/fields.h Pages: 1 -->
<svg width="675pt" height="374pt"
 viewBox="0.00 0.00 675.08 374.00" xmlns="http://www.w3.org/2000/svg" xmlns:xlink="http://www.w3.org/1999/xlink">
<g id="graph0" class="graph" transform="scale(1 1) rotate(0) translate(4 370)">
<title>ESP32BaseStation/src/fields.h</title>
<polygon fill="white" stroke="transparent" points="-4,4 -4,-370 671.08,-370 671.08,4 -4,4"/>
<!-- Node1 -->
<g id="node1" class="node">
<title>Node1</title>
<g id="a_node1"><a xlink:title="Contains fields classes.">
<polygon fill="#bfbfbf" stroke="black" points="348.08,-335.5 348.08,-365.5 470.08,-365.5 470.08,-335.5 348.08,-335.5"/>
<text text-anchor="start" x="356.08" y="-353.5" font-family="Helvetica,sans-Serif" font-size="10.00">ESP32BaseStation/src</text>
<text text-anchor="middle" x="409.08" y="-342.5" font-family="Helvetica,sans-Serif" font-size="10.00">/fields.h</text>
</a>
</g>
</g>
<!-- Node2 -->
<g id="node2" class="node">
<title>Node2</title>
<g id="a_node2"><a xlink:href="device__list_8h.html" target="_top" xlink:title="List of all devices and fields known to the system.">
<polygon fill="white" stroke="black" points="527.08,-201.5 527.08,-231.5 667.08,-231.5 667.08,-201.5 527.08,-201.5"/>
<text text-anchor="start" x="535.08" y="-219.5" font-family="Helvetica,sans-Serif" font-size="10.00">ESP32BaseStation/device</text>
<text text-anchor="middle" x="597.08" y="-208.5" font-family="Helvetica,sans-Serif" font-size="10.00">_list.h</text>
</a>
</g>
</g>
<!-- Node1&#45;&gt;Node2 -->
<g id="edge1" class="edge">
<title>Node1&#45;&gt;Node2</title>
<path fill="none" stroke="midnightblue" d="M422.45,-326.53C433.92,-308.54 451.92,-283.95 473.08,-268 494.8,-251.63 522.57,-239.67 546.32,-231.52"/>
<polygon fill="midnightblue" stroke="midnightblue" points="419.33,-324.91 417.06,-335.26 425.29,-328.59 419.33,-324.91"/>
</g>
<!-- Node4 -->
<g id="node4" class="node">
<title>Node4</title>
<g id="a_node4"><a xlink:href="devices_8h.html" target="_top" xlink:title="Devices and manager for all known devices the base station connects to.">
<polygon fill="white" stroke="black" points="304.08,-268.5 304.08,-298.5 426.08,-298.5 426.08,-268.5 304.08,-268.5"/>
<text text-anchor="start" x="312.08" y="-286.5" font-family="Helvetica,sans-Serif" font-size="10.00">ESP32BaseStation/src</text>
<text text-anchor="middle" x="365.08" y="-275.5" font-family="Helvetica,sans-Serif" font-size="10.00">/devices.h</text>
</a>
</g>
</g>
<!-- Node1&#45;&gt;Node4 -->
<g id="edge3" class="edge">
<title>Node1&#45;&gt;Node4</title>
<path fill="none" stroke="midnightblue" d="M393.76,-326.87C387.39,-317.46 380.2,-306.83 374.61,-298.58"/>
<polygon fill="midnightblue" stroke="midnightblue" points="391.03,-329.08 399.53,-335.4 396.83,-325.15 391.03,-329.08"/>
</g>
<!-- Node12 -->
<g id="node12" class="node">
<title>Node12</title>
<g id="a_node12"><a xlink:href="rpc_8h.html" target="_top" xlink:title="Handles RPC calls.">
<polygon fill="white" stroke="black" points="82.08,-67.5 82.08,-97.5 204.08,-97.5 204.08,-67.5 82.08,-67.5"/>
<text text-anchor="start" x="90.08" y="-85.5" font-family="Helvetica,sans-Serif" font-size="10.00">ESP32BaseStation/src</text>
<text text-anchor="middle" x="143.08" y="-74.5" font-family="Helvetica,sans-Serif" font-size="10.00">/rpc.h</text>
</a>
</g>
</g>
<!-- Node1&#45;&gt;Node12 -->
<g id="edge24" class="edge">
<title>Node1&#45;&gt;Node12</title>
<path fill="none" stroke="midnightblue" d="M337.69,-338.83C233.89,-321.69 49.38,-284.53 10.08,-232 -29.31,-179.34 63.03,-123.05 113.27,-97.52"/>
<polygon fill="midnightblue" stroke="midnightblue" points="337.35,-342.32 347.78,-340.47 338.48,-335.41 337.35,-342.32"/>
</g>
<!-- Node14 -->
<g id="node14" class="node">
<title>Node14</title>
<g id="a_node14"><a xlink:href="fields_8cpp.html" target="_top" xlink:title="Contains fields classes.">
<polygon fill="white" stroke="black" points="482.08,-268.5 482.08,-298.5 604.08,-298.5 604.08,-268.5 482.08,-268.5"/>
<text text-anchor="start" x="490.08" y="-286.5" font-family="Helvetica,sans-Serif" font-size="10.00">ESP32BaseStation/src</text>
<text text-anchor="middle" x="543.08" y="-275.5" font-family="Helvetica,sans-Serif" font-size="10.00">/fields.cpp</text>
</a>
</g>
</g>
<!-- Node1&#45;&gt;Node14 -->
<g id="edge23" class="edge">
<title>Node1&#45;&gt;Node14</title>
<path fill="none" stroke="midnightblue" d="M447.24,-330.99C468.48,-320.69 494.5,-308.07 514.06,-298.58"/>
<polygon fill="midnightblue" stroke="midnightblue" points="445.63,-327.88 438.16,-335.4 448.68,-334.18 445.63,-327.88"/>
</g>
<!-- Node3 -->
<g id="node3" class="node">
<title>Node3</title>
<g id="a_node3"><a xlink:href="_e_s_p32_base_station_8ino.html" target="_top" xlink:title="Main file for a base station to connect to remote sensors on a farm.">
<polygon fill="white" stroke="black" points="342.08,-0.5 342.08,-30.5 504.08,-30.5 504.08,-0.5 342.08,-0.5"/>
<text text-anchor="start" x="350.08" y="-18.5" font-family="Helvetica,sans-Serif" font-size="10.00">ESP32BaseStation/ESP32Base</text>
<text text-anchor="middle" x="423.08" y="-7.5" font-family="Helvetica,sans-Serif" font-size="10.00">Station.ino</text>
</a>
</g>
</g>
<!-- Node2&#45;&gt;Node3 -->
<g id="edge2" class="edge">
<title>Node2&#45;&gt;Node3</title>
<path fill="none" stroke="midnightblue" d="M609.98,-192.06C625.52,-160.3 646.25,-103.39 618.08,-67 610.19,-56.8 546.66,-41.59 494.22,-30.53"/>
<polygon fill="midnightblue" stroke="midnightblue" points="606.82,-190.57 605.38,-201.06 613.05,-193.75 606.82,-190.57"/>
</g>
<!-- Node4&#45;&gt;Node2 -->
<g id="edge4" class="edge">
<title>Node4&#45;&gt;Node2</title>
<path fill="none" stroke="midnightblue" d="M424.99,-265.71C462.74,-255.14 510.94,-241.63 546.72,-231.61"/>
<polygon fill="midnightblue" stroke="midnightblue" points="423.82,-262.41 415.14,-268.48 425.71,-269.15 423.82,-262.41"/>
</g>
<!-- Node5 -->
<g id="node5" class="node">
<title>Node5</title>
<g id="a_node5"><a xlink:href="devices_8cpp.html" target="_top" xlink:title="Devices and manager for all known devices the base station connects to.">
<polygon fill="white" stroke="black" points="19.08,-201.5 19.08,-231.5 141.08,-231.5 141.08,-201.5 19.08,-201.5"/>
<text text-anchor="start" x="27.08" y="-219.5" font-family="Helvetica,sans-Serif" font-size="10.00">ESP32BaseStation/src</text>
<text text-anchor="middle" x="80.08" y="-208.5" font-family="Helvetica,sans-Serif" font-size="10.00">/devices.cpp</text>
</a>
</g>
</g>
<!-- Node4&#45;&gt;Node5 -->
<g id="edge5" class="edge">
<title>Node4&#45;&gt;Node5</title>
<path fill="none" stroke="midnightblue" d="M294.13,-266.32C247.08,-255.59 185.99,-241.65 141.12,-231.42"/>
<polygon fill="midnightblue" stroke="midnightblue" points="293.41,-269.74 303.94,-268.56 294.97,-262.92 293.41,-269.74"/>
</g>
<!-- Node6 -->
<g id="node6" class="node">
<title>Node6</title>
<g id="a_node6"><a xlink:href="leds_8h.html" target="_top" xlink:title="Controls the LEDs on the unit.">
<polygon fill="white" stroke="black" points="487.08,-67.5 487.08,-97.5 609.08,-97.5 609.08,-67.5 487.08,-67.5"/>
<text text-anchor="start" x="495.08" y="-85.5" font-family="Helvetica,sans-Serif" font-size="10.00">ESP32BaseStation/src</text>
<text text-anchor="middle" x="548.08" y="-74.5" font-family="Helvetica,sans-Serif" font-size="10.00">/leds.h</text>
</a>
</g>
</g>
<!-- Node4&#45;&gt;Node6 -->
<g id="edge6" class="edge">
<title>Node4&#45;&gt;Node6</title>
<path fill="none" stroke="midnightblue" d="M387.01,-261.13C410.55,-237.95 448.78,-199.62 480.08,-165 500.84,-142.03 523.64,-114.11 536.86,-97.63"/>
<polygon fill="midnightblue" stroke="midnightblue" points="384.31,-258.88 379.62,-268.38 389.21,-263.88 384.31,-258.88"/>
</g>
<!-- Node8 -->
<g id="node8" class="node">
<title>Node8</title>
<g id="a_node8"><a xlink:href="lora_8h.html" target="_top" xlink:title="File that handles the LoRa radio and PJON.">
<polygon fill="white" stroke="black" points="260.08,-201.5 260.08,-231.5 382.08,-231.5 382.08,-201.5 260.08,-201.5"/>
<text text-anchor="start" x="268.08" y="-219.5" font-family="Helvetica,sans-Serif" font-size="10.00">ESP32BaseStation/src</text>
<text text-anchor="middle" x="321.08" y="-208.5" font-family="Helvetica,sans-Serif" font-size="10.00">/lora.h</text>
</a>
</g>
</g>
<!-- Node4&#45;&gt;Node8 -->
<g id="edge9" class="edge">
<title>Node4&#45;&gt;Node8</title>
<path fill="none" stroke="midnightblue" d="M349.76,-259.87C343.39,-250.46 336.2,-239.83 330.61,-231.58"/>
<polygon fill="midnightblue" stroke="midnightblue" points="347.03,-262.08 355.53,-268.4 352.83,-258.15 347.03,-262.08"/>
</g>
<!-- Node10 -->
<g id="node10" class="node">
<title>Node10</title>
<g id="a_node10"><a xlink:href="networking_8h.html" target="_top" xlink:title="Header file for networking.cpp.">
<polygon fill="white" stroke="black" points="349.08,-134.5 349.08,-164.5 471.08,-164.5 471.08,-134.5 349.08,-134.5"/>
<text text-anchor="start" x="357.08" y="-152.5" font-family="Helvetica,sans-Serif" font-size="10.00">ESP32BaseStation/src</text>
<text text-anchor="middle" x="410.08" y="-141.5" font-family="Helvetica,sans-Serif" font-size="10.00">/networking.h</text>
</a>
</g>
</g>
<!-- Node4&#45;&gt;Node10 -->
<g id="edge21" class="edge">
<title>Node4&#45;&gt;Node10</title>
<path fill="none" stroke="midnightblue" d="M378.45,-259.47C382.94,-251.04 387.67,-241.28 391.08,-232 399.5,-209.09 405.05,-181.15 407.87,-164.65"/>
<polygon fill="midnightblue" stroke="midnightblue" points="375.33,-257.9 373.57,-268.34 381.46,-261.27 375.33,-257.9"/>
</g>
<!-- Node4&#45;&gt;Node12 -->
<g id="edge22" class="edge">
<title>Node4&#45;&gt;Node12</title>
<path fill="none" stroke="midnightblue" d="M294.38,-267C241.55,-251.21 173.29,-220.82 142.08,-165 130.27,-143.88 134.69,-114.61 138.92,-97.5"/>
<polygon fill="midnightblue" stroke="midnightblue" points="293.48,-270.38 304.06,-269.78 295.41,-263.65 293.48,-270.38"/>
</g>
<!-- Node6&#45;&gt;Node3 -->
<g id="edge7" class="edge">
<title>Node6&#45;&gt;Node3</title>
<path fill="none" stroke="midnightblue" d="M511.95,-62.71C492.24,-52.46 468.24,-39.98 450.15,-30.58"/>
<polygon fill="midnightblue" stroke="midnightblue" points="510.47,-65.89 520.96,-67.4 513.7,-59.68 510.47,-65.89"/>
</g>
<!-- Node7 -->
<g id="node7" class="node">
<title>Node7</title>
<g id="a_node7"><a xlink:href="leds_8cpp.html" target="_top" xlink:title="Controls the LEDs on the unit.">
<polygon fill="white" stroke="black" points="522.08,-0.5 522.08,-30.5 644.08,-30.5 644.08,-0.5 522.08,-0.5"/>
<text text-anchor="start" x="530.08" y="-18.5" font-family="Helvetica,sans-Serif" font-size="10.00">ESP32BaseStation/src</text>
<text text-anchor="middle" x="583.08" y="-7.5" font-family="Helvetica,sans-Serif" font-size="10.00">/leds.cpp</text>
</a>
</g>
</g>
<!-- Node6&#45;&gt;Node7 -->
<g id="edge8" class="edge">
<title>Node6&#45;&gt;Node7</title>
<path fill="none" stroke="midnightblue" d="M560.43,-58.58C565.45,-49.24 571.1,-38.75 575.5,-30.58"/>
<polygon fill="midnightblue" stroke="midnightblue" points="557.34,-56.93 555.68,-67.4 563.5,-60.25 557.34,-56.93"/>
</g>
<!-- Node8&#45;&gt;Node3 -->
<g id="edge10" class="edge">
<title>Node8&#45;&gt;Node3</title>
<path fill="none" stroke="midnightblue" d="M315.95,-191.65C307.75,-152.31 293.27,-77.15 300.08,-67 311.84,-49.46 330.91,-38 350.56,-30.53"/>
<polygon fill="midnightblue" stroke="midnightblue" points="312.54,-192.42 318.03,-201.49 319.39,-190.98 312.54,-192.42"/>
</g>
<!-- Node9 -->
<g id="node9" class="node">
<title>Node9</title>
<g id="a_node9"><a xlink:href="lora_8cpp.html" target="_top" xlink:title="File that handles the LoRa radio and PJON.">
<polygon fill="white" stroke="black" points="171.08,-134.5 171.08,-164.5 293.08,-164.5 293.08,-134.5 171.08,-134.5"/>
<text text-anchor="start" x="179.08" y="-152.5" font-family="Helvetica,sans-Serif" font-size="10.00">ESP32BaseStation/src</text>
<text text-anchor="middle" x="232.08" y="-141.5" font-family="Helvetica,sans-Serif" font-size="10.00">/lora.cpp</text>
</a>
</g>
</g>
<!-- Node8&#45;&gt;Node9 -->
<g id="edge11" class="edge">
<title>Node8&#45;&gt;Node9</title>
<path fill="none" stroke="midnightblue" d="M293.63,-195.45C279.94,-185.45 263.71,-173.6 251.36,-164.58"/>
<polygon fill="midnightblue" stroke="midnightblue" points="291.63,-198.32 301.77,-201.4 295.76,-192.67 291.63,-198.32"/>
</g>
<!-- Node8&#45;&gt;Node10 -->
<g id="edge12" class="edge">
<title>Node8&#45;&gt;Node10</title>
<path fill="none" stroke="midnightblue" d="M342.61,-195.17C355.47,-185.23 371.72,-173.51 385.13,-164.58"/>
<polygon fill="midnightblue" stroke="midnightblue" points="340.4,-192.45 334.71,-201.4 344.73,-197.95 340.4,-192.45"/>
</g>
<!-- Node10&#45;&gt;Node3 -->
<g id="edge13" class="edge">
<title>Node10&#45;&gt;Node3</title>
<path fill="none" stroke="midnightblue" d="M426.94,-126.02C432.23,-117.67 437.38,-107.82 440.08,-98 446.47,-74.72 437.29,-47.13 430.13,-30.76"/>
<polygon fill="midnightblue" stroke="midnightblue" points="423.95,-124.18 421.26,-134.43 429.75,-128.1 423.95,-124.18"/>
</g>
<!-- Node10&#45;&gt;Node6 -->
<g id="edge14" class="edge">
<title>Node10&#45;&gt;Node6</title>
<path fill="none" stroke="midnightblue" d="M449.08,-130.13C471.01,-119.8 497.95,-107.11 518.2,-97.58"/>
<polygon fill="midnightblue" stroke="midnightblue" points="447.58,-126.97 440.03,-134.4 450.56,-133.3 447.58,-126.97"/>
</g>
<!-- Node10&#45;&gt;Node8 -->
<g id="edge15" class="edge">
<title>Node10&#45;&gt;Node8</title>
<path fill="none" stroke="midnightblue" d="M388.59,-170.8C375.74,-180.74 359.49,-192.45 346.07,-201.4"/>
<polygon fill="midnightblue" stroke="midnightblue" points="390.8,-173.52 396.48,-164.58 386.46,-168.02 390.8,-173.52"/>
</g>
<!-- Node11 -->
<g id="node11" class="node">
<title>Node11</title>
<g id="a_node11"><a xlink:href="networking_8cpp.html" target="_top" xlink:title="File that handles connecting to WiFi and MQTT and staying connected.">
<polygon fill="white" stroke="black" points="309.08,-67.5 309.08,-97.5 431.08,-97.5 431.08,-67.5 309.08,-67.5"/>
<text text-anchor="start" x="317.08" y="-85.5" font-family="Helvetica,sans-Serif" font-size="10.00">ESP32BaseStation/src</text>
<text text-anchor="middle" x="370.08" y="-74.5" font-family="Helvetica,sans-Serif" font-size="10.00">/networking.cpp</text>
</a>
</g>
</g>
<!-- Node10&#45;&gt;Node11 -->
<g id="edge16" class="edge">
<title>Node10&#45;&gt;Node11</title>
<path fill="none" stroke="midnightblue" d="M396.15,-125.87C390.36,-116.46 383.82,-105.83 378.74,-97.58"/>
<polygon fill="midnightblue" stroke="midnightblue" points="393.18,-127.71 401.4,-134.4 399.14,-124.05 393.18,-127.71"/>
</g>
<!-- Node10&#45;&gt;Node12 -->
<g id="edge17" class="edge">
<title>Node10&#45;&gt;Node12</title>
<path fill="none" stroke="midnightblue" d="M342.52,-132.05C298.87,-121.43 242.66,-107.74 201.04,-97.61"/>
<polygon fill="midnightblue" stroke="midnightblue" points="341.93,-135.51 352.47,-134.48 343.59,-128.71 341.93,-135.51"/>
</g>
<!-- Node12&#45;&gt;Node3 -->
<g id="edge18" class="edge">
<title>Node12&#45;&gt;Node3</title>
<path fill="none" stroke="midnightblue" d="M213.36,-65.19C259.22,-54.54 318.47,-40.78 362.3,-30.61"/>
<polygon fill="midnightblue" stroke="midnightblue" points="212.44,-61.81 203.49,-67.48 214.02,-68.62 212.44,-61.81"/>
</g>
<!-- Node12&#45;&gt;Node8 -->
<g id="edge19" class="edge">
<title>Node12&#45;&gt;Node8</title>
<path fill="none" stroke="midnightblue" d="M142.64,-107.54C143.6,-125.51 147.8,-149.55 162.08,-165 187.15,-192.12 226.69,-204.75 260.06,-210.6"/>
<polygon fill="midnightblue" stroke="midnightblue" points="146.14,-107.43 142.4,-97.52 139.14,-107.6 146.14,-107.43"/>
</g>
<!-- Node13 -->
<g id="node13" class="node">
<title>Node13</title>
<g id="a_node13"><a xlink:href="rpc_8cpp.html" target="_top" xlink:title="Handles RPC calls.">
<polygon fill="white" stroke="black" points="82.08,-0.5 82.08,-30.5 204.08,-30.5 204.08,-0.5 82.08,-0.5"/>
<text text-anchor="start" x="90.08" y="-18.5" font-family="Helvetica,sans-Serif" font-size="10.00">ESP32BaseStation/src</text>
<text text-anchor="middle" x="143.08" y="-7.5" font-family="Helvetica,sans-Serif" font-size="10.00">/rpc.cpp</text>
</a>
</g>
</g>
<!-- Node12&#45;&gt;Node13 -->
<g id="edge20" class="edge">
<title>Node12&#45;&gt;Node13</title>
<path fill="none" stroke="midnightblue" d="M143.08,-57.11C143.08,-48.15 143.08,-38.32 143.08,-30.58"/>
<polygon fill="midnightblue" stroke="midnightblue" points="139.58,-57.4 143.08,-67.4 146.58,-57.4 139.58,-57.4"/>
</g>
</g>
</svg>
