<?xml version="1.0" encoding="UTF-8" standalone="no"?>
<!DOCTYPE svg PUBLIC "-//W3C//DTD SVG 1.1//EN"
 "http://www.w3.org/Graphics/SVG/1.1/DTD/svg11.dtd">
<!-- Generated by graphviz version 2.43.0 (0)
 -->
<!-- Title: BaseStationCode/src/src/fields.h Pages: 1 -->
<!--zoomable 374 -->
<svg id="main" version="1.1" xmlns="http://www.w3.org/2000/svg" xmlns:xlink="http://www.w3.org/1999/xlink" xml:space="preserve" onload="init(evt)">
<style type="text/css"><![CDATA[
.edge:hover path { stroke: red; }
.edge:hover polygon { stroke: red; fill: red; }
]]></style>
<script type="text/javascript"><![CDATA[
var edges = document.getElementsByTagName('g');
if (edges && edges.length) {
  for (var i=0;i<edges.length;i++) {
    if (edges[i].id.substr(0,4)=='edge') {
      edges[i].setAttribute('class','edge');
    }
  }
}
]]></script>
        <defs>
                <circle id="rim" cx="0" cy="0" r="7"/>
                <circle id="rim2" cx="0" cy="0" r="3.5"/>
                <g id="zoomPlus">
                        <use xlink:href="#rim" fill="#404040">
                                <set attributeName="fill" to="#808080" begin="zoomplus.mouseover" end="zoomplus.mouseout"/>
                        </use>
                        <path d="M-4,0h8M0,-4v8" fill="none" stroke="white" stroke-width="1.5" pointer-events="none"/>
                </g>
                <g id="zoomMin">
                        <use xlink:href="#rim" fill="#404040">
                                <set attributeName="fill" to="#808080" begin="zoomminus.mouseover" end="zoomminus.mouseout"/>
                        </use>
                        <path d="M-4,0h8" fill="none" stroke="white" stroke-width="1.5" pointer-events="none"/>
                </g>
                <g id="dirArrow">
                        <path fill="none" stroke="white" stroke-width="1.5" d="M0,-3.0v7 M-2.5,-0.5L0,-3.0L2.5,-0.5"/>
                </g>
               <g id="resetDef">
                       <use xlink:href="#rim2" fill="#404040">
                               <set attributeName="fill" to="#808080" begin="reset.mouseover" end="reset.mouseout"/>
                       </use>
               </g>
        </defs>

<script type="text/javascript">
var viewWidth = 810;
var viewHeight = 374;
var sectionId = 'dynsection-1';
</script>
<script xlink:href="svgpan.js"/>
<svg id="graph" class="graph">
<g id="viewport">
<title>BaseStationCode/src/src/fields.h</title>
<polygon fill="white" stroke="transparent" points="-4,4 -4,-370 806,-370 806,4 -4,4"/>
<!-- Node1 -->
<g id="node1" class="node">
<title>Node1</title>
<g id="a_node1"><a xlink:title="Contains fields classes.">
<polygon fill="#bfbfbf" stroke="black" points="429,-335.5 429,-365.5 546,-365.5 546,-335.5 429,-335.5"/>
<text text-anchor="start" x="437" y="-353.5" font-family="Helvetica,sans-Serif" font-size="10.00">BaseStationCode/src</text>
<text text-anchor="middle" x="487.5" y="-342.5" font-family="Helvetica,sans-Serif" font-size="10.00">/src/fields.h</text>
</a>
</g>
</g>
<!-- Node2 -->
<g id="node2" class="node">
<title>Node2</title>
<g id="a_node2"><a xlink:href="device__list_8h.html" target="_top" xlink:title="List of all devices and fields known to the system.">
<polygon fill="white" stroke="black" points="0,-201.5 0,-231.5 117,-231.5 117,-201.5 0,-201.5"/>
<text text-anchor="start" x="8" y="-219.5" font-family="Helvetica,sans-Serif" font-size="10.00">BaseStationCode/src</text>
<text text-anchor="middle" x="58.5" y="-208.5" font-family="Helvetica,sans-Serif" font-size="10.00">/device_list.h</text>
</a>
</g>
</g>
<!-- Node1&#45;&gt;Node2 -->
<g id="edge1" class="edge">
<title>Node1&#45;&gt;Node2</title>
<path fill="none" stroke="midnightblue" d="M419.11,-338.4C371.52,-329.81 306.91,-316.45 251.5,-299 191.31,-280.04 124.06,-249.34 86.96,-231.53"/>
<polygon fill="midnightblue" stroke="midnightblue" points="418.54,-341.85 429,-340.15 419.77,-334.96 418.54,-341.85"/>
</g>
<!-- Node4 -->
<g id="node4" class="node">
<title>Node4</title>
<g id="a_node4"><a xlink:href="devices_8h.html" target="_top" xlink:title="Devices and manager for all known devices the base station connects to.">
<polygon fill="white" stroke="black" points="261,-268.5 261,-298.5 378,-298.5 378,-268.5 261,-268.5"/>
<text text-anchor="start" x="269" y="-286.5" font-family="Helvetica,sans-Serif" font-size="10.00">BaseStationCode/src</text>
<text text-anchor="middle" x="319.5" y="-275.5" font-family="Helvetica,sans-Serif" font-size="10.00">/src/devices.h</text>
</a>
</g>
</g>
<!-- Node1&#45;&gt;Node4 -->
<g id="edge3" class="edge">
<title>Node1&#45;&gt;Node4</title>
<path fill="none" stroke="midnightblue" d="M441.45,-331.68C414.5,-321.26 380.96,-308.28 355.88,-298.58"/>
<polygon fill="midnightblue" stroke="midnightblue" points="440.46,-335.05 451.05,-335.4 442.98,-328.52 440.46,-335.05"/>
</g>
<!-- Node14 -->
<g id="node14" class="node">
<title>Node14</title>
<g id="a_node14"><a xlink:href="rpc_8h.html" target="_top" xlink:title="Handles RPC calls.">
<polygon fill="white" stroke="black" points="570,-67.5 570,-97.5 687,-97.5 687,-67.5 570,-67.5"/>
<text text-anchor="start" x="578" y="-85.5" font-family="Helvetica,sans-Serif" font-size="10.00">BaseStationCode/src</text>
<text text-anchor="middle" x="628.5" y="-74.5" font-family="Helvetica,sans-Serif" font-size="10.00">/src/rpc.h</text>
</a>
</g>
</g>
<!-- Node1&#45;&gt;Node14 -->
<g id="edge27" class="edge">
<title>Node1&#45;&gt;Node14</title>
<path fill="none" stroke="midnightblue" d="M507.13,-327.89C535.65,-295.2 588.02,-230.08 614.5,-165 623.65,-142.53 626.82,-114.21 627.92,-97.55"/>
<polygon fill="midnightblue" stroke="midnightblue" points="504.42,-325.67 500.42,-335.48 509.67,-330.3 504.42,-325.67"/>
</g>
<!-- Node16 -->
<g id="node16" class="node">
<title>Node16</title>
<g id="a_node16"><a xlink:href="fields_8cpp.html" target="_top" xlink:title="Contains fields classes.">
<polygon fill="white" stroke="black" points="685,-268.5 685,-298.5 802,-298.5 802,-268.5 685,-268.5"/>
<text text-anchor="start" x="693" y="-286.5" font-family="Helvetica,sans-Serif" font-size="10.00">BaseStationCode/src</text>
<text text-anchor="middle" x="743.5" y="-275.5" font-family="Helvetica,sans-Serif" font-size="10.00">/src/fields.cpp</text>
</a>
</g>
</g>
<!-- Node1&#45;&gt;Node16 -->
<g id="edge26" class="edge">
<title>Node1&#45;&gt;Node16</title>
<path fill="none" stroke="midnightblue" d="M552.55,-332.98C594.36,-322.37 648.11,-308.72 687.92,-298.61"/>
<polygon fill="midnightblue" stroke="midnightblue" points="551.56,-329.62 542.73,-335.48 553.29,-336.41 551.56,-329.62"/>
</g>
<!-- Node3 -->
<g id="node3" class="node">
<title>Node3</title>
<g id="a_node3"><a xlink:href="main_8cpp.html" target="_top" xlink:title=" ">
<polygon fill="white" stroke="black" points="261,-0.5 261,-30.5 378,-30.5 378,-0.5 261,-0.5"/>
<text text-anchor="start" x="269" y="-18.5" font-family="Helvetica,sans-Serif" font-size="10.00">BaseStationCode/src</text>
<text text-anchor="middle" x="319.5" y="-7.5" font-family="Helvetica,sans-Serif" font-size="10.00">/main.cpp</text>
</a>
</g>
</g>
<!-- Node2&#45;&gt;Node3 -->
<g id="edge2" class="edge">
<title>Node2&#45;&gt;Node3</title>
<path fill="none" stroke="midnightblue" d="M53.89,-191.45C49.14,-158.83 46.27,-100.78 77.5,-67 89.92,-53.57 193.14,-35.63 260.7,-25.14"/>
<polygon fill="midnightblue" stroke="midnightblue" points="50.46,-192.16 55.52,-201.46 57.37,-191.03 50.46,-192.16"/>
</g>
<!-- Node4&#45;&gt;Node2 -->
<g id="edge4" class="edge">
<title>Node4&#45;&gt;Node2</title>
<path fill="none" stroke="midnightblue" d="M253.45,-266.05C210.78,-255.43 155.84,-241.74 115.16,-231.61"/>
<polygon fill="midnightblue" stroke="midnightblue" points="252.64,-269.46 263.19,-268.48 254.33,-262.66 252.64,-269.46"/>
</g>
<!-- Node5 -->
<g id="node5" class="node">
<title>Node5</title>
<g id="a_node5"><a xlink:href="devices_8cpp.html" target="_top" xlink:title="Devices and manager for all known devices the base station connects to.">
<polygon fill="white" stroke="black" points="174,-201.5 174,-231.5 291,-231.5 291,-201.5 174,-201.5"/>
<text text-anchor="start" x="182" y="-219.5" font-family="Helvetica,sans-Serif" font-size="10.00">BaseStationCode/src</text>
<text text-anchor="middle" x="232.5" y="-208.5" font-family="Helvetica,sans-Serif" font-size="10.00">/src/devices.cpp</text>
</a>
</g>
</g>
<!-- Node4&#45;&gt;Node5 -->
<g id="edge5" class="edge">
<title>Node4&#45;&gt;Node5</title>
<path fill="none" stroke="midnightblue" d="M292.29,-262.17C278.98,-252.23 263.3,-240.51 251.34,-231.58"/>
<polygon fill="midnightblue" stroke="midnightblue" points="290.52,-265.21 300.62,-268.4 294.71,-259.61 290.52,-265.21"/>
</g>
<!-- Node6 -->
<g id="node6" class="node">
<title>Node6</title>
<g id="a_node6"><a xlink:href="leds_8h.html" target="_top" xlink:title="Controls the LEDs on the unit.">
<polygon fill="white" stroke="black" points="87,-67.5 87,-97.5 204,-97.5 204,-67.5 87,-67.5"/>
<text text-anchor="start" x="95" y="-85.5" font-family="Helvetica,sans-Serif" font-size="10.00">BaseStationCode/src</text>
<text text-anchor="middle" x="145.5" y="-74.5" font-family="Helvetica,sans-Serif" font-size="10.00">/src/leds.h</text>
</a>
</g>
</g>
<!-- Node4&#45;&gt;Node6 -->
<g id="edge6" class="edge">
<title>Node4&#45;&gt;Node6</title>
<path fill="none" stroke="midnightblue" d="M250.64,-267.71C214.78,-258.57 176.05,-245.95 164.5,-232 132.01,-192.76 138.13,-126.56 142.79,-97.68"/>
<polygon fill="midnightblue" stroke="midnightblue" points="250.1,-271.18 260.65,-270.19 251.79,-264.39 250.1,-271.18"/>
</g>
<!-- Node8 -->
<g id="node8" class="node">
<title>Node8</title>
<g id="a_node8"><a xlink:href="lora_8h.html" target="_top" xlink:title="File that handles the LoRa radio and PJON.">
<polygon fill="white" stroke="black" points="348,-201.5 348,-231.5 465,-231.5 465,-201.5 348,-201.5"/>
<text text-anchor="start" x="356" y="-219.5" font-family="Helvetica,sans-Serif" font-size="10.00">BaseStationCode/src</text>
<text text-anchor="middle" x="406.5" y="-208.5" font-family="Helvetica,sans-Serif" font-size="10.00">/src/lora.h</text>
</a>
</g>
</g>
<!-- Node4&#45;&gt;Node8 -->
<g id="edge9" class="edge">
<title>Node4&#45;&gt;Node8</title>
<path fill="none" stroke="midnightblue" d="M346.71,-262.17C360.02,-252.23 375.7,-240.51 387.66,-231.58"/>
<polygon fill="midnightblue" stroke="midnightblue" points="344.29,-259.61 338.38,-268.4 348.48,-265.21 344.29,-259.61"/>
</g>
<!-- Node10 -->
<g id="node10" class="node">
<title>Node10</title>
<g id="a_node10"><a xlink:href="networking_8h.html" target="_top" xlink:title="Header file for networking.cpp.">
<polygon fill="white" stroke="black" points="261,-134.5 261,-164.5 378,-164.5 378,-134.5 261,-134.5"/>
<text text-anchor="start" x="269" y="-152.5" font-family="Helvetica,sans-Serif" font-size="10.00">BaseStationCode/src</text>
<text text-anchor="middle" x="319.5" y="-141.5" font-family="Helvetica,sans-Serif" font-size="10.00">/src/networking.h</text>
</a>
</g>
</g>
<!-- Node4&#45;&gt;Node10 -->
<g id="edge24" class="edge">
<title>Node4&#45;&gt;Node10</title>
<path fill="none" stroke="midnightblue" d="M319.5,-258.02C319.5,-230.51 319.5,-186.79 319.5,-164.52"/>
<polygon fill="midnightblue" stroke="midnightblue" points="316,-258.37 319.5,-268.37 323,-258.37 316,-258.37"/>
</g>
<!-- Node4&#45;&gt;Node14 -->
<g id="edge25" class="edge">
<title>Node4&#45;&gt;Node14</title>
<path fill="none" stroke="midnightblue" d="M388.06,-269.28C449.11,-254.1 536.82,-223.37 590.5,-165 608.68,-145.23 619.58,-115.24 624.78,-97.68"/>
<polygon fill="midnightblue" stroke="midnightblue" points="387.03,-265.93 378.13,-271.67 388.67,-272.73 387.03,-265.93"/>
</g>
<!-- Node6&#45;&gt;Node3 -->
<g id="edge7" class="edge">
<title>Node6&#45;&gt;Node3</title>
<path fill="none" stroke="midnightblue" d="M192.83,-63.82C220.8,-53.37 255.73,-40.32 281.82,-30.58"/>
<polygon fill="midnightblue" stroke="midnightblue" points="191.4,-60.62 183.26,-67.4 193.85,-67.18 191.4,-60.62"/>
</g>
<!-- Node7 -->
<g id="node7" class="node">
<title>Node7</title>
<g id="a_node7"><a xlink:href="leds_8cpp.html" target="_top" xlink:title="Controls the LEDs on the unit.">
<polygon fill="white" stroke="black" points="87,-0.5 87,-30.5 204,-30.5 204,-0.5 87,-0.5"/>
<text text-anchor="start" x="95" y="-18.5" font-family="Helvetica,sans-Serif" font-size="10.00">BaseStationCode/src</text>
<text text-anchor="middle" x="145.5" y="-7.5" font-family="Helvetica,sans-Serif" font-size="10.00">/src/leds.cpp</text>
</a>
</g>
</g>
<!-- Node6&#45;&gt;Node7 -->
<g id="edge8" class="edge">
<title>Node6&#45;&gt;Node7</title>
<path fill="none" stroke="midnightblue" d="M145.5,-57.11C145.5,-48.15 145.5,-38.32 145.5,-30.58"/>
<polygon fill="midnightblue" stroke="midnightblue" points="142,-57.4 145.5,-67.4 149,-57.4 142,-57.4"/>
</g>
<!-- Node8&#45;&gt;Node3 -->
<g id="edge10" class="edge">
<title>Node8&#45;&gt;Node3</title>
<path fill="none" stroke="midnightblue" d="M408.73,-190.92C410.37,-159.87 409.2,-105.79 386.5,-67 377.45,-51.54 361.63,-39.27 347.64,-30.71"/>
<polygon fill="midnightblue" stroke="midnightblue" points="405.21,-191.04 408.03,-201.25 412.2,-191.51 405.21,-191.04"/>
</g>
<!-- Node9 -->
<g id="node9" class="node">
<title>Node9</title>
<g id="a_node9"><a xlink:href="lora_8cpp.html" target="_top" xlink:title="File that handles the LoRa radio and PJON.">
<polygon fill="white" stroke="black" points="435,-134.5 435,-164.5 552,-164.5 552,-134.5 435,-134.5"/>
<text text-anchor="start" x="443" y="-152.5" font-family="Helvetica,sans-Serif" font-size="10.00">BaseStationCode/src</text>
<text text-anchor="middle" x="493.5" y="-141.5" font-family="Helvetica,sans-Serif" font-size="10.00">/src/lora.cpp</text>
</a>
</g>
</g>
<!-- Node8&#45;&gt;Node9 -->
<g id="edge11" class="edge">
<title>Node8&#45;&gt;Node9</title>
<path fill="none" stroke="midnightblue" d="M433.71,-195.17C447.02,-185.23 462.7,-173.51 474.66,-164.58"/>
<polygon fill="midnightblue" stroke="midnightblue" points="431.29,-192.61 425.38,-201.4 435.48,-198.21 431.29,-192.61"/>
</g>
<!-- Node8&#45;&gt;Node10 -->
<g id="edge12" class="edge">
<title>Node8&#45;&gt;Node10</title>
<path fill="none" stroke="midnightblue" d="M373.38,-195.45C359.22,-185.45 343.56,-173.6 332.67,-164.58"/>
<polygon fill="midnightblue" stroke="midnightblue" points="371.73,-198.57 381.94,-201.4 375.72,-192.82 371.73,-198.57"/>
</g>
<!-- Node10&#45;&gt;Node3 -->
<g id="edge13" class="edge">
<title>Node10&#45;&gt;Node3</title>
<path fill="none" stroke="midnightblue" d="M280.6,-128.86C269.09,-120.96 257.87,-110.67 251.5,-98 245.31,-85.69 245.31,-79.31 251.5,-67 259.49,-51.1 275.12,-38.95 289.38,-30.56"/>
<polygon fill="midnightblue" stroke="midnightblue" points="279.07,-132.03 289.38,-134.44 282.82,-126.13 279.07,-132.03"/>
</g>
<!-- Node10&#45;&gt;Node6 -->
<g id="edge14" class="edge">
<title>Node10&#45;&gt;Node6</title>
<path fill="none" stroke="midnightblue" d="M272.17,-130.82C244.2,-120.37 209.27,-107.32 183.18,-97.58"/>
<polygon fill="midnightblue" stroke="midnightblue" points="271.15,-134.18 281.74,-134.4 273.6,-127.62 271.15,-134.18"/>
</g>
<!-- Node10&#45;&gt;Node8 -->
<g id="edge15" class="edge">
<title>Node10&#45;&gt;Node8</title>
<path fill="none" stroke="midnightblue" d="M352.58,-170.52C366.74,-180.51 382.4,-192.37 393.3,-201.4"/>
<polygon fill="midnightblue" stroke="midnightblue" points="354.23,-167.4 344.02,-164.58 350.24,-173.15 354.23,-167.4"/>
</g>
<!-- Node11 -->
<g id="node11" class="node">
<title>Node11</title>
<g id="a_node11"><a xlink:href="networking_8cpp.html" target="_top" xlink:title="File that handles connecting to WiFi and MQTT and staying connected.">
<polygon fill="white" stroke="black" points="261,-67.5 261,-97.5 378,-97.5 378,-67.5 261,-67.5"/>
<text text-anchor="start" x="269" y="-85.5" font-family="Helvetica,sans-Serif" font-size="10.00">BaseStationCode/src</text>
<text text-anchor="middle" x="319.5" y="-74.5" font-family="Helvetica,sans-Serif" font-size="10.00">/src/networking.cpp</text>
</a>
</g>
</g>
<!-- Node10&#45;&gt;Node11 -->
<g id="edge16" class="edge">
<title>Node10&#45;&gt;Node11</title>
<path fill="none" stroke="midnightblue" d="M319.5,-124.11C319.5,-115.15 319.5,-105.32 319.5,-97.58"/>
<polygon fill="midnightblue" stroke="midnightblue" points="316,-124.4 319.5,-134.4 323,-124.4 316,-124.4"/>
</g>
<!-- Node12 -->
<g id="node12" class="node">
<title>Node12</title>
<g id="a_node12"><a xlink:href="ota_8h.html" target="_top" xlink:title="Handles over the air (OTA) updates.">
<polygon fill="white" stroke="black" points="435,-67.5 435,-97.5 552,-97.5 552,-67.5 435,-67.5"/>
<text text-anchor="start" x="443" y="-85.5" font-family="Helvetica,sans-Serif" font-size="10.00">BaseStationCode/src</text>
<text text-anchor="middle" x="493.5" y="-74.5" font-family="Helvetica,sans-Serif" font-size="10.00">/src/ota.h</text>
</a>
</g>
</g>
<!-- Node10&#45;&gt;Node12 -->
<g id="edge17" class="edge">
<title>Node10&#45;&gt;Node12</title>
<path fill="none" stroke="midnightblue" d="M366.83,-130.82C394.8,-120.37 429.73,-107.32 455.82,-97.58"/>
<polygon fill="midnightblue" stroke="midnightblue" points="365.4,-127.62 357.26,-134.4 367.85,-134.18 365.4,-127.62"/>
</g>
<!-- Node10&#45;&gt;Node14 -->
<g id="edge20" class="edge">
<title>Node10&#45;&gt;Node14</title>
<path fill="none" stroke="midnightblue" d="M388.45,-134.12C436.65,-124.05 502.51,-110.26 560.5,-98 563.57,-97.35 566.72,-96.68 569.9,-96.01"/>
<polygon fill="midnightblue" stroke="midnightblue" points="387.52,-130.74 378.44,-136.21 388.95,-137.59 387.52,-130.74"/>
</g>
<!-- Node12&#45;&gt;Node3 -->
<g id="edge18" class="edge">
<title>Node12&#45;&gt;Node3</title>
<path fill="none" stroke="midnightblue" d="M446.17,-63.82C418.2,-53.37 383.27,-40.32 357.18,-30.58"/>
<polygon fill="midnightblue" stroke="midnightblue" points="445.15,-67.18 455.74,-67.4 447.6,-60.62 445.15,-67.18"/>
</g>
<!-- Node13 -->
<g id="node13" class="node">
<title>Node13</title>
<g id="a_node13"><a xlink:href="ota_8cpp.html" target="_top" xlink:title="Handles over the air (OTA) updates.">
<polygon fill="white" stroke="black" points="435,-0.5 435,-30.5 552,-30.5 552,-0.5 435,-0.5"/>
<text text-anchor="start" x="443" y="-18.5" font-family="Helvetica,sans-Serif" font-size="10.00">BaseStationCode/src</text>
<text text-anchor="middle" x="493.5" y="-7.5" font-family="Helvetica,sans-Serif" font-size="10.00">/src/ota.cpp</text>
</a>
</g>
</g>
<!-- Node12&#45;&gt;Node13 -->
<g id="edge19" class="edge">
<title>Node12&#45;&gt;Node13</title>
<path fill="none" stroke="midnightblue" d="M493.5,-57.11C493.5,-48.15 493.5,-38.32 493.5,-30.58"/>
<polygon fill="midnightblue" stroke="midnightblue" points="490,-57.4 493.5,-67.4 497,-57.4 490,-57.4"/>
</g>
<!-- Node14&#45;&gt;Node3 -->
<g id="edge21" class="edge">
<title>Node14&#45;&gt;Node3</title>
<path fill="none" stroke="midnightblue" d="M559.85,-66.87C491.77,-52.49 424.96,-38.5 378.44,-28.79"/>
<polygon fill="midnightblue" stroke="midnightblue" points="559.39,-70.35 569.9,-68.99 560.84,-63.5 559.39,-70.35"/>
</g>
<!-- Node14&#45;&gt;Node8 -->
<g id="edge22" class="edge">
<title>Node14&#45;&gt;Node8</title>
<path fill="none" stroke="midnightblue" d="M614.66,-106.29C602.49,-124.55 583.2,-149.6 560.5,-165 531.98,-184.35 495.49,-196.75 465.19,-204.41"/>
<polygon fill="midnightblue" stroke="midnightblue" points="617.73,-107.99 620.21,-97.69 611.85,-104.2 617.73,-107.99"/>
</g>
<!-- Node15 -->
<g id="node15" class="node">
<title>Node15</title>
<g id="a_node15"><a xlink:href="rpc_8cpp.html" target="_top" xlink:title="Handles RPC calls.">
<polygon fill="white" stroke="black" points="570,-0.5 570,-30.5 687,-30.5 687,-0.5 570,-0.5"/>
<text text-anchor="start" x="578" y="-18.5" font-family="Helvetica,sans-Serif" font-size="10.00">BaseStationCode/src</text>
<text text-anchor="middle" x="628.5" y="-7.5" font-family="Helvetica,sans-Serif" font-size="10.00">/src/rpc.cpp</text>
</a>
</g>
</g>
<!-- Node14&#45;&gt;Node15 -->
<g id="edge23" class="edge">
<title>Node14&#45;&gt;Node15</title>
<path fill="none" stroke="midnightblue" d="M628.5,-57.11C628.5,-48.15 628.5,-38.32 628.5,-30.58"/>
<polygon fill="midnightblue" stroke="midnightblue" points="625,-57.4 628.5,-67.4 632,-57.4 625,-57.4"/>
</g>
</g>
</svg>
        <g id="navigator" transform="translate(0 0)" fill="#404254">
                <rect fill="#f2f5e9" fill-opacity="0.5" stroke="#606060" stroke-width=".5" x="0" y="0" width="60" height="60"/>
                <use id="zoomplus" xlink:href="#zoomPlus" x="17" y="9" onmousedown="handleZoom(evt,'in')"/>
                <use id="zoomminus" xlink:href="#zoomMin" x="42" y="9" onmousedown="handleZoom(evt,'out')"/>
                <use id="reset" xlink:href="#resetDef" x="30" y="36" onmousedown="handleReset()"/>
                <g id="arrowUp" xlink:href="#dirArrow" transform="translate(30 24)" onmousedown="handlePan(0,-1)">
                  <use xlink:href="#rim" fill="#404040">
                        <set attributeName="fill" to="#808080" begin="arrowUp.mouseover" end="arrowUp.mouseout"/>
                  </use>
                  <path fill="none" stroke="white" stroke-width="1.5" d="M0,-3.0v7 M-2.5,-0.5L0,-3.0L2.5,-0.5"/>
                </g>
                <g id="arrowRight" xlink:href="#dirArrow" transform="rotate(90) translate(36 -43)" onmousedown="handlePan(1,0)">
                  <use xlink:href="#rim" fill="#404040">
                        <set attributeName="fill" to="#808080" begin="arrowRight.mouseover" end="arrowRight.mouseout"/>
                  </use>
                  <path fill="none" stroke="white" stroke-width="1.5" d="M0,-3.0v7 M-2.5,-0.5L0,-3.0L2.5,-0.5"/>
                </g>
                <g id="arrowDown" xlink:href="#dirArrow" transform="rotate(180) translate(-30 -48)" onmousedown="handlePan(0,1)">
                  <use xlink:href="#rim" fill="#404040">
                        <set attributeName="fill" to="#808080" begin="arrowDown.mouseover" end="arrowDown.mouseout"/>
                  </use>
                  <path fill="none" stroke="white" stroke-width="1.5" d="M0,-3.0v7 M-2.5,-0.5L0,-3.0L2.5,-0.5"/>
                </g>
                <g id="arrowLeft" xlink:href="#dirArrow" transform="rotate(270) translate(-36 17)" onmousedown="handlePan(-1,0)">
                  <use xlink:href="#rim" fill="#404040">
                        <set attributeName="fill" to="#808080" begin="arrowLeft.mouseover" end="arrowLeft.mouseout"/>
                  </use>
                  <path fill="none" stroke="white" stroke-width="1.5" d="M0,-3.0v7 M-2.5,-0.5L0,-3.0L2.5,-0.5"/>
                </g>
        </g>
        <svg viewBox="0 0 15 15" width="100%" height="30px" preserveAspectRatio="xMaxYMin meet">
         <g id="arrow_out" transform="scale(0.3 0.3)">
          <a xlink:href="fields_8h__dep__incl_org.svg" target="_base">
           <rect id="button" ry="5" rx="5" y="6" x="6" height="38" width="38"
                fill="#f2f5e9" fill-opacity="0.5" stroke="#606060" stroke-width="1.0"/>
           <path id="arrow"
             d="M 11.500037,31.436501 C 11.940474,20.09759 22.043105,11.32322 32.158766,21.979434 L 37.068811,17.246167 C 37.068811,17.246167 37.088388,32 37.088388,32 L 22.160133,31.978069 C 22.160133,31.978069 26.997745,27.140456 26.997745,27.140456 C 18.528582,18.264221 13.291696,25.230495 11.500037,31.436501 z"
             style="fill:#404040;"/>
          </a>
         </g>
        </svg>
</svg>
