<?xml version="1.0" encoding="UTF-8" standalone="no"?>
<!DOCTYPE svg PUBLIC "-//W3C//DTD SVG 1.1//EN"
 "http://www.w3.org/Graphics/SVG/1.1/DTD/svg11.dtd">
<!-- Generated by graphviz version 2.43.0 (0)
 -->
<!-- Title: Graphical Class Hierarchy Pages: 1 -->
<svg width="472pt" height="341pt"
 viewBox="0.00 0.00 472.00 341.00" xmlns="http://www.w3.org/2000/svg" xmlns:xlink="http://www.w3.org/1999/xlink">
<g id="graph0" class="graph" transform="scale(1 1) rotate(0) translate(4 337)">
<title>Graphical Class Hierarchy</title>
<!-- Node0 -->
<g id="Node000000" class="node">
<title>Node0</title>
<g id="a_Node000000"><a xlink:href="class_lookupable.html" target="_top" xlink:title="Class for fields and devices that can be managed by LookupManager.">
<polygon fill="white" stroke="#666666" points="72,-185 0,-185 0,-166 72,-166 72,-185"/>
<text text-anchor="middle" x="36" y="-173" font-family="Helvetica,sans-Serif" font-size="10.00">Lookupable</text>
</a>
</g>
</g>
<!-- Node1 -->
<g id="Node000001" class="node">
<title>Node1</title>
<g id="a_Node000001"><a xlink:href="class_device.html" target="_top" xlink:title="Each sensor / device on the PJON network.">
<polygon fill="white" stroke="#666666" points="158,-204 108,-204 108,-185 158,-185 158,-204"/>
<text text-anchor="middle" x="133" y="-192" font-family="Helvetica,sans-Serif" font-size="10.00">Device</text>
</a>
</g>
</g>
<!-- Node0&#45;&gt;Node1 -->
<g id="edge1_Node000000_Node000001" class="edge">
<title>Node0&#45;&gt;Node1</title>
<g id="a_edge1_Node000000_Node000001"><a xlink:title=" ">
<path fill="none" stroke="#63b8ff" d="M82.09,-184.52C91.03,-186.31 100.09,-188.12 107.99,-189.7"/>
<polygon fill="#63b8ff" stroke="#63b8ff" points="82.6,-181.05 72.1,-182.52 81.22,-187.91 82.6,-181.05"/>
</a>
</g>
</g>
<!-- Node2 -->
<g id="Node000002" class="node">
<title>Node2</title>
<g id="a_Node000002"><a xlink:href="class_field.html" target="_top" xlink:title="Class for handling data fields in messages.">
<polygon fill="white" stroke="#666666" points="153,-167 113,-167 113,-148 153,-148 153,-167"/>
<text text-anchor="middle" x="133" y="-155" font-family="Helvetica,sans-Serif" font-size="10.00">Field</text>
</a>
</g>
</g>
<!-- Node0&#45;&gt;Node2 -->
<g id="edge2_Node000000_Node000002" class="edge">
<title>Node0&#45;&gt;Node2</title>
<g id="a_edge2_Node000000_Node000002"><a xlink:title=" ">
<path fill="none" stroke="#63b8ff" d="M81.95,-166.98C92.79,-164.93 103.81,-162.84 112.74,-161.15"/>
<polygon fill="#63b8ff" stroke="#63b8ff" points="81.28,-163.55 72.1,-168.85 82.58,-170.43 81.28,-163.55"/>
</a>
</g>
</g>
<!-- Node3 -->
<g id="Node000003" class="node">
<title>Node3</title>
<g id="a_Node000003"><a xlink:href="class_settable_field.html" target="_top" xlink:title=" ">
<polygon fill="white" stroke="#666666" points="325,-315 194,-315 194,-296 325,-296 325,-315"/>
<text text-anchor="middle" x="259.5" y="-303" font-family="Helvetica,sans-Serif" font-size="10.00">SettableField&lt; int8_t &gt;</text>
</a>
</g>
</g>
<!-- Node2&#45;&gt;Node3 -->
<g id="edge3_Node000002_Node000003" class="edge">
<title>Node2&#45;&gt;Node3</title>
<g id="a_edge3_Node000002_Node000003"><a xlink:title=" ">
<path fill="none" stroke="#63b8ff" d="M156.3,-174.26C156.9,-174.99 157.47,-175.74 158,-176.5 187.6,-219.09 156.57,-251.6 194,-287.5 197.52,-290.88 201.63,-293.64 206.03,-295.88"/>
<polygon fill="#63b8ff" stroke="#63b8ff" points="158.6,-171.61 148.99,-167.14 153.71,-176.63 158.6,-171.61"/>
</a>
</g>
</g>
<!-- Node6 -->
<g id="Node000006" class="node">
<title>Node6</title>
<g id="a_Node000006"><a xlink:href="class_byte_field.html" target="_top" xlink:title="Fields that contain an unsigned, single byte integer.">
<polygon fill="white" stroke="#666666" points="290.5,-278 228.5,-278 228.5,-259 290.5,-259 290.5,-278"/>
<text text-anchor="middle" x="259.5" y="-266" font-family="Helvetica,sans-Serif" font-size="10.00">ByteField</text>
</a>
</g>
</g>
<!-- Node2&#45;&gt;Node6 -->
<g id="edge6_Node000002_Node000006" class="edge">
<title>Node2&#45;&gt;Node6</title>
<g id="a_edge6_Node000002_Node000006"><a xlink:title=" ">
<path fill="none" stroke="#63b8ff" d="M156.16,-174.36C156.8,-175.06 157.42,-175.78 158,-176.5 180.91,-205.01 165.91,-227.08 194,-250.5 203.64,-258.54 216.63,-263 228.42,-265.47"/>
<polygon fill="#63b8ff" stroke="#63b8ff" points="158.37,-171.63 148.66,-167.39 153.61,-176.76 158.37,-171.63"/>
</a>
</g>
</g>
<!-- Node7 -->
<g id="Node000007" class="node">
<title>Node7</title>
<g id="a_Node000007"><a xlink:href="class_flag_field.html" target="_top" xlink:title="Fields that don&#39;t have any value or payload.">
<polygon fill="white" stroke="#666666" points="290,-241 229,-241 229,-222 290,-222 290,-241"/>
<text text-anchor="middle" x="259.5" y="-229" font-family="Helvetica,sans-Serif" font-size="10.00">FlagField</text>
</a>
</g>
</g>
<!-- Node2&#45;&gt;Node7 -->
<g id="edge7_Node000002_Node000007" class="edge">
<title>Node2&#45;&gt;Node7</title>
<g id="a_edge7_Node000002_Node000007"><a xlink:title=" ">
<path fill="none" stroke="#63b8ff" d="M154.98,-173.84C156.01,-174.73 157.02,-175.62 158,-176.5 175.03,-191.88 174.27,-201.79 194,-213.5 204.6,-219.79 217.48,-223.96 228.93,-226.68"/>
<polygon fill="#63b8ff" stroke="#63b8ff" points="156.91,-170.9 146.96,-167.26 152.47,-176.31 156.91,-170.9"/>
</a>
</g>
</g>
<!-- Node8 -->
<g id="Node000008" class="node">
<title>Node8</title>
<g id="a_Node000008"><a xlink:href="class_long_u_int_field.html" target="_top" xlink:title="Fields that contain an unsigned, 4 byte integer.">
<polygon fill="white" stroke="#666666" points="301,-204 218,-204 218,-185 301,-185 301,-204"/>
<text text-anchor="middle" x="259.5" y="-192" font-family="Helvetica,sans-Serif" font-size="10.00">LongUIntField</text>
</a>
</g>
</g>
<!-- Node2&#45;&gt;Node8 -->
<g id="edge8_Node000002_Node000008" class="edge">
<title>Node2&#45;&gt;Node8</title>
<g id="a_edge8_Node000002_Node000008"><a xlink:title=" ">
<path fill="none" stroke="#63b8ff" d="M162.86,-166.86C172.72,-170 183.82,-173.47 194,-176.5 203.47,-179.32 213.76,-182.25 223.29,-184.91"/>
<polygon fill="#63b8ff" stroke="#63b8ff" points="163.72,-163.46 153.13,-163.74 161.59,-170.13 163.72,-163.46"/>
</a>
</g>
</g>
<!-- Node9 -->
<g id="Node000009" class="node">
<title>Node9</title>
<g id="a_Node000009"><a xlink:href="class_pump_on_time_field.html" target="_top" xlink:title="Fields for pump on times (2 bytes in 0.5s increments)">
<polygon fill="white" stroke="#666666" points="312.5,-167 206.5,-167 206.5,-148 312.5,-148 312.5,-167"/>
<text text-anchor="middle" x="259.5" y="-155" font-family="Helvetica,sans-Serif" font-size="10.00">PumpOnTimeField</text>
</a>
</g>
</g>
<!-- Node2&#45;&gt;Node9 -->
<g id="edge9_Node000002_Node000009" class="edge">
<title>Node2&#45;&gt;Node9</title>
<g id="a_edge9_Node000002_Node000009"><a xlink:title=" ">
<path fill="none" stroke="#63b8ff" d="M163.31,-157.5C176.2,-157.5 191.73,-157.5 206.48,-157.5"/>
<polygon fill="#63b8ff" stroke="#63b8ff" points="163.18,-154 153.18,-157.5 163.18,-161 163.18,-154"/>
</a>
</g>
</g>
<!-- Node10 -->
<g id="Node000010" class="node">
<title>Node10</title>
<g id="a_Node000010"><a xlink:href="class_settable_field.html" target="_top" xlink:title="Class for fields that can be set.">
<polygon fill="white" stroke="#666666" points="314,-130 205,-130 205,-111 314,-111 314,-130"/>
<text text-anchor="middle" x="259.5" y="-118" font-family="Helvetica,sans-Serif" font-size="10.00">SettableField&lt; T &gt;</text>
</a>
</g>
</g>
<!-- Node2&#45;&gt;Node10 -->
<g id="edge10_Node000002_Node000010" class="edge">
<title>Node2&#45;&gt;Node10</title>
<g id="a_edge10_Node000002_Node000010"><a xlink:title=" ">
<path fill="none" stroke="#63b8ff" d="M162.91,-148.79C172.77,-145.83 183.86,-142.51 194,-139.5 204.41,-136.41 215.76,-133.05 226.01,-130.04"/>
<polygon fill="#63b8ff" stroke="#63b8ff" points="161.75,-145.49 153.18,-151.72 163.76,-152.19 161.75,-145.49"/>
</a>
</g>
</g>
<!-- Node11 -->
<g id="Node000011" class="node">
<title>Node11</title>
<g id="a_Node000011"><a xlink:href="class_tenths_byte_field.html" target="_top" xlink:title="Field for decoding 1 byte signed data in tenths.">
<polygon fill="white" stroke="#666666" points="306.5,-93 212.5,-93 212.5,-74 306.5,-74 306.5,-93"/>
<text text-anchor="middle" x="259.5" y="-81" font-family="Helvetica,sans-Serif" font-size="10.00">TenthsByteField</text>
</a>
</g>
</g>
<!-- Node2&#45;&gt;Node11 -->
<g id="edge11_Node000002_Node000011" class="edge">
<title>Node2&#45;&gt;Node11</title>
<g id="a_edge11_Node000002_Node000011"><a xlink:title=" ">
<path fill="none" stroke="#63b8ff" d="M148.85,-140.2C160.12,-128.07 176.61,-112.33 194,-102.5 200.71,-98.71 208.24,-95.61 215.74,-93.1"/>
<polygon fill="#63b8ff" stroke="#63b8ff" points="146.01,-138.13 141.93,-147.91 151.22,-142.81 146.01,-138.13"/>
</a>
</g>
</g>
<!-- Node12 -->
<g id="Node000012" class="node">
<title>Node12</title>
<g id="a_Node000012"><a xlink:href="class_tenths_field.html" target="_top" xlink:title="Field for decoding 2 byte signed data in tenths.">
<polygon fill="white" stroke="#666666" points="295,-56 224,-56 224,-37 295,-37 295,-56"/>
<text text-anchor="middle" x="259.5" y="-44" font-family="Helvetica,sans-Serif" font-size="10.00">TenthsField</text>
</a>
</g>
</g>
<!-- Node2&#45;&gt;Node12 -->
<g id="edge12_Node000002_Node000012" class="edge">
<title>Node2&#45;&gt;Node12</title>
<g id="a_edge12_Node000002_Node000012"><a xlink:title=" ">
<path fill="none" stroke="#63b8ff" d="M141.62,-138.37C150.92,-117.45 168.61,-84.39 194,-65.5 202.71,-59.02 213.6,-54.74 223.95,-51.92"/>
<polygon fill="#63b8ff" stroke="#63b8ff" points="138.3,-137.24 137.63,-147.81 144.75,-139.96 138.3,-137.24"/>
</a>
</g>
</g>
<!-- Node13 -->
<g id="Node000013" class="node">
<title>Node13</title>
<g id="a_Node000013"><a xlink:href="class_u_int_field.html" target="_top" xlink:title="Fields that contain an unsigned, 2 byte integer.">
<polygon fill="white" stroke="#666666" points="289.5,-19 229.5,-19 229.5,0 289.5,0 289.5,-19"/>
<text text-anchor="middle" x="259.5" y="-7" font-family="Helvetica,sans-Serif" font-size="10.00">UIntField</text>
</a>
</g>
</g>
<!-- Node2&#45;&gt;Node13 -->
<g id="edge13_Node000002_Node000013" class="edge">
<title>Node2&#45;&gt;Node13</title>
<g id="a_edge13_Node000002_Node000013"><a xlink:title=" ">
<path fill="none" stroke="#63b8ff" d="M137.81,-137.86C144.32,-109.56 160.29,-57.53 194,-28.5 203.82,-20.04 217.25,-15.35 229.31,-12.74"/>
<polygon fill="#63b8ff" stroke="#63b8ff" points="134.36,-137.25 135.7,-147.76 141.2,-138.71 134.36,-137.25"/>
</a>
</g>
</g>
<!-- Node4 -->
<g id="Node000004" class="node">
<title>Node4</title>
<g id="a_Node000004"><a xlink:href="class_settable_byte_field.html" target="_top" xlink:title="Fields that contain an unsigned, single byte integer that can be set using an RPC call.">
<polygon fill="white" stroke="#666666" points="464,-333 361,-333 361,-314 464,-314 464,-333"/>
<text text-anchor="middle" x="412.5" y="-321" font-family="Helvetica,sans-Serif" font-size="10.00">SettableByteField</text>
</a>
</g>
</g>
<!-- Node3&#45;&gt;Node4 -->
<g id="edge4_Node000003_Node000004" class="edge">
<title>Node3&#45;&gt;Node4</title>
<g id="a_edge4_Node000003_Node000004"><a xlink:title=" ">
<path fill="none" stroke="#63b8ff" d="M335.45,-314.43C344.03,-315.46 352.62,-316.48 360.77,-317.45"/>
<polygon fill="#63b8ff" stroke="#63b8ff" points="335.76,-310.95 325.41,-313.24 334.93,-317.9 335.76,-310.95"/>
</a>
</g>
</g>
<!-- Node5 -->
<g id="Node000005" class="node">
<title>Node5</title>
<g id="a_Node000005"><a xlink:href="class_settable_flag_field.html" target="_top" xlink:title="Class for flags that can be set via an RPC call.">
<polygon fill="white" stroke="#666666" points="463,-296 362,-296 362,-277 463,-277 463,-296"/>
<text text-anchor="middle" x="412.5" y="-284" font-family="Helvetica,sans-Serif" font-size="10.00">SettableFlagField</text>
</a>
</g>
</g>
<!-- Node3&#45;&gt;Node5 -->
<g id="edge5_Node000003_Node000005" class="edge">
<title>Node3&#45;&gt;Node5</title>
<g id="a_edge5_Node000003_Node000005"><a xlink:title=" ">
<path fill="none" stroke="#63b8ff" d="M335.44,-296.07C344.34,-294.95 353.26,-293.83 361.69,-292.77"/>
<polygon fill="#63b8ff" stroke="#63b8ff" points="334.9,-292.61 325.41,-297.33 335.77,-299.56 334.9,-292.61"/>
</a>
</g>
</g>
</g>
</svg>
