<?xml version="1.0" encoding="UTF-8" standalone="no"?>
<!DOCTYPE svg PUBLIC "-//W3C//DTD SVG 1.1//EN"
 "http://www.w3.org/Graphics/SVG/1.1/DTD/svg11.dtd">
<!-- Generated by graphviz version 2.43.0 (0)
 -->
<!-- Title: Graphical Class Hierarchy Pages: 1 -->
<svg width="472pt" height="351pt"
 viewBox="0.00 0.00 472.00 351.00" xmlns="http://www.w3.org/2000/svg" xmlns:xlink="http://www.w3.org/1999/xlink">
<g id="graph0" class="graph" transform="scale(1 1) rotate(0) translate(4 347)">
<title>Graphical Class Hierarchy</title>
<polygon fill="white" stroke="transparent" points="-4,4 -4,-347 468,-347 468,4 -4,4"/>
<!-- Node0 -->
<g id="node1" class="node">
<title>Node0</title>
<g id="a_node1"><a xlink:href="class_lookupable.html" target="_top" xlink:title="Class for fields and devices that can be managed by LookupManager.">
<polygon fill="white" stroke="black" points="0,-171.5 0,-190.5 72,-190.5 72,-171.5 0,-171.5"/>
<text text-anchor="middle" x="36" y="-178.5" font-family="Helvetica,sans-Serif" font-size="10.00">Lookupable</text>
</a>
</g>
</g>
<!-- Node1 -->
<g id="node2" class="node">
<title>Node1</title>
<g id="a_node2"><a xlink:href="class_device.html" target="_top" xlink:title="Each sensor / device on the PJON network.">
<polygon fill="white" stroke="black" points="108,-190.5 108,-209.5 158,-209.5 158,-190.5 108,-190.5"/>
<text text-anchor="middle" x="133" y="-197.5" font-family="Helvetica,sans-Serif" font-size="10.00">Device</text>
</a>
</g>
</g>
<!-- Node0&#45;&gt;Node1 -->
<g id="edge1" class="edge">
<title>Node0&#45;&gt;Node1</title>
<path fill="none" stroke="midnightblue" d="M82.09,-190.02C91.03,-191.81 100.09,-193.62 107.99,-195.2"/>
<polygon fill="midnightblue" stroke="midnightblue" points="82.6,-186.55 72.1,-188.02 81.22,-193.41 82.6,-186.55"/>
</g>
<!-- Node2 -->
<g id="node3" class="node">
<title>Node2</title>
<g id="a_node3"><a xlink:href="class_field.html" target="_top" xlink:title="Class for handling data fields in messages.">
<polygon fill="white" stroke="black" points="113,-152.5 113,-171.5 153,-171.5 153,-152.5 113,-152.5"/>
<text text-anchor="middle" x="133" y="-159.5" font-family="Helvetica,sans-Serif" font-size="10.00">Field</text>
</a>
</g>
</g>
<!-- Node0&#45;&gt;Node2 -->
<g id="edge2" class="edge">
<title>Node0&#45;&gt;Node2</title>
<path fill="none" stroke="midnightblue" d="M81.95,-172.01C92.79,-169.84 103.81,-167.64 112.74,-165.85"/>
<polygon fill="midnightblue" stroke="midnightblue" points="81.22,-168.59 72.1,-173.98 82.6,-175.45 81.22,-168.59"/>
</g>
<!-- Node3 -->
<g id="node4" class="node">
<title>Node3</title>
<g id="a_node4"><a xlink:href="class_settable_field.html" target="_top" xlink:title=" ">
<polygon fill="white" stroke="black" points="194,-304.5 194,-323.5 325,-323.5 325,-304.5 194,-304.5"/>
<text text-anchor="middle" x="259.5" y="-311.5" font-family="Helvetica,sans-Serif" font-size="10.00">SettableField&lt; int8_t &gt;</text>
</a>
</g>
</g>
<!-- Node2&#45;&gt;Node3 -->
<g id="edge3" class="edge">
<title>Node2&#45;&gt;Node3</title>
<path fill="none" stroke="midnightblue" d="M156.3,-178.75C156.9,-179.48 157.47,-180.23 158,-181 188.16,-224.75 156.07,-257.8 194,-295 197.92,-298.84 202.57,-301.91 207.56,-304.37"/>
<polygon fill="midnightblue" stroke="midnightblue" points="158.61,-176.11 149.01,-171.63 153.72,-181.12 158.61,-176.11"/>
</g>
<!-- Node6 -->
<g id="node7" class="node">
<title>Node6</title>
<g id="a_node7"><a xlink:href="class_byte_field.html" target="_top" xlink:title="Fields that contain an unsigned, single byte integer.">
<polygon fill="white" stroke="black" points="228.5,-266.5 228.5,-285.5 290.5,-285.5 290.5,-266.5 228.5,-266.5"/>
<text text-anchor="middle" x="259.5" y="-273.5" font-family="Helvetica,sans-Serif" font-size="10.00">ByteField</text>
</a>
</g>
</g>
<!-- Node2&#45;&gt;Node6 -->
<g id="edge6" class="edge">
<title>Node2&#45;&gt;Node6</title>
<path fill="none" stroke="midnightblue" d="M156.17,-178.85C156.81,-179.55 157.42,-180.27 158,-181 181.26,-210.25 165.59,-232.71 194,-257 203.58,-265.19 216.56,-269.86 228.36,-272.51"/>
<polygon fill="midnightblue" stroke="midnightblue" points="158.38,-176.13 148.68,-171.87 153.61,-181.25 158.38,-176.13"/>
</g>
<!-- Node7 -->
<g id="node8" class="node">
<title>Node7</title>
<g id="a_node8"><a xlink:href="class_flag_field.html" target="_top" xlink:title="Fields that don&#39;t have any value or payload.">
<polygon fill="white" stroke="black" points="229,-228.5 229,-247.5 290,-247.5 290,-228.5 229,-228.5"/>
<text text-anchor="middle" x="259.5" y="-235.5" font-family="Helvetica,sans-Serif" font-size="10.00">FlagField</text>
</a>
</g>
</g>
<!-- Node2&#45;&gt;Node7 -->
<g id="edge7" class="edge">
<title>Node2&#45;&gt;Node7</title>
<path fill="none" stroke="midnightblue" d="M154.99,-178.33C156.02,-179.22 157.03,-180.11 158,-181 175.16,-196.7 174.16,-206.85 194,-219 204.55,-225.46 217.42,-229.83 228.89,-232.73"/>
<polygon fill="midnightblue" stroke="midnightblue" points="156.93,-175.39 146.98,-171.73 152.48,-180.79 156.93,-175.39"/>
</g>
<!-- Node8 -->
<g id="node9" class="node">
<title>Node8</title>
<g id="a_node9"><a xlink:href="class_long_u_int_field.html" target="_top" xlink:title="Fields that contain an unsigned, 4 byte integer.">
<polygon fill="white" stroke="black" points="218,-190.5 218,-209.5 301,-209.5 301,-190.5 218,-190.5"/>
<text text-anchor="middle" x="259.5" y="-197.5" font-family="Helvetica,sans-Serif" font-size="10.00">LongUIntField</text>
</a>
</g>
</g>
<!-- Node2&#45;&gt;Node8 -->
<g id="edge8" class="edge">
<title>Node2&#45;&gt;Node8</title>
<path fill="none" stroke="midnightblue" d="M162.89,-171.28C172.74,-174.41 183.84,-177.9 194,-181 204.27,-184.14 215.49,-187.48 225.65,-190.46"/>
<polygon fill="midnightblue" stroke="midnightblue" points="163.75,-167.88 153.15,-168.17 161.62,-174.55 163.75,-167.88"/>
</g>
<!-- Node9 -->
<g id="node10" class="node">
<title>Node9</title>
<g id="a_node10"><a xlink:href="class_pump_on_time_field.html" target="_top" xlink:title="Fields for pump on times (2 bytes in 0.5s increments)">
<polygon fill="white" stroke="black" points="206.5,-152.5 206.5,-171.5 312.5,-171.5 312.5,-152.5 206.5,-152.5"/>
<text text-anchor="middle" x="259.5" y="-159.5" font-family="Helvetica,sans-Serif" font-size="10.00">PumpOnTimeField</text>
</a>
</g>
</g>
<!-- Node2&#45;&gt;Node9 -->
<g id="edge9" class="edge">
<title>Node2&#45;&gt;Node9</title>
<path fill="none" stroke="midnightblue" d="M163.31,-162C176.2,-162 191.73,-162 206.48,-162"/>
<polygon fill="midnightblue" stroke="midnightblue" points="163.18,-158.5 153.18,-162 163.18,-165.5 163.18,-158.5"/>
</g>
<!-- Node10 -->
<g id="node11" class="node">
<title>Node10</title>
<g id="a_node11"><a xlink:href="class_settable_field.html" target="_top" xlink:title="Class for fields that can be set.">
<polygon fill="white" stroke="black" points="205,-114.5 205,-133.5 314,-133.5 314,-114.5 205,-114.5"/>
<text text-anchor="middle" x="259.5" y="-121.5" font-family="Helvetica,sans-Serif" font-size="10.00">SettableField&lt; T &gt;</text>
</a>
</g>
</g>
<!-- Node2&#45;&gt;Node10 -->
<g id="edge10" class="edge">
<title>Node2&#45;&gt;Node10</title>
<path fill="none" stroke="midnightblue" d="M162.89,-152.72C172.74,-149.59 183.84,-146.1 194,-143 204.27,-139.86 215.49,-136.52 225.65,-133.54"/>
<polygon fill="midnightblue" stroke="midnightblue" points="161.62,-149.45 153.15,-155.83 163.75,-156.12 161.62,-149.45"/>
</g>
<!-- Node11 -->
<g id="node12" class="node">
<title>Node11</title>
<g id="a_node12"><a xlink:href="class_tenths_byte_field.html" target="_top" xlink:title="Field for decoding 1 byte signed data in tenths.">
<polygon fill="white" stroke="black" points="212.5,-76.5 212.5,-95.5 306.5,-95.5 306.5,-76.5 212.5,-76.5"/>
<text text-anchor="middle" x="259.5" y="-83.5" font-family="Helvetica,sans-Serif" font-size="10.00">TenthsByteField</text>
</a>
</g>
</g>
<!-- Node2&#45;&gt;Node11 -->
<g id="edge11" class="edge">
<title>Node2&#45;&gt;Node11</title>
<path fill="none" stroke="midnightblue" d="M148.03,-144.85C159.25,-132.17 176.03,-115.36 194,-105 200.67,-101.15 208.19,-98.02 215.68,-95.5"/>
<polygon fill="midnightblue" stroke="midnightblue" points="145.34,-142.61 141.5,-152.48 150.66,-147.16 145.34,-142.61"/>
</g>
<!-- Node12 -->
<g id="node13" class="node">
<title>Node12</title>
<g id="a_node13"><a xlink:href="class_tenths_field.html" target="_top" xlink:title="Field for decoding 2 byte signed data in tenths.">
<polygon fill="white" stroke="black" points="224,-38.5 224,-57.5 295,-57.5 295,-38.5 224,-38.5"/>
<text text-anchor="middle" x="259.5" y="-45.5" font-family="Helvetica,sans-Serif" font-size="10.00">TenthsField</text>
</a>
</g>
</g>
<!-- Node2&#45;&gt;Node12 -->
<g id="edge12" class="edge">
<title>Node2&#45;&gt;Node12</title>
<path fill="none" stroke="midnightblue" d="M141.19,-142.88C150.27,-121.32 167.92,-86.7 194,-67 202.66,-60.46 213.54,-56.16 223.89,-53.34"/>
<polygon fill="midnightblue" stroke="midnightblue" points="137.89,-141.71 137.43,-152.29 144.39,-144.31 137.89,-141.71"/>
</g>
<!-- Node13 -->
<g id="node14" class="node">
<title>Node13</title>
<g id="a_node14"><a xlink:href="class_u_int_field.html" target="_top" xlink:title="Fields that contain an unsigned, 2 byte integer.">
<polygon fill="white" stroke="black" points="229.5,-0.5 229.5,-19.5 289.5,-19.5 289.5,-0.5 229.5,-0.5"/>
<text text-anchor="middle" x="259.5" y="-7.5" font-family="Helvetica,sans-Serif" font-size="10.00">UIntField</text>
</a>
</g>
</g>
<!-- Node2&#45;&gt;Node13 -->
<g id="edge13" class="edge">
<title>Node2&#45;&gt;Node13</title>
<path fill="none" stroke="midnightblue" d="M137.53,-142.19C143.76,-113.12 159.44,-59.12 194,-29 203.77,-20.49 217.19,-15.79 229.27,-13.19"/>
<polygon fill="midnightblue" stroke="midnightblue" points="134.03,-141.84 135.53,-152.33 140.9,-143.2 134.03,-141.84"/>
</g>
<!-- Node4 -->
<g id="node5" class="node">
<title>Node4</title>
<g id="a_node5"><a xlink:href="class_settable_byte_field.html" target="_top" xlink:title="Fields that contain an unsigned, single byte integer that can be set using an RPC call.">
<polygon fill="white" stroke="black" points="361,-323.5 361,-342.5 464,-342.5 464,-323.5 361,-323.5"/>
<text text-anchor="middle" x="412.5" y="-330.5" font-family="Helvetica,sans-Serif" font-size="10.00">SettableByteField</text>
</a>
</g>
</g>
<!-- Node3&#45;&gt;Node4 -->
<g id="edge4" class="edge">
<title>Node3&#45;&gt;Node4</title>
<path fill="none" stroke="midnightblue" d="M335.45,-323.43C344.03,-324.51 352.62,-325.59 360.77,-326.62"/>
<polygon fill="midnightblue" stroke="midnightblue" points="335.77,-319.94 325.41,-322.17 334.9,-326.89 335.77,-319.94"/>
</g>
<!-- Node5 -->
<g id="node6" class="node">
<title>Node5</title>
<g id="a_node6"><a xlink:href="class_settable_flag_field.html" target="_top" xlink:title="Class for flags that can be set via an RPC call.">
<polygon fill="white" stroke="black" points="362,-285.5 362,-304.5 463,-304.5 463,-285.5 362,-285.5"/>
<text text-anchor="middle" x="412.5" y="-292.5" font-family="Helvetica,sans-Serif" font-size="10.00">SettableFlagField</text>
</a>
</g>
</g>
<!-- Node3&#45;&gt;Node5 -->
<g id="edge5" class="edge">
<title>Node3&#45;&gt;Node5</title>
<path fill="none" stroke="midnightblue" d="M335.44,-304.57C344.34,-303.45 353.26,-302.33 361.69,-301.27"/>
<polygon fill="midnightblue" stroke="midnightblue" points="334.9,-301.11 325.41,-305.83 335.77,-308.06 334.9,-301.11"/>
</g>
</g>
</svg>
