<?xml version="1.0" encoding="UTF-8" standalone="no"?>
<!DOCTYPE svg PUBLIC "-//W3C//DTD SVG 1.1//EN"
 "http://www.w3.org/Graphics/SVG/1.1/DTD/svg11.dtd">
<!-- Generated by graphviz version 2.43.0 (0)
 -->
<!-- Title: Graphical Class Hierarchy Pages: 1 -->
<svg width="472pt" height="313pt"
 viewBox="0.00 0.00 472.00 313.00" xmlns="http://www.w3.org/2000/svg" xmlns:xlink="http://www.w3.org/1999/xlink">
<g id="graph0" class="graph" transform="scale(1 1) rotate(0) translate(4 309)">
<title>Graphical Class Hierarchy</title>
<polygon fill="white" stroke="transparent" points="-4,4 -4,-309 468,-309 468,4 -4,4"/>
<!-- Node0 -->
<g id="node1" class="node">
<title>Node0</title>
<g id="a_node1"><a xlink:href="class_lookupable.html" target="_top" xlink:title="Class for fields and devices that can be managed by LookupManager.">
<polygon fill="white" stroke="black" points="0,-152.5 0,-171.5 72,-171.5 72,-152.5 0,-152.5"/>
<text text-anchor="middle" x="36" y="-159.5" font-family="Helvetica,sans-Serif" font-size="10.00">Lookupable</text>
</a>
</g>
</g>
<!-- Node1 -->
<g id="node2" class="node">
<title>Node1</title>
<g id="a_node2"><a xlink:href="class_device.html" target="_top" xlink:title="Each sensor / device on the PJON network.">
<polygon fill="white" stroke="black" points="108,-171.5 108,-190.5 158,-190.5 158,-171.5 108,-171.5"/>
<text text-anchor="middle" x="133" y="-178.5" font-family="Helvetica,sans-Serif" font-size="10.00">Device</text>
</a>
</g>
</g>
<!-- Node0&#45;&gt;Node1 -->
<g id="edge1" class="edge">
<title>Node0&#45;&gt;Node1</title>
<path fill="none" stroke="midnightblue" d="M82.09,-171.02C91.03,-172.81 100.09,-174.62 107.99,-176.2"/>
<polygon fill="midnightblue" stroke="midnightblue" points="82.6,-167.55 72.1,-169.02 81.22,-174.41 82.6,-167.55"/>
</g>
<!-- Node2 -->
<g id="node3" class="node">
<title>Node2</title>
<g id="a_node3"><a xlink:href="class_field.html" target="_top" xlink:title="Class for handling data fields in messages.">
<polygon fill="white" stroke="black" points="113,-133.5 113,-152.5 153,-152.5 153,-133.5 113,-133.5"/>
<text text-anchor="middle" x="133" y="-140.5" font-family="Helvetica,sans-Serif" font-size="10.00">Field</text>
</a>
</g>
</g>
<!-- Node0&#45;&gt;Node2 -->
<g id="edge2" class="edge">
<title>Node0&#45;&gt;Node2</title>
<path fill="none" stroke="midnightblue" d="M81.95,-153.01C92.79,-150.84 103.81,-148.64 112.74,-146.85"/>
<polygon fill="midnightblue" stroke="midnightblue" points="81.22,-149.59 72.1,-154.98 82.6,-156.45 81.22,-149.59"/>
</g>
<!-- Node3 -->
<g id="node4" class="node">
<title>Node3</title>
<g id="a_node4"><a xlink:href="class_settable_field.html" target="_top" xlink:title=" ">
<polygon fill="white" stroke="black" points="194,-266.5 194,-285.5 325,-285.5 325,-266.5 194,-266.5"/>
<text text-anchor="middle" x="259.5" y="-273.5" font-family="Helvetica,sans-Serif" font-size="10.00">SettableField&lt; int8_t &gt;</text>
</a>
</g>
</g>
<!-- Node2&#45;&gt;Node3 -->
<g id="edge3" class="edge">
<title>Node2&#45;&gt;Node3</title>
<path fill="none" stroke="midnightblue" d="M156.25,-159.79C156.86,-160.51 157.45,-161.25 158,-162 184.66,-198.44 160.89,-226.3 194,-257 198.19,-260.89 203.15,-263.98 208.41,-266.45"/>
<polygon fill="midnightblue" stroke="midnightblue" points="158.52,-157.12 148.87,-152.73 153.67,-162.17 158.52,-157.12"/>
</g>
<!-- Node6 -->
<g id="node7" class="node">
<title>Node6</title>
<g id="a_node7"><a xlink:href="class_byte_field.html" target="_top" xlink:title="Fields that contain an unsigned, single byte integer.">
<polygon fill="white" stroke="black" points="228.5,-228.5 228.5,-247.5 290.5,-247.5 290.5,-228.5 228.5,-228.5"/>
<text text-anchor="middle" x="259.5" y="-235.5" font-family="Helvetica,sans-Serif" font-size="10.00">ByteField</text>
</a>
</g>
</g>
<!-- Node2&#45;&gt;Node6 -->
<g id="edge6" class="edge">
<title>Node2&#45;&gt;Node6</title>
<path fill="none" stroke="midnightblue" d="M155.66,-159.54C156.47,-160.35 157.25,-161.17 158,-162 178.03,-184.28 170.09,-200.94 194,-219 203.87,-226.46 216.63,-231 228.19,-233.76"/>
<polygon fill="midnightblue" stroke="midnightblue" points="157.72,-156.69 147.9,-152.71 153.09,-161.95 157.72,-156.69"/>
</g>
<!-- Node7 -->
<g id="node8" class="node">
<title>Node7</title>
<g id="a_node8"><a xlink:href="class_flag_field.html" target="_top" xlink:title="Fields that don&#39;t have any value or payload.">
<polygon fill="white" stroke="black" points="229,-190.5 229,-209.5 290,-209.5 290,-190.5 229,-190.5"/>
<text text-anchor="middle" x="259.5" y="-197.5" font-family="Helvetica,sans-Serif" font-size="10.00">FlagField</text>
</a>
</g>
</g>
<!-- Node2&#45;&gt;Node7 -->
<g id="edge7" class="edge">
<title>Node2&#45;&gt;Node7</title>
<path fill="none" stroke="midnightblue" d="M154.98,-158.32C166.14,-165.94 180.35,-174.82 194,-181 205.06,-186.01 217.78,-190.09 228.98,-193.16"/>
<polygon fill="midnightblue" stroke="midnightblue" points="156.95,-155.43 146.75,-152.56 152.93,-161.16 156.95,-155.43"/>
</g>
<!-- Node8 -->
<g id="node9" class="node">
<title>Node8</title>
<g id="a_node9"><a xlink:href="class_long_u_int_field.html" target="_top" xlink:title="Fields that contain an unsigned, 4 byte integer.">
<polygon fill="white" stroke="black" points="218,-152.5 218,-171.5 301,-171.5 301,-152.5 218,-152.5"/>
<text text-anchor="middle" x="259.5" y="-159.5" font-family="Helvetica,sans-Serif" font-size="10.00">LongUIntField</text>
</a>
</g>
</g>
<!-- Node2&#45;&gt;Node8 -->
<g id="edge8" class="edge">
<title>Node2&#45;&gt;Node8</title>
<path fill="none" stroke="midnightblue" d="M163.21,-147.46C179.5,-149.94 200.06,-153.08 217.9,-155.8"/>
<polygon fill="midnightblue" stroke="midnightblue" points="163.59,-143.98 153.18,-145.93 162.54,-150.9 163.59,-143.98"/>
</g>
<!-- Node9 -->
<g id="node10" class="node">
<title>Node9</title>
<g id="a_node10"><a xlink:href="class_pump_on_time_field.html" target="_top" xlink:title="Fields for pump on times (2 bytes in 0.5s increments)">
<polygon fill="white" stroke="black" points="206.5,-114.5 206.5,-133.5 312.5,-133.5 312.5,-114.5 206.5,-114.5"/>
<text text-anchor="middle" x="259.5" y="-121.5" font-family="Helvetica,sans-Serif" font-size="10.00">PumpOnTimeField</text>
</a>
</g>
</g>
<!-- Node2&#45;&gt;Node9 -->
<g id="edge9" class="edge">
<title>Node2&#45;&gt;Node9</title>
<path fill="none" stroke="midnightblue" d="M163.31,-138.53C176.2,-136.56 191.73,-134.19 206.48,-131.94"/>
<polygon fill="midnightblue" stroke="midnightblue" points="162.54,-135.1 153.18,-140.07 163.59,-142.02 162.54,-135.1"/>
</g>
<!-- Node10 -->
<g id="node11" class="node">
<title>Node10</title>
<g id="a_node11"><a xlink:href="class_settable_field.html" target="_top" xlink:title="Class for fields that can be set.">
<polygon fill="white" stroke="black" points="205,-76.5 205,-95.5 314,-95.5 314,-76.5 205,-76.5"/>
<text text-anchor="middle" x="259.5" y="-83.5" font-family="Helvetica,sans-Serif" font-size="10.00">SettableField&lt; T &gt;</text>
</a>
</g>
</g>
<!-- Node2&#45;&gt;Node10 -->
<g id="edge10" class="edge">
<title>Node2&#45;&gt;Node10</title>
<path fill="none" stroke="midnightblue" d="M154.98,-127.68C166.14,-120.06 180.35,-111.18 194,-105 202.08,-101.34 211.05,-98.18 219.66,-95.54"/>
<polygon fill="midnightblue" stroke="midnightblue" points="152.93,-124.84 146.75,-133.44 156.95,-130.57 152.93,-124.84"/>
</g>
<!-- Node11 -->
<g id="node12" class="node">
<title>Node11</title>
<g id="a_node12"><a xlink:href="class_tenths_field.html" target="_top" xlink:title="Field for decoding 2 byte signed data in tenths.">
<polygon fill="white" stroke="black" points="224,-38.5 224,-57.5 295,-57.5 295,-38.5 224,-38.5"/>
<text text-anchor="middle" x="259.5" y="-45.5" font-family="Helvetica,sans-Serif" font-size="10.00">TenthsField</text>
</a>
</g>
</g>
<!-- Node2&#45;&gt;Node11 -->
<g id="edge11" class="edge">
<title>Node2&#45;&gt;Node11</title>
<path fill="none" stroke="midnightblue" d="M144.3,-124.1C154.67,-106.8 172.23,-81.72 194,-67 202.9,-60.98 213.73,-56.84 223.96,-54"/>
<polygon fill="midnightblue" stroke="midnightblue" points="140.99,-122.83 139.05,-133.25 147.07,-126.32 140.99,-122.83"/>
</g>
<!-- Node12 -->
<g id="node13" class="node">
<title>Node12</title>
<g id="a_node13"><a xlink:href="class_u_int_field.html" target="_top" xlink:title="Fields that contain an unsigned, 2 byte integer.">
<polygon fill="white" stroke="black" points="229.5,-0.5 229.5,-19.5 289.5,-19.5 289.5,-0.5 229.5,-0.5"/>
<text text-anchor="middle" x="259.5" y="-7.5" font-family="Helvetica,sans-Serif" font-size="10.00">UIntField</text>
</a>
</g>
</g>
<!-- Node2&#45;&gt;Node12 -->
<g id="edge12" class="edge">
<title>Node2&#45;&gt;Node12</title>
<path fill="none" stroke="midnightblue" d="M139.11,-123.47C146.79,-98.01 163.71,-53.82 194,-29 203.93,-20.86 217.24,-16.21 229.18,-13.55"/>
<polygon fill="midnightblue" stroke="midnightblue" points="135.65,-122.85 136.3,-133.42 142.39,-124.75 135.65,-122.85"/>
</g>
<!-- Node4 -->
<g id="node5" class="node">
<title>Node4</title>
<g id="a_node5"><a xlink:href="class_settable_byte_field.html" target="_top" xlink:title="Fields that contain an unsigned, single byte integer that can be set using an RPC call.">
<polygon fill="white" stroke="black" points="361,-285.5 361,-304.5 464,-304.5 464,-285.5 361,-285.5"/>
<text text-anchor="middle" x="412.5" y="-292.5" font-family="Helvetica,sans-Serif" font-size="10.00">SettableByteField</text>
</a>
</g>
</g>
<!-- Node3&#45;&gt;Node4 -->
<g id="edge4" class="edge">
<title>Node3&#45;&gt;Node4</title>
<path fill="none" stroke="midnightblue" d="M335.45,-285.43C344.03,-286.51 352.62,-287.59 360.77,-288.62"/>
<polygon fill="midnightblue" stroke="midnightblue" points="335.77,-281.94 325.41,-284.17 334.9,-288.89 335.77,-281.94"/>
</g>
<!-- Node5 -->
<g id="node6" class="node">
<title>Node5</title>
<g id="a_node6"><a xlink:href="class_settable_flag_field.html" target="_top" xlink:title="Class for flags that can be set via an RPC call.">
<polygon fill="white" stroke="black" points="362,-247.5 362,-266.5 463,-266.5 463,-247.5 362,-247.5"/>
<text text-anchor="middle" x="412.5" y="-254.5" font-family="Helvetica,sans-Serif" font-size="10.00">SettableFlagField</text>
</a>
</g>
</g>
<!-- Node3&#45;&gt;Node5 -->
<g id="edge5" class="edge">
<title>Node3&#45;&gt;Node5</title>
<path fill="none" stroke="midnightblue" d="M335.44,-266.57C344.34,-265.45 353.26,-264.33 361.69,-263.27"/>
<polygon fill="midnightblue" stroke="midnightblue" points="334.9,-263.11 325.41,-267.83 335.77,-270.06 334.9,-263.11"/>
</g>
</g>
</svg>
