<?xml version="1.0" encoding="UTF-8" standalone="no"?>
<!DOCTYPE svg PUBLIC "-//W3C//DTD SVG 1.1//EN"
 "http://www.w3.org/Graphics/SVG/1.1/DTD/svg11.dtd">
<!-- Generated by graphviz version 2.43.0 (0)
 -->
<!-- Title: ESP32BaseStation/src/leds.h Pages: 1 -->
<!--zoomable 487 -->
<svg id="main" version="1.1" xmlns="http://www.w3.org/2000/svg" xmlns:xlink="http://www.w3.org/1999/xlink" xml:space="preserve" onload="init(evt)">
<style type="text/css"><![CDATA[
.edge:hover path { stroke: red; }
.edge:hover polygon { stroke: red; fill: red; }
]]></style>
<script type="text/javascript"><![CDATA[
var edges = document.getElementsByTagName('g');
if (edges && edges.length) {
  for (var i=0;i<edges.length;i++) {
    if (edges[i].id.substr(0,4)=='edge') {
      edges[i].setAttribute('class','edge');
    }
  }
}
]]></script>
        <defs>
                <circle id="rim" cx="0" cy="0" r="7"/>
                <circle id="rim2" cx="0" cy="0" r="3.5"/>
                <g id="zoomPlus">
                        <use xlink:href="#rim" fill="#404040">
                                <set attributeName="fill" to="#808080" begin="zoomplus.mouseover" end="zoomplus.mouseout"/>
                        </use>
                        <path d="M-4,0h8M0,-4v8" fill="none" stroke="white" stroke-width="1.5" pointer-events="none"/>
                </g>
                <g id="zoomMin">
                        <use xlink:href="#rim" fill="#404040">
                                <set attributeName="fill" to="#808080" begin="zoomminus.mouseover" end="zoomminus.mouseout"/>
                        </use>
                        <path d="M-4,0h8" fill="none" stroke="white" stroke-width="1.5" pointer-events="none"/>
                </g>
                <g id="dirArrow">
                        <path fill="none" stroke="white" stroke-width="1.5" d="M0,-3.0v7 M-2.5,-0.5L0,-3.0L2.5,-0.5"/>
                </g>
               <g id="resetDef">
                       <use xlink:href="#rim2" fill="#404040">
                               <set attributeName="fill" to="#808080" begin="reset.mouseover" end="reset.mouseout"/>
                       </use>
               </g>
        </defs>

<script type="text/javascript">
var viewWidth = 759;
var viewHeight = 487;
var sectionId = 'dynsection-0';
</script>
<script xlink:href="svgpan.js"/>
<svg id="graph" class="graph">
<g id="viewport">
<title>ESP32BaseStation/src/leds.h</title>
<polygon fill="white" stroke="transparent" points="-4,4 -4,-483 754.5,-483 754.5,4 -4,4"/>
<!-- Node1 -->
<g id="node1" class="node">
<title>Node1</title>
<g id="a_node1"><a xlink:title="Controls the LEDs on the unit.">
<polygon fill="#bfbfbf" stroke="black" points="352,-448.5 352,-478.5 474,-478.5 474,-448.5 352,-448.5"/>
<text text-anchor="start" x="360" y="-466.5" font-family="Helvetica,sans-Serif" font-size="10.00">ESP32BaseStation/src</text>
<text text-anchor="middle" x="413" y="-455.5" font-family="Helvetica,sans-Serif" font-size="10.00">/leds.h</text>
</a>
</g>
</g>
<!-- Node2 -->
<g id="node2" class="node">
<title>Node2</title>
<g id="a_node2"><a xlink:href="defines_8h.html" target="_top" xlink:title="Definitions and other preprocessor and global stuff.">
<polygon fill="white" stroke="black" points="320,-56.5 320,-75.5 390,-75.5 390,-56.5 320,-56.5"/>
<text text-anchor="middle" x="355" y="-63.5" font-family="Helvetica,sans-Serif" font-size="10.00">../defines.h</text>
</a>
</g>
</g>
<!-- Node1&#45;&gt;Node2 -->
<g id="edge1" class="edge">
<title>Node1&#45;&gt;Node2</title>
<path fill="none" stroke="midnightblue" d="M452.05,-448.39C491.92,-431.16 548,-397.89 548,-347 548,-347 548,-347 548,-177 548,-109.33 457.33,-82.75 400.28,-72.72"/>
<polygon fill="midnightblue" stroke="midnightblue" points="400.84,-69.26 390.4,-71.09 399.7,-76.17 400.84,-69.26"/>
</g>
<!-- Node11 -->
<g id="node11" class="node">
<title>Node11</title>
<g id="a_node11"><a xlink:href="alarm_8h.html" target="_top" xlink:title="Handles alarms.">
<polygon fill="white" stroke="black" points="54,-224.5 54,-243.5 108,-243.5 108,-224.5 54,-224.5"/>
<text text-anchor="middle" x="81" y="-231.5" font-family="Helvetica,sans-Serif" font-size="10.00">alarm.h</text>
</a>
</g>
</g>
<!-- Node1&#45;&gt;Node11 -->
<g id="edge10" class="edge">
<title>Node1&#45;&gt;Node11</title>
<path fill="none" stroke="midnightblue" d="M359.42,-448.45C330.36,-439.82 294.29,-427.45 264,-412 225.66,-392.44 216.82,-384.98 185,-356 148.14,-322.43 111.7,-276.24 93.31,-251.78"/>
<polygon fill="midnightblue" stroke="midnightblue" points="95.96,-249.48 87.18,-243.54 90.34,-253.66 95.96,-249.48"/>
</g>
<!-- Node12 -->
<g id="node12" class="node">
<title>Node12</title>
<g id="a_node12"><a xlink:href="networking_8h.html" target="_top" xlink:title="Header file for networking.cpp.">
<polygon fill="white" stroke="black" points="273,-392.5 273,-411.5 353,-411.5 353,-392.5 273,-392.5"/>
<text text-anchor="middle" x="313" y="-399.5" font-family="Helvetica,sans-Serif" font-size="10.00">networking.h</text>
</a>
</g>
</g>
<!-- Node1&#45;&gt;Node12 -->
<g id="edge12" class="edge">
<title>Node1&#45;&gt;Node12</title>
<path fill="none" stroke="midnightblue" d="M389.3,-448.4C373.27,-438.86 352.2,-426.32 336.26,-416.84"/>
<polygon fill="midnightblue" stroke="midnightblue" points="337.93,-413.76 327.55,-411.66 334.36,-419.78 337.93,-413.76"/>
</g>
<!-- Node13 -->
<g id="node13" class="node">
<title>Node13</title>
<g id="a_node13"><a xlink:href="devices_8h.html" target="_top" xlink:title="Devices and manager for all known devices the base station connects to.">
<polygon fill="white" stroke="black" points="382.5,-224.5 382.5,-243.5 445.5,-243.5 445.5,-224.5 382.5,-224.5"/>
<text text-anchor="middle" x="414" y="-231.5" font-family="Helvetica,sans-Serif" font-size="10.00">devices.h</text>
</a>
</g>
</g>
<!-- Node1&#45;&gt;Node13 -->
<g id="edge35" class="edge">
<title>Node1&#45;&gt;Node13</title>
<path fill="none" stroke="midnightblue" d="M413.06,-448.27C413.24,-408.89 413.72,-298.49 413.92,-253.97"/>
<polygon fill="midnightblue" stroke="midnightblue" points="417.42,-253.94 413.96,-243.93 410.42,-253.91 417.42,-253.94"/>
</g>
<!-- Node3 -->
<g id="node3" class="node">
<title>Node3</title>
<g id="a_node3"><a xlink:title=" ">
<polygon fill="white" stroke="#bfbfbf" points="622.5,-0.5 622.5,-19.5 685.5,-19.5 685.5,-0.5 622.5,-0.5"/>
<text text-anchor="middle" x="654" y="-7.5" font-family="Helvetica,sans-Serif" font-size="10.00">Arduino.h</text>
</a>
</g>
</g>
<!-- Node2&#45;&gt;Node3 -->
<g id="edge2" class="edge">
<title>Node2&#45;&gt;Node3</title>
<path fill="none" stroke="midnightblue" d="M390.14,-59.37C438.03,-51.58 526.7,-36.78 612.36,-20.06"/>
<polygon fill="midnightblue" stroke="midnightblue" points="613.11,-23.48 622.24,-18.11 611.76,-16.61 613.11,-23.48"/>
</g>
<!-- Node4 -->
<g id="node4" class="node">
<title>Node4</title>
<g id="a_node4"><a xlink:title=" ">
<polygon fill="white" stroke="#bfbfbf" points="703.5,-0.5 703.5,-19.5 750.5,-19.5 750.5,-0.5 703.5,-0.5"/>
<text text-anchor="middle" x="727" y="-7.5" font-family="Helvetica,sans-Serif" font-size="10.00">WiFi.h</text>
</a>
</g>
</g>
<!-- Node2&#45;&gt;Node4 -->
<g id="edge3" class="edge">
<title>Node2&#45;&gt;Node4</title>
<path fill="none" stroke="midnightblue" d="M390.03,-62.03C450.23,-56.56 577.31,-43.45 693.22,-20.13"/>
<polygon fill="midnightblue" stroke="midnightblue" points="694.23,-23.5 703.33,-18.06 692.83,-16.64 694.23,-23.5"/>
</g>
<!-- Node5 -->
<g id="node5" class="node">
<title>Node5</title>
<g id="a_node5"><a xlink:title=" ">
<polygon fill="white" stroke="#bfbfbf" points="90,-0.5 90,-19.5 180,-19.5 180,-0.5 90,-0.5"/>
<text text-anchor="middle" x="135" y="-7.5" font-family="Helvetica,sans-Serif" font-size="10.00">PubSubClient.h</text>
</a>
</g>
</g>
<!-- Node2&#45;&gt;Node5 -->
<g id="edge4" class="edge">
<title>Node2&#45;&gt;Node5</title>
<path fill="none" stroke="midnightblue" d="M320.14,-56.44C282.08,-47.1 221.04,-32.12 179.54,-21.93"/>
<polygon fill="midnightblue" stroke="midnightblue" points="180.24,-18.5 169.7,-19.52 178.57,-25.3 180.24,-18.5"/>
</g>
<!-- Node6 -->
<g id="node6" class="node">
<title>Node6</title>
<g id="a_node6"><a xlink:title=" ">
<polygon fill="white" stroke="#bfbfbf" points="198.5,-0.5 198.5,-19.5 281.5,-19.5 281.5,-0.5 198.5,-0.5"/>
<text text-anchor="middle" x="240" y="-7.5" font-family="Helvetica,sans-Serif" font-size="10.00">ArduinoJson.h</text>
</a>
</g>
</g>
<!-- Node2&#45;&gt;Node6 -->
<g id="edge5" class="edge">
<title>Node2&#45;&gt;Node6</title>
<path fill="none" stroke="midnightblue" d="M336.78,-56.44C318.1,-47.68 288.84,-33.94 267.38,-23.86"/>
<polygon fill="midnightblue" stroke="midnightblue" points="268.68,-20.6 258.14,-19.52 265.7,-26.93 268.68,-20.6"/>
</g>
<!-- Node7 -->
<g id="node7" class="node">
<title>Node7</title>
<g id="a_node7"><a xlink:title=" ">
<polygon fill="white" stroke="#bfbfbf" points="300,-0.5 300,-19.5 410,-19.5 410,-0.5 300,-0.5"/>
<text text-anchor="middle" x="355" y="-7.5" font-family="Helvetica,sans-Serif" font-size="10.00">PJONThroughLora.h</text>
</a>
</g>
</g>
<!-- Node2&#45;&gt;Node7 -->
<g id="edge6" class="edge">
<title>Node2&#45;&gt;Node7</title>
<path fill="none" stroke="midnightblue" d="M355,-56.08C355,-49.01 355,-38.86 355,-29.99"/>
<polygon fill="midnightblue" stroke="midnightblue" points="358.5,-29.75 355,-19.75 351.5,-29.75 358.5,-29.75"/>
</g>
<!-- Node8 -->
<g id="node8" class="node">
<title>Node8</title>
<g id="a_node8"><a xlink:title=" ">
<polygon fill="white" stroke="#bfbfbf" points="428,-0.5 428,-19.5 506,-19.5 506,-0.5 428,-0.5"/>
<text text-anchor="middle" x="467" y="-7.5" font-family="Helvetica,sans-Serif" font-size="10.00">TunePlayer.h</text>
</a>
</g>
</g>
<!-- Node2&#45;&gt;Node8 -->
<g id="edge7" class="edge">
<title>Node2&#45;&gt;Node8</title>
<path fill="none" stroke="midnightblue" d="M372.99,-56.32C391.04,-47.62 419.05,-34.12 439.8,-24.11"/>
<polygon fill="midnightblue" stroke="midnightblue" points="441.56,-27.15 449.05,-19.65 438.52,-20.84 441.56,-27.15"/>
</g>
<!-- Node9 -->
<g id="node9" class="node">
<title>Node9</title>
<g id="a_node9"><a xlink:title=" ">
<polygon fill="white" stroke="#bfbfbf" points="524,-0.5 524,-19.5 604,-19.5 604,-0.5 524,-0.5"/>
<text text-anchor="middle" x="564" y="-7.5" font-family="Helvetica,sans-Serif" font-size="10.00">credentials.h</text>
</a>
</g>
</g>
<!-- Node2&#45;&gt;Node9 -->
<g id="edge8" class="edge">
<title>Node2&#45;&gt;Node9</title>
<path fill="none" stroke="midnightblue" d="M388.12,-56.44C424.12,-47.14 481.77,-32.25 521.19,-22.06"/>
<polygon fill="midnightblue" stroke="midnightblue" points="522.23,-25.41 531.04,-19.52 520.48,-18.63 522.23,-25.41"/>
</g>
<!-- Node10 -->
<g id="node10" class="node">
<title>Node10</title>
<g id="a_node10"><a xlink:href="topics_8h.html" target="_top" xlink:title="MQTT topics for a thingsboard gateway.">
<polygon fill="white" stroke="black" points="0,-0.5 0,-19.5 72,-19.5 72,-0.5 0,-0.5"/>
<text text-anchor="middle" x="36" y="-7.5" font-family="Helvetica,sans-Serif" font-size="10.00">src/topics.h</text>
</a>
</g>
</g>
<!-- Node2&#45;&gt;Node10 -->
<g id="edge9" class="edge">
<title>Node2&#45;&gt;Node10</title>
<path fill="none" stroke="midnightblue" d="M319.9,-59.63C269.54,-51.85 173.65,-36.7 82.29,-20.19"/>
<polygon fill="midnightblue" stroke="midnightblue" points="82.79,-16.72 72.33,-18.38 81.54,-23.61 82.79,-16.72"/>
</g>
<!-- Node11&#45;&gt;Node2 -->
<g id="edge11" class="edge">
<title>Node11&#45;&gt;Node2</title>
<path fill="none" stroke="midnightblue" d="M84.01,-224.34C92.29,-201.91 117.63,-141.59 160,-112 204.61,-80.85 267.6,-70.97 309.8,-68"/>
<polygon fill="midnightblue" stroke="midnightblue" points="310.02,-71.49 319.79,-67.39 309.6,-64.5 310.02,-71.49"/>
</g>
<!-- Node12&#45;&gt;Node2 -->
<g id="edge13" class="edge">
<title>Node12&#45;&gt;Node2</title>
<path fill="none" stroke="midnightblue" d="M305.54,-392.28C298.49,-383.62 288.11,-369.69 282,-356 247.42,-278.54 242.99,-252.62 249,-168 250.78,-142.92 241.96,-132.15 257,-112 269.84,-94.8 290.83,-83.98 310.09,-77.28"/>
<polygon fill="midnightblue" stroke="midnightblue" points="311.2,-80.6 319.67,-74.22 309.08,-73.93 311.2,-80.6"/>
</g>
<!-- Node12&#45;&gt;Node13 -->
<g id="edge14" class="edge">
<title>Node12&#45;&gt;Node13</title>
<path fill="none" stroke="midnightblue" d="M319.09,-392.47C325.45,-383.5 335.65,-368.9 344,-356 367.19,-320.17 391.56,-276.46 404.54,-252.61"/>
<polygon fill="midnightblue" stroke="midnightblue" points="407.68,-254.15 409.37,-243.68 401.53,-250.81 407.68,-254.15"/>
</g>
<!-- Node17 -->
<g id="node17" class="node">
<title>Node17</title>
<g id="a_node17"><a xlink:href="lora_8h.html" target="_top" xlink:title="File that handles the LoRa radio and PJON.">
<polygon fill="white" stroke="black" points="291,-336.5 291,-355.5 335,-355.5 335,-336.5 291,-336.5"/>
<text text-anchor="middle" x="313" y="-343.5" font-family="Helvetica,sans-Serif" font-size="10.00">lora.h</text>
</a>
</g>
</g>
<!-- Node12&#45;&gt;Node17 -->
<g id="edge23" class="edge">
<title>Node12&#45;&gt;Node17</title>
<path fill="none" stroke="midnightblue" d="M307.83,-392.08C306.32,-384.93 305.89,-374.64 306.54,-365.69"/>
<polygon fill="midnightblue" stroke="midnightblue" points="310.02,-366.13 307.87,-355.75 303.08,-365.2 310.02,-366.13"/>
</g>
<!-- Node13&#45;&gt;Node2 -->
<g id="edge15" class="edge">
<title>Node13&#45;&gt;Node2</title>
<path fill="none" stroke="midnightblue" d="M427.05,-224.25C455.68,-203.97 519.15,-152.45 490,-112 469.69,-83.82 430.96,-73.02 400.18,-69.01"/>
<polygon fill="midnightblue" stroke="midnightblue" points="400.41,-65.51 390.08,-67.89 399.64,-72.47 400.41,-65.51"/>
</g>
<!-- Node14 -->
<g id="node14" class="node">
<title>Node14</title>
<g id="a_node14"><a xlink:href="lookups_8h.html" target="_top" xlink:title="Lookupable and lookupable manager base classes.">
<polygon fill="white" stroke="black" points="418.5,-112.5 418.5,-131.5 481.5,-131.5 481.5,-112.5 418.5,-112.5"/>
<text text-anchor="middle" x="450" y="-119.5" font-family="Helvetica,sans-Serif" font-size="10.00">lookups.h</text>
</a>
</g>
</g>
<!-- Node13&#45;&gt;Node14 -->
<g id="edge16" class="edge">
<title>Node13&#45;&gt;Node14</title>
<path fill="none" stroke="midnightblue" d="M416.82,-224.37C422.66,-206.54 436.16,-165.3 444.02,-141.27"/>
<polygon fill="midnightblue" stroke="midnightblue" points="447.4,-142.18 447.19,-131.59 440.75,-140.01 447.4,-142.18"/>
</g>
<!-- Node15 -->
<g id="node15" class="node">
<title>Node15</title>
<g id="a_node15"><a xlink:href="fields_8h.html" target="_top" xlink:title="Contains fields classes.">
<polygon fill="white" stroke="black" points="290,-168.5 290,-187.5 342,-187.5 342,-168.5 290,-168.5"/>
<text text-anchor="middle" x="316" y="-175.5" font-family="Helvetica,sans-Serif" font-size="10.00">fields.h</text>
</a>
</g>
</g>
<!-- Node13&#45;&gt;Node15 -->
<g id="edge18" class="edge">
<title>Node13&#45;&gt;Node15</title>
<path fill="none" stroke="midnightblue" d="M398.25,-224.32C382.68,-215.74 358.62,-202.49 340.54,-192.52"/>
<polygon fill="midnightblue" stroke="midnightblue" points="342.15,-189.42 331.71,-187.65 338.78,-195.55 342.15,-189.42"/>
</g>
<!-- Node14&#45;&gt;Node2 -->
<g id="edge17" class="edge">
<title>Node14&#45;&gt;Node2</title>
<path fill="none" stroke="midnightblue" d="M434.74,-112.32C419.78,-103.82 396.75,-90.73 379.27,-80.8"/>
<polygon fill="midnightblue" stroke="midnightblue" points="380.65,-77.55 370.23,-75.65 377.19,-83.64 380.65,-77.55"/>
</g>
<!-- Node15&#45;&gt;Node2 -->
<g id="edge19" class="edge">
<title>Node15&#45;&gt;Node2</title>
<path fill="none" stroke="midnightblue" d="M333.2,-168.39C346.25,-160.79 363.23,-148.39 371,-132 378.14,-116.94 372.25,-98.35 365.7,-84.91"/>
<polygon fill="midnightblue" stroke="midnightblue" points="368.6,-82.92 360.76,-75.79 362.44,-86.25 368.6,-82.92"/>
</g>
<!-- Node15&#45;&gt;Node14 -->
<g id="edge20" class="edge">
<title>Node15&#45;&gt;Node14</title>
<path fill="none" stroke="midnightblue" d="M337.23,-168.44C359.38,-159.52 394.32,-145.44 419.44,-135.32"/>
<polygon fill="midnightblue" stroke="midnightblue" points="420.9,-138.5 428.87,-131.52 418.28,-132.01 420.9,-138.5"/>
</g>
<!-- Node16 -->
<g id="node16" class="node">
<title>Node16</title>
<g id="a_node16"><a xlink:href="conversions_8h.html" target="_top" xlink:title="General functions for converting to and from char arrays.">
<polygon fill="white" stroke="black" points="278,-112.5 278,-131.5 362,-131.5 362,-112.5 278,-112.5"/>
<text text-anchor="middle" x="320" y="-119.5" font-family="Helvetica,sans-Serif" font-size="10.00">conversions.h</text>
</a>
</g>
</g>
<!-- Node15&#45;&gt;Node16 -->
<g id="edge21" class="edge">
<title>Node15&#45;&gt;Node16</title>
<path fill="none" stroke="midnightblue" d="M316.66,-168.08C317.18,-161.01 317.94,-150.86 318.59,-141.99"/>
<polygon fill="midnightblue" stroke="midnightblue" points="322.1,-141.98 319.35,-131.75 315.12,-141.47 322.1,-141.98"/>
</g>
<!-- Node16&#45;&gt;Node2 -->
<g id="edge22" class="edge">
<title>Node16&#45;&gt;Node2</title>
<path fill="none" stroke="midnightblue" d="M325.78,-112.08C330.67,-104.53 337.83,-93.49 343.83,-84.23"/>
<polygon fill="midnightblue" stroke="midnightblue" points="346.83,-86.05 349.33,-75.75 340.95,-82.24 346.83,-86.05"/>
</g>
<!-- Node17&#45;&gt;Node2 -->
<g id="edge24" class="edge">
<title>Node17&#45;&gt;Node2</title>
<path fill="none" stroke="midnightblue" d="M307.31,-336.2C287.11,-303.75 222.53,-188.77 269,-112 278.41,-96.46 295.15,-86.02 311.38,-79.15"/>
<polygon fill="midnightblue" stroke="midnightblue" points="312.75,-82.37 320.82,-75.51 310.23,-75.85 312.75,-82.37"/>
</g>
<!-- Node17&#45;&gt;Node12 -->
<g id="edge27" class="edge">
<title>Node17&#45;&gt;Node12</title>
<path fill="none" stroke="midnightblue" d="M318.13,-355.75C319.66,-362.86 320.1,-373.14 319.47,-382.1"/>
<polygon fill="midnightblue" stroke="midnightblue" points="315.99,-381.71 318.17,-392.08 322.93,-382.62 315.99,-381.71"/>
</g>
<!-- Node17&#45;&gt;Node13 -->
<g id="edge26" class="edge">
<title>Node17&#45;&gt;Node13</title>
<path fill="none" stroke="midnightblue" d="M320.93,-336.37C337.81,-317.97 377.57,-274.67 399.26,-251.05"/>
<polygon fill="midnightblue" stroke="midnightblue" points="401.93,-253.32 406.11,-243.59 396.77,-248.59 401.93,-253.32"/>
</g>
<!-- Node17&#45;&gt;Node14 -->
<g id="edge25" class="edge">
<title>Node17&#45;&gt;Node14</title>
<path fill="none" stroke="midnightblue" d="M316.55,-336.49C325.1,-316.31 348.01,-264.23 373,-224 392.57,-192.49 419.67,-158.78 435.96,-139.36"/>
<polygon fill="midnightblue" stroke="midnightblue" points="438.82,-141.4 442.61,-131.51 433.48,-136.88 438.82,-141.4"/>
</g>
<!-- Node18 -->
<g id="node18" class="node">
<title>Node18</title>
<g id="a_node18"><a xlink:href="rpc_8h.html" target="_top" xlink:title="Handles RPC calls.">
<polygon fill="white" stroke="black" points="148.5,-280.5 148.5,-299.5 189.5,-299.5 189.5,-280.5 148.5,-280.5"/>
<text text-anchor="middle" x="169" y="-287.5" font-family="Helvetica,sans-Serif" font-size="10.00">rpc.h</text>
</a>
</g>
</g>
<!-- Node17&#45;&gt;Node18 -->
<g id="edge28" class="edge">
<title>Node17&#45;&gt;Node18</title>
<path fill="none" stroke="midnightblue" d="M290.82,-336.68C266.22,-327.46 226.42,-312.53 199.05,-302.27"/>
<polygon fill="midnightblue" stroke="midnightblue" points="200.17,-298.95 189.58,-298.72 197.71,-305.5 200.17,-298.95"/>
</g>
<!-- Node18&#45;&gt;Node2 -->
<g id="edge29" class="edge">
<title>Node18&#45;&gt;Node2</title>
<path fill="none" stroke="midnightblue" d="M167.51,-280.29C163.2,-252.02 153.71,-161.79 198,-112 225.87,-80.67 273.94,-70.52 309.57,-67.53"/>
<polygon fill="midnightblue" stroke="midnightblue" points="309.98,-71.01 319.72,-66.85 309.51,-64.03 309.98,-71.01"/>
</g>
<!-- Node18&#45;&gt;Node10 -->
<g id="edge30" class="edge">
<title>Node18&#45;&gt;Node10</title>
<path fill="none" stroke="midnightblue" d="M164.55,-280.42C155.54,-262.24 136,-218.28 136,-179 136,-179 136,-179 136,-121 136,-76.98 91.62,-42.8 61.99,-24.87"/>
<polygon fill="midnightblue" stroke="midnightblue" points="63.37,-21.63 52.96,-19.64 59.86,-27.68 63.37,-21.63"/>
</g>
<!-- Node18&#45;&gt;Node11 -->
<g id="edge31" class="edge">
<title>Node18&#45;&gt;Node11</title>
<path fill="none" stroke="midnightblue" d="M154.86,-280.32C141.13,-271.9 120.06,-258.97 103.94,-249.07"/>
<polygon fill="midnightblue" stroke="midnightblue" points="105.46,-245.9 95.1,-243.65 101.8,-251.87 105.46,-245.9"/>
</g>
<!-- Node18&#45;&gt;Node12 -->
<g id="edge34" class="edge">
<title>Node18&#45;&gt;Node12</title>
<path fill="none" stroke="midnightblue" d="M171.59,-299.78C176.07,-313.53 186.49,-340.2 204,-356 221.45,-371.75 245.17,-382.42 266.03,-389.41"/>
<polygon fill="midnightblue" stroke="midnightblue" points="265.1,-392.78 275.69,-392.45 267.21,-386.11 265.1,-392.78"/>
</g>
<!-- Node18&#45;&gt;Node13 -->
<g id="edge32" class="edge">
<title>Node18&#45;&gt;Node13</title>
<path fill="none" stroke="midnightblue" d="M189.89,-284.4C230.14,-275.52 319.12,-255.91 372.06,-244.24"/>
<polygon fill="midnightblue" stroke="midnightblue" points="373.13,-247.59 382.14,-242.02 371.62,-240.76 373.13,-247.59"/>
</g>
<!-- Node18&#45;&gt;Node15 -->
<g id="edge33" class="edge">
<title>Node18&#45;&gt;Node15</title>
<path fill="none" stroke="midnightblue" d="M180.53,-280.37C205.55,-261.65 265.02,-217.15 296.18,-193.83"/>
<polygon fill="midnightblue" stroke="midnightblue" points="298.61,-196.39 304.52,-187.59 294.42,-190.78 298.61,-196.39"/>
</g>
</g>
</svg>
        <g id="navigator" transform="translate(0 0)" fill="#404254">
                <rect fill="#f2f5e9" fill-opacity="0.5" stroke="#606060" stroke-width=".5" x="0" y="0" width="60" height="60"/>
                <use id="zoomplus" xlink:href="#zoomPlus" x="17" y="9" onmousedown="handleZoom(evt,'in')"/>
                <use id="zoomminus" xlink:href="#zoomMin" x="42" y="9" onmousedown="handleZoom(evt,'out')"/>
                <use id="reset" xlink:href="#resetDef" x="30" y="36" onmousedown="handleReset()"/>
                <g id="arrowUp" xlink:href="#dirArrow" transform="translate(30 24)" onmousedown="handlePan(0,-1)">
                  <use xlink:href="#rim" fill="#404040">
                        <set attributeName="fill" to="#808080" begin="arrowUp.mouseover" end="arrowUp.mouseout"/>
                  </use>
                  <path fill="none" stroke="white" stroke-width="1.5" d="M0,-3.0v7 M-2.5,-0.5L0,-3.0L2.5,-0.5"/>
                </g>
                <g id="arrowRight" xlink:href="#dirArrow" transform="rotate(90) translate(36 -43)" onmousedown="handlePan(1,0)">
                  <use xlink:href="#rim" fill="#404040">
                        <set attributeName="fill" to="#808080" begin="arrowRight.mouseover" end="arrowRight.mouseout"/>
                  </use>
                  <path fill="none" stroke="white" stroke-width="1.5" d="M0,-3.0v7 M-2.5,-0.5L0,-3.0L2.5,-0.5"/>
                </g>
                <g id="arrowDown" xlink:href="#dirArrow" transform="rotate(180) translate(-30 -48)" onmousedown="handlePan(0,1)">
                  <use xlink:href="#rim" fill="#404040">
                        <set attributeName="fill" to="#808080" begin="arrowDown.mouseover" end="arrowDown.mouseout"/>
                  </use>
                  <path fill="none" stroke="white" stroke-width="1.5" d="M0,-3.0v7 M-2.5,-0.5L0,-3.0L2.5,-0.5"/>
                </g>
                <g id="arrowLeft" xlink:href="#dirArrow" transform="rotate(270) translate(-36 17)" onmousedown="handlePan(-1,0)">
                  <use xlink:href="#rim" fill="#404040">
                        <set attributeName="fill" to="#808080" begin="arrowLeft.mouseover" end="arrowLeft.mouseout"/>
                  </use>
                  <path fill="none" stroke="white" stroke-width="1.5" d="M0,-3.0v7 M-2.5,-0.5L0,-3.0L2.5,-0.5"/>
                </g>
        </g>
        <svg viewBox="0 0 15 15" width="100%" height="30px" preserveAspectRatio="xMaxYMin meet">
         <g id="arrow_out" transform="scale(0.3 0.3)">
          <a xlink:href="leds_8h__incl_org.svg" target="_base">
           <rect id="button" ry="5" rx="5" y="6" x="6" height="38" width="38"
                fill="#f2f5e9" fill-opacity="0.5" stroke="#606060" stroke-width="1.0"/>
           <path id="arrow"
             d="M 11.500037,31.436501 C 11.940474,20.09759 22.043105,11.32322 32.158766,21.979434 L 37.068811,17.246167 C 37.068811,17.246167 37.088388,32 37.088388,32 L 22.160133,31.978069 C 22.160133,31.978069 26.997745,27.140456 26.997745,27.140456 C 18.528582,18.264221 13.291696,25.230495 11.500037,31.436501 z"
             style="fill:#404040;"/>
          </a>
         </g>
        </svg>
</svg>
