<?xml version="1.0" encoding="UTF-8" standalone="no"?>
<!DOCTYPE svg PUBLIC "-//W3C//DTD SVG 1.1//EN"
 "http://www.w3.org/Graphics/SVG/1.1/DTD/svg11.dtd">
<!-- Generated by graphviz version 2.43.0 (0)
 -->
<!-- Title: BaseStationCode/src/src/leds.cpp Pages: 1 -->
<svg width="760pt" height="543pt"
 viewBox="0.00 0.00 759.50 543.00" xmlns="http://www.w3.org/2000/svg" xmlns:xlink="http://www.w3.org/1999/xlink">
<g id="graph0" class="graph" transform="scale(1 1) rotate(0) translate(4 539)">
<title>BaseStationCode/src/src/leds.cpp</title>
<polygon fill="white" stroke="transparent" points="-4,4 -4,-539 755.5,-539 755.5,4 -4,4"/>
<!-- Node1 -->
<g id="node1" class="node">
<title>Node1</title>
<g id="a_node1"><a xlink:title="Controls the LEDs on the unit.">
<polygon fill="#bfbfbf" stroke="black" points="305.5,-504.5 305.5,-534.5 422.5,-534.5 422.5,-504.5 305.5,-504.5"/>
<text text-anchor="start" x="313.5" y="-522.5" font-family="Helvetica,sans-Serif" font-size="10.00">BaseStationCode/src</text>
<text text-anchor="middle" x="364" y="-511.5" font-family="Helvetica,sans-Serif" font-size="10.00">/src/leds.cpp</text>
</a>
</g>
</g>
<!-- Node2 -->
<g id="node2" class="node">
<title>Node2</title>
<g id="a_node2"><a xlink:href="leds_8h.html" target="_top" xlink:title="Controls the LEDs on the unit.">
<polygon fill="white" stroke="black" points="341,-448.5 341,-467.5 387,-467.5 387,-448.5 341,-448.5"/>
<text text-anchor="middle" x="364" y="-455.5" font-family="Helvetica,sans-Serif" font-size="10.00">leds.h</text>
</a>
</g>
</g>
<!-- Node1&#45;&gt;Node2 -->
<g id="edge1" class="edge">
<title>Node1&#45;&gt;Node2</title>
<path fill="none" stroke="midnightblue" d="M364,-504.4C364,-496.47 364,-486.46 364,-477.86"/>
<polygon fill="midnightblue" stroke="midnightblue" points="367.5,-477.66 364,-467.66 360.5,-477.66 367.5,-477.66"/>
</g>
<!-- Node3 -->
<g id="node3" class="node">
<title>Node3</title>
<g id="a_node3"><a xlink:href="defines_8h.html" target="_top" xlink:title="Definitions and other preprocessor and global stuff.">
<polygon fill="white" stroke="black" points="271,-56.5 271,-75.5 341,-75.5 341,-56.5 271,-56.5"/>
<text text-anchor="middle" x="306" y="-63.5" font-family="Helvetica,sans-Serif" font-size="10.00">../defines.h</text>
</a>
</g>
</g>
<!-- Node2&#45;&gt;Node3 -->
<g id="edge2" class="edge">
<title>Node2&#45;&gt;Node3</title>
<path fill="none" stroke="midnightblue" d="M387.21,-449.98C425.81,-436.69 499,-403.99 499,-347 499,-347 499,-347 499,-177 499,-109.33 408.33,-82.75 351.28,-72.72"/>
<polygon fill="midnightblue" stroke="midnightblue" points="351.84,-69.26 341.4,-71.09 350.7,-76.17 351.84,-69.26"/>
</g>
<!-- Node12 -->
<g id="node12" class="node">
<title>Node12</title>
<g id="a_node12"><a xlink:href="alarm_8h.html" target="_top" xlink:title="Handles alarms.">
<polygon fill="white" stroke="black" points="5,-224.5 5,-243.5 59,-243.5 59,-224.5 5,-224.5"/>
<text text-anchor="middle" x="32" y="-231.5" font-family="Helvetica,sans-Serif" font-size="10.00">alarm.h</text>
</a>
</g>
</g>
<!-- Node2&#45;&gt;Node12 -->
<g id="edge11" class="edge">
<title>Node2&#45;&gt;Node12</title>
<path fill="none" stroke="midnightblue" d="M340.93,-452.47C310.89,-446.03 257.24,-432.66 215,-412 136.27,-373.49 69.72,-288.45 43.71,-252.06"/>
<polygon fill="midnightblue" stroke="midnightblue" points="46.34,-249.71 37.73,-243.54 40.61,-253.74 46.34,-249.71"/>
</g>
<!-- Node13 -->
<g id="node13" class="node">
<title>Node13</title>
<g id="a_node13"><a xlink:href="networking_8h.html" target="_top" xlink:title="Header file for networking.cpp.">
<polygon fill="white" stroke="black" points="224,-392.5 224,-411.5 304,-411.5 304,-392.5 224,-392.5"/>
<text text-anchor="middle" x="264" y="-399.5" font-family="Helvetica,sans-Serif" font-size="10.00">networking.h</text>
</a>
</g>
</g>
<!-- Node2&#45;&gt;Node13 -->
<g id="edge13" class="edge">
<title>Node2&#45;&gt;Node13</title>
<path fill="none" stroke="midnightblue" d="M347.93,-448.32C332.04,-439.74 307.49,-426.49 289.04,-416.52"/>
<polygon fill="midnightblue" stroke="midnightblue" points="290.49,-413.33 280.03,-411.65 287.16,-419.49 290.49,-413.33"/>
</g>
<!-- Node14 -->
<g id="node14" class="node">
<title>Node14</title>
<g id="a_node14"><a xlink:href="devices_8h.html" target="_top" xlink:title="Devices and manager for all known devices the base station connects to.">
<polygon fill="white" stroke="black" points="333.5,-224.5 333.5,-243.5 396.5,-243.5 396.5,-224.5 333.5,-224.5"/>
<text text-anchor="middle" x="365" y="-231.5" font-family="Helvetica,sans-Serif" font-size="10.00">devices.h</text>
</a>
</g>
</g>
<!-- Node2&#45;&gt;Node14 -->
<g id="edge36" class="edge">
<title>Node2&#45;&gt;Node14</title>
<path fill="none" stroke="midnightblue" d="M364.04,-448.3C364.19,-415.63 364.71,-299.87 364.91,-253.96"/>
<polygon fill="midnightblue" stroke="midnightblue" points="368.41,-253.9 364.96,-243.88 361.41,-253.87 368.41,-253.9"/>
</g>
<!-- Node4 -->
<g id="node4" class="node">
<title>Node4</title>
<g id="a_node4"><a xlink:title=" ">
<polygon fill="white" stroke="#bfbfbf" points="590,-0.5 590,-19.5 670,-19.5 670,-0.5 590,-0.5"/>
<text text-anchor="middle" x="630" y="-7.5" font-family="Helvetica,sans-Serif" font-size="10.00">credentials.h</text>
</a>
</g>
</g>
<!-- Node3&#45;&gt;Node4 -->
<g id="edge3" class="edge">
<title>Node3&#45;&gt;Node4</title>
<path fill="none" stroke="midnightblue" d="M341.2,-59.46C391.7,-51.47 487.89,-36.07 579.87,-20.17"/>
<polygon fill="midnightblue" stroke="midnightblue" points="580.64,-23.59 589.9,-18.43 579.45,-16.69 580.64,-23.59"/>
</g>
<!-- Node5 -->
<g id="node5" class="node">
<title>Node5</title>
<g id="a_node5"><a xlink:title=" ">
<polygon fill="white" stroke="#bfbfbf" points="688.5,-0.5 688.5,-19.5 751.5,-19.5 751.5,-0.5 688.5,-0.5"/>
<text text-anchor="middle" x="720" y="-7.5" font-family="Helvetica,sans-Serif" font-size="10.00">Arduino.h</text>
</a>
</g>
</g>
<!-- Node3&#45;&gt;Node5 -->
<g id="edge4" class="edge">
<title>Node3&#45;&gt;Node5</title>
<path fill="none" stroke="midnightblue" d="M341.13,-61.9C405.77,-55.94 548.06,-41.7 678.14,-19.99"/>
<polygon fill="midnightblue" stroke="midnightblue" points="679,-23.4 688.27,-18.28 677.83,-16.49 679,-23.4"/>
</g>
<!-- Node6 -->
<g id="node6" class="node">
<title>Node6</title>
<g id="a_node6"><a xlink:title=" ">
<polygon fill="white" stroke="#bfbfbf" points="90.5,-0.5 90.5,-19.5 137.5,-19.5 137.5,-0.5 90.5,-0.5"/>
<text text-anchor="middle" x="114" y="-7.5" font-family="Helvetica,sans-Serif" font-size="10.00">WiFi.h</text>
</a>
</g>
</g>
<!-- Node3&#45;&gt;Node6 -->
<g id="edge5" class="edge">
<title>Node3&#45;&gt;Node6</title>
<path fill="none" stroke="midnightblue" d="M275.58,-56.44C240.74,-46.65 183.83,-30.64 147.68,-20.47"/>
<polygon fill="midnightblue" stroke="midnightblue" points="148.2,-16.98 137.62,-17.64 146.3,-23.72 148.2,-16.98"/>
</g>
<!-- Node7 -->
<g id="node7" class="node">
<title>Node7</title>
<g id="a_node7"><a xlink:title=" ">
<polygon fill="white" stroke="#bfbfbf" points="156,-0.5 156,-19.5 246,-19.5 246,-0.5 156,-0.5"/>
<text text-anchor="middle" x="201" y="-7.5" font-family="Helvetica,sans-Serif" font-size="10.00">PubSubClient.h</text>
</a>
</g>
</g>
<!-- Node3&#45;&gt;Node7 -->
<g id="edge6" class="edge">
<title>Node3&#45;&gt;Node7</title>
<path fill="none" stroke="midnightblue" d="M289.13,-56.32C272.29,-47.66 246.19,-34.24 226.76,-24.25"/>
<polygon fill="midnightblue" stroke="midnightblue" points="228.32,-21.12 217.83,-19.65 225.12,-27.34 228.32,-21.12"/>
</g>
<!-- Node8 -->
<g id="node8" class="node">
<title>Node8</title>
<g id="a_node8"><a xlink:title=" ">
<polygon fill="white" stroke="#bfbfbf" points="264.5,-0.5 264.5,-19.5 347.5,-19.5 347.5,-0.5 264.5,-0.5"/>
<text text-anchor="middle" x="306" y="-7.5" font-family="Helvetica,sans-Serif" font-size="10.00">ArduinoJson.h</text>
</a>
</g>
</g>
<!-- Node3&#45;&gt;Node8 -->
<g id="edge7" class="edge">
<title>Node3&#45;&gt;Node8</title>
<path fill="none" stroke="midnightblue" d="M306,-56.08C306,-49.01 306,-38.86 306,-29.99"/>
<polygon fill="midnightblue" stroke="midnightblue" points="309.5,-29.75 306,-19.75 302.5,-29.75 309.5,-29.75"/>
</g>
<!-- Node9 -->
<g id="node9" class="node">
<title>Node9</title>
<g id="a_node9"><a xlink:title=" ">
<polygon fill="white" stroke="#bfbfbf" points="366,-0.5 366,-19.5 476,-19.5 476,-0.5 366,-0.5"/>
<text text-anchor="middle" x="421" y="-7.5" font-family="Helvetica,sans-Serif" font-size="10.00">PJONThroughLora.h</text>
</a>
</g>
</g>
<!-- Node3&#45;&gt;Node9 -->
<g id="edge8" class="edge">
<title>Node3&#45;&gt;Node9</title>
<path fill="none" stroke="midnightblue" d="M324.22,-56.44C342.9,-47.68 372.16,-33.94 393.62,-23.86"/>
<polygon fill="midnightblue" stroke="midnightblue" points="395.3,-26.93 402.86,-19.52 392.32,-20.6 395.3,-26.93"/>
</g>
<!-- Node10 -->
<g id="node10" class="node">
<title>Node10</title>
<g id="a_node10"><a xlink:title=" ">
<polygon fill="white" stroke="#bfbfbf" points="494,-0.5 494,-19.5 572,-19.5 572,-0.5 494,-0.5"/>
<text text-anchor="middle" x="533" y="-7.5" font-family="Helvetica,sans-Serif" font-size="10.00">TunePlayer.h</text>
</a>
</g>
</g>
<!-- Node3&#45;&gt;Node10 -->
<g id="edge9" class="edge">
<title>Node3&#45;&gt;Node10</title>
<path fill="none" stroke="midnightblue" d="M341.47,-56.56C380.72,-47.23 444.1,-32.15 487.1,-21.92"/>
<polygon fill="midnightblue" stroke="midnightblue" points="488.11,-25.28 497.03,-19.56 486.49,-18.47 488.11,-25.28"/>
</g>
<!-- Node11 -->
<g id="node11" class="node">
<title>Node11</title>
<g id="a_node11"><a xlink:href="topics_8h.html" target="_top" xlink:title="MQTT topics for a thingsboard gateway.">
<polygon fill="white" stroke="black" points="0,-0.5 0,-19.5 72,-19.5 72,-0.5 0,-0.5"/>
<text text-anchor="middle" x="36" y="-7.5" font-family="Helvetica,sans-Serif" font-size="10.00">src/topics.h</text>
</a>
</g>
</g>
<!-- Node3&#45;&gt;Node11 -->
<g id="edge10" class="edge">
<title>Node3&#45;&gt;Node11</title>
<path fill="none" stroke="midnightblue" d="M270.98,-58C222.72,-48.34 135.69,-30.94 82.16,-20.23"/>
<polygon fill="midnightblue" stroke="midnightblue" points="82.74,-16.78 72.25,-18.25 81.37,-23.64 82.74,-16.78"/>
</g>
<!-- Node12&#45;&gt;Node3 -->
<g id="edge12" class="edge">
<title>Node12&#45;&gt;Node3</title>
<path fill="none" stroke="midnightblue" d="M35.01,-224.34C43.29,-201.91 68.63,-141.59 111,-112 155.61,-80.85 218.6,-70.97 260.8,-68"/>
<polygon fill="midnightblue" stroke="midnightblue" points="261.02,-71.49 270.79,-67.39 260.6,-64.5 261.02,-71.49"/>
</g>
<!-- Node13&#45;&gt;Node3 -->
<g id="edge14" class="edge">
<title>Node13&#45;&gt;Node3</title>
<path fill="none" stroke="midnightblue" d="M256.54,-392.28C249.49,-383.62 239.11,-369.69 233,-356 198.42,-278.54 193.99,-252.62 200,-168 201.78,-142.92 192.96,-132.15 208,-112 220.84,-94.8 241.83,-83.98 261.09,-77.28"/>
<polygon fill="midnightblue" stroke="midnightblue" points="262.2,-80.6 270.67,-74.22 260.08,-73.93 262.2,-80.6"/>
</g>
<!-- Node13&#45;&gt;Node14 -->
<g id="edge15" class="edge">
<title>Node13&#45;&gt;Node14</title>
<path fill="none" stroke="midnightblue" d="M270.09,-392.47C276.45,-383.5 286.65,-368.9 295,-356 318.19,-320.17 342.56,-276.46 355.54,-252.61"/>
<polygon fill="midnightblue" stroke="midnightblue" points="358.68,-254.15 360.37,-243.68 352.53,-250.81 358.68,-254.15"/>
</g>
<!-- Node18 -->
<g id="node18" class="node">
<title>Node18</title>
<g id="a_node18"><a xlink:href="lora_8h.html" target="_top" xlink:title="File that handles the LoRa radio and PJON.">
<polygon fill="white" stroke="black" points="242,-336.5 242,-355.5 286,-355.5 286,-336.5 242,-336.5"/>
<text text-anchor="middle" x="264" y="-343.5" font-family="Helvetica,sans-Serif" font-size="10.00">lora.h</text>
</a>
</g>
</g>
<!-- Node13&#45;&gt;Node18 -->
<g id="edge24" class="edge">
<title>Node13&#45;&gt;Node18</title>
<path fill="none" stroke="midnightblue" d="M258.83,-392.08C257.32,-384.93 256.89,-374.64 257.54,-365.69"/>
<polygon fill="midnightblue" stroke="midnightblue" points="261.02,-366.13 258.87,-355.75 254.08,-365.2 261.02,-366.13"/>
</g>
<!-- Node14&#45;&gt;Node3 -->
<g id="edge16" class="edge">
<title>Node14&#45;&gt;Node3</title>
<path fill="none" stroke="midnightblue" d="M378.05,-224.25C406.68,-203.97 470.15,-152.45 441,-112 420.69,-83.82 381.96,-73.02 351.18,-69.01"/>
<polygon fill="midnightblue" stroke="midnightblue" points="351.41,-65.51 341.08,-67.89 350.64,-72.47 351.41,-65.51"/>
</g>
<!-- Node15 -->
<g id="node15" class="node">
<title>Node15</title>
<g id="a_node15"><a xlink:href="lookups_8h.html" target="_top" xlink:title="Lookupable and lookupable manager base classes.">
<polygon fill="white" stroke="black" points="369.5,-112.5 369.5,-131.5 432.5,-131.5 432.5,-112.5 369.5,-112.5"/>
<text text-anchor="middle" x="401" y="-119.5" font-family="Helvetica,sans-Serif" font-size="10.00">lookups.h</text>
</a>
</g>
</g>
<!-- Node14&#45;&gt;Node15 -->
<g id="edge17" class="edge">
<title>Node14&#45;&gt;Node15</title>
<path fill="none" stroke="midnightblue" d="M367.82,-224.37C373.66,-206.54 387.16,-165.3 395.02,-141.27"/>
<polygon fill="midnightblue" stroke="midnightblue" points="398.4,-142.18 398.19,-131.59 391.75,-140.01 398.4,-142.18"/>
</g>
<!-- Node16 -->
<g id="node16" class="node">
<title>Node16</title>
<g id="a_node16"><a xlink:href="fields_8h.html" target="_top" xlink:title="Contains fields classes.">
<polygon fill="white" stroke="black" points="241,-168.5 241,-187.5 293,-187.5 293,-168.5 241,-168.5"/>
<text text-anchor="middle" x="267" y="-175.5" font-family="Helvetica,sans-Serif" font-size="10.00">fields.h</text>
</a>
</g>
</g>
<!-- Node14&#45;&gt;Node16 -->
<g id="edge19" class="edge">
<title>Node14&#45;&gt;Node16</title>
<path fill="none" stroke="midnightblue" d="M349.25,-224.32C333.68,-215.74 309.62,-202.49 291.54,-192.52"/>
<polygon fill="midnightblue" stroke="midnightblue" points="293.15,-189.42 282.71,-187.65 289.78,-195.55 293.15,-189.42"/>
</g>
<!-- Node15&#45;&gt;Node3 -->
<g id="edge18" class="edge">
<title>Node15&#45;&gt;Node3</title>
<path fill="none" stroke="midnightblue" d="M385.74,-112.32C370.78,-103.82 347.75,-90.73 330.27,-80.8"/>
<polygon fill="midnightblue" stroke="midnightblue" points="331.65,-77.55 321.23,-75.65 328.19,-83.64 331.65,-77.55"/>
</g>
<!-- Node16&#45;&gt;Node3 -->
<g id="edge20" class="edge">
<title>Node16&#45;&gt;Node3</title>
<path fill="none" stroke="midnightblue" d="M284.2,-168.39C297.25,-160.79 314.23,-148.39 322,-132 329.14,-116.94 323.25,-98.35 316.7,-84.91"/>
<polygon fill="midnightblue" stroke="midnightblue" points="319.6,-82.92 311.76,-75.79 313.44,-86.25 319.6,-82.92"/>
</g>
<!-- Node16&#45;&gt;Node15 -->
<g id="edge21" class="edge">
<title>Node16&#45;&gt;Node15</title>
<path fill="none" stroke="midnightblue" d="M288.23,-168.44C310.38,-159.52 345.32,-145.44 370.44,-135.32"/>
<polygon fill="midnightblue" stroke="midnightblue" points="371.9,-138.5 379.87,-131.52 369.28,-132.01 371.9,-138.5"/>
</g>
<!-- Node17 -->
<g id="node17" class="node">
<title>Node17</title>
<g id="a_node17"><a xlink:href="conversions_8h.html" target="_top" xlink:title="General functions for converting to and from char arrays.">
<polygon fill="white" stroke="black" points="229,-112.5 229,-131.5 313,-131.5 313,-112.5 229,-112.5"/>
<text text-anchor="middle" x="271" y="-119.5" font-family="Helvetica,sans-Serif" font-size="10.00">conversions.h</text>
</a>
</g>
</g>
<!-- Node16&#45;&gt;Node17 -->
<g id="edge22" class="edge">
<title>Node16&#45;&gt;Node17</title>
<path fill="none" stroke="midnightblue" d="M267.66,-168.08C268.18,-161.01 268.94,-150.86 269.59,-141.99"/>
<polygon fill="midnightblue" stroke="midnightblue" points="273.1,-141.98 270.35,-131.75 266.12,-141.47 273.1,-141.98"/>
</g>
<!-- Node17&#45;&gt;Node3 -->
<g id="edge23" class="edge">
<title>Node17&#45;&gt;Node3</title>
<path fill="none" stroke="midnightblue" d="M276.78,-112.08C281.67,-104.53 288.83,-93.49 294.83,-84.23"/>
<polygon fill="midnightblue" stroke="midnightblue" points="297.83,-86.05 300.33,-75.75 291.95,-82.24 297.83,-86.05"/>
</g>
<!-- Node18&#45;&gt;Node3 -->
<g id="edge25" class="edge">
<title>Node18&#45;&gt;Node3</title>
<path fill="none" stroke="midnightblue" d="M258.31,-336.2C238.11,-303.75 173.53,-188.77 220,-112 229.41,-96.46 246.15,-86.02 262.38,-79.15"/>
<polygon fill="midnightblue" stroke="midnightblue" points="263.75,-82.37 271.82,-75.51 261.23,-75.85 263.75,-82.37"/>
</g>
<!-- Node18&#45;&gt;Node13 -->
<g id="edge28" class="edge">
<title>Node18&#45;&gt;Node13</title>
<path fill="none" stroke="midnightblue" d="M269.13,-355.75C270.66,-362.86 271.1,-373.14 270.47,-382.1"/>
<polygon fill="midnightblue" stroke="midnightblue" points="266.99,-381.71 269.17,-392.08 273.93,-382.62 266.99,-381.71"/>
</g>
<!-- Node18&#45;&gt;Node14 -->
<g id="edge27" class="edge">
<title>Node18&#45;&gt;Node14</title>
<path fill="none" stroke="midnightblue" d="M271.93,-336.37C288.81,-317.97 328.57,-274.67 350.26,-251.05"/>
<polygon fill="midnightblue" stroke="midnightblue" points="352.93,-253.32 357.11,-243.59 347.77,-248.59 352.93,-253.32"/>
</g>
<!-- Node18&#45;&gt;Node15 -->
<g id="edge26" class="edge">
<title>Node18&#45;&gt;Node15</title>
<path fill="none" stroke="midnightblue" d="M267.55,-336.49C276.1,-316.31 299.01,-264.23 324,-224 343.57,-192.49 370.67,-158.78 386.96,-139.36"/>
<polygon fill="midnightblue" stroke="midnightblue" points="389.82,-141.4 393.61,-131.51 384.48,-136.88 389.82,-141.4"/>
</g>
<!-- Node19 -->
<g id="node19" class="node">
<title>Node19</title>
<g id="a_node19"><a xlink:href="rpc_8h.html" target="_top" xlink:title="Handles RPC calls.">
<polygon fill="white" stroke="black" points="99.5,-280.5 99.5,-299.5 140.5,-299.5 140.5,-280.5 99.5,-280.5"/>
<text text-anchor="middle" x="120" y="-287.5" font-family="Helvetica,sans-Serif" font-size="10.00">rpc.h</text>
</a>
</g>
</g>
<!-- Node18&#45;&gt;Node19 -->
<g id="edge29" class="edge">
<title>Node18&#45;&gt;Node19</title>
<path fill="none" stroke="midnightblue" d="M241.82,-336.68C217.22,-327.46 177.42,-312.53 150.05,-302.27"/>
<polygon fill="midnightblue" stroke="midnightblue" points="151.17,-298.95 140.58,-298.72 148.71,-305.5 151.17,-298.95"/>
</g>
<!-- Node19&#45;&gt;Node3 -->
<g id="edge30" class="edge">
<title>Node19&#45;&gt;Node3</title>
<path fill="none" stroke="midnightblue" d="M118.51,-280.29C114.2,-252.02 104.71,-161.79 149,-112 176.87,-80.67 224.94,-70.52 260.57,-67.53"/>
<polygon fill="midnightblue" stroke="midnightblue" points="260.98,-71.01 270.72,-66.85 260.51,-64.03 260.98,-71.01"/>
</g>
<!-- Node19&#45;&gt;Node11 -->
<g id="edge31" class="edge">
<title>Node19&#45;&gt;Node11</title>
<path fill="none" stroke="midnightblue" d="M115.55,-280.42C106.54,-262.24 87,-218.28 87,-179 87,-179 87,-179 87,-121 87,-85.24 64.55,-48.51 49.44,-27.84"/>
<polygon fill="midnightblue" stroke="midnightblue" points="52.14,-25.61 43.31,-19.77 46.57,-29.85 52.14,-25.61"/>
</g>
<!-- Node19&#45;&gt;Node12 -->
<g id="edge32" class="edge">
<title>Node19&#45;&gt;Node12</title>
<path fill="none" stroke="midnightblue" d="M105.86,-280.32C92.13,-271.9 71.06,-258.97 54.94,-249.07"/>
<polygon fill="midnightblue" stroke="midnightblue" points="56.46,-245.9 46.1,-243.65 52.8,-251.87 56.46,-245.9"/>
</g>
<!-- Node19&#45;&gt;Node13 -->
<g id="edge35" class="edge">
<title>Node19&#45;&gt;Node13</title>
<path fill="none" stroke="midnightblue" d="M122.59,-299.78C127.07,-313.53 137.49,-340.2 155,-356 172.45,-371.75 196.17,-382.42 217.03,-389.41"/>
<polygon fill="midnightblue" stroke="midnightblue" points="216.1,-392.78 226.69,-392.45 218.21,-386.11 216.1,-392.78"/>
</g>
<!-- Node19&#45;&gt;Node14 -->
<g id="edge33" class="edge">
<title>Node19&#45;&gt;Node14</title>
<path fill="none" stroke="midnightblue" d="M140.89,-284.4C181.14,-275.52 270.12,-255.91 323.06,-244.24"/>
<polygon fill="midnightblue" stroke="midnightblue" points="324.13,-247.59 333.14,-242.02 322.62,-240.76 324.13,-247.59"/>
</g>
<!-- Node19&#45;&gt;Node16 -->
<g id="edge34" class="edge">
<title>Node19&#45;&gt;Node16</title>
<path fill="none" stroke="midnightblue" d="M131.53,-280.37C156.55,-261.65 216.02,-217.15 247.18,-193.83"/>
<polygon fill="midnightblue" stroke="midnightblue" points="249.61,-196.39 255.52,-187.59 245.42,-190.78 249.61,-196.39"/>
</g>
</g>
</svg>
