<?xml version="1.0" encoding="UTF-8" standalone="no"?>
<!DOCTYPE svg PUBLIC "-//W3C//DTD SVG 1.1//EN"
 "http://www.w3.org/Graphics/SVG/1.1/DTD/svg11.dtd">
<!-- Generated by graphviz version 2.43.0 (0)
 -->
<!-- Title: ledTask Pages: 1 -->
<svg width="340pt" height="103pt"
 viewBox="0.00 0.00 340.00 103.00" xmlns="http://www.w3.org/2000/svg" xmlns:xlink="http://www.w3.org/1999/xlink">
<g id="graph0" class="graph" transform="scale(1 1) rotate(0) translate(4 99)">
<title>ledTask</title>
<!-- Node1 -->
<g id="Node000001" class="node">
<title>Node1</title>
<g id="a_Node000001"><a xlink:title="Task that manages the LEDs on the unit.">
<polygon fill="#999999" stroke="#666666" points="53,-57 0,-57 0,-38 53,-38 53,-57"/>
<text text-anchor="middle" x="26.5" y="-45" font-family="Helvetica,sans-Serif" font-size="10.00">ledTask</text>
</a>
</g>
</g>
<!-- Node2 -->
<g id="Node000002" class="node">
<title>Node2</title>
<g id="a_Node000002"><a xlink:href="class_led.html#aca41751e53023a56a30b541a1c23edfe" target="_top" xlink:title="Initialises the pins.">
<polygon fill="white" stroke="#666666" points="198.5,-95 131.5,-95 131.5,-76 198.5,-76 198.5,-95"/>
<text text-anchor="middle" x="165" y="-83" font-family="Helvetica,sans-Serif" font-size="10.00">Led::begin</text>
</a>
</g>
</g>
<!-- Node1&#45;&gt;Node2 -->
<g id="edge1_Node000001_Node000002" class="edge">
<title>Node1&#45;&gt;Node2</title>
<g id="a_edge1_Node000001_Node000002"><a xlink:title=" ">
<path fill="none" stroke="#63b8ff" d="M53.17,-54.65C72.48,-60.02 99.36,-67.5 121.81,-73.75"/>
<polygon fill="#63b8ff" stroke="#63b8ff" points="120.87,-77.13 131.44,-76.44 122.75,-70.38 120.87,-77.13"/>
</a>
</g>
</g>
<!-- Node3 -->
<g id="Node000003" class="node">
<title>Node3</title>
<g id="a_Node000003"><a xlink:href="class_led.html#ad977cfca6965684f274d8d6e33ac3548" target="_top" xlink:title="Turns the LED on or off.">
<polygon fill="white" stroke="#666666" points="332,-76 277,-76 277,-57 332,-57 332,-76"/>
<text text-anchor="middle" x="304.5" y="-64" font-family="Helvetica,sans-Serif" font-size="10.00">Led::set</text>
</a>
</g>
</g>
<!-- Node1&#45;&gt;Node3 -->
<g id="edge3_Node000001_Node000003" class="edge">
<title>Node1&#45;&gt;Node3</title>
<g id="a_edge3_Node000001_Node000003"><a xlink:title=" ">
<path fill="none" stroke="#63b8ff" d="M53.47,-49.29C102.76,-52.68 210.02,-60.06 266.7,-63.97"/>
<polygon fill="#63b8ff" stroke="#63b8ff" points="266.78,-67.48 277,-64.68 267.26,-60.5 266.78,-67.48"/>
</a>
</g>
</g>
<!-- Node4 -->
<g id="Node000004" class="node">
<title>Node4</title>
<g id="a_Node000004"><a xlink:href="class_device_manager.html#ac356dbc3ba069ca92c67825081d7a8a8" target="_top" xlink:title="Returns the number of packets that need to be sent across all devices.">
<polygon fill="white" stroke="#666666" points="241,-19 89,-19 89,0 241,0 241,-19"/>
<text text-anchor="middle" x="165" y="-7" font-family="Helvetica,sans-Serif" font-size="10.00">DeviceManager::txRequired</text>
</a>
</g>
</g>
<!-- Node1&#45;&gt;Node4 -->
<g id="edge4_Node000001_Node000004" class="edge">
<title>Node1&#45;&gt;Node4</title>
<g id="a_edge4_Node000001_Node000004"><a xlink:title=" ">
<path fill="none" stroke="#63b8ff" d="M53.17,-40.35C71.93,-35.13 97.82,-27.92 119.86,-21.79"/>
<polygon fill="#63b8ff" stroke="#63b8ff" points="120.98,-25.11 129.68,-19.06 119.1,-18.37 120.98,-25.11"/>
</a>
</g>
</g>
<!-- Node2&#45;&gt;Node3 -->
<g id="edge2_Node000002_Node000003" class="edge">
<title>Node2&#45;&gt;Node3</title>
<g id="a_edge2_Node000002_Node000003"><a xlink:title=" ">
<path fill="none" stroke="#63b8ff" d="M198.59,-81C219.06,-78.17 245.52,-74.51 266.74,-71.58"/>
<polygon fill="#63b8ff" stroke="#63b8ff" points="267.26,-75.04 276.69,-70.2 266.3,-68.11 267.26,-75.04"/>
</a>
</g>
</g>
</g>
</svg>
