<?xml version="1.0" encoding="UTF-8" standalone="no"?>
<!DOCTYPE svg PUBLIC "-//W3C//DTD SVG 1.1//EN"
 "http://www.w3.org/Graphics/SVG/1.1/DTD/svg11.dtd">
<!-- Generated by graphviz version 2.43.0 (0)
 -->
<!-- Title: BaseStationCode/src/src/leds.h Pages: 1 -->
<svg width="634pt" height="487pt"
 viewBox="0.00 0.00 633.50 487.00" xmlns="http://www.w3.org/2000/svg" xmlns:xlink="http://www.w3.org/1999/xlink">
<g id="graph0" class="graph" transform="scale(1 1) rotate(0) translate(4 483)">
<title>BaseStationCode/src/src/leds.h</title>
<polygon fill="white" stroke="transparent" points="-4,4 -4,-483 629.5,-483 629.5,4 -4,4"/>
<!-- Node1 -->
<g id="node1" class="node">
<title>Node1</title>
<g id="a_node1"><a xlink:title="Controls the LEDs on the unit.">
<polygon fill="#bfbfbf" stroke="black" points="300.5,-448.5 300.5,-478.5 417.5,-478.5 417.5,-448.5 300.5,-448.5"/>
<text text-anchor="start" x="308.5" y="-466.5" font-family="Helvetica,sans-Serif" font-size="10.00">BaseStationCode/src</text>
<text text-anchor="middle" x="359" y="-455.5" font-family="Helvetica,sans-Serif" font-size="10.00">/src/leds.h</text>
</a>
</g>
</g>
<!-- Node2 -->
<g id="node2" class="node">
<title>Node2</title>
<g id="a_node2"><a xlink:href="defines_8h.html" target="_top" xlink:title="Definitions and other preprocessor and global stuff.">
<polygon fill="white" stroke="black" points="241,-56.5 241,-75.5 311,-75.5 311,-56.5 241,-56.5"/>
<text text-anchor="middle" x="276" y="-63.5" font-family="Helvetica,sans-Serif" font-size="10.00">../defines.h</text>
</a>
</g>
</g>
<!-- Node1&#45;&gt;Node2 -->
<g id="edge1" class="edge">
<title>Node1&#45;&gt;Node2</title>
<path fill="none" stroke="midnightblue" d="M398.05,-448.39C437.92,-431.16 494,-397.89 494,-347 494,-347 494,-347 494,-177 494,-100.3 385.11,-77.07 321.25,-70.04"/>
<polygon fill="midnightblue" stroke="midnightblue" points="321.33,-66.53 311.03,-69.01 320.62,-73.5 321.33,-66.53"/>
</g>
<!-- Node9 -->
<g id="node9" class="node">
<title>Node9</title>
<g id="a_node9"><a xlink:href="alarm_8h.html" target="_top" xlink:title="Handles alarms.">
<polygon fill="white" stroke="black" points="0,-224.5 0,-243.5 54,-243.5 54,-224.5 0,-224.5"/>
<text text-anchor="middle" x="27" y="-231.5" font-family="Helvetica,sans-Serif" font-size="10.00">alarm.h</text>
</a>
</g>
</g>
<!-- Node1&#45;&gt;Node9 -->
<g id="edge8" class="edge">
<title>Node1&#45;&gt;Node9</title>
<path fill="none" stroke="midnightblue" d="M305.42,-448.45C276.36,-439.82 240.29,-427.45 210,-412 171.66,-392.44 162.82,-384.98 131,-356 94.14,-322.43 57.7,-276.24 39.31,-251.78"/>
<polygon fill="midnightblue" stroke="midnightblue" points="41.96,-249.48 33.18,-243.54 36.34,-253.66 41.96,-249.48"/>
</g>
<!-- Node10 -->
<g id="node10" class="node">
<title>Node10</title>
<g id="a_node10"><a xlink:href="networking_8h.html" target="_top" xlink:title="Header file for networking.cpp.">
<polygon fill="white" stroke="black" points="219,-392.5 219,-411.5 299,-411.5 299,-392.5 219,-392.5"/>
<text text-anchor="middle" x="259" y="-399.5" font-family="Helvetica,sans-Serif" font-size="10.00">networking.h</text>
</a>
</g>
</g>
<!-- Node1&#45;&gt;Node10 -->
<g id="edge10" class="edge">
<title>Node1&#45;&gt;Node10</title>
<path fill="none" stroke="midnightblue" d="M335.3,-448.4C319.27,-438.86 298.2,-426.32 282.26,-416.84"/>
<polygon fill="midnightblue" stroke="midnightblue" points="283.93,-413.76 273.55,-411.66 280.36,-419.78 283.93,-413.76"/>
</g>
<!-- Node11 -->
<g id="node11" class="node">
<title>Node11</title>
<g id="a_node11"><a xlink:href="devices_8h.html" target="_top" xlink:title="Devices and manager for all known devices the base station connects to.">
<polygon fill="white" stroke="black" points="328.5,-224.5 328.5,-243.5 391.5,-243.5 391.5,-224.5 328.5,-224.5"/>
<text text-anchor="middle" x="360" y="-231.5" font-family="Helvetica,sans-Serif" font-size="10.00">devices.h</text>
</a>
</g>
</g>
<!-- Node1&#45;&gt;Node11 -->
<g id="edge33" class="edge">
<title>Node1&#45;&gt;Node11</title>
<path fill="none" stroke="midnightblue" d="M359.06,-448.27C359.24,-408.89 359.72,-298.49 359.92,-253.97"/>
<polygon fill="midnightblue" stroke="midnightblue" points="363.42,-253.94 359.96,-243.93 356.42,-253.91 363.42,-253.94"/>
</g>
<!-- Node3 -->
<g id="node3" class="node">
<title>Node3</title>
<g id="a_node3"><a xlink:title=" ">
<polygon fill="white" stroke="#bfbfbf" points="464,-0.5 464,-19.5 544,-19.5 544,-0.5 464,-0.5"/>
<text text-anchor="middle" x="504" y="-7.5" font-family="Helvetica,sans-Serif" font-size="10.00">credentials.h</text>
</a>
</g>
</g>
<!-- Node2&#45;&gt;Node3 -->
<g id="edge2" class="edge">
<title>Node2&#45;&gt;Node3</title>
<path fill="none" stroke="midnightblue" d="M311.13,-56.68C350.64,-47.32 414.96,-32.09 458.35,-21.81"/>
<polygon fill="midnightblue" stroke="midnightblue" points="459.16,-25.22 468.08,-19.51 457.54,-18.41 459.16,-25.22"/>
</g>
<!-- Node4 -->
<g id="node4" class="node">
<title>Node4</title>
<g id="a_node4"><a xlink:title=" ">
<polygon fill="white" stroke="#bfbfbf" points="562.5,-0.5 562.5,-19.5 625.5,-19.5 625.5,-0.5 562.5,-0.5"/>
<text text-anchor="middle" x="594" y="-7.5" font-family="Helvetica,sans-Serif" font-size="10.00">Arduino.h</text>
</a>
</g>
</g>
<!-- Node2&#45;&gt;Node4 -->
<g id="edge3" class="edge">
<title>Node2&#45;&gt;Node4</title>
<path fill="none" stroke="midnightblue" d="M311.09,-59.93C361.97,-52.45 459.42,-37.59 552.4,-20.02"/>
<polygon fill="midnightblue" stroke="midnightblue" points="553.08,-23.46 562.25,-18.15 551.77,-16.58 553.08,-23.46"/>
</g>
<!-- Node5 -->
<g id="node5" class="node">
<title>Node5</title>
<g id="a_node5"><a xlink:title=" ">
<polygon fill="white" stroke="#bfbfbf" points="126,-0.5 126,-19.5 216,-19.5 216,-0.5 126,-0.5"/>
<text text-anchor="middle" x="171" y="-7.5" font-family="Helvetica,sans-Serif" font-size="10.00">PubSubClient.h</text>
</a>
</g>
</g>
<!-- Node2&#45;&gt;Node5 -->
<g id="edge4" class="edge">
<title>Node2&#45;&gt;Node5</title>
<path fill="none" stroke="midnightblue" d="M259.13,-56.32C242.29,-47.66 216.19,-34.24 196.76,-24.25"/>
<polygon fill="midnightblue" stroke="midnightblue" points="198.32,-21.12 187.83,-19.65 195.12,-27.34 198.32,-21.12"/>
</g>
<!-- Node6 -->
<g id="node6" class="node">
<title>Node6</title>
<g id="a_node6"><a xlink:title=" ">
<polygon fill="white" stroke="#bfbfbf" points="234.5,-0.5 234.5,-19.5 317.5,-19.5 317.5,-0.5 234.5,-0.5"/>
<text text-anchor="middle" x="276" y="-7.5" font-family="Helvetica,sans-Serif" font-size="10.00">ArduinoJson.h</text>
</a>
</g>
</g>
<!-- Node2&#45;&gt;Node6 -->
<g id="edge5" class="edge">
<title>Node2&#45;&gt;Node6</title>
<path fill="none" stroke="midnightblue" d="M276,-56.08C276,-49.01 276,-38.86 276,-29.99"/>
<polygon fill="midnightblue" stroke="midnightblue" points="279.5,-29.75 276,-19.75 272.5,-29.75 279.5,-29.75"/>
</g>
<!-- Node7 -->
<g id="node7" class="node">
<title>Node7</title>
<g id="a_node7"><a xlink:title=" ">
<polygon fill="white" stroke="#bfbfbf" points="336,-0.5 336,-19.5 446,-19.5 446,-0.5 336,-0.5"/>
<text text-anchor="middle" x="391" y="-7.5" font-family="Helvetica,sans-Serif" font-size="10.00">PJONThroughLora.h</text>
</a>
</g>
</g>
<!-- Node2&#45;&gt;Node7 -->
<g id="edge6" class="edge">
<title>Node2&#45;&gt;Node7</title>
<path fill="none" stroke="midnightblue" d="M294.22,-56.44C312.9,-47.68 342.16,-33.94 363.62,-23.86"/>
<polygon fill="midnightblue" stroke="midnightblue" points="365.3,-26.93 372.86,-19.52 362.32,-20.6 365.3,-26.93"/>
</g>
<!-- Node8 -->
<g id="node8" class="node">
<title>Node8</title>
<g id="a_node8"><a xlink:href="topics_8h.html" target="_top" xlink:title="MQTT topics for a thingsboard gateway.">
<polygon fill="white" stroke="black" points="36,-0.5 36,-19.5 108,-19.5 108,-0.5 36,-0.5"/>
<text text-anchor="middle" x="72" y="-7.5" font-family="Helvetica,sans-Serif" font-size="10.00">src/topics.h</text>
</a>
</g>
</g>
<!-- Node2&#45;&gt;Node8 -->
<g id="edge7" class="edge">
<title>Node2&#45;&gt;Node8</title>
<path fill="none" stroke="midnightblue" d="M243.68,-56.44C208.61,-47.16 152.5,-32.31 114.04,-22.13"/>
<polygon fill="midnightblue" stroke="midnightblue" points="114.74,-18.69 104.17,-19.52 112.94,-25.46 114.74,-18.69"/>
</g>
<!-- Node9&#45;&gt;Node2 -->
<g id="edge9" class="edge">
<title>Node9&#45;&gt;Node2</title>
<path fill="none" stroke="midnightblue" d="M30.07,-224.42C38.48,-202.17 64.11,-142.26 106,-112 142.72,-85.48 193.97,-74.58 230.58,-70.11"/>
<polygon fill="midnightblue" stroke="midnightblue" points="231.41,-73.54 240.97,-68.96 230.64,-66.58 231.41,-73.54"/>
</g>
<!-- Node10&#45;&gt;Node2 -->
<g id="edge11" class="edge">
<title>Node10&#45;&gt;Node2</title>
<path fill="none" stroke="midnightblue" d="M251.46,-392.32C244.35,-383.68 233.94,-369.76 228,-356 194.49,-278.3 193.49,-252.49 198,-168 199.34,-143 190.72,-133.22 204,-112 212.98,-97.65 228.4,-87.12 242.66,-79.87"/>
<polygon fill="midnightblue" stroke="midnightblue" points="244.24,-83 251.79,-75.57 241.26,-76.66 244.24,-83"/>
</g>
<!-- Node10&#45;&gt;Node11 -->
<g id="edge12" class="edge">
<title>Node10&#45;&gt;Node11</title>
<path fill="none" stroke="midnightblue" d="M265.09,-392.47C271.45,-383.5 281.65,-368.9 290,-356 313.19,-320.17 337.56,-276.46 350.54,-252.61"/>
<polygon fill="midnightblue" stroke="midnightblue" points="353.68,-254.15 355.37,-243.68 347.53,-250.81 353.68,-254.15"/>
</g>
<!-- Node15 -->
<g id="node15" class="node">
<title>Node15</title>
<g id="a_node15"><a xlink:href="lora_8h.html" target="_top" xlink:title="File that handles the LoRa radio and PJON.">
<polygon fill="white" stroke="black" points="237,-336.5 237,-355.5 281,-355.5 281,-336.5 237,-336.5"/>
<text text-anchor="middle" x="259" y="-343.5" font-family="Helvetica,sans-Serif" font-size="10.00">lora.h</text>
</a>
</g>
</g>
<!-- Node10&#45;&gt;Node15 -->
<g id="edge21" class="edge">
<title>Node10&#45;&gt;Node15</title>
<path fill="none" stroke="midnightblue" d="M253.83,-392.08C252.32,-384.93 251.89,-374.64 252.54,-365.69"/>
<polygon fill="midnightblue" stroke="midnightblue" points="256.02,-366.13 253.87,-355.75 249.08,-365.2 256.02,-366.13"/>
</g>
<!-- Node11&#45;&gt;Node2 -->
<g id="edge13" class="edge">
<title>Node11&#45;&gt;Node2</title>
<path fill="none" stroke="midnightblue" d="M372.76,-224.45C401.45,-204.19 466.26,-151.94 436,-112 422.12,-93.67 363.52,-80.73 321.25,-73.56"/>
<polygon fill="midnightblue" stroke="midnightblue" points="321.6,-70.07 311.17,-71.91 320.47,-76.98 321.6,-70.07"/>
</g>
<!-- Node12 -->
<g id="node12" class="node">
<title>Node12</title>
<g id="a_node12"><a xlink:href="lookups_8h.html" target="_top" xlink:title="Lookupable and lookupable manager base classes.">
<polygon fill="white" stroke="black" points="364.5,-112.5 364.5,-131.5 427.5,-131.5 427.5,-112.5 364.5,-112.5"/>
<text text-anchor="middle" x="396" y="-119.5" font-family="Helvetica,sans-Serif" font-size="10.00">lookups.h</text>
</a>
</g>
</g>
<!-- Node11&#45;&gt;Node12 -->
<g id="edge14" class="edge">
<title>Node11&#45;&gt;Node12</title>
<path fill="none" stroke="midnightblue" d="M362.82,-224.37C368.66,-206.54 382.16,-165.3 390.02,-141.27"/>
<polygon fill="midnightblue" stroke="midnightblue" points="393.4,-142.18 393.19,-131.59 386.75,-140.01 393.4,-142.18"/>
</g>
<!-- Node13 -->
<g id="node13" class="node">
<title>Node13</title>
<g id="a_node13"><a xlink:href="fields_8h.html" target="_top" xlink:title="Contains fields classes.">
<polygon fill="white" stroke="black" points="236,-168.5 236,-187.5 288,-187.5 288,-168.5 236,-168.5"/>
<text text-anchor="middle" x="262" y="-175.5" font-family="Helvetica,sans-Serif" font-size="10.00">fields.h</text>
</a>
</g>
</g>
<!-- Node11&#45;&gt;Node13 -->
<g id="edge16" class="edge">
<title>Node11&#45;&gt;Node13</title>
<path fill="none" stroke="midnightblue" d="M344.25,-224.32C328.68,-215.74 304.62,-202.49 286.54,-192.52"/>
<polygon fill="midnightblue" stroke="midnightblue" points="288.15,-189.42 277.71,-187.65 284.78,-195.55 288.15,-189.42"/>
</g>
<!-- Node12&#45;&gt;Node2 -->
<g id="edge15" class="edge">
<title>Node12&#45;&gt;Node2</title>
<path fill="none" stroke="midnightblue" d="M376.99,-112.44C357.41,-103.64 326.69,-89.81 304.27,-79.72"/>
<polygon fill="midnightblue" stroke="midnightblue" points="305.48,-76.43 294.93,-75.52 302.61,-82.81 305.48,-76.43"/>
</g>
<!-- Node13&#45;&gt;Node2 -->
<g id="edge17" class="edge">
<title>Node13&#45;&gt;Node2</title>
<path fill="none" stroke="midnightblue" d="M279.2,-168.39C292.25,-160.79 309.23,-148.39 317,-132 325.53,-113.99 310.16,-94.88 295.86,-82.07"/>
<polygon fill="midnightblue" stroke="midnightblue" points="298.11,-79.38 288.19,-75.65 293.62,-84.75 298.11,-79.38"/>
</g>
<!-- Node13&#45;&gt;Node12 -->
<g id="edge18" class="edge">
<title>Node13&#45;&gt;Node12</title>
<path fill="none" stroke="midnightblue" d="M283.23,-168.44C305.38,-159.52 340.32,-145.44 365.44,-135.32"/>
<polygon fill="midnightblue" stroke="midnightblue" points="366.9,-138.5 374.87,-131.52 364.28,-132.01 366.9,-138.5"/>
</g>
<!-- Node14 -->
<g id="node14" class="node">
<title>Node14</title>
<g id="a_node14"><a xlink:href="conversions_8h.html" target="_top" xlink:title="General functions for converting to and from char arrays.">
<polygon fill="white" stroke="black" points="224,-112.5 224,-131.5 308,-131.5 308,-112.5 224,-112.5"/>
<text text-anchor="middle" x="266" y="-119.5" font-family="Helvetica,sans-Serif" font-size="10.00">conversions.h</text>
</a>
</g>
</g>
<!-- Node13&#45;&gt;Node14 -->
<g id="edge19" class="edge">
<title>Node13&#45;&gt;Node14</title>
<path fill="none" stroke="midnightblue" d="M262.66,-168.08C263.18,-161.01 263.94,-150.86 264.59,-141.99"/>
<polygon fill="midnightblue" stroke="midnightblue" points="268.1,-141.98 265.35,-131.75 261.12,-141.47 268.1,-141.98"/>
</g>
<!-- Node14&#45;&gt;Node2 -->
<g id="edge20" class="edge">
<title>Node14&#45;&gt;Node2</title>
<path fill="none" stroke="midnightblue" d="M267.65,-112.08C268.98,-104.93 270.88,-94.64 272.54,-85.69"/>
<polygon fill="midnightblue" stroke="midnightblue" points="276,-86.22 274.38,-75.75 269.12,-84.95 276,-86.22"/>
</g>
<!-- Node15&#45;&gt;Node2 -->
<g id="edge22" class="edge">
<title>Node15&#45;&gt;Node2</title>
<path fill="none" stroke="midnightblue" d="M253.71,-336.42C234.9,-304.74 174.55,-192.11 215,-112 221.81,-98.52 234.77,-88.08 247,-80.67"/>
<polygon fill="midnightblue" stroke="midnightblue" points="249.07,-83.52 256.09,-75.59 245.66,-77.41 249.07,-83.52"/>
</g>
<!-- Node15&#45;&gt;Node10 -->
<g id="edge25" class="edge">
<title>Node15&#45;&gt;Node10</title>
<path fill="none" stroke="midnightblue" d="M264.13,-355.75C265.66,-362.86 266.1,-373.14 265.47,-382.1"/>
<polygon fill="midnightblue" stroke="midnightblue" points="261.99,-381.71 264.17,-392.08 268.93,-382.62 261.99,-381.71"/>
</g>
<!-- Node15&#45;&gt;Node11 -->
<g id="edge24" class="edge">
<title>Node15&#45;&gt;Node11</title>
<path fill="none" stroke="midnightblue" d="M266.93,-336.37C283.81,-317.97 323.57,-274.67 345.26,-251.05"/>
<polygon fill="midnightblue" stroke="midnightblue" points="347.93,-253.32 352.11,-243.59 342.77,-248.59 347.93,-253.32"/>
</g>
<!-- Node15&#45;&gt;Node12 -->
<g id="edge23" class="edge">
<title>Node15&#45;&gt;Node12</title>
<path fill="none" stroke="midnightblue" d="M262.55,-336.49C271.1,-316.31 294.01,-264.23 319,-224 338.57,-192.49 365.67,-158.78 381.96,-139.36"/>
<polygon fill="midnightblue" stroke="midnightblue" points="384.82,-141.4 388.61,-131.51 379.48,-136.88 384.82,-141.4"/>
</g>
<!-- Node16 -->
<g id="node16" class="node">
<title>Node16</title>
<g id="a_node16"><a xlink:href="rpc_8h.html" target="_top" xlink:title="Handles RPC calls.">
<polygon fill="white" stroke="black" points="94.5,-280.5 94.5,-299.5 135.5,-299.5 135.5,-280.5 94.5,-280.5"/>
<text text-anchor="middle" x="115" y="-287.5" font-family="Helvetica,sans-Serif" font-size="10.00">rpc.h</text>
</a>
</g>
</g>
<!-- Node15&#45;&gt;Node16 -->
<g id="edge26" class="edge">
<title>Node15&#45;&gt;Node16</title>
<path fill="none" stroke="midnightblue" d="M236.82,-336.68C212.22,-327.46 172.42,-312.53 145.05,-302.27"/>
<polygon fill="midnightblue" stroke="midnightblue" points="146.17,-298.95 135.58,-298.72 143.71,-305.5 146.17,-298.95"/>
</g>
<!-- Node16&#45;&gt;Node2 -->
<g id="edge27" class="edge">
<title>Node16&#45;&gt;Node2</title>
<path fill="none" stroke="midnightblue" d="M113.61,-280.38C109.61,-252.38 100.95,-162.87 144,-112 165.41,-86.71 201.65,-75.59 230.75,-70.73"/>
<polygon fill="midnightblue" stroke="midnightblue" points="231.33,-74.18 240.71,-69.26 230.31,-67.26 231.33,-74.18"/>
</g>
<!-- Node16&#45;&gt;Node8 -->
<g id="edge28" class="edge">
<title>Node16&#45;&gt;Node8</title>
<path fill="none" stroke="midnightblue" d="M110.55,-280.42C101.54,-262.24 82,-218.28 82,-179 82,-179 82,-179 82,-121 82,-88.82 77.7,-51.55 74.74,-29.7"/>
<polygon fill="midnightblue" stroke="midnightblue" points="78.17,-28.95 73.31,-19.53 71.24,-29.92 78.17,-28.95"/>
</g>
<!-- Node16&#45;&gt;Node9 -->
<g id="edge29" class="edge">
<title>Node16&#45;&gt;Node9</title>
<path fill="none" stroke="midnightblue" d="M100.86,-280.32C87.13,-271.9 66.06,-258.97 49.94,-249.07"/>
<polygon fill="midnightblue" stroke="midnightblue" points="51.46,-245.9 41.1,-243.65 47.8,-251.87 51.46,-245.9"/>
</g>
<!-- Node16&#45;&gt;Node10 -->
<g id="edge32" class="edge">
<title>Node16&#45;&gt;Node10</title>
<path fill="none" stroke="midnightblue" d="M117.59,-299.78C122.07,-313.53 132.49,-340.2 150,-356 167.45,-371.75 191.17,-382.42 212.03,-389.41"/>
<polygon fill="midnightblue" stroke="midnightblue" points="211.1,-392.78 221.69,-392.45 213.21,-386.11 211.1,-392.78"/>
</g>
<!-- Node16&#45;&gt;Node11 -->
<g id="edge30" class="edge">
<title>Node16&#45;&gt;Node11</title>
<path fill="none" stroke="midnightblue" d="M135.89,-284.4C176.14,-275.52 265.12,-255.91 318.06,-244.24"/>
<polygon fill="midnightblue" stroke="midnightblue" points="319.13,-247.59 328.14,-242.02 317.62,-240.76 319.13,-247.59"/>
</g>
<!-- Node16&#45;&gt;Node13 -->
<g id="edge31" class="edge">
<title>Node16&#45;&gt;Node13</title>
<path fill="none" stroke="midnightblue" d="M126.53,-280.37C151.55,-261.65 211.02,-217.15 242.18,-193.83"/>
<polygon fill="midnightblue" stroke="midnightblue" points="244.61,-196.39 250.52,-187.59 240.42,-190.78 244.61,-196.39"/>
</g>
</g>
</svg>
