<?xml version="1.0" encoding="UTF-8" standalone="no"?>
<!DOCTYPE svg PUBLIC "-//W3C//DTD SVG 1.1//EN"
 "http://www.w3.org/Graphics/SVG/1.1/DTD/svg11.dtd">
<!-- Generated by graphviz version 2.43.0 (0)
 -->
<!-- Title: ledTask Pages: 1 -->
<svg width="340pt" height="104pt"
 viewBox="0.00 0.00 340.00 104.00" xmlns="http://www.w3.org/2000/svg" xmlns:xlink="http://www.w3.org/1999/xlink">
<g id="graph0" class="graph" transform="scale(1 1) rotate(0) translate(4 100)">
<title>ledTask</title>
<polygon fill="white" stroke="transparent" points="-4,4 -4,-100 336,-100 336,4 -4,4"/>
<!-- Node1 -->
<g id="node1" class="node">
<title>Node1</title>
<g id="a_node1"><a xlink:title="Task that manages the LEDs on the unit.">
<polygon fill="#bfbfbf" stroke="black" points="0,-38.5 0,-57.5 53,-57.5 53,-38.5 0,-38.5"/>
<text text-anchor="middle" x="26.5" y="-45.5" font-family="Helvetica,sans-Serif" font-size="10.00">ledTask</text>
</a>
</g>
</g>
<!-- Node2 -->
<g id="node2" class="node">
<title>Node2</title>
<g id="a_node2"><a xlink:href="class_led.html#aca41751e53023a56a30b541a1c23edfe" target="_top" xlink:title="Initialises the pins.">
<polygon fill="white" stroke="black" points="131.5,-76.5 131.5,-95.5 198.5,-95.5 198.5,-76.5 131.5,-76.5"/>
<text text-anchor="middle" x="165" y="-83.5" font-family="Helvetica,sans-Serif" font-size="10.00">Led::begin</text>
</a>
</g>
</g>
<!-- Node1&#45;&gt;Node2 -->
<g id="edge1" class="edge">
<title>Node1&#45;&gt;Node2</title>
<path fill="none" stroke="midnightblue" d="M53.17,-55.15C72.48,-60.52 99.36,-68 121.81,-74.25"/>
<polygon fill="midnightblue" stroke="midnightblue" points="120.87,-77.63 131.44,-76.94 122.75,-70.88 120.87,-77.63"/>
</g>
<!-- Node3 -->
<g id="node3" class="node">
<title>Node3</title>
<g id="a_node3"><a xlink:href="class_led.html#ad977cfca6965684f274d8d6e33ac3548" target="_top" xlink:title="Turns the LED on or off.">
<polygon fill="white" stroke="black" points="277,-57.5 277,-76.5 332,-76.5 332,-57.5 277,-57.5"/>
<text text-anchor="middle" x="304.5" y="-64.5" font-family="Helvetica,sans-Serif" font-size="10.00">Led::set</text>
</a>
</g>
</g>
<!-- Node1&#45;&gt;Node3 -->
<g id="edge3" class="edge">
<title>Node1&#45;&gt;Node3</title>
<path fill="none" stroke="midnightblue" d="M53.47,-49.79C102.76,-53.18 210.02,-60.56 266.7,-64.47"/>
<polygon fill="midnightblue" stroke="midnightblue" points="266.78,-67.98 277,-65.18 267.26,-61 266.78,-67.98"/>
</g>
<!-- Node4 -->
<g id="node4" class="node">
<title>Node4</title>
<g id="a_node4"><a xlink:href="class_device_manager.html#ac356dbc3ba069ca92c67825081d7a8a8" target="_top" xlink:title="Returns the number of packets that need to be sent across all devices.">
<polygon fill="white" stroke="black" points="89,-0.5 89,-19.5 241,-19.5 241,-0.5 89,-0.5"/>
<text text-anchor="middle" x="165" y="-7.5" font-family="Helvetica,sans-Serif" font-size="10.00">DeviceManager::txRequired</text>
</a>
</g>
</g>
<!-- Node1&#45;&gt;Node4 -->
<g id="edge4" class="edge">
<title>Node1&#45;&gt;Node4</title>
<path fill="none" stroke="midnightblue" d="M53.17,-40.85C71.93,-35.63 97.82,-28.42 119.86,-22.29"/>
<polygon fill="midnightblue" stroke="midnightblue" points="120.98,-25.61 129.68,-19.56 119.1,-18.87 120.98,-25.61"/>
</g>
<!-- Node2&#45;&gt;Node3 -->
<g id="edge2" class="edge">
<title>Node2&#45;&gt;Node3</title>
<path fill="none" stroke="midnightblue" d="M198.59,-81.5C219.06,-78.67 245.52,-75.01 266.74,-72.08"/>
<polygon fill="midnightblue" stroke="midnightblue" points="267.26,-75.54 276.69,-70.7 266.3,-68.61 267.26,-75.54"/>
</g>
</g>
</svg>
