<?xml version="1.0" encoding="UTF-8" standalone="no"?>
<!DOCTYPE svg PUBLIC "-//W3C//DTD SVG 1.1//EN"
 "http://www.w3.org/Graphics/SVG/1.1/DTD/svg11.dtd">
<!-- Generated by graphviz version 2.43.0 (0)
 -->
<!-- Title: BaseStationCode/src/src/lookups.h Pages: 1 -->
<!--zoomable 441 -->
<svg id="main" version="1.1" xmlns="http://www.w3.org/2000/svg" xmlns:xlink="http://www.w3.org/1999/xlink" xml:space="preserve" onload="init(evt)">
<style type="text/css"><![CDATA[
.edge:hover path { stroke: red; }
.edge:hover polygon { stroke: red; fill: red; }
]]></style>
<script type="text/javascript"><![CDATA[
var edges = document.getElementsByTagName('g');
if (edges && edges.length) {
  for (var i=0;i<edges.length;i++) {
    if (edges[i].id.substr(0,4)=='edge') {
      edges[i].setAttribute('class','edge');
    }
  }
}
]]></script>
        <defs>
                <circle id="rim" cx="0" cy="0" r="7"/>
                <circle id="rim2" cx="0" cy="0" r="3.5"/>
                <g id="zoomPlus">
                        <use xlink:href="#rim" fill="#404040">
                                <set attributeName="fill" to="#808080" begin="zoomplus.mouseover" end="zoomplus.mouseout"/>
                        </use>
                        <path d="M-4,0h8M0,-4v8" fill="none" stroke="white" stroke-width="1.5" pointer-events="none"/>
                </g>
                <g id="zoomMin">
                        <use xlink:href="#rim" fill="#404040">
                                <set attributeName="fill" to="#808080" begin="zoomminus.mouseover" end="zoomminus.mouseout"/>
                        </use>
                        <path d="M-4,0h8" fill="none" stroke="white" stroke-width="1.5" pointer-events="none"/>
                </g>
                <g id="dirArrow">
                        <path fill="none" stroke="white" stroke-width="1.5" d="M0,-3.0v7 M-2.5,-0.5L0,-3.0L2.5,-0.5"/>
                </g>
               <g id="resetDef">
                       <use xlink:href="#rim2" fill="#404040">
                               <set attributeName="fill" to="#808080" begin="reset.mouseover" end="reset.mouseout"/>
                       </use>
               </g>
        </defs>

<script type="text/javascript">
var viewWidth = 757;
var viewHeight = 441;
var sectionId = 'dynsection-1';
</script>
<script xlink:href="svgpan.js"/>
<svg id="graph" class="graph">
<g id="viewport">
<title>BaseStationCode/src/src/lookups.h</title>
<polygon fill="white" stroke="transparent" points="-4,4 -4,-437 753,-437 753,4 -4,4"/>
<!-- Node1 -->
<g id="node1" class="node">
<title>Node1</title>
<g id="a_node1"><a xlink:title="Lookupable and lookupable manager base classes.">
<polygon fill="#bfbfbf" stroke="black" points="240,-402.5 240,-432.5 357,-432.5 357,-402.5 240,-402.5"/>
<text text-anchor="start" x="248" y="-420.5" font-family="Helvetica,sans-Serif" font-size="10.00">BaseStationCode/src</text>
<text text-anchor="middle" x="298.5" y="-409.5" font-family="Helvetica,sans-Serif" font-size="10.00">/src/lookups.h</text>
</a>
</g>
</g>
<!-- Node2 -->
<g id="node2" class="node">
<title>Node2</title>
<g id="a_node2"><a xlink:href="devices_8h.html" target="_top" xlink:title="Devices and manager for all known devices the base station connects to.">
<polygon fill="white" stroke="black" points="197,-268.5 197,-298.5 314,-298.5 314,-268.5 197,-268.5"/>
<text text-anchor="start" x="205" y="-286.5" font-family="Helvetica,sans-Serif" font-size="10.00">BaseStationCode/src</text>
<text text-anchor="middle" x="255.5" y="-275.5" font-family="Helvetica,sans-Serif" font-size="10.00">/src/devices.h</text>
</a>
</g>
</g>
<!-- Node1&#45;&gt;Node2 -->
<g id="edge1" class="edge">
<title>Node1&#45;&gt;Node2</title>
<path fill="none" stroke="midnightblue" d="M259.6,-396.86C248.09,-388.96 236.87,-378.67 230.5,-366 219.26,-343.66 233.76,-315.29 244.91,-298.6"/>
<polygon fill="midnightblue" stroke="midnightblue" points="258.07,-400.03 268.38,-402.44 261.82,-394.13 258.07,-400.03"/>
</g>
<!-- Node8 -->
<g id="node8" class="node">
<title>Node8</title>
<g id="a_node8"><a xlink:href="lora_8h.html" target="_top" xlink:title="File that handles the LoRa radio and PJON.">
<polygon fill="white" stroke="black" points="284,-201.5 284,-231.5 401,-231.5 401,-201.5 284,-201.5"/>
<text text-anchor="start" x="292" y="-219.5" font-family="Helvetica,sans-Serif" font-size="10.00">BaseStationCode/src</text>
<text text-anchor="middle" x="342.5" y="-208.5" font-family="Helvetica,sans-Serif" font-size="10.00">/src/lora.h</text>
</a>
</g>
</g>
<!-- Node1&#45;&gt;Node8 -->
<g id="edge31" class="edge">
<title>Node1&#45;&gt;Node8</title>
<path fill="none" stroke="midnightblue" d="M337.4,-396.86C348.91,-388.96 360.13,-378.67 366.5,-366 389.15,-320.97 364.01,-259.43 350.26,-231.87"/>
<polygon fill="midnightblue" stroke="midnightblue" points="335.18,-394.13 328.62,-402.44 338.93,-400.03 335.18,-394.13"/>
</g>
<!-- Node16 -->
<g id="node16" class="node">
<title>Node16</title>
<g id="a_node16"><a xlink:href="fields_8h.html" target="_top" xlink:title="Contains fields classes.">
<polygon fill="white" stroke="black" points="240,-335.5 240,-365.5 357,-365.5 357,-335.5 240,-335.5"/>
<text text-anchor="start" x="248" y="-353.5" font-family="Helvetica,sans-Serif" font-size="10.00">BaseStationCode/src</text>
<text text-anchor="middle" x="298.5" y="-342.5" font-family="Helvetica,sans-Serif" font-size="10.00">/src/fields.h</text>
</a>
</g>
</g>
<!-- Node1&#45;&gt;Node16 -->
<g id="edge26" class="edge">
<title>Node1&#45;&gt;Node16</title>
<path fill="none" stroke="midnightblue" d="M298.5,-392.11C298.5,-383.15 298.5,-373.32 298.5,-365.58"/>
<polygon fill="midnightblue" stroke="midnightblue" points="295,-392.4 298.5,-402.4 302,-392.4 295,-392.4"/>
</g>
<!-- Node3 -->
<g id="node3" class="node">
<title>Node3</title>
<g id="a_node3"><a xlink:href="device__list_8h.html" target="_top" xlink:title="List of all devices and fields known to the system.">
<polygon fill="white" stroke="black" points="10,-201.5 10,-231.5 127,-231.5 127,-201.5 10,-201.5"/>
<text text-anchor="start" x="18" y="-219.5" font-family="Helvetica,sans-Serif" font-size="10.00">BaseStationCode/src</text>
<text text-anchor="middle" x="68.5" y="-208.5" font-family="Helvetica,sans-Serif" font-size="10.00">/device_list.h</text>
</a>
</g>
</g>
<!-- Node2&#45;&gt;Node3 -->
<g id="edge2" class="edge">
<title>Node2&#45;&gt;Node3</title>
<path fill="none" stroke="midnightblue" d="M205.42,-265.09C175.23,-254.6 137.28,-241.41 109,-231.58"/>
<polygon fill="midnightblue" stroke="midnightblue" points="204.33,-268.42 214.92,-268.4 206.63,-261.81 204.33,-268.42"/>
</g>
<!-- Node5 -->
<g id="node5" class="node">
<title>Node5</title>
<g id="a_node5"><a xlink:href="devices_8cpp.html" target="_top" xlink:title="Devices and manager for all known devices the base station connects to.">
<polygon fill="white" stroke="black" points="458,-201.5 458,-231.5 575,-231.5 575,-201.5 458,-201.5"/>
<text text-anchor="start" x="466" y="-219.5" font-family="Helvetica,sans-Serif" font-size="10.00">BaseStationCode/src</text>
<text text-anchor="middle" x="516.5" y="-208.5" font-family="Helvetica,sans-Serif" font-size="10.00">/src/devices.cpp</text>
</a>
</g>
</g>
<!-- Node2&#45;&gt;Node5 -->
<g id="edge4" class="edge">
<title>Node2&#45;&gt;Node5</title>
<path fill="none" stroke="midnightblue" d="M321.55,-266.05C364.22,-255.43 419.16,-241.74 459.84,-231.61"/>
<polygon fill="midnightblue" stroke="midnightblue" points="320.67,-262.66 311.81,-268.48 322.36,-269.46 320.67,-262.66"/>
</g>
<!-- Node6 -->
<g id="node6" class="node">
<title>Node6</title>
<g id="a_node6"><a xlink:href="leds_8h.html" target="_top" xlink:title="Controls the LEDs on the unit.">
<polygon fill="white" stroke="black" points="48,-67.5 48,-97.5 165,-97.5 165,-67.5 48,-67.5"/>
<text text-anchor="start" x="56" y="-85.5" font-family="Helvetica,sans-Serif" font-size="10.00">BaseStationCode/src</text>
<text text-anchor="middle" x="106.5" y="-74.5" font-family="Helvetica,sans-Serif" font-size="10.00">/src/leds.h</text>
</a>
</g>
</g>
<!-- Node2&#45;&gt;Node6 -->
<g id="edge5" class="edge">
<title>Node2&#45;&gt;Node6</title>
<path fill="none" stroke="midnightblue" d="M238.73,-260.11C207.83,-218.83 142.68,-131.83 117.12,-97.68"/>
<polygon fill="midnightblue" stroke="midnightblue" points="235.99,-262.28 244.78,-268.19 241.59,-258.09 235.99,-262.28"/>
</g>
<!-- Node2&#45;&gt;Node8 -->
<g id="edge8" class="edge">
<title>Node2&#45;&gt;Node8</title>
<path fill="none" stroke="midnightblue" d="M282.71,-262.17C296.02,-252.23 311.7,-240.51 323.66,-231.58"/>
<polygon fill="midnightblue" stroke="midnightblue" points="280.29,-259.61 274.38,-268.4 284.48,-265.21 280.29,-259.61"/>
</g>
<!-- Node10 -->
<g id="node10" class="node">
<title>Node10</title>
<g id="a_node10"><a xlink:href="networking_8h.html" target="_top" xlink:title="Header file for networking.cpp.">
<polygon fill="white" stroke="black" points="222,-134.5 222,-164.5 339,-164.5 339,-134.5 222,-134.5"/>
<text text-anchor="start" x="230" y="-152.5" font-family="Helvetica,sans-Serif" font-size="10.00">BaseStationCode/src</text>
<text text-anchor="middle" x="280.5" y="-141.5" font-family="Helvetica,sans-Serif" font-size="10.00">/src/networking.h</text>
</a>
</g>
</g>
<!-- Node2&#45;&gt;Node10 -->
<g id="edge24" class="edge">
<title>Node2&#45;&gt;Node10</title>
<path fill="none" stroke="midnightblue" d="M260.07,-258.39C265.27,-230.9 273.61,-186.89 277.84,-164.52"/>
<polygon fill="midnightblue" stroke="midnightblue" points="256.6,-257.9 258.18,-268.37 263.48,-259.2 256.6,-257.9"/>
</g>
<!-- Node14 -->
<g id="node14" class="node">
<title>Node14</title>
<g id="a_node14"><a xlink:href="rpc_8h.html" target="_top" xlink:title="Handles RPC calls.">
<polygon fill="white" stroke="black" points="434,-67.5 434,-97.5 551,-97.5 551,-67.5 434,-67.5"/>
<text text-anchor="start" x="442" y="-85.5" font-family="Helvetica,sans-Serif" font-size="10.00">BaseStationCode/src</text>
<text text-anchor="middle" x="492.5" y="-74.5" font-family="Helvetica,sans-Serif" font-size="10.00">/src/rpc.h</text>
</a>
</g>
</g>
<!-- Node2&#45;&gt;Node14 -->
<g id="edge25" class="edge">
<title>Node2&#45;&gt;Node14</title>
<path fill="none" stroke="midnightblue" d="M323.84,-265.95C351.64,-257.77 383.52,-246.51 410.5,-232 430,-221.52 430.8,-212.85 449.5,-201 480.06,-181.63 503.4,-195.72 522.5,-165 536.04,-143.23 518.36,-114.44 504.96,-97.54"/>
<polygon fill="midnightblue" stroke="midnightblue" points="322.84,-262.59 314.19,-268.71 324.76,-269.32 322.84,-262.59"/>
</g>
<!-- Node4 -->
<g id="node4" class="node">
<title>Node4</title>
<g id="a_node4"><a xlink:href="main_8cpp.html" target="_top" xlink:title=" ">
<polygon fill="white" stroke="black" points="135,-0.5 135,-30.5 252,-30.5 252,-0.5 135,-0.5"/>
<text text-anchor="start" x="143" y="-18.5" font-family="Helvetica,sans-Serif" font-size="10.00">BaseStationCode/src</text>
<text text-anchor="middle" x="193.5" y="-7.5" font-family="Helvetica,sans-Serif" font-size="10.00">/main.cpp</text>
</a>
</g>
</g>
<!-- Node3&#45;&gt;Node4 -->
<g id="edge3" class="edge">
<title>Node3&#45;&gt;Node4</title>
<path fill="none" stroke="midnightblue" d="M53.79,-192.42C35.88,-161.06 11.19,-104.61 38.5,-67 44.8,-58.33 97.93,-42.23 140.25,-30.54"/>
<polygon fill="midnightblue" stroke="midnightblue" points="50.95,-194.49 59.07,-201.29 56.97,-190.91 50.95,-194.49"/>
</g>
<!-- Node6&#45;&gt;Node4 -->
<g id="edge6" class="edge">
<title>Node6&#45;&gt;Node4</title>
<path fill="none" stroke="midnightblue" d="M133.71,-61.17C147.02,-51.23 162.7,-39.51 174.66,-30.58"/>
<polygon fill="midnightblue" stroke="midnightblue" points="131.29,-58.61 125.38,-67.4 135.48,-64.21 131.29,-58.61"/>
</g>
<!-- Node7 -->
<g id="node7" class="node">
<title>Node7</title>
<g id="a_node7"><a xlink:href="leds_8cpp.html" target="_top" xlink:title="Controls the LEDs on the unit.">
<polygon fill="white" stroke="black" points="0,-0.5 0,-30.5 117,-30.5 117,-0.5 0,-0.5"/>
<text text-anchor="start" x="8" y="-18.5" font-family="Helvetica,sans-Serif" font-size="10.00">BaseStationCode/src</text>
<text text-anchor="middle" x="58.5" y="-7.5" font-family="Helvetica,sans-Serif" font-size="10.00">/src/leds.cpp</text>
</a>
</g>
</g>
<!-- Node6&#45;&gt;Node7 -->
<g id="edge7" class="edge">
<title>Node6&#45;&gt;Node7</title>
<path fill="none" stroke="midnightblue" d="M90,-59.16C83,-49.68 75.06,-38.92 68.89,-30.58"/>
<polygon fill="midnightblue" stroke="midnightblue" points="87.33,-61.43 96.08,-67.4 92.96,-57.27 87.33,-61.43"/>
</g>
<!-- Node8&#45;&gt;Node4 -->
<g id="edge9" class="edge">
<title>Node8&#45;&gt;Node4</title>
<path fill="none" stroke="midnightblue" d="M274.15,-203.67C251.21,-196.3 227.64,-184.36 212.5,-165 181.11,-124.87 186.65,-59.14 190.97,-30.54"/>
<polygon fill="midnightblue" stroke="midnightblue" points="273.33,-207.08 283.91,-206.56 275.31,-200.37 273.33,-207.08"/>
</g>
<!-- Node9 -->
<g id="node9" class="node">
<title>Node9</title>
<g id="a_node9"><a xlink:href="lora_8cpp.html" target="_top" xlink:title="File that handles the LoRa radio and PJON.">
<polygon fill="white" stroke="black" points="396,-134.5 396,-164.5 513,-164.5 513,-134.5 396,-134.5"/>
<text text-anchor="start" x="404" y="-152.5" font-family="Helvetica,sans-Serif" font-size="10.00">BaseStationCode/src</text>
<text text-anchor="middle" x="454.5" y="-141.5" font-family="Helvetica,sans-Serif" font-size="10.00">/src/lora.cpp</text>
</a>
</g>
</g>
<!-- Node8&#45;&gt;Node9 -->
<g id="edge10" class="edge">
<title>Node8&#45;&gt;Node9</title>
<path fill="none" stroke="midnightblue" d="M375.59,-196.3C393.12,-186.12 414.26,-173.85 430.25,-164.58"/>
<polygon fill="midnightblue" stroke="midnightblue" points="373.69,-193.35 366.8,-201.4 377.21,-199.4 373.69,-193.35"/>
</g>
<!-- Node8&#45;&gt;Node10 -->
<g id="edge11" class="edge">
<title>Node8&#45;&gt;Node10</title>
<path fill="none" stroke="midnightblue" d="M315.92,-194.31C305.94,-184.56 295.39,-173.26 288.25,-164.58"/>
<polygon fill="midnightblue" stroke="midnightblue" points="313.71,-197.04 323.37,-201.4 318.53,-191.97 313.71,-197.04"/>
</g>
<!-- Node10&#45;&gt;Node4 -->
<g id="edge12" class="edge">
<title>Node10&#45;&gt;Node4</title>
<path fill="none" stroke="midnightblue" d="M265.56,-125.83C247.52,-98.47 217.74,-53.28 202.74,-30.52"/>
<polygon fill="midnightblue" stroke="midnightblue" points="262.76,-127.95 271.19,-134.37 268.61,-124.1 262.76,-127.95"/>
</g>
<!-- Node10&#45;&gt;Node6 -->
<g id="edge13" class="edge">
<title>Node10&#45;&gt;Node6</title>
<path fill="none" stroke="midnightblue" d="M233.17,-130.82C205.2,-120.37 170.27,-107.32 144.18,-97.58"/>
<polygon fill="midnightblue" stroke="midnightblue" points="232.15,-134.18 242.74,-134.4 234.6,-127.62 232.15,-134.18"/>
</g>
<!-- Node10&#45;&gt;Node8 -->
<g id="edge14" class="edge">
<title>Node10&#45;&gt;Node8</title>
<path fill="none" stroke="midnightblue" d="M307.05,-171.66C317.03,-181.4 327.58,-192.71 334.73,-201.4"/>
<polygon fill="midnightblue" stroke="midnightblue" points="309.26,-168.93 299.6,-164.58 304.44,-174 309.26,-168.93"/>
</g>
<!-- Node11 -->
<g id="node11" class="node">
<title>Node11</title>
<g id="a_node11"><a xlink:href="networking_8cpp.html" target="_top" xlink:title="File that handles connecting to WiFi and MQTT and staying connected.">
<polygon fill="white" stroke="black" points="405,-0.5 405,-30.5 522,-30.5 522,-0.5 405,-0.5"/>
<text text-anchor="start" x="413" y="-18.5" font-family="Helvetica,sans-Serif" font-size="10.00">BaseStationCode/src</text>
<text text-anchor="middle" x="463.5" y="-7.5" font-family="Helvetica,sans-Serif" font-size="10.00">/src/networking.cpp</text>
</a>
</g>
</g>
<!-- Node10&#45;&gt;Node11 -->
<g id="edge15" class="edge">
<title>Node10&#45;&gt;Node11</title>
<path fill="none" stroke="midnightblue" d="M327.86,-130.42C346.97,-122.01 368.66,-110.98 386.5,-98 413.57,-78.3 439.02,-48.28 452.81,-30.7"/>
<polygon fill="midnightblue" stroke="midnightblue" points="326.24,-127.31 318.43,-134.46 329,-133.74 326.24,-127.31"/>
</g>
<!-- Node12 -->
<g id="node12" class="node">
<title>Node12</title>
<g id="a_node12"><a xlink:href="ota_8h.html" target="_top" xlink:title="Handles over the air (OTA) updates.">
<polygon fill="white" stroke="black" points="260,-67.5 260,-97.5 377,-97.5 377,-67.5 260,-67.5"/>
<text text-anchor="start" x="268" y="-85.5" font-family="Helvetica,sans-Serif" font-size="10.00">BaseStationCode/src</text>
<text text-anchor="middle" x="318.5" y="-74.5" font-family="Helvetica,sans-Serif" font-size="10.00">/src/ota.h</text>
</a>
</g>
</g>
<!-- Node10&#45;&gt;Node12 -->
<g id="edge16" class="edge">
<title>Node10&#45;&gt;Node12</title>
<path fill="none" stroke="midnightblue" d="M293.9,-125.58C299.36,-116.24 305.49,-105.75 310.27,-97.58"/>
<polygon fill="midnightblue" stroke="midnightblue" points="290.77,-124 288.75,-134.4 296.81,-127.53 290.77,-124"/>
</g>
<!-- Node10&#45;&gt;Node14 -->
<g id="edge19" class="edge">
<title>Node10&#45;&gt;Node14</title>
<path fill="none" stroke="midnightblue" d="M336.13,-131.44C370.49,-120.91 414.06,-107.55 446.48,-97.61"/>
<polygon fill="midnightblue" stroke="midnightblue" points="334.77,-128.2 326.24,-134.48 336.83,-134.89 334.77,-128.2"/>
</g>
<!-- Node12&#45;&gt;Node4 -->
<g id="edge17" class="edge">
<title>Node12&#45;&gt;Node4</title>
<path fill="none" stroke="midnightblue" d="M282.37,-62.71C262.66,-52.46 238.66,-39.98 220.57,-30.58"/>
<polygon fill="midnightblue" stroke="midnightblue" points="280.89,-65.89 291.38,-67.4 284.12,-59.68 280.89,-65.89"/>
</g>
<!-- Node13 -->
<g id="node13" class="node">
<title>Node13</title>
<g id="a_node13"><a xlink:href="ota_8cpp.html" target="_top" xlink:title="Handles over the air (OTA) updates.">
<polygon fill="white" stroke="black" points="270,-0.5 270,-30.5 387,-30.5 387,-0.5 270,-0.5"/>
<text text-anchor="start" x="278" y="-18.5" font-family="Helvetica,sans-Serif" font-size="10.00">BaseStationCode/src</text>
<text text-anchor="middle" x="328.5" y="-7.5" font-family="Helvetica,sans-Serif" font-size="10.00">/src/ota.cpp</text>
</a>
</g>
</g>
<!-- Node12&#45;&gt;Node13 -->
<g id="edge18" class="edge">
<title>Node12&#45;&gt;Node13</title>
<path fill="none" stroke="midnightblue" d="M322.21,-57.4C323.6,-48.37 325.13,-38.41 326.33,-30.58"/>
<polygon fill="midnightblue" stroke="midnightblue" points="318.73,-56.98 320.67,-67.4 325.65,-58.04 318.73,-56.98"/>
</g>
<!-- Node14&#45;&gt;Node4 -->
<g id="edge20" class="edge">
<title>Node14&#45;&gt;Node4</title>
<path fill="none" stroke="midnightblue" d="M423.98,-66.61C372.04,-55.31 301.41,-39.96 252.08,-29.24"/>
<polygon fill="midnightblue" stroke="midnightblue" points="423.27,-70.03 433.78,-68.74 424.76,-63.19 423.27,-70.03"/>
</g>
<!-- Node14&#45;&gt;Node8 -->
<g id="edge21" class="edge">
<title>Node14&#45;&gt;Node8</title>
<path fill="none" stroke="midnightblue" d="M439.46,-101.41C421.46,-109.35 402.21,-120.1 387.5,-134 367.18,-153.21 353.77,-183.68 347.22,-201.41"/>
<polygon fill="midnightblue" stroke="midnightblue" points="440.86,-104.62 448.72,-97.51 438.15,-98.16 440.86,-104.62"/>
</g>
<!-- Node14&#45;&gt;Node11 -->
<g id="edge22" class="edge">
<title>Node14&#45;&gt;Node11</title>
<path fill="none" stroke="midnightblue" d="M482.01,-57.99C477.91,-48.8 473.35,-38.58 469.78,-30.58"/>
<polygon fill="midnightblue" stroke="midnightblue" points="478.94,-59.69 486.21,-67.4 485.33,-56.84 478.94,-59.69"/>
</g>
<!-- Node15 -->
<g id="node15" class="node">
<title>Node15</title>
<g id="a_node15"><a xlink:href="rpc_8cpp.html" target="_top" xlink:title="Handles RPC calls.">
<polygon fill="white" stroke="black" points="540,-0.5 540,-30.5 657,-30.5 657,-0.5 540,-0.5"/>
<text text-anchor="start" x="548" y="-18.5" font-family="Helvetica,sans-Serif" font-size="10.00">BaseStationCode/src</text>
<text text-anchor="middle" x="598.5" y="-7.5" font-family="Helvetica,sans-Serif" font-size="10.00">/src/rpc.cpp</text>
</a>
</g>
</g>
<!-- Node14&#45;&gt;Node15 -->
<g id="edge23" class="edge">
<title>Node14&#45;&gt;Node15</title>
<path fill="none" stroke="midnightblue" d="M524.28,-62.02C540.77,-51.9 560.55,-39.77 575.54,-30.58"/>
<polygon fill="midnightblue" stroke="midnightblue" points="522.2,-59.18 515.5,-67.4 525.85,-65.15 522.2,-59.18"/>
</g>
<!-- Node16&#45;&gt;Node2 -->
<g id="edge28" class="edge">
<title>Node16&#45;&gt;Node2</title>
<path fill="none" stroke="midnightblue" d="M283.53,-326.87C277.3,-317.46 270.27,-306.83 264.81,-298.58"/>
<polygon fill="midnightblue" stroke="midnightblue" points="280.73,-328.99 289.17,-335.4 286.57,-325.12 280.73,-328.99"/>
</g>
<!-- Node16&#45;&gt;Node3 -->
<g id="edge27" class="edge">
<title>Node16&#45;&gt;Node3</title>
<path fill="none" stroke="midnightblue" d="M253.77,-331.26C233.18,-322.33 208.67,-310.95 187.5,-299 150.21,-277.96 109.64,-248.66 86.81,-231.53"/>
<polygon fill="midnightblue" stroke="midnightblue" points="252.66,-334.6 263.23,-335.31 255.42,-328.16 252.66,-334.6"/>
</g>
<!-- Node16&#45;&gt;Node14 -->
<g id="edge30" class="edge">
<title>Node16&#45;&gt;Node14</title>
<path fill="none" stroke="midnightblue" d="M367.26,-342.67C435.39,-331.83 536.31,-303.89 584.5,-232 616.92,-183.63 548.96,-124.28 512.95,-97.63"/>
<polygon fill="midnightblue" stroke="midnightblue" points="366.41,-339.26 357.04,-344.21 367.45,-346.18 366.41,-339.26"/>
</g>
<!-- Node17 -->
<g id="node17" class="node">
<title>Node17</title>
<g id="a_node17"><a xlink:href="fields_8cpp.html" target="_top" xlink:title="Contains fields classes.">
<polygon fill="white" stroke="black" points="632,-268.5 632,-298.5 749,-298.5 749,-268.5 632,-268.5"/>
<text text-anchor="start" x="640" y="-286.5" font-family="Helvetica,sans-Serif" font-size="10.00">BaseStationCode/src</text>
<text text-anchor="middle" x="690.5" y="-275.5" font-family="Helvetica,sans-Serif" font-size="10.00">/src/fields.cpp</text>
</a>
</g>
</g>
<!-- Node16&#45;&gt;Node17 -->
<g id="edge29" class="edge">
<title>Node16&#45;&gt;Node17</title>
<path fill="none" stroke="midnightblue" d="M367.19,-339.42C431.88,-329.74 531.44,-314.35 617.5,-299 622.21,-298.16 627.08,-297.26 631.97,-296.34"/>
<polygon fill="midnightblue" stroke="midnightblue" points="366.49,-335.98 357.12,-340.92 367.52,-342.91 366.49,-335.98"/>
</g>
</g>
</svg>
        <g id="navigator" transform="translate(0 0)" fill="#404254">
                <rect fill="#f2f5e9" fill-opacity="0.5" stroke="#606060" stroke-width=".5" x="0" y="0" width="60" height="60"/>
                <use id="zoomplus" xlink:href="#zoomPlus" x="17" y="9" onmousedown="handleZoom(evt,'in')"/>
                <use id="zoomminus" xlink:href="#zoomMin" x="42" y="9" onmousedown="handleZoom(evt,'out')"/>
                <use id="reset" xlink:href="#resetDef" x="30" y="36" onmousedown="handleReset()"/>
                <g id="arrowUp" xlink:href="#dirArrow" transform="translate(30 24)" onmousedown="handlePan(0,-1)">
                  <use xlink:href="#rim" fill="#404040">
                        <set attributeName="fill" to="#808080" begin="arrowUp.mouseover" end="arrowUp.mouseout"/>
                  </use>
                  <path fill="none" stroke="white" stroke-width="1.5" d="M0,-3.0v7 M-2.5,-0.5L0,-3.0L2.5,-0.5"/>
                </g>
                <g id="arrowRight" xlink:href="#dirArrow" transform="rotate(90) translate(36 -43)" onmousedown="handlePan(1,0)">
                  <use xlink:href="#rim" fill="#404040">
                        <set attributeName="fill" to="#808080" begin="arrowRight.mouseover" end="arrowRight.mouseout"/>
                  </use>
                  <path fill="none" stroke="white" stroke-width="1.5" d="M0,-3.0v7 M-2.5,-0.5L0,-3.0L2.5,-0.5"/>
                </g>
                <g id="arrowDown" xlink:href="#dirArrow" transform="rotate(180) translate(-30 -48)" onmousedown="handlePan(0,1)">
                  <use xlink:href="#rim" fill="#404040">
                        <set attributeName="fill" to="#808080" begin="arrowDown.mouseover" end="arrowDown.mouseout"/>
                  </use>
                  <path fill="none" stroke="white" stroke-width="1.5" d="M0,-3.0v7 M-2.5,-0.5L0,-3.0L2.5,-0.5"/>
                </g>
                <g id="arrowLeft" xlink:href="#dirArrow" transform="rotate(270) translate(-36 17)" onmousedown="handlePan(-1,0)">
                  <use xlink:href="#rim" fill="#404040">
                        <set attributeName="fill" to="#808080" begin="arrowLeft.mouseover" end="arrowLeft.mouseout"/>
                  </use>
                  <path fill="none" stroke="white" stroke-width="1.5" d="M0,-3.0v7 M-2.5,-0.5L0,-3.0L2.5,-0.5"/>
                </g>
        </g>
        <svg viewBox="0 0 15 15" width="100%" height="30px" preserveAspectRatio="xMaxYMin meet">
         <g id="arrow_out" transform="scale(0.3 0.3)">
          <a xlink:href="lookups_8h__dep__incl_org.svg" target="_base">
           <rect id="button" ry="5" rx="5" y="6" x="6" height="38" width="38"
                fill="#f2f5e9" fill-opacity="0.5" stroke="#606060" stroke-width="1.0"/>
           <path id="arrow"
             d="M 11.500037,31.436501 C 11.940474,20.09759 22.043105,11.32322 32.158766,21.979434 L 37.068811,17.246167 C 37.068811,17.246167 37.088388,32 37.088388,32 L 22.160133,31.978069 C 22.160133,31.978069 26.997745,27.140456 26.997745,27.140456 C 18.528582,18.264221 13.291696,25.230495 11.500037,31.436501 z"
             style="fill:#404040;"/>
          </a>
         </g>
        </svg>
</svg>
