<?xml version="1.0" encoding="UTF-8" standalone="no"?>
<!DOCTYPE svg PUBLIC "-//W3C//DTD SVG 1.1//EN"
 "http://www.w3.org/Graphics/SVG/1.1/DTD/svg11.dtd">
<!-- Generated by graphviz version 2.43.0 (0)
 -->
<!-- Title: ESP32BaseStation/src/lookups.h Pages: 1 -->
<!--zoomable 441 -->
<svg id="main" version="1.1" xmlns="http://www.w3.org/2000/svg" xmlns:xlink="http://www.w3.org/1999/xlink" xml:space="preserve" onload="init(evt)">
<style type="text/css"><![CDATA[
.edge:hover path { stroke: red; }
.edge:hover polygon { stroke: red; fill: red; }
]]></style>
<script type="text/javascript"><![CDATA[
var edges = document.getElementsByTagName('g');
if (edges && edges.length) {
  for (var i=0;i<edges.length;i++) {
    if (edges[i].id.substr(0,4)=='edge') {
      edges[i].setAttribute('class','edge');
    }
  }
}
]]></script>
        <defs>
                <circle id="rim" cx="0" cy="0" r="7"/>
                <circle id="rim2" cx="0" cy="0" r="3.5"/>
                <g id="zoomPlus">
                        <use xlink:href="#rim" fill="#404040">
                                <set attributeName="fill" to="#808080" begin="zoomplus.mouseover" end="zoomplus.mouseout"/>
                        </use>
                        <path d="M-4,0h8M0,-4v8" fill="none" stroke="white" stroke-width="1.5" pointer-events="none"/>
                </g>
                <g id="zoomMin">
                        <use xlink:href="#rim" fill="#404040">
                                <set attributeName="fill" to="#808080" begin="zoomminus.mouseover" end="zoomminus.mouseout"/>
                        </use>
                        <path d="M-4,0h8" fill="none" stroke="white" stroke-width="1.5" pointer-events="none"/>
                </g>
                <g id="dirArrow">
                        <path fill="none" stroke="white" stroke-width="1.5" d="M0,-3.0v7 M-2.5,-0.5L0,-3.0L2.5,-0.5"/>
                </g>
               <g id="resetDef">
                       <use xlink:href="#rim2" fill="#404040">
                               <set attributeName="fill" to="#808080" begin="reset.mouseover" end="reset.mouseout"/>
                       </use>
               </g>
        </defs>

<script type="text/javascript">
var viewWidth = 533;
var viewHeight = 441;
var sectionId = 'dynsection-1';
</script>
<script xlink:href="svgpan.js"/>
<svg id="graph" class="graph">
<g id="viewport">
<title>ESP32BaseStation/src/lookups.h</title>
<polygon fill="white" stroke="transparent" points="-4,4 -4,-437 529.44,-437 529.44,4 -4,4"/>
<!-- Node1 -->
<g id="node1" class="node">
<title>Node1</title>
<g id="a_node1"><a xlink:title="Lookupable and lookupable manager base classes.">
<polygon fill="#bfbfbf" stroke="black" points="182.63,-402.5 182.63,-432.5 304.63,-432.5 304.63,-402.5 182.63,-402.5"/>
<text text-anchor="start" x="190.63" y="-420.5" font-family="Helvetica,sans-Serif" font-size="10.00">ESP32BaseStation/src</text>
<text text-anchor="middle" x="243.63" y="-409.5" font-family="Helvetica,sans-Serif" font-size="10.00">/lookups.h</text>
</a>
</g>
</g>
<!-- Node2 -->
<g id="node2" class="node">
<title>Node2</title>
<g id="a_node2"><a xlink:href="devices_8h.html" target="_top" xlink:title="Devices and manager for all known devices the base station connects to.">
<polygon fill="white" stroke="black" points="182.63,-268.5 182.63,-298.5 304.63,-298.5 304.63,-268.5 182.63,-268.5"/>
<text text-anchor="start" x="190.63" y="-286.5" font-family="Helvetica,sans-Serif" font-size="10.00">ESP32BaseStation/src</text>
<text text-anchor="middle" x="243.63" y="-275.5" font-family="Helvetica,sans-Serif" font-size="10.00">/devices.h</text>
</a>
</g>
</g>
<!-- Node1&#45;&gt;Node2 -->
<g id="edge1" class="edge">
<title>Node1&#45;&gt;Node2</title>
<path fill="none" stroke="midnightblue" d="M243.63,-392.02C243.63,-364.51 243.63,-320.79 243.63,-298.52"/>
<polygon fill="midnightblue" stroke="midnightblue" points="240.13,-392.37 243.63,-402.37 247.13,-392.37 240.13,-392.37"/>
</g>
<!-- Node6 -->
<g id="node6" class="node">
<title>Node6</title>
<g id="a_node6"><a xlink:href="lora_8h.html" target="_top" xlink:title="File that handles the LoRa radio and PJON.">
<polygon fill="white" stroke="black" points="13.63,-201.5 13.63,-231.5 135.63,-231.5 135.63,-201.5 13.63,-201.5"/>
<text text-anchor="start" x="21.63" y="-219.5" font-family="Helvetica,sans-Serif" font-size="10.00">ESP32BaseStation/src</text>
<text text-anchor="middle" x="74.63" y="-208.5" font-family="Helvetica,sans-Serif" font-size="10.00">/lora.h</text>
</a>
</g>
</g>
<!-- Node1&#45;&gt;Node6 -->
<g id="edge23" class="edge">
<title>Node1&#45;&gt;Node6</title>
<path fill="none" stroke="midnightblue" d="M224.83,-394.37C189.86,-353.19 115.73,-265.9 86.67,-231.68"/>
<polygon fill="midnightblue" stroke="midnightblue" points="222.33,-396.83 231.47,-402.19 227.67,-392.3 222.33,-396.83"/>
</g>
<!-- Node12 -->
<g id="node12" class="node">
<title>Node12</title>
<g id="a_node12"><a xlink:href="fields_8h.html" target="_top" xlink:title="Contains fields classes.">
<polygon fill="white" stroke="black" points="322.63,-335.5 322.63,-365.5 444.63,-365.5 444.63,-335.5 322.63,-335.5"/>
<text text-anchor="start" x="330.63" y="-353.5" font-family="Helvetica,sans-Serif" font-size="10.00">ESP32BaseStation/src</text>
<text text-anchor="middle" x="383.63" y="-342.5" font-family="Helvetica,sans-Serif" font-size="10.00">/fields.h</text>
</a>
</g>
</g>
<!-- Node1&#45;&gt;Node12 -->
<g id="edge18" class="edge">
<title>Node1&#45;&gt;Node12</title>
<path fill="none" stroke="midnightblue" d="M283.19,-398.13C305.44,-387.8 332.77,-375.11 353.31,-365.58"/>
<polygon fill="midnightblue" stroke="midnightblue" points="281.6,-395.01 274,-402.4 284.55,-401.36 281.6,-395.01"/>
</g>
<!-- Node3 -->
<g id="node3" class="node">
<title>Node3</title>
<g id="a_node3"><a xlink:href="device__list_8h.html" target="_top" xlink:title="List of all devices and fields known to the system.">
<polygon fill="white" stroke="black" points="369.63,-201.5 369.63,-231.5 509.63,-231.5 509.63,-201.5 369.63,-201.5"/>
<text text-anchor="start" x="377.63" y="-219.5" font-family="Helvetica,sans-Serif" font-size="10.00">ESP32BaseStation/device</text>
<text text-anchor="middle" x="439.63" y="-208.5" font-family="Helvetica,sans-Serif" font-size="10.00">_list.h</text>
</a>
</g>
</g>
<!-- Node2&#45;&gt;Node3 -->
<g id="edge2" class="edge">
<title>Node2&#45;&gt;Node3</title>
<path fill="none" stroke="midnightblue" d="M295.71,-265.23C327.41,-254.71 367.4,-241.45 397.18,-231.58"/>
<polygon fill="midnightblue" stroke="midnightblue" points="294.54,-261.93 286.15,-268.4 296.75,-268.57 294.54,-261.93"/>
</g>
<!-- Node5 -->
<g id="node5" class="node">
<title>Node5</title>
<g id="a_node5"><a xlink:href="devices_8cpp.html" target="_top" xlink:title="Devices and manager for all known devices the base station connects to.">
<polygon fill="white" stroke="black" points="153.63,-201.5 153.63,-231.5 275.63,-231.5 275.63,-201.5 153.63,-201.5"/>
<text text-anchor="start" x="161.63" y="-219.5" font-family="Helvetica,sans-Serif" font-size="10.00">ESP32BaseStation/src</text>
<text text-anchor="middle" x="214.63" y="-208.5" font-family="Helvetica,sans-Serif" font-size="10.00">/devices.cpp</text>
</a>
</g>
</g>
<!-- Node2&#45;&gt;Node5 -->
<g id="edge4" class="edge">
<title>Node2&#45;&gt;Node5</title>
<path fill="none" stroke="midnightblue" d="M233.14,-258.99C229.04,-249.8 224.48,-239.58 220.91,-231.58"/>
<polygon fill="midnightblue" stroke="midnightblue" points="230.06,-260.69 237.33,-268.4 236.45,-257.84 230.06,-260.69"/>
</g>
<!-- Node2&#45;&gt;Node6 -->
<g id="edge5" class="edge">
<title>Node2&#45;&gt;Node6</title>
<path fill="none" stroke="midnightblue" d="M197.3,-264.68C170.19,-254.26 136.45,-241.28 111.22,-231.58"/>
<polygon fill="midnightblue" stroke="midnightblue" points="196.36,-268.07 206.95,-268.4 198.88,-261.54 196.36,-268.07"/>
</g>
<!-- Node8 -->
<g id="node8" class="node">
<title>Node8</title>
<g id="a_node8"><a xlink:href="networking_8h.html" target="_top" xlink:title="Header file for networking.cpp.">
<polygon fill="white" stroke="black" points="153.63,-134.5 153.63,-164.5 275.63,-164.5 275.63,-134.5 153.63,-134.5"/>
<text text-anchor="start" x="161.63" y="-152.5" font-family="Helvetica,sans-Serif" font-size="10.00">ESP32BaseStation/src</text>
<text text-anchor="middle" x="214.63" y="-141.5" font-family="Helvetica,sans-Serif" font-size="10.00">/networking.h</text>
</a>
</g>
</g>
<!-- Node2&#45;&gt;Node8 -->
<g id="edge16" class="edge">
<title>Node2&#45;&gt;Node8</title>
<path fill="none" stroke="midnightblue" d="M266.41,-260.84C280.84,-244.4 294.98,-221.24 284.63,-201 276.43,-184.99 260.54,-172.89 245.97,-164.56"/>
<polygon fill="midnightblue" stroke="midnightblue" points="263.68,-258.64 259.41,-268.34 268.8,-263.42 263.68,-258.64"/>
</g>
<!-- Node10 -->
<g id="node10" class="node">
<title>Node10</title>
<g id="a_node10"><a xlink:href="rpc_8h.html" target="_top" xlink:title="Handles RPC calls.">
<polygon fill="white" stroke="black" points="283.63,-67.5 283.63,-97.5 405.63,-97.5 405.63,-67.5 283.63,-67.5"/>
<text text-anchor="start" x="291.63" y="-85.5" font-family="Helvetica,sans-Serif" font-size="10.00">ESP32BaseStation/src</text>
<text text-anchor="middle" x="344.63" y="-74.5" font-family="Helvetica,sans-Serif" font-size="10.00">/rpc.h</text>
</a>
</g>
</g>
<!-- Node2&#45;&gt;Node10 -->
<g id="edge17" class="edge">
<title>Node2&#45;&gt;Node10</title>
<path fill="none" stroke="midnightblue" d="M271.87,-262.24C281.85,-253.86 292.37,-243.42 299.63,-232 327.63,-187.88 339.03,-125.35 342.91,-97.65"/>
<polygon fill="midnightblue" stroke="midnightblue" points="269.68,-259.51 264.07,-268.49 274.06,-264.97 269.68,-259.51"/>
</g>
<!-- Node4 -->
<g id="node4" class="node">
<title>Node4</title>
<g id="a_node4"><a xlink:href="_e_s_p32_base_station_8ino.html" target="_top" xlink:title="Main file for a base station to connect to remote sensors on a farm.">
<polygon fill="white" stroke="black" points="69.63,-0.5 69.63,-30.5 231.63,-30.5 231.63,-0.5 69.63,-0.5"/>
<text text-anchor="start" x="77.63" y="-18.5" font-family="Helvetica,sans-Serif" font-size="10.00">ESP32BaseStation/ESP32Base</text>
<text text-anchor="middle" x="150.63" y="-7.5" font-family="Helvetica,sans-Serif" font-size="10.00">Station.ino</text>
</a>
</g>
</g>
<!-- Node3&#45;&gt;Node4 -->
<g id="edge3" class="edge">
<title>Node3&#45;&gt;Node4</title>
<path fill="none" stroke="midnightblue" d="M443.2,-191.25C446.55,-158.4 446.98,-100.08 414.63,-67 401.76,-53.84 304.5,-37.73 231.75,-27.29"/>
<polygon fill="midnightblue" stroke="midnightblue" points="439.7,-191 441.99,-201.34 446.65,-191.83 439.7,-191"/>
</g>
<!-- Node6&#45;&gt;Node4 -->
<g id="edge6" class="edge">
<title>Node6&#45;&gt;Node4</title>
<path fill="none" stroke="midnightblue" d="M34.66,-196.12C22.79,-188.23 11.22,-177.88 4.63,-165 -1.65,-152.73 -1.32,-146.43 4.63,-134 28.44,-84.26 84.73,-48.88 120.04,-30.64"/>
<polygon fill="midnightblue" stroke="midnightblue" points="32.93,-199.17 43.28,-201.44 36.61,-193.21 32.93,-199.17"/>
</g>
<!-- Node7 -->
<g id="node7" class="node">
<title>Node7</title>
<g id="a_node7"><a xlink:href="lora_8cpp.html" target="_top" xlink:title="File that handles the LoRa radio and PJON.">
<polygon fill="white" stroke="black" points="13.63,-134.5 13.63,-164.5 135.63,-164.5 135.63,-134.5 13.63,-134.5"/>
<text text-anchor="start" x="21.63" y="-152.5" font-family="Helvetica,sans-Serif" font-size="10.00">ESP32BaseStation/src</text>
<text text-anchor="middle" x="74.63" y="-141.5" font-family="Helvetica,sans-Serif" font-size="10.00">/lora.cpp</text>
</a>
</g>
</g>
<!-- Node6&#45;&gt;Node7 -->
<g id="edge7" class="edge">
<title>Node6&#45;&gt;Node7</title>
<path fill="none" stroke="midnightblue" d="M74.63,-191.11C74.63,-182.15 74.63,-172.32 74.63,-164.58"/>
<polygon fill="midnightblue" stroke="midnightblue" points="71.13,-191.4 74.63,-201.4 78.13,-191.4 71.13,-191.4"/>
</g>
<!-- Node6&#45;&gt;Node8 -->
<g id="edge8" class="edge">
<title>Node6&#45;&gt;Node8</title>
<path fill="none" stroke="midnightblue" d="M108.33,-196.99C129.6,-186.69 156.94,-174.07 178.63,-164.58"/>
<polygon fill="midnightblue" stroke="midnightblue" points="106.77,-193.86 99.32,-201.4 109.85,-200.15 106.77,-193.86"/>
</g>
<!-- Node8&#45;&gt;Node4 -->
<g id="edge9" class="edge">
<title>Node8&#45;&gt;Node4</title>
<path fill="none" stroke="midnightblue" d="M167.78,-129.53C154.69,-121.8 142.03,-111.44 134.63,-98 122.79,-76.53 133.73,-47.64 142.41,-30.65"/>
<polygon fill="midnightblue" stroke="midnightblue" points="166.4,-132.76 176.85,-134.47 169.74,-126.61 166.4,-132.76"/>
</g>
<!-- Node8&#45;&gt;Node6 -->
<g id="edge10" class="edge">
<title>Node8&#45;&gt;Node6</title>
<path fill="none" stroke="midnightblue" d="M180.98,-168.98C159.73,-179.28 132.38,-191.9 110.68,-201.4"/>
<polygon fill="midnightblue" stroke="midnightblue" points="182.54,-172.11 189.98,-164.58 179.46,-165.83 182.54,-172.11"/>
</g>
<!-- Node9 -->
<g id="node9" class="node">
<title>Node9</title>
<g id="a_node9"><a xlink:href="networking_8cpp.html" target="_top" xlink:title="File that handles connecting to WiFi and MQTT and staying connected.">
<polygon fill="white" stroke="black" points="143.63,-67.5 143.63,-97.5 265.63,-97.5 265.63,-67.5 143.63,-67.5"/>
<text text-anchor="start" x="151.63" y="-85.5" font-family="Helvetica,sans-Serif" font-size="10.00">ESP32BaseStation/src</text>
<text text-anchor="middle" x="204.63" y="-74.5" font-family="Helvetica,sans-Serif" font-size="10.00">/networking.cpp</text>
</a>
</g>
</g>
<!-- Node8&#45;&gt;Node9 -->
<g id="edge11" class="edge">
<title>Node8&#45;&gt;Node9</title>
<path fill="none" stroke="midnightblue" d="M210.92,-124.4C209.53,-115.37 208,-105.41 206.79,-97.58"/>
<polygon fill="midnightblue" stroke="midnightblue" points="207.48,-125.04 212.46,-134.4 214.39,-123.98 207.48,-125.04"/>
</g>
<!-- Node8&#45;&gt;Node10 -->
<g id="edge12" class="edge">
<title>Node8&#45;&gt;Node10</title>
<path fill="none" stroke="midnightblue" d="M251.92,-129.85C272.47,-119.58 297.58,-107.03 316.47,-97.58"/>
<polygon fill="midnightblue" stroke="midnightblue" points="250.21,-126.79 242.83,-134.4 253.34,-133.05 250.21,-126.79"/>
</g>
<!-- Node10&#45;&gt;Node4 -->
<g id="edge13" class="edge">
<title>Node10&#45;&gt;Node4</title>
<path fill="none" stroke="midnightblue" d="M292.67,-64.09C261.35,-53.6 221.98,-40.41 192.64,-30.58"/>
<polygon fill="midnightblue" stroke="midnightblue" points="291.94,-67.54 302.53,-67.4 294.16,-60.9 291.94,-67.54"/>
</g>
<!-- Node10&#45;&gt;Node6 -->
<g id="edge14" class="edge">
<title>Node10&#45;&gt;Node6</title>
<path fill="none" stroke="midnightblue" d="M333.38,-106.71C323.19,-125.28 306.44,-150.52 284.63,-165 278.28,-169.21 195.38,-188.43 135.66,-201.9"/>
<polygon fill="midnightblue" stroke="midnightblue" points="336.56,-108.19 338.1,-97.71 330.36,-104.94 336.56,-108.19"/>
</g>
<!-- Node11 -->
<g id="node11" class="node">
<title>Node11</title>
<g id="a_node11"><a xlink:href="rpc_8cpp.html" target="_top" xlink:title="Handles RPC calls.">
<polygon fill="white" stroke="black" points="283.63,-0.5 283.63,-30.5 405.63,-30.5 405.63,-0.5 283.63,-0.5"/>
<text text-anchor="start" x="291.63" y="-18.5" font-family="Helvetica,sans-Serif" font-size="10.00">ESP32BaseStation/src</text>
<text text-anchor="middle" x="344.63" y="-7.5" font-family="Helvetica,sans-Serif" font-size="10.00">/rpc.cpp</text>
</a>
</g>
</g>
<!-- Node10&#45;&gt;Node11 -->
<g id="edge15" class="edge">
<title>Node10&#45;&gt;Node11</title>
<path fill="none" stroke="midnightblue" d="M344.63,-57.11C344.63,-48.15 344.63,-38.32 344.63,-30.58"/>
<polygon fill="midnightblue" stroke="midnightblue" points="341.13,-57.4 344.63,-67.4 348.13,-57.4 341.13,-57.4"/>
</g>
<!-- Node12&#45;&gt;Node2 -->
<g id="edge20" class="edge">
<title>Node12&#45;&gt;Node2</title>
<path fill="none" stroke="midnightblue" d="M344.06,-331.13C321.82,-320.8 294.48,-308.11 273.94,-298.58"/>
<polygon fill="midnightblue" stroke="midnightblue" points="342.7,-334.36 353.25,-335.4 345.65,-328.01 342.7,-334.36"/>
</g>
<!-- Node12&#45;&gt;Node3 -->
<g id="edge19" class="edge">
<title>Node12&#45;&gt;Node3</title>
<path fill="none" stroke="midnightblue" d="M423.59,-330.12C435.46,-322.23 447.03,-311.88 453.63,-299 464.74,-277.27 454.92,-248.46 447.07,-231.56"/>
<polygon fill="midnightblue" stroke="midnightblue" points="421.64,-327.21 414.97,-335.44 425.32,-333.17 421.64,-327.21"/>
</g>
<!-- Node12&#45;&gt;Node10 -->
<g id="edge22" class="edge">
<title>Node12&#45;&gt;Node10</title>
<path fill="none" stroke="midnightblue" d="M423.33,-330.94C472.76,-305.06 547.41,-255.17 518.63,-201 490.49,-148.05 426.67,-114.63 384.64,-97.51"/>
<polygon fill="midnightblue" stroke="midnightblue" points="421.74,-327.83 414.42,-335.49 424.92,-334.06 421.74,-327.83"/>
</g>
<!-- Node13 -->
<g id="node13" class="node">
<title>Node13</title>
<g id="a_node13"><a xlink:href="fields_8cpp.html" target="_top" xlink:title="Contains fields classes.">
<polygon fill="white" stroke="black" points="322.63,-268.5 322.63,-298.5 444.63,-298.5 444.63,-268.5 322.63,-268.5"/>
<text text-anchor="start" x="330.63" y="-286.5" font-family="Helvetica,sans-Serif" font-size="10.00">ESP32BaseStation/src</text>
<text text-anchor="middle" x="383.63" y="-275.5" font-family="Helvetica,sans-Serif" font-size="10.00">/fields.cpp</text>
</a>
</g>
</g>
<!-- Node12&#45;&gt;Node13 -->
<g id="edge21" class="edge">
<title>Node12&#45;&gt;Node13</title>
<path fill="none" stroke="midnightblue" d="M383.63,-325.11C383.63,-316.15 383.63,-306.32 383.63,-298.58"/>
<polygon fill="midnightblue" stroke="midnightblue" points="380.13,-325.4 383.63,-335.4 387.13,-325.4 380.13,-325.4"/>
</g>
</g>
</svg>
        <g id="navigator" transform="translate(0 0)" fill="#404254">
                <rect fill="#f2f5e9" fill-opacity="0.5" stroke="#606060" stroke-width=".5" x="0" y="0" width="60" height="60"/>
                <use id="zoomplus" xlink:href="#zoomPlus" x="17" y="9" onmousedown="handleZoom(evt,'in')"/>
                <use id="zoomminus" xlink:href="#zoomMin" x="42" y="9" onmousedown="handleZoom(evt,'out')"/>
                <use id="reset" xlink:href="#resetDef" x="30" y="36" onmousedown="handleReset()"/>
                <g id="arrowUp" xlink:href="#dirArrow" transform="translate(30 24)" onmousedown="handlePan(0,-1)">
                  <use xlink:href="#rim" fill="#404040">
                        <set attributeName="fill" to="#808080" begin="arrowUp.mouseover" end="arrowUp.mouseout"/>
                  </use>
                  <path fill="none" stroke="white" stroke-width="1.5" d="M0,-3.0v7 M-2.5,-0.5L0,-3.0L2.5,-0.5"/>
                </g>
                <g id="arrowRight" xlink:href="#dirArrow" transform="rotate(90) translate(36 -43)" onmousedown="handlePan(1,0)">
                  <use xlink:href="#rim" fill="#404040">
                        <set attributeName="fill" to="#808080" begin="arrowRight.mouseover" end="arrowRight.mouseout"/>
                  </use>
                  <path fill="none" stroke="white" stroke-width="1.5" d="M0,-3.0v7 M-2.5,-0.5L0,-3.0L2.5,-0.5"/>
                </g>
                <g id="arrowDown" xlink:href="#dirArrow" transform="rotate(180) translate(-30 -48)" onmousedown="handlePan(0,1)">
                  <use xlink:href="#rim" fill="#404040">
                        <set attributeName="fill" to="#808080" begin="arrowDown.mouseover" end="arrowDown.mouseout"/>
                  </use>
                  <path fill="none" stroke="white" stroke-width="1.5" d="M0,-3.0v7 M-2.5,-0.5L0,-3.0L2.5,-0.5"/>
                </g>
                <g id="arrowLeft" xlink:href="#dirArrow" transform="rotate(270) translate(-36 17)" onmousedown="handlePan(-1,0)">
                  <use xlink:href="#rim" fill="#404040">
                        <set attributeName="fill" to="#808080" begin="arrowLeft.mouseover" end="arrowLeft.mouseout"/>
                  </use>
                  <path fill="none" stroke="white" stroke-width="1.5" d="M0,-3.0v7 M-2.5,-0.5L0,-3.0L2.5,-0.5"/>
                </g>
        </g>
        <svg viewBox="0 0 15 15" width="100%" height="30px" preserveAspectRatio="xMaxYMin meet">
         <g id="arrow_out" transform="scale(0.3 0.3)">
          <a xlink:href="lookups_8h__dep__incl_org.svg" target="_base">
           <rect id="button" ry="5" rx="5" y="6" x="6" height="38" width="38"
                fill="#f2f5e9" fill-opacity="0.5" stroke="#606060" stroke-width="1.0"/>
           <path id="arrow"
             d="M 11.500037,31.436501 C 11.940474,20.09759 22.043105,11.32322 32.158766,21.979434 L 37.068811,17.246167 C 37.068811,17.246167 37.088388,32 37.088388,32 L 22.160133,31.978069 C 22.160133,31.978069 26.997745,27.140456 26.997745,27.140456 C 18.528582,18.264221 13.291696,25.230495 11.500037,31.436501 z"
             style="fill:#404040;"/>
          </a>
         </g>
        </svg>
</svg>
