<?xml version="1.0" encoding="UTF-8" standalone="no"?>
<!DOCTYPE svg PUBLIC "-//W3C//DTD SVG 1.1//EN"
 "http://www.w3.org/Graphics/SVG/1.1/DTD/svg11.dtd">
<!-- Generated by graphviz version 2.43.0 (0)
 -->
<!-- Title: ESP32BaseStation/src/lookups.h Pages: 1 -->
<svg width="830pt" height="441pt"
 viewBox="0.00 0.00 830.40 441.00" xmlns="http://www.w3.org/2000/svg" xmlns:xlink="http://www.w3.org/1999/xlink">
<g id="graph0" class="graph" transform="scale(1 1) rotate(0) translate(4 437)">
<title>ESP32BaseStation/src/lookups.h</title>
<polygon fill="white" stroke="transparent" points="-4,4 -4,-437 826.4,-437 826.4,4 -4,4"/>
<!-- Node1 -->
<g id="node1" class="node">
<title>Node1</title>
<g id="a_node1"><a xlink:title="Lookupable and lookupable manager base classes.">
<polygon fill="#bfbfbf" stroke="black" points="518,-402.5 518,-432.5 640,-432.5 640,-402.5 518,-402.5"/>
<text text-anchor="start" x="526" y="-420.5" font-family="Helvetica,sans-Serif" font-size="10.00">ESP32BaseStation/src</text>
<text text-anchor="middle" x="579" y="-409.5" font-family="Helvetica,sans-Serif" font-size="10.00">/lookups.h</text>
</a>
</g>
</g>
<!-- Node2 -->
<g id="node2" class="node">
<title>Node2</title>
<g id="a_node2"><a xlink:href="devices_8h.html" target="_top" xlink:title="Devices and manager for all known devices the base station connects to.">
<polygon fill="white" stroke="black" points="429,-268.5 429,-298.5 551,-298.5 551,-268.5 429,-268.5"/>
<text text-anchor="start" x="437" y="-286.5" font-family="Helvetica,sans-Serif" font-size="10.00">ESP32BaseStation/src</text>
<text text-anchor="middle" x="490" y="-275.5" font-family="Helvetica,sans-Serif" font-size="10.00">/devices.h</text>
</a>
</g>
</g>
<!-- Node1&#45;&gt;Node2 -->
<g id="edge1" class="edge">
<title>Node1&#45;&gt;Node2</title>
<path fill="none" stroke="midnightblue" d="M563.72,-393.83C545.26,-366.47 514.8,-321.28 499.46,-298.52"/>
<polygon fill="midnightblue" stroke="midnightblue" points="560.98,-396.04 569.48,-402.37 566.79,-392.13 560.98,-396.04"/>
</g>
<!-- Node8 -->
<g id="node8" class="node">
<title>Node8</title>
<g id="a_node8"><a xlink:href="lora_8h.html" target="_top" xlink:title="File that handles the LoRa radio and PJON.">
<polygon fill="white" stroke="black" points="518,-201.5 518,-231.5 640,-231.5 640,-201.5 518,-201.5"/>
<text text-anchor="start" x="526" y="-219.5" font-family="Helvetica,sans-Serif" font-size="10.00">ESP32BaseStation/src</text>
<text text-anchor="middle" x="579" y="-208.5" font-family="Helvetica,sans-Serif" font-size="10.00">/lora.h</text>
</a>
</g>
</g>
<!-- Node1&#45;&gt;Node8 -->
<g id="edge30" class="edge">
<title>Node1&#45;&gt;Node8</title>
<path fill="none" stroke="midnightblue" d="M579,-392C579,-349.93 579,-265.26 579,-231.68"/>
<polygon fill="midnightblue" stroke="midnightblue" points="575.5,-392.19 579,-402.19 582.5,-392.19 575.5,-392.19"/>
</g>
<!-- Node16 -->
<g id="node16" class="node">
<title>Node16</title>
<g id="a_node16"><a xlink:href="fields_8h.html" target="_top" xlink:title="Contains fields classes.">
<polygon fill="white" stroke="black" points="607,-335.5 607,-365.5 729,-365.5 729,-335.5 607,-335.5"/>
<text text-anchor="start" x="615" y="-353.5" font-family="Helvetica,sans-Serif" font-size="10.00">ESP32BaseStation/src</text>
<text text-anchor="middle" x="668" y="-342.5" font-family="Helvetica,sans-Serif" font-size="10.00">/fields.h</text>
</a>
</g>
</g>
<!-- Node1&#45;&gt;Node16 -->
<g id="edge25" class="edge">
<title>Node1&#45;&gt;Node16</title>
<path fill="none" stroke="midnightblue" d="M606.45,-396.45C620.14,-386.45 636.37,-374.6 648.73,-365.58"/>
<polygon fill="midnightblue" stroke="midnightblue" points="604.32,-393.67 598.31,-402.4 608.45,-399.32 604.32,-393.67"/>
</g>
<!-- Node3 -->
<g id="node3" class="node">
<title>Node3</title>
<g id="a_node3"><a xlink:href="device__list_8h.html" target="_top" xlink:title="List of all devices and fields known to the system.">
<polygon fill="white" stroke="black" points="658,-201.5 658,-231.5 798,-231.5 798,-201.5 658,-201.5"/>
<text text-anchor="start" x="666" y="-219.5" font-family="Helvetica,sans-Serif" font-size="10.00">ESP32BaseStation/device</text>
<text text-anchor="middle" x="728" y="-208.5" font-family="Helvetica,sans-Serif" font-size="10.00">_list.h</text>
</a>
</g>
</g>
<!-- Node2&#45;&gt;Node3 -->
<g id="edge2" class="edge">
<title>Node2&#45;&gt;Node3</title>
<path fill="none" stroke="midnightblue" d="M551.46,-265.71C590.19,-255.14 639.63,-241.63 676.33,-231.61"/>
<polygon fill="midnightblue" stroke="midnightblue" points="550.07,-262.46 541.35,-268.48 551.92,-269.22 550.07,-262.46"/>
</g>
<!-- Node5 -->
<g id="node5" class="node">
<title>Node5</title>
<g id="a_node5"><a xlink:href="devices_8cpp.html" target="_top" xlink:title="Devices and manager for all known devices the base station connects to.">
<polygon fill="white" stroke="black" points="340,-201.5 340,-231.5 462,-231.5 462,-201.5 340,-201.5"/>
<text text-anchor="start" x="348" y="-219.5" font-family="Helvetica,sans-Serif" font-size="10.00">ESP32BaseStation/src</text>
<text text-anchor="middle" x="401" y="-208.5" font-family="Helvetica,sans-Serif" font-size="10.00">/devices.cpp</text>
</a>
</g>
</g>
<!-- Node2&#45;&gt;Node5 -->
<g id="edge4" class="edge">
<title>Node2&#45;&gt;Node5</title>
<path fill="none" stroke="midnightblue" d="M462.55,-262.45C448.86,-252.45 432.63,-240.6 420.27,-231.58"/>
<polygon fill="midnightblue" stroke="midnightblue" points="460.55,-265.32 470.69,-268.4 464.68,-259.67 460.55,-265.32"/>
</g>
<!-- Node6 -->
<g id="node6" class="node">
<title>Node6</title>
<g id="a_node6"><a xlink:href="leds_8h.html" target="_top" xlink:title="Controls the LEDs on the unit.">
<polygon fill="white" stroke="black" points="0,-67.5 0,-97.5 122,-97.5 122,-67.5 0,-67.5"/>
<text text-anchor="start" x="8" y="-85.5" font-family="Helvetica,sans-Serif" font-size="10.00">ESP32BaseStation/src</text>
<text text-anchor="middle" x="61" y="-74.5" font-family="Helvetica,sans-Serif" font-size="10.00">/leds.h</text>
</a>
</g>
</g>
<!-- Node2&#45;&gt;Node6 -->
<g id="edge5" class="edge">
<title>Node2&#45;&gt;Node6</title>
<path fill="none" stroke="midnightblue" d="M421.06,-265.74C389.92,-257.2 353,-245.71 321,-232 227.34,-191.89 124.69,-126.15 81.72,-97.54"/>
<polygon fill="midnightblue" stroke="midnightblue" points="420.39,-269.19 430.96,-268.41 422.21,-262.43 420.39,-269.19"/>
</g>
<!-- Node2&#45;&gt;Node8 -->
<g id="edge8" class="edge">
<title>Node2&#45;&gt;Node8</title>
<path fill="none" stroke="midnightblue" d="M517.45,-262.45C531.14,-252.45 547.37,-240.6 559.73,-231.58"/>
<polygon fill="midnightblue" stroke="midnightblue" points="515.32,-259.67 509.31,-268.4 519.45,-265.32 515.32,-259.67"/>
</g>
<!-- Node10 -->
<g id="node10" class="node">
<title>Node10</title>
<g id="a_node10"><a xlink:href="networking_8h.html" target="_top" xlink:title="Header file for networking.cpp.">
<polygon fill="white" stroke="black" points="337,-134.5 337,-164.5 459,-164.5 459,-134.5 337,-134.5"/>
<text text-anchor="start" x="345" y="-152.5" font-family="Helvetica,sans-Serif" font-size="10.00">ESP32BaseStation/src</text>
<text text-anchor="middle" x="398" y="-141.5" font-family="Helvetica,sans-Serif" font-size="10.00">/networking.h</text>
</a>
</g>
</g>
<!-- Node2&#45;&gt;Node10 -->
<g id="edge23" class="edge">
<title>Node2&#45;&gt;Node10</title>
<path fill="none" stroke="midnightblue" d="M419.01,-278.38C386.7,-272.52 351.23,-259.64 331,-232 322.86,-220.88 324.85,-213.33 331,-201 338.86,-185.23 354.26,-173.08 368.31,-164.66"/>
<polygon fill="midnightblue" stroke="midnightblue" points="418.49,-281.84 428.92,-279.98 419.61,-274.93 418.49,-281.84"/>
</g>
<!-- Node14 -->
<g id="node14" class="node">
<title>Node14</title>
<g id="a_node14"><a xlink:href="rpc_8h.html" target="_top" xlink:title="Handles RPC calls.">
<polygon fill="white" stroke="black" points="458,-67.5 458,-97.5 580,-97.5 580,-67.5 458,-67.5"/>
<text text-anchor="start" x="466" y="-85.5" font-family="Helvetica,sans-Serif" font-size="10.00">ESP32BaseStation/src</text>
<text text-anchor="middle" x="519" y="-74.5" font-family="Helvetica,sans-Serif" font-size="10.00">/rpc.h</text>
</a>
</g>
</g>
<!-- Node2&#45;&gt;Node14 -->
<g id="edge24" class="edge">
<title>Node2&#45;&gt;Node14</title>
<path fill="none" stroke="midnightblue" d="M493.53,-258.27C499.65,-216.29 512.03,-131.33 516.93,-97.68"/>
<polygon fill="midnightblue" stroke="midnightblue" points="490.06,-257.79 492.09,-268.19 496.99,-258.8 490.06,-257.79"/>
</g>
<!-- Node4 -->
<g id="node4" class="node">
<title>Node4</title>
<g id="a_node4"><a xlink:href="_e_s_p32_base_station_8ino.html" target="_top" xlink:title="Main file for a base station to connect to remote sensors on a farm.">
<polygon fill="white" stroke="black" points="384,-0.5 384,-30.5 546,-30.5 546,-0.5 384,-0.5"/>
<text text-anchor="start" x="392" y="-18.5" font-family="Helvetica,sans-Serif" font-size="10.00">ESP32BaseStation/ESP32Base</text>
<text text-anchor="middle" x="465" y="-7.5" font-family="Helvetica,sans-Serif" font-size="10.00">Station.ino</text>
</a>
</g>
</g>
<!-- Node3&#45;&gt;Node4 -->
<g id="edge3" class="edge">
<title>Node3&#45;&gt;Node4</title>
<path fill="none" stroke="midnightblue" d="M745.02,-192.97C755.75,-175.8 765.58,-152.11 754,-134 727.74,-92.93 595.53,-51.53 519.35,-30.56"/>
<polygon fill="midnightblue" stroke="midnightblue" points="742.1,-191.03 739.44,-201.29 747.92,-194.94 742.1,-191.03"/>
</g>
<!-- Node6&#45;&gt;Node4 -->
<g id="edge6" class="edge">
<title>Node6&#45;&gt;Node4</title>
<path fill="none" stroke="midnightblue" d="M132.09,-66.87C240.63,-47.85 269.84,-47.23 375,-31 377.82,-30.57 380.68,-30.12 383.57,-29.67"/>
<polygon fill="midnightblue" stroke="midnightblue" points="131.28,-63.45 122.04,-68.64 132.5,-70.35 131.28,-63.45"/>
</g>
<!-- Node7 -->
<g id="node7" class="node">
<title>Node7</title>
<g id="a_node7"><a xlink:href="leds_8cpp.html" target="_top" xlink:title="Controls the LEDs on the unit.">
<polygon fill="white" stroke="black" points="0,-0.5 0,-30.5 122,-30.5 122,-0.5 0,-0.5"/>
<text text-anchor="start" x="8" y="-18.5" font-family="Helvetica,sans-Serif" font-size="10.00">ESP32BaseStation/src</text>
<text text-anchor="middle" x="61" y="-7.5" font-family="Helvetica,sans-Serif" font-size="10.00">/leds.cpp</text>
</a>
</g>
</g>
<!-- Node6&#45;&gt;Node7 -->
<g id="edge7" class="edge">
<title>Node6&#45;&gt;Node7</title>
<path fill="none" stroke="midnightblue" d="M61,-57.11C61,-48.15 61,-38.32 61,-30.58"/>
<polygon fill="midnightblue" stroke="midnightblue" points="57.5,-57.4 61,-67.4 64.5,-57.4 57.5,-57.4"/>
</g>
<!-- Node8&#45;&gt;Node4 -->
<g id="edge9" class="edge">
<title>Node8&#45;&gt;Node4</title>
<path fill="none" stroke="midnightblue" d="M588.91,-191.68C600.26,-160.26 614.26,-104.57 589,-67 577.2,-49.45 558.12,-37.99 538.42,-30.52"/>
<polygon fill="midnightblue" stroke="midnightblue" points="585.52,-190.75 585.22,-201.35 592.06,-193.25 585.52,-190.75"/>
</g>
<!-- Node9 -->
<g id="node9" class="node">
<title>Node9</title>
<g id="a_node9"><a xlink:href="lora_8cpp.html" target="_top" xlink:title="File that handles the LoRa radio and PJON.">
<polygon fill="white" stroke="black" points="623,-134.5 623,-164.5 745,-164.5 745,-134.5 623,-134.5"/>
<text text-anchor="start" x="631" y="-152.5" font-family="Helvetica,sans-Serif" font-size="10.00">ESP32BaseStation/src</text>
<text text-anchor="middle" x="684" y="-141.5" font-family="Helvetica,sans-Serif" font-size="10.00">/lora.cpp</text>
</a>
</g>
</g>
<!-- Node8&#45;&gt;Node9 -->
<g id="edge10" class="edge">
<title>Node8&#45;&gt;Node9</title>
<path fill="none" stroke="midnightblue" d="M610.48,-196.02C626.82,-185.9 646.41,-173.77 661.26,-164.58"/>
<polygon fill="midnightblue" stroke="midnightblue" points="608.44,-193.16 601.78,-201.4 612.13,-199.11 608.44,-193.16"/>
</g>
<!-- Node8&#45;&gt;Node10 -->
<g id="edge11" class="edge">
<title>Node8&#45;&gt;Node10</title>
<path fill="none" stroke="midnightblue" d="M524.47,-198.09C494.21,-187.6 457.61,-174.41 431.52,-164.58"/>
<polygon fill="midnightblue" stroke="midnightblue" points="523.45,-201.44 534.05,-201.4 525.74,-194.83 523.45,-201.44"/>
</g>
<!-- Node10&#45;&gt;Node4 -->
<g id="edge12" class="edge">
<title>Node10&#45;&gt;Node4</title>
<path fill="none" stroke="midnightblue" d="M409.87,-125.12C423.79,-97.68 446.43,-53.09 457.88,-30.52"/>
<polygon fill="midnightblue" stroke="midnightblue" points="406.58,-123.87 405.17,-134.37 412.82,-127.04 406.58,-123.87"/>
</g>
<!-- Node10&#45;&gt;Node6 -->
<g id="edge13" class="edge">
<title>Node10&#45;&gt;Node6</title>
<path fill="none" stroke="midnightblue" d="M326.84,-135.39C273.01,-125.38 197.3,-111.14 131,-98 128.08,-97.42 125.09,-96.82 122.07,-96.22"/>
<polygon fill="midnightblue" stroke="midnightblue" points="326.5,-138.88 336.97,-137.27 327.77,-132 326.5,-138.88"/>
</g>
<!-- Node10&#45;&gt;Node8 -->
<g id="edge14" class="edge">
<title>Node10&#45;&gt;Node8</title>
<path fill="none" stroke="midnightblue" d="M452.45,-167.88C482.69,-178.37 519.3,-191.56 545.4,-201.4"/>
<polygon fill="midnightblue" stroke="midnightblue" points="453.47,-164.53 442.87,-164.58 451.18,-171.15 453.47,-164.53"/>
</g>
<!-- Node11 -->
<g id="node11" class="node">
<title>Node11</title>
<g id="a_node11"><a xlink:href="networking_8cpp.html" target="_top" xlink:title="File that handles connecting to WiFi and MQTT and staying connected.">
<polygon fill="white" stroke="black" points="140,-67.5 140,-97.5 262,-97.5 262,-67.5 140,-67.5"/>
<text text-anchor="start" x="148" y="-85.5" font-family="Helvetica,sans-Serif" font-size="10.00">ESP32BaseStation/src</text>
<text text-anchor="middle" x="201" y="-74.5" font-family="Helvetica,sans-Serif" font-size="10.00">/networking.cpp</text>
</a>
</g>
</g>
<!-- Node10&#45;&gt;Node11 -->
<g id="edge15" class="edge">
<title>Node10&#45;&gt;Node11</title>
<path fill="none" stroke="midnightblue" d="M345.65,-131.23C313.78,-120.71 273.59,-107.45 243.66,-97.58"/>
<polygon fill="midnightblue" stroke="midnightblue" points="344.66,-134.59 355.25,-134.4 346.85,-127.94 344.66,-134.59"/>
</g>
<!-- Node12 -->
<g id="node12" class="node">
<title>Node12</title>
<g id="a_node12"><a xlink:href="ota_8h.html" target="_top" xlink:title="Handles over the air (OTA) updates.">
<polygon fill="white" stroke="black" points="280,-67.5 280,-97.5 402,-97.5 402,-67.5 280,-67.5"/>
<text text-anchor="start" x="288" y="-85.5" font-family="Helvetica,sans-Serif" font-size="10.00">ESP32BaseStation/src</text>
<text text-anchor="middle" x="341" y="-74.5" font-family="Helvetica,sans-Serif" font-size="10.00">/ota.h</text>
</a>
</g>
</g>
<!-- Node10&#45;&gt;Node12 -->
<g id="edge16" class="edge">
<title>Node10&#45;&gt;Node12</title>
<path fill="none" stroke="midnightblue" d="M378.91,-126.74C370.48,-117.12 360.81,-106.09 353.34,-97.58"/>
<polygon fill="midnightblue" stroke="midnightblue" points="376.41,-129.18 385.63,-134.4 381.67,-124.57 376.41,-129.18"/>
</g>
<!-- Node10&#45;&gt;Node14 -->
<g id="edge19" class="edge">
<title>Node10&#45;&gt;Node14</title>
<path fill="none" stroke="midnightblue" d="M433.23,-129.57C452.26,-119.35 475.37,-106.94 492.8,-97.58"/>
<polygon fill="midnightblue" stroke="midnightblue" points="431.41,-126.58 424.26,-134.4 434.72,-132.75 431.41,-126.58"/>
</g>
<!-- Node12&#45;&gt;Node4 -->
<g id="edge17" class="edge">
<title>Node12&#45;&gt;Node4</title>
<path fill="none" stroke="midnightblue" d="M376.84,-62.71C396.39,-52.46 420.2,-39.98 438.15,-30.58"/>
<polygon fill="midnightblue" stroke="midnightblue" points="375.14,-59.65 367.91,-67.4 378.39,-65.85 375.14,-59.65"/>
</g>
<!-- Node13 -->
<g id="node13" class="node">
<title>Node13</title>
<g id="a_node13"><a xlink:href="ota_8cpp.html" target="_top" xlink:title="Handles over the air (OTA) updates.">
<polygon fill="white" stroke="black" points="244,-0.5 244,-30.5 366,-30.5 366,-0.5 244,-0.5"/>
<text text-anchor="start" x="252" y="-18.5" font-family="Helvetica,sans-Serif" font-size="10.00">ESP32BaseStation/src</text>
<text text-anchor="middle" x="305" y="-7.5" font-family="Helvetica,sans-Serif" font-size="10.00">/ota.cpp</text>
</a>
</g>
</g>
<!-- Node12&#45;&gt;Node13 -->
<g id="edge18" class="edge">
<title>Node12&#45;&gt;Node13</title>
<path fill="none" stroke="midnightblue" d="M328.3,-58.58C323.13,-49.24 317.32,-38.75 312.8,-30.58"/>
<polygon fill="midnightblue" stroke="midnightblue" points="325.28,-60.34 333.19,-67.4 331.41,-56.95 325.28,-60.34"/>
</g>
<!-- Node14&#45;&gt;Node4 -->
<g id="edge20" class="edge">
<title>Node14&#45;&gt;Node4</title>
<path fill="none" stroke="midnightblue" d="M500.68,-59.45C492.75,-49.9 483.7,-39 476.69,-30.58"/>
<polygon fill="midnightblue" stroke="midnightblue" points="498.2,-61.94 507.28,-67.4 503.58,-57.47 498.2,-61.94"/>
</g>
<!-- Node14&#45;&gt;Node8 -->
<g id="edge21" class="edge">
<title>Node14&#45;&gt;Node8</title>
<path fill="none" stroke="midnightblue" d="M529.57,-106.76C542.02,-134.14 562.29,-178.75 572.58,-201.37"/>
<polygon fill="midnightblue" stroke="midnightblue" points="532.7,-105.18 525.37,-97.52 526.33,-108.08 532.7,-105.18"/>
</g>
<!-- Node15 -->
<g id="node15" class="node">
<title>Node15</title>
<g id="a_node15"><a xlink:href="rpc_8cpp.html" target="_top" xlink:title="Handles RPC calls.">
<polygon fill="white" stroke="black" points="564,-0.5 564,-30.5 686,-30.5 686,-0.5 564,-0.5"/>
<text text-anchor="start" x="572" y="-18.5" font-family="Helvetica,sans-Serif" font-size="10.00">ESP32BaseStation/src</text>
<text text-anchor="middle" x="625" y="-7.5" font-family="Helvetica,sans-Serif" font-size="10.00">/rpc.cpp</text>
</a>
</g>
</g>
<!-- Node14&#45;&gt;Node15 -->
<g id="edge22" class="edge">
<title>Node14&#45;&gt;Node15</title>
<path fill="none" stroke="midnightblue" d="M550.78,-62.02C567.27,-51.9 587.05,-39.77 602.04,-30.58"/>
<polygon fill="midnightblue" stroke="midnightblue" points="548.7,-59.18 542,-67.4 552.35,-65.15 548.7,-59.18"/>
</g>
<!-- Node16&#45;&gt;Node2 -->
<g id="edge27" class="edge">
<title>Node16&#45;&gt;Node2</title>
<path fill="none" stroke="midnightblue" d="M619.95,-331.96C591.28,-321.48 555.36,-308.37 528.55,-298.58"/>
<polygon fill="midnightblue" stroke="midnightblue" points="618.78,-335.25 629.38,-335.4 621.18,-328.68 618.78,-335.25"/>
</g>
<!-- Node16&#45;&gt;Node3 -->
<g id="edge26" class="edge">
<title>Node16&#45;&gt;Node3</title>
<path fill="none" stroke="midnightblue" d="M662.34,-325.31C659.65,-308.44 658.6,-285.86 667,-268 674.26,-252.57 688.79,-240.24 701.86,-231.63"/>
<polygon fill="midnightblue" stroke="midnightblue" points="658.97,-326.28 664.27,-335.46 665.84,-324.98 658.97,-326.28"/>
</g>
<!-- Node16&#45;&gt;Node14 -->
<g id="edge29" class="edge">
<title>Node16&#45;&gt;Node14</title>
<path fill="none" stroke="midnightblue" d="M738.86,-340.84C764.66,-333.87 791.32,-321.37 807,-299 831.99,-263.33 821.3,-242.14 807,-201 794.53,-165.14 786.24,-154.06 754,-134 701.21,-101.15 630.26,-89.43 580.18,-85.38"/>
<polygon fill="midnightblue" stroke="midnightblue" points="737.92,-337.47 729.04,-343.25 739.58,-344.27 737.92,-337.47"/>
</g>
<!-- Node17 -->
<g id="node17" class="node">
<title>Node17</title>
<g id="a_node17"><a xlink:href="fields_8cpp.html" target="_top" xlink:title="Contains fields classes.">
<polygon fill="white" stroke="black" points="676,-268.5 676,-298.5 798,-298.5 798,-268.5 676,-268.5"/>
<text text-anchor="start" x="684" y="-286.5" font-family="Helvetica,sans-Serif" font-size="10.00">ESP32BaseStation/src</text>
<text text-anchor="middle" x="737" y="-275.5" font-family="Helvetica,sans-Serif" font-size="10.00">/fields.cpp</text>
</a>
</g>
</g>
<!-- Node16&#45;&gt;Node17 -->
<g id="edge28" class="edge">
<title>Node16&#45;&gt;Node17</title>
<path fill="none" stroke="midnightblue" d="M690.49,-328.31C700.84,-318.56 712.84,-307.26 722.06,-298.58"/>
<polygon fill="midnightblue" stroke="midnightblue" points="687.85,-325.99 682.97,-335.4 692.65,-331.09 687.85,-325.99"/>
</g>
</g>
</svg>
