<?xml version="1.0" encoding="UTF-8" standalone="no"?>
<!DOCTYPE svg PUBLIC "-//W3C//DTD SVG 1.1//EN"
 "http://www.w3.org/Graphics/SVG/1.1/DTD/svg11.dtd">
<!-- Generated by graphviz version 2.43.0 (0)
 -->
<!-- Title: BaseStationCode/src/src/lookups.h Pages: 1 -->
<svg width="774pt" height="441pt"
 viewBox="0.00 0.00 774.00 441.00" xmlns="http://www.w3.org/2000/svg" xmlns:xlink="http://www.w3.org/1999/xlink">
<g id="graph0" class="graph" transform="scale(1 1) rotate(0) translate(4 437)">
<title>BaseStationCode/src/src/lookups.h</title>
<polygon fill="white" stroke="transparent" points="-4,4 -4,-437 770,-437 770,4 -4,4"/>
<!-- Node1 -->
<g id="node1" class="node">
<title>Node1</title>
<g id="a_node1"><a xlink:title="Lookupable and lookupable manager base classes.">
<polygon fill="#bfbfbf" stroke="black" points="257,-402.5 257,-432.5 374,-432.5 374,-402.5 257,-402.5"/>
<text text-anchor="start" x="265" y="-420.5" font-family="Helvetica,sans-Serif" font-size="10.00">BaseStationCode/src</text>
<text text-anchor="middle" x="315.5" y="-409.5" font-family="Helvetica,sans-Serif" font-size="10.00">/src/lookups.h</text>
</a>
</g>
</g>
<!-- Node2 -->
<g id="node2" class="node">
<title>Node2</title>
<g id="a_node2"><a xlink:href="devices_8h.html" target="_top" xlink:title="Devices and manager for all known devices the base station connects to.">
<polygon fill="white" stroke="black" points="214,-268.5 214,-298.5 331,-298.5 331,-268.5 214,-268.5"/>
<text text-anchor="start" x="222" y="-286.5" font-family="Helvetica,sans-Serif" font-size="10.00">BaseStationCode/src</text>
<text text-anchor="middle" x="272.5" y="-275.5" font-family="Helvetica,sans-Serif" font-size="10.00">/src/devices.h</text>
</a>
</g>
</g>
<!-- Node1&#45;&gt;Node2 -->
<g id="edge1" class="edge">
<title>Node1&#45;&gt;Node2</title>
<path fill="none" stroke="midnightblue" d="M276.6,-396.86C265.09,-388.96 253.87,-378.67 247.5,-366 236.26,-343.66 250.76,-315.29 261.91,-298.6"/>
<polygon fill="midnightblue" stroke="midnightblue" points="275.07,-400.03 285.38,-402.44 278.82,-394.13 275.07,-400.03"/>
</g>
<!-- Node8 -->
<g id="node8" class="node">
<title>Node8</title>
<g id="a_node8"><a xlink:href="lora_8h.html" target="_top" xlink:title="File that handles the LoRa radio and PJON.">
<polygon fill="white" stroke="black" points="301,-201.5 301,-231.5 418,-231.5 418,-201.5 301,-201.5"/>
<text text-anchor="start" x="309" y="-219.5" font-family="Helvetica,sans-Serif" font-size="10.00">BaseStationCode/src</text>
<text text-anchor="middle" x="359.5" y="-208.5" font-family="Helvetica,sans-Serif" font-size="10.00">/src/lora.h</text>
</a>
</g>
</g>
<!-- Node1&#45;&gt;Node8 -->
<g id="edge32" class="edge">
<title>Node1&#45;&gt;Node8</title>
<path fill="none" stroke="midnightblue" d="M354.4,-396.86C365.91,-388.96 377.13,-378.67 383.5,-366 406.15,-320.97 381.01,-259.43 367.26,-231.87"/>
<polygon fill="midnightblue" stroke="midnightblue" points="352.18,-394.13 345.62,-402.44 355.93,-400.03 352.18,-394.13"/>
</g>
<!-- Node17 -->
<g id="node17" class="node">
<title>Node17</title>
<g id="a_node17"><a xlink:href="fields_8h.html" target="_top" xlink:title="Contains fields classes.">
<polygon fill="white" stroke="black" points="257,-335.5 257,-365.5 374,-365.5 374,-335.5 257,-335.5"/>
<text text-anchor="start" x="265" y="-353.5" font-family="Helvetica,sans-Serif" font-size="10.00">BaseStationCode/src</text>
<text text-anchor="middle" x="315.5" y="-342.5" font-family="Helvetica,sans-Serif" font-size="10.00">/src/fields.h</text>
</a>
</g>
</g>
<!-- Node1&#45;&gt;Node17 -->
<g id="edge27" class="edge">
<title>Node1&#45;&gt;Node17</title>
<path fill="none" stroke="midnightblue" d="M315.5,-392.11C315.5,-383.15 315.5,-373.32 315.5,-365.58"/>
<polygon fill="midnightblue" stroke="midnightblue" points="312,-392.4 315.5,-402.4 319,-392.4 312,-392.4"/>
</g>
<!-- Node3 -->
<g id="node3" class="node">
<title>Node3</title>
<g id="a_node3"><a xlink:href="device__list_8h.html" target="_top" xlink:title="List of all devices and fields known to the system.">
<polygon fill="white" stroke="black" points="3,-201.5 3,-231.5 120,-231.5 120,-201.5 3,-201.5"/>
<text text-anchor="start" x="11" y="-219.5" font-family="Helvetica,sans-Serif" font-size="10.00">BaseStationCode/src</text>
<text text-anchor="middle" x="61.5" y="-208.5" font-family="Helvetica,sans-Serif" font-size="10.00">/device_list.h</text>
</a>
</g>
</g>
<!-- Node2&#45;&gt;Node3 -->
<g id="edge2" class="edge">
<title>Node2&#45;&gt;Node3</title>
<path fill="none" stroke="midnightblue" d="M217.13,-265.44C182.93,-254.91 139.57,-241.55 107.31,-231.61"/>
<polygon fill="midnightblue" stroke="midnightblue" points="216.39,-268.88 226.98,-268.48 218.45,-262.19 216.39,-268.88"/>
</g>
<!-- Node5 -->
<g id="node5" class="node">
<title>Node5</title>
<g id="a_node5"><a xlink:href="devices_8cpp.html" target="_top" xlink:title="Devices and manager for all known devices the base station connects to.">
<polygon fill="white" stroke="black" points="475,-201.5 475,-231.5 592,-231.5 592,-201.5 475,-201.5"/>
<text text-anchor="start" x="483" y="-219.5" font-family="Helvetica,sans-Serif" font-size="10.00">BaseStationCode/src</text>
<text text-anchor="middle" x="533.5" y="-208.5" font-family="Helvetica,sans-Serif" font-size="10.00">/src/devices.cpp</text>
</a>
</g>
</g>
<!-- Node2&#45;&gt;Node5 -->
<g id="edge4" class="edge">
<title>Node2&#45;&gt;Node5</title>
<path fill="none" stroke="midnightblue" d="M338.55,-266.05C381.22,-255.43 436.16,-241.74 476.84,-231.61"/>
<polygon fill="midnightblue" stroke="midnightblue" points="337.67,-262.66 328.81,-268.48 339.36,-269.46 337.67,-262.66"/>
</g>
<!-- Node6 -->
<g id="node6" class="node">
<title>Node6</title>
<g id="a_node6"><a xlink:href="leds_8h.html" target="_top" xlink:title="Controls the LEDs on the unit.">
<polygon fill="white" stroke="black" points="41,-67.5 41,-97.5 158,-97.5 158,-67.5 41,-67.5"/>
<text text-anchor="start" x="49" y="-85.5" font-family="Helvetica,sans-Serif" font-size="10.00">BaseStationCode/src</text>
<text text-anchor="middle" x="99.5" y="-74.5" font-family="Helvetica,sans-Serif" font-size="10.00">/src/leds.h</text>
</a>
</g>
</g>
<!-- Node2&#45;&gt;Node6 -->
<g id="edge5" class="edge">
<title>Node2&#45;&gt;Node6</title>
<path fill="none" stroke="midnightblue" d="M253.48,-260.62C217.78,-219.56 141.64,-131.97 111.83,-97.68"/>
<polygon fill="midnightblue" stroke="midnightblue" points="250.86,-262.94 260.06,-268.19 256.14,-258.35 250.86,-262.94"/>
</g>
<!-- Node2&#45;&gt;Node8 -->
<g id="edge8" class="edge">
<title>Node2&#45;&gt;Node8</title>
<path fill="none" stroke="midnightblue" d="M299.71,-262.17C313.02,-252.23 328.7,-240.51 340.66,-231.58"/>
<polygon fill="midnightblue" stroke="midnightblue" points="297.29,-259.61 291.38,-268.4 301.48,-265.21 297.29,-259.61"/>
</g>
<!-- Node10 -->
<g id="node10" class="node">
<title>Node10</title>
<g id="a_node10"><a xlink:href="networking_8h.html" target="_top" xlink:title="Header file for networking.cpp.">
<polygon fill="white" stroke="black" points="215,-134.5 215,-164.5 332,-164.5 332,-134.5 215,-134.5"/>
<text text-anchor="start" x="223" y="-152.5" font-family="Helvetica,sans-Serif" font-size="10.00">BaseStationCode/src</text>
<text text-anchor="middle" x="273.5" y="-141.5" font-family="Helvetica,sans-Serif" font-size="10.00">/src/networking.h</text>
</a>
</g>
</g>
<!-- Node2&#45;&gt;Node10 -->
<g id="edge25" class="edge">
<title>Node2&#45;&gt;Node10</title>
<path fill="none" stroke="midnightblue" d="M272.69,-258.02C272.89,-230.51 273.23,-186.79 273.39,-164.52"/>
<polygon fill="midnightblue" stroke="midnightblue" points="269.18,-258.35 272.61,-268.37 276.18,-258.4 269.18,-258.35"/>
</g>
<!-- Node14 -->
<g id="node14" class="node">
<title>Node14</title>
<g id="a_node14"><a xlink:href="rpc_8h.html" target="_top" xlink:title="Handles RPC calls.">
<polygon fill="white" stroke="black" points="562,-67.5 562,-97.5 679,-97.5 679,-67.5 562,-67.5"/>
<text text-anchor="start" x="570" y="-85.5" font-family="Helvetica,sans-Serif" font-size="10.00">BaseStationCode/src</text>
<text text-anchor="middle" x="620.5" y="-74.5" font-family="Helvetica,sans-Serif" font-size="10.00">/src/rpc.h</text>
</a>
</g>
</g>
<!-- Node2&#45;&gt;Node14 -->
<g id="edge26" class="edge">
<title>Node2&#45;&gt;Node14</title>
<path fill="none" stroke="midnightblue" d="M340.84,-265.95C368.64,-257.77 400.52,-246.51 427.5,-232 447,-221.52 448.91,-214.45 466.5,-201 487.97,-184.59 493.94,-181.29 515.5,-165 546.25,-141.77 581.57,-114.17 602.4,-97.78"/>
<polygon fill="midnightblue" stroke="midnightblue" points="339.84,-262.59 331.19,-268.71 341.76,-269.32 339.84,-262.59"/>
</g>
<!-- Node4 -->
<g id="node4" class="node">
<title>Node4</title>
<g id="a_node4"><a xlink:href="main_8cpp.html" target="_top" xlink:title=" ">
<polygon fill="white" stroke="black" points="135,-0.5 135,-30.5 252,-30.5 252,-0.5 135,-0.5"/>
<text text-anchor="start" x="143" y="-18.5" font-family="Helvetica,sans-Serif" font-size="10.00">BaseStationCode/src</text>
<text text-anchor="middle" x="193.5" y="-7.5" font-family="Helvetica,sans-Serif" font-size="10.00">/main.cpp</text>
</a>
</g>
</g>
<!-- Node3&#45;&gt;Node4 -->
<g id="edge3" class="edge">
<title>Node3&#45;&gt;Node4</title>
<path fill="none" stroke="midnightblue" d="M46.72,-192.37C28.73,-160.95 3.95,-104.44 31.5,-67 38.07,-58.07 92.9,-42.19 136.98,-30.61"/>
<polygon fill="midnightblue" stroke="midnightblue" points="43.9,-194.46 52.02,-201.26 49.91,-190.88 43.9,-194.46"/>
</g>
<!-- Node6&#45;&gt;Node4 -->
<g id="edge6" class="edge">
<title>Node6&#45;&gt;Node4</title>
<path fill="none" stroke="midnightblue" d="M128.49,-61.45C142.95,-51.45 160.09,-39.6 173.14,-30.58"/>
<polygon fill="midnightblue" stroke="midnightblue" points="126.13,-58.83 119.9,-67.4 130.11,-64.59 126.13,-58.83"/>
</g>
<!-- Node7 -->
<g id="node7" class="node">
<title>Node7</title>
<g id="a_node7"><a xlink:href="leds_8cpp.html" target="_top" xlink:title="Controls the LEDs on the unit.">
<polygon fill="white" stroke="black" points="0,-0.5 0,-30.5 117,-30.5 117,-0.5 0,-0.5"/>
<text text-anchor="start" x="8" y="-18.5" font-family="Helvetica,sans-Serif" font-size="10.00">BaseStationCode/src</text>
<text text-anchor="middle" x="58.5" y="-7.5" font-family="Helvetica,sans-Serif" font-size="10.00">/src/leds.cpp</text>
</a>
</g>
</g>
<!-- Node6&#45;&gt;Node7 -->
<g id="edge7" class="edge">
<title>Node6&#45;&gt;Node7</title>
<path fill="none" stroke="midnightblue" d="M85.22,-58.87C79.29,-49.46 72.59,-38.83 67.38,-30.58"/>
<polygon fill="midnightblue" stroke="midnightblue" points="82.31,-60.81 90.6,-67.4 88.23,-57.07 82.31,-60.81"/>
</g>
<!-- Node8&#45;&gt;Node4 -->
<g id="edge9" class="edge">
<title>Node8&#45;&gt;Node4</title>
<path fill="none" stroke="midnightblue" d="M290.86,-209.92C259.97,-203.7 225.93,-190.93 205.5,-165 174.13,-125.18 183.76,-59.29 190,-30.59"/>
<polygon fill="midnightblue" stroke="midnightblue" points="290.29,-213.38 300.76,-211.72 291.54,-206.49 290.29,-213.38"/>
</g>
<!-- Node9 -->
<g id="node9" class="node">
<title>Node9</title>
<g id="a_node9"><a xlink:href="lora_8cpp.html" target="_top" xlink:title="File that handles the LoRa radio and PJON.">
<polygon fill="white" stroke="black" points="389,-134.5 389,-164.5 506,-164.5 506,-134.5 389,-134.5"/>
<text text-anchor="start" x="397" y="-152.5" font-family="Helvetica,sans-Serif" font-size="10.00">BaseStationCode/src</text>
<text text-anchor="middle" x="447.5" y="-141.5" font-family="Helvetica,sans-Serif" font-size="10.00">/src/lora.cpp</text>
</a>
</g>
</g>
<!-- Node8&#45;&gt;Node9 -->
<g id="edge10" class="edge">
<title>Node8&#45;&gt;Node9</title>
<path fill="none" stroke="midnightblue" d="M386.64,-195.45C400.18,-185.45 416.23,-173.6 428.44,-164.58"/>
<polygon fill="midnightblue" stroke="midnightblue" points="384.56,-192.64 378.59,-201.4 388.72,-198.27 384.56,-192.64"/>
</g>
<!-- Node8&#45;&gt;Node10 -->
<g id="edge11" class="edge">
<title>Node8&#45;&gt;Node10</title>
<path fill="none" stroke="midnightblue" d="M326.68,-195.45C312.68,-185.45 297.2,-173.6 286.45,-164.58"/>
<polygon fill="midnightblue" stroke="midnightblue" points="324.96,-198.52 335.16,-201.4 328.98,-192.79 324.96,-198.52"/>
</g>
<!-- Node10&#45;&gt;Node4 -->
<g id="edge12" class="edge">
<title>Node10&#45;&gt;Node4</title>
<path fill="none" stroke="midnightblue" d="M259.55,-125.48C242.94,-98.07 215.73,-53.19 202,-30.52"/>
<polygon fill="midnightblue" stroke="midnightblue" points="256.76,-127.64 264.94,-134.37 262.75,-124.01 256.76,-127.64"/>
</g>
<!-- Node10&#45;&gt;Node6 -->
<g id="edge13" class="edge">
<title>Node10&#45;&gt;Node6</title>
<path fill="none" stroke="midnightblue" d="M226.17,-130.82C198.2,-120.37 163.27,-107.32 137.18,-97.58"/>
<polygon fill="midnightblue" stroke="midnightblue" points="225.15,-134.18 235.74,-134.4 227.6,-127.62 225.15,-134.18"/>
</g>
<!-- Node10&#45;&gt;Node8 -->
<g id="edge14" class="edge">
<title>Node10&#45;&gt;Node8</title>
<path fill="none" stroke="midnightblue" d="M306.27,-170.52C320.28,-180.51 335.76,-192.37 346.52,-201.4"/>
<polygon fill="midnightblue" stroke="midnightblue" points="308,-167.45 297.8,-164.58 303.98,-173.18 308,-167.45"/>
</g>
<!-- Node11 -->
<g id="node11" class="node">
<title>Node11</title>
<g id="a_node11"><a xlink:href="networking_8cpp.html" target="_top" xlink:title="File that handles connecting to WiFi and MQTT and staying connected.">
<polygon fill="white" stroke="black" points="413,-0.5 413,-30.5 530,-30.5 530,-0.5 413,-0.5"/>
<text text-anchor="start" x="421" y="-18.5" font-family="Helvetica,sans-Serif" font-size="10.00">BaseStationCode/src</text>
<text text-anchor="middle" x="471.5" y="-7.5" font-family="Helvetica,sans-Serif" font-size="10.00">/src/networking.cpp</text>
</a>
</g>
</g>
<!-- Node10&#45;&gt;Node11 -->
<g id="edge15" class="edge">
<title>Node10&#45;&gt;Node11</title>
<path fill="none" stroke="midnightblue" d="M318.46,-130.44C337.91,-121.79 360.51,-110.57 379.5,-98 395.6,-87.34 434.93,-51.01 456.58,-30.64"/>
<polygon fill="midnightblue" stroke="midnightblue" points="316.97,-127.27 309.2,-134.47 319.77,-133.69 316.97,-127.27"/>
</g>
<!-- Node12 -->
<g id="node12" class="node">
<title>Node12</title>
<g id="a_node12"><a xlink:href="ota_8h.html" target="_top" xlink:title="Handles over the air (OTA) updates.">
<polygon fill="white" stroke="black" points="253,-67.5 253,-97.5 370,-97.5 370,-67.5 253,-67.5"/>
<text text-anchor="start" x="261" y="-85.5" font-family="Helvetica,sans-Serif" font-size="10.00">BaseStationCode/src</text>
<text text-anchor="middle" x="311.5" y="-74.5" font-family="Helvetica,sans-Serif" font-size="10.00">/src/ota.h</text>
</a>
</g>
</g>
<!-- Node10&#45;&gt;Node12 -->
<g id="edge16" class="edge">
<title>Node10&#45;&gt;Node12</title>
<path fill="none" stroke="midnightblue" d="M286.9,-125.58C292.36,-116.24 298.49,-105.75 303.27,-97.58"/>
<polygon fill="midnightblue" stroke="midnightblue" points="283.77,-124 281.75,-134.4 289.81,-127.53 283.77,-124"/>
</g>
<!-- Node10&#45;&gt;Node14 -->
<g id="edge19" class="edge">
<title>Node10&#45;&gt;Node14</title>
<path fill="none" stroke="midnightblue" d="M342.05,-134.83C343.55,-134.55 345.03,-134.27 346.5,-134 438.3,-116.9 461.85,-115.88 553.5,-98 556.19,-97.48 558.93,-96.93 561.7,-96.37"/>
<polygon fill="midnightblue" stroke="midnightblue" points="341.21,-131.43 332.05,-136.74 342.53,-138.31 341.21,-131.43"/>
</g>
<!-- Node16 -->
<g id="node16" class="node">
<title>Node16</title>
<g id="a_node16"><a xlink:href="timeseries_8cpp.html" target="_top" xlink:title=" ">
<polygon fill="white" stroke="black" points="427,-67.5 427,-97.5 544,-97.5 544,-67.5 427,-67.5"/>
<text text-anchor="start" x="435" y="-85.5" font-family="Helvetica,sans-Serif" font-size="10.00">BaseStationCode/src</text>
<text text-anchor="middle" x="485.5" y="-74.5" font-family="Helvetica,sans-Serif" font-size="10.00">/src/timeseries.cpp</text>
</a>
</g>
</g>
<!-- Node10&#45;&gt;Node16 -->
<g id="edge24" class="edge">
<title>Node10&#45;&gt;Node16</title>
<path fill="none" stroke="midnightblue" d="M329.13,-131.44C363.49,-120.91 407.06,-107.55 439.48,-97.61"/>
<polygon fill="midnightblue" stroke="midnightblue" points="327.77,-128.2 319.24,-134.48 329.83,-134.89 327.77,-128.2"/>
</g>
<!-- Node12&#45;&gt;Node4 -->
<g id="edge17" class="edge">
<title>Node12&#45;&gt;Node4</title>
<path fill="none" stroke="midnightblue" d="M276.89,-62.44C258.38,-52.24 235.98,-39.9 219.05,-30.58"/>
<polygon fill="midnightblue" stroke="midnightblue" points="275.45,-65.64 285.9,-67.4 278.83,-59.51 275.45,-65.64"/>
</g>
<!-- Node13 -->
<g id="node13" class="node">
<title>Node13</title>
<g id="a_node13"><a xlink:href="ota_8cpp.html" target="_top" xlink:title="Handles over the air (OTA) updates.">
<polygon fill="white" stroke="black" points="270,-0.5 270,-30.5 387,-30.5 387,-0.5 270,-0.5"/>
<text text-anchor="start" x="278" y="-18.5" font-family="Helvetica,sans-Serif" font-size="10.00">BaseStationCode/src</text>
<text text-anchor="middle" x="328.5" y="-7.5" font-family="Helvetica,sans-Serif" font-size="10.00">/src/ota.cpp</text>
</a>
</g>
</g>
<!-- Node12&#45;&gt;Node13 -->
<g id="edge18" class="edge">
<title>Node12&#45;&gt;Node13</title>
<path fill="none" stroke="midnightblue" d="M317.73,-57.7C320.11,-48.59 322.75,-38.49 324.82,-30.58"/>
<polygon fill="midnightblue" stroke="midnightblue" points="314.33,-56.84 315.19,-67.4 321.11,-58.61 314.33,-56.84"/>
</g>
<!-- Node14&#45;&gt;Node4 -->
<g id="edge20" class="edge">
<title>Node14&#45;&gt;Node4</title>
<path fill="none" stroke="midnightblue" d="M551.84,-66.81C422.41,-45.46 386.7,-52.36 260.5,-31 257.8,-30.54 255.05,-30.05 252.27,-29.53"/>
<polygon fill="midnightblue" stroke="midnightblue" points="551.29,-70.27 561.73,-68.47 552.45,-63.36 551.29,-70.27"/>
</g>
<!-- Node14&#45;&gt;Node8 -->
<g id="edge21" class="edge">
<title>Node14&#45;&gt;Node8</title>
<path fill="none" stroke="midnightblue" d="M551.45,-98.22C473.42,-111.62 434.99,-82.01 380.5,-134 362,-151.65 358.98,-183.25 358.92,-201.49"/>
<polygon fill="midnightblue" stroke="midnightblue" points="552.52,-101.58 561.68,-96.26 551.2,-94.71 552.52,-101.58"/>
</g>
<!-- Node14&#45;&gt;Node11 -->
<g id="edge22" class="edge">
<title>Node14&#45;&gt;Node11</title>
<path fill="none" stroke="midnightblue" d="M578.71,-63.27C554.98,-52.92 525.72,-40.15 503.77,-30.58"/>
<polygon fill="midnightblue" stroke="midnightblue" points="577.6,-66.61 588.17,-67.4 580.4,-60.19 577.6,-66.61"/>
</g>
<!-- Node15 -->
<g id="node15" class="node">
<title>Node15</title>
<g id="a_node15"><a xlink:href="rpc_8cpp.html" target="_top" xlink:title="Handles RPC calls.">
<polygon fill="white" stroke="black" points="562,-0.5 562,-30.5 679,-30.5 679,-0.5 562,-0.5"/>
<text text-anchor="start" x="570" y="-18.5" font-family="Helvetica,sans-Serif" font-size="10.00">BaseStationCode/src</text>
<text text-anchor="middle" x="620.5" y="-7.5" font-family="Helvetica,sans-Serif" font-size="10.00">/src/rpc.cpp</text>
</a>
</g>
</g>
<!-- Node14&#45;&gt;Node15 -->
<g id="edge23" class="edge">
<title>Node14&#45;&gt;Node15</title>
<path fill="none" stroke="midnightblue" d="M620.5,-57.11C620.5,-48.15 620.5,-38.32 620.5,-30.58"/>
<polygon fill="midnightblue" stroke="midnightblue" points="617,-57.4 620.5,-67.4 624,-57.4 617,-57.4"/>
</g>
<!-- Node17&#45;&gt;Node2 -->
<g id="edge29" class="edge">
<title>Node17&#45;&gt;Node2</title>
<path fill="none" stroke="midnightblue" d="M300.53,-326.87C294.3,-317.46 287.27,-306.83 281.81,-298.58"/>
<polygon fill="midnightblue" stroke="midnightblue" points="297.73,-328.99 306.17,-335.4 303.57,-325.12 297.73,-328.99"/>
</g>
<!-- Node17&#45;&gt;Node3 -->
<g id="edge28" class="edge">
<title>Node17&#45;&gt;Node3</title>
<path fill="none" stroke="midnightblue" d="M273.33,-331.4C252.41,-322.15 226.9,-310.45 204.5,-299 161.5,-277.02 112.95,-248.54 84.92,-231.73"/>
<polygon fill="midnightblue" stroke="midnightblue" points="272.02,-334.65 282.59,-335.47 274.84,-328.24 272.02,-334.65"/>
</g>
<!-- Node17&#45;&gt;Node14 -->
<g id="edge31" class="edge">
<title>Node17&#45;&gt;Node14</title>
<path fill="none" stroke="midnightblue" d="M384.2,-341.03C450.84,-328.94 549.31,-300.07 601.5,-232 632.34,-191.78 627.22,-126.67 623.03,-97.93"/>
<polygon fill="midnightblue" stroke="midnightblue" points="383.46,-337.61 374.2,-342.76 384.65,-344.5 383.46,-337.61"/>
</g>
<!-- Node18 -->
<g id="node18" class="node">
<title>Node18</title>
<g id="a_node18"><a xlink:href="fields_8cpp.html" target="_top" xlink:title="Contains fields classes.">
<polygon fill="white" stroke="black" points="649,-268.5 649,-298.5 766,-298.5 766,-268.5 649,-268.5"/>
<text text-anchor="start" x="657" y="-286.5" font-family="Helvetica,sans-Serif" font-size="10.00">BaseStationCode/src</text>
<text text-anchor="middle" x="707.5" y="-275.5" font-family="Helvetica,sans-Serif" font-size="10.00">/src/fields.cpp</text>
</a>
</g>
</g>
<!-- Node17&#45;&gt;Node18 -->
<g id="edge30" class="edge">
<title>Node17&#45;&gt;Node18</title>
<path fill="none" stroke="midnightblue" d="M384.19,-339.42C448.88,-329.74 548.44,-314.35 634.5,-299 639.21,-298.16 644.08,-297.26 648.97,-296.34"/>
<polygon fill="midnightblue" stroke="midnightblue" points="383.49,-335.98 374.12,-340.92 384.52,-342.91 383.49,-335.98"/>
</g>
</g>
</svg>
