<?xml version="1.0" encoding="UTF-8" standalone="no"?>
<!DOCTYPE svg PUBLIC "-//W3C//DTD SVG 1.1//EN"
 "http://www.w3.org/Graphics/SVG/1.1/DTD/svg11.dtd">
<!-- Generated by graphviz version 2.43.0 (0)
 -->
<!-- Title: ESP32BaseStation/src/lora.h Pages: 1 -->
<svg width="664pt" height="240pt"
 viewBox="0.00 0.00 664.00 240.00" xmlns="http://www.w3.org/2000/svg" xmlns:xlink="http://www.w3.org/1999/xlink">
<g id="graph0" class="graph" transform="scale(1 1) rotate(0) translate(4 236)">
<title>ESP32BaseStation/src/lora.h</title>
<polygon fill="white" stroke="transparent" points="-4,4 -4,-236 660,-236 660,4 -4,4"/>
<!-- Node1 -->
<g id="node1" class="node">
<title>Node1</title>
<g id="a_node1"><a xlink:title="File that handles the LoRa radio and PJON.">
<polygon fill="#bfbfbf" stroke="black" points="407,-201.5 407,-231.5 529,-231.5 529,-201.5 407,-201.5"/>
<text text-anchor="start" x="415" y="-219.5" font-family="Helvetica,sans-Serif" font-size="10.00">ESP32BaseStation/src</text>
<text text-anchor="middle" x="468" y="-208.5" font-family="Helvetica,sans-Serif" font-size="10.00">/lora.h</text>
</a>
</g>
</g>
<!-- Node2 -->
<g id="node2" class="node">
<title>Node2</title>
<g id="a_node2"><a xlink:href="_e_s_p32_base_station_8ino.html" target="_top" xlink:title="Main file for a base station to connect to remote sensors on a farm.">
<polygon fill="white" stroke="black" points="332,-0.5 332,-30.5 494,-30.5 494,-0.5 332,-0.5"/>
<text text-anchor="start" x="340" y="-18.5" font-family="Helvetica,sans-Serif" font-size="10.00">ESP32BaseStation/ESP32Base</text>
<text text-anchor="middle" x="413" y="-7.5" font-family="Helvetica,sans-Serif" font-size="10.00">Station.ino</text>
</a>
</g>
</g>
<!-- Node1&#45;&gt;Node2 -->
<g id="edge1" class="edge">
<title>Node1&#45;&gt;Node2</title>
<path fill="none" stroke="midnightblue" d="M462.86,-191.5C459.25,-175.21 454.18,-153.22 449,-134 438.84,-96.3 424.81,-52.46 417.63,-30.52"/>
<polygon fill="midnightblue" stroke="midnightblue" points="459.44,-192.27 465,-201.29 466.28,-190.78 459.44,-192.27"/>
</g>
<!-- Node3 -->
<g id="node3" class="node">
<title>Node3</title>
<g id="a_node3"><a xlink:href="lora_8cpp.html" target="_top" xlink:title="File that handles the LoRa radio and PJON.">
<polygon fill="white" stroke="black" points="534,-134.5 534,-164.5 656,-164.5 656,-134.5 534,-134.5"/>
<text text-anchor="start" x="542" y="-152.5" font-family="Helvetica,sans-Serif" font-size="10.00">ESP32BaseStation/src</text>
<text text-anchor="middle" x="595" y="-141.5" font-family="Helvetica,sans-Serif" font-size="10.00">/lora.cpp</text>
</a>
</g>
</g>
<!-- Node1&#45;&gt;Node3 -->
<g id="edge2" class="edge">
<title>Node1&#45;&gt;Node3</title>
<path fill="none" stroke="midnightblue" d="M504.7,-196.71C524.73,-186.46 549.12,-173.98 567.5,-164.58"/>
<polygon fill="midnightblue" stroke="midnightblue" points="502.86,-193.72 495.56,-201.4 506.05,-199.96 502.86,-193.72"/>
</g>
<!-- Node4 -->
<g id="node4" class="node">
<title>Node4</title>
<g id="a_node4"><a xlink:href="networking_8h.html" target="_top" xlink:title="Header file for networking.cpp.">
<polygon fill="white" stroke="black" points="318,-134.5 318,-164.5 440,-164.5 440,-134.5 318,-134.5"/>
<text text-anchor="start" x="326" y="-152.5" font-family="Helvetica,sans-Serif" font-size="10.00">ESP32BaseStation/src</text>
<text text-anchor="middle" x="379" y="-141.5" font-family="Helvetica,sans-Serif" font-size="10.00">/networking.h</text>
</a>
</g>
</g>
<!-- Node1&#45;&gt;Node4 -->
<g id="edge3" class="edge">
<title>Node1&#45;&gt;Node4</title>
<path fill="none" stroke="midnightblue" d="M434.67,-195.73C420.09,-185.68 403.87,-173.68 392.6,-164.58"/>
<polygon fill="midnightblue" stroke="midnightblue" points="432.77,-198.68 443.01,-201.4 436.7,-192.88 432.77,-198.68"/>
</g>
<!-- Node4&#45;&gt;Node1 -->
<g id="edge8" class="edge">
<title>Node4&#45;&gt;Node1</title>
<path fill="none" stroke="midnightblue" d="M412.29,-170.24C426.86,-180.29 443.08,-192.28 454.37,-201.4"/>
<polygon fill="midnightblue" stroke="midnightblue" points="414.19,-167.3 403.95,-164.58 410.26,-173.09 414.19,-167.3"/>
</g>
<!-- Node4&#45;&gt;Node2 -->
<g id="edge4" class="edge">
<title>Node4&#45;&gt;Node2</title>
<path fill="none" stroke="midnightblue" d="M397.08,-125.76C402.62,-117.5 408.03,-107.77 411,-98 417.91,-75.25 416.61,-47.26 414.9,-30.7"/>
<polygon fill="midnightblue" stroke="midnightblue" points="394.09,-123.92 391.12,-134.09 399.79,-127.99 394.09,-123.92"/>
</g>
<!-- Node5 -->
<g id="node5" class="node">
<title>Node5</title>
<g id="a_node5"><a xlink:href="leds_8h.html" target="_top" xlink:title="Controls the LEDs on the unit.">
<polygon fill="white" stroke="black" points="140,-67.5 140,-97.5 262,-97.5 262,-67.5 140,-67.5"/>
<text text-anchor="start" x="148" y="-85.5" font-family="Helvetica,sans-Serif" font-size="10.00">ESP32BaseStation/src</text>
<text text-anchor="middle" x="201" y="-74.5" font-family="Helvetica,sans-Serif" font-size="10.00">/leds.h</text>
</a>
</g>
</g>
<!-- Node4&#45;&gt;Node5 -->
<g id="edge5" class="edge">
<title>Node4&#45;&gt;Node5</title>
<path fill="none" stroke="midnightblue" d="M330.95,-130.96C302.28,-120.48 266.36,-107.37 239.55,-97.58"/>
<polygon fill="midnightblue" stroke="midnightblue" points="329.78,-134.25 340.38,-134.4 332.18,-127.68 329.78,-134.25"/>
</g>
<!-- Node7 -->
<g id="node7" class="node">
<title>Node7</title>
<g id="a_node7"><a xlink:href="networking_8cpp.html" target="_top" xlink:title="File that handles connecting to WiFi and MQTT and staying connected.">
<polygon fill="white" stroke="black" points="280,-67.5 280,-97.5 402,-97.5 402,-67.5 280,-67.5"/>
<text text-anchor="start" x="288" y="-85.5" font-family="Helvetica,sans-Serif" font-size="10.00">ESP32BaseStation/src</text>
<text text-anchor="middle" x="341" y="-74.5" font-family="Helvetica,sans-Serif" font-size="10.00">/networking.cpp</text>
</a>
</g>
</g>
<!-- Node4&#45;&gt;Node7 -->
<g id="edge9" class="edge">
<title>Node4&#45;&gt;Node7</title>
<path fill="none" stroke="midnightblue" d="M365.6,-125.58C360.14,-116.24 354.01,-105.75 349.23,-97.58"/>
<polygon fill="midnightblue" stroke="midnightblue" points="362.69,-127.53 370.75,-134.4 368.73,-124 362.69,-127.53"/>
</g>
<!-- Node8 -->
<g id="node8" class="node">
<title>Node8</title>
<g id="a_node8"><a xlink:href="ota_8h.html" target="_top" xlink:title="Handles over the air (OTA) updates.">
<polygon fill="white" stroke="black" points="0,-67.5 0,-97.5 122,-97.5 122,-67.5 0,-67.5"/>
<text text-anchor="start" x="8" y="-85.5" font-family="Helvetica,sans-Serif" font-size="10.00">ESP32BaseStation/src</text>
<text text-anchor="middle" x="61" y="-74.5" font-family="Helvetica,sans-Serif" font-size="10.00">/ota.h</text>
</a>
</g>
</g>
<!-- Node4&#45;&gt;Node8 -->
<g id="edge10" class="edge">
<title>Node4&#45;&gt;Node8</title>
<path fill="none" stroke="midnightblue" d="M307.86,-134.08C258.27,-124.01 190.59,-110.24 131,-98 128.08,-97.4 125.1,-96.79 122.08,-96.17"/>
<polygon fill="midnightblue" stroke="midnightblue" points="307.34,-137.55 317.84,-136.11 308.73,-130.69 307.34,-137.55"/>
</g>
<!-- Node10 -->
<g id="node10" class="node">
<title>Node10</title>
<g id="a_node10"><a xlink:href="rpc_8h.html" target="_top" xlink:title="Handles RPC calls.">
<polygon fill="white" stroke="black" points="496,-67.5 496,-97.5 618,-97.5 618,-67.5 496,-67.5"/>
<text text-anchor="start" x="504" y="-85.5" font-family="Helvetica,sans-Serif" font-size="10.00">ESP32BaseStation/src</text>
<text text-anchor="middle" x="557" y="-74.5" font-family="Helvetica,sans-Serif" font-size="10.00">/rpc.h</text>
</a>
</g>
</g>
<!-- Node4&#45;&gt;Node10 -->
<g id="edge13" class="edge">
<title>Node4&#45;&gt;Node10</title>
<path fill="none" stroke="midnightblue" d="M427.05,-130.96C455.72,-120.48 491.64,-107.37 518.45,-97.58"/>
<polygon fill="midnightblue" stroke="midnightblue" points="425.82,-127.68 417.62,-134.4 428.22,-134.25 425.82,-127.68"/>
</g>
<!-- Node5&#45;&gt;Node2 -->
<g id="edge6" class="edge">
<title>Node5&#45;&gt;Node2</title>
<path fill="none" stroke="midnightblue" d="M256.63,-64.44C290.99,-53.91 334.56,-40.55 366.98,-30.61"/>
<polygon fill="midnightblue" stroke="midnightblue" points="255.27,-61.2 246.74,-67.48 257.33,-67.89 255.27,-61.2"/>
</g>
<!-- Node6 -->
<g id="node6" class="node">
<title>Node6</title>
<g id="a_node6"><a xlink:href="leds_8cpp.html" target="_top" xlink:title="Controls the LEDs on the unit.">
<polygon fill="white" stroke="black" points="140,-0.5 140,-30.5 262,-30.5 262,-0.5 140,-0.5"/>
<text text-anchor="start" x="148" y="-18.5" font-family="Helvetica,sans-Serif" font-size="10.00">ESP32BaseStation/src</text>
<text text-anchor="middle" x="201" y="-7.5" font-family="Helvetica,sans-Serif" font-size="10.00">/leds.cpp</text>
</a>
</g>
</g>
<!-- Node5&#45;&gt;Node6 -->
<g id="edge7" class="edge">
<title>Node5&#45;&gt;Node6</title>
<path fill="none" stroke="midnightblue" d="M201,-57.11C201,-48.15 201,-38.32 201,-30.58"/>
<polygon fill="midnightblue" stroke="midnightblue" points="197.5,-57.4 201,-67.4 204.5,-57.4 197.5,-57.4"/>
</g>
<!-- Node8&#45;&gt;Node2 -->
<g id="edge11" class="edge">
<title>Node8&#45;&gt;Node2</title>
<path fill="none" stroke="midnightblue" d="M131.92,-66.85C205.08,-52.8 277.77,-39.86 331.75,-30.45"/>
<polygon fill="midnightblue" stroke="midnightblue" points="131.22,-63.42 122.06,-68.75 132.55,-70.29 131.22,-63.42"/>
</g>
<!-- Node9 -->
<g id="node9" class="node">
<title>Node9</title>
<g id="a_node9"><a xlink:href="ota_8cpp.html" target="_top" xlink:title="Handles over the air (OTA) updates.">
<polygon fill="white" stroke="black" points="0,-0.5 0,-30.5 122,-30.5 122,-0.5 0,-0.5"/>
<text text-anchor="start" x="8" y="-18.5" font-family="Helvetica,sans-Serif" font-size="10.00">ESP32BaseStation/src</text>
<text text-anchor="middle" x="61" y="-7.5" font-family="Helvetica,sans-Serif" font-size="10.00">/ota.cpp</text>
</a>
</g>
</g>
<!-- Node8&#45;&gt;Node9 -->
<g id="edge12" class="edge">
<title>Node8&#45;&gt;Node9</title>
<path fill="none" stroke="midnightblue" d="M61,-57.11C61,-48.15 61,-38.32 61,-30.58"/>
<polygon fill="midnightblue" stroke="midnightblue" points="57.5,-57.4 61,-67.4 64.5,-57.4 57.5,-57.4"/>
</g>
<!-- Node10&#45;&gt;Node1 -->
<g id="edge15" class="edge">
<title>Node10&#45;&gt;Node1</title>
<path fill="none" stroke="midnightblue" d="M541.8,-106.04C523.38,-133.36 492.91,-178.55 477.52,-201.37"/>
<polygon fill="midnightblue" stroke="midnightblue" points="544.86,-107.77 547.54,-97.52 539.05,-103.86 544.86,-107.77"/>
</g>
<!-- Node10&#45;&gt;Node2 -->
<g id="edge14" class="edge">
<title>Node10&#45;&gt;Node2</title>
<path fill="none" stroke="midnightblue" d="M516.61,-63.27C493.68,-52.92 465.4,-40.15 444.18,-30.58"/>
<polygon fill="midnightblue" stroke="midnightblue" points="515.2,-66.47 525.75,-67.4 518.08,-60.09 515.2,-66.47"/>
</g>
<!-- Node11 -->
<g id="node11" class="node">
<title>Node11</title>
<g id="a_node11"><a xlink:href="rpc_8cpp.html" target="_top" xlink:title="Handles RPC calls.">
<polygon fill="white" stroke="black" points="512,-0.5 512,-30.5 634,-30.5 634,-0.5 512,-0.5"/>
<text text-anchor="start" x="520" y="-18.5" font-family="Helvetica,sans-Serif" font-size="10.00">ESP32BaseStation/src</text>
<text text-anchor="middle" x="573" y="-7.5" font-family="Helvetica,sans-Serif" font-size="10.00">/rpc.cpp</text>
</a>
</g>
</g>
<!-- Node10&#45;&gt;Node11 -->
<g id="edge16" class="edge">
<title>Node10&#45;&gt;Node11</title>
<path fill="none" stroke="midnightblue" d="M562.93,-57.4C565.16,-48.37 567.61,-38.41 569.54,-30.58"/>
<polygon fill="midnightblue" stroke="midnightblue" points="559.46,-56.85 560.47,-67.4 566.26,-58.52 559.46,-56.85"/>
</g>
</g>
</svg>
