<?xml version="1.0" encoding="UTF-8" standalone="no"?>
<!DOCTYPE svg PUBLIC "-//W3C//DTD SVG 1.1//EN"
 "http://www.w3.org/Graphics/SVG/1.1/DTD/svg11.dtd">
<!-- Generated by graphviz version 2.43.0 (0)
 -->
<!-- Title: pjonError Pages: 1 -->
<svg width="244pt" height="28pt"
 viewBox="0.00 0.00 244.00 28.00" xmlns="http://www.w3.org/2000/svg" xmlns:xlink="http://www.w3.org/1999/xlink">
<g id="graph0" class="graph" transform="scale(1 1) rotate(0) translate(4 24)">
<title>pjonError</title>
<polygon fill="white" stroke="transparent" points="-4,4 -4,-24 240,-24 240,4 -4,4"/>
<!-- Node1 -->
<g id="node1" class="node">
<title>Node1</title>
<g id="a_node1"><a xlink:title="Logs PJON errors.">
<polygon fill="#bfbfbf" stroke="black" points="175,-0.5 175,-19.5 236,-19.5 236,-0.5 175,-0.5"/>
<text text-anchor="middle" x="205.5" y="-7.5" font-family="Helvetica,sans-Serif" font-size="10.00">pjonError</text>
</a>
</g>
</g>
<!-- Node2 -->
<g id="node2" class="node">
<title>Node2</title>
<g id="a_node2"><a xlink:href="lora_8cpp.html#a6042a1af9411d9eafc7088497f536eb8" target="_top" xlink:title="&quot;Receives&quot; some fake data for testing purposes.">
<polygon fill="white" stroke="black" points="80,-0.5 80,-19.5 139,-19.5 139,-0.5 80,-0.5"/>
<text text-anchor="middle" x="109.5" y="-7.5" font-family="Helvetica,sans-Serif" font-size="10.00">pjonTask</text>
</a>
</g>
</g>
<!-- Node1&#45;&gt;Node2 -->
<g id="edge1" class="edge">
<title>Node1&#45;&gt;Node2</title>
<path fill="none" stroke="midnightblue" d="M164.55,-10C155.99,-10 147.11,-10 139.09,-10"/>
<polygon fill="midnightblue" stroke="midnightblue" points="164.76,-13.5 174.76,-10 164.76,-6.5 164.76,-13.5"/>
</g>
<!-- Node3 -->
<g id="node3" class="node">
<title>Node3</title>
<g id="a_node3"><a xlink:href="main_8cpp.html#a4fc01d736fe50cf5b977f755b675f11d" target="_top" xlink:title=" ">
<polygon fill="white" stroke="black" points="0,-0.5 0,-19.5 44,-19.5 44,-0.5 0,-0.5"/>
<text text-anchor="middle" x="22" y="-7.5" font-family="Helvetica,sans-Serif" font-size="10.00">setup</text>
</a>
</g>
</g>
<!-- Node2&#45;&gt;Node3 -->
<g id="edge2" class="edge">
<title>Node2&#45;&gt;Node3</title>
<path fill="none" stroke="midnightblue" d="M69.47,-10C60.72,-10 51.77,-10 44.08,-10"/>
<polygon fill="midnightblue" stroke="midnightblue" points="69.55,-13.5 79.55,-10 69.55,-6.5 69.55,-13.5"/>
</g>
</g>
</svg>
