<?xml version="1.0" encoding="UTF-8" standalone="no"?>
<!DOCTYPE svg PUBLIC "-//W3C//DTD SVG 1.1//EN"
 "http://www.w3.org/Graphics/SVG/1.1/DTD/svg11.dtd">
<!-- Generated by graphviz version 2.43.0 (0)
 -->
<!-- Title: pjonReceive Pages: 1 -->
<svg width="765pt" height="85pt"
 viewBox="0.00 0.00 765.00 85.00" xmlns="http://www.w3.org/2000/svg" xmlns:xlink="http://www.w3.org/1999/xlink">
<g id="graph0" class="graph" transform="scale(1 1) rotate(0) translate(4 81)">
<title>pjonReceive</title>
<polygon fill="white" stroke="transparent" points="-4,4 -4,-81 761,-81 761,4 -4,4"/>
<!-- Node1 -->
<g id="node1" class="node">
<title>Node1</title>
<g id="a_node1"><a xlink:title="Handles an incoming packet received from the radio. Uses the latest received snr and rssi.">
<polygon fill="#bfbfbf" stroke="black" points="0,-19.5 0,-38.5 77,-38.5 77,-19.5 0,-19.5"/>
<text text-anchor="middle" x="38.5" y="-26.5" font-family="Helvetica,sans-Serif" font-size="10.00">pjonReceive</text>
</a>
</g>
</g>
<!-- Node2 -->
<g id="node2" class="node">
<title>Node2</title>
<g id="a_node2"><a xlink:href="lora_8cpp.html#a73337b280bec4397780b012ccc949113" target="_top" xlink:title="Handles an incoming packet received from the radio and adds the given snr and rssi to the packet.">
<polygon fill="white" stroke="black" points="113,-19.5 113,-38.5 190,-38.5 190,-19.5 113,-19.5"/>
<text text-anchor="middle" x="151.5" y="-26.5" font-family="Helvetica,sans-Serif" font-size="10.00">pjonReceive</text>
</a>
</g>
</g>
<!-- Node1&#45;&gt;Node2 -->
<g id="edge1" class="edge">
<title>Node1&#45;&gt;Node2</title>
<path fill="none" stroke="midnightblue" d="M77.08,-29C85.31,-29 94.12,-29 102.69,-29"/>
<polygon fill="midnightblue" stroke="midnightblue" points="102.96,-32.5 112.96,-29 102.96,-25.5 102.96,-32.5"/>
</g>
<!-- Node3 -->
<g id="node3" class="node">
<title>Node3</title>
<g id="a_node3"><a xlink:href="class_device.html#a35eba370894e0e1ec39f2043e466b2f6" target="_top" xlink:title="Decodes the payload from a PJON packet and converts it to thingsboard MQTT JSON.">
<polygon fill="white" stroke="black" points="226,-38.5 226,-57.5 378,-57.5 378,-38.5 226,-38.5"/>
<text text-anchor="middle" x="302" y="-45.5" font-family="Helvetica,sans-Serif" font-size="10.00">Device::decodePacketFields</text>
</a>
</g>
</g>
<!-- Node2&#45;&gt;Node3 -->
<g id="edge2" class="edge">
<title>Node2&#45;&gt;Node3</title>
<path fill="none" stroke="midnightblue" d="M190.36,-33.84C198.5,-34.89 207.41,-36.03 216.54,-37.19"/>
<polygon fill="midnightblue" stroke="midnightblue" points="216.13,-40.67 226.5,-38.47 217.02,-33.73 216.13,-40.67"/>
</g>
<!-- Node7 -->
<g id="node7" class="node">
<title>Node7</title>
<g id="a_node7"><a xlink:href="class_lookup_manager.html#a8d3d926f82bfb89594abd2430b9d4326" target="_top" xlink:title="Gets the object with the given symbol.">
<polygon fill="white" stroke="black" points="414,-0.5 414,-19.5 589,-19.5 589,-0.5 414,-0.5"/>
<text text-anchor="middle" x="501.5" y="-7.5" font-family="Helvetica,sans-Serif" font-size="10.00">LookupManager::getWithSymbol</text>
</a>
</g>
</g>
<!-- Node2&#45;&gt;Node7 -->
<g id="edge7" class="edge">
<title>Node2&#45;&gt;Node7</title>
<path fill="none" stroke="midnightblue" d="M190.07,-26.95C240.75,-24.18 332.79,-19.16 403.54,-15.29"/>
<polygon fill="midnightblue" stroke="midnightblue" points="404.02,-18.77 413.81,-14.73 403.64,-11.78 404.02,-18.77"/>
</g>
<!-- Node4 -->
<g id="node4" class="node">
<title>Node4</title>
<g id="a_node4"><a xlink:href="class_field.html#aa036e196f5805e9406b8169200e3915a" target="_top" xlink:title="Decodes the value from bytes into an existing json document.">
<polygon fill="white" stroke="black" points="461,-38.5 461,-57.5 542,-57.5 542,-38.5 461,-38.5"/>
<text text-anchor="middle" x="501.5" y="-45.5" font-family="Helvetica,sans-Serif" font-size="10.00">Field::decode</text>
</a>
</g>
</g>
<!-- Node3&#45;&gt;Node4 -->
<g id="edge3" class="edge">
<title>Node3&#45;&gt;Node4</title>
<path fill="none" stroke="midnightblue" d="M378.23,-48C402.51,-48 428.8,-48 450.76,-48"/>
<polygon fill="midnightblue" stroke="midnightblue" points="450.85,-51.5 460.85,-48 450.85,-44.5 450.85,-51.5"/>
</g>
<!-- Node3&#45;&gt;Node7 -->
<g id="edge6" class="edge">
<title>Node3&#45;&gt;Node7</title>
<path fill="none" stroke="midnightblue" d="M352.58,-38.46C379.35,-33.31 412.58,-26.92 440.76,-21.49"/>
<polygon fill="midnightblue" stroke="midnightblue" points="441.74,-24.87 450.9,-19.54 440.42,-18 441.74,-24.87"/>
</g>
<!-- Node5 -->
<g id="node5" class="node">
<title>Node5</title>
<g id="a_node5"><a xlink:href="class_field.html#a536d757818e186d83b2ab71415bb0bba" target="_top" xlink:title="Decodes the value from bytes into an existing json document. decode does the checking for length,...">
<polygon fill="white" stroke="black" points="630,-57.5 630,-76.5 752,-76.5 752,-57.5 630,-57.5"/>
<text text-anchor="middle" x="691" y="-64.5" font-family="Helvetica,sans-Serif" font-size="10.00">Field::actuallyDecode</text>
</a>
</g>
</g>
<!-- Node4&#45;&gt;Node5 -->
<g id="edge4" class="edge">
<title>Node4&#45;&gt;Node5</title>
<path fill="none" stroke="midnightblue" d="M542.26,-52.03C564.76,-54.31 593.54,-57.22 619.71,-59.88"/>
<polygon fill="midnightblue" stroke="midnightblue" points="619.67,-63.39 629.97,-60.92 620.38,-56.43 619.67,-63.39"/>
</g>
<!-- Node6 -->
<g id="node6" class="node">
<title>Node6</title>
<g id="a_node6"><a xlink:href="class_field.html#a0f6c46168ecc1113ff61d9fb68d8c763" target="_top" xlink:title="Checks if the value can be decoded from the packet.">
<polygon fill="white" stroke="black" points="625,-19.5 625,-38.5 757,-38.5 757,-19.5 625,-19.5"/>
<text text-anchor="middle" x="691" y="-26.5" font-family="Helvetica,sans-Serif" font-size="10.00">Field::checkDecodeable</text>
</a>
</g>
</g>
<!-- Node4&#45;&gt;Node6 -->
<g id="edge5" class="edge">
<title>Node4&#45;&gt;Node6</title>
<path fill="none" stroke="midnightblue" d="M542.26,-43.97C563.33,-41.84 589.92,-39.14 614.71,-36.63"/>
<polygon fill="midnightblue" stroke="midnightblue" points="615.24,-40.09 624.84,-35.6 614.54,-33.13 615.24,-40.09"/>
</g>
</g>
</svg>
