<?xml version="1.0" encoding="UTF-8" standalone="no"?>
<!DOCTYPE svg PUBLIC "-//W3C//DTD SVG 1.1//EN"
 "http://www.w3.org/Graphics/SVG/1.1/DTD/svg11.dtd">
<!-- Generated by graphviz version 2.43.0 (0)
 -->
<!-- Title: BaseStationCode/src/src/lora.h Pages: 1 -->
<svg width="704pt" height="236pt"
 viewBox="0.00 0.00 704.00 236.00" xmlns="http://www.w3.org/2000/svg" xmlns:xlink="http://www.w3.org/1999/xlink">
<g id="graph0" class="graph" transform="scale(1 1) rotate(0) translate(4 232)">
<title>BaseStationCode/src/src/lora.h</title>
<!-- Node1 -->
<g id="Node000001" class="node">
<title>Node1</title>
<g id="a_Node000001"><a xlink:title="File that handles the LoRa radio and PJON.">
<polygon fill="#999999" stroke="#666666" points="406,-228 289,-228 289,-198 406,-198 406,-228"/>
<text text-anchor="start" x="297" y="-216" font-family="Helvetica,sans-Serif" font-size="10.00">BaseStationCode/src</text>
<text text-anchor="middle" x="347.5" y="-205" font-family="Helvetica,sans-Serif" font-size="10.00">/src/lora.h</text>
</a>
</g>
</g>
<!-- Node2 -->
<g id="Node000002" class="node">
<title>Node2</title>
<g id="a_Node000002"><a xlink:href="main_8cpp.html" target="_top" xlink:title=" ">
<polygon fill="white" stroke="#666666" points="252,-30 135,-30 135,0 252,0 252,-30"/>
<text text-anchor="start" x="143" y="-18" font-family="Helvetica,sans-Serif" font-size="10.00">BaseStationCode/src</text>
<text text-anchor="middle" x="193.5" y="-7" font-family="Helvetica,sans-Serif" font-size="10.00">/main.cpp</text>
</a>
</g>
</g>
<!-- Node1&#45;&gt;Node2 -->
<g id="edge1_Node000001_Node000002" class="edge">
<title>Node1&#45;&gt;Node2</title>
<g id="a_edge1_Node000001_Node000002"><a xlink:title=" ">
<path fill="none" stroke="#63b8ff" d="M278.84,-207.94C205.45,-199.51 92.41,-173.83 38.5,-96 30.91,-85.04 30.65,-76.78 38.5,-66 44.76,-57.4 97.23,-41.63 139.41,-30.09"/>
<polygon fill="#63b8ff" stroke="#63b8ff" points="278.6,-211.44 288.92,-209.02 279.35,-204.48 278.6,-211.44"/>
</a>
</g>
</g>
<!-- Node3 -->
<g id="Node000003" class="node">
<title>Node3</title>
<g id="a_Node000003"><a xlink:href="lora_8cpp.html" target="_top" xlink:title="File that handles the LoRa radio and PJON.">
<polygon fill="white" stroke="#666666" points="580,-162 463,-162 463,-132 580,-132 580,-162"/>
<text text-anchor="start" x="471" y="-150" font-family="Helvetica,sans-Serif" font-size="10.00">BaseStationCode/src</text>
<text text-anchor="middle" x="521.5" y="-139" font-family="Helvetica,sans-Serif" font-size="10.00">/src/lora.cpp</text>
</a>
</g>
</g>
<!-- Node1&#45;&gt;Node3 -->
<g id="edge2_Node000001_Node000003" class="edge">
<title>Node1&#45;&gt;Node3</title>
<g id="a_edge2_Node000001_Node000003"><a xlink:title=" ">
<path fill="none" stroke="#63b8ff" d="M395.2,-194.46C422.96,-184.25 457.47,-171.55 483.4,-162.01"/>
<polygon fill="#63b8ff" stroke="#63b8ff" points="393.86,-191.22 385.69,-197.95 396.28,-197.79 393.86,-191.22"/>
</a>
</g>
</g>
<!-- Node4 -->
<g id="Node000004" class="node">
<title>Node4</title>
<g id="a_Node000004"><a xlink:href="networking_8h.html" target="_top" xlink:title="Header file for networking.cpp.">
<polygon fill="white" stroke="#666666" points="406,-162 289,-162 289,-132 406,-132 406,-162"/>
<text text-anchor="start" x="297" y="-150" font-family="Helvetica,sans-Serif" font-size="10.00">BaseStationCode/src</text>
<text text-anchor="middle" x="347.5" y="-139" font-family="Helvetica,sans-Serif" font-size="10.00">/src/networking.h</text>
</a>
</g>
</g>
<!-- Node1&#45;&gt;Node4 -->
<g id="edge3_Node000001_Node000004" class="edge">
<title>Node1&#45;&gt;Node4</title>
<g id="a_edge3_Node000001_Node000004"><a xlink:title=" ">
<path fill="none" stroke="#63b8ff" d="M340.93,-187.83C340.52,-179.17 340.81,-169.7 341.79,-162.16"/>
<polygon fill="#63b8ff" stroke="#63b8ff" points="337.45,-188.13 341.78,-197.8 344.42,-187.54 337.45,-188.13"/>
</a>
</g>
</g>
<!-- Node4&#45;&gt;Node1 -->
<g id="edge8_Node000004_Node000001" class="edge">
<title>Node4&#45;&gt;Node1</title>
<g id="a_edge8_Node000004_Node000001"><a xlink:title=" ">
<path fill="none" stroke="#63b8ff" d="M354.07,-172.13C354.48,-180.78 354.2,-190.26 353.22,-197.8"/>
<polygon fill="#63b8ff" stroke="#63b8ff" points="357.55,-171.83 353.21,-162.16 350.58,-172.43 357.55,-171.83"/>
</a>
</g>
</g>
<!-- Node4&#45;&gt;Node2 -->
<g id="edge4_Node000004_Node000002" class="edge">
<title>Node4&#45;&gt;Node2</title>
<g id="a_edge4_Node000004_Node000002"><a xlink:title=" ">
<path fill="none" stroke="#63b8ff" d="M278.96,-134.07C255.27,-126.75 230.44,-114.96 213.5,-96 197.09,-77.64 193.7,-47.84 193.25,-30.26"/>
<polygon fill="#63b8ff" stroke="#63b8ff" points="278.09,-137.46 288.67,-136.85 280.02,-130.74 278.09,-137.46"/>
</a>
</g>
</g>
<!-- Node5 -->
<g id="Node000005" class="node">
<title>Node5</title>
<g id="a_Node000005"><a xlink:href="leds_8h.html" target="_top" xlink:title="Controls the LEDs on the unit.">
<polygon fill="white" stroke="#666666" points="339,-96 222,-96 222,-66 339,-66 339,-96"/>
<text text-anchor="start" x="230" y="-84" font-family="Helvetica,sans-Serif" font-size="10.00">BaseStationCode/src</text>
<text text-anchor="middle" x="280.5" y="-73" font-family="Helvetica,sans-Serif" font-size="10.00">/src/leds.h</text>
</a>
</g>
</g>
<!-- Node4&#45;&gt;Node5 -->
<g id="edge5_Node000004_Node000005" class="edge">
<title>Node4&#45;&gt;Node5</title>
<g id="a_edge5_Node000004_Node000005"><a xlink:title=" ">
<path fill="none" stroke="#63b8ff" d="M325.15,-124.65C315.33,-115.27 304.08,-104.53 295.33,-96.16"/>
<polygon fill="#63b8ff" stroke="#63b8ff" points="322.98,-127.42 332.63,-131.8 327.82,-122.36 322.98,-127.42"/>
</a>
</g>
</g>
<!-- Node7 -->
<g id="Node000007" class="node">
<title>Node7</title>
<g id="a_Node000007"><a xlink:href="networking_8cpp.html" target="_top" xlink:title="File that handles connecting to WiFi and MQTT and staying connected.">
<polygon fill="white" stroke="#666666" points="561,-30 444,-30 444,0 561,0 561,-30"/>
<text text-anchor="start" x="452" y="-18" font-family="Helvetica,sans-Serif" font-size="10.00">BaseStationCode/src</text>
<text text-anchor="middle" x="502.5" y="-7" font-family="Helvetica,sans-Serif" font-size="10.00">/src/networking.cpp</text>
</a>
</g>
</g>
<!-- Node4&#45;&gt;Node7 -->
<g id="edge9_Node000004_Node000007" class="edge">
<title>Node4&#45;&gt;Node7</title>
<g id="a_edge9_Node000004_Node000007"><a xlink:title=" ">
<path fill="none" stroke="#63b8ff" d="M410.71,-129.05C441.11,-119.69 473.18,-107.63 483.5,-96 499.8,-77.64 502.77,-47.83 502.97,-30.26"/>
<polygon fill="#63b8ff" stroke="#63b8ff" points="409.49,-125.76 400.93,-131.99 411.51,-132.46 409.49,-125.76"/>
</a>
</g>
</g>
<!-- Node8 -->
<g id="Node000008" class="node">
<title>Node8</title>
<g id="a_Node000008"><a xlink:href="ota_8h.html" target="_top" xlink:title="Handles over the air (OTA) updates.">
<polygon fill="white" stroke="#666666" points="165,-96 48,-96 48,-66 165,-66 165,-96"/>
<text text-anchor="start" x="56" y="-84" font-family="Helvetica,sans-Serif" font-size="10.00">BaseStationCode/src</text>
<text text-anchor="middle" x="106.5" y="-73" font-family="Helvetica,sans-Serif" font-size="10.00">/src/ota.h</text>
</a>
</g>
</g>
<!-- Node4&#45;&gt;Node8 -->
<g id="edge10_Node000004_Node000008" class="edge">
<title>Node4&#45;&gt;Node8</title>
<g id="a_edge10_Node000004_Node000008"><a xlink:title=" ">
<path fill="none" stroke="#63b8ff" d="M284.94,-129.39C245.92,-119.03 196.28,-105.84 159.27,-96.01"/>
<polygon fill="#63b8ff" stroke="#63b8ff" points="284.05,-132.77 294.61,-131.95 285.84,-126.01 284.05,-132.77"/>
</a>
</g>
</g>
<!-- Node10 -->
<g id="Node000010" class="node">
<title>Node10</title>
<g id="a_Node000010"><a xlink:href="rpc_8h.html" target="_top" xlink:title="Handles RPC calls.">
<polygon fill="white" stroke="#666666" points="648,-96 531,-96 531,-66 648,-66 648,-96"/>
<text text-anchor="start" x="539" y="-84" font-family="Helvetica,sans-Serif" font-size="10.00">BaseStationCode/src</text>
<text text-anchor="middle" x="589.5" y="-73" font-family="Helvetica,sans-Serif" font-size="10.00">/src/rpc.h</text>
</a>
</g>
</g>
<!-- Node4&#45;&gt;Node10 -->
<g id="edge13_Node000004_Node000010" class="edge">
<title>Node4&#45;&gt;Node10</title>
<g id="a_edge13_Node000004_Node000010"><a xlink:title=" ">
<path fill="none" stroke="#63b8ff" d="M410.32,-129.39C449.5,-119.03 499.35,-105.84 536.52,-96.01"/>
<polygon fill="#63b8ff" stroke="#63b8ff" points="409.38,-126.01 400.61,-131.95 411.17,-132.78 409.38,-126.01"/>
</a>
</g>
</g>
<!-- Node12 -->
<g id="Node000012" class="node">
<title>Node12</title>
<g id="a_Node000012"><a xlink:href="timeseries_8cpp.html" target="_top" xlink:title=" ">
<polygon fill="white" stroke="#666666" points="474,-96 357,-96 357,-66 474,-66 474,-96"/>
<text text-anchor="start" x="365" y="-84" font-family="Helvetica,sans-Serif" font-size="10.00">BaseStationCode/src</text>
<text text-anchor="middle" x="415.5" y="-73" font-family="Helvetica,sans-Serif" font-size="10.00">/src/timeseries.cpp</text>
</a>
</g>
</g>
<!-- Node4&#45;&gt;Node12 -->
<g id="edge18_Node000004_Node000012" class="edge">
<title>Node4&#45;&gt;Node12</title>
<g id="a_edge18_Node000004_Node000012"><a xlink:title=" ">
<path fill="none" stroke="#63b8ff" d="M369.89,-124.92C379.92,-115.49 391.48,-104.61 400.45,-96.16"/>
<polygon fill="#63b8ff" stroke="#63b8ff" points="367.47,-122.39 362.59,-131.8 372.27,-127.49 367.47,-122.39"/>
</a>
</g>
</g>
<!-- Node5&#45;&gt;Node2 -->
<g id="edge6_Node000005_Node000002" class="edge">
<title>Node5&#45;&gt;Node2</title>
<g id="a_edge6_Node000005_Node000002"><a xlink:title=" ">
<path fill="none" stroke="#63b8ff" d="M252.98,-59.75C239.89,-50.13 224.57,-38.86 212.75,-30.16"/>
<polygon fill="#63b8ff" stroke="#63b8ff" points="251.06,-62.69 261.19,-65.8 255.21,-57.05 251.06,-62.69"/>
</a>
</g>
</g>
<!-- Node6 -->
<g id="Node000006" class="node">
<title>Node6</title>
<g id="a_Node000006"><a xlink:href="leds_8cpp.html" target="_top" xlink:title="Controls the LEDs on the unit.">
<polygon fill="white" stroke="#666666" points="387,-30 270,-30 270,0 387,0 387,-30"/>
<text text-anchor="start" x="278" y="-18" font-family="Helvetica,sans-Serif" font-size="10.00">BaseStationCode/src</text>
<text text-anchor="middle" x="328.5" y="-7" font-family="Helvetica,sans-Serif" font-size="10.00">/src/leds.cpp</text>
</a>
</g>
</g>
<!-- Node5&#45;&gt;Node6 -->
<g id="edge7_Node000005_Node000006" class="edge">
<title>Node5&#45;&gt;Node6</title>
<g id="a_edge7_Node000005_Node000006"><a xlink:title=" ">
<path fill="none" stroke="#63b8ff" d="M297.36,-57.53C304.18,-48.43 311.85,-38.19 317.88,-30.16"/>
<polygon fill="#63b8ff" stroke="#63b8ff" points="294.35,-55.7 291.15,-65.8 299.95,-59.9 294.35,-55.7"/>
</a>
</g>
</g>
<!-- Node8&#45;&gt;Node2 -->
<g id="edge11_Node000008_Node000002" class="edge">
<title>Node8&#45;&gt;Node2</title>
<g id="a_edge11_Node000008_Node000002"><a xlink:title=" ">
<path fill="none" stroke="#63b8ff" d="M134.02,-59.75C147.11,-50.13 162.43,-38.86 174.25,-30.16"/>
<polygon fill="#63b8ff" stroke="#63b8ff" points="131.79,-57.05 125.81,-65.8 135.94,-62.69 131.79,-57.05"/>
</a>
</g>
</g>
<!-- Node9 -->
<g id="Node000009" class="node">
<title>Node9</title>
<g id="a_Node000009"><a xlink:href="ota_8cpp.html" target="_top" xlink:title="Handles over the air (OTA) updates.">
<polygon fill="white" stroke="#666666" points="117,-30 0,-30 0,0 117,0 117,-30"/>
<text text-anchor="start" x="8" y="-18" font-family="Helvetica,sans-Serif" font-size="10.00">BaseStationCode/src</text>
<text text-anchor="middle" x="58.5" y="-7" font-family="Helvetica,sans-Serif" font-size="10.00">/src/ota.cpp</text>
</a>
</g>
</g>
<!-- Node8&#45;&gt;Node9 -->
<g id="edge12_Node000008_Node000009" class="edge">
<title>Node8&#45;&gt;Node9</title>
<g id="a_edge12_Node000008_Node000009"><a xlink:title=" ">
<path fill="none" stroke="#63b8ff" d="M89.64,-57.53C82.82,-48.43 75.15,-38.19 69.12,-30.16"/>
<polygon fill="#63b8ff" stroke="#63b8ff" points="87.05,-59.9 95.85,-65.8 92.65,-55.7 87.05,-59.9"/>
</a>
</g>
</g>
<!-- Node10&#45;&gt;Node1 -->
<g id="edge15_Node000010_Node000001" class="edge">
<title>Node10&#45;&gt;Node1</title>
<g id="a_edge15_Node000010_Node000001"><a xlink:title=" ">
<path fill="none" stroke="#63b8ff" d="M531.57,-99.18C507.05,-107.52 478.64,-118.65 454.5,-132 435.36,-142.58 432.98,-148.86 415.5,-162 399.22,-174.24 380.57,-187.93 366.93,-197.89"/>
<polygon fill="#63b8ff" stroke="#63b8ff" points="532.72,-102.48 541.1,-96 530.51,-95.84 532.72,-102.48"/>
</a>
</g>
</g>
<!-- Node10&#45;&gt;Node2 -->
<g id="edge14_Node000010_Node000002" class="edge">
<title>Node10&#45;&gt;Node2</title>
<g id="a_edge14_Node000010_Node000002"><a xlink:title=" ">
<path fill="none" stroke="#63b8ff" d="M521.05,-70.62C454.58,-61.26 350.89,-46 261.5,-30 258.42,-29.45 255.26,-28.86 252.07,-28.26"/>
<polygon fill="#63b8ff" stroke="#63b8ff" points="520.6,-74.09 530.99,-72.01 521.57,-67.16 520.6,-74.09"/>
</a>
</g>
</g>
<!-- Node10&#45;&gt;Node7 -->
<g id="edge16_Node000010_Node000007" class="edge">
<title>Node10&#45;&gt;Node7</title>
<g id="a_edge16_Node000010_Node000007"><a xlink:title=" ">
<path fill="none" stroke="#63b8ff" d="M561.98,-59.75C548.89,-50.13 533.57,-38.86 521.75,-30.16"/>
<polygon fill="#63b8ff" stroke="#63b8ff" points="560.06,-62.69 570.19,-65.8 564.21,-57.05 560.06,-62.69"/>
</a>
</g>
</g>
<!-- Node11 -->
<g id="Node000011" class="node">
<title>Node11</title>
<g id="a_Node000011"><a xlink:href="rpc_8cpp.html" target="_top" xlink:title="Handles RPC calls.">
<polygon fill="white" stroke="#666666" points="696,-30 579,-30 579,0 696,0 696,-30"/>
<text text-anchor="start" x="587" y="-18" font-family="Helvetica,sans-Serif" font-size="10.00">BaseStationCode/src</text>
<text text-anchor="middle" x="637.5" y="-7" font-family="Helvetica,sans-Serif" font-size="10.00">/src/rpc.cpp</text>
</a>
</g>
</g>
<!-- Node10&#45;&gt;Node11 -->
<g id="edge17_Node000010_Node000011" class="edge">
<title>Node10&#45;&gt;Node11</title>
<g id="a_edge17_Node000010_Node000011"><a xlink:title=" ">
<path fill="none" stroke="#63b8ff" d="M606.36,-57.53C613.18,-48.43 620.85,-38.19 626.88,-30.16"/>
<polygon fill="#63b8ff" stroke="#63b8ff" points="603.35,-55.7 600.15,-65.8 608.95,-59.9 603.35,-55.7"/>
</a>
</g>
</g>
</g>
</svg>
