<?xml version="1.0" encoding="UTF-8" standalone="no"?>
<!DOCTYPE svg PUBLIC "-//W3C//DTD SVG 1.1//EN"
 "http://www.w3.org/Graphics/SVG/1.1/DTD/svg11.dtd">
<!-- Generated by graphviz version 2.43.0 (0)
 -->
<!-- Title: BaseStationCode/src/src/lora.h Pages: 1 -->
<svg width="665pt" height="240pt"
 viewBox="0.00 0.00 665.00 240.00" xmlns="http://www.w3.org/2000/svg" xmlns:xlink="http://www.w3.org/1999/xlink">
<g id="graph0" class="graph" transform="scale(1 1) rotate(0) translate(4 236)">
<title>BaseStationCode/src/src/lora.h</title>
<polygon fill="white" stroke="transparent" points="-4,4 -4,-236 661,-236 661,4 -4,4"/>
<!-- Node1 -->
<g id="node1" class="node">
<title>Node1</title>
<g id="a_node1"><a xlink:title="File that handles the LoRa radio and PJON.">
<polygon fill="#bfbfbf" stroke="black" points="250,-201.5 250,-231.5 367,-231.5 367,-201.5 250,-201.5"/>
<text text-anchor="start" x="258" y="-219.5" font-family="Helvetica,sans-Serif" font-size="10.00">BaseStationCode/src</text>
<text text-anchor="middle" x="308.5" y="-208.5" font-family="Helvetica,sans-Serif" font-size="10.00">/src/lora.h</text>
</a>
</g>
</g>
<!-- Node2 -->
<g id="node2" class="node">
<title>Node2</title>
<g id="a_node2"><a xlink:href="main_8cpp.html" target="_top" xlink:title=" ">
<polygon fill="white" stroke="black" points="135,-0.5 135,-30.5 252,-30.5 252,-0.5 135,-0.5"/>
<text text-anchor="start" x="143" y="-18.5" font-family="Helvetica,sans-Serif" font-size="10.00">BaseStationCode/src</text>
<text text-anchor="middle" x="193.5" y="-7.5" font-family="Helvetica,sans-Serif" font-size="10.00">/main.cpp</text>
</a>
</g>
</g>
<!-- Node1&#45;&gt;Node2 -->
<g id="edge1" class="edge">
<title>Node1&#45;&gt;Node2</title>
<path fill="none" stroke="midnightblue" d="M239.92,-202.75C182.81,-188.13 104.97,-157.95 67.5,-98 60.2,-86.32 59.78,-78.41 67.5,-67 76.51,-53.68 111.74,-40.21 142.66,-30.53"/>
<polygon fill="midnightblue" stroke="midnightblue" points="239.43,-206.23 249.98,-205.22 241.1,-199.44 239.43,-206.23"/>
</g>
<!-- Node3 -->
<g id="node3" class="node">
<title>Node3</title>
<g id="a_node3"><a xlink:href="lora_8cpp.html" target="_top" xlink:title="File that handles the LoRa radio and PJON.">
<polygon fill="white" stroke="black" points="424,-134.5 424,-164.5 541,-164.5 541,-134.5 424,-134.5"/>
<text text-anchor="start" x="432" y="-152.5" font-family="Helvetica,sans-Serif" font-size="10.00">BaseStationCode/src</text>
<text text-anchor="middle" x="482.5" y="-141.5" font-family="Helvetica,sans-Serif" font-size="10.00">/src/lora.cpp</text>
</a>
</g>
</g>
<!-- Node1&#45;&gt;Node3 -->
<g id="edge2" class="edge">
<title>Node1&#45;&gt;Node3</title>
<path fill="none" stroke="midnightblue" d="M355.83,-197.82C383.8,-187.37 418.73,-174.32 444.82,-164.58"/>
<polygon fill="midnightblue" stroke="midnightblue" points="354.4,-194.62 346.26,-201.4 356.85,-201.18 354.4,-194.62"/>
</g>
<!-- Node4 -->
<g id="node4" class="node">
<title>Node4</title>
<g id="a_node4"><a xlink:href="networking_8h.html" target="_top" xlink:title="Header file for networking.cpp.">
<polygon fill="white" stroke="black" points="250,-134.5 250,-164.5 367,-164.5 367,-134.5 250,-134.5"/>
<text text-anchor="start" x="258" y="-152.5" font-family="Helvetica,sans-Serif" font-size="10.00">BaseStationCode/src</text>
<text text-anchor="middle" x="308.5" y="-141.5" font-family="Helvetica,sans-Serif" font-size="10.00">/src/networking.h</text>
</a>
</g>
</g>
<!-- Node1&#45;&gt;Node4 -->
<g id="edge3" class="edge">
<title>Node1&#45;&gt;Node4</title>
<path fill="none" stroke="midnightblue" d="M301.95,-191.4C301.51,-182.37 301.8,-172.41 302.83,-164.58"/>
<polygon fill="midnightblue" stroke="midnightblue" points="298.47,-191.74 302.82,-201.4 305.44,-191.13 298.47,-191.74"/>
</g>
<!-- Node4&#45;&gt;Node1 -->
<g id="edge8" class="edge">
<title>Node4&#45;&gt;Node1</title>
<path fill="none" stroke="midnightblue" d="M315.04,-174.57C315.49,-183.6 315.21,-193.56 314.18,-201.4"/>
<polygon fill="midnightblue" stroke="midnightblue" points="318.53,-174.24 314.17,-164.58 311.55,-174.84 318.53,-174.24"/>
</g>
<!-- Node4&#45;&gt;Node2 -->
<g id="edge4" class="edge">
<title>Node4&#45;&gt;Node2</title>
<path fill="none" stroke="midnightblue" d="M276.84,-128.53C264.89,-120.04 251.72,-109.46 241.5,-98 222.8,-77.05 207.67,-47.72 199.68,-30.56"/>
<polygon fill="midnightblue" stroke="midnightblue" points="275.04,-131.54 285.26,-134.32 279.01,-125.77 275.04,-131.54"/>
</g>
<!-- Node5 -->
<g id="node5" class="node">
<title>Node5</title>
<g id="a_node5"><a xlink:href="leds_8h.html" target="_top" xlink:title="Controls the LEDs on the unit.">
<polygon fill="white" stroke="black" points="250,-67.5 250,-97.5 367,-97.5 367,-67.5 250,-67.5"/>
<text text-anchor="start" x="258" y="-85.5" font-family="Helvetica,sans-Serif" font-size="10.00">BaseStationCode/src</text>
<text text-anchor="middle" x="308.5" y="-74.5" font-family="Helvetica,sans-Serif" font-size="10.00">/src/leds.h</text>
</a>
</g>
</g>
<!-- Node4&#45;&gt;Node5 -->
<g id="edge5" class="edge">
<title>Node4&#45;&gt;Node5</title>
<path fill="none" stroke="midnightblue" d="M308.5,-124.11C308.5,-115.15 308.5,-105.32 308.5,-97.58"/>
<polygon fill="midnightblue" stroke="midnightblue" points="305,-124.4 308.5,-134.4 312,-124.4 305,-124.4"/>
</g>
<!-- Node7 -->
<g id="node7" class="node">
<title>Node7</title>
<g id="a_node7"><a xlink:href="networking_8cpp.html" target="_top" xlink:title="File that handles connecting to WiFi and MQTT and staying connected.">
<polygon fill="white" stroke="black" points="405,-0.5 405,-30.5 522,-30.5 522,-0.5 405,-0.5"/>
<text text-anchor="start" x="413" y="-18.5" font-family="Helvetica,sans-Serif" font-size="10.00">BaseStationCode/src</text>
<text text-anchor="middle" x="463.5" y="-7.5" font-family="Helvetica,sans-Serif" font-size="10.00">/src/networking.cpp</text>
</a>
</g>
</g>
<!-- Node4&#45;&gt;Node7 -->
<g id="edge9" class="edge">
<title>Node4&#45;&gt;Node7</title>
<path fill="none" stroke="midnightblue" d="M336.8,-128.59C349.23,-119.57 363.84,-108.57 376.5,-98 403.35,-75.58 432.66,-47.24 449.49,-30.57"/>
<polygon fill="midnightblue" stroke="midnightblue" points="334.67,-125.81 328.6,-134.49 338.76,-131.5 334.67,-125.81"/>
</g>
<!-- Node8 -->
<g id="node8" class="node">
<title>Node8</title>
<g id="a_node8"><a xlink:href="ota_8h.html" target="_top" xlink:title="Handles over the air (OTA) updates.">
<polygon fill="white" stroke="black" points="76,-67.5 76,-97.5 193,-97.5 193,-67.5 76,-67.5"/>
<text text-anchor="start" x="84" y="-85.5" font-family="Helvetica,sans-Serif" font-size="10.00">BaseStationCode/src</text>
<text text-anchor="middle" x="134.5" y="-74.5" font-family="Helvetica,sans-Serif" font-size="10.00">/src/ota.h</text>
</a>
</g>
</g>
<!-- Node4&#45;&gt;Node8 -->
<g id="edge10" class="edge">
<title>Node4&#45;&gt;Node8</title>
<path fill="none" stroke="midnightblue" d="M261.17,-130.82C233.2,-120.37 198.27,-107.32 172.18,-97.58"/>
<polygon fill="midnightblue" stroke="midnightblue" points="260.15,-134.18 270.74,-134.4 262.6,-127.62 260.15,-134.18"/>
</g>
<!-- Node10 -->
<g id="node10" class="node">
<title>Node10</title>
<g id="a_node10"><a xlink:href="rpc_8h.html" target="_top" xlink:title="Handles RPC calls.">
<polygon fill="white" stroke="black" points="424,-67.5 424,-97.5 541,-97.5 541,-67.5 424,-67.5"/>
<text text-anchor="start" x="432" y="-85.5" font-family="Helvetica,sans-Serif" font-size="10.00">BaseStationCode/src</text>
<text text-anchor="middle" x="482.5" y="-74.5" font-family="Helvetica,sans-Serif" font-size="10.00">/src/rpc.h</text>
</a>
</g>
</g>
<!-- Node4&#45;&gt;Node10 -->
<g id="edge13" class="edge">
<title>Node4&#45;&gt;Node10</title>
<path fill="none" stroke="midnightblue" d="M355.83,-130.82C383.8,-120.37 418.73,-107.32 444.82,-97.58"/>
<polygon fill="midnightblue" stroke="midnightblue" points="354.4,-127.62 346.26,-134.4 356.85,-134.18 354.4,-127.62"/>
</g>
<!-- Node5&#45;&gt;Node2 -->
<g id="edge6" class="edge">
<title>Node5&#45;&gt;Node2</title>
<path fill="none" stroke="midnightblue" d="M274.52,-62.3C256.53,-52.12 234.82,-39.85 218.4,-30.58"/>
<polygon fill="midnightblue" stroke="midnightblue" points="273.12,-65.52 283.55,-67.4 276.56,-59.43 273.12,-65.52"/>
</g>
<!-- Node6 -->
<g id="node6" class="node">
<title>Node6</title>
<g id="a_node6"><a xlink:href="leds_8cpp.html" target="_top" xlink:title="Controls the LEDs on the unit.">
<polygon fill="white" stroke="black" points="270,-0.5 270,-30.5 387,-30.5 387,-0.5 270,-0.5"/>
<text text-anchor="start" x="278" y="-18.5" font-family="Helvetica,sans-Serif" font-size="10.00">BaseStationCode/src</text>
<text text-anchor="middle" x="328.5" y="-7.5" font-family="Helvetica,sans-Serif" font-size="10.00">/src/leds.cpp</text>
</a>
</g>
</g>
<!-- Node5&#45;&gt;Node6 -->
<g id="edge7" class="edge">
<title>Node5&#45;&gt;Node6</title>
<path fill="none" stroke="midnightblue" d="M315.82,-57.7C318.63,-48.59 321.73,-38.49 324.17,-30.58"/>
<polygon fill="midnightblue" stroke="midnightblue" points="312.44,-56.81 312.84,-67.4 319.13,-58.87 312.44,-56.81"/>
</g>
<!-- Node8&#45;&gt;Node2 -->
<g id="edge11" class="edge">
<title>Node8&#45;&gt;Node2</title>
<path fill="none" stroke="midnightblue" d="M154.25,-59.74C162.98,-50.12 173,-39.09 180.72,-30.58"/>
<polygon fill="midnightblue" stroke="midnightblue" points="151.43,-57.64 147.3,-67.4 156.61,-62.34 151.43,-57.64"/>
</g>
<!-- Node9 -->
<g id="node9" class="node">
<title>Node9</title>
<g id="a_node9"><a xlink:href="ota_8cpp.html" target="_top" xlink:title="Handles over the air (OTA) updates.">
<polygon fill="white" stroke="black" points="0,-0.5 0,-30.5 117,-30.5 117,-0.5 0,-0.5"/>
<text text-anchor="start" x="8" y="-18.5" font-family="Helvetica,sans-Serif" font-size="10.00">BaseStationCode/src</text>
<text text-anchor="middle" x="58.5" y="-7.5" font-family="Helvetica,sans-Serif" font-size="10.00">/src/ota.cpp</text>
</a>
</g>
</g>
<!-- Node8&#45;&gt;Node9 -->
<g id="edge12" class="edge">
<title>Node8&#45;&gt;Node9</title>
<path fill="none" stroke="midnightblue" d="M110.39,-60.88C98.84,-51.01 85.31,-39.43 74.96,-30.58"/>
<polygon fill="midnightblue" stroke="midnightblue" points="108.13,-63.56 118.01,-67.4 112.68,-58.24 108.13,-63.56"/>
</g>
<!-- Node10&#45;&gt;Node1 -->
<g id="edge15" class="edge">
<title>Node10&#45;&gt;Node1</title>
<path fill="none" stroke="midnightblue" d="M455.57,-103.55C443.29,-112.76 428.6,-123.86 415.5,-134 397.99,-147.55 394.06,-151.51 376.5,-165 360.29,-177.45 341.64,-191.27 327.97,-201.3"/>
<polygon fill="midnightblue" stroke="midnightblue" points="457.72,-106.31 463.63,-97.52 453.53,-100.71 457.72,-106.31"/>
</g>
<!-- Node10&#45;&gt;Node2 -->
<g id="edge14" class="edge">
<title>Node10&#45;&gt;Node2</title>
<path fill="none" stroke="midnightblue" d="M413.74,-66.04C364.54,-54.97 299.01,-40.23 252.25,-29.71"/>
<polygon fill="midnightblue" stroke="midnightblue" points="413.14,-69.49 423.67,-68.27 414.68,-62.66 413.14,-69.49"/>
</g>
<!-- Node10&#45;&gt;Node7 -->
<g id="edge16" class="edge">
<title>Node10&#45;&gt;Node7</title>
<path fill="none" stroke="midnightblue" d="M475.54,-57.7C472.88,-48.59 469.93,-38.49 467.61,-30.58"/>
<polygon fill="midnightblue" stroke="midnightblue" points="472.21,-58.78 478.38,-67.4 478.93,-56.82 472.21,-58.78"/>
</g>
<!-- Node11 -->
<g id="node11" class="node">
<title>Node11</title>
<g id="a_node11"><a xlink:href="rpc_8cpp.html" target="_top" xlink:title="Handles RPC calls.">
<polygon fill="white" stroke="black" points="540,-0.5 540,-30.5 657,-30.5 657,-0.5 540,-0.5"/>
<text text-anchor="start" x="548" y="-18.5" font-family="Helvetica,sans-Serif" font-size="10.00">BaseStationCode/src</text>
<text text-anchor="middle" x="598.5" y="-7.5" font-family="Helvetica,sans-Serif" font-size="10.00">/src/rpc.cpp</text>
</a>
</g>
</g>
<!-- Node10&#45;&gt;Node11 -->
<g id="edge17" class="edge">
<title>Node10&#45;&gt;Node11</title>
<path fill="none" stroke="midnightblue" d="M516.77,-62.3C534.92,-52.12 556.82,-39.85 573.38,-30.58"/>
<polygon fill="midnightblue" stroke="midnightblue" points="514.68,-59.45 507.67,-67.4 518.1,-65.56 514.68,-59.45"/>
</g>
</g>
</svg>
