<?xml version="1.0" encoding="UTF-8" standalone="no"?>
<!DOCTYPE svg PUBLIC "-//W3C//DTD SVG 1.1//EN"
 "http://www.w3.org/Graphics/SVG/1.1/DTD/svg11.dtd">
<!-- Generated by graphviz version 2.43.0 (0)
 -->
<!-- Title: BaseStationCode/src/src/lora.h Pages: 1 -->
<svg width="565pt" height="431pt"
 viewBox="0.00 0.00 565.00 431.00" xmlns="http://www.w3.org/2000/svg" xmlns:xlink="http://www.w3.org/1999/xlink">
<g id="graph0" class="graph" transform="scale(1 1) rotate(0) translate(4 427)">
<title>BaseStationCode/src/src/lora.h</title>
<polygon fill="white" stroke="transparent" points="-4,4 -4,-427 561,-427 561,4 -4,4"/>
<!-- Node1 -->
<g id="node1" class="node">
<title>Node1</title>
<g id="a_node1"><a xlink:title="File that handles the LoRa radio and PJON.">
<polygon fill="#bfbfbf" stroke="black" points="134.5,-392.5 134.5,-422.5 251.5,-422.5 251.5,-392.5 134.5,-392.5"/>
<text text-anchor="start" x="142.5" y="-410.5" font-family="Helvetica,sans-Serif" font-size="10.00">BaseStationCode/src</text>
<text text-anchor="middle" x="193" y="-399.5" font-family="Helvetica,sans-Serif" font-size="10.00">/src/lora.h</text>
</a>
</g>
</g>
<!-- Node2 -->
<g id="node2" class="node">
<title>Node2</title>
<g id="a_node2"><a xlink:href="defines_8h.html" target="_top" xlink:title="Definitions and other preprocessor and global stuff.">
<polygon fill="white" stroke="black" points="249,-56.5 249,-75.5 319,-75.5 319,-56.5 249,-56.5"/>
<text text-anchor="middle" x="284" y="-63.5" font-family="Helvetica,sans-Serif" font-size="10.00">../defines.h</text>
</a>
</g>
</g>
<!-- Node1&#45;&gt;Node2 -->
<g id="edge1" class="edge">
<title>Node1&#45;&gt;Node2</title>
<path fill="none" stroke="midnightblue" d="M161.69,-392.49C126.73,-374.47 75,-339.59 75,-291 75,-291 75,-291 75,-177 75,-146.9 72.17,-132.72 94,-112 114.54,-92.5 189.23,-79.28 238.62,-72.45"/>
<polygon fill="midnightblue" stroke="midnightblue" points="239.3,-75.89 248.74,-71.09 238.37,-68.96 239.3,-75.89"/>
</g>
<!-- Node9 -->
<g id="node9" class="node">
<title>Node9</title>
<g id="a_node9"><a xlink:href="lookups_8h.html" target="_top" xlink:title="Lookupable and lookupable manager base classes.">
<polygon fill="white" stroke="black" points="103.5,-112.5 103.5,-131.5 166.5,-131.5 166.5,-112.5 103.5,-112.5"/>
<text text-anchor="middle" x="135" y="-119.5" font-family="Helvetica,sans-Serif" font-size="10.00">lookups.h</text>
</a>
</g>
</g>
<!-- Node1&#45;&gt;Node9 -->
<g id="edge8" class="edge">
<title>Node1&#45;&gt;Node9</title>
<path fill="none" stroke="midnightblue" d="M176.21,-392.33C154.38,-372.23 119,-333.15 119,-291 119,-291 119,-291 119,-233 119,-200.63 125.87,-163.44 130.61,-141.66"/>
<polygon fill="midnightblue" stroke="midnightblue" points="134.05,-142.3 132.84,-131.78 127.22,-140.76 134.05,-142.3"/>
</g>
<!-- Node10 -->
<g id="node10" class="node">
<title>Node10</title>
<g id="a_node10"><a xlink:href="devices_8h.html" target="_top" xlink:title="Devices and manager for all known devices the base station connects to.">
<polygon fill="white" stroke="black" points="179.5,-224.5 179.5,-243.5 242.5,-243.5 242.5,-224.5 179.5,-224.5"/>
<text text-anchor="middle" x="211" y="-231.5" font-family="Helvetica,sans-Serif" font-size="10.00">devices.h</text>
</a>
</g>
</g>
<!-- Node1&#45;&gt;Node10 -->
<g id="edge10" class="edge">
<title>Node1&#45;&gt;Node10</title>
<path fill="none" stroke="midnightblue" d="M187.51,-392.45C179.07,-368.69 165.13,-319.3 178,-280 181.49,-269.34 188.57,-259.12 195.29,-251.12"/>
<polygon fill="midnightblue" stroke="midnightblue" points="197.9,-253.44 201.98,-243.66 192.7,-248.76 197.9,-253.44"/>
</g>
<!-- Node13 -->
<g id="node13" class="node">
<title>Node13</title>
<g id="a_node13"><a xlink:href="networking_8h.html" target="_top" xlink:title="Header file for networking.cpp.">
<polygon fill="white" stroke="black" points="187,-280.5 187,-299.5 267,-299.5 267,-280.5 187,-280.5"/>
<text text-anchor="middle" x="227" y="-287.5" font-family="Helvetica,sans-Serif" font-size="10.00">networking.h</text>
</a>
</g>
</g>
<!-- Node1&#45;&gt;Node13 -->
<g id="edge18" class="edge">
<title>Node1&#45;&gt;Node13</title>
<path fill="none" stroke="midnightblue" d="M192.55,-392.34C196.04,-371.34 207.49,-331.96 216.66,-308.96"/>
<polygon fill="midnightblue" stroke="midnightblue" points="219.92,-310.24 220.68,-299.67 213.5,-307.46 219.92,-310.24"/>
</g>
<!-- Node14 -->
<g id="node14" class="node">
<title>Node14</title>
<g id="a_node14"><a xlink:href="rpc_8h.html" target="_top" xlink:title="Handles RPC calls.">
<polygon fill="white" stroke="black" points="312.5,-336.5 312.5,-355.5 353.5,-355.5 353.5,-336.5 312.5,-336.5"/>
<text text-anchor="middle" x="333" y="-343.5" font-family="Helvetica,sans-Serif" font-size="10.00">rpc.h</text>
</a>
</g>
</g>
<!-- Node1&#45;&gt;Node14 -->
<g id="edge22" class="edge">
<title>Node1&#45;&gt;Node14</title>
<path fill="none" stroke="midnightblue" d="M226.18,-392.4C249.56,-382.46 280.61,-369.26 303.21,-359.66"/>
<polygon fill="midnightblue" stroke="midnightblue" points="304.79,-362.79 312.63,-355.66 302.06,-356.35 304.79,-362.79"/>
</g>
<!-- Node3 -->
<g id="node3" class="node">
<title>Node3</title>
<g id="a_node3"><a xlink:title=" ">
<polygon fill="white" stroke="#bfbfbf" points="338.5,-0.5 338.5,-19.5 401.5,-19.5 401.5,-0.5 338.5,-0.5"/>
<text text-anchor="middle" x="370" y="-7.5" font-family="Helvetica,sans-Serif" font-size="10.00">Arduino.h</text>
</a>
</g>
</g>
<!-- Node2&#45;&gt;Node3 -->
<g id="edge2" class="edge">
<title>Node2&#45;&gt;Node3</title>
<path fill="none" stroke="midnightblue" d="M297.82,-56.32C311.23,-47.9 331.82,-34.97 347.59,-25.07"/>
<polygon fill="midnightblue" stroke="midnightblue" points="349.61,-27.94 356.22,-19.65 345.89,-22.01 349.61,-27.94"/>
</g>
<!-- Node4 -->
<g id="node4" class="node">
<title>Node4</title>
<g id="a_node4"><a xlink:title=" ">
<polygon fill="white" stroke="#bfbfbf" points="419.5,-0.5 419.5,-19.5 466.5,-19.5 466.5,-0.5 419.5,-0.5"/>
<text text-anchor="middle" x="443" y="-7.5" font-family="Helvetica,sans-Serif" font-size="10.00">WiFi.h</text>
</a>
</g>
</g>
<!-- Node2&#45;&gt;Node4 -->
<g id="edge3" class="edge">
<title>Node2&#45;&gt;Node4</title>
<path fill="none" stroke="midnightblue" d="M309.19,-56.44C336.41,-47.2 379.91,-32.43 409.88,-22.25"/>
<polygon fill="midnightblue" stroke="midnightblue" points="411.14,-25.52 419.48,-18.99 408.88,-18.89 411.14,-25.52"/>
</g>
<!-- Node5 -->
<g id="node5" class="node">
<title>Node5</title>
<g id="a_node5"><a xlink:title=" ">
<polygon fill="white" stroke="#bfbfbf" points="0,-0.5 0,-19.5 90,-19.5 90,-0.5 0,-0.5"/>
<text text-anchor="middle" x="45" y="-7.5" font-family="Helvetica,sans-Serif" font-size="10.00">PubSubClient.h</text>
</a>
</g>
</g>
<!-- Node2&#45;&gt;Node5 -->
<g id="edge4" class="edge">
<title>Node2&#45;&gt;Node5</title>
<path fill="none" stroke="midnightblue" d="M248.99,-57.09C207.68,-47.76 138.79,-32.19 92.64,-21.76"/>
<polygon fill="midnightblue" stroke="midnightblue" points="93.39,-18.35 82.87,-19.56 91.85,-25.17 93.39,-18.35"/>
</g>
<!-- Node6 -->
<g id="node6" class="node">
<title>Node6</title>
<g id="a_node6"><a xlink:title=" ">
<polygon fill="white" stroke="#bfbfbf" points="108.5,-0.5 108.5,-19.5 191.5,-19.5 191.5,-0.5 108.5,-0.5"/>
<text text-anchor="middle" x="150" y="-7.5" font-family="Helvetica,sans-Serif" font-size="10.00">ArduinoJson.h</text>
</a>
</g>
</g>
<!-- Node2&#45;&gt;Node6 -->
<g id="edge5" class="edge">
<title>Node2&#45;&gt;Node6</title>
<path fill="none" stroke="midnightblue" d="M262.77,-56.44C240.62,-47.52 205.68,-33.44 180.56,-23.32"/>
<polygon fill="midnightblue" stroke="midnightblue" points="181.72,-20.01 171.13,-19.52 179.1,-26.5 181.72,-20.01"/>
</g>
<!-- Node7 -->
<g id="node7" class="node">
<title>Node7</title>
<g id="a_node7"><a xlink:title=" ">
<polygon fill="white" stroke="#bfbfbf" points="210,-0.5 210,-19.5 320,-19.5 320,-0.5 210,-0.5"/>
<text text-anchor="middle" x="265" y="-7.5" font-family="Helvetica,sans-Serif" font-size="10.00">PJONThroughLora.h</text>
</a>
</g>
</g>
<!-- Node2&#45;&gt;Node7 -->
<g id="edge6" class="edge">
<title>Node2&#45;&gt;Node7</title>
<path fill="none" stroke="midnightblue" d="M280.86,-56.08C278.32,-48.85 274.64,-38.41 271.47,-29.4"/>
<polygon fill="midnightblue" stroke="midnightblue" points="274.7,-28.02 268.08,-19.75 268.1,-30.35 274.7,-28.02"/>
</g>
<!-- Node8 -->
<g id="node8" class="node">
<title>Node8</title>
<g id="a_node8"><a xlink:href="topics_8h.html" target="_top" xlink:title="MQTT topics for a thingsboard gateway.">
<polygon fill="white" stroke="black" points="485,-0.5 485,-19.5 557,-19.5 557,-0.5 485,-0.5"/>
<text text-anchor="middle" x="521" y="-7.5" font-family="Helvetica,sans-Serif" font-size="10.00">src/topics.h</text>
</a>
</g>
</g>
<!-- Node2&#45;&gt;Node8 -->
<g id="edge7" class="edge">
<title>Node2&#45;&gt;Node8</title>
<path fill="none" stroke="midnightblue" d="M319.23,-56.97C360.58,-47.55 429.31,-31.89 474.88,-21.51"/>
<polygon fill="midnightblue" stroke="midnightblue" points="475.83,-24.88 484.8,-19.25 474.28,-18.06 475.83,-24.88"/>
</g>
<!-- Node9&#45;&gt;Node2 -->
<g id="edge9" class="edge">
<title>Node9&#45;&gt;Node2</title>
<path fill="none" stroke="midnightblue" d="M158.61,-112.44C183.46,-103.44 222.77,-89.19 250.75,-79.05"/>
<polygon fill="midnightblue" stroke="midnightblue" points="252.29,-82.21 260.5,-75.52 249.91,-75.63 252.29,-82.21"/>
</g>
<!-- Node10&#45;&gt;Node2 -->
<g id="edge11" class="edge">
<title>Node10&#45;&gt;Node2</title>
<path fill="none" stroke="midnightblue" d="M210.21,-224.4C209.31,-211.77 208.6,-187.6 214,-168 223.43,-133.78 250.17,-101.38 267.74,-82.89"/>
<polygon fill="midnightblue" stroke="midnightblue" points="270.35,-85.22 274.85,-75.63 265.35,-80.32 270.35,-85.22"/>
</g>
<!-- Node10&#45;&gt;Node9 -->
<g id="edge12" class="edge">
<title>Node10&#45;&gt;Node9</title>
<path fill="none" stroke="midnightblue" d="M205.04,-224.37C192.49,-206.22 163.19,-163.8 146.74,-139.99"/>
<polygon fill="midnightblue" stroke="midnightblue" points="149.5,-137.83 140.94,-131.59 143.74,-141.81 149.5,-137.83"/>
</g>
<!-- Node11 -->
<g id="node11" class="node">
<title>Node11</title>
<g id="a_node11"><a xlink:href="fields_8h.html" target="_top" xlink:title="Contains fields classes.">
<polygon fill="white" stroke="black" points="223,-168.5 223,-187.5 275,-187.5 275,-168.5 223,-168.5"/>
<text text-anchor="middle" x="249" y="-175.5" font-family="Helvetica,sans-Serif" font-size="10.00">fields.h</text>
</a>
</g>
</g>
<!-- Node10&#45;&gt;Node11 -->
<g id="edge13" class="edge">
<title>Node10&#45;&gt;Node11</title>
<path fill="none" stroke="midnightblue" d="M217.27,-224.08C222.64,-216.46 230.52,-205.26 237.08,-195.94"/>
<polygon fill="midnightblue" stroke="midnightblue" points="239.95,-197.94 242.84,-187.75 234.22,-193.91 239.95,-197.94"/>
</g>
<!-- Node11&#45;&gt;Node2 -->
<g id="edge14" class="edge">
<title>Node11&#45;&gt;Node2</title>
<path fill="none" stroke="midnightblue" d="M247.88,-168.3C246.58,-155.55 245.37,-131.22 252,-112 255.58,-101.62 262.37,-91.52 268.77,-83.52"/>
<polygon fill="midnightblue" stroke="midnightblue" points="271.56,-85.64 275.4,-75.76 266.24,-81.09 271.56,-85.64"/>
</g>
<!-- Node11&#45;&gt;Node9 -->
<g id="edge15" class="edge">
<title>Node11&#45;&gt;Node9</title>
<path fill="none" stroke="midnightblue" d="M230.94,-168.44C212.43,-159.68 183.42,-145.94 162.14,-135.86"/>
<polygon fill="midnightblue" stroke="midnightblue" points="163.51,-132.63 152.98,-131.52 160.52,-138.96 163.51,-132.63"/>
</g>
<!-- Node12 -->
<g id="node12" class="node">
<title>Node12</title>
<g id="a_node12"><a xlink:href="conversions_8h.html" target="_top" xlink:title="General functions for converting to and from char arrays.">
<polygon fill="white" stroke="black" points="261,-112.5 261,-131.5 345,-131.5 345,-112.5 261,-112.5"/>
<text text-anchor="middle" x="303" y="-119.5" font-family="Helvetica,sans-Serif" font-size="10.00">conversions.h</text>
</a>
</g>
</g>
<!-- Node11&#45;&gt;Node12 -->
<g id="edge16" class="edge">
<title>Node11&#45;&gt;Node12</title>
<path fill="none" stroke="midnightblue" d="M257.92,-168.08C265.78,-160.22 277.43,-148.57 286.92,-139.08"/>
<polygon fill="midnightblue" stroke="midnightblue" points="289.65,-141.3 294.25,-131.75 284.7,-136.35 289.65,-141.3"/>
</g>
<!-- Node12&#45;&gt;Node2 -->
<g id="edge17" class="edge">
<title>Node12&#45;&gt;Node2</title>
<path fill="none" stroke="midnightblue" d="M299.86,-112.08C297.32,-104.85 293.64,-94.41 290.47,-85.4"/>
<polygon fill="midnightblue" stroke="midnightblue" points="293.7,-84.02 287.08,-75.75 287.1,-86.35 293.7,-84.02"/>
</g>
<!-- Node13&#45;&gt;Node1 -->
<g id="edge21" class="edge">
<title>Node13&#45;&gt;Node1</title>
<path fill="none" stroke="midnightblue" d="M228.22,-299.67C226.31,-317.14 215.15,-357.11 205.51,-382.9"/>
<polygon fill="midnightblue" stroke="midnightblue" points="202.2,-381.75 201.78,-392.34 208.71,-384.32 202.2,-381.75"/>
</g>
<!-- Node13&#45;&gt;Node2 -->
<g id="edge19" class="edge">
<title>Node13&#45;&gt;Node2</title>
<path fill="none" stroke="midnightblue" d="M238.02,-280.23C264.31,-258.5 330.26,-199.09 354,-132 356.96,-123.62 358.26,-119.8 354,-112 346.18,-97.68 331.64,-87.24 317.82,-80.04"/>
<polygon fill="midnightblue" stroke="midnightblue" points="319,-76.72 308.47,-75.56 315.98,-83.03 319,-76.72"/>
</g>
<!-- Node13&#45;&gt;Node10 -->
<g id="edge20" class="edge">
<title>Node13&#45;&gt;Node10</title>
<path fill="none" stroke="midnightblue" d="M224.36,-280.08C222.21,-272.85 219.12,-262.41 216.45,-253.4"/>
<polygon fill="midnightblue" stroke="midnightblue" points="219.79,-252.34 213.59,-243.75 213.08,-254.33 219.79,-252.34"/>
</g>
<!-- Node14&#45;&gt;Node2 -->
<g id="edge23" class="edge">
<title>Node14&#45;&gt;Node2</title>
<path fill="none" stroke="midnightblue" d="M345.19,-336.24C367.12,-319.35 411,-279.95 411,-235 411,-235 411,-235 411,-177 411,-127.87 356.01,-95.77 318.4,-79.56"/>
<polygon fill="midnightblue" stroke="midnightblue" points="319.37,-76.17 308.79,-75.59 316.7,-82.64 319.37,-76.17"/>
</g>
<!-- Node14&#45;&gt;Node8 -->
<g id="edge24" class="edge">
<title>Node14&#45;&gt;Node8</title>
<path fill="none" stroke="midnightblue" d="M353.84,-342.68C402.79,-335.95 521,-311.77 521,-235 521,-235 521,-235 521,-121 521,-88.95 521,-51.64 521,-29.75"/>
<polygon fill="midnightblue" stroke="midnightblue" points="524.5,-29.56 521,-19.56 517.5,-29.56 524.5,-29.56"/>
</g>
<!-- Node14&#45;&gt;Node10 -->
<g id="edge27" class="edge">
<title>Node14&#45;&gt;Node10</title>
<path fill="none" stroke="midnightblue" d="M326.58,-336.4C316.6,-323.36 296.39,-298.18 276,-280 263.06,-268.46 247.06,-257.35 234.17,-249.06"/>
<polygon fill="midnightblue" stroke="midnightblue" points="235.76,-245.92 225.43,-243.55 232.03,-251.84 235.76,-245.92"/>
</g>
<!-- Node14&#45;&gt;Node11 -->
<g id="edge28" class="edge">
<title>Node14&#45;&gt;Node11</title>
<path fill="none" stroke="midnightblue" d="M328.48,-336.08C315.15,-309.72 275.76,-231.88 257.94,-196.66"/>
<polygon fill="midnightblue" stroke="midnightblue" points="260.97,-194.91 253.34,-187.57 254.73,-198.07 260.97,-194.91"/>
</g>
<!-- Node14&#45;&gt;Node13 -->
<g id="edge29" class="edge">
<title>Node14&#45;&gt;Node13</title>
<path fill="none" stroke="midnightblue" d="M315.97,-336.32C298.97,-327.66 272.62,-314.24 253.01,-304.25"/>
<polygon fill="midnightblue" stroke="midnightblue" points="254.49,-301.08 243.99,-299.65 251.31,-307.31 254.49,-301.08"/>
</g>
<!-- Node15 -->
<g id="node15" class="node">
<title>Node15</title>
<g id="a_node15"><a xlink:href="alarm_8h.html" target="_top" xlink:title="Handles alarms.">
<polygon fill="white" stroke="black" points="439,-224.5 439,-243.5 493,-243.5 493,-224.5 439,-224.5"/>
<text text-anchor="middle" x="466" y="-231.5" font-family="Helvetica,sans-Serif" font-size="10.00">alarm.h</text>
</a>
</g>
</g>
<!-- Node14&#45;&gt;Node15 -->
<g id="edge25" class="edge">
<title>Node14&#45;&gt;Node15</title>
<path fill="none" stroke="midnightblue" d="M353.55,-338.65C373.57,-331.67 403.96,-318.88 425,-300 439.7,-286.8 451.11,-267.13 458.12,-252.88"/>
<polygon fill="midnightblue" stroke="midnightblue" points="461.38,-254.18 462.43,-243.64 455.03,-251.23 461.38,-254.18"/>
</g>
<!-- Node15&#45;&gt;Node2 -->
<g id="edge26" class="edge">
<title>Node15&#45;&gt;Node2</title>
<path fill="none" stroke="midnightblue" d="M465.63,-224.3C464.22,-202.29 457.44,-143.86 425,-112 399.47,-86.92 360,-75.81 329.3,-70.89"/>
<polygon fill="midnightblue" stroke="midnightblue" points="329.65,-67.41 319.26,-69.45 328.66,-74.34 329.65,-67.41"/>
</g>
</g>
</svg>
