<?xml version="1.0" encoding="UTF-8" standalone="no"?>
<!DOCTYPE svg PUBLIC "-//W3C//DTD SVG 1.1//EN"
 "http://www.w3.org/Graphics/SVG/1.1/DTD/svg11.dtd">
<!-- Generated by graphviz version 2.43.0 (0)
 -->
<!-- Title: pjonTask Pages: 1 -->
<svg width="775pt" height="119pt"
 viewBox="0.00 0.00 775.00 119.00" xmlns="http://www.w3.org/2000/svg" xmlns:xlink="http://www.w3.org/1999/xlink">
<g id="graph0" class="graph" transform="scale(1 1) rotate(0) translate(4 115)">
<title>pjonTask</title>
<!-- Node1 -->
<g id="Node000001" class="node">
<title>Node1</title>
<g id="a_Node000001"><a xlink:title="&quot;Receives&quot; some fake data for testing purposes.">
<polygon fill="#999999" stroke="#666666" points="59,-74 0,-74 0,-55 59,-55 59,-74"/>
<text text-anchor="middle" x="29.5" y="-62" font-family="Helvetica,sans-Serif" font-size="10.00">pjonTask</text>
</a>
</g>
</g>
<!-- Node2 -->
<g id="Node000002" class="node">
<title>Node2</title>
<g id="a_Node000002"><a xlink:href="lora_8cpp.html#ac5e6522afd1447f1520e4f4503af9ec5" target="_top" xlink:title="Task that checks if the radio is connected.">
<polygon fill="white" stroke="#666666" points="200,-111 95,-111 95,-92 200,-92 200,-111"/>
<text text-anchor="middle" x="147.5" y="-99" font-family="Helvetica,sans-Serif" font-size="10.00">loraWatchdogTask</text>
</a>
</g>
</g>
<!-- Node1&#45;&gt;Node2 -->
<g id="edge1_Node000001_Node000002" class="edge">
<title>Node1&#45;&gt;Node2</title>
<g id="a_edge1_Node000001_Node000002"><a xlink:title=" ">
<path fill="none" stroke="#63b8ff" d="M59.17,-73.65C73.48,-78.21 91.02,-83.81 106.62,-88.78"/>
<polygon fill="#63b8ff" stroke="#63b8ff" points="105.95,-92.24 116.54,-91.94 108.07,-85.57 105.95,-92.24"/>
</a>
</g>
</g>
<!-- Node5 -->
<g id="Node000005" class="node">
<title>Node5</title>
<g id="a_Node000005"><a xlink:href="lora_8cpp.html#aef164eaa7a67eb3153407eb4b601f4f0" target="_top" xlink:title="Logs PJON errors.">
<polygon fill="white" stroke="#666666" points="178,-74 117,-74 117,-55 178,-55 178,-74"/>
<text text-anchor="middle" x="147.5" y="-62" font-family="Helvetica,sans-Serif" font-size="10.00">pjonError</text>
</a>
</g>
</g>
<!-- Node1&#45;&gt;Node5 -->
<g id="edge4_Node000001_Node000005" class="edge">
<title>Node1&#45;&gt;Node5</title>
<g id="a_edge4_Node000001_Node000005"><a xlink:title=" ">
<path fill="none" stroke="#63b8ff" d="M59.17,-64.5C73.46,-64.5 90.96,-64.5 106.53,-64.5"/>
<polygon fill="#63b8ff" stroke="#63b8ff" points="106.94,-68 116.94,-64.5 106.94,-61 106.94,-68"/>
</a>
</g>
</g>
<!-- Node6 -->
<g id="Node000006" class="node">
<title>Node6</title>
<g id="a_Node000006"><a xlink:href="lora_8cpp.html#a73337b280bec4397780b012ccc949113" target="_top" xlink:title="Handles an incoming packet received from the radio and adds the given snr and rssi to the packet.">
<polygon fill="white" stroke="#666666" points="186,-37 109,-37 109,-18 186,-18 186,-37"/>
<text text-anchor="middle" x="147.5" y="-25" font-family="Helvetica,sans-Serif" font-size="10.00">pjonReceive</text>
</a>
</g>
</g>
<!-- Node1&#45;&gt;Node6 -->
<g id="edge5_Node000001_Node000006" class="edge">
<title>Node1&#45;&gt;Node6</title>
<g id="a_edge5_Node000001_Node000006"><a xlink:title=" ">
<path fill="none" stroke="#63b8ff" d="M59.17,-55.35C73.48,-50.79 91.02,-45.19 106.62,-40.22"/>
<polygon fill="#63b8ff" stroke="#63b8ff" points="108.07,-43.43 116.54,-37.06 105.95,-36.76 108.07,-43.43"/>
</a>
</g>
</g>
<!-- Node3 -->
<g id="Node000003" class="node">
<title>Node3</title>
<g id="a_Node000003"><a xlink:href="lora_8cpp.html#aeae7cd913b330750fef4bda6cadbf95b" target="_top" xlink:title="Sends an attribute over mqtt depending on the state of the radio connection.">
<polygon fill="white" stroke="#666666" points="382,-111 242,-111 242,-92 382,-92 382,-111"/>
<text text-anchor="middle" x="312" y="-99" font-family="Helvetica,sans-Serif" font-size="10.00">sendRadioConnectedMsg</text>
</a>
</g>
</g>
<!-- Node2&#45;&gt;Node3 -->
<g id="edge2_Node000002_Node000003" class="edge">
<title>Node2&#45;&gt;Node3</title>
<g id="a_edge2_Node000002_Node000003"><a xlink:title=" ">
<path fill="none" stroke="#63b8ff" d="M200.36,-101.5C210.36,-101.5 221.04,-101.5 231.68,-101.5"/>
<polygon fill="#63b8ff" stroke="#63b8ff" points="231.84,-105 241.84,-101.5 231.84,-98 231.84,-105"/>
</a>
</g>
</g>
<!-- Node4 -->
<g id="Node000004" class="node">
<title>Node4</title>
<g id="a_Node000004"><a xlink:href="rpc_8cpp.html#adc3c5806492d2818ad6f5aff232765ec" target="_top" xlink:title=" ">
<polygon fill="white" stroke="#666666" points="561.5,-111 461.5,-111 461.5,-92 561.5,-92 561.5,-111"/>
<text text-anchor="middle" x="511.5" y="-99" font-family="Helvetica,sans-Serif" font-size="10.00">setAttributeState</text>
</a>
</g>
</g>
<!-- Node3&#45;&gt;Node4 -->
<g id="edge3_Node000003_Node000004" class="edge">
<title>Node3&#45;&gt;Node4</title>
<g id="a_edge3_Node000003_Node000004"><a xlink:title=" ">
<path fill="none" stroke="#63b8ff" d="M382.08,-101.5C404.64,-101.5 429.49,-101.5 451.26,-101.5"/>
<polygon fill="#63b8ff" stroke="#63b8ff" points="451.36,-105 461.36,-101.5 451.36,-98 451.36,-105"/>
</a>
</g>
</g>
<!-- Node7 -->
<g id="Node000007" class="node">
<title>Node7</title>
<g id="a_Node000007"><a xlink:href="class_device.html#a35eba370894e0e1ec39f2043e466b2f6" target="_top" xlink:title="Decodes the payload from a PJON packet and converts it to thingsboard MQTT JSON.">
<polygon fill="white" stroke="#666666" points="388,-56 236,-56 236,-37 388,-37 388,-56"/>
<text text-anchor="middle" x="312" y="-44" font-family="Helvetica,sans-Serif" font-size="10.00">Device::decodePacketFields</text>
</a>
</g>
</g>
<!-- Node6&#45;&gt;Node7 -->
<g id="edge6_Node000006_Node000007" class="edge">
<title>Node6&#45;&gt;Node7</title>
<g id="a_edge6_Node000006_Node000007"><a xlink:title=" ">
<path fill="none" stroke="#63b8ff" d="M186.19,-31.91C198.11,-33.3 211.81,-34.9 225.66,-36.52"/>
<polygon fill="#63b8ff" stroke="#63b8ff" points="225.42,-40.02 235.76,-37.7 226.23,-33.06 225.42,-40.02"/>
</a>
</g>
</g>
<!-- Node11 -->
<g id="Node000011" class="node">
<title>Node11</title>
<g id="a_Node000011"><a xlink:href="class_lookup_manager.html#a03510999964fcb3a6e93719ae5b9cab3" target="_top" xlink:title="Gets the object with the given symbol.">
<polygon fill="white" stroke="#666666" points="599,-19 424,-19 424,0 599,0 599,-19"/>
<text text-anchor="middle" x="511.5" y="-7" font-family="Helvetica,sans-Serif" font-size="10.00">LookupManager::getWithSymbol</text>
</a>
</g>
</g>
<!-- Node6&#45;&gt;Node11 -->
<g id="edge11_Node000006_Node000011" class="edge">
<title>Node6&#45;&gt;Node11</title>
<g id="a_edge11_Node000006_Node000011"><a xlink:title=" ">
<path fill="none" stroke="#63b8ff" d="M186.22,-25.62C239.49,-22.98 338.59,-18.05 413.28,-14.33"/>
<polygon fill="#63b8ff" stroke="#63b8ff" points="413.83,-17.81 423.64,-13.82 413.48,-10.82 413.83,-17.81"/>
</a>
</g>
</g>
<!-- Node8 -->
<g id="Node000008" class="node">
<title>Node8</title>
<g id="a_Node000008"><a xlink:href="class_field.html#aa036e196f5805e9406b8169200e3915a" target="_top" xlink:title="Decodes the value from bytes into an existing json document.">
<polygon fill="white" stroke="#666666" points="552,-56 471,-56 471,-37 552,-37 552,-56"/>
<text text-anchor="middle" x="511.5" y="-44" font-family="Helvetica,sans-Serif" font-size="10.00">Field::decode</text>
</a>
</g>
</g>
<!-- Node7&#45;&gt;Node8 -->
<g id="edge7_Node000007_Node000008" class="edge">
<title>Node7&#45;&gt;Node8</title>
<g id="a_edge7_Node000007_Node000008"><a xlink:title=" ">
<path fill="none" stroke="#63b8ff" d="M388.23,-46.5C412.51,-46.5 438.8,-46.5 460.76,-46.5"/>
<polygon fill="#63b8ff" stroke="#63b8ff" points="460.85,-50 470.85,-46.5 460.85,-43 460.85,-50"/>
</a>
</g>
</g>
<!-- Node7&#45;&gt;Node11 -->
<g id="edge10_Node000007_Node000011" class="edge">
<title>Node7&#45;&gt;Node11</title>
<g id="a_edge10_Node000007_Node000011"><a xlink:title=" ">
<path fill="none" stroke="#63b8ff" d="M363.86,-36.97C390.02,-32.07 422.1,-26.06 449.57,-20.91"/>
<polygon fill="#63b8ff" stroke="#63b8ff" points="450.28,-24.34 459.47,-19.06 448.99,-17.46 450.28,-24.34"/>
</a>
</g>
</g>
<!-- Node9 -->
<g id="Node000009" class="node">
<title>Node9</title>
<g id="a_Node000009"><a xlink:href="class_field.html#a536d757818e186d83b2ab71415bb0bba" target="_top" xlink:title="Decodes the value from bytes into an existing json document. decode does the checking for length,...">
<polygon fill="white" stroke="#666666" points="762,-74 640,-74 640,-55 762,-55 762,-74"/>
<text text-anchor="middle" x="701" y="-62" font-family="Helvetica,sans-Serif" font-size="10.00">Field::actuallyDecode</text>
</a>
</g>
</g>
<!-- Node8&#45;&gt;Node9 -->
<g id="edge8_Node000008_Node000009" class="edge">
<title>Node8&#45;&gt;Node9</title>
<g id="a_edge8_Node000008_Node000009"><a xlink:title=" ">
<path fill="none" stroke="#63b8ff" d="M552.26,-50.32C574.76,-52.48 603.54,-55.24 629.71,-57.75"/>
<polygon fill="#63b8ff" stroke="#63b8ff" points="629.68,-61.27 639.97,-58.74 630.35,-54.3 629.68,-61.27"/>
</a>
</g>
</g>
<!-- Node10 -->
<g id="Node000010" class="node">
<title>Node10</title>
<g id="a_Node000010"><a xlink:href="class_field.html#a0f6c46168ecc1113ff61d9fb68d8c763" target="_top" xlink:title="Checks if the value can be decoded from the packet.">
<polygon fill="white" stroke="#666666" points="767,-37 635,-37 635,-18 767,-18 767,-37"/>
<text text-anchor="middle" x="701" y="-25" font-family="Helvetica,sans-Serif" font-size="10.00">Field::checkDecodeable</text>
</a>
</g>
</g>
<!-- Node8&#45;&gt;Node10 -->
<g id="edge9_Node000008_Node000010" class="edge">
<title>Node8&#45;&gt;Node10</title>
<g id="a_edge9_Node000008_Node000010"><a xlink:title=" ">
<path fill="none" stroke="#63b8ff" d="M552.26,-42.47C573.33,-40.34 599.92,-37.64 624.71,-35.13"/>
<polygon fill="#63b8ff" stroke="#63b8ff" points="625.24,-38.59 634.84,-34.1 624.54,-31.63 625.24,-38.59"/>
</a>
</g>
</g>
</g>
</svg>
