<?xml version="1.0" encoding="UTF-8" standalone="no"?>
<!DOCTYPE svg PUBLIC "-//W3C//DTD SVG 1.1//EN"
 "http://www.w3.org/Graphics/SVG/1.1/DTD/svg11.dtd">
<!-- Generated by graphviz version 2.43.0 (0)
 -->
<!-- Title: BaseStationCode/src/src/lora.h Pages: 1 -->
<!--zoomable 240 -->
<svg id="main" version="1.1" xmlns="http://www.w3.org/2000/svg" xmlns:xlink="http://www.w3.org/1999/xlink" xml:space="preserve" onload="init(evt)">
<style type="text/css"><![CDATA[
.edge:hover path { stroke: red; }
.edge:hover polygon { stroke: red; fill: red; }
]]></style>
<script type="text/javascript"><![CDATA[
var edges = document.getElementsByTagName('g');
if (edges && edges.length) {
  for (var i=0;i<edges.length;i++) {
    if (edges[i].id.substr(0,4)=='edge') {
      edges[i].setAttribute('class','edge');
    }
  }
}
]]></script>
        <defs>
                <circle id="rim" cx="0" cy="0" r="7"/>
                <circle id="rim2" cx="0" cy="0" r="3.5"/>
                <g id="zoomPlus">
                        <use xlink:href="#rim" fill="#404040">
                                <set attributeName="fill" to="#808080" begin="zoomplus.mouseover" end="zoomplus.mouseout"/>
                        </use>
                        <path d="M-4,0h8M0,-4v8" fill="none" stroke="white" stroke-width="1.5" pointer-events="none"/>
                </g>
                <g id="zoomMin">
                        <use xlink:href="#rim" fill="#404040">
                                <set attributeName="fill" to="#808080" begin="zoomminus.mouseover" end="zoomminus.mouseout"/>
                        </use>
                        <path d="M-4,0h8" fill="none" stroke="white" stroke-width="1.5" pointer-events="none"/>
                </g>
                <g id="dirArrow">
                        <path fill="none" stroke="white" stroke-width="1.5" d="M0,-3.0v7 M-2.5,-0.5L0,-3.0L2.5,-0.5"/>
                </g>
               <g id="resetDef">
                       <use xlink:href="#rim2" fill="#404040">
                               <set attributeName="fill" to="#808080" begin="reset.mouseover" end="reset.mouseout"/>
                       </use>
               </g>
        </defs>

<script type="text/javascript">
var viewWidth = 704;
var viewHeight = 240;
var sectionId = 'dynsection-1';
</script>
<script xlink:href="svgpan.js"/>
<svg id="graph" class="graph">
<g id="viewport">
<title>BaseStationCode/src/src/lora.h</title>
<polygon fill="white" stroke="transparent" points="-4,4 -4,-236 700,-236 700,4 -4,4"/>
<!-- Node1 -->
<g id="node1" class="node">
<title>Node1</title>
<g id="a_node1"><a xlink:title="File that handles the LoRa radio and PJON.">
<polygon fill="#bfbfbf" stroke="black" points="289,-201.5 289,-231.5 406,-231.5 406,-201.5 289,-201.5"/>
<text text-anchor="start" x="297" y="-219.5" font-family="Helvetica,sans-Serif" font-size="10.00">BaseStationCode/src</text>
<text text-anchor="middle" x="347.5" y="-208.5" font-family="Helvetica,sans-Serif" font-size="10.00">/src/lora.h</text>
</a>
</g>
</g>
<!-- Node2 -->
<g id="node2" class="node">
<title>Node2</title>
<g id="a_node2"><a xlink:href="main_8cpp.html" target="_top" xlink:title=" ">
<polygon fill="white" stroke="black" points="135,-0.5 135,-30.5 252,-30.5 252,-0.5 135,-0.5"/>
<text text-anchor="start" x="143" y="-18.5" font-family="Helvetica,sans-Serif" font-size="10.00">BaseStationCode/src</text>
<text text-anchor="middle" x="193.5" y="-7.5" font-family="Helvetica,sans-Serif" font-size="10.00">/main.cpp</text>
</a>
</g>
</g>
<!-- Node1&#45;&gt;Node2 -->
<g id="edge1" class="edge">
<title>Node1&#45;&gt;Node2</title>
<path fill="none" stroke="midnightblue" d="M278.81,-211.1C205.4,-202.31 92.34,-176.07 38.5,-98 30.68,-86.66 30.41,-78.15 38.5,-67 44.8,-58.33 97.93,-42.23 140.25,-30.54"/>
<polygon fill="midnightblue" stroke="midnightblue" points="278.57,-214.6 288.89,-212.23 279.34,-207.64 278.57,-214.6"/>
</g>
<!-- Node3 -->
<g id="node3" class="node">
<title>Node3</title>
<g id="a_node3"><a xlink:href="lora_8cpp.html" target="_top" xlink:title="File that handles the LoRa radio and PJON.">
<polygon fill="white" stroke="black" points="463,-134.5 463,-164.5 580,-164.5 580,-134.5 463,-134.5"/>
<text text-anchor="start" x="471" y="-152.5" font-family="Helvetica,sans-Serif" font-size="10.00">BaseStationCode/src</text>
<text text-anchor="middle" x="521.5" y="-141.5" font-family="Helvetica,sans-Serif" font-size="10.00">/src/lora.cpp</text>
</a>
</g>
</g>
<!-- Node1&#45;&gt;Node3 -->
<g id="edge2" class="edge">
<title>Node1&#45;&gt;Node3</title>
<path fill="none" stroke="midnightblue" d="M394.83,-197.82C422.8,-187.37 457.73,-174.32 483.82,-164.58"/>
<polygon fill="midnightblue" stroke="midnightblue" points="393.4,-194.62 385.26,-201.4 395.85,-201.18 393.4,-194.62"/>
</g>
<!-- Node4 -->
<g id="node4" class="node">
<title>Node4</title>
<g id="a_node4"><a xlink:href="networking_8h.html" target="_top" xlink:title="Header file for networking.cpp.">
<polygon fill="white" stroke="black" points="289,-134.5 289,-164.5 406,-164.5 406,-134.5 289,-134.5"/>
<text text-anchor="start" x="297" y="-152.5" font-family="Helvetica,sans-Serif" font-size="10.00">BaseStationCode/src</text>
<text text-anchor="middle" x="347.5" y="-141.5" font-family="Helvetica,sans-Serif" font-size="10.00">/src/networking.h</text>
</a>
</g>
</g>
<!-- Node1&#45;&gt;Node4 -->
<g id="edge3" class="edge">
<title>Node1&#45;&gt;Node4</title>
<path fill="none" stroke="midnightblue" d="M340.95,-191.4C340.51,-182.37 340.8,-172.41 341.83,-164.58"/>
<polygon fill="midnightblue" stroke="midnightblue" points="337.47,-191.74 341.82,-201.4 344.44,-191.13 337.47,-191.74"/>
</g>
<!-- Node4&#45;&gt;Node1 -->
<g id="edge8" class="edge">
<title>Node4&#45;&gt;Node1</title>
<path fill="none" stroke="midnightblue" d="M354.04,-174.57C354.49,-183.6 354.21,-193.56 353.18,-201.4"/>
<polygon fill="midnightblue" stroke="midnightblue" points="357.53,-174.24 353.17,-164.58 350.55,-174.84 357.53,-174.24"/>
</g>
<!-- Node4&#45;&gt;Node2 -->
<g id="edge4" class="edge">
<title>Node4&#45;&gt;Node2</title>
<path fill="none" stroke="midnightblue" d="M279.21,-136.44C255.42,-129.04 230.46,-117.13 213.5,-98 196.78,-79.14 193.52,-48.55 193.17,-30.7"/>
<polygon fill="midnightblue" stroke="midnightblue" points="278.38,-139.84 288.95,-139.25 280.32,-133.12 278.38,-139.84"/>
</g>
<!-- Node5 -->
<g id="node5" class="node">
<title>Node5</title>
<g id="a_node5"><a xlink:href="leds_8h.html" target="_top" xlink:title="Controls the LEDs on the unit.">
<polygon fill="white" stroke="black" points="222,-67.5 222,-97.5 339,-97.5 339,-67.5 222,-67.5"/>
<text text-anchor="start" x="230" y="-85.5" font-family="Helvetica,sans-Serif" font-size="10.00">BaseStationCode/src</text>
<text text-anchor="middle" x="280.5" y="-74.5" font-family="Helvetica,sans-Serif" font-size="10.00">/src/leds.h</text>
</a>
</g>
</g>
<!-- Node4&#45;&gt;Node5 -->
<g id="edge5" class="edge">
<title>Node4&#45;&gt;Node5</title>
<path fill="none" stroke="midnightblue" d="M325.66,-127.31C315.61,-117.56 303.96,-106.26 295.01,-97.58"/>
<polygon fill="midnightblue" stroke="midnightblue" points="323.35,-129.94 332.96,-134.4 328.22,-124.92 323.35,-129.94"/>
</g>
<!-- Node7 -->
<g id="node7" class="node">
<title>Node7</title>
<g id="a_node7"><a xlink:href="networking_8cpp.html" target="_top" xlink:title="File that handles connecting to WiFi and MQTT and staying connected.">
<polygon fill="white" stroke="black" points="444,-0.5 444,-30.5 561,-30.5 561,-0.5 444,-0.5"/>
<text text-anchor="start" x="452" y="-18.5" font-family="Helvetica,sans-Serif" font-size="10.00">BaseStationCode/src</text>
<text text-anchor="middle" x="502.5" y="-7.5" font-family="Helvetica,sans-Serif" font-size="10.00">/src/networking.cpp</text>
</a>
</g>
</g>
<!-- Node4&#45;&gt;Node7 -->
<g id="edge9" class="edge">
<title>Node4&#45;&gt;Node7</title>
<path fill="none" stroke="midnightblue" d="M410.4,-131.43C440.91,-121.95 473.17,-109.72 483.5,-98 500.11,-79.14 502.95,-48.55 503.04,-30.7"/>
<polygon fill="midnightblue" stroke="midnightblue" points="409.14,-128.15 400.59,-134.41 411.17,-134.85 409.14,-128.15"/>
</g>
<!-- Node8 -->
<g id="node8" class="node">
<title>Node8</title>
<g id="a_node8"><a xlink:href="ota_8h.html" target="_top" xlink:title="Handles over the air (OTA) updates.">
<polygon fill="white" stroke="black" points="48,-67.5 48,-97.5 165,-97.5 165,-67.5 48,-67.5"/>
<text text-anchor="start" x="56" y="-85.5" font-family="Helvetica,sans-Serif" font-size="10.00">BaseStationCode/src</text>
<text text-anchor="middle" x="106.5" y="-74.5" font-family="Helvetica,sans-Serif" font-size="10.00">/src/ota.h</text>
</a>
</g>
</g>
<!-- Node4&#45;&gt;Node8 -->
<g id="edge10" class="edge">
<title>Node4&#45;&gt;Node8</title>
<path fill="none" stroke="midnightblue" d="M285.77,-131.85C246.47,-121.25 196.14,-107.68 158.82,-97.61"/>
<polygon fill="midnightblue" stroke="midnightblue" points="284.94,-135.25 295.5,-134.48 286.76,-128.49 284.94,-135.25"/>
</g>
<!-- Node10 -->
<g id="node10" class="node">
<title>Node10</title>
<g id="a_node10"><a xlink:href="rpc_8h.html" target="_top" xlink:title="Handles RPC calls.">
<polygon fill="white" stroke="black" points="531,-67.5 531,-97.5 648,-97.5 648,-67.5 531,-67.5"/>
<text text-anchor="start" x="539" y="-85.5" font-family="Helvetica,sans-Serif" font-size="10.00">BaseStationCode/src</text>
<text text-anchor="middle" x="589.5" y="-74.5" font-family="Helvetica,sans-Serif" font-size="10.00">/src/rpc.h</text>
</a>
</g>
</g>
<!-- Node4&#45;&gt;Node10 -->
<g id="edge13" class="edge">
<title>Node4&#45;&gt;Node10</title>
<path fill="none" stroke="midnightblue" d="M409.49,-131.85C448.95,-121.25 499.49,-107.68 536.96,-97.61"/>
<polygon fill="midnightblue" stroke="midnightblue" points="408.46,-128.5 399.71,-134.48 410.28,-135.26 408.46,-128.5"/>
</g>
<!-- Node12 -->
<g id="node12" class="node">
<title>Node12</title>
<g id="a_node12"><a xlink:href="timeseries_8cpp.html" target="_top" xlink:title=" ">
<polygon fill="white" stroke="black" points="357,-67.5 357,-97.5 474,-97.5 474,-67.5 357,-67.5"/>
<text text-anchor="start" x="365" y="-85.5" font-family="Helvetica,sans-Serif" font-size="10.00">BaseStationCode/src</text>
<text text-anchor="middle" x="415.5" y="-74.5" font-family="Helvetica,sans-Serif" font-size="10.00">/src/timeseries.cpp</text>
</a>
</g>
</g>
<!-- Node4&#45;&gt;Node12 -->
<g id="edge18" class="edge">
<title>Node4&#45;&gt;Node12</title>
<path fill="none" stroke="midnightblue" d="M369.67,-127.31C379.87,-117.56 391.69,-106.26 400.77,-97.58"/>
<polygon fill="midnightblue" stroke="midnightblue" points="367.07,-124.96 362.25,-134.4 371.9,-130.02 367.07,-124.96"/>
</g>
<!-- Node5&#45;&gt;Node2 -->
<g id="edge6" class="edge">
<title>Node5&#45;&gt;Node2</title>
<path fill="none" stroke="midnightblue" d="M253.29,-61.17C239.98,-51.23 224.3,-39.51 212.34,-30.58"/>
<polygon fill="midnightblue" stroke="midnightblue" points="251.52,-64.21 261.62,-67.4 255.71,-58.61 251.52,-64.21"/>
</g>
<!-- Node6 -->
<g id="node6" class="node">
<title>Node6</title>
<g id="a_node6"><a xlink:href="leds_8cpp.html" target="_top" xlink:title="Controls the LEDs on the unit.">
<polygon fill="white" stroke="black" points="270,-0.5 270,-30.5 387,-30.5 387,-0.5 270,-0.5"/>
<text text-anchor="start" x="278" y="-18.5" font-family="Helvetica,sans-Serif" font-size="10.00">BaseStationCode/src</text>
<text text-anchor="middle" x="328.5" y="-7.5" font-family="Helvetica,sans-Serif" font-size="10.00">/src/leds.cpp</text>
</a>
</g>
</g>
<!-- Node5&#45;&gt;Node6 -->
<g id="edge7" class="edge">
<title>Node5&#45;&gt;Node6</title>
<path fill="none" stroke="midnightblue" d="M297,-59.16C304,-49.68 311.94,-38.92 318.11,-30.58"/>
<polygon fill="midnightblue" stroke="midnightblue" points="294.04,-57.27 290.92,-67.4 299.67,-61.43 294.04,-57.27"/>
</g>
<!-- Node8&#45;&gt;Node2 -->
<g id="edge11" class="edge">
<title>Node8&#45;&gt;Node2</title>
<path fill="none" stroke="midnightblue" d="M133.71,-61.17C147.02,-51.23 162.7,-39.51 174.66,-30.58"/>
<polygon fill="midnightblue" stroke="midnightblue" points="131.29,-58.61 125.38,-67.4 135.48,-64.21 131.29,-58.61"/>
</g>
<!-- Node9 -->
<g id="node9" class="node">
<title>Node9</title>
<g id="a_node9"><a xlink:href="ota_8cpp.html" target="_top" xlink:title="Handles over the air (OTA) updates.">
<polygon fill="white" stroke="black" points="0,-0.5 0,-30.5 117,-30.5 117,-0.5 0,-0.5"/>
<text text-anchor="start" x="8" y="-18.5" font-family="Helvetica,sans-Serif" font-size="10.00">BaseStationCode/src</text>
<text text-anchor="middle" x="58.5" y="-7.5" font-family="Helvetica,sans-Serif" font-size="10.00">/src/ota.cpp</text>
</a>
</g>
</g>
<!-- Node8&#45;&gt;Node9 -->
<g id="edge12" class="edge">
<title>Node8&#45;&gt;Node9</title>
<path fill="none" stroke="midnightblue" d="M90,-59.16C83,-49.68 75.06,-38.92 68.89,-30.58"/>
<polygon fill="midnightblue" stroke="midnightblue" points="87.33,-61.43 96.08,-67.4 92.96,-57.27 87.33,-61.43"/>
</g>
<!-- Node10&#45;&gt;Node1 -->
<g id="edge15" class="edge">
<title>Node10&#45;&gt;Node1</title>
<path fill="none" stroke="midnightblue" d="M531.47,-100.74C506.93,-109.15 478.54,-120.4 454.5,-134 435.23,-144.9 433.06,-151.51 415.5,-165 399.29,-177.45 380.64,-191.27 366.97,-201.3"/>
<polygon fill="midnightblue" stroke="midnightblue" points="532.64,-104.03 541.02,-97.54 530.42,-97.4 532.64,-104.03"/>
</g>
<!-- Node10&#45;&gt;Node2 -->
<g id="edge14" class="edge">
<title>Node10&#45;&gt;Node2</title>
<path fill="none" stroke="midnightblue" d="M521.03,-72.12C454.54,-62.75 350.84,-47.39 261.5,-31 258.41,-30.43 255.25,-29.83 252.06,-29.21"/>
<polygon fill="midnightblue" stroke="midnightblue" points="520.58,-75.6 530.97,-73.52 521.55,-68.66 520.58,-75.6"/>
</g>
<!-- Node10&#45;&gt;Node7 -->
<g id="edge16" class="edge">
<title>Node10&#45;&gt;Node7</title>
<path fill="none" stroke="midnightblue" d="M562.29,-61.17C548.98,-51.23 533.3,-39.51 521.34,-30.58"/>
<polygon fill="midnightblue" stroke="midnightblue" points="560.52,-64.21 570.62,-67.4 564.71,-58.61 560.52,-64.21"/>
</g>
<!-- Node11 -->
<g id="node11" class="node">
<title>Node11</title>
<g id="a_node11"><a xlink:href="rpc_8cpp.html" target="_top" xlink:title="Handles RPC calls.">
<polygon fill="white" stroke="black" points="579,-0.5 579,-30.5 696,-30.5 696,-0.5 579,-0.5"/>
<text text-anchor="start" x="587" y="-18.5" font-family="Helvetica,sans-Serif" font-size="10.00">BaseStationCode/src</text>
<text text-anchor="middle" x="637.5" y="-7.5" font-family="Helvetica,sans-Serif" font-size="10.00">/src/rpc.cpp</text>
</a>
</g>
</g>
<!-- Node10&#45;&gt;Node11 -->
<g id="edge17" class="edge">
<title>Node10&#45;&gt;Node11</title>
<path fill="none" stroke="midnightblue" d="M606,-59.16C613,-49.68 620.94,-38.92 627.11,-30.58"/>
<polygon fill="midnightblue" stroke="midnightblue" points="603.04,-57.27 599.92,-67.4 608.67,-61.43 603.04,-57.27"/>
</g>
</g>
</svg>
        <g id="navigator" transform="translate(0 0)" fill="#404254">
                <rect fill="#f2f5e9" fill-opacity="0.5" stroke="#606060" stroke-width=".5" x="0" y="0" width="60" height="60"/>
                <use id="zoomplus" xlink:href="#zoomPlus" x="17" y="9" onmousedown="handleZoom(evt,'in')"/>
                <use id="zoomminus" xlink:href="#zoomMin" x="42" y="9" onmousedown="handleZoom(evt,'out')"/>
                <use id="reset" xlink:href="#resetDef" x="30" y="36" onmousedown="handleReset()"/>
                <g id="arrowUp" xlink:href="#dirArrow" transform="translate(30 24)" onmousedown="handlePan(0,-1)">
                  <use xlink:href="#rim" fill="#404040">
                        <set attributeName="fill" to="#808080" begin="arrowUp.mouseover" end="arrowUp.mouseout"/>
                  </use>
                  <path fill="none" stroke="white" stroke-width="1.5" d="M0,-3.0v7 M-2.5,-0.5L0,-3.0L2.5,-0.5"/>
                </g>
                <g id="arrowRight" xlink:href="#dirArrow" transform="rotate(90) translate(36 -43)" onmousedown="handlePan(1,0)">
                  <use xlink:href="#rim" fill="#404040">
                        <set attributeName="fill" to="#808080" begin="arrowRight.mouseover" end="arrowRight.mouseout"/>
                  </use>
                  <path fill="none" stroke="white" stroke-width="1.5" d="M0,-3.0v7 M-2.5,-0.5L0,-3.0L2.5,-0.5"/>
                </g>
                <g id="arrowDown" xlink:href="#dirArrow" transform="rotate(180) translate(-30 -48)" onmousedown="handlePan(0,1)">
                  <use xlink:href="#rim" fill="#404040">
                        <set attributeName="fill" to="#808080" begin="arrowDown.mouseover" end="arrowDown.mouseout"/>
                  </use>
                  <path fill="none" stroke="white" stroke-width="1.5" d="M0,-3.0v7 M-2.5,-0.5L0,-3.0L2.5,-0.5"/>
                </g>
                <g id="arrowLeft" xlink:href="#dirArrow" transform="rotate(270) translate(-36 17)" onmousedown="handlePan(-1,0)">
                  <use xlink:href="#rim" fill="#404040">
                        <set attributeName="fill" to="#808080" begin="arrowLeft.mouseover" end="arrowLeft.mouseout"/>
                  </use>
                  <path fill="none" stroke="white" stroke-width="1.5" d="M0,-3.0v7 M-2.5,-0.5L0,-3.0L2.5,-0.5"/>
                </g>
        </g>
        <svg viewBox="0 0 15 15" width="100%" height="30px" preserveAspectRatio="xMaxYMin meet">
         <g id="arrow_out" transform="scale(0.3 0.3)">
          <a xlink:href="lora_8h__dep__incl_org.svg" target="_base">
           <rect id="button" ry="5" rx="5" y="6" x="6" height="38" width="38"
                fill="#f2f5e9" fill-opacity="0.5" stroke="#606060" stroke-width="1.0"/>
           <path id="arrow"
             d="M 11.500037,31.436501 C 11.940474,20.09759 22.043105,11.32322 32.158766,21.979434 L 37.068811,17.246167 C 37.068811,17.246167 37.088388,32 37.088388,32 L 22.160133,31.978069 C 22.160133,31.978069 26.997745,27.140456 26.997745,27.140456 C 18.528582,18.264221 13.291696,25.230495 11.500037,31.436501 z"
             style="fill:#404040;"/>
          </a>
         </g>
        </svg>
</svg>
