<?xml version="1.0" encoding="UTF-8" standalone="no"?>
<!DOCTYPE svg PUBLIC "-//W3C//DTD SVG 1.1//EN"
 "http://www.w3.org/Graphics/SVG/1.1/DTD/svg11.dtd">
<!-- Generated by graphviz version 2.43.0 (0)
 -->
<!-- Title: loraTxTask Pages: 1 -->
<svg width="568pt" height="177pt"
 viewBox="0.00 0.00 568.00 177.00" xmlns="http://www.w3.org/2000/svg" xmlns:xlink="http://www.w3.org/1999/xlink">
<g id="graph0" class="graph" transform="scale(1 1) rotate(0) translate(4 173)">
<title>loraTxTask</title>
<!-- Node1 -->
<g id="Node000001" class="node">
<title>Node1</title>
<g id="a_Node000001"><a xlink:title="Task for sending packets when needed.">
<polygon fill="#999999" stroke="#666666" points="69,-95 0,-95 0,-76 69,-76 69,-95"/>
<text text-anchor="middle" x="34.5" y="-83" font-family="Helvetica,sans-Serif" font-size="10.00">loraTxTask</text>
</a>
</g>
</g>
<!-- Node2 -->
<g id="Node000002" class="node">
<title>Node2</title>
<g id="a_Node000002"><a xlink:href="lora_8cpp.html#afbd9f56608d04cb8a75d69112cd89885" target="_top" xlink:title="Task for printing out a byte array.">
<polygon fill="white" stroke="#666666" points="221.5,-169 119.5,-169 119.5,-150 221.5,-150 221.5,-169"/>
<text text-anchor="middle" x="170.5" y="-157" font-family="Helvetica,sans-Serif" font-size="10.00">debugLoRaPacket</text>
</a>
</g>
</g>
<!-- Node1&#45;&gt;Node2 -->
<g id="edge1_Node000001_Node000002" class="edge">
<title>Node1&#45;&gt;Node2</title>
<g id="a_edge1_Node000001_Node000002"><a xlink:title=" ">
<path fill="none" stroke="#63b8ff" d="M44.94,-95.26C57.53,-107.73 81.03,-129.16 105,-141.5 108.56,-143.33 112.33,-145 116.19,-146.51"/>
<polygon fill="#63b8ff" stroke="#63b8ff" points="115.31,-149.91 125.9,-149.95 117.64,-143.31 115.31,-149.91"/>
</a>
</g>
</g>
<!-- Node3 -->
<g id="Node000003" class="node">
<title>Node3</title>
<g id="a_Node000003"><a xlink:href="class_device.html#a0fc7e0f4a048d2b7010c7bc6882bb987" target="_top" xlink:title="Generates a packet containing all the fields and instructions to set.">
<polygon fill="white" stroke="#666666" points="236,-132 105,-132 105,-113 236,-113 236,-132"/>
<text text-anchor="middle" x="170.5" y="-120" font-family="Helvetica,sans-Serif" font-size="10.00">Device::generatePacket</text>
</a>
</g>
</g>
<!-- Node1&#45;&gt;Node3 -->
<g id="edge2_Node000001_Node000003" class="edge">
<title>Node1&#45;&gt;Node3</title>
<g id="a_edge2_Node000001_Node000003"><a xlink:title=" ">
<path fill="none" stroke="#63b8ff" d="M69.31,-94.84C86.19,-99.5 106.83,-105.2 124.98,-110.21"/>
<polygon fill="#63b8ff" stroke="#63b8ff" points="124.19,-113.62 134.76,-112.91 126.06,-106.87 124.19,-113.62"/>
</a>
</g>
</g>
<!-- Node5 -->
<g id="Node000005" class="node">
<title>Node5</title>
<g id="a_Node000005"><a xlink:href="class_device.html#ac068e8e17f6536cc63e1631e0ba5837c" target="_top" xlink:title="Checks if a transmission is required.">
<polygon fill="white" stroke="#666666" points="224.5,-95 116.5,-95 116.5,-76 224.5,-76 224.5,-95"/>
<text text-anchor="middle" x="170.5" y="-83" font-family="Helvetica,sans-Serif" font-size="10.00">Device::rpcWaiting</text>
</a>
</g>
</g>
<!-- Node1&#45;&gt;Node5 -->
<g id="edge4_Node000001_Node000005" class="edge">
<title>Node1&#45;&gt;Node5</title>
<g id="a_edge4_Node000001_Node000005"><a xlink:title=" ">
<path fill="none" stroke="#63b8ff" d="M69.31,-85.5C80.57,-85.5 93.5,-85.5 106.25,-85.5"/>
<polygon fill="#63b8ff" stroke="#63b8ff" points="106.4,-89 116.4,-85.5 106.4,-82 106.4,-89"/>
</a>
</g>
</g>
<!-- Node6 -->
<g id="Node000006" class="node">
<title>Node6</title>
<g id="a_Node000006"><a xlink:href="lora_8cpp.html#ab4d91a7f25182323f789a4e986c08cd8" target="_top" xlink:title="Updates the attribute waiting to false if required.">
<polygon fill="white" stroke="#666666" points="233.5,-19 107.5,-19 107.5,0 233.5,0 233.5,-19"/>
<text text-anchor="middle" x="170.5" y="-7" font-family="Helvetica,sans-Serif" font-size="10.00">sendOnTxNotRequired</text>
</a>
</g>
</g>
<!-- Node1&#45;&gt;Node6 -->
<g id="edge5_Node000001_Node000006" class="edge">
<title>Node1&#45;&gt;Node6</title>
<g id="a_edge5_Node000001_Node000006"><a xlink:title=" ">
<path fill="none" stroke="#63b8ff" d="M46.15,-75.99C59.24,-64.67 82.51,-45.77 105,-33.5 112.54,-29.39 120.93,-25.69 129.1,-22.51"/>
<polygon fill="#63b8ff" stroke="#63b8ff" points="130.37,-25.77 138.52,-19 127.93,-19.21 130.37,-25.77"/>
</a>
</g>
</g>
<!-- Node7 -->
<g id="Node000007" class="node">
<title>Node7</title>
<g id="a_Node000007"><a xlink:href="lora_8cpp.html#ab9cd66992a99394d4aa4030fcdbf6182" target="_top" xlink:title="Sets the state for if there are packets left to send.">
<polygon fill="white" stroke="#666666" points="402.5,-57 293.5,-57 293.5,-38 402.5,-38 402.5,-57"/>
<text text-anchor="middle" x="348" y="-45" font-family="Helvetica,sans-Serif" font-size="10.00">sendTxWaitingMsg</text>
</a>
</g>
</g>
<!-- Node1&#45;&gt;Node7 -->
<g id="edge9_Node000001_Node000007" class="edge">
<title>Node1&#45;&gt;Node7</title>
<g id="a_edge9_Node000001_Node000007"><a xlink:title=" ">
<path fill="none" stroke="#63b8ff" d="M67.78,-75.91C79.42,-72.79 92.71,-69.58 105,-67.5 164.95,-57.34 234.17,-52.28 283.18,-49.8"/>
<polygon fill="#63b8ff" stroke="#63b8ff" points="283.5,-53.28 293.32,-49.3 283.17,-46.29 283.5,-53.28"/>
</a>
</g>
</g>
<!-- Node4 -->
<g id="Node000004" class="node">
<title>Node4</title>
<g id="a_Node000004"><a xlink:href="class_field.html#a8411bfb2768fb0ea256f83f40941ba75" target="_top" xlink:title="Encodes the value to set into a packet ready to send if needed.">
<polygon fill="white" stroke="#666666" points="388.5,-132 307.5,-132 307.5,-113 388.5,-113 388.5,-132"/>
<text text-anchor="middle" x="348" y="-120" font-family="Helvetica,sans-Serif" font-size="10.00">Field::encode</text>
</a>
</g>
</g>
<!-- Node3&#45;&gt;Node4 -->
<g id="edge3_Node000003_Node000004" class="edge">
<title>Node3&#45;&gt;Node4</title>
<g id="a_edge3_Node000003_Node000004"><a xlink:title=" ">
<path fill="none" stroke="#63b8ff" d="M236.35,-122.5C256.45,-122.5 278.28,-122.5 297.19,-122.5"/>
<polygon fill="#63b8ff" stroke="#63b8ff" points="297.37,-126 307.37,-122.5 297.37,-119 297.37,-126"/>
</a>
</g>
</g>
<!-- Node6&#45;&gt;Node7 -->
<g id="edge6_Node000006_Node000007" class="edge">
<title>Node6&#45;&gt;Node7</title>
<g id="a_edge6_Node000006_Node000007"><a xlink:title=" ">
<path fill="none" stroke="#63b8ff" d="M215.79,-19.09C239.26,-24.17 268.28,-30.46 293.06,-35.82"/>
<polygon fill="#63b8ff" stroke="#63b8ff" points="292.52,-39.28 303.03,-37.98 294,-32.44 292.52,-39.28"/>
</a>
</g>
</g>
<!-- Node9 -->
<g id="Node000009" class="node">
<title>Node9</title>
<g id="a_Node000009"><a xlink:href="class_device_manager.html#ac356dbc3ba069ca92c67825081d7a8a8" target="_top" xlink:title="Returns the number of packets that need to be sent across all devices.">
<polygon fill="white" stroke="#666666" points="424,-19 272,-19 272,0 424,0 424,-19"/>
<text text-anchor="middle" x="348" y="-7" font-family="Helvetica,sans-Serif" font-size="10.00">DeviceManager::txRequired</text>
</a>
</g>
</g>
<!-- Node6&#45;&gt;Node9 -->
<g id="edge8_Node000006_Node000009" class="edge">
<title>Node6&#45;&gt;Node9</title>
<g id="a_edge8_Node000006_Node000009"><a xlink:title=" ">
<path fill="none" stroke="#63b8ff" d="M233.87,-9.5C242.91,-9.5 252.35,-9.5 261.75,-9.5"/>
<polygon fill="#63b8ff" stroke="#63b8ff" points="261.91,-13 271.91,-9.5 261.91,-6 261.91,-13"/>
</a>
</g>
</g>
<!-- Node8 -->
<g id="Node000008" class="node">
<title>Node8</title>
<g id="a_Node000008"><a xlink:href="rpc_8cpp.html#adc3c5806492d2818ad6f5aff232765ec" target="_top" xlink:title=" ">
<polygon fill="white" stroke="#666666" points="560,-57 460,-57 460,-38 560,-38 560,-57"/>
<text text-anchor="middle" x="510" y="-45" font-family="Helvetica,sans-Serif" font-size="10.00">setAttributeState</text>
</a>
</g>
</g>
<!-- Node7&#45;&gt;Node8 -->
<g id="edge7_Node000007_Node000008" class="edge">
<title>Node7&#45;&gt;Node8</title>
<g id="a_edge7_Node000007_Node000008"><a xlink:title=" ">
<path fill="none" stroke="#63b8ff" d="M402.72,-47.5C417.77,-47.5 434.21,-47.5 449.57,-47.5"/>
<polygon fill="#63b8ff" stroke="#63b8ff" points="450,-51 460,-47.5 450,-44 450,-51"/>
</a>
</g>
</g>
</g>
</svg>
