<?xml version="1.0" encoding="UTF-8" standalone="no"?>
<!DOCTYPE svg PUBLIC "-//W3C//DTD SVG 1.1//EN"
 "http://www.w3.org/Graphics/SVG/1.1/DTD/svg11.dtd">
<!-- Generated by graphviz version 2.43.0 (0)
 -->
<!-- Title: pjonTask Pages: 1 -->
<svg width="607pt" height="123pt"
 viewBox="0.00 0.00 607.00 123.00" xmlns="http://www.w3.org/2000/svg" xmlns:xlink="http://www.w3.org/1999/xlink">
<g id="graph0" class="graph" transform="scale(1 1) rotate(0) translate(4 119)">
<title>pjonTask</title>
<polygon fill="white" stroke="transparent" points="-4,4 -4,-119 603,-119 603,4 -4,4"/>
<!-- Node1 -->
<g id="node1" class="node">
<title>Node1</title>
<g id="a_node1"><a xlink:title="Task that manages the pjon protocol and radio.">
<polygon fill="#bfbfbf" stroke="black" points="0,-57.5 0,-76.5 59,-76.5 59,-57.5 0,-57.5"/>
<text text-anchor="middle" x="29.5" y="-64.5" font-family="Helvetica,sans-Serif" font-size="10.00">pjonTask</text>
</a>
</g>
</g>
<!-- Node2 -->
<g id="node2" class="node">
<title>Node2</title>
<g id="a_node2"><a xlink:href="lora_8cpp.html#ac5e6522afd1447f1520e4f4503af9ec5" target="_top" xlink:title="Task that checks if the radio is connected.">
<polygon fill="white" stroke="black" points="95,-95.5 95,-114.5 200,-114.5 200,-95.5 95,-95.5"/>
<text text-anchor="middle" x="147.5" y="-102.5" font-family="Helvetica,sans-Serif" font-size="10.00">loraWatchdogTask</text>
</a>
</g>
</g>
<!-- Node1&#45;&gt;Node2 -->
<g id="edge1" class="edge">
<title>Node1&#45;&gt;Node2</title>
<path fill="none" stroke="midnightblue" d="M59.17,-76.39C73.84,-81.2 91.91,-87.12 107.79,-92.32"/>
<polygon fill="midnightblue" stroke="midnightblue" points="106.76,-95.66 117.35,-95.45 108.94,-89.01 106.76,-95.66"/>
</g>
<!-- Node5 -->
<g id="node5" class="node">
<title>Node5</title>
<g id="a_node5"><a xlink:href="lora_8cpp.html#aef164eaa7a67eb3153407eb4b601f4f0" target="_top" xlink:title="Logs PJON errors.">
<polygon fill="white" stroke="black" points="117,-57.5 117,-76.5 178,-76.5 178,-57.5 117,-57.5"/>
<text text-anchor="middle" x="147.5" y="-64.5" font-family="Helvetica,sans-Serif" font-size="10.00">pjonError</text>
</a>
</g>
</g>
<!-- Node1&#45;&gt;Node5 -->
<g id="edge4" class="edge">
<title>Node1&#45;&gt;Node5</title>
<path fill="none" stroke="midnightblue" d="M59.17,-67C73.46,-67 90.96,-67 106.53,-67"/>
<polygon fill="midnightblue" stroke="midnightblue" points="106.94,-70.5 116.94,-67 106.94,-63.5 106.94,-70.5"/>
</g>
<!-- Node6 -->
<g id="node6" class="node">
<title>Node6</title>
<g id="a_node6"><a xlink:href="lora_8cpp.html#a73337b280bec4397780b012ccc949113" target="_top" xlink:title="Handles an incoming packet received from the radio and adds the given snr and rssi to the packet.">
<polygon fill="white" stroke="black" points="109,-19.5 109,-38.5 186,-38.5 186,-19.5 109,-19.5"/>
<text text-anchor="middle" x="147.5" y="-26.5" font-family="Helvetica,sans-Serif" font-size="10.00">pjonReceive</text>
</a>
</g>
</g>
<!-- Node1&#45;&gt;Node6 -->
<g id="edge5" class="edge">
<title>Node1&#45;&gt;Node6</title>
<path fill="none" stroke="midnightblue" d="M59.17,-57.61C73.84,-52.8 91.91,-46.88 107.79,-41.68"/>
<polygon fill="midnightblue" stroke="midnightblue" points="108.94,-44.99 117.35,-38.55 106.76,-38.34 108.94,-44.99"/>
</g>
<!-- Node3 -->
<g id="node3" class="node">
<title>Node3</title>
<g id="a_node3"><a xlink:href="lora_8cpp.html#aeae7cd913b330750fef4bda6cadbf95b" target="_top" xlink:title="Sends an attribute over mqtt depending on the state of the radio connection.">
<polygon fill="white" stroke="black" points="242,-95.5 242,-114.5 382,-114.5 382,-95.5 242,-95.5"/>
<text text-anchor="middle" x="312" y="-102.5" font-family="Helvetica,sans-Serif" font-size="10.00">sendRadioConnectedMsg</text>
</a>
</g>
</g>
<!-- Node2&#45;&gt;Node3 -->
<g id="edge2" class="edge">
<title>Node2&#45;&gt;Node3</title>
<path fill="none" stroke="midnightblue" d="M200.36,-105C210.36,-105 221.04,-105 231.68,-105"/>
<polygon fill="midnightblue" stroke="midnightblue" points="231.84,-108.5 241.84,-105 231.84,-101.5 231.84,-108.5"/>
</g>
<!-- Node4 -->
<g id="node4" class="node">
<title>Node4</title>
<g id="a_node4"><a xlink:href="lora_8cpp.html#adc3c5806492d2818ad6f5aff232765ec" target="_top" xlink:title=" ">
<polygon fill="white" stroke="black" points="461.5,-95.5 461.5,-114.5 561.5,-114.5 561.5,-95.5 461.5,-95.5"/>
<text text-anchor="middle" x="511.5" y="-102.5" font-family="Helvetica,sans-Serif" font-size="10.00">setAttributeState</text>
</a>
</g>
</g>
<!-- Node3&#45;&gt;Node4 -->
<g id="edge3" class="edge">
<title>Node3&#45;&gt;Node4</title>
<path fill="none" stroke="midnightblue" d="M382.08,-105C404.64,-105 429.49,-105 451.26,-105"/>
<polygon fill="midnightblue" stroke="midnightblue" points="451.36,-108.5 461.36,-105 451.36,-101.5 451.36,-108.5"/>
</g>
<!-- Node7 -->
<g id="node7" class="node">
<title>Node7</title>
<g id="a_node7"><a xlink:href="class_device.html#a35eba370894e0e1ec39f2043e466b2f6" target="_top" xlink:title="Decodes the payload from a PJON packet and converts it to thingsboard MQTT JSON.">
<polygon fill="white" stroke="black" points="236,-38.5 236,-57.5 388,-57.5 388,-38.5 236,-38.5"/>
<text text-anchor="middle" x="312" y="-45.5" font-family="Helvetica,sans-Serif" font-size="10.00">Device::decodePacketFields</text>
</a>
</g>
</g>
<!-- Node6&#45;&gt;Node7 -->
<g id="edge6" class="edge">
<title>Node6&#45;&gt;Node7</title>
<path fill="none" stroke="midnightblue" d="M186.19,-33.41C198.11,-34.8 211.81,-36.4 225.66,-38.02"/>
<polygon fill="midnightblue" stroke="midnightblue" points="225.42,-41.52 235.76,-39.2 226.23,-34.56 225.42,-41.52"/>
</g>
<!-- Node9 -->
<g id="node9" class="node">
<title>Node9</title>
<g id="a_node9"><a xlink:href="class_lookup_manager.html#a8d3d926f82bfb89594abd2430b9d4326" target="_top" xlink:title="Gets the object with the given symbol.">
<polygon fill="white" stroke="black" points="424,-0.5 424,-19.5 599,-19.5 599,-0.5 424,-0.5"/>
<text text-anchor="middle" x="511.5" y="-7.5" font-family="Helvetica,sans-Serif" font-size="10.00">LookupManager::getWithSymbol</text>
</a>
</g>
</g>
<!-- Node6&#45;&gt;Node9 -->
<g id="edge9" class="edge">
<title>Node6&#45;&gt;Node9</title>
<path fill="none" stroke="midnightblue" d="M186.22,-27.02C239.49,-24.22 338.59,-19.02 413.28,-15.1"/>
<polygon fill="midnightblue" stroke="midnightblue" points="413.84,-18.58 423.64,-14.56 413.47,-11.59 413.84,-18.58"/>
</g>
<!-- Node8 -->
<g id="node8" class="node">
<title>Node8</title>
<g id="a_node8"><a xlink:href="class_field.html#aa036e196f5805e9406b8169200e3915a" target="_top" xlink:title="Decodes the value from bytes into an existing json document.">
<polygon fill="white" stroke="black" points="471,-38.5 471,-57.5 552,-57.5 552,-38.5 471,-38.5"/>
<text text-anchor="middle" x="511.5" y="-45.5" font-family="Helvetica,sans-Serif" font-size="10.00">Field::decode</text>
</a>
</g>
</g>
<!-- Node7&#45;&gt;Node8 -->
<g id="edge7" class="edge">
<title>Node7&#45;&gt;Node8</title>
<path fill="none" stroke="midnightblue" d="M388.23,-48C412.51,-48 438.8,-48 460.76,-48"/>
<polygon fill="midnightblue" stroke="midnightblue" points="460.85,-51.5 470.85,-48 460.85,-44.5 460.85,-51.5"/>
</g>
<!-- Node7&#45;&gt;Node9 -->
<g id="edge8" class="edge">
<title>Node7&#45;&gt;Node9</title>
<path fill="none" stroke="midnightblue" d="M362.58,-38.46C389.35,-33.31 422.58,-26.92 450.76,-21.49"/>
<polygon fill="midnightblue" stroke="midnightblue" points="451.74,-24.87 460.9,-19.54 450.42,-18 451.74,-24.87"/>
</g>
</g>
</svg>
