<?xml version="1.0" encoding="UTF-8" standalone="no"?>
<!DOCTYPE svg PUBLIC "-//W3C//DTD SVG 1.1//EN"
 "http://www.w3.org/Graphics/SVG/1.1/DTD/svg11.dtd">
<!-- Generated by graphviz version 2.43.0 (0)
 -->
<!-- Title: loraWatchdogTask Pages: 1 -->
<svg width="425pt" height="28pt"
 viewBox="0.00 0.00 425.00 28.00" xmlns="http://www.w3.org/2000/svg" xmlns:xlink="http://www.w3.org/1999/xlink">
<g id="graph0" class="graph" transform="scale(1 1) rotate(0) translate(4 24)">
<title>loraWatchdogTask</title>
<polygon fill="white" stroke="transparent" points="-4,4 -4,-24 421,-24 421,4 -4,4"/>
<!-- Node1 -->
<g id="node1" class="node">
<title>Node1</title>
<g id="a_node1"><a xlink:title="Task that checks if the radio is connected.">
<polygon fill="#bfbfbf" stroke="black" points="0,-0.5 0,-19.5 105,-19.5 105,-0.5 0,-0.5"/>
<text text-anchor="middle" x="52.5" y="-7.5" font-family="Helvetica,sans-Serif" font-size="10.00">loraWatchdogTask</text>
</a>
</g>
</g>
<!-- Node2 -->
<g id="node2" class="node">
<title>Node2</title>
<g id="a_node2"><a xlink:href="lora_8cpp.html#aeae7cd913b330750fef4bda6cadbf95b" target="_top" xlink:title="Sends an attribute over mqtt depending on the state of the radio connection.">
<polygon fill="white" stroke="black" points="141,-0.5 141,-19.5 281,-19.5 281,-0.5 141,-0.5"/>
<text text-anchor="middle" x="211" y="-7.5" font-family="Helvetica,sans-Serif" font-size="10.00">sendRadioConnectedMsg</text>
</a>
</g>
</g>
<!-- Node1&#45;&gt;Node2 -->
<g id="edge1" class="edge">
<title>Node1&#45;&gt;Node2</title>
<path fill="none" stroke="midnightblue" d="M105.18,-10C113.37,-10 122,-10 130.65,-10"/>
<polygon fill="midnightblue" stroke="midnightblue" points="130.79,-13.5 140.79,-10 130.79,-6.5 130.79,-13.5"/>
</g>
<!-- Node3 -->
<g id="node3" class="node">
<title>Node3</title>
<g id="a_node3"><a xlink:href="lora_8cpp.html#adc3c5806492d2818ad6f5aff232765ec" target="_top" xlink:title=" ">
<polygon fill="white" stroke="black" points="317,-0.5 317,-19.5 417,-19.5 417,-0.5 317,-0.5"/>
<text text-anchor="middle" x="367" y="-7.5" font-family="Helvetica,sans-Serif" font-size="10.00">setAttributeState</text>
</a>
</g>
</g>
<!-- Node2&#45;&gt;Node3 -->
<g id="edge2" class="edge">
<title>Node2&#45;&gt;Node3</title>
<path fill="none" stroke="midnightblue" d="M281.34,-10C289.86,-10 298.49,-10 306.84,-10"/>
<polygon fill="midnightblue" stroke="midnightblue" points="306.84,-13.5 316.84,-10 306.84,-6.5 306.84,-13.5"/>
</g>
</g>
</svg>
