<?xml version="1.0" encoding="UTF-8" standalone="no"?>
<!DOCTYPE svg PUBLIC "-//W3C//DTD SVG 1.1//EN"
 "http://www.w3.org/Graphics/SVG/1.1/DTD/svg11.dtd">
<!-- Generated by graphviz version 2.43.0 (0)
 -->
<!-- Title: ESP32BaseStation/src/lora.h Pages: 1 -->
<!--zoomable 431 -->
<svg id="main" version="1.1" xmlns="http://www.w3.org/2000/svg" xmlns:xlink="http://www.w3.org/1999/xlink" xml:space="preserve" onload="init(evt)">
<style type="text/css"><![CDATA[
.edge:hover path { stroke: red; }
.edge:hover polygon { stroke: red; fill: red; }
]]></style>
<script type="text/javascript"><![CDATA[
var edges = document.getElementsByTagName('g');
if (edges && edges.length) {
  for (var i=0;i<edges.length;i++) {
    if (edges[i].id.substr(0,4)=='edge') {
      edges[i].setAttribute('class','edge');
    }
  }
}
]]></script>
        <defs>
                <circle id="rim" cx="0" cy="0" r="7"/>
                <circle id="rim2" cx="0" cy="0" r="3.5"/>
                <g id="zoomPlus">
                        <use xlink:href="#rim" fill="#404040">
                                <set attributeName="fill" to="#808080" begin="zoomplus.mouseover" end="zoomplus.mouseout"/>
                        </use>
                        <path d="M-4,0h8M0,-4v8" fill="none" stroke="white" stroke-width="1.5" pointer-events="none"/>
                </g>
                <g id="zoomMin">
                        <use xlink:href="#rim" fill="#404040">
                                <set attributeName="fill" to="#808080" begin="zoomminus.mouseover" end="zoomminus.mouseout"/>
                        </use>
                        <path d="M-4,0h8" fill="none" stroke="white" stroke-width="1.5" pointer-events="none"/>
                </g>
                <g id="dirArrow">
                        <path fill="none" stroke="white" stroke-width="1.5" d="M0,-3.0v7 M-2.5,-0.5L0,-3.0L2.5,-0.5"/>
                </g>
               <g id="resetDef">
                       <use xlink:href="#rim2" fill="#404040">
                               <set attributeName="fill" to="#808080" begin="reset.mouseover" end="reset.mouseout"/>
                       </use>
               </g>
        </defs>

<script type="text/javascript">
var viewWidth = 759;
var viewHeight = 431;
var sectionId = 'dynsection-0';
</script>
<script xlink:href="svgpan.js"/>
<svg id="graph" class="graph">
<g id="viewport">
<title>ESP32BaseStation/src/lora.h</title>
<polygon fill="white" stroke="transparent" points="-4,4 -4,-427 755,-427 755,4 -4,4"/>
<!-- Node1 -->
<g id="node1" class="node">
<title>Node1</title>
<g id="a_node1"><a xlink:title="File that handles the LoRa radio and PJON.">
<polygon fill="#bfbfbf" stroke="black" points="326,-392.5 326,-422.5 448,-422.5 448,-392.5 326,-392.5"/>
<text text-anchor="start" x="334" y="-410.5" font-family="Helvetica,sans-Serif" font-size="10.00">ESP32BaseStation/src</text>
<text text-anchor="middle" x="387" y="-399.5" font-family="Helvetica,sans-Serif" font-size="10.00">/lora.h</text>
</a>
</g>
</g>
<!-- Node2 -->
<g id="node2" class="node">
<title>Node2</title>
<g id="a_node2"><a xlink:href="defines_8h.html" target="_top" xlink:title="Definitions and other preprocessor and global stuff.">
<polygon fill="white" stroke="black" points="415,-56.5 415,-75.5 485,-75.5 485,-56.5 415,-56.5"/>
<text text-anchor="middle" x="450" y="-63.5" font-family="Helvetica,sans-Serif" font-size="10.00">../defines.h</text>
</a>
</g>
</g>
<!-- Node1&#45;&gt;Node2 -->
<g id="edge1" class="edge">
<title>Node1&#45;&gt;Node2</title>
<path fill="none" stroke="midnightblue" d="M355.69,-392.49C320.73,-374.47 269,-339.59 269,-291 269,-291 269,-291 269,-177 269,-146.9 266.58,-133.14 288,-112 318.83,-81.59 368.33,-71.31 404.51,-68.05"/>
<polygon fill="midnightblue" stroke="midnightblue" points="405.09,-71.51 414.8,-67.27 404.57,-64.53 405.09,-71.51"/>
</g>
<!-- Node11 -->
<g id="node11" class="node">
<title>Node11</title>
<g id="a_node11"><a xlink:href="lookups_8h.html" target="_top" xlink:title="Lookupable and lookupable manager base classes.">
<polygon fill="white" stroke="black" points="297.5,-112.5 297.5,-131.5 360.5,-131.5 360.5,-112.5 297.5,-112.5"/>
<text text-anchor="middle" x="329" y="-119.5" font-family="Helvetica,sans-Serif" font-size="10.00">lookups.h</text>
</a>
</g>
</g>
<!-- Node1&#45;&gt;Node11 -->
<g id="edge10" class="edge">
<title>Node1&#45;&gt;Node11</title>
<path fill="none" stroke="midnightblue" d="M370.21,-392.33C348.38,-372.23 313,-333.15 313,-291 313,-291 313,-291 313,-233 313,-200.63 319.87,-163.44 324.61,-141.66"/>
<polygon fill="midnightblue" stroke="midnightblue" points="328.05,-142.3 326.84,-131.78 321.22,-140.76 328.05,-142.3"/>
</g>
<!-- Node12 -->
<g id="node12" class="node">
<title>Node12</title>
<g id="a_node12"><a xlink:href="devices_8h.html" target="_top" xlink:title="Devices and manager for all known devices the base station connects to.">
<polygon fill="white" stroke="black" points="373.5,-224.5 373.5,-243.5 436.5,-243.5 436.5,-224.5 373.5,-224.5"/>
<text text-anchor="middle" x="405" y="-231.5" font-family="Helvetica,sans-Serif" font-size="10.00">devices.h</text>
</a>
</g>
</g>
<!-- Node1&#45;&gt;Node12 -->
<g id="edge12" class="edge">
<title>Node1&#45;&gt;Node12</title>
<path fill="none" stroke="midnightblue" d="M381.51,-392.45C373.07,-368.69 359.13,-319.3 372,-280 375.49,-269.34 382.57,-259.12 389.29,-251.12"/>
<polygon fill="midnightblue" stroke="midnightblue" points="391.9,-253.44 395.98,-243.66 386.7,-248.76 391.9,-253.44"/>
</g>
<!-- Node15 -->
<g id="node15" class="node">
<title>Node15</title>
<g id="a_node15"><a xlink:href="networking_8h.html" target="_top" xlink:title="Header file for networking.cpp.">
<polygon fill="white" stroke="black" points="381,-280.5 381,-299.5 461,-299.5 461,-280.5 381,-280.5"/>
<text text-anchor="middle" x="421" y="-287.5" font-family="Helvetica,sans-Serif" font-size="10.00">networking.h</text>
</a>
</g>
</g>
<!-- Node1&#45;&gt;Node15 -->
<g id="edge20" class="edge">
<title>Node1&#45;&gt;Node15</title>
<path fill="none" stroke="midnightblue" d="M386.55,-392.34C390.04,-371.34 401.49,-331.96 410.66,-308.96"/>
<polygon fill="midnightblue" stroke="midnightblue" points="413.92,-310.24 414.68,-299.67 407.5,-307.46 413.92,-310.24"/>
</g>
<!-- Node16 -->
<g id="node16" class="node">
<title>Node16</title>
<g id="a_node16"><a xlink:href="rpc_8h.html" target="_top" xlink:title="Handles RPC calls.">
<polygon fill="white" stroke="black" points="506.5,-336.5 506.5,-355.5 547.5,-355.5 547.5,-336.5 506.5,-336.5"/>
<text text-anchor="middle" x="527" y="-343.5" font-family="Helvetica,sans-Serif" font-size="10.00">rpc.h</text>
</a>
</g>
</g>
<!-- Node1&#45;&gt;Node16 -->
<g id="edge24" class="edge">
<title>Node1&#45;&gt;Node16</title>
<path fill="none" stroke="midnightblue" d="M420.18,-392.4C443.56,-382.46 474.61,-369.26 497.21,-359.66"/>
<polygon fill="midnightblue" stroke="midnightblue" points="498.79,-362.79 506.63,-355.66 496.06,-356.35 498.79,-362.79"/>
</g>
<!-- Node3 -->
<g id="node3" class="node">
<title>Node3</title>
<g id="a_node3"><a xlink:title=" ">
<polygon fill="white" stroke="#bfbfbf" points="532.5,-0.5 532.5,-19.5 595.5,-19.5 595.5,-0.5 532.5,-0.5"/>
<text text-anchor="middle" x="564" y="-7.5" font-family="Helvetica,sans-Serif" font-size="10.00">Arduino.h</text>
</a>
</g>
</g>
<!-- Node2&#45;&gt;Node3 -->
<g id="edge2" class="edge">
<title>Node2&#45;&gt;Node3</title>
<path fill="none" stroke="midnightblue" d="M468.06,-56.44C486.57,-47.68 515.58,-33.94 536.86,-23.86"/>
<polygon fill="midnightblue" stroke="midnightblue" points="538.48,-26.96 546.02,-19.52 535.49,-20.63 538.48,-26.96"/>
</g>
<!-- Node4 -->
<g id="node4" class="node">
<title>Node4</title>
<g id="a_node4"><a xlink:title=" ">
<polygon fill="white" stroke="#bfbfbf" points="613.5,-0.5 613.5,-19.5 660.5,-19.5 660.5,-0.5 613.5,-0.5"/>
<text text-anchor="middle" x="637" y="-7.5" font-family="Helvetica,sans-Serif" font-size="10.00">WiFi.h</text>
</a>
</g>
</g>
<!-- Node2&#45;&gt;Node4 -->
<g id="edge3" class="edge">
<title>Node2&#45;&gt;Node4</title>
<path fill="none" stroke="midnightblue" d="M479.63,-56.44C513.37,-46.7 568.38,-30.82 603.61,-20.64"/>
<polygon fill="midnightblue" stroke="midnightblue" points="604.79,-23.94 613.43,-17.81 602.85,-17.22 604.79,-23.94"/>
</g>
<!-- Node5 -->
<g id="node5" class="node">
<title>Node5</title>
<g id="a_node5"><a xlink:title=" ">
<polygon fill="white" stroke="#bfbfbf" points="0,-0.5 0,-19.5 90,-19.5 90,-0.5 0,-0.5"/>
<text text-anchor="middle" x="45" y="-7.5" font-family="Helvetica,sans-Serif" font-size="10.00">PubSubClient.h</text>
</a>
</g>
</g>
<!-- Node2&#45;&gt;Node5 -->
<g id="edge4" class="edge">
<title>Node2&#45;&gt;Node5</title>
<path fill="none" stroke="midnightblue" d="M414.82,-60.93C353.26,-53.72 221.78,-37.89 100.28,-20.14"/>
<polygon fill="midnightblue" stroke="midnightblue" points="100.46,-16.63 90.06,-18.64 99.45,-23.56 100.46,-16.63"/>
</g>
<!-- Node6 -->
<g id="node6" class="node">
<title>Node6</title>
<g id="a_node6"><a xlink:title=" ">
<polygon fill="white" stroke="#bfbfbf" points="108.5,-0.5 108.5,-19.5 191.5,-19.5 191.5,-0.5 108.5,-0.5"/>
<text text-anchor="middle" x="150" y="-7.5" font-family="Helvetica,sans-Serif" font-size="10.00">ArduinoJson.h</text>
</a>
</g>
</g>
<!-- Node2&#45;&gt;Node6 -->
<g id="edge5" class="edge">
<title>Node2&#45;&gt;Node6</title>
<path fill="none" stroke="midnightblue" d="M415,-58.7C362.55,-49.26 263.2,-31.38 202.17,-20.39"/>
<polygon fill="midnightblue" stroke="midnightblue" points="202.45,-16.88 191.98,-18.56 201.21,-23.77 202.45,-16.88"/>
</g>
<!-- Node7 -->
<g id="node7" class="node">
<title>Node7</title>
<g id="a_node7"><a xlink:title=" ">
<polygon fill="white" stroke="#bfbfbf" points="210,-0.5 210,-19.5 320,-19.5 320,-0.5 210,-0.5"/>
<text text-anchor="middle" x="265" y="-7.5" font-family="Helvetica,sans-Serif" font-size="10.00">PJONThroughLora.h</text>
</a>
</g>
</g>
<!-- Node2&#45;&gt;Node7 -->
<g id="edge6" class="edge">
<title>Node2&#45;&gt;Node7</title>
<path fill="none" stroke="midnightblue" d="M420.69,-56.44C389.16,-47.24 338.87,-32.56 304.01,-22.39"/>
<polygon fill="midnightblue" stroke="midnightblue" points="304.76,-18.96 294.18,-19.52 302.8,-25.68 304.76,-18.96"/>
</g>
<!-- Node8 -->
<g id="node8" class="node">
<title>Node8</title>
<g id="a_node8"><a xlink:title=" ">
<polygon fill="white" stroke="#bfbfbf" points="338,-0.5 338,-19.5 416,-19.5 416,-0.5 338,-0.5"/>
<text text-anchor="middle" x="377" y="-7.5" font-family="Helvetica,sans-Serif" font-size="10.00">TunePlayer.h</text>
</a>
</g>
</g>
<!-- Node2&#45;&gt;Node8 -->
<g id="edge7" class="edge">
<title>Node2&#45;&gt;Node8</title>
<path fill="none" stroke="midnightblue" d="M438.27,-56.32C427.16,-48.11 410.26,-35.6 397.02,-25.81"/>
<polygon fill="midnightblue" stroke="midnightblue" points="399.06,-22.97 388.94,-19.83 394.9,-28.59 399.06,-22.97"/>
</g>
<!-- Node9 -->
<g id="node9" class="node">
<title>Node9</title>
<g id="a_node9"><a xlink:title=" ">
<polygon fill="white" stroke="#bfbfbf" points="434,-0.5 434,-19.5 514,-19.5 514,-0.5 434,-0.5"/>
<text text-anchor="middle" x="474" y="-7.5" font-family="Helvetica,sans-Serif" font-size="10.00">credentials.h</text>
</a>
</g>
</g>
<!-- Node2&#45;&gt;Node9 -->
<g id="edge8" class="edge">
<title>Node2&#45;&gt;Node9</title>
<path fill="none" stroke="midnightblue" d="M453.96,-56.08C457.21,-48.77 461.92,-38.18 465.95,-29.1"/>
<polygon fill="midnightblue" stroke="midnightblue" points="469.25,-30.31 470.11,-19.75 462.85,-27.47 469.25,-30.31"/>
</g>
<!-- Node10 -->
<g id="node10" class="node">
<title>Node10</title>
<g id="a_node10"><a xlink:href="topics_8h.html" target="_top" xlink:title="MQTT topics for a thingsboard gateway.">
<polygon fill="white" stroke="black" points="679,-0.5 679,-19.5 751,-19.5 751,-0.5 679,-0.5"/>
<text text-anchor="middle" x="715" y="-7.5" font-family="Helvetica,sans-Serif" font-size="10.00">src/topics.h</text>
</a>
</g>
</g>
<!-- Node2&#45;&gt;Node10 -->
<g id="edge9" class="edge">
<title>Node2&#45;&gt;Node10</title>
<path fill="none" stroke="midnightblue" d="M485.19,-57.83C532.44,-48.2 616.5,-31.07 668.8,-20.41"/>
<polygon fill="midnightblue" stroke="midnightblue" points="669.71,-23.8 678.81,-18.37 668.32,-16.94 669.71,-23.8"/>
</g>
<!-- Node11&#45;&gt;Node2 -->
<g id="edge11" class="edge">
<title>Node11&#45;&gt;Node2</title>
<path fill="none" stroke="midnightblue" d="M348.17,-112.44C367.91,-103.64 398.89,-89.81 421.49,-79.72"/>
<polygon fill="midnightblue" stroke="midnightblue" points="423.21,-82.79 430.92,-75.52 420.36,-76.4 423.21,-82.79"/>
</g>
<!-- Node12&#45;&gt;Node2 -->
<g id="edge13" class="edge">
<title>Node12&#45;&gt;Node2</title>
<path fill="none" stroke="midnightblue" d="M404.46,-224.46C403.88,-211.92 403.56,-187.84 408,-168 414.85,-137.38 430.35,-104.22 440.48,-84.55"/>
<polygon fill="midnightblue" stroke="midnightblue" points="443.65,-86.05 445.22,-75.58 437.46,-82.79 443.65,-86.05"/>
</g>
<!-- Node12&#45;&gt;Node11 -->
<g id="edge14" class="edge">
<title>Node12&#45;&gt;Node11</title>
<path fill="none" stroke="midnightblue" d="M399.04,-224.37C386.49,-206.22 357.19,-163.8 340.74,-139.99"/>
<polygon fill="midnightblue" stroke="midnightblue" points="343.5,-137.83 334.94,-131.59 337.74,-141.81 343.5,-137.83"/>
</g>
<!-- Node13 -->
<g id="node13" class="node">
<title>Node13</title>
<g id="a_node13"><a xlink:href="fields_8h.html" target="_top" xlink:title="Contains fields classes.">
<polygon fill="white" stroke="black" points="417,-168.5 417,-187.5 469,-187.5 469,-168.5 417,-168.5"/>
<text text-anchor="middle" x="443" y="-175.5" font-family="Helvetica,sans-Serif" font-size="10.00">fields.h</text>
</a>
</g>
</g>
<!-- Node12&#45;&gt;Node13 -->
<g id="edge15" class="edge">
<title>Node12&#45;&gt;Node13</title>
<path fill="none" stroke="midnightblue" d="M411.27,-224.08C416.64,-216.46 424.52,-205.26 431.08,-195.94"/>
<polygon fill="midnightblue" stroke="midnightblue" points="433.95,-197.94 436.84,-187.75 428.22,-193.91 433.95,-197.94"/>
</g>
<!-- Node13&#45;&gt;Node2 -->
<g id="edge16" class="edge">
<title>Node13&#45;&gt;Node2</title>
<path fill="none" stroke="midnightblue" d="M443.29,-168.16C443.72,-155.65 444.65,-132.06 446,-112 446.58,-103.38 447.4,-93.85 448.15,-85.79"/>
<polygon fill="midnightblue" stroke="midnightblue" points="451.65,-85.91 449.12,-75.62 444.69,-85.24 451.65,-85.91"/>
</g>
<!-- Node13&#45;&gt;Node11 -->
<g id="edge17" class="edge">
<title>Node13&#45;&gt;Node11</title>
<path fill="none" stroke="midnightblue" d="M424.94,-168.44C406.43,-159.68 377.42,-145.94 356.14,-135.86"/>
<polygon fill="midnightblue" stroke="midnightblue" points="357.51,-132.63 346.98,-131.52 354.52,-138.96 357.51,-132.63"/>
</g>
<!-- Node14 -->
<g id="node14" class="node">
<title>Node14</title>
<g id="a_node14"><a xlink:href="conversions_8h.html" target="_top" xlink:title="General functions for converting to and from char arrays.">
<polygon fill="white" stroke="black" points="455,-112.5 455,-131.5 539,-131.5 539,-112.5 455,-112.5"/>
<text text-anchor="middle" x="497" y="-119.5" font-family="Helvetica,sans-Serif" font-size="10.00">conversions.h</text>
</a>
</g>
</g>
<!-- Node13&#45;&gt;Node14 -->
<g id="edge18" class="edge">
<title>Node13&#45;&gt;Node14</title>
<path fill="none" stroke="midnightblue" d="M451.92,-168.08C459.78,-160.22 471.43,-148.57 480.92,-139.08"/>
<polygon fill="midnightblue" stroke="midnightblue" points="483.65,-141.3 488.25,-131.75 478.7,-136.35 483.65,-141.3"/>
</g>
<!-- Node14&#45;&gt;Node2 -->
<g id="edge19" class="edge">
<title>Node14&#45;&gt;Node2</title>
<path fill="none" stroke="midnightblue" d="M489.24,-112.08C482.46,-104.3 472.46,-92.8 464.24,-83.37"/>
<polygon fill="midnightblue" stroke="midnightblue" points="466.82,-81 457.62,-75.75 461.54,-85.59 466.82,-81"/>
</g>
<!-- Node15&#45;&gt;Node1 -->
<g id="edge23" class="edge">
<title>Node15&#45;&gt;Node1</title>
<path fill="none" stroke="midnightblue" d="M422.22,-299.67C420.31,-317.14 409.15,-357.11 399.51,-382.9"/>
<polygon fill="midnightblue" stroke="midnightblue" points="396.2,-381.75 395.78,-392.34 402.71,-384.32 396.2,-381.75"/>
</g>
<!-- Node15&#45;&gt;Node2 -->
<g id="edge21" class="edge">
<title>Node15&#45;&gt;Node2</title>
<path fill="none" stroke="midnightblue" d="M432.02,-280.23C458.31,-258.5 524.26,-199.09 548,-132 550.96,-123.62 552.8,-119.48 548,-112 536.24,-93.66 514.93,-82.7 495.18,-76.19"/>
<polygon fill="midnightblue" stroke="midnightblue" points="495.94,-72.77 485.35,-73.26 493.94,-79.48 495.94,-72.77"/>
</g>
<!-- Node15&#45;&gt;Node12 -->
<g id="edge22" class="edge">
<title>Node15&#45;&gt;Node12</title>
<path fill="none" stroke="midnightblue" d="M418.36,-280.08C416.21,-272.85 413.12,-262.41 410.45,-253.4"/>
<polygon fill="midnightblue" stroke="midnightblue" points="413.79,-252.34 407.59,-243.75 407.08,-254.33 413.79,-252.34"/>
</g>
<!-- Node16&#45;&gt;Node2 -->
<g id="edge25" class="edge">
<title>Node16&#45;&gt;Node2</title>
<path fill="none" stroke="midnightblue" d="M539.19,-336.24C561.12,-319.35 605,-279.95 605,-235 605,-235 605,-235 605,-177 605,-122.59 540.69,-92.63 494.92,-78.2"/>
<polygon fill="midnightblue" stroke="midnightblue" points="495.76,-74.8 485.17,-75.27 493.74,-81.51 495.76,-74.8"/>
</g>
<!-- Node16&#45;&gt;Node10 -->
<g id="edge26" class="edge">
<title>Node16&#45;&gt;Node10</title>
<path fill="none" stroke="midnightblue" d="M547.84,-342.68C596.79,-335.95 715,-311.77 715,-235 715,-235 715,-235 715,-121 715,-88.95 715,-51.64 715,-29.75"/>
<polygon fill="midnightblue" stroke="midnightblue" points="718.5,-29.56 715,-19.56 711.5,-29.56 718.5,-29.56"/>
</g>
<!-- Node16&#45;&gt;Node12 -->
<g id="edge29" class="edge">
<title>Node16&#45;&gt;Node12</title>
<path fill="none" stroke="midnightblue" d="M520.58,-336.4C510.6,-323.36 490.39,-298.18 470,-280 457.06,-268.46 441.06,-257.35 428.17,-249.06"/>
<polygon fill="midnightblue" stroke="midnightblue" points="429.76,-245.92 419.43,-243.55 426.03,-251.84 429.76,-245.92"/>
</g>
<!-- Node16&#45;&gt;Node13 -->
<g id="edge30" class="edge">
<title>Node16&#45;&gt;Node13</title>
<path fill="none" stroke="midnightblue" d="M522.48,-336.08C509.15,-309.72 469.76,-231.88 451.94,-196.66"/>
<polygon fill="midnightblue" stroke="midnightblue" points="454.97,-194.91 447.34,-187.57 448.73,-198.07 454.97,-194.91"/>
</g>
<!-- Node16&#45;&gt;Node15 -->
<g id="edge31" class="edge">
<title>Node16&#45;&gt;Node15</title>
<path fill="none" stroke="midnightblue" d="M509.97,-336.32C492.97,-327.66 466.62,-314.24 447.01,-304.25"/>
<polygon fill="midnightblue" stroke="midnightblue" points="448.49,-301.08 437.99,-299.65 445.31,-307.31 448.49,-301.08"/>
</g>
<!-- Node17 -->
<g id="node17" class="node">
<title>Node17</title>
<g id="a_node17"><a xlink:href="alarm_8h.html" target="_top" xlink:title="Handles alarms.">
<polygon fill="white" stroke="black" points="633,-224.5 633,-243.5 687,-243.5 687,-224.5 633,-224.5"/>
<text text-anchor="middle" x="660" y="-231.5" font-family="Helvetica,sans-Serif" font-size="10.00">alarm.h</text>
</a>
</g>
</g>
<!-- Node16&#45;&gt;Node17 -->
<g id="edge27" class="edge">
<title>Node16&#45;&gt;Node17</title>
<path fill="none" stroke="midnightblue" d="M547.55,-338.65C567.57,-331.67 597.96,-318.88 619,-300 633.7,-286.8 645.11,-267.13 652.12,-252.88"/>
<polygon fill="midnightblue" stroke="midnightblue" points="655.38,-254.18 656.43,-243.64 649.03,-251.23 655.38,-254.18"/>
</g>
<!-- Node17&#45;&gt;Node2 -->
<g id="edge28" class="edge">
<title>Node17&#45;&gt;Node2</title>
<path fill="none" stroke="midnightblue" d="M659.72,-224.21C658.52,-201.97 652.2,-143.07 619,-112 585.56,-80.71 532.87,-70.67 495.21,-67.7"/>
<polygon fill="midnightblue" stroke="midnightblue" points="495.22,-64.2 485.01,-67.04 494.77,-71.18 495.22,-64.2"/>
</g>
</g>
</svg>
        <g id="navigator" transform="translate(0 0)" fill="#404254">
                <rect fill="#f2f5e9" fill-opacity="0.5" stroke="#606060" stroke-width=".5" x="0" y="0" width="60" height="60"/>
                <use id="zoomplus" xlink:href="#zoomPlus" x="17" y="9" onmousedown="handleZoom(evt,'in')"/>
                <use id="zoomminus" xlink:href="#zoomMin" x="42" y="9" onmousedown="handleZoom(evt,'out')"/>
                <use id="reset" xlink:href="#resetDef" x="30" y="36" onmousedown="handleReset()"/>
                <g id="arrowUp" xlink:href="#dirArrow" transform="translate(30 24)" onmousedown="handlePan(0,-1)">
                  <use xlink:href="#rim" fill="#404040">
                        <set attributeName="fill" to="#808080" begin="arrowUp.mouseover" end="arrowUp.mouseout"/>
                  </use>
                  <path fill="none" stroke="white" stroke-width="1.5" d="M0,-3.0v7 M-2.5,-0.5L0,-3.0L2.5,-0.5"/>
                </g>
                <g id="arrowRight" xlink:href="#dirArrow" transform="rotate(90) translate(36 -43)" onmousedown="handlePan(1,0)">
                  <use xlink:href="#rim" fill="#404040">
                        <set attributeName="fill" to="#808080" begin="arrowRight.mouseover" end="arrowRight.mouseout"/>
                  </use>
                  <path fill="none" stroke="white" stroke-width="1.5" d="M0,-3.0v7 M-2.5,-0.5L0,-3.0L2.5,-0.5"/>
                </g>
                <g id="arrowDown" xlink:href="#dirArrow" transform="rotate(180) translate(-30 -48)" onmousedown="handlePan(0,1)">
                  <use xlink:href="#rim" fill="#404040">
                        <set attributeName="fill" to="#808080" begin="arrowDown.mouseover" end="arrowDown.mouseout"/>
                  </use>
                  <path fill="none" stroke="white" stroke-width="1.5" d="M0,-3.0v7 M-2.5,-0.5L0,-3.0L2.5,-0.5"/>
                </g>
                <g id="arrowLeft" xlink:href="#dirArrow" transform="rotate(270) translate(-36 17)" onmousedown="handlePan(-1,0)">
                  <use xlink:href="#rim" fill="#404040">
                        <set attributeName="fill" to="#808080" begin="arrowLeft.mouseover" end="arrowLeft.mouseout"/>
                  </use>
                  <path fill="none" stroke="white" stroke-width="1.5" d="M0,-3.0v7 M-2.5,-0.5L0,-3.0L2.5,-0.5"/>
                </g>
        </g>
        <svg viewBox="0 0 15 15" width="100%" height="30px" preserveAspectRatio="xMaxYMin meet">
         <g id="arrow_out" transform="scale(0.3 0.3)">
          <a xlink:href="lora_8h__incl_org.svg" target="_base">
           <rect id="button" ry="5" rx="5" y="6" x="6" height="38" width="38"
                fill="#f2f5e9" fill-opacity="0.5" stroke="#606060" stroke-width="1.0"/>
           <path id="arrow"
             d="M 11.500037,31.436501 C 11.940474,20.09759 22.043105,11.32322 32.158766,21.979434 L 37.068811,17.246167 C 37.068811,17.246167 37.088388,32 37.088388,32 L 22.160133,31.978069 C 22.160133,31.978069 26.997745,27.140456 26.997745,27.140456 C 18.528582,18.264221 13.291696,25.230495 11.500037,31.436501 z"
             style="fill:#404040;"/>
          </a>
         </g>
        </svg>
</svg>
