<?xml version="1.0" encoding="UTF-8" standalone="no"?>
<!DOCTYPE svg PUBLIC "-//W3C//DTD SVG 1.1//EN"
 "http://www.w3.org/Graphics/SVG/1.1/DTD/svg11.dtd">
<!-- Generated by graphviz version 2.43.0 (0)
 -->
<!-- Title: pjonReceive Pages: 1 -->
<svg width="652pt" height="82pt"
 viewBox="0.00 0.00 652.00 82.00" xmlns="http://www.w3.org/2000/svg" xmlns:xlink="http://www.w3.org/1999/xlink">
<g id="graph0" class="graph" transform="scale(1 1) rotate(0) translate(4 78)">
<title>pjonReceive</title>
<!-- Node1 -->
<g id="Node000001" class="node">
<title>Node1</title>
<g id="a_Node000001"><a xlink:title="Handles an incoming packet received from the radio and adds the given snr and rssi to the packet.">
<polygon fill="#999999" stroke="#666666" points="77,-37 0,-37 0,-18 77,-18 77,-37"/>
<text text-anchor="middle" x="38.5" y="-25" font-family="Helvetica,sans-Serif" font-size="10.00">pjonReceive</text>
</a>
</g>
</g>
<!-- Node2 -->
<g id="Node000002" class="node">
<title>Node2</title>
<g id="a_Node000002"><a xlink:href="class_device.html#a35eba370894e0e1ec39f2043e466b2f6" target="_top" xlink:title="Decodes the payload from a PJON packet and converts it to thingsboard MQTT JSON.">
<polygon fill="white" stroke="#666666" points="265,-56 113,-56 113,-37 265,-37 265,-56"/>
<text text-anchor="middle" x="189" y="-44" font-family="Helvetica,sans-Serif" font-size="10.00">Device::decodePacketFields</text>
</a>
</g>
</g>
<!-- Node1&#45;&gt;Node2 -->
<g id="edge1_Node000001_Node000002" class="edge">
<title>Node1&#45;&gt;Node2</title>
<g id="a_edge1_Node000001_Node000002"><a xlink:title=" ">
<path fill="none" stroke="#63b8ff" d="M77.36,-32.34C85.5,-33.39 94.41,-34.53 103.54,-35.69"/>
<polygon fill="#63b8ff" stroke="#63b8ff" points="103.13,-39.17 113.5,-36.97 104.02,-32.23 103.13,-39.17"/>
</a>
</g>
</g>
<!-- Node6 -->
<g id="Node000006" class="node">
<title>Node6</title>
<g id="a_Node000006"><a xlink:href="class_lookup_manager.html#a03510999964fcb3a6e93719ae5b9cab3" target="_top" xlink:title="Gets the object with the given symbol.">
<polygon fill="white" stroke="#666666" points="476,-19 301,-19 301,0 476,0 476,-19"/>
<text text-anchor="middle" x="388.5" y="-7" font-family="Helvetica,sans-Serif" font-size="10.00">LookupManager::getWithSymbol</text>
</a>
</g>
</g>
<!-- Node1&#45;&gt;Node6 -->
<g id="edge6_Node000001_Node000006" class="edge">
<title>Node1&#45;&gt;Node6</title>
<g id="a_edge6_Node000001_Node000006"><a xlink:title=" ">
<path fill="none" stroke="#63b8ff" d="M77.07,-25.56C127.75,-22.94 219.79,-18.17 290.54,-14.52"/>
<polygon fill="#63b8ff" stroke="#63b8ff" points="291.01,-18 300.81,-13.98 290.65,-11.01 291.01,-18"/>
</a>
</g>
</g>
<!-- Node3 -->
<g id="Node000003" class="node">
<title>Node3</title>
<g id="a_Node000003"><a xlink:href="class_field.html#aa036e196f5805e9406b8169200e3915a" target="_top" xlink:title="Decodes the value from bytes into an existing json document.">
<polygon fill="white" stroke="#666666" points="429,-56 348,-56 348,-37 429,-37 429,-56"/>
<text text-anchor="middle" x="388.5" y="-44" font-family="Helvetica,sans-Serif" font-size="10.00">Field::decode</text>
</a>
</g>
</g>
<!-- Node2&#45;&gt;Node3 -->
<g id="edge2_Node000002_Node000003" class="edge">
<title>Node2&#45;&gt;Node3</title>
<g id="a_edge2_Node000002_Node000003"><a xlink:title=" ">
<path fill="none" stroke="#63b8ff" d="M265.23,-46.5C289.51,-46.5 315.8,-46.5 337.76,-46.5"/>
<polygon fill="#63b8ff" stroke="#63b8ff" points="337.85,-50 347.85,-46.5 337.85,-43 337.85,-50"/>
</a>
</g>
</g>
<!-- Node2&#45;&gt;Node6 -->
<g id="edge5_Node000002_Node000006" class="edge">
<title>Node2&#45;&gt;Node6</title>
<g id="a_edge5_Node000002_Node000006"><a xlink:title=" ">
<path fill="none" stroke="#63b8ff" d="M240.86,-36.97C267.02,-32.07 299.1,-26.06 326.57,-20.91"/>
<polygon fill="#63b8ff" stroke="#63b8ff" points="327.28,-24.34 336.47,-19.06 325.99,-17.46 327.28,-24.34"/>
</a>
</g>
</g>
<!-- Node4 -->
<g id="Node000004" class="node">
<title>Node4</title>
<g id="a_Node000004"><a xlink:href="class_field.html#a536d757818e186d83b2ab71415bb0bba" target="_top" xlink:title="Decodes the value from bytes into an existing json document. decode does the checking for length,...">
<polygon fill="white" stroke="#666666" points="639,-74 517,-74 517,-55 639,-55 639,-74"/>
<text text-anchor="middle" x="578" y="-62" font-family="Helvetica,sans-Serif" font-size="10.00">Field::actuallyDecode</text>
</a>
</g>
</g>
<!-- Node3&#45;&gt;Node4 -->
<g id="edge3_Node000003_Node000004" class="edge">
<title>Node3&#45;&gt;Node4</title>
<g id="a_edge3_Node000003_Node000004"><a xlink:title=" ">
<path fill="none" stroke="#63b8ff" d="M429.26,-50.32C451.76,-52.48 480.54,-55.24 506.71,-57.75"/>
<polygon fill="#63b8ff" stroke="#63b8ff" points="506.68,-61.27 516.97,-58.74 507.35,-54.3 506.68,-61.27"/>
</a>
</g>
</g>
<!-- Node5 -->
<g id="Node000005" class="node">
<title>Node5</title>
<g id="a_Node000005"><a xlink:href="class_field.html#a0f6c46168ecc1113ff61d9fb68d8c763" target="_top" xlink:title="Checks if the value can be decoded from the packet.">
<polygon fill="white" stroke="#666666" points="644,-37 512,-37 512,-18 644,-18 644,-37"/>
<text text-anchor="middle" x="578" y="-25" font-family="Helvetica,sans-Serif" font-size="10.00">Field::checkDecodeable</text>
</a>
</g>
</g>
<!-- Node3&#45;&gt;Node5 -->
<g id="edge4_Node000003_Node000005" class="edge">
<title>Node3&#45;&gt;Node5</title>
<g id="a_edge4_Node000003_Node000005"><a xlink:title=" ">
<path fill="none" stroke="#63b8ff" d="M429.26,-42.47C450.33,-40.34 476.92,-37.64 501.71,-35.13"/>
<polygon fill="#63b8ff" stroke="#63b8ff" points="502.24,-38.59 511.84,-34.1 501.54,-31.63 502.24,-38.59"/>
</a>
</g>
</g>
</g>
</svg>
