<?xml version="1.0" encoding="UTF-8" standalone="no"?>
<!DOCTYPE svg PUBLIC "-//W3C//DTD SVG 1.1//EN"
 "http://www.w3.org/Graphics/SVG/1.1/DTD/svg11.dtd">
<!-- Generated by graphviz version 2.43.0 (0)
 -->
<!-- Title: BaseStationCode/src/src/lora.h Pages: 1 -->
<!--zoomable 431 -->
<svg id="main" version="1.1" xmlns="http://www.w3.org/2000/svg" xmlns:xlink="http://www.w3.org/1999/xlink" xml:space="preserve" onload="init(evt)">
<style type="text/css"><![CDATA[
.edge:hover path { stroke: red; }
.edge:hover polygon { stroke: red; fill: red; }
]]></style>
<script type="text/javascript"><![CDATA[
var edges = document.getElementsByTagName('g');
if (edges && edges.length) {
  for (var i=0;i<edges.length;i++) {
    if (edges[i].id.substr(0,4)=='edge') {
      edges[i].setAttribute('class','edge');
    }
  }
}
]]></script>
        <defs>
                <circle id="rim" cx="0" cy="0" r="7"/>
                <circle id="rim2" cx="0" cy="0" r="3.5"/>
                <g id="zoomPlus">
                        <use xlink:href="#rim" fill="#404040">
                                <set attributeName="fill" to="#808080" begin="zoomplus.mouseover" end="zoomplus.mouseout"/>
                        </use>
                        <path d="M-4,0h8M0,-4v8" fill="none" stroke="white" stroke-width="1.5" pointer-events="none"/>
                </g>
                <g id="zoomMin">
                        <use xlink:href="#rim" fill="#404040">
                                <set attributeName="fill" to="#808080" begin="zoomminus.mouseover" end="zoomminus.mouseout"/>
                        </use>
                        <path d="M-4,0h8" fill="none" stroke="white" stroke-width="1.5" pointer-events="none"/>
                </g>
                <g id="dirArrow">
                        <path fill="none" stroke="white" stroke-width="1.5" d="M0,-3.0v7 M-2.5,-0.5L0,-3.0L2.5,-0.5"/>
                </g>
               <g id="resetDef">
                       <use xlink:href="#rim2" fill="#404040">
                               <set attributeName="fill" to="#808080" begin="reset.mouseover" end="reset.mouseout"/>
                       </use>
               </g>
        </defs>

<script type="text/javascript">
var viewWidth = 598;
var viewHeight = 431;
var sectionId = 'dynsection-0';
</script>
<script xlink:href="svgpan.js"/>
<svg id="graph" class="graph">
<g id="viewport">
<title>BaseStationCode/src/src/lora.h</title>
<polygon fill="white" stroke="transparent" points="-4,4 -4,-427 594,-427 594,4 -4,4"/>
<!-- Node1 -->
<g id="node1" class="node">
<title>Node1</title>
<g id="a_node1"><a xlink:title="File that handles the LoRa radio and PJON.">
<polygon fill="#bfbfbf" stroke="black" points="167.5,-392.5 167.5,-422.5 284.5,-422.5 284.5,-392.5 167.5,-392.5"/>
<text text-anchor="start" x="175.5" y="-410.5" font-family="Helvetica,sans-Serif" font-size="10.00">BaseStationCode/src</text>
<text text-anchor="middle" x="226" y="-399.5" font-family="Helvetica,sans-Serif" font-size="10.00">/src/lora.h</text>
</a>
</g>
</g>
<!-- Node2 -->
<g id="node2" class="node">
<title>Node2</title>
<g id="a_node2"><a xlink:href="defines_8h.html" target="_top" xlink:title="Definitions and other preprocessor and global stuff.">
<polygon fill="white" stroke="black" points="266,-56.5 266,-75.5 336,-75.5 336,-56.5 266,-56.5"/>
<text text-anchor="middle" x="301" y="-63.5" font-family="Helvetica,sans-Serif" font-size="10.00">../defines.h</text>
</a>
</g>
</g>
<!-- Node1&#45;&gt;Node2 -->
<g id="edge1" class="edge">
<title>Node1&#45;&gt;Node2</title>
<path fill="none" stroke="midnightblue" d="M194.69,-392.49C159.73,-374.47 108,-339.59 108,-291 108,-291 108,-291 108,-177 108,-146.9 105.39,-132.95 127,-112 161.25,-78.81 216.62,-69.21 255.69,-66.86"/>
<polygon fill="midnightblue" stroke="midnightblue" points="255.92,-70.36 265.75,-66.4 255.6,-63.36 255.92,-70.36"/>
</g>
<!-- Node9 -->
<g id="node9" class="node">
<title>Node9</title>
<g id="a_node9"><a xlink:href="lookups_8h.html" target="_top" xlink:title="Lookupable and lookupable manager base classes.">
<polygon fill="white" stroke="black" points="136.5,-112.5 136.5,-131.5 199.5,-131.5 199.5,-112.5 136.5,-112.5"/>
<text text-anchor="middle" x="168" y="-119.5" font-family="Helvetica,sans-Serif" font-size="10.00">lookups.h</text>
</a>
</g>
</g>
<!-- Node1&#45;&gt;Node9 -->
<g id="edge8" class="edge">
<title>Node1&#45;&gt;Node9</title>
<path fill="none" stroke="midnightblue" d="M209.21,-392.33C187.38,-372.23 152,-333.15 152,-291 152,-291 152,-291 152,-233 152,-200.63 158.87,-163.44 163.61,-141.66"/>
<polygon fill="midnightblue" stroke="midnightblue" points="167.05,-142.3 165.84,-131.78 160.22,-140.76 167.05,-142.3"/>
</g>
<!-- Node10 -->
<g id="node10" class="node">
<title>Node10</title>
<g id="a_node10"><a xlink:href="devices_8h.html" target="_top" xlink:title="Devices and manager for all known devices the base station connects to.">
<polygon fill="white" stroke="black" points="212.5,-224.5 212.5,-243.5 275.5,-243.5 275.5,-224.5 212.5,-224.5"/>
<text text-anchor="middle" x="244" y="-231.5" font-family="Helvetica,sans-Serif" font-size="10.00">devices.h</text>
</a>
</g>
</g>
<!-- Node1&#45;&gt;Node10 -->
<g id="edge10" class="edge">
<title>Node1&#45;&gt;Node10</title>
<path fill="none" stroke="midnightblue" d="M220.51,-392.45C212.07,-368.69 198.13,-319.3 211,-280 214.49,-269.34 221.57,-259.12 228.29,-251.12"/>
<polygon fill="midnightblue" stroke="midnightblue" points="230.9,-253.44 234.98,-243.66 225.7,-248.76 230.9,-253.44"/>
</g>
<!-- Node13 -->
<g id="node13" class="node">
<title>Node13</title>
<g id="a_node13"><a xlink:href="networking_8h.html" target="_top" xlink:title="Header file for networking.cpp.">
<polygon fill="white" stroke="black" points="220,-280.5 220,-299.5 300,-299.5 300,-280.5 220,-280.5"/>
<text text-anchor="middle" x="260" y="-287.5" font-family="Helvetica,sans-Serif" font-size="10.00">networking.h</text>
</a>
</g>
</g>
<!-- Node1&#45;&gt;Node13 -->
<g id="edge18" class="edge">
<title>Node1&#45;&gt;Node13</title>
<path fill="none" stroke="midnightblue" d="M225.55,-392.34C229.04,-371.34 240.49,-331.96 249.66,-308.96"/>
<polygon fill="midnightblue" stroke="midnightblue" points="252.92,-310.24 253.68,-299.67 246.5,-307.46 252.92,-310.24"/>
</g>
<!-- Node14 -->
<g id="node14" class="node">
<title>Node14</title>
<g id="a_node14"><a xlink:href="rpc_8h.html" target="_top" xlink:title="Handles RPC calls.">
<polygon fill="white" stroke="black" points="345.5,-336.5 345.5,-355.5 386.5,-355.5 386.5,-336.5 345.5,-336.5"/>
<text text-anchor="middle" x="366" y="-343.5" font-family="Helvetica,sans-Serif" font-size="10.00">rpc.h</text>
</a>
</g>
</g>
<!-- Node1&#45;&gt;Node14 -->
<g id="edge22" class="edge">
<title>Node1&#45;&gt;Node14</title>
<path fill="none" stroke="midnightblue" d="M259.18,-392.4C282.56,-382.46 313.61,-369.26 336.21,-359.66"/>
<polygon fill="midnightblue" stroke="midnightblue" points="337.79,-362.79 345.63,-355.66 335.06,-356.35 337.79,-362.79"/>
</g>
<!-- Node3 -->
<g id="node3" class="node">
<title>Node3</title>
<g id="a_node3"><a xlink:title=" ">
<polygon fill="white" stroke="#bfbfbf" points="338,-0.5 338,-19.5 418,-19.5 418,-0.5 338,-0.5"/>
<text text-anchor="middle" x="378" y="-7.5" font-family="Helvetica,sans-Serif" font-size="10.00">credentials.h</text>
</a>
</g>
</g>
<!-- Node2&#45;&gt;Node3 -->
<g id="edge2" class="edge">
<title>Node2&#45;&gt;Node3</title>
<path fill="none" stroke="midnightblue" d="M313.37,-56.32C325.16,-48.06 343.13,-35.45 357.14,-25.63"/>
<polygon fill="midnightblue" stroke="midnightblue" points="359.48,-28.26 365.66,-19.65 355.46,-22.53 359.48,-28.26"/>
</g>
<!-- Node4 -->
<g id="node4" class="node">
<title>Node4</title>
<g id="a_node4"><a xlink:title=" ">
<polygon fill="white" stroke="#bfbfbf" points="436.5,-0.5 436.5,-19.5 499.5,-19.5 499.5,-0.5 436.5,-0.5"/>
<text text-anchor="middle" x="468" y="-7.5" font-family="Helvetica,sans-Serif" font-size="10.00">Arduino.h</text>
</a>
</g>
</g>
<!-- Node2&#45;&gt;Node4 -->
<g id="edge3" class="edge">
<title>Node2&#45;&gt;Node4</title>
<path fill="none" stroke="midnightblue" d="M327.46,-56.44C355.68,-47.32 400.54,-32.81 431.97,-22.65"/>
<polygon fill="midnightblue" stroke="midnightblue" points="433.22,-25.92 441.66,-19.52 431.07,-19.26 433.22,-25.92"/>
</g>
<!-- Node5 -->
<g id="node5" class="node">
<title>Node5</title>
<g id="a_node5"><a xlink:title=" ">
<polygon fill="white" stroke="#bfbfbf" points="0,-0.5 0,-19.5 90,-19.5 90,-0.5 0,-0.5"/>
<text text-anchor="middle" x="45" y="-7.5" font-family="Helvetica,sans-Serif" font-size="10.00">PubSubClient.h</text>
</a>
</g>
</g>
<!-- Node2&#45;&gt;Node5 -->
<g id="edge4" class="edge">
<title>Node2&#45;&gt;Node5</title>
<path fill="none" stroke="midnightblue" d="M265.94,-57.6C221.87,-48.31 145.91,-32.29 95.56,-21.67"/>
<polygon fill="midnightblue" stroke="midnightblue" points="96.04,-18.19 85.54,-19.55 94.6,-25.04 96.04,-18.19"/>
</g>
<!-- Node6 -->
<g id="node6" class="node">
<title>Node6</title>
<g id="a_node6"><a xlink:title=" ">
<polygon fill="white" stroke="#bfbfbf" points="108.5,-0.5 108.5,-19.5 191.5,-19.5 191.5,-0.5 108.5,-0.5"/>
<text text-anchor="middle" x="150" y="-7.5" font-family="Helvetica,sans-Serif" font-size="10.00">ArduinoJson.h</text>
</a>
</g>
</g>
<!-- Node2&#45;&gt;Node6 -->
<g id="edge5" class="edge">
<title>Node2&#45;&gt;Node6</title>
<path fill="none" stroke="midnightblue" d="M277.07,-56.44C251.78,-47.4 211.7,-33.06 183.32,-22.92"/>
<polygon fill="midnightblue" stroke="midnightblue" points="184.41,-19.59 173.81,-19.52 182.05,-26.18 184.41,-19.59"/>
</g>
<!-- Node7 -->
<g id="node7" class="node">
<title>Node7</title>
<g id="a_node7"><a xlink:title=" ">
<polygon fill="white" stroke="#bfbfbf" points="210,-0.5 210,-19.5 320,-19.5 320,-0.5 210,-0.5"/>
<text text-anchor="middle" x="265" y="-7.5" font-family="Helvetica,sans-Serif" font-size="10.00">PJONThroughLora.h</text>
</a>
</g>
</g>
<!-- Node2&#45;&gt;Node7 -->
<g id="edge6" class="edge">
<title>Node2&#45;&gt;Node7</title>
<path fill="none" stroke="midnightblue" d="M295.06,-56.08C290.02,-48.53 282.66,-37.49 276.49,-28.23"/>
<polygon fill="midnightblue" stroke="midnightblue" points="279.29,-26.13 270.83,-19.75 273.47,-30.01 279.29,-26.13"/>
</g>
<!-- Node8 -->
<g id="node8" class="node">
<title>Node8</title>
<g id="a_node8"><a xlink:href="topics_8h.html" target="_top" xlink:title="MQTT topics for a thingsboard gateway.">
<polygon fill="white" stroke="black" points="518,-0.5 518,-19.5 590,-19.5 590,-0.5 518,-0.5"/>
<text text-anchor="middle" x="554" y="-7.5" font-family="Helvetica,sans-Serif" font-size="10.00">src/topics.h</text>
</a>
</g>
</g>
<!-- Node2&#45;&gt;Node8 -->
<g id="edge7" class="edge">
<title>Node2&#45;&gt;Node8</title>
<path fill="none" stroke="midnightblue" d="M336.18,-57.49C381.02,-47.92 458.64,-31.35 508.09,-20.8"/>
<polygon fill="midnightblue" stroke="midnightblue" points="508.84,-24.22 517.89,-18.71 507.38,-17.37 508.84,-24.22"/>
</g>
<!-- Node9&#45;&gt;Node2 -->
<g id="edge9" class="edge">
<title>Node9&#45;&gt;Node2</title>
<path fill="none" stroke="midnightblue" d="M189.07,-112.44C211.06,-103.52 245.73,-89.44 270.66,-79.32"/>
<polygon fill="midnightblue" stroke="midnightblue" points="272.08,-82.52 280.02,-75.52 269.44,-76.04 272.08,-82.52"/>
</g>
<!-- Node10&#45;&gt;Node2 -->
<g id="edge11" class="edge">
<title>Node10&#45;&gt;Node2</title>
<path fill="none" stroke="midnightblue" d="M243.21,-224.4C242.31,-211.78 241.6,-187.61 247,-168 255.75,-136.2 275.83,-103.21 288.88,-83.92"/>
<polygon fill="midnightblue" stroke="midnightblue" points="291.82,-85.83 294.65,-75.62 286.07,-81.84 291.82,-85.83"/>
</g>
<!-- Node10&#45;&gt;Node9 -->
<g id="edge12" class="edge">
<title>Node10&#45;&gt;Node9</title>
<path fill="none" stroke="midnightblue" d="M238.04,-224.37C225.49,-206.22 196.19,-163.8 179.74,-139.99"/>
<polygon fill="midnightblue" stroke="midnightblue" points="182.5,-137.83 173.94,-131.59 176.74,-141.81 182.5,-137.83"/>
</g>
<!-- Node11 -->
<g id="node11" class="node">
<title>Node11</title>
<g id="a_node11"><a xlink:href="fields_8h.html" target="_top" xlink:title="Contains fields classes.">
<polygon fill="white" stroke="black" points="256,-168.5 256,-187.5 308,-187.5 308,-168.5 256,-168.5"/>
<text text-anchor="middle" x="282" y="-175.5" font-family="Helvetica,sans-Serif" font-size="10.00">fields.h</text>
</a>
</g>
</g>
<!-- Node10&#45;&gt;Node11 -->
<g id="edge13" class="edge">
<title>Node10&#45;&gt;Node11</title>
<path fill="none" stroke="midnightblue" d="M250.27,-224.08C255.64,-216.46 263.52,-205.26 270.08,-195.94"/>
<polygon fill="midnightblue" stroke="midnightblue" points="272.95,-197.94 275.84,-187.75 267.22,-193.91 272.95,-197.94"/>
</g>
<!-- Node11&#45;&gt;Node2 -->
<g id="edge14" class="edge">
<title>Node11&#45;&gt;Node2</title>
<path fill="none" stroke="midnightblue" d="M281.6,-168.49C281.19,-155.98 281.08,-131.95 285,-112 286.78,-102.95 290.03,-93.27 293.14,-85.21"/>
<polygon fill="midnightblue" stroke="midnightblue" points="296.47,-86.33 297.02,-75.75 289.99,-83.68 296.47,-86.33"/>
</g>
<!-- Node11&#45;&gt;Node9 -->
<g id="edge15" class="edge">
<title>Node11&#45;&gt;Node9</title>
<path fill="none" stroke="midnightblue" d="M263.94,-168.44C245.43,-159.68 216.42,-145.94 195.14,-135.86"/>
<polygon fill="midnightblue" stroke="midnightblue" points="196.51,-132.63 185.98,-131.52 193.52,-138.96 196.51,-132.63"/>
</g>
<!-- Node12 -->
<g id="node12" class="node">
<title>Node12</title>
<g id="a_node12"><a xlink:href="conversions_8h.html" target="_top" xlink:title="General functions for converting to and from char arrays.">
<polygon fill="white" stroke="black" points="294,-112.5 294,-131.5 378,-131.5 378,-112.5 294,-112.5"/>
<text text-anchor="middle" x="336" y="-119.5" font-family="Helvetica,sans-Serif" font-size="10.00">conversions.h</text>
</a>
</g>
</g>
<!-- Node11&#45;&gt;Node12 -->
<g id="edge16" class="edge">
<title>Node11&#45;&gt;Node12</title>
<path fill="none" stroke="midnightblue" d="M290.92,-168.08C298.78,-160.22 310.43,-148.57 319.92,-139.08"/>
<polygon fill="midnightblue" stroke="midnightblue" points="322.65,-141.3 327.25,-131.75 317.7,-136.35 322.65,-141.3"/>
</g>
<!-- Node12&#45;&gt;Node2 -->
<g id="edge17" class="edge">
<title>Node12&#45;&gt;Node2</title>
<path fill="none" stroke="midnightblue" d="M330.22,-112.08C325.33,-104.53 318.17,-93.49 312.17,-84.23"/>
<polygon fill="midnightblue" stroke="midnightblue" points="315.05,-82.24 306.67,-75.75 309.17,-86.05 315.05,-82.24"/>
</g>
<!-- Node13&#45;&gt;Node1 -->
<g id="edge21" class="edge">
<title>Node13&#45;&gt;Node1</title>
<path fill="none" stroke="midnightblue" d="M261.22,-299.67C259.31,-317.14 248.15,-357.11 238.51,-382.9"/>
<polygon fill="midnightblue" stroke="midnightblue" points="235.2,-381.75 234.78,-392.34 241.71,-384.32 235.2,-381.75"/>
</g>
<!-- Node13&#45;&gt;Node2 -->
<g id="edge19" class="edge">
<title>Node13&#45;&gt;Node2</title>
<path fill="none" stroke="midnightblue" d="M271.02,-280.23C297.31,-258.5 363.26,-199.09 387,-132 389.96,-123.62 391.6,-119.6 387,-112 377.59,-96.46 360.85,-86.02 344.62,-79.15"/>
<polygon fill="midnightblue" stroke="midnightblue" points="345.77,-75.85 335.18,-75.51 343.25,-82.37 345.77,-75.85"/>
</g>
<!-- Node13&#45;&gt;Node10 -->
<g id="edge20" class="edge">
<title>Node13&#45;&gt;Node10</title>
<path fill="none" stroke="midnightblue" d="M257.36,-280.08C255.21,-272.85 252.12,-262.41 249.45,-253.4"/>
<polygon fill="midnightblue" stroke="midnightblue" points="252.79,-252.34 246.59,-243.75 246.08,-254.33 252.79,-252.34"/>
</g>
<!-- Node14&#45;&gt;Node2 -->
<g id="edge23" class="edge">
<title>Node14&#45;&gt;Node2</title>
<path fill="none" stroke="midnightblue" d="M378.19,-336.24C400.12,-319.35 444,-279.95 444,-235 444,-235 444,-235 444,-177 444,-124.84 383.49,-93.99 341.19,-78.8"/>
<polygon fill="midnightblue" stroke="midnightblue" points="342.27,-75.47 331.68,-75.54 340,-82.09 342.27,-75.47"/>
</g>
<!-- Node14&#45;&gt;Node8 -->
<g id="edge24" class="edge">
<title>Node14&#45;&gt;Node8</title>
<path fill="none" stroke="midnightblue" d="M386.84,-342.68C435.79,-335.95 554,-311.77 554,-235 554,-235 554,-235 554,-121 554,-88.95 554,-51.64 554,-29.75"/>
<polygon fill="midnightblue" stroke="midnightblue" points="557.5,-29.56 554,-19.56 550.5,-29.56 557.5,-29.56"/>
</g>
<!-- Node14&#45;&gt;Node10 -->
<g id="edge27" class="edge">
<title>Node14&#45;&gt;Node10</title>
<path fill="none" stroke="midnightblue" d="M359.58,-336.4C349.6,-323.36 329.39,-298.18 309,-280 296.06,-268.46 280.06,-257.35 267.17,-249.06"/>
<polygon fill="midnightblue" stroke="midnightblue" points="268.76,-245.92 258.43,-243.55 265.03,-251.84 268.76,-245.92"/>
</g>
<!-- Node14&#45;&gt;Node11 -->
<g id="edge28" class="edge">
<title>Node14&#45;&gt;Node11</title>
<path fill="none" stroke="midnightblue" d="M361.48,-336.08C348.15,-309.72 308.76,-231.88 290.94,-196.66"/>
<polygon fill="midnightblue" stroke="midnightblue" points="293.97,-194.91 286.34,-187.57 287.73,-198.07 293.97,-194.91"/>
</g>
<!-- Node14&#45;&gt;Node13 -->
<g id="edge29" class="edge">
<title>Node14&#45;&gt;Node13</title>
<path fill="none" stroke="midnightblue" d="M348.97,-336.32C331.97,-327.66 305.62,-314.24 286.01,-304.25"/>
<polygon fill="midnightblue" stroke="midnightblue" points="287.49,-301.08 276.99,-299.65 284.31,-307.31 287.49,-301.08"/>
</g>
<!-- Node15 -->
<g id="node15" class="node">
<title>Node15</title>
<g id="a_node15"><a xlink:href="alarm_8h.html" target="_top" xlink:title="Handles alarms.">
<polygon fill="white" stroke="black" points="472,-224.5 472,-243.5 526,-243.5 526,-224.5 472,-224.5"/>
<text text-anchor="middle" x="499" y="-231.5" font-family="Helvetica,sans-Serif" font-size="10.00">alarm.h</text>
</a>
</g>
</g>
<!-- Node14&#45;&gt;Node15 -->
<g id="edge25" class="edge">
<title>Node14&#45;&gt;Node15</title>
<path fill="none" stroke="midnightblue" d="M386.55,-338.65C406.57,-331.67 436.96,-318.88 458,-300 472.7,-286.8 484.11,-267.13 491.12,-252.88"/>
<polygon fill="midnightblue" stroke="midnightblue" points="494.38,-254.18 495.43,-243.64 488.03,-251.23 494.38,-254.18"/>
</g>
<!-- Node15&#45;&gt;Node2 -->
<g id="edge26" class="edge">
<title>Node15&#45;&gt;Node2</title>
<path fill="none" stroke="midnightblue" d="M498.68,-224.24C497.4,-202.09 490.91,-143.38 458,-112 428.06,-83.45 381.25,-72.83 346.52,-68.97"/>
<polygon fill="midnightblue" stroke="midnightblue" points="346.45,-65.45 336.17,-67.98 345.79,-72.41 346.45,-65.45"/>
</g>
</g>
</svg>
        <g id="navigator" transform="translate(0 0)" fill="#404254">
                <rect fill="#f2f5e9" fill-opacity="0.5" stroke="#606060" stroke-width=".5" x="0" y="0" width="60" height="60"/>
                <use id="zoomplus" xlink:href="#zoomPlus" x="17" y="9" onmousedown="handleZoom(evt,'in')"/>
                <use id="zoomminus" xlink:href="#zoomMin" x="42" y="9" onmousedown="handleZoom(evt,'out')"/>
                <use id="reset" xlink:href="#resetDef" x="30" y="36" onmousedown="handleReset()"/>
                <g id="arrowUp" xlink:href="#dirArrow" transform="translate(30 24)" onmousedown="handlePan(0,-1)">
                  <use xlink:href="#rim" fill="#404040">
                        <set attributeName="fill" to="#808080" begin="arrowUp.mouseover" end="arrowUp.mouseout"/>
                  </use>
                  <path fill="none" stroke="white" stroke-width="1.5" d="M0,-3.0v7 M-2.5,-0.5L0,-3.0L2.5,-0.5"/>
                </g>
                <g id="arrowRight" xlink:href="#dirArrow" transform="rotate(90) translate(36 -43)" onmousedown="handlePan(1,0)">
                  <use xlink:href="#rim" fill="#404040">
                        <set attributeName="fill" to="#808080" begin="arrowRight.mouseover" end="arrowRight.mouseout"/>
                  </use>
                  <path fill="none" stroke="white" stroke-width="1.5" d="M0,-3.0v7 M-2.5,-0.5L0,-3.0L2.5,-0.5"/>
                </g>
                <g id="arrowDown" xlink:href="#dirArrow" transform="rotate(180) translate(-30 -48)" onmousedown="handlePan(0,1)">
                  <use xlink:href="#rim" fill="#404040">
                        <set attributeName="fill" to="#808080" begin="arrowDown.mouseover" end="arrowDown.mouseout"/>
                  </use>
                  <path fill="none" stroke="white" stroke-width="1.5" d="M0,-3.0v7 M-2.5,-0.5L0,-3.0L2.5,-0.5"/>
                </g>
                <g id="arrowLeft" xlink:href="#dirArrow" transform="rotate(270) translate(-36 17)" onmousedown="handlePan(-1,0)">
                  <use xlink:href="#rim" fill="#404040">
                        <set attributeName="fill" to="#808080" begin="arrowLeft.mouseover" end="arrowLeft.mouseout"/>
                  </use>
                  <path fill="none" stroke="white" stroke-width="1.5" d="M0,-3.0v7 M-2.5,-0.5L0,-3.0L2.5,-0.5"/>
                </g>
        </g>
        <svg viewBox="0 0 15 15" width="100%" height="30px" preserveAspectRatio="xMaxYMin meet">
         <g id="arrow_out" transform="scale(0.3 0.3)">
          <a xlink:href="lora_8h__incl_org.svg" target="_base">
           <rect id="button" ry="5" rx="5" y="6" x="6" height="38" width="38"
                fill="#f2f5e9" fill-opacity="0.5" stroke="#606060" stroke-width="1.0"/>
           <path id="arrow"
             d="M 11.500037,31.436501 C 11.940474,20.09759 22.043105,11.32322 32.158766,21.979434 L 37.068811,17.246167 C 37.068811,17.246167 37.088388,32 37.088388,32 L 22.160133,31.978069 C 22.160133,31.978069 26.997745,27.140456 26.997745,27.140456 C 18.528582,18.264221 13.291696,25.230495 11.500037,31.436501 z"
             style="fill:#404040;"/>
          </a>
         </g>
        </svg>
</svg>
