<?xml version="1.0" encoding="UTF-8" standalone="no"?>
<!DOCTYPE svg PUBLIC "-//W3C//DTD SVG 1.1//EN"
 "http://www.w3.org/Graphics/SVG/1.1/DTD/svg11.dtd">
<!-- Generated by graphviz version 2.43.0 (0)
 -->
<!-- Title: sendOnTxNotRequired Pages: 1 -->
<svg width="319pt" height="27pt"
 viewBox="0.00 0.00 319.00 27.00" xmlns="http://www.w3.org/2000/svg" xmlns:xlink="http://www.w3.org/1999/xlink">
<g id="graph0" class="graph" transform="scale(1 1) rotate(0) translate(4 23)">
<title>sendOnTxNotRequired</title>
<!-- Node1 -->
<g id="Node000001" class="node">
<title>Node1</title>
<g id="a_Node000001"><a xlink:title="Updates the attribute waiting to false if required.">
<polygon fill="#999999" stroke="#666666" points="311,-19 185,-19 185,0 311,0 311,-19"/>
<text text-anchor="middle" x="248" y="-7" font-family="Helvetica,sans-Serif" font-size="10.00">sendOnTxNotRequired</text>
</a>
</g>
</g>
<!-- Node2 -->
<g id="Node000002" class="node">
<title>Node2</title>
<g id="a_Node000002"><a xlink:href="lora_8cpp.html#aa56d712b5af48cc40bd9ef0dac6cb797" target="_top" xlink:title="Task for sending packets when needed.">
<polygon fill="white" stroke="#666666" points="149,-19 80,-19 80,0 149,0 149,-19"/>
<text text-anchor="middle" x="114.5" y="-7" font-family="Helvetica,sans-Serif" font-size="10.00">loraTxTask</text>
</a>
</g>
</g>
<!-- Node1&#45;&gt;Node2 -->
<g id="edge1_Node000001_Node000002" class="edge">
<title>Node1&#45;&gt;Node2</title>
<g id="a_edge1_Node000001_Node000002"><a xlink:title=" ">
<path fill="none" stroke="#63b8ff" d="M174.69,-9.5C165.85,-9.5 157.16,-9.5 149.28,-9.5"/>
<polygon fill="#63b8ff" stroke="#63b8ff" points="174.72,-13 184.72,-9.5 174.72,-6 174.72,-13"/>
</a>
</g>
</g>
<!-- Node3 -->
<g id="Node000003" class="node">
<title>Node3</title>
<g id="a_Node000003"><a xlink:href="main_8cpp.html#a4fc01d736fe50cf5b977f755b675f11d" target="_top" xlink:title=" ">
<polygon fill="white" stroke="#666666" points="44,-19 0,-19 0,0 44,0 44,-19"/>
<text text-anchor="middle" x="22" y="-7" font-family="Helvetica,sans-Serif" font-size="10.00">setup</text>
</a>
</g>
</g>
<!-- Node2&#45;&gt;Node3 -->
<g id="edge2_Node000002_Node000003" class="edge">
<title>Node2&#45;&gt;Node3</title>
<g id="a_edge2_Node000002_Node000003"><a xlink:title=" ">
<path fill="none" stroke="#63b8ff" d="M69.52,-9.5C60.66,-9.5 51.74,-9.5 44.11,-9.5"/>
<polygon fill="#63b8ff" stroke="#63b8ff" points="69.8,-13 79.8,-9.5 69.8,-6 69.8,-13"/>
</a>
</g>
</g>
</g>
</svg>
