<?xml version="1.0" encoding="UTF-8" standalone="no"?>
<!DOCTYPE svg PUBLIC "-//W3C//DTD SVG 1.1//EN"
 "http://www.w3.org/Graphics/SVG/1.1/DTD/svg11.dtd">
<!-- Generated by graphviz version 2.43.0 (0)
 -->
<!-- Title: BaseStationCode/src/src/lora.h Pages: 1 -->
<svg width="760pt" height="431pt"
 viewBox="0.00 0.00 759.50 431.00" xmlns="http://www.w3.org/2000/svg" xmlns:xlink="http://www.w3.org/1999/xlink">
<g id="graph0" class="graph" transform="scale(1 1) rotate(0) translate(4 427)">
<title>BaseStationCode/src/src/lora.h</title>
<polygon fill="white" stroke="transparent" points="-4,4 -4,-427 755.5,-427 755.5,4 -4,4"/>
<!-- Node1 -->
<g id="node1" class="node">
<title>Node1</title>
<g id="a_node1"><a xlink:title="File that handles the LoRa radio and PJON.">
<polygon fill="#bfbfbf" stroke="black" points="329,-392.5 329,-422.5 446,-422.5 446,-392.5 329,-392.5"/>
<text text-anchor="start" x="337" y="-410.5" font-family="Helvetica,sans-Serif" font-size="10.00">BaseStationCode/src</text>
<text text-anchor="middle" x="387.5" y="-399.5" font-family="Helvetica,sans-Serif" font-size="10.00">/src/lora.h</text>
</a>
</g>
</g>
<!-- Node2 -->
<g id="node2" class="node">
<title>Node2</title>
<g id="a_node2"><a xlink:href="defines_8h.html" target="_top" xlink:title="Definitions and other preprocessor and global stuff.">
<polygon fill="white" stroke="black" points="399.5,-56.5 399.5,-75.5 469.5,-75.5 469.5,-56.5 399.5,-56.5"/>
<text text-anchor="middle" x="434.5" y="-63.5" font-family="Helvetica,sans-Serif" font-size="10.00">../defines.h</text>
</a>
</g>
</g>
<!-- Node1&#45;&gt;Node2 -->
<g id="edge1" class="edge">
<title>Node1&#45;&gt;Node2</title>
<path fill="none" stroke="midnightblue" d="M356.19,-392.49C321.23,-374.47 269.5,-339.59 269.5,-291 269.5,-291 269.5,-291 269.5,-177 269.5,-146.9 267.37,-133.44 288.5,-112 314.96,-85.15 357.04,-74.24 389.24,-69.85"/>
<polygon fill="midnightblue" stroke="midnightblue" points="389.8,-73.31 399.31,-68.64 388.97,-66.36 389.8,-73.31"/>
</g>
<!-- Node11 -->
<g id="node11" class="node">
<title>Node11</title>
<g id="a_node11"><a xlink:href="lookups_8h.html" target="_top" xlink:title="Lookupable and lookupable manager base classes.">
<polygon fill="white" stroke="black" points="298,-112.5 298,-131.5 361,-131.5 361,-112.5 298,-112.5"/>
<text text-anchor="middle" x="329.5" y="-119.5" font-family="Helvetica,sans-Serif" font-size="10.00">lookups.h</text>
</a>
</g>
</g>
<!-- Node1&#45;&gt;Node11 -->
<g id="edge10" class="edge">
<title>Node1&#45;&gt;Node11</title>
<path fill="none" stroke="midnightblue" d="M370.71,-392.33C348.88,-372.23 313.5,-333.15 313.5,-291 313.5,-291 313.5,-291 313.5,-233 313.5,-200.63 320.37,-163.44 325.11,-141.66"/>
<polygon fill="midnightblue" stroke="midnightblue" points="328.55,-142.3 327.34,-131.78 321.72,-140.76 328.55,-142.3"/>
</g>
<!-- Node12 -->
<g id="node12" class="node">
<title>Node12</title>
<g id="a_node12"><a xlink:href="devices_8h.html" target="_top" xlink:title="Devices and manager for all known devices the base station connects to.">
<polygon fill="white" stroke="black" points="374,-224.5 374,-243.5 437,-243.5 437,-224.5 374,-224.5"/>
<text text-anchor="middle" x="405.5" y="-231.5" font-family="Helvetica,sans-Serif" font-size="10.00">devices.h</text>
</a>
</g>
</g>
<!-- Node1&#45;&gt;Node12 -->
<g id="edge12" class="edge">
<title>Node1&#45;&gt;Node12</title>
<path fill="none" stroke="midnightblue" d="M382.01,-392.45C373.57,-368.69 359.63,-319.3 372.5,-280 375.99,-269.34 383.07,-259.12 389.79,-251.12"/>
<polygon fill="midnightblue" stroke="midnightblue" points="392.4,-253.44 396.48,-243.66 387.2,-248.76 392.4,-253.44"/>
</g>
<!-- Node15 -->
<g id="node15" class="node">
<title>Node15</title>
<g id="a_node15"><a xlink:href="networking_8h.html" target="_top" xlink:title="Header file for networking.cpp.">
<polygon fill="white" stroke="black" points="381.5,-280.5 381.5,-299.5 461.5,-299.5 461.5,-280.5 381.5,-280.5"/>
<text text-anchor="middle" x="421.5" y="-287.5" font-family="Helvetica,sans-Serif" font-size="10.00">networking.h</text>
</a>
</g>
</g>
<!-- Node1&#45;&gt;Node15 -->
<g id="edge20" class="edge">
<title>Node1&#45;&gt;Node15</title>
<path fill="none" stroke="midnightblue" d="M387.05,-392.34C390.54,-371.34 401.99,-331.96 411.16,-308.96"/>
<polygon fill="midnightblue" stroke="midnightblue" points="414.42,-310.24 415.18,-299.67 408,-307.46 414.42,-310.24"/>
</g>
<!-- Node16 -->
<g id="node16" class="node">
<title>Node16</title>
<g id="a_node16"><a xlink:href="rpc_8h.html" target="_top" xlink:title="Handles RPC calls.">
<polygon fill="white" stroke="black" points="507,-336.5 507,-355.5 548,-355.5 548,-336.5 507,-336.5"/>
<text text-anchor="middle" x="527.5" y="-343.5" font-family="Helvetica,sans-Serif" font-size="10.00">rpc.h</text>
</a>
</g>
</g>
<!-- Node1&#45;&gt;Node16 -->
<g id="edge24" class="edge">
<title>Node1&#45;&gt;Node16</title>
<path fill="none" stroke="midnightblue" d="M420.68,-392.4C444.06,-382.46 475.11,-369.26 497.71,-359.66"/>
<polygon fill="midnightblue" stroke="midnightblue" points="499.29,-362.79 507.13,-355.66 496.56,-356.35 499.29,-362.79"/>
</g>
<!-- Node3 -->
<g id="node3" class="node">
<title>Node3</title>
<g id="a_node3"><a xlink:title=" ">
<polygon fill="white" stroke="#bfbfbf" points="499.5,-0.5 499.5,-19.5 579.5,-19.5 579.5,-0.5 499.5,-0.5"/>
<text text-anchor="middle" x="539.5" y="-7.5" font-family="Helvetica,sans-Serif" font-size="10.00">credentials.h</text>
</a>
</g>
</g>
<!-- Node2&#45;&gt;Node3 -->
<g id="edge2" class="edge">
<title>Node2&#45;&gt;Node3</title>
<path fill="none" stroke="midnightblue" d="M451.37,-56.32C468.21,-47.66 494.31,-34.24 513.74,-24.25"/>
<polygon fill="midnightblue" stroke="midnightblue" points="515.38,-27.34 522.67,-19.65 512.18,-21.12 515.38,-27.34"/>
</g>
<!-- Node4 -->
<g id="node4" class="node">
<title>Node4</title>
<g id="a_node4"><a xlink:title=" ">
<polygon fill="white" stroke="#bfbfbf" points="598,-0.5 598,-19.5 661,-19.5 661,-0.5 598,-0.5"/>
<text text-anchor="middle" x="629.5" y="-7.5" font-family="Helvetica,sans-Serif" font-size="10.00">Arduino.h</text>
</a>
</g>
</g>
<!-- Node2&#45;&gt;Node4 -->
<g id="edge3" class="edge">
<title>Node2&#45;&gt;Node4</title>
<path fill="none" stroke="midnightblue" d="M465.4,-56.44C498.77,-47.2 552.09,-32.44 588.85,-22.26"/>
<polygon fill="midnightblue" stroke="midnightblue" points="590.04,-25.56 598.75,-19.52 588.17,-18.81 590.04,-25.56"/>
</g>
<!-- Node5 -->
<g id="node5" class="node">
<title>Node5</title>
<g id="a_node5"><a xlink:title=" ">
<polygon fill="white" stroke="#bfbfbf" points="0,-0.5 0,-19.5 47,-19.5 47,-0.5 0,-0.5"/>
<text text-anchor="middle" x="23.5" y="-7.5" font-family="Helvetica,sans-Serif" font-size="10.00">WiFi.h</text>
</a>
</g>
</g>
<!-- Node2&#45;&gt;Node5 -->
<g id="edge4" class="edge">
<title>Node2&#45;&gt;Node5</title>
<path fill="none" stroke="midnightblue" d="M399.32,-62.56C333.82,-57.63 188.69,-44.96 57.05,-19.82"/>
<polygon fill="midnightblue" stroke="midnightblue" points="57.68,-16.38 47.19,-17.91 56.35,-23.25 57.68,-16.38"/>
</g>
<!-- Node6 -->
<g id="node6" class="node">
<title>Node6</title>
<g id="a_node6"><a xlink:title=" ">
<polygon fill="white" stroke="#bfbfbf" points="65.5,-0.5 65.5,-19.5 155.5,-19.5 155.5,-0.5 65.5,-0.5"/>
<text text-anchor="middle" x="110.5" y="-7.5" font-family="Helvetica,sans-Serif" font-size="10.00">PubSubClient.h</text>
</a>
</g>
</g>
<!-- Node2&#45;&gt;Node6 -->
<g id="edge5" class="edge">
<title>Node2&#45;&gt;Node6</title>
<path fill="none" stroke="midnightblue" d="M399.21,-59.12C342.89,-49.73 232.26,-31.29 165.5,-20.17"/>
<polygon fill="midnightblue" stroke="midnightblue" points="166.01,-16.7 155.57,-18.51 164.86,-23.61 166.01,-16.7"/>
</g>
<!-- Node7 -->
<g id="node7" class="node">
<title>Node7</title>
<g id="a_node7"><a xlink:title=" ">
<polygon fill="white" stroke="#bfbfbf" points="174,-0.5 174,-19.5 257,-19.5 257,-0.5 174,-0.5"/>
<text text-anchor="middle" x="215.5" y="-7.5" font-family="Helvetica,sans-Serif" font-size="10.00">ArduinoJson.h</text>
</a>
</g>
</g>
<!-- Node2&#45;&gt;Node7 -->
<g id="edge6" class="edge">
<title>Node2&#45;&gt;Node7</title>
<path fill="none" stroke="midnightblue" d="M399.8,-56.44C361.92,-47.1 301.15,-32.12 259.84,-21.93"/>
<polygon fill="midnightblue" stroke="midnightblue" points="260.59,-18.51 250.04,-19.52 258.91,-25.31 260.59,-18.51"/>
</g>
<!-- Node8 -->
<g id="node8" class="node">
<title>Node8</title>
<g id="a_node8"><a xlink:title=" ">
<polygon fill="white" stroke="#bfbfbf" points="275.5,-0.5 275.5,-19.5 385.5,-19.5 385.5,-0.5 275.5,-0.5"/>
<text text-anchor="middle" x="330.5" y="-7.5" font-family="Helvetica,sans-Serif" font-size="10.00">PJONThroughLora.h</text>
</a>
</g>
</g>
<!-- Node2&#45;&gt;Node8 -->
<g id="edge7" class="edge">
<title>Node2&#45;&gt;Node8</title>
<path fill="none" stroke="midnightblue" d="M417.79,-56.32C401.19,-47.7 375.5,-34.36 356.28,-24.39"/>
<polygon fill="midnightblue" stroke="midnightblue" points="357.66,-21.16 347.17,-19.65 354.43,-27.37 357.66,-21.16"/>
</g>
<!-- Node9 -->
<g id="node9" class="node">
<title>Node9</title>
<g id="a_node9"><a xlink:title=" ">
<polygon fill="white" stroke="#bfbfbf" points="403.5,-0.5 403.5,-19.5 481.5,-19.5 481.5,-0.5 403.5,-0.5"/>
<text text-anchor="middle" x="442.5" y="-7.5" font-family="Helvetica,sans-Serif" font-size="10.00">TunePlayer.h</text>
</a>
</g>
</g>
<!-- Node2&#45;&gt;Node9 -->
<g id="edge8" class="edge">
<title>Node2&#45;&gt;Node9</title>
<path fill="none" stroke="midnightblue" d="M435.82,-56.08C436.88,-48.93 438.41,-38.64 439.73,-29.69"/>
<polygon fill="midnightblue" stroke="midnightblue" points="443.2,-30.16 441.2,-19.75 436.28,-29.13 443.2,-30.16"/>
</g>
<!-- Node10 -->
<g id="node10" class="node">
<title>Node10</title>
<g id="a_node10"><a xlink:href="topics_8h.html" target="_top" xlink:title="MQTT topics for a thingsboard gateway.">
<polygon fill="white" stroke="black" points="679.5,-0.5 679.5,-19.5 751.5,-19.5 751.5,-0.5 679.5,-0.5"/>
<text text-anchor="middle" x="715.5" y="-7.5" font-family="Helvetica,sans-Serif" font-size="10.00">src/topics.h</text>
</a>
</g>
</g>
<!-- Node2&#45;&gt;Node10 -->
<g id="edge9" class="edge">
<title>Node2&#45;&gt;Node10</title>
<path fill="none" stroke="midnightblue" d="M469.54,-58.33C515.48,-49.59 598.54,-33.74 669.5,-20 669.6,-19.98 669.7,-19.96 669.8,-19.94"/>
<polygon fill="midnightblue" stroke="midnightblue" points="670.19,-23.43 679.34,-18.09 668.86,-16.56 670.19,-23.43"/>
</g>
<!-- Node11&#45;&gt;Node2 -->
<g id="edge11" class="edge">
<title>Node11&#45;&gt;Node2</title>
<path fill="none" stroke="midnightblue" d="M346.37,-112.32C363.21,-103.66 389.31,-90.24 408.74,-80.25"/>
<polygon fill="midnightblue" stroke="midnightblue" points="410.38,-83.34 417.67,-75.65 407.18,-77.12 410.38,-83.34"/>
</g>
<!-- Node12&#45;&gt;Node2 -->
<g id="edge13" class="edge">
<title>Node12&#45;&gt;Node2</title>
<path fill="none" stroke="midnightblue" d="M405.33,-224.11C405.23,-211.54 405.51,-187.89 408.5,-168 412.92,-138.54 422.4,-105.23 428.61,-85.18"/>
<polygon fill="midnightblue" stroke="midnightblue" points="431.99,-86.11 431.67,-75.52 425.31,-84 431.99,-86.11"/>
</g>
<!-- Node12&#45;&gt;Node11 -->
<g id="edge14" class="edge">
<title>Node12&#45;&gt;Node11</title>
<path fill="none" stroke="midnightblue" d="M399.54,-224.37C386.99,-206.22 357.69,-163.8 341.24,-139.99"/>
<polygon fill="midnightblue" stroke="midnightblue" points="344,-137.83 335.44,-131.59 338.24,-141.81 344,-137.83"/>
</g>
<!-- Node13 -->
<g id="node13" class="node">
<title>Node13</title>
<g id="a_node13"><a xlink:href="fields_8h.html" target="_top" xlink:title="Contains fields classes.">
<polygon fill="white" stroke="black" points="417.5,-168.5 417.5,-187.5 469.5,-187.5 469.5,-168.5 417.5,-168.5"/>
<text text-anchor="middle" x="443.5" y="-175.5" font-family="Helvetica,sans-Serif" font-size="10.00">fields.h</text>
</a>
</g>
</g>
<!-- Node12&#45;&gt;Node13 -->
<g id="edge15" class="edge">
<title>Node12&#45;&gt;Node13</title>
<path fill="none" stroke="midnightblue" d="M411.77,-224.08C417.14,-216.46 425.02,-205.26 431.58,-195.94"/>
<polygon fill="midnightblue" stroke="midnightblue" points="434.45,-197.94 437.34,-187.75 428.72,-193.91 434.45,-197.94"/>
</g>
<!-- Node13&#45;&gt;Node2 -->
<g id="edge16" class="edge">
<title>Node13&#45;&gt;Node2</title>
<path fill="none" stroke="midnightblue" d="M442.79,-168.37C441.34,-150.62 437.99,-109.67 436.02,-85.6"/>
<polygon fill="midnightblue" stroke="midnightblue" points="439.51,-85.27 435.2,-75.59 432.53,-85.84 439.51,-85.27"/>
</g>
<!-- Node13&#45;&gt;Node11 -->
<g id="edge17" class="edge">
<title>Node13&#45;&gt;Node11</title>
<path fill="none" stroke="midnightblue" d="M425.44,-168.44C406.93,-159.68 377.92,-145.94 356.64,-135.86"/>
<polygon fill="midnightblue" stroke="midnightblue" points="358.01,-132.63 347.48,-131.52 355.02,-138.96 358.01,-132.63"/>
</g>
<!-- Node14 -->
<g id="node14" class="node">
<title>Node14</title>
<g id="a_node14"><a xlink:href="conversions_8h.html" target="_top" xlink:title="General functions for converting to and from char arrays.">
<polygon fill="white" stroke="black" points="455.5,-112.5 455.5,-131.5 539.5,-131.5 539.5,-112.5 455.5,-112.5"/>
<text text-anchor="middle" x="497.5" y="-119.5" font-family="Helvetica,sans-Serif" font-size="10.00">conversions.h</text>
</a>
</g>
</g>
<!-- Node13&#45;&gt;Node14 -->
<g id="edge18" class="edge">
<title>Node13&#45;&gt;Node14</title>
<path fill="none" stroke="midnightblue" d="M452.42,-168.08C460.28,-160.22 471.93,-148.57 481.42,-139.08"/>
<polygon fill="midnightblue" stroke="midnightblue" points="484.15,-141.3 488.75,-131.75 479.2,-136.35 484.15,-141.3"/>
</g>
<!-- Node14&#45;&gt;Node2 -->
<g id="edge19" class="edge">
<title>Node14&#45;&gt;Node2</title>
<path fill="none" stroke="midnightblue" d="M487.38,-112.32C477.97,-104.26 463.76,-92.08 452.43,-82.37"/>
<polygon fill="midnightblue" stroke="midnightblue" points="454.68,-79.68 444.81,-75.83 450.12,-85 454.68,-79.68"/>
</g>
<!-- Node15&#45;&gt;Node1 -->
<g id="edge23" class="edge">
<title>Node15&#45;&gt;Node1</title>
<path fill="none" stroke="midnightblue" d="M422.72,-299.67C420.81,-317.14 409.65,-357.11 400.01,-382.9"/>
<polygon fill="midnightblue" stroke="midnightblue" points="396.7,-381.75 396.28,-392.34 403.21,-384.32 396.7,-381.75"/>
</g>
<!-- Node15&#45;&gt;Node2 -->
<g id="edge21" class="edge">
<title>Node15&#45;&gt;Node2</title>
<path fill="none" stroke="midnightblue" d="M432.52,-280.23C458.81,-258.5 524.76,-199.09 548.5,-132 560.2,-98.92 516.56,-82.12 479.93,-73.98"/>
<polygon fill="midnightblue" stroke="midnightblue" points="480.34,-70.49 469.84,-71.91 478.93,-77.35 480.34,-70.49"/>
</g>
<!-- Node15&#45;&gt;Node12 -->
<g id="edge22" class="edge">
<title>Node15&#45;&gt;Node12</title>
<path fill="none" stroke="midnightblue" d="M418.86,-280.08C416.71,-272.85 413.62,-262.41 410.95,-253.4"/>
<polygon fill="midnightblue" stroke="midnightblue" points="414.29,-252.34 408.09,-243.75 407.58,-254.33 414.29,-252.34"/>
</g>
<!-- Node16&#45;&gt;Node2 -->
<g id="edge25" class="edge">
<title>Node16&#45;&gt;Node2</title>
<path fill="none" stroke="midnightblue" d="M539.69,-336.24C561.62,-319.35 605.5,-279.95 605.5,-235 605.5,-235 605.5,-235 605.5,-177 605.5,-116.94 529.95,-88.12 479.29,-75.55"/>
<polygon fill="midnightblue" stroke="midnightblue" points="480.05,-72.13 469.52,-73.25 478.45,-78.95 480.05,-72.13"/>
</g>
<!-- Node16&#45;&gt;Node10 -->
<g id="edge26" class="edge">
<title>Node16&#45;&gt;Node10</title>
<path fill="none" stroke="midnightblue" d="M548.34,-342.68C597.29,-335.95 715.5,-311.77 715.5,-235 715.5,-235 715.5,-235 715.5,-121 715.5,-88.95 715.5,-51.64 715.5,-29.75"/>
<polygon fill="midnightblue" stroke="midnightblue" points="719,-29.56 715.5,-19.56 712,-29.56 719,-29.56"/>
</g>
<!-- Node16&#45;&gt;Node12 -->
<g id="edge29" class="edge">
<title>Node16&#45;&gt;Node12</title>
<path fill="none" stroke="midnightblue" d="M521.08,-336.4C511.1,-323.36 490.89,-298.18 470.5,-280 457.56,-268.46 441.56,-257.35 428.67,-249.06"/>
<polygon fill="midnightblue" stroke="midnightblue" points="430.26,-245.92 419.93,-243.55 426.53,-251.84 430.26,-245.92"/>
</g>
<!-- Node16&#45;&gt;Node13 -->
<g id="edge30" class="edge">
<title>Node16&#45;&gt;Node13</title>
<path fill="none" stroke="midnightblue" d="M522.98,-336.08C509.65,-309.72 470.26,-231.88 452.44,-196.66"/>
<polygon fill="midnightblue" stroke="midnightblue" points="455.47,-194.91 447.84,-187.57 449.23,-198.07 455.47,-194.91"/>
</g>
<!-- Node16&#45;&gt;Node15 -->
<g id="edge31" class="edge">
<title>Node16&#45;&gt;Node15</title>
<path fill="none" stroke="midnightblue" d="M510.47,-336.32C493.47,-327.66 467.12,-314.24 447.51,-304.25"/>
<polygon fill="midnightblue" stroke="midnightblue" points="448.99,-301.08 438.49,-299.65 445.81,-307.31 448.99,-301.08"/>
</g>
<!-- Node17 -->
<g id="node17" class="node">
<title>Node17</title>
<g id="a_node17"><a xlink:href="alarm_8h.html" target="_top" xlink:title="Handles alarms.">
<polygon fill="white" stroke="black" points="633.5,-224.5 633.5,-243.5 687.5,-243.5 687.5,-224.5 633.5,-224.5"/>
<text text-anchor="middle" x="660.5" y="-231.5" font-family="Helvetica,sans-Serif" font-size="10.00">alarm.h</text>
</a>
</g>
</g>
<!-- Node16&#45;&gt;Node17 -->
<g id="edge27" class="edge">
<title>Node16&#45;&gt;Node17</title>
<path fill="none" stroke="midnightblue" d="M548.05,-338.65C568.07,-331.67 598.46,-318.88 619.5,-300 634.2,-286.8 645.61,-267.13 652.62,-252.88"/>
<polygon fill="midnightblue" stroke="midnightblue" points="655.88,-254.18 656.93,-243.64 649.53,-251.23 655.88,-254.18"/>
</g>
<!-- Node17&#45;&gt;Node2 -->
<g id="edge28" class="edge">
<title>Node17&#45;&gt;Node2</title>
<path fill="none" stroke="midnightblue" d="M660.28,-224.49C659.21,-202.4 653.2,-142.85 619.5,-112 599.29,-93.49 527.63,-80.08 479.66,-72.93"/>
<polygon fill="midnightblue" stroke="midnightblue" points="479.91,-69.43 469.51,-71.45 478.91,-76.35 479.91,-69.43"/>
</g>
</g>
</svg>
