<?xml version="1.0" encoding="UTF-8" standalone="no"?>
<!DOCTYPE svg PUBLIC "-//W3C//DTD SVG 1.1//EN"
 "http://www.w3.org/Graphics/SVG/1.1/DTD/svg11.dtd">
<!-- Generated by graphviz version 2.43.0 (0)
 -->
<!-- Title: loraTxTask Pages: 1 -->
<svg width="568pt" height="180pt"
 viewBox="0.00 0.00 568.00 180.00" xmlns="http://www.w3.org/2000/svg" xmlns:xlink="http://www.w3.org/1999/xlink">
<g id="graph0" class="graph" transform="scale(1 1) rotate(0) translate(4 176)">
<title>loraTxTask</title>
<polygon fill="white" stroke="transparent" points="-4,4 -4,-176 564,-176 564,4 -4,4"/>
<!-- Node1 -->
<g id="node1" class="node">
<title>Node1</title>
<g id="a_node1"><a xlink:title="Task for sending packets when needed.">
<polygon fill="#bfbfbf" stroke="black" points="0,-76.5 0,-95.5 69,-95.5 69,-76.5 0,-76.5"/>
<text text-anchor="middle" x="34.5" y="-83.5" font-family="Helvetica,sans-Serif" font-size="10.00">loraTxTask</text>
</a>
</g>
</g>
<!-- Node2 -->
<g id="node2" class="node">
<title>Node2</title>
<g id="a_node2"><a xlink:href="lora_8cpp.html#afbd9f56608d04cb8a75d69112cd89885" target="_top" xlink:title="Task for printing out a byte array.">
<polygon fill="white" stroke="black" points="119.5,-152.5 119.5,-171.5 221.5,-171.5 221.5,-152.5 119.5,-152.5"/>
<text text-anchor="middle" x="170.5" y="-159.5" font-family="Helvetica,sans-Serif" font-size="10.00">debugLoRaPacket</text>
</a>
</g>
</g>
<!-- Node1&#45;&gt;Node2 -->
<g id="edge1" class="edge">
<title>Node1&#45;&gt;Node2</title>
<path fill="none" stroke="midnightblue" d="M44.94,-95.89C57.52,-108.53 81,-130.3 105,-143 109.23,-145.24 113.75,-147.24 118.37,-149.04"/>
<polygon fill="midnightblue" stroke="midnightblue" points="117.33,-152.38 127.93,-152.43 119.67,-145.79 117.33,-152.38"/>
</g>
<!-- Node3 -->
<g id="node3" class="node">
<title>Node3</title>
<g id="a_node3"><a xlink:href="class_device.html#a0fc7e0f4a048d2b7010c7bc6882bb987" target="_top" xlink:title="Generates a packet containing all the fields and instructions to set.">
<polygon fill="white" stroke="black" points="105,-114.5 105,-133.5 236,-133.5 236,-114.5 105,-114.5"/>
<text text-anchor="middle" x="170.5" y="-121.5" font-family="Helvetica,sans-Serif" font-size="10.00">Device::generatePacket</text>
</a>
</g>
</g>
<!-- Node1&#45;&gt;Node3 -->
<g id="edge2" class="edge">
<title>Node1&#45;&gt;Node3</title>
<path fill="none" stroke="midnightblue" d="M69.31,-95.59C86.53,-100.47 107.66,-106.46 126.07,-111.68"/>
<polygon fill="midnightblue" stroke="midnightblue" points="125.12,-115.05 135.7,-114.41 127.03,-108.32 125.12,-115.05"/>
</g>
<!-- Node5 -->
<g id="node5" class="node">
<title>Node5</title>
<g id="a_node5"><a xlink:href="class_device.html#ac068e8e17f6536cc63e1631e0ba5837c" target="_top" xlink:title="Checks if a transmission is required.">
<polygon fill="white" stroke="black" points="116.5,-76.5 116.5,-95.5 224.5,-95.5 224.5,-76.5 116.5,-76.5"/>
<text text-anchor="middle" x="170.5" y="-83.5" font-family="Helvetica,sans-Serif" font-size="10.00">Device::rpcWaiting</text>
</a>
</g>
</g>
<!-- Node1&#45;&gt;Node5 -->
<g id="edge4" class="edge">
<title>Node1&#45;&gt;Node5</title>
<path fill="none" stroke="midnightblue" d="M69.31,-86C80.57,-86 93.5,-86 106.25,-86"/>
<polygon fill="midnightblue" stroke="midnightblue" points="106.4,-89.5 116.4,-86 106.4,-82.5 106.4,-89.5"/>
</g>
<!-- Node6 -->
<g id="node6" class="node">
<title>Node6</title>
<g id="a_node6"><a xlink:href="lora_8cpp.html#ab4d91a7f25182323f789a4e986c08cd8" target="_top" xlink:title="Updates the attribute waiting to false if required.">
<polygon fill="white" stroke="black" points="107.5,-0.5 107.5,-19.5 233.5,-19.5 233.5,-0.5 107.5,-0.5"/>
<text text-anchor="middle" x="170.5" y="-7.5" font-family="Helvetica,sans-Serif" font-size="10.00">sendOnTxNotRequired</text>
</a>
</g>
</g>
<!-- Node1&#45;&gt;Node6 -->
<g id="edge5" class="edge">
<title>Node1&#45;&gt;Node6</title>
<path fill="none" stroke="midnightblue" d="M46.15,-76.49C59.24,-65.17 82.51,-46.27 105,-34 112.54,-29.89 120.93,-26.19 129.1,-23.01"/>
<polygon fill="midnightblue" stroke="midnightblue" points="130.37,-26.27 138.52,-19.5 127.93,-19.71 130.37,-26.27"/>
</g>
<!-- Node7 -->
<g id="node7" class="node">
<title>Node7</title>
<g id="a_node7"><a xlink:href="lora_8cpp.html#ab9cd66992a99394d4aa4030fcdbf6182" target="_top" xlink:title="Sets the state for if there are packets left to send.">
<polygon fill="white" stroke="black" points="293.5,-38.5 293.5,-57.5 402.5,-57.5 402.5,-38.5 293.5,-38.5"/>
<text text-anchor="middle" x="348" y="-45.5" font-family="Helvetica,sans-Serif" font-size="10.00">sendTxWaitingMsg</text>
</a>
</g>
</g>
<!-- Node1&#45;&gt;Node7 -->
<g id="edge9" class="edge">
<title>Node1&#45;&gt;Node7</title>
<path fill="none" stroke="midnightblue" d="M65.67,-76.42C77.78,-72.93 91.94,-69.28 105,-67 164.88,-56.56 234.11,-51.85 283.14,-49.73"/>
<polygon fill="midnightblue" stroke="midnightblue" points="283.44,-53.22 293.29,-49.32 283.15,-46.23 283.44,-53.22"/>
</g>
<!-- Node4 -->
<g id="node4" class="node">
<title>Node4</title>
<g id="a_node4"><a xlink:href="class_field.html#a8411bfb2768fb0ea256f83f40941ba75" target="_top" xlink:title="Encodes the value to set into a packet ready to send if needed.">
<polygon fill="white" stroke="black" points="307.5,-114.5 307.5,-133.5 388.5,-133.5 388.5,-114.5 307.5,-114.5"/>
<text text-anchor="middle" x="348" y="-121.5" font-family="Helvetica,sans-Serif" font-size="10.00">Field::encode</text>
</a>
</g>
</g>
<!-- Node3&#45;&gt;Node4 -->
<g id="edge3" class="edge">
<title>Node3&#45;&gt;Node4</title>
<path fill="none" stroke="midnightblue" d="M236.35,-124C256.45,-124 278.28,-124 297.19,-124"/>
<polygon fill="midnightblue" stroke="midnightblue" points="297.37,-127.5 307.37,-124 297.37,-120.5 297.37,-127.5"/>
</g>
<!-- Node6&#45;&gt;Node7 -->
<g id="edge6" class="edge">
<title>Node6&#45;&gt;Node7</title>
<path fill="none" stroke="midnightblue" d="M215.79,-19.59C239.26,-24.67 268.28,-30.96 293.06,-36.32"/>
<polygon fill="midnightblue" stroke="midnightblue" points="292.52,-39.78 303.03,-38.48 294,-32.94 292.52,-39.78"/>
</g>
<!-- Node9 -->
<g id="node9" class="node">
<title>Node9</title>
<g id="a_node9"><a xlink:href="class_device_manager.html#ac356dbc3ba069ca92c67825081d7a8a8" target="_top" xlink:title="Returns the number of packets that need to be sent across all devices.">
<polygon fill="white" stroke="black" points="272,-0.5 272,-19.5 424,-19.5 424,-0.5 272,-0.5"/>
<text text-anchor="middle" x="348" y="-7.5" font-family="Helvetica,sans-Serif" font-size="10.00">DeviceManager::txRequired</text>
</a>
</g>
</g>
<!-- Node6&#45;&gt;Node9 -->
<g id="edge8" class="edge">
<title>Node6&#45;&gt;Node9</title>
<path fill="none" stroke="midnightblue" d="M233.87,-10C242.91,-10 252.35,-10 261.75,-10"/>
<polygon fill="midnightblue" stroke="midnightblue" points="261.91,-13.5 271.91,-10 261.91,-6.5 261.91,-13.5"/>
</g>
<!-- Node8 -->
<g id="node8" class="node">
<title>Node8</title>
<g id="a_node8"><a xlink:href="lora_8cpp.html#adc3c5806492d2818ad6f5aff232765ec" target="_top" xlink:title=" ">
<polygon fill="white" stroke="black" points="460,-38.5 460,-57.5 560,-57.5 560,-38.5 460,-38.5"/>
<text text-anchor="middle" x="510" y="-45.5" font-family="Helvetica,sans-Serif" font-size="10.00">setAttributeState</text>
</a>
</g>
</g>
<!-- Node7&#45;&gt;Node8 -->
<g id="edge7" class="edge">
<title>Node7&#45;&gt;Node8</title>
<path fill="none" stroke="midnightblue" d="M402.72,-48C417.77,-48 434.21,-48 449.57,-48"/>
<polygon fill="midnightblue" stroke="midnightblue" points="450,-51.5 460,-48 450,-44.5 450,-51.5"/>
</g>
</g>
</svg>
