<?xml version="1.0" encoding="UTF-8" standalone="no"?>
<!DOCTYPE svg PUBLIC "-//W3C//DTD SVG 1.1//EN"
 "http://www.w3.org/Graphics/SVG/1.1/DTD/svg11.dtd">
<!-- Generated by graphviz version 2.43.0 (0)
 -->
<!-- Title: BaseStationCode/src/src/lora.cpp Pages: 1 -->
<svg width="565pt" height="478pt"
 viewBox="0.00 0.00 565.00 478.00" xmlns="http://www.w3.org/2000/svg" xmlns:xlink="http://www.w3.org/1999/xlink">
<g id="graph0" class="graph" transform="scale(1 1) rotate(0) translate(4 474)">
<title>BaseStationCode/src/src/lora.cpp</title>
<!-- Node1 -->
<g id="Node000001" class="node">
<title>Node1</title>
<g id="a_Node000001"><a xlink:title="File that handles the LoRa radio and PJON.">
<polygon fill="#999999" stroke="#666666" points="251.5,-470 134.5,-470 134.5,-440 251.5,-440 251.5,-470"/>
<text text-anchor="start" x="142.5" y="-458" font-family="Helvetica,sans-Serif" font-size="10.00">BaseStationCode/src</text>
<text text-anchor="middle" x="193" y="-447" font-family="Helvetica,sans-Serif" font-size="10.00">/src/lora.cpp</text>
</a>
</g>
</g>
<!-- Node2 -->
<g id="Node000002" class="node">
<title>Node2</title>
<g id="a_Node000002"><a xlink:href="lora_8h.html" target="_top" xlink:title="File that handles the LoRa radio and PJON.">
<polygon fill="white" stroke="#666666" points="215,-404 171,-404 171,-385 215,-385 215,-404"/>
<text text-anchor="middle" x="193" y="-392" font-family="Helvetica,sans-Serif" font-size="10.00">lora.h</text>
</a>
</g>
</g>
<!-- Node1&#45;&gt;Node2 -->
<g id="edge1_Node000001_Node000002" class="edge">
<title>Node1&#45;&gt;Node2</title>
<g id="a_edge1_Node000001_Node000002"><a xlink:title=" ">
<path fill="none" stroke="#63b8ff" d="M193,-439.84C193,-432.21 193,-422.7 193,-414.45"/>
<polygon fill="#63b8ff" stroke="#63b8ff" points="196.5,-414.27 193,-404.27 189.5,-414.27 196.5,-414.27"/>
</a>
</g>
</g>
<!-- Node3 -->
<g id="Node000003" class="node">
<title>Node3</title>
<g id="a_Node000003"><a xlink:href="defines_8h.html" target="_top" xlink:title="Definitions and other preprocessor and global stuff.">
<polygon fill="white" stroke="#666666" points="319,-74 249,-74 249,-55 319,-55 319,-74"/>
<text text-anchor="middle" x="284" y="-62" font-family="Helvetica,sans-Serif" font-size="10.00">../defines.h</text>
</a>
</g>
</g>
<!-- Node2&#45;&gt;Node3 -->
<g id="edge2_Node000002_Node000003" class="edge">
<title>Node2&#45;&gt;Node3</title>
<g id="a_edge2_Node000002_Node000003"><a xlink:title=" ">
<path fill="none" stroke="#63b8ff" d="M170.81,-385.04C136.62,-370.4 75,-336.88 75,-285.5 75,-285.5 75,-285.5 75,-173.5 75,-144.04 72.55,-130.19 94,-110 114.61,-90.6 189.28,-77.57 238.64,-70.85"/>
<polygon fill="#63b8ff" stroke="#63b8ff" points="239.31,-74.29 248.77,-69.52 238.39,-67.36 239.31,-74.29"/>
</a>
</g>
</g>
<!-- Node10 -->
<g id="Node000010" class="node">
<title>Node10</title>
<g id="a_Node000010"><a xlink:href="lookups_8h.html" target="_top" xlink:title="Lookupable and lookupable manager base classes.">
<polygon fill="white" stroke="#666666" points="166.5,-129 103.5,-129 103.5,-110 166.5,-110 166.5,-129"/>
<text text-anchor="middle" x="135" y="-117" font-family="Helvetica,sans-Serif" font-size="10.00">lookups.h</text>
</a>
</g>
</g>
<!-- Node2&#45;&gt;Node10 -->
<g id="edge9_Node000002_Node000010" class="edge">
<title>Node2&#45;&gt;Node10</title>
<g id="a_edge9_Node000002_Node000010"><a xlink:title=" ">
<path fill="none" stroke="#63b8ff" d="M181.44,-384.81C160.62,-368.07 119,-329.14 119,-285.5 119,-285.5 119,-285.5 119,-228.5 119,-196.85 125.81,-160.54 130.54,-139.11"/>
<polygon fill="#63b8ff" stroke="#63b8ff" points="134.01,-139.65 132.84,-129.12 127.19,-138.08 134.01,-139.65"/>
</a>
</g>
</g>
<!-- Node11 -->
<g id="Node000011" class="node">
<title>Node11</title>
<g id="a_Node000011"><a xlink:href="devices_8h.html" target="_top" xlink:title="Devices and manager for all known devices the base station connects to.">
<polygon fill="white" stroke="#666666" points="242.5,-239 179.5,-239 179.5,-220 242.5,-220 242.5,-239"/>
<text text-anchor="middle" x="211" y="-227" font-family="Helvetica,sans-Serif" font-size="10.00">devices.h</text>
</a>
</g>
</g>
<!-- Node2&#45;&gt;Node11 -->
<g id="edge11_Node000002_Node000011" class="edge">
<title>Node2&#45;&gt;Node11</title>
<g id="a_edge11_Node000002_Node000011"><a xlink:title=" ">
<path fill="none" stroke="#63b8ff" d="M189.41,-384.92C181.63,-365.06 164.93,-314.58 178,-275 181.46,-264.54 188.43,-254.53 195.08,-246.66"/>
<polygon fill="#63b8ff" stroke="#63b8ff" points="197.86,-248.8 201.98,-239.04 192.67,-244.1 197.86,-248.8"/>
</a>
</g>
</g>
<!-- Node14 -->
<g id="Node000014" class="node">
<title>Node14</title>
<g id="a_Node000014"><a xlink:href="networking_8h.html" target="_top" xlink:title="Header file for networking.cpp.">
<polygon fill="white" stroke="#666666" points="267,-294 187,-294 187,-275 267,-275 267,-294"/>
<text text-anchor="middle" x="227" y="-282" font-family="Helvetica,sans-Serif" font-size="10.00">networking.h</text>
</a>
</g>
</g>
<!-- Node2&#45;&gt;Node14 -->
<g id="edge19_Node000002_Node000014" class="edge">
<title>Node2&#45;&gt;Node14</title>
<g id="a_edge19_Node000002_Node000014"><a xlink:title=" ">
<path fill="none" stroke="#63b8ff" d="M191.87,-384.66C194.15,-366.93 206.39,-326.73 216.23,-303.32"/>
<polygon fill="#63b8ff" stroke="#63b8ff" points="219.44,-304.71 220.4,-294.16 213.07,-301.81 219.44,-304.71"/>
</a>
</g>
</g>
<!-- Node15 -->
<g id="Node000015" class="node">
<title>Node15</title>
<g id="a_Node000015"><a xlink:href="rpc_8h.html" target="_top" xlink:title="Handles RPC calls.">
<polygon fill="white" stroke="#666666" points="353.5,-349 312.5,-349 312.5,-330 353.5,-330 353.5,-349"/>
<text text-anchor="middle" x="333" y="-337" font-family="Helvetica,sans-Serif" font-size="10.00">rpc.h</text>
</a>
</g>
</g>
<!-- Node2&#45;&gt;Node15 -->
<g id="edge23_Node000002_Node000015" class="edge">
<title>Node2&#45;&gt;Node15</title>
<g id="a_edge23_Node000002_Node000015"><a xlink:title=" ">
<path fill="none" stroke="#63b8ff" d="M215.18,-385.1C238.84,-376.15 276.45,-361.91 302.8,-351.93"/>
<polygon fill="#63b8ff" stroke="#63b8ff" points="304.18,-355.15 312.29,-348.34 301.7,-348.61 304.18,-355.15"/>
</a>
</g>
</g>
<!-- Node4 -->
<g id="Node000004" class="node">
<title>Node4</title>
<g id="a_Node000004"><a xlink:title=" ">
<polygon fill="#e0e0e0" stroke="#999999" points="401.5,-19 338.5,-19 338.5,0 401.5,0 401.5,-19"/>
<text text-anchor="middle" x="370" y="-7" font-family="Helvetica,sans-Serif" font-size="10.00">Arduino.h</text>
</a>
</g>
</g>
<!-- Node3&#45;&gt;Node4 -->
<g id="edge3_Node000003_Node000004" class="edge">
<title>Node3&#45;&gt;Node4</title>
<g id="a_edge3_Node000003_Node000004"><a xlink:title=" ">
<path fill="none" stroke="#63b8ff" d="M297.82,-54.98C311.15,-46.77 331.58,-34.18 347.31,-24.49"/>
<polygon fill="#63b8ff" stroke="#63b8ff" points="349.25,-27.4 355.93,-19.17 345.58,-21.44 349.25,-27.4"/>
</a>
</g>
</g>
<!-- Node5 -->
<g id="Node000005" class="node">
<title>Node5</title>
<g id="a_Node000005"><a xlink:title=" ">
<polygon fill="#e0e0e0" stroke="#999999" points="466.5,-19 419.5,-19 419.5,0 466.5,0 466.5,-19"/>
<text text-anchor="middle" x="443" y="-7" font-family="Helvetica,sans-Serif" font-size="10.00">WiFi.h</text>
</a>
</g>
</g>
<!-- Node3&#45;&gt;Node5 -->
<g id="edge4_Node000003_Node000005" class="edge">
<title>Node3&#45;&gt;Node5</title>
<g id="a_edge4_Node000003_Node000005"><a xlink:title=" ">
<path fill="none" stroke="#63b8ff" d="M309.55,-54.98C336.76,-45.91 379.93,-31.52 409.77,-21.58"/>
<polygon fill="#63b8ff" stroke="#63b8ff" points="410.95,-24.87 419.33,-18.39 408.74,-18.23 410.95,-24.87"/>
</a>
</g>
</g>
<!-- Node6 -->
<g id="Node000006" class="node">
<title>Node6</title>
<g id="a_Node000006"><a xlink:title=" ">
<polygon fill="#e0e0e0" stroke="#999999" points="90,-19 0,-19 0,0 90,0 90,-19"/>
<text text-anchor="middle" x="45" y="-7" font-family="Helvetica,sans-Serif" font-size="10.00">PubSubClient.h</text>
</a>
</g>
</g>
<!-- Node3&#45;&gt;Node6 -->
<g id="edge5_Node000003_Node000006" class="edge">
<title>Node3&#45;&gt;Node6</title>
<g id="a_edge5_Node000003_Node000006"><a xlink:title=" ">
<path fill="none" stroke="#63b8ff" d="M248.99,-55.74C207.92,-46.63 139.59,-31.48 93.45,-21.24"/>
<polygon fill="#63b8ff" stroke="#63b8ff" points="94.19,-17.82 83.67,-19.08 92.68,-24.66 94.19,-17.82"/>
</a>
</g>
</g>
<!-- Node7 -->
<g id="Node000007" class="node">
<title>Node7</title>
<g id="a_Node000007"><a xlink:title=" ">
<polygon fill="#e0e0e0" stroke="#999999" points="191.5,-19 108.5,-19 108.5,0 191.5,0 191.5,-19"/>
<text text-anchor="middle" x="150" y="-7" font-family="Helvetica,sans-Serif" font-size="10.00">ArduinoJson.h</text>
</a>
</g>
</g>
<!-- Node3&#45;&gt;Node7 -->
<g id="edge6_Node000003_Node000007" class="edge">
<title>Node3&#45;&gt;Node7</title>
<g id="a_edge6_Node000003_Node000007"><a xlink:title=" ">
<path fill="none" stroke="#63b8ff" d="M262.47,-54.98C240.53,-46.3 206.26,-32.75 181.31,-22.88"/>
<polygon fill="#63b8ff" stroke="#63b8ff" points="182.51,-19.59 171.92,-19.17 179.93,-26.1 182.51,-19.59"/>
</a>
</g>
</g>
<!-- Node8 -->
<g id="Node000008" class="node">
<title>Node8</title>
<g id="a_Node000008"><a xlink:title=" ">
<polygon fill="#e0e0e0" stroke="#999999" points="320,-19 210,-19 210,0 320,0 320,-19"/>
<text text-anchor="middle" x="265" y="-7" font-family="Helvetica,sans-Serif" font-size="10.00">PJONThroughLora.h</text>
</a>
</g>
</g>
<!-- Node3&#45;&gt;Node8 -->
<g id="edge7_Node000003_Node000008" class="edge">
<title>Node3&#45;&gt;Node8</title>
<g id="a_edge7_Node000003_Node000008"><a xlink:title=" ">
<path fill="none" stroke="#63b8ff" d="M280.86,-54.75C278.32,-47.65 274.64,-37.4 271.47,-28.56"/>
<polygon fill="#63b8ff" stroke="#63b8ff" points="274.75,-27.32 268.08,-19.09 268.16,-29.68 274.75,-27.32"/>
</a>
</g>
</g>
<!-- Node9 -->
<g id="Node000009" class="node">
<title>Node9</title>
<g id="a_Node000009"><a xlink:href="topics_8h.html" target="_top" xlink:title="MQTT topics for a thingsboard gateway.">
<polygon fill="white" stroke="#666666" points="557,-19 485,-19 485,0 557,0 557,-19"/>
<text text-anchor="middle" x="521" y="-7" font-family="Helvetica,sans-Serif" font-size="10.00">src/topics.h</text>
</a>
</g>
</g>
<!-- Node3&#45;&gt;Node9 -->
<g id="edge8_Node000003_Node000009" class="edge">
<title>Node3&#45;&gt;Node9</title>
<g id="a_edge8_Node000003_Node000009"><a xlink:title=" ">
<path fill="none" stroke="#63b8ff" d="M319.23,-55.62C360.58,-46.37 429.31,-31 474.88,-20.81"/>
<polygon fill="#63b8ff" stroke="#63b8ff" points="475.81,-24.19 484.8,-18.59 474.28,-17.36 475.81,-24.19"/>
</a>
</g>
</g>
<!-- Node10&#45;&gt;Node3 -->
<g id="edge10_Node000010_Node000003" class="edge">
<title>Node10&#45;&gt;Node3</title>
<g id="a_edge10_Node000010_Node000003"><a xlink:title=" ">
<path fill="none" stroke="#63b8ff" d="M158.94,-109.98C183.56,-101.23 222.12,-87.51 249.92,-77.62"/>
<polygon fill="#63b8ff" stroke="#63b8ff" points="251.38,-80.82 259.62,-74.17 249.03,-74.22 251.38,-80.82"/>
</a>
</g>
</g>
<!-- Node11&#45;&gt;Node3 -->
<g id="edge12_Node000011_Node000003" class="edge">
<title>Node11&#45;&gt;Node3</title>
<g id="a_edge12_Node000011_Node000003"><a xlink:title=" ">
<path fill="none" stroke="#63b8ff" d="M210.19,-219.68C209.32,-207.23 208.7,-183.92 214,-165 223.39,-131.49 249.69,-99.9 267.24,-81.64"/>
<polygon fill="#63b8ff" stroke="#63b8ff" points="270.04,-83.79 274.6,-74.23 265.07,-78.86 270.04,-83.79"/>
</a>
</g>
</g>
<!-- Node11&#45;&gt;Node10 -->
<g id="edge13_Node000011_Node000010" class="edge">
<title>Node11&#45;&gt;Node10</title>
<g id="a_edge13_Node000011_Node000010"><a xlink:title=" ">
<path fill="none" stroke="#63b8ff" d="M204.78,-219.66C192.14,-201.69 163.25,-160.64 146.88,-137.38"/>
<polygon fill="#63b8ff" stroke="#63b8ff" points="149.71,-135.32 141.09,-129.16 143.99,-139.35 149.71,-135.32"/>
</a>
</g>
</g>
<!-- Node12 -->
<g id="Node000012" class="node">
<title>Node12</title>
<g id="a_Node000012"><a xlink:href="fields_8h.html" target="_top" xlink:title="Contains fields classes.">
<polygon fill="white" stroke="#666666" points="275,-184 223,-184 223,-165 275,-165 275,-184"/>
<text text-anchor="middle" x="249" y="-172" font-family="Helvetica,sans-Serif" font-size="10.00">fields.h</text>
</a>
</g>
</g>
<!-- Node11&#45;&gt;Node12 -->
<g id="edge14_Node000011_Node000012" class="edge">
<title>Node11&#45;&gt;Node12</title>
<g id="a_edge14_Node000011_Node000012"><a xlink:title=" ">
<path fill="none" stroke="#63b8ff" d="M217.27,-219.75C222.59,-212.34 230.36,-201.5 236.88,-192.41"/>
<polygon fill="#63b8ff" stroke="#63b8ff" points="239.86,-194.26 242.84,-184.09 234.17,-190.18 239.86,-194.26"/>
</a>
</g>
</g>
<!-- Node12&#45;&gt;Node3 -->
<g id="edge15_Node000012_Node000003" class="edge">
<title>Node12&#45;&gt;Node3</title>
<g id="a_edge15_Node000012_Node000003"><a xlink:title=" ">
<path fill="none" stroke="#63b8ff" d="M247.91,-164.99C246.64,-152.53 245.46,-128.76 252,-110 255.59,-99.71 262.37,-89.71 268.77,-81.81"/>
<polygon fill="#63b8ff" stroke="#63b8ff" points="271.51,-84 275.4,-74.15 266.21,-79.42 271.51,-84"/>
</a>
</g>
</g>
<!-- Node12&#45;&gt;Node10 -->
<g id="edge16_Node000012_Node000010" class="edge">
<title>Node12&#45;&gt;Node10</title>
<g id="a_edge16_Node000012_Node000010"><a xlink:title=" ">
<path fill="none" stroke="#63b8ff" d="M230.68,-164.98C212.34,-156.46 183.89,-143.23 162.77,-133.41"/>
<polygon fill="#63b8ff" stroke="#63b8ff" points="164.19,-130.21 153.65,-129.17 161.24,-136.56 164.19,-130.21"/>
</a>
</g>
</g>
<!-- Node13 -->
<g id="Node000013" class="node">
<title>Node13</title>
<g id="a_Node000013"><a xlink:href="conversions_8h.html" target="_top" xlink:title="General functions for converting to and from char arrays.">
<polygon fill="white" stroke="#666666" points="345,-129 261,-129 261,-110 345,-110 345,-129"/>
<text text-anchor="middle" x="303" y="-117" font-family="Helvetica,sans-Serif" font-size="10.00">conversions.h</text>
</a>
</g>
</g>
<!-- Node12&#45;&gt;Node13 -->
<g id="edge17_Node000012_Node000013" class="edge">
<title>Node12&#45;&gt;Node13</title>
<g id="a_edge17_Node000012_Node000013"><a xlink:title=" ">
<path fill="none" stroke="#63b8ff" d="M257.92,-164.75C265.78,-157.03 277.43,-145.6 286.92,-136.28"/>
<polygon fill="#63b8ff" stroke="#63b8ff" points="289.56,-138.59 294.25,-129.09 284.66,-133.6 289.56,-138.59"/>
</a>
</g>
</g>
<!-- Node13&#45;&gt;Node3 -->
<g id="edge18_Node000013_Node000003" class="edge">
<title>Node13&#45;&gt;Node3</title>
<g id="a_edge18_Node000013_Node000003"><a xlink:title=" ">
<path fill="none" stroke="#63b8ff" d="M299.86,-109.75C297.32,-102.65 293.64,-92.4 290.47,-83.56"/>
<polygon fill="#63b8ff" stroke="#63b8ff" points="293.75,-82.32 287.08,-74.09 287.16,-84.68 293.75,-82.32"/>
</a>
</g>
</g>
<!-- Node14&#45;&gt;Node2 -->
<g id="edge22_Node000014_Node000002" class="edge">
<title>Node14&#45;&gt;Node2</title>
<g id="a_edge22_Node000014_Node000002"><a xlink:title=" ">
<path fill="none" stroke="#63b8ff" d="M228.15,-294.16C225.94,-311.73 213.73,-351.92 203.87,-375.44"/>
<polygon fill="#63b8ff" stroke="#63b8ff" points="200.64,-374.11 199.69,-384.66 207.01,-377 200.64,-374.11"/>
</a>
</g>
</g>
<!-- Node14&#45;&gt;Node3 -->
<g id="edge20_Node000014_Node000003" class="edge">
<title>Node14&#45;&gt;Node3</title>
<g id="a_edge20_Node000014_Node000003"><a xlink:title=" ">
<path fill="none" stroke="#63b8ff" d="M238.02,-274.91C264.3,-253.62 330.23,-195.36 354,-129 356.85,-121.05 358.07,-117.4 354,-110 346.23,-95.85 331.83,-85.56 318.11,-78.46"/>
<polygon fill="#63b8ff" stroke="#63b8ff" points="319.34,-75.17 308.81,-74.05 316.34,-81.49 319.34,-75.17"/>
</a>
</g>
</g>
<!-- Node14&#45;&gt;Node11 -->
<g id="edge21_Node000014_Node000011" class="edge">
<title>Node14&#45;&gt;Node11</title>
<g id="a_edge21_Node000014_Node000011"><a xlink:title=" ">
<path fill="none" stroke="#63b8ff" d="M224.36,-274.75C222.24,-267.72 219.19,-257.62 216.54,-248.84"/>
<polygon fill="#63b8ff" stroke="#63b8ff" points="219.83,-247.65 213.59,-239.09 213.13,-249.67 219.83,-247.65"/>
</a>
</g>
</g>
<!-- Node15&#45;&gt;Node3 -->
<g id="edge24_Node000015_Node000003" class="edge">
<title>Node15&#45;&gt;Node3</title>
<g id="a_edge24_Node000015_Node000003"><a xlink:title=" ">
<path fill="none" stroke="#63b8ff" d="M345.19,-329.95C367.12,-313.45 411,-274.91 411,-230.5 411,-230.5 411,-230.5 411,-173.5 411,-125.01 356.61,-93.73 319.02,-77.91"/>
<polygon fill="#63b8ff" stroke="#63b8ff" points="319.98,-74.52 309.4,-74.03 317.36,-81.01 319.98,-74.52"/>
</a>
</g>
</g>
<!-- Node15&#45;&gt;Node9 -->
<g id="edge25_Node000015_Node000009" class="edge">
<title>Node15&#45;&gt;Node9</title>
<g id="a_edge25_Node000015_Node000009"><a xlink:title=" ">
<path fill="none" stroke="#63b8ff" d="M353.84,-336.35C402.79,-330.05 521,-306.91 521,-230.5 521,-230.5 521,-230.5 521,-118.5 521,-87.19 521,-50.77 521,-29.23"/>
<polygon fill="#63b8ff" stroke="#63b8ff" points="524.5,-29.18 521,-19.18 517.5,-29.18 524.5,-29.18"/>
</a>
</g>
</g>
<!-- Node15&#45;&gt;Node11 -->
<g id="edge28_Node000015_Node000011" class="edge">
<title>Node15&#45;&gt;Node11</title>
<g id="a_edge28_Node000015_Node000011"><a xlink:title=" ">
<path fill="none" stroke="#63b8ff" d="M326.21,-329.68C316.09,-316.83 296.05,-292.58 276,-275 263.09,-263.68 247.21,-252.76 234.38,-244.57"/>
<polygon fill="#63b8ff" stroke="#63b8ff" points="236,-241.46 225.66,-239.13 232.29,-247.39 236,-241.46"/>
</a>
</g>
</g>
<!-- Node15&#45;&gt;Node12 -->
<g id="edge29_Node000015_Node000012" class="edge">
<title>Node15&#45;&gt;Node12</title>
<g id="a_edge29_Node000015_Node000012"><a xlink:title=" ">
<path fill="none" stroke="#63b8ff" d="M328.48,-329.74C315.21,-303.98 276.12,-228.13 258.19,-193.33"/>
<polygon fill="#63b8ff" stroke="#63b8ff" points="261.23,-191.59 253.54,-184.31 255.01,-194.8 261.23,-191.59"/>
</a>
</g>
</g>
<!-- Node15&#45;&gt;Node14 -->
<g id="edge30_Node000015_Node000014" class="edge">
<title>Node15&#45;&gt;Node14</title>
<g id="a_edge30_Node000015_Node000014"><a xlink:title=" ">
<path fill="none" stroke="#63b8ff" d="M315.97,-329.98C299.07,-321.54 272.94,-308.47 253.36,-298.68"/>
<polygon fill="#63b8ff" stroke="#63b8ff" points="254.85,-295.51 244.34,-294.17 251.72,-301.77 254.85,-295.51"/>
</a>
</g>
</g>
<!-- Node16 -->
<g id="Node000016" class="node">
<title>Node16</title>
<g id="a_Node000016"><a xlink:href="alarm_8h.html" target="_top" xlink:title="Handles alarms.">
<polygon fill="white" stroke="#666666" points="493,-239 439,-239 439,-220 493,-220 493,-239"/>
<text text-anchor="middle" x="466" y="-227" font-family="Helvetica,sans-Serif" font-size="10.00">alarm.h</text>
</a>
</g>
</g>
<!-- Node15&#45;&gt;Node16 -->
<g id="edge26_Node000015_Node000016" class="edge">
<title>Node15&#45;&gt;Node16</title>
<g id="a_edge26_Node000015_Node000016"><a xlink:title=" ">
<path fill="none" stroke="#63b8ff" d="M353.51,-332.22C373.49,-325.33 403.87,-312.69 425,-294 439.4,-281.27 450.74,-262.32 457.81,-248.44"/>
<polygon fill="#63b8ff" stroke="#63b8ff" points="460.99,-249.91 462.19,-239.38 454.68,-246.86 460.99,-249.91"/>
</a>
</g>
</g>
<!-- Node16&#45;&gt;Node3 -->
<g id="edge27_Node000016_Node000003" class="edge">
<title>Node16&#45;&gt;Node3</title>
<g id="a_edge27_Node000016_Node000003"><a xlink:title=" ">
<path fill="none" stroke="#63b8ff" d="M465.58,-219.97C464.04,-198.39 456.99,-141.12 425,-110 399.38,-85.07 359.91,-74.1 329.24,-69.27"/>
<polygon fill="#63b8ff" stroke="#63b8ff" points="329.6,-65.79 319.21,-67.86 328.62,-72.72 329.6,-65.79"/>
</a>
</g>
</g>
</g>
</svg>
