<?xml version="1.0" encoding="UTF-8" standalone="no"?>
<!DOCTYPE svg PUBLIC "-//W3C//DTD SVG 1.1//EN"
 "http://www.w3.org/Graphics/SVG/1.1/DTD/svg11.dtd">
<!-- Generated by graphviz version 2.43.0 (0)
 -->
<!-- Title: pjonReceive Pages: 1 -->
<svg width="484pt" height="66pt"
 viewBox="0.00 0.00 484.00 66.00" xmlns="http://www.w3.org/2000/svg" xmlns:xlink="http://www.w3.org/1999/xlink">
<g id="graph0" class="graph" transform="scale(1 1) rotate(0) translate(4 62)">
<title>pjonReceive</title>
<polygon fill="white" stroke="transparent" points="-4,4 -4,-62 480,-62 480,4 -4,4"/>
<!-- Node1 -->
<g id="node1" class="node">
<title>Node1</title>
<g id="a_node1"><a xlink:title="Handles an incoming packet received from the radio and adds the given snr and rssi to the packet.">
<polygon fill="#bfbfbf" stroke="black" points="0,-19.5 0,-38.5 77,-38.5 77,-19.5 0,-19.5"/>
<text text-anchor="middle" x="38.5" y="-26.5" font-family="Helvetica,sans-Serif" font-size="10.00">pjonReceive</text>
</a>
</g>
</g>
<!-- Node2 -->
<g id="node2" class="node">
<title>Node2</title>
<g id="a_node2"><a xlink:href="class_device.html#a35eba370894e0e1ec39f2043e466b2f6" target="_top" xlink:title="Decodes the payload from a PJON packet and converts it to thingsboard MQTT JSON.">
<polygon fill="white" stroke="black" points="113,-38.5 113,-57.5 265,-57.5 265,-38.5 113,-38.5"/>
<text text-anchor="middle" x="189" y="-45.5" font-family="Helvetica,sans-Serif" font-size="10.00">Device::decodePacketFields</text>
</a>
</g>
</g>
<!-- Node1&#45;&gt;Node2 -->
<g id="edge1" class="edge">
<title>Node1&#45;&gt;Node2</title>
<path fill="none" stroke="midnightblue" d="M77.36,-33.84C85.5,-34.89 94.41,-36.03 103.54,-37.19"/>
<polygon fill="midnightblue" stroke="midnightblue" points="103.13,-40.67 113.5,-38.47 104.02,-33.73 103.13,-40.67"/>
</g>
<!-- Node4 -->
<g id="node4" class="node">
<title>Node4</title>
<g id="a_node4"><a xlink:href="class_lookup_manager.html#a8d3d926f82bfb89594abd2430b9d4326" target="_top" xlink:title="Gets the object with the given symbol.">
<polygon fill="white" stroke="black" points="301,-0.5 301,-19.5 476,-19.5 476,-0.5 301,-0.5"/>
<text text-anchor="middle" x="388.5" y="-7.5" font-family="Helvetica,sans-Serif" font-size="10.00">LookupManager::getWithSymbol</text>
</a>
</g>
</g>
<!-- Node1&#45;&gt;Node4 -->
<g id="edge4" class="edge">
<title>Node1&#45;&gt;Node4</title>
<path fill="none" stroke="midnightblue" d="M77.07,-26.95C127.75,-24.18 219.79,-19.16 290.54,-15.29"/>
<polygon fill="midnightblue" stroke="midnightblue" points="291.02,-18.77 300.81,-14.73 290.64,-11.78 291.02,-18.77"/>
</g>
<!-- Node3 -->
<g id="node3" class="node">
<title>Node3</title>
<g id="a_node3"><a xlink:href="class_field.html#aa036e196f5805e9406b8169200e3915a" target="_top" xlink:title="Decodes the value from bytes into an existing json document.">
<polygon fill="white" stroke="black" points="348,-38.5 348,-57.5 429,-57.5 429,-38.5 348,-38.5"/>
<text text-anchor="middle" x="388.5" y="-45.5" font-family="Helvetica,sans-Serif" font-size="10.00">Field::decode</text>
</a>
</g>
</g>
<!-- Node2&#45;&gt;Node3 -->
<g id="edge2" class="edge">
<title>Node2&#45;&gt;Node3</title>
<path fill="none" stroke="midnightblue" d="M265.23,-48C289.51,-48 315.8,-48 337.76,-48"/>
<polygon fill="midnightblue" stroke="midnightblue" points="337.85,-51.5 347.85,-48 337.85,-44.5 337.85,-51.5"/>
</g>
<!-- Node2&#45;&gt;Node4 -->
<g id="edge3" class="edge">
<title>Node2&#45;&gt;Node4</title>
<path fill="none" stroke="midnightblue" d="M239.58,-38.46C266.35,-33.31 299.58,-26.92 327.76,-21.49"/>
<polygon fill="midnightblue" stroke="midnightblue" points="328.74,-24.87 337.9,-19.54 327.42,-18 328.74,-24.87"/>
</g>
</g>
</svg>
