<?xml version="1.0" encoding="UTF-8" standalone="no"?>
<!DOCTYPE svg PUBLIC "-//W3C//DTD SVG 1.1//EN"
 "http://www.w3.org/Graphics/SVG/1.1/DTD/svg11.dtd">
<!-- Generated by graphviz version 2.43.0 (0)
 -->
<!-- Title: sendOnTxNotRequired Pages: 1 -->
<svg width="458pt" height="66pt"
 viewBox="0.00 0.00 458.00 66.00" xmlns="http://www.w3.org/2000/svg" xmlns:xlink="http://www.w3.org/1999/xlink">
<g id="graph0" class="graph" transform="scale(1 1) rotate(0) translate(4 62)">
<title>sendOnTxNotRequired</title>
<polygon fill="white" stroke="transparent" points="-4,4 -4,-62 454,-62 454,4 -4,4"/>
<!-- Node1 -->
<g id="node1" class="node">
<title>Node1</title>
<g id="a_node1"><a xlink:title="updates the attribute waiting to false if required.">
<polygon fill="#bfbfbf" stroke="black" points="0,-19.5 0,-38.5 126,-38.5 126,-19.5 0,-19.5"/>
<text text-anchor="middle" x="63" y="-26.5" font-family="Helvetica,sans-Serif" font-size="10.00">sendOnTxNotRequired</text>
</a>
</g>
</g>
<!-- Node2 -->
<g id="node2" class="node">
<title>Node2</title>
<g id="a_node2"><a xlink:href="lora_8cpp.html#ab9cd66992a99394d4aa4030fcdbf6182" target="_top" xlink:title="Sets the state for if there are packets left to send.">
<polygon fill="white" stroke="black" points="183.5,-38.5 183.5,-57.5 292.5,-57.5 292.5,-38.5 183.5,-38.5"/>
<text text-anchor="middle" x="238" y="-45.5" font-family="Helvetica,sans-Serif" font-size="10.00">sendTxWaitingMsg</text>
</a>
</g>
</g>
<!-- Node1&#45;&gt;Node2 -->
<g id="edge1" class="edge">
<title>Node1&#45;&gt;Node2</title>
<path fill="none" stroke="midnightblue" d="M126.46,-35.86C141.63,-37.53 157.88,-39.31 173.13,-40.98"/>
<polygon fill="midnightblue" stroke="midnightblue" points="173.17,-44.51 183.49,-42.12 173.93,-37.55 173.17,-44.51"/>
</g>
<!-- Node4 -->
<g id="node4" class="node">
<title>Node4</title>
<g id="a_node4"><a xlink:href="class_device_manager.html#ac356dbc3ba069ca92c67825081d7a8a8" target="_top" xlink:title="Returns the number of packets that need to be sent across all devices.">
<polygon fill="white" stroke="black" points="162,-0.5 162,-19.5 314,-19.5 314,-0.5 162,-0.5"/>
<text text-anchor="middle" x="238" y="-7.5" font-family="Helvetica,sans-Serif" font-size="10.00">DeviceManager::txRequired</text>
</a>
</g>
</g>
<!-- Node1&#45;&gt;Node4 -->
<g id="edge3" class="edge">
<title>Node1&#45;&gt;Node4</title>
<path fill="none" stroke="midnightblue" d="M126.46,-22.14C134.74,-21.23 143.33,-20.29 151.91,-19.35"/>
<polygon fill="midnightblue" stroke="midnightblue" points="152.39,-22.81 161.95,-18.24 151.63,-15.85 152.39,-22.81"/>
</g>
<!-- Node3 -->
<g id="node3" class="node">
<title>Node3</title>
<g id="a_node3"><a xlink:href="lora_8cpp.html#adc3c5806492d2818ad6f5aff232765ec" target="_top" xlink:title=" ">
<polygon fill="white" stroke="black" points="350,-38.5 350,-57.5 450,-57.5 450,-38.5 350,-38.5"/>
<text text-anchor="middle" x="400" y="-45.5" font-family="Helvetica,sans-Serif" font-size="10.00">setAttributeState</text>
</a>
</g>
</g>
<!-- Node2&#45;&gt;Node3 -->
<g id="edge2" class="edge">
<title>Node2&#45;&gt;Node3</title>
<path fill="none" stroke="midnightblue" d="M292.72,-48C307.77,-48 324.21,-48 339.57,-48"/>
<polygon fill="midnightblue" stroke="midnightblue" points="340,-51.5 350,-48 340,-44.5 340,-51.5"/>
</g>
</g>
</svg>
