<?xml version="1.0" encoding="UTF-8" standalone="no"?>
<!DOCTYPE svg PUBLIC "-//W3C//DTD SVG 1.1//EN"
 "http://www.w3.org/Graphics/SVG/1.1/DTD/svg11.dtd">
<!-- Generated by graphviz version 2.43.0 (0)
 -->
<!-- Title: sendTxWaitingMsg Pages: 1 -->
<svg width="464pt" height="47pt"
 viewBox="0.00 0.00 464.00 47.00" xmlns="http://www.w3.org/2000/svg" xmlns:xlink="http://www.w3.org/1999/xlink">
<g id="graph0" class="graph" transform="scale(1 1) rotate(0) translate(4 43)">
<title>sendTxWaitingMsg</title>
<polygon fill="white" stroke="transparent" points="-4,4 -4,-43 460,-43 460,4 -4,4"/>
<!-- Node1 -->
<g id="node1" class="node">
<title>Node1</title>
<g id="a_node1"><a xlink:title="Sets the state for if there are packets left to send.">
<polygon fill="#bfbfbf" stroke="black" points="347,-19.5 347,-38.5 456,-38.5 456,-19.5 347,-19.5"/>
<text text-anchor="middle" x="401.5" y="-26.5" font-family="Helvetica,sans-Serif" font-size="10.00">sendTxWaitingMsg</text>
</a>
</g>
</g>
<!-- Node2 -->
<g id="node2" class="node">
<title>Node2</title>
<g id="a_node2"><a xlink:href="lora_8cpp.html#aa56d712b5af48cc40bd9ef0dac6cb797" target="_top" xlink:title="Task for sending packets when needed.">
<polygon fill="white" stroke="black" points="80,-19.5 80,-38.5 149,-38.5 149,-19.5 80,-19.5"/>
<text text-anchor="middle" x="114.5" y="-26.5" font-family="Helvetica,sans-Serif" font-size="10.00">loraTxTask</text>
</a>
</g>
</g>
<!-- Node1&#45;&gt;Node2 -->
<g id="edge1" class="edge">
<title>Node1&#45;&gt;Node2</title>
<path fill="none" stroke="midnightblue" d="M336.73,-29C278.69,-29 195.27,-29 149.22,-29"/>
<polygon fill="midnightblue" stroke="midnightblue" points="336.89,-32.5 346.89,-29 336.89,-25.5 336.89,-32.5"/>
</g>
<!-- Node4 -->
<g id="node4" class="node">
<title>Node4</title>
<g id="a_node4"><a xlink:href="lora_8cpp.html#ab4d91a7f25182323f789a4e986c08cd8" target="_top" xlink:title="Updates the attribute waiting to false if required.">
<polygon fill="white" stroke="black" points="185,-0.5 185,-19.5 311,-19.5 311,-0.5 185,-0.5"/>
<text text-anchor="middle" x="248" y="-7.5" font-family="Helvetica,sans-Serif" font-size="10.00">sendOnTxNotRequired</text>
</a>
</g>
</g>
<!-- Node1&#45;&gt;Node4 -->
<g id="edge3" class="edge">
<title>Node1&#45;&gt;Node4</title>
<path fill="none" stroke="midnightblue" d="M336.55,-20.98C328.15,-19.93 319.56,-18.85 311.2,-17.8"/>
<polygon fill="midnightblue" stroke="midnightblue" points="336.3,-24.48 346.66,-22.25 337.17,-17.53 336.3,-24.48"/>
</g>
<!-- Node3 -->
<g id="node3" class="node">
<title>Node3</title>
<g id="a_node3"><a xlink:href="main_8cpp.html#a4fc01d736fe50cf5b977f755b675f11d" target="_top" xlink:title=" ">
<polygon fill="white" stroke="black" points="0,-19.5 0,-38.5 44,-38.5 44,-19.5 0,-19.5"/>
<text text-anchor="middle" x="22" y="-26.5" font-family="Helvetica,sans-Serif" font-size="10.00">setup</text>
</a>
</g>
</g>
<!-- Node2&#45;&gt;Node3 -->
<g id="edge2" class="edge">
<title>Node2&#45;&gt;Node3</title>
<path fill="none" stroke="midnightblue" d="M69.52,-29C60.66,-29 51.74,-29 44.11,-29"/>
<polygon fill="midnightblue" stroke="midnightblue" points="69.8,-32.5 79.8,-29 69.8,-25.5 69.8,-32.5"/>
</g>
<!-- Node4&#45;&gt;Node2 -->
<g id="edge4" class="edge">
<title>Node4&#45;&gt;Node2</title>
<path fill="none" stroke="midnightblue" d="M174.69,-20.45C165.85,-21.73 157.16,-22.98 149.28,-24.12"/>
<polygon fill="midnightblue" stroke="midnightblue" points="175.32,-23.89 184.72,-19 174.32,-16.97 175.32,-23.89"/>
</g>
</g>
</svg>
