<?xml version="1.0" encoding="UTF-8" standalone="no"?>
<!DOCTYPE svg PUBLIC "-//W3C//DTD SVG 1.1//EN"
 "http://www.w3.org/Graphics/SVG/1.1/DTD/svg11.dtd">
<!-- Generated by graphviz version 2.43.0 (0)
 -->
<!-- Title: BaseStationCode/src/main.cpp Pages: 1 -->
<!--zoomable 543 -->
<svg id="main" version="1.1" xmlns="http://www.w3.org/2000/svg" xmlns:xlink="http://www.w3.org/1999/xlink" xml:space="preserve" onload="init(evt)">
<style type="text/css"><![CDATA[
.edge:hover path { stroke: red; }
.edge:hover polygon { stroke: red; fill: red; }
]]></style>
<script type="text/javascript"><![CDATA[
var edges = document.getElementsByTagName('g');
if (edges && edges.length) {
  for (var i=0;i<edges.length;i++) {
    if (edges[i].id.substr(0,4)=='edge') {
      edges[i].setAttribute('class','edge');
    }
  }
}
]]></script>
        <defs>
                <circle id="rim" cx="0" cy="0" r="7"/>
                <circle id="rim2" cx="0" cy="0" r="3.5"/>
                <g id="zoomPlus">
                        <use xlink:href="#rim" fill="#404040">
                                <set attributeName="fill" to="#808080" begin="zoomplus.mouseover" end="zoomplus.mouseout"/>
                        </use>
                        <path d="M-4,0h8M0,-4v8" fill="none" stroke="white" stroke-width="1.5" pointer-events="none"/>
                </g>
                <g id="zoomMin">
                        <use xlink:href="#rim" fill="#404040">
                                <set attributeName="fill" to="#808080" begin="zoomminus.mouseover" end="zoomminus.mouseout"/>
                        </use>
                        <path d="M-4,0h8" fill="none" stroke="white" stroke-width="1.5" pointer-events="none"/>
                </g>
                <g id="dirArrow">
                        <path fill="none" stroke="white" stroke-width="1.5" d="M0,-3.0v7 M-2.5,-0.5L0,-3.0L2.5,-0.5"/>
                </g>
               <g id="resetDef">
                       <use xlink:href="#rim2" fill="#404040">
                               <set attributeName="fill" to="#808080" begin="reset.mouseover" end="reset.mouseout"/>
                       </use>
               </g>
        </defs>

<script type="text/javascript">
var viewWidth = 805;
var viewHeight = 543;
var sectionId = 'dynsection-0';
</script>
<script xlink:href="svgpan.js"/>
<svg id="graph" class="graph">
<g id="viewport">
<title>BaseStationCode/src/main.cpp</title>
<polygon fill="white" stroke="transparent" points="-4,4 -4,-539 801,-539 801,4 -4,4"/>
<!-- Node1 -->
<g id="node1" class="node">
<title>Node1</title>
<g id="a_node1"><a xlink:title=" ">
<polygon fill="#bfbfbf" stroke="black" points="286.5,-504.5 286.5,-534.5 403.5,-534.5 403.5,-504.5 286.5,-504.5"/>
<text text-anchor="start" x="294.5" y="-522.5" font-family="Helvetica,sans-Serif" font-size="10.00">BaseStationCode/src</text>
<text text-anchor="middle" x="345" y="-511.5" font-family="Helvetica,sans-Serif" font-size="10.00">/main.cpp</text>
</a>
</g>
</g>
<!-- Node2 -->
<g id="node2" class="node">
<title>Node2</title>
<g id="a_node2"><a xlink:href="defines_8h.html" target="_top" xlink:title="Definitions and other preprocessor and global stuff.">
<polygon fill="white" stroke="black" points="394.5,-56.5 394.5,-75.5 455.5,-75.5 455.5,-56.5 394.5,-56.5"/>
<text text-anchor="middle" x="425" y="-63.5" font-family="Helvetica,sans-Serif" font-size="10.00">defines.h</text>
</a>
</g>
</g>
<!-- Node1&#45;&gt;Node2 -->
<g id="edge1" class="edge">
<title>Node1&#45;&gt;Node2</title>
<path fill="none" stroke="midnightblue" d="M403.69,-509.24C494.58,-493.22 659,-456.8 659,-403 659,-403 659,-403 659,-177 659,-92.63 532.88,-72.85 465.82,-68.3"/>
<polygon fill="midnightblue" stroke="midnightblue" points="465.78,-64.79 455.59,-67.69 465.37,-71.78 465.78,-64.79"/>
</g>
<!-- Node11 -->
<g id="node11" class="node">
<title>Node11</title>
<g id="a_node11"><a xlink:href="device__list_8h.html" target="_top" xlink:title="List of all devices and fields known to the system.">
<polygon fill="white" stroke="black" points="414,-280.5 414,-299.5 492,-299.5 492,-280.5 414,-280.5"/>
<text text-anchor="middle" x="453" y="-287.5" font-family="Helvetica,sans-Serif" font-size="10.00">device_list.h</text>
</a>
</g>
</g>
<!-- Node1&#45;&gt;Node11 -->
<g id="edge10" class="edge">
<title>Node1&#45;&gt;Node11</title>
<path fill="none" stroke="midnightblue" d="M403.63,-507.5C425.79,-500.18 448.81,-488.06 462,-468 494.49,-418.59 473.12,-343.6 460.45,-309.29"/>
<polygon fill="midnightblue" stroke="midnightblue" points="463.6,-307.73 456.72,-299.67 457.07,-310.26 463.6,-307.73"/>
</g>
<!-- Node16 -->
<g id="node16" class="node">
<title>Node16</title>
<g id="a_node16"><a xlink:href="networking_8h.html" target="_top" xlink:title="Header file for networking.cpp.">
<polygon fill="white" stroke="black" points="248,-392.5 248,-411.5 346,-411.5 346,-392.5 248,-392.5"/>
<text text-anchor="middle" x="297" y="-399.5" font-family="Helvetica,sans-Serif" font-size="10.00">src/networking.h</text>
</a>
</g>
</g>
<!-- Node1&#45;&gt;Node16 -->
<g id="edge21" class="edge">
<title>Node1&#45;&gt;Node16</title>
<path fill="none" stroke="midnightblue" d="M329.49,-504.12C320.45,-494.76 309.73,-481.76 304,-468 297.93,-453.41 296.39,-435.47 296.25,-422.13"/>
<polygon fill="midnightblue" stroke="midnightblue" points="299.75,-421.85 296.41,-411.8 292.75,-421.74 299.75,-421.85"/>
</g>
<!-- Node17 -->
<g id="node17" class="node">
<title>Node17</title>
<g id="a_node17"><a xlink:href="lora_8h.html" target="_top" xlink:title="File that handles the LoRa radio and PJON.">
<polygon fill="white" stroke="black" points="225,-336.5 225,-355.5 269,-355.5 269,-336.5 225,-336.5"/>
<text text-anchor="middle" x="247" y="-343.5" font-family="Helvetica,sans-Serif" font-size="10.00">lora.h</text>
</a>
</g>
</g>
<!-- Node1&#45;&gt;Node17 -->
<g id="edge37" class="edge">
<title>Node1&#45;&gt;Node17</title>
<path fill="none" stroke="midnightblue" d="M322.88,-504.4C297.11,-486.51 255.92,-452.99 239,-412 232.84,-397.07 235.98,-378.7 239.99,-365.3"/>
<polygon fill="midnightblue" stroke="midnightblue" points="243.32,-366.38 243.24,-355.78 236.7,-364.12 243.32,-366.38"/>
</g>
<!-- Node18 -->
<g id="node18" class="node">
<title>Node18</title>
<g id="a_node18"><a xlink:href="rpc_8h.html" target="_top" xlink:title="Handles RPC calls.">
<polygon fill="white" stroke="black" points="126.5,-280.5 126.5,-299.5 167.5,-299.5 167.5,-280.5 126.5,-280.5"/>
<text text-anchor="middle" x="147" y="-287.5" font-family="Helvetica,sans-Serif" font-size="10.00">rpc.h</text>
</a>
</g>
</g>
<!-- Node1&#45;&gt;Node18 -->
<g id="edge38" class="edge">
<title>Node1&#45;&gt;Node18</title>
<path fill="none" stroke="midnightblue" d="M312.72,-504.49C295.15,-495.76 273.82,-483.29 258,-468 207.65,-419.34 170.12,-343.43 154.7,-309.03"/>
<polygon fill="midnightblue" stroke="midnightblue" points="157.86,-307.51 150.64,-299.76 151.45,-310.32 157.86,-307.51"/>
</g>
<!-- Node19 -->
<g id="node19" class="node">
<title>Node19</title>
<g id="a_node19"><a xlink:href="alarm_8h.html" target="_top" xlink:title="Handles alarms.">
<polygon fill="white" stroke="black" points="0,-224.5 0,-243.5 54,-243.5 54,-224.5 0,-224.5"/>
<text text-anchor="middle" x="27" y="-231.5" font-family="Helvetica,sans-Serif" font-size="10.00">alarm.h</text>
</a>
</g>
</g>
<!-- Node1&#45;&gt;Node19 -->
<g id="edge39" class="edge">
<title>Node1&#45;&gt;Node19</title>
<path fill="none" stroke="midnightblue" d="M286.25,-508.31C198.65,-491.43 44,-454.35 44,-403 44,-403 44,-403 44,-345 44,-312.58 36.7,-275.42 31.67,-253.64"/>
<polygon fill="midnightblue" stroke="midnightblue" points="35.03,-252.67 29.29,-243.77 28.23,-254.31 35.03,-252.67"/>
</g>
<!-- Node20 -->
<g id="node20" class="node">
<title>Node20</title>
<g id="a_node20"><a xlink:href="audio_8h.html" target="_top" xlink:title="Plays audio.">
<polygon fill="white" stroke="black" points="561,-392.5 561,-411.5 631,-411.5 631,-392.5 561,-392.5"/>
<text text-anchor="middle" x="596" y="-399.5" font-family="Helvetica,sans-Serif" font-size="10.00">src/audio.h</text>
</a>
</g>
</g>
<!-- Node1&#45;&gt;Node20 -->
<g id="edge40" class="edge">
<title>Node1&#45;&gt;Node20</title>
<path fill="none" stroke="midnightblue" d="M397.65,-504.47C427.27,-495.7 464.51,-483.2 496,-468 525.76,-453.64 557.27,-431.93 576.79,-417.61"/>
<polygon fill="midnightblue" stroke="midnightblue" points="578.93,-420.38 584.86,-411.6 574.75,-414.76 578.93,-420.38"/>
</g>
<!-- Node21 -->
<g id="node21" class="node">
<title>Node21</title>
<g id="a_node21"><a xlink:href="leds_8h.html" target="_top" xlink:title="Controls the LEDs on the unit.">
<polygon fill="white" stroke="black" points="313.5,-448.5 313.5,-467.5 376.5,-467.5 376.5,-448.5 313.5,-448.5"/>
<text text-anchor="middle" x="345" y="-455.5" font-family="Helvetica,sans-Serif" font-size="10.00">src/leds.h</text>
</a>
</g>
</g>
<!-- Node1&#45;&gt;Node21 -->
<g id="edge42" class="edge">
<title>Node1&#45;&gt;Node21</title>
<path fill="none" stroke="midnightblue" d="M345,-504.4C345,-496.47 345,-486.46 345,-477.86"/>
<polygon fill="midnightblue" stroke="midnightblue" points="348.5,-477.66 345,-467.66 341.5,-477.66 348.5,-477.66"/>
</g>
<!-- Node22 -->
<g id="node22" class="node">
<title>Node22</title>
<g id="a_node22"><a xlink:href="ota_8h.html" target="_top" xlink:title="Handles over the air (OTA) updates.">
<polygon fill="white" stroke="black" points="394.5,-448.5 394.5,-467.5 453.5,-467.5 453.5,-448.5 394.5,-448.5"/>
<text text-anchor="middle" x="424" y="-455.5" font-family="Helvetica,sans-Serif" font-size="10.00">src/ota.h</text>
</a>
</g>
</g>
<!-- Node1&#45;&gt;Node22 -->
<g id="edge47" class="edge">
<title>Node1&#45;&gt;Node22</title>
<path fill="none" stroke="midnightblue" d="M363.72,-504.4C375.91,-495.22 391.79,-483.26 404.19,-473.92"/>
<polygon fill="midnightblue" stroke="midnightblue" points="406.62,-476.47 412.5,-467.66 402.41,-470.88 406.62,-476.47"/>
</g>
<!-- Node3 -->
<g id="node3" class="node">
<title>Node3</title>
<g id="a_node3"><a xlink:title=" ">
<polygon fill="white" stroke="#bfbfbf" points="462,-0.5 462,-19.5 542,-19.5 542,-0.5 462,-0.5"/>
<text text-anchor="middle" x="502" y="-7.5" font-family="Helvetica,sans-Serif" font-size="10.00">credentials.h</text>
</a>
</g>
</g>
<!-- Node2&#45;&gt;Node3 -->
<g id="edge2" class="edge">
<title>Node2&#45;&gt;Node3</title>
<path fill="none" stroke="midnightblue" d="M437.37,-56.32C449.16,-48.06 467.13,-35.45 481.14,-25.63"/>
<polygon fill="midnightblue" stroke="midnightblue" points="483.48,-28.26 489.66,-19.65 479.46,-22.53 483.48,-28.26"/>
</g>
<!-- Node4 -->
<g id="node4" class="node">
<title>Node4</title>
<g id="a_node4"><a xlink:title=" ">
<polygon fill="white" stroke="#bfbfbf" points="560.5,-0.5 560.5,-19.5 623.5,-19.5 623.5,-0.5 560.5,-0.5"/>
<text text-anchor="middle" x="592" y="-7.5" font-family="Helvetica,sans-Serif" font-size="10.00">Arduino.h</text>
</a>
</g>
</g>
<!-- Node2&#45;&gt;Node4 -->
<g id="edge3" class="edge">
<title>Node2&#45;&gt;Node4</title>
<path fill="none" stroke="midnightblue" d="M451.46,-56.44C479.68,-47.32 524.54,-32.81 555.97,-22.65"/>
<polygon fill="midnightblue" stroke="midnightblue" points="557.22,-25.92 565.66,-19.52 555.07,-19.26 557.22,-25.92"/>
</g>
<!-- Node5 -->
<g id="node5" class="node">
<title>Node5</title>
<g id="a_node5"><a xlink:title=" ">
<polygon fill="white" stroke="#bfbfbf" points="641.5,-0.5 641.5,-19.5 688.5,-19.5 688.5,-0.5 641.5,-0.5"/>
<text text-anchor="middle" x="665" y="-7.5" font-family="Helvetica,sans-Serif" font-size="10.00">WiFi.h</text>
</a>
</g>
</g>
<!-- Node2&#45;&gt;Node5 -->
<g id="edge4" class="edge">
<title>Node2&#45;&gt;Node5</title>
<path fill="none" stroke="midnightblue" d="M455.63,-58.86C494.23,-51.01 562.84,-36.69 631.17,-20.1"/>
<polygon fill="midnightblue" stroke="midnightblue" points="632.36,-23.41 641.25,-17.64 630.7,-16.61 632.36,-23.41"/>
</g>
<!-- Node6 -->
<g id="node6" class="node">
<title>Node6</title>
<g id="a_node6"><a xlink:title=" ">
<polygon fill="white" stroke="#bfbfbf" points="707,-0.5 707,-19.5 797,-19.5 797,-0.5 707,-0.5"/>
<text text-anchor="middle" x="752" y="-7.5" font-family="Helvetica,sans-Serif" font-size="10.00">PubSubClient.h</text>
</a>
</g>
</g>
<!-- Node2&#45;&gt;Node6 -->
<g id="edge5" class="edge">
<title>Node2&#45;&gt;Node6</title>
<path fill="none" stroke="midnightblue" d="M455.71,-59.96C504.51,-51.94 603.06,-35.73 696.97,-20.17"/>
<polygon fill="midnightblue" stroke="midnightblue" points="697.63,-23.61 706.92,-18.52 696.48,-16.7 697.63,-23.61"/>
</g>
<!-- Node7 -->
<g id="node7" class="node">
<title>Node7</title>
<g id="a_node7"><a xlink:title=" ">
<polygon fill="white" stroke="#bfbfbf" points="136.5,-0.5 136.5,-19.5 219.5,-19.5 219.5,-0.5 136.5,-0.5"/>
<text text-anchor="middle" x="178" y="-7.5" font-family="Helvetica,sans-Serif" font-size="10.00">ArduinoJson.h</text>
</a>
</g>
</g>
<!-- Node2&#45;&gt;Node7 -->
<g id="edge6" class="edge">
<title>Node2&#45;&gt;Node7</title>
<path fill="none" stroke="midnightblue" d="M394.22,-58.27C352.23,-49.09 276.57,-32.55 226.81,-21.67"/>
<polygon fill="midnightblue" stroke="midnightblue" points="227.43,-18.22 216.91,-19.51 225.93,-25.06 227.43,-18.22"/>
</g>
<!-- Node8 -->
<g id="node8" class="node">
<title>Node8</title>
<g id="a_node8"><a xlink:title=" ">
<polygon fill="white" stroke="#bfbfbf" points="238,-0.5 238,-19.5 348,-19.5 348,-0.5 238,-0.5"/>
<text text-anchor="middle" x="293" y="-7.5" font-family="Helvetica,sans-Serif" font-size="10.00">PJONThroughLora.h</text>
</a>
</g>
</g>
<!-- Node2&#45;&gt;Node8 -->
<g id="edge7" class="edge">
<title>Node2&#45;&gt;Node8</title>
<path fill="none" stroke="midnightblue" d="M404.08,-56.44C382.26,-47.52 347.85,-33.44 323.11,-23.32"/>
<polygon fill="midnightblue" stroke="midnightblue" points="324.4,-20.06 313.82,-19.52 321.75,-26.54 324.4,-20.06"/>
</g>
<!-- Node9 -->
<g id="node9" class="node">
<title>Node9</title>
<g id="a_node9"><a xlink:title=" ">
<polygon fill="white" stroke="#bfbfbf" points="366,-0.5 366,-19.5 444,-19.5 444,-0.5 366,-0.5"/>
<text text-anchor="middle" x="405" y="-7.5" font-family="Helvetica,sans-Serif" font-size="10.00">TunePlayer.h</text>
</a>
</g>
</g>
<!-- Node2&#45;&gt;Node9 -->
<g id="edge8" class="edge">
<title>Node2&#45;&gt;Node9</title>
<path fill="none" stroke="midnightblue" d="M421.7,-56.08C419.02,-48.85 415.15,-38.41 411.81,-29.4"/>
<polygon fill="midnightblue" stroke="midnightblue" points="415,-27.91 408.24,-19.75 408.43,-30.34 415,-27.91"/>
</g>
<!-- Node10 -->
<g id="node10" class="node">
<title>Node10</title>
<g id="a_node10"><a xlink:href="topics_8h.html" target="_top" xlink:title="MQTT topics for a thingsboard gateway.">
<polygon fill="white" stroke="black" points="46,-0.5 46,-19.5 118,-19.5 118,-0.5 46,-0.5"/>
<text text-anchor="middle" x="82" y="-7.5" font-family="Helvetica,sans-Serif" font-size="10.00">src/topics.h</text>
</a>
</g>
</g>
<!-- Node2&#45;&gt;Node10 -->
<g id="edge9" class="edge">
<title>Node2&#45;&gt;Node10</title>
<path fill="none" stroke="midnightblue" d="M394.46,-60.88C342.1,-53.7 231.59,-38.1 128.29,-20.16"/>
<polygon fill="midnightblue" stroke="midnightblue" points="128.77,-16.69 118.32,-18.42 127.57,-23.59 128.77,-16.69"/>
</g>
<!-- Node12 -->
<g id="node12" class="node">
<title>Node12</title>
<g id="a_node12"><a xlink:href="fields_8h.html" target="_top" xlink:title="Contains fields classes.">
<polygon fill="white" stroke="black" points="301.5,-168.5 301.5,-187.5 370.5,-187.5 370.5,-168.5 301.5,-168.5"/>
<text text-anchor="middle" x="336" y="-175.5" font-family="Helvetica,sans-Serif" font-size="10.00">src/fields.h</text>
</a>
</g>
</g>
<!-- Node11&#45;&gt;Node12 -->
<g id="edge11" class="edge">
<title>Node11&#45;&gt;Node12</title>
<path fill="none" stroke="midnightblue" d="M443.82,-280.37C424.17,-261.89 377.79,-218.29 352.75,-194.74"/>
<polygon fill="midnightblue" stroke="midnightblue" points="354.82,-191.89 345.14,-187.59 350.03,-196.99 354.82,-191.89"/>
</g>
<!-- Node15 -->
<g id="node15" class="node">
<title>Node15</title>
<g id="a_node15"><a xlink:href="devices_8h.html" target="_top" xlink:title="Devices and manager for all known devices the base station connects to.">
<polygon fill="white" stroke="black" points="283,-224.5 283,-243.5 363,-243.5 363,-224.5 283,-224.5"/>
<text text-anchor="middle" x="323" y="-231.5" font-family="Helvetica,sans-Serif" font-size="10.00">src/devices.h</text>
</a>
</g>
</g>
<!-- Node11&#45;&gt;Node15 -->
<g id="edge17" class="edge">
<title>Node11&#45;&gt;Node15</title>
<path fill="none" stroke="midnightblue" d="M432.4,-280.44C411.01,-271.56 377.32,-257.56 352.98,-247.45"/>
<polygon fill="midnightblue" stroke="midnightblue" points="354.08,-244.12 343.5,-243.52 351.39,-250.58 354.08,-244.12"/>
</g>
<!-- Node12&#45;&gt;Node2 -->
<g id="edge12" class="edge">
<title>Node12&#45;&gt;Node2</title>
<path fill="none" stroke="midnightblue" d="M347.91,-168.28C358.92,-159.82 375.3,-146.23 387,-132 399.04,-117.36 409.64,-98.45 416.56,-84.8"/>
<polygon fill="midnightblue" stroke="midnightblue" points="419.84,-86.07 421.1,-75.55 413.55,-82.98 419.84,-86.07"/>
</g>
<!-- Node13 -->
<g id="node13" class="node">
<title>Node13</title>
<g id="a_node13"><a xlink:href="lookups_8h.html" target="_top" xlink:title="Lookupable and lookupable manager base classes.">
<polygon fill="white" stroke="black" points="212.5,-112.5 212.5,-131.5 275.5,-131.5 275.5,-112.5 212.5,-112.5"/>
<text text-anchor="middle" x="244" y="-119.5" font-family="Helvetica,sans-Serif" font-size="10.00">lookups.h</text>
</a>
</g>
</g>
<!-- Node12&#45;&gt;Node13 -->
<g id="edge13" class="edge">
<title>Node12&#45;&gt;Node13</title>
<path fill="none" stroke="midnightblue" d="M321.22,-168.32C306.73,-159.82 284.43,-146.73 267.51,-136.8"/>
<polygon fill="midnightblue" stroke="midnightblue" points="269.14,-133.7 258.74,-131.65 265.6,-139.74 269.14,-133.7"/>
</g>
<!-- Node14 -->
<g id="node14" class="node">
<title>Node14</title>
<g id="a_node14"><a xlink:href="conversions_8h.html" target="_top" xlink:title="General functions for converting to and from char arrays.">
<polygon fill="white" stroke="black" points="294,-112.5 294,-131.5 378,-131.5 378,-112.5 294,-112.5"/>
<text text-anchor="middle" x="336" y="-119.5" font-family="Helvetica,sans-Serif" font-size="10.00">conversions.h</text>
</a>
</g>
</g>
<!-- Node12&#45;&gt;Node14 -->
<g id="edge15" class="edge">
<title>Node12&#45;&gt;Node14</title>
<path fill="none" stroke="midnightblue" d="M336,-168.08C336,-161.01 336,-150.86 336,-141.99"/>
<polygon fill="midnightblue" stroke="midnightblue" points="339.5,-141.75 336,-131.75 332.5,-141.75 339.5,-141.75"/>
</g>
<!-- Node13&#45;&gt;Node2 -->
<g id="edge14" class="edge">
<title>Node13&#45;&gt;Node2</title>
<path fill="none" stroke="midnightblue" d="M272.68,-112.44C303.53,-103.24 352.73,-88.56 386.83,-78.39"/>
<polygon fill="midnightblue" stroke="midnightblue" points="387.87,-81.73 396.45,-75.52 385.87,-75.02 387.87,-81.73"/>
</g>
<!-- Node14&#45;&gt;Node2 -->
<g id="edge16" class="edge">
<title>Node14&#45;&gt;Node2</title>
<path fill="none" stroke="midnightblue" d="M350.3,-112.32C364.18,-103.9 385.49,-90.97 401.8,-81.07"/>
<polygon fill="midnightblue" stroke="midnightblue" points="404,-83.83 410.74,-75.65 400.37,-77.85 404,-83.83"/>
</g>
<!-- Node15&#45;&gt;Node2 -->
<g id="edge18" class="edge">
<title>Node15&#45;&gt;Node2</title>
<path fill="none" stroke="midnightblue" d="M336.79,-224.34C349.04,-216.13 366.84,-202.86 379,-188 404.18,-157.23 416.53,-111.21 421.75,-85.7"/>
<polygon fill="midnightblue" stroke="midnightblue" points="425.25,-86.03 423.67,-75.56 418.37,-84.73 425.25,-86.03"/>
</g>
<!-- Node15&#45;&gt;Node12 -->
<g id="edge20" class="edge">
<title>Node15&#45;&gt;Node12</title>
<path fill="none" stroke="midnightblue" d="M325.15,-224.08C326.87,-216.93 329.35,-206.64 331.5,-197.69"/>
<polygon fill="midnightblue" stroke="midnightblue" points="334.96,-198.29 333.89,-187.75 328.15,-196.65 334.96,-198.29"/>
</g>
<!-- Node15&#45;&gt;Node13 -->
<g id="edge19" class="edge">
<title>Node15&#45;&gt;Node13</title>
<path fill="none" stroke="midnightblue" d="M316.8,-224.37C303.76,-206.22 273.3,-163.8 256.2,-139.99"/>
<polygon fill="midnightblue" stroke="midnightblue" points="258.85,-137.67 250.17,-131.59 253.16,-141.76 258.85,-137.67"/>
</g>
<!-- Node16&#45;&gt;Node2 -->
<g id="edge22" class="edge">
<title>Node16&#45;&gt;Node2</title>
<path fill="none" stroke="midnightblue" d="M303.09,-392.27C325.31,-359.81 402.01,-242.28 427,-132 430.47,-116.67 429.58,-98.79 428.04,-85.67"/>
<polygon fill="midnightblue" stroke="midnightblue" points="431.47,-84.96 426.61,-75.54 424.54,-85.93 431.47,-84.96"/>
</g>
<!-- Node16&#45;&gt;Node15 -->
<g id="edge23" class="edge">
<title>Node16&#45;&gt;Node15</title>
<path fill="none" stroke="midnightblue" d="M298.4,-392.08C302.49,-365.95 314.51,-289.21 320.09,-253.58"/>
<polygon fill="midnightblue" stroke="midnightblue" points="323.57,-253.99 321.66,-243.57 316.65,-252.91 323.57,-253.99"/>
</g>
<!-- Node16&#45;&gt;Node17 -->
<g id="edge24" class="edge">
<title>Node16&#45;&gt;Node17</title>
<path fill="none" stroke="midnightblue" d="M283.85,-392.32C275.09,-384.65 264.13,-373.25 256.25,-363.8"/>
<polygon fill="midnightblue" stroke="midnightblue" points="258.94,-361.56 250.03,-355.83 253.43,-365.87 258.94,-361.56"/>
</g>
<!-- Node17&#45;&gt;Node2 -->
<g id="edge25" class="edge">
<title>Node17&#45;&gt;Node2</title>
<path fill="none" stroke="midnightblue" d="M240.93,-336.18C218.7,-302.69 145.93,-181.79 203,-112 225.44,-84.56 326.37,-73.45 384.11,-69.28"/>
<polygon fill="midnightblue" stroke="midnightblue" points="384.62,-72.75 394.36,-68.58 384.15,-65.77 384.62,-72.75"/>
</g>
<!-- Node17&#45;&gt;Node13 -->
<g id="edge26" class="edge">
<title>Node17&#45;&gt;Node13</title>
<path fill="none" stroke="midnightblue" d="M246.88,-336.3C246.44,-303.63 244.88,-187.87 244.26,-141.96"/>
<polygon fill="midnightblue" stroke="midnightblue" points="247.75,-141.84 244.12,-131.88 240.76,-141.93 247.75,-141.84"/>
</g>
<!-- Node17&#45;&gt;Node15 -->
<g id="edge27" class="edge">
<title>Node17&#45;&gt;Node15</title>
<path fill="none" stroke="midnightblue" d="M252.96,-336.37C265.51,-318.22 294.81,-275.8 311.26,-251.99"/>
<polygon fill="midnightblue" stroke="midnightblue" points="314.26,-253.81 317.06,-243.59 308.5,-249.83 314.26,-253.81"/>
</g>
<!-- Node17&#45;&gt;Node16 -->
<g id="edge28" class="edge">
<title>Node17&#45;&gt;Node16</title>
<path fill="none" stroke="midnightblue" d="M260.23,-355.75C268.96,-363.4 279.85,-374.74 287.7,-384.14"/>
<polygon fill="midnightblue" stroke="midnightblue" points="284.99,-386.36 293.91,-392.08 290.51,-382.05 284.99,-386.36"/>
</g>
<!-- Node17&#45;&gt;Node18 -->
<g id="edge29" class="edge">
<title>Node17&#45;&gt;Node18</title>
<path fill="none" stroke="midnightblue" d="M230.93,-336.32C215.04,-327.74 190.49,-314.49 172.04,-304.52"/>
<polygon fill="midnightblue" stroke="midnightblue" points="173.49,-301.33 163.03,-299.65 170.16,-307.49 173.49,-301.33"/>
</g>
<!-- Node18&#45;&gt;Node2 -->
<g id="edge30" class="edge">
<title>Node18&#45;&gt;Node2</title>
<path fill="none" stroke="midnightblue" d="M144.95,-280.14C138.9,-251.42 124.19,-159.94 170,-112 198.76,-81.9 319.35,-71.8 383.86,-68.52"/>
<polygon fill="midnightblue" stroke="midnightblue" points="384.27,-72 394.09,-68.03 383.94,-65.01 384.27,-72"/>
</g>
<!-- Node18&#45;&gt;Node10 -->
<g id="edge31" class="edge">
<title>Node18&#45;&gt;Node10</title>
<path fill="none" stroke="midnightblue" d="M137.41,-280.34C119.33,-263.02 82,-222.03 82,-179 82,-179 82,-179 82,-121 82,-88.95 82,-51.64 82,-29.75"/>
<polygon fill="midnightblue" stroke="midnightblue" points="85.5,-29.56 82,-19.56 78.5,-29.56 85.5,-29.56"/>
</g>
<!-- Node18&#45;&gt;Node12 -->
<g id="edge35" class="edge">
<title>Node18&#45;&gt;Node12</title>
<path fill="none" stroke="midnightblue" d="M161.83,-280.37C194.54,-261.33 273.09,-215.62 312.55,-192.65"/>
<polygon fill="midnightblue" stroke="midnightblue" points="314.36,-195.65 321.24,-187.59 310.84,-189.6 314.36,-195.65"/>
</g>
<!-- Node18&#45;&gt;Node15 -->
<g id="edge34" class="edge">
<title>Node18&#45;&gt;Node15</title>
<path fill="none" stroke="midnightblue" d="M167.53,-282.7C196.38,-273.85 249.39,-257.59 285.41,-246.53"/>
<polygon fill="midnightblue" stroke="midnightblue" points="286.55,-249.85 295.08,-243.57 284.49,-243.15 286.55,-249.85"/>
</g>
<!-- Node18&#45;&gt;Node16 -->
<g id="edge36" class="edge">
<title>Node18&#45;&gt;Node16</title>
<path fill="none" stroke="midnightblue" d="M154.9,-299.72C167.15,-312.93 191.82,-338.32 216,-356 232.83,-368.3 253.37,-379.68 269.56,-387.92"/>
<polygon fill="midnightblue" stroke="midnightblue" points="268.01,-391.06 278.52,-392.39 271.14,-384.79 268.01,-391.06"/>
</g>
<!-- Node18&#45;&gt;Node19 -->
<g id="edge32" class="edge">
<title>Node18&#45;&gt;Node19</title>
<path fill="none" stroke="midnightblue" d="M127.99,-280.44C108.41,-271.64 77.69,-257.81 55.27,-247.72"/>
<polygon fill="midnightblue" stroke="midnightblue" points="56.48,-244.43 45.93,-243.52 53.61,-250.81 56.48,-244.43"/>
</g>
<!-- Node19&#45;&gt;Node2 -->
<g id="edge33" class="edge">
<title>Node19&#45;&gt;Node2</title>
<path fill="none" stroke="midnightblue" d="M29.76,-224.46C37.57,-201.78 62.17,-139.86 106,-112 151.42,-83.13 308.83,-72.23 384.18,-68.6"/>
<polygon fill="midnightblue" stroke="midnightblue" points="384.42,-72.1 394.25,-68.14 384.1,-65.1 384.42,-72.1"/>
</g>
<!-- Node20&#45;&gt;Node2 -->
<g id="edge41" class="edge">
<title>Node20&#45;&gt;Node2</title>
<path fill="none" stroke="midnightblue" d="M596,-392.44C596,-373.94 596,-328.81 596,-291 596,-291 596,-291 596,-177 596,-146.2 594.38,-133.15 572,-112 543.2,-84.79 498.38,-74.01 465.8,-69.75"/>
<polygon fill="midnightblue" stroke="midnightblue" points="466.02,-66.25 455.68,-68.58 465.22,-73.2 466.02,-66.25"/>
</g>
<!-- Node21&#45;&gt;Node2 -->
<g id="edge43" class="edge">
<title>Node21&#45;&gt;Node2</title>
<path fill="none" stroke="midnightblue" d="M367.16,-448.37C414.25,-428.42 520,-374.33 520,-291 520,-291 520,-291 520,-177 520,-133.74 477.39,-99.09 449.25,-80.91"/>
<polygon fill="midnightblue" stroke="midnightblue" points="451.03,-77.9 440.69,-75.6 447.34,-83.85 451.03,-77.9"/>
</g>
<!-- Node21&#45;&gt;Node15 -->
<g id="edge46" class="edge">
<title>Node21&#45;&gt;Node15</title>
<path fill="none" stroke="midnightblue" d="M347.48,-448.47C349.96,-439.48 353.59,-424.89 355,-412 361.4,-353.69 341.18,-285.65 329.96,-253.55"/>
<polygon fill="midnightblue" stroke="midnightblue" points="333.11,-251.99 326.42,-243.78 326.53,-254.37 333.11,-251.99"/>
</g>
<!-- Node21&#45;&gt;Node16 -->
<g id="edge45" class="edge">
<title>Node21&#45;&gt;Node16</title>
<path fill="none" stroke="midnightblue" d="M337.07,-448.08C330.15,-440.3 319.93,-428.8 311.55,-419.37"/>
<polygon fill="midnightblue" stroke="midnightblue" points="314.04,-416.9 304.78,-411.75 308.81,-421.55 314.04,-416.9"/>
</g>
<!-- Node21&#45;&gt;Node19 -->
<g id="edge44" class="edge">
<title>Node21&#45;&gt;Node19</title>
<path fill="none" stroke="midnightblue" d="M319.13,-448.44C297.01,-440.57 264.76,-427.74 239,-412 158.33,-362.7 76.15,-284.33 42.65,-250.92"/>
<polygon fill="midnightblue" stroke="midnightblue" points="45.09,-248.42 35.56,-243.8 40.13,-253.35 45.09,-248.42"/>
</g>
<!-- Node22&#45;&gt;Node2 -->
<g id="edge48" class="edge">
<title>Node22&#45;&gt;Node2</title>
<path fill="none" stroke="midnightblue" d="M438.6,-448.43C473.33,-426.81 558,-366.37 558,-291 558,-291 558,-291 558,-177 558,-146.2 555.36,-134.18 534,-112 515.69,-92.99 488.18,-81.71 465.38,-75.2"/>
<polygon fill="midnightblue" stroke="midnightblue" points="466.17,-71.79 455.61,-72.62 464.38,-78.56 466.17,-71.79"/>
</g>
<!-- Node22&#45;&gt;Node16 -->
<g id="edge49" class="edge">
<title>Node22&#45;&gt;Node16</title>
<path fill="none" stroke="midnightblue" d="M403.88,-448.44C382.98,-439.56 350.07,-425.56 326.28,-415.45"/>
<polygon fill="midnightblue" stroke="midnightblue" points="327.6,-412.21 317.03,-411.52 324.86,-418.65 327.6,-412.21"/>
</g>
</g>
</svg>
        <g id="navigator" transform="translate(0 0)" fill="#404254">
                <rect fill="#f2f5e9" fill-opacity="0.5" stroke="#606060" stroke-width=".5" x="0" y="0" width="60" height="60"/>
                <use id="zoomplus" xlink:href="#zoomPlus" x="17" y="9" onmousedown="handleZoom(evt,'in')"/>
                <use id="zoomminus" xlink:href="#zoomMin" x="42" y="9" onmousedown="handleZoom(evt,'out')"/>
                <use id="reset" xlink:href="#resetDef" x="30" y="36" onmousedown="handleReset()"/>
                <g id="arrowUp" xlink:href="#dirArrow" transform="translate(30 24)" onmousedown="handlePan(0,-1)">
                  <use xlink:href="#rim" fill="#404040">
                        <set attributeName="fill" to="#808080" begin="arrowUp.mouseover" end="arrowUp.mouseout"/>
                  </use>
                  <path fill="none" stroke="white" stroke-width="1.5" d="M0,-3.0v7 M-2.5,-0.5L0,-3.0L2.5,-0.5"/>
                </g>
                <g id="arrowRight" xlink:href="#dirArrow" transform="rotate(90) translate(36 -43)" onmousedown="handlePan(1,0)">
                  <use xlink:href="#rim" fill="#404040">
                        <set attributeName="fill" to="#808080" begin="arrowRight.mouseover" end="arrowRight.mouseout"/>
                  </use>
                  <path fill="none" stroke="white" stroke-width="1.5" d="M0,-3.0v7 M-2.5,-0.5L0,-3.0L2.5,-0.5"/>
                </g>
                <g id="arrowDown" xlink:href="#dirArrow" transform="rotate(180) translate(-30 -48)" onmousedown="handlePan(0,1)">
                  <use xlink:href="#rim" fill="#404040">
                        <set attributeName="fill" to="#808080" begin="arrowDown.mouseover" end="arrowDown.mouseout"/>
                  </use>
                  <path fill="none" stroke="white" stroke-width="1.5" d="M0,-3.0v7 M-2.5,-0.5L0,-3.0L2.5,-0.5"/>
                </g>
                <g id="arrowLeft" xlink:href="#dirArrow" transform="rotate(270) translate(-36 17)" onmousedown="handlePan(-1,0)">
                  <use xlink:href="#rim" fill="#404040">
                        <set attributeName="fill" to="#808080" begin="arrowLeft.mouseover" end="arrowLeft.mouseout"/>
                  </use>
                  <path fill="none" stroke="white" stroke-width="1.5" d="M0,-3.0v7 M-2.5,-0.5L0,-3.0L2.5,-0.5"/>
                </g>
        </g>
        <svg viewBox="0 0 15 15" width="100%" height="30px" preserveAspectRatio="xMaxYMin meet">
         <g id="arrow_out" transform="scale(0.3 0.3)">
          <a xlink:href="main_8cpp__incl_org.svg" target="_base">
           <rect id="button" ry="5" rx="5" y="6" x="6" height="38" width="38"
                fill="#f2f5e9" fill-opacity="0.5" stroke="#606060" stroke-width="1.0"/>
           <path id="arrow"
             d="M 11.500037,31.436501 C 11.940474,20.09759 22.043105,11.32322 32.158766,21.979434 L 37.068811,17.246167 C 37.068811,17.246167 37.088388,32 37.088388,32 L 22.160133,31.978069 C 22.160133,31.978069 26.997745,27.140456 26.997745,27.140456 C 18.528582,18.264221 13.291696,25.230495 11.500037,31.436501 z"
             style="fill:#404040;"/>
          </a>
         </g>
        </svg>
</svg>
