<?xml version="1.0" encoding="UTF-8" standalone="no"?>
<!DOCTYPE svg PUBLIC "-//W3C//DTD SVG 1.1//EN"
 "http://www.w3.org/Graphics/SVG/1.1/DTD/svg11.dtd">
<!-- Generated by graphviz version 2.43.0 (0)
 -->
<!-- Title: setup Pages: 1 -->
<svg width="974pt" height="643pt"
 viewBox="0.00 0.00 974.00 643.00" xmlns="http://www.w3.org/2000/svg" xmlns:xlink="http://www.w3.org/1999/xlink">
<g id="graph0" class="graph" transform="scale(1 1) rotate(0) translate(4 639)">
<title>setup</title>
<!-- Node1 -->
<g id="Node000001" class="node">
<title>Node1</title>
<g id="a_Node000001"><a xlink:title=" ">
<polygon fill="#999999" stroke="#666666" points="44,-483 0,-483 0,-464 44,-464 44,-483"/>
<text text-anchor="middle" x="22" y="-471" font-family="Helvetica,sans-Serif" font-size="10.00">setup</text>
</a>
</g>
</g>
<!-- Node2 -->
<g id="Node000002" class="node">
<title>Node2</title>
<g id="a_Node000002"><a xlink:href="alarm_8cpp.html#a6a2ca661c69cdb3d565c511a44da3a3e" target="_top" xlink:title="Task for managing the alarm mode.">
<polygon fill="white" stroke="#666666" points="160,-558 93,-558 93,-539 160,-539 160,-558"/>
<text text-anchor="middle" x="126.5" y="-546" font-family="Helvetica,sans-Serif" font-size="10.00">alarmTask</text>
</a>
</g>
</g>
<!-- Node1&#45;&gt;Node2 -->
<g id="edge1_Node000001_Node000002" class="edge">
<title>Node1&#45;&gt;Node2</title>
<g id="a_edge1_Node000001_Node000002"><a xlink:title=" ">
<path fill="none" stroke="#63b8ff" d="M30.53,-483.18C40.63,-495.6 59.65,-517.13 80,-530.5 82.25,-531.98 84.64,-533.37 87.11,-534.67"/>
<polygon fill="#63b8ff" stroke="#63b8ff" points="85.68,-537.86 96.22,-538.97 88.67,-531.53 85.68,-537.86"/>
</a>
</g>
</g>
<!-- Node3 -->
<g id="Node000003" class="node">
<title>Node3</title>
<g id="a_Node000003"><a xlink:href="leds_8cpp.html#a0e9abc4adafb917c6af448aca6042e96" target="_top" xlink:title="Task that manages the LEDs on the unit.">
<polygon fill="white" stroke="#666666" points="153,-521 100,-521 100,-502 153,-502 153,-521"/>
<text text-anchor="middle" x="126.5" y="-509" font-family="Helvetica,sans-Serif" font-size="10.00">ledTask</text>
</a>
</g>
</g>
<!-- Node1&#45;&gt;Node3 -->
<g id="edge2_Node000001_Node000003" class="edge">
<title>Node1&#45;&gt;Node3</title>
<g id="a_edge2_Node000001_Node000003"><a xlink:title=" ">
<path fill="none" stroke="#63b8ff" d="M44.24,-481.37C57.51,-486.3 74.94,-492.76 90.25,-498.43"/>
<polygon fill="#63b8ff" stroke="#63b8ff" points="89.34,-501.83 99.94,-502.02 91.78,-495.26 89.34,-501.83"/>
</a>
</g>
</g>
<!-- Node7 -->
<g id="Node000007" class="node">
<title>Node7</title>
<g id="a_Node000007"><a xlink:href="lora_8cpp.html#aa56d712b5af48cc40bd9ef0dac6cb797" target="_top" xlink:title="Task for sending packets when needed.">
<polygon fill="white" stroke="#666666" points="161,-353 92,-353 92,-334 161,-334 161,-353"/>
<text text-anchor="middle" x="126.5" y="-341" font-family="Helvetica,sans-Serif" font-size="10.00">loraTxTask</text>
</a>
</g>
</g>
<!-- Node1&#45;&gt;Node7 -->
<g id="edge7_Node000001_Node000007" class="edge">
<title>Node1&#45;&gt;Node7</title>
<g id="a_edge7_Node000001_Node000007"><a xlink:title=" ">
<path fill="none" stroke="#63b8ff" d="M30.7,-463.73C47.93,-441.88 89.76,-388.83 111.64,-361.08"/>
<polygon fill="#63b8ff" stroke="#63b8ff" points="114.54,-363.05 117.99,-353.03 109.04,-358.72 114.54,-363.05"/>
</a>
</g>
</g>
<!-- Node15 -->
<g id="Node000015" class="node">
<title>Node15</title>
<g id="a_Node000015"><a xlink:href="networking_8cpp.html#ad26b4549029330bc2b554fa4ed1e5bc7" target="_top" xlink:title=" ">
<polygon fill="white" stroke="#666666" points="173,-221 80,-221 80,-202 173,-202 173,-221"/>
<text text-anchor="middle" x="126.5" y="-209" font-family="Helvetica,sans-Serif" font-size="10.00">networkingTask</text>
</a>
</g>
</g>
<!-- Node1&#45;&gt;Node15 -->
<g id="edge17_Node000001_Node000015" class="edge">
<title>Node1&#45;&gt;Node15</title>
<g id="a_edge17_Node000001_Node000015"><a xlink:title=" ">
<path fill="none" stroke="#63b8ff" d="M26.69,-463.79C35.71,-440.11 59.6,-377.54 80,-325.5 93.1,-292.1 108.64,-253.33 117.76,-230.7"/>
<polygon fill="#63b8ff" stroke="#63b8ff" points="121.07,-231.83 121.56,-221.24 114.58,-229.21 121.07,-231.83"/>
</a>
</g>
</g>
<!-- Node29 -->
<g id="Node000029" class="node">
<title>Node29</title>
<g id="a_Node000029"><a xlink:href="lora_8cpp.html#a6042a1af9411d9eafc7088497f536eb8" target="_top" xlink:title="&quot;Receives&quot; some fake data for testing purposes.">
<polygon fill="white" stroke="#666666" points="156,-483 97,-483 97,-464 156,-464 156,-483"/>
<text text-anchor="middle" x="126.5" y="-471" font-family="Helvetica,sans-Serif" font-size="10.00">pjonTask</text>
</a>
</g>
</g>
<!-- Node1&#45;&gt;Node29 -->
<g id="edge32_Node000001_Node000029" class="edge">
<title>Node1&#45;&gt;Node29</title>
<g id="a_edge32_Node000001_Node000029"><a xlink:title=" ">
<path fill="none" stroke="#63b8ff" d="M44.24,-473.5C56.51,-473.5 72.32,-473.5 86.73,-473.5"/>
<polygon fill="#63b8ff" stroke="#63b8ff" points="86.9,-477 96.9,-473.5 86.9,-470 86.9,-477"/>
</a>
</g>
</g>
<!-- Node4 -->
<g id="Node000004" class="node">
<title>Node4</title>
<g id="a_Node000004"><a xlink:href="class_led.html#aca41751e53023a56a30b541a1c23edfe" target="_top" xlink:title="Initialises the pins.">
<polygon fill="white" stroke="#666666" points="308,-635 241,-635 241,-616 308,-616 308,-635"/>
<text text-anchor="middle" x="274.5" y="-623" font-family="Helvetica,sans-Serif" font-size="10.00">Led::begin</text>
</a>
</g>
</g>
<!-- Node3&#45;&gt;Node4 -->
<g id="edge3_Node000003_Node000004" class="edge">
<title>Node3&#45;&gt;Node4</title>
<g id="a_edge3_Node000003_Node000004"><a xlink:title=" ">
<path fill="none" stroke="#63b8ff" d="M153.44,-518.68C160.38,-521.53 167.48,-525.37 173,-530.5 198.92,-554.58 182.61,-577.94 209,-601.5 215.41,-607.22 223.3,-611.62 231.34,-614.99"/>
<polygon fill="#63b8ff" stroke="#63b8ff" points="230.17,-618.29 240.77,-618.49 232.61,-611.73 230.17,-618.29"/>
</a>
</g>
</g>
<!-- Node5 -->
<g id="Node000005" class="node">
<title>Node5</title>
<g id="a_Node000005"><a xlink:href="class_led.html#ad977cfca6965684f274d8d6e33ac3548" target="_top" xlink:title="Turns the LED on or off.">
<polygon fill="white" stroke="#666666" points="491.5,-616 436.5,-616 436.5,-597 491.5,-597 491.5,-616"/>
<text text-anchor="middle" x="464" y="-604" font-family="Helvetica,sans-Serif" font-size="10.00">Led::set</text>
</a>
</g>
</g>
<!-- Node3&#45;&gt;Node5 -->
<g id="edge5_Node000003_Node000005" class="edge">
<title>Node3&#45;&gt;Node5</title>
<g id="a_edge5_Node000003_Node000005"><a xlink:title=" ">
<path fill="none" stroke="#63b8ff" d="M153.03,-519.98C159.82,-522.8 166.94,-526.32 173,-530.5 192.15,-543.71 188.37,-557.75 209,-568.5 279.32,-605.15 374.53,-609.22 426.1,-608.29"/>
<polygon fill="#63b8ff" stroke="#63b8ff" points="426.51,-611.78 436.42,-608.02 426.33,-604.78 426.51,-611.78"/>
</a>
</g>
</g>
<!-- Node6 -->
<g id="Node000006" class="node">
<title>Node6</title>
<g id="a_Node000006"><a xlink:href="class_device_manager.html#ac356dbc3ba069ca92c67825081d7a8a8" target="_top" xlink:title="Returns the number of packets that need to be sent across all devices.">
<polygon fill="white" stroke="#666666" points="540,-409 388,-409 388,-390 540,-390 540,-409"/>
<text text-anchor="middle" x="464" y="-397" font-family="Helvetica,sans-Serif" font-size="10.00">DeviceManager::txRequired</text>
</a>
</g>
</g>
<!-- Node3&#45;&gt;Node6 -->
<g id="edge6_Node000003_Node000006" class="edge">
<title>Node3&#45;&gt;Node6</title>
<g id="a_edge6_Node000003_Node000006"><a xlink:title=" ">
<path fill="none" stroke="#63b8ff" d="M153.06,-516.67C195.87,-523.83 282.98,-531.81 340,-492.5 370.11,-471.74 347.25,-441.11 376,-418.5 378.2,-416.77 380.53,-415.19 382.95,-413.74"/>
<polygon fill="#63b8ff" stroke="#63b8ff" points="384.77,-416.74 392.09,-409.09 381.59,-410.51 384.77,-416.74"/>
</a>
</g>
</g>
<!-- Node4&#45;&gt;Node5 -->
<g id="edge4_Node000004_Node000005" class="edge">
<title>Node4&#45;&gt;Node5</title>
<g id="a_edge4_Node000004_Node000005"><a xlink:title=" ">
<path fill="none" stroke="#63b8ff" d="M308.16,-622.19C341.15,-618.85 392.03,-613.69 426.38,-610.21"/>
<polygon fill="#63b8ff" stroke="#63b8ff" points="426.87,-613.68 436.47,-609.19 426.16,-606.71 426.87,-613.68"/>
</a>
</g>
</g>
<!-- Node8 -->
<g id="Node000008" class="node">
<title>Node8</title>
<g id="a_Node000008"><a xlink:href="lora_8cpp.html#afbd9f56608d04cb8a75d69112cd89885" target="_top" xlink:title="Task for printing out a byte array.">
<polygon fill="white" stroke="#666666" points="325.5,-296 223.5,-296 223.5,-277 325.5,-277 325.5,-296"/>
<text text-anchor="middle" x="274.5" y="-284" font-family="Helvetica,sans-Serif" font-size="10.00">debugLoRaPacket</text>
</a>
</g>
</g>
<!-- Node7&#45;&gt;Node8 -->
<g id="edge8_Node000007_Node000008" class="edge">
<title>Node7&#45;&gt;Node8</title>
<g id="a_edge8_Node000007_Node000008"><a xlink:title=" ">
<path fill="none" stroke="#63b8ff" d="M150.62,-333.94C166.89,-327.25 189.22,-318.18 209,-310.5 218.34,-306.87 228.48,-303.05 237.9,-299.54"/>
<polygon fill="#63b8ff" stroke="#63b8ff" points="239.23,-302.78 247.39,-296.02 236.79,-296.22 239.23,-302.78"/>
</a>
</g>
</g>
<!-- Node9 -->
<g id="Node000009" class="node">
<title>Node9</title>
<g id="a_Node000009"><a xlink:href="class_device.html#a0fc7e0f4a048d2b7010c7bc6882bb987" target="_top" xlink:title="Generates a packet containing all the fields and instructions to set.">
<polygon fill="white" stroke="#666666" points="340,-259 209,-259 209,-240 340,-240 340,-259"/>
<text text-anchor="middle" x="274.5" y="-247" font-family="Helvetica,sans-Serif" font-size="10.00">Device::generatePacket</text>
</a>
</g>
</g>
<!-- Node7&#45;&gt;Node9 -->
<g id="edge9_Node000007_Node000009" class="edge">
<title>Node7&#45;&gt;Node9</title>
<g id="a_edge9_Node000007_Node000009"><a xlink:title=" ">
<path fill="none" stroke="#63b8ff" d="M135.25,-333.95C148.65,-318.07 177.71,-286.22 209,-268.5 212.88,-266.31 217.03,-264.34 221.29,-262.59"/>
<polygon fill="#63b8ff" stroke="#63b8ff" points="222.57,-265.85 230.73,-259.09 220.14,-259.29 222.57,-265.85"/>
</a>
</g>
</g>
<!-- Node11 -->
<g id="Node000011" class="node">
<title>Node11</title>
<g id="a_Node000011"><a xlink:href="class_device.html#ac068e8e17f6536cc63e1631e0ba5837c" target="_top" xlink:title="Checks if a transmission is required.">
<polygon fill="white" stroke="#666666" points="328.5,-409 220.5,-409 220.5,-390 328.5,-390 328.5,-409"/>
<text text-anchor="middle" x="274.5" y="-397" font-family="Helvetica,sans-Serif" font-size="10.00">Device::rpcWaiting</text>
</a>
</g>
</g>
<!-- Node7&#45;&gt;Node11 -->
<g id="edge11_Node000007_Node000011" class="edge">
<title>Node7&#45;&gt;Node11</title>
<g id="a_edge11_Node000007_Node000011"><a xlink:title=" ">
<path fill="none" stroke="#63b8ff" d="M145.9,-353.14C162.18,-361.42 186.74,-373.27 209,-381.5 214.25,-383.44 219.8,-385.29 225.36,-387.01"/>
<polygon fill="#63b8ff" stroke="#63b8ff" points="224.73,-390.47 235.31,-389.96 226.72,-383.76 224.73,-390.47"/>
</a>
</g>
</g>
<!-- Node12 -->
<g id="Node000012" class="node">
<title>Node12</title>
<g id="a_Node000012"><a xlink:href="lora_8cpp.html#ab4d91a7f25182323f789a4e986c08cd8" target="_top" xlink:title="Updates the attribute waiting to false if required.">
<polygon fill="white" stroke="#666666" points="337.5,-372 211.5,-372 211.5,-353 337.5,-353 337.5,-372"/>
<text text-anchor="middle" x="274.5" y="-360" font-family="Helvetica,sans-Serif" font-size="10.00">sendOnTxNotRequired</text>
</a>
</g>
</g>
<!-- Node7&#45;&gt;Node12 -->
<g id="edge12_Node000007_Node000012" class="edge">
<title>Node7&#45;&gt;Node12</title>
<g id="a_edge12_Node000007_Node000012"><a xlink:title=" ">
<path fill="none" stroke="#63b8ff" d="M161.36,-347.91C173.36,-349.47 187.36,-351.29 201.32,-353.11"/>
<polygon fill="#63b8ff" stroke="#63b8ff" points="201.08,-356.61 211.45,-354.43 201.99,-349.66 201.08,-356.61"/>
</a>
</g>
</g>
<!-- Node13 -->
<g id="Node000013" class="node">
<title>Node13</title>
<g id="a_Node000013"><a xlink:href="lora_8cpp.html#ab9cd66992a99394d4aa4030fcdbf6182" target="_top" xlink:title="Sets the state for if there are packets left to send.">
<polygon fill="white" stroke="#666666" points="518.5,-372 409.5,-372 409.5,-353 518.5,-353 518.5,-372"/>
<text text-anchor="middle" x="464" y="-360" font-family="Helvetica,sans-Serif" font-size="10.00">sendTxWaitingMsg</text>
</a>
</g>
</g>
<!-- Node7&#45;&gt;Node13 -->
<g id="edge16_Node000007_Node000013" class="edge">
<title>Node7&#45;&gt;Node13</title>
<g id="a_edge16_Node000007_Node000013"><a xlink:title=" ">
<path fill="none" stroke="#63b8ff" d="M161.05,-342.21C202.98,-340.92 276.91,-339.76 340,-344.5 359.34,-345.95 380.25,-348.6 399.26,-351.43"/>
<polygon fill="#63b8ff" stroke="#63b8ff" points="398.88,-354.92 409.3,-352.97 399.94,-348 398.88,-354.92"/>
</a>
</g>
</g>
<!-- Node10 -->
<g id="Node000010" class="node">
<title>Node10</title>
<g id="a_Node000010"><a xlink:href="class_field.html#a8411bfb2768fb0ea256f83f40941ba75" target="_top" xlink:title="Encodes the value to set into a packet ready to send if needed.">
<polygon fill="white" stroke="#666666" points="504.5,-259 423.5,-259 423.5,-240 504.5,-240 504.5,-259"/>
<text text-anchor="middle" x="464" y="-247" font-family="Helvetica,sans-Serif" font-size="10.00">Field::encode</text>
</a>
</g>
</g>
<!-- Node9&#45;&gt;Node10 -->
<g id="edge10_Node000009_Node000010" class="edge">
<title>Node9&#45;&gt;Node10</title>
<g id="a_edge10_Node000009_Node000010"><a xlink:title=" ">
<path fill="none" stroke="#63b8ff" d="M340.03,-249.5C363.9,-249.5 390.57,-249.5 412.96,-249.5"/>
<polygon fill="#63b8ff" stroke="#63b8ff" points="413.25,-253 423.25,-249.5 413.25,-246 413.25,-253"/>
</a>
</g>
</g>
<!-- Node12&#45;&gt;Node6 -->
<g id="edge15_Node000012_Node000006" class="edge">
<title>Node12&#45;&gt;Node6</title>
<g id="a_edge15_Node000012_Node000006"><a xlink:title=" ">
<path fill="none" stroke="#63b8ff" d="M323.79,-372.03C348.4,-376.89 378.54,-382.83 404.47,-387.95"/>
<polygon fill="#63b8ff" stroke="#63b8ff" points="404.06,-391.44 414.55,-389.94 405.42,-384.57 404.06,-391.44"/>
</a>
</g>
</g>
<!-- Node12&#45;&gt;Node13 -->
<g id="edge13_Node000012_Node000013" class="edge">
<title>Node12&#45;&gt;Node13</title>
<g id="a_edge13_Node000012_Node000013"><a xlink:title=" ">
<path fill="none" stroke="#63b8ff" d="M337.67,-362.5C357.46,-362.5 379.38,-362.5 399.28,-362.5"/>
<polygon fill="#63b8ff" stroke="#63b8ff" points="399.47,-366 409.47,-362.5 399.47,-359 399.47,-366"/>
</a>
</g>
</g>
<!-- Node14 -->
<g id="Node000014" class="node">
<title>Node14</title>
<g id="a_Node000014"><a xlink:href="rpc_8cpp.html#adc3c5806492d2818ad6f5aff232765ec" target="_top" xlink:title=" ">
<polygon fill="white" stroke="#666666" points="725.5,-409 625.5,-409 625.5,-390 725.5,-390 725.5,-409"/>
<text text-anchor="middle" x="675.5" y="-397" font-family="Helvetica,sans-Serif" font-size="10.00">setAttributeState</text>
</a>
</g>
</g>
<!-- Node13&#45;&gt;Node14 -->
<g id="edge14_Node000013_Node000014" class="edge">
<title>Node13&#45;&gt;Node14</title>
<g id="a_edge14_Node000013_Node000014"><a xlink:title=" ">
<path fill="none" stroke="#63b8ff" d="M518.68,-371.98C548.2,-377.19 584.88,-383.67 615.23,-389.03"/>
<polygon fill="#63b8ff" stroke="#63b8ff" points="614.81,-392.51 625.27,-390.8 616.03,-385.62 614.81,-392.51"/>
</a>
</g>
</g>
<!-- Node16 -->
<g id="Node000016" class="node">
<title>Node16</title>
<g id="a_Node000016"><a xlink:href="networking_8cpp.html#a9ad5cb858c24c53a6eaa846b713bd120" target="_top" xlink:title="Connects to the MQTT broker.">
<polygon fill="white" stroke="#666666" points="314.5,-166 234.5,-166 234.5,-147 314.5,-147 314.5,-166"/>
<text text-anchor="middle" x="274.5" y="-154" font-family="Helvetica,sans-Serif" font-size="10.00">mqttConnect</text>
</a>
</g>
</g>
<!-- Node15&#45;&gt;Node16 -->
<g id="edge18_Node000015_Node000016" class="edge">
<title>Node15&#45;&gt;Node16</title>
<g id="a_edge18_Node000015_Node000016"><a xlink:title=" ">
<path fill="none" stroke="#63b8ff" d="M152.93,-201.92C176.55,-193.02 211.93,-179.69 238.26,-169.77"/>
<polygon fill="#63b8ff" stroke="#63b8ff" points="239.75,-172.96 247.87,-166.16 237.28,-166.41 239.75,-172.96"/>
</a>
</g>
</g>
<!-- Node28 -->
<g id="Node000028" class="node">
<title>Node28</title>
<g id="a_Node000028"><a xlink:href="networking_8cpp.html#a23a6f53d5284ae6a9d27420cceeb80c3" target="_top" xlink:title="Connects to WiFi.">
<polygon fill="white" stroke="#666666" points="501,-222 427,-222 427,-203 501,-203 501,-222"/>
<text text-anchor="middle" x="464" y="-210" font-family="Helvetica,sans-Serif" font-size="10.00">wifiConnect</text>
</a>
</g>
</g>
<!-- Node15&#45;&gt;Node28 -->
<g id="edge31_Node000015_Node000028" class="edge">
<title>Node15&#45;&gt;Node28</title>
<g id="a_edge31_Node000015_Node000028"><a xlink:title=" ">
<path fill="none" stroke="#63b8ff" d="M173.1,-211.64C236.91,-211.83 352.23,-212.17 416.52,-212.36"/>
<polygon fill="#63b8ff" stroke="#63b8ff" points="416.75,-215.86 426.76,-212.39 416.77,-208.86 416.75,-215.86"/>
</a>
</g>
</g>
<!-- Node17 -->
<g id="Node000017" class="node">
<title>Node17</title>
<g id="a_Node000017"><a xlink:href="class_device_manager.html#ac06f3334d0776ed6fd7fd0f71248d6b3" target="_top" xlink:title="Registers each device to Thingsboard over MQTT.">
<polygon fill="white" stroke="#666666" points="552,-111 376,-111 376,-92 552,-92 552,-111"/>
<text text-anchor="middle" x="464" y="-99" font-family="Helvetica,sans-Serif" font-size="10.00">DeviceManager::connectDevices</text>
</a>
</g>
</g>
<!-- Node16&#45;&gt;Node17 -->
<g id="edge19_Node000016_Node000017" class="edge">
<title>Node16&#45;&gt;Node17</title>
<g id="a_edge19_Node000016_Node000017"><a xlink:title=" ">
<path fill="none" stroke="#63b8ff" d="M298.33,-146.99C318.49,-138.85 348.83,-127.27 376,-119.5 383.99,-117.22 392.48,-115.09 400.89,-113.17"/>
<polygon fill="#63b8ff" stroke="#63b8ff" points="401.7,-116.58 410.71,-111 400.19,-109.74 401.7,-116.58"/>
</a>
</g>
</g>
<!-- Node18 -->
<g id="Node000018" class="node">
<title>Node18</title>
<g id="a_Node000018"><a xlink:href="rpc_8cpp.html#a91d98374ed6fc205a7a2c9e2ef00dd97" target="_top" xlink:title=" ">
<polygon fill="white" stroke="#666666" points="506.5,-74 421.5,-74 421.5,-55 506.5,-55 506.5,-74"/>
<text text-anchor="middle" x="464" y="-62" font-family="Helvetica,sans-Serif" font-size="10.00">mqttReceived</text>
</a>
</g>
</g>
<!-- Node16&#45;&gt;Node18 -->
<g id="edge20_Node000016_Node000018" class="edge">
<title>Node16&#45;&gt;Node18</title>
<g id="a_edge20_Node000016_Node000018"><a xlink:title=" ">
<path fill="none" stroke="#63b8ff" d="M285.4,-146.87C302.43,-130.88 338.99,-99 376,-82.5 387.01,-77.59 399.4,-74.01 411.3,-71.39"/>
<polygon fill="#63b8ff" stroke="#63b8ff" points="412.03,-74.81 421.15,-69.41 410.65,-67.95 412.03,-74.81"/>
</a>
</g>
</g>
<!-- Node25 -->
<g id="Node000025" class="node">
<title>Node25</title>
<g id="a_Node000025"><a xlink:href="networking_8cpp.html#ab2d5192ed1436350b19a2a4ccb2053c3" target="_top" xlink:title="Subscribes to the required topics.">
<polygon fill="white" stroke="#666666" points="498,-185 430,-185 430,-166 498,-166 498,-185"/>
<text text-anchor="middle" x="464" y="-173" font-family="Helvetica,sans-Serif" font-size="10.00">mqttSetup</text>
</a>
</g>
</g>
<!-- Node16&#45;&gt;Node25 -->
<g id="edge27_Node000016_Node000025" class="edge">
<title>Node16&#45;&gt;Node25</title>
<g id="a_edge27_Node000016_Node000025"><a xlink:title=" ">
<path fill="none" stroke="#63b8ff" d="M314.81,-160.48C345.39,-163.58 387.8,-167.88 419.42,-171.08"/>
<polygon fill="#63b8ff" stroke="#63b8ff" points="419.4,-174.6 429.7,-172.13 420.1,-167.64 419.4,-174.6"/>
</a>
</g>
</g>
<!-- Node26 -->
<g id="Node000026" class="node">
<title>Node26</title>
<g id="a_Node000026"><a xlink:href="rpc_8cpp.html#a966e66eaf82bb85dffba775b5442f3f6" target="_top" xlink:title="Informs thingsboard what software version is running. This does not use a queue as this could be sent...">
<polygon fill="white" stroke="#666666" points="519,-148 409,-148 409,-129 519,-129 519,-148"/>
<text text-anchor="middle" x="464" y="-136" font-family="Helvetica,sans-Serif" font-size="10.00">setVersionAttribute</text>
</a>
</g>
</g>
<!-- Node16&#45;&gt;Node26 -->
<g id="edge28_Node000016_Node000026" class="edge">
<title>Node16&#45;&gt;Node26</title>
<g id="a_edge28_Node000016_Node000026"><a xlink:title=" ">
<path fill="none" stroke="#63b8ff" d="M314.81,-152.73C339.1,-150.39 370.85,-147.35 398.74,-144.67"/>
<polygon fill="#63b8ff" stroke="#63b8ff" points="399.19,-148.14 408.81,-143.7 398.52,-141.17 399.19,-148.14"/>
</a>
</g>
</g>
<!-- Node16&#45;&gt;Node28 -->
<g id="edge30_Node000016_Node000028" class="edge">
<title>Node16&#45;&gt;Node28</title>
<g id="a_edge30_Node000016_Node000028"><a xlink:title=" ">
<path fill="none" stroke="#63b8ff" d="M298.75,-166.1C318.93,-174.18 349.05,-185.64 376,-193.5 389.13,-197.33 403.57,-200.78 416.85,-203.66"/>
<polygon fill="#63b8ff" stroke="#63b8ff" points="416.23,-207.11 426.74,-205.74 417.68,-200.26 416.23,-207.11"/>
</a>
</g>
</g>
<!-- Node19 -->
<g id="Node000019" class="node">
<title>Node19</title>
<g id="a_Node000019"><a xlink:href="rpc_8cpp.html#a4cfe66424e5527493ec95bc8ffed5bc7" target="_top" xlink:title="Handles an RPC message addressed to remote devices.">
<polygon fill="white" stroke="#666666" points="713,-37 638,-37 638,-18 713,-18 713,-37"/>
<text text-anchor="middle" x="675.5" y="-25" font-family="Helvetica,sans-Serif" font-size="10.00">rpcGateway</text>
</a>
</g>
</g>
<!-- Node18&#45;&gt;Node19 -->
<g id="edge21_Node000018_Node000019" class="edge">
<title>Node18&#45;&gt;Node19</title>
<g id="a_edge21_Node000018_Node000019"><a xlink:title=" ">
<path fill="none" stroke="#63b8ff" d="M506.64,-57.15C541.65,-50.96 591.66,-42.13 627.98,-35.72"/>
<polygon fill="#63b8ff" stroke="#63b8ff" points="628.6,-39.16 637.84,-33.97 627.38,-32.27 628.6,-39.16"/>
</a>
</g>
</g>
<!-- Node22 -->
<g id="Node000022" class="node">
<title>Node22</title>
<g id="a_Node000022"><a xlink:href="rpc_8cpp.html#ae128ecfe100603224c2fda1ff5f5ce0a" target="_top" xlink:title="Handles an RPC message addressed to this device (not one of the remote devices).">
<polygon fill="white" stroke="#666666" points="699,-111 652,-111 652,-92 699,-92 699,-111"/>
<text text-anchor="middle" x="675.5" y="-99" font-family="Helvetica,sans-Serif" font-size="10.00">rpcMe</text>
</a>
</g>
</g>
<!-- Node18&#45;&gt;Node22 -->
<g id="edge24_Node000018_Node000022" class="edge">
<title>Node18&#45;&gt;Node22</title>
<g id="a_edge24_Node000018_Node000022"><a xlink:title=" ">
<path fill="none" stroke="#63b8ff" d="M506.64,-71.85C546.39,-78.87 605.47,-89.31 641.9,-95.74"/>
<polygon fill="#63b8ff" stroke="#63b8ff" points="641.53,-99.23 651.99,-97.52 642.75,-92.34 641.53,-99.23"/>
</a>
</g>
</g>
<!-- Node24 -->
<g id="Node000024" class="node">
<title>Node24</title>
<g id="a_Node000024"><a xlink:href="rpc_8cpp.html#adfc4d7c2e3b046a5fb41b597ebd9f727" target="_top" xlink:title="Checks if one string starts with another (quicker than strstr?)">
<polygon fill="white" stroke="#666666" points="709,-74 642,-74 642,-55 709,-55 709,-74"/>
<text text-anchor="middle" x="675.5" y="-62" font-family="Helvetica,sans-Serif" font-size="10.00">startsWith</text>
</a>
</g>
</g>
<!-- Node18&#45;&gt;Node24 -->
<g id="edge26_Node000018_Node000024" class="edge">
<title>Node18&#45;&gt;Node24</title>
<g id="a_edge26_Node000018_Node000024"><a xlink:title=" ">
<path fill="none" stroke="#63b8ff" d="M506.64,-64.5C542.81,-64.5 594.98,-64.5 631.53,-64.5"/>
<polygon fill="#63b8ff" stroke="#63b8ff" points="631.87,-68 641.87,-64.5 631.87,-61 631.87,-68"/>
</a>
</g>
</g>
<!-- Node20 -->
<g id="Node000020" class="node">
<title>Node20</title>
<g id="a_Node000020"><a xlink:href="class_lookup_manager.html#ad0d556a556e0b220629cf198d6f0de1a" target="_top" xlink:title="Gets the object matching the given name.">
<polygon fill="white" stroke="#666666" points="966,-56 799,-56 799,-37 966,-37 966,-56"/>
<text text-anchor="middle" x="882.5" y="-44" font-family="Helvetica,sans-Serif" font-size="10.00">LookupManager::getWithName</text>
</a>
</g>
</g>
<!-- Node19&#45;&gt;Node20 -->
<g id="edge22_Node000019_Node000020" class="edge">
<title>Node19&#45;&gt;Node20</title>
<g id="a_edge22_Node000019_Node000020"><a xlink:title=" ">
<path fill="none" stroke="#63b8ff" d="M713.15,-30.9C734.29,-32.86 761.91,-35.42 788.64,-37.89"/>
<polygon fill="#63b8ff" stroke="#63b8ff" points="788.55,-41.4 798.83,-38.84 789.2,-34.43 788.55,-41.4"/>
</a>
</g>
</g>
<!-- Node21 -->
<g id="Node000021" class="node">
<title>Node21</title>
<g id="a_Node000021"><a xlink:href="class_field.html#a9b3b13d9abe0884a93b294edc0396f74" target="_top" xlink:title="handles an RPC call for a field.">
<polygon fill="white" stroke="#666666" points="931,-19 834,-19 834,0 931,0 931,-19"/>
<text text-anchor="middle" x="882.5" y="-7" font-family="Helvetica,sans-Serif" font-size="10.00">Field::handleRpc</text>
</a>
</g>
</g>
<!-- Node19&#45;&gt;Node21 -->
<g id="edge23_Node000019_Node000021" class="edge">
<title>Node19&#45;&gt;Node21</title>
<g id="a_edge23_Node000019_Node000021"><a xlink:title=" ">
<path fill="none" stroke="#63b8ff" d="M713.15,-24.28C743.86,-21.59 788.25,-17.69 823.74,-14.57"/>
<polygon fill="#63b8ff" stroke="#63b8ff" points="824.31,-18.03 833.97,-13.67 823.7,-11.06 824.31,-18.03"/>
</a>
</g>
</g>
<!-- Node23 -->
<g id="Node000023" class="node">
<title>Node23</title>
<g id="a_Node000023"><a xlink:href="rpc_8cpp.html#a8d99d63355a7dac3b1264ced57f255d9" target="_top" xlink:title="Replies to an RPC message for this device.">
<polygon fill="white" stroke="#666666" points="919.5,-111 845.5,-111 845.5,-92 919.5,-92 919.5,-111"/>
<text text-anchor="middle" x="882.5" y="-99" font-family="Helvetica,sans-Serif" font-size="10.00">replyMeRpc</text>
</a>
</g>
</g>
<!-- Node22&#45;&gt;Node23 -->
<g id="edge25_Node000022_Node000023" class="edge">
<title>Node22&#45;&gt;Node23</title>
<g id="a_edge25_Node000022_Node000023"><a xlink:title=" ">
<path fill="none" stroke="#63b8ff" d="M699.22,-101.5C731.87,-101.5 792.78,-101.5 835.16,-101.5"/>
<polygon fill="#63b8ff" stroke="#63b8ff" points="835.24,-105 845.24,-101.5 835.24,-98 835.24,-105"/>
</a>
</g>
</g>
<!-- Node27 -->
<g id="Node000027" class="node">
<title>Node27</title>
<g id="a_Node000027"><a xlink:href="rpc_8cpp.html#a22f0de10e8da7246554c2221cc40f7a0" target="_top" xlink:title="Converts a reset reason returned by esp_reset_reason() into a string.">
<polygon fill="white" stroke="#666666" points="729,-148 622,-148 622,-129 729,-129 729,-148"/>
<text text-anchor="middle" x="675.5" y="-136" font-family="Helvetica,sans-Serif" font-size="10.00">resetReasonName</text>
</a>
</g>
</g>
<!-- Node26&#45;&gt;Node27 -->
<g id="edge29_Node000026_Node000027" class="edge">
<title>Node26&#45;&gt;Node27</title>
<g id="a_edge29_Node000026_Node000027"><a xlink:title=" ">
<path fill="none" stroke="#63b8ff" d="M519.22,-138.5C547.53,-138.5 582.31,-138.5 611.77,-138.5"/>
<polygon fill="#63b8ff" stroke="#63b8ff" points="611.95,-142 621.95,-138.5 611.95,-135 611.95,-142"/>
</a>
</g>
</g>
<!-- Node30 -->
<g id="Node000030" class="node">
<title>Node30</title>
<g id="a_Node000030"><a xlink:href="lora_8cpp.html#ac5e6522afd1447f1520e4f4503af9ec5" target="_top" xlink:title="Task that checks if the radio is connected.">
<polygon fill="white" stroke="#666666" points="327,-446 222,-446 222,-427 327,-427 327,-446"/>
<text text-anchor="middle" x="274.5" y="-434" font-family="Helvetica,sans-Serif" font-size="10.00">loraWatchdogTask</text>
</a>
</g>
</g>
<!-- Node29&#45;&gt;Node30 -->
<g id="edge33_Node000029_Node000030" class="edge">
<title>Node29&#45;&gt;Node30</title>
<g id="a_edge33_Node000029_Node000030"><a xlink:title=" ">
<path fill="none" stroke="#63b8ff" d="M156.34,-466.19C176.18,-461.16 202.98,-454.37 225.94,-448.55"/>
<polygon fill="#63b8ff" stroke="#63b8ff" points="227.02,-451.89 235.85,-446.04 225.3,-445.11 227.02,-451.89"/>
</a>
</g>
</g>
<!-- Node32 -->
<g id="Node000032" class="node">
<title>Node32</title>
<g id="a_Node000032"><a xlink:href="lora_8cpp.html#aef164eaa7a67eb3153407eb4b601f4f0" target="_top" xlink:title="Logs PJON errors.">
<polygon fill="white" stroke="#666666" points="305,-483 244,-483 244,-464 305,-464 305,-483"/>
<text text-anchor="middle" x="274.5" y="-471" font-family="Helvetica,sans-Serif" font-size="10.00">pjonError</text>
</a>
</g>
</g>
<!-- Node29&#45;&gt;Node32 -->
<g id="edge36_Node000029_Node000032" class="edge">
<title>Node29&#45;&gt;Node32</title>
<g id="a_edge36_Node000029_Node000032"><a xlink:title=" ">
<path fill="none" stroke="#63b8ff" d="M156.34,-473.5C178.45,-473.5 209.21,-473.5 233.66,-473.5"/>
<polygon fill="#63b8ff" stroke="#63b8ff" points="233.71,-477 243.71,-473.5 233.71,-470 233.71,-477"/>
</a>
</g>
</g>
<!-- Node33 -->
<g id="Node000033" class="node">
<title>Node33</title>
<g id="a_Node000033"><a xlink:href="lora_8cpp.html#a73337b280bec4397780b012ccc949113" target="_top" xlink:title="Handles an incoming packet received from the radio and adds the given snr and rssi to the packet.">
<polygon fill="white" stroke="#666666" points="313,-559 236,-559 236,-540 313,-540 313,-559"/>
<text text-anchor="middle" x="274.5" y="-547" font-family="Helvetica,sans-Serif" font-size="10.00">pjonReceive</text>
</a>
</g>
</g>
<!-- Node29&#45;&gt;Node33 -->
<g id="edge37_Node000029_Node000033" class="edge">
<title>Node29&#45;&gt;Node33</title>
<g id="a_edge37_Node000029_Node000033"><a xlink:title=" ">
<path fill="none" stroke="#63b8ff" d="M150.38,-483.05C157.67,-486.23 165.74,-489.89 173,-493.5 199.25,-506.55 228.43,-523.04 248.56,-534.74"/>
<polygon fill="#63b8ff" stroke="#63b8ff" points="246.99,-537.88 257.39,-539.9 250.52,-531.83 246.99,-537.88"/>
</a>
</g>
</g>
<!-- Node31 -->
<g id="Node000031" class="node">
<title>Node31</title>
<g id="a_Node000031"><a xlink:href="lora_8cpp.html#aeae7cd913b330750fef4bda6cadbf95b" target="_top" xlink:title="Sends an attribute over mqtt depending on the state of the radio connection.">
<polygon fill="white" stroke="#666666" points="534,-446 394,-446 394,-427 534,-427 534,-446"/>
<text text-anchor="middle" x="464" y="-434" font-family="Helvetica,sans-Serif" font-size="10.00">sendRadioConnectedMsg</text>
</a>
</g>
</g>
<!-- Node30&#45;&gt;Node31 -->
<g id="edge34_Node000030_Node000031" class="edge">
<title>Node30&#45;&gt;Node31</title>
<g id="a_edge34_Node000030_Node000031"><a xlink:title=" ">
<path fill="none" stroke="#63b8ff" d="M327.23,-436.5C344.69,-436.5 364.6,-436.5 383.69,-436.5"/>
<polygon fill="#63b8ff" stroke="#63b8ff" points="383.88,-440 393.88,-436.5 383.88,-433 383.88,-440"/>
</a>
</g>
</g>
<!-- Node31&#45;&gt;Node14 -->
<g id="edge35_Node000031_Node000014" class="edge">
<title>Node31&#45;&gt;Node14</title>
<g id="a_edge35_Node000031_Node000014"><a xlink:title=" ">
<path fill="none" stroke="#63b8ff" d="M518.95,-426.97C548.47,-421.76 585.09,-415.29 615.38,-409.94"/>
<polygon fill="#63b8ff" stroke="#63b8ff" points="616.15,-413.36 625.39,-408.17 614.94,-406.47 616.15,-413.36"/>
</a>
</g>
</g>
<!-- Node34 -->
<g id="Node000034" class="node">
<title>Node34</title>
<g id="a_Node000034"><a xlink:href="class_device.html#a35eba370894e0e1ec39f2043e466b2f6" target="_top" xlink:title="Decodes the payload from a PJON packet and converts it to thingsboard MQTT JSON.">
<polygon fill="white" stroke="#666666" points="540,-569 388,-569 388,-550 540,-550 540,-569"/>
<text text-anchor="middle" x="464" y="-557" font-family="Helvetica,sans-Serif" font-size="10.00">Device::decodePacketFields</text>
</a>
</g>
</g>
<!-- Node33&#45;&gt;Node34 -->
<g id="edge38_Node000033_Node000034" class="edge">
<title>Node33&#45;&gt;Node34</title>
<g id="a_edge38_Node000033_Node000034"><a xlink:title=" ">
<path fill="none" stroke="#63b8ff" d="M313.44,-551.52C332,-552.51 355.15,-553.75 377.65,-554.95"/>
<polygon fill="#63b8ff" stroke="#63b8ff" points="377.75,-558.46 387.92,-555.5 378.12,-551.47 377.75,-558.46"/>
</a>
</g>
</g>
<!-- Node38 -->
<g id="Node000038" class="node">
<title>Node38</title>
<g id="a_Node000038"><a xlink:href="class_lookup_manager.html#a03510999964fcb3a6e93719ae5b9cab3" target="_top" xlink:title="Gets the object with the given symbol.">
<polygon fill="white" stroke="#666666" points="763,-531 588,-531 588,-512 763,-512 763,-531"/>
<text text-anchor="middle" x="675.5" y="-519" font-family="Helvetica,sans-Serif" font-size="10.00">LookupManager::getWithSymbol</text>
</a>
</g>
</g>
<!-- Node33&#45;&gt;Node38 -->
<g id="edge43_Node000033_Node000038" class="edge">
<title>Node33&#45;&gt;Node38</title>
<g id="a_edge43_Node000033_Node000038"><a xlink:title=" ">
<path fill="none" stroke="#63b8ff" d="M313.19,-546.39C332.05,-544.86 355.23,-543.02 376,-541.5 443.31,-536.57 519.2,-531.49 577.62,-527.68"/>
<polygon fill="#63b8ff" stroke="#63b8ff" points="578.19,-531.15 587.94,-527.01 577.74,-524.17 578.19,-531.15"/>
</a>
</g>
</g>
<!-- Node35 -->
<g id="Node000035" class="node">
<title>Node35</title>
<g id="a_Node000035"><a xlink:href="class_field.html#aa036e196f5805e9406b8169200e3915a" target="_top" xlink:title="Decodes the value from bytes into an existing json document.">
<polygon fill="white" stroke="#666666" points="716,-569 635,-569 635,-550 716,-550 716,-569"/>
<text text-anchor="middle" x="675.5" y="-557" font-family="Helvetica,sans-Serif" font-size="10.00">Field::decode</text>
</a>
</g>
</g>
<!-- Node34&#45;&gt;Node35 -->
<g id="edge39_Node000034_Node000035" class="edge">
<title>Node34&#45;&gt;Node35</title>
<g id="a_edge39_Node000034_Node000035"><a xlink:title=" ">
<path fill="none" stroke="#63b8ff" d="M540.04,-559.5C568.21,-559.5 599.51,-559.5 624.82,-559.5"/>
<polygon fill="#63b8ff" stroke="#63b8ff" points="624.91,-563 634.91,-559.5 624.91,-556 624.91,-563"/>
</a>
</g>
</g>
<!-- Node34&#45;&gt;Node38 -->
<g id="edge42_Node000034_Node000038" class="edge">
<title>Node34&#45;&gt;Node38</title>
<g id="a_edge42_Node000034_Node000038"><a xlink:title=" ">
<path fill="none" stroke="#63b8ff" d="M517.6,-549.96C546.24,-544.77 581.86,-538.3 611.92,-532.85"/>
<polygon fill="#63b8ff" stroke="#63b8ff" points="612.67,-536.27 621.88,-531.04 611.42,-529.38 612.67,-536.27"/>
</a>
</g>
</g>
<!-- Node36 -->
<g id="Node000036" class="node">
<title>Node36</title>
<g id="a_Node000036"><a xlink:href="class_field.html#a536d757818e186d83b2ab71415bb0bba" target="_top" xlink:title="Decodes the value from bytes into an existing json document. decode does the checking for length,...">
<polygon fill="white" stroke="#666666" points="943.5,-550 821.5,-550 821.5,-531 943.5,-531 943.5,-550"/>
<text text-anchor="middle" x="882.5" y="-538" font-family="Helvetica,sans-Serif" font-size="10.00">Field::actuallyDecode</text>
</a>
</g>
</g>
<!-- Node35&#45;&gt;Node36 -->
<g id="edge40_Node000035_Node000036" class="edge">
<title>Node35&#45;&gt;Node36</title>
<g id="a_edge40_Node000035_Node000036"><a xlink:title=" ">
<path fill="none" stroke="#63b8ff" d="M716.03,-555.84C743.01,-553.34 779.49,-549.95 811.34,-547"/>
<polygon fill="#63b8ff" stroke="#63b8ff" points="811.86,-550.47 821.5,-546.06 811.22,-543.5 811.86,-550.47"/>
</a>
</g>
</g>
<!-- Node37 -->
<g id="Node000037" class="node">
<title>Node37</title>
<g id="a_Node000037"><a xlink:href="class_field.html#a0f6c46168ecc1113ff61d9fb68d8c763" target="_top" xlink:title="Checks if the value can be decoded from the packet.">
<polygon fill="white" stroke="#666666" points="948.5,-587 816.5,-587 816.5,-568 948.5,-568 948.5,-587"/>
<text text-anchor="middle" x="882.5" y="-575" font-family="Helvetica,sans-Serif" font-size="10.00">Field::checkDecodeable</text>
</a>
</g>
</g>
<!-- Node35&#45;&gt;Node37 -->
<g id="edge41_Node000035_Node000037" class="edge">
<title>Node35&#45;&gt;Node37</title>
<g id="a_edge41_Node000035_Node000037"><a xlink:title=" ">
<path fill="none" stroke="#63b8ff" d="M716.03,-562.97C741.53,-565.21 775.53,-568.2 806.08,-570.88"/>
<polygon fill="#63b8ff" stroke="#63b8ff" points="806.02,-574.39 816.28,-571.77 806.63,-567.41 806.02,-574.39"/>
</a>
</g>
</g>
</g>
</svg>
