<?xml version="1.0" encoding="UTF-8" standalone="no"?>
<!DOCTYPE svg PUBLIC "-//W3C//DTD SVG 1.1//EN"
 "http://www.w3.org/Graphics/SVG/1.1/DTD/svg11.dtd">
<!-- Generated by graphviz version 2.43.0 (0)
 -->
<!-- Title: setup Pages: 1 -->
<!--zoomable 636 -->
<svg id="main" version="1.1" xmlns="http://www.w3.org/2000/svg" xmlns:xlink="http://www.w3.org/1999/xlink" xml:space="preserve" onload="init(evt)">
<style type="text/css"><![CDATA[
.edge:hover path { stroke: red; }
.edge:hover polygon { stroke: red; fill: red; }
]]></style>
<script type="text/javascript"><![CDATA[
var edges = document.getElementsByTagName('g');
if (edges && edges.length) {
  for (var i=0;i<edges.length;i++) {
    if (edges[i].id.substr(0,4)=='edge') {
      edges[i].setAttribute('class','edge');
    }
  }
}
]]></script>
        <defs>
                <circle id="rim" cx="0" cy="0" r="7"/>
                <circle id="rim2" cx="0" cy="0" r="3.5"/>
                <g id="zoomPlus">
                        <use xlink:href="#rim" fill="#404040">
                                <set attributeName="fill" to="#808080" begin="zoomplus.mouseover" end="zoomplus.mouseout"/>
                        </use>
                        <path d="M-4,0h8M0,-4v8" fill="none" stroke="white" stroke-width="1.5" pointer-events="none"/>
                </g>
                <g id="zoomMin">
                        <use xlink:href="#rim" fill="#404040">
                                <set attributeName="fill" to="#808080" begin="zoomminus.mouseover" end="zoomminus.mouseout"/>
                        </use>
                        <path d="M-4,0h8" fill="none" stroke="white" stroke-width="1.5" pointer-events="none"/>
                </g>
                <g id="dirArrow">
                        <path fill="none" stroke="white" stroke-width="1.5" d="M0,-3.0v7 M-2.5,-0.5L0,-3.0L2.5,-0.5"/>
                </g>
               <g id="resetDef">
                       <use xlink:href="#rim2" fill="#404040">
                               <set attributeName="fill" to="#808080" begin="reset.mouseover" end="reset.mouseout"/>
                       </use>
               </g>
        </defs>

<script type="text/javascript">
var viewWidth = 974;
var viewHeight = 636;
var sectionId = 'dynsection-1';
</script>
<script xlink:href="svgpan.js"/>
<svg id="graph" class="graph">
<g id="viewport">
<title>setup</title>
<polygon fill="white" stroke="transparent" points="-4,4 -4,-632 970,-632 970,4 -4,4"/>
<!-- Node1 -->
<g id="node1" class="node">
<title>Node1</title>
<g id="a_node1"><a xlink:title=" ">
<polygon fill="#bfbfbf" stroke="black" points="0,-456.5 0,-475.5 44,-475.5 44,-456.5 0,-456.5"/>
<text text-anchor="middle" x="22" y="-463.5" font-family="Helvetica,sans-Serif" font-size="10.00">setup</text>
</a>
</g>
</g>
<!-- Node2 -->
<g id="node2" class="node">
<title>Node2</title>
<g id="a_node2"><a xlink:href="alarm_8cpp.html#a6a2ca661c69cdb3d565c511a44da3a3e" target="_top" xlink:title="Task for managing the alarm mode.">
<polygon fill="white" stroke="black" points="93,-532.5 93,-551.5 160,-551.5 160,-532.5 93,-532.5"/>
<text text-anchor="middle" x="126.5" y="-539.5" font-family="Helvetica,sans-Serif" font-size="10.00">alarmTask</text>
</a>
</g>
</g>
<!-- Node1&#45;&gt;Node2 -->
<g id="edge1" class="edge">
<title>Node1&#45;&gt;Node2</title>
<path fill="none" stroke="midnightblue" d="M30.57,-475.63C40.71,-487.98 59.77,-509.44 80,-523 82.7,-524.81 85.6,-526.5 88.59,-528.07"/>
<polygon fill="midnightblue" stroke="midnightblue" points="87.13,-531.25 97.66,-532.4 90.15,-524.94 87.13,-531.25"/>
</g>
<!-- Node3 -->
<g id="node3" class="node">
<title>Node3</title>
<g id="a_node3"><a xlink:href="leds_8cpp.html#a0e9abc4adafb917c6af448aca6042e96" target="_top" xlink:title="Task that manages the LEDs on the unit.">
<polygon fill="white" stroke="black" points="100,-494.5 100,-513.5 153,-513.5 153,-494.5 100,-494.5"/>
<text text-anchor="middle" x="126.5" y="-501.5" font-family="Helvetica,sans-Serif" font-size="10.00">ledTask</text>
</a>
</g>
</g>
<!-- Node1&#45;&gt;Node3 -->
<g id="edge2" class="edge">
<title>Node1&#45;&gt;Node3</title>
<path fill="none" stroke="midnightblue" d="M44.24,-473.87C57.51,-478.8 74.94,-485.26 90.25,-490.93"/>
<polygon fill="midnightblue" stroke="midnightblue" points="89.34,-494.33 99.94,-494.52 91.78,-487.76 89.34,-494.33"/>
</g>
<!-- Node7 -->
<g id="node7" class="node">
<title>Node7</title>
<g id="a_node7"><a xlink:href="lora_8cpp.html#aa56d712b5af48cc40bd9ef0dac6cb797" target="_top" xlink:title="Task for sending packets when needed.">
<polygon fill="white" stroke="black" points="92,-323.5 92,-342.5 161,-342.5 161,-323.5 92,-323.5"/>
<text text-anchor="middle" x="126.5" y="-330.5" font-family="Helvetica,sans-Serif" font-size="10.00">loraTxTask</text>
</a>
</g>
</g>
<!-- Node1&#45;&gt;Node7 -->
<g id="edge7" class="edge">
<title>Node1&#45;&gt;Node7</title>
<path fill="none" stroke="midnightblue" d="M30.37,-456.43C47.43,-434.3 89.83,-379.29 111.8,-350.77"/>
<polygon fill="midnightblue" stroke="midnightblue" points="114.59,-352.89 117.92,-342.84 109.04,-348.62 114.59,-352.89"/>
</g>
<!-- Node15 -->
<g id="node15" class="node">
<title>Node15</title>
<g id="a_node15"><a xlink:href="networking_8cpp.html#ad26b4549029330bc2b554fa4ed1e5bc7" target="_top" xlink:title=" ">
<polygon fill="white" stroke="black" points="80,-190.5 80,-209.5 173,-209.5 173,-190.5 80,-190.5"/>
<text text-anchor="middle" x="126.5" y="-197.5" font-family="Helvetica,sans-Serif" font-size="10.00">networkingTask</text>
</a>
</g>
</g>
<!-- Node1&#45;&gt;Node15 -->
<g id="edge17" class="edge">
<title>Node1&#45;&gt;Node15</title>
<path fill="none" stroke="midnightblue" d="M26.53,-456.37C35.37,-432.3 59.25,-367.62 80,-314 92.95,-280.55 108.54,-241.79 117.7,-219.18"/>
<polygon fill="midnightblue" stroke="midnightblue" points="121.02,-220.31 121.54,-209.73 114.53,-217.68 121.02,-220.31"/>
</g>
<!-- Node28 -->
<g id="node28" class="node">
<title>Node28</title>
<g id="a_node28"><a xlink:href="lora_8cpp.html#a6042a1af9411d9eafc7088497f536eb8" target="_top" xlink:title="Task that manages the pjon protocol and radio.">
<polygon fill="white" stroke="black" points="97,-456.5 97,-475.5 156,-475.5 156,-456.5 97,-456.5"/>
<text text-anchor="middle" x="126.5" y="-463.5" font-family="Helvetica,sans-Serif" font-size="10.00">pjonTask</text>
</a>
</g>
</g>
<!-- Node1&#45;&gt;Node28 -->
<g id="edge31" class="edge">
<title>Node1&#45;&gt;Node28</title>
<path fill="none" stroke="midnightblue" d="M44.24,-466C56.51,-466 72.32,-466 86.73,-466"/>
<polygon fill="midnightblue" stroke="midnightblue" points="86.9,-469.5 96.9,-466 86.9,-462.5 86.9,-469.5"/>
</g>
<!-- Node4 -->
<g id="node4" class="node">
<title>Node4</title>
<g id="a_node4"><a xlink:href="class_led.html#aca41751e53023a56a30b541a1c23edfe" target="_top" xlink:title="Initialises the pins.">
<polygon fill="white" stroke="black" points="241,-608.5 241,-627.5 308,-627.5 308,-608.5 241,-608.5"/>
<text text-anchor="middle" x="274.5" y="-615.5" font-family="Helvetica,sans-Serif" font-size="10.00">Led::begin</text>
</a>
</g>
</g>
<!-- Node3&#45;&gt;Node4 -->
<g id="edge3" class="edge">
<title>Node3&#45;&gt;Node4</title>
<path fill="none" stroke="midnightblue" d="M153.44,-511.18C160.38,-514.03 167.48,-517.87 173,-523 198.92,-547.08 182.61,-570.44 209,-594 215.41,-599.72 223.3,-604.12 231.34,-607.49"/>
<polygon fill="midnightblue" stroke="midnightblue" points="230.17,-610.79 240.77,-610.99 232.61,-604.23 230.17,-610.79"/>
</g>
<!-- Node5 -->
<g id="node5" class="node">
<title>Node5</title>
<g id="a_node5"><a xlink:href="class_led.html#ad977cfca6965684f274d8d6e33ac3548" target="_top" xlink:title="Turns the LED on or off.">
<polygon fill="white" stroke="black" points="436.5,-598.5 436.5,-617.5 491.5,-617.5 491.5,-598.5 436.5,-598.5"/>
<text text-anchor="middle" x="464" y="-605.5" font-family="Helvetica,sans-Serif" font-size="10.00">Led::set</text>
</a>
</g>
</g>
<!-- Node3&#45;&gt;Node5 -->
<g id="edge5" class="edge">
<title>Node3&#45;&gt;Node5</title>
<path fill="none" stroke="midnightblue" d="M153.03,-512.48C159.82,-515.3 166.94,-518.82 173,-523 192.15,-536.21 188.56,-549.89 209,-561 245.97,-581.09 365.21,-596.98 426.25,-604.03"/>
<polygon fill="midnightblue" stroke="midnightblue" points="425.9,-607.52 436.23,-605.17 426.69,-600.56 425.9,-607.52"/>
</g>
<!-- Node6 -->
<g id="node6" class="node">
<title>Node6</title>
<g id="a_node6"><a xlink:href="class_device_manager.html#ac356dbc3ba069ca92c67825081d7a8a8" target="_top" xlink:title="Returns the number of packets that need to be sent across all devices.">
<polygon fill="white" stroke="black" points="388,-380.5 388,-399.5 540,-399.5 540,-380.5 388,-380.5"/>
<text text-anchor="middle" x="464" y="-387.5" font-family="Helvetica,sans-Serif" font-size="10.00">DeviceManager::txRequired</text>
</a>
</g>
</g>
<!-- Node3&#45;&gt;Node6 -->
<g id="edge6" class="edge">
<title>Node3&#45;&gt;Node6</title>
<path fill="none" stroke="midnightblue" d="M153.11,-509.24C195.98,-516.49 283.18,-524.61 340,-485 370.66,-463.63 346.74,-432.26 376,-409 378.12,-407.32 380.35,-405.77 382.68,-404.36"/>
<polygon fill="midnightblue" stroke="midnightblue" points="384.76,-407.23 392.05,-399.53 381.55,-401 384.76,-407.23"/>
</g>
<!-- Node4&#45;&gt;Node5 -->
<g id="edge4" class="edge">
<title>Node4&#45;&gt;Node5</title>
<path fill="none" stroke="midnightblue" d="M308.16,-616.26C341.15,-614.5 392.03,-611.79 426.38,-609.95"/>
<polygon fill="midnightblue" stroke="midnightblue" points="426.67,-613.44 436.47,-609.42 426.29,-606.45 426.67,-613.44"/>
</g>
<!-- Node8 -->
<g id="node8" class="node">
<title>Node8</title>
<g id="a_node8"><a xlink:href="lora_8cpp.html#afbd9f56608d04cb8a75d69112cd89885" target="_top" xlink:title="Task for printing out a byte array.">
<polygon fill="white" stroke="black" points="223.5,-266.5 223.5,-285.5 325.5,-285.5 325.5,-266.5 223.5,-266.5"/>
<text text-anchor="middle" x="274.5" y="-273.5" font-family="Helvetica,sans-Serif" font-size="10.00">debugLoRaPacket</text>
</a>
</g>
</g>
<!-- Node7&#45;&gt;Node8 -->
<g id="edge8" class="edge">
<title>Node7&#45;&gt;Node8</title>
<path fill="none" stroke="midnightblue" d="M150.62,-323.44C166.89,-316.75 189.22,-307.68 209,-300 218.34,-296.37 228.48,-292.55 237.9,-289.04"/>
<polygon fill="midnightblue" stroke="midnightblue" points="239.23,-292.28 247.39,-285.52 236.79,-285.72 239.23,-292.28"/>
</g>
<!-- Node9 -->
<g id="node9" class="node">
<title>Node9</title>
<g id="a_node9"><a xlink:href="class_device.html#a0fc7e0f4a048d2b7010c7bc6882bb987" target="_top" xlink:title="Generates a packet containing all the fields and instructions to set.">
<polygon fill="white" stroke="black" points="209,-228.5 209,-247.5 340,-247.5 340,-228.5 209,-228.5"/>
<text text-anchor="middle" x="274.5" y="-235.5" font-family="Helvetica,sans-Serif" font-size="10.00">Device::generatePacket</text>
</a>
</g>
</g>
<!-- Node7&#45;&gt;Node9 -->
<g id="edge9" class="edge">
<title>Node7&#45;&gt;Node9</title>
<path fill="none" stroke="midnightblue" d="M135.22,-323.32C148.57,-307.22 177.58,-274.93 209,-257 212.87,-254.79 217.02,-252.82 221.28,-251.06"/>
<polygon fill="midnightblue" stroke="midnightblue" points="222.56,-254.32 230.71,-247.55 220.12,-247.76 222.56,-254.32"/>
</g>
<!-- Node11 -->
<g id="node11" class="node">
<title>Node11</title>
<g id="a_node11"><a xlink:href="class_device.html#ac068e8e17f6536cc63e1631e0ba5837c" target="_top" xlink:title="Checks if a transmission is required.">
<polygon fill="white" stroke="black" points="220.5,-380.5 220.5,-399.5 328.5,-399.5 328.5,-380.5 220.5,-380.5"/>
<text text-anchor="middle" x="274.5" y="-387.5" font-family="Helvetica,sans-Serif" font-size="10.00">Device::rpcWaiting</text>
</a>
</g>
</g>
<!-- Node7&#45;&gt;Node11 -->
<g id="edge11" class="edge">
<title>Node7&#45;&gt;Node11</title>
<path fill="none" stroke="midnightblue" d="M145.93,-342.56C162.23,-350.79 186.8,-362.61 209,-371 215.02,-373.28 221.44,-375.45 227.8,-377.47"/>
<polygon fill="midnightblue" stroke="midnightblue" points="227.11,-380.91 237.7,-380.49 229.16,-374.22 227.11,-380.91"/>
</g>
<!-- Node12 -->
<g id="node12" class="node">
<title>Node12</title>
<g id="a_node12"><a xlink:href="lora_8cpp.html#ab4d91a7f25182323f789a4e986c08cd8" target="_top" xlink:title="updates the attribute waiting to false if required.">
<polygon fill="white" stroke="black" points="211.5,-342.5 211.5,-361.5 337.5,-361.5 337.5,-342.5 211.5,-342.5"/>
<text text-anchor="middle" x="274.5" y="-349.5" font-family="Helvetica,sans-Serif" font-size="10.00">sendOnTxNotRequired</text>
</a>
</g>
</g>
<!-- Node7&#45;&gt;Node12 -->
<g id="edge12" class="edge">
<title>Node7&#45;&gt;Node12</title>
<path fill="none" stroke="midnightblue" d="M161.36,-337.41C173.36,-338.97 187.36,-340.79 201.32,-342.61"/>
<polygon fill="midnightblue" stroke="midnightblue" points="201.08,-346.11 211.45,-343.93 201.99,-339.16 201.08,-346.11"/>
</g>
<!-- Node13 -->
<g id="node13" class="node">
<title>Node13</title>
<g id="a_node13"><a xlink:href="lora_8cpp.html#ab9cd66992a99394d4aa4030fcdbf6182" target="_top" xlink:title="Sets the state for if there are packets left to send.">
<polygon fill="white" stroke="black" points="409.5,-342.5 409.5,-361.5 518.5,-361.5 518.5,-342.5 409.5,-342.5"/>
<text text-anchor="middle" x="464" y="-349.5" font-family="Helvetica,sans-Serif" font-size="10.00">sendTxWaitingMsg</text>
</a>
</g>
</g>
<!-- Node7&#45;&gt;Node13 -->
<g id="edge16" class="edge">
<title>Node7&#45;&gt;Node13</title>
<path fill="none" stroke="midnightblue" d="M161.05,-331.42C202.99,-329.8 276.92,-328.16 340,-333 360.64,-334.58 383.06,-337.64 403.04,-340.85"/>
<polygon fill="midnightblue" stroke="midnightblue" points="402.5,-344.31 412.93,-342.49 403.64,-337.41 402.5,-344.31"/>
</g>
<!-- Node10 -->
<g id="node10" class="node">
<title>Node10</title>
<g id="a_node10"><a xlink:href="class_field.html#a8411bfb2768fb0ea256f83f40941ba75" target="_top" xlink:title="Encodes the value to set into a packet ready to send if needed.">
<polygon fill="white" stroke="black" points="423.5,-228.5 423.5,-247.5 504.5,-247.5 504.5,-228.5 423.5,-228.5"/>
<text text-anchor="middle" x="464" y="-235.5" font-family="Helvetica,sans-Serif" font-size="10.00">Field::encode</text>
</a>
</g>
</g>
<!-- Node9&#45;&gt;Node10 -->
<g id="edge10" class="edge">
<title>Node9&#45;&gt;Node10</title>
<path fill="none" stroke="midnightblue" d="M340.03,-238C363.9,-238 390.57,-238 412.96,-238"/>
<polygon fill="midnightblue" stroke="midnightblue" points="413.25,-241.5 423.25,-238 413.25,-234.5 413.25,-241.5"/>
</g>
<!-- Node12&#45;&gt;Node6 -->
<g id="edge15" class="edge">
<title>Node12&#45;&gt;Node6</title>
<path fill="none" stroke="midnightblue" d="M322.81,-361.59C348.11,-366.72 379.45,-373.07 406.07,-378.46"/>
<polygon fill="midnightblue" stroke="midnightblue" points="405.53,-381.92 416.03,-380.48 406.92,-375.06 405.53,-381.92"/>
</g>
<!-- Node12&#45;&gt;Node13 -->
<g id="edge13" class="edge">
<title>Node12&#45;&gt;Node13</title>
<path fill="none" stroke="midnightblue" d="M337.67,-352C357.46,-352 379.38,-352 399.28,-352"/>
<polygon fill="midnightblue" stroke="midnightblue" points="399.47,-355.5 409.47,-352 399.47,-348.5 399.47,-355.5"/>
</g>
<!-- Node14 -->
<g id="node14" class="node">
<title>Node14</title>
<g id="a_node14"><a xlink:href="lora_8cpp.html#adc3c5806492d2818ad6f5aff232765ec" target="_top" xlink:title=" ">
<polygon fill="white" stroke="black" points="625.5,-380.5 625.5,-399.5 725.5,-399.5 725.5,-380.5 625.5,-380.5"/>
<text text-anchor="middle" x="675.5" y="-387.5" font-family="Helvetica,sans-Serif" font-size="10.00">setAttributeState</text>
</a>
</g>
</g>
<!-- Node13&#45;&gt;Node14 -->
<g id="edge14" class="edge">
<title>Node13&#45;&gt;Node14</title>
<path fill="none" stroke="midnightblue" d="M517.6,-361.54C547.32,-366.93 584.58,-373.69 615.32,-379.27"/>
<polygon fill="midnightblue" stroke="midnightblue" points="615.02,-382.77 625.48,-381.11 616.27,-375.88 615.02,-382.77"/>
</g>
<!-- Node16 -->
<g id="node16" class="node">
<title>Node16</title>
<g id="a_node16"><a xlink:href="networking_8cpp.html#a9ad5cb858c24c53a6eaa846b713bd120" target="_top" xlink:title="Connects to the MQTT broker.">
<polygon fill="white" stroke="black" points="234.5,-133.5 234.5,-152.5 314.5,-152.5 314.5,-133.5 234.5,-133.5"/>
<text text-anchor="middle" x="274.5" y="-140.5" font-family="Helvetica,sans-Serif" font-size="10.00">mqttConnect</text>
</a>
</g>
</g>
<!-- Node15&#45;&gt;Node16 -->
<g id="edge18" class="edge">
<title>Node15&#45;&gt;Node16</title>
<path fill="none" stroke="midnightblue" d="M151.94,-190.46C175.94,-181.09 212.76,-166.71 239.59,-156.24"/>
<polygon fill="midnightblue" stroke="midnightblue" points="240.94,-159.47 248.98,-152.57 238.4,-152.95 240.94,-159.47"/>
</g>
<!-- Node27 -->
<g id="node27" class="node">
<title>Node27</title>
<g id="a_node27"><a xlink:href="networking_8cpp.html#a23a6f53d5284ae6a9d27420cceeb80c3" target="_top" xlink:title="Connects to WiFi.">
<polygon fill="white" stroke="black" points="427,-190.5 427,-209.5 501,-209.5 501,-190.5 427,-190.5"/>
<text text-anchor="middle" x="464" y="-197.5" font-family="Helvetica,sans-Serif" font-size="10.00">wifiConnect</text>
</a>
</g>
</g>
<!-- Node15&#45;&gt;Node27 -->
<g id="edge30" class="edge">
<title>Node15&#45;&gt;Node27</title>
<path fill="none" stroke="midnightblue" d="M173.1,-200C236.91,-200 352.23,-200 416.52,-200"/>
<polygon fill="midnightblue" stroke="midnightblue" points="416.76,-203.5 426.76,-200 416.76,-196.5 416.76,-203.5"/>
</g>
<!-- Node17 -->
<g id="node17" class="node">
<title>Node17</title>
<g id="a_node17"><a xlink:href="class_device_manager.html#ac06f3334d0776ed6fd7fd0f71248d6b3" target="_top" xlink:title="Registers each device to Thingsboard over MQTT.">
<polygon fill="white" stroke="black" points="376,-76.5 376,-95.5 552,-95.5 552,-76.5 376,-76.5"/>
<text text-anchor="middle" x="464" y="-83.5" font-family="Helvetica,sans-Serif" font-size="10.00">DeviceManager::connectDevices</text>
</a>
</g>
</g>
<!-- Node16&#45;&gt;Node17 -->
<g id="edge19" class="edge">
<title>Node16&#45;&gt;Node17</title>
<path fill="none" stroke="midnightblue" d="M297.93,-133.44C318.08,-125.1 348.64,-113.11 376,-105 384.82,-102.39 394.23,-99.96 403.5,-97.78"/>
<polygon fill="midnightblue" stroke="midnightblue" points="404.48,-101.14 413.45,-95.51 402.92,-94.32 404.48,-101.14"/>
</g>
<!-- Node18 -->
<g id="node18" class="node">
<title>Node18</title>
<g id="a_node18"><a xlink:href="networking_8cpp.html#a91d98374ed6fc205a7a2c9e2ef00dd97" target="_top" xlink:title=" ">
<polygon fill="white" stroke="black" points="421.5,-38.5 421.5,-57.5 506.5,-57.5 506.5,-38.5 421.5,-38.5"/>
<text text-anchor="middle" x="464" y="-45.5" font-family="Helvetica,sans-Serif" font-size="10.00">mqttReceived</text>
</a>
</g>
</g>
<!-- Node16&#45;&gt;Node18 -->
<g id="edge20" class="edge">
<title>Node16&#45;&gt;Node18</title>
<path fill="none" stroke="midnightblue" d="M285.1,-133.4C301.95,-117.12 338.64,-84.19 376,-67 386.97,-61.95 399.35,-58.21 411.25,-55.46"/>
<polygon fill="midnightblue" stroke="midnightblue" points="412.05,-58.87 421.1,-53.37 410.59,-52.02 412.05,-58.87"/>
</g>
<!-- Node25 -->
<g id="node25" class="node">
<title>Node25</title>
<g id="a_node25"><a xlink:href="networking_8cpp.html#ab2d5192ed1436350b19a2a4ccb2053c3" target="_top" xlink:title="Subscribes to the required topics.">
<polygon fill="white" stroke="black" points="430,-152.5 430,-171.5 498,-171.5 498,-152.5 430,-152.5"/>
<text text-anchor="middle" x="464" y="-159.5" font-family="Helvetica,sans-Serif" font-size="10.00">mqttSetup</text>
</a>
</g>
</g>
<!-- Node16&#45;&gt;Node25 -->
<g id="edge27" class="edge">
<title>Node16&#45;&gt;Node25</title>
<path fill="none" stroke="midnightblue" d="M314.81,-146.98C345.39,-150.08 387.8,-154.38 419.42,-157.58"/>
<polygon fill="midnightblue" stroke="midnightblue" points="419.4,-161.1 429.7,-158.63 420.1,-154.14 419.4,-161.1"/>
</g>
<!-- Node26 -->
<g id="node26" class="node">
<title>Node26</title>
<g id="a_node26"><a xlink:href="rpc_8cpp.html#a966e66eaf82bb85dffba775b5442f3f6" target="_top" xlink:title="Informs thingsboard what software version is running. This does not use a queue as this could be sent...">
<polygon fill="white" stroke="black" points="409,-114.5 409,-133.5 519,-133.5 519,-114.5 409,-114.5"/>
<text text-anchor="middle" x="464" y="-121.5" font-family="Helvetica,sans-Serif" font-size="10.00">setVersionAttribute</text>
</a>
</g>
</g>
<!-- Node16&#45;&gt;Node26 -->
<g id="edge28" class="edge">
<title>Node16&#45;&gt;Node26</title>
<path fill="none" stroke="midnightblue" d="M314.81,-139.02C339.1,-136.56 370.85,-133.34 398.74,-130.51"/>
<polygon fill="midnightblue" stroke="midnightblue" points="399.22,-133.98 408.81,-129.49 398.51,-127.02 399.22,-133.98"/>
</g>
<!-- Node16&#45;&gt;Node27 -->
<g id="edge29" class="edge">
<title>Node16&#45;&gt;Node27</title>
<path fill="none" stroke="midnightblue" d="M297.93,-152.56C318.08,-160.9 348.64,-172.89 376,-181 389.11,-184.89 403.55,-188.36 416.83,-191.23"/>
<polygon fill="midnightblue" stroke="midnightblue" points="416.21,-194.68 426.72,-193.31 417.65,-187.83 416.21,-194.68"/>
</g>
<!-- Node19 -->
<g id="node19" class="node">
<title>Node19</title>
<g id="a_node19"><a xlink:href="rpc_8cpp.html#a4cfe66424e5527493ec95bc8ffed5bc7" target="_top" xlink:title="Handles an RPC message addressed to remote devices.">
<polygon fill="white" stroke="black" points="638,-76.5 638,-95.5 713,-95.5 713,-76.5 638,-76.5"/>
<text text-anchor="middle" x="675.5" y="-83.5" font-family="Helvetica,sans-Serif" font-size="10.00">rpcGateway</text>
</a>
</g>
</g>
<!-- Node18&#45;&gt;Node19 -->
<g id="edge21" class="edge">
<title>Node18&#45;&gt;Node19</title>
<path fill="none" stroke="midnightblue" d="M506.64,-55.55C541.65,-61.9 591.66,-70.97 627.98,-77.56"/>
<polygon fill="midnightblue" stroke="midnightblue" points="627.38,-81.01 637.84,-79.35 628.63,-74.12 627.38,-81.01"/>
</g>
<!-- Node22 -->
<g id="node22" class="node">
<title>Node22</title>
<g id="a_node22"><a xlink:href="rpc_8cpp.html#ae128ecfe100603224c2fda1ff5f5ce0a" target="_top" xlink:title="Handles an RPC message addressed to this device (not one of the remote devices).">
<polygon fill="white" stroke="black" points="652,-38.5 652,-57.5 699,-57.5 699,-38.5 652,-38.5"/>
<text text-anchor="middle" x="675.5" y="-45.5" font-family="Helvetica,sans-Serif" font-size="10.00">rpcMe</text>
</a>
</g>
</g>
<!-- Node18&#45;&gt;Node22 -->
<g id="edge24" class="edge">
<title>Node18&#45;&gt;Node22</title>
<path fill="none" stroke="midnightblue" d="M506.64,-48C546.39,-48 605.47,-48 641.9,-48"/>
<polygon fill="midnightblue" stroke="midnightblue" points="641.99,-51.5 651.99,-48 641.99,-44.5 641.99,-51.5"/>
</g>
<!-- Node24 -->
<g id="node24" class="node">
<title>Node24</title>
<g id="a_node24"><a xlink:href="rpc_8cpp.html#adfc4d7c2e3b046a5fb41b597ebd9f727" target="_top" xlink:title="Checks if one string starts with another (quicker than strstr?)">
<polygon fill="white" stroke="black" points="642,-0.5 642,-19.5 709,-19.5 709,-0.5 642,-0.5"/>
<text text-anchor="middle" x="675.5" y="-7.5" font-family="Helvetica,sans-Serif" font-size="10.00">startsWith</text>
</a>
</g>
</g>
<!-- Node18&#45;&gt;Node24 -->
<g id="edge26" class="edge">
<title>Node18&#45;&gt;Node24</title>
<path fill="none" stroke="midnightblue" d="M506.64,-40.45C542.96,-33.86 595.42,-24.34 632,-17.71"/>
<polygon fill="midnightblue" stroke="midnightblue" points="632.65,-21.15 641.87,-15.92 631.4,-14.26 632.65,-21.15"/>
</g>
<!-- Node20 -->
<g id="node20" class="node">
<title>Node20</title>
<g id="a_node20"><a xlink:href="class_lookup_manager.html#aaa9c3082dae381c5079f5346e3c9426b" target="_top" xlink:title="Gets the object matching the given name.">
<polygon fill="white" stroke="black" points="799,-76.5 799,-95.5 966,-95.5 966,-76.5 799,-76.5"/>
<text text-anchor="middle" x="882.5" y="-83.5" font-family="Helvetica,sans-Serif" font-size="10.00">LookupManager::getWithName</text>
</a>
</g>
</g>
<!-- Node19&#45;&gt;Node20 -->
<g id="edge22" class="edge">
<title>Node19&#45;&gt;Node20</title>
<path fill="none" stroke="midnightblue" d="M713.15,-86C734.29,-86 761.91,-86 788.64,-86"/>
<polygon fill="midnightblue" stroke="midnightblue" points="788.83,-89.5 798.83,-86 788.83,-82.5 788.83,-89.5"/>
</g>
<!-- Node21 -->
<g id="node21" class="node">
<title>Node21</title>
<g id="a_node21"><a xlink:href="class_field.html#a9b3b13d9abe0884a93b294edc0396f74" target="_top" xlink:title="handles an RPC call for a field.">
<polygon fill="white" stroke="black" points="834,-114.5 834,-133.5 931,-133.5 931,-114.5 834,-114.5"/>
<text text-anchor="middle" x="882.5" y="-121.5" font-family="Helvetica,sans-Serif" font-size="10.00">Field::handleRpc</text>
</a>
</g>
</g>
<!-- Node19&#45;&gt;Node21 -->
<g id="edge23" class="edge">
<title>Node19&#45;&gt;Node21</title>
<path fill="none" stroke="midnightblue" d="M713.15,-92.79C743.86,-98.49 788.25,-106.72 823.74,-113.29"/>
<polygon fill="midnightblue" stroke="midnightblue" points="823.5,-116.81 833.97,-115.19 824.77,-109.93 823.5,-116.81"/>
</g>
<!-- Node23 -->
<g id="node23" class="node">
<title>Node23</title>
<g id="a_node23"><a xlink:href="rpc_8cpp.html#a8d99d63355a7dac3b1264ced57f255d9" target="_top" xlink:title="Replies to an RPC message for this device.">
<polygon fill="white" stroke="black" points="845.5,-38.5 845.5,-57.5 919.5,-57.5 919.5,-38.5 845.5,-38.5"/>
<text text-anchor="middle" x="882.5" y="-45.5" font-family="Helvetica,sans-Serif" font-size="10.00">replyMeRpc</text>
</a>
</g>
</g>
<!-- Node22&#45;&gt;Node23 -->
<g id="edge25" class="edge">
<title>Node22&#45;&gt;Node23</title>
<path fill="none" stroke="midnightblue" d="M699.22,-48C731.87,-48 792.78,-48 835.16,-48"/>
<polygon fill="midnightblue" stroke="midnightblue" points="835.24,-51.5 845.24,-48 835.24,-44.5 835.24,-51.5"/>
</g>
<!-- Node29 -->
<g id="node29" class="node">
<title>Node29</title>
<g id="a_node29"><a xlink:href="lora_8cpp.html#ac5e6522afd1447f1520e4f4503af9ec5" target="_top" xlink:title="Task that checks if the radio is connected.">
<polygon fill="white" stroke="black" points="222,-418.5 222,-437.5 327,-437.5 327,-418.5 222,-418.5"/>
<text text-anchor="middle" x="274.5" y="-425.5" font-family="Helvetica,sans-Serif" font-size="10.00">loraWatchdogTask</text>
</a>
</g>
</g>
<!-- Node28&#45;&gt;Node29 -->
<g id="edge32" class="edge">
<title>Node28&#45;&gt;Node29</title>
<path fill="none" stroke="midnightblue" d="M156.34,-458.49C176.47,-453.25 203.77,-446.15 226.95,-440.12"/>
<polygon fill="midnightblue" stroke="midnightblue" points="228.14,-443.42 236.93,-437.52 226.37,-436.65 228.14,-443.42"/>
</g>
<!-- Node31 -->
<g id="node31" class="node">
<title>Node31</title>
<g id="a_node31"><a xlink:href="lora_8cpp.html#aef164eaa7a67eb3153407eb4b601f4f0" target="_top" xlink:title="Logs PJON errors.">
<polygon fill="white" stroke="black" points="244,-456.5 244,-475.5 305,-475.5 305,-456.5 244,-456.5"/>
<text text-anchor="middle" x="274.5" y="-463.5" font-family="Helvetica,sans-Serif" font-size="10.00">pjonError</text>
</a>
</g>
</g>
<!-- Node28&#45;&gt;Node31 -->
<g id="edge35" class="edge">
<title>Node28&#45;&gt;Node31</title>
<path fill="none" stroke="midnightblue" d="M156.34,-466C178.45,-466 209.21,-466 233.66,-466"/>
<polygon fill="midnightblue" stroke="midnightblue" points="233.71,-469.5 243.71,-466 233.71,-462.5 233.71,-469.5"/>
</g>
<!-- Node32 -->
<g id="node32" class="node">
<title>Node32</title>
<g id="a_node32"><a xlink:href="lora_8cpp.html#a73337b280bec4397780b012ccc949113" target="_top" xlink:title="Handles an incoming packet received from the radio and adds the given snr and rssi to the packet.">
<polygon fill="white" stroke="black" points="236,-532.5 236,-551.5 313,-551.5 313,-532.5 236,-532.5"/>
<text text-anchor="middle" x="274.5" y="-539.5" font-family="Helvetica,sans-Serif" font-size="10.00">pjonReceive</text>
</a>
</g>
</g>
<!-- Node28&#45;&gt;Node32 -->
<g id="edge36" class="edge">
<title>Node28&#45;&gt;Node32</title>
<path fill="none" stroke="midnightblue" d="M151.83,-475.52C158.75,-478.4 166.24,-481.68 173,-485 199.59,-498.03 228.93,-514.99 249.01,-527.01"/>
<polygon fill="midnightblue" stroke="midnightblue" points="247.43,-530.15 257.81,-532.31 251.05,-524.15 247.43,-530.15"/>
</g>
<!-- Node30 -->
<g id="node30" class="node">
<title>Node30</title>
<g id="a_node30"><a xlink:href="lora_8cpp.html#aeae7cd913b330750fef4bda6cadbf95b" target="_top" xlink:title="Sends an attribute over mqtt depending on the state of the radio connection.">
<polygon fill="white" stroke="black" points="394,-418.5 394,-437.5 534,-437.5 534,-418.5 394,-418.5"/>
<text text-anchor="middle" x="464" y="-425.5" font-family="Helvetica,sans-Serif" font-size="10.00">sendRadioConnectedMsg</text>
</a>
</g>
</g>
<!-- Node29&#45;&gt;Node30 -->
<g id="edge33" class="edge">
<title>Node29&#45;&gt;Node30</title>
<path fill="none" stroke="midnightblue" d="M327.23,-428C344.69,-428 364.6,-428 383.69,-428"/>
<polygon fill="midnightblue" stroke="midnightblue" points="383.88,-431.5 393.88,-428 383.88,-424.5 383.88,-431.5"/>
</g>
<!-- Node30&#45;&gt;Node14 -->
<g id="edge34" class="edge">
<title>Node30&#45;&gt;Node14</title>
<path fill="none" stroke="midnightblue" d="M517.6,-418.46C547.32,-413.07 584.58,-406.31 615.32,-400.73"/>
<polygon fill="midnightblue" stroke="midnightblue" points="616.27,-404.12 625.48,-398.89 615.02,-397.23 616.27,-404.12"/>
</g>
<!-- Node33 -->
<g id="node33" class="node">
<title>Node33</title>
<g id="a_node33"><a xlink:href="class_device.html#a35eba370894e0e1ec39f2043e466b2f6" target="_top" xlink:title="Decodes the payload from a PJON packet and converts it to thingsboard MQTT JSON.">
<polygon fill="white" stroke="black" points="388,-541.5 388,-560.5 540,-560.5 540,-541.5 388,-541.5"/>
<text text-anchor="middle" x="464" y="-548.5" font-family="Helvetica,sans-Serif" font-size="10.00">Device::decodePacketFields</text>
</a>
</g>
</g>
<!-- Node32&#45;&gt;Node33 -->
<g id="edge37" class="edge">
<title>Node32&#45;&gt;Node33</title>
<path fill="none" stroke="midnightblue" d="M313.44,-543.82C332,-544.71 355.15,-545.82 377.65,-546.9"/>
<polygon fill="midnightblue" stroke="midnightblue" points="377.76,-550.41 387.92,-547.4 378.1,-543.42 377.76,-550.41"/>
</g>
<!-- Node35 -->
<g id="node35" class="node">
<title>Node35</title>
<g id="a_node35"><a xlink:href="class_lookup_manager.html#a8d3d926f82bfb89594abd2430b9d4326" target="_top" xlink:title="Gets the object with the given symbol.">
<polygon fill="white" stroke="black" points="588,-503.5 588,-522.5 763,-522.5 763,-503.5 588,-503.5"/>
<text text-anchor="middle" x="675.5" y="-510.5" font-family="Helvetica,sans-Serif" font-size="10.00">LookupManager::getWithSymbol</text>
</a>
</g>
</g>
<!-- Node32&#45;&gt;Node35 -->
<g id="edge40" class="edge">
<title>Node32&#45;&gt;Node35</title>
<path fill="none" stroke="midnightblue" d="M313.17,-537.93C332.03,-535.98 355.2,-533.7 376,-532 443.26,-526.52 519.15,-521.7 577.57,-518.29"/>
<polygon fill="midnightblue" stroke="midnightblue" points="578.12,-521.77 587.9,-517.7 577.72,-514.78 578.12,-521.77"/>
</g>
<!-- Node34 -->
<g id="node34" class="node">
<title>Node34</title>
<g id="a_node34"><a xlink:href="class_field.html#aa036e196f5805e9406b8169200e3915a" target="_top" xlink:title="Decodes the value from bytes into an existing json document.">
<polygon fill="white" stroke="black" points="635,-541.5 635,-560.5 716,-560.5 716,-541.5 635,-541.5"/>
<text text-anchor="middle" x="675.5" y="-548.5" font-family="Helvetica,sans-Serif" font-size="10.00">Field::decode</text>
</a>
</g>
</g>
<!-- Node33&#45;&gt;Node34 -->
<g id="edge38" class="edge">
<title>Node33&#45;&gt;Node34</title>
<path fill="none" stroke="midnightblue" d="M540.04,-551C568.21,-551 599.51,-551 624.82,-551"/>
<polygon fill="midnightblue" stroke="midnightblue" points="624.91,-554.5 634.91,-551 624.91,-547.5 624.91,-554.5"/>
</g>
<!-- Node33&#45;&gt;Node35 -->
<g id="edge39" class="edge">
<title>Node33&#45;&gt;Node35</title>
<path fill="none" stroke="midnightblue" d="M517.6,-541.46C546.24,-536.27 581.86,-529.8 611.92,-524.35"/>
<polygon fill="midnightblue" stroke="midnightblue" points="612.67,-527.77 621.88,-522.54 611.42,-520.88 612.67,-527.77"/>
</g>
</g>
</svg>
        <g id="navigator" transform="translate(0 0)" fill="#404254">
                <rect fill="#f2f5e9" fill-opacity="0.5" stroke="#606060" stroke-width=".5" x="0" y="0" width="60" height="60"/>
                <use id="zoomplus" xlink:href="#zoomPlus" x="17" y="9" onmousedown="handleZoom(evt,'in')"/>
                <use id="zoomminus" xlink:href="#zoomMin" x="42" y="9" onmousedown="handleZoom(evt,'out')"/>
                <use id="reset" xlink:href="#resetDef" x="30" y="36" onmousedown="handleReset()"/>
                <g id="arrowUp" xlink:href="#dirArrow" transform="translate(30 24)" onmousedown="handlePan(0,-1)">
                  <use xlink:href="#rim" fill="#404040">
                        <set attributeName="fill" to="#808080" begin="arrowUp.mouseover" end="arrowUp.mouseout"/>
                  </use>
                  <path fill="none" stroke="white" stroke-width="1.5" d="M0,-3.0v7 M-2.5,-0.5L0,-3.0L2.5,-0.5"/>
                </g>
                <g id="arrowRight" xlink:href="#dirArrow" transform="rotate(90) translate(36 -43)" onmousedown="handlePan(1,0)">
                  <use xlink:href="#rim" fill="#404040">
                        <set attributeName="fill" to="#808080" begin="arrowRight.mouseover" end="arrowRight.mouseout"/>
                  </use>
                  <path fill="none" stroke="white" stroke-width="1.5" d="M0,-3.0v7 M-2.5,-0.5L0,-3.0L2.5,-0.5"/>
                </g>
                <g id="arrowDown" xlink:href="#dirArrow" transform="rotate(180) translate(-30 -48)" onmousedown="handlePan(0,1)">
                  <use xlink:href="#rim" fill="#404040">
                        <set attributeName="fill" to="#808080" begin="arrowDown.mouseover" end="arrowDown.mouseout"/>
                  </use>
                  <path fill="none" stroke="white" stroke-width="1.5" d="M0,-3.0v7 M-2.5,-0.5L0,-3.0L2.5,-0.5"/>
                </g>
                <g id="arrowLeft" xlink:href="#dirArrow" transform="rotate(270) translate(-36 17)" onmousedown="handlePan(-1,0)">
                  <use xlink:href="#rim" fill="#404040">
                        <set attributeName="fill" to="#808080" begin="arrowLeft.mouseover" end="arrowLeft.mouseout"/>
                  </use>
                  <path fill="none" stroke="white" stroke-width="1.5" d="M0,-3.0v7 M-2.5,-0.5L0,-3.0L2.5,-0.5"/>
                </g>
        </g>
        <svg viewBox="0 0 15 15" width="100%" height="30px" preserveAspectRatio="xMaxYMin meet">
         <g id="arrow_out" transform="scale(0.3 0.3)">
          <a xlink:href="main_8cpp_a4fc01d736fe50cf5b977f755b675f11d_cgraph_org.svg" target="_base">
           <rect id="button" ry="5" rx="5" y="6" x="6" height="38" width="38"
                fill="#f2f5e9" fill-opacity="0.5" stroke="#606060" stroke-width="1.0"/>
           <path id="arrow"
             d="M 11.500037,31.436501 C 11.940474,20.09759 22.043105,11.32322 32.158766,21.979434 L 37.068811,17.246167 C 37.068811,17.246167 37.088388,32 37.088388,32 L 22.160133,31.978069 C 22.160133,31.978069 26.997745,27.140456 26.997745,27.140456 C 18.528582,18.264221 13.291696,25.230495 11.500037,31.436501 z"
             style="fill:#404040;"/>
          </a>
         </g>
        </svg>
</svg>
