<?xml version="1.0" encoding="UTF-8" standalone="no"?>
<!DOCTYPE svg PUBLIC "-//W3C//DTD SVG 1.1//EN"
 "http://www.w3.org/Graphics/SVG/1.1/DTD/svg11.dtd">
<!-- Generated by graphviz version 2.43.0 (0)
 -->
<!-- Title: setup Pages: 1 -->
<svg width="974pt" height="598pt"
 viewBox="0.00 0.00 974.00 598.00" xmlns="http://www.w3.org/2000/svg" xmlns:xlink="http://www.w3.org/1999/xlink">
<g id="graph0" class="graph" transform="scale(1 1) rotate(0) translate(4 594)">
<title>setup</title>
<polygon fill="white" stroke="transparent" points="-4,4 -4,-594 970,-594 970,4 -4,4"/>
<!-- Node1 -->
<g id="node1" class="node">
<title>Node1</title>
<g id="a_node1"><a xlink:title=" ">
<polygon fill="#bfbfbf" stroke="black" points="0,-418.5 0,-437.5 44,-437.5 44,-418.5 0,-418.5"/>
<text text-anchor="middle" x="22" y="-425.5" font-family="Helvetica,sans-Serif" font-size="10.00">setup</text>
</a>
</g>
</g>
<!-- Node2 -->
<g id="node2" class="node">
<title>Node2</title>
<g id="a_node2"><a xlink:href="alarm_8cpp.html#a6a2ca661c69cdb3d565c511a44da3a3e" target="_top" xlink:title="Task for managing the alarm mode.">
<polygon fill="white" stroke="black" points="93,-494.5 93,-513.5 160,-513.5 160,-494.5 93,-494.5"/>
<text text-anchor="middle" x="126.5" y="-501.5" font-family="Helvetica,sans-Serif" font-size="10.00">alarmTask</text>
</a>
</g>
</g>
<!-- Node1&#45;&gt;Node2 -->
<g id="edge1" class="edge">
<title>Node1&#45;&gt;Node2</title>
<path fill="none" stroke="midnightblue" d="M30.57,-437.63C40.71,-449.98 59.77,-471.44 80,-485 82.7,-486.81 85.6,-488.5 88.59,-490.07"/>
<polygon fill="midnightblue" stroke="midnightblue" points="87.13,-493.25 97.66,-494.4 90.15,-486.94 87.13,-493.25"/>
</g>
<!-- Node3 -->
<g id="node3" class="node">
<title>Node3</title>
<g id="a_node3"><a xlink:href="leds_8cpp.html#a0e9abc4adafb917c6af448aca6042e96" target="_top" xlink:title="Task that manages the LEDs on the unit.">
<polygon fill="white" stroke="black" points="100,-456.5 100,-475.5 153,-475.5 153,-456.5 100,-456.5"/>
<text text-anchor="middle" x="126.5" y="-463.5" font-family="Helvetica,sans-Serif" font-size="10.00">ledTask</text>
</a>
</g>
</g>
<!-- Node1&#45;&gt;Node3 -->
<g id="edge2" class="edge">
<title>Node1&#45;&gt;Node3</title>
<path fill="none" stroke="midnightblue" d="M44.24,-435.87C57.51,-440.8 74.94,-447.26 90.25,-452.93"/>
<polygon fill="midnightblue" stroke="midnightblue" points="89.34,-456.33 99.94,-456.52 91.78,-449.76 89.34,-456.33"/>
</g>
<!-- Node7 -->
<g id="node7" class="node">
<title>Node7</title>
<g id="a_node7"><a xlink:href="lora_8cpp.html#aa56d712b5af48cc40bd9ef0dac6cb797" target="_top" xlink:title="Task for sending packets when needed.">
<polygon fill="white" stroke="black" points="92,-285.5 92,-304.5 161,-304.5 161,-285.5 92,-285.5"/>
<text text-anchor="middle" x="126.5" y="-292.5" font-family="Helvetica,sans-Serif" font-size="10.00">loraTxTask</text>
</a>
</g>
</g>
<!-- Node1&#45;&gt;Node7 -->
<g id="edge7" class="edge">
<title>Node1&#45;&gt;Node7</title>
<path fill="none" stroke="midnightblue" d="M30.37,-418.43C47.43,-396.3 89.83,-341.29 111.8,-312.77"/>
<polygon fill="midnightblue" stroke="midnightblue" points="114.59,-314.89 117.92,-304.84 109.04,-310.62 114.59,-314.89"/>
</g>
<!-- Node15 -->
<g id="node15" class="node">
<title>Node15</title>
<g id="a_node15"><a xlink:href="networking_8cpp.html#ad26b4549029330bc2b554fa4ed1e5bc7" target="_top" xlink:title=" ">
<polygon fill="white" stroke="black" points="80,-152.5 80,-171.5 173,-171.5 173,-152.5 80,-152.5"/>
<text text-anchor="middle" x="126.5" y="-159.5" font-family="Helvetica,sans-Serif" font-size="10.00">networkingTask</text>
</a>
</g>
</g>
<!-- Node1&#45;&gt;Node15 -->
<g id="edge17" class="edge">
<title>Node1&#45;&gt;Node15</title>
<path fill="none" stroke="midnightblue" d="M26.53,-418.37C35.37,-394.3 59.25,-329.62 80,-276 92.95,-242.55 108.54,-203.79 117.7,-181.18"/>
<polygon fill="midnightblue" stroke="midnightblue" points="121.02,-182.31 121.54,-171.73 114.53,-179.68 121.02,-182.31"/>
</g>
<!-- Node27 -->
<g id="node27" class="node">
<title>Node27</title>
<g id="a_node27"><a xlink:href="lora_8cpp.html#a6042a1af9411d9eafc7088497f536eb8" target="_top" xlink:title="Task that manages the pjon protocol and radio.">
<polygon fill="white" stroke="black" points="97,-418.5 97,-437.5 156,-437.5 156,-418.5 97,-418.5"/>
<text text-anchor="middle" x="126.5" y="-425.5" font-family="Helvetica,sans-Serif" font-size="10.00">pjonTask</text>
</a>
</g>
</g>
<!-- Node1&#45;&gt;Node27 -->
<g id="edge30" class="edge">
<title>Node1&#45;&gt;Node27</title>
<path fill="none" stroke="midnightblue" d="M44.24,-428C56.51,-428 72.32,-428 86.73,-428"/>
<polygon fill="midnightblue" stroke="midnightblue" points="86.9,-431.5 96.9,-428 86.9,-424.5 86.9,-431.5"/>
</g>
<!-- Node4 -->
<g id="node4" class="node">
<title>Node4</title>
<g id="a_node4"><a xlink:href="class_led.html#aca41751e53023a56a30b541a1c23edfe" target="_top" xlink:title="Initialises the pins.">
<polygon fill="white" stroke="black" points="241,-570.5 241,-589.5 308,-589.5 308,-570.5 241,-570.5"/>
<text text-anchor="middle" x="274.5" y="-577.5" font-family="Helvetica,sans-Serif" font-size="10.00">Led::begin</text>
</a>
</g>
</g>
<!-- Node3&#45;&gt;Node4 -->
<g id="edge3" class="edge">
<title>Node3&#45;&gt;Node4</title>
<path fill="none" stroke="midnightblue" d="M153.44,-473.18C160.38,-476.03 167.48,-479.87 173,-485 198.92,-509.08 182.61,-532.44 209,-556 215.41,-561.72 223.3,-566.12 231.34,-569.49"/>
<polygon fill="midnightblue" stroke="midnightblue" points="230.17,-572.79 240.77,-572.99 232.61,-566.23 230.17,-572.79"/>
</g>
<!-- Node5 -->
<g id="node5" class="node">
<title>Node5</title>
<g id="a_node5"><a xlink:href="class_led.html#ad977cfca6965684f274d8d6e33ac3548" target="_top" xlink:title="Turns the LED on or off.">
<polygon fill="white" stroke="black" points="436.5,-560.5 436.5,-579.5 491.5,-579.5 491.5,-560.5 436.5,-560.5"/>
<text text-anchor="middle" x="464" y="-567.5" font-family="Helvetica,sans-Serif" font-size="10.00">Led::set</text>
</a>
</g>
</g>
<!-- Node3&#45;&gt;Node5 -->
<g id="edge5" class="edge">
<title>Node3&#45;&gt;Node5</title>
<path fill="none" stroke="midnightblue" d="M153.03,-474.48C159.82,-477.3 166.94,-480.82 173,-485 192.15,-498.21 188.56,-511.89 209,-523 245.97,-543.09 365.21,-558.98 426.25,-566.03"/>
<polygon fill="midnightblue" stroke="midnightblue" points="425.9,-569.52 436.23,-567.17 426.69,-562.56 425.9,-569.52"/>
</g>
<!-- Node6 -->
<g id="node6" class="node">
<title>Node6</title>
<g id="a_node6"><a xlink:href="class_device_manager.html#ac356dbc3ba069ca92c67825081d7a8a8" target="_top" xlink:title="Returns the number of packets that need to be sent across all devices.">
<polygon fill="white" stroke="black" points="388,-342.5 388,-361.5 540,-361.5 540,-342.5 388,-342.5"/>
<text text-anchor="middle" x="464" y="-349.5" font-family="Helvetica,sans-Serif" font-size="10.00">DeviceManager::txRequired</text>
</a>
</g>
</g>
<!-- Node3&#45;&gt;Node6 -->
<g id="edge6" class="edge">
<title>Node3&#45;&gt;Node6</title>
<path fill="none" stroke="midnightblue" d="M153.11,-471.24C195.98,-478.49 283.18,-486.61 340,-447 370.66,-425.63 346.74,-394.26 376,-371 378.12,-369.32 380.35,-367.77 382.68,-366.36"/>
<polygon fill="midnightblue" stroke="midnightblue" points="384.76,-369.23 392.05,-361.53 381.55,-363 384.76,-369.23"/>
</g>
<!-- Node4&#45;&gt;Node5 -->
<g id="edge4" class="edge">
<title>Node4&#45;&gt;Node5</title>
<path fill="none" stroke="midnightblue" d="M308.16,-578.26C341.15,-576.5 392.03,-573.79 426.38,-571.95"/>
<polygon fill="midnightblue" stroke="midnightblue" points="426.67,-575.44 436.47,-571.42 426.29,-568.45 426.67,-575.44"/>
</g>
<!-- Node8 -->
<g id="node8" class="node">
<title>Node8</title>
<g id="a_node8"><a xlink:href="lora_8cpp.html#afbd9f56608d04cb8a75d69112cd89885" target="_top" xlink:title="Task for printing out a byte array.">
<polygon fill="white" stroke="black" points="223.5,-266.5 223.5,-285.5 325.5,-285.5 325.5,-266.5 223.5,-266.5"/>
<text text-anchor="middle" x="274.5" y="-273.5" font-family="Helvetica,sans-Serif" font-size="10.00">debugLoRaPacket</text>
</a>
</g>
</g>
<!-- Node7&#45;&gt;Node8 -->
<g id="edge8" class="edge">
<title>Node7&#45;&gt;Node8</title>
<path fill="none" stroke="midnightblue" d="M161.36,-290.59C176.78,-288.59 195.51,-286.15 213.21,-283.85"/>
<polygon fill="midnightblue" stroke="midnightblue" points="214.02,-287.27 223.48,-282.51 213.12,-280.33 214.02,-287.27"/>
</g>
<!-- Node9 -->
<g id="node9" class="node">
<title>Node9</title>
<g id="a_node9"><a xlink:href="class_device.html#a0fc7e0f4a048d2b7010c7bc6882bb987" target="_top" xlink:title="Generates a packet containing all the fields and instructions to set.">
<polygon fill="white" stroke="black" points="209,-190.5 209,-209.5 340,-209.5 340,-190.5 209,-190.5"/>
<text text-anchor="middle" x="274.5" y="-197.5" font-family="Helvetica,sans-Serif" font-size="10.00">Device::generatePacket</text>
</a>
</g>
</g>
<!-- Node7&#45;&gt;Node9 -->
<g id="edge9" class="edge">
<title>Node7&#45;&gt;Node9</title>
<path fill="none" stroke="midnightblue" d="M135.22,-285.32C148.57,-269.22 177.58,-236.93 209,-219 212.87,-216.79 217.02,-214.82 221.28,-213.06"/>
<polygon fill="midnightblue" stroke="midnightblue" points="222.56,-216.32 230.71,-209.55 220.12,-209.76 222.56,-216.32"/>
</g>
<!-- Node11 -->
<g id="node11" class="node">
<title>Node11</title>
<g id="a_node11"><a xlink:href="class_device.html#ac068e8e17f6536cc63e1631e0ba5837c" target="_top" xlink:title="Checks if a transmission is required.">
<polygon fill="white" stroke="black" points="220.5,-228.5 220.5,-247.5 328.5,-247.5 328.5,-228.5 220.5,-228.5"/>
<text text-anchor="middle" x="274.5" y="-235.5" font-family="Helvetica,sans-Serif" font-size="10.00">Device::rpcWaiting</text>
</a>
</g>
</g>
<!-- Node7&#45;&gt;Node11 -->
<g id="edge11" class="edge">
<title>Node7&#45;&gt;Node11</title>
<path fill="none" stroke="midnightblue" d="M145.93,-285.44C162.23,-277.21 186.8,-265.39 209,-257 215.02,-254.72 221.44,-252.55 227.8,-250.53"/>
<polygon fill="midnightblue" stroke="midnightblue" points="229.16,-253.78 237.7,-247.51 227.11,-247.09 229.16,-253.78"/>
</g>
<!-- Node12 -->
<g id="node12" class="node">
<title>Node12</title>
<g id="a_node12"><a xlink:href="lora_8cpp.html#ab4d91a7f25182323f789a4e986c08cd8" target="_top" xlink:title="updates the attribute waiting to false if required.">
<polygon fill="white" stroke="black" points="211.5,-342.5 211.5,-361.5 337.5,-361.5 337.5,-342.5 211.5,-342.5"/>
<text text-anchor="middle" x="274.5" y="-349.5" font-family="Helvetica,sans-Serif" font-size="10.00">sendOnTxNotRequired</text>
</a>
</g>
</g>
<!-- Node7&#45;&gt;Node12 -->
<g id="edge12" class="edge">
<title>Node7&#45;&gt;Node12</title>
<path fill="none" stroke="midnightblue" d="M150.62,-304.56C166.89,-311.25 189.22,-320.32 209,-328 218.34,-331.63 228.48,-335.45 237.9,-338.96"/>
<polygon fill="midnightblue" stroke="midnightblue" points="236.79,-342.28 247.39,-342.48 239.23,-335.72 236.79,-342.28"/>
</g>
<!-- Node13 -->
<g id="node13" class="node">
<title>Node13</title>
<g id="a_node13"><a xlink:href="lora_8cpp.html#ab9cd66992a99394d4aa4030fcdbf6182" target="_top" xlink:title="Sets the state for if there are packets left to send.">
<polygon fill="white" stroke="black" points="409.5,-304.5 409.5,-323.5 518.5,-323.5 518.5,-304.5 409.5,-304.5"/>
<text text-anchor="middle" x="464" y="-311.5" font-family="Helvetica,sans-Serif" font-size="10.00">sendTxWaitingMsg</text>
</a>
</g>
</g>
<!-- Node7&#45;&gt;Node13 -->
<g id="edge16" class="edge">
<title>Node7&#45;&gt;Node13</title>
<path fill="none" stroke="midnightblue" d="M161.21,-296.91C216.72,-300.05 328.27,-306.37 399.1,-310.38"/>
<polygon fill="midnightblue" stroke="midnightblue" points="399.06,-313.88 409.25,-310.96 399.46,-306.9 399.06,-313.88"/>
</g>
<!-- Node10 -->
<g id="node10" class="node">
<title>Node10</title>
<g id="a_node10"><a xlink:href="class_field.html#a8411bfb2768fb0ea256f83f40941ba75" target="_top" xlink:title="Encodes the value to set into a packet ready to send if needed.">
<polygon fill="white" stroke="black" points="423.5,-190.5 423.5,-209.5 504.5,-209.5 504.5,-190.5 423.5,-190.5"/>
<text text-anchor="middle" x="464" y="-197.5" font-family="Helvetica,sans-Serif" font-size="10.00">Field::encode</text>
</a>
</g>
</g>
<!-- Node9&#45;&gt;Node10 -->
<g id="edge10" class="edge">
<title>Node9&#45;&gt;Node10</title>
<path fill="none" stroke="midnightblue" d="M340.03,-200C363.9,-200 390.57,-200 412.96,-200"/>
<polygon fill="midnightblue" stroke="midnightblue" points="413.25,-203.5 423.25,-200 413.25,-196.5 413.25,-203.5"/>
</g>
<!-- Node12&#45;&gt;Node6 -->
<g id="edge15" class="edge">
<title>Node12&#45;&gt;Node6</title>
<path fill="none" stroke="midnightblue" d="M337.67,-352C350.5,-352 364.22,-352 377.71,-352"/>
<polygon fill="midnightblue" stroke="midnightblue" points="377.95,-355.5 387.95,-352 377.95,-348.5 377.95,-355.5"/>
</g>
<!-- Node12&#45;&gt;Node13 -->
<g id="edge13" class="edge">
<title>Node12&#45;&gt;Node13</title>
<path fill="none" stroke="midnightblue" d="M322.81,-342.41C348.11,-337.28 379.45,-330.93 406.07,-325.54"/>
<polygon fill="midnightblue" stroke="midnightblue" points="406.92,-328.94 416.03,-323.52 405.53,-322.08 406.92,-328.94"/>
</g>
<!-- Node14 -->
<g id="node14" class="node">
<title>Node14</title>
<g id="a_node14"><a xlink:href="lora_8cpp.html#adc3c5806492d2818ad6f5aff232765ec" target="_top" xlink:title=" ">
<polygon fill="white" stroke="black" points="625.5,-342.5 625.5,-361.5 725.5,-361.5 725.5,-342.5 625.5,-342.5"/>
<text text-anchor="middle" x="675.5" y="-349.5" font-family="Helvetica,sans-Serif" font-size="10.00">setAttributeState</text>
</a>
</g>
</g>
<!-- Node13&#45;&gt;Node14 -->
<g id="edge14" class="edge">
<title>Node13&#45;&gt;Node14</title>
<path fill="none" stroke="midnightblue" d="M517.6,-323.54C547.32,-328.93 584.58,-335.69 615.32,-341.27"/>
<polygon fill="midnightblue" stroke="midnightblue" points="615.02,-344.77 625.48,-343.11 616.27,-337.88 615.02,-344.77"/>
</g>
<!-- Node16 -->
<g id="node16" class="node">
<title>Node16</title>
<g id="a_node16"><a xlink:href="networking_8cpp.html#a9ad5cb858c24c53a6eaa846b713bd120" target="_top" xlink:title="Connects to the MQTT broker.">
<polygon fill="white" stroke="black" points="234.5,-114.5 234.5,-133.5 314.5,-133.5 314.5,-114.5 234.5,-114.5"/>
<text text-anchor="middle" x="274.5" y="-121.5" font-family="Helvetica,sans-Serif" font-size="10.00">mqttConnect</text>
</a>
</g>
</g>
<!-- Node15&#45;&gt;Node16 -->
<g id="edge18" class="edge">
<title>Node15&#45;&gt;Node16</title>
<path fill="none" stroke="midnightblue" d="M164.34,-152.41C183.35,-147.46 206.73,-141.38 226.97,-136.11"/>
<polygon fill="midnightblue" stroke="midnightblue" points="228.13,-139.43 236.92,-133.52 226.36,-132.65 228.13,-139.43"/>
</g>
<!-- Node26 -->
<g id="node26" class="node">
<title>Node26</title>
<g id="a_node26"><a xlink:href="networking_8cpp.html#a23a6f53d5284ae6a9d27420cceeb80c3" target="_top" xlink:title="Connects to WiFi.">
<polygon fill="white" stroke="black" points="427,-152.5 427,-171.5 501,-171.5 501,-152.5 427,-152.5"/>
<text text-anchor="middle" x="464" y="-159.5" font-family="Helvetica,sans-Serif" font-size="10.00">wifiConnect</text>
</a>
</g>
</g>
<!-- Node15&#45;&gt;Node26 -->
<g id="edge29" class="edge">
<title>Node15&#45;&gt;Node26</title>
<path fill="none" stroke="midnightblue" d="M173.1,-162C236.91,-162 352.23,-162 416.52,-162"/>
<polygon fill="midnightblue" stroke="midnightblue" points="416.76,-165.5 426.76,-162 416.76,-158.5 416.76,-165.5"/>
</g>
<!-- Node17 -->
<g id="node17" class="node">
<title>Node17</title>
<g id="a_node17"><a xlink:href="class_device_manager.html#ac06f3334d0776ed6fd7fd0f71248d6b3" target="_top" xlink:title="Registers each device to Thingsboard over MQTT.">
<polygon fill="white" stroke="black" points="376,-76.5 376,-95.5 552,-95.5 552,-76.5 376,-76.5"/>
<text text-anchor="middle" x="464" y="-83.5" font-family="Helvetica,sans-Serif" font-size="10.00">DeviceManager::connectDevices</text>
</a>
</g>
</g>
<!-- Node16&#45;&gt;Node17 -->
<g id="edge19" class="edge">
<title>Node16&#45;&gt;Node17</title>
<path fill="none" stroke="midnightblue" d="M314.81,-116.03C341.22,-110.68 376.46,-103.54 405.95,-97.56"/>
<polygon fill="midnightblue" stroke="midnightblue" points="407.01,-100.92 416.12,-95.5 405.62,-94.06 407.01,-100.92"/>
</g>
<!-- Node18 -->
<g id="node18" class="node">
<title>Node18</title>
<g id="a_node18"><a xlink:href="networking_8cpp.html#a91d98374ed6fc205a7a2c9e2ef00dd97" target="_top" xlink:title=" ">
<polygon fill="white" stroke="black" points="421.5,-38.5 421.5,-57.5 506.5,-57.5 506.5,-38.5 421.5,-38.5"/>
<text text-anchor="middle" x="464" y="-45.5" font-family="Helvetica,sans-Serif" font-size="10.00">mqttReceived</text>
</a>
</g>
</g>
<!-- Node16&#45;&gt;Node18 -->
<g id="edge20" class="edge">
<title>Node16&#45;&gt;Node18</title>
<path fill="none" stroke="midnightblue" d="M289.15,-114.48C307.89,-101.83 343.03,-79.62 376,-67 387.06,-62.77 399.28,-59.37 410.99,-56.68"/>
<polygon fill="midnightblue" stroke="midnightblue" points="412.06,-60.03 421.1,-54.5 410.59,-53.19 412.06,-60.03"/>
</g>
<!-- Node25 -->
<g id="node25" class="node">
<title>Node25</title>
<g id="a_node25"><a xlink:href="networking_8cpp.html#ab2d5192ed1436350b19a2a4ccb2053c3" target="_top" xlink:title="Subscribes to the required topics.">
<polygon fill="white" stroke="black" points="430,-114.5 430,-133.5 498,-133.5 498,-114.5 430,-114.5"/>
<text text-anchor="middle" x="464" y="-121.5" font-family="Helvetica,sans-Serif" font-size="10.00">mqttSetup</text>
</a>
</g>
</g>
<!-- Node16&#45;&gt;Node25 -->
<g id="edge27" class="edge">
<title>Node16&#45;&gt;Node25</title>
<path fill="none" stroke="midnightblue" d="M314.81,-124C345.39,-124 387.8,-124 419.42,-124"/>
<polygon fill="midnightblue" stroke="midnightblue" points="419.7,-127.5 429.7,-124 419.7,-120.5 419.7,-127.5"/>
</g>
<!-- Node16&#45;&gt;Node26 -->
<g id="edge28" class="edge">
<title>Node16&#45;&gt;Node26</title>
<path fill="none" stroke="midnightblue" d="M314.81,-131.97C344.65,-138.01 385.76,-146.35 417.11,-152.7"/>
<polygon fill="midnightblue" stroke="midnightblue" points="416.42,-156.13 426.92,-154.69 417.82,-149.27 416.42,-156.13"/>
</g>
<!-- Node19 -->
<g id="node19" class="node">
<title>Node19</title>
<g id="a_node19"><a xlink:href="rpc_8cpp.html#a4cfe66424e5527493ec95bc8ffed5bc7" target="_top" xlink:title="Handles an RPC message addressed to remote devices.">
<polygon fill="white" stroke="black" points="638,-76.5 638,-95.5 713,-95.5 713,-76.5 638,-76.5"/>
<text text-anchor="middle" x="675.5" y="-83.5" font-family="Helvetica,sans-Serif" font-size="10.00">rpcGateway</text>
</a>
</g>
</g>
<!-- Node18&#45;&gt;Node19 -->
<g id="edge21" class="edge">
<title>Node18&#45;&gt;Node19</title>
<path fill="none" stroke="midnightblue" d="M506.64,-55.55C541.65,-61.9 591.66,-70.97 627.98,-77.56"/>
<polygon fill="midnightblue" stroke="midnightblue" points="627.38,-81.01 637.84,-79.35 628.63,-74.12 627.38,-81.01"/>
</g>
<!-- Node22 -->
<g id="node22" class="node">
<title>Node22</title>
<g id="a_node22"><a xlink:href="rpc_8cpp.html#ae128ecfe100603224c2fda1ff5f5ce0a" target="_top" xlink:title="Handles an RPC message addressed to this device (not one of the remote devices).">
<polygon fill="white" stroke="black" points="652,-38.5 652,-57.5 699,-57.5 699,-38.5 652,-38.5"/>
<text text-anchor="middle" x="675.5" y="-45.5" font-family="Helvetica,sans-Serif" font-size="10.00">rpcMe</text>
</a>
</g>
</g>
<!-- Node18&#45;&gt;Node22 -->
<g id="edge24" class="edge">
<title>Node18&#45;&gt;Node22</title>
<path fill="none" stroke="midnightblue" d="M506.64,-48C546.39,-48 605.47,-48 641.9,-48"/>
<polygon fill="midnightblue" stroke="midnightblue" points="641.99,-51.5 651.99,-48 641.99,-44.5 641.99,-51.5"/>
</g>
<!-- Node24 -->
<g id="node24" class="node">
<title>Node24</title>
<g id="a_node24"><a xlink:href="rpc_8cpp.html#adfc4d7c2e3b046a5fb41b597ebd9f727" target="_top" xlink:title="Checks if one string starts with another (quicker than strstr?)">
<polygon fill="white" stroke="black" points="642,-0.5 642,-19.5 709,-19.5 709,-0.5 642,-0.5"/>
<text text-anchor="middle" x="675.5" y="-7.5" font-family="Helvetica,sans-Serif" font-size="10.00">startsWith</text>
</a>
</g>
</g>
<!-- Node18&#45;&gt;Node24 -->
<g id="edge26" class="edge">
<title>Node18&#45;&gt;Node24</title>
<path fill="none" stroke="midnightblue" d="M506.64,-40.45C542.96,-33.86 595.42,-24.34 632,-17.71"/>
<polygon fill="midnightblue" stroke="midnightblue" points="632.65,-21.15 641.87,-15.92 631.4,-14.26 632.65,-21.15"/>
</g>
<!-- Node20 -->
<g id="node20" class="node">
<title>Node20</title>
<g id="a_node20"><a xlink:href="class_lookup_manager.html#aaa9c3082dae381c5079f5346e3c9426b" target="_top" xlink:title="Gets the object matching the given name.">
<polygon fill="white" stroke="black" points="799,-76.5 799,-95.5 966,-95.5 966,-76.5 799,-76.5"/>
<text text-anchor="middle" x="882.5" y="-83.5" font-family="Helvetica,sans-Serif" font-size="10.00">LookupManager::getWithName</text>
</a>
</g>
</g>
<!-- Node19&#45;&gt;Node20 -->
<g id="edge22" class="edge">
<title>Node19&#45;&gt;Node20</title>
<path fill="none" stroke="midnightblue" d="M713.15,-86C734.29,-86 761.91,-86 788.64,-86"/>
<polygon fill="midnightblue" stroke="midnightblue" points="788.83,-89.5 798.83,-86 788.83,-82.5 788.83,-89.5"/>
</g>
<!-- Node21 -->
<g id="node21" class="node">
<title>Node21</title>
<g id="a_node21"><a xlink:href="class_field.html#a9b3b13d9abe0884a93b294edc0396f74" target="_top" xlink:title="handles an RPC call for a field.">
<polygon fill="white" stroke="black" points="834,-114.5 834,-133.5 931,-133.5 931,-114.5 834,-114.5"/>
<text text-anchor="middle" x="882.5" y="-121.5" font-family="Helvetica,sans-Serif" font-size="10.00">Field::handleRpc</text>
</a>
</g>
</g>
<!-- Node19&#45;&gt;Node21 -->
<g id="edge23" class="edge">
<title>Node19&#45;&gt;Node21</title>
<path fill="none" stroke="midnightblue" d="M713.15,-92.79C743.86,-98.49 788.25,-106.72 823.74,-113.29"/>
<polygon fill="midnightblue" stroke="midnightblue" points="823.5,-116.81 833.97,-115.19 824.77,-109.93 823.5,-116.81"/>
</g>
<!-- Node23 -->
<g id="node23" class="node">
<title>Node23</title>
<g id="a_node23"><a xlink:href="rpc_8cpp.html#a8d99d63355a7dac3b1264ced57f255d9" target="_top" xlink:title="Replies to an RPC message for this device.">
<polygon fill="white" stroke="black" points="845.5,-38.5 845.5,-57.5 919.5,-57.5 919.5,-38.5 845.5,-38.5"/>
<text text-anchor="middle" x="882.5" y="-45.5" font-family="Helvetica,sans-Serif" font-size="10.00">replyMeRpc</text>
</a>
</g>
</g>
<!-- Node22&#45;&gt;Node23 -->
<g id="edge25" class="edge">
<title>Node22&#45;&gt;Node23</title>
<path fill="none" stroke="midnightblue" d="M699.22,-48C731.87,-48 792.78,-48 835.16,-48"/>
<polygon fill="midnightblue" stroke="midnightblue" points="835.24,-51.5 845.24,-48 835.24,-44.5 835.24,-51.5"/>
</g>
<!-- Node28 -->
<g id="node28" class="node">
<title>Node28</title>
<g id="a_node28"><a xlink:href="lora_8cpp.html#ac5e6522afd1447f1520e4f4503af9ec5" target="_top" xlink:title="Task that checks if the radio is connected.">
<polygon fill="white" stroke="black" points="222,-380.5 222,-399.5 327,-399.5 327,-380.5 222,-380.5"/>
<text text-anchor="middle" x="274.5" y="-387.5" font-family="Helvetica,sans-Serif" font-size="10.00">loraWatchdogTask</text>
</a>
</g>
</g>
<!-- Node27&#45;&gt;Node28 -->
<g id="edge31" class="edge">
<title>Node27&#45;&gt;Node28</title>
<path fill="none" stroke="midnightblue" d="M156.34,-420.49C176.47,-415.25 203.77,-408.15 226.95,-402.12"/>
<polygon fill="midnightblue" stroke="midnightblue" points="228.14,-405.42 236.93,-399.52 226.37,-398.65 228.14,-405.42"/>
</g>
<!-- Node30 -->
<g id="node30" class="node">
<title>Node30</title>
<g id="a_node30"><a xlink:href="lora_8cpp.html#aef164eaa7a67eb3153407eb4b601f4f0" target="_top" xlink:title="Logs PJON errors.">
<polygon fill="white" stroke="black" points="244,-418.5 244,-437.5 305,-437.5 305,-418.5 244,-418.5"/>
<text text-anchor="middle" x="274.5" y="-425.5" font-family="Helvetica,sans-Serif" font-size="10.00">pjonError</text>
</a>
</g>
</g>
<!-- Node27&#45;&gt;Node30 -->
<g id="edge34" class="edge">
<title>Node27&#45;&gt;Node30</title>
<path fill="none" stroke="midnightblue" d="M156.34,-428C178.45,-428 209.21,-428 233.66,-428"/>
<polygon fill="midnightblue" stroke="midnightblue" points="233.71,-431.5 243.71,-428 233.71,-424.5 233.71,-431.5"/>
</g>
<!-- Node31 -->
<g id="node31" class="node">
<title>Node31</title>
<g id="a_node31"><a xlink:href="lora_8cpp.html#a73337b280bec4397780b012ccc949113" target="_top" xlink:title="Handles an incoming packet received from the radio and adds the given snr and rssi to the packet.">
<polygon fill="white" stroke="black" points="236,-494.5 236,-513.5 313,-513.5 313,-494.5 236,-494.5"/>
<text text-anchor="middle" x="274.5" y="-501.5" font-family="Helvetica,sans-Serif" font-size="10.00">pjonReceive</text>
</a>
</g>
</g>
<!-- Node27&#45;&gt;Node31 -->
<g id="edge35" class="edge">
<title>Node27&#45;&gt;Node31</title>
<path fill="none" stroke="midnightblue" d="M151.83,-437.52C158.75,-440.4 166.24,-443.68 173,-447 199.59,-460.03 228.93,-476.99 249.01,-489.01"/>
<polygon fill="midnightblue" stroke="midnightblue" points="247.43,-492.15 257.81,-494.31 251.05,-486.15 247.43,-492.15"/>
</g>
<!-- Node29 -->
<g id="node29" class="node">
<title>Node29</title>
<g id="a_node29"><a xlink:href="lora_8cpp.html#aeae7cd913b330750fef4bda6cadbf95b" target="_top" xlink:title="Sends an attribute over mqtt depending on the state of the radio connection.">
<polygon fill="white" stroke="black" points="394,-380.5 394,-399.5 534,-399.5 534,-380.5 394,-380.5"/>
<text text-anchor="middle" x="464" y="-387.5" font-family="Helvetica,sans-Serif" font-size="10.00">sendRadioConnectedMsg</text>
</a>
</g>
</g>
<!-- Node28&#45;&gt;Node29 -->
<g id="edge32" class="edge">
<title>Node28&#45;&gt;Node29</title>
<path fill="none" stroke="midnightblue" d="M327.23,-390C344.69,-390 364.6,-390 383.69,-390"/>
<polygon fill="midnightblue" stroke="midnightblue" points="383.88,-393.5 393.88,-390 383.88,-386.5 383.88,-393.5"/>
</g>
<!-- Node29&#45;&gt;Node14 -->
<g id="edge33" class="edge">
<title>Node29&#45;&gt;Node14</title>
<path fill="none" stroke="midnightblue" d="M517.6,-380.46C547.32,-375.07 584.58,-368.31 615.32,-362.73"/>
<polygon fill="midnightblue" stroke="midnightblue" points="616.27,-366.12 625.48,-360.89 615.02,-359.23 616.27,-366.12"/>
</g>
<!-- Node32 -->
<g id="node32" class="node">
<title>Node32</title>
<g id="a_node32"><a xlink:href="class_device.html#add7ef6f786d670584e3bf5818ce134a0" target="_top" xlink:title="Decodes the payload from a PJON packet and converts it to thingsboard MQTT JSON.">
<polygon fill="white" stroke="black" points="388,-513.5 388,-532.5 540,-532.5 540,-513.5 388,-513.5"/>
<text text-anchor="middle" x="464" y="-520.5" font-family="Helvetica,sans-Serif" font-size="10.00">Device::decodePacketFields</text>
</a>
</g>
</g>
<!-- Node31&#45;&gt;Node32 -->
<g id="edge36" class="edge">
<title>Node31&#45;&gt;Node32</title>
<path fill="none" stroke="midnightblue" d="M313.44,-507.84C332.09,-509.73 355.36,-512.09 377.95,-514.38"/>
<polygon fill="midnightblue" stroke="midnightblue" points="377.62,-517.87 387.92,-515.39 378.32,-510.9 377.62,-517.87"/>
</g>
<!-- Node34 -->
<g id="node34" class="node">
<title>Node34</title>
<g id="a_node34"><a xlink:href="class_lookup_manager.html#a8d3d926f82bfb89594abd2430b9d4326" target="_top" xlink:title="Gets the object with the given symbol.">
<polygon fill="white" stroke="black" points="588,-475.5 588,-494.5 763,-494.5 763,-475.5 588,-475.5"/>
<text text-anchor="middle" x="675.5" y="-482.5" font-family="Helvetica,sans-Serif" font-size="10.00">LookupManager::getWithSymbol</text>
</a>
</g>
</g>
<!-- Node31&#45;&gt;Node34 -->
<g id="edge39" class="edge">
<title>Node31&#45;&gt;Node34</title>
<path fill="none" stroke="midnightblue" d="M313.04,-502.21C373.06,-499.35 492.55,-493.66 577.71,-489.61"/>
<polygon fill="midnightblue" stroke="midnightblue" points="578.1,-493.09 587.92,-489.12 577.76,-486.1 578.1,-493.09"/>
</g>
<!-- Node33 -->
<g id="node33" class="node">
<title>Node33</title>
<g id="a_node33"><a xlink:href="class_field.html#aa036e196f5805e9406b8169200e3915a" target="_top" xlink:title="Decodes the value from bytes into an existing json document.">
<polygon fill="white" stroke="black" points="635,-513.5 635,-532.5 716,-532.5 716,-513.5 635,-513.5"/>
<text text-anchor="middle" x="675.5" y="-520.5" font-family="Helvetica,sans-Serif" font-size="10.00">Field::decode</text>
</a>
</g>
</g>
<!-- Node32&#45;&gt;Node33 -->
<g id="edge37" class="edge">
<title>Node32&#45;&gt;Node33</title>
<path fill="none" stroke="midnightblue" d="M540.04,-523C568.21,-523 599.51,-523 624.82,-523"/>
<polygon fill="midnightblue" stroke="midnightblue" points="624.91,-526.5 634.91,-523 624.91,-519.5 624.91,-526.5"/>
</g>
<!-- Node32&#45;&gt;Node34 -->
<g id="edge38" class="edge">
<title>Node32&#45;&gt;Node34</title>
<path fill="none" stroke="midnightblue" d="M517.6,-513.46C546.24,-508.27 581.86,-501.8 611.92,-496.35"/>
<polygon fill="midnightblue" stroke="midnightblue" points="612.67,-499.77 621.88,-494.54 611.42,-492.88 612.67,-499.77"/>
</g>
</g>
</svg>
