<?xml version="1.0" encoding="UTF-8" standalone="no"?>
<!DOCTYPE svg PUBLIC "-//W3C//DTD SVG 1.1//EN"
 "http://www.w3.org/Graphics/SVG/1.1/DTD/svg11.dtd">
<!-- Generated by graphviz version 2.43.0 (0)
 -->
<!-- Title: BaseStationCode/src/main.cpp Pages: 1 -->
<!--zoomable 543 -->
<svg id="main" version="1.1" xmlns="http://www.w3.org/2000/svg" xmlns:xlink="http://www.w3.org/1999/xlink" xml:space="preserve" onload="init(evt)">
<style type="text/css"><![CDATA[
.edge:hover path { stroke: red; }
.edge:hover polygon { stroke: red; fill: red; }
]]></style>
<script type="text/javascript"><![CDATA[
var edges = document.getElementsByTagName('g');
if (edges && edges.length) {
  for (var i=0;i<edges.length;i++) {
    if (edges[i].id.substr(0,4)=='edge') {
      edges[i].setAttribute('class','edge');
    }
  }
}
]]></script>
        <defs>
                <circle id="rim" cx="0" cy="0" r="7"/>
                <circle id="rim2" cx="0" cy="0" r="3.5"/>
                <g id="zoomPlus">
                        <use xlink:href="#rim" fill="#404040">
                                <set attributeName="fill" to="#808080" begin="zoomplus.mouseover" end="zoomplus.mouseout"/>
                        </use>
                        <path d="M-4,0h8M0,-4v8" fill="none" stroke="white" stroke-width="1.5" pointer-events="none"/>
                </g>
                <g id="zoomMin">
                        <use xlink:href="#rim" fill="#404040">
                                <set attributeName="fill" to="#808080" begin="zoomminus.mouseover" end="zoomminus.mouseout"/>
                        </use>
                        <path d="M-4,0h8" fill="none" stroke="white" stroke-width="1.5" pointer-events="none"/>
                </g>
                <g id="dirArrow">
                        <path fill="none" stroke="white" stroke-width="1.5" d="M0,-3.0v7 M-2.5,-0.5L0,-3.0L2.5,-0.5"/>
                </g>
               <g id="resetDef">
                       <use xlink:href="#rim2" fill="#404040">
                               <set attributeName="fill" to="#808080" begin="reset.mouseover" end="reset.mouseout"/>
                       </use>
               </g>
        </defs>

<script type="text/javascript">
var viewWidth = 667;
var viewHeight = 543;
var sectionId = 'dynsection-0';
</script>
<script xlink:href="svgpan.js"/>
<svg id="graph" class="graph">
<g id="viewport">
<title>BaseStationCode/src/main.cpp</title>
<polygon fill="white" stroke="transparent" points="-4,4 -4,-539 663,-539 663,4 -4,4"/>
<!-- Node1 -->
<g id="node1" class="node">
<title>Node1</title>
<g id="a_node1"><a xlink:title=" ">
<polygon fill="#bfbfbf" stroke="black" points="286.5,-504.5 286.5,-534.5 403.5,-534.5 403.5,-504.5 286.5,-504.5"/>
<text text-anchor="start" x="294.5" y="-522.5" font-family="Helvetica,sans-Serif" font-size="10.00">BaseStationCode/src</text>
<text text-anchor="middle" x="345" y="-511.5" font-family="Helvetica,sans-Serif" font-size="10.00">/main.cpp</text>
</a>
</g>
</g>
<!-- Node2 -->
<g id="node2" class="node">
<title>Node2</title>
<g id="a_node2"><a xlink:href="defines_8h.html" target="_top" xlink:title="Definitions and other preprocessor and global stuff.">
<polygon fill="white" stroke="black" points="374.5,-56.5 374.5,-75.5 435.5,-75.5 435.5,-56.5 374.5,-56.5"/>
<text text-anchor="middle" x="405" y="-63.5" font-family="Helvetica,sans-Serif" font-size="10.00">defines.h</text>
</a>
</g>
</g>
<!-- Node1&#45;&gt;Node2 -->
<g id="edge1" class="edge">
<title>Node1&#45;&gt;Node2</title>
<path fill="none" stroke="midnightblue" d="M403.69,-509.24C494.58,-493.22 659,-456.8 659,-403 659,-403 659,-403 659,-177 659,-85.17 517.46,-69.14 445.7,-66.92"/>
<polygon fill="midnightblue" stroke="midnightblue" points="445.72,-63.42 435.64,-66.68 445.55,-70.42 445.72,-63.42"/>
</g>
<!-- Node9 -->
<g id="node9" class="node">
<title>Node9</title>
<g id="a_node9"><a xlink:href="device__list_8h.html" target="_top" xlink:title="List of all devices and fields known to the system.">
<polygon fill="white" stroke="black" points="414,-280.5 414,-299.5 492,-299.5 492,-280.5 414,-280.5"/>
<text text-anchor="middle" x="453" y="-287.5" font-family="Helvetica,sans-Serif" font-size="10.00">device_list.h</text>
</a>
</g>
</g>
<!-- Node1&#45;&gt;Node9 -->
<g id="edge8" class="edge">
<title>Node1&#45;&gt;Node9</title>
<path fill="none" stroke="midnightblue" d="M403.63,-507.5C425.79,-500.18 448.81,-488.06 462,-468 494.49,-418.59 473.12,-343.6 460.45,-309.29"/>
<polygon fill="midnightblue" stroke="midnightblue" points="463.6,-307.73 456.72,-299.67 457.07,-310.26 463.6,-307.73"/>
</g>
<!-- Node14 -->
<g id="node14" class="node">
<title>Node14</title>
<g id="a_node14"><a xlink:href="networking_8h.html" target="_top" xlink:title="Header file for networking.cpp.">
<polygon fill="white" stroke="black" points="248,-392.5 248,-411.5 346,-411.5 346,-392.5 248,-392.5"/>
<text text-anchor="middle" x="297" y="-399.5" font-family="Helvetica,sans-Serif" font-size="10.00">src/networking.h</text>
</a>
</g>
</g>
<!-- Node1&#45;&gt;Node14 -->
<g id="edge19" class="edge">
<title>Node1&#45;&gt;Node14</title>
<path fill="none" stroke="midnightblue" d="M329.49,-504.12C320.45,-494.76 309.73,-481.76 304,-468 297.93,-453.41 296.39,-435.47 296.25,-422.13"/>
<polygon fill="midnightblue" stroke="midnightblue" points="299.75,-421.85 296.41,-411.8 292.75,-421.74 299.75,-421.85"/>
</g>
<!-- Node15 -->
<g id="node15" class="node">
<title>Node15</title>
<g id="a_node15"><a xlink:href="lora_8h.html" target="_top" xlink:title="File that handles the LoRa radio and PJON.">
<polygon fill="white" stroke="black" points="225,-336.5 225,-355.5 269,-355.5 269,-336.5 225,-336.5"/>
<text text-anchor="middle" x="247" y="-343.5" font-family="Helvetica,sans-Serif" font-size="10.00">lora.h</text>
</a>
</g>
</g>
<!-- Node1&#45;&gt;Node15 -->
<g id="edge35" class="edge">
<title>Node1&#45;&gt;Node15</title>
<path fill="none" stroke="midnightblue" d="M322.88,-504.4C297.11,-486.51 255.92,-452.99 239,-412 232.84,-397.07 235.98,-378.7 239.99,-365.3"/>
<polygon fill="midnightblue" stroke="midnightblue" points="243.32,-366.38 243.24,-355.78 236.7,-364.12 243.32,-366.38"/>
</g>
<!-- Node16 -->
<g id="node16" class="node">
<title>Node16</title>
<g id="a_node16"><a xlink:href="rpc_8h.html" target="_top" xlink:title="Handles RPC calls.">
<polygon fill="white" stroke="black" points="126.5,-280.5 126.5,-299.5 167.5,-299.5 167.5,-280.5 126.5,-280.5"/>
<text text-anchor="middle" x="147" y="-287.5" font-family="Helvetica,sans-Serif" font-size="10.00">rpc.h</text>
</a>
</g>
</g>
<!-- Node1&#45;&gt;Node16 -->
<g id="edge36" class="edge">
<title>Node1&#45;&gt;Node16</title>
<path fill="none" stroke="midnightblue" d="M312.72,-504.49C295.15,-495.76 273.82,-483.29 258,-468 207.65,-419.34 170.12,-343.43 154.7,-309.03"/>
<polygon fill="midnightblue" stroke="midnightblue" points="157.86,-307.51 150.64,-299.76 151.45,-310.32 157.86,-307.51"/>
</g>
<!-- Node17 -->
<g id="node17" class="node">
<title>Node17</title>
<g id="a_node17"><a xlink:href="alarm_8h.html" target="_top" xlink:title="Handles alarms.">
<polygon fill="white" stroke="black" points="0,-224.5 0,-243.5 54,-243.5 54,-224.5 0,-224.5"/>
<text text-anchor="middle" x="27" y="-231.5" font-family="Helvetica,sans-Serif" font-size="10.00">alarm.h</text>
</a>
</g>
</g>
<!-- Node1&#45;&gt;Node17 -->
<g id="edge37" class="edge">
<title>Node1&#45;&gt;Node17</title>
<path fill="none" stroke="midnightblue" d="M286.25,-508.31C198.65,-491.43 44,-454.35 44,-403 44,-403 44,-403 44,-345 44,-312.58 36.7,-275.42 31.67,-253.64"/>
<polygon fill="midnightblue" stroke="midnightblue" points="35.03,-252.67 29.29,-243.77 28.23,-254.31 35.03,-252.67"/>
</g>
<!-- Node18 -->
<g id="node18" class="node">
<title>Node18</title>
<g id="a_node18"><a xlink:href="audio_8h.html" target="_top" xlink:title="Plays audio.">
<polygon fill="white" stroke="black" points="561,-392.5 561,-411.5 631,-411.5 631,-392.5 561,-392.5"/>
<text text-anchor="middle" x="596" y="-399.5" font-family="Helvetica,sans-Serif" font-size="10.00">src/audio.h</text>
</a>
</g>
</g>
<!-- Node1&#45;&gt;Node18 -->
<g id="edge38" class="edge">
<title>Node1&#45;&gt;Node18</title>
<path fill="none" stroke="midnightblue" d="M397.65,-504.47C427.27,-495.7 464.51,-483.2 496,-468 525.76,-453.64 557.27,-431.93 576.79,-417.61"/>
<polygon fill="midnightblue" stroke="midnightblue" points="578.93,-420.38 584.86,-411.6 574.75,-414.76 578.93,-420.38"/>
</g>
<!-- Node19 -->
<g id="node19" class="node">
<title>Node19</title>
<g id="a_node19"><a xlink:href="leds_8h.html" target="_top" xlink:title="Controls the LEDs on the unit.">
<polygon fill="white" stroke="black" points="313.5,-448.5 313.5,-467.5 376.5,-467.5 376.5,-448.5 313.5,-448.5"/>
<text text-anchor="middle" x="345" y="-455.5" font-family="Helvetica,sans-Serif" font-size="10.00">src/leds.h</text>
</a>
</g>
</g>
<!-- Node1&#45;&gt;Node19 -->
<g id="edge40" class="edge">
<title>Node1&#45;&gt;Node19</title>
<path fill="none" stroke="midnightblue" d="M345,-504.4C345,-496.47 345,-486.46 345,-477.86"/>
<polygon fill="midnightblue" stroke="midnightblue" points="348.5,-477.66 345,-467.66 341.5,-477.66 348.5,-477.66"/>
</g>
<!-- Node20 -->
<g id="node20" class="node">
<title>Node20</title>
<g id="a_node20"><a xlink:href="ota_8h.html" target="_top" xlink:title="Handles over the air (OTA) updates.">
<polygon fill="white" stroke="black" points="394.5,-448.5 394.5,-467.5 453.5,-467.5 453.5,-448.5 394.5,-448.5"/>
<text text-anchor="middle" x="424" y="-455.5" font-family="Helvetica,sans-Serif" font-size="10.00">src/ota.h</text>
</a>
</g>
</g>
<!-- Node1&#45;&gt;Node20 -->
<g id="edge45" class="edge">
<title>Node1&#45;&gt;Node20</title>
<path fill="none" stroke="midnightblue" d="M363.72,-504.4C375.91,-495.22 391.79,-483.26 404.19,-473.92"/>
<polygon fill="midnightblue" stroke="midnightblue" points="406.62,-476.47 412.5,-467.66 402.41,-470.88 406.62,-476.47"/>
</g>
<!-- Node3 -->
<g id="node3" class="node">
<title>Node3</title>
<g id="a_node3"><a xlink:title=" ">
<polygon fill="white" stroke="#bfbfbf" points="300.5,-0.5 300.5,-19.5 363.5,-19.5 363.5,-0.5 300.5,-0.5"/>
<text text-anchor="middle" x="332" y="-7.5" font-family="Helvetica,sans-Serif" font-size="10.00">Arduino.h</text>
</a>
</g>
</g>
<!-- Node2&#45;&gt;Node3 -->
<g id="edge2" class="edge">
<title>Node2&#45;&gt;Node3</title>
<path fill="none" stroke="midnightblue" d="M393.27,-56.32C382.16,-48.11 365.26,-35.6 352.02,-25.81"/>
<polygon fill="midnightblue" stroke="midnightblue" points="354.06,-22.97 343.94,-19.83 349.9,-28.59 354.06,-22.97"/>
</g>
<!-- Node4 -->
<g id="node4" class="node">
<title>Node4</title>
<g id="a_node4"><a xlink:title=" ">
<polygon fill="white" stroke="#bfbfbf" points="381.5,-0.5 381.5,-19.5 428.5,-19.5 428.5,-0.5 381.5,-0.5"/>
<text text-anchor="middle" x="405" y="-7.5" font-family="Helvetica,sans-Serif" font-size="10.00">WiFi.h</text>
</a>
</g>
</g>
<!-- Node2&#45;&gt;Node4 -->
<g id="edge3" class="edge">
<title>Node2&#45;&gt;Node4</title>
<path fill="none" stroke="midnightblue" d="M405,-56.08C405,-49.01 405,-38.86 405,-29.99"/>
<polygon fill="midnightblue" stroke="midnightblue" points="408.5,-29.75 405,-19.75 401.5,-29.75 408.5,-29.75"/>
</g>
<!-- Node5 -->
<g id="node5" class="node">
<title>Node5</title>
<g id="a_node5"><a xlink:title=" ">
<polygon fill="white" stroke="#bfbfbf" points="447,-0.5 447,-19.5 537,-19.5 537,-0.5 447,-0.5"/>
<text text-anchor="middle" x="492" y="-7.5" font-family="Helvetica,sans-Serif" font-size="10.00">PubSubClient.h</text>
</a>
</g>
</g>
<!-- Node2&#45;&gt;Node5 -->
<g id="edge4" class="edge">
<title>Node2&#45;&gt;Node5</title>
<path fill="none" stroke="midnightblue" d="M418.98,-56.32C432.55,-47.9 453.38,-34.97 469.32,-25.07"/>
<polygon fill="midnightblue" stroke="midnightblue" points="471.41,-27.9 478.06,-19.65 467.71,-21.95 471.41,-27.9"/>
</g>
<!-- Node6 -->
<g id="node6" class="node">
<title>Node6</title>
<g id="a_node6"><a xlink:title=" ">
<polygon fill="white" stroke="#bfbfbf" points="555.5,-0.5 555.5,-19.5 638.5,-19.5 638.5,-0.5 555.5,-0.5"/>
<text text-anchor="middle" x="597" y="-7.5" font-family="Helvetica,sans-Serif" font-size="10.00">ArduinoJson.h</text>
</a>
</g>
</g>
<!-- Node2&#45;&gt;Node6 -->
<g id="edge5" class="edge">
<title>Node2&#45;&gt;Node6</title>
<path fill="none" stroke="midnightblue" d="M435.42,-56.44C468.28,-47.2 520.78,-32.44 556.97,-22.26"/>
<polygon fill="midnightblue" stroke="midnightblue" points="558.04,-25.59 566.72,-19.52 556.15,-18.85 558.04,-25.59"/>
</g>
<!-- Node7 -->
<g id="node7" class="node">
<title>Node7</title>
<g id="a_node7"><a xlink:title=" ">
<polygon fill="white" stroke="#bfbfbf" points="172,-0.5 172,-19.5 282,-19.5 282,-0.5 172,-0.5"/>
<text text-anchor="middle" x="227" y="-7.5" font-family="Helvetica,sans-Serif" font-size="10.00">PJONThroughLora.h</text>
</a>
</g>
</g>
<!-- Node2&#45;&gt;Node7 -->
<g id="edge6" class="edge">
<title>Node2&#45;&gt;Node7</title>
<path fill="none" stroke="midnightblue" d="M376.8,-56.44C346.59,-47.28 298.49,-32.69 264.97,-22.52"/>
<polygon fill="midnightblue" stroke="midnightblue" points="265.66,-19.07 255.07,-19.52 263.63,-25.77 265.66,-19.07"/>
</g>
<!-- Node8 -->
<g id="node8" class="node">
<title>Node8</title>
<g id="a_node8"><a xlink:href="topics_8h.html" target="_top" xlink:title="MQTT topics for a thingsboard gateway.">
<polygon fill="white" stroke="black" points="64,-0.5 64,-19.5 136,-19.5 136,-0.5 64,-0.5"/>
<text text-anchor="middle" x="100" y="-7.5" font-family="Helvetica,sans-Serif" font-size="10.00">src/topics.h</text>
</a>
</g>
</g>
<!-- Node2&#45;&gt;Node8 -->
<g id="edge7" class="edge">
<title>Node2&#45;&gt;Node8</title>
<path fill="none" stroke="midnightblue" d="M374.36,-59.58C320.7,-50.07 209.43,-30.37 146.32,-19.2"/>
<polygon fill="midnightblue" stroke="midnightblue" points="146.71,-15.72 136.25,-17.42 145.49,-22.61 146.71,-15.72"/>
</g>
<!-- Node10 -->
<g id="node10" class="node">
<title>Node10</title>
<g id="a_node10"><a xlink:href="fields_8h.html" target="_top" xlink:title="Contains fields classes.">
<polygon fill="white" stroke="black" points="300.5,-168.5 300.5,-187.5 369.5,-187.5 369.5,-168.5 300.5,-168.5"/>
<text text-anchor="middle" x="335" y="-175.5" font-family="Helvetica,sans-Serif" font-size="10.00">src/fields.h</text>
</a>
</g>
</g>
<!-- Node9&#45;&gt;Node10 -->
<g id="edge9" class="edge">
<title>Node9&#45;&gt;Node10</title>
<path fill="none" stroke="midnightblue" d="M443.74,-280.37C423.84,-261.81 376.74,-217.91 351.56,-194.44"/>
<polygon fill="midnightblue" stroke="midnightblue" points="353.92,-191.85 344.22,-187.59 349.14,-196.97 353.92,-191.85"/>
</g>
<!-- Node13 -->
<g id="node13" class="node">
<title>Node13</title>
<g id="a_node13"><a xlink:href="devices_8h.html" target="_top" xlink:title="Devices and manager for all known devices the base station connects to.">
<polygon fill="white" stroke="black" points="283,-224.5 283,-243.5 363,-243.5 363,-224.5 283,-224.5"/>
<text text-anchor="middle" x="323" y="-231.5" font-family="Helvetica,sans-Serif" font-size="10.00">src/devices.h</text>
</a>
</g>
</g>
<!-- Node9&#45;&gt;Node13 -->
<g id="edge15" class="edge">
<title>Node9&#45;&gt;Node13</title>
<path fill="none" stroke="midnightblue" d="M432.4,-280.44C411.01,-271.56 377.32,-257.56 352.98,-247.45"/>
<polygon fill="midnightblue" stroke="midnightblue" points="354.08,-244.12 343.5,-243.52 351.39,-250.58 354.08,-244.12"/>
</g>
<!-- Node10&#45;&gt;Node2 -->
<g id="edge10" class="edge">
<title>Node10&#45;&gt;Node2</title>
<path fill="none" stroke="midnightblue" d="M348.65,-168.25C360.2,-160.17 376.37,-147.15 386,-132 394.97,-117.89 399.83,-99.4 402.39,-85.75"/>
<polygon fill="midnightblue" stroke="midnightblue" points="405.89,-86.06 404.03,-75.63 398.98,-84.94 405.89,-86.06"/>
</g>
<!-- Node11 -->
<g id="node11" class="node">
<title>Node11</title>
<g id="a_node11"><a xlink:href="lookups_8h.html" target="_top" xlink:title="Lookupable and lookupable manager base classes.">
<polygon fill="white" stroke="black" points="211.5,-112.5 211.5,-131.5 274.5,-131.5 274.5,-112.5 211.5,-112.5"/>
<text text-anchor="middle" x="243" y="-119.5" font-family="Helvetica,sans-Serif" font-size="10.00">lookups.h</text>
</a>
</g>
</g>
<!-- Node10&#45;&gt;Node11 -->
<g id="edge11" class="edge">
<title>Node10&#45;&gt;Node11</title>
<path fill="none" stroke="midnightblue" d="M320.22,-168.32C305.73,-159.82 283.43,-146.73 266.51,-136.8"/>
<polygon fill="midnightblue" stroke="midnightblue" points="268.14,-133.7 257.74,-131.65 264.6,-139.74 268.14,-133.7"/>
</g>
<!-- Node12 -->
<g id="node12" class="node">
<title>Node12</title>
<g id="a_node12"><a xlink:href="conversions_8h.html" target="_top" xlink:title="General functions for converting to and from char arrays.">
<polygon fill="white" stroke="black" points="293,-112.5 293,-131.5 377,-131.5 377,-112.5 293,-112.5"/>
<text text-anchor="middle" x="335" y="-119.5" font-family="Helvetica,sans-Serif" font-size="10.00">conversions.h</text>
</a>
</g>
</g>
<!-- Node10&#45;&gt;Node12 -->
<g id="edge13" class="edge">
<title>Node10&#45;&gt;Node12</title>
<path fill="none" stroke="midnightblue" d="M335,-168.08C335,-161.01 335,-150.86 335,-141.99"/>
<polygon fill="midnightblue" stroke="midnightblue" points="338.5,-141.75 335,-131.75 331.5,-141.75 338.5,-141.75"/>
</g>
<!-- Node11&#45;&gt;Node2 -->
<g id="edge12" class="edge">
<title>Node11&#45;&gt;Node2</title>
<path fill="none" stroke="midnightblue" d="M268.67,-112.44C295.92,-103.36 339.18,-88.94 369.65,-78.78"/>
<polygon fill="midnightblue" stroke="midnightblue" points="371.07,-82 379.45,-75.52 368.86,-75.36 371.07,-82"/>
</g>
<!-- Node12&#45;&gt;Node2 -->
<g id="edge14" class="edge">
<title>Node12&#45;&gt;Node2</title>
<path fill="none" stroke="midnightblue" d="M346.25,-112.32C356.8,-104.18 372.8,-91.84 385.44,-82.09"/>
<polygon fill="midnightblue" stroke="midnightblue" points="387.77,-84.71 393.55,-75.83 383.49,-79.17 387.77,-84.71"/>
</g>
<!-- Node13&#45;&gt;Node2 -->
<g id="edge16" class="edge">
<title>Node13&#45;&gt;Node2</title>
<path fill="none" stroke="midnightblue" d="M336.64,-224.37C348.73,-216.18 366.24,-202.93 378,-188 395.1,-166.29 398.85,-158.94 405,-132 408.5,-116.68 408.19,-98.8 407.18,-85.68"/>
<polygon fill="midnightblue" stroke="midnightblue" points="410.65,-85.16 406.2,-75.55 403.68,-85.84 410.65,-85.16"/>
</g>
<!-- Node13&#45;&gt;Node10 -->
<g id="edge18" class="edge">
<title>Node13&#45;&gt;Node10</title>
<path fill="none" stroke="midnightblue" d="M324.98,-224.08C326.57,-216.93 328.86,-206.64 330.85,-197.69"/>
<polygon fill="midnightblue" stroke="midnightblue" points="334.3,-198.27 333.06,-187.75 327.47,-196.75 334.3,-198.27"/>
</g>
<!-- Node13&#45;&gt;Node11 -->
<g id="edge17" class="edge">
<title>Node13&#45;&gt;Node11</title>
<path fill="none" stroke="midnightblue" d="M316.72,-224.37C303.52,-206.22 272.67,-163.8 255.36,-139.99"/>
<polygon fill="midnightblue" stroke="midnightblue" points="257.96,-137.62 249.25,-131.59 252.3,-141.74 257.96,-137.62"/>
</g>
<!-- Node14&#45;&gt;Node2 -->
<g id="edge20" class="edge">
<title>Node14&#45;&gt;Node2</title>
<path fill="none" stroke="midnightblue" d="M303.06,-392.27C325.14,-359.81 401,-242.31 421,-132 423.91,-115.94 418.81,-97.94 413.62,-84.96"/>
<polygon fill="midnightblue" stroke="midnightblue" points="416.8,-83.51 409.58,-75.76 410.39,-86.32 416.8,-83.51"/>
</g>
<!-- Node14&#45;&gt;Node13 -->
<g id="edge21" class="edge">
<title>Node14&#45;&gt;Node13</title>
<path fill="none" stroke="midnightblue" d="M298.4,-392.08C302.49,-365.95 314.51,-289.21 320.09,-253.58"/>
<polygon fill="midnightblue" stroke="midnightblue" points="323.57,-253.99 321.66,-243.57 316.65,-252.91 323.57,-253.99"/>
</g>
<!-- Node14&#45;&gt;Node15 -->
<g id="edge22" class="edge">
<title>Node14&#45;&gt;Node15</title>
<path fill="none" stroke="midnightblue" d="M283.85,-392.32C275.09,-384.65 264.13,-373.25 256.25,-363.8"/>
<polygon fill="midnightblue" stroke="midnightblue" points="258.94,-361.56 250.03,-355.83 253.43,-365.87 258.94,-361.56"/>
</g>
<!-- Node15&#45;&gt;Node2 -->
<g id="edge23" class="edge">
<title>Node15&#45;&gt;Node2</title>
<path fill="none" stroke="midnightblue" d="M240.91,-336.21C218.61,-302.86 145.53,-182.37 202,-112 221.91,-87.19 310.63,-75.21 363.97,-70.16"/>
<polygon fill="midnightblue" stroke="midnightblue" points="364.49,-73.62 374.14,-69.24 363.86,-66.65 364.49,-73.62"/>
</g>
<!-- Node15&#45;&gt;Node11 -->
<g id="edge24" class="edge">
<title>Node15&#45;&gt;Node11</title>
<path fill="none" stroke="midnightblue" d="M246.84,-336.3C246.25,-303.63 244.17,-187.87 243.34,-141.96"/>
<polygon fill="midnightblue" stroke="midnightblue" points="246.84,-141.82 243.16,-131.88 239.84,-141.95 246.84,-141.82"/>
</g>
<!-- Node15&#45;&gt;Node13 -->
<g id="edge25" class="edge">
<title>Node15&#45;&gt;Node13</title>
<path fill="none" stroke="midnightblue" d="M252.96,-336.37C265.51,-318.22 294.81,-275.8 311.26,-251.99"/>
<polygon fill="midnightblue" stroke="midnightblue" points="314.26,-253.81 317.06,-243.59 308.5,-249.83 314.26,-253.81"/>
</g>
<!-- Node15&#45;&gt;Node14 -->
<g id="edge26" class="edge">
<title>Node15&#45;&gt;Node14</title>
<path fill="none" stroke="midnightblue" d="M260.23,-355.75C268.96,-363.4 279.85,-374.74 287.7,-384.14"/>
<polygon fill="midnightblue" stroke="midnightblue" points="284.99,-386.36 293.91,-392.08 290.51,-382.05 284.99,-386.36"/>
</g>
<!-- Node15&#45;&gt;Node16 -->
<g id="edge27" class="edge">
<title>Node15&#45;&gt;Node16</title>
<path fill="none" stroke="midnightblue" d="M230.93,-336.32C215.04,-327.74 190.49,-314.49 172.04,-304.52"/>
<polygon fill="midnightblue" stroke="midnightblue" points="173.49,-301.33 163.03,-299.65 170.16,-307.49 173.49,-301.33"/>
</g>
<!-- Node16&#45;&gt;Node2 -->
<g id="edge28" class="edge">
<title>Node16&#45;&gt;Node2</title>
<path fill="none" stroke="midnightblue" d="M144.92,-280.17C138.76,-251.55 123.68,-160.35 169,-112 194.97,-84.3 303.37,-73.24 363.82,-69.16"/>
<polygon fill="midnightblue" stroke="midnightblue" points="364.4,-72.63 374.16,-68.5 363.95,-65.64 364.4,-72.63"/>
</g>
<!-- Node16&#45;&gt;Node8 -->
<g id="edge29" class="edge">
<title>Node16&#45;&gt;Node8</title>
<path fill="none" stroke="midnightblue" d="M137.41,-280.34C119.33,-263.02 82,-222.03 82,-179 82,-179 82,-179 82,-121 82,-88.54 89.73,-51.38 95.06,-29.63"/>
<polygon fill="midnightblue" stroke="midnightblue" points="98.49,-30.32 97.57,-19.76 91.71,-28.59 98.49,-30.32"/>
</g>
<!-- Node16&#45;&gt;Node10 -->
<g id="edge33" class="edge">
<title>Node16&#45;&gt;Node10</title>
<path fill="none" stroke="midnightblue" d="M161.75,-280.37C194.29,-261.33 272.42,-215.62 311.67,-192.65"/>
<polygon fill="midnightblue" stroke="midnightblue" points="313.45,-195.66 320.32,-187.59 309.92,-189.62 313.45,-195.66"/>
</g>
<!-- Node16&#45;&gt;Node13 -->
<g id="edge32" class="edge">
<title>Node16&#45;&gt;Node13</title>
<path fill="none" stroke="midnightblue" d="M167.53,-282.7C196.38,-273.85 249.39,-257.59 285.41,-246.53"/>
<polygon fill="midnightblue" stroke="midnightblue" points="286.55,-249.85 295.08,-243.57 284.49,-243.15 286.55,-249.85"/>
</g>
<!-- Node16&#45;&gt;Node14 -->
<g id="edge34" class="edge">
<title>Node16&#45;&gt;Node14</title>
<path fill="none" stroke="midnightblue" d="M154.9,-299.72C167.15,-312.93 191.82,-338.32 216,-356 232.83,-368.3 253.37,-379.68 269.56,-387.92"/>
<polygon fill="midnightblue" stroke="midnightblue" points="268.01,-391.06 278.52,-392.39 271.14,-384.79 268.01,-391.06"/>
</g>
<!-- Node16&#45;&gt;Node17 -->
<g id="edge30" class="edge">
<title>Node16&#45;&gt;Node17</title>
<path fill="none" stroke="midnightblue" d="M127.99,-280.44C108.41,-271.64 77.69,-257.81 55.27,-247.72"/>
<polygon fill="midnightblue" stroke="midnightblue" points="56.48,-244.43 45.93,-243.52 53.61,-250.81 56.48,-244.43"/>
</g>
<!-- Node17&#45;&gt;Node2 -->
<g id="edge31" class="edge">
<title>Node17&#45;&gt;Node2</title>
<path fill="none" stroke="midnightblue" d="M29.77,-224.48C37.62,-201.86 62.3,-140.06 106,-112 148.05,-85 292.93,-73.27 364.43,-69.03"/>
<polygon fill="midnightblue" stroke="midnightblue" points="364.64,-72.53 374.43,-68.46 364.24,-65.54 364.64,-72.53"/>
</g>
<!-- Node18&#45;&gt;Node2 -->
<g id="edge39" class="edge">
<title>Node18&#45;&gt;Node2</title>
<path fill="none" stroke="midnightblue" d="M596,-392.44C596,-373.94 596,-328.81 596,-291 596,-291 596,-291 596,-177 596,-146.2 594.74,-132.77 572,-112 537.45,-80.44 483.07,-70.63 445.82,-67.78"/>
<polygon fill="midnightblue" stroke="midnightblue" points="445.99,-64.29 435.79,-67.15 445.55,-71.27 445.99,-64.29"/>
</g>
<!-- Node19&#45;&gt;Node2 -->
<g id="edge41" class="edge">
<title>Node19&#45;&gt;Node2</title>
<path fill="none" stroke="midnightblue" d="M367.16,-448.37C414.25,-428.42 520,-374.33 520,-291 520,-291 520,-291 520,-177 520,-129.9 469.01,-96.75 434.93,-79.86"/>
<polygon fill="midnightblue" stroke="midnightblue" points="436.36,-76.66 425.83,-75.53 433.35,-82.98 436.36,-76.66"/>
</g>
<!-- Node19&#45;&gt;Node13 -->
<g id="edge44" class="edge">
<title>Node19&#45;&gt;Node13</title>
<path fill="none" stroke="midnightblue" d="M347.48,-448.47C349.96,-439.48 353.59,-424.89 355,-412 361.4,-353.69 341.18,-285.65 329.96,-253.55"/>
<polygon fill="midnightblue" stroke="midnightblue" points="333.11,-251.99 326.42,-243.78 326.53,-254.37 333.11,-251.99"/>
</g>
<!-- Node19&#45;&gt;Node14 -->
<g id="edge43" class="edge">
<title>Node19&#45;&gt;Node14</title>
<path fill="none" stroke="midnightblue" d="M337.07,-448.08C330.15,-440.3 319.93,-428.8 311.55,-419.37"/>
<polygon fill="midnightblue" stroke="midnightblue" points="314.04,-416.9 304.78,-411.75 308.81,-421.55 314.04,-416.9"/>
</g>
<!-- Node19&#45;&gt;Node17 -->
<g id="edge42" class="edge">
<title>Node19&#45;&gt;Node17</title>
<path fill="none" stroke="midnightblue" d="M319.13,-448.44C297.01,-440.57 264.76,-427.74 239,-412 158.33,-362.7 76.15,-284.33 42.65,-250.92"/>
<polygon fill="midnightblue" stroke="midnightblue" points="45.09,-248.42 35.56,-243.8 40.13,-253.35 45.09,-248.42"/>
</g>
<!-- Node20&#45;&gt;Node2 -->
<g id="edge46" class="edge">
<title>Node20&#45;&gt;Node2</title>
<path fill="none" stroke="midnightblue" d="M438.6,-448.43C473.33,-426.81 558,-366.37 558,-291 558,-291 558,-291 558,-177 558,-146.2 555.97,-133.58 534,-112 510.26,-88.69 473.81,-77.41 445.7,-71.98"/>
<polygon fill="midnightblue" stroke="midnightblue" points="446.21,-68.52 435.76,-70.23 445,-75.41 446.21,-68.52"/>
</g>
<!-- Node20&#45;&gt;Node14 -->
<g id="edge47" class="edge">
<title>Node20&#45;&gt;Node14</title>
<path fill="none" stroke="midnightblue" d="M403.88,-448.44C382.98,-439.56 350.07,-425.56 326.28,-415.45"/>
<polygon fill="midnightblue" stroke="midnightblue" points="327.6,-412.21 317.03,-411.52 324.86,-418.65 327.6,-412.21"/>
</g>
</g>
</svg>
        <g id="navigator" transform="translate(0 0)" fill="#404254">
                <rect fill="#f2f5e9" fill-opacity="0.5" stroke="#606060" stroke-width=".5" x="0" y="0" width="60" height="60"/>
                <use id="zoomplus" xlink:href="#zoomPlus" x="17" y="9" onmousedown="handleZoom(evt,'in')"/>
                <use id="zoomminus" xlink:href="#zoomMin" x="42" y="9" onmousedown="handleZoom(evt,'out')"/>
                <use id="reset" xlink:href="#resetDef" x="30" y="36" onmousedown="handleReset()"/>
                <g id="arrowUp" xlink:href="#dirArrow" transform="translate(30 24)" onmousedown="handlePan(0,-1)">
                  <use xlink:href="#rim" fill="#404040">
                        <set attributeName="fill" to="#808080" begin="arrowUp.mouseover" end="arrowUp.mouseout"/>
                  </use>
                  <path fill="none" stroke="white" stroke-width="1.5" d="M0,-3.0v7 M-2.5,-0.5L0,-3.0L2.5,-0.5"/>
                </g>
                <g id="arrowRight" xlink:href="#dirArrow" transform="rotate(90) translate(36 -43)" onmousedown="handlePan(1,0)">
                  <use xlink:href="#rim" fill="#404040">
                        <set attributeName="fill" to="#808080" begin="arrowRight.mouseover" end="arrowRight.mouseout"/>
                  </use>
                  <path fill="none" stroke="white" stroke-width="1.5" d="M0,-3.0v7 M-2.5,-0.5L0,-3.0L2.5,-0.5"/>
                </g>
                <g id="arrowDown" xlink:href="#dirArrow" transform="rotate(180) translate(-30 -48)" onmousedown="handlePan(0,1)">
                  <use xlink:href="#rim" fill="#404040">
                        <set attributeName="fill" to="#808080" begin="arrowDown.mouseover" end="arrowDown.mouseout"/>
                  </use>
                  <path fill="none" stroke="white" stroke-width="1.5" d="M0,-3.0v7 M-2.5,-0.5L0,-3.0L2.5,-0.5"/>
                </g>
                <g id="arrowLeft" xlink:href="#dirArrow" transform="rotate(270) translate(-36 17)" onmousedown="handlePan(-1,0)">
                  <use xlink:href="#rim" fill="#404040">
                        <set attributeName="fill" to="#808080" begin="arrowLeft.mouseover" end="arrowLeft.mouseout"/>
                  </use>
                  <path fill="none" stroke="white" stroke-width="1.5" d="M0,-3.0v7 M-2.5,-0.5L0,-3.0L2.5,-0.5"/>
                </g>
        </g>
        <svg viewBox="0 0 15 15" width="100%" height="30px" preserveAspectRatio="xMaxYMin meet">
         <g id="arrow_out" transform="scale(0.3 0.3)">
          <a xlink:href="main_8cpp__incl_org.svg" target="_base">
           <rect id="button" ry="5" rx="5" y="6" x="6" height="38" width="38"
                fill="#f2f5e9" fill-opacity="0.5" stroke="#606060" stroke-width="1.0"/>
           <path id="arrow"
             d="M 11.500037,31.436501 C 11.940474,20.09759 22.043105,11.32322 32.158766,21.979434 L 37.068811,17.246167 C 37.068811,17.246167 37.088388,32 37.088388,32 L 22.160133,31.978069 C 22.160133,31.978069 26.997745,27.140456 26.997745,27.140456 C 18.528582,18.264221 13.291696,25.230495 11.500037,31.436501 z"
             style="fill:#404040;"/>
          </a>
         </g>
        </svg>
</svg>
