<?xml version="1.0" encoding="UTF-8" standalone="no"?>
<!DOCTYPE svg PUBLIC "-//W3C//DTD SVG 1.1//EN"
 "http://www.w3.org/Graphics/SVG/1.1/DTD/svg11.dtd">
<!-- Generated by graphviz version 2.43.0 (0)
 -->
<!-- Title: setup Pages: 1 -->
<svg width="974pt" height="574pt"
 viewBox="0.00 0.00 974.00 574.00" xmlns="http://www.w3.org/2000/svg" xmlns:xlink="http://www.w3.org/1999/xlink">
<g id="graph0" class="graph" transform="scale(1 1) rotate(0) translate(4 570)">
<title>setup</title>
<polygon fill="white" stroke="transparent" points="-4,4 -4,-570 970,-570 970,4 -4,4"/>
<!-- Node1 -->
<g id="node1" class="node">
<title>Node1</title>
<g id="a_node1"><a xlink:title=" ">
<polygon fill="#bfbfbf" stroke="black" points="0,-375.5 0,-394.5 44,-394.5 44,-375.5 0,-375.5"/>
<text text-anchor="middle" x="22" y="-382.5" font-family="Helvetica,sans-Serif" font-size="10.00">setup</text>
</a>
</g>
</g>
<!-- Node2 -->
<g id="node2" class="node">
<title>Node2</title>
<g id="a_node2"><a xlink:href="alarm_8cpp.html#a6a2ca661c69cdb3d565c511a44da3a3e" target="_top" xlink:title="Task for managing the alarm mode.">
<polygon fill="white" stroke="black" points="93,-470.5 93,-489.5 160,-489.5 160,-470.5 93,-470.5"/>
<text text-anchor="middle" x="126.5" y="-477.5" font-family="Helvetica,sans-Serif" font-size="10.00">alarmTask</text>
</a>
</g>
</g>
<!-- Node1&#45;&gt;Node2 -->
<g id="edge1" class="edge">
<title>Node1&#45;&gt;Node2</title>
<path fill="none" stroke="midnightblue" d="M28.02,-394.71C36.67,-410.58 55.79,-442.16 80,-461 82.07,-462.61 84.29,-464.11 86.61,-465.49"/>
<polygon fill="midnightblue" stroke="midnightblue" points="85.35,-468.79 95.83,-470.31 88.59,-462.58 85.35,-468.79"/>
</g>
<!-- Node3 -->
<g id="node3" class="node">
<title>Node3</title>
<g id="a_node3"><a xlink:href="audio_8cpp.html#acce457fba5e42885e4c6fd06a9ca5121" target="_top" xlink:title="Task for playing audio.">
<polygon fill="white" stroke="black" points="94,-432.5 94,-451.5 159,-451.5 159,-432.5 94,-432.5"/>
<text text-anchor="middle" x="126.5" y="-439.5" font-family="Helvetica,sans-Serif" font-size="10.00">audioTask</text>
</a>
</g>
</g>
<!-- Node1&#45;&gt;Node3 -->
<g id="edge2" class="edge">
<title>Node1&#45;&gt;Node3</title>
<path fill="none" stroke="midnightblue" d="M36.14,-394.82C47.41,-402.98 64.27,-414.58 80,-423 83.47,-424.86 87.15,-426.66 90.87,-428.37"/>
<polygon fill="midnightblue" stroke="midnightblue" points="89.5,-431.59 100.07,-432.39 92.31,-425.18 89.5,-431.59"/>
</g>
<!-- Node5 -->
<g id="node5" class="node">
<title>Node5</title>
<g id="a_node5"><a xlink:href="leds_8cpp.html#a0e9abc4adafb917c6af448aca6042e96" target="_top" xlink:title="Task that manages the LEDs on the unit.">
<polygon fill="white" stroke="black" points="100,-394.5 100,-413.5 153,-413.5 153,-394.5 100,-394.5"/>
<text text-anchor="middle" x="126.5" y="-401.5" font-family="Helvetica,sans-Serif" font-size="10.00">ledTask</text>
</a>
</g>
</g>
<!-- Node1&#45;&gt;Node5 -->
<g id="edge4" class="edge">
<title>Node1&#45;&gt;Node5</title>
<path fill="none" stroke="midnightblue" d="M44.24,-388.94C57.39,-391.37 74.61,-394.57 89.81,-397.38"/>
<polygon fill="midnightblue" stroke="midnightblue" points="89.47,-400.88 99.94,-399.26 90.74,-394 89.47,-400.88"/>
</g>
<!-- Node9 -->
<g id="node9" class="node">
<title>Node9</title>
<g id="a_node9"><a xlink:href="lora_8cpp.html#aa56d712b5af48cc40bd9ef0dac6cb797" target="_top" xlink:title="Task for sending packets when needed.">
<polygon fill="white" stroke="black" points="92,-223.5 92,-242.5 161,-242.5 161,-223.5 92,-223.5"/>
<text text-anchor="middle" x="126.5" y="-230.5" font-family="Helvetica,sans-Serif" font-size="10.00">loraTxTask</text>
</a>
</g>
</g>
<!-- Node1&#45;&gt;Node9 -->
<g id="edge9" class="edge">
<title>Node1&#45;&gt;Node9</title>
<path fill="none" stroke="midnightblue" d="M29.41,-375.49C46.17,-350.65 91.46,-283.47 113.35,-251.02"/>
<polygon fill="midnightblue" stroke="midnightblue" points="116.4,-252.75 119.09,-242.5 110.6,-248.84 116.4,-252.75"/>
</g>
<!-- Node17 -->
<g id="node17" class="node">
<title>Node17</title>
<g id="a_node17"><a xlink:href="networking_8cpp.html#ad26b4549029330bc2b554fa4ed1e5bc7" target="_top" xlink:title=" ">
<polygon fill="white" stroke="black" points="80,-66.5 80,-85.5 173,-85.5 173,-66.5 80,-66.5"/>
<text text-anchor="middle" x="126.5" y="-73.5" font-family="Helvetica,sans-Serif" font-size="10.00">networkingTask</text>
</a>
</g>
</g>
<!-- Node1&#45;&gt;Node17 -->
<g id="edge19" class="edge">
<title>Node1&#45;&gt;Node17</title>
<path fill="none" stroke="midnightblue" d="M26.18,-375.41C40.53,-332.16 99.38,-154.75 119.06,-95.43"/>
<polygon fill="midnightblue" stroke="midnightblue" points="122.43,-96.37 122.26,-85.78 115.78,-94.17 122.43,-96.37"/>
</g>
<!-- Node29 -->
<g id="node29" class="node">
<title>Node29</title>
<g id="a_node29"><a xlink:href="lora_8cpp.html#a6042a1af9411d9eafc7088497f536eb8" target="_top" xlink:title="Task that manages the pjon protocol and radio.">
<polygon fill="white" stroke="black" points="97,-356.5 97,-375.5 156,-375.5 156,-356.5 97,-356.5"/>
<text text-anchor="middle" x="126.5" y="-363.5" font-family="Helvetica,sans-Serif" font-size="10.00">pjonTask</text>
</a>
</g>
</g>
<!-- Node1&#45;&gt;Node29 -->
<g id="edge32" class="edge">
<title>Node1&#45;&gt;Node29</title>
<path fill="none" stroke="midnightblue" d="M44.24,-381.06C56.51,-378.79 72.32,-375.86 86.73,-373.19"/>
<polygon fill="midnightblue" stroke="midnightblue" points="87.71,-376.57 96.9,-371.3 86.43,-369.68 87.71,-376.57"/>
</g>
<!-- Node4 -->
<g id="node4" class="node">
<title>Node4</title>
<g id="a_node4"><a xlink:href="audio_8cpp.html#a1b892168162b0ef4b8740a06508de154" target="_top" xlink:title=" ">
<polygon fill="white" stroke="black" points="253,-546.5 253,-565.5 296,-565.5 296,-546.5 253,-546.5"/>
<text text-anchor="middle" x="274.5" y="-553.5" font-family="Helvetica,sans-Serif" font-size="10.00">piezo</text>
</a>
</g>
</g>
<!-- Node3&#45;&gt;Node4 -->
<g id="edge3" class="edge">
<title>Node3&#45;&gt;Node4</title>
<path fill="none" stroke="midnightblue" d="M159.2,-451.65C164.21,-454.14 169.04,-457.22 173,-461 200.04,-486.8 180.59,-512.71 209,-537 218.47,-545.1 231.26,-549.75 242.95,-552.41"/>
<polygon fill="midnightblue" stroke="midnightblue" points="242.35,-555.86 252.83,-554.28 243.65,-548.98 242.35,-555.86"/>
</g>
<!-- Node6 -->
<g id="node6" class="node">
<title>Node6</title>
<g id="a_node6"><a xlink:href="class_led.html#aca41751e53023a56a30b541a1c23edfe" target="_top" xlink:title="Initialises the pins.">
<polygon fill="white" stroke="black" points="241,-508.5 241,-527.5 308,-527.5 308,-508.5 241,-508.5"/>
<text text-anchor="middle" x="274.5" y="-515.5" font-family="Helvetica,sans-Serif" font-size="10.00">Led::begin</text>
</a>
</g>
</g>
<!-- Node5&#45;&gt;Node6 -->
<g id="edge5" class="edge">
<title>Node5&#45;&gt;Node6</title>
<path fill="none" stroke="midnightblue" d="M153.44,-411.18C160.38,-414.03 167.48,-417.87 173,-423 198.92,-447.08 182.61,-470.44 209,-494 215.41,-499.72 223.3,-504.12 231.34,-507.49"/>
<polygon fill="midnightblue" stroke="midnightblue" points="230.17,-510.79 240.77,-510.99 232.61,-504.23 230.17,-510.79"/>
</g>
<!-- Node7 -->
<g id="node7" class="node">
<title>Node7</title>
<g id="a_node7"><a xlink:href="class_led.html#ad977cfca6965684f274d8d6e33ac3548" target="_top" xlink:title="Turns the LED on or off.">
<polygon fill="white" stroke="black" points="436.5,-498.5 436.5,-517.5 491.5,-517.5 491.5,-498.5 436.5,-498.5"/>
<text text-anchor="middle" x="464" y="-505.5" font-family="Helvetica,sans-Serif" font-size="10.00">Led::set</text>
</a>
</g>
</g>
<!-- Node5&#45;&gt;Node7 -->
<g id="edge7" class="edge">
<title>Node5&#45;&gt;Node7</title>
<path fill="none" stroke="midnightblue" d="M153.03,-412.48C159.82,-415.3 166.94,-418.82 173,-423 192.15,-436.21 188.56,-449.89 209,-461 245.97,-481.09 365.21,-496.98 426.25,-504.03"/>
<polygon fill="midnightblue" stroke="midnightblue" points="425.9,-507.52 436.23,-505.17 426.69,-500.56 425.9,-507.52"/>
</g>
<!-- Node8 -->
<g id="node8" class="node">
<title>Node8</title>
<g id="a_node8"><a xlink:href="class_device_manager.html#ac356dbc3ba069ca92c67825081d7a8a8" target="_top" xlink:title="Returns the number of packets that need to be sent across all devices.">
<polygon fill="white" stroke="black" points="388,-280.5 388,-299.5 540,-299.5 540,-280.5 388,-280.5"/>
<text text-anchor="middle" x="464" y="-287.5" font-family="Helvetica,sans-Serif" font-size="10.00">DeviceManager::txRequired</text>
</a>
</g>
</g>
<!-- Node5&#45;&gt;Node8 -->
<g id="edge8" class="edge">
<title>Node5&#45;&gt;Node8</title>
<path fill="none" stroke="midnightblue" d="M153.11,-409.24C195.98,-416.49 283.18,-424.61 340,-385 370.66,-363.63 346.74,-332.26 376,-309 378.12,-307.32 380.35,-305.77 382.68,-304.36"/>
<polygon fill="midnightblue" stroke="midnightblue" points="384.76,-307.23 392.05,-299.53 381.55,-301 384.76,-307.23"/>
</g>
<!-- Node6&#45;&gt;Node7 -->
<g id="edge6" class="edge">
<title>Node6&#45;&gt;Node7</title>
<path fill="none" stroke="midnightblue" d="M308.16,-516.26C341.15,-514.5 392.03,-511.79 426.38,-509.95"/>
<polygon fill="midnightblue" stroke="midnightblue" points="426.67,-513.44 436.47,-509.42 426.29,-506.45 426.67,-513.44"/>
</g>
<!-- Node10 -->
<g id="node10" class="node">
<title>Node10</title>
<g id="a_node10"><a xlink:href="lora_8cpp.html#afbd9f56608d04cb8a75d69112cd89885" target="_top" xlink:title="Task for printing out a byte array.">
<polygon fill="white" stroke="black" points="223.5,-166.5 223.5,-185.5 325.5,-185.5 325.5,-166.5 223.5,-166.5"/>
<text text-anchor="middle" x="274.5" y="-173.5" font-family="Helvetica,sans-Serif" font-size="10.00">debugLoRaPacket</text>
</a>
</g>
</g>
<!-- Node9&#45;&gt;Node10 -->
<g id="edge10" class="edge">
<title>Node9&#45;&gt;Node10</title>
<path fill="none" stroke="midnightblue" d="M145.93,-223.44C162.23,-215.21 186.8,-203.39 209,-195 215.02,-192.72 221.44,-190.55 227.8,-188.53"/>
<polygon fill="midnightblue" stroke="midnightblue" points="229.16,-191.78 237.7,-185.51 227.11,-185.09 229.16,-191.78"/>
</g>
<!-- Node11 -->
<g id="node11" class="node">
<title>Node11</title>
<g id="a_node11"><a xlink:href="class_device.html#a0fc7e0f4a048d2b7010c7bc6882bb987" target="_top" xlink:title="Generates a packet containing all the fields and instructions to set.">
<polygon fill="white" stroke="black" points="209,-128.5 209,-147.5 340,-147.5 340,-128.5 209,-128.5"/>
<text text-anchor="middle" x="274.5" y="-135.5" font-family="Helvetica,sans-Serif" font-size="10.00">Device::generatePacket</text>
</a>
</g>
</g>
<!-- Node9&#45;&gt;Node11 -->
<g id="edge11" class="edge">
<title>Node9&#45;&gt;Node11</title>
<path fill="none" stroke="midnightblue" d="M135.22,-223.32C148.57,-207.22 177.58,-174.93 209,-157 212.87,-154.79 217.02,-152.82 221.28,-151.06"/>
<polygon fill="midnightblue" stroke="midnightblue" points="222.56,-154.32 230.71,-147.55 220.12,-147.76 222.56,-154.32"/>
</g>
<!-- Node13 -->
<g id="node13" class="node">
<title>Node13</title>
<g id="a_node13"><a xlink:href="class_device.html#ac068e8e17f6536cc63e1631e0ba5837c" target="_top" xlink:title="Checks if a transmission is required.">
<polygon fill="white" stroke="black" points="220.5,-204.5 220.5,-223.5 328.5,-223.5 328.5,-204.5 220.5,-204.5"/>
<text text-anchor="middle" x="274.5" y="-211.5" font-family="Helvetica,sans-Serif" font-size="10.00">Device::rpcWaiting</text>
</a>
</g>
</g>
<!-- Node9&#45;&gt;Node13 -->
<g id="edge13" class="edge">
<title>Node9&#45;&gt;Node13</title>
<path fill="none" stroke="midnightblue" d="M161.36,-228.59C175.87,-226.7 193.31,-224.44 210.07,-222.26"/>
<polygon fill="midnightblue" stroke="midnightblue" points="210.91,-225.67 220.38,-220.91 210.01,-218.73 210.91,-225.67"/>
</g>
<!-- Node14 -->
<g id="node14" class="node">
<title>Node14</title>
<g id="a_node14"><a xlink:href="lora_8cpp.html#ab4d91a7f25182323f789a4e986c08cd8" target="_top" xlink:title="updates the attribute waiting to false if required.">
<polygon fill="white" stroke="black" points="211.5,-280.5 211.5,-299.5 337.5,-299.5 337.5,-280.5 211.5,-280.5"/>
<text text-anchor="middle" x="274.5" y="-287.5" font-family="Helvetica,sans-Serif" font-size="10.00">sendOnTxNotRequired</text>
</a>
</g>
</g>
<!-- Node9&#45;&gt;Node14 -->
<g id="edge14" class="edge">
<title>Node9&#45;&gt;Node14</title>
<path fill="none" stroke="midnightblue" d="M150.62,-242.56C166.89,-249.25 189.22,-258.32 209,-266 218.34,-269.63 228.48,-273.45 237.9,-276.96"/>
<polygon fill="midnightblue" stroke="midnightblue" points="236.79,-280.28 247.39,-280.48 239.23,-273.72 236.79,-280.28"/>
</g>
<!-- Node15 -->
<g id="node15" class="node">
<title>Node15</title>
<g id="a_node15"><a xlink:href="lora_8cpp.html#ab9cd66992a99394d4aa4030fcdbf6182" target="_top" xlink:title="Sets the state for if there are packets left to send.">
<polygon fill="white" stroke="black" points="409.5,-242.5 409.5,-261.5 518.5,-261.5 518.5,-242.5 409.5,-242.5"/>
<text text-anchor="middle" x="464" y="-249.5" font-family="Helvetica,sans-Serif" font-size="10.00">sendTxWaitingMsg</text>
</a>
</g>
</g>
<!-- Node9&#45;&gt;Node15 -->
<g id="edge18" class="edge">
<title>Node9&#45;&gt;Node15</title>
<path fill="none" stroke="midnightblue" d="M161.21,-234.91C216.72,-238.05 328.27,-244.37 399.1,-248.38"/>
<polygon fill="midnightblue" stroke="midnightblue" points="399.06,-251.88 409.25,-248.96 399.46,-244.9 399.06,-251.88"/>
</g>
<!-- Node12 -->
<g id="node12" class="node">
<title>Node12</title>
<g id="a_node12"><a xlink:href="class_field.html#a8411bfb2768fb0ea256f83f40941ba75" target="_top" xlink:title="Encodes the value to set into a packet ready to send if needed.">
<polygon fill="white" stroke="black" points="423.5,-152.5 423.5,-171.5 504.5,-171.5 504.5,-152.5 423.5,-152.5"/>
<text text-anchor="middle" x="464" y="-159.5" font-family="Helvetica,sans-Serif" font-size="10.00">Field::encode</text>
</a>
</g>
</g>
<!-- Node11&#45;&gt;Node12 -->
<g id="edge12" class="edge">
<title>Node11&#45;&gt;Node12</title>
<path fill="none" stroke="midnightblue" d="M340.03,-146.26C364,-149.33 390.81,-152.76 413.27,-155.63"/>
<polygon fill="midnightblue" stroke="midnightblue" points="412.89,-159.11 423.25,-156.91 413.77,-152.17 412.89,-159.11"/>
</g>
<!-- Node14&#45;&gt;Node8 -->
<g id="edge17" class="edge">
<title>Node14&#45;&gt;Node8</title>
<path fill="none" stroke="midnightblue" d="M337.67,-290C350.5,-290 364.22,-290 377.71,-290"/>
<polygon fill="midnightblue" stroke="midnightblue" points="377.95,-293.5 387.95,-290 377.95,-286.5 377.95,-293.5"/>
</g>
<!-- Node14&#45;&gt;Node15 -->
<g id="edge15" class="edge">
<title>Node14&#45;&gt;Node15</title>
<path fill="none" stroke="midnightblue" d="M322.81,-280.41C348.11,-275.28 379.45,-268.93 406.07,-263.54"/>
<polygon fill="midnightblue" stroke="midnightblue" points="406.92,-266.94 416.03,-261.52 405.53,-260.08 406.92,-266.94"/>
</g>
<!-- Node16 -->
<g id="node16" class="node">
<title>Node16</title>
<g id="a_node16"><a xlink:href="lora_8cpp.html#adc3c5806492d2818ad6f5aff232765ec" target="_top" xlink:title=" ">
<polygon fill="white" stroke="black" points="625.5,-280.5 625.5,-299.5 725.5,-299.5 725.5,-280.5 625.5,-280.5"/>
<text text-anchor="middle" x="675.5" y="-287.5" font-family="Helvetica,sans-Serif" font-size="10.00">setAttributeState</text>
</a>
</g>
</g>
<!-- Node15&#45;&gt;Node16 -->
<g id="edge16" class="edge">
<title>Node15&#45;&gt;Node16</title>
<path fill="none" stroke="midnightblue" d="M517.6,-261.54C547.32,-266.93 584.58,-273.69 615.32,-279.27"/>
<polygon fill="midnightblue" stroke="midnightblue" points="615.02,-282.77 625.48,-281.11 616.27,-275.88 615.02,-282.77"/>
</g>
<!-- Node18 -->
<g id="node18" class="node">
<title>Node18</title>
<g id="a_node18"><a xlink:href="networking_8cpp.html#a9ad5cb858c24c53a6eaa846b713bd120" target="_top" xlink:title="Connects to the MQTT broker.">
<polygon fill="white" stroke="black" points="234.5,-66.5 234.5,-85.5 314.5,-85.5 314.5,-66.5 234.5,-66.5"/>
<text text-anchor="middle" x="274.5" y="-73.5" font-family="Helvetica,sans-Serif" font-size="10.00">mqttConnect</text>
</a>
</g>
</g>
<!-- Node17&#45;&gt;Node18 -->
<g id="edge20" class="edge">
<title>Node17&#45;&gt;Node18</title>
<path fill="none" stroke="midnightblue" d="M173.29,-76C189.35,-76 207.45,-76 223.8,-76"/>
<polygon fill="midnightblue" stroke="midnightblue" points="224.26,-79.5 234.26,-76 224.26,-72.5 224.26,-79.5"/>
</g>
<!-- Node28 -->
<g id="node28" class="node">
<title>Node28</title>
<g id="a_node28"><a xlink:href="networking_8cpp.html#a23a6f53d5284ae6a9d27420cceeb80c3" target="_top" xlink:title="Connects to WiFi.">
<polygon fill="white" stroke="black" points="427,-0.5 427,-19.5 501,-19.5 501,-0.5 427,-0.5"/>
<text text-anchor="middle" x="464" y="-7.5" font-family="Helvetica,sans-Serif" font-size="10.00">wifiConnect</text>
</a>
</g>
</g>
<!-- Node17&#45;&gt;Node28 -->
<g id="edge31" class="edge">
<title>Node17&#45;&gt;Node28</title>
<path fill="none" stroke="midnightblue" d="M166.8,-66.45C180.16,-63.31 195.21,-59.88 209,-57 281.28,-41.9 365.66,-26.78 416.67,-17.91"/>
<polygon fill="midnightblue" stroke="midnightblue" points="417.47,-21.33 426.72,-16.17 416.27,-14.43 417.47,-21.33"/>
</g>
<!-- Node19 -->
<g id="node19" class="node">
<title>Node19</title>
<g id="a_node19"><a xlink:href="class_device_manager.html#ac06f3334d0776ed6fd7fd0f71248d6b3" target="_top" xlink:title="Registers each device to Thingsboard over MQTT.">
<polygon fill="white" stroke="black" points="376,-114.5 376,-133.5 552,-133.5 552,-114.5 376,-114.5"/>
<text text-anchor="middle" x="464" y="-121.5" font-family="Helvetica,sans-Serif" font-size="10.00">DeviceManager::connectDevices</text>
</a>
</g>
</g>
<!-- Node18&#45;&gt;Node19 -->
<g id="edge21" class="edge">
<title>Node18&#45;&gt;Node19</title>
<path fill="none" stroke="midnightblue" d="M306.59,-85.55C326.37,-91.48 352.59,-99.07 376,-105 385.78,-107.48 396.23,-109.92 406.36,-112.2"/>
<polygon fill="midnightblue" stroke="midnightblue" points="405.84,-115.67 416.36,-114.41 407.35,-108.83 405.84,-115.67"/>
</g>
<!-- Node20 -->
<g id="node20" class="node">
<title>Node20</title>
<g id="a_node20"><a xlink:href="networking_8cpp.html#a91d98374ed6fc205a7a2c9e2ef00dd97" target="_top" xlink:title=" ">
<polygon fill="white" stroke="black" points="421.5,-76.5 421.5,-95.5 506.5,-95.5 506.5,-76.5 421.5,-76.5"/>
<text text-anchor="middle" x="464" y="-83.5" font-family="Helvetica,sans-Serif" font-size="10.00">mqttReceived</text>
</a>
</g>
</g>
<!-- Node18&#45;&gt;Node20 -->
<g id="edge22" class="edge">
<title>Node18&#45;&gt;Node20</title>
<path fill="none" stroke="midnightblue" d="M314.81,-78.1C342.88,-79.59 380.93,-81.62 411.44,-83.25"/>
<polygon fill="midnightblue" stroke="midnightblue" points="411.3,-86.75 421.47,-83.79 411.67,-79.76 411.3,-86.75"/>
</g>
<!-- Node27 -->
<g id="node27" class="node">
<title>Node27</title>
<g id="a_node27"><a xlink:href="networking_8cpp.html#ab2d5192ed1436350b19a2a4ccb2053c3" target="_top" xlink:title="Subscribes to the required topics.">
<polygon fill="white" stroke="black" points="430,-38.5 430,-57.5 498,-57.5 498,-38.5 430,-38.5"/>
<text text-anchor="middle" x="464" y="-45.5" font-family="Helvetica,sans-Serif" font-size="10.00">mqttSetup</text>
</a>
</g>
</g>
<!-- Node18&#45;&gt;Node27 -->
<g id="edge29" class="edge">
<title>Node18&#45;&gt;Node27</title>
<path fill="none" stroke="midnightblue" d="M314.81,-70.13C345.39,-65.56 387.8,-59.23 419.42,-54.51"/>
<polygon fill="midnightblue" stroke="midnightblue" points="420.33,-57.91 429.7,-52.97 419.29,-50.99 420.33,-57.91"/>
</g>
<!-- Node18&#45;&gt;Node28 -->
<g id="edge30" class="edge">
<title>Node18&#45;&gt;Node28</title>
<path fill="none" stroke="midnightblue" d="M292.8,-66.46C312.45,-55.97 345.71,-39.25 376,-29 389.07,-24.58 403.6,-20.93 416.99,-18.05"/>
<polygon fill="midnightblue" stroke="midnightblue" points="417.86,-21.45 426.96,-16 416.46,-14.59 417.86,-21.45"/>
</g>
<!-- Node21 -->
<g id="node21" class="node">
<title>Node21</title>
<g id="a_node21"><a xlink:href="rpc_8cpp.html#a4cfe66424e5527493ec95bc8ffed5bc7" target="_top" xlink:title="Handles an RPC message addressed to remote devices.">
<polygon fill="white" stroke="black" points="638,-114.5 638,-133.5 713,-133.5 713,-114.5 638,-114.5"/>
<text text-anchor="middle" x="675.5" y="-121.5" font-family="Helvetica,sans-Serif" font-size="10.00">rpcGateway</text>
</a>
</g>
</g>
<!-- Node20&#45;&gt;Node21 -->
<g id="edge23" class="edge">
<title>Node20&#45;&gt;Node21</title>
<path fill="none" stroke="midnightblue" d="M506.64,-93.55C541.65,-99.9 591.66,-108.97 627.98,-115.56"/>
<polygon fill="midnightblue" stroke="midnightblue" points="627.38,-119.01 637.84,-117.35 628.63,-112.12 627.38,-119.01"/>
</g>
<!-- Node24 -->
<g id="node24" class="node">
<title>Node24</title>
<g id="a_node24"><a xlink:href="rpc_8cpp.html#ae128ecfe100603224c2fda1ff5f5ce0a" target="_top" xlink:title="Handles an RPC message addressed to this device (not one of the remote devices).">
<polygon fill="white" stroke="black" points="652,-76.5 652,-95.5 699,-95.5 699,-76.5 652,-76.5"/>
<text text-anchor="middle" x="675.5" y="-83.5" font-family="Helvetica,sans-Serif" font-size="10.00">rpcMe</text>
</a>
</g>
</g>
<!-- Node20&#45;&gt;Node24 -->
<g id="edge26" class="edge">
<title>Node20&#45;&gt;Node24</title>
<path fill="none" stroke="midnightblue" d="M506.64,-86C546.39,-86 605.47,-86 641.9,-86"/>
<polygon fill="midnightblue" stroke="midnightblue" points="641.99,-89.5 651.99,-86 641.99,-82.5 641.99,-89.5"/>
</g>
<!-- Node26 -->
<g id="node26" class="node">
<title>Node26</title>
<g id="a_node26"><a xlink:href="rpc_8cpp.html#adfc4d7c2e3b046a5fb41b597ebd9f727" target="_top" xlink:title="Checks if one string starts with another (quicker than strstr?)">
<polygon fill="white" stroke="black" points="642,-38.5 642,-57.5 709,-57.5 709,-38.5 642,-38.5"/>
<text text-anchor="middle" x="675.5" y="-45.5" font-family="Helvetica,sans-Serif" font-size="10.00">startsWith</text>
</a>
</g>
</g>
<!-- Node20&#45;&gt;Node26 -->
<g id="edge28" class="edge">
<title>Node20&#45;&gt;Node26</title>
<path fill="none" stroke="midnightblue" d="M506.64,-78.45C542.96,-71.86 595.42,-62.34 632,-55.71"/>
<polygon fill="midnightblue" stroke="midnightblue" points="632.65,-59.15 641.87,-53.92 631.4,-52.26 632.65,-59.15"/>
</g>
<!-- Node22 -->
<g id="node22" class="node">
<title>Node22</title>
<g id="a_node22"><a xlink:href="class_lookup_manager.html#aaa9c3082dae381c5079f5346e3c9426b" target="_top" xlink:title="Gets the object matching the given name.">
<polygon fill="white" stroke="black" points="799,-114.5 799,-133.5 966,-133.5 966,-114.5 799,-114.5"/>
<text text-anchor="middle" x="882.5" y="-121.5" font-family="Helvetica,sans-Serif" font-size="10.00">LookupManager::getWithName</text>
</a>
</g>
</g>
<!-- Node21&#45;&gt;Node22 -->
<g id="edge24" class="edge">
<title>Node21&#45;&gt;Node22</title>
<path fill="none" stroke="midnightblue" d="M713.15,-124C734.29,-124 761.91,-124 788.64,-124"/>
<polygon fill="midnightblue" stroke="midnightblue" points="788.83,-127.5 798.83,-124 788.83,-120.5 788.83,-127.5"/>
</g>
<!-- Node23 -->
<g id="node23" class="node">
<title>Node23</title>
<g id="a_node23"><a xlink:href="class_field.html#a9b3b13d9abe0884a93b294edc0396f74" target="_top" xlink:title="handles an RPC call for a field.">
<polygon fill="white" stroke="black" points="834,-152.5 834,-171.5 931,-171.5 931,-152.5 834,-152.5"/>
<text text-anchor="middle" x="882.5" y="-159.5" font-family="Helvetica,sans-Serif" font-size="10.00">Field::handleRpc</text>
</a>
</g>
</g>
<!-- Node21&#45;&gt;Node23 -->
<g id="edge25" class="edge">
<title>Node21&#45;&gt;Node23</title>
<path fill="none" stroke="midnightblue" d="M713.15,-130.79C743.86,-136.49 788.25,-144.72 823.74,-151.29"/>
<polygon fill="midnightblue" stroke="midnightblue" points="823.5,-154.81 833.97,-153.19 824.77,-147.93 823.5,-154.81"/>
</g>
<!-- Node25 -->
<g id="node25" class="node">
<title>Node25</title>
<g id="a_node25"><a xlink:href="rpc_8cpp.html#a8d99d63355a7dac3b1264ced57f255d9" target="_top" xlink:title="Replies to an RPC message for this device.">
<polygon fill="white" stroke="black" points="845.5,-76.5 845.5,-95.5 919.5,-95.5 919.5,-76.5 845.5,-76.5"/>
<text text-anchor="middle" x="882.5" y="-83.5" font-family="Helvetica,sans-Serif" font-size="10.00">replyMeRpc</text>
</a>
</g>
</g>
<!-- Node24&#45;&gt;Node25 -->
<g id="edge27" class="edge">
<title>Node24&#45;&gt;Node25</title>
<path fill="none" stroke="midnightblue" d="M699.22,-86C731.87,-86 792.78,-86 835.16,-86"/>
<polygon fill="midnightblue" stroke="midnightblue" points="835.24,-89.5 845.24,-86 835.24,-82.5 835.24,-89.5"/>
</g>
<!-- Node30 -->
<g id="node30" class="node">
<title>Node30</title>
<g id="a_node30"><a xlink:href="lora_8cpp.html#ac5e6522afd1447f1520e4f4503af9ec5" target="_top" xlink:title="Task that checks if the radio is connected.">
<polygon fill="white" stroke="black" points="222,-318.5 222,-337.5 327,-337.5 327,-318.5 222,-318.5"/>
<text text-anchor="middle" x="274.5" y="-325.5" font-family="Helvetica,sans-Serif" font-size="10.00">loraWatchdogTask</text>
</a>
</g>
</g>
<!-- Node29&#45;&gt;Node30 -->
<g id="edge33" class="edge">
<title>Node29&#45;&gt;Node30</title>
<path fill="none" stroke="midnightblue" d="M156.34,-358.49C176.47,-353.25 203.77,-346.15 226.95,-340.12"/>
<polygon fill="midnightblue" stroke="midnightblue" points="228.14,-343.42 236.93,-337.52 226.37,-336.65 228.14,-343.42"/>
</g>
<!-- Node32 -->
<g id="node32" class="node">
<title>Node32</title>
<g id="a_node32"><a xlink:href="lora_8cpp.html#aef164eaa7a67eb3153407eb4b601f4f0" target="_top" xlink:title="Logs PJON errors.">
<polygon fill="white" stroke="black" points="244,-356.5 244,-375.5 305,-375.5 305,-356.5 244,-356.5"/>
<text text-anchor="middle" x="274.5" y="-363.5" font-family="Helvetica,sans-Serif" font-size="10.00">pjonError</text>
</a>
</g>
</g>
<!-- Node29&#45;&gt;Node32 -->
<g id="edge36" class="edge">
<title>Node29&#45;&gt;Node32</title>
<path fill="none" stroke="midnightblue" d="M156.34,-366C178.45,-366 209.21,-366 233.66,-366"/>
<polygon fill="midnightblue" stroke="midnightblue" points="233.71,-369.5 243.71,-366 233.71,-362.5 233.71,-369.5"/>
</g>
<!-- Node33 -->
<g id="node33" class="node">
<title>Node33</title>
<g id="a_node33"><a xlink:href="lora_8cpp.html#a73337b280bec4397780b012ccc949113" target="_top" xlink:title="Handles an incoming packet received from the radio and adds the given snr and rssi to the packet.">
<polygon fill="white" stroke="black" points="236,-432.5 236,-451.5 313,-451.5 313,-432.5 236,-432.5"/>
<text text-anchor="middle" x="274.5" y="-439.5" font-family="Helvetica,sans-Serif" font-size="10.00">pjonReceive</text>
</a>
</g>
</g>
<!-- Node29&#45;&gt;Node33 -->
<g id="edge37" class="edge">
<title>Node29&#45;&gt;Node33</title>
<path fill="none" stroke="midnightblue" d="M151.83,-375.52C158.75,-378.4 166.24,-381.68 173,-385 199.59,-398.03 228.93,-414.99 249.01,-427.01"/>
<polygon fill="midnightblue" stroke="midnightblue" points="247.43,-430.15 257.81,-432.31 251.05,-424.15 247.43,-430.15"/>
</g>
<!-- Node31 -->
<g id="node31" class="node">
<title>Node31</title>
<g id="a_node31"><a xlink:href="lora_8cpp.html#aeae7cd913b330750fef4bda6cadbf95b" target="_top" xlink:title="Sends an attribute over mqtt depending on the state of the radio connection.">
<polygon fill="white" stroke="black" points="394,-318.5 394,-337.5 534,-337.5 534,-318.5 394,-318.5"/>
<text text-anchor="middle" x="464" y="-325.5" font-family="Helvetica,sans-Serif" font-size="10.00">sendRadioConnectedMsg</text>
</a>
</g>
</g>
<!-- Node30&#45;&gt;Node31 -->
<g id="edge34" class="edge">
<title>Node30&#45;&gt;Node31</title>
<path fill="none" stroke="midnightblue" d="M327.23,-328C344.69,-328 364.6,-328 383.69,-328"/>
<polygon fill="midnightblue" stroke="midnightblue" points="383.88,-331.5 393.88,-328 383.88,-324.5 383.88,-331.5"/>
</g>
<!-- Node31&#45;&gt;Node16 -->
<g id="edge35" class="edge">
<title>Node31&#45;&gt;Node16</title>
<path fill="none" stroke="midnightblue" d="M517.6,-318.46C547.32,-313.07 584.58,-306.31 615.32,-300.73"/>
<polygon fill="midnightblue" stroke="midnightblue" points="616.27,-304.12 625.48,-298.89 615.02,-297.23 616.27,-304.12"/>
</g>
<!-- Node34 -->
<g id="node34" class="node">
<title>Node34</title>
<g id="a_node34"><a xlink:href="class_device.html#add7ef6f786d670584e3bf5818ce134a0" target="_top" xlink:title="Decodes the payload from a PJON packet and converts it to thingsboard MQTT JSON.">
<polygon fill="white" stroke="black" points="388,-451.5 388,-470.5 540,-470.5 540,-451.5 388,-451.5"/>
<text text-anchor="middle" x="464" y="-458.5" font-family="Helvetica,sans-Serif" font-size="10.00">Device::decodePacketFields</text>
</a>
</g>
</g>
<!-- Node33&#45;&gt;Node34 -->
<g id="edge38" class="edge">
<title>Node33&#45;&gt;Node34</title>
<path fill="none" stroke="midnightblue" d="M313.44,-445.84C332.09,-447.73 355.36,-450.09 377.95,-452.38"/>
<polygon fill="midnightblue" stroke="midnightblue" points="377.62,-455.87 387.92,-453.39 378.32,-448.9 377.62,-455.87"/>
</g>
<!-- Node36 -->
<g id="node36" class="node">
<title>Node36</title>
<g id="a_node36"><a xlink:href="class_lookup_manager.html#a8d3d926f82bfb89594abd2430b9d4326" target="_top" xlink:title="Gets the object with the given symbol.">
<polygon fill="white" stroke="black" points="588,-413.5 588,-432.5 763,-432.5 763,-413.5 588,-413.5"/>
<text text-anchor="middle" x="675.5" y="-420.5" font-family="Helvetica,sans-Serif" font-size="10.00">LookupManager::getWithSymbol</text>
</a>
</g>
</g>
<!-- Node33&#45;&gt;Node36 -->
<g id="edge41" class="edge">
<title>Node33&#45;&gt;Node36</title>
<path fill="none" stroke="midnightblue" d="M313.04,-440.21C373.06,-437.35 492.55,-431.66 577.71,-427.61"/>
<polygon fill="midnightblue" stroke="midnightblue" points="578.1,-431.09 587.92,-427.12 577.76,-424.1 578.1,-431.09"/>
</g>
<!-- Node35 -->
<g id="node35" class="node">
<title>Node35</title>
<g id="a_node35"><a xlink:href="class_field.html#aa036e196f5805e9406b8169200e3915a" target="_top" xlink:title="Decodes the value from bytes into an existing json document.">
<polygon fill="white" stroke="black" points="635,-451.5 635,-470.5 716,-470.5 716,-451.5 635,-451.5"/>
<text text-anchor="middle" x="675.5" y="-458.5" font-family="Helvetica,sans-Serif" font-size="10.00">Field::decode</text>
</a>
</g>
</g>
<!-- Node34&#45;&gt;Node35 -->
<g id="edge39" class="edge">
<title>Node34&#45;&gt;Node35</title>
<path fill="none" stroke="midnightblue" d="M540.04,-461C568.21,-461 599.51,-461 624.82,-461"/>
<polygon fill="midnightblue" stroke="midnightblue" points="624.91,-464.5 634.91,-461 624.91,-457.5 624.91,-464.5"/>
</g>
<!-- Node34&#45;&gt;Node36 -->
<g id="edge40" class="edge">
<title>Node34&#45;&gt;Node36</title>
<path fill="none" stroke="midnightblue" d="M517.6,-451.46C546.24,-446.27 581.86,-439.8 611.92,-434.35"/>
<polygon fill="midnightblue" stroke="midnightblue" points="612.67,-437.77 621.88,-432.54 611.42,-430.88 612.67,-437.77"/>
</g>
</g>
</svg>
