<?xml version="1.0" encoding="UTF-8" standalone="no"?>
<!DOCTYPE svg PUBLIC "-//W3C//DTD SVG 1.1//EN"
 "http://www.w3.org/Graphics/SVG/1.1/DTD/svg11.dtd">
<!-- Generated by graphviz version 2.43.0 (0)
 -->
<!-- Title: BaseStationCode/src/main.cpp Pages: 1 -->
<!--zoomable 533 -->

<svg id="main" version="1.1" xmlns="http://www.w3.org/2000/svg" xmlns:xlink="http://www.w3.org/1999/xlink" xml:space="preserve" onload="init(evt)">
<style type="text/css"><![CDATA[
.node, .edge {opacity: 0.7;}
.node.selected, .edge.selected {opacity: 1;}
.edge:hover path { stroke: red; }
.edge:hover polygon { stroke: red; fill: red; }
]]></style>

<defs>
  <circle id="rim" cx="0" cy="0" r="7"/>
  <circle id="rim2" cx="0" cy="0" r="3.5"/>
  <g id="zoomPlus">
    <use xlink:href="#rim" fill="#404040"><set attributeName="fill" to="#808080" begin="zoomplus.mouseover" end="zoomplus.mouseout"/></use>
    <path d="M-4,0h8M0,-4v8" fill="none" stroke="white" stroke-width="1.5" pointer-events="none"/>
  </g>
  <g id="zoomMin">
    <use xlink:href="#rim" fill="#404040"><set attributeName="fill" to="#808080" begin="zoomminus.mouseover" end="zoomminus.mouseout"/></use>
    <path d="M-4,0h8" fill="none" stroke="white" stroke-width="1.5" pointer-events="none"/>
  </g>
  <g id="arrowUp" transform="translate(30 24)">
    <use xlink:href="#rim"/>
    <path pointer-events="none" fill="none" stroke="white" stroke-width="1.5" d="M0,-3.0v7 M-2.5,-0.5L0,-3.0L2.5,-0.5"/>
  </g>
  <g id="arrowRight" transform="rotate(90) translate(36 -43)">
    <use xlink:href="#rim"/>
    <path pointer-events="none" fill="none" stroke="white" stroke-width="1.5" d="M0,-3.0v7 M-2.5,-0.5L0,-3.0L2.5,-0.5"/>
  </g>
  <g id="arrowDown" transform="rotate(180) translate(-30 -48)">
    <use xlink:href="#rim"/>
    <path pointer-events="none" fill="none" stroke="white" stroke-width="1.5" d="M0,-3.0v7 M-2.5,-0.5L0,-3.0L2.5,-0.5"/>
  </g>
  <g id="arrowLeft" transform="rotate(270) translate(-36 17)">
    <use xlink:href="#rim"/>
    <path pointer-events="none" fill="none" stroke="white" stroke-width="1.5" d="M0,-3.0v7 M-2.5,-0.5L0,-3.0L2.5,-0.5"/>
  </g>
  <g id="resetDef">
    <use xlink:href="#rim2" fill="#404040"><set attributeName="fill" to="#808080" begin="reset.mouseover" end="reset.mouseout"/></use>
  </g>
</defs>
<script type="application/ecmascript">
var viewWidth = 715;
var viewHeight = 533;
var sectionId = 'dynsection-0';
</script>
<script type="application/ecmascript" xlink:href="svg.min.js"/>
<svg id="graph" class="graph">
<g id="viewport">
<title>BaseStationCode/src/main.cpp</title>
<!-- Node1 -->
<g id="Node000001" class="node">
<title>Node1</title>
<g id="a_Node000001"><a xlink:title=" ">
<polygon fill="#999999" stroke="#666666" points="490.37,-525 373.37,-525 373.37,-495 490.37,-495 490.37,-525"/>
<text text-anchor="start" x="381.37" y="-513" font-family="Helvetica,sans-Serif" font-size="10.00">BaseStationCode/src</text>
<text text-anchor="middle" x="431.87" y="-502" font-family="Helvetica,sans-Serif" font-size="10.00">/main.cpp</text>
</a>
</g>
</g>
<!-- Node2 -->
<g id="Node000002" class="node">
<title>Node2</title>
<g id="a_Node000002"><a xlink:href="defines_8h.html" target="_top" xlink:title="Definitions and other preprocessor and global stuff.">
<polygon fill="white" stroke="#666666" points="405.37,-74 344.37,-74 344.37,-55 405.37,-55 405.37,-74"/>
<text text-anchor="middle" x="374.87" y="-62" font-family="Helvetica,sans-Serif" font-size="10.00">defines.h</text>
</a>
</g>
</g>
<!-- Node1&#45;&gt;Node2 -->
<g id="edge1_Node000001_Node000002" class="edge">
<title>Node1&#45;&gt;Node2</title>
<g id="a_edge1_Node000001_Node000002"><a xlink:title=" ">
<path fill="none" stroke="#63b8ff" d="M490.53,-509.5C571.29,-506.76 706.87,-488.34 706.87,-395.5 706.87,-395.5 706.87,-395.5 706.87,-173.5 706.87,-112.86 504.08,-81.04 415.48,-70.03"/>
<polygon fill="#63b8ff" stroke="#63b8ff" points="415.86,-66.55 405.51,-68.82 415.02,-73.5 415.86,-66.55"/>
</a>
</g>
</g>
<!-- Node9 -->
<g id="Node000009" class="node">
<title>Node9</title>
<g id="a_Node000009"><a xlink:href="device__list_8h.html" target="_top" xlink:title="List of all devices and fields known to the system.">
<polygon fill="white" stroke="#666666" points="146.87,-294 68.87,-294 68.87,-275 146.87,-275 146.87,-294"/>
<text text-anchor="middle" x="107.87" y="-282" font-family="Helvetica,sans-Serif" font-size="10.00">device_list.h</text>
</a>
</g>
</g>
<!-- Node1&#45;&gt;Node9 -->
<g id="edge8_Node000001_Node000009" class="edge">
<title>Node1&#45;&gt;Node9</title>
<g id="a_edge8_Node000001_Node000009"><a xlink:title=" ">
<path fill="none" stroke="#63b8ff" d="M373.28,-501.33C333.77,-494.38 281.47,-481.64 239.87,-459 179.69,-426.25 167.06,-407.78 131.87,-349 123.36,-334.78 116.96,-317.02 112.91,-303.9"/>
<polygon fill="#63b8ff" stroke="#63b8ff" points="116.23,-302.78 110.08,-294.15 109.51,-304.73 116.23,-302.78"/>
</a>
</g>
</g>
<!-- Node14 -->
<g id="Node000014" class="node">
<title>Node14</title>
<g id="a_Node000014"><a xlink:href="networking_8h.html" target="_top" xlink:title="Header file for networking.cpp.">
<polygon fill="white" stroke="#666666" points="336.87,-404 238.87,-404 238.87,-385 336.87,-385 336.87,-404"/>
<text text-anchor="middle" x="287.87" y="-392" font-family="Helvetica,sans-Serif" font-size="10.00">src/networking.h</text>
</a>
</g>
</g>
<!-- Node1&#45;&gt;Node14 -->
<g id="edge19_Node000001_Node000014" class="edge">
<title>Node1&#45;&gt;Node14</title>
<g id="a_edge19_Node000001_Node000014"><a xlink:title=" ">
<path fill="none" stroke="#63b8ff" d="M373.17,-499.3C347.84,-492.21 319.93,-479.99 301.87,-459 291.29,-446.7 288.18,-428.19 287.48,-414.32"/>
<polygon fill="#63b8ff" stroke="#63b8ff" points="290.98,-413.96 287.36,-404.01 283.98,-414.05 290.98,-413.96"/>
</a>
</g>
</g>
<!-- Node15 -->
<g id="Node000015" class="node">
<title>Node15</title>
<g id="a_Node000015"><a xlink:href="lora_8h.html" target="_top" xlink:title="File that handles the LoRa radio and PJON.">
<polygon fill="white" stroke="#666666" points="184.87,-349 140.87,-349 140.87,-330 184.87,-330 184.87,-349"/>
<text text-anchor="middle" x="162.87" y="-337" font-family="Helvetica,sans-Serif" font-size="10.00">lora.h</text>
</a>
</g>
</g>
<!-- Node1&#45;&gt;Node15 -->
<g id="edge35_Node000001_Node000015" class="edge">
<title>Node1&#45;&gt;Node15</title>
<g id="a_edge35_Node000001_Node000015"><a xlink:title=" ">
<path fill="none" stroke="#63b8ff" d="M373.32,-496.27C320.74,-482.04 244.68,-454.12 196.87,-404 184.35,-390.88 175.11,-372.24 169.44,-358.55"/>
<polygon fill="#63b8ff" stroke="#63b8ff" points="172.7,-357.27 165.81,-349.22 166.18,-359.81 172.7,-357.27"/>
</a>
</g>
</g>
<!-- Node16 -->
<g id="Node000016" class="node">
<title>Node16</title>
<g id="a_Node000016"><a xlink:href="rpc_8h.html" target="_top" xlink:title="Handles RPC calls.">
<polygon fill="white" stroke="#666666" points="320.37,-294 279.37,-294 279.37,-275 320.37,-275 320.37,-294"/>
<text text-anchor="middle" x="299.87" y="-282" font-family="Helvetica,sans-Serif" font-size="10.00">rpc.h</text>
</a>
</g>
</g>
<!-- Node1&#45;&gt;Node16 -->
<g id="edge36_Node000001_Node000016" class="edge">
<title>Node1&#45;&gt;Node16</title>
<g id="a_edge36_Node000001_Node000016"><a xlink:title=" ">
<path fill="none" stroke="#63b8ff" d="M423.41,-494.68C400.19,-455.35 335.47,-345.77 310.18,-302.96"/>
<polygon fill="#63b8ff" stroke="#63b8ff" points="313.13,-301.06 305.03,-294.23 307.1,-304.62 313.13,-301.06"/>
</a>
</g>
</g>
<!-- Node17 -->
<g id="Node000017" class="node">
<title>Node17</title>
<g id="a_Node000017"><a xlink:href="alarm_8h.html" target="_top" xlink:title="Handles alarms.">
<polygon fill="white" stroke="#666666" points="450.87,-239 396.87,-239 396.87,-220 450.87,-220 450.87,-239"/>
<text text-anchor="middle" x="423.87" y="-227" font-family="Helvetica,sans-Serif" font-size="10.00">alarm.h</text>
</a>
</g>
</g>
<!-- Node1&#45;&gt;Node17 -->
<g id="edge37_Node000001_Node000017" class="edge">
<title>Node1&#45;&gt;Node17</title>
<g id="a_edge37_Node000001_Node000017"><a xlink:title=" ">
<path fill="none" stroke="#63b8ff" d="M461.9,-494.84C475.85,-486.53 491.06,-474.57 498.87,-459 502.66,-451.45 500.32,-448.32 498.87,-440 486.06,-366.21 449.64,-284.04 432.72,-248.49"/>
<polygon fill="#63b8ff" stroke="#63b8ff" points="435.82,-246.87 428.32,-239.38 429.52,-249.91 435.82,-246.87"/>
</a>
</g>
</g>
<!-- Node18 -->
<g id="Node000018" class="node">
<title>Node18</title>
<g id="a_Node000018"><a xlink:href="audio_8h.html" target="_top" xlink:title="Plays audio.">
<polygon fill="white" stroke="#666666" points="614.87,-404 544.87,-404 544.87,-385 614.87,-385 614.87,-404"/>
<text text-anchor="middle" x="579.87" y="-392" font-family="Helvetica,sans-Serif" font-size="10.00">src/audio.h</text>
</a>
</g>
</g>
<!-- Node1&#45;&gt;Node18 -->
<g id="edge38_Node000001_Node000018" class="edge">
<title>Node1&#45;&gt;Node18</title>
<g id="a_edge38_Node000001_Node000018"><a xlink:title=" ">
<path fill="none" stroke="#63b8ff" d="M470.87,-494.83C490.77,-486.39 514.56,-474.32 532.87,-459 548.28,-446.11 561.44,-427.19 569.88,-413.35"/>
<polygon fill="#63b8ff" stroke="#63b8ff" points="573.13,-414.73 575.16,-404.34 567.09,-411.2 573.13,-414.73"/>
</a>
</g>
</g>
<!-- Node19 -->
<g id="Node000019" class="node">
<title>Node19</title>
<g id="a_Node000019"><a xlink:href="leds_8h.html" target="_top" xlink:title="Controls the LEDs on the unit.">
<polygon fill="white" stroke="#666666" points="374.37,-459 311.37,-459 311.37,-440 374.37,-440 374.37,-459"/>
<text text-anchor="middle" x="342.87" y="-447" font-family="Helvetica,sans-Serif" font-size="10.00">src/leds.h</text>
</a>
</g>
</g>
<!-- Node1&#45;&gt;Node19 -->
<g id="edge40_Node000001_Node000019" class="edge">
<title>Node1&#45;&gt;Node19</title>
<g id="a_edge40_Node000001_Node000019"><a xlink:title=" ">
<path fill="none" stroke="#63b8ff" d="M410.33,-494.84C396.4,-485.68 378.34,-473.82 364.42,-464.66"/>
<polygon fill="#63b8ff" stroke="#63b8ff" points="366.23,-461.66 355.95,-459.09 362.38,-467.51 366.23,-461.66"/>
</a>
</g>
</g>
<!-- Node20 -->
<g id="Node000020" class="node">
<title>Node20</title>
<g id="a_Node000020"><a xlink:href="ota_8h.html" target="_top" xlink:title="Handles over the air (OTA) updates.">
<polygon fill="white" stroke="#666666" points="490.37,-459 431.37,-459 431.37,-440 490.37,-440 490.37,-459"/>
<text text-anchor="middle" x="460.87" y="-447" font-family="Helvetica,sans-Serif" font-size="10.00">src/ota.h</text>
</a>
</g>
</g>
<!-- Node1&#45;&gt;Node20 -->
<g id="edge45_Node000001_Node000020" class="edge">
<title>Node1&#45;&gt;Node20</title>
<g id="a_edge45_Node000001_Node000020"><a xlink:title=" ">
<path fill="none" stroke="#63b8ff" d="M438.89,-494.84C442.84,-486.87 447.82,-476.84 452.03,-468.33"/>
<polygon fill="#63b8ff" stroke="#63b8ff" points="455.22,-469.78 456.53,-459.27 448.95,-466.67 455.22,-469.78"/>
</a>
</g>
</g>
<!-- Node21 -->
<g id="Node000021" class="node">
<title>Node21</title>
<g id="a_Node000021"><a xlink:href="timeseries_8h.html" target="_top" xlink:title="Measures the temperature and pressure and sends them every so often as timeseries.">
<polygon fill="white" stroke="#666666" points="678.37,-349 583.37,-349 583.37,-330 678.37,-330 678.37,-349"/>
<text text-anchor="middle" x="630.87" y="-337" font-family="Helvetica,sans-Serif" font-size="10.00">src/timeseries.h</text>
</a>
</g>
</g>
<!-- Node1&#45;&gt;Node21 -->
<g id="edge48_Node000001_Node000021" class="edge">
<title>Node1&#45;&gt;Node21</title>
<g id="a_edge48_Node000001_Node000021"><a xlink:title=" ">
<path fill="none" stroke="#63b8ff" d="M490.79,-495.24C536.69,-480.99 596.99,-453.6 623.87,-404 631.23,-390.42 632.65,-372.83 632.42,-359.61"/>
<polygon fill="#63b8ff" stroke="#63b8ff" points="635.9,-359.14 631.9,-349.33 628.91,-359.49 635.9,-359.14"/>
</a>
</g>
</g>
<!-- Node3 -->
<g id="Node000003" class="node">
<title>Node3</title>
<g id="a_Node000003"><a xlink:title=" ">
<polygon fill="#e0e0e0" stroke="#999999" points="642.37,-19 579.37,-19 579.37,0 642.37,0 642.37,-19"/>
<text text-anchor="middle" x="610.87" y="-7" font-family="Helvetica,sans-Serif" font-size="10.00">Arduino.h</text>
</a>
</g>
</g>
<!-- Node2&#45;&gt;Node3 -->
<g id="edge2_Node000002_Node000003" class="edge">
<title>Node2&#45;&gt;Node3</title>
<g id="a_edge2_Node000002_Node000003"><a xlink:title=" ">
<path fill="none" stroke="#63b8ff" d="M405.72,-56.57C447.63,-47.16 522.66,-30.31 569.44,-19.8"/>
<polygon fill="#63b8ff" stroke="#63b8ff" points="570.27,-23.21 579.26,-17.6 568.73,-16.38 570.27,-23.21"/>
</a>
</g>
</g>
<!-- Node4 -->
<g id="Node000004" class="node">
<title>Node4</title>
<g id="a_Node000004"><a xlink:title=" ">
<polygon fill="#e0e0e0" stroke="#999999" points="222.37,-19 175.37,-19 175.37,0 222.37,0 222.37,-19"/>
<text text-anchor="middle" x="198.87" y="-7" font-family="Helvetica,sans-Serif" font-size="10.00">WiFi.h</text>
</a>
</g>
</g>
<!-- Node2&#45;&gt;Node4 -->
<g id="edge3_Node000002_Node000004" class="edge">
<title>Node2&#45;&gt;Node4</title>
<g id="a_edge3_Node000002_Node000004"><a xlink:title=" ">
<path fill="none" stroke="#63b8ff" d="M346.59,-54.98C315.42,-45.6 265.32,-30.51 232.24,-20.55"/>
<polygon fill="#63b8ff" stroke="#63b8ff" points="233.15,-17.17 222.56,-17.63 231.13,-23.87 233.15,-17.17"/>
</a>
</g>
</g>
<!-- Node5 -->
<g id="Node000005" class="node">
<title>Node5</title>
<g id="a_Node000005"><a xlink:title=" ">
<polygon fill="#e0e0e0" stroke="#999999" points="330.87,-19 240.87,-19 240.87,0 330.87,0 330.87,-19"/>
<text text-anchor="middle" x="285.87" y="-7" font-family="Helvetica,sans-Serif" font-size="10.00">PubSubClient.h</text>
</a>
</g>
</g>
<!-- Node2&#45;&gt;Node5 -->
<g id="edge4_Node000002_Node000005" class="edge">
<title>Node2&#45;&gt;Node5</title>
<g id="a_edge4_Node000002_Node000005"><a xlink:title=" ">
<path fill="none" stroke="#63b8ff" d="M360.57,-54.98C346.77,-46.77 325.63,-34.18 309.36,-24.49"/>
<polygon fill="#63b8ff" stroke="#63b8ff" points="310.81,-21.28 300.43,-19.17 307.23,-27.29 310.81,-21.28"/>
</a>
</g>
</g>
<!-- Node6 -->
<g id="Node000006" class="node">
<title>Node6</title>
<g id="a_Node000006"><a xlink:title=" ">
<polygon fill="#e0e0e0" stroke="#999999" points="432.37,-19 349.37,-19 349.37,0 432.37,0 432.37,-19"/>
<text text-anchor="middle" x="390.87" y="-7" font-family="Helvetica,sans-Serif" font-size="10.00">ArduinoJson.h</text>
</a>
</g>
</g>
<!-- Node2&#45;&gt;Node6 -->
<g id="edge5_Node000002_Node000006" class="edge">
<title>Node2&#45;&gt;Node6</title>
<g id="a_edge5_Node000002_Node000006"><a xlink:title=" ">
<path fill="none" stroke="#63b8ff" d="M377.51,-54.75C379.63,-47.72 382.68,-37.62 385.33,-28.84"/>
<polygon fill="#63b8ff" stroke="#63b8ff" points="388.74,-29.67 388.28,-19.09 382.04,-27.65 388.74,-29.67"/>
</a>
</g>
</g>
<!-- Node7 -->
<g id="Node000007" class="node">
<title>Node7</title>
<g id="a_Node000007"><a xlink:title=" ">
<polygon fill="#e0e0e0" stroke="#999999" points="560.87,-19 450.87,-19 450.87,0 560.87,0 560.87,-19"/>
<text text-anchor="middle" x="505.87" y="-7" font-family="Helvetica,sans-Serif" font-size="10.00">PJONThroughLora.h</text>
</a>
</g>
</g>
<!-- Node2&#45;&gt;Node7 -->
<g id="edge6_Node000002_Node000007" class="edge">
<title>Node2&#45;&gt;Node7</title>
<g id="a_edge6_Node000002_Node000007"><a xlink:title=" ">
<path fill="none" stroke="#63b8ff" d="M395.92,-54.98C417.28,-46.34 450.58,-32.87 474.94,-23.02"/>
<polygon fill="#63b8ff" stroke="#63b8ff" points="476.48,-26.17 484.44,-19.17 473.86,-19.68 476.48,-26.17"/>
</a>
</g>
</g>
<!-- Node8 -->
<g id="Node000008" class="node">
<title>Node8</title>
<g id="a_Node000008"><a xlink:href="topics_8h.html" target="_top" xlink:title="MQTT topics for a thingsboard gateway.">
<polygon fill="white" stroke="#666666" points="156.87,-19 84.87,-19 84.87,0 156.87,0 156.87,-19"/>
<text text-anchor="middle" x="120.87" y="-7" font-family="Helvetica,sans-Serif" font-size="10.00">src/topics.h</text>
</a>
</g>
</g>
<!-- Node2&#45;&gt;Node8 -->
<g id="edge7_Node000002_Node000008" class="edge">
<title>Node2&#45;&gt;Node8</title>
<g id="a_edge7_Node000002_Node000008"><a xlink:title=" ">
<path fill="none" stroke="#63b8ff" d="M344.23,-57.11C300.07,-47.89 218.2,-30.81 166.79,-20.08"/>
<polygon fill="#63b8ff" stroke="#63b8ff" points="167.44,-16.64 156.94,-18.03 166.01,-23.49 167.44,-16.64"/>
</a>
</g>
</g>
<!-- Node10 -->
<g id="Node000010" class="node">
<title>Node10</title>
<g id="a_Node000010"><a xlink:href="fields_8h.html" target="_top" xlink:title="Contains fields classes.">
<polygon fill="white" stroke="#666666" points="202.37,-184 133.37,-184 133.37,-165 202.37,-165 202.37,-184"/>
<text text-anchor="middle" x="167.87" y="-172" font-family="Helvetica,sans-Serif" font-size="10.00">src/fields.h</text>
</a>
</g>
</g>
<!-- Node9&#45;&gt;Node10 -->
<g id="edge9_Node000009_Node000010" class="edge">
<title>Node9&#45;&gt;Node10</title>
<g id="a_edge9_Node000009_Node000010"><a xlink:title=" ">
<path fill="none" stroke="#63b8ff" d="M109.58,-274.83C112.33,-262.17 118.5,-238.14 128.87,-220 134.84,-209.57 143.5,-199.37 151.14,-191.38"/>
<polygon fill="#63b8ff" stroke="#63b8ff" points="153.73,-193.75 158.31,-184.2 148.77,-188.81 153.73,-193.75"/>
</a>
</g>
</g>
<!-- Node13 -->
<g id="Node000013" class="node">
<title>Node13</title>
<g id="a_Node000013"><a xlink:href="devices_8h.html" target="_top" xlink:title="Devices and manager for all known devices the base station connects to.">
<polygon fill="white" stroke="#666666" points="217.87,-239 137.87,-239 137.87,-220 217.87,-220 217.87,-239"/>
<text text-anchor="middle" x="177.87" y="-227" font-family="Helvetica,sans-Serif" font-size="10.00">src/devices.h</text>
</a>
</g>
</g>
<!-- Node9&#45;&gt;Node13 -->
<g id="edge15_Node000009_Node000013" class="edge">
<title>Node9&#45;&gt;Node13</title>
<g id="a_edge15_Node000009_Node000013"><a xlink:title=" ">
<path fill="none" stroke="#63b8ff" d="M119.12,-274.98C129.67,-267 145.67,-254.88 158.31,-245.31"/>
<polygon fill="#63b8ff" stroke="#63b8ff" points="160.56,-248 166.42,-239.17 156.33,-242.42 160.56,-248"/>
</a>
</g>
</g>
<!-- Node10&#45;&gt;Node2 -->
<g id="edge10_Node000010_Node000002" class="edge">
<title>Node10&#45;&gt;Node2</title>
<g id="a_edge10_Node000010_Node000002"><a xlink:title=" ">
<path fill="none" stroke="#63b8ff" d="M166.47,-164.81C164.81,-151.24 163.84,-124.99 177.87,-110 198.78,-87.67 282.7,-75.11 334.02,-69.37"/>
<polygon fill="#63b8ff" stroke="#63b8ff" points="334.57,-72.83 344.14,-68.28 333.82,-65.87 334.57,-72.83"/>
</a>
</g>
</g>
<!-- Node11 -->
<g id="Node000011" class="node">
<title>Node11</title>
<g id="a_Node000011"><a xlink:href="lookups_8h.html" target="_top" xlink:title="Lookupable and lookupable manager base classes.">
<polygon fill="white" stroke="#666666" points="92.37,-129 29.37,-129 29.37,-110 92.37,-110 92.37,-129"/>
<text text-anchor="middle" x="60.87" y="-117" font-family="Helvetica,sans-Serif" font-size="10.00">lookups.h</text>
</a>
</g>
</g>
<!-- Node10&#45;&gt;Node11 -->
<g id="edge11_Node000010_Node000011" class="edge">
<title>Node10&#45;&gt;Node11</title>
<g id="a_edge11_Node000010_Node000011"><a xlink:title=" ">
<path fill="none" stroke="#63b8ff" d="M150.68,-164.98C133.62,-156.54 107.24,-143.47 87.48,-133.68"/>
<polygon fill="#63b8ff" stroke="#63b8ff" points="88.89,-130.47 78.38,-129.17 85.78,-136.75 88.89,-130.47"/>
</a>
</g>
</g>
<!-- Node12 -->
<g id="Node000012" class="node">
<title>Node12</title>
<g id="a_Node000012"><a xlink:href="conversions_8h.html" target="_top" xlink:title="General functions for converting to and from char arrays.">
<polygon fill="white" stroke="#666666" points="270.87,-129 186.87,-129 186.87,-110 270.87,-110 270.87,-129"/>
<text text-anchor="middle" x="228.87" y="-117" font-family="Helvetica,sans-Serif" font-size="10.00">conversions.h</text>
</a>
</g>
</g>
<!-- Node10&#45;&gt;Node12 -->
<g id="edge13_Node000010_Node000012" class="edge">
<title>Node10&#45;&gt;Node12</title>
<g id="a_edge13_Node000010_Node000012"><a xlink:title=" ">
<path fill="none" stroke="#63b8ff" d="M177.67,-164.98C186.69,-157.15 200.28,-145.34 211.19,-135.86"/>
<polygon fill="#63b8ff" stroke="#63b8ff" points="213.64,-138.37 218.89,-129.17 209.05,-133.09 213.64,-138.37"/>
</a>
</g>
</g>
<!-- Node11&#45;&gt;Node2 -->
<g id="edge12_Node000011_Node000002" class="edge">
<title>Node11&#45;&gt;Node2</title>
<g id="a_edge12_Node000011_Node000002"><a xlink:title=" ">
<path fill="none" stroke="#63b8ff" d="M92.42,-113.18C149.72,-103.5 270.85,-83.06 334.24,-72.36"/>
<polygon fill="#63b8ff" stroke="#63b8ff" points="335,-75.78 344.27,-70.66 333.83,-68.88 335,-75.78"/>
</a>
</g>
</g>
<!-- Node12&#45;&gt;Node2 -->
<g id="edge14_Node000012_Node000002" class="edge">
<title>Node12&#45;&gt;Node2</title>
<g id="a_edge14_Node000012_Node000002"><a xlink:title=" ">
<path fill="none" stroke="#63b8ff" d="M252.33,-109.98C276.45,-101.23 314.24,-87.51 341.47,-77.62"/>
<polygon fill="#63b8ff" stroke="#63b8ff" points="342.78,-80.87 350.99,-74.17 340.39,-74.29 342.78,-80.87"/>
</a>
</g>
</g>
<!-- Node13&#45;&gt;Node2 -->
<g id="edge16_Node000013_Node000002" class="edge">
<title>Node13&#45;&gt;Node2</title>
<g id="a_edge16_Node000013_Node000002"><a xlink:title=" ">
<path fill="none" stroke="#63b8ff" d="M188.19,-219.97C219.82,-193.79 315.78,-114.39 356.4,-80.79"/>
<polygon fill="#63b8ff" stroke="#63b8ff" points="358.71,-83.42 364.18,-74.34 354.25,-78.02 358.71,-83.42"/>
</a>
</g>
</g>
<!-- Node13&#45;&gt;Node10 -->
<g id="edge18_Node000013_Node000010" class="edge">
<title>Node13&#45;&gt;Node10</title>
<g id="a_edge18_Node000013_Node000010"><a xlink:title=" ">
<path fill="none" stroke="#63b8ff" d="M176.22,-219.75C174.91,-212.8 173.03,-202.85 171.39,-194.13"/>
<polygon fill="#63b8ff" stroke="#63b8ff" points="174.79,-193.27 169.49,-184.09 167.91,-194.56 174.79,-193.27"/>
</a>
</g>
</g>
<!-- Node13&#45;&gt;Node11 -->
<g id="edge17_Node000013_Node000011" class="edge">
<title>Node13&#45;&gt;Node11</title>
<g id="a_edge17_Node000013_Node000011"><a xlink:title=" ">
<path fill="none" stroke="#63b8ff" d="M166.84,-219.94C155.74,-211.2 138.23,-197.1 123.87,-184 106.96,-168.58 88.63,-149.86 76.13,-136.76"/>
<polygon fill="#63b8ff" stroke="#63b8ff" points="78.58,-134.26 69.16,-129.41 73.5,-139.07 78.58,-134.26"/>
</a>
</g>
</g>
<!-- Node14&#45;&gt;Node2 -->
<g id="edge20_Node000014_Node000002" class="edge">
<title>Node14&#45;&gt;Node2</title>
<g id="a_edge20_Node000014_Node000002"><a xlink:title=" ">
<path fill="none" stroke="#63b8ff" d="M292.01,-384.7C296.16,-375.77 302.67,-361.52 307.87,-349 317.91,-324.83 321.5,-319.11 328.87,-294 342.93,-246.07 342,-232.96 351.87,-184 358.99,-148.69 366.92,-107.38 371.36,-84.04"/>
<polygon fill="#63b8ff" stroke="#63b8ff" points="374.81,-84.61 373.24,-74.13 367.94,-83.3 374.81,-84.61"/>
</a>
</g>
</g>
<!-- Node14&#45;&gt;Node13 -->
<g id="edge21_Node000014_Node000013" class="edge">
<title>Node14&#45;&gt;Node13</title>
<g id="a_edge21_Node000014_Node000013"><a xlink:title=" ">
<path fill="none" stroke="#63b8ff" d="M284.67,-384.86C276.85,-364.42 255.32,-312.08 226.87,-275 218.43,-264 207.06,-253.48 197.4,-245.44"/>
<polygon fill="#63b8ff" stroke="#63b8ff" points="199.45,-242.6 189.47,-239.05 195.06,-248.05 199.45,-242.6"/>
</a>
</g>
</g>
<!-- Node14&#45;&gt;Node15 -->
<g id="edge22_Node000014_Node000015" class="edge">
<title>Node14&#45;&gt;Node15</title>
<g id="a_edge22_Node000014_Node000015"><a xlink:title=" ">
<path fill="none" stroke="#63b8ff" d="M262.67,-384.98C240.68,-376.46 209.23,-363.23 187.43,-353.41"/>
<polygon fill="#63b8ff" stroke="#63b8ff" points="188.72,-350.15 178.17,-349.17 185.81,-356.52 188.72,-350.15"/>
</a>
</g>
</g>
<!-- Node15&#45;&gt;Node2 -->
<g id="edge23_Node000015_Node000002" class="edge">
<title>Node15&#45;&gt;Node2</title>
<g id="a_edge23_Node000015_Node000002"><a xlink:title=" ">
<path fill="none" stroke="#63b8ff" d="M140.69,-334.47C96.32,-325.01 0.87,-296.92 0.87,-230.5 0.87,-230.5 0.87,-230.5 0.87,-173.5 0.87,-144.04 -2.61,-129.03 19.87,-110 66.53,-70.51 251.3,-65.44 334.22,-65.2"/>
<polygon fill="#63b8ff" stroke="#63b8ff" points="334.29,-68.7 344.29,-65.2 334.28,-61.7 334.29,-68.7"/>
</a>
</g>
</g>
<!-- Node15&#45;&gt;Node11 -->
<g id="edge24_Node000015_Node000011" class="edge">
<title>Node15&#45;&gt;Node11</title>
<g id="a_edge24_Node000015_Node000011"><a xlink:title=" ">
<path fill="none" stroke="#63b8ff" d="M140.66,-335.96C116.13,-331.84 77.74,-321.18 59.87,-294 28.21,-245.83 44.44,-172.73 54.66,-138.88"/>
<polygon fill="#63b8ff" stroke="#63b8ff" points="58.1,-139.59 57.81,-129 51.44,-137.46 58.1,-139.59"/>
</a>
</g>
</g>
<!-- Node15&#45;&gt;Node13 -->
<g id="edge25_Node000015_Node000013" class="edge">
<title>Node15&#45;&gt;Node13</title>
<g id="a_edge25_Node000015_Node000013"><a xlink:title=" ">
<path fill="none" stroke="#63b8ff" d="M164.1,-329.66C166.53,-312.17 172,-272.8 175.26,-249.27"/>
<polygon fill="#63b8ff" stroke="#63b8ff" points="178.76,-249.54 176.67,-239.16 171.83,-248.58 178.76,-249.54"/>
</a>
</g>
</g>
<!-- Node15&#45;&gt;Node14 -->
<g id="edge26_Node000015_Node000014" class="edge">
<title>Node15&#45;&gt;Node14</title>
<g id="a_edge26_Node000015_Node000014"><a xlink:title=" ">
<path fill="none" stroke="#63b8ff" d="M184.92,-347.8C207.03,-356.27 240.67,-370.38 263.53,-380.69"/>
<polygon fill="#63b8ff" stroke="#63b8ff" points="262.35,-384 272.9,-384.98 265.27,-377.64 262.35,-384"/>
</a>
</g>
</g>
<!-- Node15&#45;&gt;Node16 -->
<g id="edge27_Node000015_Node000016" class="edge">
<title>Node15&#45;&gt;Node16</title>
<g id="a_edge27_Node000015_Node000016"><a xlink:title=" ">
<path fill="none" stroke="#63b8ff" d="M184.88,-329.98C207.85,-321.1 244.03,-307.1 269.66,-297.19"/>
<polygon fill="#63b8ff" stroke="#63b8ff" points="271.2,-300.35 279.26,-293.47 268.67,-293.82 271.2,-300.35"/>
</a>
</g>
</g>
<!-- Node16&#45;&gt;Node2 -->
<g id="edge28_Node000016_Node000002" class="edge">
<title>Node16&#45;&gt;Node2</title>
<g id="a_edge28_Node000016_Node000002"><a xlink:title=" ">
<path fill="none" stroke="#63b8ff" d="M302.81,-274.95C313.87,-242.81 353.12,-128.72 368.57,-83.83"/>
<polygon fill="#63b8ff" stroke="#63b8ff" points="371.93,-84.82 371.87,-74.22 365.31,-82.54 371.93,-84.82"/>
</a>
</g>
</g>
<!-- Node16&#45;&gt;Node8 -->
<g id="edge29_Node000016_Node000008" class="edge">
<title>Node16&#45;&gt;Node8</title>
<g id="a_edge29_Node000016_Node000008"><a xlink:title=" ">
<path fill="none" stroke="#63b8ff" d="M293.53,-274.84C284.53,-262.59 267.54,-239.51 252.87,-220 234.39,-195.42 230.62,-188.58 210.87,-165 196.94,-148.36 190.04,-146.97 177.87,-129 155.56,-96.05 137.21,-53.03 127.77,-28.93"/>
<polygon fill="#63b8ff" stroke="#63b8ff" points="130.92,-27.38 124.07,-19.3 124.38,-29.89 130.92,-27.38"/>
</a>
</g>
</g>
<!-- Node16&#45;&gt;Node10 -->
<g id="edge33_Node000016_Node000010" class="edge">
<title>Node16&#45;&gt;Node10</title>
<g id="a_edge33_Node000016_Node000010"><a xlink:title=" ">
<path fill="none" stroke="#63b8ff" d="M290.14,-274.65C276.32,-262.17 250.1,-238.83 226.87,-220 214.16,-209.7 199.48,-198.62 187.94,-190.1"/>
<polygon fill="#63b8ff" stroke="#63b8ff" points="189.94,-187.23 179.81,-184.13 185.8,-192.87 189.94,-187.23"/>
</a>
</g>
</g>
<!-- Node16&#45;&gt;Node13 -->
<g id="edge32_Node000016_Node000013" class="edge">
<title>Node16&#45;&gt;Node13</title>
<g id="a_edge32_Node000016_Node000013"><a xlink:title=" ">
<path fill="none" stroke="#63b8ff" d="M280.27,-274.98C260.56,-266.42 229.92,-253.11 207.29,-243.28"/>
<polygon fill="#63b8ff" stroke="#63b8ff" points="208.4,-239.94 197.83,-239.17 205.61,-246.37 208.4,-239.94"/>
</a>
</g>
</g>
<!-- Node16&#45;&gt;Node14 -->
<g id="edge34_Node000016_Node000014" class="edge">
<title>Node16&#45;&gt;Node14</title>
<g id="a_edge34_Node000016_Node000014"><a xlink:title=" ">
<path fill="none" stroke="#63b8ff" d="M298.91,-294.16C296.98,-311.5 292.61,-350.84 289.98,-374.48"/>
<polygon fill="#63b8ff" stroke="#63b8ff" points="286.48,-374.34 288.85,-384.66 293.44,-375.11 286.48,-374.34"/>
</a>
</g>
</g>
<!-- Node16&#45;&gt;Node17 -->
<g id="edge30_Node000016_Node000017" class="edge">
<title>Node16&#45;&gt;Node17</title>
<g id="a_edge30_Node000016_Node000017"><a xlink:title=" ">
<path fill="none" stroke="#63b8ff" d="M319.79,-274.98C339.92,-266.38 371.25,-252.99 394.28,-243.15"/>
<polygon fill="#63b8ff" stroke="#63b8ff" points="395.77,-246.32 403.59,-239.17 393.02,-239.88 395.77,-246.32"/>
</a>
</g>
</g>
<!-- Node17&#45;&gt;Node2 -->
<g id="edge31_Node000017_Node000002" class="edge">
<title>Node17&#45;&gt;Node2</title>
<g id="a_edge31_Node000017_Node000002"><a xlink:title=" ">
<path fill="none" stroke="#63b8ff" d="M421.38,-219.86C415.71,-200.28 401.39,-151.04 388.87,-110 386.24,-101.37 383.25,-91.83 380.71,-83.8"/>
<polygon fill="#63b8ff" stroke="#63b8ff" points="383.96,-82.49 377.6,-74.02 377.29,-84.61 383.96,-82.49"/>
</a>
</g>
</g>
<!-- Node18&#45;&gt;Node2 -->
<g id="edge39_Node000018_Node000002" class="edge">
<title>Node18&#45;&gt;Node2</title>
<g id="a_edge39_Node000018_Node000002"><a xlink:title=" ">
<path fill="none" stroke="#63b8ff" d="M576.5,-384.98C569.68,-366.93 554.87,-323.41 554.87,-285.5 554.87,-285.5 554.87,-285.5 554.87,-173.5 554.87,-143.33 553.08,-130.43 530.87,-110 499.41,-81.06 450.41,-70.79 415.73,-67.23"/>
<polygon fill="#63b8ff" stroke="#63b8ff" points="415.73,-63.72 405.46,-66.33 415.12,-70.69 415.73,-63.72"/>
</a>
</g>
</g>
<!-- Node19&#45;&gt;Node2 -->
<g id="edge41_Node000019_Node000002" class="edge">
<title>Node19&#45;&gt;Node2</title>
<g id="a_edge41_Node000019_Node000002"><a xlink:title=" ">
<path fill="none" stroke="#63b8ff" d="M358.21,-439.9C393.78,-418.68 478.87,-360.13 478.87,-285.5 478.87,-285.5 478.87,-285.5 478.87,-173.5 478.87,-129.39 433.3,-96.35 402.49,-79.06"/>
<polygon fill="#63b8ff" stroke="#63b8ff" points="403.93,-75.86 393.46,-74.2 400.61,-82.02 403.93,-75.86"/>
</a>
</g>
</g>
<!-- Node19&#45;&gt;Node13 -->
<g id="edge44_Node000019_Node000013" class="edge">
<title>Node19&#45;&gt;Node13</title>
<g id="a_edge44_Node000019_Node000013"><a xlink:title=" ">
<path fill="none" stroke="#63b8ff" d="M311.29,-443.8C285.93,-438.41 251.13,-427.13 229.87,-404 208.71,-380.99 189.05,-289.05 181.33,-249.14"/>
<polygon fill="#63b8ff" stroke="#63b8ff" points="184.74,-248.34 179.44,-239.17 177.86,-249.64 184.74,-248.34"/>
</a>
</g>
</g>
<!-- Node19&#45;&gt;Node14 -->
<g id="edge43_Node000019_Node000014" class="edge">
<title>Node19&#45;&gt;Node14</title>
<g id="a_edge43_Node000019_Node000014"><a xlink:title=" ">
<path fill="none" stroke="#63b8ff" d="M333.79,-439.75C325.78,-432.03 313.91,-420.6 304.25,-411.28"/>
<polygon fill="#63b8ff" stroke="#63b8ff" points="306.41,-408.51 296.78,-404.09 301.56,-413.55 306.41,-408.51"/>
</a>
</g>
</g>
<!-- Node19&#45;&gt;Node17 -->
<g id="edge42_Node000019_Node000017" class="edge">
<title>Node19&#45;&gt;Node17</title>
<g id="a_edge42_Node000019_Node000017"><a xlink:title=" ">
<path fill="none" stroke="#63b8ff" d="M346.05,-439.95C357.99,-407.81 400.38,-293.72 417.06,-248.83"/>
<polygon fill="#63b8ff" stroke="#63b8ff" points="420.43,-249.82 420.63,-239.22 413.87,-247.38 420.43,-249.82"/>
</a>
</g>
</g>
<!-- Node20&#45;&gt;Node2 -->
<g id="edge46_Node000020_Node000002" class="edge">
<title>Node20&#45;&gt;Node2</title>
<g id="a_edge46_Node000020_Node000002"><a xlink:title=" ">
<path fill="none" stroke="#63b8ff" d="M469.13,-439.77C484.71,-422.37 516.87,-381.47 516.87,-340.5 516.87,-340.5 516.87,-340.5 516.87,-173.5 516.87,-122.17 457.37,-92.04 415.4,-77.17"/>
<polygon fill="#63b8ff" stroke="#63b8ff" points="416.28,-73.77 405.68,-73.89 414.04,-80.41 416.28,-73.77"/>
</a>
</g>
</g>
<!-- Node20&#45;&gt;Node14 -->
<g id="edge47_Node000020_Node000014" class="edge">
<title>Node20&#45;&gt;Node14</title>
<g id="a_edge47_Node000020_Node000014"><a xlink:title=" ">
<path fill="none" stroke="#63b8ff" d="M433.08,-439.98C403.91,-431.05 357.87,-416.94 325.47,-407.02"/>
<polygon fill="#63b8ff" stroke="#63b8ff" points="326.47,-403.66 315.88,-404.08 324.42,-410.36 326.47,-403.66"/>
</a>
</g>
</g>
<!-- Node21&#45;&gt;Node2 -->
<g id="edge49_Node000021_Node000002" class="edge">
<title>Node21&#45;&gt;Node2</title>
<g id="a_edge49_Node000021_Node000002"><a xlink:title=" ">
<path fill="none" stroke="#63b8ff" d="M628.31,-329.91C623.12,-311.74 611.87,-268 611.87,-230.5 611.87,-230.5 611.87,-230.5 611.87,-173.5 611.87,-88.52 484.13,-70.11 416.21,-66.32"/>
<polygon fill="#63b8ff" stroke="#63b8ff" points="416.01,-62.81 405.86,-65.83 415.68,-69.8 416.01,-62.81"/>
</a>
</g>
</g>
</g>
</svg>

<g id="navigator" transform="translate(0 0)" fill="#404254">
  <rect fill="#f2f5e9" fill-opacity="0.5" stroke="#606060" stroke-width=".5" x="0" y="0" width="60" height="60"/>
  <use id="zoomplus" xlink:href="#zoomPlus" x="17" y="9" onmousedown="handleZoom(evt,'in')"/>
  <use id="zoomminus" xlink:href="#zoomMin" x="42" y="9" onmousedown="handleZoom(evt,'out')"/>
  <use id="reset" xlink:href="#resetDef" x="30" y="36" onmousedown="handleReset()"/>
   <use id="arrowup" xlink:href="#arrowUp" x="0" y="0" onmousedown="handlePan(0,-1)"/>
  <use id="arrowright" xlink:href="#arrowRight" x="0" y="0" onmousedown="handlePan(1,0)"/>
  <use id="arrowdown" xlink:href="#arrowDown" x="0" y="0" onmousedown="handlePan(0,1)"/>
  <use id="arrowleft" xlink:href="#arrowLeft" x="0" y="0" onmousedown="handlePan(-1,0)"/>
</g>
<svg viewBox="0 0 15 15" width="100%" height="30px" preserveAspectRatio="xMaxYMin meet">
 <g id="arrow_out" transform="scale(0.3 0.3)">
  <a xlink:href="main_8cpp__incl_org.svg" target="_base">
   <rect id="button" ry="5" rx="5" y="6" x="6" height="38" width="38"
        fill="#f2f5e9" fill-opacity="0.5" stroke="#606060" stroke-width="1.0"/>
   <path id="arrow"
     d="M 11.500037,31.436501 C 11.940474,20.09759 22.043105,11.32322 32.158766,21.979434 L 37.068811,17.246167 C 37.068811,17.246167 37.088388,32 37.088388,32 L 22.160133,31.978069 C 22.160133,31.978069 26.997745,27.140456 26.997745,27.140456 C 18.528582,18.264221 13.291696,25.230495 11.500037,31.436501 z"
     style="fill:#404040;"/>
  </a>
 </g>
</svg>

<style type='text/css'>
<![CDATA[
[data-mouse-over-selected='false'] { opacity: 0.7; }
[data-mouse-over-selected='true']  { opacity: 1.0; }
]]>
</style>
<script type="application/ecmascript"><![CDATA[
document.addEventListener('DOMContentLoaded', (event) => {
  highlightEdges();
  highlightAdjacentNodes();
});
]]></script>
</svg>
