<?xml version="1.0" encoding="UTF-8" standalone="no"?>
<!DOCTYPE svg PUBLIC "-//W3C//DTD SVG 1.1//EN"
 "http://www.w3.org/Graphics/SVG/1.1/DTD/svg11.dtd">
<!-- Generated by graphviz version 2.43.0 (0)
 -->
<!-- Title: BaseStationCode/src/main.cpp Pages: 1 -->
<svg width="715pt" height="543pt"
 viewBox="0.00 0.00 714.97 543.00" xmlns="http://www.w3.org/2000/svg" xmlns:xlink="http://www.w3.org/1999/xlink">
<g id="graph0" class="graph" transform="scale(1 1) rotate(0) translate(4 539)">
<title>BaseStationCode/src/main.cpp</title>
<polygon fill="white" stroke="transparent" points="-4,4 -4,-539 710.97,-539 710.97,4 -4,4"/>
<!-- Node1 -->
<g id="node1" class="node">
<title>Node1</title>
<g id="a_node1"><a xlink:title=" ">
<polygon fill="#bfbfbf" stroke="black" points="373.47,-504.5 373.47,-534.5 490.47,-534.5 490.47,-504.5 373.47,-504.5"/>
<text text-anchor="start" x="381.47" y="-522.5" font-family="Helvetica,sans-Serif" font-size="10.00">BaseStationCode/src</text>
<text text-anchor="middle" x="431.97" y="-511.5" font-family="Helvetica,sans-Serif" font-size="10.00">/main.cpp</text>
</a>
</g>
</g>
<!-- Node2 -->
<g id="node2" class="node">
<title>Node2</title>
<g id="a_node2"><a xlink:href="defines_8h.html" target="_top" xlink:title="Definitions and other preprocessor and global stuff.">
<polygon fill="white" stroke="black" points="344.47,-56.5 344.47,-75.5 405.47,-75.5 405.47,-56.5 344.47,-56.5"/>
<text text-anchor="middle" x="374.97" y="-63.5" font-family="Helvetica,sans-Serif" font-size="10.00">defines.h</text>
</a>
</g>
</g>
<!-- Node1&#45;&gt;Node2 -->
<g id="edge1" class="edge">
<title>Node1&#45;&gt;Node2</title>
<path fill="none" stroke="midnightblue" d="M490.63,-518.64C571.4,-515.39 706.97,-496.08 706.97,-403 706.97,-403 706.97,-403 706.97,-177 706.97,-116.26 504.18,-83.27 415.58,-71.76"/>
<polygon fill="midnightblue" stroke="midnightblue" points="415.97,-68.28 405.61,-70.49 415.09,-75.22 415.97,-68.28"/>
</g>
<!-- Node9 -->
<g id="node9" class="node">
<title>Node9</title>
<g id="a_node9"><a xlink:href="device__list_8h.html" target="_top" xlink:title="List of all devices and fields known to the system.">
<polygon fill="white" stroke="black" points="68.97,-280.5 68.97,-299.5 146.97,-299.5 146.97,-280.5 68.97,-280.5"/>
<text text-anchor="middle" x="107.97" y="-287.5" font-family="Helvetica,sans-Serif" font-size="10.00">device_list.h</text>
</a>
</g>
</g>
<!-- Node1&#45;&gt;Node9 -->
<g id="edge8" class="edge">
<title>Node1&#45;&gt;Node9</title>
<path fill="none" stroke="midnightblue" d="M373.45,-510.9C333.65,-503.93 280.84,-491.06 238.97,-468 178.67,-434.79 166.54,-415.54 131.97,-356 123.48,-341.37 117.08,-323.2 113.03,-309.79"/>
<polygon fill="midnightblue" stroke="midnightblue" points="116.3,-308.49 110.19,-299.83 109.57,-310.41 116.3,-308.49"/>
</g>
<!-- Node14 -->
<g id="node14" class="node">
<title>Node14</title>
<g id="a_node14"><a xlink:href="networking_8h.html" target="_top" xlink:title="Header file for networking.cpp.">
<polygon fill="white" stroke="black" points="238.97,-392.5 238.97,-411.5 336.97,-411.5 336.97,-392.5 238.97,-392.5"/>
<text text-anchor="middle" x="287.97" y="-399.5" font-family="Helvetica,sans-Serif" font-size="10.00">src/networking.h</text>
</a>
</g>
</g>
<!-- Node1&#45;&gt;Node14 -->
<g id="edge19" class="edge">
<title>Node1&#45;&gt;Node14</title>
<path fill="none" stroke="midnightblue" d="M373.22,-508.6C347.87,-501.42 319.97,-489.09 301.97,-468 291.1,-455.25 288.06,-436.05 287.46,-421.83"/>
<polygon fill="midnightblue" stroke="midnightblue" points="290.96,-421.68 287.4,-411.7 283.96,-421.72 290.96,-421.68"/>
</g>
<!-- Node15 -->
<g id="node15" class="node">
<title>Node15</title>
<g id="a_node15"><a xlink:href="lora_8h.html" target="_top" xlink:title="File that handles the LoRa radio and PJON.">
<polygon fill="white" stroke="black" points="140.97,-336.5 140.97,-355.5 184.97,-355.5 184.97,-336.5 140.97,-336.5"/>
<text text-anchor="middle" x="162.97" y="-343.5" font-family="Helvetica,sans-Serif" font-size="10.00">lora.h</text>
</a>
</g>
</g>
<!-- Node1&#45;&gt;Node15 -->
<g id="edge35" class="edge">
<title>Node1&#45;&gt;Node15</title>
<path fill="none" stroke="midnightblue" d="M373.47,-505.63C320.73,-491.2 244.4,-462.86 196.97,-412 184.38,-398.49 175.14,-379.43 169.5,-365.44"/>
<polygon fill="midnightblue" stroke="midnightblue" points="172.71,-364.02 165.89,-355.9 166.16,-366.5 172.71,-364.02"/>
</g>
<!-- Node16 -->
<g id="node16" class="node">
<title>Node16</title>
<g id="a_node16"><a xlink:href="rpc_8h.html" target="_top" xlink:title="Handles RPC calls.">
<polygon fill="white" stroke="black" points="279.47,-280.5 279.47,-299.5 320.47,-299.5 320.47,-280.5 279.47,-280.5"/>
<text text-anchor="middle" x="299.97" y="-287.5" font-family="Helvetica,sans-Serif" font-size="10.00">rpc.h</text>
</a>
</g>
</g>
<!-- Node1&#45;&gt;Node16 -->
<g id="edge36" class="edge">
<title>Node1&#45;&gt;Node16</title>
<path fill="none" stroke="midnightblue" d="M423.72,-504.27C400.68,-464.56 335.72,-352.61 310.33,-308.85"/>
<polygon fill="midnightblue" stroke="midnightblue" points="313.2,-306.82 305.15,-299.93 307.15,-310.33 313.2,-306.82"/>
</g>
<!-- Node17 -->
<g id="node17" class="node">
<title>Node17</title>
<g id="a_node17"><a xlink:href="alarm_8h.html" target="_top" xlink:title="Handles alarms.">
<polygon fill="white" stroke="black" points="396.97,-224.5 396.97,-243.5 450.97,-243.5 450.97,-224.5 396.97,-224.5"/>
<text text-anchor="middle" x="423.97" y="-231.5" font-family="Helvetica,sans-Serif" font-size="10.00">alarm.h</text>
</a>
</g>
</g>
<!-- Node1&#45;&gt;Node17 -->
<g id="edge37" class="edge">
<title>Node1&#45;&gt;Node17</title>
<path fill="none" stroke="midnightblue" d="M461.66,-504.34C475.71,-495.92 491.11,-483.77 498.97,-468 502.94,-460.04 500.47,-456.76 498.97,-448 486.11,-372.73 449.41,-288.7 432.59,-252.81"/>
<polygon fill="midnightblue" stroke="midnightblue" points="435.68,-251.17 428.23,-243.64 429.36,-254.17 435.68,-251.17"/>
</g>
<!-- Node18 -->
<g id="node18" class="node">
<title>Node18</title>
<g id="a_node18"><a xlink:href="audio_8h.html" target="_top" xlink:title="Plays audio.">
<polygon fill="white" stroke="black" points="544.97,-392.5 544.97,-411.5 614.97,-411.5 614.97,-392.5 544.97,-392.5"/>
<text text-anchor="middle" x="579.97" y="-399.5" font-family="Helvetica,sans-Serif" font-size="10.00">src/audio.h</text>
</a>
</g>
</g>
<!-- Node1&#45;&gt;Node18 -->
<g id="edge38" class="edge">
<title>Node1&#45;&gt;Node18</title>
<path fill="none" stroke="midnightblue" d="M470.55,-504.41C490.56,-495.88 514.6,-483.61 532.97,-468 548.84,-454.52 562.21,-434.62 570.58,-420.39"/>
<polygon fill="midnightblue" stroke="midnightblue" points="573.67,-422.02 575.55,-411.6 567.58,-418.58 573.67,-422.02"/>
</g>
<!-- Node19 -->
<g id="node19" class="node">
<title>Node19</title>
<g id="a_node19"><a xlink:href="leds_8h.html" target="_top" xlink:title="Controls the LEDs on the unit.">
<polygon fill="white" stroke="black" points="311.47,-448.5 311.47,-467.5 374.47,-467.5 374.47,-448.5 311.47,-448.5"/>
<text text-anchor="middle" x="342.97" y="-455.5" font-family="Helvetica,sans-Serif" font-size="10.00">src/leds.h</text>
</a>
</g>
</g>
<!-- Node1&#45;&gt;Node19 -->
<g id="edge40" class="edge">
<title>Node1&#45;&gt;Node19</title>
<path fill="none" stroke="midnightblue" d="M410.88,-504.4C396.88,-495.04 378.56,-482.79 364.48,-473.38"/>
<polygon fill="midnightblue" stroke="midnightblue" points="366.18,-470.31 355.92,-467.66 362.29,-476.13 366.18,-470.31"/>
</g>
<!-- Node20 -->
<g id="node20" class="node">
<title>Node20</title>
<g id="a_node20"><a xlink:href="ota_8h.html" target="_top" xlink:title="Handles over the air (OTA) updates.">
<polygon fill="white" stroke="black" points="431.47,-448.5 431.47,-467.5 490.47,-467.5 490.47,-448.5 431.47,-448.5"/>
<text text-anchor="middle" x="460.97" y="-455.5" font-family="Helvetica,sans-Serif" font-size="10.00">src/ota.h</text>
</a>
</g>
</g>
<!-- Node1&#45;&gt;Node20 -->
<g id="edge45" class="edge">
<title>Node1&#45;&gt;Node20</title>
<path fill="none" stroke="midnightblue" d="M438.85,-504.4C442.89,-496.11 448.03,-485.55 452.34,-476.71"/>
<polygon fill="midnightblue" stroke="midnightblue" points="455.52,-478.18 456.75,-467.66 449.23,-475.11 455.52,-478.18"/>
</g>
<!-- Node21 -->
<g id="node21" class="node">
<title>Node21</title>
<g id="a_node21"><a xlink:href="timeseries_8h.html" target="_top" xlink:title="Measures the temperature and pressure and sends them every so often as timeseries.">
<polygon fill="white" stroke="black" points="583.47,-336.5 583.47,-355.5 678.47,-355.5 678.47,-336.5 583.47,-336.5"/>
<text text-anchor="middle" x="630.97" y="-343.5" font-family="Helvetica,sans-Serif" font-size="10.00">src/timeseries.h</text>
</a>
</g>
</g>
<!-- Node1&#45;&gt;Node21 -->
<g id="edge48" class="edge">
<title>Node1&#45;&gt;Node21</title>
<path fill="none" stroke="midnightblue" d="M490.53,-504.49C536.55,-489.95 597.2,-462.09 623.97,-412 631.58,-397.77 632.9,-379.29 632.57,-365.68"/>
<polygon fill="midnightblue" stroke="midnightblue" points="636.05,-365.38 632,-355.59 629.07,-365.77 636.05,-365.38"/>
</g>
<!-- Node3 -->
<g id="node3" class="node">
<title>Node3</title>
<g id="a_node3"><a xlink:title=" ">
<polygon fill="white" stroke="#bfbfbf" points="579.47,-0.5 579.47,-19.5 642.47,-19.5 642.47,-0.5 579.47,-0.5"/>
<text text-anchor="middle" x="610.97" y="-7.5" font-family="Helvetica,sans-Serif" font-size="10.00">Arduino.h</text>
</a>
</g>
</g>
<!-- Node2&#45;&gt;Node3 -->
<g id="edge2" class="edge">
<title>Node2&#45;&gt;Node3</title>
<path fill="none" stroke="midnightblue" d="M405.83,-57.94C447.73,-48.35 522.77,-31.18 569.54,-20.48"/>
<polygon fill="midnightblue" stroke="midnightblue" points="570.39,-23.88 579.36,-18.23 568.83,-17.05 570.39,-23.88"/>
</g>
<!-- Node4 -->
<g id="node4" class="node">
<title>Node4</title>
<g id="a_node4"><a xlink:title=" ">
<polygon fill="white" stroke="#bfbfbf" points="175.47,-0.5 175.47,-19.5 222.47,-19.5 222.47,-0.5 175.47,-0.5"/>
<text text-anchor="middle" x="198.97" y="-7.5" font-family="Helvetica,sans-Serif" font-size="10.00">WiFi.h</text>
</a>
</g>
</g>
<!-- Node2&#45;&gt;Node4 -->
<g id="edge3" class="edge">
<title>Node2&#45;&gt;Node4</title>
<path fill="none" stroke="midnightblue" d="M347.09,-56.44C315.9,-46.88 265.43,-31.39 232.22,-21.2"/>
<polygon fill="midnightblue" stroke="midnightblue" points="233.09,-17.81 222.51,-18.22 231.04,-24.5 233.09,-17.81"/>
</g>
<!-- Node5 -->
<g id="node5" class="node">
<title>Node5</title>
<g id="a_node5"><a xlink:title=" ">
<polygon fill="white" stroke="#bfbfbf" points="240.97,-0.5 240.97,-19.5 330.97,-19.5 330.97,-0.5 240.97,-0.5"/>
<text text-anchor="middle" x="285.97" y="-7.5" font-family="Helvetica,sans-Serif" font-size="10.00">PubSubClient.h</text>
</a>
</g>
</g>
<!-- Node2&#45;&gt;Node5 -->
<g id="edge4" class="edge">
<title>Node2&#45;&gt;Node5</title>
<path fill="none" stroke="midnightblue" d="M360.68,-56.32C346.79,-47.9 325.48,-34.97 309.17,-25.07"/>
<polygon fill="midnightblue" stroke="midnightblue" points="310.6,-21.85 300.24,-19.65 306.97,-27.83 310.6,-21.85"/>
</g>
<!-- Node6 -->
<g id="node6" class="node">
<title>Node6</title>
<g id="a_node6"><a xlink:title=" ">
<polygon fill="white" stroke="#bfbfbf" points="349.47,-0.5 349.47,-19.5 432.47,-19.5 432.47,-0.5 349.47,-0.5"/>
<text text-anchor="middle" x="390.97" y="-7.5" font-family="Helvetica,sans-Serif" font-size="10.00">ArduinoJson.h</text>
</a>
</g>
</g>
<!-- Node2&#45;&gt;Node6 -->
<g id="edge5" class="edge">
<title>Node2&#45;&gt;Node6</title>
<path fill="none" stroke="midnightblue" d="M377.62,-56.08C379.76,-48.85 382.85,-38.41 385.52,-29.4"/>
<polygon fill="midnightblue" stroke="midnightblue" points="388.9,-30.33 388.38,-19.75 382.18,-28.34 388.9,-30.33"/>
</g>
<!-- Node7 -->
<g id="node7" class="node">
<title>Node7</title>
<g id="a_node7"><a xlink:title=" ">
<polygon fill="white" stroke="#bfbfbf" points="450.97,-0.5 450.97,-19.5 560.97,-19.5 560.97,-0.5 450.97,-0.5"/>
<text text-anchor="middle" x="505.97" y="-7.5" font-family="Helvetica,sans-Serif" font-size="10.00">PJONThroughLora.h</text>
</a>
</g>
</g>
<!-- Node2&#45;&gt;Node7 -->
<g id="edge6" class="edge">
<title>Node2&#45;&gt;Node7</title>
<path fill="none" stroke="midnightblue" d="M395.73,-56.44C417.29,-47.56 451.24,-33.56 475.77,-23.45"/>
<polygon fill="midnightblue" stroke="midnightblue" points="477.4,-26.56 485.31,-19.52 474.74,-20.09 477.4,-26.56"/>
</g>
<!-- Node8 -->
<g id="node8" class="node">
<title>Node8</title>
<g id="a_node8"><a xlink:href="topics_8h.html" target="_top" xlink:title="MQTT topics for a thingsboard gateway.">
<polygon fill="white" stroke="black" points="84.97,-0.5 84.97,-19.5 156.97,-19.5 156.97,-0.5 84.97,-0.5"/>
<text text-anchor="middle" x="120.97" y="-7.5" font-family="Helvetica,sans-Serif" font-size="10.00">src/topics.h</text>
</a>
</g>
</g>
<!-- Node2&#45;&gt;Node8 -->
<g id="edge7" class="edge">
<title>Node2&#45;&gt;Node8</title>
<path fill="none" stroke="midnightblue" d="M344.34,-58.49C300.18,-49.1 218.31,-31.69 166.9,-20.76"/>
<polygon fill="midnightblue" stroke="midnightblue" points="167.55,-17.32 157.04,-18.67 166.09,-24.17 167.55,-17.32"/>
</g>
<!-- Node10 -->
<g id="node10" class="node">
<title>Node10</title>
<g id="a_node10"><a xlink:href="fields_8h.html" target="_top" xlink:title="Contains fields classes.">
<polygon fill="white" stroke="black" points="133.47,-168.5 133.47,-187.5 202.47,-187.5 202.47,-168.5 133.47,-168.5"/>
<text text-anchor="middle" x="167.97" y="-175.5" font-family="Helvetica,sans-Serif" font-size="10.00">src/fields.h</text>
</a>
</g>
</g>
<!-- Node9&#45;&gt;Node10 -->
<g id="edge9" class="edge">
<title>Node9&#45;&gt;Node10</title>
<path fill="none" stroke="midnightblue" d="M109.66,-280.13C112.37,-267.18 118.49,-242.6 128.97,-224 134.91,-213.46 143.57,-203.16 151.22,-195.07"/>
<polygon fill="midnightblue" stroke="midnightblue" points="153.86,-197.38 158.4,-187.8 148.88,-192.46 153.86,-197.38"/>
</g>
<!-- Node13 -->
<g id="node13" class="node">
<title>Node13</title>
<g id="a_node13"><a xlink:href="devices_8h.html" target="_top" xlink:title="Devices and manager for all known devices the base station connects to.">
<polygon fill="white" stroke="black" points="137.97,-224.5 137.97,-243.5 217.97,-243.5 217.97,-224.5 137.97,-224.5"/>
<text text-anchor="middle" x="177.97" y="-231.5" font-family="Helvetica,sans-Serif" font-size="10.00">src/devices.h</text>
</a>
</g>
</g>
<!-- Node9&#45;&gt;Node13 -->
<g id="edge15" class="edge">
<title>Node9&#45;&gt;Node13</title>
<path fill="none" stroke="midnightblue" d="M119.22,-280.32C129.77,-272.18 145.78,-259.84 158.42,-250.09"/>
<polygon fill="midnightblue" stroke="midnightblue" points="160.74,-252.71 166.52,-243.83 156.47,-247.17 160.74,-252.71"/>
</g>
<!-- Node10&#45;&gt;Node2 -->
<g id="edge10" class="edge">
<title>Node10&#45;&gt;Node2</title>
<path fill="none" stroke="midnightblue" d="M166.51,-168.12C164.76,-154.23 163.66,-127.38 177.97,-112 198.82,-89.59 282.76,-76.83 334.11,-70.97"/>
<polygon fill="midnightblue" stroke="midnightblue" points="334.67,-74.43 344.23,-69.85 333.9,-67.47 334.67,-74.43"/>
</g>
<!-- Node11 -->
<g id="node11" class="node">
<title>Node11</title>
<g id="a_node11"><a xlink:href="lookups_8h.html" target="_top" xlink:title="Lookupable and lookupable manager base classes.">
<polygon fill="white" stroke="black" points="29.47,-112.5 29.47,-131.5 92.47,-131.5 92.47,-112.5 29.47,-112.5"/>
<text text-anchor="middle" x="60.97" y="-119.5" font-family="Helvetica,sans-Serif" font-size="10.00">lookups.h</text>
</a>
</g>
</g>
<!-- Node10&#45;&gt;Node11 -->
<g id="edge11" class="edge">
<title>Node10&#45;&gt;Node11</title>
<path fill="none" stroke="midnightblue" d="M150.78,-168.32C133.62,-159.66 107.03,-146.24 87.23,-136.25"/>
<polygon fill="midnightblue" stroke="midnightblue" points="88.63,-133.04 78.12,-131.65 85.47,-139.28 88.63,-133.04"/>
</g>
<!-- Node12 -->
<g id="node12" class="node">
<title>Node12</title>
<g id="a_node12"><a xlink:href="conversions_8h.html" target="_top" xlink:title="General functions for converting to and from char arrays.">
<polygon fill="white" stroke="black" points="186.97,-112.5 186.97,-131.5 270.97,-131.5 270.97,-112.5 186.97,-112.5"/>
<text text-anchor="middle" x="228.97" y="-119.5" font-family="Helvetica,sans-Serif" font-size="10.00">conversions.h</text>
</a>
</g>
</g>
<!-- Node10&#45;&gt;Node12 -->
<g id="edge13" class="edge">
<title>Node10&#45;&gt;Node12</title>
<path fill="none" stroke="midnightblue" d="M177.78,-168.32C186.79,-160.34 200.38,-148.31 211.29,-138.65"/>
<polygon fill="midnightblue" stroke="midnightblue" points="213.83,-141.08 219,-131.83 209.19,-135.84 213.83,-141.08"/>
</g>
<!-- Node11&#45;&gt;Node2 -->
<g id="edge12" class="edge">
<title>Node11&#45;&gt;Node2</title>
<path fill="none" stroke="midnightblue" d="M92.52,-115.58C149.83,-105.72 270.95,-84.89 334.35,-73.99"/>
<polygon fill="midnightblue" stroke="midnightblue" points="335.12,-77.41 344.38,-72.26 333.93,-70.51 335.12,-77.41"/>
</g>
<!-- Node12&#45;&gt;Node2 -->
<g id="edge14" class="edge">
<title>Node12&#45;&gt;Node2</title>
<path fill="none" stroke="midnightblue" d="M252.11,-112.44C276.46,-103.44 314.98,-89.19 342.4,-79.05"/>
<polygon fill="midnightblue" stroke="midnightblue" points="343.78,-82.27 351.95,-75.52 341.36,-75.7 343.78,-82.27"/>
</g>
<!-- Node13&#45;&gt;Node2 -->
<g id="edge16" class="edge">
<title>Node13&#45;&gt;Node2</title>
<path fill="none" stroke="midnightblue" d="M188.29,-224.31C220.07,-197.53 316.78,-116.03 357.07,-82.09"/>
<polygon fill="midnightblue" stroke="midnightblue" points="359.37,-84.73 364.76,-75.61 354.86,-79.37 359.37,-84.73"/>
</g>
<!-- Node13&#45;&gt;Node10 -->
<g id="edge18" class="edge">
<title>Node13&#45;&gt;Node10</title>
<path fill="none" stroke="midnightblue" d="M176.32,-224.08C175,-216.93 173.09,-206.64 171.44,-197.69"/>
<polygon fill="midnightblue" stroke="midnightblue" points="174.86,-196.95 169.6,-187.75 167.97,-198.22 174.86,-196.95"/>
</g>
<!-- Node13&#45;&gt;Node11 -->
<g id="edge17" class="edge">
<title>Node13&#45;&gt;Node11</title>
<path fill="none" stroke="midnightblue" d="M166.93,-224.36C155.8,-215.54 138.29,-201.28 123.97,-188 106.8,-172.07 88.27,-152.65 75.78,-139.21"/>
<polygon fill="midnightblue" stroke="midnightblue" points="78.2,-136.68 68.85,-131.7 73.06,-141.42 78.2,-136.68"/>
</g>
<!-- Node14&#45;&gt;Node2 -->
<g id="edge20" class="edge">
<title>Node14&#45;&gt;Node2</title>
<path fill="none" stroke="midnightblue" d="M291.96,-392.44C296.11,-383.43 302.73,-368.82 307.97,-356 318.04,-331.4 321.61,-325.54 328.97,-300 343.05,-251.17 342.12,-237.85 351.97,-188 359.14,-151.77 367.11,-109.34 371.53,-85.58"/>
<polygon fill="midnightblue" stroke="midnightblue" points="375.01,-85.99 373.4,-75.52 368.13,-84.71 375.01,-85.99"/>
</g>
<!-- Node14&#45;&gt;Node13 -->
<g id="edge21" class="edge">
<title>Node14&#45;&gt;Node13</title>
<path fill="none" stroke="midnightblue" d="M284.92,-392.49C277.26,-371.86 255.78,-318.09 226.97,-280 218.57,-268.88 207.2,-258.25 197.53,-250.11"/>
<polygon fill="midnightblue" stroke="midnightblue" points="199.56,-247.25 189.59,-243.66 195.14,-252.68 199.56,-247.25"/>
</g>
<!-- Node14&#45;&gt;Node15 -->
<g id="edge22" class="edge">
<title>Node14&#45;&gt;Node15</title>
<path fill="none" stroke="midnightblue" d="M263.08,-392.44C240.86,-383.68 208.8,-369.94 186.89,-359.86"/>
<polygon fill="midnightblue" stroke="midnightblue" points="188.15,-356.58 177.61,-355.52 185.18,-362.92 188.15,-356.58"/>
</g>
<!-- Node15&#45;&gt;Node2 -->
<g id="edge23" class="edge">
<title>Node15&#45;&gt;Node2</title>
<path fill="none" stroke="midnightblue" d="M140.79,-340.76C96.42,-330.86 0.97,-301.8 0.97,-235 0.97,-235 0.97,-235 0.97,-177 0.97,-146.9 -2.92,-131.53 19.97,-112 66.49,-72.32 251.34,-67.06 334.3,-66.74"/>
<polygon fill="midnightblue" stroke="midnightblue" points="334.38,-70.24 344.37,-66.73 334.37,-63.24 334.38,-70.24"/>
</g>
<!-- Node15&#45;&gt;Node11 -->
<g id="edge24" class="edge">
<title>Node15&#45;&gt;Node11</title>
<path fill="none" stroke="midnightblue" d="M140.75,-342.35C116.21,-338.11 77.82,-327.27 59.97,-300 27.63,-250.58 44.42,-175.6 54.79,-141.29"/>
<polygon fill="midnightblue" stroke="midnightblue" points="58.16,-142.26 57.87,-131.67 51.49,-140.13 58.16,-142.26"/>
</g>
<!-- Node15&#45;&gt;Node13 -->
<g id="edge25" class="edge">
<title>Node15&#45;&gt;Node13</title>
<path fill="none" stroke="midnightblue" d="M164.15,-336.37C166.57,-318.62 172.16,-277.67 175.44,-253.6"/>
<polygon fill="midnightblue" stroke="midnightblue" points="178.92,-253.97 176.8,-243.59 171.98,-253.03 178.92,-253.97"/>
</g>
<!-- Node15&#45;&gt;Node14 -->
<g id="edge26" class="edge">
<title>Node15&#45;&gt;Node14</title>
<path fill="none" stroke="midnightblue" d="M185.11,-354.47C207.32,-363.14 241.08,-377.58 263.91,-388.07"/>
<polygon fill="midnightblue" stroke="midnightblue" points="262.72,-391.38 273.26,-392.44 265.68,-385.04 262.72,-391.38"/>
</g>
<!-- Node15&#45;&gt;Node16 -->
<g id="edge27" class="edge">
<title>Node15&#45;&gt;Node16</title>
<path fill="none" stroke="midnightblue" d="M184.68,-336.44C207.6,-327.41 243.89,-313.11 269.63,-302.96"/>
<polygon fill="midnightblue" stroke="midnightblue" points="271.24,-306.09 279.26,-299.16 268.68,-299.57 271.24,-306.09"/>
</g>
<!-- Node16&#45;&gt;Node2 -->
<g id="edge28" class="edge">
<title>Node16&#45;&gt;Node2</title>
<path fill="none" stroke="midnightblue" d="M302.91,-280.3C314,-247.49 353.39,-130.88 368.77,-85.38"/>
<polygon fill="midnightblue" stroke="midnightblue" points="372.09,-86.48 371.97,-75.88 365.46,-84.24 372.09,-86.48"/>
</g>
<!-- Node16&#45;&gt;Node8 -->
<g id="edge29" class="edge">
<title>Node16&#45;&gt;Node8</title>
<path fill="none" stroke="midnightblue" d="M293.64,-280.13C284.65,-267.59 267.67,-243.96 252.97,-224 234.53,-198.95 230.84,-191.94 210.97,-168 197.11,-151.3 190.07,-150.02 177.97,-132 155.2,-98.07 136.81,-53.62 127.53,-29.14"/>
<polygon fill="midnightblue" stroke="midnightblue" points="130.78,-27.84 124.02,-19.68 124.22,-30.27 130.78,-27.84"/>
</g>
<!-- Node16&#45;&gt;Node10 -->
<g id="edge33" class="edge">
<title>Node16&#45;&gt;Node10</title>
<path fill="none" stroke="midnightblue" d="M290.72,-280.35C277.06,-267.67 250.54,-243.43 226.97,-224 214.3,-213.55 199.62,-202.35 188.07,-193.73"/>
<polygon fill="midnightblue" stroke="midnightblue" points="190.05,-190.85 179.93,-187.71 185.89,-196.47 190.05,-190.85"/>
</g>
<!-- Node16&#45;&gt;Node13 -->
<g id="edge32" class="edge">
<title>Node16&#45;&gt;Node13</title>
<path fill="none" stroke="midnightblue" d="M280.64,-280.44C260.65,-271.6 229.23,-257.69 206.41,-247.59"/>
<polygon fill="midnightblue" stroke="midnightblue" points="207.78,-244.36 197.22,-243.52 204.94,-250.76 207.78,-244.36"/>
</g>
<!-- Node16&#45;&gt;Node14 -->
<g id="edge34" class="edge">
<title>Node16&#45;&gt;Node14</title>
<path fill="none" stroke="midnightblue" d="M299.04,-299.59C297.1,-317.31 292.64,-358.25 290.01,-382.35"/>
<polygon fill="midnightblue" stroke="midnightblue" points="286.52,-382.05 288.92,-392.37 293.48,-382.81 286.52,-382.05"/>
</g>
<!-- Node16&#45;&gt;Node17 -->
<g id="edge30" class="edge">
<title>Node16&#45;&gt;Node17</title>
<path fill="none" stroke="midnightblue" d="M319.62,-280.44C339.94,-271.6 371.88,-257.69 395.07,-247.59"/>
<polygon fill="midnightblue" stroke="midnightblue" points="396.65,-250.72 404.42,-243.52 393.85,-244.3 396.65,-250.72"/>
</g>
<!-- Node17&#45;&gt;Node2 -->
<g id="edge31" class="edge">
<title>Node17&#45;&gt;Node2</title>
<path fill="none" stroke="midnightblue" d="M421.57,-224.47C415.98,-204.68 401.61,-154.1 388.97,-112 386.33,-103.17 383.3,-93.4 380.74,-85.23"/>
<polygon fill="midnightblue" stroke="midnightblue" points="384.05,-84.1 377.71,-75.61 377.37,-86.2 384.05,-84.1"/>
</g>
<!-- Node18&#45;&gt;Node2 -->
<g id="edge39" class="edge">
<title>Node18&#45;&gt;Node2</title>
<path fill="none" stroke="midnightblue" d="M576.6,-392.31C569.78,-373.92 554.97,-329.58 554.97,-291 554.97,-291 554.97,-291 554.97,-177 554.97,-146.2 553.53,-132.97 530.97,-112 499.64,-82.87 450.61,-72.46 415.9,-68.82"/>
<polygon fill="midnightblue" stroke="midnightblue" points="415.89,-65.3 405.62,-67.89 415.26,-72.27 415.89,-65.3"/>
</g>
<!-- Node19&#45;&gt;Node2 -->
<g id="edge41" class="edge">
<title>Node19&#45;&gt;Node2</title>
<path fill="none" stroke="midnightblue" d="M357.79,-448.48C393.04,-426.99 478.97,-366.82 478.97,-291 478.97,-291 478.97,-291 478.97,-177 478.97,-132.22 432.91,-98.32 402.1,-80.66"/>
<polygon fill="midnightblue" stroke="midnightblue" points="403.54,-77.46 393.09,-75.7 400.16,-83.59 403.54,-77.46"/>
</g>
<!-- Node19&#45;&gt;Node13 -->
<g id="edge44" class="edge">
<title>Node19&#45;&gt;Node13</title>
<path fill="none" stroke="midnightblue" d="M311.36,-452.18C285.97,-446.69 251.16,-435.26 229.97,-412 208.49,-388.41 188.94,-294.3 181.34,-253.75"/>
<polygon fill="midnightblue" stroke="midnightblue" points="184.77,-253.04 179.52,-243.84 177.88,-254.3 184.77,-253.04"/>
</g>
<!-- Node19&#45;&gt;Node14 -->
<g id="edge43" class="edge">
<title>Node19&#45;&gt;Node14</title>
<path fill="none" stroke="midnightblue" d="M333.89,-448.08C325.8,-440.14 313.78,-428.34 304.06,-418.8"/>
<polygon fill="midnightblue" stroke="midnightblue" points="306.48,-416.26 296.89,-411.75 301.57,-421.25 306.48,-416.26"/>
</g>
<!-- Node19&#45;&gt;Node17 -->
<g id="edge42" class="edge">
<title>Node19&#45;&gt;Node17</title>
<path fill="none" stroke="midnightblue" d="M346.15,-448.3C358.12,-415.49 400.67,-298.88 417.27,-253.38"/>
<polygon fill="midnightblue" stroke="midnightblue" points="420.59,-254.48 420.73,-243.88 414.02,-252.08 420.59,-254.48"/>
</g>
<!-- Node20&#45;&gt;Node2 -->
<g id="edge46" class="edge">
<title>Node20&#45;&gt;Node2</title>
<path fill="none" stroke="midnightblue" d="M469,-448.36C484.48,-430.74 516.97,-388.79 516.97,-347 516.97,-347 516.97,-347 516.97,-177 516.97,-125.07 456.89,-94.15 414.89,-78.89"/>
<polygon fill="midnightblue" stroke="midnightblue" points="416.03,-75.58 405.44,-75.6 413.73,-82.19 416.03,-75.58"/>
</g>
<!-- Node20&#45;&gt;Node14 -->
<g id="edge47" class="edge">
<title>Node20&#45;&gt;Node14</title>
<path fill="none" stroke="midnightblue" d="M433.56,-448.44C404.21,-439.28 357.46,-424.69 324.88,-414.52"/>
<polygon fill="midnightblue" stroke="midnightblue" points="325.85,-411.16 315.26,-411.52 323.76,-417.84 325.85,-411.16"/>
</g>
<!-- Node21&#45;&gt;Node2 -->
<g id="edge49" class="edge">
<title>Node21&#45;&gt;Node2</title>
<path fill="none" stroke="midnightblue" d="M628.41,-336.25C623.23,-317.74 611.97,-273.18 611.97,-235 611.97,-235 611.97,-235 611.97,-177 611.97,-91.74 484.23,-72.38 416.32,-68.11"/>
<polygon fill="midnightblue" stroke="midnightblue" points="416.13,-64.6 405.96,-67.55 415.75,-71.59 416.13,-64.6"/>
</g>
</g>
</svg>
