<?xml version="1.0" encoding="UTF-8" standalone="no"?>
<!DOCTYPE svg PUBLIC "-//W3C//DTD SVG 1.1//EN"
 "http://www.w3.org/Graphics/SVG/1.1/DTD/svg11.dtd">
<!-- Generated by graphviz version 2.43.0 (0)
 -->
<!-- Title: BaseStationCode/src/src/networking.h Pages: 1 -->
<svg width="796pt" height="240pt"
 viewBox="0.00 0.00 796.01 240.00" xmlns="http://www.w3.org/2000/svg" xmlns:xlink="http://www.w3.org/1999/xlink">
<g id="graph0" class="graph" transform="scale(1 1) rotate(0) translate(4 236)">
<title>BaseStationCode/src/src/networking.h</title>
<polygon fill="white" stroke="transparent" points="-4,4 -4,-236 792.01,-236 792.01,4 -4,4"/>
<!-- Node1 -->
<g id="node1" class="node">
<title>Node1</title>
<g id="a_node1"><a xlink:title="Header file for networking.cpp.">
<polygon fill="#bfbfbf" stroke="black" points="362.01,-201.5 362.01,-231.5 479.01,-231.5 479.01,-201.5 362.01,-201.5"/>
<text text-anchor="start" x="370.01" y="-219.5" font-family="Helvetica,sans-Serif" font-size="10.00">BaseStationCode/src</text>
<text text-anchor="middle" x="420.51" y="-208.5" font-family="Helvetica,sans-Serif" font-size="10.00">/src/networking.h</text>
</a>
</g>
</g>
<!-- Node2 -->
<g id="node2" class="node">
<title>Node2</title>
<g id="a_node2"><a xlink:href="main_8cpp.html" target="_top" xlink:title=" ">
<polygon fill="white" stroke="black" points="140.01,-0.5 140.01,-30.5 257.01,-30.5 257.01,-0.5 140.01,-0.5"/>
<text text-anchor="start" x="148.01" y="-18.5" font-family="Helvetica,sans-Serif" font-size="10.00">BaseStationCode/src</text>
<text text-anchor="middle" x="198.51" y="-7.5" font-family="Helvetica,sans-Serif" font-size="10.00">/main.cpp</text>
</a>
</g>
</g>
<!-- Node1&#45;&gt;Node2 -->
<g id="edge1" class="edge">
<title>Node1&#45;&gt;Node2</title>
<path fill="none" stroke="midnightblue" d="M351.85,-206.18C300.6,-197.84 236.32,-183.99 217.51,-165 181.47,-128.62 189.64,-60.29 195.33,-30.73"/>
<polygon fill="midnightblue" stroke="midnightblue" points="351.49,-209.66 361.91,-207.77 352.58,-202.75 351.49,-209.66"/>
</g>
<!-- Node3 -->
<g id="node3" class="node">
<title>Node3</title>
<g id="a_node3"><a xlink:href="leds_8h.html" target="_top" xlink:title="Controls the LEDs on the unit.">
<polygon fill="white" stroke="black" points="15.01,-134.5 15.01,-164.5 132.01,-164.5 132.01,-134.5 15.01,-134.5"/>
<text text-anchor="start" x="23.01" y="-152.5" font-family="Helvetica,sans-Serif" font-size="10.00">BaseStationCode/src</text>
<text text-anchor="middle" x="73.51" y="-141.5" font-family="Helvetica,sans-Serif" font-size="10.00">/src/leds.h</text>
</a>
</g>
</g>
<!-- Node1&#45;&gt;Node3 -->
<g id="edge2" class="edge">
<title>Node1&#45;&gt;Node3</title>
<path fill="none" stroke="midnightblue" d="M351.87,-203.12C296.42,-193.06 216.39,-178.38 146.51,-165 141.81,-164.1 136.95,-163.16 132.06,-162.21"/>
<polygon fill="midnightblue" stroke="midnightblue" points="351.47,-206.61 361.93,-204.95 352.72,-199.72 351.47,-206.61"/>
</g>
<!-- Node5 -->
<g id="node5" class="node">
<title>Node5</title>
<g id="a_node5"><a xlink:href="lora_8h.html" target="_top" xlink:title="File that handles the LoRa radio and PJON.">
<polygon fill="white" stroke="black" points="671.01,-67.5 671.01,-97.5 788.01,-97.5 788.01,-67.5 671.01,-67.5"/>
<text text-anchor="start" x="679.01" y="-85.5" font-family="Helvetica,sans-Serif" font-size="10.00">BaseStationCode/src</text>
<text text-anchor="middle" x="729.51" y="-74.5" font-family="Helvetica,sans-Serif" font-size="10.00">/src/lora.h</text>
</a>
</g>
</g>
<!-- Node1&#45;&gt;Node5 -->
<g id="edge5" class="edge">
<title>Node1&#45;&gt;Node5</title>
<path fill="none" stroke="midnightblue" d="M472.73,-198.47C500.91,-189.62 535.97,-177.94 566.51,-165 614.41,-144.7 667.46,-114.89 699.85,-97.51"/>
<polygon fill="midnightblue" stroke="midnightblue" points="471.58,-195.17 463.07,-201.49 473.66,-201.85 471.58,-195.17"/>
</g>
<!-- Node7 -->
<g id="node7" class="node">
<title>Node7</title>
<g id="a_node7"><a xlink:href="networking_8cpp.html" target="_top" xlink:title="File that handles connecting to WiFi and MQTT and staying connected.">
<polygon fill="white" stroke="black" points="362.01,-67.5 362.01,-97.5 479.01,-97.5 479.01,-67.5 362.01,-67.5"/>
<text text-anchor="start" x="370.01" y="-85.5" font-family="Helvetica,sans-Serif" font-size="10.00">BaseStationCode/src</text>
<text text-anchor="middle" x="420.51" y="-74.5" font-family="Helvetica,sans-Serif" font-size="10.00">/src/networking.cpp</text>
</a>
</g>
</g>
<!-- Node1&#45;&gt;Node7 -->
<g id="edge9" class="edge">
<title>Node1&#45;&gt;Node7</title>
<path fill="none" stroke="midnightblue" d="M420.51,-191.02C420.51,-163.51 420.51,-119.79 420.51,-97.52"/>
<polygon fill="midnightblue" stroke="midnightblue" points="417.01,-191.37 420.51,-201.37 424.01,-191.37 417.01,-191.37"/>
</g>
<!-- Node8 -->
<g id="node8" class="node">
<title>Node8</title>
<g id="a_node8"><a xlink:href="ota_8h.html" target="_top" xlink:title="Handles over the air (OTA) updates.">
<polygon fill="white" stroke="black" points="227.01,-134.5 227.01,-164.5 344.01,-164.5 344.01,-134.5 227.01,-134.5"/>
<text text-anchor="start" x="235.01" y="-152.5" font-family="Helvetica,sans-Serif" font-size="10.00">BaseStationCode/src</text>
<text text-anchor="middle" x="285.51" y="-141.5" font-family="Helvetica,sans-Serif" font-size="10.00">/src/ota.h</text>
</a>
</g>
</g>
<!-- Node1&#45;&gt;Node8 -->
<g id="edge10" class="edge">
<title>Node1&#45;&gt;Node8</title>
<path fill="none" stroke="midnightblue" d="M382.07,-196.99C360.67,-186.69 334.45,-174.07 314.74,-164.58"/>
<polygon fill="midnightblue" stroke="midnightblue" points="380.68,-200.21 391.21,-201.4 383.72,-193.9 380.68,-200.21"/>
</g>
<!-- Node10 -->
<g id="node10" class="node">
<title>Node10</title>
<g id="a_node10"><a xlink:href="rpc_8h.html" target="_top" xlink:title="Handles RPC calls.">
<polygon fill="white" stroke="black" points="449.01,-134.5 449.01,-164.5 566.01,-164.5 566.01,-134.5 449.01,-134.5"/>
<text text-anchor="start" x="457.01" y="-152.5" font-family="Helvetica,sans-Serif" font-size="10.00">BaseStationCode/src</text>
<text text-anchor="middle" x="507.51" y="-141.5" font-family="Helvetica,sans-Serif" font-size="10.00">/src/rpc.h</text>
</a>
</g>
</g>
<!-- Node1&#45;&gt;Node10 -->
<g id="edge13" class="edge">
<title>Node1&#45;&gt;Node10</title>
<path fill="none" stroke="midnightblue" d="M447.72,-195.17C461.02,-185.23 476.7,-173.51 488.66,-164.58"/>
<polygon fill="midnightblue" stroke="midnightblue" points="445.3,-192.61 439.38,-201.4 449.49,-198.21 445.3,-192.61"/>
</g>
<!-- Node3&#45;&gt;Node2 -->
<g id="edge3" class="edge">
<title>Node3&#45;&gt;Node2</title>
<path fill="none" stroke="midnightblue" d="M38.75,-128.91C14.34,-112.61 -11.22,-88.66 5.51,-67 21.91,-45.75 89.2,-31.72 139.75,-23.96"/>
<polygon fill="midnightblue" stroke="midnightblue" points="36.96,-131.92 47.27,-134.34 40.72,-126.01 36.96,-131.92"/>
</g>
<!-- Node4 -->
<g id="node4" class="node">
<title>Node4</title>
<g id="a_node4"><a xlink:href="leds_8cpp.html" target="_top" xlink:title="Controls the LEDs on the unit.">
<polygon fill="white" stroke="black" points="15.01,-67.5 15.01,-97.5 132.01,-97.5 132.01,-67.5 15.01,-67.5"/>
<text text-anchor="start" x="23.01" y="-85.5" font-family="Helvetica,sans-Serif" font-size="10.00">BaseStationCode/src</text>
<text text-anchor="middle" x="73.51" y="-74.5" font-family="Helvetica,sans-Serif" font-size="10.00">/src/leds.cpp</text>
</a>
</g>
</g>
<!-- Node3&#45;&gt;Node4 -->
<g id="edge4" class="edge">
<title>Node3&#45;&gt;Node4</title>
<path fill="none" stroke="midnightblue" d="M73.51,-124.11C73.51,-115.15 73.51,-105.32 73.51,-97.58"/>
<polygon fill="midnightblue" stroke="midnightblue" points="70.01,-124.4 73.51,-134.4 77.01,-124.4 70.01,-124.4"/>
</g>
<!-- Node5&#45;&gt;Node1 -->
<g id="edge8" class="edge">
<title>Node5&#45;&gt;Node1</title>
<path fill="none" stroke="midnightblue" d="M703.78,-102.93C675.15,-120.62 627.73,-146.68 584.51,-165 550.37,-179.47 510.58,-192.35 478.66,-201.49"/>
<polygon fill="midnightblue" stroke="midnightblue" points="705.8,-105.8 712.39,-97.51 702.06,-99.88 705.8,-105.8"/>
</g>
<!-- Node5&#45;&gt;Node2 -->
<g id="edge6" class="edge">
<title>Node5&#45;&gt;Node2</title>
<path fill="none" stroke="midnightblue" d="M660.86,-66.83C510.38,-42.86 343.83,-27.85 257.37,-20.92"/>
<polygon fill="midnightblue" stroke="midnightblue" points="660.32,-70.29 670.75,-68.42 661.43,-63.37 660.32,-70.29"/>
</g>
<!-- Node6 -->
<g id="node6" class="node">
<title>Node6</title>
<g id="a_node6"><a xlink:href="lora_8cpp.html" target="_top" xlink:title="File that handles the LoRa radio and PJON.">
<polygon fill="white" stroke="black" points="671.01,-0.5 671.01,-30.5 788.01,-30.5 788.01,-0.5 671.01,-0.5"/>
<text text-anchor="start" x="679.01" y="-18.5" font-family="Helvetica,sans-Serif" font-size="10.00">BaseStationCode/src</text>
<text text-anchor="middle" x="729.51" y="-7.5" font-family="Helvetica,sans-Serif" font-size="10.00">/src/lora.cpp</text>
</a>
</g>
</g>
<!-- Node5&#45;&gt;Node6 -->
<g id="edge7" class="edge">
<title>Node5&#45;&gt;Node6</title>
<path fill="none" stroke="midnightblue" d="M729.51,-57.11C729.51,-48.15 729.51,-38.32 729.51,-30.58"/>
<polygon fill="midnightblue" stroke="midnightblue" points="726.01,-57.4 729.51,-67.4 733.01,-57.4 726.01,-57.4"/>
</g>
<!-- Node8&#45;&gt;Node2 -->
<g id="edge11" class="edge">
<title>Node8&#45;&gt;Node2</title>
<path fill="none" stroke="midnightblue" d="M249.72,-128.94C237.85,-120.81 225.62,-110.37 217.51,-98 203.88,-77.23 199.98,-47.84 198.89,-30.62"/>
<polygon fill="midnightblue" stroke="midnightblue" points="247.93,-131.95 258.23,-134.44 251.73,-126.07 247.93,-131.95"/>
</g>
<!-- Node9 -->
<g id="node9" class="node">
<title>Node9</title>
<g id="a_node9"><a xlink:href="ota_8cpp.html" target="_top" xlink:title="Handles over the air (OTA) updates.">
<polygon fill="white" stroke="black" points="227.01,-67.5 227.01,-97.5 344.01,-97.5 344.01,-67.5 227.01,-67.5"/>
<text text-anchor="start" x="235.01" y="-85.5" font-family="Helvetica,sans-Serif" font-size="10.00">BaseStationCode/src</text>
<text text-anchor="middle" x="285.51" y="-74.5" font-family="Helvetica,sans-Serif" font-size="10.00">/src/ota.cpp</text>
</a>
</g>
</g>
<!-- Node8&#45;&gt;Node9 -->
<g id="edge12" class="edge">
<title>Node8&#45;&gt;Node9</title>
<path fill="none" stroke="midnightblue" d="M285.51,-124.11C285.51,-115.15 285.51,-105.32 285.51,-97.58"/>
<polygon fill="midnightblue" stroke="midnightblue" points="282.01,-124.4 285.51,-134.4 289.01,-124.4 282.01,-124.4"/>
</g>
<!-- Node10&#45;&gt;Node2 -->
<g id="edge14" class="edge">
<title>Node10&#45;&gt;Node2</title>
<path fill="none" stroke="midnightblue" d="M508.53,-124.21C507.91,-105.9 503.88,-81.53 488.51,-67 455.96,-36.24 332.07,-23.93 257.15,-19.22"/>
<polygon fill="midnightblue" stroke="midnightblue" points="505.03,-124.44 508.55,-134.43 512.03,-124.42 505.03,-124.44"/>
</g>
<!-- Node10&#45;&gt;Node5 -->
<g id="edge15" class="edge">
<title>Node10&#45;&gt;Node5</title>
<path fill="none" stroke="midnightblue" d="M565.29,-131.58C601.35,-121.02 647.22,-107.59 681.31,-97.61"/>
<polygon fill="midnightblue" stroke="midnightblue" points="564.02,-128.31 555.4,-134.48 565.98,-135.02 564.02,-128.31"/>
</g>
<!-- Node10&#45;&gt;Node7 -->
<g id="edge16" class="edge">
<title>Node10&#45;&gt;Node7</title>
<path fill="none" stroke="midnightblue" d="M480.29,-128.17C466.99,-118.23 451.31,-106.51 439.35,-97.58"/>
<polygon fill="midnightblue" stroke="midnightblue" points="478.52,-131.21 488.63,-134.4 482.71,-125.61 478.52,-131.21"/>
</g>
<!-- Node11 -->
<g id="node11" class="node">
<title>Node11</title>
<g id="a_node11"><a xlink:href="rpc_8cpp.html" target="_top" xlink:title="Handles RPC calls.">
<polygon fill="white" stroke="black" points="536.01,-67.5 536.01,-97.5 653.01,-97.5 653.01,-67.5 536.01,-67.5"/>
<text text-anchor="start" x="544.01" y="-85.5" font-family="Helvetica,sans-Serif" font-size="10.00">BaseStationCode/src</text>
<text text-anchor="middle" x="594.51" y="-74.5" font-family="Helvetica,sans-Serif" font-size="10.00">/src/rpc.cpp</text>
</a>
</g>
</g>
<!-- Node10&#45;&gt;Node11 -->
<g id="edge17" class="edge">
<title>Node10&#45;&gt;Node11</title>
<path fill="none" stroke="midnightblue" d="M534.72,-128.17C548.02,-118.23 563.7,-106.51 575.66,-97.58"/>
<polygon fill="midnightblue" stroke="midnightblue" points="532.3,-125.61 526.38,-134.4 536.49,-131.21 532.3,-125.61"/>
</g>
</g>
</svg>
