<?xml version="1.0" encoding="UTF-8" standalone="no"?>
<!DOCTYPE svg PUBLIC "-//W3C//DTD SVG 1.1//EN"
 "http://www.w3.org/Graphics/SVG/1.1/DTD/svg11.dtd">
<!-- Generated by graphviz version 2.43.0 (0)
 -->
<!-- Title: BaseStationCode/src/src/networking.cpp Pages: 1 -->
<svg width="568pt" height="478pt"
 viewBox="0.00 0.00 567.50 478.00" xmlns="http://www.w3.org/2000/svg" xmlns:xlink="http://www.w3.org/1999/xlink">
<g id="graph0" class="graph" transform="scale(1 1) rotate(0) translate(4 474)">
<title>BaseStationCode/src/src/networking.cpp</title>
<!-- Node1 -->
<g id="Node000001" class="node">
<title>Node1</title>
<g id="a_Node000001"><a xlink:title="File that handles connecting to WiFi and MQTT and staying connected.">
<polygon fill="#999999" stroke="#666666" points="542,-470 425,-470 425,-440 542,-440 542,-470"/>
<text text-anchor="start" x="433" y="-458" font-family="Helvetica,sans-Serif" font-size="10.00">BaseStationCode/src</text>
<text text-anchor="middle" x="483.5" y="-447" font-family="Helvetica,sans-Serif" font-size="10.00">/src/networking.cpp</text>
</a>
</g>
</g>
<!-- Node2 -->
<g id="Node000002" class="node">
<title>Node2</title>
<g id="a_Node000002"><a xlink:href="networking_8h.html" target="_top" xlink:title="Header file for networking.cpp.">
<polygon fill="white" stroke="#666666" points="439.5,-404 359.5,-404 359.5,-385 439.5,-385 439.5,-404"/>
<text text-anchor="middle" x="399.5" y="-392" font-family="Helvetica,sans-Serif" font-size="10.00">networking.h</text>
</a>
</g>
</g>
<!-- Node1&#45;&gt;Node2 -->
<g id="edge1_Node000001_Node000002" class="edge">
<title>Node1&#45;&gt;Node2</title>
<g id="a_edge1_Node000001_Node000002"><a xlink:title=" ">
<path fill="none" stroke="#63b8ff" d="M463.17,-439.84C450.23,-430.83 433.51,-419.18 420.45,-410.09"/>
<polygon fill="#63b8ff" stroke="#63b8ff" points="422.29,-407.11 412.09,-404.27 418.29,-412.85 422.29,-407.11"/>
</a>
</g>
</g>
<!-- Node15 -->
<g id="Node000015" class="node">
<title>Node15</title>
<g id="a_Node000015"><a xlink:href="rpc_8h.html" target="_top" xlink:title="Handles RPC calls.">
<polygon fill="white" stroke="#666666" points="449,-294 408,-294 408,-275 449,-275 449,-294"/>
<text text-anchor="middle" x="428.5" y="-282" font-family="Helvetica,sans-Serif" font-size="10.00">rpc.h</text>
</a>
</g>
</g>
<!-- Node1&#45;&gt;Node15 -->
<g id="edge31_Node000001_Node000015" class="edge">
<title>Node1&#45;&gt;Node15</title>
<g id="a_edge31_Node000001_Node000015"><a xlink:title=" ">
<path fill="none" stroke="#63b8ff" d="M478.91,-439.92C468.98,-409.52 445.55,-337.73 434.48,-303.83"/>
<polygon fill="#63b8ff" stroke="#63b8ff" points="437.79,-302.68 431.36,-294.25 431.13,-304.85 437.79,-302.68"/>
</a>
</g>
</g>
<!-- Node3 -->
<g id="Node000003" class="node">
<title>Node3</title>
<g id="a_Node000003"><a xlink:href="defines_8h.html" target="_top" xlink:title="Definitions and other preprocessor and global stuff.">
<polygon fill="white" stroke="#666666" points="352.5,-74 282.5,-74 282.5,-55 352.5,-55 352.5,-74"/>
<text text-anchor="middle" x="317.5" y="-62" font-family="Helvetica,sans-Serif" font-size="10.00">../defines.h</text>
</a>
</g>
</g>
<!-- Node2&#45;&gt;Node3 -->
<g id="edge2_Node000002_Node000003" class="edge">
<title>Node2&#45;&gt;Node3</title>
<g id="a_edge2_Node000002_Node000003"><a xlink:title=" ">
<path fill="none" stroke="#63b8ff" d="M439.46,-384.98C486.85,-372.25 559.5,-343.31 559.5,-285.5 559.5,-285.5 559.5,-285.5 559.5,-173.5 559.5,-88.38 433.12,-69.89 363.02,-66.17"/>
<polygon fill="#63b8ff" stroke="#63b8ff" points="362.84,-62.66 352.69,-65.71 362.52,-69.65 362.84,-62.66"/>
</a>
</g>
</g>
<!-- Node10 -->
<g id="Node000010" class="node">
<title>Node10</title>
<g id="a_Node000010"><a xlink:href="devices_8h.html" target="_top" xlink:title="Devices and manager for all known devices the base station connects to.">
<polygon fill="white" stroke="#666666" points="361,-239 298,-239 298,-220 361,-220 361,-239"/>
<text text-anchor="middle" x="329.5" y="-227" font-family="Helvetica,sans-Serif" font-size="10.00">devices.h</text>
</a>
</g>
</g>
<!-- Node2&#45;&gt;Node10 -->
<g id="edge9_Node000002_Node000010" class="edge">
<title>Node2&#45;&gt;Node10</title>
<g id="a_edge9_Node000002_Node000010"><a xlink:title=" ">
<path fill="none" stroke="#63b8ff" d="M395.74,-384.74C384.72,-359.09 352.38,-283.78 337.35,-248.78"/>
<polygon fill="#63b8ff" stroke="#63b8ff" points="340.44,-247.11 333.28,-239.31 334.01,-249.88 340.44,-247.11"/>
</a>
</g>
</g>
<!-- Node14 -->
<g id="Node000014" class="node">
<title>Node14</title>
<g id="a_Node000014"><a xlink:href="lora_8h.html" target="_top" xlink:title="File that handles the LoRa radio and PJON.">
<polygon fill="white" stroke="#666666" points="351.5,-349 307.5,-349 307.5,-330 351.5,-330 351.5,-349"/>
<text text-anchor="middle" x="329.5" y="-337" font-family="Helvetica,sans-Serif" font-size="10.00">lora.h</text>
</a>
</g>
</g>
<!-- Node2&#45;&gt;Node14 -->
<g id="edge18_Node000002_Node000014" class="edge">
<title>Node2&#45;&gt;Node14</title>
<g id="a_edge18_Node000002_Node000014"><a xlink:title=" ">
<path fill="none" stroke="#63b8ff" d="M383.14,-384.98C371.06,-377.15 355.11,-365.34 343.6,-355.86"/>
<polygon fill="#63b8ff" stroke="#63b8ff" points="345.67,-353.03 335.8,-349.17 341.11,-358.34 345.67,-353.03"/>
</a>
</g>
</g>
<!-- Node4 -->
<g id="Node000004" class="node">
<title>Node4</title>
<g id="a_Node000004"><a xlink:title=" ">
<polygon fill="#e0e0e0" stroke="#999999" points="467,-19 404,-19 404,0 467,0 467,-19"/>
<text text-anchor="middle" x="435.5" y="-7" font-family="Helvetica,sans-Serif" font-size="10.00">Arduino.h</text>
</a>
</g>
</g>
<!-- Node3&#45;&gt;Node4 -->
<g id="edge3_Node000003_Node000004" class="edge">
<title>Node3&#45;&gt;Node4</title>
<g id="a_edge3_Node000003_Node000004"><a xlink:title=" ">
<path fill="none" stroke="#63b8ff" d="M336.46,-54.98C355.53,-46.42 385.16,-33.11 407.05,-23.28"/>
<polygon fill="#63b8ff" stroke="#63b8ff" points="408.51,-26.46 416.2,-19.17 405.64,-20.07 408.51,-26.46"/>
</a>
</g>
</g>
<!-- Node5 -->
<g id="Node000005" class="node">
<title>Node5</title>
<g id="a_Node000005"><a xlink:title=" ">
<polygon fill="#e0e0e0" stroke="#999999" points="47,-19 0,-19 0,0 47,0 47,-19"/>
<text text-anchor="middle" x="23.5" y="-7" font-family="Helvetica,sans-Serif" font-size="10.00">WiFi.h</text>
</a>
</g>
</g>
<!-- Node3&#45;&gt;Node5 -->
<g id="edge4_Node000003_Node000005" class="edge">
<title>Node3&#45;&gt;Node5</title>
<g id="a_edge4_Node000003_Node000005"><a xlink:title=" ">
<path fill="none" stroke="#63b8ff" d="M282.28,-58.45C233.84,-51.29 143.75,-37.24 57.22,-18.99"/>
<polygon fill="#63b8ff" stroke="#63b8ff" points="57.75,-15.53 47.24,-16.87 56.29,-22.37 57.75,-15.53"/>
</a>
</g>
</g>
<!-- Node6 -->
<g id="Node000006" class="node">
<title>Node6</title>
<g id="a_Node000006"><a xlink:title=" ">
<polygon fill="#e0e0e0" stroke="#999999" points="155.5,-19 65.5,-19 65.5,0 155.5,0 155.5,-19"/>
<text text-anchor="middle" x="110.5" y="-7" font-family="Helvetica,sans-Serif" font-size="10.00">PubSubClient.h</text>
</a>
</g>
</g>
<!-- Node3&#45;&gt;Node6 -->
<g id="edge5_Node000003_Node000006" class="edge">
<title>Node3&#45;&gt;Node6</title>
<g id="a_edge5_Node000003_Node000006"><a xlink:title=" ">
<path fill="none" stroke="#63b8ff" d="M284.24,-54.98C248.89,-45.93 192.83,-31.58 153.99,-21.64"/>
<polygon fill="#63b8ff" stroke="#63b8ff" points="154.57,-18.17 144.02,-19.08 152.84,-24.95 154.57,-18.17"/>
</a>
</g>
</g>
<!-- Node7 -->
<g id="Node000007" class="node">
<title>Node7</title>
<g id="a_Node000007"><a xlink:title=" ">
<polygon fill="#e0e0e0" stroke="#999999" points="257,-19 174,-19 174,0 257,0 257,-19"/>
<text text-anchor="middle" x="215.5" y="-7" font-family="Helvetica,sans-Serif" font-size="10.00">ArduinoJson.h</text>
</a>
</g>
</g>
<!-- Node3&#45;&gt;Node7 -->
<g id="edge6_Node000003_Node000007" class="edge">
<title>Node3&#45;&gt;Node7</title>
<g id="a_edge6_Node000003_Node000007"><a xlink:title=" ">
<path fill="none" stroke="#63b8ff" d="M301.11,-54.98C284.93,-46.57 259.93,-33.59 241.12,-23.81"/>
<polygon fill="#63b8ff" stroke="#63b8ff" points="242.67,-20.68 232.19,-19.17 239.45,-26.89 242.67,-20.68"/>
</a>
</g>
</g>
<!-- Node8 -->
<g id="Node000008" class="node">
<title>Node8</title>
<g id="a_Node000008"><a xlink:title=" ">
<polygon fill="#e0e0e0" stroke="#999999" points="385.5,-19 275.5,-19 275.5,0 385.5,0 385.5,-19"/>
<text text-anchor="middle" x="330.5" y="-7" font-family="Helvetica,sans-Serif" font-size="10.00">PJONThroughLora.h</text>
</a>
</g>
</g>
<!-- Node3&#45;&gt;Node8 -->
<g id="edge7_Node000003_Node000008" class="edge">
<title>Node3&#45;&gt;Node8</title>
<g id="a_edge7_Node000003_Node000008"><a xlink:title=" ">
<path fill="none" stroke="#63b8ff" d="M319.65,-54.75C321.37,-47.72 323.85,-37.62 326,-28.84"/>
<polygon fill="#63b8ff" stroke="#63b8ff" points="329.41,-29.63 328.39,-19.09 322.61,-27.97 329.41,-29.63"/>
</a>
</g>
</g>
<!-- Node9 -->
<g id="Node000009" class="node">
<title>Node9</title>
<g id="a_Node000009"><a xlink:href="topics_8h.html" target="_top" xlink:title="MQTT topics for a thingsboard gateway.">
<polygon fill="white" stroke="#666666" points="557.5,-19 485.5,-19 485.5,0 557.5,0 557.5,-19"/>
<text text-anchor="middle" x="521.5" y="-7" font-family="Helvetica,sans-Serif" font-size="10.00">src/topics.h</text>
</a>
</g>
</g>
<!-- Node3&#45;&gt;Node9 -->
<g id="edge8_Node000003_Node000009" class="edge">
<title>Node3&#45;&gt;Node9</title>
<g id="a_edge8_Node000003_Node000009"><a xlink:title=" ">
<path fill="none" stroke="#63b8ff" d="M350.28,-54.98C385.12,-45.93 440.37,-31.58 478.64,-21.64"/>
<polygon fill="#63b8ff" stroke="#63b8ff" points="479.67,-24.98 488.47,-19.08 477.91,-18.21 479.67,-24.98"/>
</a>
</g>
</g>
<!-- Node10&#45;&gt;Node3 -->
<g id="edge10_Node000010_Node000003" class="edge">
<title>Node10&#45;&gt;Node3</title>
<g id="a_edge10_Node000010_Node000003"><a xlink:title=" ">
<path fill="none" stroke="#63b8ff" d="M319.62,-219.75C311.11,-211.5 299.45,-198.3 294.5,-184 282.5,-149.33 297.67,-106.65 308.46,-83.14"/>
<polygon fill="#63b8ff" stroke="#63b8ff" points="311.66,-84.57 312.86,-74.05 305.36,-81.52 311.66,-84.57"/>
</a>
</g>
</g>
<!-- Node11 -->
<g id="Node000011" class="node">
<title>Node11</title>
<g id="a_Node000011"><a xlink:href="lookups_8h.html" target="_top" xlink:title="Lookupable and lookupable manager base classes.">
<polygon fill="white" stroke="#666666" points="239,-129 176,-129 176,-110 239,-110 239,-129"/>
<text text-anchor="middle" x="207.5" y="-117" font-family="Helvetica,sans-Serif" font-size="10.00">lookups.h</text>
</a>
</g>
</g>
<!-- Node10&#45;&gt;Node11 -->
<g id="edge11_Node000010_Node000011" class="edge">
<title>Node10&#45;&gt;Node11</title>
<g id="a_edge11_Node000010_Node000011"><a xlink:title=" ">
<path fill="none" stroke="#63b8ff" d="M309.94,-219.86C293.66,-212.04 270.49,-199.41 253.5,-184 238.73,-170.6 225.81,-151.75 217.45,-138.07"/>
<polygon fill="#63b8ff" stroke="#63b8ff" points="220.3,-136.02 212.21,-129.18 214.27,-139.57 220.3,-136.02"/>
</a>
</g>
</g>
<!-- Node12 -->
<g id="Node000012" class="node">
<title>Node12</title>
<g id="a_Node000012"><a xlink:href="fields_8h.html" target="_top" xlink:title="Contains fields classes.">
<polygon fill="white" stroke="#666666" points="355.5,-184 303.5,-184 303.5,-165 355.5,-165 355.5,-184"/>
<text text-anchor="middle" x="329.5" y="-172" font-family="Helvetica,sans-Serif" font-size="10.00">fields.h</text>
</a>
</g>
</g>
<!-- Node10&#45;&gt;Node12 -->
<g id="edge13_Node000010_Node000012" class="edge">
<title>Node10&#45;&gt;Node12</title>
<g id="a_edge13_Node000010_Node000012"><a xlink:title=" ">
<path fill="none" stroke="#63b8ff" d="M329.5,-219.75C329.5,-212.8 329.5,-202.85 329.5,-194.13"/>
<polygon fill="#63b8ff" stroke="#63b8ff" points="333,-194.09 329.5,-184.09 326,-194.09 333,-194.09"/>
</a>
</g>
</g>
<!-- Node11&#45;&gt;Node3 -->
<g id="edge12_Node000011_Node000003" class="edge">
<title>Node11&#45;&gt;Node3</title>
<g id="a_edge12_Node000011_Node000003"><a xlink:title=" ">
<path fill="none" stroke="#63b8ff" d="M225.17,-109.98C242.79,-101.5 270.08,-88.35 290.43,-78.54"/>
<polygon fill="#63b8ff" stroke="#63b8ff" points="292.02,-81.66 299.51,-74.17 288.98,-75.36 292.02,-81.66"/>
</a>
</g>
</g>
<!-- Node12&#45;&gt;Node3 -->
<g id="edge14_Node000012_Node000003" class="edge">
<title>Node12&#45;&gt;Node3</title>
<g id="a_edge14_Node000012_Node000003"><a xlink:title=" ">
<path fill="none" stroke="#63b8ff" d="M328.54,-164.97C327.53,-156.01 325.89,-141.52 324.5,-129 322.83,-113.98 320.95,-96.95 319.56,-84.32"/>
<polygon fill="#63b8ff" stroke="#63b8ff" points="323.02,-83.69 318.45,-74.13 316.06,-84.45 323.02,-83.69"/>
</a>
</g>
</g>
<!-- Node12&#45;&gt;Node11 -->
<g id="edge15_Node000012_Node000011" class="edge">
<title>Node12&#45;&gt;Node11</title>
<g id="a_edge15_Node000012_Node000011"><a xlink:title=" ">
<path fill="none" stroke="#63b8ff" d="M309.9,-164.98C290.18,-156.42 259.55,-143.11 236.92,-133.28"/>
<polygon fill="#63b8ff" stroke="#63b8ff" points="238.02,-129.94 227.46,-129.17 235.24,-136.37 238.02,-129.94"/>
</a>
</g>
</g>
<!-- Node13 -->
<g id="Node000013" class="node">
<title>Node13</title>
<g id="a_Node000013"><a xlink:href="conversions_8h.html" target="_top" xlink:title="General functions for converting to and from char arrays.">
<polygon fill="white" stroke="#666666" points="417.5,-129 333.5,-129 333.5,-110 417.5,-110 417.5,-129"/>
<text text-anchor="middle" x="375.5" y="-117" font-family="Helvetica,sans-Serif" font-size="10.00">conversions.h</text>
</a>
</g>
</g>
<!-- Node12&#45;&gt;Node13 -->
<g id="edge16_Node000012_Node000013" class="edge">
<title>Node12&#45;&gt;Node13</title>
<g id="a_edge16_Node000012_Node000013"><a xlink:title=" ">
<path fill="none" stroke="#63b8ff" d="M337.1,-164.75C343.66,-157.18 353.32,-146.05 361.31,-136.84"/>
<polygon fill="#63b8ff" stroke="#63b8ff" points="364.13,-138.94 368.05,-129.09 358.85,-134.35 364.13,-138.94"/>
</a>
</g>
</g>
<!-- Node13&#45;&gt;Node3 -->
<g id="edge17_Node000013_Node000003" class="edge">
<title>Node13&#45;&gt;Node3</title>
<g id="a_edge17_Node000013_Node000003"><a xlink:title=" ">
<path fill="none" stroke="#63b8ff" d="M366.18,-109.98C357.69,-102.23 344.94,-90.58 334.62,-81.14"/>
<polygon fill="#63b8ff" stroke="#63b8ff" points="336.73,-78.33 326.99,-74.17 332.01,-83.5 336.73,-78.33"/>
</a>
</g>
</g>
<!-- Node14&#45;&gt;Node2 -->
<g id="edge22_Node000014_Node000002" class="edge">
<title>Node14&#45;&gt;Node2</title>
<g id="a_edge22_Node000014_Node000002"><a xlink:title=" ">
<path fill="none" stroke="#63b8ff" d="M346.1,-349.17C358.23,-357.06 374.17,-368.87 385.63,-378.32"/>
<polygon fill="#63b8ff" stroke="#63b8ff" points="383.5,-381.12 393.37,-384.98 388.07,-375.81 383.5,-381.12"/>
</a>
</g>
</g>
<!-- Node14&#45;&gt;Node3 -->
<g id="edge19_Node000014_Node000003" class="edge">
<title>Node14&#45;&gt;Node3</title>
<g id="a_edge19_Node000014_Node000003"><a xlink:title=" ">
<path fill="none" stroke="#63b8ff" d="M307.18,-335.81C258.58,-328.57 147.5,-303.98 147.5,-230.5 147.5,-230.5 147.5,-230.5 147.5,-173.5 147.5,-144.04 145.63,-130.79 166.5,-110 194.49,-82.12 239.01,-71.54 272.48,-67.61"/>
<polygon fill="#63b8ff" stroke="#63b8ff" points="272.88,-71.09 282.47,-66.59 272.17,-64.12 272.88,-71.09"/>
</a>
</g>
</g>
<!-- Node14&#45;&gt;Node10 -->
<g id="edge21_Node000014_Node000010" class="edge">
<title>Node14&#45;&gt;Node10</title>
<g id="a_edge21_Node000014_Node000010"><a xlink:title=" ">
<path fill="none" stroke="#63b8ff" d="M329.5,-329.66C329.5,-312.17 329.5,-272.8 329.5,-249.27"/>
<polygon fill="#63b8ff" stroke="#63b8ff" points="333,-249.16 329.5,-239.16 326,-249.16 333,-249.16"/>
</a>
</g>
</g>
<!-- Node14&#45;&gt;Node11 -->
<g id="edge20_Node000014_Node000011" class="edge">
<title>Node14&#45;&gt;Node11</title>
<g id="a_edge20_Node000014_Node000011"><a xlink:title=" ">
<path fill="none" stroke="#63b8ff" d="M323.21,-329.79C306.8,-306.79 261.92,-242.23 232.5,-184 225.07,-169.29 218.34,-151.83 213.73,-138.94"/>
<polygon fill="#63b8ff" stroke="#63b8ff" points="216.99,-137.65 210.4,-129.35 210.38,-139.95 216.99,-137.65"/>
</a>
</g>
</g>
<!-- Node14&#45;&gt;Node15 -->
<g id="edge23_Node000014_Node000015" class="edge">
<title>Node14&#45;&gt;Node15</title>
<g id="a_edge23_Node000014_Node000015"><a xlink:title=" ">
<path fill="none" stroke="#63b8ff" d="M345.41,-329.98C361.05,-321.61 385.16,-308.7 403.38,-298.95"/>
<polygon fill="#63b8ff" stroke="#63b8ff" points="405.14,-301.98 412.3,-294.17 401.84,-295.8 405.14,-301.98"/>
</a>
</g>
</g>
<!-- Node15&#45;&gt;Node2 -->
<g id="edge30_Node000015_Node000002" class="edge">
<title>Node15&#45;&gt;Node2</title>
<g id="a_edge30_Node000015_Node000002"><a xlink:title=" ">
<path fill="none" stroke="#63b8ff" d="M426.18,-294.16C421.5,-311.58 410.86,-351.2 404.52,-374.8"/>
<polygon fill="#63b8ff" stroke="#63b8ff" points="401.09,-374.1 401.87,-384.66 407.85,-375.91 401.09,-374.1"/>
</a>
</g>
</g>
<!-- Node15&#45;&gt;Node3 -->
<g id="edge24_Node000015_Node000003" class="edge">
<title>Node15&#45;&gt;Node3</title>
<g id="a_edge24_Node000015_Node000003"><a xlink:title=" ">
<path fill="none" stroke="#63b8ff" d="M432.73,-275C440.84,-258.14 458.35,-219.1 464.5,-184 470.4,-150.33 467.98,-133.87 443.5,-110 421.7,-88.75 389.14,-77.59 362.58,-71.76"/>
<polygon fill="#63b8ff" stroke="#63b8ff" points="363.22,-68.32 352.73,-69.78 361.84,-75.18 363.22,-68.32"/>
</a>
</g>
</g>
<!-- Node15&#45;&gt;Node9 -->
<g id="edge25_Node000015_Node000009" class="edge">
<title>Node15&#45;&gt;Node9</title>
<g id="a_edge25_Node000015_Node000009"><a xlink:title=" ">
<path fill="none" stroke="#63b8ff" d="M444.28,-274.79C470.81,-258.85 521.5,-222.27 521.5,-175.5 521.5,-175.5 521.5,-175.5 521.5,-118.5 521.5,-87.19 521.5,-50.77 521.5,-29.23"/>
<polygon fill="#63b8ff" stroke="#63b8ff" points="525,-29.18 521.5,-19.18 518,-29.18 525,-29.18"/>
</a>
</g>
</g>
<!-- Node15&#45;&gt;Node10 -->
<g id="edge28_Node000015_Node000010" class="edge">
<title>Node15&#45;&gt;Node10</title>
<g id="a_edge28_Node000015_Node000010"><a xlink:title=" ">
<path fill="none" stroke="#63b8ff" d="M412.59,-274.98C396.95,-266.61 372.84,-253.7 354.62,-243.95"/>
<polygon fill="#63b8ff" stroke="#63b8ff" points="356.16,-240.8 345.7,-239.17 352.86,-246.98 356.16,-240.8"/>
</a>
</g>
</g>
<!-- Node15&#45;&gt;Node12 -->
<g id="edge29_Node000015_Node000012" class="edge">
<title>Node15&#45;&gt;Node12</title>
<g id="a_edge29_Node000015_Node000012"><a xlink:title=" ">
<path fill="none" stroke="#63b8ff" d="M420.4,-274.66C403.78,-256.54 365.63,-214.91 344.41,-191.77"/>
<polygon fill="#63b8ff" stroke="#63b8ff" points="346.77,-189.16 337.44,-184.16 341.61,-193.89 346.77,-189.16"/>
</a>
</g>
</g>
<!-- Node16 -->
<g id="Node000016" class="node">
<title>Node16</title>
<g id="a_Node000016"><a xlink:href="alarm_8h.html" target="_top" xlink:title="Handles alarms.">
<polygon fill="white" stroke="#666666" points="455.5,-184 401.5,-184 401.5,-165 455.5,-165 455.5,-184"/>
<text text-anchor="middle" x="428.5" y="-172" font-family="Helvetica,sans-Serif" font-size="10.00">alarm.h</text>
</a>
</g>
</g>
<!-- Node15&#45;&gt;Node16 -->
<g id="edge26_Node000015_Node000016" class="edge">
<title>Node15&#45;&gt;Node16</title>
<g id="a_edge26_Node000015_Node000016"><a xlink:title=" ">
<path fill="none" stroke="#63b8ff" d="M428.5,-274.66C428.5,-257.17 428.5,-217.8 428.5,-194.27"/>
<polygon fill="#63b8ff" stroke="#63b8ff" points="432,-194.16 428.5,-184.16 425,-194.16 432,-194.16"/>
</a>
</g>
</g>
<!-- Node16&#45;&gt;Node3 -->
<g id="edge27_Node000016_Node000003" class="edge">
<title>Node16&#45;&gt;Node3</title>
<g id="a_edge27_Node000016_Node000003"><a xlink:title=" ">
<path fill="none" stroke="#63b8ff" d="M430.97,-164.78C434.13,-151.62 437.96,-126.48 426.5,-110 411.97,-89.09 385.77,-77.99 362.7,-72.11"/>
<polygon fill="#63b8ff" stroke="#63b8ff" points="363.24,-68.64 352.71,-69.83 361.68,-75.47 363.24,-68.64"/>
</a>
</g>
</g>
</g>
</svg>
