<?xml version="1.0" encoding="UTF-8" standalone="no"?>
<!DOCTYPE svg PUBLIC "-//W3C//DTD SVG 1.1//EN"
 "http://www.w3.org/Graphics/SVG/1.1/DTD/svg11.dtd">
<!-- Generated by graphviz version 2.43.0 (0)
 -->
<!-- Title: ESP32BaseStation/src/networking.h Pages: 1 -->
<svg width="500pt" height="240pt"
 viewBox="0.00 0.00 500.00 240.00" xmlns="http://www.w3.org/2000/svg" xmlns:xlink="http://www.w3.org/1999/xlink">
<g id="graph0" class="graph" transform="scale(1 1) rotate(0) translate(4 236)">
<title>ESP32BaseStation/src/networking.h</title>
<polygon fill="white" stroke="transparent" points="-4,4 -4,-236 496,-236 496,4 -4,4"/>
<!-- Node1 -->
<g id="node1" class="node">
<title>Node1</title>
<g id="a_node1"><a xlink:title="Header file for networking.cpp.">
<polygon fill="#bfbfbf" stroke="black" points="141,-201.5 141,-231.5 263,-231.5 263,-201.5 141,-201.5"/>
<text text-anchor="start" x="149" y="-219.5" font-family="Helvetica,sans-Serif" font-size="10.00">ESP32BaseStation/src</text>
<text text-anchor="middle" x="202" y="-208.5" font-family="Helvetica,sans-Serif" font-size="10.00">/networking.h</text>
</a>
</g>
</g>
<!-- Node2 -->
<g id="node2" class="node">
<title>Node2</title>
<g id="a_node2"><a xlink:href="_e_s_p32_base_station_8ino.html" target="_top" xlink:title="Main file for a base station to connect to remote sensors on a farm.">
<polygon fill="white" stroke="black" points="140,-0.5 140,-30.5 302,-30.5 302,-0.5 140,-0.5"/>
<text text-anchor="start" x="148" y="-18.5" font-family="Helvetica,sans-Serif" font-size="10.00">ESP32BaseStation/ESP32Base</text>
<text text-anchor="middle" x="221" y="-7.5" font-family="Helvetica,sans-Serif" font-size="10.00">Station.ino</text>
</a>
</g>
</g>
<!-- Node1&#45;&gt;Node2 -->
<g id="edge1" class="edge">
<title>Node1&#45;&gt;Node2</title>
<path fill="none" stroke="midnightblue" d="M204.34,-191C208.36,-148.93 216.44,-64.26 219.65,-30.68"/>
<polygon fill="midnightblue" stroke="midnightblue" points="200.83,-190.9 203.37,-201.19 207.8,-191.57 200.83,-190.9"/>
</g>
<!-- Node3 -->
<g id="node3" class="node">
<title>Node3</title>
<g id="a_node3"><a xlink:href="lora_8h.html" target="_top" xlink:title="File that handles the LoRa radio and PJON.">
<polygon fill="white" stroke="black" points="52,-67.5 52,-97.5 174,-97.5 174,-67.5 52,-67.5"/>
<text text-anchor="start" x="60" y="-85.5" font-family="Helvetica,sans-Serif" font-size="10.00">ESP32BaseStation/src</text>
<text text-anchor="middle" x="113" y="-74.5" font-family="Helvetica,sans-Serif" font-size="10.00">/lora.h</text>
</a>
</g>
</g>
<!-- Node1&#45;&gt;Node3 -->
<g id="edge2" class="edge">
<title>Node1&#45;&gt;Node3</title>
<path fill="none" stroke="midnightblue" d="M181.75,-193.19C161.01,-165.86 130.64,-120.38 118.1,-97.52"/>
<polygon fill="midnightblue" stroke="midnightblue" points="179.21,-195.62 188.11,-201.37 184.73,-191.33 179.21,-195.62"/>
</g>
<!-- Node5 -->
<g id="node5" class="node">
<title>Node5</title>
<g id="a_node5"><a xlink:href="networking_8cpp.html" target="_top" xlink:title="File that handles connecting to WiFi and MQTT and staying connected.">
<polygon fill="white" stroke="black" points="370,-134.5 370,-164.5 492,-164.5 492,-134.5 370,-134.5"/>
<text text-anchor="start" x="378" y="-152.5" font-family="Helvetica,sans-Serif" font-size="10.00">ESP32BaseStation/src</text>
<text text-anchor="middle" x="431" y="-141.5" font-family="Helvetica,sans-Serif" font-size="10.00">/networking.cpp</text>
</a>
</g>
</g>
<!-- Node1&#45;&gt;Node5 -->
<g id="edge6" class="edge">
<title>Node1&#45;&gt;Node5</title>
<path fill="none" stroke="midnightblue" d="M261.14,-198.71C298.4,-188.14 345.97,-174.63 381.29,-164.61"/>
<polygon fill="midnightblue" stroke="midnightblue" points="260.07,-195.38 251.41,-201.48 261.98,-202.11 260.07,-195.38"/>
</g>
<!-- Node6 -->
<g id="node6" class="node">
<title>Node6</title>
<g id="a_node6"><a xlink:href="rpc_8h.html" target="_top" xlink:title="Handles RPC calls.">
<polygon fill="white" stroke="black" points="230,-134.5 230,-164.5 352,-164.5 352,-134.5 230,-134.5"/>
<text text-anchor="start" x="238" y="-152.5" font-family="Helvetica,sans-Serif" font-size="10.00">ESP32BaseStation/src</text>
<text text-anchor="middle" x="291" y="-141.5" font-family="Helvetica,sans-Serif" font-size="10.00">/rpc.h</text>
</a>
</g>
</g>
<!-- Node1&#45;&gt;Node6 -->
<g id="edge7" class="edge">
<title>Node1&#45;&gt;Node6</title>
<path fill="none" stroke="midnightblue" d="M229.45,-195.45C243.14,-185.45 259.37,-173.6 271.73,-164.58"/>
<polygon fill="midnightblue" stroke="midnightblue" points="227.32,-192.67 221.31,-201.4 231.45,-198.32 227.32,-192.67"/>
</g>
<!-- Node3&#45;&gt;Node1 -->
<g id="edge5" class="edge">
<title>Node3&#45;&gt;Node1</title>
<path fill="none" stroke="midnightblue" d="M133.16,-105.69C153.87,-132.97 184.26,-178.45 196.85,-201.37"/>
<polygon fill="midnightblue" stroke="midnightblue" points="135.71,-103.27 126.81,-97.52 130.19,-107.57 135.71,-103.27"/>
</g>
<!-- Node3&#45;&gt;Node2 -->
<g id="edge3" class="edge">
<title>Node3&#45;&gt;Node2</title>
<path fill="none" stroke="midnightblue" d="M145.37,-62.02C162.18,-51.9 182.34,-39.77 197.61,-30.58"/>
<polygon fill="midnightblue" stroke="midnightblue" points="143.2,-59.24 136.43,-67.4 146.81,-65.24 143.2,-59.24"/>
</g>
<!-- Node4 -->
<g id="node4" class="node">
<title>Node4</title>
<g id="a_node4"><a xlink:href="lora_8cpp.html" target="_top" xlink:title="File that handles the LoRa radio and PJON.">
<polygon fill="white" stroke="black" points="0,-0.5 0,-30.5 122,-30.5 122,-0.5 0,-0.5"/>
<text text-anchor="start" x="8" y="-18.5" font-family="Helvetica,sans-Serif" font-size="10.00">ESP32BaseStation/src</text>
<text text-anchor="middle" x="61" y="-7.5" font-family="Helvetica,sans-Serif" font-size="10.00">/lora.cpp</text>
</a>
</g>
</g>
<!-- Node3&#45;&gt;Node4 -->
<g id="edge4" class="edge">
<title>Node3&#45;&gt;Node4</title>
<path fill="none" stroke="midnightblue" d="M95.36,-59.45C87.72,-49.9 79,-39 72.26,-30.58"/>
<polygon fill="midnightblue" stroke="midnightblue" points="92.74,-61.77 101.72,-67.4 98.2,-57.4 92.74,-61.77"/>
</g>
<!-- Node6&#45;&gt;Node2 -->
<g id="edge8" class="edge">
<title>Node6&#45;&gt;Node2</title>
<path fill="none" stroke="midnightblue" d="M275.6,-125.58C270.11,-117.06 264.05,-107.23 259,-98 246.41,-74.99 233.98,-47.08 226.92,-30.61"/>
<polygon fill="midnightblue" stroke="midnightblue" points="272.85,-127.76 281.25,-134.21 278.7,-123.93 272.85,-127.76"/>
</g>
<!-- Node6&#45;&gt;Node3 -->
<g id="edge9" class="edge">
<title>Node6&#45;&gt;Node3</title>
<path fill="none" stroke="midnightblue" d="M242.95,-130.96C214.28,-120.48 178.36,-107.37 151.55,-97.58"/>
<polygon fill="midnightblue" stroke="midnightblue" points="241.78,-134.25 252.38,-134.4 244.18,-127.68 241.78,-134.25"/>
</g>
<!-- Node7 -->
<g id="node7" class="node">
<title>Node7</title>
<g id="a_node7"><a xlink:href="rpc_8cpp.html" target="_top" xlink:title="Handles RPC calls.">
<polygon fill="white" stroke="black" points="268,-67.5 268,-97.5 390,-97.5 390,-67.5 268,-67.5"/>
<text text-anchor="start" x="276" y="-85.5" font-family="Helvetica,sans-Serif" font-size="10.00">ESP32BaseStation/src</text>
<text text-anchor="middle" x="329" y="-74.5" font-family="Helvetica,sans-Serif" font-size="10.00">/rpc.cpp</text>
</a>
</g>
</g>
<!-- Node6&#45;&gt;Node7 -->
<g id="edge10" class="edge">
<title>Node6&#45;&gt;Node7</title>
<path fill="none" stroke="midnightblue" d="M304.4,-125.58C309.86,-116.24 315.99,-105.75 320.77,-97.58"/>
<polygon fill="midnightblue" stroke="midnightblue" points="301.27,-124 299.25,-134.4 307.31,-127.53 301.27,-124"/>
</g>
</g>
</svg>
