<?xml version="1.0" encoding="UTF-8" standalone="no"?>
<!DOCTYPE svg PUBLIC "-//W3C//DTD SVG 1.1//EN"
 "http://www.w3.org/Graphics/SVG/1.1/DTD/svg11.dtd">
<!-- Generated by graphviz version 2.43.0 (0)
 -->
<!-- Title: mqttConnect Pages: 1 -->
<!--zoomable 212 -->

<svg id="main" version="1.1" xmlns="http://www.w3.org/2000/svg" xmlns:xlink="http://www.w3.org/1999/xlink" xml:space="preserve" onload="init(evt)">
<style type="text/css"><![CDATA[
.node, .edge {opacity: 0.7;}
.node.selected, .edge.selected {opacity: 1;}
.edge:hover path { stroke: red; }
.edge:hover polygon { stroke: red; fill: red; }
]]></style>

<defs>
  <circle id="rim" cx="0" cy="0" r="7"/>
  <circle id="rim2" cx="0" cy="0" r="3.5"/>
  <g id="zoomPlus">
    <use xlink:href="#rim" fill="#404040"><set attributeName="fill" to="#808080" begin="zoomplus.mouseover" end="zoomplus.mouseout"/></use>
    <path d="M-4,0h8M0,-4v8" fill="none" stroke="white" stroke-width="1.5" pointer-events="none"/>
  </g>
  <g id="zoomMin">
    <use xlink:href="#rim" fill="#404040"><set attributeName="fill" to="#808080" begin="zoomminus.mouseover" end="zoomminus.mouseout"/></use>
    <path d="M-4,0h8" fill="none" stroke="white" stroke-width="1.5" pointer-events="none"/>
  </g>
  <g id="arrowUp" transform="translate(30 24)">
    <use xlink:href="#rim"/>
    <path pointer-events="none" fill="none" stroke="white" stroke-width="1.5" d="M0,-3.0v7 M-2.5,-0.5L0,-3.0L2.5,-0.5"/>
  </g>
  <g id="arrowRight" transform="rotate(90) translate(36 -43)">
    <use xlink:href="#rim"/>
    <path pointer-events="none" fill="none" stroke="white" stroke-width="1.5" d="M0,-3.0v7 M-2.5,-0.5L0,-3.0L2.5,-0.5"/>
  </g>
  <g id="arrowDown" transform="rotate(180) translate(-30 -48)">
    <use xlink:href="#rim"/>
    <path pointer-events="none" fill="none" stroke="white" stroke-width="1.5" d="M0,-3.0v7 M-2.5,-0.5L0,-3.0L2.5,-0.5"/>
  </g>
  <g id="arrowLeft" transform="rotate(270) translate(-36 17)">
    <use xlink:href="#rim"/>
    <path pointer-events="none" fill="none" stroke="white" stroke-width="1.5" d="M0,-3.0v7 M-2.5,-0.5L0,-3.0L2.5,-0.5"/>
  </g>
  <g id="resetDef">
    <use xlink:href="#rim2" fill="#404040"><set attributeName="fill" to="#808080" begin="reset.mouseover" end="reset.mouseout"/></use>
  </g>
</defs>
<script type="application/ecmascript">
var viewWidth = 646;
var viewHeight = 212;
var sectionId = 'dynsection-2';
</script>
<script type="application/ecmascript" xlink:href="svg.min.js"/>
<svg id="graph" class="graph">
<g id="viewport">
<title>mqttConnect</title>
<!-- Node1 -->
<g id="Node000001" class="node">
<title>Node1</title>
<g id="a_Node000001"><a xlink:title="Connects to the MQTT broker.">
<polygon fill="#999999" stroke="#666666" points="80,-93 0,-93 0,-74 80,-74 80,-93"/>
<text text-anchor="middle" x="40" y="-81" font-family="Helvetica,sans-Serif" font-size="10.00">mqttConnect</text>
</a>
</g>
</g>
<!-- Node2 -->
<g id="Node000002" class="node">
<title>Node2</title>
<g id="a_Node000002"><a xlink:href="class_device_manager.html#ac06f3334d0776ed6fd7fd0f71248d6b3" target="_top" xlink:title="Registers each device to Thingsboard over MQTT.">
<polygon fill="white" stroke="#666666" points="292,-167 116,-167 116,-148 292,-148 292,-167"/>
<text text-anchor="middle" x="204" y="-155" font-family="Helvetica,sans-Serif" font-size="10.00">DeviceManager::connectDevices</text>
</a>
</g>
</g>
<!-- Node1&#45;&gt;Node2 -->
<g id="edge1_Node000001_Node000002" class="edge">
<title>Node1&#45;&gt;Node2</title>
<g id="a_edge1_Node000001_Node000002"><a xlink:title=" ">
<path fill="none" stroke="#63b8ff" d="M50.75,-93.05C64.25,-105.7 89.92,-127.77 116,-139.5 120.63,-141.58 125.51,-143.43 130.49,-145.06"/>
<polygon fill="#63b8ff" stroke="#63b8ff" points="129.58,-148.44 140.17,-147.95 131.59,-141.73 129.58,-148.44"/>
</a>
</g>
</g>
<!-- Node3 -->
<g id="Node000003" class="node">
<title>Node3</title>
<g id="a_Node000003"><a xlink:href="rpc_8cpp.html#a91d98374ed6fc205a7a2c9e2ef00dd97" target="_top" xlink:title=" ">
<polygon fill="white" stroke="#666666" points="246.5,-130 161.5,-130 161.5,-111 246.5,-111 246.5,-130"/>
<text text-anchor="middle" x="204" y="-118" font-family="Helvetica,sans-Serif" font-size="10.00">mqttReceived</text>
</a>
</g>
</g>
<!-- Node1&#45;&gt;Node3 -->
<g id="edge2_Node000001_Node000003" class="edge">
<title>Node1&#45;&gt;Node3</title>
<g id="a_edge2_Node000001_Node000003"><a xlink:title=" ">
<path fill="none" stroke="#63b8ff" d="M77.16,-93C89.46,-96.14 103.3,-99.58 116,-102.5 127.39,-105.12 139.67,-107.77 151.3,-110.19"/>
<polygon fill="#63b8ff" stroke="#63b8ff" points="150.82,-113.67 161.32,-112.27 152.24,-106.81 150.82,-113.67"/>
</a>
</g>
</g>
<!-- Node10 -->
<g id="Node000010" class="node">
<title>Node10</title>
<g id="a_Node000010"><a xlink:href="networking_8cpp.html#ab2d5192ed1436350b19a2a4ccb2053c3" target="_top" xlink:title="Subscribes to the required topics.">
<polygon fill="white" stroke="#666666" points="238,-93 170,-93 170,-74 238,-74 238,-93"/>
<text text-anchor="middle" x="204" y="-81" font-family="Helvetica,sans-Serif" font-size="10.00">mqttSetup</text>
</a>
</g>
</g>
<!-- Node1&#45;&gt;Node10 -->
<g id="edge9_Node000001_Node000010" class="edge">
<title>Node1&#45;&gt;Node10</title>
<g id="a_edge9_Node000001_Node000010"><a xlink:title=" ">
<path fill="none" stroke="#63b8ff" d="M80.22,-83.5C104.22,-83.5 134.97,-83.5 159.7,-83.5"/>
<polygon fill="#63b8ff" stroke="#63b8ff" points="159.88,-87 169.88,-83.5 159.88,-80 159.88,-87"/>
</a>
</g>
</g>
<!-- Node11 -->
<g id="Node000011" class="node">
<title>Node11</title>
<g id="a_Node000011"><a xlink:href="rpc_8cpp.html#a966e66eaf82bb85dffba775b5442f3f6" target="_top" xlink:title="Informs thingsboard what software version is running. This does not use a queue as this could be sent...">
<polygon fill="white" stroke="#666666" points="259,-56 149,-56 149,-37 259,-37 259,-56"/>
<text text-anchor="middle" x="204" y="-44" font-family="Helvetica,sans-Serif" font-size="10.00">setVersionAttribute</text>
</a>
</g>
</g>
<!-- Node1&#45;&gt;Node11 -->
<g id="edge10_Node000001_Node000011" class="edge">
<title>Node1&#45;&gt;Node11</title>
<g id="a_edge10_Node000001_Node000011"><a xlink:title=" ">
<path fill="none" stroke="#63b8ff" d="M77.16,-74C89.46,-70.86 103.3,-67.42 116,-64.5 125.37,-62.34 135.34,-60.17 145.05,-58.12"/>
<polygon fill="#63b8ff" stroke="#63b8ff" points="145.98,-61.5 155.05,-56.03 144.55,-54.65 145.98,-61.5"/>
</a>
</g>
</g>
<!-- Node13 -->
<g id="Node000013" class="node">
<title>Node13</title>
<g id="a_Node000013"><a xlink:href="networking_8cpp.html#a23a6f53d5284ae6a9d27420cceeb80c3" target="_top" xlink:title="Connects to WiFi.">
<polygon fill="white" stroke="#666666" points="241,-19 167,-19 167,0 241,0 241,-19"/>
<text text-anchor="middle" x="204" y="-7" font-family="Helvetica,sans-Serif" font-size="10.00">wifiConnect</text>
</a>
</g>
</g>
<!-- Node1&#45;&gt;Node13 -->
<g id="edge12_Node000001_Node000013" class="edge">
<title>Node1&#45;&gt;Node13</title>
<g id="a_edge12_Node000001_Node000013"><a xlink:title=" ">
<path fill="none" stroke="#63b8ff" d="M50.75,-73.95C64.25,-61.3 89.92,-39.23 116,-27.5 128.67,-21.8 143.19,-17.89 156.69,-15.2"/>
<polygon fill="#63b8ff" stroke="#63b8ff" points="157.55,-18.6 166.77,-13.38 156.3,-11.72 157.55,-18.6"/>
</a>
</g>
</g>
<!-- Node4 -->
<g id="Node000004" class="node">
<title>Node4</title>
<g id="a_Node000004"><a xlink:href="rpc_8cpp.html#a4cfe66424e5527493ec95bc8ffed5bc7" target="_top" xlink:title="Handles an RPC message addressed to remote devices.">
<polygon fill="white" stroke="#666666" points="419,-167 344,-167 344,-148 419,-148 419,-167"/>
<text text-anchor="middle" x="381.5" y="-155" font-family="Helvetica,sans-Serif" font-size="10.00">rpcGateway</text>
</a>
</g>
</g>
<!-- Node3&#45;&gt;Node4 -->
<g id="edge3_Node000003_Node000004" class="edge">
<title>Node3&#45;&gt;Node4</title>
<g id="a_edge3_Node000003_Node000004"><a xlink:title=" ">
<path fill="none" stroke="#63b8ff" d="M246.59,-129.27C272.84,-134.8 306.78,-141.96 333.93,-147.68"/>
<polygon fill="#63b8ff" stroke="#63b8ff" points="333.46,-151.16 343.97,-149.8 334.91,-144.31 333.46,-151.16"/>
</a>
</g>
</g>
<!-- Node7 -->
<g id="Node000007" class="node">
<title>Node7</title>
<g id="a_Node000007"><a xlink:href="rpc_8cpp.html#ae128ecfe100603224c2fda1ff5f5ce0a" target="_top" xlink:title="Handles an RPC message addressed to this device (not one of the remote devices).">
<polygon fill="white" stroke="#666666" points="405,-130 358,-130 358,-111 405,-111 405,-130"/>
<text text-anchor="middle" x="381.5" y="-118" font-family="Helvetica,sans-Serif" font-size="10.00">rpcMe</text>
</a>
</g>
</g>
<!-- Node3&#45;&gt;Node7 -->
<g id="edge6_Node000003_Node000007" class="edge">
<title>Node3&#45;&gt;Node7</title>
<g id="a_edge6_Node000003_Node000007"><a xlink:title=" ">
<path fill="none" stroke="#63b8ff" d="M246.59,-120.5C277.51,-120.5 319.12,-120.5 347.7,-120.5"/>
<polygon fill="#63b8ff" stroke="#63b8ff" points="347.97,-124 357.97,-120.5 347.97,-117 347.97,-124"/>
</a>
</g>
</g>
<!-- Node9 -->
<g id="Node000009" class="node">
<title>Node9</title>
<g id="a_Node000009"><a xlink:href="rpc_8cpp.html#adfc4d7c2e3b046a5fb41b597ebd9f727" target="_top" xlink:title="Checks if one string starts with another (quicker than strstr?)">
<polygon fill="white" stroke="#666666" points="415,-93 348,-93 348,-74 415,-74 415,-93"/>
<text text-anchor="middle" x="381.5" y="-81" font-family="Helvetica,sans-Serif" font-size="10.00">startsWith</text>
</a>
</g>
</g>
<!-- Node3&#45;&gt;Node9 -->
<g id="edge8_Node000003_Node000009" class="edge">
<title>Node3&#45;&gt;Node9</title>
<g id="a_edge8_Node000003_Node000009"><a xlink:title=" ">
<path fill="none" stroke="#63b8ff" d="M246.61,-111.96C260.99,-108.99 277.21,-105.62 292,-102.5 306.85,-99.37 323.09,-95.9 337.55,-92.79"/>
<polygon fill="#63b8ff" stroke="#63b8ff" points="338.69,-96.12 347.73,-90.6 337.22,-89.28 338.69,-96.12"/>
</a>
</g>
</g>
<!-- Node5 -->
<g id="Node000005" class="node">
<title>Node5</title>
<g id="a_Node000005"><a xlink:href="class_lookup_manager.html#ad0d556a556e0b220629cf198d6f0de1a" target="_top" xlink:title="Gets the object matching the given name.">
<polygon fill="white" stroke="#666666" points="638,-204 471,-204 471,-185 638,-185 638,-204"/>
<text text-anchor="middle" x="554.5" y="-192" font-family="Helvetica,sans-Serif" font-size="10.00">LookupManager::getWithName</text>
</a>
</g>
</g>
<!-- Node4&#45;&gt;Node5 -->
<g id="edge4_Node000004_Node000005" class="edge">
<title>Node4&#45;&gt;Node5</title>
<g id="a_edge4_Node000004_Node000005"><a xlink:title=" ">
<path fill="none" stroke="#63b8ff" d="M419.18,-165.44C442.59,-170.5 473.34,-177.16 499.51,-182.82"/>
<polygon fill="#63b8ff" stroke="#63b8ff" points="498.78,-186.24 509.29,-184.93 500.26,-179.4 498.78,-186.24"/>
</a>
</g>
</g>
<!-- Node6 -->
<g id="Node000006" class="node">
<title>Node6</title>
<g id="a_Node000006"><a xlink:href="class_field.html#a9b3b13d9abe0884a93b294edc0396f74" target="_top" xlink:title="handles an RPC call for a field.">
<polygon fill="white" stroke="#666666" points="603,-167 506,-167 506,-148 603,-148 603,-167"/>
<text text-anchor="middle" x="554.5" y="-155" font-family="Helvetica,sans-Serif" font-size="10.00">Field::handleRpc</text>
</a>
</g>
</g>
<!-- Node4&#45;&gt;Node6 -->
<g id="edge5_Node000004_Node000006" class="edge">
<title>Node4&#45;&gt;Node6</title>
<g id="a_edge5_Node000004_Node000006"><a xlink:title=" ">
<path fill="none" stroke="#63b8ff" d="M419.18,-157.5C441.44,-157.5 470.32,-157.5 495.61,-157.5"/>
<polygon fill="#63b8ff" stroke="#63b8ff" points="495.82,-161 505.82,-157.5 495.82,-154 495.82,-161"/>
</a>
</g>
</g>
<!-- Node8 -->
<g id="Node000008" class="node">
<title>Node8</title>
<g id="a_Node000008"><a xlink:href="rpc_8cpp.html#a8d99d63355a7dac3b1264ced57f255d9" target="_top" xlink:title="Replies to an RPC message for this device.">
<polygon fill="white" stroke="#666666" points="591.5,-130 517.5,-130 517.5,-111 591.5,-111 591.5,-130"/>
<text text-anchor="middle" x="554.5" y="-118" font-family="Helvetica,sans-Serif" font-size="10.00">replyMeRpc</text>
</a>
</g>
</g>
<!-- Node7&#45;&gt;Node8 -->
<g id="edge7_Node000007_Node000008" class="edge">
<title>Node7&#45;&gt;Node8</title>
<g id="a_edge7_Node000007_Node000008"><a xlink:title=" ">
<path fill="none" stroke="#63b8ff" d="M405.21,-120.5C431.03,-120.5 473.89,-120.5 506.9,-120.5"/>
<polygon fill="#63b8ff" stroke="#63b8ff" points="507.24,-124 517.24,-120.5 507.24,-117 507.24,-124"/>
</a>
</g>
</g>
<!-- Node12 -->
<g id="Node000012" class="node">
<title>Node12</title>
<g id="a_Node000012"><a xlink:href="rpc_8cpp.html#a22f0de10e8da7246554c2221cc40f7a0" target="_top" xlink:title="Converts a reset reason returned by esp_reset_reason() into a string.">
<polygon fill="white" stroke="#666666" points="435,-56 328,-56 328,-37 435,-37 435,-56"/>
<text text-anchor="middle" x="381.5" y="-44" font-family="Helvetica,sans-Serif" font-size="10.00">resetReasonName</text>
</a>
</g>
</g>
<!-- Node11&#45;&gt;Node12 -->
<g id="edge11_Node000011_Node000012" class="edge">
<title>Node11&#45;&gt;Node12</title>
<g id="a_edge11_Node000011_Node000012"><a xlink:title=" ">
<path fill="none" stroke="#63b8ff" d="M259.09,-46.5C277.61,-46.5 298.5,-46.5 317.66,-46.5"/>
<polygon fill="#63b8ff" stroke="#63b8ff" points="317.79,-50 327.79,-46.5 317.79,-43 317.79,-50"/>
</a>
</g>
</g>
</g>
</svg>

<g id="navigator" transform="translate(0 0)" fill="#404254">
  <rect fill="#f2f5e9" fill-opacity="0.5" stroke="#606060" stroke-width=".5" x="0" y="0" width="60" height="60"/>
  <use id="zoomplus" xlink:href="#zoomPlus" x="17" y="9" onmousedown="handleZoom(evt,'in')"/>
  <use id="zoomminus" xlink:href="#zoomMin" x="42" y="9" onmousedown="handleZoom(evt,'out')"/>
  <use id="reset" xlink:href="#resetDef" x="30" y="36" onmousedown="handleReset()"/>
   <use id="arrowup" xlink:href="#arrowUp" x="0" y="0" onmousedown="handlePan(0,-1)"/>
  <use id="arrowright" xlink:href="#arrowRight" x="0" y="0" onmousedown="handlePan(1,0)"/>
  <use id="arrowdown" xlink:href="#arrowDown" x="0" y="0" onmousedown="handlePan(0,1)"/>
  <use id="arrowleft" xlink:href="#arrowLeft" x="0" y="0" onmousedown="handlePan(-1,0)"/>
</g>
<svg viewBox="0 0 15 15" width="100%" height="30px" preserveAspectRatio="xMaxYMin meet">
 <g id="arrow_out" transform="scale(0.3 0.3)">
  <a xlink:href="networking_8h_a9ad5cb858c24c53a6eaa846b713bd120_cgraph_org.svg" target="_base">
   <rect id="button" ry="5" rx="5" y="6" x="6" height="38" width="38"
        fill="#f2f5e9" fill-opacity="0.5" stroke="#606060" stroke-width="1.0"/>
   <path id="arrow"
     d="M 11.500037,31.436501 C 11.940474,20.09759 22.043105,11.32322 32.158766,21.979434 L 37.068811,17.246167 C 37.068811,17.246167 37.088388,32 37.088388,32 L 22.160133,31.978069 C 22.160133,31.978069 26.997745,27.140456 26.997745,27.140456 C 18.528582,18.264221 13.291696,25.230495 11.500037,31.436501 z"
     style="fill:#404040;"/>
  </a>
 </g>
</svg>

<style type='text/css'>
<![CDATA[
[data-mouse-over-selected='false'] { opacity: 0.7; }
[data-mouse-over-selected='true']  { opacity: 1.0; }
]]>
</style>
<script type="application/ecmascript"><![CDATA[
document.addEventListener('DOMContentLoaded', (event) => {
  highlightEdges();
  highlightAdjacentNodes();
});
]]></script>
</svg>
