<?xml version="1.0" encoding="UTF-8" standalone="no"?>
<!DOCTYPE svg PUBLIC "-//W3C//DTD SVG 1.1//EN"
 "http://www.w3.org/Graphics/SVG/1.1/DTD/svg11.dtd">
<!-- Generated by graphviz version 2.43.0 (0)
 -->
<!-- Title: BaseStationCode/src/src/networking.h Pages: 1 -->
<svg width="565pt" height="431pt"
 viewBox="0.00 0.00 564.50 431.00" xmlns="http://www.w3.org/2000/svg" xmlns:xlink="http://www.w3.org/1999/xlink">
<g id="graph0" class="graph" transform="scale(1 1) rotate(0) translate(4 427)">
<title>BaseStationCode/src/src/networking.h</title>
<polygon fill="white" stroke="transparent" points="-4,4 -4,-427 560.5,-427 560.5,4 -4,4"/>
<!-- Node1 -->
<g id="node1" class="node">
<title>Node1</title>
<g id="a_node1"><a xlink:title="Header file for networking.cpp.">
<polygon fill="#bfbfbf" stroke="black" points="233,-392.5 233,-422.5 350,-422.5 350,-392.5 233,-392.5"/>
<text text-anchor="start" x="241" y="-410.5" font-family="Helvetica,sans-Serif" font-size="10.00">BaseStationCode/src</text>
<text text-anchor="middle" x="291.5" y="-399.5" font-family="Helvetica,sans-Serif" font-size="10.00">/src/networking.h</text>
</a>
</g>
</g>
<!-- Node2 -->
<g id="node2" class="node">
<title>Node2</title>
<g id="a_node2"><a xlink:href="defines_8h.html" target="_top" xlink:title="Definitions and other preprocessor and global stuff.">
<polygon fill="white" stroke="black" points="265.5,-56.5 265.5,-75.5 335.5,-75.5 335.5,-56.5 265.5,-56.5"/>
<text text-anchor="middle" x="300.5" y="-63.5" font-family="Helvetica,sans-Serif" font-size="10.00">../defines.h</text>
</a>
</g>
</g>
<!-- Node1&#45;&gt;Node2 -->
<g id="edge1" class="edge">
<title>Node1&#45;&gt;Node2</title>
<path fill="none" stroke="midnightblue" d="M350.11,-403.9C422.87,-397.16 537.5,-373.45 537.5,-291 537.5,-291 537.5,-291 537.5,-233 537.5,-140.23 414.17,-94.92 345.45,-76.87"/>
<polygon fill="midnightblue" stroke="midnightblue" points="346.28,-73.47 335.73,-74.41 344.56,-80.26 346.28,-73.47"/>
</g>
<!-- Node9 -->
<g id="node9" class="node">
<title>Node9</title>
<g id="a_node9"><a xlink:href="devices_8h.html" target="_top" xlink:title="Devices and manager for all known devices the base station connects to.">
<polygon fill="white" stroke="black" points="224,-224.5 224,-243.5 287,-243.5 287,-224.5 224,-224.5"/>
<text text-anchor="middle" x="255.5" y="-231.5" font-family="Helvetica,sans-Serif" font-size="10.00">devices.h</text>
</a>
</g>
</g>
<!-- Node1&#45;&gt;Node9 -->
<g id="edge8" class="edge">
<title>Node1&#45;&gt;Node9</title>
<path fill="none" stroke="midnightblue" d="M288.55,-392.47C282.1,-361.7 266.69,-288.33 259.43,-253.7"/>
<polygon fill="midnightblue" stroke="midnightblue" points="262.78,-252.63 257.3,-243.56 255.93,-254.07 262.78,-252.63"/>
</g>
<!-- Node13 -->
<g id="node13" class="node">
<title>Node13</title>
<g id="a_node13"><a xlink:href="lora_8h.html" target="_top" xlink:title="File that handles the LoRa radio and PJON.">
<polygon fill="white" stroke="black" points="219.5,-336.5 219.5,-355.5 263.5,-355.5 263.5,-336.5 219.5,-336.5"/>
<text text-anchor="middle" x="241.5" y="-343.5" font-family="Helvetica,sans-Serif" font-size="10.00">lora.h</text>
</a>
</g>
</g>
<!-- Node1&#45;&gt;Node13 -->
<g id="edge17" class="edge">
<title>Node1&#45;&gt;Node13</title>
<path fill="none" stroke="midnightblue" d="M273.81,-392.4C265.61,-383.93 256.39,-373.1 249.72,-364.14"/>
<polygon fill="midnightblue" stroke="midnightblue" points="252.42,-361.88 243.85,-355.66 246.67,-365.87 252.42,-361.88"/>
</g>
<!-- Node3 -->
<g id="node3" class="node">
<title>Node3</title>
<g id="a_node3"><a xlink:title=" ">
<polygon fill="white" stroke="#bfbfbf" points="230,-0.5 230,-19.5 293,-19.5 293,-0.5 230,-0.5"/>
<text text-anchor="middle" x="261.5" y="-7.5" font-family="Helvetica,sans-Serif" font-size="10.00">Arduino.h</text>
</a>
</g>
</g>
<!-- Node2&#45;&gt;Node3 -->
<g id="edge2" class="edge">
<title>Node2&#45;&gt;Node3</title>
<path fill="none" stroke="midnightblue" d="M294.06,-56.08C288.55,-48.46 280.47,-37.26 273.74,-27.94"/>
<polygon fill="midnightblue" stroke="midnightblue" points="276.51,-25.81 267.82,-19.75 270.84,-29.91 276.51,-25.81"/>
</g>
<!-- Node4 -->
<g id="node4" class="node">
<title>Node4</title>
<g id="a_node4"><a xlink:title=" ">
<polygon fill="white" stroke="#bfbfbf" points="311,-0.5 311,-19.5 358,-19.5 358,-0.5 311,-0.5"/>
<text text-anchor="middle" x="334.5" y="-7.5" font-family="Helvetica,sans-Serif" font-size="10.00">WiFi.h</text>
</a>
</g>
</g>
<!-- Node2&#45;&gt;Node4 -->
<g id="edge3" class="edge">
<title>Node2&#45;&gt;Node4</title>
<path fill="none" stroke="midnightblue" d="M306.11,-56.08C310.87,-48.53 317.82,-37.49 323.65,-28.23"/>
<polygon fill="midnightblue" stroke="midnightblue" points="326.62,-30.08 328.99,-19.75 320.7,-26.35 326.62,-30.08"/>
</g>
<!-- Node5 -->
<g id="node5" class="node">
<title>Node5</title>
<g id="a_node5"><a xlink:title=" ">
<polygon fill="white" stroke="#bfbfbf" points="376.5,-0.5 376.5,-19.5 466.5,-19.5 466.5,-0.5 376.5,-0.5"/>
<text text-anchor="middle" x="421.5" y="-7.5" font-family="Helvetica,sans-Serif" font-size="10.00">PubSubClient.h</text>
</a>
</g>
</g>
<!-- Node2&#45;&gt;Node5 -->
<g id="edge4" class="edge">
<title>Node2&#45;&gt;Node5</title>
<path fill="none" stroke="midnightblue" d="M319.67,-56.44C339.41,-47.64 370.39,-33.81 392.99,-23.72"/>
<polygon fill="midnightblue" stroke="midnightblue" points="394.71,-26.79 402.42,-19.52 391.86,-20.4 394.71,-26.79"/>
</g>
<!-- Node6 -->
<g id="node6" class="node">
<title>Node6</title>
<g id="a_node6"><a xlink:title=" ">
<polygon fill="white" stroke="#bfbfbf" points="0,-0.5 0,-19.5 83,-19.5 83,-0.5 0,-0.5"/>
<text text-anchor="middle" x="41.5" y="-7.5" font-family="Helvetica,sans-Serif" font-size="10.00">ArduinoJson.h</text>
</a>
</g>
</g>
<!-- Node2&#45;&gt;Node6 -->
<g id="edge5" class="edge">
<title>Node2&#45;&gt;Node6</title>
<path fill="none" stroke="midnightblue" d="M265.3,-57.66C220.7,-48.36 143.49,-32.26 92.45,-21.62"/>
<polygon fill="midnightblue" stroke="midnightblue" points="93.11,-18.19 82.61,-19.57 91.68,-25.04 93.11,-18.19"/>
</g>
<!-- Node7 -->
<g id="node7" class="node">
<title>Node7</title>
<g id="a_node7"><a xlink:title=" ">
<polygon fill="white" stroke="#bfbfbf" points="101.5,-0.5 101.5,-19.5 211.5,-19.5 211.5,-0.5 101.5,-0.5"/>
<text text-anchor="middle" x="156.5" y="-7.5" font-family="Helvetica,sans-Serif" font-size="10.00">PJONThroughLora.h</text>
</a>
</g>
</g>
<!-- Node2&#45;&gt;Node7 -->
<g id="edge6" class="edge">
<title>Node2&#45;&gt;Node7</title>
<path fill="none" stroke="midnightblue" d="M277.68,-56.44C253.67,-47.44 215.67,-33.19 188.63,-23.05"/>
<polygon fill="midnightblue" stroke="midnightblue" points="189.8,-19.75 179.21,-19.52 187.34,-26.3 189.8,-19.75"/>
</g>
<!-- Node8 -->
<g id="node8" class="node">
<title>Node8</title>
<g id="a_node8"><a xlink:href="topics_8h.html" target="_top" xlink:title="MQTT topics for a thingsboard gateway.">
<polygon fill="white" stroke="black" points="484.5,-0.5 484.5,-19.5 556.5,-19.5 556.5,-0.5 484.5,-0.5"/>
<text text-anchor="middle" x="520.5" y="-7.5" font-family="Helvetica,sans-Serif" font-size="10.00">src/topics.h</text>
</a>
</g>
</g>
<!-- Node2&#45;&gt;Node8 -->
<g id="edge7" class="edge">
<title>Node2&#45;&gt;Node8</title>
<path fill="none" stroke="midnightblue" d="M335.36,-56.44C373.42,-47.1 434.46,-32.12 475.96,-21.93"/>
<polygon fill="midnightblue" stroke="midnightblue" points="476.93,-25.3 485.8,-19.52 475.26,-18.5 476.93,-25.3"/>
</g>
<!-- Node9&#45;&gt;Node2 -->
<g id="edge9" class="edge">
<title>Node9&#45;&gt;Node2</title>
<path fill="none" stroke="midnightblue" d="M252.51,-224.47C248.55,-211.93 242.6,-187.87 247.5,-168 255.36,-136.11 275.28,-103.15 288.34,-83.89"/>
<polygon fill="midnightblue" stroke="midnightblue" points="291.27,-85.8 294.11,-75.6 285.52,-81.8 291.27,-85.8"/>
</g>
<!-- Node10 -->
<g id="node10" class="node">
<title>Node10</title>
<g id="a_node10"><a xlink:href="lookups_8h.html" target="_top" xlink:title="Lookupable and lookupable manager base classes.">
<polygon fill="white" stroke="black" points="137,-112.5 137,-131.5 200,-131.5 200,-112.5 137,-112.5"/>
<text text-anchor="middle" x="168.5" y="-119.5" font-family="Helvetica,sans-Serif" font-size="10.00">lookups.h</text>
</a>
</g>
</g>
<!-- Node9&#45;&gt;Node10 -->
<g id="edge10" class="edge">
<title>Node9&#45;&gt;Node10</title>
<path fill="none" stroke="midnightblue" d="M247,-224.32C238.46,-215.46 225.1,-201.18 214.5,-188 201.95,-172.4 188.88,-153.64 179.89,-140.3"/>
<polygon fill="midnightblue" stroke="midnightblue" points="182.59,-138.04 174.13,-131.66 176.76,-141.92 182.59,-138.04"/>
</g>
<!-- Node11 -->
<g id="node11" class="node">
<title>Node11</title>
<g id="a_node11"><a xlink:href="fields_8h.html" target="_top" xlink:title="Contains fields classes.">
<polygon fill="white" stroke="black" points="256.5,-168.5 256.5,-187.5 308.5,-187.5 308.5,-168.5 256.5,-168.5"/>
<text text-anchor="middle" x="282.5" y="-175.5" font-family="Helvetica,sans-Serif" font-size="10.00">fields.h</text>
</a>
</g>
</g>
<!-- Node9&#45;&gt;Node11 -->
<g id="edge12" class="edge">
<title>Node9&#45;&gt;Node11</title>
<path fill="none" stroke="midnightblue" d="M259.96,-224.08C263.65,-216.69 269.02,-205.95 273.59,-196.81"/>
<polygon fill="midnightblue" stroke="midnightblue" points="276.78,-198.26 278.12,-187.75 270.52,-195.13 276.78,-198.26"/>
</g>
<!-- Node10&#45;&gt;Node2 -->
<g id="edge11" class="edge">
<title>Node10&#45;&gt;Node2</title>
<path fill="none" stroke="midnightblue" d="M189.42,-112.44C211.24,-103.52 245.65,-89.44 270.39,-79.32"/>
<polygon fill="midnightblue" stroke="midnightblue" points="271.75,-82.54 279.68,-75.52 269.1,-76.06 271.75,-82.54"/>
</g>
<!-- Node11&#45;&gt;Node2 -->
<g id="edge13" class="edge">
<title>Node11&#45;&gt;Node2</title>
<path fill="none" stroke="midnightblue" d="M282.14,-168.08C281.81,-155.47 281.82,-131.77 285.5,-112 287.18,-102.99 290.23,-93.32 293.14,-85.25"/>
<polygon fill="midnightblue" stroke="midnightblue" points="296.47,-86.36 296.77,-75.77 289.93,-83.86 296.47,-86.36"/>
</g>
<!-- Node11&#45;&gt;Node10 -->
<g id="edge14" class="edge">
<title>Node11&#45;&gt;Node10</title>
<path fill="none" stroke="midnightblue" d="M264.44,-168.44C245.93,-159.68 216.92,-145.94 195.64,-135.86"/>
<polygon fill="midnightblue" stroke="midnightblue" points="197.01,-132.63 186.48,-131.52 194.02,-138.96 197.01,-132.63"/>
</g>
<!-- Node12 -->
<g id="node12" class="node">
<title>Node12</title>
<g id="a_node12"><a xlink:href="conversions_8h.html" target="_top" xlink:title="General functions for converting to and from char arrays.">
<polygon fill="white" stroke="black" points="294.5,-112.5 294.5,-131.5 378.5,-131.5 378.5,-112.5 294.5,-112.5"/>
<text text-anchor="middle" x="336.5" y="-119.5" font-family="Helvetica,sans-Serif" font-size="10.00">conversions.h</text>
</a>
</g>
</g>
<!-- Node11&#45;&gt;Node12 -->
<g id="edge15" class="edge">
<title>Node11&#45;&gt;Node12</title>
<path fill="none" stroke="midnightblue" d="M291.42,-168.08C299.28,-160.22 310.93,-148.57 320.42,-139.08"/>
<polygon fill="midnightblue" stroke="midnightblue" points="323.15,-141.3 327.75,-131.75 318.2,-136.35 323.15,-141.3"/>
</g>
<!-- Node12&#45;&gt;Node2 -->
<g id="edge16" class="edge">
<title>Node12&#45;&gt;Node2</title>
<path fill="none" stroke="midnightblue" d="M330.56,-112.08C325.52,-104.53 318.16,-93.49 311.99,-84.23"/>
<polygon fill="midnightblue" stroke="midnightblue" points="314.79,-82.13 306.33,-75.75 308.97,-86.01 314.79,-82.13"/>
</g>
<!-- Node13&#45;&gt;Node1 -->
<g id="edge21" class="edge">
<title>Node13&#45;&gt;Node1</title>
<path fill="none" stroke="midnightblue" d="M253.7,-355.66C261.65,-363.18 271.62,-374.41 279.48,-384.4"/>
<polygon fill="midnightblue" stroke="midnightblue" points="276.68,-386.51 285.49,-392.4 282.28,-382.3 276.68,-386.51"/>
</g>
<!-- Node13&#45;&gt;Node2 -->
<g id="edge18" class="edge">
<title>Node13&#45;&gt;Node2</title>
<path fill="none" stroke="midnightblue" d="M219.24,-338.08C181.38,-324.77 108.5,-291.78 108.5,-235 108.5,-235 108.5,-235 108.5,-177 108.5,-146.9 105.9,-132.96 127.5,-112 161.54,-78.96 216.6,-69.34 255.45,-66.94"/>
<polygon fill="midnightblue" stroke="midnightblue" points="255.63,-70.44 265.45,-66.46 255.29,-63.44 255.63,-70.44"/>
</g>
<!-- Node13&#45;&gt;Node9 -->
<g id="edge20" class="edge">
<title>Node13&#45;&gt;Node9</title>
<path fill="none" stroke="midnightblue" d="M242.6,-336.37C244.86,-318.62 250.07,-277.67 253.13,-253.6"/>
<polygon fill="midnightblue" stroke="midnightblue" points="256.62,-253.95 254.41,-243.59 249.67,-253.07 256.62,-253.95"/>
</g>
<!-- Node13&#45;&gt;Node10 -->
<g id="edge19" class="edge">
<title>Node13&#45;&gt;Node10</title>
<path fill="none" stroke="midnightblue" d="M238.64,-336.3C227.87,-303.56 189.67,-187.38 174.64,-141.67"/>
<polygon fill="midnightblue" stroke="midnightblue" points="177.87,-140.29 171.42,-131.88 171.22,-142.48 177.87,-140.29"/>
</g>
<!-- Node14 -->
<g id="node14" class="node">
<title>Node14</title>
<g id="a_node14"><a xlink:href="rpc_8h.html" target="_top" xlink:title="Handles RPC calls.">
<polygon fill="white" stroke="black" points="320,-280.5 320,-299.5 361,-299.5 361,-280.5 320,-280.5"/>
<text text-anchor="middle" x="340.5" y="-287.5" font-family="Helvetica,sans-Serif" font-size="10.00">rpc.h</text>
</a>
</g>
</g>
<!-- Node13&#45;&gt;Node14 -->
<g id="edge22" class="edge">
<title>Node13&#45;&gt;Node14</title>
<path fill="none" stroke="midnightblue" d="M257.41,-336.32C273.14,-327.74 297.44,-314.49 315.71,-304.52"/>
<polygon fill="midnightblue" stroke="midnightblue" points="317.53,-307.52 324.63,-299.65 314.18,-301.37 317.53,-307.52"/>
</g>
<!-- Node14&#45;&gt;Node1 -->
<g id="edge29" class="edge">
<title>Node14&#45;&gt;Node1</title>
<path fill="none" stroke="midnightblue" d="M336.82,-299.67C329.41,-317.14 312.45,-357.11 301.51,-382.9"/>
<polygon fill="midnightblue" stroke="midnightblue" points="298.19,-381.76 297.51,-392.34 304.64,-384.5 298.19,-381.76"/>
</g>
<!-- Node14&#45;&gt;Node2 -->
<g id="edge23" class="edge">
<title>Node14&#45;&gt;Node2</title>
<path fill="none" stroke="midnightblue" d="M347.29,-280.21C367.31,-253.18 422.54,-169.58 387.5,-112 378.04,-96.46 361.29,-86.05 345,-79.19"/>
<polygon fill="midnightblue" stroke="midnightblue" points="346.1,-75.87 335.51,-75.55 343.6,-82.4 346.1,-75.87"/>
</g>
<!-- Node14&#45;&gt;Node8 -->
<g id="edge24" class="edge">
<title>Node14&#45;&gt;Node8</title>
<path fill="none" stroke="midnightblue" d="M361.18,-280.99C393.2,-267.34 453.88,-236.29 480.5,-188 509.34,-135.68 517.4,-63.74 519.64,-29.97"/>
<polygon fill="midnightblue" stroke="midnightblue" points="523.15,-29.89 520.22,-19.71 516.17,-29.49 523.15,-29.89"/>
</g>
<!-- Node14&#45;&gt;Node9 -->
<g id="edge27" class="edge">
<title>Node14&#45;&gt;Node9</title>
<path fill="none" stroke="midnightblue" d="M326.84,-280.32C313.58,-271.9 293.23,-258.97 277.65,-249.07"/>
<polygon fill="midnightblue" stroke="midnightblue" points="279.44,-246.06 269.12,-243.65 275.69,-251.97 279.44,-246.06"/>
</g>
<!-- Node14&#45;&gt;Node11 -->
<g id="edge28" class="edge">
<title>Node14&#45;&gt;Node11</title>
<path fill="none" stroke="midnightblue" d="M335.95,-280.37C326.46,-262.38 304.41,-220.55 291.79,-196.63"/>
<polygon fill="midnightblue" stroke="midnightblue" points="294.79,-194.8 287.03,-187.59 288.6,-198.07 294.79,-194.8"/>
</g>
<!-- Node15 -->
<g id="node15" class="node">
<title>Node15</title>
<g id="a_node15"><a xlink:href="alarm_8h.html" target="_top" xlink:title="Handles alarms.">
<polygon fill="white" stroke="black" points="417.5,-168.5 417.5,-187.5 471.5,-187.5 471.5,-168.5 417.5,-168.5"/>
<text text-anchor="middle" x="444.5" y="-175.5" font-family="Helvetica,sans-Serif" font-size="10.00">alarm.h</text>
</a>
</g>
</g>
<!-- Node14&#45;&gt;Node15 -->
<g id="edge25" class="edge">
<title>Node14&#45;&gt;Node15</title>
<path fill="none" stroke="midnightblue" d="M355.77,-280.43C369.38,-272.28 389.29,-259.05 403.5,-244 416.91,-229.79 428.4,-210.57 435.77,-196.72"/>
<polygon fill="midnightblue" stroke="midnightblue" points="438.93,-198.22 440.38,-187.73 432.7,-195.03 438.93,-198.22"/>
</g>
<!-- Node15&#45;&gt;Node2 -->
<g id="edge26" class="edge">
<title>Node15&#45;&gt;Node2</title>
<path fill="none" stroke="midnightblue" d="M443.58,-168.19C441.68,-154.41 436.11,-127.69 420.5,-112 400.43,-91.83 370.47,-80.58 345.5,-74.38"/>
<polygon fill="midnightblue" stroke="midnightblue" points="346.04,-70.91 335.51,-72.09 344.48,-77.73 346.04,-70.91"/>
</g>
</g>
</svg>
