<?xml version="1.0" encoding="UTF-8" standalone="no"?>
<!DOCTYPE svg PUBLIC "-//W3C//DTD SVG 1.1//EN"
 "http://www.w3.org/Graphics/SVG/1.1/DTD/svg11.dtd">
<!-- Generated by graphviz version 2.43.0 (0)
 -->
<!-- Title: mqttSetup Pages: 1 -->
<svg width="401pt" height="28pt"
 viewBox="0.00 0.00 401.00 28.00" xmlns="http://www.w3.org/2000/svg" xmlns:xlink="http://www.w3.org/1999/xlink">
<g id="graph0" class="graph" transform="scale(1 1) rotate(0) translate(4 24)">
<title>mqttSetup</title>
<polygon fill="white" stroke="transparent" points="-4,4 -4,-24 397,-24 397,4 -4,4"/>
<!-- Node1 -->
<g id="node1" class="node">
<title>Node1</title>
<g id="a_node1"><a xlink:title="Subscribes to the required topics.">
<polygon fill="#bfbfbf" stroke="black" points="325,-0.5 325,-19.5 393,-19.5 393,-0.5 325,-0.5"/>
<text text-anchor="middle" x="359" y="-7.5" font-family="Helvetica,sans-Serif" font-size="10.00">mqttSetup</text>
</a>
</g>
</g>
<!-- Node2 -->
<g id="node2" class="node">
<title>Node2</title>
<g id="a_node2"><a xlink:href="networking_8cpp.html#a9ad5cb858c24c53a6eaa846b713bd120" target="_top" xlink:title="Connects to the MQTT broker.">
<polygon fill="white" stroke="black" points="209,-0.5 209,-19.5 289,-19.5 289,-0.5 209,-0.5"/>
<text text-anchor="middle" x="249" y="-7.5" font-family="Helvetica,sans-Serif" font-size="10.00">mqttConnect</text>
</a>
</g>
</g>
<!-- Node1&#45;&gt;Node2 -->
<g id="edge1" class="edge">
<title>Node1&#45;&gt;Node2</title>
<path fill="none" stroke="midnightblue" d="M314.64,-10C306.18,-10 297.36,-10 289.05,-10"/>
<polygon fill="midnightblue" stroke="midnightblue" points="314.72,-13.5 324.72,-10 314.72,-6.5 314.72,-13.5"/>
</g>
<!-- Node3 -->
<g id="node3" class="node">
<title>Node3</title>
<g id="a_node3"><a xlink:href="networking_8cpp.html#ad26b4549029330bc2b554fa4ed1e5bc7" target="_top" xlink:title=" ">
<polygon fill="white" stroke="black" points="80,-0.5 80,-19.5 173,-19.5 173,-0.5 80,-0.5"/>
<text text-anchor="middle" x="126.5" y="-7.5" font-family="Helvetica,sans-Serif" font-size="10.00">networkingTask</text>
</a>
</g>
</g>
<!-- Node2&#45;&gt;Node3 -->
<g id="edge2" class="edge">
<title>Node2&#45;&gt;Node3</title>
<path fill="none" stroke="midnightblue" d="M198.74,-10C190.27,-10 181.5,-10 173.13,-10"/>
<polygon fill="midnightblue" stroke="midnightblue" points="198.88,-13.5 208.88,-10 198.88,-6.5 198.88,-13.5"/>
</g>
<!-- Node4 -->
<g id="node4" class="node">
<title>Node4</title>
<g id="a_node4"><a xlink:href="main_8cpp.html#a4fc01d736fe50cf5b977f755b675f11d" target="_top" xlink:title=" ">
<polygon fill="white" stroke="black" points="0,-0.5 0,-19.5 44,-19.5 44,-0.5 0,-0.5"/>
<text text-anchor="middle" x="22" y="-7.5" font-family="Helvetica,sans-Serif" font-size="10.00">setup</text>
</a>
</g>
</g>
<!-- Node3&#45;&gt;Node4 -->
<g id="edge3" class="edge">
<title>Node3&#45;&gt;Node4</title>
<path fill="none" stroke="midnightblue" d="M69.93,-10C60.73,-10 51.7,-10 44.07,-10"/>
<polygon fill="midnightblue" stroke="midnightblue" points="69.95,-13.5 79.95,-10 69.95,-6.5 69.95,-13.5"/>
</g>
</g>
</svg>
