<?xml version="1.0" encoding="UTF-8" standalone="no"?>
<!DOCTYPE svg PUBLIC "-//W3C//DTD SVG 1.1//EN"
 "http://www.w3.org/Graphics/SVG/1.1/DTD/svg11.dtd">
<!-- Generated by graphviz version 2.43.0 (0)
 -->
<!-- Title: ESP32BaseStation/src/networking.cpp Pages: 1 -->
<svg width="759pt" height="487pt"
 viewBox="0.00 0.00 758.50 487.00" xmlns="http://www.w3.org/2000/svg" xmlns:xlink="http://www.w3.org/1999/xlink">
<g id="graph0" class="graph" transform="scale(1 1) rotate(0) translate(4 483)">
<title>ESP32BaseStation/src/networking.cpp</title>
<polygon fill="white" stroke="transparent" points="-4,4 -4,-483 754.5,-483 754.5,4 -4,4"/>
<!-- Node1 -->
<g id="node1" class="node">
<title>Node1</title>
<g id="a_node1"><a xlink:title="File that handles connecting to WiFi and MQTT and staying connected.">
<polygon fill="#bfbfbf" stroke="black" points="419.5,-448.5 419.5,-478.5 541.5,-478.5 541.5,-448.5 419.5,-448.5"/>
<text text-anchor="start" x="427.5" y="-466.5" font-family="Helvetica,sans-Serif" font-size="10.00">ESP32BaseStation/src</text>
<text text-anchor="middle" x="480.5" y="-455.5" font-family="Helvetica,sans-Serif" font-size="10.00">/networking.cpp</text>
</a>
</g>
</g>
<!-- Node2 -->
<g id="node2" class="node">
<title>Node2</title>
<g id="a_node2"><a xlink:href="networking_8h.html" target="_top" xlink:title="Header file for networking.cpp.">
<polygon fill="white" stroke="black" points="440.5,-392.5 440.5,-411.5 520.5,-411.5 520.5,-392.5 440.5,-392.5"/>
<text text-anchor="middle" x="480.5" y="-399.5" font-family="Helvetica,sans-Serif" font-size="10.00">networking.h</text>
</a>
</g>
</g>
<!-- Node1&#45;&gt;Node2 -->
<g id="edge1" class="edge">
<title>Node1&#45;&gt;Node2</title>
<path fill="none" stroke="midnightblue" d="M480.5,-448.4C480.5,-440.47 480.5,-430.46 480.5,-421.86"/>
<polygon fill="midnightblue" stroke="midnightblue" points="484,-421.66 480.5,-411.66 477,-421.66 484,-421.66"/>
</g>
<!-- Node3 -->
<g id="node3" class="node">
<title>Node3</title>
<g id="a_node3"><a xlink:href="defines_8h.html" target="_top" xlink:title="Definitions and other preprocessor and global stuff.">
<polygon fill="white" stroke="black" points="420.5,-56.5 420.5,-75.5 490.5,-75.5 490.5,-56.5 420.5,-56.5"/>
<text text-anchor="middle" x="455.5" y="-63.5" font-family="Helvetica,sans-Serif" font-size="10.00">../defines.h</text>
</a>
</g>
</g>
<!-- Node2&#45;&gt;Node3 -->
<g id="edge2" class="edge">
<title>Node2&#45;&gt;Node3</title>
<path fill="none" stroke="midnightblue" d="M520.57,-400.58C590.28,-397.52 726.5,-380.12 726.5,-291 726.5,-291 726.5,-291 726.5,-233 726.5,-164.08 687.38,-149.43 629.5,-112 590.46,-86.75 537.93,-75.65 500.83,-70.78"/>
<polygon fill="midnightblue" stroke="midnightblue" points="501.15,-67.29 490.8,-69.57 500.3,-74.24 501.15,-67.29"/>
</g>
<!-- Node12 -->
<g id="node12" class="node">
<title>Node12</title>
<g id="a_node12"><a xlink:href="devices_8h.html" target="_top" xlink:title="Devices and manager for all known devices the base station connects to.">
<polygon fill="white" stroke="black" points="413,-224.5 413,-243.5 476,-243.5 476,-224.5 413,-224.5"/>
<text text-anchor="middle" x="444.5" y="-231.5" font-family="Helvetica,sans-Serif" font-size="10.00">devices.h</text>
</a>
</g>
</g>
<!-- Node2&#45;&gt;Node12 -->
<g id="edge11" class="edge">
<title>Node2&#45;&gt;Node12</title>
<path fill="none" stroke="midnightblue" d="M478.56,-392.08C472.9,-365.95 456.26,-289.21 448.53,-253.58"/>
<polygon fill="midnightblue" stroke="midnightblue" points="451.9,-252.6 446.36,-243.57 445.06,-254.08 451.9,-252.6"/>
</g>
<!-- Node16 -->
<g id="node16" class="node">
<title>Node16</title>
<g id="a_node16"><a xlink:href="lora_8h.html" target="_top" xlink:title="File that handles the LoRa radio and PJON.">
<polygon fill="white" stroke="black" points="408.5,-336.5 408.5,-355.5 452.5,-355.5 452.5,-336.5 408.5,-336.5"/>
<text text-anchor="middle" x="430.5" y="-343.5" font-family="Helvetica,sans-Serif" font-size="10.00">lora.h</text>
</a>
</g>
</g>
<!-- Node2&#45;&gt;Node16 -->
<g id="edge20" class="edge">
<title>Node2&#45;&gt;Node16</title>
<path fill="none" stroke="midnightblue" d="M467.35,-392.32C458.59,-384.65 447.63,-373.25 439.75,-363.8"/>
<polygon fill="midnightblue" stroke="midnightblue" points="442.44,-361.56 433.53,-355.83 436.93,-365.87 442.44,-361.56"/>
</g>
<!-- Node4 -->
<g id="node4" class="node">
<title>Node4</title>
<g id="a_node4"><a xlink:title=" ">
<polygon fill="white" stroke="#bfbfbf" points="424,-0.5 424,-19.5 487,-19.5 487,-0.5 424,-0.5"/>
<text text-anchor="middle" x="455.5" y="-7.5" font-family="Helvetica,sans-Serif" font-size="10.00">Arduino.h</text>
</a>
</g>
</g>
<!-- Node3&#45;&gt;Node4 -->
<g id="edge3" class="edge">
<title>Node3&#45;&gt;Node4</title>
<path fill="none" stroke="midnightblue" d="M455.5,-56.08C455.5,-49.01 455.5,-38.86 455.5,-29.99"/>
<polygon fill="midnightblue" stroke="midnightblue" points="459,-29.75 455.5,-19.75 452,-29.75 459,-29.75"/>
</g>
<!-- Node5 -->
<g id="node5" class="node">
<title>Node5</title>
<g id="a_node5"><a xlink:title=" ">
<polygon fill="white" stroke="#bfbfbf" points="505,-0.5 505,-19.5 552,-19.5 552,-0.5 505,-0.5"/>
<text text-anchor="middle" x="528.5" y="-7.5" font-family="Helvetica,sans-Serif" font-size="10.00">WiFi.h</text>
</a>
</g>
</g>
<!-- Node3&#45;&gt;Node5 -->
<g id="edge4" class="edge">
<title>Node3&#45;&gt;Node5</title>
<path fill="none" stroke="midnightblue" d="M467.23,-56.32C478.34,-48.11 495.24,-35.6 508.48,-25.81"/>
<polygon fill="midnightblue" stroke="midnightblue" points="510.6,-28.59 516.56,-19.83 506.44,-22.97 510.6,-28.59"/>
</g>
<!-- Node6 -->
<g id="node6" class="node">
<title>Node6</title>
<g id="a_node6"><a xlink:title=" ">
<polygon fill="white" stroke="#bfbfbf" points="570.5,-0.5 570.5,-19.5 660.5,-19.5 660.5,-0.5 570.5,-0.5"/>
<text text-anchor="middle" x="615.5" y="-7.5" font-family="Helvetica,sans-Serif" font-size="10.00">PubSubClient.h</text>
</a>
</g>
</g>
<!-- Node3&#45;&gt;Node6 -->
<g id="edge5" class="edge">
<title>Node3&#45;&gt;Node6</title>
<path fill="none" stroke="midnightblue" d="M480.85,-56.44C507.77,-47.36 550.5,-32.94 580.59,-22.78"/>
<polygon fill="midnightblue" stroke="midnightblue" points="581.91,-26.03 590.27,-19.52 579.67,-19.4 581.91,-26.03"/>
</g>
<!-- Node7 -->
<g id="node7" class="node">
<title>Node7</title>
<g id="a_node7"><a xlink:title=" ">
<polygon fill="white" stroke="#bfbfbf" points="0,-0.5 0,-19.5 83,-19.5 83,-0.5 0,-0.5"/>
<text text-anchor="middle" x="41.5" y="-7.5" font-family="Helvetica,sans-Serif" font-size="10.00">ArduinoJson.h</text>
</a>
</g>
</g>
<!-- Node3&#45;&gt;Node7 -->
<g id="edge6" class="edge">
<title>Node3&#45;&gt;Node7</title>
<path fill="none" stroke="midnightblue" d="M420.38,-61.25C357.19,-54.38 219.94,-38.85 93.47,-20.07"/>
<polygon fill="midnightblue" stroke="midnightblue" points="93.63,-16.56 83.22,-18.54 92.59,-23.48 93.63,-16.56"/>
</g>
<!-- Node8 -->
<g id="node8" class="node">
<title>Node8</title>
<g id="a_node8"><a xlink:title=" ">
<polygon fill="white" stroke="#bfbfbf" points="101.5,-0.5 101.5,-19.5 211.5,-19.5 211.5,-0.5 101.5,-0.5"/>
<text text-anchor="middle" x="156.5" y="-7.5" font-family="Helvetica,sans-Serif" font-size="10.00">PJONThroughLora.h</text>
</a>
</g>
</g>
<!-- Node3&#45;&gt;Node8 -->
<g id="edge7" class="edge">
<title>Node3&#45;&gt;Node8</title>
<path fill="none" stroke="midnightblue" d="M420.32,-58.65C369.36,-49.44 274.44,-32.3 213.43,-21.28"/>
<polygon fill="midnightblue" stroke="midnightblue" points="214.03,-17.83 203.57,-19.5 212.79,-24.72 214.03,-17.83"/>
</g>
<!-- Node9 -->
<g id="node9" class="node">
<title>Node9</title>
<g id="a_node9"><a xlink:title=" ">
<polygon fill="white" stroke="#bfbfbf" points="229.5,-0.5 229.5,-19.5 307.5,-19.5 307.5,-0.5 229.5,-0.5"/>
<text text-anchor="middle" x="268.5" y="-7.5" font-family="Helvetica,sans-Serif" font-size="10.00">TunePlayer.h</text>
</a>
</g>
</g>
<!-- Node3&#45;&gt;Node9 -->
<g id="edge8" class="edge">
<title>Node3&#45;&gt;Node9</title>
<path fill="none" stroke="midnightblue" d="M425.87,-56.44C394,-47.24 343.17,-32.56 307.94,-22.39"/>
<polygon fill="midnightblue" stroke="midnightblue" points="308.57,-18.93 297.99,-19.52 306.63,-25.65 308.57,-18.93"/>
</g>
<!-- Node10 -->
<g id="node10" class="node">
<title>Node10</title>
<g id="a_node10"><a xlink:title=" ">
<polygon fill="white" stroke="#bfbfbf" points="325.5,-0.5 325.5,-19.5 405.5,-19.5 405.5,-0.5 325.5,-0.5"/>
<text text-anchor="middle" x="365.5" y="-7.5" font-family="Helvetica,sans-Serif" font-size="10.00">credentials.h</text>
</a>
</g>
</g>
<!-- Node3&#45;&gt;Node10 -->
<g id="edge9" class="edge">
<title>Node3&#45;&gt;Node10</title>
<path fill="none" stroke="midnightblue" d="M441.04,-56.32C427,-47.9 405.45,-34.97 388.96,-25.07"/>
<polygon fill="midnightblue" stroke="midnightblue" points="390.3,-21.8 379.92,-19.65 386.7,-27.8 390.3,-21.8"/>
</g>
<!-- Node11 -->
<g id="node11" class="node">
<title>Node11</title>
<g id="a_node11"><a xlink:href="topics_8h.html" target="_top" xlink:title="MQTT topics for a thingsboard gateway.">
<polygon fill="white" stroke="black" points="678.5,-0.5 678.5,-19.5 750.5,-19.5 750.5,-0.5 678.5,-0.5"/>
<text text-anchor="middle" x="714.5" y="-7.5" font-family="Helvetica,sans-Serif" font-size="10.00">src/topics.h</text>
</a>
</g>
</g>
<!-- Node3&#45;&gt;Node11 -->
<g id="edge10" class="edge">
<title>Node3&#45;&gt;Node11</title>
<path fill="none" stroke="midnightblue" d="M490.7,-57.66C536.64,-48.08 617.15,-31.3 668.05,-20.69"/>
<polygon fill="midnightblue" stroke="midnightblue" points="669.05,-24.05 678.13,-18.58 667.62,-17.2 669.05,-24.05"/>
</g>
<!-- Node12&#45;&gt;Node3 -->
<g id="edge12" class="edge">
<title>Node12&#45;&gt;Node3</title>
<path fill="none" stroke="midnightblue" d="M442.51,-224.43C440.53,-215.42 437.63,-200.8 436.5,-188 433.27,-151.43 443.04,-109.15 449.74,-85.5"/>
<polygon fill="midnightblue" stroke="midnightblue" points="453.14,-86.34 452.63,-75.76 446.43,-84.35 453.14,-86.34"/>
</g>
<!-- Node13 -->
<g id="node13" class="node">
<title>Node13</title>
<g id="a_node13"><a xlink:href="lookups_8h.html" target="_top" xlink:title="Lookupable and lookupable manager base classes.">
<polygon fill="white" stroke="black" points="326,-112.5 326,-131.5 389,-131.5 389,-112.5 326,-112.5"/>
<text text-anchor="middle" x="357.5" y="-119.5" font-family="Helvetica,sans-Serif" font-size="10.00">lookups.h</text>
</a>
</g>
</g>
<!-- Node12&#45;&gt;Node13 -->
<g id="edge13" class="edge">
<title>Node12&#45;&gt;Node13</title>
<path fill="none" stroke="midnightblue" d="M436,-224.32C427.46,-215.46 414.1,-201.18 403.5,-188 390.95,-172.4 377.88,-153.64 368.89,-140.3"/>
<polygon fill="midnightblue" stroke="midnightblue" points="371.59,-138.04 363.13,-131.66 365.76,-141.92 371.59,-138.04"/>
</g>
<!-- Node14 -->
<g id="node14" class="node">
<title>Node14</title>
<g id="a_node14"><a xlink:href="fields_8h.html" target="_top" xlink:title="Contains fields classes.">
<polygon fill="white" stroke="black" points="445.5,-168.5 445.5,-187.5 497.5,-187.5 497.5,-168.5 445.5,-168.5"/>
<text text-anchor="middle" x="471.5" y="-175.5" font-family="Helvetica,sans-Serif" font-size="10.00">fields.h</text>
</a>
</g>
</g>
<!-- Node12&#45;&gt;Node14 -->
<g id="edge15" class="edge">
<title>Node12&#45;&gt;Node14</title>
<path fill="none" stroke="midnightblue" d="M448.96,-224.08C452.65,-216.69 458.02,-205.95 462.59,-196.81"/>
<polygon fill="midnightblue" stroke="midnightblue" points="465.78,-198.26 467.12,-187.75 459.52,-195.13 465.78,-198.26"/>
</g>
<!-- Node13&#45;&gt;Node3 -->
<g id="edge14" class="edge">
<title>Node13&#45;&gt;Node3</title>
<path fill="none" stroke="midnightblue" d="M373.25,-112.32C388.82,-103.74 412.88,-90.49 430.96,-80.52"/>
<polygon fill="midnightblue" stroke="midnightblue" points="432.72,-83.55 439.79,-75.65 429.35,-77.42 432.72,-83.55"/>
</g>
<!-- Node14&#45;&gt;Node3 -->
<g id="edge16" class="edge">
<title>Node14&#45;&gt;Node3</title>
<path fill="none" stroke="midnightblue" d="M470.24,-168.37C467.66,-150.62 461.71,-109.67 458.21,-85.6"/>
<polygon fill="midnightblue" stroke="midnightblue" points="461.65,-84.98 456.75,-75.59 454.73,-85.99 461.65,-84.98"/>
</g>
<!-- Node14&#45;&gt;Node13 -->
<g id="edge17" class="edge">
<title>Node14&#45;&gt;Node13</title>
<path fill="none" stroke="midnightblue" d="M453.44,-168.44C434.93,-159.68 405.92,-145.94 384.64,-135.86"/>
<polygon fill="midnightblue" stroke="midnightblue" points="386.01,-132.63 375.48,-131.52 383.02,-138.96 386.01,-132.63"/>
</g>
<!-- Node15 -->
<g id="node15" class="node">
<title>Node15</title>
<g id="a_node15"><a xlink:href="conversions_8h.html" target="_top" xlink:title="General functions for converting to and from char arrays.">
<polygon fill="white" stroke="black" points="483.5,-112.5 483.5,-131.5 567.5,-131.5 567.5,-112.5 483.5,-112.5"/>
<text text-anchor="middle" x="525.5" y="-119.5" font-family="Helvetica,sans-Serif" font-size="10.00">conversions.h</text>
</a>
</g>
</g>
<!-- Node14&#45;&gt;Node15 -->
<g id="edge18" class="edge">
<title>Node14&#45;&gt;Node15</title>
<path fill="none" stroke="midnightblue" d="M480.42,-168.08C488.28,-160.22 499.93,-148.57 509.42,-139.08"/>
<polygon fill="midnightblue" stroke="midnightblue" points="512.15,-141.3 516.75,-131.75 507.2,-136.35 512.15,-141.3"/>
</g>
<!-- Node15&#45;&gt;Node3 -->
<g id="edge19" class="edge">
<title>Node15&#45;&gt;Node3</title>
<path fill="none" stroke="midnightblue" d="M514.25,-112.32C503.7,-104.18 487.7,-91.84 475.06,-82.09"/>
<polygon fill="midnightblue" stroke="midnightblue" points="477.01,-79.17 466.95,-75.83 472.73,-84.71 477.01,-79.17"/>
</g>
<!-- Node16&#45;&gt;Node2 -->
<g id="edge24" class="edge">
<title>Node16&#45;&gt;Node2</title>
<path fill="none" stroke="midnightblue" d="M443.73,-355.75C452.46,-363.4 463.35,-374.74 471.2,-384.14"/>
<polygon fill="midnightblue" stroke="midnightblue" points="468.49,-386.36 477.41,-392.08 474.01,-382.05 468.49,-386.36"/>
</g>
<!-- Node16&#45;&gt;Node3 -->
<g id="edge21" class="edge">
<title>Node16&#45;&gt;Node3</title>
<path fill="none" stroke="midnightblue" d="M408.24,-338.08C370.38,-324.77 297.5,-291.78 297.5,-235 297.5,-235 297.5,-235 297.5,-177 297.5,-146.9 295.53,-133.59 316.5,-112 341.12,-86.67 380.08,-75.58 410.5,-70.73"/>
<polygon fill="midnightblue" stroke="midnightblue" points="411.05,-74.19 420.46,-69.32 410.07,-67.26 411.05,-74.19"/>
</g>
<!-- Node16&#45;&gt;Node12 -->
<g id="edge23" class="edge">
<title>Node16&#45;&gt;Node12</title>
<path fill="none" stroke="midnightblue" d="M431.6,-336.37C433.86,-318.62 439.07,-277.67 442.13,-253.6"/>
<polygon fill="midnightblue" stroke="midnightblue" points="445.62,-253.95 443.41,-243.59 438.67,-253.07 445.62,-253.95"/>
</g>
<!-- Node16&#45;&gt;Node13 -->
<g id="edge22" class="edge">
<title>Node16&#45;&gt;Node13</title>
<path fill="none" stroke="midnightblue" d="M427.64,-336.3C416.87,-303.56 378.67,-187.38 363.64,-141.67"/>
<polygon fill="midnightblue" stroke="midnightblue" points="366.87,-140.29 360.42,-131.88 360.22,-142.48 366.87,-140.29"/>
</g>
<!-- Node17 -->
<g id="node17" class="node">
<title>Node17</title>
<g id="a_node17"><a xlink:href="rpc_8h.html" target="_top" xlink:title="Handles RPC calls.">
<polygon fill="white" stroke="black" points="509,-280.5 509,-299.5 550,-299.5 550,-280.5 509,-280.5"/>
<text text-anchor="middle" x="529.5" y="-287.5" font-family="Helvetica,sans-Serif" font-size="10.00">rpc.h</text>
</a>
</g>
</g>
<!-- Node16&#45;&gt;Node17 -->
<g id="edge25" class="edge">
<title>Node16&#45;&gt;Node17</title>
<path fill="none" stroke="midnightblue" d="M446.41,-336.32C462.14,-327.74 486.44,-314.49 504.71,-304.52"/>
<polygon fill="midnightblue" stroke="midnightblue" points="506.53,-307.52 513.63,-299.65 503.18,-301.37 506.53,-307.52"/>
</g>
<!-- Node17&#45;&gt;Node2 -->
<g id="edge32" class="edge">
<title>Node17&#45;&gt;Node2</title>
<path fill="none" stroke="midnightblue" d="M525.67,-299.59C517.71,-317.47 499.21,-359 488.52,-383"/>
<polygon fill="midnightblue" stroke="midnightblue" points="485.22,-381.81 484.34,-392.37 491.61,-384.66 485.22,-381.81"/>
</g>
<!-- Node17&#45;&gt;Node3 -->
<g id="edge26" class="edge">
<title>Node17&#45;&gt;Node3</title>
<path fill="none" stroke="midnightblue" d="M536.3,-280.4C556.95,-253.21 615.15,-167.61 576.5,-112 559.49,-87.52 527.49,-76.33 500.67,-71.23"/>
<polygon fill="midnightblue" stroke="midnightblue" points="501.13,-67.76 490.69,-69.56 499.97,-74.66 501.13,-67.76"/>
</g>
<!-- Node17&#45;&gt;Node11 -->
<g id="edge27" class="edge">
<title>Node17&#45;&gt;Node11</title>
<path fill="none" stroke="midnightblue" d="M550.02,-280.9C581.84,-267.14 642.23,-235.93 669.5,-188 699.23,-135.74 709.61,-63.77 712.99,-29.98"/>
<polygon fill="midnightblue" stroke="midnightblue" points="716.5,-29.98 713.91,-19.71 709.53,-29.36 716.5,-29.98"/>
</g>
<!-- Node17&#45;&gt;Node12 -->
<g id="edge30" class="edge">
<title>Node17&#45;&gt;Node12</title>
<path fill="none" stroke="midnightblue" d="M515.84,-280.32C502.58,-271.9 482.23,-258.97 466.65,-249.07"/>
<polygon fill="midnightblue" stroke="midnightblue" points="468.44,-246.06 458.12,-243.65 464.69,-251.97 468.44,-246.06"/>
</g>
<!-- Node17&#45;&gt;Node14 -->
<g id="edge31" class="edge">
<title>Node17&#45;&gt;Node14</title>
<path fill="none" stroke="midnightblue" d="M524.95,-280.37C515.46,-262.38 493.41,-220.55 480.79,-196.63"/>
<polygon fill="midnightblue" stroke="midnightblue" points="483.79,-194.8 476.03,-187.59 477.6,-198.07 483.79,-194.8"/>
</g>
<!-- Node18 -->
<g id="node18" class="node">
<title>Node18</title>
<g id="a_node18"><a xlink:href="alarm_8h.html" target="_top" xlink:title="Handles alarms.">
<polygon fill="white" stroke="black" points="606.5,-168.5 606.5,-187.5 660.5,-187.5 660.5,-168.5 606.5,-168.5"/>
<text text-anchor="middle" x="633.5" y="-175.5" font-family="Helvetica,sans-Serif" font-size="10.00">alarm.h</text>
</a>
</g>
</g>
<!-- Node17&#45;&gt;Node18 -->
<g id="edge28" class="edge">
<title>Node17&#45;&gt;Node18</title>
<path fill="none" stroke="midnightblue" d="M544.77,-280.43C558.38,-272.28 578.29,-259.05 592.5,-244 605.91,-229.79 617.4,-210.57 624.77,-196.72"/>
<polygon fill="midnightblue" stroke="midnightblue" points="627.93,-198.22 629.38,-187.73 621.7,-195.03 627.93,-198.22"/>
</g>
<!-- Node18&#45;&gt;Node3 -->
<g id="edge29" class="edge">
<title>Node18&#45;&gt;Node3</title>
<path fill="none" stroke="midnightblue" d="M632.71,-168.05C631,-154.07 625.68,-127.1 609.5,-112 580.06,-84.54 534.77,-73.74 500.91,-69.54"/>
<polygon fill="midnightblue" stroke="midnightblue" points="501.12,-66.05 490.8,-68.44 500.36,-73.01 501.12,-66.05"/>
</g>
</g>
</svg>
