<?xml version="1.0" encoding="UTF-8" standalone="no"?>
<!DOCTYPE svg PUBLIC "-//W3C//DTD SVG 1.1//EN"
 "http://www.w3.org/Graphics/SVG/1.1/DTD/svg11.dtd">
<!-- Generated by graphviz version 2.43.0 (0)
 -->
<!-- Title: ESP32BaseStation/src/networking.h Pages: 1 -->
<svg width="531pt" height="240pt"
 viewBox="0.00 0.00 530.60 240.00" xmlns="http://www.w3.org/2000/svg" xmlns:xlink="http://www.w3.org/1999/xlink">
<g id="graph0" class="graph" transform="scale(1 1) rotate(0) translate(4 236)">
<title>ESP32BaseStation/src/networking.h</title>
<polygon fill="white" stroke="transparent" points="-4,4 -4,-236 526.6,-236 526.6,4 -4,4"/>
<!-- Node1 -->
<g id="node1" class="node">
<title>Node1</title>
<g id="a_node1"><a xlink:title="Header file for networking.cpp.">
<polygon fill="#bfbfbf" stroke="black" points="262.6,-201.5 262.6,-231.5 384.6,-231.5 384.6,-201.5 262.6,-201.5"/>
<text text-anchor="start" x="270.6" y="-219.5" font-family="Helvetica,sans-Serif" font-size="10.00">ESP32BaseStation/src</text>
<text text-anchor="middle" x="323.6" y="-208.5" font-family="Helvetica,sans-Serif" font-size="10.00">/networking.h</text>
</a>
</g>
</g>
<!-- Node2 -->
<g id="node2" class="node">
<title>Node2</title>
<g id="a_node2"><a xlink:href="_e_s_p32_base_station_8ino.html" target="_top" xlink:title="Main file for a base station to connect to remote sensors on a farm.">
<polygon fill="white" stroke="black" points="102.6,-0.5 102.6,-30.5 264.6,-30.5 264.6,-0.5 102.6,-0.5"/>
<text text-anchor="start" x="110.6" y="-18.5" font-family="Helvetica,sans-Serif" font-size="10.00">ESP32BaseStation/ESP32Base</text>
<text text-anchor="middle" x="183.6" y="-7.5" font-family="Helvetica,sans-Serif" font-size="10.00">Station.ino</text>
</a>
</g>
</g>
<!-- Node1&#45;&gt;Node2 -->
<g id="edge1" class="edge">
<title>Node1&#45;&gt;Node2</title>
<path fill="none" stroke="midnightblue" d="M252.56,-207.06C226.47,-200.12 199.46,-187.59 183.6,-165 154.7,-123.86 169.83,-59.23 178.67,-30.77"/>
<polygon fill="midnightblue" stroke="midnightblue" points="251.95,-210.51 262.49,-209.45 253.59,-203.7 251.95,-210.51"/>
</g>
<!-- Node3 -->
<g id="node3" class="node">
<title>Node3</title>
<g id="a_node3"><a xlink:href="leds_8h.html" target="_top" xlink:title="Controls the LEDs on the unit.">
<polygon fill="white" stroke="black" points="14.6,-134.5 14.6,-164.5 136.6,-164.5 136.6,-134.5 14.6,-134.5"/>
<text text-anchor="start" x="22.6" y="-152.5" font-family="Helvetica,sans-Serif" font-size="10.00">ESP32BaseStation/src</text>
<text text-anchor="middle" x="75.6" y="-141.5" font-family="Helvetica,sans-Serif" font-size="10.00">/leds.h</text>
</a>
</g>
</g>
<!-- Node1&#45;&gt;Node3 -->
<g id="edge2" class="edge">
<title>Node1&#45;&gt;Node3</title>
<path fill="none" stroke="midnightblue" d="M260.33,-198.92C219.85,-188.31 167.92,-174.7 129.43,-164.61"/>
<polygon fill="midnightblue" stroke="midnightblue" points="259.53,-202.33 270.09,-201.48 261.3,-195.55 259.53,-202.33"/>
</g>
<!-- Node5 -->
<g id="node5" class="node">
<title>Node5</title>
<g id="a_node5"><a xlink:href="lora_8h.html" target="_top" xlink:title="File that handles the LoRa radio and PJON.">
<polygon fill="white" stroke="black" points="400.6,-67.5 400.6,-97.5 522.6,-97.5 522.6,-67.5 400.6,-67.5"/>
<text text-anchor="start" x="408.6" y="-85.5" font-family="Helvetica,sans-Serif" font-size="10.00">ESP32BaseStation/src</text>
<text text-anchor="middle" x="461.6" y="-74.5" font-family="Helvetica,sans-Serif" font-size="10.00">/lora.h</text>
</a>
</g>
</g>
<!-- Node1&#45;&gt;Node5 -->
<g id="edge5" class="edge">
<title>Node1&#45;&gt;Node5</title>
<path fill="none" stroke="midnightblue" d="M394.52,-204.62C417.39,-197.32 440.43,-185.17 454.6,-165 468.59,-145.08 462.87,-115.14 460.35,-97.63"/>
<polygon fill="midnightblue" stroke="midnightblue" points="393.37,-201.31 384.75,-207.47 395.33,-208.03 393.37,-201.31"/>
</g>
<!-- Node7 -->
<g id="node7" class="node">
<title>Node7</title>
<g id="a_node7"><a xlink:href="networking_8cpp.html" target="_top" xlink:title="File that handles connecting to WiFi and MQTT and staying connected.">
<polygon fill="white" stroke="black" points="332.6,-134.5 332.6,-164.5 454.6,-164.5 454.6,-134.5 332.6,-134.5"/>
<text text-anchor="start" x="340.6" y="-152.5" font-family="Helvetica,sans-Serif" font-size="10.00">ESP32BaseStation/src</text>
<text text-anchor="middle" x="393.6" y="-141.5" font-family="Helvetica,sans-Serif" font-size="10.00">/networking.cpp</text>
</a>
</g>
</g>
<!-- Node1&#45;&gt;Node7 -->
<g id="edge9" class="edge">
<title>Node1&#45;&gt;Node7</title>
<path fill="none" stroke="midnightblue" d="M346.41,-194.31C356.91,-184.56 369.09,-173.26 378.44,-164.58"/>
<polygon fill="midnightblue" stroke="midnightblue" points="343.73,-192.03 338.78,-201.4 348.49,-197.16 343.73,-192.03"/>
</g>
<!-- Node8 -->
<g id="node8" class="node">
<title>Node8</title>
<g id="a_node8"><a xlink:href="rpc_8h.html" target="_top" xlink:title="Handles RPC calls.">
<polygon fill="white" stroke="black" points="192.6,-134.5 192.6,-164.5 314.6,-164.5 314.6,-134.5 192.6,-134.5"/>
<text text-anchor="start" x="200.6" y="-152.5" font-family="Helvetica,sans-Serif" font-size="10.00">ESP32BaseStation/src</text>
<text text-anchor="middle" x="253.6" y="-141.5" font-family="Helvetica,sans-Serif" font-size="10.00">/rpc.h</text>
</a>
</g>
</g>
<!-- Node1&#45;&gt;Node8 -->
<g id="edge10" class="edge">
<title>Node1&#45;&gt;Node8</title>
<path fill="none" stroke="midnightblue" d="M300.78,-194.31C290.28,-184.56 278.11,-173.26 268.75,-164.58"/>
<polygon fill="midnightblue" stroke="midnightblue" points="298.7,-197.16 308.41,-201.4 303.46,-192.03 298.7,-197.16"/>
</g>
<!-- Node3&#45;&gt;Node2 -->
<g id="edge3" class="edge">
<title>Node3&#45;&gt;Node2</title>
<path fill="none" stroke="midnightblue" d="M35.63,-129.12C23.76,-121.23 12.19,-110.88 5.6,-98 -0.68,-85.73 -2.71,-77.99 5.6,-67 17.85,-50.79 61.45,-38.27 102.44,-29.75"/>
<polygon fill="midnightblue" stroke="midnightblue" points="33.9,-132.17 44.25,-134.44 37.58,-126.21 33.9,-132.17"/>
</g>
<!-- Node4 -->
<g id="node4" class="node">
<title>Node4</title>
<g id="a_node4"><a xlink:href="leds_8cpp.html" target="_top" xlink:title="Controls the LEDs on the unit.">
<polygon fill="white" stroke="black" points="14.6,-67.5 14.6,-97.5 136.6,-97.5 136.6,-67.5 14.6,-67.5"/>
<text text-anchor="start" x="22.6" y="-85.5" font-family="Helvetica,sans-Serif" font-size="10.00">ESP32BaseStation/src</text>
<text text-anchor="middle" x="75.6" y="-74.5" font-family="Helvetica,sans-Serif" font-size="10.00">/leds.cpp</text>
</a>
</g>
</g>
<!-- Node3&#45;&gt;Node4 -->
<g id="edge4" class="edge">
<title>Node3&#45;&gt;Node4</title>
<path fill="none" stroke="midnightblue" d="M75.6,-124.11C75.6,-115.15 75.6,-105.32 75.6,-97.58"/>
<polygon fill="midnightblue" stroke="midnightblue" points="72.1,-124.4 75.6,-134.4 79.1,-124.4 72.1,-124.4"/>
</g>
<!-- Node5&#45;&gt;Node1 -->
<g id="edge8" class="edge">
<title>Node5&#45;&gt;Node1</title>
<path fill="none" stroke="midnightblue" d="M476.56,-107.15C482.22,-124.69 484.29,-148.35 472.6,-165 453.07,-192.8 416.66,-205.37 384.65,-211.01"/>
<polygon fill="midnightblue" stroke="midnightblue" points="479.75,-105.7 472.89,-97.63 473.22,-108.22 479.75,-105.7"/>
</g>
<!-- Node5&#45;&gt;Node2 -->
<g id="edge6" class="edge">
<title>Node5&#45;&gt;Node2</title>
<path fill="none" stroke="midnightblue" d="M391.82,-65.19C346.29,-54.54 287.46,-40.78 243.95,-30.61"/>
<polygon fill="midnightblue" stroke="midnightblue" points="391.08,-68.61 401.62,-67.48 392.68,-61.79 391.08,-68.61"/>
</g>
<!-- Node6 -->
<g id="node6" class="node">
<title>Node6</title>
<g id="a_node6"><a xlink:href="lora_8cpp.html" target="_top" xlink:title="File that handles the LoRa radio and PJON.">
<polygon fill="white" stroke="black" points="400.6,-0.5 400.6,-30.5 522.6,-30.5 522.6,-0.5 400.6,-0.5"/>
<text text-anchor="start" x="408.6" y="-18.5" font-family="Helvetica,sans-Serif" font-size="10.00">ESP32BaseStation/src</text>
<text text-anchor="middle" x="461.6" y="-7.5" font-family="Helvetica,sans-Serif" font-size="10.00">/lora.cpp</text>
</a>
</g>
</g>
<!-- Node5&#45;&gt;Node6 -->
<g id="edge7" class="edge">
<title>Node5&#45;&gt;Node6</title>
<path fill="none" stroke="midnightblue" d="M461.6,-57.11C461.6,-48.15 461.6,-38.32 461.6,-30.58"/>
<polygon fill="midnightblue" stroke="midnightblue" points="458.1,-57.4 461.6,-67.4 465.1,-57.4 458.1,-57.4"/>
</g>
<!-- Node8&#45;&gt;Node2 -->
<g id="edge11" class="edge">
<title>Node8&#45;&gt;Node2</title>
<path fill="none" stroke="midnightblue" d="M238.2,-125.58C232.71,-117.06 226.64,-107.23 221.6,-98 209.01,-74.99 196.58,-47.08 189.52,-30.61"/>
<polygon fill="midnightblue" stroke="midnightblue" points="235.44,-127.76 243.85,-134.21 241.3,-123.93 235.44,-127.76"/>
</g>
<!-- Node8&#45;&gt;Node5 -->
<g id="edge12" class="edge">
<title>Node8&#45;&gt;Node5</title>
<path fill="none" stroke="midnightblue" d="M308.17,-131.44C341.89,-120.91 384.64,-107.55 416.44,-97.61"/>
<polygon fill="midnightblue" stroke="midnightblue" points="306.97,-128.15 298.47,-134.48 309.06,-134.83 306.97,-128.15"/>
</g>
<!-- Node9 -->
<g id="node9" class="node">
<title>Node9</title>
<g id="a_node9"><a xlink:href="rpc_8cpp.html" target="_top" xlink:title="Handles RPC calls.">
<polygon fill="white" stroke="black" points="230.6,-67.5 230.6,-97.5 352.6,-97.5 352.6,-67.5 230.6,-67.5"/>
<text text-anchor="start" x="238.6" y="-85.5" font-family="Helvetica,sans-Serif" font-size="10.00">ESP32BaseStation/src</text>
<text text-anchor="middle" x="291.6" y="-74.5" font-family="Helvetica,sans-Serif" font-size="10.00">/rpc.cpp</text>
</a>
</g>
</g>
<!-- Node8&#45;&gt;Node9 -->
<g id="edge13" class="edge">
<title>Node8&#45;&gt;Node9</title>
<path fill="none" stroke="midnightblue" d="M267,-125.58C272.45,-116.24 278.59,-105.75 283.37,-97.58"/>
<polygon fill="midnightblue" stroke="midnightblue" points="263.87,-124 261.84,-134.4 269.91,-127.53 263.87,-124"/>
</g>
</g>
</svg>
