<?xml version="1.0" encoding="UTF-8" standalone="no"?>
<!DOCTYPE svg PUBLIC "-//W3C//DTD SVG 1.1//EN"
 "http://www.w3.org/Graphics/SVG/1.1/DTD/svg11.dtd">
<!-- Generated by graphviz version 2.43.0 (0)
 -->
<!-- Title: BaseStationCode/src/src/networking.h Pages: 1 -->
<svg width="796pt" height="236pt"
 viewBox="0.00 0.00 795.92 236.00" xmlns="http://www.w3.org/2000/svg" xmlns:xlink="http://www.w3.org/1999/xlink">
<g id="graph0" class="graph" transform="scale(1 1) rotate(0) translate(4 232)">
<title>BaseStationCode/src/src/networking.h</title>
<!-- Node1 -->
<g id="Node000001" class="node">
<title>Node1</title>
<g id="a_Node000001"><a xlink:title="Header file for networking.cpp.">
<polygon fill="#999999" stroke="#666666" points="521.92,-228 404.92,-228 404.92,-198 521.92,-198 521.92,-228"/>
<text text-anchor="start" x="412.92" y="-216" font-family="Helvetica,sans-Serif" font-size="10.00">BaseStationCode/src</text>
<text text-anchor="middle" x="463.42" y="-205" font-family="Helvetica,sans-Serif" font-size="10.00">/src/networking.h</text>
</a>
</g>
</g>
<!-- Node2 -->
<g id="Node000002" class="node">
<title>Node2</title>
<g id="a_Node000002"><a xlink:href="main_8cpp.html" target="_top" xlink:title=" ">
<polygon fill="white" stroke="#666666" points="256.92,-30 139.92,-30 139.92,0 256.92,0 256.92,-30"/>
<text text-anchor="start" x="147.92" y="-18" font-family="Helvetica,sans-Serif" font-size="10.00">BaseStationCode/src</text>
<text text-anchor="middle" x="198.42" y="-7" font-family="Helvetica,sans-Serif" font-size="10.00">/main.cpp</text>
</a>
</g>
</g>
<!-- Node1&#45;&gt;Node2 -->
<g id="edge1_Node000001_Node000002" class="edge">
<title>Node1&#45;&gt;Node2</title>
<g id="a_edge1_Node000001_Node000002"><a xlink:title=" ">
<path fill="none" stroke="#63b8ff" d="M394.69,-206.23C330.95,-199.46 242.33,-186 217.42,-162 181.16,-127.06 189.45,-59.44 195.2,-30.12"/>
<polygon fill="#63b8ff" stroke="#63b8ff" points="394.38,-209.71 404.69,-207.26 395.1,-202.75 394.38,-209.71"/>
</a>
</g>
</g>
<!-- Node3 -->
<g id="Node000003" class="node">
<title>Node3</title>
<g id="a_Node000003"><a xlink:href="leds_8h.html" target="_top" xlink:title="Controls the LEDs on the unit.">
<polygon fill="white" stroke="#666666" points="131.92,-162 14.92,-162 14.92,-132 131.92,-132 131.92,-162"/>
<text text-anchor="start" x="22.92" y="-150" font-family="Helvetica,sans-Serif" font-size="10.00">BaseStationCode/src</text>
<text text-anchor="middle" x="73.42" y="-139" font-family="Helvetica,sans-Serif" font-size="10.00">/src/leds.h</text>
</a>
</g>
</g>
<!-- Node1&#45;&gt;Node3 -->
<g id="edge2_Node000001_Node000003" class="edge">
<title>Node1&#45;&gt;Node3</title>
<g id="a_edge2_Node000001_Node000003"><a xlink:title=" ">
<path fill="none" stroke="#63b8ff" d="M394.89,-201.86C330.61,-192.19 231.86,-176.93 146.42,-162 141.72,-161.18 136.85,-160.3 131.96,-159.4"/>
<polygon fill="#63b8ff" stroke="#63b8ff" points="394.49,-205.34 404.9,-203.36 395.53,-198.42 394.49,-205.34"/>
</a>
</g>
</g>
<!-- Node5 -->
<g id="Node000005" class="node">
<title>Node5</title>
<g id="a_Node000005"><a xlink:href="lora_8h.html" target="_top" xlink:title="File that handles the LoRa radio and PJON.">
<polygon fill="white" stroke="#666666" points="787.92,-96 670.92,-96 670.92,-66 787.92,-66 787.92,-96"/>
<text text-anchor="start" x="678.92" y="-84" font-family="Helvetica,sans-Serif" font-size="10.00">BaseStationCode/src</text>
<text text-anchor="middle" x="729.42" y="-73" font-family="Helvetica,sans-Serif" font-size="10.00">/src/lora.h</text>
</a>
</g>
</g>
<!-- Node1&#45;&gt;Node5 -->
<g id="edge5_Node000001_Node000005" class="edge">
<title>Node1&#45;&gt;Node5</title>
<g id="a_edge5_Node000001_Node000005"><a xlink:title=" ">
<path fill="none" stroke="#63b8ff" d="M498.01,-193.71C518.14,-184.51 543.77,-173 566.42,-162 592.17,-149.49 598.03,-145.23 623.42,-132 646.78,-119.83 673.37,-106.14 694.23,-96.16"/>
<polygon fill="#63b8ff" stroke="#63b8ff" points="496.52,-190.54 488.89,-197.9 499.44,-196.9 496.52,-190.54"/>
</a>
</g>
</g>
<!-- Node7 -->
<g id="Node000007" class="node">
<title>Node7</title>
<g id="a_Node000007"><a xlink:href="networking_8cpp.html" target="_top" xlink:title="File that handles connecting to WiFi and MQTT and staying connected.">
<polygon fill="white" stroke="#666666" points="478.92,-96 361.92,-96 361.92,-66 478.92,-66 478.92,-96"/>
<text text-anchor="start" x="369.92" y="-84" font-family="Helvetica,sans-Serif" font-size="10.00">BaseStationCode/src</text>
<text text-anchor="middle" x="420.42" y="-73" font-family="Helvetica,sans-Serif" font-size="10.00">/src/networking.cpp</text>
</a>
</g>
</g>
<!-- Node1&#45;&gt;Node7 -->
<g id="edge9_Node000001_Node000007" class="edge">
<title>Node1&#45;&gt;Node7</title>
<g id="a_edge9_Node000001_Node000007"><a xlink:title=" ">
<path fill="none" stroke="#63b8ff" d="M451.64,-188.77C447.72,-180.46 443.56,-170.94 440.42,-162 432.49,-139.44 426.4,-112.27 423.12,-96.11"/>
<polygon fill="#63b8ff" stroke="#63b8ff" points="448.54,-190.39 456.05,-197.85 454.83,-187.33 448.54,-190.39"/>
</a>
</g>
</g>
<!-- Node8 -->
<g id="Node000008" class="node">
<title>Node8</title>
<g id="a_Node000008"><a xlink:href="ota_8h.html" target="_top" xlink:title="Handles over the air (OTA) updates.">
<polygon fill="white" stroke="#666666" points="343.92,-162 226.92,-162 226.92,-132 343.92,-132 343.92,-162"/>
<text text-anchor="start" x="234.92" y="-150" font-family="Helvetica,sans-Serif" font-size="10.00">BaseStationCode/src</text>
<text text-anchor="middle" x="285.42" y="-139" font-family="Helvetica,sans-Serif" font-size="10.00">/src/ota.h</text>
</a>
</g>
</g>
<!-- Node1&#45;&gt;Node8 -->
<g id="edge10_Node000001_Node000008" class="edge">
<title>Node1&#45;&gt;Node8</title>
<g id="a_edge10_Node000001_Node000008"><a xlink:title=" ">
<path fill="none" stroke="#63b8ff" d="M414.63,-194.46C386.23,-184.25 350.92,-171.55 324.39,-162.01"/>
<polygon fill="#63b8ff" stroke="#63b8ff" points="413.76,-197.86 424.36,-197.95 416.13,-191.28 413.76,-197.86"/>
</a>
</g>
</g>
<!-- Node10 -->
<g id="Node000010" class="node">
<title>Node10</title>
<g id="a_Node000010"><a xlink:href="rpc_8h.html" target="_top" xlink:title="Handles RPC calls.">
<polygon fill="white" stroke="#666666" points="565.92,-162 448.92,-162 448.92,-132 565.92,-132 565.92,-162"/>
<text text-anchor="start" x="456.92" y="-150" font-family="Helvetica,sans-Serif" font-size="10.00">BaseStationCode/src</text>
<text text-anchor="middle" x="507.42" y="-139" font-family="Helvetica,sans-Serif" font-size="10.00">/src/rpc.h</text>
</a>
</g>
</g>
<!-- Node1&#45;&gt;Node10 -->
<g id="edge13_Node000001_Node000010" class="edge">
<title>Node1&#45;&gt;Node10</title>
<g id="a_edge13_Node000001_Node000010"><a xlink:title=" ">
<path fill="none" stroke="#63b8ff" d="M478.87,-189.53C485.13,-180.43 492.16,-170.19 497.68,-162.16"/>
<polygon fill="#63b8ff" stroke="#63b8ff" points="475.97,-187.57 473.19,-197.8 481.74,-191.54 475.97,-187.57"/>
</a>
</g>
</g>
<!-- Node12 -->
<g id="Node000012" class="node">
<title>Node12</title>
<g id="a_Node000012"><a xlink:href="timeseries_8cpp.html" target="_top" xlink:title=" ">
<polygon fill="white" stroke="#666666" points="757.92,-162 640.92,-162 640.92,-132 757.92,-132 757.92,-162"/>
<text text-anchor="start" x="648.92" y="-150" font-family="Helvetica,sans-Serif" font-size="10.00">BaseStationCode/src</text>
<text text-anchor="middle" x="699.42" y="-139" font-family="Helvetica,sans-Serif" font-size="10.00">/src/timeseries.cpp</text>
</a>
</g>
</g>
<!-- Node1&#45;&gt;Node12 -->
<g id="edge18_Node000001_Node000012" class="edge">
<title>Node1&#45;&gt;Node12</title>
<g id="a_edge18_Node000001_Node000012"><a xlink:title=" ">
<path fill="none" stroke="#63b8ff" d="M525.17,-195.25C563.3,-184.91 611.66,-171.8 647.75,-162.01"/>
<polygon fill="#63b8ff" stroke="#63b8ff" points="523.95,-191.96 515.21,-197.95 525.78,-198.72 523.95,-191.96"/>
</a>
</g>
</g>
<!-- Node3&#45;&gt;Node2 -->
<g id="edge3_Node000003_Node000002" class="edge">
<title>Node3&#45;&gt;Node2</title>
<g id="a_edge3_Node000003_Node000002"><a xlink:title=" ">
<path fill="none" stroke="#63b8ff" d="M37.99,-126.35C13.86,-110.41 -10.97,-87.18 5.42,-66 21.84,-44.79 89.13,-30.93 139.67,-23.3"/>
<polygon fill="#63b8ff" stroke="#63b8ff" points="36.45,-129.51 46.77,-131.88 40.18,-123.59 36.45,-129.51"/>
</a>
</g>
</g>
<!-- Node4 -->
<g id="Node000004" class="node">
<title>Node4</title>
<g id="a_Node000004"><a xlink:href="leds_8cpp.html" target="_top" xlink:title="Controls the LEDs on the unit.">
<polygon fill="white" stroke="#666666" points="131.92,-96 14.92,-96 14.92,-66 131.92,-66 131.92,-96"/>
<text text-anchor="start" x="22.92" y="-84" font-family="Helvetica,sans-Serif" font-size="10.00">BaseStationCode/src</text>
<text text-anchor="middle" x="73.42" y="-73" font-family="Helvetica,sans-Serif" font-size="10.00">/src/leds.cpp</text>
</a>
</g>
</g>
<!-- Node3&#45;&gt;Node4 -->
<g id="edge4_Node000003_Node000004" class="edge">
<title>Node3&#45;&gt;Node4</title>
<g id="a_edge4_Node000003_Node000004"><a xlink:title=" ">
<path fill="none" stroke="#63b8ff" d="M73.42,-121.54C73.42,-112.96 73.42,-103.61 73.42,-96.16"/>
<polygon fill="#63b8ff" stroke="#63b8ff" points="69.92,-121.8 73.42,-131.8 76.92,-121.8 69.92,-121.8"/>
</a>
</g>
</g>
<!-- Node5&#45;&gt;Node1 -->
<g id="edge8_Node000005_Node000001" class="edge">
<title>Node5&#45;&gt;Node1</title>
<g id="a_edge8_Node000005_Node000001"><a xlink:title=" ">
<path fill="none" stroke="#63b8ff" d="M700.34,-101.09C683.14,-110.38 661.13,-121.74 641.42,-132 616.03,-145.23 610.17,-149.49 584.42,-162 558.18,-174.75 527.95,-188.17 504.13,-197.9"/>
<polygon fill="#63b8ff" stroke="#63b8ff" points="702.26,-104.03 709.35,-96.16 698.9,-97.89 702.26,-104.03"/>
</a>
</g>
</g>
<!-- Node5&#45;&gt;Node2 -->
<g id="edge6_Node000005_Node000002" class="edge">
<title>Node5&#45;&gt;Node2</title>
<g id="a_edge6_Node000005_Node000002"><a xlink:title=" ">
<path fill="none" stroke="#63b8ff" d="M660.76,-65.83C510.22,-42.46 343.7,-27.45 257.26,-20.47"/>
<polygon fill="#63b8ff" stroke="#63b8ff" points="660.23,-69.29 670.66,-67.38 661.32,-62.37 660.23,-69.29"/>
</a>
</g>
</g>
<!-- Node6 -->
<g id="Node000006" class="node">
<title>Node6</title>
<g id="a_Node000006"><a xlink:href="lora_8cpp.html" target="_top" xlink:title="File that handles the LoRa radio and PJON.">
<polygon fill="white" stroke="#666666" points="787.92,-30 670.92,-30 670.92,0 787.92,0 787.92,-30"/>
<text text-anchor="start" x="678.92" y="-18" font-family="Helvetica,sans-Serif" font-size="10.00">BaseStationCode/src</text>
<text text-anchor="middle" x="729.42" y="-7" font-family="Helvetica,sans-Serif" font-size="10.00">/src/lora.cpp</text>
</a>
</g>
</g>
<!-- Node5&#45;&gt;Node6 -->
<g id="edge7_Node000005_Node000006" class="edge">
<title>Node5&#45;&gt;Node6</title>
<g id="a_edge7_Node000005_Node000006"><a xlink:title=" ">
<path fill="none" stroke="#63b8ff" d="M729.42,-55.54C729.42,-46.96 729.42,-37.61 729.42,-30.16"/>
<polygon fill="#63b8ff" stroke="#63b8ff" points="725.92,-55.8 729.42,-65.8 732.92,-55.8 725.92,-55.8"/>
</a>
</g>
</g>
<!-- Node8&#45;&gt;Node2 -->
<g id="edge11_Node000008_Node000002" class="edge">
<title>Node8&#45;&gt;Node2</title>
<g id="a_edge11_Node000008_Node000002"><a xlink:title=" ">
<path fill="none" stroke="#63b8ff" d="M249.38,-126.48C237.6,-118.47 225.49,-108.19 217.42,-96 204.02,-75.77 200.04,-47.13 198.88,-30.17"/>
<polygon fill="#63b8ff" stroke="#63b8ff" points="247.52,-129.45 257.83,-131.91 251.31,-123.56 247.52,-129.45"/>
</a>
</g>
</g>
<!-- Node9 -->
<g id="Node000009" class="node">
<title>Node9</title>
<g id="a_Node000009"><a xlink:href="ota_8cpp.html" target="_top" xlink:title="Handles over the air (OTA) updates.">
<polygon fill="white" stroke="#666666" points="343.92,-96 226.92,-96 226.92,-66 343.92,-66 343.92,-96"/>
<text text-anchor="start" x="234.92" y="-84" font-family="Helvetica,sans-Serif" font-size="10.00">BaseStationCode/src</text>
<text text-anchor="middle" x="285.42" y="-73" font-family="Helvetica,sans-Serif" font-size="10.00">/src/ota.cpp</text>
</a>
</g>
</g>
<!-- Node8&#45;&gt;Node9 -->
<g id="edge12_Node000008_Node000009" class="edge">
<title>Node8&#45;&gt;Node9</title>
<g id="a_edge12_Node000008_Node000009"><a xlink:title=" ">
<path fill="none" stroke="#63b8ff" d="M285.42,-121.54C285.42,-112.96 285.42,-103.61 285.42,-96.16"/>
<polygon fill="#63b8ff" stroke="#63b8ff" points="281.92,-121.8 285.42,-131.8 288.92,-121.8 281.92,-121.8"/>
</a>
</g>
</g>
<!-- Node10&#45;&gt;Node2 -->
<g id="edge14_Node000010_Node000002" class="edge">
<title>Node10&#45;&gt;Node2</title>
<g id="a_edge14_Node000010_Node000002"><a xlink:title=" ">
<path fill="none" stroke="#63b8ff" d="M508.31,-121.83C507.59,-103.88 503.48,-80.15 488.42,-66 455.79,-35.35 331.93,-23.23 257.04,-18.64"/>
<polygon fill="#63b8ff" stroke="#63b8ff" points="504.81,-121.9 508.39,-131.87 511.81,-121.84 504.81,-121.9"/>
</a>
</g>
</g>
<!-- Node10&#45;&gt;Node5 -->
<g id="edge15_Node000010_Node000005" class="edge">
<title>Node10&#45;&gt;Node5</title>
<g id="a_edge15_Node000010_Node000005"><a xlink:title=" ">
<path fill="none" stroke="#63b8ff" d="M565.97,-129.12C601.76,-118.8 647.01,-105.76 680.82,-96.01"/>
<polygon fill="#63b8ff" stroke="#63b8ff" points="564.78,-125.82 556.14,-131.95 566.72,-132.55 564.78,-125.82"/>
</a>
</g>
</g>
<!-- Node10&#45;&gt;Node7 -->
<g id="edge16_Node000010_Node000007" class="edge">
<title>Node10&#45;&gt;Node7</title>
<g id="a_edge16_Node000010_Node000007"><a xlink:title=" ">
<path fill="none" stroke="#63b8ff" d="M479.9,-125.75C466.81,-116.13 451.49,-104.86 439.67,-96.16"/>
<polygon fill="#63b8ff" stroke="#63b8ff" points="477.98,-128.69 488.11,-131.8 482.13,-123.05 477.98,-128.69"/>
</a>
</g>
</g>
<!-- Node11 -->
<g id="Node000011" class="node">
<title>Node11</title>
<g id="a_Node000011"><a xlink:href="rpc_8cpp.html" target="_top" xlink:title="Handles RPC calls.">
<polygon fill="white" stroke="#666666" points="652.92,-96 535.92,-96 535.92,-66 652.92,-66 652.92,-96"/>
<text text-anchor="start" x="543.92" y="-84" font-family="Helvetica,sans-Serif" font-size="10.00">BaseStationCode/src</text>
<text text-anchor="middle" x="594.42" y="-73" font-family="Helvetica,sans-Serif" font-size="10.00">/src/rpc.cpp</text>
</a>
</g>
</g>
<!-- Node10&#45;&gt;Node11 -->
<g id="edge17_Node000010_Node000011" class="edge">
<title>Node10&#45;&gt;Node11</title>
<g id="a_edge17_Node000010_Node000011"><a xlink:title=" ">
<path fill="none" stroke="#63b8ff" d="M534.94,-125.75C548.03,-116.13 563.35,-104.86 575.17,-96.16"/>
<polygon fill="#63b8ff" stroke="#63b8ff" points="532.71,-123.05 526.73,-131.8 536.86,-128.69 532.71,-123.05"/>
</a>
</g>
</g>
</g>
</svg>
