<?xml version="1.0" encoding="UTF-8" standalone="no"?>
<!DOCTYPE svg PUBLIC "-//W3C//DTD SVG 1.1//EN"
 "http://www.w3.org/Graphics/SVG/1.1/DTD/svg11.dtd">
<!-- Generated by graphviz version 2.43.0 (0)
 -->
<!-- Title: BaseStationCode/src/src/networking.h Pages: 1 -->
<svg width="565pt" height="423pt"
 viewBox="0.00 0.00 564.50 423.00" xmlns="http://www.w3.org/2000/svg" xmlns:xlink="http://www.w3.org/1999/xlink">
<g id="graph0" class="graph" transform="scale(1 1) rotate(0) translate(4 419)">
<title>BaseStationCode/src/src/networking.h</title>
<!-- Node1 -->
<g id="Node000001" class="node">
<title>Node1</title>
<g id="a_Node000001"><a xlink:title="Header file for networking.cpp.">
<polygon fill="#999999" stroke="#666666" points="350,-415 233,-415 233,-385 350,-385 350,-415"/>
<text text-anchor="start" x="241" y="-403" font-family="Helvetica,sans-Serif" font-size="10.00">BaseStationCode/src</text>
<text text-anchor="middle" x="291.5" y="-392" font-family="Helvetica,sans-Serif" font-size="10.00">/src/networking.h</text>
</a>
</g>
</g>
<!-- Node2 -->
<g id="Node000002" class="node">
<title>Node2</title>
<g id="a_Node000002"><a xlink:href="defines_8h.html" target="_top" xlink:title="Definitions and other preprocessor and global stuff.">
<polygon fill="white" stroke="#666666" points="335.5,-74 265.5,-74 265.5,-55 335.5,-55 335.5,-74"/>
<text text-anchor="middle" x="300.5" y="-62" font-family="Helvetica,sans-Serif" font-size="10.00">../defines.h</text>
</a>
</g>
</g>
<!-- Node1&#45;&gt;Node2 -->
<g id="edge1_Node000001_Node000002" class="edge">
<title>Node1&#45;&gt;Node2</title>
<g id="a_edge1_Node000001_Node000002"><a xlink:title=" ">
<path fill="none" stroke="#63b8ff" d="M350.11,-396.8C422.87,-390.56 537.5,-367.69 537.5,-285.5 537.5,-285.5 537.5,-285.5 537.5,-228.5 537.5,-136.28 414.17,-92.29 345.45,-74.93"/>
<polygon fill="#63b8ff" stroke="#63b8ff" points="346.27,-71.53 335.73,-72.56 344.61,-78.33 346.27,-71.53"/>
</a>
</g>
</g>
<!-- Node9 -->
<g id="Node000009" class="node">
<title>Node9</title>
<g id="a_Node000009"><a xlink:href="devices_8h.html" target="_top" xlink:title="Devices and manager for all known devices the base station connects to.">
<polygon fill="white" stroke="#666666" points="287,-239 224,-239 224,-220 287,-220 287,-239"/>
<text text-anchor="middle" x="255.5" y="-227" font-family="Helvetica,sans-Serif" font-size="10.00">devices.h</text>
</a>
</g>
</g>
<!-- Node1&#45;&gt;Node9 -->
<g id="edge8_Node000001_Node000009" class="edge">
<title>Node1&#45;&gt;Node9</title>
<g id="a_edge8_Node000001_Node000009"><a xlink:title=" ">
<path fill="none" stroke="#63b8ff" d="M288.49,-384.92C282.02,-354.65 266.79,-283.35 259.51,-249.27"/>
<polygon fill="#63b8ff" stroke="#63b8ff" points="262.88,-248.3 257.37,-239.25 256.04,-249.77 262.88,-248.3"/>
</a>
</g>
</g>
<!-- Node13 -->
<g id="Node000013" class="node">
<title>Node13</title>
<g id="a_Node000013"><a xlink:href="lora_8h.html" target="_top" xlink:title="File that handles the LoRa radio and PJON.">
<polygon fill="white" stroke="#666666" points="263.5,-349 219.5,-349 219.5,-330 263.5,-330 263.5,-349"/>
<text text-anchor="middle" x="241.5" y="-337" font-family="Helvetica,sans-Serif" font-size="10.00">lora.h</text>
</a>
</g>
</g>
<!-- Node1&#45;&gt;Node13 -->
<g id="edge17_Node000001_Node000013" class="edge">
<title>Node1&#45;&gt;Node13</title>
<g id="a_edge17_Node000001_Node000013"><a xlink:title=" ">
<path fill="none" stroke="#63b8ff" d="M273.52,-384.84C265.44,-376.61 256.42,-366.18 249.84,-357.51"/>
<polygon fill="#63b8ff" stroke="#63b8ff" points="252.64,-355.41 244.01,-349.27 246.93,-359.45 252.64,-355.41"/>
</a>
</g>
</g>
<!-- Node3 -->
<g id="Node000003" class="node">
<title>Node3</title>
<g id="a_Node000003"><a xlink:title=" ">
<polygon fill="#e0e0e0" stroke="#999999" points="293,-19 230,-19 230,0 293,0 293,-19"/>
<text text-anchor="middle" x="261.5" y="-7" font-family="Helvetica,sans-Serif" font-size="10.00">Arduino.h</text>
</a>
</g>
</g>
<!-- Node2&#45;&gt;Node3 -->
<g id="edge2_Node000002_Node000003" class="edge">
<title>Node2&#45;&gt;Node3</title>
<g id="a_edge2_Node000002_Node000003"><a xlink:title=" ">
<path fill="none" stroke="#63b8ff" d="M294.06,-54.75C288.61,-47.34 280.64,-36.5 273.94,-27.41"/>
<polygon fill="#63b8ff" stroke="#63b8ff" points="276.57,-25.07 267.82,-19.09 270.93,-29.22 276.57,-25.07"/>
</a>
</g>
</g>
<!-- Node4 -->
<g id="Node000004" class="node">
<title>Node4</title>
<g id="a_Node000004"><a xlink:title=" ">
<polygon fill="#e0e0e0" stroke="#999999" points="358,-19 311,-19 311,0 358,0 358,-19"/>
<text text-anchor="middle" x="334.5" y="-7" font-family="Helvetica,sans-Serif" font-size="10.00">WiFi.h</text>
</a>
</g>
</g>
<!-- Node2&#45;&gt;Node4 -->
<g id="edge3_Node000002_Node000004" class="edge">
<title>Node2&#45;&gt;Node4</title>
<g id="a_edge3_Node000002_Node000004"><a xlink:title=" ">
<path fill="none" stroke="#63b8ff" d="M306.11,-54.75C310.82,-47.42 317.67,-36.73 323.47,-27.7"/>
<polygon fill="#63b8ff" stroke="#63b8ff" points="326.54,-29.4 328.99,-19.09 320.64,-25.62 326.54,-29.4"/>
</a>
</g>
</g>
<!-- Node5 -->
<g id="Node000005" class="node">
<title>Node5</title>
<g id="a_Node000005"><a xlink:title=" ">
<polygon fill="#e0e0e0" stroke="#999999" points="466.5,-19 376.5,-19 376.5,0 466.5,0 466.5,-19"/>
<text text-anchor="middle" x="421.5" y="-7" font-family="Helvetica,sans-Serif" font-size="10.00">PubSubClient.h</text>
</a>
</g>
</g>
<!-- Node2&#45;&gt;Node5 -->
<g id="edge4_Node000002_Node000005" class="edge">
<title>Node2&#45;&gt;Node5</title>
<g id="a_edge4_Node000002_Node000005"><a xlink:title=" ">
<path fill="none" stroke="#63b8ff" d="M319.94,-54.98C339.49,-46.42 369.88,-33.11 392.32,-23.28"/>
<polygon fill="#63b8ff" stroke="#63b8ff" points="393.95,-26.39 401.71,-19.17 391.14,-19.98 393.95,-26.39"/>
</a>
</g>
</g>
<!-- Node6 -->
<g id="Node000006" class="node">
<title>Node6</title>
<g id="a_Node000006"><a xlink:title=" ">
<polygon fill="#e0e0e0" stroke="#999999" points="83,-19 0,-19 0,0 83,0 83,-19"/>
<text text-anchor="middle" x="41.5" y="-7" font-family="Helvetica,sans-Serif" font-size="10.00">ArduinoJson.h</text>
</a>
</g>
</g>
<!-- Node2&#45;&gt;Node6 -->
<g id="edge5_Node000002_Node000006" class="edge">
<title>Node2&#45;&gt;Node6</title>
<g id="a_edge5_Node000002_Node000006"><a xlink:title=" ">
<path fill="none" stroke="#63b8ff" d="M265.3,-56.3C220.82,-47.2 143.94,-31.46 92.89,-21.02"/>
<polygon fill="#63b8ff" stroke="#63b8ff" points="93.55,-17.58 83.05,-19 92.14,-24.44 93.55,-17.58"/>
</a>
</g>
</g>
<!-- Node7 -->
<g id="Node000007" class="node">
<title>Node7</title>
<g id="a_Node000007"><a xlink:title=" ">
<polygon fill="#e0e0e0" stroke="#999999" points="211.5,-19 101.5,-19 101.5,0 211.5,0 211.5,-19"/>
<text text-anchor="middle" x="156.5" y="-7" font-family="Helvetica,sans-Serif" font-size="10.00">PJONThroughLora.h</text>
</a>
</g>
</g>
<!-- Node2&#45;&gt;Node7 -->
<g id="edge6_Node000002_Node000007" class="edge">
<title>Node2&#45;&gt;Node7</title>
<g id="a_edge6_Node000002_Node000007"><a xlink:title=" ">
<path fill="none" stroke="#63b8ff" d="M277.36,-54.98C253.68,-46.27 216.63,-32.63 189.79,-22.75"/>
<polygon fill="#63b8ff" stroke="#63b8ff" points="190.65,-19.34 180.06,-19.17 188.23,-25.91 190.65,-19.34"/>
</a>
</g>
</g>
<!-- Node8 -->
<g id="Node000008" class="node">
<title>Node8</title>
<g id="a_Node000008"><a xlink:href="topics_8h.html" target="_top" xlink:title="MQTT topics for a thingsboard gateway.">
<polygon fill="white" stroke="#666666" points="556.5,-19 484.5,-19 484.5,0 556.5,0 556.5,-19"/>
<text text-anchor="middle" x="520.5" y="-7" font-family="Helvetica,sans-Serif" font-size="10.00">src/topics.h</text>
</a>
</g>
</g>
<!-- Node2&#45;&gt;Node8 -->
<g id="edge7_Node000002_Node000008" class="edge">
<title>Node2&#45;&gt;Node8</title>
<g id="a_edge7_Node000002_Node000008"><a xlink:title=" ">
<path fill="none" stroke="#63b8ff" d="M335.85,-54.98C373.66,-45.87 433.76,-31.4 475.07,-21.45"/>
<polygon fill="#63b8ff" stroke="#63b8ff" points="475.97,-24.83 484.88,-19.08 474.33,-18.02 475.97,-24.83"/>
</a>
</g>
</g>
<!-- Node9&#45;&gt;Node2 -->
<g id="edge9_Node000009_Node000002" class="edge">
<title>Node9&#45;&gt;Node2</title>
<g id="a_edge9_Node000009_Node000002"><a xlink:title=" ">
<path fill="none" stroke="#63b8ff" d="M252.39,-219.75C248.45,-207.39 242.71,-184.19 247.5,-165 255.32,-133.67 275.08,-101.39 288.14,-82.4"/>
<polygon fill="#63b8ff" stroke="#63b8ff" points="291.01,-84.4 293.93,-74.21 285.3,-80.36 291.01,-84.4"/>
</a>
</g>
</g>
<!-- Node10 -->
<g id="Node000010" class="node">
<title>Node10</title>
<g id="a_Node000010"><a xlink:href="lookups_8h.html" target="_top" xlink:title="Lookupable and lookupable manager base classes.">
<polygon fill="white" stroke="#666666" points="200,-129 137,-129 137,-110 200,-110 200,-129"/>
<text text-anchor="middle" x="168.5" y="-117" font-family="Helvetica,sans-Serif" font-size="10.00">lookups.h</text>
</a>
</g>
</g>
<!-- Node9&#45;&gt;Node10 -->
<g id="edge10_Node000009_Node000010" class="edge">
<title>Node9&#45;&gt;Node10</title>
<g id="a_edge10_Node000009_Node000010"><a xlink:title=" ">
<path fill="none" stroke="#63b8ff" d="M247.02,-219.91C238.5,-211.14 225.14,-197.01 214.5,-184 202.15,-168.91 189.22,-150.83 180.23,-137.82"/>
<polygon fill="#63b8ff" stroke="#63b8ff" points="182.97,-135.64 174.44,-129.37 177.2,-139.6 182.97,-135.64"/>
</a>
</g>
</g>
<!-- Node11 -->
<g id="Node000011" class="node">
<title>Node11</title>
<g id="a_Node000011"><a xlink:href="fields_8h.html" target="_top" xlink:title="Contains fields classes.">
<polygon fill="white" stroke="#666666" points="308.5,-184 256.5,-184 256.5,-165 308.5,-165 308.5,-184"/>
<text text-anchor="middle" x="282.5" y="-172" font-family="Helvetica,sans-Serif" font-size="10.00">fields.h</text>
</a>
</g>
</g>
<!-- Node9&#45;&gt;Node11 -->
<g id="edge12_Node000009_Node000011" class="edge">
<title>Node9&#45;&gt;Node11</title>
<g id="a_edge12_Node000009_Node000011"><a xlink:title=" ">
<path fill="none" stroke="#63b8ff" d="M259.96,-219.75C263.62,-212.57 268.91,-202.18 273.45,-193.27"/>
<polygon fill="#63b8ff" stroke="#63b8ff" points="276.7,-194.59 278.12,-184.09 270.47,-191.41 276.7,-194.59"/>
</a>
</g>
</g>
<!-- Node10&#45;&gt;Node2 -->
<g id="edge11_Node000010_Node000002" class="edge">
<title>Node10&#45;&gt;Node2</title>
<g id="a_edge11_Node000010_Node000002"><a xlink:title=" ">
<path fill="none" stroke="#63b8ff" d="M189.71,-109.98C211.23,-101.34 244.78,-87.87 269.33,-78.02"/>
<polygon fill="#63b8ff" stroke="#63b8ff" points="270.93,-81.14 278.91,-74.17 268.32,-74.65 270.93,-81.14"/>
</a>
</g>
</g>
<!-- Node11&#45;&gt;Node2 -->
<g id="edge13_Node000011_Node000002" class="edge">
<title>Node11&#45;&gt;Node2</title>
<g id="a_edge13_Node000011_Node000002"><a xlink:title=" ">
<path fill="none" stroke="#63b8ff" d="M282.15,-164.78C281.83,-152.46 281.86,-129.31 285.5,-110 287.18,-101.09 290.23,-91.52 293.15,-83.54"/>
<polygon fill="#63b8ff" stroke="#63b8ff" points="296.43,-84.76 296.77,-74.17 289.9,-82.24 296.43,-84.76"/>
</a>
</g>
</g>
<!-- Node11&#45;&gt;Node10 -->
<g id="edge14_Node000011_Node000010" class="edge">
<title>Node11&#45;&gt;Node10</title>
<g id="a_edge14_Node000011_Node000010"><a xlink:title=" ">
<path fill="none" stroke="#63b8ff" d="M264.18,-164.98C245.84,-156.46 217.39,-143.23 196.27,-133.41"/>
<polygon fill="#63b8ff" stroke="#63b8ff" points="197.69,-130.21 187.15,-129.17 194.74,-136.56 197.69,-130.21"/>
</a>
</g>
</g>
<!-- Node12 -->
<g id="Node000012" class="node">
<title>Node12</title>
<g id="a_Node000012"><a xlink:href="conversions_8h.html" target="_top" xlink:title="General functions for converting to and from char arrays.">
<polygon fill="white" stroke="#666666" points="378.5,-129 294.5,-129 294.5,-110 378.5,-110 378.5,-129"/>
<text text-anchor="middle" x="336.5" y="-117" font-family="Helvetica,sans-Serif" font-size="10.00">conversions.h</text>
</a>
</g>
</g>
<!-- Node11&#45;&gt;Node12 -->
<g id="edge15_Node000011_Node000012" class="edge">
<title>Node11&#45;&gt;Node12</title>
<g id="a_edge15_Node000011_Node000012"><a xlink:title=" ">
<path fill="none" stroke="#63b8ff" d="M291.42,-164.75C299.28,-157.03 310.93,-145.6 320.42,-136.28"/>
<polygon fill="#63b8ff" stroke="#63b8ff" points="323.06,-138.59 327.75,-129.09 318.16,-133.6 323.06,-138.59"/>
</a>
</g>
</g>
<!-- Node12&#45;&gt;Node2 -->
<g id="edge16_Node000012_Node000002" class="edge">
<title>Node12&#45;&gt;Node2</title>
<g id="a_edge16_Node000012_Node000002"><a xlink:title=" ">
<path fill="none" stroke="#63b8ff" d="M330.56,-109.75C325.52,-102.34 318.16,-91.5 311.99,-82.41"/>
<polygon fill="#63b8ff" stroke="#63b8ff" points="314.85,-80.39 306.33,-74.09 309.06,-84.33 314.85,-80.39"/>
</a>
</g>
</g>
<!-- Node13&#45;&gt;Node1 -->
<g id="edge21_Node000013_Node000001" class="edge">
<title>Node13&#45;&gt;Node1</title>
<g id="a_edge21_Node000013_Node000001"><a xlink:title=" ">
<path fill="none" stroke="#63b8ff" d="M253.98,-349.27C261.74,-356.54 271.39,-367.21 279.1,-376.8"/>
<polygon fill="#63b8ff" stroke="#63b8ff" points="276.41,-379.04 285.27,-384.84 281.96,-374.78 276.41,-379.04"/>
</a>
</g>
</g>
<!-- Node13&#45;&gt;Node2 -->
<g id="edge18_Node000013_Node000002" class="edge">
<title>Node13&#45;&gt;Node2</title>
<g id="a_edge18_Node000013_Node000002"><a xlink:title=" ">
<path fill="none" stroke="#63b8ff" d="M219.24,-331.83C181.38,-318.96 108.5,-286.87 108.5,-230.5 108.5,-230.5 108.5,-230.5 108.5,-173.5 108.5,-144.04 106.27,-130.42 127.5,-110 161.52,-77.28 216.23,-67.74 255.01,-65.38"/>
<polygon fill="#63b8ff" stroke="#63b8ff" points="255.67,-68.85 265.5,-64.89 255.34,-61.86 255.67,-68.85"/>
</a>
</g>
</g>
<!-- Node13&#45;&gt;Node9 -->
<g id="edge20_Node000013_Node000009" class="edge">
<title>Node13&#45;&gt;Node9</title>
<g id="a_edge20_Node000013_Node000009"><a xlink:title=" ">
<path fill="none" stroke="#63b8ff" d="M242.65,-329.66C244.91,-312.17 250.02,-272.8 253.07,-249.27"/>
<polygon fill="#63b8ff" stroke="#63b8ff" points="256.56,-249.53 254.38,-239.16 249.62,-248.63 256.56,-249.53"/>
</a>
</g>
</g>
<!-- Node13&#45;&gt;Node10 -->
<g id="edge19_Node000013_Node000010" class="edge">
<title>Node13&#45;&gt;Node10</title>
<g id="a_edge19_Node000013_Node000010"><a xlink:title=" ">
<path fill="none" stroke="#63b8ff" d="M238.64,-329.95C227.87,-297.81 189.67,-183.72 174.64,-138.83"/>
<polygon fill="#63b8ff" stroke="#63b8ff" points="177.92,-137.59 171.42,-129.22 171.28,-139.82 177.92,-137.59"/>
</a>
</g>
</g>
<!-- Node14 -->
<g id="Node000014" class="node">
<title>Node14</title>
<g id="a_Node000014"><a xlink:href="rpc_8h.html" target="_top" xlink:title="Handles RPC calls.">
<polygon fill="white" stroke="#666666" points="361,-294 320,-294 320,-275 361,-275 361,-294"/>
<text text-anchor="middle" x="340.5" y="-282" font-family="Helvetica,sans-Serif" font-size="10.00">rpc.h</text>
</a>
</g>
</g>
<!-- Node13&#45;&gt;Node14 -->
<g id="edge22_Node000013_Node000014" class="edge">
<title>Node13&#45;&gt;Node14</title>
<g id="a_edge22_Node000013_Node000014"><a xlink:title=" ">
<path fill="none" stroke="#63b8ff" d="M257.41,-329.98C273.05,-321.61 297.16,-308.7 315.38,-298.95"/>
<polygon fill="#63b8ff" stroke="#63b8ff" points="317.14,-301.98 324.3,-294.17 313.84,-295.8 317.14,-301.98"/>
</a>
</g>
</g>
<!-- Node14&#45;&gt;Node1 -->
<g id="edge29_Node000014_Node000001" class="edge">
<title>Node14&#45;&gt;Node1</title>
<g id="a_edge29_Node000014_Node000001"><a xlink:title=" ">
<path fill="none" stroke="#63b8ff" d="M336.73,-294.23C329.32,-311.41 312.61,-350.11 301.7,-375.36"/>
<polygon fill="#63b8ff" stroke="#63b8ff" points="298.46,-374.06 297.71,-384.63 304.88,-376.83 298.46,-374.06"/>
</a>
</g>
</g>
<!-- Node14&#45;&gt;Node2 -->
<g id="edge23_Node000014_Node000002" class="edge">
<title>Node14&#45;&gt;Node2</title>
<g id="a_edge23_Node000014_Node000002"><a xlink:title=" ">
<path fill="none" stroke="#63b8ff" d="M347.25,-274.89C367.14,-248.38 422.02,-166.44 387.5,-110 378.03,-94.51 361.27,-84.2 344.98,-77.44"/>
<polygon fill="#63b8ff" stroke="#63b8ff" points="346.09,-74.12 335.5,-73.86 343.62,-80.67 346.09,-74.12"/>
</a>
</g>
</g>
<!-- Node14&#45;&gt;Node8 -->
<g id="edge24_Node000014_Node000008" class="edge">
<title>Node14&#45;&gt;Node8</title>
<g id="a_edge24_Node000014_Node000008"><a xlink:title=" ">
<path fill="none" stroke="#63b8ff" d="M361.13,-275.68C393.1,-262.33 453.69,-231.87 480.5,-184 509.14,-132.85 517.3,-62.27 519.6,-29.12"/>
<polygon fill="#63b8ff" stroke="#63b8ff" points="523.1,-29.24 520.2,-19.05 516.12,-28.82 523.1,-29.24"/>
</a>
</g>
</g>
<!-- Node14&#45;&gt;Node9 -->
<g id="edge27_Node000014_Node000009" class="edge">
<title>Node14&#45;&gt;Node9</title>
<g id="a_edge27_Node000014_Node000009"><a xlink:title=" ">
<path fill="none" stroke="#63b8ff" d="M326.84,-274.98C313.66,-266.77 293.47,-254.18 277.93,-244.49"/>
<polygon fill="#63b8ff" stroke="#63b8ff" points="279.74,-241.49 269.41,-239.17 276.04,-247.43 279.74,-241.49"/>
</a>
</g>
</g>
<!-- Node14&#45;&gt;Node11 -->
<g id="edge28_Node000014_Node000011" class="edge">
<title>Node14&#45;&gt;Node11</title>
<g id="a_edge28_Node000014_Node000011"><a xlink:title=" ">
<path fill="none" stroke="#63b8ff" d="M335.75,-274.66C326.19,-256.85 304.45,-216.37 291.9,-193.01"/>
<polygon fill="#63b8ff" stroke="#63b8ff" points="294.96,-191.31 287.15,-184.16 288.8,-194.62 294.96,-191.31"/>
</a>
</g>
</g>
<!-- Node15 -->
<g id="Node000015" class="node">
<title>Node15</title>
<g id="a_Node000015"><a xlink:href="alarm_8h.html" target="_top" xlink:title="Handles alarms.">
<polygon fill="white" stroke="#666666" points="471.5,-184 417.5,-184 417.5,-165 471.5,-165 471.5,-184"/>
<text text-anchor="middle" x="444.5" y="-172" font-family="Helvetica,sans-Serif" font-size="10.00">alarm.h</text>
</a>
</g>
</g>
<!-- Node14&#45;&gt;Node15 -->
<g id="edge25_Node000014_Node000015" class="edge">
<title>Node14&#45;&gt;Node15</title>
<g id="a_edge25_Node000014_Node000015"><a xlink:title=" ">
<path fill="none" stroke="#63b8ff" d="M356,-274.87C369.58,-266.79 389.32,-253.79 403.5,-239 416.67,-225.27 428.08,-206.71 435.49,-193.21"/>
<polygon fill="#63b8ff" stroke="#63b8ff" points="438.77,-194.51 440.35,-184.03 432.58,-191.23 438.77,-194.51"/>
</a>
</g>
</g>
<!-- Node15&#45;&gt;Node2 -->
<g id="edge26_Node000015_Node000002" class="edge">
<title>Node15&#45;&gt;Node2</title>
<g id="a_edge26_Node000015_Node000002"><a xlink:title=" ">
<path fill="none" stroke="#63b8ff" d="M443.52,-164.88C441.55,-151.4 435.88,-125.29 420.5,-110 400.41,-90.04 370.59,-78.92 345.7,-72.79"/>
<polygon fill="#63b8ff" stroke="#63b8ff" points="346.25,-69.33 335.73,-70.53 344.71,-76.16 346.25,-69.33"/>
</a>
</g>
</g>
</g>
</svg>
