<?xml version="1.0" encoding="UTF-8" standalone="no"?>
<!DOCTYPE svg PUBLIC "-//W3C//DTD SVG 1.1//EN"
 "http://www.w3.org/Graphics/SVG/1.1/DTD/svg11.dtd">
<!-- Generated by graphviz version 2.43.0 (0)
 -->
<!-- Title: mqttConnect Pages: 1 -->
<svg width="614pt" height="180pt"
 viewBox="0.00 0.00 614.00 180.00" xmlns="http://www.w3.org/2000/svg" xmlns:xlink="http://www.w3.org/1999/xlink">
<g id="graph0" class="graph" transform="scale(1 1) rotate(0) translate(4 176)">
<title>mqttConnect</title>
<polygon fill="white" stroke="transparent" points="-4,4 -4,-176 610,-176 610,4 -4,4"/>
<!-- Node1 -->
<g id="node1" class="node">
<title>Node1</title>
<g id="a_node1"><a xlink:title="Connects to the MQTT broker.">
<polygon fill="#bfbfbf" stroke="black" points="0,-57.5 0,-76.5 80,-76.5 80,-57.5 0,-57.5"/>
<text text-anchor="middle" x="40" y="-64.5" font-family="Helvetica,sans-Serif" font-size="10.00">mqttConnect</text>
</a>
</g>
</g>
<!-- Node2 -->
<g id="node2" class="node">
<title>Node2</title>
<g id="a_node2"><a xlink:href="class_device_manager.html#ac06f3334d0776ed6fd7fd0f71248d6b3" target="_top" xlink:title="Registers each device to Thingsboard over MQTT.">
<polygon fill="white" stroke="black" points="116,-114.5 116,-133.5 292,-133.5 292,-114.5 116,-114.5"/>
<text text-anchor="middle" x="204" y="-121.5" font-family="Helvetica,sans-Serif" font-size="10.00">DeviceManager::connectDevices</text>
</a>
</g>
</g>
<!-- Node1&#45;&gt;Node2 -->
<g id="edge1" class="edge">
<title>Node1&#45;&gt;Node2</title>
<path fill="none" stroke="midnightblue" d="M56.86,-76.53C71.69,-85.08 94.69,-97.41 116,-105 123.37,-107.62 131.23,-109.95 139.1,-112"/>
<polygon fill="midnightblue" stroke="midnightblue" points="138.48,-115.46 149.03,-114.45 140.15,-108.66 138.48,-115.46"/>
</g>
<!-- Node3 -->
<g id="node3" class="node">
<title>Node3</title>
<g id="a_node3"><a xlink:href="networking_8cpp.html#a91d98374ed6fc205a7a2c9e2ef00dd97" target="_top" xlink:title=" ">
<polygon fill="white" stroke="black" points="161.5,-76.5 161.5,-95.5 246.5,-95.5 246.5,-76.5 161.5,-76.5"/>
<text text-anchor="middle" x="204" y="-83.5" font-family="Helvetica,sans-Serif" font-size="10.00">mqttReceived</text>
</a>
</g>
</g>
<!-- Node1&#45;&gt;Node3 -->
<g id="edge2" class="edge">
<title>Node1&#45;&gt;Node3</title>
<path fill="none" stroke="midnightblue" d="M80.22,-71.6C101.59,-74.11 128.3,-77.24 151.35,-79.94"/>
<polygon fill="midnightblue" stroke="midnightblue" points="150.97,-83.42 161.31,-81.11 151.79,-76.47 150.97,-83.42"/>
</g>
<!-- Node10 -->
<g id="node10" class="node">
<title>Node10</title>
<g id="a_node10"><a xlink:href="networking_8cpp.html#ab2d5192ed1436350b19a2a4ccb2053c3" target="_top" xlink:title="Subscribes to the required topics.">
<polygon fill="white" stroke="black" points="170,-38.5 170,-57.5 238,-57.5 238,-38.5 170,-38.5"/>
<text text-anchor="middle" x="204" y="-45.5" font-family="Helvetica,sans-Serif" font-size="10.00">mqttSetup</text>
</a>
</g>
</g>
<!-- Node1&#45;&gt;Node10 -->
<g id="edge9" class="edge">
<title>Node1&#45;&gt;Node10</title>
<path fill="none" stroke="midnightblue" d="M80.22,-62.4C104.22,-59.58 134.97,-55.98 159.7,-53.08"/>
<polygon fill="midnightblue" stroke="midnightblue" points="160.36,-56.53 169.88,-51.88 159.54,-49.57 160.36,-56.53"/>
</g>
<!-- Node11 -->
<g id="node11" class="node">
<title>Node11</title>
<g id="a_node11"><a xlink:href="networking_8cpp.html#a23a6f53d5284ae6a9d27420cceeb80c3" target="_top" xlink:title="Connects to WiFi.">
<polygon fill="white" stroke="black" points="167,-0.5 167,-19.5 241,-19.5 241,-0.5 167,-0.5"/>
<text text-anchor="middle" x="204" y="-7.5" font-family="Helvetica,sans-Serif" font-size="10.00">wifiConnect</text>
</a>
</g>
</g>
<!-- Node1&#45;&gt;Node11 -->
<g id="edge10" class="edge">
<title>Node1&#45;&gt;Node11</title>
<path fill="none" stroke="midnightblue" d="M56.86,-57.47C71.69,-48.92 94.69,-36.59 116,-29 129,-24.37 143.51,-20.66 156.9,-17.79"/>
<polygon fill="midnightblue" stroke="midnightblue" points="157.77,-21.19 166.87,-15.76 156.37,-14.33 157.77,-21.19"/>
</g>
<!-- Node4 -->
<g id="node4" class="node">
<title>Node4</title>
<g id="a_node4"><a xlink:href="rpc_8cpp.html#a4cfe66424e5527493ec95bc8ffed5bc7" target="_top" xlink:title="Handles an RPC message addressed to remote devices.">
<polygon fill="white" stroke="black" points="328,-114.5 328,-133.5 403,-133.5 403,-114.5 328,-114.5"/>
<text text-anchor="middle" x="365.5" y="-121.5" font-family="Helvetica,sans-Serif" font-size="10.00">rpcGateway</text>
</a>
</g>
</g>
<!-- Node3&#45;&gt;Node4 -->
<g id="edge3" class="edge">
<title>Node3&#45;&gt;Node4</title>
<path fill="none" stroke="midnightblue" d="M246.68,-94.74C261.07,-97.85 277.27,-101.46 292,-105 300.82,-107.12 310.22,-109.49 319.23,-111.83"/>
<polygon fill="midnightblue" stroke="midnightblue" points="318.61,-115.28 329.17,-114.43 320.38,-108.51 318.61,-115.28"/>
</g>
<!-- Node7 -->
<g id="node7" class="node">
<title>Node7</title>
<g id="a_node7"><a xlink:href="rpc_8cpp.html#ae128ecfe100603224c2fda1ff5f5ce0a" target="_top" xlink:title="Handles an RPC message addressed to this device (not one of the remote devices).">
<polygon fill="white" stroke="black" points="342,-76.5 342,-95.5 389,-95.5 389,-76.5 342,-76.5"/>
<text text-anchor="middle" x="365.5" y="-83.5" font-family="Helvetica,sans-Serif" font-size="10.00">rpcMe</text>
</a>
</g>
</g>
<!-- Node3&#45;&gt;Node7 -->
<g id="edge6" class="edge">
<title>Node3&#45;&gt;Node7</title>
<path fill="none" stroke="midnightblue" d="M246.91,-86C273.28,-86 306.84,-86 331.35,-86"/>
<polygon fill="midnightblue" stroke="midnightblue" points="331.58,-89.5 341.58,-86 331.58,-82.5 331.58,-89.5"/>
</g>
<!-- Node9 -->
<g id="node9" class="node">
<title>Node9</title>
<g id="a_node9"><a xlink:href="rpc_8cpp.html#adfc4d7c2e3b046a5fb41b597ebd9f727" target="_top" xlink:title="Checks if one string starts with another (quicker than strstr?)">
<polygon fill="white" stroke="black" points="332,-38.5 332,-57.5 399,-57.5 399,-38.5 332,-38.5"/>
<text text-anchor="middle" x="365.5" y="-45.5" font-family="Helvetica,sans-Serif" font-size="10.00">startsWith</text>
</a>
</g>
</g>
<!-- Node3&#45;&gt;Node9 -->
<g id="edge8" class="edge">
<title>Node3&#45;&gt;Node9</title>
<path fill="none" stroke="midnightblue" d="M246.68,-77.26C261.07,-74.15 277.27,-70.54 292,-67 301.67,-64.68 312.03,-62.05 321.81,-59.5"/>
<polygon fill="midnightblue" stroke="midnightblue" points="322.95,-62.82 331.73,-56.89 321.17,-56.05 322.95,-62.82"/>
</g>
<!-- Node5 -->
<g id="node5" class="node">
<title>Node5</title>
<g id="a_node5"><a xlink:href="class_lookup_manager.html#aaa9c3082dae381c5079f5346e3c9426b" target="_top" xlink:title="Gets the object matching the given name.">
<polygon fill="white" stroke="black" points="439,-152.5 439,-171.5 606,-171.5 606,-152.5 439,-152.5"/>
<text text-anchor="middle" x="522.5" y="-159.5" font-family="Helvetica,sans-Serif" font-size="10.00">LookupManager::getWithName</text>
</a>
</g>
</g>
<!-- Node4&#45;&gt;Node5 -->
<g id="edge4" class="edge">
<title>Node4&#45;&gt;Node5</title>
<path fill="none" stroke="midnightblue" d="M402.22,-133.59C413.92,-136.67 427,-140.05 439,-143 448.74,-145.4 459.15,-147.87 469.18,-150.2"/>
<polygon fill="midnightblue" stroke="midnightblue" points="468.52,-153.64 479.05,-152.48 470.09,-146.82 468.52,-153.64"/>
</g>
<!-- Node6 -->
<g id="node6" class="node">
<title>Node6</title>
<g id="a_node6"><a xlink:href="class_field.html#a9b3b13d9abe0884a93b294edc0396f74" target="_top" xlink:title="handles an RPC call for a field.">
<polygon fill="white" stroke="black" points="474,-114.5 474,-133.5 571,-133.5 571,-114.5 474,-114.5"/>
<text text-anchor="middle" x="522.5" y="-121.5" font-family="Helvetica,sans-Serif" font-size="10.00">Field::handleRpc</text>
</a>
</g>
</g>
<!-- Node4&#45;&gt;Node6 -->
<g id="edge5" class="edge">
<title>Node4&#45;&gt;Node6</title>
<path fill="none" stroke="midnightblue" d="M403.23,-124C421.31,-124 443.52,-124 463.79,-124"/>
<polygon fill="midnightblue" stroke="midnightblue" points="463.87,-127.5 473.87,-124 463.87,-120.5 463.87,-127.5"/>
</g>
<!-- Node8 -->
<g id="node8" class="node">
<title>Node8</title>
<g id="a_node8"><a xlink:href="rpc_8cpp.html#a8d99d63355a7dac3b1264ced57f255d9" target="_top" xlink:title="Replies to an RPC message for this device.">
<polygon fill="white" stroke="black" points="485.5,-76.5 485.5,-95.5 559.5,-95.5 559.5,-76.5 485.5,-76.5"/>
<text text-anchor="middle" x="522.5" y="-83.5" font-family="Helvetica,sans-Serif" font-size="10.00">replyMeRpc</text>
</a>
</g>
</g>
<!-- Node7&#45;&gt;Node8 -->
<g id="edge7" class="edge">
<title>Node7&#45;&gt;Node8</title>
<path fill="none" stroke="midnightblue" d="M389.04,-86C411.55,-86 446.8,-86 475.28,-86"/>
<polygon fill="midnightblue" stroke="midnightblue" points="475.43,-89.5 485.43,-86 475.43,-82.5 475.43,-89.5"/>
</g>
</g>
</svg>
