<?xml version="1.0" encoding="UTF-8" standalone="no"?>
<!DOCTYPE svg PUBLIC "-//W3C//DTD SVG 1.1//EN"
 "http://www.w3.org/Graphics/SVG/1.1/DTD/svg11.dtd">
<!-- Generated by graphviz version 2.43.0 (0)
 -->
<!-- Title: networkingTask Pages: 1 -->
<svg width="775pt" height="212pt"
 viewBox="0.00 0.00 775.00 212.00" xmlns="http://www.w3.org/2000/svg" xmlns:xlink="http://www.w3.org/1999/xlink">
<g id="graph0" class="graph" transform="scale(1 1) rotate(0) translate(4 208)">
<title>networkingTask</title>
<!-- Node1 -->
<g id="Node000001" class="node">
<title>Node1</title>
<g id="a_Node000001"><a xlink:title=" ">
<polygon fill="#999999" stroke="#666666" points="93,-56 0,-56 0,-37 93,-37 93,-56"/>
<text text-anchor="middle" x="46.5" y="-44" font-family="Helvetica,sans-Serif" font-size="10.00">networkingTask</text>
</a>
</g>
</g>
<!-- Node2 -->
<g id="Node000002" class="node">
<title>Node2</title>
<g id="a_Node000002"><a xlink:href="networking_8cpp.html#a9ad5cb858c24c53a6eaa846b713bd120" target="_top" xlink:title="Connects to the MQTT broker.">
<polygon fill="white" stroke="#666666" points="209,-84 129,-84 129,-65 209,-65 209,-84"/>
<text text-anchor="middle" x="169" y="-72" font-family="Helvetica,sans-Serif" font-size="10.00">mqttConnect</text>
</a>
</g>
</g>
<!-- Node1&#45;&gt;Node2 -->
<g id="edge1_Node000001_Node000002" class="edge">
<title>Node1&#45;&gt;Node2</title>
<g id="a_edge1_Node000001_Node000002"><a xlink:title=" ">
<path fill="none" stroke="#63b8ff" d="M88.63,-56.06C98.35,-58.32 108.8,-60.74 118.83,-63.08"/>
<polygon fill="#63b8ff" stroke="#63b8ff" points="118.15,-66.51 128.68,-65.36 119.73,-59.69 118.15,-66.51"/>
</a>
</g>
</g>
<!-- Node14 -->
<g id="Node000014" class="node">
<title>Node14</title>
<g id="a_Node000014"><a xlink:href="networking_8cpp.html#a23a6f53d5284ae6a9d27420cceeb80c3" target="_top" xlink:title="Connects to WiFi.">
<polygon fill="white" stroke="#666666" points="370,-19 296,-19 296,0 370,0 370,-19"/>
<text text-anchor="middle" x="333" y="-7" font-family="Helvetica,sans-Serif" font-size="10.00">wifiConnect</text>
</a>
</g>
</g>
<!-- Node1&#45;&gt;Node14 -->
<g id="edge14_Node000001_Node000014" class="edge">
<title>Node1&#45;&gt;Node14</title>
<g id="a_edge14_Node000001_Node000014"><a xlink:title=" ">
<path fill="none" stroke="#63b8ff" d="M93.21,-40.56C146.07,-33.68 232.62,-22.42 285.72,-15.52"/>
<polygon fill="#63b8ff" stroke="#63b8ff" points="286.41,-18.96 295.88,-14.2 285.51,-12.02 286.41,-18.96"/>
</a>
</g>
</g>
<!-- Node3 -->
<g id="Node000003" class="node">
<title>Node3</title>
<g id="a_Node000003"><a xlink:href="class_device_manager.html#ac06f3334d0776ed6fd7fd0f71248d6b3" target="_top" xlink:title="Registers each device to Thingsboard over MQTT.">
<polygon fill="white" stroke="#666666" points="421,-167 245,-167 245,-148 421,-148 421,-167"/>
<text text-anchor="middle" x="333" y="-155" font-family="Helvetica,sans-Serif" font-size="10.00">DeviceManager::connectDevices</text>
</a>
</g>
</g>
<!-- Node2&#45;&gt;Node3 -->
<g id="edge2_Node000002_Node000003" class="edge">
<title>Node2&#45;&gt;Node3</title>
<g id="a_edge2_Node000002_Node000003"><a xlink:title=" ">
<path fill="none" stroke="#63b8ff" d="M178.13,-84.17C190.84,-98.61 216.89,-125.6 245,-139.5 249,-141.48 253.2,-143.23 257.51,-144.8"/>
<polygon fill="#63b8ff" stroke="#63b8ff" points="256.5,-148.15 267.09,-147.93 258.67,-141.5 256.5,-148.15"/>
</a>
</g>
</g>
<!-- Node4 -->
<g id="Node000004" class="node">
<title>Node4</title>
<g id="a_Node000004"><a xlink:href="rpc_8cpp.html#a91d98374ed6fc205a7a2c9e2ef00dd97" target="_top" xlink:title=" ">
<polygon fill="white" stroke="#666666" points="375.5,-130 290.5,-130 290.5,-111 375.5,-111 375.5,-130"/>
<text text-anchor="middle" x="333" y="-118" font-family="Helvetica,sans-Serif" font-size="10.00">mqttReceived</text>
</a>
</g>
</g>
<!-- Node2&#45;&gt;Node4 -->
<g id="edge3_Node000002_Node000004" class="edge">
<title>Node2&#45;&gt;Node4</title>
<g id="a_edge3_Node000002_Node000004"><a xlink:title=" ">
<path fill="none" stroke="#63b8ff" d="M194.06,-84.07C208.64,-89.64 227.71,-96.52 245,-101.5 256.26,-104.74 268.48,-107.73 280.1,-110.33"/>
<polygon fill="#63b8ff" stroke="#63b8ff" points="279.61,-113.8 290.13,-112.51 281.1,-106.96 279.61,-113.8"/>
</a>
</g>
</g>
<!-- Node11 -->
<g id="Node000011" class="node">
<title>Node11</title>
<g id="a_Node000011"><a xlink:href="networking_8cpp.html#ab2d5192ed1436350b19a2a4ccb2053c3" target="_top" xlink:title="Subscribes to the required topics.">
<polygon fill="white" stroke="#666666" points="367,-93 299,-93 299,-74 367,-74 367,-93"/>
<text text-anchor="middle" x="333" y="-81" font-family="Helvetica,sans-Serif" font-size="10.00">mqttSetup</text>
</a>
</g>
</g>
<!-- Node2&#45;&gt;Node11 -->
<g id="edge10_Node000002_Node000011" class="edge">
<title>Node2&#45;&gt;Node11</title>
<g id="a_edge10_Node000002_Node000011"><a xlink:title=" ">
<path fill="none" stroke="#63b8ff" d="M209.22,-76.68C233.22,-78.01 263.97,-79.72 288.7,-81.09"/>
<polygon fill="#63b8ff" stroke="#63b8ff" points="288.71,-84.6 298.88,-81.66 289.09,-77.61 288.71,-84.6"/>
</a>
</g>
</g>
<!-- Node12 -->
<g id="Node000012" class="node">
<title>Node12</title>
<g id="a_Node000012"><a xlink:href="rpc_8cpp.html#a966e66eaf82bb85dffba775b5442f3f6" target="_top" xlink:title="Informs thingsboard what software version is running. This does not use a queue as this could be sent...">
<polygon fill="white" stroke="#666666" points="388,-56 278,-56 278,-37 388,-37 388,-56"/>
<text text-anchor="middle" x="333" y="-44" font-family="Helvetica,sans-Serif" font-size="10.00">setVersionAttribute</text>
</a>
</g>
</g>
<!-- Node2&#45;&gt;Node12 -->
<g id="edge11_Node000002_Node000012" class="edge">
<title>Node2&#45;&gt;Node12</title>
<g id="a_edge11_Node000002_Node000012"><a xlink:title=" ">
<path fill="none" stroke="#63b8ff" d="M209.22,-67.72C226.84,-64.68 248.1,-61 267.94,-57.57"/>
<polygon fill="#63b8ff" stroke="#63b8ff" points="268.59,-61.01 277.85,-55.86 267.4,-54.11 268.59,-61.01"/>
</a>
</g>
</g>
<!-- Node2&#45;&gt;Node14 -->
<g id="edge13_Node000002_Node000014" class="edge">
<title>Node2&#45;&gt;Node14</title>
<g id="a_edge13_Node000002_Node000014"><a xlink:title=" ">
<path fill="none" stroke="#63b8ff" d="M182.26,-64.88C196.53,-54.15 221.19,-37.06 245,-27.5 257.77,-22.37 272.22,-18.63 285.61,-15.93"/>
<polygon fill="#63b8ff" stroke="#63b8ff" points="286.41,-19.34 295.6,-14.07 285.13,-12.46 286.41,-19.34"/>
</a>
</g>
</g>
<!-- Node5 -->
<g id="Node000005" class="node">
<title>Node5</title>
<g id="a_Node000005"><a xlink:href="rpc_8cpp.html#a4cfe66424e5527493ec95bc8ffed5bc7" target="_top" xlink:title="Handles an RPC message addressed to remote devices.">
<polygon fill="white" stroke="#666666" points="548,-167 473,-167 473,-148 548,-148 548,-167"/>
<text text-anchor="middle" x="510.5" y="-155" font-family="Helvetica,sans-Serif" font-size="10.00">rpcGateway</text>
</a>
</g>
</g>
<!-- Node4&#45;&gt;Node5 -->
<g id="edge4_Node000004_Node000005" class="edge">
<title>Node4&#45;&gt;Node5</title>
<g id="a_edge4_Node000004_Node000005"><a xlink:title=" ">
<path fill="none" stroke="#63b8ff" d="M375.59,-129.27C401.84,-134.8 435.78,-141.96 462.93,-147.68"/>
<polygon fill="#63b8ff" stroke="#63b8ff" points="462.46,-151.16 472.97,-149.8 463.91,-144.31 462.46,-151.16"/>
</a>
</g>
</g>
<!-- Node8 -->
<g id="Node000008" class="node">
<title>Node8</title>
<g id="a_Node000008"><a xlink:href="rpc_8cpp.html#ae128ecfe100603224c2fda1ff5f5ce0a" target="_top" xlink:title="Handles an RPC message addressed to this device (not one of the remote devices).">
<polygon fill="white" stroke="#666666" points="534,-130 487,-130 487,-111 534,-111 534,-130"/>
<text text-anchor="middle" x="510.5" y="-118" font-family="Helvetica,sans-Serif" font-size="10.00">rpcMe</text>
</a>
</g>
</g>
<!-- Node4&#45;&gt;Node8 -->
<g id="edge7_Node000004_Node000008" class="edge">
<title>Node4&#45;&gt;Node8</title>
<g id="a_edge7_Node000004_Node000008"><a xlink:title=" ">
<path fill="none" stroke="#63b8ff" d="M375.59,-120.5C406.51,-120.5 448.12,-120.5 476.7,-120.5"/>
<polygon fill="#63b8ff" stroke="#63b8ff" points="476.97,-124 486.97,-120.5 476.97,-117 476.97,-124"/>
</a>
</g>
</g>
<!-- Node10 -->
<g id="Node000010" class="node">
<title>Node10</title>
<g id="a_Node000010"><a xlink:href="rpc_8cpp.html#adfc4d7c2e3b046a5fb41b597ebd9f727" target="_top" xlink:title="Checks if one string starts with another (quicker than strstr?)">
<polygon fill="white" stroke="#666666" points="544,-93 477,-93 477,-74 544,-74 544,-93"/>
<text text-anchor="middle" x="510.5" y="-81" font-family="Helvetica,sans-Serif" font-size="10.00">startsWith</text>
</a>
</g>
</g>
<!-- Node4&#45;&gt;Node10 -->
<g id="edge9_Node000004_Node000010" class="edge">
<title>Node4&#45;&gt;Node10</title>
<g id="a_edge9_Node000004_Node000010"><a xlink:title=" ">
<path fill="none" stroke="#63b8ff" d="M375.59,-111.73C403.22,-105.91 439.37,-98.28 467.15,-92.43"/>
<polygon fill="#63b8ff" stroke="#63b8ff" points="467.91,-95.84 476.97,-90.36 466.47,-89 467.91,-95.84"/>
</a>
</g>
</g>
<!-- Node6 -->
<g id="Node000006" class="node">
<title>Node6</title>
<g id="a_Node000006"><a xlink:href="class_lookup_manager.html#ad0d556a556e0b220629cf198d6f0de1a" target="_top" xlink:title="Gets the object matching the given name.">
<polygon fill="white" stroke="#666666" points="767,-204 600,-204 600,-185 767,-185 767,-204"/>
<text text-anchor="middle" x="683.5" y="-192" font-family="Helvetica,sans-Serif" font-size="10.00">LookupManager::getWithName</text>
</a>
</g>
</g>
<!-- Node5&#45;&gt;Node6 -->
<g id="edge5_Node000005_Node000006" class="edge">
<title>Node5&#45;&gt;Node6</title>
<g id="a_edge5_Node000005_Node000006"><a xlink:title=" ">
<path fill="none" stroke="#63b8ff" d="M548.18,-165.44C571.59,-170.5 602.34,-177.16 628.51,-182.82"/>
<polygon fill="#63b8ff" stroke="#63b8ff" points="627.78,-186.24 638.29,-184.93 629.26,-179.4 627.78,-186.24"/>
</a>
</g>
</g>
<!-- Node7 -->
<g id="Node000007" class="node">
<title>Node7</title>
<g id="a_Node000007"><a xlink:href="class_field.html#a9b3b13d9abe0884a93b294edc0396f74" target="_top" xlink:title="handles an RPC call for a field.">
<polygon fill="white" stroke="#666666" points="732,-167 635,-167 635,-148 732,-148 732,-167"/>
<text text-anchor="middle" x="683.5" y="-155" font-family="Helvetica,sans-Serif" font-size="10.00">Field::handleRpc</text>
</a>
</g>
</g>
<!-- Node5&#45;&gt;Node7 -->
<g id="edge6_Node000005_Node000007" class="edge">
<title>Node5&#45;&gt;Node7</title>
<g id="a_edge6_Node000005_Node000007"><a xlink:title=" ">
<path fill="none" stroke="#63b8ff" d="M548.18,-157.5C570.44,-157.5 599.32,-157.5 624.61,-157.5"/>
<polygon fill="#63b8ff" stroke="#63b8ff" points="624.82,-161 634.82,-157.5 624.82,-154 624.82,-161"/>
</a>
</g>
</g>
<!-- Node9 -->
<g id="Node000009" class="node">
<title>Node9</title>
<g id="a_Node000009"><a xlink:href="rpc_8cpp.html#a8d99d63355a7dac3b1264ced57f255d9" target="_top" xlink:title="Replies to an RPC message for this device.">
<polygon fill="white" stroke="#666666" points="720.5,-130 646.5,-130 646.5,-111 720.5,-111 720.5,-130"/>
<text text-anchor="middle" x="683.5" y="-118" font-family="Helvetica,sans-Serif" font-size="10.00">replyMeRpc</text>
</a>
</g>
</g>
<!-- Node8&#45;&gt;Node9 -->
<g id="edge8_Node000008_Node000009" class="edge">
<title>Node8&#45;&gt;Node9</title>
<g id="a_edge8_Node000008_Node000009"><a xlink:title=" ">
<path fill="none" stroke="#63b8ff" d="M534.21,-120.5C560.03,-120.5 602.89,-120.5 635.9,-120.5"/>
<polygon fill="#63b8ff" stroke="#63b8ff" points="636.24,-124 646.24,-120.5 636.24,-117 636.24,-124"/>
</a>
</g>
</g>
<!-- Node13 -->
<g id="Node000013" class="node">
<title>Node13</title>
<g id="a_Node000013"><a xlink:href="rpc_8cpp.html#a22f0de10e8da7246554c2221cc40f7a0" target="_top" xlink:title="Converts a reset reason returned by esp_reset_reason() into a string.">
<polygon fill="white" stroke="#666666" points="564,-56 457,-56 457,-37 564,-37 564,-56"/>
<text text-anchor="middle" x="510.5" y="-44" font-family="Helvetica,sans-Serif" font-size="10.00">resetReasonName</text>
</a>
</g>
</g>
<!-- Node12&#45;&gt;Node13 -->
<g id="edge12_Node000012_Node000013" class="edge">
<title>Node12&#45;&gt;Node13</title>
<g id="a_edge12_Node000012_Node000013"><a xlink:title=" ">
<path fill="none" stroke="#63b8ff" d="M388.09,-46.5C406.61,-46.5 427.5,-46.5 446.66,-46.5"/>
<polygon fill="#63b8ff" stroke="#63b8ff" points="446.79,-50 456.79,-46.5 446.79,-43 446.79,-50"/>
</a>
</g>
</g>
</g>
</svg>
