<?xml version="1.0" encoding="UTF-8" standalone="no"?>
<!DOCTYPE svg PUBLIC "-//W3C//DTD SVG 1.1//EN"
 "http://www.w3.org/Graphics/SVG/1.1/DTD/svg11.dtd">
<!-- Generated by graphviz version 2.43.0 (0)
 -->
<!-- Title: ESP32BaseStation/src/networking.h Pages: 1 -->
<svg width="701pt" height="240pt"
 viewBox="0.00 0.00 700.59 240.00" xmlns="http://www.w3.org/2000/svg" xmlns:xlink="http://www.w3.org/1999/xlink">
<g id="graph0" class="graph" transform="scale(1 1) rotate(0) translate(4 236)">
<title>ESP32BaseStation/src/networking.h</title>
<polygon fill="white" stroke="transparent" points="-4,4 -4,-236 696.59,-236 696.59,4 -4,4"/>
<!-- Node1 -->
<g id="node1" class="node">
<title>Node1</title>
<g id="a_node1"><a xlink:title="Header file for networking.cpp.">
<polygon fill="#bfbfbf" stroke="black" points="332.59,-201.5 332.59,-231.5 454.59,-231.5 454.59,-201.5 332.59,-201.5"/>
<text text-anchor="start" x="340.59" y="-219.5" font-family="Helvetica,sans-Serif" font-size="10.00">ESP32BaseStation/src</text>
<text text-anchor="middle" x="393.59" y="-208.5" font-family="Helvetica,sans-Serif" font-size="10.00">/networking.h</text>
</a>
</g>
</g>
<!-- Node2 -->
<g id="node2" class="node">
<title>Node2</title>
<g id="a_node2"><a xlink:href="_e_s_p32_base_station_8ino.html" target="_top" xlink:title="Main file for a base station to connect to remote sensors on a farm.">
<polygon fill="white" stroke="black" points="127.59,-0.5 127.59,-30.5 289.59,-30.5 289.59,-0.5 127.59,-0.5"/>
<text text-anchor="start" x="135.59" y="-18.5" font-family="Helvetica,sans-Serif" font-size="10.00">ESP32BaseStation/ESP32Base</text>
<text text-anchor="middle" x="208.59" y="-7.5" font-family="Helvetica,sans-Serif" font-size="10.00">Station.ino</text>
</a>
</g>
</g>
<!-- Node1&#45;&gt;Node2 -->
<g id="edge1" class="edge">
<title>Node1&#45;&gt;Node2</title>
<path fill="none" stroke="midnightblue" d="M322.13,-207.75C268.24,-200.26 200.76,-186.79 183.59,-165 151.88,-124.75 183.38,-59.09 199.89,-30.52"/>
<polygon fill="midnightblue" stroke="midnightblue" points="321.99,-211.26 332.37,-209.13 322.92,-204.33 321.99,-211.26"/>
</g>
<!-- Node3 -->
<g id="node3" class="node">
<title>Node3</title>
<g id="a_node3"><a xlink:href="leds_8h.html" target="_top" xlink:title="Controls the LEDs on the unit.">
<polygon fill="white" stroke="black" points="14.59,-134.5 14.59,-164.5 136.59,-164.5 136.59,-134.5 14.59,-134.5"/>
<text text-anchor="start" x="22.59" y="-152.5" font-family="Helvetica,sans-Serif" font-size="10.00">ESP32BaseStation/src</text>
<text text-anchor="middle" x="75.59" y="-141.5" font-family="Helvetica,sans-Serif" font-size="10.00">/leds.h</text>
</a>
</g>
</g>
<!-- Node1&#45;&gt;Node3 -->
<g id="edge2" class="edge">
<title>Node1&#45;&gt;Node3</title>
<path fill="none" stroke="midnightblue" d="M322.46,-200.96C266.65,-189.55 189.78,-173.84 136.72,-162.99"/>
<polygon fill="midnightblue" stroke="midnightblue" points="321.78,-204.39 332.28,-202.97 323.18,-197.54 321.78,-204.39"/>
</g>
<!-- Node5 -->
<g id="node5" class="node">
<title>Node5</title>
<g id="a_node5"><a xlink:href="lora_8h.html" target="_top" xlink:title="File that handles the LoRa radio and PJON.">
<polygon fill="white" stroke="black" points="570.59,-67.5 570.59,-97.5 692.59,-97.5 692.59,-67.5 570.59,-67.5"/>
<text text-anchor="start" x="578.59" y="-85.5" font-family="Helvetica,sans-Serif" font-size="10.00">ESP32BaseStation/src</text>
<text text-anchor="middle" x="631.59" y="-74.5" font-family="Helvetica,sans-Serif" font-size="10.00">/lora.h</text>
</a>
</g>
</g>
<!-- Node1&#45;&gt;Node5 -->
<g id="edge5" class="edge">
<title>Node1&#45;&gt;Node5</title>
<path fill="none" stroke="midnightblue" d="M464.77,-204.6C514.51,-196.04 575.22,-182.61 594.59,-165 613.96,-147.39 619.93,-115.77 624.65,-97.52"/>
<polygon fill="midnightblue" stroke="midnightblue" points="463.95,-201.19 454.67,-206.3 465.11,-208.09 463.95,-201.19"/>
</g>
<!-- Node7 -->
<g id="node7" class="node">
<title>Node7</title>
<g id="a_node7"><a xlink:href="networking_8cpp.html" target="_top" xlink:title="File that handles connecting to WiFi and MQTT and staying connected.">
<polygon fill="white" stroke="black" points="332.59,-134.5 332.59,-164.5 454.59,-164.5 454.59,-134.5 332.59,-134.5"/>
<text text-anchor="start" x="340.59" y="-152.5" font-family="Helvetica,sans-Serif" font-size="10.00">ESP32BaseStation/src</text>
<text text-anchor="middle" x="393.59" y="-141.5" font-family="Helvetica,sans-Serif" font-size="10.00">/networking.cpp</text>
</a>
</g>
</g>
<!-- Node1&#45;&gt;Node7 -->
<g id="edge9" class="edge">
<title>Node1&#45;&gt;Node7</title>
<path fill="none" stroke="midnightblue" d="M393.59,-191.11C393.59,-182.15 393.59,-172.32 393.59,-164.58"/>
<polygon fill="midnightblue" stroke="midnightblue" points="390.09,-191.4 393.59,-201.4 397.09,-191.4 390.09,-191.4"/>
</g>
<!-- Node8 -->
<g id="node8" class="node">
<title>Node8</title>
<g id="a_node8"><a xlink:href="ota_8h.html" target="_top" xlink:title="Handles over the air (OTA) updates.">
<polygon fill="white" stroke="black" points="192.59,-134.5 192.59,-164.5 314.59,-164.5 314.59,-134.5 192.59,-134.5"/>
<text text-anchor="start" x="200.59" y="-152.5" font-family="Helvetica,sans-Serif" font-size="10.00">ESP32BaseStation/src</text>
<text text-anchor="middle" x="253.59" y="-141.5" font-family="Helvetica,sans-Serif" font-size="10.00">/ota.h</text>
</a>
</g>
</g>
<!-- Node1&#45;&gt;Node8 -->
<g id="edge10" class="edge">
<title>Node1&#45;&gt;Node8</title>
<path fill="none" stroke="midnightblue" d="M354.03,-197.13C331.78,-186.8 304.44,-174.11 283.91,-164.58"/>
<polygon fill="midnightblue" stroke="midnightblue" points="352.67,-200.36 363.21,-201.4 355.62,-194.01 352.67,-200.36"/>
</g>
<!-- Node10 -->
<g id="node10" class="node">
<title>Node10</title>
<g id="a_node10"><a xlink:href="rpc_8h.html" target="_top" xlink:title="Handles RPC calls.">
<polygon fill="white" stroke="black" points="472.59,-134.5 472.59,-164.5 594.59,-164.5 594.59,-134.5 472.59,-134.5"/>
<text text-anchor="start" x="480.59" y="-152.5" font-family="Helvetica,sans-Serif" font-size="10.00">ESP32BaseStation/src</text>
<text text-anchor="middle" x="533.59" y="-141.5" font-family="Helvetica,sans-Serif" font-size="10.00">/rpc.h</text>
</a>
</g>
</g>
<!-- Node1&#45;&gt;Node10 -->
<g id="edge13" class="edge">
<title>Node1&#45;&gt;Node10</title>
<path fill="none" stroke="midnightblue" d="M433.16,-197.13C455.4,-186.8 482.74,-174.11 503.27,-164.58"/>
<polygon fill="midnightblue" stroke="midnightblue" points="431.57,-194.01 423.97,-201.4 434.51,-200.36 431.57,-194.01"/>
</g>
<!-- Node3&#45;&gt;Node2 -->
<g id="edge3" class="edge">
<title>Node3&#45;&gt;Node2</title>
<path fill="none" stroke="midnightblue" d="M39.9,-129C14.82,-112.75 -11.47,-88.82 5.59,-67 20.88,-47.44 77.76,-34.36 127.44,-26.43"/>
<polygon fill="midnightblue" stroke="midnightblue" points="38.3,-132.12 48.65,-134.41 41.99,-126.17 38.3,-132.12"/>
</g>
<!-- Node4 -->
<g id="node4" class="node">
<title>Node4</title>
<g id="a_node4"><a xlink:href="leds_8cpp.html" target="_top" xlink:title="Controls the LEDs on the unit.">
<polygon fill="white" stroke="black" points="14.59,-67.5 14.59,-97.5 136.59,-97.5 136.59,-67.5 14.59,-67.5"/>
<text text-anchor="start" x="22.59" y="-85.5" font-family="Helvetica,sans-Serif" font-size="10.00">ESP32BaseStation/src</text>
<text text-anchor="middle" x="75.59" y="-74.5" font-family="Helvetica,sans-Serif" font-size="10.00">/leds.cpp</text>
</a>
</g>
</g>
<!-- Node3&#45;&gt;Node4 -->
<g id="edge4" class="edge">
<title>Node3&#45;&gt;Node4</title>
<path fill="none" stroke="midnightblue" d="M75.59,-124.11C75.59,-115.15 75.59,-105.32 75.59,-97.58"/>
<polygon fill="midnightblue" stroke="midnightblue" points="72.09,-124.4 75.59,-134.4 79.09,-124.4 72.09,-124.4"/>
</g>
<!-- Node5&#45;&gt;Node1 -->
<g id="edge8" class="edge">
<title>Node5&#45;&gt;Node1</title>
<path fill="none" stroke="midnightblue" d="M636.8,-107.72C635.55,-125.99 628.71,-150.34 612.59,-165 590.05,-185.5 511.51,-200.32 454.85,-208.41"/>
<polygon fill="midnightblue" stroke="midnightblue" points="640.3,-107.56 636.9,-97.52 633.3,-107.49 640.3,-107.56"/>
</g>
<!-- Node5&#45;&gt;Node2 -->
<g id="edge6" class="edge">
<title>Node5&#45;&gt;Node2</title>
<path fill="none" stroke="midnightblue" d="M560.69,-66.91C461.87,-49.81 359.17,-35.67 289.78,-26.66"/>
<polygon fill="midnightblue" stroke="midnightblue" points="560.1,-70.35 570.55,-68.62 561.3,-63.46 560.1,-70.35"/>
</g>
<!-- Node6 -->
<g id="node6" class="node">
<title>Node6</title>
<g id="a_node6"><a xlink:href="lora_8cpp.html" target="_top" xlink:title="File that handles the LoRa radio and PJON.">
<polygon fill="white" stroke="black" points="570.59,-0.5 570.59,-30.5 692.59,-30.5 692.59,-0.5 570.59,-0.5"/>
<text text-anchor="start" x="578.59" y="-18.5" font-family="Helvetica,sans-Serif" font-size="10.00">ESP32BaseStation/src</text>
<text text-anchor="middle" x="631.59" y="-7.5" font-family="Helvetica,sans-Serif" font-size="10.00">/lora.cpp</text>
</a>
</g>
</g>
<!-- Node5&#45;&gt;Node6 -->
<g id="edge7" class="edge">
<title>Node5&#45;&gt;Node6</title>
<path fill="none" stroke="midnightblue" d="M631.59,-57.11C631.59,-48.15 631.59,-38.32 631.59,-30.58"/>
<polygon fill="midnightblue" stroke="midnightblue" points="628.09,-57.4 631.59,-67.4 635.09,-57.4 628.09,-57.4"/>
</g>
<!-- Node8&#45;&gt;Node2 -->
<g id="edge11" class="edge">
<title>Node8&#45;&gt;Node2</title>
<path fill="none" stroke="midnightblue" d="M240.22,-125.47C235.73,-117.04 231,-107.28 227.59,-98 219.17,-75.09 213.62,-47.15 210.8,-30.65"/>
<polygon fill="midnightblue" stroke="midnightblue" points="237.21,-127.27 245.1,-134.34 243.35,-123.9 237.21,-127.27"/>
</g>
<!-- Node9 -->
<g id="node9" class="node">
<title>Node9</title>
<g id="a_node9"><a xlink:href="ota_8cpp.html" target="_top" xlink:title="Handles over the air (OTA) updates.">
<polygon fill="white" stroke="black" points="236.59,-67.5 236.59,-97.5 358.59,-97.5 358.59,-67.5 236.59,-67.5"/>
<text text-anchor="start" x="244.59" y="-85.5" font-family="Helvetica,sans-Serif" font-size="10.00">ESP32BaseStation/src</text>
<text text-anchor="middle" x="297.59" y="-74.5" font-family="Helvetica,sans-Serif" font-size="10.00">/ota.cpp</text>
</a>
</g>
</g>
<!-- Node8&#45;&gt;Node9 -->
<g id="edge12" class="edge">
<title>Node8&#45;&gt;Node9</title>
<path fill="none" stroke="midnightblue" d="M268.91,-125.87C275.28,-116.46 282.47,-105.83 288.06,-97.58"/>
<polygon fill="midnightblue" stroke="midnightblue" points="265.85,-124.15 263.14,-134.4 271.64,-128.08 265.85,-124.15"/>
</g>
<!-- Node10&#45;&gt;Node2 -->
<g id="edge14" class="edge">
<title>Node10&#45;&gt;Node2</title>
<path fill="none" stroke="midnightblue" d="M490.55,-130.27C469.52,-121.06 443.99,-109.45 421.59,-98 396.95,-85.41 392.92,-78.14 367.59,-67 333.66,-52.08 293.91,-39.45 262.64,-30.56"/>
<polygon fill="midnightblue" stroke="midnightblue" points="489.3,-133.54 499.86,-134.31 492.09,-127.12 489.3,-133.54"/>
</g>
<!-- Node10&#45;&gt;Node5 -->
<g id="edge15" class="edge">
<title>Node10&#45;&gt;Node5</title>
<path fill="none" stroke="midnightblue" d="M563.39,-128.73C578.56,-118.68 596.64,-106.68 610.37,-97.58"/>
<polygon fill="midnightblue" stroke="midnightblue" points="561.25,-125.95 554.86,-134.4 565.12,-131.79 561.25,-125.95"/>
</g>
<!-- Node11 -->
<g id="node11" class="node">
<title>Node11</title>
<g id="a_node11"><a xlink:href="rpc_8cpp.html" target="_top" xlink:title="Handles RPC calls.">
<polygon fill="white" stroke="black" points="430.59,-67.5 430.59,-97.5 552.59,-97.5 552.59,-67.5 430.59,-67.5"/>
<text text-anchor="start" x="438.59" y="-85.5" font-family="Helvetica,sans-Serif" font-size="10.00">ESP32BaseStation/src</text>
<text text-anchor="middle" x="491.59" y="-74.5" font-family="Helvetica,sans-Serif" font-size="10.00">/rpc.cpp</text>
</a>
</g>
</g>
<!-- Node10&#45;&gt;Node11 -->
<g id="edge16" class="edge">
<title>Node10&#45;&gt;Node11</title>
<path fill="none" stroke="midnightblue" d="M518.97,-125.87C512.89,-116.46 506.02,-105.83 500.69,-97.58"/>
<polygon fill="midnightblue" stroke="midnightblue" points="516.11,-127.9 524.48,-134.4 521.99,-124.1 516.11,-127.9"/>
</g>
</g>
</svg>
