<?xml version="1.0" encoding="UTF-8" standalone="no"?>
<!DOCTYPE svg PUBLIC "-//W3C//DTD SVG 1.1//EN"
 "http://www.w3.org/Graphics/SVG/1.1/DTD/svg11.dtd">
<!-- Generated by graphviz version 2.43.0 (0)
 -->
<!-- Title: BaseStationCode/src/src/networking.h Pages: 1 -->
<svg width="680pt" height="240pt"
 viewBox="0.00 0.00 680.04 240.00" xmlns="http://www.w3.org/2000/svg" xmlns:xlink="http://www.w3.org/1999/xlink">
<g id="graph0" class="graph" transform="scale(1 1) rotate(0) translate(4 236)">
<title>BaseStationCode/src/src/networking.h</title>
<polygon fill="white" stroke="transparent" points="-4,4 -4,-236 676.04,-236 676.04,4 -4,4"/>
<!-- Node1 -->
<g id="node1" class="node">
<title>Node1</title>
<g id="a_node1"><a xlink:title="Header file for networking.cpp.">
<polygon fill="#bfbfbf" stroke="black" points="324.04,-201.5 324.04,-231.5 441.04,-231.5 441.04,-201.5 324.04,-201.5"/>
<text text-anchor="start" x="332.04" y="-219.5" font-family="Helvetica,sans-Serif" font-size="10.00">BaseStationCode/src</text>
<text text-anchor="middle" x="382.54" y="-208.5" font-family="Helvetica,sans-Serif" font-size="10.00">/src/networking.h</text>
</a>
</g>
</g>
<!-- Node2 -->
<g id="node2" class="node">
<title>Node2</title>
<g id="a_node2"><a xlink:href="main_8cpp.html" target="_top" xlink:title=" ">
<polygon fill="white" stroke="black" points="145.04,-0.5 145.04,-30.5 262.04,-30.5 262.04,-0.5 145.04,-0.5"/>
<text text-anchor="start" x="153.04" y="-18.5" font-family="Helvetica,sans-Serif" font-size="10.00">BaseStationCode/src</text>
<text text-anchor="middle" x="203.54" y="-7.5" font-family="Helvetica,sans-Serif" font-size="10.00">/main.cpp</text>
</a>
</g>
</g>
<!-- Node1&#45;&gt;Node2 -->
<g id="edge1" class="edge">
<title>Node1&#45;&gt;Node2</title>
<path fill="none" stroke="midnightblue" d="M313.93,-207.49C261.73,-199.82 196.14,-186.24 179.54,-165 148.01,-124.67 178.83,-59.05 195.01,-30.5"/>
<polygon fill="midnightblue" stroke="midnightblue" points="313.44,-210.96 323.84,-208.9 314.43,-204.03 313.44,-210.96"/>
</g>
<!-- Node3 -->
<g id="node3" class="node">
<title>Node3</title>
<g id="a_node3"><a xlink:href="leds_8h.html" target="_top" xlink:title="Controls the LEDs on the unit.">
<polygon fill="white" stroke="black" points="15.04,-134.5 15.04,-164.5 132.04,-164.5 132.04,-134.5 15.04,-134.5"/>
<text text-anchor="start" x="23.04" y="-152.5" font-family="Helvetica,sans-Serif" font-size="10.00">BaseStationCode/src</text>
<text text-anchor="middle" x="73.54" y="-141.5" font-family="Helvetica,sans-Serif" font-size="10.00">/src/leds.h</text>
</a>
</g>
</g>
<!-- Node1&#45;&gt;Node3 -->
<g id="edge2" class="edge">
<title>Node1&#45;&gt;Node3</title>
<path fill="none" stroke="midnightblue" d="M313.76,-201.03C259.23,-189.56 183.86,-173.71 132.17,-162.83"/>
<polygon fill="midnightblue" stroke="midnightblue" points="313.18,-204.49 323.69,-203.12 314.62,-197.64 313.18,-204.49"/>
</g>
<!-- Node5 -->
<g id="node5" class="node">
<title>Node5</title>
<g id="a_node5"><a xlink:href="lora_8h.html" target="_top" xlink:title="File that handles the LoRa radio and PJON.">
<polygon fill="white" stroke="black" points="555.04,-67.5 555.04,-97.5 672.04,-97.5 672.04,-67.5 555.04,-67.5"/>
<text text-anchor="start" x="563.04" y="-85.5" font-family="Helvetica,sans-Serif" font-size="10.00">BaseStationCode/src</text>
<text text-anchor="middle" x="613.54" y="-74.5" font-family="Helvetica,sans-Serif" font-size="10.00">/src/lora.h</text>
</a>
</g>
</g>
<!-- Node1&#45;&gt;Node5 -->
<g id="edge5" class="edge">
<title>Node1&#45;&gt;Node5</title>
<path fill="none" stroke="midnightblue" d="M451.66,-213.67C492.5,-208.79 542.6,-196.1 576.54,-165 595.84,-147.31 601.84,-115.72 606.57,-97.5"/>
<polygon fill="midnightblue" stroke="midnightblue" points="451.06,-210.21 441.49,-214.74 451.8,-217.17 451.06,-210.21"/>
</g>
<!-- Node7 -->
<g id="node7" class="node">
<title>Node7</title>
<g id="a_node7"><a xlink:href="networking_8cpp.html" target="_top" xlink:title="File that handles connecting to WiFi and MQTT and staying connected.">
<polygon fill="white" stroke="black" points="324.04,-134.5 324.04,-164.5 441.04,-164.5 441.04,-134.5 324.04,-134.5"/>
<text text-anchor="start" x="332.04" y="-152.5" font-family="Helvetica,sans-Serif" font-size="10.00">BaseStationCode/src</text>
<text text-anchor="middle" x="382.54" y="-141.5" font-family="Helvetica,sans-Serif" font-size="10.00">/src/networking.cpp</text>
</a>
</g>
</g>
<!-- Node1&#45;&gt;Node7 -->
<g id="edge9" class="edge">
<title>Node1&#45;&gt;Node7</title>
<path fill="none" stroke="midnightblue" d="M382.54,-191.11C382.54,-182.15 382.54,-172.32 382.54,-164.58"/>
<polygon fill="midnightblue" stroke="midnightblue" points="379.04,-191.4 382.54,-201.4 386.04,-191.4 379.04,-191.4"/>
</g>
<!-- Node8 -->
<g id="node8" class="node">
<title>Node8</title>
<g id="a_node8"><a xlink:href="ota_8h.html" target="_top" xlink:title="Handles over the air (OTA) updates.">
<polygon fill="white" stroke="black" points="189.04,-134.5 189.04,-164.5 306.04,-164.5 306.04,-134.5 189.04,-134.5"/>
<text text-anchor="start" x="197.04" y="-152.5" font-family="Helvetica,sans-Serif" font-size="10.00">BaseStationCode/src</text>
<text text-anchor="middle" x="247.54" y="-141.5" font-family="Helvetica,sans-Serif" font-size="10.00">/src/ota.h</text>
</a>
</g>
</g>
<!-- Node1&#45;&gt;Node8 -->
<g id="edge10" class="edge">
<title>Node1&#45;&gt;Node8</title>
<path fill="none" stroke="midnightblue" d="M344.1,-196.99C322.7,-186.69 296.49,-174.07 276.77,-164.58"/>
<polygon fill="midnightblue" stroke="midnightblue" points="342.72,-200.21 353.25,-201.4 345.75,-193.9 342.72,-200.21"/>
</g>
<!-- Node10 -->
<g id="node10" class="node">
<title>Node10</title>
<g id="a_node10"><a xlink:href="rpc_8h.html" target="_top" xlink:title="Handles RPC calls.">
<polygon fill="white" stroke="black" points="459.04,-134.5 459.04,-164.5 576.04,-164.5 576.04,-134.5 459.04,-134.5"/>
<text text-anchor="start" x="467.04" y="-152.5" font-family="Helvetica,sans-Serif" font-size="10.00">BaseStationCode/src</text>
<text text-anchor="middle" x="517.54" y="-141.5" font-family="Helvetica,sans-Serif" font-size="10.00">/src/rpc.h</text>
</a>
</g>
</g>
<!-- Node1&#45;&gt;Node10 -->
<g id="edge13" class="edge">
<title>Node1&#45;&gt;Node10</title>
<path fill="none" stroke="midnightblue" d="M420.98,-196.99C442.38,-186.69 468.59,-174.07 488.3,-164.58"/>
<polygon fill="midnightblue" stroke="midnightblue" points="419.32,-193.9 411.83,-201.4 422.36,-200.21 419.32,-193.9"/>
</g>
<!-- Node3&#45;&gt;Node2 -->
<g id="edge3" class="edge">
<title>Node3&#45;&gt;Node2</title>
<path fill="none" stroke="midnightblue" d="M38.75,-128.88C14.32,-112.57 -11.25,-88.61 5.54,-67 22.57,-45.08 92.77,-31.09 144.77,-23.52"/>
<polygon fill="midnightblue" stroke="midnightblue" points="36.96,-131.89 47.28,-134.32 40.73,-125.99 36.96,-131.89"/>
</g>
<!-- Node4 -->
<g id="node4" class="node">
<title>Node4</title>
<g id="a_node4"><a xlink:href="leds_8cpp.html" target="_top" xlink:title="Controls the LEDs on the unit.">
<polygon fill="white" stroke="black" points="15.04,-67.5 15.04,-97.5 132.04,-97.5 132.04,-67.5 15.04,-67.5"/>
<text text-anchor="start" x="23.04" y="-85.5" font-family="Helvetica,sans-Serif" font-size="10.00">BaseStationCode/src</text>
<text text-anchor="middle" x="73.54" y="-74.5" font-family="Helvetica,sans-Serif" font-size="10.00">/src/leds.cpp</text>
</a>
</g>
</g>
<!-- Node3&#45;&gt;Node4 -->
<g id="edge4" class="edge">
<title>Node3&#45;&gt;Node4</title>
<path fill="none" stroke="midnightblue" d="M73.54,-124.11C73.54,-115.15 73.54,-105.32 73.54,-97.58"/>
<polygon fill="midnightblue" stroke="midnightblue" points="70.04,-124.4 73.54,-134.4 77.04,-124.4 70.04,-124.4"/>
</g>
<!-- Node5&#45;&gt;Node1 -->
<g id="edge8" class="edge">
<title>Node5&#45;&gt;Node1</title>
<path fill="none" stroke="midnightblue" d="M618.71,-107.68C617.45,-125.94 610.6,-150.28 594.54,-165 553.44,-202.67 488.64,-213.32 441.4,-215.81"/>
<polygon fill="midnightblue" stroke="midnightblue" points="622.21,-107.54 618.82,-97.5 615.21,-107.46 622.21,-107.54"/>
</g>
<!-- Node5&#45;&gt;Node2 -->
<g id="edge6" class="edge">
<title>Node5&#45;&gt;Node2</title>
<path fill="none" stroke="midnightblue" d="M544.65,-66.72C439.96,-47.96 328.63,-32.6 262.3,-23.93"/>
<polygon fill="midnightblue" stroke="midnightblue" points="544.29,-70.21 554.76,-68.55 545.54,-63.32 544.29,-70.21"/>
</g>
<!-- Node6 -->
<g id="node6" class="node">
<title>Node6</title>
<g id="a_node6"><a xlink:href="lora_8cpp.html" target="_top" xlink:title="File that handles the LoRa radio and PJON.">
<polygon fill="white" stroke="black" points="555.04,-0.5 555.04,-30.5 672.04,-30.5 672.04,-0.5 555.04,-0.5"/>
<text text-anchor="start" x="563.04" y="-18.5" font-family="Helvetica,sans-Serif" font-size="10.00">BaseStationCode/src</text>
<text text-anchor="middle" x="613.54" y="-7.5" font-family="Helvetica,sans-Serif" font-size="10.00">/src/lora.cpp</text>
</a>
</g>
</g>
<!-- Node5&#45;&gt;Node6 -->
<g id="edge7" class="edge">
<title>Node5&#45;&gt;Node6</title>
<path fill="none" stroke="midnightblue" d="M613.54,-57.11C613.54,-48.15 613.54,-38.32 613.54,-30.58"/>
<polygon fill="midnightblue" stroke="midnightblue" points="610.04,-57.4 613.54,-67.4 617.04,-57.4 610.04,-57.4"/>
</g>
<!-- Node8&#45;&gt;Node2 -->
<g id="edge11" class="edge">
<title>Node8&#45;&gt;Node2</title>
<path fill="none" stroke="midnightblue" d="M234.72,-125.42C230.4,-116.98 225.85,-107.23 222.54,-98 214.3,-75.02 208.69,-47.11 205.81,-30.63"/>
<polygon fill="midnightblue" stroke="midnightblue" points="231.64,-127.09 239.41,-134.3 237.83,-123.83 231.64,-127.09"/>
</g>
<!-- Node9 -->
<g id="node9" class="node">
<title>Node9</title>
<g id="a_node9"><a xlink:href="ota_8cpp.html" target="_top" xlink:title="Handles over the air (OTA) updates.">
<polygon fill="white" stroke="black" points="232.04,-67.5 232.04,-97.5 349.04,-97.5 349.04,-67.5 232.04,-67.5"/>
<text text-anchor="start" x="240.04" y="-85.5" font-family="Helvetica,sans-Serif" font-size="10.00">BaseStationCode/src</text>
<text text-anchor="middle" x="290.54" y="-74.5" font-family="Helvetica,sans-Serif" font-size="10.00">/src/ota.cpp</text>
</a>
</g>
</g>
<!-- Node8&#45;&gt;Node9 -->
<g id="edge12" class="edge">
<title>Node8&#45;&gt;Node9</title>
<path fill="none" stroke="midnightblue" d="M262.51,-125.87C268.73,-116.46 275.76,-105.83 281.23,-97.58"/>
<polygon fill="midnightblue" stroke="midnightblue" points="259.47,-124.12 256.87,-134.4 265.31,-127.99 259.47,-124.12"/>
</g>
<!-- Node10&#45;&gt;Node2 -->
<g id="edge14" class="edge">
<title>Node10&#45;&gt;Node2</title>
<path fill="none" stroke="midnightblue" d="M477.01,-130.17C457.09,-120.92 432.84,-109.28 411.54,-98 387.42,-85.23 383.43,-78.18 358.54,-67 325.36,-52.1 286.44,-39.44 255.9,-30.51"/>
<polygon fill="midnightblue" stroke="midnightblue" points="475.57,-133.36 486.12,-134.38 478.51,-127.01 475.57,-133.36"/>
</g>
<!-- Node10&#45;&gt;Node5 -->
<g id="edge15" class="edge">
<title>Node10&#45;&gt;Node5</title>
<path fill="none" stroke="midnightblue" d="M546.73,-128.73C561.59,-118.68 579.3,-106.68 592.75,-97.58"/>
<polygon fill="midnightblue" stroke="midnightblue" points="544.69,-125.89 538.37,-134.4 548.61,-131.69 544.69,-125.89"/>
</g>
<!-- Node11 -->
<g id="node11" class="node">
<title>Node11</title>
<g id="a_node11"><a xlink:href="rpc_8cpp.html" target="_top" xlink:title="Handles RPC calls.">
<polygon fill="white" stroke="black" points="420.04,-67.5 420.04,-97.5 537.04,-97.5 537.04,-67.5 420.04,-67.5"/>
<text text-anchor="start" x="428.04" y="-85.5" font-family="Helvetica,sans-Serif" font-size="10.00">BaseStationCode/src</text>
<text text-anchor="middle" x="478.54" y="-74.5" font-family="Helvetica,sans-Serif" font-size="10.00">/src/rpc.cpp</text>
</a>
</g>
</g>
<!-- Node10&#45;&gt;Node11 -->
<g id="edge16" class="edge">
<title>Node10&#45;&gt;Node11</title>
<path fill="none" stroke="midnightblue" d="M503.78,-125.58C498.18,-116.24 491.89,-105.75 486.98,-97.58"/>
<polygon fill="midnightblue" stroke="midnightblue" points="500.93,-127.62 509.08,-134.4 506.93,-124.02 500.93,-127.62"/>
</g>
</g>
</svg>
