<?xml version="1.0" encoding="UTF-8" standalone="no"?>
<!DOCTYPE svg PUBLIC "-//W3C//DTD SVG 1.1//EN"
 "http://www.w3.org/Graphics/SVG/1.1/DTD/svg11.dtd">
<!-- Generated by graphviz version 2.43.0 (0)
 -->
<!-- Title: BaseStationCode/src/src/networking.cpp Pages: 1 -->
<!--zoomable 487 -->
<svg id="main" version="1.1" xmlns="http://www.w3.org/2000/svg" xmlns:xlink="http://www.w3.org/1999/xlink" xml:space="preserve" onload="init(evt)">
<style type="text/css"><![CDATA[
.edge:hover path { stroke: red; }
.edge:hover polygon { stroke: red; fill: red; }
]]></style>
<script type="text/javascript"><![CDATA[
var edges = document.getElementsByTagName('g');
if (edges && edges.length) {
  for (var i=0;i<edges.length;i++) {
    if (edges[i].id.substr(0,4)=='edge') {
      edges[i].setAttribute('class','edge');
    }
  }
}
]]></script>
        <defs>
                <circle id="rim" cx="0" cy="0" r="7"/>
                <circle id="rim2" cx="0" cy="0" r="3.5"/>
                <g id="zoomPlus">
                        <use xlink:href="#rim" fill="#404040">
                                <set attributeName="fill" to="#808080" begin="zoomplus.mouseover" end="zoomplus.mouseout"/>
                        </use>
                        <path d="M-4,0h8M0,-4v8" fill="none" stroke="white" stroke-width="1.5" pointer-events="none"/>
                </g>
                <g id="zoomMin">
                        <use xlink:href="#rim" fill="#404040">
                                <set attributeName="fill" to="#808080" begin="zoomminus.mouseover" end="zoomminus.mouseout"/>
                        </use>
                        <path d="M-4,0h8" fill="none" stroke="white" stroke-width="1.5" pointer-events="none"/>
                </g>
                <g id="dirArrow">
                        <path fill="none" stroke="white" stroke-width="1.5" d="M0,-3.0v7 M-2.5,-0.5L0,-3.0L2.5,-0.5"/>
                </g>
               <g id="resetDef">
                       <use xlink:href="#rim2" fill="#404040">
                               <set attributeName="fill" to="#808080" begin="reset.mouseover" end="reset.mouseout"/>
                       </use>
               </g>
        </defs>

<script type="text/javascript">
var viewWidth = 759;
var viewHeight = 487;
var sectionId = 'dynsection-0';
</script>
<script xlink:href="svgpan.js"/>
<svg id="graph" class="graph">
<g id="viewport">
<title>BaseStationCode/src/src/networking.cpp</title>
<polygon fill="white" stroke="transparent" points="-4,4 -4,-483 755,-483 755,4 -4,4"/>
<!-- Node1 -->
<g id="node1" class="node">
<title>Node1</title>
<g id="a_node1"><a xlink:title="File that handles connecting to WiFi and MQTT and staying connected.">
<polygon fill="#bfbfbf" stroke="black" points="427.5,-448.5 427.5,-478.5 544.5,-478.5 544.5,-448.5 427.5,-448.5"/>
<text text-anchor="start" x="435.5" y="-466.5" font-family="Helvetica,sans-Serif" font-size="10.00">BaseStationCode/src</text>
<text text-anchor="middle" x="486" y="-455.5" font-family="Helvetica,sans-Serif" font-size="10.00">/src/networking.cpp</text>
</a>
</g>
</g>
<!-- Node2 -->
<g id="node2" class="node">
<title>Node2</title>
<g id="a_node2"><a xlink:href="networking_8h.html" target="_top" xlink:title="Header file for networking.cpp.">
<polygon fill="white" stroke="black" points="446,-392.5 446,-411.5 526,-411.5 526,-392.5 446,-392.5"/>
<text text-anchor="middle" x="486" y="-399.5" font-family="Helvetica,sans-Serif" font-size="10.00">networking.h</text>
</a>
</g>
</g>
<!-- Node1&#45;&gt;Node2 -->
<g id="edge1" class="edge">
<title>Node1&#45;&gt;Node2</title>
<path fill="none" stroke="midnightblue" d="M486,-448.4C486,-440.47 486,-430.46 486,-421.86"/>
<polygon fill="midnightblue" stroke="midnightblue" points="489.5,-421.66 486,-411.66 482.5,-421.66 489.5,-421.66"/>
</g>
<!-- Node3 -->
<g id="node3" class="node">
<title>Node3</title>
<g id="a_node3"><a xlink:href="defines_8h.html" target="_top" xlink:title="Definitions and other preprocessor and global stuff.">
<polygon fill="white" stroke="black" points="432,-56.5 432,-75.5 502,-75.5 502,-56.5 432,-56.5"/>
<text text-anchor="middle" x="467" y="-63.5" font-family="Helvetica,sans-Serif" font-size="10.00">../defines.h</text>
</a>
</g>
</g>
<!-- Node2&#45;&gt;Node3 -->
<g id="edge2" class="edge">
<title>Node2&#45;&gt;Node3</title>
<path fill="none" stroke="midnightblue" d="M526.07,-400.58C595.78,-397.52 732,-380.12 732,-291 732,-291 732,-291 732,-233 732,-164.08 692.71,-149.68 635,-112 597.84,-87.74 547.96,-76.5 512.23,-71.33"/>
<polygon fill="midnightblue" stroke="midnightblue" points="512.46,-67.83 502.08,-69.97 511.53,-74.77 512.46,-67.83"/>
</g>
<!-- Node12 -->
<g id="node12" class="node">
<title>Node12</title>
<g id="a_node12"><a xlink:href="devices_8h.html" target="_top" xlink:title="Devices and manager for all known devices the base station connects to.">
<polygon fill="white" stroke="black" points="418.5,-224.5 418.5,-243.5 481.5,-243.5 481.5,-224.5 418.5,-224.5"/>
<text text-anchor="middle" x="450" y="-231.5" font-family="Helvetica,sans-Serif" font-size="10.00">devices.h</text>
</a>
</g>
</g>
<!-- Node2&#45;&gt;Node12 -->
<g id="edge11" class="edge">
<title>Node2&#45;&gt;Node12</title>
<path fill="none" stroke="midnightblue" d="M484.06,-392.08C478.4,-365.95 461.76,-289.21 454.03,-253.58"/>
<polygon fill="midnightblue" stroke="midnightblue" points="457.4,-252.6 451.86,-243.57 450.56,-254.08 457.4,-252.6"/>
</g>
<!-- Node16 -->
<g id="node16" class="node">
<title>Node16</title>
<g id="a_node16"><a xlink:href="lora_8h.html" target="_top" xlink:title="File that handles the LoRa radio and PJON.">
<polygon fill="white" stroke="black" points="414,-336.5 414,-355.5 458,-355.5 458,-336.5 414,-336.5"/>
<text text-anchor="middle" x="436" y="-343.5" font-family="Helvetica,sans-Serif" font-size="10.00">lora.h</text>
</a>
</g>
</g>
<!-- Node2&#45;&gt;Node16 -->
<g id="edge20" class="edge">
<title>Node2&#45;&gt;Node16</title>
<path fill="none" stroke="midnightblue" d="M472.85,-392.32C464.09,-384.65 453.13,-373.25 445.25,-363.8"/>
<polygon fill="midnightblue" stroke="midnightblue" points="447.94,-361.56 439.03,-355.83 442.43,-365.87 447.94,-361.56"/>
</g>
<!-- Node4 -->
<g id="node4" class="node">
<title>Node4</title>
<g id="a_node4"><a xlink:title=" ">
<polygon fill="white" stroke="#bfbfbf" points="434,-0.5 434,-19.5 514,-19.5 514,-0.5 434,-0.5"/>
<text text-anchor="middle" x="474" y="-7.5" font-family="Helvetica,sans-Serif" font-size="10.00">credentials.h</text>
</a>
</g>
</g>
<!-- Node3&#45;&gt;Node4 -->
<g id="edge3" class="edge">
<title>Node3&#45;&gt;Node4</title>
<path fill="none" stroke="midnightblue" d="M468.16,-56.08C469.08,-48.93 470.42,-38.64 471.58,-29.69"/>
<polygon fill="midnightblue" stroke="midnightblue" points="475.05,-30.12 472.87,-19.75 468.11,-29.22 475.05,-30.12"/>
</g>
<!-- Node5 -->
<g id="node5" class="node">
<title>Node5</title>
<g id="a_node5"><a xlink:title=" ">
<polygon fill="white" stroke="#bfbfbf" points="532.5,-0.5 532.5,-19.5 595.5,-19.5 595.5,-0.5 532.5,-0.5"/>
<text text-anchor="middle" x="564" y="-7.5" font-family="Helvetica,sans-Serif" font-size="10.00">Arduino.h</text>
</a>
</g>
</g>
<!-- Node3&#45;&gt;Node5 -->
<g id="edge4" class="edge">
<title>Node3&#45;&gt;Node5</title>
<path fill="none" stroke="midnightblue" d="M482.58,-56.32C498,-47.74 521.81,-34.49 539.71,-24.52"/>
<polygon fill="midnightblue" stroke="midnightblue" points="541.42,-27.58 548.45,-19.65 538.01,-21.46 541.42,-27.58"/>
</g>
<!-- Node6 -->
<g id="node6" class="node">
<title>Node6</title>
<g id="a_node6"><a xlink:title=" ">
<polygon fill="white" stroke="#bfbfbf" points="613.5,-0.5 613.5,-19.5 660.5,-19.5 660.5,-0.5 613.5,-0.5"/>
<text text-anchor="middle" x="637" y="-7.5" font-family="Helvetica,sans-Serif" font-size="10.00">WiFi.h</text>
</a>
</g>
</g>
<!-- Node3&#45;&gt;Node6 -->
<g id="edge5" class="edge">
<title>Node3&#45;&gt;Node6</title>
<path fill="none" stroke="midnightblue" d="M493.94,-56.44C523.67,-47 571.57,-31.78 603.66,-21.59"/>
<polygon fill="midnightblue" stroke="midnightblue" points="605,-24.84 613.47,-18.47 602.88,-18.16 605,-24.84"/>
</g>
<!-- Node7 -->
<g id="node7" class="node">
<title>Node7</title>
<g id="a_node7"><a xlink:title=" ">
<polygon fill="white" stroke="#bfbfbf" points="0,-0.5 0,-19.5 90,-19.5 90,-0.5 0,-0.5"/>
<text text-anchor="middle" x="45" y="-7.5" font-family="Helvetica,sans-Serif" font-size="10.00">PubSubClient.h</text>
</a>
</g>
</g>
<!-- Node3&#45;&gt;Node7 -->
<g id="edge6" class="edge">
<title>Node3&#45;&gt;Node7</title>
<path fill="none" stroke="midnightblue" d="M431.92,-61.22C368.06,-54.24 228.33,-38.45 100.06,-20.1"/>
<polygon fill="midnightblue" stroke="midnightblue" points="100.46,-16.62 90.06,-18.66 99.46,-23.55 100.46,-16.62"/>
</g>
<!-- Node8 -->
<g id="node8" class="node">
<title>Node8</title>
<g id="a_node8"><a xlink:title=" ">
<polygon fill="white" stroke="#bfbfbf" points="108.5,-0.5 108.5,-19.5 191.5,-19.5 191.5,-0.5 108.5,-0.5"/>
<text text-anchor="middle" x="150" y="-7.5" font-family="Helvetica,sans-Serif" font-size="10.00">ArduinoJson.h</text>
</a>
</g>
</g>
<!-- Node3&#45;&gt;Node8 -->
<g id="edge7" class="edge">
<title>Node3&#45;&gt;Node8</title>
<path fill="none" stroke="midnightblue" d="M431.7,-59.11C382.59,-50.9 290.57,-35.45 201.72,-20.11"/>
<polygon fill="midnightblue" stroke="midnightblue" points="202.19,-16.64 191.74,-18.39 201,-23.54 202.19,-16.64"/>
</g>
<!-- Node9 -->
<g id="node9" class="node">
<title>Node9</title>
<g id="a_node9"><a xlink:title=" ">
<polygon fill="white" stroke="#bfbfbf" points="210,-0.5 210,-19.5 320,-19.5 320,-0.5 210,-0.5"/>
<text text-anchor="middle" x="265" y="-7.5" font-family="Helvetica,sans-Serif" font-size="10.00">PJONThroughLora.h</text>
</a>
</g>
</g>
<!-- Node3&#45;&gt;Node9 -->
<g id="edge8" class="edge">
<title>Node3&#45;&gt;Node9</title>
<path fill="none" stroke="midnightblue" d="M434.99,-56.44C400.27,-47.16 344.71,-32.31 306.62,-22.13"/>
<polygon fill="midnightblue" stroke="midnightblue" points="307.42,-18.72 296.86,-19.52 305.61,-25.48 307.42,-18.72"/>
</g>
<!-- Node10 -->
<g id="node10" class="node">
<title>Node10</title>
<g id="a_node10"><a xlink:title=" ">
<polygon fill="white" stroke="#bfbfbf" points="338,-0.5 338,-19.5 416,-19.5 416,-0.5 338,-0.5"/>
<text text-anchor="middle" x="377" y="-7.5" font-family="Helvetica,sans-Serif" font-size="10.00">TunePlayer.h</text>
</a>
</g>
</g>
<!-- Node3&#45;&gt;Node10 -->
<g id="edge9" class="edge">
<title>Node3&#45;&gt;Node10</title>
<path fill="none" stroke="midnightblue" d="M452.54,-56.32C438.5,-47.9 416.95,-34.97 400.46,-25.07"/>
<polygon fill="midnightblue" stroke="midnightblue" points="401.8,-21.8 391.42,-19.65 398.2,-27.8 401.8,-21.8"/>
</g>
<!-- Node11 -->
<g id="node11" class="node">
<title>Node11</title>
<g id="a_node11"><a xlink:href="topics_8h.html" target="_top" xlink:title="MQTT topics for a thingsboard gateway.">
<polygon fill="white" stroke="black" points="679,-0.5 679,-19.5 751,-19.5 751,-0.5 679,-0.5"/>
<text text-anchor="middle" x="715" y="-7.5" font-family="Helvetica,sans-Serif" font-size="10.00">src/topics.h</text>
</a>
</g>
</g>
<!-- Node3&#45;&gt;Node11 -->
<g id="edge10" class="edge">
<title>Node3&#45;&gt;Node11</title>
<path fill="none" stroke="midnightblue" d="M502.01,-57.38C545.76,-47.85 620.75,-31.52 669.08,-21"/>
<polygon fill="midnightblue" stroke="midnightblue" points="669.94,-24.39 678.96,-18.85 668.45,-17.55 669.94,-24.39"/>
</g>
<!-- Node12&#45;&gt;Node3 -->
<g id="edge12" class="edge">
<title>Node12&#45;&gt;Node3</title>
<path fill="none" stroke="midnightblue" d="M448.01,-224.43C446.03,-215.42 443.13,-200.8 442,-188 438.73,-150.94 451.37,-108.56 459.86,-85.07"/>
<polygon fill="midnightblue" stroke="midnightblue" points="463.14,-86.29 463.39,-75.7 456.59,-83.82 463.14,-86.29"/>
</g>
<!-- Node13 -->
<g id="node13" class="node">
<title>Node13</title>
<g id="a_node13"><a xlink:href="lookups_8h.html" target="_top" xlink:title="Lookupable and lookupable manager base classes.">
<polygon fill="white" stroke="black" points="331.5,-112.5 331.5,-131.5 394.5,-131.5 394.5,-112.5 331.5,-112.5"/>
<text text-anchor="middle" x="363" y="-119.5" font-family="Helvetica,sans-Serif" font-size="10.00">lookups.h</text>
</a>
</g>
</g>
<!-- Node12&#45;&gt;Node13 -->
<g id="edge13" class="edge">
<title>Node12&#45;&gt;Node13</title>
<path fill="none" stroke="midnightblue" d="M441.5,-224.32C432.96,-215.46 419.6,-201.18 409,-188 396.45,-172.4 383.38,-153.64 374.39,-140.3"/>
<polygon fill="midnightblue" stroke="midnightblue" points="377.09,-138.04 368.63,-131.66 371.26,-141.92 377.09,-138.04"/>
</g>
<!-- Node14 -->
<g id="node14" class="node">
<title>Node14</title>
<g id="a_node14"><a xlink:href="fields_8h.html" target="_top" xlink:title="Contains fields classes.">
<polygon fill="white" stroke="black" points="451,-168.5 451,-187.5 503,-187.5 503,-168.5 451,-168.5"/>
<text text-anchor="middle" x="477" y="-175.5" font-family="Helvetica,sans-Serif" font-size="10.00">fields.h</text>
</a>
</g>
</g>
<!-- Node12&#45;&gt;Node14 -->
<g id="edge15" class="edge">
<title>Node12&#45;&gt;Node14</title>
<path fill="none" stroke="midnightblue" d="M454.46,-224.08C458.15,-216.69 463.52,-205.95 468.09,-196.81"/>
<polygon fill="midnightblue" stroke="midnightblue" points="471.28,-198.26 472.62,-187.75 465.02,-195.13 471.28,-198.26"/>
</g>
<!-- Node13&#45;&gt;Node3 -->
<g id="edge14" class="edge">
<title>Node13&#45;&gt;Node3</title>
<path fill="none" stroke="midnightblue" d="M379.71,-112.32C396.31,-103.7 422,-90.36 441.22,-80.39"/>
<polygon fill="midnightblue" stroke="midnightblue" points="443.07,-83.37 450.33,-75.65 439.84,-77.16 443.07,-83.37"/>
</g>
<!-- Node14&#45;&gt;Node3 -->
<g id="edge16" class="edge">
<title>Node14&#45;&gt;Node3</title>
<path fill="none" stroke="midnightblue" d="M476.22,-168.37C474.6,-150.62 470.88,-109.67 468.69,-85.6"/>
<polygon fill="midnightblue" stroke="midnightblue" points="472.17,-85.23 467.78,-75.59 465.2,-85.87 472.17,-85.23"/>
</g>
<!-- Node14&#45;&gt;Node13 -->
<g id="edge17" class="edge">
<title>Node14&#45;&gt;Node13</title>
<path fill="none" stroke="midnightblue" d="M458.94,-168.44C440.43,-159.68 411.42,-145.94 390.14,-135.86"/>
<polygon fill="midnightblue" stroke="midnightblue" points="391.51,-132.63 380.98,-131.52 388.52,-138.96 391.51,-132.63"/>
</g>
<!-- Node15 -->
<g id="node15" class="node">
<title>Node15</title>
<g id="a_node15"><a xlink:href="conversions_8h.html" target="_top" xlink:title="General functions for converting to and from char arrays.">
<polygon fill="white" stroke="black" points="489,-112.5 489,-131.5 573,-131.5 573,-112.5 489,-112.5"/>
<text text-anchor="middle" x="531" y="-119.5" font-family="Helvetica,sans-Serif" font-size="10.00">conversions.h</text>
</a>
</g>
</g>
<!-- Node14&#45;&gt;Node15 -->
<g id="edge18" class="edge">
<title>Node14&#45;&gt;Node15</title>
<path fill="none" stroke="midnightblue" d="M485.92,-168.08C493.78,-160.22 505.43,-148.57 514.92,-139.08"/>
<polygon fill="midnightblue" stroke="midnightblue" points="517.65,-141.3 522.25,-131.75 512.7,-136.35 517.65,-141.3"/>
</g>
<!-- Node15&#45;&gt;Node3 -->
<g id="edge19" class="edge">
<title>Node15&#45;&gt;Node3</title>
<path fill="none" stroke="midnightblue" d="M520.72,-112.32C511.16,-104.26 496.72,-92.08 485.22,-82.37"/>
<polygon fill="midnightblue" stroke="midnightblue" points="487.37,-79.61 477.47,-75.83 482.86,-84.96 487.37,-79.61"/>
</g>
<!-- Node16&#45;&gt;Node2 -->
<g id="edge24" class="edge">
<title>Node16&#45;&gt;Node2</title>
<path fill="none" stroke="midnightblue" d="M449.23,-355.75C457.96,-363.4 468.85,-374.74 476.7,-384.14"/>
<polygon fill="midnightblue" stroke="midnightblue" points="473.99,-386.36 482.91,-392.08 479.51,-382.05 473.99,-386.36"/>
</g>
<!-- Node16&#45;&gt;Node3 -->
<g id="edge21" class="edge">
<title>Node16&#45;&gt;Node3</title>
<path fill="none" stroke="midnightblue" d="M413.74,-338.08C375.88,-324.77 303,-291.78 303,-235 303,-235 303,-235 303,-177 303,-146.9 300.89,-133.46 322,-112 348.18,-85.38 389.79,-74.44 421.74,-69.98"/>
<polygon fill="midnightblue" stroke="midnightblue" points="422.24,-73.44 431.74,-68.75 421.38,-66.5 422.24,-73.44"/>
</g>
<!-- Node16&#45;&gt;Node12 -->
<g id="edge23" class="edge">
<title>Node16&#45;&gt;Node12</title>
<path fill="none" stroke="midnightblue" d="M437.1,-336.37C439.36,-318.62 444.57,-277.67 447.63,-253.6"/>
<polygon fill="midnightblue" stroke="midnightblue" points="451.12,-253.95 448.91,-243.59 444.17,-253.07 451.12,-253.95"/>
</g>
<!-- Node16&#45;&gt;Node13 -->
<g id="edge22" class="edge">
<title>Node16&#45;&gt;Node13</title>
<path fill="none" stroke="midnightblue" d="M433.14,-336.3C422.37,-303.56 384.17,-187.38 369.14,-141.67"/>
<polygon fill="midnightblue" stroke="midnightblue" points="372.37,-140.29 365.92,-131.88 365.72,-142.48 372.37,-140.29"/>
</g>
<!-- Node17 -->
<g id="node17" class="node">
<title>Node17</title>
<g id="a_node17"><a xlink:href="rpc_8h.html" target="_top" xlink:title="Handles RPC calls.">
<polygon fill="white" stroke="black" points="514.5,-280.5 514.5,-299.5 555.5,-299.5 555.5,-280.5 514.5,-280.5"/>
<text text-anchor="middle" x="535" y="-287.5" font-family="Helvetica,sans-Serif" font-size="10.00">rpc.h</text>
</a>
</g>
</g>
<!-- Node16&#45;&gt;Node17 -->
<g id="edge25" class="edge">
<title>Node16&#45;&gt;Node17</title>
<path fill="none" stroke="midnightblue" d="M451.91,-336.32C467.64,-327.74 491.94,-314.49 510.21,-304.52"/>
<polygon fill="midnightblue" stroke="midnightblue" points="512.03,-307.52 519.13,-299.65 508.68,-301.37 512.03,-307.52"/>
</g>
<!-- Node17&#45;&gt;Node2 -->
<g id="edge32" class="edge">
<title>Node17&#45;&gt;Node2</title>
<path fill="none" stroke="midnightblue" d="M531.17,-299.59C523.21,-317.47 504.71,-359 494.02,-383"/>
<polygon fill="midnightblue" stroke="midnightblue" points="490.72,-381.81 489.84,-392.37 497.11,-384.66 490.72,-381.81"/>
</g>
<!-- Node17&#45;&gt;Node3 -->
<g id="edge26" class="edge">
<title>Node17&#45;&gt;Node3</title>
<path fill="none" stroke="midnightblue" d="M541.76,-280.43C562.29,-253.32 620.18,-167.93 582,-112 566.38,-89.12 537.24,-77.87 512.2,-72.34"/>
<polygon fill="midnightblue" stroke="midnightblue" points="512.62,-68.86 502.13,-70.37 511.27,-75.73 512.62,-68.86"/>
</g>
<!-- Node17&#45;&gt;Node11 -->
<g id="edge27" class="edge">
<title>Node17&#45;&gt;Node11</title>
<path fill="none" stroke="midnightblue" d="M555.68,-280.99C587.7,-267.34 648.38,-236.29 675,-188 703.84,-135.68 711.9,-63.74 714.14,-29.97"/>
<polygon fill="midnightblue" stroke="midnightblue" points="717.65,-29.89 714.72,-19.71 710.67,-29.49 717.65,-29.89"/>
</g>
<!-- Node17&#45;&gt;Node12 -->
<g id="edge30" class="edge">
<title>Node17&#45;&gt;Node12</title>
<path fill="none" stroke="midnightblue" d="M521.34,-280.32C508.08,-271.9 487.73,-258.97 472.15,-249.07"/>
<polygon fill="midnightblue" stroke="midnightblue" points="473.94,-246.06 463.62,-243.65 470.19,-251.97 473.94,-246.06"/>
</g>
<!-- Node17&#45;&gt;Node14 -->
<g id="edge31" class="edge">
<title>Node17&#45;&gt;Node14</title>
<path fill="none" stroke="midnightblue" d="M530.45,-280.37C520.96,-262.38 498.91,-220.55 486.29,-196.63"/>
<polygon fill="midnightblue" stroke="midnightblue" points="489.29,-194.8 481.53,-187.59 483.1,-198.07 489.29,-194.8"/>
</g>
<!-- Node18 -->
<g id="node18" class="node">
<title>Node18</title>
<g id="a_node18"><a xlink:href="alarm_8h.html" target="_top" xlink:title="Handles alarms.">
<polygon fill="white" stroke="black" points="612,-168.5 612,-187.5 666,-187.5 666,-168.5 612,-168.5"/>
<text text-anchor="middle" x="639" y="-175.5" font-family="Helvetica,sans-Serif" font-size="10.00">alarm.h</text>
</a>
</g>
</g>
<!-- Node17&#45;&gt;Node18 -->
<g id="edge28" class="edge">
<title>Node17&#45;&gt;Node18</title>
<path fill="none" stroke="midnightblue" d="M550.27,-280.43C563.88,-272.28 583.79,-259.05 598,-244 611.41,-229.79 622.9,-210.57 630.27,-196.72"/>
<polygon fill="midnightblue" stroke="midnightblue" points="633.43,-198.22 634.88,-187.73 627.2,-195.03 633.43,-198.22"/>
</g>
<!-- Node18&#45;&gt;Node3 -->
<g id="edge29" class="edge">
<title>Node18&#45;&gt;Node3</title>
<path fill="none" stroke="midnightblue" d="M638.19,-168.07C636.46,-154.12 631.1,-127.19 615,-112 587.23,-85.81 544.68,-74.83 512.32,-70.25"/>
<polygon fill="midnightblue" stroke="midnightblue" points="512.56,-66.75 502.2,-68.97 511.69,-73.69 512.56,-66.75"/>
</g>
</g>
</svg>
        <g id="navigator" transform="translate(0 0)" fill="#404254">
                <rect fill="#f2f5e9" fill-opacity="0.5" stroke="#606060" stroke-width=".5" x="0" y="0" width="60" height="60"/>
                <use id="zoomplus" xlink:href="#zoomPlus" x="17" y="9" onmousedown="handleZoom(evt,'in')"/>
                <use id="zoomminus" xlink:href="#zoomMin" x="42" y="9" onmousedown="handleZoom(evt,'out')"/>
                <use id="reset" xlink:href="#resetDef" x="30" y="36" onmousedown="handleReset()"/>
                <g id="arrowUp" xlink:href="#dirArrow" transform="translate(30 24)" onmousedown="handlePan(0,-1)">
                  <use xlink:href="#rim" fill="#404040">
                        <set attributeName="fill" to="#808080" begin="arrowUp.mouseover" end="arrowUp.mouseout"/>
                  </use>
                  <path fill="none" stroke="white" stroke-width="1.5" d="M0,-3.0v7 M-2.5,-0.5L0,-3.0L2.5,-0.5"/>
                </g>
                <g id="arrowRight" xlink:href="#dirArrow" transform="rotate(90) translate(36 -43)" onmousedown="handlePan(1,0)">
                  <use xlink:href="#rim" fill="#404040">
                        <set attributeName="fill" to="#808080" begin="arrowRight.mouseover" end="arrowRight.mouseout"/>
                  </use>
                  <path fill="none" stroke="white" stroke-width="1.5" d="M0,-3.0v7 M-2.5,-0.5L0,-3.0L2.5,-0.5"/>
                </g>
                <g id="arrowDown" xlink:href="#dirArrow" transform="rotate(180) translate(-30 -48)" onmousedown="handlePan(0,1)">
                  <use xlink:href="#rim" fill="#404040">
                        <set attributeName="fill" to="#808080" begin="arrowDown.mouseover" end="arrowDown.mouseout"/>
                  </use>
                  <path fill="none" stroke="white" stroke-width="1.5" d="M0,-3.0v7 M-2.5,-0.5L0,-3.0L2.5,-0.5"/>
                </g>
                <g id="arrowLeft" xlink:href="#dirArrow" transform="rotate(270) translate(-36 17)" onmousedown="handlePan(-1,0)">
                  <use xlink:href="#rim" fill="#404040">
                        <set attributeName="fill" to="#808080" begin="arrowLeft.mouseover" end="arrowLeft.mouseout"/>
                  </use>
                  <path fill="none" stroke="white" stroke-width="1.5" d="M0,-3.0v7 M-2.5,-0.5L0,-3.0L2.5,-0.5"/>
                </g>
        </g>
        <svg viewBox="0 0 15 15" width="100%" height="30px" preserveAspectRatio="xMaxYMin meet">
         <g id="arrow_out" transform="scale(0.3 0.3)">
          <a xlink:href="networking_8cpp__incl_org.svg" target="_base">
           <rect id="button" ry="5" rx="5" y="6" x="6" height="38" width="38"
                fill="#f2f5e9" fill-opacity="0.5" stroke="#606060" stroke-width="1.0"/>
           <path id="arrow"
             d="M 11.500037,31.436501 C 11.940474,20.09759 22.043105,11.32322 32.158766,21.979434 L 37.068811,17.246167 C 37.068811,17.246167 37.088388,32 37.088388,32 L 22.160133,31.978069 C 22.160133,31.978069 26.997745,27.140456 26.997745,27.140456 C 18.528582,18.264221 13.291696,25.230495 11.500037,31.436501 z"
             style="fill:#404040;"/>
          </a>
         </g>
        </svg>
</svg>
