<?xml version="1.0" encoding="UTF-8" standalone="no"?>
<!DOCTYPE svg PUBLIC "-//W3C//DTD SVG 1.1//EN"
 "http://www.w3.org/Graphics/SVG/1.1/DTD/svg11.dtd">
<!-- Generated by graphviz version 2.43.0 (0)
 -->
<!-- Title: networkingTask Pages: 1 -->
<!--zoomable 180 -->
<svg id="main" version="1.1" xmlns="http://www.w3.org/2000/svg" xmlns:xlink="http://www.w3.org/1999/xlink" xml:space="preserve" onload="init(evt)">
<style type="text/css"><![CDATA[
.edge:hover path { stroke: red; }
.edge:hover polygon { stroke: red; fill: red; }
]]></style>
<script type="text/javascript"><![CDATA[
var edges = document.getElementsByTagName('g');
if (edges && edges.length) {
  for (var i=0;i<edges.length;i++) {
    if (edges[i].id.substr(0,4)=='edge') {
      edges[i].setAttribute('class','edge');
    }
  }
}
]]></script>
        <defs>
                <circle id="rim" cx="0" cy="0" r="7"/>
                <circle id="rim2" cx="0" cy="0" r="3.5"/>
                <g id="zoomPlus">
                        <use xlink:href="#rim" fill="#404040">
                                <set attributeName="fill" to="#808080" begin="zoomplus.mouseover" end="zoomplus.mouseout"/>
                        </use>
                        <path d="M-4,0h8M0,-4v8" fill="none" stroke="white" stroke-width="1.5" pointer-events="none"/>
                </g>
                <g id="zoomMin">
                        <use xlink:href="#rim" fill="#404040">
                                <set attributeName="fill" to="#808080" begin="zoomminus.mouseover" end="zoomminus.mouseout"/>
                        </use>
                        <path d="M-4,0h8" fill="none" stroke="white" stroke-width="1.5" pointer-events="none"/>
                </g>
                <g id="dirArrow">
                        <path fill="none" stroke="white" stroke-width="1.5" d="M0,-3.0v7 M-2.5,-0.5L0,-3.0L2.5,-0.5"/>
                </g>
               <g id="resetDef">
                       <use xlink:href="#rim2" fill="#404040">
                               <set attributeName="fill" to="#808080" begin="reset.mouseover" end="reset.mouseout"/>
                       </use>
               </g>
        </defs>

<script type="text/javascript">
var viewWidth = 743;
var viewHeight = 180;
var sectionId = 'dynsection-6';
</script>
<script xlink:href="svgpan.js"/>
<svg id="graph" class="graph">
<g id="viewport">
<title>networkingTask</title>
<polygon fill="white" stroke="transparent" points="-4,4 -4,-176 739,-176 739,4 -4,4"/>
<!-- Node1 -->
<g id="node1" class="node">
<title>Node1</title>
<g id="a_node1"><a xlink:title=" ">
<polygon fill="#bfbfbf" stroke="black" points="0,-19.5 0,-38.5 93,-38.5 93,-19.5 0,-19.5"/>
<text text-anchor="middle" x="46.5" y="-26.5" font-family="Helvetica,sans-Serif" font-size="10.00">networkingTask</text>
</a>
</g>
</g>
<!-- Node2 -->
<g id="node2" class="node">
<title>Node2</title>
<g id="a_node2"><a xlink:href="networking_8cpp.html#a9ad5cb858c24c53a6eaa846b713bd120" target="_top" xlink:title="Connects to the MQTT broker.">
<polygon fill="white" stroke="black" points="129,-38.5 129,-57.5 209,-57.5 209,-38.5 129,-38.5"/>
<text text-anchor="middle" x="169" y="-45.5" font-family="Helvetica,sans-Serif" font-size="10.00">mqttConnect</text>
</a>
</g>
</g>
<!-- Node1&#45;&gt;Node2 -->
<g id="edge1" class="edge">
<title>Node1&#45;&gt;Node2</title>
<path fill="none" stroke="midnightblue" d="M93.06,-36.18C101.4,-37.5 110.13,-38.88 118.58,-40.21"/>
<polygon fill="midnightblue" stroke="midnightblue" points="118.27,-43.7 128.69,-41.8 119.36,-36.79 118.27,-43.7"/>
</g>
<!-- Node12 -->
<g id="node12" class="node">
<title>Node12</title>
<g id="a_node12"><a xlink:href="networking_8cpp.html#a23a6f53d5284ae6a9d27420cceeb80c3" target="_top" xlink:title="Connects to WiFi.">
<polygon fill="white" stroke="black" points="296,-0.5 296,-19.5 370,-19.5 370,-0.5 296,-0.5"/>
<text text-anchor="middle" x="333" y="-7.5" font-family="Helvetica,sans-Serif" font-size="10.00">wifiConnect</text>
</a>
</g>
</g>
<!-- Node1&#45;&gt;Node12 -->
<g id="edge12" class="edge">
<title>Node1&#45;&gt;Node12</title>
<path fill="none" stroke="midnightblue" d="M93.21,-25.95C146.07,-22.42 232.62,-16.64 285.72,-13.09"/>
<polygon fill="midnightblue" stroke="midnightblue" points="286.14,-16.57 295.88,-12.41 285.67,-9.59 286.14,-16.57"/>
</g>
<!-- Node3 -->
<g id="node3" class="node">
<title>Node3</title>
<g id="a_node3"><a xlink:href="class_device_manager.html#ac06f3334d0776ed6fd7fd0f71248d6b3" target="_top" xlink:title="Registers each device to Thingsboard over MQTT.">
<polygon fill="white" stroke="black" points="245,-114.5 245,-133.5 421,-133.5 421,-114.5 245,-114.5"/>
<text text-anchor="middle" x="333" y="-121.5" font-family="Helvetica,sans-Serif" font-size="10.00">DeviceManager::connectDevices</text>
</a>
</g>
</g>
<!-- Node2&#45;&gt;Node3 -->
<g id="edge2" class="edge">
<title>Node2&#45;&gt;Node3</title>
<path fill="none" stroke="midnightblue" d="M179.74,-57.69C193.22,-70.52 218.87,-92.94 245,-105 250.4,-107.49 256.13,-109.66 261.99,-111.55"/>
<polygon fill="midnightblue" stroke="midnightblue" points="261.33,-115.01 271.91,-114.48 263.31,-108.29 261.33,-115.01"/>
</g>
<!-- Node4 -->
<g id="node4" class="node">
<title>Node4</title>
<g id="a_node4"><a xlink:href="networking_8cpp.html#a91d98374ed6fc205a7a2c9e2ef00dd97" target="_top" xlink:title=" ">
<polygon fill="white" stroke="black" points="290.5,-76.5 290.5,-95.5 375.5,-95.5 375.5,-76.5 290.5,-76.5"/>
<text text-anchor="middle" x="333" y="-83.5" font-family="Helvetica,sans-Serif" font-size="10.00">mqttReceived</text>
</a>
</g>
</g>
<!-- Node2&#45;&gt;Node4 -->
<g id="edge3" class="edge">
<title>Node2&#45;&gt;Node4</title>
<path fill="none" stroke="midnightblue" d="M206.56,-57.52C218.76,-60.63 232.45,-64.04 245,-67 256.41,-69.69 268.68,-72.45 280.32,-75.01"/>
<polygon fill="midnightblue" stroke="midnightblue" points="279.82,-78.48 290.34,-77.19 281.31,-71.64 279.82,-78.48"/>
</g>
<!-- Node11 -->
<g id="node11" class="node">
<title>Node11</title>
<g id="a_node11"><a xlink:href="networking_8cpp.html#ab2d5192ed1436350b19a2a4ccb2053c3" target="_top" xlink:title="Subscribes to the required topics.">
<polygon fill="white" stroke="black" points="299,-38.5 299,-57.5 367,-57.5 367,-38.5 299,-38.5"/>
<text text-anchor="middle" x="333" y="-45.5" font-family="Helvetica,sans-Serif" font-size="10.00">mqttSetup</text>
</a>
</g>
</g>
<!-- Node2&#45;&gt;Node11 -->
<g id="edge10" class="edge">
<title>Node2&#45;&gt;Node11</title>
<path fill="none" stroke="midnightblue" d="M209.22,-48C233.22,-48 263.97,-48 288.7,-48"/>
<polygon fill="midnightblue" stroke="midnightblue" points="288.88,-51.5 298.88,-48 288.88,-44.5 288.88,-51.5"/>
</g>
<!-- Node2&#45;&gt;Node12 -->
<g id="edge11" class="edge">
<title>Node2&#45;&gt;Node12</title>
<path fill="none" stroke="midnightblue" d="M206.56,-38.48C218.76,-35.37 232.45,-31.96 245,-29 258.31,-25.86 272.81,-22.62 286.09,-19.73"/>
<polygon fill="midnightblue" stroke="midnightblue" points="286.93,-23.13 295.96,-17.59 285.45,-16.29 286.93,-23.13"/>
</g>
<!-- Node5 -->
<g id="node5" class="node">
<title>Node5</title>
<g id="a_node5"><a xlink:href="rpc_8cpp.html#a4cfe66424e5527493ec95bc8ffed5bc7" target="_top" xlink:title="Handles an RPC message addressed to remote devices.">
<polygon fill="white" stroke="black" points="457,-114.5 457,-133.5 532,-133.5 532,-114.5 457,-114.5"/>
<text text-anchor="middle" x="494.5" y="-121.5" font-family="Helvetica,sans-Serif" font-size="10.00">rpcGateway</text>
</a>
</g>
</g>
<!-- Node4&#45;&gt;Node5 -->
<g id="edge4" class="edge">
<title>Node4&#45;&gt;Node5</title>
<path fill="none" stroke="midnightblue" d="M375.68,-94.74C390.07,-97.85 406.27,-101.46 421,-105 429.82,-107.12 439.22,-109.49 448.23,-111.83"/>
<polygon fill="midnightblue" stroke="midnightblue" points="447.61,-115.28 458.17,-114.43 449.38,-108.51 447.61,-115.28"/>
</g>
<!-- Node8 -->
<g id="node8" class="node">
<title>Node8</title>
<g id="a_node8"><a xlink:href="rpc_8cpp.html#ae128ecfe100603224c2fda1ff5f5ce0a" target="_top" xlink:title="Handles an RPC message addressed to this device (not one of the remote devices).">
<polygon fill="white" stroke="black" points="471,-76.5 471,-95.5 518,-95.5 518,-76.5 471,-76.5"/>
<text text-anchor="middle" x="494.5" y="-83.5" font-family="Helvetica,sans-Serif" font-size="10.00">rpcMe</text>
</a>
</g>
</g>
<!-- Node4&#45;&gt;Node8 -->
<g id="edge7" class="edge">
<title>Node4&#45;&gt;Node8</title>
<path fill="none" stroke="midnightblue" d="M375.91,-86C402.28,-86 435.84,-86 460.35,-86"/>
<polygon fill="midnightblue" stroke="midnightblue" points="460.58,-89.5 470.58,-86 460.58,-82.5 460.58,-89.5"/>
</g>
<!-- Node10 -->
<g id="node10" class="node">
<title>Node10</title>
<g id="a_node10"><a xlink:href="rpc_8cpp.html#adfc4d7c2e3b046a5fb41b597ebd9f727" target="_top" xlink:title="Checks if one string starts with another (quicker than strstr?)">
<polygon fill="white" stroke="black" points="461,-38.5 461,-57.5 528,-57.5 528,-38.5 461,-38.5"/>
<text text-anchor="middle" x="494.5" y="-45.5" font-family="Helvetica,sans-Serif" font-size="10.00">startsWith</text>
</a>
</g>
</g>
<!-- Node4&#45;&gt;Node10 -->
<g id="edge9" class="edge">
<title>Node4&#45;&gt;Node10</title>
<path fill="none" stroke="midnightblue" d="M375.68,-77.26C390.07,-74.15 406.27,-70.54 421,-67 430.67,-64.68 441.03,-62.05 450.81,-59.5"/>
<polygon fill="midnightblue" stroke="midnightblue" points="451.95,-62.82 460.73,-56.89 450.17,-56.05 451.95,-62.82"/>
</g>
<!-- Node6 -->
<g id="node6" class="node">
<title>Node6</title>
<g id="a_node6"><a xlink:href="class_lookup_manager.html#aaa9c3082dae381c5079f5346e3c9426b" target="_top" xlink:title="Gets the object matching the given name.">
<polygon fill="white" stroke="black" points="568,-152.5 568,-171.5 735,-171.5 735,-152.5 568,-152.5"/>
<text text-anchor="middle" x="651.5" y="-159.5" font-family="Helvetica,sans-Serif" font-size="10.00">LookupManager::getWithName</text>
</a>
</g>
</g>
<!-- Node5&#45;&gt;Node6 -->
<g id="edge5" class="edge">
<title>Node5&#45;&gt;Node6</title>
<path fill="none" stroke="midnightblue" d="M531.22,-133.59C542.92,-136.67 556,-140.05 568,-143 577.74,-145.4 588.15,-147.87 598.18,-150.2"/>
<polygon fill="midnightblue" stroke="midnightblue" points="597.52,-153.64 608.05,-152.48 599.09,-146.82 597.52,-153.64"/>
</g>
<!-- Node7 -->
<g id="node7" class="node">
<title>Node7</title>
<g id="a_node7"><a xlink:href="class_field.html#a9b3b13d9abe0884a93b294edc0396f74" target="_top" xlink:title="handles an RPC call for a field.">
<polygon fill="white" stroke="black" points="603,-114.5 603,-133.5 700,-133.5 700,-114.5 603,-114.5"/>
<text text-anchor="middle" x="651.5" y="-121.5" font-family="Helvetica,sans-Serif" font-size="10.00">Field::handleRpc</text>
</a>
</g>
</g>
<!-- Node5&#45;&gt;Node7 -->
<g id="edge6" class="edge">
<title>Node5&#45;&gt;Node7</title>
<path fill="none" stroke="midnightblue" d="M532.23,-124C550.31,-124 572.52,-124 592.79,-124"/>
<polygon fill="midnightblue" stroke="midnightblue" points="592.87,-127.5 602.87,-124 592.87,-120.5 592.87,-127.5"/>
</g>
<!-- Node9 -->
<g id="node9" class="node">
<title>Node9</title>
<g id="a_node9"><a xlink:href="rpc_8cpp.html#a8d99d63355a7dac3b1264ced57f255d9" target="_top" xlink:title="Replies to an RPC message for this device.">
<polygon fill="white" stroke="black" points="614.5,-76.5 614.5,-95.5 688.5,-95.5 688.5,-76.5 614.5,-76.5"/>
<text text-anchor="middle" x="651.5" y="-83.5" font-family="Helvetica,sans-Serif" font-size="10.00">replyMeRpc</text>
</a>
</g>
</g>
<!-- Node8&#45;&gt;Node9 -->
<g id="edge8" class="edge">
<title>Node8&#45;&gt;Node9</title>
<path fill="none" stroke="midnightblue" d="M518.04,-86C540.55,-86 575.8,-86 604.28,-86"/>
<polygon fill="midnightblue" stroke="midnightblue" points="604.43,-89.5 614.43,-86 604.43,-82.5 604.43,-89.5"/>
</g>
</g>
</svg>
        <g id="navigator" transform="translate(0 0)" fill="#404254">
                <rect fill="#f2f5e9" fill-opacity="0.5" stroke="#606060" stroke-width=".5" x="0" y="0" width="60" height="60"/>
                <use id="zoomplus" xlink:href="#zoomPlus" x="17" y="9" onmousedown="handleZoom(evt,'in')"/>
                <use id="zoomminus" xlink:href="#zoomMin" x="42" y="9" onmousedown="handleZoom(evt,'out')"/>
                <use id="reset" xlink:href="#resetDef" x="30" y="36" onmousedown="handleReset()"/>
                <g id="arrowUp" xlink:href="#dirArrow" transform="translate(30 24)" onmousedown="handlePan(0,-1)">
                  <use xlink:href="#rim" fill="#404040">
                        <set attributeName="fill" to="#808080" begin="arrowUp.mouseover" end="arrowUp.mouseout"/>
                  </use>
                  <path fill="none" stroke="white" stroke-width="1.5" d="M0,-3.0v7 M-2.5,-0.5L0,-3.0L2.5,-0.5"/>
                </g>
                <g id="arrowRight" xlink:href="#dirArrow" transform="rotate(90) translate(36 -43)" onmousedown="handlePan(1,0)">
                  <use xlink:href="#rim" fill="#404040">
                        <set attributeName="fill" to="#808080" begin="arrowRight.mouseover" end="arrowRight.mouseout"/>
                  </use>
                  <path fill="none" stroke="white" stroke-width="1.5" d="M0,-3.0v7 M-2.5,-0.5L0,-3.0L2.5,-0.5"/>
                </g>
                <g id="arrowDown" xlink:href="#dirArrow" transform="rotate(180) translate(-30 -48)" onmousedown="handlePan(0,1)">
                  <use xlink:href="#rim" fill="#404040">
                        <set attributeName="fill" to="#808080" begin="arrowDown.mouseover" end="arrowDown.mouseout"/>
                  </use>
                  <path fill="none" stroke="white" stroke-width="1.5" d="M0,-3.0v7 M-2.5,-0.5L0,-3.0L2.5,-0.5"/>
                </g>
                <g id="arrowLeft" xlink:href="#dirArrow" transform="rotate(270) translate(-36 17)" onmousedown="handlePan(-1,0)">
                  <use xlink:href="#rim" fill="#404040">
                        <set attributeName="fill" to="#808080" begin="arrowLeft.mouseover" end="arrowLeft.mouseout"/>
                  </use>
                  <path fill="none" stroke="white" stroke-width="1.5" d="M0,-3.0v7 M-2.5,-0.5L0,-3.0L2.5,-0.5"/>
                </g>
        </g>
        <svg viewBox="0 0 15 15" width="100%" height="30px" preserveAspectRatio="xMaxYMin meet">
         <g id="arrow_out" transform="scale(0.3 0.3)">
          <a xlink:href="networking_8cpp_ad26b4549029330bc2b554fa4ed1e5bc7_cgraph_org.svg" target="_base">
           <rect id="button" ry="5" rx="5" y="6" x="6" height="38" width="38"
                fill="#f2f5e9" fill-opacity="0.5" stroke="#606060" stroke-width="1.0"/>
           <path id="arrow"
             d="M 11.500037,31.436501 C 11.940474,20.09759 22.043105,11.32322 32.158766,21.979434 L 37.068811,17.246167 C 37.068811,17.246167 37.088388,32 37.088388,32 L 22.160133,31.978069 C 22.160133,31.978069 26.997745,27.140456 26.997745,27.140456 C 18.528582,18.264221 13.291696,25.230495 11.500037,31.436501 z"
             style="fill:#404040;"/>
          </a>
         </g>
        </svg>
</svg>
