<?xml version="1.0" encoding="UTF-8" standalone="no"?>
<!DOCTYPE svg PUBLIC "-//W3C//DTD SVG 1.1//EN"
 "http://www.w3.org/Graphics/SVG/1.1/DTD/svg11.dtd">
<!-- Generated by graphviz version 2.43.0 (0)
 -->
<!-- Title: BaseStationCode/src/src/networking.cpp Pages: 1 -->
<!--zoomable 487 -->
<svg id="main" version="1.1" xmlns="http://www.w3.org/2000/svg" xmlns:xlink="http://www.w3.org/1999/xlink" xml:space="preserve" onload="init(evt)">
<style type="text/css"><![CDATA[
.edge:hover path { stroke: red; }
.edge:hover polygon { stroke: red; fill: red; }
]]></style>
<script type="text/javascript"><![CDATA[
var edges = document.getElementsByTagName('g');
if (edges && edges.length) {
  for (var i=0;i<edges.length;i++) {
    if (edges[i].id.substr(0,4)=='edge') {
      edges[i].setAttribute('class','edge');
    }
  }
}
]]></script>
        <defs>
                <circle id="rim" cx="0" cy="0" r="7"/>
                <circle id="rim2" cx="0" cy="0" r="3.5"/>
                <g id="zoomPlus">
                        <use xlink:href="#rim" fill="#404040">
                                <set attributeName="fill" to="#808080" begin="zoomplus.mouseover" end="zoomplus.mouseout"/>
                        </use>
                        <path d="M-4,0h8M0,-4v8" fill="none" stroke="white" stroke-width="1.5" pointer-events="none"/>
                </g>
                <g id="zoomMin">
                        <use xlink:href="#rim" fill="#404040">
                                <set attributeName="fill" to="#808080" begin="zoomminus.mouseover" end="zoomminus.mouseout"/>
                        </use>
                        <path d="M-4,0h8" fill="none" stroke="white" stroke-width="1.5" pointer-events="none"/>
                </g>
                <g id="dirArrow">
                        <path fill="none" stroke="white" stroke-width="1.5" d="M0,-3.0v7 M-2.5,-0.5L0,-3.0L2.5,-0.5"/>
                </g>
               <g id="resetDef">
                       <use xlink:href="#rim2" fill="#404040">
                               <set attributeName="fill" to="#808080" begin="reset.mouseover" end="reset.mouseout"/>
                       </use>
               </g>
        </defs>

<script type="text/javascript">
var viewWidth = 568;
var viewHeight = 487;
var sectionId = 'dynsection-0';
</script>
<script xlink:href="svgpan.js"/>
<svg id="graph" class="graph">
<g id="viewport">
<title>BaseStationCode/src/src/networking.cpp</title>
<polygon fill="white" stroke="transparent" points="-4,4 -4,-483 563.5,-483 563.5,4 -4,4"/>
<!-- Node1 -->
<g id="node1" class="node">
<title>Node1</title>
<g id="a_node1"><a xlink:title="File that handles connecting to WiFi and MQTT and staying connected.">
<polygon fill="#bfbfbf" stroke="black" points="425,-448.5 425,-478.5 542,-478.5 542,-448.5 425,-448.5"/>
<text text-anchor="start" x="433" y="-466.5" font-family="Helvetica,sans-Serif" font-size="10.00">BaseStationCode/src</text>
<text text-anchor="middle" x="483.5" y="-455.5" font-family="Helvetica,sans-Serif" font-size="10.00">/src/networking.cpp</text>
</a>
</g>
</g>
<!-- Node2 -->
<g id="node2" class="node">
<title>Node2</title>
<g id="a_node2"><a xlink:href="networking_8h.html" target="_top" xlink:title="Header file for networking.cpp.">
<polygon fill="white" stroke="black" points="359.5,-392.5 359.5,-411.5 439.5,-411.5 439.5,-392.5 359.5,-392.5"/>
<text text-anchor="middle" x="399.5" y="-399.5" font-family="Helvetica,sans-Serif" font-size="10.00">networking.h</text>
</a>
</g>
</g>
<!-- Node1&#45;&gt;Node2 -->
<g id="edge1" class="edge">
<title>Node1&#45;&gt;Node2</title>
<path fill="none" stroke="midnightblue" d="M463.59,-448.4C450.51,-439.13 433.42,-427.03 420.18,-417.65"/>
<polygon fill="midnightblue" stroke="midnightblue" points="421.91,-414.58 411.72,-411.66 417.86,-420.29 421.91,-414.58"/>
</g>
<!-- Node15 -->
<g id="node15" class="node">
<title>Node15</title>
<g id="a_node15"><a xlink:href="rpc_8h.html" target="_top" xlink:title="Handles RPC calls.">
<polygon fill="white" stroke="black" points="408,-280.5 408,-299.5 449,-299.5 449,-280.5 408,-280.5"/>
<text text-anchor="middle" x="428.5" y="-287.5" font-family="Helvetica,sans-Serif" font-size="10.00">rpc.h</text>
</a>
</g>
</g>
<!-- Node1&#45;&gt;Node15 -->
<g id="edge31" class="edge">
<title>Node1&#45;&gt;Node15</title>
<path fill="none" stroke="midnightblue" d="M479,-448.47C469.09,-417.57 445.4,-343.69 434.35,-309.25"/>
<polygon fill="midnightblue" stroke="midnightblue" points="437.63,-308.01 431.25,-299.56 430.97,-310.15 437.63,-308.01"/>
</g>
<!-- Node3 -->
<g id="node3" class="node">
<title>Node3</title>
<g id="a_node3"><a xlink:href="defines_8h.html" target="_top" xlink:title="Definitions and other preprocessor and global stuff.">
<polygon fill="white" stroke="black" points="282.5,-56.5 282.5,-75.5 352.5,-75.5 352.5,-56.5 282.5,-56.5"/>
<text text-anchor="middle" x="317.5" y="-63.5" font-family="Helvetica,sans-Serif" font-size="10.00">../defines.h</text>
</a>
</g>
</g>
<!-- Node2&#45;&gt;Node3 -->
<g id="edge2" class="edge">
<title>Node2&#45;&gt;Node3</title>
<path fill="none" stroke="midnightblue" d="M438.23,-392.43C485.58,-379.39 559.5,-349.65 559.5,-291 559.5,-291 559.5,-291 559.5,-177 559.5,-91.62 433.12,-72.2 363.02,-67.99"/>
<polygon fill="midnightblue" stroke="midnightblue" points="362.86,-64.48 352.69,-67.45 362.49,-71.47 362.86,-64.48"/>
</g>
<!-- Node10 -->
<g id="node10" class="node">
<title>Node10</title>
<g id="a_node10"><a xlink:href="devices_8h.html" target="_top" xlink:title="Devices and manager for all known devices the base station connects to.">
<polygon fill="white" stroke="black" points="298,-224.5 298,-243.5 361,-243.5 361,-224.5 298,-224.5"/>
<text text-anchor="middle" x="329.5" y="-231.5" font-family="Helvetica,sans-Serif" font-size="10.00">devices.h</text>
</a>
</g>
</g>
<!-- Node2&#45;&gt;Node10 -->
<g id="edge9" class="edge">
<title>Node2&#45;&gt;Node10</title>
<path fill="none" stroke="midnightblue" d="M395.74,-392.08C384.67,-365.83 352.08,-288.55 337.14,-253.12"/>
<polygon fill="midnightblue" stroke="midnightblue" points="340.22,-251.42 333.11,-243.57 333.77,-254.14 340.22,-251.42"/>
</g>
<!-- Node14 -->
<g id="node14" class="node">
<title>Node14</title>
<g id="a_node14"><a xlink:href="lora_8h.html" target="_top" xlink:title="File that handles the LoRa radio and PJON.">
<polygon fill="white" stroke="black" points="307.5,-336.5 307.5,-355.5 351.5,-355.5 351.5,-336.5 307.5,-336.5"/>
<text text-anchor="middle" x="329.5" y="-343.5" font-family="Helvetica,sans-Serif" font-size="10.00">lora.h</text>
</a>
</g>
</g>
<!-- Node2&#45;&gt;Node14 -->
<g id="edge18" class="edge">
<title>Node2&#45;&gt;Node14</title>
<path fill="none" stroke="midnightblue" d="M383.14,-392.32C371.06,-384.34 355.11,-372.31 343.6,-362.65"/>
<polygon fill="midnightblue" stroke="midnightblue" points="345.63,-359.78 335.8,-355.83 341.03,-365.05 345.63,-359.78"/>
</g>
<!-- Node4 -->
<g id="node4" class="node">
<title>Node4</title>
<g id="a_node4"><a xlink:title=" ">
<polygon fill="white" stroke="#bfbfbf" points="404,-0.5 404,-19.5 467,-19.5 467,-0.5 404,-0.5"/>
<text text-anchor="middle" x="435.5" y="-7.5" font-family="Helvetica,sans-Serif" font-size="10.00">Arduino.h</text>
</a>
</g>
</g>
<!-- Node3&#45;&gt;Node4 -->
<g id="edge3" class="edge">
<title>Node3&#45;&gt;Node4</title>
<path fill="none" stroke="midnightblue" d="M336.2,-56.44C355.44,-47.64 385.65,-33.81 407.7,-23.72"/>
<polygon fill="midnightblue" stroke="midnightblue" points="409.25,-26.86 416.89,-19.52 406.34,-20.5 409.25,-26.86"/>
</g>
<!-- Node5 -->
<g id="node5" class="node">
<title>Node5</title>
<g id="a_node5"><a xlink:title=" ">
<polygon fill="white" stroke="#bfbfbf" points="0,-0.5 0,-19.5 47,-19.5 47,-0.5 0,-0.5"/>
<text text-anchor="middle" x="23.5" y="-7.5" font-family="Helvetica,sans-Serif" font-size="10.00">WiFi.h</text>
</a>
</g>
</g>
<!-- Node3&#45;&gt;Node5 -->
<g id="edge4" class="edge">
<title>Node3&#45;&gt;Node5</title>
<path fill="none" stroke="midnightblue" d="M282.25,-60.02C233.77,-52.92 143.63,-38.88 57.2,-19.97"/>
<polygon fill="midnightblue" stroke="midnightblue" points="57.75,-16.51 47.23,-17.76 56.23,-23.34 57.75,-16.51"/>
</g>
<!-- Node6 -->
<g id="node6" class="node">
<title>Node6</title>
<g id="a_node6"><a xlink:title=" ">
<polygon fill="white" stroke="#bfbfbf" points="65.5,-0.5 65.5,-19.5 155.5,-19.5 155.5,-0.5 65.5,-0.5"/>
<text text-anchor="middle" x="110.5" y="-7.5" font-family="Helvetica,sans-Serif" font-size="10.00">PubSubClient.h</text>
</a>
</g>
</g>
<!-- Node3&#45;&gt;Node6 -->
<g id="edge5" class="edge">
<title>Node3&#45;&gt;Node6</title>
<path fill="none" stroke="midnightblue" d="M284.7,-56.44C249.12,-47.16 192.19,-32.31 153.15,-22.13"/>
<polygon fill="midnightblue" stroke="midnightblue" points="153.71,-18.65 143.15,-19.52 151.94,-25.43 153.71,-18.65"/>
</g>
<!-- Node7 -->
<g id="node7" class="node">
<title>Node7</title>
<g id="a_node7"><a xlink:title=" ">
<polygon fill="white" stroke="#bfbfbf" points="174,-0.5 174,-19.5 257,-19.5 257,-0.5 174,-0.5"/>
<text text-anchor="middle" x="215.5" y="-7.5" font-family="Helvetica,sans-Serif" font-size="10.00">ArduinoJson.h</text>
</a>
</g>
</g>
<!-- Node3&#45;&gt;Node7 -->
<g id="edge6" class="edge">
<title>Node3&#45;&gt;Node7</title>
<path fill="none" stroke="midnightblue" d="M301.11,-56.32C284.83,-47.7 259.63,-34.36 240.78,-24.39"/>
<polygon fill="midnightblue" stroke="midnightblue" points="242.32,-21.24 231.85,-19.65 239.05,-27.43 242.32,-21.24"/>
</g>
<!-- Node8 -->
<g id="node8" class="node">
<title>Node8</title>
<g id="a_node8"><a xlink:title=" ">
<polygon fill="white" stroke="#bfbfbf" points="275.5,-0.5 275.5,-19.5 385.5,-19.5 385.5,-0.5 275.5,-0.5"/>
<text text-anchor="middle" x="330.5" y="-7.5" font-family="Helvetica,sans-Serif" font-size="10.00">PJONThroughLora.h</text>
</a>
</g>
</g>
<!-- Node3&#45;&gt;Node8 -->
<g id="edge7" class="edge">
<title>Node3&#45;&gt;Node8</title>
<path fill="none" stroke="midnightblue" d="M319.65,-56.08C321.37,-48.93 323.85,-38.64 326,-29.69"/>
<polygon fill="midnightblue" stroke="midnightblue" points="329.46,-30.29 328.39,-19.75 322.65,-28.65 329.46,-30.29"/>
</g>
<!-- Node9 -->
<g id="node9" class="node">
<title>Node9</title>
<g id="a_node9"><a xlink:href="topics_8h.html" target="_top" xlink:title="MQTT topics for a thingsboard gateway.">
<polygon fill="white" stroke="black" points="485.5,-0.5 485.5,-19.5 557.5,-19.5 557.5,-0.5 485.5,-0.5"/>
<text text-anchor="middle" x="521.5" y="-7.5" font-family="Helvetica,sans-Serif" font-size="10.00">src/topics.h</text>
</a>
</g>
</g>
<!-- Node3&#45;&gt;Node9 -->
<g id="edge8" class="edge">
<title>Node3&#45;&gt;Node9</title>
<path fill="none" stroke="midnightblue" d="M349.82,-56.44C384.89,-47.16 441,-32.31 479.46,-22.13"/>
<polygon fill="midnightblue" stroke="midnightblue" points="480.56,-25.46 489.33,-19.52 478.76,-18.69 480.56,-25.46"/>
</g>
<!-- Node10&#45;&gt;Node3 -->
<g id="edge10" class="edge">
<title>Node10&#45;&gt;Node3</title>
<path fill="none" stroke="midnightblue" d="M319.94,-224.45C311.41,-216.12 299.51,-202.6 294.5,-188 282.35,-152.59 297.58,-109.01 308.42,-85.01"/>
<polygon fill="midnightblue" stroke="midnightblue" points="311.7,-86.26 312.84,-75.73 305.38,-83.25 311.7,-86.26"/>
</g>
<!-- Node11 -->
<g id="node11" class="node">
<title>Node11</title>
<g id="a_node11"><a xlink:href="lookups_8h.html" target="_top" xlink:title="Lookupable and lookupable manager base classes.">
<polygon fill="white" stroke="black" points="176,-112.5 176,-131.5 239,-131.5 239,-112.5 176,-112.5"/>
<text text-anchor="middle" x="207.5" y="-119.5" font-family="Helvetica,sans-Serif" font-size="10.00">lookups.h</text>
</a>
</g>
</g>
<!-- Node10&#45;&gt;Node11 -->
<g id="edge11" class="edge">
<title>Node10&#45;&gt;Node11</title>
<path fill="none" stroke="midnightblue" d="M310.22,-224.42C293.91,-216.53 270.52,-203.69 253.5,-188 238.47,-174.14 225.45,-154.61 217.14,-140.58"/>
<polygon fill="midnightblue" stroke="midnightblue" points="220.17,-138.82 212.17,-131.88 214.09,-142.3 220.17,-138.82"/>
</g>
<!-- Node12 -->
<g id="node12" class="node">
<title>Node12</title>
<g id="a_node12"><a xlink:href="fields_8h.html" target="_top" xlink:title="Contains fields classes.">
<polygon fill="white" stroke="black" points="303.5,-168.5 303.5,-187.5 355.5,-187.5 355.5,-168.5 303.5,-168.5"/>
<text text-anchor="middle" x="329.5" y="-175.5" font-family="Helvetica,sans-Serif" font-size="10.00">fields.h</text>
</a>
</g>
</g>
<!-- Node10&#45;&gt;Node12 -->
<g id="edge13" class="edge">
<title>Node10&#45;&gt;Node12</title>
<path fill="none" stroke="midnightblue" d="M329.5,-224.08C329.5,-217.01 329.5,-206.86 329.5,-197.99"/>
<polygon fill="midnightblue" stroke="midnightblue" points="333,-197.75 329.5,-187.75 326,-197.75 333,-197.75"/>
</g>
<!-- Node11&#45;&gt;Node3 -->
<g id="edge12" class="edge">
<title>Node11&#45;&gt;Node3</title>
<path fill="none" stroke="midnightblue" d="M225.17,-112.32C242.89,-103.62 270.4,-90.12 290.79,-80.11"/>
<polygon fill="midnightblue" stroke="midnightblue" points="292.44,-83.2 299.87,-75.65 289.35,-76.92 292.44,-83.2"/>
</g>
<!-- Node12&#45;&gt;Node3 -->
<g id="edge14" class="edge">
<title>Node12&#45;&gt;Node3</title>
<path fill="none" stroke="midnightblue" d="M328.53,-168.37C327.52,-159.32 325.88,-144.66 324.5,-132 322.8,-116.47 320.9,-98.84 319.51,-85.87"/>
<polygon fill="midnightblue" stroke="midnightblue" points="322.99,-85.4 318.44,-75.83 316.02,-86.15 322.99,-85.4"/>
</g>
<!-- Node12&#45;&gt;Node11 -->
<g id="edge15" class="edge">
<title>Node12&#45;&gt;Node11</title>
<path fill="none" stroke="midnightblue" d="M310.17,-168.44C290.18,-159.6 258.76,-145.69 235.94,-135.59"/>
<polygon fill="midnightblue" stroke="midnightblue" points="237.3,-132.36 226.74,-131.52 234.47,-138.76 237.3,-132.36"/>
</g>
<!-- Node13 -->
<g id="node13" class="node">
<title>Node13</title>
<g id="a_node13"><a xlink:href="conversions_8h.html" target="_top" xlink:title="General functions for converting to and from char arrays.">
<polygon fill="white" stroke="black" points="333.5,-112.5 333.5,-131.5 417.5,-131.5 417.5,-112.5 333.5,-112.5"/>
<text text-anchor="middle" x="375.5" y="-119.5" font-family="Helvetica,sans-Serif" font-size="10.00">conversions.h</text>
</a>
</g>
</g>
<!-- Node12&#45;&gt;Node13 -->
<g id="edge16" class="edge">
<title>Node12&#45;&gt;Node13</title>
<path fill="none" stroke="midnightblue" d="M337.1,-168.08C343.73,-160.3 353.52,-148.8 361.56,-139.37"/>
<polygon fill="midnightblue" stroke="midnightblue" points="364.23,-141.63 368.05,-131.75 358.9,-137.09 364.23,-141.63"/>
</g>
<!-- Node13&#45;&gt;Node3 -->
<g id="edge17" class="edge">
<title>Node13&#45;&gt;Node3</title>
<path fill="none" stroke="midnightblue" d="M366.18,-112.32C357.61,-104.34 344.69,-92.31 334.31,-82.65"/>
<polygon fill="midnightblue" stroke="midnightblue" points="336.69,-80.09 326.99,-75.83 331.92,-85.21 336.69,-80.09"/>
</g>
<!-- Node14&#45;&gt;Node2 -->
<g id="edge22" class="edge">
<title>Node14&#45;&gt;Node2</title>
<path fill="none" stroke="midnightblue" d="M345.83,-355.65C357.97,-363.68 374.04,-375.8 385.57,-385.49"/>
<polygon fill="midnightblue" stroke="midnightblue" points="383.54,-388.37 393.37,-392.32 388.15,-383.1 383.54,-388.37"/>
</g>
<!-- Node14&#45;&gt;Node3 -->
<g id="edge19" class="edge">
<title>Node14&#45;&gt;Node3</title>
<path fill="none" stroke="midnightblue" d="M307.18,-342.11C258.58,-334.44 147.5,-308.84 147.5,-235 147.5,-235 147.5,-235 147.5,-177 147.5,-146.9 145.27,-133.34 166.5,-112 194.39,-83.97 238.92,-73.24 272.42,-69.22"/>
<polygon fill="midnightblue" stroke="midnightblue" points="272.84,-72.7 282.42,-68.18 272.11,-65.73 272.84,-72.7"/>
</g>
<!-- Node14&#45;&gt;Node10 -->
<g id="edge21" class="edge">
<title>Node14&#45;&gt;Node10</title>
<path fill="none" stroke="midnightblue" d="M329.5,-336.37C329.5,-318.62 329.5,-277.67 329.5,-253.6"/>
<polygon fill="midnightblue" stroke="midnightblue" points="333,-253.59 329.5,-243.59 326,-253.59 333,-253.59"/>
</g>
<!-- Node14&#45;&gt;Node11 -->
<g id="edge20" class="edge">
<title>Node14&#45;&gt;Node11</title>
<path fill="none" stroke="midnightblue" d="M323.44,-336.48C307.2,-313.4 261.96,-247.42 232.5,-188 224.95,-172.77 218.15,-154.66 213.55,-141.43"/>
<polygon fill="midnightblue" stroke="midnightblue" points="216.76,-139.98 210.25,-131.63 210.13,-142.22 216.76,-139.98"/>
</g>
<!-- Node14&#45;&gt;Node15 -->
<g id="edge23" class="edge">
<title>Node14&#45;&gt;Node15</title>
<path fill="none" stroke="midnightblue" d="M345.41,-336.32C361.14,-327.74 385.44,-314.49 403.71,-304.52"/>
<polygon fill="midnightblue" stroke="midnightblue" points="405.53,-307.52 412.63,-299.65 402.18,-301.37 405.53,-307.52"/>
</g>
<!-- Node15&#45;&gt;Node2 -->
<g id="edge30" class="edge">
<title>Node15&#45;&gt;Node2</title>
<path fill="none" stroke="midnightblue" d="M426.23,-299.59C421.54,-317.39 410.67,-358.62 404.33,-382.67"/>
<polygon fill="midnightblue" stroke="midnightblue" points="400.94,-381.81 401.78,-392.37 407.71,-383.59 400.94,-381.81"/>
</g>
<!-- Node15&#45;&gt;Node3 -->
<g id="edge24" class="edge">
<title>Node15&#45;&gt;Node3</title>
<path fill="none" stroke="midnightblue" d="M432.73,-280.36C440.85,-263.24 458.35,-223.59 464.5,-188 470.47,-153.47 468.47,-136.58 443.5,-112 421.78,-90.62 389.21,-79.33 362.63,-73.41"/>
<polygon fill="midnightblue" stroke="midnightblue" points="363.27,-69.97 352.77,-71.39 361.87,-76.83 363.27,-69.97"/>
</g>
<!-- Node15&#45;&gt;Node9 -->
<g id="edge25" class="edge">
<title>Node15&#45;&gt;Node9</title>
<path fill="none" stroke="midnightblue" d="M443.86,-280.31C470.27,-264.09 521.5,-226.51 521.5,-179 521.5,-179 521.5,-179 521.5,-121 521.5,-88.95 521.5,-51.64 521.5,-29.75"/>
<polygon fill="midnightblue" stroke="midnightblue" points="525,-29.56 521.5,-19.56 518,-29.56 525,-29.56"/>
</g>
<!-- Node15&#45;&gt;Node10 -->
<g id="edge28" class="edge">
<title>Node15&#45;&gt;Node10</title>
<path fill="none" stroke="midnightblue" d="M412.59,-280.32C396.86,-271.74 372.56,-258.49 354.29,-248.52"/>
<polygon fill="midnightblue" stroke="midnightblue" points="355.82,-245.37 345.37,-243.65 352.47,-251.52 355.82,-245.37"/>
</g>
<!-- Node15&#45;&gt;Node12 -->
<g id="edge29" class="edge">
<title>Node15&#45;&gt;Node12</title>
<path fill="none" stroke="midnightblue" d="M420.73,-280.37C404.18,-261.97 365.2,-218.67 343.95,-195.05"/>
<polygon fill="midnightblue" stroke="midnightblue" points="346.52,-192.68 337.23,-187.59 341.32,-197.37 346.52,-192.68"/>
</g>
<!-- Node16 -->
<g id="node16" class="node">
<title>Node16</title>
<g id="a_node16"><a xlink:href="alarm_8h.html" target="_top" xlink:title="Handles alarms.">
<polygon fill="white" stroke="black" points="401.5,-168.5 401.5,-187.5 455.5,-187.5 455.5,-168.5 401.5,-168.5"/>
<text text-anchor="middle" x="428.5" y="-175.5" font-family="Helvetica,sans-Serif" font-size="10.00">alarm.h</text>
</a>
</g>
</g>
<!-- Node15&#45;&gt;Node16 -->
<g id="edge26" class="edge">
<title>Node15&#45;&gt;Node16</title>
<path fill="none" stroke="midnightblue" d="M428.5,-280.37C428.5,-262.62 428.5,-221.67 428.5,-197.6"/>
<polygon fill="midnightblue" stroke="midnightblue" points="432,-197.59 428.5,-187.59 425,-197.59 432,-197.59"/>
</g>
<!-- Node16&#45;&gt;Node3 -->
<g id="edge27" class="edge">
<title>Node16&#45;&gt;Node3</title>
<path fill="none" stroke="midnightblue" d="M431.02,-168.08C434.27,-154.62 438.19,-128.9 426.5,-112 411.99,-91.02 385.8,-79.81 362.72,-73.82"/>
<polygon fill="midnightblue" stroke="midnightblue" points="363.26,-70.35 352.73,-71.49 361.67,-77.17 363.26,-70.35"/>
</g>
</g>
</svg>
        <g id="navigator" transform="translate(0 0)" fill="#404254">
                <rect fill="#f2f5e9" fill-opacity="0.5" stroke="#606060" stroke-width=".5" x="0" y="0" width="60" height="60"/>
                <use id="zoomplus" xlink:href="#zoomPlus" x="17" y="9" onmousedown="handleZoom(evt,'in')"/>
                <use id="zoomminus" xlink:href="#zoomMin" x="42" y="9" onmousedown="handleZoom(evt,'out')"/>
                <use id="reset" xlink:href="#resetDef" x="30" y="36" onmousedown="handleReset()"/>
                <g id="arrowUp" xlink:href="#dirArrow" transform="translate(30 24)" onmousedown="handlePan(0,-1)">
                  <use xlink:href="#rim" fill="#404040">
                        <set attributeName="fill" to="#808080" begin="arrowUp.mouseover" end="arrowUp.mouseout"/>
                  </use>
                  <path fill="none" stroke="white" stroke-width="1.5" d="M0,-3.0v7 M-2.5,-0.5L0,-3.0L2.5,-0.5"/>
                </g>
                <g id="arrowRight" xlink:href="#dirArrow" transform="rotate(90) translate(36 -43)" onmousedown="handlePan(1,0)">
                  <use xlink:href="#rim" fill="#404040">
                        <set attributeName="fill" to="#808080" begin="arrowRight.mouseover" end="arrowRight.mouseout"/>
                  </use>
                  <path fill="none" stroke="white" stroke-width="1.5" d="M0,-3.0v7 M-2.5,-0.5L0,-3.0L2.5,-0.5"/>
                </g>
                <g id="arrowDown" xlink:href="#dirArrow" transform="rotate(180) translate(-30 -48)" onmousedown="handlePan(0,1)">
                  <use xlink:href="#rim" fill="#404040">
                        <set attributeName="fill" to="#808080" begin="arrowDown.mouseover" end="arrowDown.mouseout"/>
                  </use>
                  <path fill="none" stroke="white" stroke-width="1.5" d="M0,-3.0v7 M-2.5,-0.5L0,-3.0L2.5,-0.5"/>
                </g>
                <g id="arrowLeft" xlink:href="#dirArrow" transform="rotate(270) translate(-36 17)" onmousedown="handlePan(-1,0)">
                  <use xlink:href="#rim" fill="#404040">
                        <set attributeName="fill" to="#808080" begin="arrowLeft.mouseover" end="arrowLeft.mouseout"/>
                  </use>
                  <path fill="none" stroke="white" stroke-width="1.5" d="M0,-3.0v7 M-2.5,-0.5L0,-3.0L2.5,-0.5"/>
                </g>
        </g>
        <svg viewBox="0 0 15 15" width="100%" height="30px" preserveAspectRatio="xMaxYMin meet">
         <g id="arrow_out" transform="scale(0.3 0.3)">
          <a xlink:href="networking_8cpp__incl_org.svg" target="_base">
           <rect id="button" ry="5" rx="5" y="6" x="6" height="38" width="38"
                fill="#f2f5e9" fill-opacity="0.5" stroke="#606060" stroke-width="1.0"/>
           <path id="arrow"
             d="M 11.500037,31.436501 C 11.940474,20.09759 22.043105,11.32322 32.158766,21.979434 L 37.068811,17.246167 C 37.068811,17.246167 37.088388,32 37.088388,32 L 22.160133,31.978069 C 22.160133,31.978069 26.997745,27.140456 26.997745,27.140456 C 18.528582,18.264221 13.291696,25.230495 11.500037,31.436501 z"
             style="fill:#404040;"/>
          </a>
         </g>
        </svg>
</svg>
