<?xml version="1.0" encoding="UTF-8" standalone="no"?>
<!DOCTYPE svg PUBLIC "-//W3C//DTD SVG 1.1//EN"
 "http://www.w3.org/Graphics/SVG/1.1/DTD/svg11.dtd">
<!-- Generated by graphviz version 2.43.0 (0)
 -->
<!-- Title: BaseStationCode/src/src/networking.cpp Pages: 1 -->
<svg width="598pt" height="487pt"
 viewBox="0.00 0.00 597.50 487.00" xmlns="http://www.w3.org/2000/svg" xmlns:xlink="http://www.w3.org/1999/xlink">
<g id="graph0" class="graph" transform="scale(1 1) rotate(0) translate(4 483)">
<title>BaseStationCode/src/src/networking.cpp</title>
<polygon fill="white" stroke="transparent" points="-4,4 -4,-483 593.5,-483 593.5,4 -4,4"/>
<!-- Node1 -->
<g id="node1" class="node">
<title>Node1</title>
<g id="a_node1"><a xlink:title="File that handles connecting to WiFi and MQTT and staying connected.">
<polygon fill="#bfbfbf" stroke="black" points="266,-448.5 266,-478.5 383,-478.5 383,-448.5 266,-448.5"/>
<text text-anchor="start" x="274" y="-466.5" font-family="Helvetica,sans-Serif" font-size="10.00">BaseStationCode/src</text>
<text text-anchor="middle" x="324.5" y="-455.5" font-family="Helvetica,sans-Serif" font-size="10.00">/src/networking.cpp</text>
</a>
</g>
</g>
<!-- Node2 -->
<g id="node2" class="node">
<title>Node2</title>
<g id="a_node2"><a xlink:href="networking_8h.html" target="_top" xlink:title="Header file for networking.cpp.">
<polygon fill="white" stroke="black" points="284.5,-392.5 284.5,-411.5 364.5,-411.5 364.5,-392.5 284.5,-392.5"/>
<text text-anchor="middle" x="324.5" y="-399.5" font-family="Helvetica,sans-Serif" font-size="10.00">networking.h</text>
</a>
</g>
</g>
<!-- Node1&#45;&gt;Node2 -->
<g id="edge1" class="edge">
<title>Node1&#45;&gt;Node2</title>
<path fill="none" stroke="midnightblue" d="M324.5,-448.4C324.5,-440.47 324.5,-430.46 324.5,-421.86"/>
<polygon fill="midnightblue" stroke="midnightblue" points="328,-421.66 324.5,-411.66 321,-421.66 328,-421.66"/>
</g>
<!-- Node3 -->
<g id="node3" class="node">
<title>Node3</title>
<g id="a_node3"><a xlink:href="defines_8h.html" target="_top" xlink:title="Definitions and other preprocessor and global stuff.">
<polygon fill="white" stroke="black" points="294.5,-56.5 294.5,-75.5 364.5,-75.5 364.5,-56.5 294.5,-56.5"/>
<text text-anchor="middle" x="329.5" y="-63.5" font-family="Helvetica,sans-Serif" font-size="10.00">../defines.h</text>
</a>
</g>
</g>
<!-- Node2&#45;&gt;Node3 -->
<g id="edge2" class="edge">
<title>Node2&#45;&gt;Node3</title>
<path fill="none" stroke="midnightblue" d="M364.57,-400.58C434.28,-397.52 570.5,-380.12 570.5,-291 570.5,-291 570.5,-291 570.5,-233 570.5,-138.82 444.12,-93.99 374.4,-76.43"/>
<polygon fill="midnightblue" stroke="midnightblue" points="375.09,-72.99 364.54,-74.03 373.43,-79.79 375.09,-72.99"/>
</g>
<!-- Node10 -->
<g id="node10" class="node">
<title>Node10</title>
<g id="a_node10"><a xlink:href="devices_8h.html" target="_top" xlink:title="Devices and manager for all known devices the base station connects to.">
<polygon fill="white" stroke="black" points="257,-224.5 257,-243.5 320,-243.5 320,-224.5 257,-224.5"/>
<text text-anchor="middle" x="288.5" y="-231.5" font-family="Helvetica,sans-Serif" font-size="10.00">devices.h</text>
</a>
</g>
</g>
<!-- Node2&#45;&gt;Node10 -->
<g id="edge9" class="edge">
<title>Node2&#45;&gt;Node10</title>
<path fill="none" stroke="midnightblue" d="M322.56,-392.08C316.9,-365.95 300.26,-289.21 292.53,-253.58"/>
<polygon fill="midnightblue" stroke="midnightblue" points="295.9,-252.6 290.36,-243.57 289.06,-254.08 295.9,-252.6"/>
</g>
<!-- Node14 -->
<g id="node14" class="node">
<title>Node14</title>
<g id="a_node14"><a xlink:href="lora_8h.html" target="_top" xlink:title="File that handles the LoRa radio and PJON.">
<polygon fill="white" stroke="black" points="252.5,-336.5 252.5,-355.5 296.5,-355.5 296.5,-336.5 252.5,-336.5"/>
<text text-anchor="middle" x="274.5" y="-343.5" font-family="Helvetica,sans-Serif" font-size="10.00">lora.h</text>
</a>
</g>
</g>
<!-- Node2&#45;&gt;Node14 -->
<g id="edge18" class="edge">
<title>Node2&#45;&gt;Node14</title>
<path fill="none" stroke="midnightblue" d="M311.35,-392.32C302.59,-384.65 291.63,-373.25 283.75,-363.8"/>
<polygon fill="midnightblue" stroke="midnightblue" points="286.44,-361.56 277.53,-355.83 280.93,-365.87 286.44,-361.56"/>
</g>
<!-- Node4 -->
<g id="node4" class="node">
<title>Node4</title>
<g id="a_node4"><a xlink:title=" ">
<polygon fill="white" stroke="#bfbfbf" points="229.5,-0.5 229.5,-19.5 309.5,-19.5 309.5,-0.5 229.5,-0.5"/>
<text text-anchor="middle" x="269.5" y="-7.5" font-family="Helvetica,sans-Serif" font-size="10.00">credentials.h</text>
</a>
</g>
</g>
<!-- Node3&#45;&gt;Node4 -->
<g id="edge3" class="edge">
<title>Node3&#45;&gt;Node4</title>
<path fill="none" stroke="midnightblue" d="M319.86,-56.32C310.99,-48.34 297.63,-36.31 286.89,-26.65"/>
<polygon fill="midnightblue" stroke="midnightblue" points="289.09,-23.92 279.32,-19.83 284.41,-29.13 289.09,-23.92"/>
</g>
<!-- Node5 -->
<g id="node5" class="node">
<title>Node5</title>
<g id="a_node5"><a xlink:title=" ">
<polygon fill="white" stroke="#bfbfbf" points="328,-0.5 328,-19.5 391,-19.5 391,-0.5 328,-0.5"/>
<text text-anchor="middle" x="359.5" y="-7.5" font-family="Helvetica,sans-Serif" font-size="10.00">Arduino.h</text>
</a>
</g>
</g>
<!-- Node3&#45;&gt;Node5 -->
<g id="edge4" class="edge">
<title>Node3&#45;&gt;Node5</title>
<path fill="none" stroke="midnightblue" d="M334.45,-56.08C338.6,-48.61 344.65,-37.72 349.77,-28.52"/>
<polygon fill="midnightblue" stroke="midnightblue" points="352.84,-30.19 354.64,-19.75 346.72,-26.79 352.84,-30.19"/>
</g>
<!-- Node6 -->
<g id="node6" class="node">
<title>Node6</title>
<g id="a_node6"><a xlink:title=" ">
<polygon fill="white" stroke="#bfbfbf" points="409.5,-0.5 409.5,-19.5 499.5,-19.5 499.5,-0.5 409.5,-0.5"/>
<text text-anchor="middle" x="454.5" y="-7.5" font-family="Helvetica,sans-Serif" font-size="10.00">PubSubClient.h</text>
</a>
</g>
</g>
<!-- Node3&#45;&gt;Node6 -->
<g id="edge5" class="edge">
<title>Node3&#45;&gt;Node6</title>
<path fill="none" stroke="midnightblue" d="M349.31,-56.44C369.79,-47.6 401.98,-33.69 425.36,-23.59"/>
<polygon fill="midnightblue" stroke="midnightblue" points="426.99,-26.7 434.79,-19.52 424.22,-20.27 426.99,-26.7"/>
</g>
<!-- Node7 -->
<g id="node7" class="node">
<title>Node7</title>
<g id="a_node7"><a xlink:title=" ">
<polygon fill="white" stroke="#bfbfbf" points="0,-0.5 0,-19.5 83,-19.5 83,-0.5 0,-0.5"/>
<text text-anchor="middle" x="41.5" y="-7.5" font-family="Helvetica,sans-Serif" font-size="10.00">ArduinoJson.h</text>
</a>
</g>
</g>
<!-- Node3&#45;&gt;Node7 -->
<g id="edge6" class="edge">
<title>Node3&#45;&gt;Node7</title>
<path fill="none" stroke="midnightblue" d="M294.47,-58.43C244.27,-49.02 151.51,-31.63 93.35,-20.72"/>
<polygon fill="midnightblue" stroke="midnightblue" points="93.73,-17.23 83.26,-18.83 92.44,-24.11 93.73,-17.23"/>
</g>
<!-- Node8 -->
<g id="node8" class="node">
<title>Node8</title>
<g id="a_node8"><a xlink:title=" ">
<polygon fill="white" stroke="#bfbfbf" points="101.5,-0.5 101.5,-19.5 211.5,-19.5 211.5,-0.5 101.5,-0.5"/>
<text text-anchor="middle" x="156.5" y="-7.5" font-family="Helvetica,sans-Serif" font-size="10.00">PJONThroughLora.h</text>
</a>
</g>
</g>
<!-- Node3&#45;&gt;Node8 -->
<g id="edge7" class="edge">
<title>Node3&#45;&gt;Node8</title>
<path fill="none" stroke="midnightblue" d="M302.09,-56.44C272.73,-47.28 225.98,-32.69 193.4,-22.52"/>
<polygon fill="midnightblue" stroke="midnightblue" points="194.37,-19.16 183.78,-19.52 192.29,-25.84 194.37,-19.16"/>
</g>
<!-- Node9 -->
<g id="node9" class="node">
<title>Node9</title>
<g id="a_node9"><a xlink:href="topics_8h.html" target="_top" xlink:title="MQTT topics for a thingsboard gateway.">
<polygon fill="white" stroke="black" points="517.5,-0.5 517.5,-19.5 589.5,-19.5 589.5,-0.5 517.5,-0.5"/>
<text text-anchor="middle" x="553.5" y="-7.5" font-family="Helvetica,sans-Serif" font-size="10.00">src/topics.h</text>
</a>
</g>
</g>
<!-- Node3&#45;&gt;Node9 -->
<g id="edge8" class="edge">
<title>Node3&#45;&gt;Node9</title>
<path fill="none" stroke="midnightblue" d="M364.99,-56.44C403.82,-47.08 466.16,-32.06 508.42,-21.87"/>
<polygon fill="midnightblue" stroke="midnightblue" points="509.27,-25.26 518.17,-19.52 507.63,-18.46 509.27,-25.26"/>
</g>
<!-- Node10&#45;&gt;Node3 -->
<g id="edge10" class="edge">
<title>Node10&#45;&gt;Node3</title>
<path fill="none" stroke="midnightblue" d="M285.59,-224.49C281.73,-211.98 275.92,-187.95 280.5,-168 287.71,-136.64 306,-103.72 318.08,-84.3"/>
<polygon fill="midnightblue" stroke="midnightblue" points="321.15,-85.99 323.59,-75.68 315.25,-82.22 321.15,-85.99"/>
</g>
<!-- Node11 -->
<g id="node11" class="node">
<title>Node11</title>
<g id="a_node11"><a xlink:href="lookups_8h.html" target="_top" xlink:title="Lookupable and lookupable manager base classes.">
<polygon fill="white" stroke="black" points="170,-112.5 170,-131.5 233,-131.5 233,-112.5 170,-112.5"/>
<text text-anchor="middle" x="201.5" y="-119.5" font-family="Helvetica,sans-Serif" font-size="10.00">lookups.h</text>
</a>
</g>
</g>
<!-- Node10&#45;&gt;Node11 -->
<g id="edge11" class="edge">
<title>Node10&#45;&gt;Node11</title>
<path fill="none" stroke="midnightblue" d="M280,-224.32C271.46,-215.46 258.1,-201.18 247.5,-188 234.95,-172.4 221.88,-153.64 212.89,-140.3"/>
<polygon fill="midnightblue" stroke="midnightblue" points="215.59,-138.04 207.13,-131.66 209.76,-141.92 215.59,-138.04"/>
</g>
<!-- Node12 -->
<g id="node12" class="node">
<title>Node12</title>
<g id="a_node12"><a xlink:href="fields_8h.html" target="_top" xlink:title="Contains fields classes.">
<polygon fill="white" stroke="black" points="289.5,-168.5 289.5,-187.5 341.5,-187.5 341.5,-168.5 289.5,-168.5"/>
<text text-anchor="middle" x="315.5" y="-175.5" font-family="Helvetica,sans-Serif" font-size="10.00">fields.h</text>
</a>
</g>
</g>
<!-- Node10&#45;&gt;Node12 -->
<g id="edge13" class="edge">
<title>Node10&#45;&gt;Node12</title>
<path fill="none" stroke="midnightblue" d="M292.96,-224.08C296.65,-216.69 302.02,-205.95 306.59,-196.81"/>
<polygon fill="midnightblue" stroke="midnightblue" points="309.78,-198.26 311.12,-187.75 303.52,-195.13 309.78,-198.26"/>
</g>
<!-- Node11&#45;&gt;Node3 -->
<g id="edge12" class="edge">
<title>Node11&#45;&gt;Node3</title>
<path fill="none" stroke="midnightblue" d="M221.78,-112.44C242.85,-103.56 276.02,-89.56 299.99,-79.45"/>
<polygon fill="midnightblue" stroke="midnightblue" points="301.46,-82.63 309.31,-75.52 298.74,-76.18 301.46,-82.63"/>
</g>
<!-- Node12&#45;&gt;Node3 -->
<g id="edge14" class="edge">
<title>Node12&#45;&gt;Node3</title>
<path fill="none" stroke="midnightblue" d="M315.37,-168.12C315.3,-155.55 315.64,-131.9 318.5,-112 319.78,-103.13 322.02,-93.47 324.16,-85.37"/>
<polygon fill="midnightblue" stroke="midnightblue" points="327.59,-86.1 326.89,-75.53 320.84,-84.23 327.59,-86.1"/>
</g>
<!-- Node12&#45;&gt;Node11 -->
<g id="edge15" class="edge">
<title>Node12&#45;&gt;Node11</title>
<path fill="none" stroke="midnightblue" d="M297.44,-168.44C278.93,-159.68 249.92,-145.94 228.64,-135.86"/>
<polygon fill="midnightblue" stroke="midnightblue" points="230.01,-132.63 219.48,-131.52 227.02,-138.96 230.01,-132.63"/>
</g>
<!-- Node13 -->
<g id="node13" class="node">
<title>Node13</title>
<g id="a_node13"><a xlink:href="conversions_8h.html" target="_top" xlink:title="General functions for converting to and from char arrays.">
<polygon fill="white" stroke="black" points="327.5,-112.5 327.5,-131.5 411.5,-131.5 411.5,-112.5 327.5,-112.5"/>
<text text-anchor="middle" x="369.5" y="-119.5" font-family="Helvetica,sans-Serif" font-size="10.00">conversions.h</text>
</a>
</g>
</g>
<!-- Node12&#45;&gt;Node13 -->
<g id="edge16" class="edge">
<title>Node12&#45;&gt;Node13</title>
<path fill="none" stroke="midnightblue" d="M324.42,-168.08C332.28,-160.22 343.93,-148.57 353.42,-139.08"/>
<polygon fill="midnightblue" stroke="midnightblue" points="356.15,-141.3 360.75,-131.75 351.2,-136.35 356.15,-141.3"/>
</g>
<!-- Node13&#45;&gt;Node3 -->
<g id="edge17" class="edge">
<title>Node13&#45;&gt;Node3</title>
<path fill="none" stroke="midnightblue" d="M362.89,-112.08C357.24,-104.46 348.96,-93.26 342.05,-83.94"/>
<polygon fill="midnightblue" stroke="midnightblue" points="344.75,-81.7 335.98,-75.75 339.12,-85.87 344.75,-81.7"/>
</g>
<!-- Node14&#45;&gt;Node2 -->
<g id="edge22" class="edge">
<title>Node14&#45;&gt;Node2</title>
<path fill="none" stroke="midnightblue" d="M287.73,-355.75C296.46,-363.4 307.35,-374.74 315.2,-384.14"/>
<polygon fill="midnightblue" stroke="midnightblue" points="312.49,-386.36 321.41,-392.08 318.01,-382.05 312.49,-386.36"/>
</g>
<!-- Node14&#45;&gt;Node3 -->
<g id="edge19" class="edge">
<title>Node14&#45;&gt;Node3</title>
<path fill="none" stroke="midnightblue" d="M252.24,-338.08C214.38,-324.77 141.5,-291.78 141.5,-235 141.5,-235 141.5,-235 141.5,-177 141.5,-146.9 138.96,-133.02 160.5,-112 193.27,-80.01 246.08,-70.1 283.95,-67.35"/>
<polygon fill="midnightblue" stroke="midnightblue" points="284.43,-70.83 294.21,-66.75 284.02,-63.84 284.43,-70.83"/>
</g>
<!-- Node14&#45;&gt;Node10 -->
<g id="edge21" class="edge">
<title>Node14&#45;&gt;Node10</title>
<path fill="none" stroke="midnightblue" d="M275.6,-336.37C277.86,-318.62 283.07,-277.67 286.13,-253.6"/>
<polygon fill="midnightblue" stroke="midnightblue" points="289.62,-253.95 287.41,-243.59 282.67,-253.07 289.62,-253.95"/>
</g>
<!-- Node14&#45;&gt;Node11 -->
<g id="edge20" class="edge">
<title>Node14&#45;&gt;Node11</title>
<path fill="none" stroke="midnightblue" d="M271.64,-336.3C260.87,-303.56 222.67,-187.38 207.64,-141.67"/>
<polygon fill="midnightblue" stroke="midnightblue" points="210.87,-140.29 204.42,-131.88 204.22,-142.48 210.87,-140.29"/>
</g>
<!-- Node15 -->
<g id="node15" class="node">
<title>Node15</title>
<g id="a_node15"><a xlink:href="rpc_8h.html" target="_top" xlink:title="Handles RPC calls.">
<polygon fill="white" stroke="black" points="353,-280.5 353,-299.5 394,-299.5 394,-280.5 353,-280.5"/>
<text text-anchor="middle" x="373.5" y="-287.5" font-family="Helvetica,sans-Serif" font-size="10.00">rpc.h</text>
</a>
</g>
</g>
<!-- Node14&#45;&gt;Node15 -->
<g id="edge23" class="edge">
<title>Node14&#45;&gt;Node15</title>
<path fill="none" stroke="midnightblue" d="M290.41,-336.32C306.14,-327.74 330.44,-314.49 348.71,-304.52"/>
<polygon fill="midnightblue" stroke="midnightblue" points="350.53,-307.52 357.63,-299.65 347.18,-301.37 350.53,-307.52"/>
</g>
<!-- Node15&#45;&gt;Node2 -->
<g id="edge30" class="edge">
<title>Node15&#45;&gt;Node2</title>
<path fill="none" stroke="midnightblue" d="M369.67,-299.59C361.71,-317.47 343.21,-359 332.52,-383"/>
<polygon fill="midnightblue" stroke="midnightblue" points="329.22,-381.81 328.34,-392.37 335.61,-384.66 329.22,-381.81"/>
</g>
<!-- Node15&#45;&gt;Node3 -->
<g id="edge24" class="edge">
<title>Node15&#45;&gt;Node3</title>
<path fill="none" stroke="midnightblue" d="M380.34,-280.19C400.49,-253.07 456.06,-169.26 420.5,-112 410.22,-95.45 391.86,-84.8 374.3,-78.05"/>
<polygon fill="midnightblue" stroke="midnightblue" points="375.28,-74.68 364.69,-74.68 372.97,-81.29 375.28,-74.68"/>
</g>
<!-- Node15&#45;&gt;Node9 -->
<g id="edge25" class="edge">
<title>Node15&#45;&gt;Node9</title>
<path fill="none" stroke="midnightblue" d="M394.18,-280.99C426.2,-267.34 486.88,-236.29 513.5,-188 542.34,-135.68 550.4,-63.74 552.64,-29.97"/>
<polygon fill="midnightblue" stroke="midnightblue" points="556.15,-29.89 553.22,-19.71 549.17,-29.49 556.15,-29.89"/>
</g>
<!-- Node15&#45;&gt;Node10 -->
<g id="edge28" class="edge">
<title>Node15&#45;&gt;Node10</title>
<path fill="none" stroke="midnightblue" d="M359.84,-280.32C346.58,-271.9 326.23,-258.97 310.65,-249.07"/>
<polygon fill="midnightblue" stroke="midnightblue" points="312.44,-246.06 302.12,-243.65 308.69,-251.97 312.44,-246.06"/>
</g>
<!-- Node15&#45;&gt;Node12 -->
<g id="edge29" class="edge">
<title>Node15&#45;&gt;Node12</title>
<path fill="none" stroke="midnightblue" d="M368.95,-280.37C359.46,-262.38 337.41,-220.55 324.79,-196.63"/>
<polygon fill="midnightblue" stroke="midnightblue" points="327.79,-194.8 320.03,-187.59 321.6,-198.07 327.79,-194.8"/>
</g>
<!-- Node16 -->
<g id="node16" class="node">
<title>Node16</title>
<g id="a_node16"><a xlink:href="alarm_8h.html" target="_top" xlink:title="Handles alarms.">
<polygon fill="white" stroke="black" points="450.5,-168.5 450.5,-187.5 504.5,-187.5 504.5,-168.5 450.5,-168.5"/>
<text text-anchor="middle" x="477.5" y="-175.5" font-family="Helvetica,sans-Serif" font-size="10.00">alarm.h</text>
</a>
</g>
</g>
<!-- Node15&#45;&gt;Node16 -->
<g id="edge26" class="edge">
<title>Node15&#45;&gt;Node16</title>
<path fill="none" stroke="midnightblue" d="M388.77,-280.43C402.38,-272.28 422.29,-259.05 436.5,-244 449.91,-229.79 461.4,-210.57 468.77,-196.72"/>
<polygon fill="midnightblue" stroke="midnightblue" points="471.93,-198.22 473.38,-187.73 465.7,-195.03 471.93,-198.22"/>
</g>
<!-- Node16&#45;&gt;Node3 -->
<g id="edge27" class="edge">
<title>Node16&#45;&gt;Node3</title>
<path fill="none" stroke="midnightblue" d="M476.6,-168.17C474.73,-154.36 469.19,-127.61 453.5,-112 432.35,-90.97 400.64,-79.69 374.58,-73.69"/>
<polygon fill="midnightblue" stroke="midnightblue" points="375.04,-70.21 364.53,-71.56 373.59,-77.06 375.04,-70.21"/>
</g>
</g>
</svg>
