<?xml version="1.0" encoding="UTF-8" standalone="no"?>
<!DOCTYPE svg PUBLIC "-//W3C//DTD SVG 1.1//EN"
 "http://www.w3.org/Graphics/SVG/1.1/DTD/svg11.dtd">
<!-- Generated by graphviz version 2.43.0 (0)
 -->
<!-- Title: ESP32BaseStation/src/ota.cpp Pages: 1 -->
<svg width="760pt" height="543pt"
 viewBox="0.00 0.00 759.50 543.00" xmlns="http://www.w3.org/2000/svg" xmlns:xlink="http://www.w3.org/1999/xlink">
<g id="graph0" class="graph" transform="scale(1 1) rotate(0) translate(4 539)">
<title>ESP32BaseStation/src/ota.cpp</title>
<polygon fill="white" stroke="transparent" points="-4,4 -4,-539 755.5,-539 755.5,4 -4,4"/>
<!-- Node1 -->
<g id="node1" class="node">
<title>Node1</title>
<g id="a_node1"><a xlink:title="Handles over the air (OTA) updates.">
<polygon fill="#bfbfbf" stroke="black" points="391,-504.5 391,-534.5 513,-534.5 513,-504.5 391,-504.5"/>
<text text-anchor="start" x="399" y="-522.5" font-family="Helvetica,sans-Serif" font-size="10.00">ESP32BaseStation/src</text>
<text text-anchor="middle" x="452" y="-511.5" font-family="Helvetica,sans-Serif" font-size="10.00">/ota.cpp</text>
</a>
</g>
</g>
<!-- Node2 -->
<g id="node2" class="node">
<title>Node2</title>
<g id="a_node2"><a xlink:href="ota_8h.html" target="_top" xlink:title="Handles over the air (OTA) updates.">
<polygon fill="white" stroke="black" points="431.5,-448.5 431.5,-467.5 472.5,-467.5 472.5,-448.5 431.5,-448.5"/>
<text text-anchor="middle" x="452" y="-455.5" font-family="Helvetica,sans-Serif" font-size="10.00">ota.h</text>
</a>
</g>
</g>
<!-- Node1&#45;&gt;Node2 -->
<g id="edge1" class="edge">
<title>Node1&#45;&gt;Node2</title>
<path fill="none" stroke="midnightblue" d="M452,-504.4C452,-496.47 452,-486.46 452,-477.86"/>
<polygon fill="midnightblue" stroke="midnightblue" points="455.5,-477.66 452,-467.66 448.5,-477.66 455.5,-477.66"/>
</g>
<!-- Node3 -->
<g id="node3" class="node">
<title>Node3</title>
<g id="a_node3"><a xlink:href="defines_8h.html" target="_top" xlink:title="Definitions and other preprocessor and global stuff.">
<polygon fill="white" stroke="black" points="306,-56.5 306,-75.5 376,-75.5 376,-56.5 306,-56.5"/>
<text text-anchor="middle" x="341" y="-63.5" font-family="Helvetica,sans-Serif" font-size="10.00">../defines.h</text>
</a>
</g>
</g>
<!-- Node2&#45;&gt;Node3 -->
<g id="edge2" class="edge">
<title>Node2&#45;&gt;Node3</title>
<path fill="none" stroke="midnightblue" d="M461.3,-448.28C478.82,-430.85 515,-389.69 515,-347 515,-347 515,-347 515,-177 515,-116.02 437.7,-87.46 386.15,-75.2"/>
<polygon fill="midnightblue" stroke="midnightblue" points="386.74,-71.74 376.21,-72.96 385.2,-78.57 386.74,-71.74"/>
</g>
<!-- Node12 -->
<g id="node12" class="node">
<title>Node12</title>
<g id="a_node12"><a xlink:href="networking_8h.html" target="_top" xlink:title="Header file for networking.cpp.">
<polygon fill="white" stroke="black" points="374,-392.5 374,-411.5 454,-411.5 454,-392.5 374,-392.5"/>
<text text-anchor="middle" x="414" y="-399.5" font-family="Helvetica,sans-Serif" font-size="10.00">networking.h</text>
</a>
</g>
</g>
<!-- Node2&#45;&gt;Node12 -->
<g id="edge11" class="edge">
<title>Node2&#45;&gt;Node12</title>
<path fill="none" stroke="midnightblue" d="M445.73,-448.08C440.36,-440.46 432.48,-429.26 425.92,-419.94"/>
<polygon fill="midnightblue" stroke="midnightblue" points="428.78,-417.91 420.16,-411.75 423.05,-421.94 428.78,-417.91"/>
</g>
<!-- Node4 -->
<g id="node4" class="node">
<title>Node4</title>
<g id="a_node4"><a xlink:title=" ">
<polygon fill="white" stroke="#bfbfbf" points="590,-0.5 590,-19.5 670,-19.5 670,-0.5 590,-0.5"/>
<text text-anchor="middle" x="630" y="-7.5" font-family="Helvetica,sans-Serif" font-size="10.00">credentials.h</text>
</a>
</g>
</g>
<!-- Node3&#45;&gt;Node4 -->
<g id="edge3" class="edge">
<title>Node3&#45;&gt;Node4</title>
<path fill="none" stroke="midnightblue" d="M376.15,-58.43C426.95,-48.94 521.18,-31.33 579.45,-20.45"/>
<polygon fill="midnightblue" stroke="midnightblue" points="580.35,-23.84 589.53,-18.56 579.06,-16.96 580.35,-23.84"/>
</g>
<!-- Node5 -->
<g id="node5" class="node">
<title>Node5</title>
<g id="a_node5"><a xlink:title=" ">
<polygon fill="white" stroke="#bfbfbf" points="688.5,-0.5 688.5,-19.5 751.5,-19.5 751.5,-0.5 688.5,-0.5"/>
<text text-anchor="middle" x="720" y="-7.5" font-family="Helvetica,sans-Serif" font-size="10.00">Arduino.h</text>
</a>
</g>
</g>
<!-- Node3&#45;&gt;Node5 -->
<g id="edge4" class="edge">
<title>Node3&#45;&gt;Node5</title>
<path fill="none" stroke="midnightblue" d="M376.18,-61.3C436.04,-54.79 561.72,-40.2 678.12,-20.02"/>
<polygon fill="midnightblue" stroke="midnightblue" points="679.02,-23.41 688.27,-18.24 677.81,-16.52 679.02,-23.41"/>
</g>
<!-- Node6 -->
<g id="node6" class="node">
<title>Node6</title>
<g id="a_node6"><a xlink:title=" ">
<polygon fill="white" stroke="#bfbfbf" points="90.5,-0.5 90.5,-19.5 137.5,-19.5 137.5,-0.5 90.5,-0.5"/>
<text text-anchor="middle" x="114" y="-7.5" font-family="Helvetica,sans-Serif" font-size="10.00">WiFi.h</text>
</a>
</g>
</g>
<!-- Node3&#45;&gt;Node6 -->
<g id="edge5" class="edge">
<title>Node3&#45;&gt;Node6</title>
<path fill="none" stroke="midnightblue" d="M305.86,-57.27C268.89,-49.05 208.81,-35.43 147.6,-20.08"/>
<polygon fill="midnightblue" stroke="midnightblue" points="148.32,-16.65 137.76,-17.6 146.61,-23.44 148.32,-16.65"/>
</g>
<!-- Node7 -->
<g id="node7" class="node">
<title>Node7</title>
<g id="a_node7"><a xlink:title=" ">
<polygon fill="white" stroke="#bfbfbf" points="156,-0.5 156,-19.5 246,-19.5 246,-0.5 156,-0.5"/>
<text text-anchor="middle" x="201" y="-7.5" font-family="Helvetica,sans-Serif" font-size="10.00">PubSubClient.h</text>
</a>
</g>
</g>
<!-- Node3&#45;&gt;Node7 -->
<g id="edge6" class="edge">
<title>Node3&#45;&gt;Node7</title>
<path fill="none" stroke="midnightblue" d="M318.82,-56.44C295.57,-47.48 258.85,-33.31 232.58,-23.18"/>
<polygon fill="midnightblue" stroke="midnightblue" points="233.67,-19.85 223.08,-19.52 231.15,-26.38 233.67,-19.85"/>
</g>
<!-- Node8 -->
<g id="node8" class="node">
<title>Node8</title>
<g id="a_node8"><a xlink:title=" ">
<polygon fill="white" stroke="#bfbfbf" points="264.5,-0.5 264.5,-19.5 347.5,-19.5 347.5,-0.5 264.5,-0.5"/>
<text text-anchor="middle" x="306" y="-7.5" font-family="Helvetica,sans-Serif" font-size="10.00">ArduinoJson.h</text>
</a>
</g>
</g>
<!-- Node3&#45;&gt;Node8 -->
<g id="edge7" class="edge">
<title>Node3&#45;&gt;Node8</title>
<path fill="none" stroke="midnightblue" d="M335.22,-56.08C330.33,-48.53 323.17,-37.49 317.17,-28.23"/>
<polygon fill="midnightblue" stroke="midnightblue" points="320.05,-26.24 311.67,-19.75 314.17,-30.05 320.05,-26.24"/>
</g>
<!-- Node9 -->
<g id="node9" class="node">
<title>Node9</title>
<g id="a_node9"><a xlink:title=" ">
<polygon fill="white" stroke="#bfbfbf" points="366,-0.5 366,-19.5 476,-19.5 476,-0.5 366,-0.5"/>
<text text-anchor="middle" x="421" y="-7.5" font-family="Helvetica,sans-Serif" font-size="10.00">PJONThroughLora.h</text>
</a>
</g>
</g>
<!-- Node3&#45;&gt;Node9 -->
<g id="edge8" class="edge">
<title>Node3&#45;&gt;Node9</title>
<path fill="none" stroke="midnightblue" d="M353.85,-56.32C366.22,-47.98 385.13,-35.21 399.74,-25.35"/>
<polygon fill="midnightblue" stroke="midnightblue" points="401.85,-28.15 408.18,-19.65 397.93,-22.35 401.85,-28.15"/>
</g>
<!-- Node10 -->
<g id="node10" class="node">
<title>Node10</title>
<g id="a_node10"><a xlink:title=" ">
<polygon fill="white" stroke="#bfbfbf" points="494,-0.5 494,-19.5 572,-19.5 572,-0.5 494,-0.5"/>
<text text-anchor="middle" x="533" y="-7.5" font-family="Helvetica,sans-Serif" font-size="10.00">TunePlayer.h</text>
</a>
</g>
</g>
<!-- Node3&#45;&gt;Node10 -->
<g id="edge9" class="edge">
<title>Node3&#45;&gt;Node10</title>
<path fill="none" stroke="midnightblue" d="M371.42,-56.44C404.28,-47.2 456.78,-32.44 492.97,-22.26"/>
<polygon fill="midnightblue" stroke="midnightblue" points="494.04,-25.59 502.72,-19.52 492.15,-18.85 494.04,-25.59"/>
</g>
<!-- Node11 -->
<g id="node11" class="node">
<title>Node11</title>
<g id="a_node11"><a xlink:href="topics_8h.html" target="_top" xlink:title="MQTT topics for a thingsboard gateway.">
<polygon fill="white" stroke="black" points="0,-0.5 0,-19.5 72,-19.5 72,-0.5 0,-0.5"/>
<text text-anchor="middle" x="36" y="-7.5" font-family="Helvetica,sans-Serif" font-size="10.00">src/topics.h</text>
</a>
</g>
</g>
<!-- Node3&#45;&gt;Node11 -->
<g id="edge10" class="edge">
<title>Node3&#45;&gt;Node11</title>
<path fill="none" stroke="midnightblue" d="M305.62,-59.18C257.4,-51.17 168.1,-36.12 82.24,-20.2"/>
<polygon fill="midnightblue" stroke="midnightblue" points="82.81,-16.74 72.33,-18.35 81.52,-23.62 82.81,-16.74"/>
</g>
<!-- Node12&#45;&gt;Node3 -->
<g id="edge12" class="edge">
<title>Node12&#45;&gt;Node3</title>
<path fill="none" stroke="midnightblue" d="M423.3,-392.28C440.82,-374.85 477,-333.69 477,-291 477,-291 477,-291 477,-177 477,-126.08 418.66,-94.67 378.4,-79.06"/>
<polygon fill="midnightblue" stroke="midnightblue" points="379.44,-75.72 368.85,-75.52 377.01,-82.28 379.44,-75.72"/>
</g>
<!-- Node13 -->
<g id="node13" class="node">
<title>Node13</title>
<g id="a_node13"><a xlink:href="devices_8h.html" target="_top" xlink:title="Devices and manager for all known devices the base station connects to.">
<polygon fill="white" stroke="black" points="339.5,-224.5 339.5,-243.5 402.5,-243.5 402.5,-224.5 339.5,-224.5"/>
<text text-anchor="middle" x="371" y="-231.5" font-family="Helvetica,sans-Serif" font-size="10.00">devices.h</text>
</a>
</g>
</g>
<!-- Node12&#45;&gt;Node13 -->
<g id="edge13" class="edge">
<title>Node12&#45;&gt;Node13</title>
<path fill="none" stroke="midnightblue" d="M413.72,-392.48C413.17,-379.96 411.55,-355.92 407,-336 400.18,-306.16 387.26,-272.98 378.9,-253.06"/>
<polygon fill="midnightblue" stroke="midnightblue" points="382.05,-251.52 374.9,-243.71 375.61,-254.28 382.05,-251.52"/>
</g>
<!-- Node17 -->
<g id="node17" class="node">
<title>Node17</title>
<g id="a_node17"><a xlink:href="lora_8h.html" target="_top" xlink:title="File that handles the LoRa radio and PJON.">
<polygon fill="white" stroke="black" points="354,-336.5 354,-355.5 398,-355.5 398,-336.5 354,-336.5"/>
<text text-anchor="middle" x="376" y="-343.5" font-family="Helvetica,sans-Serif" font-size="10.00">lora.h</text>
</a>
</g>
</g>
<!-- Node12&#45;&gt;Node17 -->
<g id="edge22" class="edge">
<title>Node12&#45;&gt;Node17</title>
<path fill="none" stroke="midnightblue" d="M402.56,-392.08C395.73,-384.61 387.66,-373.72 381.96,-364.52"/>
<polygon fill="midnightblue" stroke="midnightblue" points="384.98,-362.75 377.03,-355.75 378.88,-366.18 384.98,-362.75"/>
</g>
<!-- Node13&#45;&gt;Node3 -->
<g id="edge14" class="edge">
<title>Node13&#45;&gt;Node3</title>
<path fill="none" stroke="midnightblue" d="M374.32,-224.42C381.64,-204.1 397.39,-151.73 382,-112 377.55,-100.5 368.63,-90.13 360.25,-82.25"/>
<polygon fill="midnightblue" stroke="midnightblue" points="362.37,-79.46 352.54,-75.51 357.76,-84.73 362.37,-79.46"/>
</g>
<!-- Node14 -->
<g id="node14" class="node">
<title>Node14</title>
<g id="a_node14"><a xlink:href="lookups_8h.html" target="_top" xlink:title="Lookupable and lookupable manager base classes.">
<polygon fill="white" stroke="black" points="309.5,-112.5 309.5,-131.5 372.5,-131.5 372.5,-112.5 309.5,-112.5"/>
<text text-anchor="middle" x="341" y="-119.5" font-family="Helvetica,sans-Serif" font-size="10.00">lookups.h</text>
</a>
</g>
</g>
<!-- Node13&#45;&gt;Node14 -->
<g id="edge15" class="edge">
<title>Node13&#45;&gt;Node14</title>
<path fill="none" stroke="midnightblue" d="M368.65,-224.37C363.78,-206.54 352.54,-165.3 345.98,-141.27"/>
<polygon fill="midnightblue" stroke="midnightblue" points="349.35,-140.32 343.34,-131.59 342.6,-142.16 349.35,-140.32"/>
</g>
<!-- Node15 -->
<g id="node15" class="node">
<title>Node15</title>
<g id="a_node15"><a xlink:href="fields_8h.html" target="_top" xlink:title="Contains fields classes.">
<polygon fill="white" stroke="black" points="231,-168.5 231,-187.5 283,-187.5 283,-168.5 231,-168.5"/>
<text text-anchor="middle" x="257" y="-175.5" font-family="Helvetica,sans-Serif" font-size="10.00">fields.h</text>
</a>
</g>
</g>
<!-- Node13&#45;&gt;Node15 -->
<g id="edge17" class="edge">
<title>Node13&#45;&gt;Node15</title>
<path fill="none" stroke="midnightblue" d="M352.94,-224.44C334.43,-215.68 305.42,-201.94 284.14,-191.86"/>
<polygon fill="midnightblue" stroke="midnightblue" points="285.51,-188.63 274.98,-187.52 282.52,-194.96 285.51,-188.63"/>
</g>
<!-- Node14&#45;&gt;Node3 -->
<g id="edge16" class="edge">
<title>Node14&#45;&gt;Node3</title>
<path fill="none" stroke="midnightblue" d="M341,-112.08C341,-105.01 341,-94.86 341,-85.99"/>
<polygon fill="midnightblue" stroke="midnightblue" points="344.5,-85.75 341,-75.75 337.5,-85.75 344.5,-85.75"/>
</g>
<!-- Node15&#45;&gt;Node3 -->
<g id="edge18" class="edge">
<title>Node15&#45;&gt;Node3</title>
<path fill="none" stroke="midnightblue" d="M239.05,-168.46C216.36,-156.5 182.04,-133.75 198,-112 220.16,-81.8 262.6,-71.33 295.51,-67.96"/>
<polygon fill="midnightblue" stroke="midnightblue" points="296.16,-71.42 305.83,-67.09 295.57,-64.44 296.16,-71.42"/>
</g>
<!-- Node15&#45;&gt;Node14 -->
<g id="edge19" class="edge">
<title>Node15&#45;&gt;Node14</title>
<path fill="none" stroke="midnightblue" d="M270.5,-168.32C283.6,-159.9 303.71,-146.97 319.11,-137.07"/>
<polygon fill="midnightblue" stroke="midnightblue" points="321.02,-140.01 327.54,-131.65 317.23,-134.12 321.02,-140.01"/>
</g>
<!-- Node16 -->
<g id="node16" class="node">
<title>Node16</title>
<g id="a_node16"><a xlink:href="conversions_8h.html" target="_top" xlink:title="General functions for converting to and from char arrays.">
<polygon fill="white" stroke="black" points="207,-112.5 207,-131.5 291,-131.5 291,-112.5 207,-112.5"/>
<text text-anchor="middle" x="249" y="-119.5" font-family="Helvetica,sans-Serif" font-size="10.00">conversions.h</text>
</a>
</g>
</g>
<!-- Node15&#45;&gt;Node16 -->
<g id="edge20" class="edge">
<title>Node15&#45;&gt;Node16</title>
<path fill="none" stroke="midnightblue" d="M255.68,-168.08C254.62,-160.93 253.09,-150.64 251.77,-141.69"/>
<polygon fill="midnightblue" stroke="midnightblue" points="255.22,-141.13 250.3,-131.75 248.3,-142.16 255.22,-141.13"/>
</g>
<!-- Node16&#45;&gt;Node3 -->
<g id="edge21" class="edge">
<title>Node16&#45;&gt;Node3</title>
<path fill="none" stroke="midnightblue" d="M263.78,-112.32C278.27,-103.82 300.57,-90.73 317.49,-80.8"/>
<polygon fill="midnightblue" stroke="midnightblue" points="319.4,-83.74 326.26,-75.65 315.86,-77.7 319.4,-83.74"/>
</g>
<!-- Node17&#45;&gt;Node3 -->
<g id="edge23" class="edge">
<title>Node17&#45;&gt;Node3</title>
<path fill="none" stroke="midnightblue" d="M380.23,-336.36C388.35,-319.24 405.85,-279.59 412,-244 413.51,-235.24 412.55,-232.87 412,-224 408.88,-173.93 422.64,-155.7 398,-112 390.77,-99.17 378.27,-88.69 366.82,-81.07"/>
<polygon fill="midnightblue" stroke="midnightblue" points="368.32,-77.89 357.98,-75.59 364.64,-83.83 368.32,-77.89"/>
</g>
<!-- Node17&#45;&gt;Node12 -->
<g id="edge26" class="edge">
<title>Node17&#45;&gt;Node12</title>
<path fill="none" stroke="midnightblue" d="M387.29,-355.75C394.1,-363.17 402.17,-374.05 407.91,-383.27"/>
<polygon fill="midnightblue" stroke="midnightblue" points="404.92,-385.1 412.89,-392.08 411.01,-381.66 404.92,-385.1"/>
</g>
<!-- Node17&#45;&gt;Node13 -->
<g id="edge25" class="edge">
<title>Node17&#45;&gt;Node13</title>
<path fill="none" stroke="midnightblue" d="M375.61,-336.37C374.8,-318.62 372.94,-277.67 371.85,-253.6"/>
<polygon fill="midnightblue" stroke="midnightblue" points="375.34,-253.42 371.39,-243.59 368.35,-253.74 375.34,-253.42"/>
</g>
<!-- Node17&#45;&gt;Node14 -->
<g id="edge24" class="edge">
<title>Node17&#45;&gt;Node14</title>
<path fill="none" stroke="midnightblue" d="M370.57,-336.24C360.37,-319.24 338.71,-280.24 331,-244 323.39,-208.22 330.69,-165.36 336.19,-141.45"/>
<polygon fill="midnightblue" stroke="midnightblue" points="339.61,-142.16 338.59,-131.62 332.81,-140.5 339.61,-142.16"/>
</g>
<!-- Node18 -->
<g id="node18" class="node">
<title>Node18</title>
<g id="a_node18"><a xlink:href="rpc_8h.html" target="_top" xlink:title="Handles RPC calls.">
<polygon fill="white" stroke="black" points="236.5,-280.5 236.5,-299.5 277.5,-299.5 277.5,-280.5 236.5,-280.5"/>
<text text-anchor="middle" x="257" y="-287.5" font-family="Helvetica,sans-Serif" font-size="10.00">rpc.h</text>
</a>
</g>
</g>
<!-- Node17&#45;&gt;Node18 -->
<g id="edge27" class="edge">
<title>Node17&#45;&gt;Node18</title>
<path fill="none" stroke="midnightblue" d="M357.14,-336.44C337.73,-327.64 307.27,-313.81 285.04,-303.72"/>
<polygon fill="midnightblue" stroke="midnightblue" points="286.32,-300.46 275.77,-299.52 283.43,-306.84 286.32,-300.46"/>
</g>
<!-- Node18&#45;&gt;Node3 -->
<g id="edge28" class="edge">
<title>Node18&#45;&gt;Node3</title>
<path fill="none" stroke="midnightblue" d="M248.34,-280.45C221.98,-253.41 147.04,-168.18 189,-112 213.36,-79.39 260.3,-69.44 295.61,-66.85"/>
<polygon fill="midnightblue" stroke="midnightblue" points="295.9,-70.34 305.69,-66.28 295.51,-63.35 295.9,-70.34"/>
</g>
<!-- Node18&#45;&gt;Node11 -->
<g id="edge29" class="edge">
<title>Node18&#45;&gt;Node11</title>
<path fill="none" stroke="midnightblue" d="M236.21,-288.23C181.19,-284.96 36,-267.93 36,-179 36,-179 36,-179 36,-121 36,-88.95 36,-51.64 36,-29.75"/>
<polygon fill="midnightblue" stroke="midnightblue" points="39.5,-29.56 36,-19.56 32.5,-29.56 39.5,-29.56"/>
</g>
<!-- Node18&#45;&gt;Node12 -->
<g id="edge34" class="edge">
<title>Node18&#45;&gt;Node12</title>
<path fill="none" stroke="midnightblue" d="M268.24,-299.63C284.82,-312.29 316.92,-336.5 345,-356 360.37,-366.67 378.04,-378.19 391.66,-386.9"/>
<polygon fill="midnightblue" stroke="midnightblue" points="390.04,-390.02 400.36,-392.43 393.8,-384.11 390.04,-390.02"/>
</g>
<!-- Node18&#45;&gt;Node13 -->
<g id="edge32" class="edge">
<title>Node18&#45;&gt;Node13</title>
<path fill="none" stroke="midnightblue" d="M275.06,-280.44C293.57,-271.68 322.58,-257.94 343.86,-247.86"/>
<polygon fill="midnightblue" stroke="midnightblue" points="345.48,-250.96 353.02,-243.52 342.49,-244.63 345.48,-250.96"/>
</g>
<!-- Node18&#45;&gt;Node15 -->
<g id="edge33" class="edge">
<title>Node18&#45;&gt;Node15</title>
<path fill="none" stroke="midnightblue" d="M257,-280.37C257,-262.62 257,-221.67 257,-197.6"/>
<polygon fill="midnightblue" stroke="midnightblue" points="260.5,-197.59 257,-187.59 253.5,-197.59 260.5,-197.59"/>
</g>
<!-- Node19 -->
<g id="node19" class="node">
<title>Node19</title>
<g id="a_node19"><a xlink:href="alarm_8h.html" target="_top" xlink:title="Handles alarms.">
<polygon fill="white" stroke="black" points="64,-168.5 64,-187.5 118,-187.5 118,-168.5 64,-168.5"/>
<text text-anchor="middle" x="91" y="-175.5" font-family="Helvetica,sans-Serif" font-size="10.00">alarm.h</text>
</a>
</g>
</g>
<!-- Node18&#45;&gt;Node19 -->
<g id="edge30" class="edge">
<title>Node18&#45;&gt;Node19</title>
<path fill="none" stroke="midnightblue" d="M236.37,-285.84C209.79,-280.89 163.29,-269.14 132,-244 116.6,-231.63 105.3,-211.82 98.51,-197.32"/>
<polygon fill="midnightblue" stroke="midnightblue" points="101.59,-195.63 94.36,-187.88 95.18,-198.45 101.59,-195.63"/>
</g>
<!-- Node19&#45;&gt;Node3 -->
<g id="edge31" class="edge">
<title>Node19&#45;&gt;Node3</title>
<path fill="none" stroke="midnightblue" d="M93.27,-168.28C97.44,-154.11 107.7,-126.25 127,-112 153.32,-92.56 241.24,-78.9 295.85,-72.04"/>
<polygon fill="midnightblue" stroke="midnightblue" points="296.47,-75.49 305.97,-70.8 295.62,-68.55 296.47,-75.49"/>
</g>
</g>
</svg>
