<?xml version="1.0" encoding="UTF-8" standalone="no"?>
<!DOCTYPE svg PUBLIC "-//W3C//DTD SVG 1.1//EN"
 "http://www.w3.org/Graphics/SVG/1.1/DTD/svg11.dtd">
<!-- Generated by graphviz version 2.43.0 (0)
 -->
<!-- Title: ESP32BaseStation/src/rpc.h Pages: 1 -->
<svg width="519pt" height="307pt"
 viewBox="0.00 0.00 519.00 307.00" xmlns="http://www.w3.org/2000/svg" xmlns:xlink="http://www.w3.org/1999/xlink">
<g id="graph0" class="graph" transform="scale(1 1) rotate(0) translate(4 303)">
<title>ESP32BaseStation/src/rpc.h</title>
<polygon fill="white" stroke="transparent" points="-4,4 -4,-303 515,-303 515,4 -4,4"/>
<!-- Node1 -->
<g id="node1" class="node">
<title>Node1</title>
<g id="a_node1"><a xlink:title="Handles RPC calls.">
<polygon fill="#bfbfbf" stroke="black" points="140,-268.5 140,-298.5 262,-298.5 262,-268.5 140,-268.5"/>
<text text-anchor="start" x="148" y="-286.5" font-family="Helvetica,sans-Serif" font-size="10.00">ESP32BaseStation/src</text>
<text text-anchor="middle" x="201" y="-275.5" font-family="Helvetica,sans-Serif" font-size="10.00">/rpc.h</text>
</a>
</g>
</g>
<!-- Node2 -->
<g id="node2" class="node">
<title>Node2</title>
<g id="a_node2"><a xlink:href="_e_s_p32_base_station_8ino.html" target="_top" xlink:title="Main file for a base station to connect to remote sensors on a farm.">
<polygon fill="white" stroke="black" points="0,-0.5 0,-30.5 162,-30.5 162,-0.5 0,-0.5"/>
<text text-anchor="start" x="8" y="-18.5" font-family="Helvetica,sans-Serif" font-size="10.00">ESP32BaseStation/ESP32Base</text>
<text text-anchor="middle" x="81" y="-7.5" font-family="Helvetica,sans-Serif" font-size="10.00">Station.ino</text>
</a>
</g>
</g>
<!-- Node1&#45;&gt;Node2 -->
<g id="edge1" class="edge">
<title>Node1&#45;&gt;Node2</title>
<path fill="none" stroke="midnightblue" d="M142.36,-264.7C123.19,-256.86 102.8,-246.14 87,-232 61.33,-209.01 56.98,-198.27 48,-165 44.34,-151.46 42.64,-88.33 49,-67 52.98,-53.67 61.56,-40.46 68.83,-30.89"/>
<polygon fill="midnightblue" stroke="midnightblue" points="141.35,-268.06 151.94,-268.42 143.89,-261.54 141.35,-268.06"/>
</g>
<!-- Node3 -->
<g id="node3" class="node">
<title>Node3</title>
<g id="a_node3"><a xlink:href="lora_8h.html" target="_top" xlink:title="File that handles the LoRa radio and PJON.">
<polygon fill="white" stroke="black" points="96,-201.5 96,-231.5 218,-231.5 218,-201.5 96,-201.5"/>
<text text-anchor="start" x="104" y="-219.5" font-family="Helvetica,sans-Serif" font-size="10.00">ESP32BaseStation/src</text>
<text text-anchor="middle" x="157" y="-208.5" font-family="Helvetica,sans-Serif" font-size="10.00">/lora.h</text>
</a>
</g>
</g>
<!-- Node1&#45;&gt;Node3 -->
<g id="edge2" class="edge">
<title>Node1&#45;&gt;Node3</title>
<path fill="none" stroke="midnightblue" d="M185.68,-259.87C179.31,-250.46 172.12,-239.83 166.53,-231.58"/>
<polygon fill="midnightblue" stroke="midnightblue" points="182.95,-262.08 191.45,-268.4 188.75,-258.15 182.95,-262.08"/>
</g>
<!-- Node11 -->
<g id="node11" class="node">
<title>Node11</title>
<g id="a_node11"><a xlink:href="rpc_8cpp.html" target="_top" xlink:title="Handles RPC calls.">
<polygon fill="white" stroke="black" points="274,-201.5 274,-231.5 396,-231.5 396,-201.5 274,-201.5"/>
<text text-anchor="start" x="282" y="-219.5" font-family="Helvetica,sans-Serif" font-size="10.00">ESP32BaseStation/src</text>
<text text-anchor="middle" x="335" y="-208.5" font-family="Helvetica,sans-Serif" font-size="10.00">/rpc.cpp</text>
</a>
</g>
</g>
<!-- Node1&#45;&gt;Node11 -->
<g id="edge16" class="edge">
<title>Node1&#45;&gt;Node11</title>
<path fill="none" stroke="midnightblue" d="M239.15,-263.99C260.39,-253.69 286.41,-241.07 305.98,-231.58"/>
<polygon fill="midnightblue" stroke="midnightblue" points="237.55,-260.88 230.08,-268.4 240.6,-267.18 237.55,-260.88"/>
</g>
<!-- Node3&#45;&gt;Node2 -->
<g id="edge3" class="edge">
<title>Node3&#45;&gt;Node2</title>
<path fill="none" stroke="midnightblue" d="M98.79,-196.95C84.27,-189.41 70.45,-179.05 62,-165 36.03,-121.78 60.33,-58.78 73.63,-30.81"/>
<polygon fill="midnightblue" stroke="midnightblue" points="97.35,-200.14 107.88,-201.28 100.36,-193.82 97.35,-200.14"/>
</g>
<!-- Node4 -->
<g id="node4" class="node">
<title>Node4</title>
<g id="a_node4"><a xlink:href="lora_8cpp.html" target="_top" xlink:title="File that handles the LoRa radio and PJON.">
<polygon fill="white" stroke="black" points="71,-134.5 71,-164.5 193,-164.5 193,-134.5 71,-134.5"/>
<text text-anchor="start" x="79" y="-152.5" font-family="Helvetica,sans-Serif" font-size="10.00">ESP32BaseStation/src</text>
<text text-anchor="middle" x="132" y="-141.5" font-family="Helvetica,sans-Serif" font-size="10.00">/lora.cpp</text>
</a>
</g>
</g>
<!-- Node3&#45;&gt;Node4 -->
<g id="edge4" class="edge">
<title>Node3&#45;&gt;Node4</title>
<path fill="none" stroke="midnightblue" d="M147.96,-191.99C144.42,-182.8 140.49,-172.58 137.41,-164.58"/>
<polygon fill="midnightblue" stroke="midnightblue" points="144.72,-193.32 151.58,-201.4 151.25,-190.81 144.72,-193.32"/>
</g>
<!-- Node5 -->
<g id="node5" class="node">
<title>Node5</title>
<g id="a_node5"><a xlink:href="networking_8h.html" target="_top" xlink:title="Header file for networking.cpp.">
<polygon fill="white" stroke="black" points="211,-134.5 211,-164.5 333,-164.5 333,-134.5 211,-134.5"/>
<text text-anchor="start" x="219" y="-152.5" font-family="Helvetica,sans-Serif" font-size="10.00">ESP32BaseStation/src</text>
<text text-anchor="middle" x="272" y="-141.5" font-family="Helvetica,sans-Serif" font-size="10.00">/networking.h</text>
</a>
</g>
</g>
<!-- Node3&#45;&gt;Node5 -->
<g id="edge5" class="edge">
<title>Node3&#45;&gt;Node5</title>
<path fill="none" stroke="midnightblue" d="M185.23,-196.02C202.3,-185.9 223.95,-173.77 241.42,-164.58"/>
<polygon fill="midnightblue" stroke="midnightblue" points="183.04,-193.25 176.27,-201.4 186.65,-199.25 183.04,-193.25"/>
</g>
<!-- Node5&#45;&gt;Node1 -->
<g id="edge15" class="edge">
<title>Node5&#45;&gt;Node1</title>
<path fill="none" stroke="midnightblue" d="M259.68,-173.4C244.97,-200.75 220.82,-245.65 208.6,-268.37"/>
<polygon fill="midnightblue" stroke="midnightblue" points="262.8,-174.99 264.46,-164.52 256.64,-171.67 262.8,-174.99"/>
</g>
<!-- Node5&#45;&gt;Node2 -->
<g id="edge6" class="edge">
<title>Node5&#45;&gt;Node2</title>
<path fill="none" stroke="midnightblue" d="M203.75,-131.95C159.05,-120.51 107.54,-105.98 100,-98 82.64,-79.63 80.1,-48.58 80.25,-30.57"/>
<polygon fill="midnightblue" stroke="midnightblue" points="202.91,-135.34 213.46,-134.41 204.63,-128.56 202.91,-135.34"/>
</g>
<!-- Node5&#45;&gt;Node3 -->
<g id="edge10" class="edge">
<title>Node5&#45;&gt;Node3</title>
<path fill="none" stroke="midnightblue" d="M243.82,-169.95C226.76,-180.07 205.11,-192.2 187.63,-201.4"/>
<polygon fill="midnightblue" stroke="midnightblue" points="246,-172.73 252.77,-164.58 242.4,-166.73 246,-172.73"/>
</g>
<!-- Node6 -->
<g id="node6" class="node">
<title>Node6</title>
<g id="a_node6"><a xlink:href="leds_8h.html" target="_top" xlink:title="Controls the LEDs on the unit.">
<polygon fill="white" stroke="black" points="249,-67.5 249,-97.5 371,-97.5 371,-67.5 249,-67.5"/>
<text text-anchor="start" x="257" y="-85.5" font-family="Helvetica,sans-Serif" font-size="10.00">ESP32BaseStation/src</text>
<text text-anchor="middle" x="310" y="-74.5" font-family="Helvetica,sans-Serif" font-size="10.00">/leds.h</text>
</a>
</g>
</g>
<!-- Node5&#45;&gt;Node6 -->
<g id="edge7" class="edge">
<title>Node5&#45;&gt;Node6</title>
<path fill="none" stroke="midnightblue" d="M285.4,-125.58C290.86,-116.24 296.99,-105.75 301.77,-97.58"/>
<polygon fill="midnightblue" stroke="midnightblue" points="282.27,-124 280.25,-134.4 288.31,-127.53 282.27,-124"/>
</g>
<!-- Node8 -->
<g id="node8" class="node">
<title>Node8</title>
<g id="a_node8"><a xlink:href="networking_8cpp.html" target="_top" xlink:title="File that handles connecting to WiFi and MQTT and staying connected.">
<polygon fill="white" stroke="black" points="109,-67.5 109,-97.5 231,-97.5 231,-67.5 109,-67.5"/>
<text text-anchor="start" x="117" y="-85.5" font-family="Helvetica,sans-Serif" font-size="10.00">ESP32BaseStation/src</text>
<text text-anchor="middle" x="170" y="-74.5" font-family="Helvetica,sans-Serif" font-size="10.00">/networking.cpp</text>
</a>
</g>
</g>
<!-- Node5&#45;&gt;Node8 -->
<g id="edge11" class="edge">
<title>Node5&#45;&gt;Node8</title>
<path fill="none" stroke="midnightblue" d="M241.42,-129.02C225.55,-118.9 206.52,-106.77 192.09,-97.58"/>
<polygon fill="midnightblue" stroke="midnightblue" points="239.55,-131.97 249.87,-134.4 243.32,-126.07 239.55,-131.97"/>
</g>
<!-- Node9 -->
<g id="node9" class="node">
<title>Node9</title>
<g id="a_node9"><a xlink:href="ota_8h.html" target="_top" xlink:title="Handles over the air (OTA) updates.">
<polygon fill="white" stroke="black" points="389,-67.5 389,-97.5 511,-97.5 511,-67.5 389,-67.5"/>
<text text-anchor="start" x="397" y="-85.5" font-family="Helvetica,sans-Serif" font-size="10.00">ESP32BaseStation/src</text>
<text text-anchor="middle" x="450" y="-74.5" font-family="Helvetica,sans-Serif" font-size="10.00">/ota.h</text>
</a>
</g>
</g>
<!-- Node5&#45;&gt;Node9 -->
<g id="edge12" class="edge">
<title>Node5&#45;&gt;Node9</title>
<path fill="none" stroke="midnightblue" d="M320.05,-130.96C348.72,-120.48 384.64,-107.37 411.45,-97.58"/>
<polygon fill="midnightblue" stroke="midnightblue" points="318.82,-127.68 310.62,-134.4 321.22,-134.25 318.82,-127.68"/>
</g>
<!-- Node6&#45;&gt;Node2 -->
<g id="edge8" class="edge">
<title>Node6&#45;&gt;Node2</title>
<path fill="none" stroke="midnightblue" d="M250.86,-64.71C213.6,-54.14 166.03,-40.63 130.71,-30.61"/>
<polygon fill="midnightblue" stroke="midnightblue" points="250.02,-68.11 260.59,-67.48 251.93,-61.38 250.02,-68.11"/>
</g>
<!-- Node7 -->
<g id="node7" class="node">
<title>Node7</title>
<g id="a_node7"><a xlink:href="leds_8cpp.html" target="_top" xlink:title="Controls the LEDs on the unit.">
<polygon fill="white" stroke="black" points="249,-0.5 249,-30.5 371,-30.5 371,-0.5 249,-0.5"/>
<text text-anchor="start" x="257" y="-18.5" font-family="Helvetica,sans-Serif" font-size="10.00">ESP32BaseStation/src</text>
<text text-anchor="middle" x="310" y="-7.5" font-family="Helvetica,sans-Serif" font-size="10.00">/leds.cpp</text>
</a>
</g>
</g>
<!-- Node6&#45;&gt;Node7 -->
<g id="edge9" class="edge">
<title>Node6&#45;&gt;Node7</title>
<path fill="none" stroke="midnightblue" d="M310,-57.11C310,-48.15 310,-38.32 310,-30.58"/>
<polygon fill="midnightblue" stroke="midnightblue" points="306.5,-57.4 310,-67.4 313.5,-57.4 306.5,-57.4"/>
</g>
<!-- Node9&#45;&gt;Node2 -->
<g id="edge13" class="edge">
<title>Node9&#45;&gt;Node2</title>
<path fill="none" stroke="midnightblue" d="M378.78,-66.81C299.54,-52.02 219.8,-38.71 162.05,-29.36"/>
<polygon fill="midnightblue" stroke="midnightblue" points="378.47,-70.31 388.94,-68.71 379.76,-63.43 378.47,-70.31"/>
</g>
<!-- Node10 -->
<g id="node10" class="node">
<title>Node10</title>
<g id="a_node10"><a xlink:href="ota_8cpp.html" target="_top" xlink:title="Handles over the air (OTA) updates.">
<polygon fill="white" stroke="black" points="389,-0.5 389,-30.5 511,-30.5 511,-0.5 389,-0.5"/>
<text text-anchor="start" x="397" y="-18.5" font-family="Helvetica,sans-Serif" font-size="10.00">ESP32BaseStation/src</text>
<text text-anchor="middle" x="450" y="-7.5" font-family="Helvetica,sans-Serif" font-size="10.00">/ota.cpp</text>
</a>
</g>
</g>
<!-- Node9&#45;&gt;Node10 -->
<g id="edge14" class="edge">
<title>Node9&#45;&gt;Node10</title>
<path fill="none" stroke="midnightblue" d="M450,-57.11C450,-48.15 450,-38.32 450,-30.58"/>
<polygon fill="midnightblue" stroke="midnightblue" points="446.5,-57.4 450,-67.4 453.5,-57.4 446.5,-57.4"/>
</g>
</g>
</svg>
