<?xml version="1.0" encoding="UTF-8" standalone="no"?>
<!DOCTYPE svg PUBLIC "-//W3C//DTD SVG 1.1//EN"
 "http://www.w3.org/Graphics/SVG/1.1/DTD/svg11.dtd">
<!-- Generated by graphviz version 2.43.0 (0)
 -->
<!-- Title: BaseStationCode/src/src/rpc.cpp Pages: 1 -->
<svg width="759pt" height="487pt"
 viewBox="0.00 0.00 759.00 487.00" xmlns="http://www.w3.org/2000/svg" xmlns:xlink="http://www.w3.org/1999/xlink">
<g id="graph0" class="graph" transform="scale(1 1) rotate(0) translate(4 483)">
<title>BaseStationCode/src/src/rpc.cpp</title>
<polygon fill="white" stroke="transparent" points="-4,4 -4,-483 755,-483 755,4 -4,4"/>
<!-- Node1 -->
<g id="node1" class="node">
<title>Node1</title>
<g id="a_node1"><a xlink:title="Handles RPC calls.">
<polygon fill="#bfbfbf" stroke="black" points="152.5,-448.5 152.5,-478.5 269.5,-478.5 269.5,-448.5 152.5,-448.5"/>
<text text-anchor="start" x="160.5" y="-466.5" font-family="Helvetica,sans-Serif" font-size="10.00">BaseStationCode/src</text>
<text text-anchor="middle" x="211" y="-455.5" font-family="Helvetica,sans-Serif" font-size="10.00">/src/rpc.cpp</text>
</a>
</g>
</g>
<!-- Node2 -->
<g id="node2" class="node">
<title>Node2</title>
<g id="a_node2"><a xlink:href="rpc_8h.html" target="_top" xlink:title="Handles RPC calls.">
<polygon fill="white" stroke="black" points="190.5,-392.5 190.5,-411.5 231.5,-411.5 231.5,-392.5 190.5,-392.5"/>
<text text-anchor="middle" x="211" y="-399.5" font-family="Helvetica,sans-Serif" font-size="10.00">rpc.h</text>
</a>
</g>
</g>
<!-- Node1&#45;&gt;Node2 -->
<g id="edge1" class="edge">
<title>Node1&#45;&gt;Node2</title>
<path fill="none" stroke="midnightblue" d="M211,-448.4C211,-440.47 211,-430.46 211,-421.86"/>
<polygon fill="midnightblue" stroke="midnightblue" points="214.5,-421.66 211,-411.66 207.5,-421.66 214.5,-421.66"/>
</g>
<!-- Node3 -->
<g id="node3" class="node">
<title>Node3</title>
<g id="a_node3"><a xlink:href="defines_8h.html" target="_top" xlink:title="Definitions and other preprocessor and global stuff.">
<polygon fill="white" stroke="black" points="273,-56.5 273,-75.5 343,-75.5 343,-56.5 273,-56.5"/>
<text text-anchor="middle" x="308" y="-63.5" font-family="Helvetica,sans-Serif" font-size="10.00">../defines.h</text>
</a>
</g>
</g>
<!-- Node2&#45;&gt;Node3 -->
<g id="edge2" class="edge">
<title>Node2&#45;&gt;Node3</title>
<path fill="none" stroke="midnightblue" d="M231.62,-400.84C289.28,-399.19 448,-386.03 448,-291 448,-291 448,-291 448,-177 448,-125.35 388.35,-94.26 346.92,-78.9"/>
<polygon fill="midnightblue" stroke="midnightblue" points="347.94,-75.54 337.35,-75.5 345.6,-82.14 347.94,-75.54"/>
</g>
<!-- Node11 -->
<g id="node11" class="node">
<title>Node11</title>
<g id="a_node11"><a xlink:href="topics_8h.html" target="_top" xlink:title="MQTT topics for a thingsboard gateway.">
<polygon fill="white" stroke="black" points="0,-0.5 0,-19.5 72,-19.5 72,-0.5 0,-0.5"/>
<text text-anchor="middle" x="36" y="-7.5" font-family="Helvetica,sans-Serif" font-size="10.00">src/topics.h</text>
</a>
</g>
</g>
<!-- Node2&#45;&gt;Node11 -->
<g id="edge11" class="edge">
<title>Node2&#45;&gt;Node11</title>
<path fill="none" stroke="midnightblue" d="M190.24,-397.94C143.88,-389.81 36,-363.13 36,-291 36,-291 36,-291 36,-121 36,-88.95 36,-51.64 36,-29.75"/>
<polygon fill="midnightblue" stroke="midnightblue" points="39.5,-29.56 36,-19.56 32.5,-29.56 39.5,-29.56"/>
</g>
<!-- Node12 -->
<g id="node12" class="node">
<title>Node12</title>
<g id="a_node12"><a xlink:href="alarm_8h.html" target="_top" xlink:title="Handles alarms.">
<polygon fill="white" stroke="black" points="77,-280.5 77,-299.5 131,-299.5 131,-280.5 77,-280.5"/>
<text text-anchor="middle" x="104" y="-287.5" font-family="Helvetica,sans-Serif" font-size="10.00">alarm.h</text>
</a>
</g>
</g>
<!-- Node2&#45;&gt;Node12 -->
<g id="edge12" class="edge">
<title>Node2&#45;&gt;Node12</title>
<path fill="none" stroke="midnightblue" d="M200.21,-392.49C189.39,-383.76 172.43,-369.58 159,-356 143.65,-340.48 127.71,-321.24 116.97,-307.73"/>
<polygon fill="midnightblue" stroke="midnightblue" points="119.65,-305.48 110.72,-299.78 114.15,-309.81 119.65,-305.48"/>
</g>
<!-- Node13 -->
<g id="node13" class="node">
<title>Node13</title>
<g id="a_node13"><a xlink:href="devices_8h.html" target="_top" xlink:title="Devices and manager for all known devices the base station connects to.">
<polygon fill="white" stroke="black" points="204.5,-224.5 204.5,-243.5 267.5,-243.5 267.5,-224.5 204.5,-224.5"/>
<text text-anchor="middle" x="236" y="-231.5" font-family="Helvetica,sans-Serif" font-size="10.00">devices.h</text>
</a>
</g>
</g>
<!-- Node2&#45;&gt;Node13 -->
<g id="edge14" class="edge">
<title>Node2&#45;&gt;Node13</title>
<path fill="none" stroke="midnightblue" d="M212.34,-392.08C216.28,-365.95 227.84,-289.21 233.2,-253.58"/>
<polygon fill="midnightblue" stroke="midnightblue" points="236.68,-253.98 234.71,-243.57 229.76,-252.94 236.68,-253.98"/>
</g>
<!-- Node15 -->
<g id="node15" class="node">
<title>Node15</title>
<g id="a_node15"><a xlink:href="fields_8h.html" target="_top" xlink:title="Contains fields classes.">
<polygon fill="white" stroke="black" points="178,-168.5 178,-187.5 230,-187.5 230,-168.5 178,-168.5"/>
<text text-anchor="middle" x="204" y="-175.5" font-family="Helvetica,sans-Serif" font-size="10.00">fields.h</text>
</a>
</g>
</g>
<!-- Node2&#45;&gt;Node15 -->
<g id="edge23" class="edge">
<title>Node2&#45;&gt;Node15</title>
<path fill="none" stroke="midnightblue" d="M209.02,-392.15C203.47,-366.28 188.62,-288.48 195,-224 195.87,-215.17 197.69,-205.51 199.47,-197.4"/>
<polygon fill="midnightblue" stroke="midnightblue" points="202.9,-198.08 201.77,-187.55 196.08,-196.49 202.9,-198.08"/>
</g>
<!-- Node17 -->
<g id="node17" class="node">
<title>Node17</title>
<g id="a_node17"><a xlink:href="networking_8h.html" target="_top" xlink:title="Header file for networking.cpp.">
<polygon fill="white" stroke="black" points="239,-336.5 239,-355.5 319,-355.5 319,-336.5 239,-336.5"/>
<text text-anchor="middle" x="279" y="-343.5" font-family="Helvetica,sans-Serif" font-size="10.00">networking.h</text>
</a>
</g>
</g>
<!-- Node2&#45;&gt;Node17 -->
<g id="edge24" class="edge">
<title>Node2&#45;&gt;Node17</title>
<path fill="none" stroke="midnightblue" d="M221.93,-392.32C232.17,-384.18 247.72,-371.84 260,-362.09"/>
<polygon fill="midnightblue" stroke="midnightblue" points="262.22,-364.79 267.88,-355.83 257.87,-359.31 262.22,-364.79"/>
</g>
<!-- Node4 -->
<g id="node4" class="node">
<title>Node4</title>
<g id="a_node4"><a xlink:title=" ">
<polygon fill="white" stroke="#bfbfbf" points="671,-0.5 671,-19.5 751,-19.5 751,-0.5 671,-0.5"/>
<text text-anchor="middle" x="711" y="-7.5" font-family="Helvetica,sans-Serif" font-size="10.00">credentials.h</text>
</a>
</g>
</g>
<!-- Node3&#45;&gt;Node4 -->
<g id="edge3" class="edge">
<title>Node3&#45;&gt;Node4</title>
<path fill="none" stroke="midnightblue" d="M343.26,-61.17C405.34,-54.29 538.42,-38.9 660.99,-20.08"/>
<polygon fill="midnightblue" stroke="midnightblue" points="661.57,-23.54 670.92,-18.55 660.5,-16.62 661.57,-23.54"/>
</g>
<!-- Node5 -->
<g id="node5" class="node">
<title>Node5</title>
<g id="a_node5"><a xlink:title=" ">
<polygon fill="white" stroke="#bfbfbf" points="90.5,-0.5 90.5,-19.5 153.5,-19.5 153.5,-0.5 90.5,-0.5"/>
<text text-anchor="middle" x="122" y="-7.5" font-family="Helvetica,sans-Serif" font-size="10.00">Arduino.h</text>
</a>
</g>
</g>
<!-- Node3&#45;&gt;Node5 -->
<g id="edge4" class="edge">
<title>Node3&#45;&gt;Node5</title>
<path fill="none" stroke="midnightblue" d="M278.53,-56.44C246.83,-47.24 196.27,-32.56 161.23,-22.39"/>
<polygon fill="midnightblue" stroke="midnightblue" points="161.91,-18.94 151.33,-19.52 159.96,-25.67 161.91,-18.94"/>
</g>
<!-- Node6 -->
<g id="node6" class="node">
<title>Node6</title>
<g id="a_node6"><a xlink:title=" ">
<polygon fill="white" stroke="#bfbfbf" points="171.5,-0.5 171.5,-19.5 218.5,-19.5 218.5,-0.5 171.5,-0.5"/>
<text text-anchor="middle" x="195" y="-7.5" font-family="Helvetica,sans-Serif" font-size="10.00">WiFi.h</text>
</a>
</g>
</g>
<!-- Node3&#45;&gt;Node6 -->
<g id="edge5" class="edge">
<title>Node3&#45;&gt;Node6</title>
<path fill="none" stroke="midnightblue" d="M290.09,-56.44C271.75,-47.68 242.99,-33.94 221.91,-23.86"/>
<polygon fill="midnightblue" stroke="midnightblue" points="223.35,-20.67 212.82,-19.52 220.33,-26.99 223.35,-20.67"/>
</g>
<!-- Node7 -->
<g id="node7" class="node">
<title>Node7</title>
<g id="a_node7"><a xlink:title=" ">
<polygon fill="white" stroke="#bfbfbf" points="237,-0.5 237,-19.5 327,-19.5 327,-0.5 237,-0.5"/>
<text text-anchor="middle" x="282" y="-7.5" font-family="Helvetica,sans-Serif" font-size="10.00">PubSubClient.h</text>
</a>
</g>
</g>
<!-- Node3&#45;&gt;Node7 -->
<g id="edge6" class="edge">
<title>Node3&#45;&gt;Node7</title>
<path fill="none" stroke="midnightblue" d="M303.71,-56.08C300.15,-48.69 294.98,-37.95 290.58,-28.81"/>
<polygon fill="midnightblue" stroke="midnightblue" points="293.71,-27.24 286.21,-19.75 287.4,-30.28 293.71,-27.24"/>
</g>
<!-- Node8 -->
<g id="node8" class="node">
<title>Node8</title>
<g id="a_node8"><a xlink:title=" ">
<polygon fill="white" stroke="#bfbfbf" points="345.5,-0.5 345.5,-19.5 428.5,-19.5 428.5,-0.5 345.5,-0.5"/>
<text text-anchor="middle" x="387" y="-7.5" font-family="Helvetica,sans-Serif" font-size="10.00">ArduinoJson.h</text>
</a>
</g>
</g>
<!-- Node3&#45;&gt;Node8 -->
<g id="edge7" class="edge">
<title>Node3&#45;&gt;Node8</title>
<path fill="none" stroke="midnightblue" d="M320.69,-56.32C332.9,-47.98 351.58,-35.21 366,-25.35"/>
<polygon fill="midnightblue" stroke="midnightblue" points="368.06,-28.19 374.34,-19.65 364.11,-22.41 368.06,-28.19"/>
</g>
<!-- Node9 -->
<g id="node9" class="node">
<title>Node9</title>
<g id="a_node9"><a xlink:title=" ">
<polygon fill="white" stroke="#bfbfbf" points="447,-0.5 447,-19.5 557,-19.5 557,-0.5 447,-0.5"/>
<text text-anchor="middle" x="502" y="-7.5" font-family="Helvetica,sans-Serif" font-size="10.00">PJONThroughLora.h</text>
</a>
</g>
</g>
<!-- Node3&#45;&gt;Node9 -->
<g id="edge8" class="edge">
<title>Node3&#45;&gt;Node9</title>
<path fill="none" stroke="midnightblue" d="M338.74,-56.44C371.94,-47.2 424.99,-32.44 461.56,-22.26"/>
<polygon fill="midnightblue" stroke="midnightblue" points="462.71,-25.57 471.4,-19.52 460.83,-18.83 462.71,-25.57"/>
</g>
<!-- Node10 -->
<g id="node10" class="node">
<title>Node10</title>
<g id="a_node10"><a xlink:title=" ">
<polygon fill="white" stroke="#bfbfbf" points="575,-0.5 575,-19.5 653,-19.5 653,-0.5 575,-0.5"/>
<text text-anchor="middle" x="614" y="-7.5" font-family="Helvetica,sans-Serif" font-size="10.00">TunePlayer.h</text>
</a>
</g>
</g>
<!-- Node3&#45;&gt;Node10 -->
<g id="edge9" class="edge">
<title>Node3&#45;&gt;Node10</title>
<path fill="none" stroke="midnightblue" d="M343.08,-59.03C390.89,-50.85 479.47,-35.6 565.09,-20.15"/>
<polygon fill="midnightblue" stroke="midnightblue" points="565.76,-23.58 574.97,-18.36 564.51,-16.69 565.76,-23.58"/>
</g>
<!-- Node3&#45;&gt;Node11 -->
<g id="edge10" class="edge">
<title>Node3&#45;&gt;Node11</title>
<path fill="none" stroke="midnightblue" d="M273,-58.08C230.32,-49.64 155.73,-34.87 82.24,-20.24"/>
<polygon fill="midnightblue" stroke="midnightblue" points="82.84,-16.8 72.35,-18.28 81.47,-23.66 82.84,-16.8"/>
</g>
<!-- Node12&#45;&gt;Node3 -->
<g id="edge13" class="edge">
<title>Node12&#45;&gt;Node3</title>
<path fill="none" stroke="midnightblue" d="M99.85,-280.4C87.06,-252.47 51.46,-163.14 93,-112 113.94,-86.22 205.9,-74.69 262.55,-69.95"/>
<polygon fill="midnightblue" stroke="midnightblue" points="263,-73.43 272.69,-69.15 262.45,-66.45 263,-73.43"/>
</g>
<!-- Node13&#45;&gt;Node3 -->
<g id="edge15" class="edge">
<title>Node13&#45;&gt;Node3</title>
<path fill="none" stroke="midnightblue" d="M246.3,-224.3C264.38,-208.25 301.22,-171.99 315,-132 320.2,-116.91 317.58,-98.78 314.15,-85.51"/>
<polygon fill="midnightblue" stroke="midnightblue" points="317.44,-84.27 311.24,-75.68 310.72,-86.26 317.44,-84.27"/>
</g>
<!-- Node14 -->
<g id="node14" class="node">
<title>Node14</title>
<g id="a_node14"><a xlink:href="lookups_8h.html" target="_top" xlink:title="Lookupable and lookupable manager base classes.">
<polygon fill="white" stroke="black" points="242.5,-112.5 242.5,-131.5 305.5,-131.5 305.5,-112.5 242.5,-112.5"/>
<text text-anchor="middle" x="274" y="-119.5" font-family="Helvetica,sans-Serif" font-size="10.00">lookups.h</text>
</a>
</g>
</g>
<!-- Node13&#45;&gt;Node14 -->
<g id="edge16" class="edge">
<title>Node13&#45;&gt;Node14</title>
<path fill="none" stroke="midnightblue" d="M238.98,-224.37C245.14,-206.54 259.39,-165.3 267.69,-141.27"/>
<polygon fill="midnightblue" stroke="midnightblue" points="271.07,-142.19 271.03,-131.59 264.46,-139.9 271.07,-142.19"/>
</g>
<!-- Node13&#45;&gt;Node15 -->
<g id="edge18" class="edge">
<title>Node13&#45;&gt;Node15</title>
<path fill="none" stroke="midnightblue" d="M230.72,-224.08C226.29,-216.61 219.84,-205.72 214.38,-196.52"/>
<polygon fill="midnightblue" stroke="midnightblue" points="217.29,-194.57 209.19,-187.75 211.27,-198.14 217.29,-194.57"/>
</g>
<!-- Node14&#45;&gt;Node3 -->
<g id="edge17" class="edge">
<title>Node14&#45;&gt;Node3</title>
<path fill="none" stroke="midnightblue" d="M279.61,-112.08C284.37,-104.53 291.32,-93.49 297.15,-84.23"/>
<polygon fill="midnightblue" stroke="midnightblue" points="300.12,-86.08 302.49,-75.75 294.2,-82.35 300.12,-86.08"/>
</g>
<!-- Node15&#45;&gt;Node3 -->
<g id="edge19" class="edge">
<title>Node15&#45;&gt;Node3</title>
<path fill="none" stroke="midnightblue" d="M206.3,-168.08C210.13,-154.61 218.94,-128.88 234,-112 246.07,-98.47 263.19,-87.7 277.92,-80.1"/>
<polygon fill="midnightblue" stroke="midnightblue" points="279.74,-83.1 287.18,-75.56 276.66,-76.82 279.74,-83.1"/>
</g>
<!-- Node15&#45;&gt;Node14 -->
<g id="edge20" class="edge">
<title>Node15&#45;&gt;Node14</title>
<path fill="none" stroke="midnightblue" d="M215.25,-168.32C225.8,-160.18 241.8,-147.84 254.44,-138.09"/>
<polygon fill="midnightblue" stroke="midnightblue" points="256.77,-140.71 262.55,-131.83 252.49,-135.17 256.77,-140.71"/>
</g>
<!-- Node16 -->
<g id="node16" class="node">
<title>Node16</title>
<g id="a_node16"><a xlink:href="conversions_8h.html" target="_top" xlink:title="General functions for converting to and from char arrays.">
<polygon fill="white" stroke="black" points="102,-112.5 102,-131.5 186,-131.5 186,-112.5 102,-112.5"/>
<text text-anchor="middle" x="144" y="-119.5" font-family="Helvetica,sans-Serif" font-size="10.00">conversions.h</text>
</a>
</g>
</g>
<!-- Node15&#45;&gt;Node16 -->
<g id="edge21" class="edge">
<title>Node15&#45;&gt;Node16</title>
<path fill="none" stroke="midnightblue" d="M194.36,-168.32C185.49,-160.34 172.13,-148.31 161.39,-138.65"/>
<polygon fill="midnightblue" stroke="midnightblue" points="163.59,-135.92 153.82,-131.83 158.91,-141.13 163.59,-135.92"/>
</g>
<!-- Node16&#45;&gt;Node3 -->
<g id="edge22" class="edge">
<title>Node16&#45;&gt;Node3</title>
<path fill="none" stroke="midnightblue" d="M169.99,-112.44C197.7,-103.32 241.75,-88.81 272.62,-78.65"/>
<polygon fill="midnightblue" stroke="midnightblue" points="273.73,-81.97 282.14,-75.52 271.54,-75.32 273.73,-81.97"/>
</g>
<!-- Node17&#45;&gt;Node3 -->
<g id="edge25" class="edge">
<title>Node17&#45;&gt;Node3</title>
<path fill="none" stroke="midnightblue" d="M305.19,-336.41C343.42,-322.03 410,-289.2 410,-235 410,-235 410,-235 410,-177 410,-132.39 364.34,-98.23 334.12,-80.51"/>
<polygon fill="midnightblue" stroke="midnightblue" points="335.73,-77.4 325.3,-75.55 332.3,-83.5 335.73,-77.4"/>
</g>
<!-- Node17&#45;&gt;Node13 -->
<g id="edge26" class="edge">
<title>Node17&#45;&gt;Node13</title>
<path fill="none" stroke="midnightblue" d="M275.63,-336.37C268.62,-318.46 252.39,-276.92 243.02,-252.95"/>
<polygon fill="midnightblue" stroke="midnightblue" points="246.26,-251.63 239.36,-243.59 239.74,-254.18 246.26,-251.63"/>
</g>
<!-- Node18 -->
<g id="node18" class="node">
<title>Node18</title>
<g id="a_node18"><a xlink:href="lora_8h.html" target="_top" xlink:title="File that handles the LoRa radio and PJON.">
<polygon fill="white" stroke="black" points="277,-280.5 277,-299.5 321,-299.5 321,-280.5 277,-280.5"/>
<text text-anchor="middle" x="299" y="-287.5" font-family="Helvetica,sans-Serif" font-size="10.00">lora.h</text>
</a>
</g>
</g>
<!-- Node17&#45;&gt;Node18 -->
<g id="edge27" class="edge">
<title>Node17&#45;&gt;Node18</title>
<path fill="none" stroke="midnightblue" d="M277.14,-336.08C278.31,-328.69 281.88,-317.95 286.01,-308.81"/>
<polygon fill="midnightblue" stroke="midnightblue" points="289.21,-310.25 290.63,-299.75 282.97,-307.07 289.21,-310.25"/>
</g>
<!-- Node18&#45;&gt;Node2 -->
<g id="edge32" class="edge">
<title>Node18&#45;&gt;Node2</title>
<path fill="none" stroke="midnightblue" d="M308.06,-299.51C320.7,-312.43 340.73,-337.46 328,-356 308.77,-384 269.51,-394.58 241.78,-398.58"/>
<polygon fill="midnightblue" stroke="midnightblue" points="241.28,-395.12 231.78,-399.81 242.14,-402.06 241.28,-395.12"/>
</g>
<!-- Node18&#45;&gt;Node3 -->
<g id="edge28" class="edge">
<title>Node18&#45;&gt;Node3</title>
<path fill="none" stroke="midnightblue" d="M302.91,-280.46C314.16,-254.79 344.84,-176.13 330,-112 327.77,-102.36 323.18,-92.41 318.76,-84.31"/>
<polygon fill="midnightblue" stroke="midnightblue" points="321.7,-82.4 313.64,-75.52 315.65,-85.92 321.7,-82.4"/>
</g>
<!-- Node18&#45;&gt;Node13 -->
<g id="edge30" class="edge">
<title>Node18&#45;&gt;Node13</title>
<path fill="none" stroke="midnightblue" d="M288.88,-280.32C279.47,-272.26 265.26,-260.08 253.93,-250.37"/>
<polygon fill="midnightblue" stroke="midnightblue" points="256.18,-247.68 246.31,-243.83 251.62,-253 256.18,-247.68"/>
</g>
<!-- Node18&#45;&gt;Node14 -->
<g id="edge29" class="edge">
<title>Node18&#45;&gt;Node14</title>
<path fill="none" stroke="midnightblue" d="M297.66,-280.08C293.72,-253.95 282.16,-177.21 276.8,-141.58"/>
<polygon fill="midnightblue" stroke="midnightblue" points="280.24,-140.94 275.29,-131.57 273.32,-141.98 280.24,-140.94"/>
</g>
<!-- Node18&#45;&gt;Node17 -->
<g id="edge31" class="edge">
<title>Node18&#45;&gt;Node17</title>
<path fill="none" stroke="midnightblue" d="M300.89,-299.75C299.75,-307.09 296.2,-317.82 292.08,-326.98"/>
<polygon fill="midnightblue" stroke="midnightblue" points="288.87,-325.58 287.47,-336.08 295.11,-328.74 288.87,-325.58"/>
</g>
</g>
</svg>
