<?xml version="1.0" encoding="UTF-8" standalone="no"?>
<!DOCTYPE svg PUBLIC "-//W3C//DTD SVG 1.1//EN"
 "http://www.w3.org/Graphics/SVG/1.1/DTD/svg11.dtd">
<!-- Generated by graphviz version 2.43.0 (0)
 -->
<!-- Title: setAttributeState Pages: 1 -->
<svg width="631pt" height="103pt"
 viewBox="0.00 0.00 631.00 103.00" xmlns="http://www.w3.org/2000/svg" xmlns:xlink="http://www.w3.org/1999/xlink">
<g id="graph0" class="graph" transform="scale(1 1) rotate(0) translate(4 99)">
<title>setAttributeState</title>
<!-- Node1 -->
<g id="Node000001" class="node">
<title>Node1</title>
<g id="a_Node000001"><a xlink:title="Sets the state of an attribute.">
<polygon fill="#999999" stroke="#666666" points="623,-75 523,-75 523,-56 623,-56 623,-75"/>
<text text-anchor="middle" x="573" y="-63" font-family="Helvetica,sans-Serif" font-size="10.00">setAttributeState</text>
</a>
</g>
</g>
<!-- Node2 -->
<g id="Node000002" class="node">
<title>Node2</title>
<g id="a_Node000002"><a xlink:href="lora_8cpp.html#aeae7cd913b330750fef4bda6cadbf95b" target="_top" xlink:title="Sends an attribute over mqtt depending on the state of the radio connection.">
<polygon fill="white" stroke="#666666" points="487,-94 347,-94 347,-75 487,-75 487,-94"/>
<text text-anchor="middle" x="417" y="-82" font-family="Helvetica,sans-Serif" font-size="10.00">sendRadioConnectedMsg</text>
</a>
</g>
</g>
<!-- Node1&#45;&gt;Node2 -->
<g id="edge1_Node000001_Node000002" class="edge">
<title>Node1&#45;&gt;Node2</title>
<g id="a_edge1_Node000001_Node000002"><a xlink:title=" ">
<path fill="none" stroke="#63b8ff" d="M512.8,-72.8C504.41,-73.84 495.73,-74.91 487.17,-75.97"/>
<polygon fill="#63b8ff" stroke="#63b8ff" points="513.35,-76.26 522.85,-71.56 512.5,-69.31 513.35,-76.26"/>
</a>
</g>
</g>
<!-- Node6 -->
<g id="Node000006" class="node">
<title>Node6</title>
<g id="a_Node000006"><a xlink:href="lora_8cpp.html#ab9cd66992a99394d4aa4030fcdbf6182" target="_top" xlink:title="Sets the state for if there are packets left to send.">
<polygon fill="white" stroke="#666666" points="471.5,-57 362.5,-57 362.5,-38 471.5,-38 471.5,-57"/>
<text text-anchor="middle" x="417" y="-45" font-family="Helvetica,sans-Serif" font-size="10.00">sendTxWaitingMsg</text>
</a>
</g>
</g>
<!-- Node1&#45;&gt;Node6 -->
<g id="edge5_Node000001_Node000006" class="edge">
<title>Node1&#45;&gt;Node6</title>
<g id="a_edge5_Node000001_Node000006"><a xlink:title=" ">
<path fill="none" stroke="#63b8ff" d="M512.72,-58.57C499.24,-57 484.99,-55.33 471.75,-53.78"/>
<polygon fill="#63b8ff" stroke="#63b8ff" points="512.51,-62.07 522.85,-59.76 513.32,-55.12 512.51,-62.07"/>
</a>
</g>
</g>
<!-- Node3 -->
<g id="Node000003" class="node">
<title>Node3</title>
<g id="a_Node000003"><a xlink:href="lora_8cpp.html#ac5e6522afd1447f1520e4f4503af9ec5" target="_top" xlink:title="Task that checks if the radio is connected.">
<polygon fill="white" stroke="#666666" points="300.5,-95 195.5,-95 195.5,-76 300.5,-76 300.5,-95"/>
<text text-anchor="middle" x="248" y="-83" font-family="Helvetica,sans-Serif" font-size="10.00">loraWatchdogTask</text>
</a>
</g>
</g>
<!-- Node2&#45;&gt;Node3 -->
<g id="edge2_Node000002_Node000003" class="edge">
<title>Node2&#45;&gt;Node3</title>
<g id="a_edge2_Node000002_Node000003"><a xlink:title=" ">
<path fill="none" stroke="#63b8ff" d="M336.44,-84.98C324.25,-85.05 311.96,-85.12 300.59,-85.19"/>
<polygon fill="#63b8ff" stroke="#63b8ff" points="336.65,-88.48 346.63,-84.92 336.61,-81.48 336.65,-88.48"/>
</a>
</g>
</g>
<!-- Node4 -->
<g id="Node000004" class="node">
<title>Node4</title>
<g id="a_Node000004"><a xlink:href="lora_8cpp.html#a6042a1af9411d9eafc7088497f536eb8" target="_top" xlink:title="&quot;Receives&quot; some fake data for testing purposes.">
<polygon fill="white" stroke="#666666" points="144,-94 85,-94 85,-75 144,-75 144,-94"/>
<text text-anchor="middle" x="114.5" y="-82" font-family="Helvetica,sans-Serif" font-size="10.00">pjonTask</text>
</a>
</g>
</g>
<!-- Node3&#45;&gt;Node4 -->
<g id="edge3_Node000003_Node000004" class="edge">
<title>Node3&#45;&gt;Node4</title>
<g id="a_edge3_Node000003_Node000004"><a xlink:title=" ">
<path fill="none" stroke="#63b8ff" d="M185.08,-85.03C170.79,-84.92 156.26,-84.81 144.2,-84.72"/>
<polygon fill="#63b8ff" stroke="#63b8ff" points="185.38,-88.53 195.41,-85.11 185.43,-81.53 185.38,-88.53"/>
</a>
</g>
</g>
<!-- Node5 -->
<g id="Node000005" class="node">
<title>Node5</title>
<g id="a_Node000005"><a xlink:href="main_8cpp.html#a4fc01d736fe50cf5b977f755b675f11d" target="_top" xlink:title=" ">
<polygon fill="white" stroke="#666666" points="44,-75 0,-75 0,-56 44,-56 44,-75"/>
<text text-anchor="middle" x="22" y="-63" font-family="Helvetica,sans-Serif" font-size="10.00">setup</text>
</a>
</g>
</g>
<!-- Node4&#45;&gt;Node5 -->
<g id="edge4_Node000004_Node000005" class="edge">
<title>Node4&#45;&gt;Node5</title>
<g id="a_edge4_Node000004_Node000005"><a xlink:title=" ">
<path fill="none" stroke="#63b8ff" d="M75,-76.42C64.48,-74.21 53.45,-71.89 44.28,-69.97"/>
<polygon fill="#63b8ff" stroke="#63b8ff" points="74.36,-79.86 84.87,-78.49 75.8,-73.01 74.36,-79.86"/>
</a>
</g>
</g>
<!-- Node7 -->
<g id="Node000007" class="node">
<title>Node7</title>
<g id="a_Node000007"><a xlink:href="lora_8cpp.html#aa56d712b5af48cc40bd9ef0dac6cb797" target="_top" xlink:title="Task for sending packets when needed.">
<polygon fill="white" stroke="#666666" points="149,-57 80,-57 80,-38 149,-38 149,-57"/>
<text text-anchor="middle" x="114.5" y="-45" font-family="Helvetica,sans-Serif" font-size="10.00">loraTxTask</text>
</a>
</g>
</g>
<!-- Node6&#45;&gt;Node7 -->
<g id="edge6_Node000006_Node000007" class="edge">
<title>Node6&#45;&gt;Node7</title>
<g id="a_edge6_Node000006_Node000007"><a xlink:title=" ">
<path fill="none" stroke="#63b8ff" d="M352.2,-47.5C290.12,-47.5 198.21,-47.5 149.18,-47.5"/>
<polygon fill="#63b8ff" stroke="#63b8ff" points="352.28,-51 362.28,-47.5 352.28,-44 352.28,-51"/>
</a>
</g>
</g>
<!-- Node8 -->
<g id="Node000008" class="node">
<title>Node8</title>
<g id="a_Node000008"><a xlink:href="lora_8cpp.html#ab4d91a7f25182323f789a4e986c08cd8" target="_top" xlink:title="Updates the attribute waiting to false if required.">
<polygon fill="white" stroke="#666666" points="311,-19 185,-19 185,0 311,0 311,-19"/>
<text text-anchor="middle" x="248" y="-7" font-family="Helvetica,sans-Serif" font-size="10.00">sendOnTxNotRequired</text>
</a>
</g>
</g>
<!-- Node6&#45;&gt;Node8 -->
<g id="edge8_Node000006_Node000008" class="edge">
<title>Node6&#45;&gt;Node8</title>
<g id="a_edge8_Node000006_Node000008"><a xlink:title=" ">
<path fill="none" stroke="#63b8ff" d="M364.04,-35.68C340.49,-30.32 313.03,-24.07 290.84,-19.02"/>
<polygon fill="#63b8ff" stroke="#63b8ff" points="363.33,-39.1 373.86,-37.91 364.88,-32.28 363.33,-39.1"/>
</a>
</g>
</g>
<!-- Node7&#45;&gt;Node5 -->
<g id="edge7_Node000007_Node000005" class="edge">
<title>Node7&#45;&gt;Node5</title>
<g id="a_edge7_Node000007_Node000005"><a xlink:title=" ">
<path fill="none" stroke="#63b8ff" d="M69.81,-56.19C60.86,-57.97 51.82,-59.77 44.11,-61.3"/>
<polygon fill="#63b8ff" stroke="#63b8ff" points="70.68,-59.59 79.8,-54.2 69.31,-52.72 70.68,-59.59"/>
</a>
</g>
</g>
<!-- Node8&#45;&gt;Node7 -->
<g id="edge9_Node000008_Node000007" class="edge">
<title>Node8&#45;&gt;Node7</title>
<g id="a_edge9_Node000008_Node000007"><a xlink:title=" ">
<path fill="none" stroke="#63b8ff" d="M204.12,-21.89C186.11,-27.09 165.49,-33.05 148.67,-37.91"/>
<polygon fill="#63b8ff" stroke="#63b8ff" points="205.18,-25.23 213.82,-19.09 203.24,-18.5 205.18,-25.23"/>
</a>
</g>
</g>
</g>
</svg>
