<?xml version="1.0" encoding="UTF-8" standalone="no"?>
<!DOCTYPE svg PUBLIC "-//W3C//DTD SVG 1.1//EN"
 "http://www.w3.org/Graphics/SVG/1.1/DTD/svg11.dtd">
<!-- Generated by graphviz version 2.43.0 (0)
 -->
<!-- Title: ESP32BaseStation/src/rpc.h Pages: 1 -->
<svg width="441pt" height="307pt"
 viewBox="0.00 0.00 441.00 307.00" xmlns="http://www.w3.org/2000/svg" xmlns:xlink="http://www.w3.org/1999/xlink">
<g id="graph0" class="graph" transform="scale(1 1) rotate(0) translate(4 303)">
<title>ESP32BaseStation/src/rpc.h</title>
<polygon fill="white" stroke="transparent" points="-4,4 -4,-303 437,-303 437,4 -4,4"/>
<!-- Node1 -->
<g id="node1" class="node">
<title>Node1</title>
<g id="a_node1"><a xlink:title="Handles RPC calls.">
<polygon fill="#bfbfbf" stroke="black" points="160,-268.5 160,-298.5 282,-298.5 282,-268.5 160,-268.5"/>
<text text-anchor="start" x="168" y="-286.5" font-family="Helvetica,sans-Serif" font-size="10.00">ESP32BaseStation/src</text>
<text text-anchor="middle" x="221" y="-275.5" font-family="Helvetica,sans-Serif" font-size="10.00">/rpc.h</text>
</a>
</g>
</g>
<!-- Node2 -->
<g id="node2" class="node">
<title>Node2</title>
<g id="a_node2"><a xlink:href="_e_s_p32_base_station_8ino.html" target="_top" xlink:title="Main file for a base station to connect to remote sensors on a farm.">
<polygon fill="white" stroke="black" points="0,-0.5 0,-30.5 162,-30.5 162,-0.5 0,-0.5"/>
<text text-anchor="start" x="8" y="-18.5" font-family="Helvetica,sans-Serif" font-size="10.00">ESP32BaseStation/ESP32Base</text>
<text text-anchor="middle" x="81" y="-7.5" font-family="Helvetica,sans-Serif" font-size="10.00">Station.ino</text>
</a>
</g>
</g>
<!-- Node1&#45;&gt;Node2 -->
<g id="edge1" class="edge">
<title>Node1&#45;&gt;Node2</title>
<path fill="none" stroke="midnightblue" d="M149.83,-273.51C124.01,-266.5 97.23,-254.05 81,-232 35.19,-169.79 63.29,-67.72 75.86,-30.58"/>
<polygon fill="midnightblue" stroke="midnightblue" points="149.1,-276.94 159.65,-275.95 150.79,-270.14 149.1,-276.94"/>
</g>
<!-- Node3 -->
<g id="node3" class="node">
<title>Node3</title>
<g id="a_node3"><a xlink:href="lora_8h.html" target="_top" xlink:title="File that handles the LoRa radio and PJON.">
<polygon fill="white" stroke="black" points="90,-201.5 90,-231.5 212,-231.5 212,-201.5 90,-201.5"/>
<text text-anchor="start" x="98" y="-219.5" font-family="Helvetica,sans-Serif" font-size="10.00">ESP32BaseStation/src</text>
<text text-anchor="middle" x="151" y="-208.5" font-family="Helvetica,sans-Serif" font-size="10.00">/lora.h</text>
</a>
</g>
</g>
<!-- Node1&#45;&gt;Node3 -->
<g id="edge2" class="edge">
<title>Node1&#45;&gt;Node3</title>
<path fill="none" stroke="midnightblue" d="M198.18,-261.31C187.68,-251.56 175.51,-240.26 166.16,-231.58"/>
<polygon fill="midnightblue" stroke="midnightblue" points="196.1,-264.16 205.81,-268.4 200.86,-259.03 196.1,-264.16"/>
</g>
<!-- Node9 -->
<g id="node9" class="node">
<title>Node9</title>
<g id="a_node9"><a xlink:href="rpc_8cpp.html" target="_top" xlink:title="Handles RPC calls.">
<polygon fill="white" stroke="black" points="230,-201.5 230,-231.5 352,-231.5 352,-201.5 230,-201.5"/>
<text text-anchor="start" x="238" y="-219.5" font-family="Helvetica,sans-Serif" font-size="10.00">ESP32BaseStation/src</text>
<text text-anchor="middle" x="291" y="-208.5" font-family="Helvetica,sans-Serif" font-size="10.00">/rpc.cpp</text>
</a>
</g>
</g>
<!-- Node1&#45;&gt;Node9 -->
<g id="edge13" class="edge">
<title>Node1&#45;&gt;Node9</title>
<path fill="none" stroke="midnightblue" d="M243.82,-261.31C254.32,-251.56 266.49,-240.26 275.84,-231.58"/>
<polygon fill="midnightblue" stroke="midnightblue" points="241.14,-259.03 236.19,-268.4 245.9,-264.16 241.14,-259.03"/>
</g>
<!-- Node3&#45;&gt;Node2 -->
<g id="edge3" class="edge">
<title>Node3&#45;&gt;Node2</title>
<path fill="none" stroke="midnightblue" d="M123.56,-194.68C114.61,-186.43 105.55,-176.23 100,-165 77.78,-120.02 78.27,-58.46 79.85,-30.88"/>
<polygon fill="midnightblue" stroke="midnightblue" points="121.46,-197.49 131.31,-201.4 126.05,-192.2 121.46,-197.49"/>
</g>
<!-- Node4 -->
<g id="node4" class="node">
<title>Node4</title>
<g id="a_node4"><a xlink:href="lora_8cpp.html" target="_top" xlink:title="File that handles the LoRa radio and PJON.">
<polygon fill="white" stroke="black" points="109,-134.5 109,-164.5 231,-164.5 231,-134.5 109,-134.5"/>
<text text-anchor="start" x="117" y="-152.5" font-family="Helvetica,sans-Serif" font-size="10.00">ESP32BaseStation/src</text>
<text text-anchor="middle" x="170" y="-141.5" font-family="Helvetica,sans-Serif" font-size="10.00">/lora.cpp</text>
</a>
</g>
</g>
<!-- Node3&#45;&gt;Node4 -->
<g id="edge4" class="edge">
<title>Node3&#45;&gt;Node4</title>
<path fill="none" stroke="midnightblue" d="M157.96,-191.7C160.62,-182.59 163.57,-172.49 165.89,-164.58"/>
<polygon fill="midnightblue" stroke="midnightblue" points="154.57,-190.82 155.12,-201.4 161.29,-192.78 154.57,-190.82"/>
</g>
<!-- Node5 -->
<g id="node5" class="node">
<title>Node5</title>
<g id="a_node5"><a xlink:href="networking_8h.html" target="_top" xlink:title="Header file for networking.cpp.">
<polygon fill="white" stroke="black" points="249,-134.5 249,-164.5 371,-164.5 371,-134.5 249,-134.5"/>
<text text-anchor="start" x="257" y="-152.5" font-family="Helvetica,sans-Serif" font-size="10.00">ESP32BaseStation/src</text>
<text text-anchor="middle" x="310" y="-141.5" font-family="Helvetica,sans-Serif" font-size="10.00">/networking.h</text>
</a>
</g>
</g>
<!-- Node3&#45;&gt;Node5 -->
<g id="edge5" class="edge">
<title>Node3&#45;&gt;Node5</title>
<path fill="none" stroke="midnightblue" d="M189.14,-197.41C213.56,-187.03 245.1,-174.2 269.89,-164.58"/>
<polygon fill="midnightblue" stroke="midnightblue" points="187.64,-194.24 179.82,-201.4 190.39,-200.68 187.64,-194.24"/>
</g>
<!-- Node5&#45;&gt;Node1 -->
<g id="edge12" class="edge">
<title>Node5&#45;&gt;Node1</title>
<path fill="none" stroke="midnightblue" d="M337.53,-171.32C356.19,-188.03 375.1,-211.92 361,-232 343.1,-257.48 311.04,-270.16 282.11,-276.45"/>
<polygon fill="midnightblue" stroke="midnightblue" points="339.54,-168.44 329.65,-164.64 335.01,-173.77 339.54,-168.44"/>
</g>
<!-- Node5&#45;&gt;Node2 -->
<g id="edge6" class="edge">
<title>Node5&#45;&gt;Node2</title>
<path fill="none" stroke="midnightblue" d="M239.24,-131.59C213.73,-123.67 185.48,-112.67 162,-98 132.57,-79.6 105.72,-48.56 91.55,-30.57"/>
<polygon fill="midnightblue" stroke="midnightblue" points="238.28,-134.96 248.86,-134.48 240.29,-128.25 238.28,-134.96"/>
</g>
<!-- Node5&#45;&gt;Node3 -->
<g id="edge10" class="edge">
<title>Node5&#45;&gt;Node3</title>
<path fill="none" stroke="midnightblue" d="M271.93,-168.56C247.53,-178.94 215.99,-191.77 191.18,-201.4"/>
<polygon fill="midnightblue" stroke="midnightblue" points="273.43,-171.73 281.24,-164.58 270.67,-165.3 273.43,-171.73"/>
</g>
<!-- Node6 -->
<g id="node6" class="node">
<title>Node6</title>
<g id="a_node6"><a xlink:href="leds_8h.html" target="_top" xlink:title="Controls the LEDs on the unit.">
<polygon fill="white" stroke="black" points="171,-67.5 171,-97.5 293,-97.5 293,-67.5 171,-67.5"/>
<text text-anchor="start" x="179" y="-85.5" font-family="Helvetica,sans-Serif" font-size="10.00">ESP32BaseStation/src</text>
<text text-anchor="middle" x="232" y="-74.5" font-family="Helvetica,sans-Serif" font-size="10.00">/leds.h</text>
</a>
</g>
</g>
<!-- Node5&#45;&gt;Node6 -->
<g id="edge7" class="edge">
<title>Node5&#45;&gt;Node6</title>
<path fill="none" stroke="midnightblue" d="M285.26,-127.88C273.41,-118.01 259.52,-106.43 248.89,-97.58"/>
<polygon fill="midnightblue" stroke="midnightblue" points="283.15,-130.68 293.08,-134.4 287.63,-125.31 283.15,-130.68"/>
</g>
<!-- Node8 -->
<g id="node8" class="node">
<title>Node8</title>
<g id="a_node8"><a xlink:href="networking_8cpp.html" target="_top" xlink:title="File that handles connecting to WiFi and MQTT and staying connected.">
<polygon fill="white" stroke="black" points="311,-67.5 311,-97.5 433,-97.5 433,-67.5 311,-67.5"/>
<text text-anchor="start" x="319" y="-85.5" font-family="Helvetica,sans-Serif" font-size="10.00">ESP32BaseStation/src</text>
<text text-anchor="middle" x="372" y="-74.5" font-family="Helvetica,sans-Serif" font-size="10.00">/networking.cpp</text>
</a>
</g>
</g>
<!-- Node5&#45;&gt;Node8 -->
<g id="edge11" class="edge">
<title>Node5&#45;&gt;Node8</title>
<path fill="none" stroke="midnightblue" d="M330.48,-127.02C339.72,-117.34 350.37,-106.17 358.57,-97.58"/>
<polygon fill="midnightblue" stroke="midnightblue" points="327.82,-124.74 323.45,-134.4 332.89,-129.58 327.82,-124.74"/>
</g>
<!-- Node6&#45;&gt;Node2 -->
<g id="edge8" class="edge">
<title>Node6&#45;&gt;Node2</title>
<path fill="none" stroke="midnightblue" d="M189.97,-63.41C165.86,-53.03 136.05,-40.2 113.7,-30.58"/>
<polygon fill="midnightblue" stroke="midnightblue" points="188.67,-66.66 199.24,-67.4 191.43,-60.23 188.67,-66.66"/>
</g>
<!-- Node7 -->
<g id="node7" class="node">
<title>Node7</title>
<g id="a_node7"><a xlink:href="leds_8cpp.html" target="_top" xlink:title="Controls the LEDs on the unit.">
<polygon fill="white" stroke="black" points="180,-0.5 180,-30.5 302,-30.5 302,-0.5 180,-0.5"/>
<text text-anchor="start" x="188" y="-18.5" font-family="Helvetica,sans-Serif" font-size="10.00">ESP32BaseStation/src</text>
<text text-anchor="middle" x="241" y="-7.5" font-family="Helvetica,sans-Serif" font-size="10.00">/leds.cpp</text>
</a>
</g>
</g>
<!-- Node6&#45;&gt;Node7 -->
<g id="edge9" class="edge">
<title>Node6&#45;&gt;Node7</title>
<path fill="none" stroke="midnightblue" d="M235.34,-57.4C236.59,-48.37 237.97,-38.41 239.05,-30.58"/>
<polygon fill="midnightblue" stroke="midnightblue" points="231.86,-57.01 233.95,-67.4 238.79,-57.97 231.86,-57.01"/>
</g>
</g>
</svg>
