<?xml version="1.0" encoding="UTF-8" standalone="no"?>
<!DOCTYPE svg PUBLIC "-//W3C//DTD SVG 1.1//EN"
 "http://www.w3.org/Graphics/SVG/1.1/DTD/svg11.dtd">
<!-- Generated by graphviz version 2.43.0 (0)
 -->
<!-- Title: BaseStationCode/src/src/rpc.h Pages: 1 -->
<svg width="615pt" height="307pt"
 viewBox="0.00 0.00 614.65 307.00" xmlns="http://www.w3.org/2000/svg" xmlns:xlink="http://www.w3.org/1999/xlink">
<g id="graph0" class="graph" transform="scale(1 1) rotate(0) translate(4 303)">
<title>BaseStationCode/src/src/rpc.h</title>
<polygon fill="white" stroke="transparent" points="-4,4 -4,-303 610.65,-303 610.65,4 -4,4"/>
<!-- Node1 -->
<g id="node1" class="node">
<title>Node1</title>
<g id="a_node1"><a xlink:title="Handles RPC calls.">
<polygon fill="#bfbfbf" stroke="black" points="234.65,-268.5 234.65,-298.5 351.65,-298.5 351.65,-268.5 234.65,-268.5"/>
<text text-anchor="start" x="242.65" y="-286.5" font-family="Helvetica,sans-Serif" font-size="10.00">BaseStationCode/src</text>
<text text-anchor="middle" x="293.15" y="-275.5" font-family="Helvetica,sans-Serif" font-size="10.00">/src/rpc.h</text>
</a>
</g>
</g>
<!-- Node2 -->
<g id="node2" class="node">
<title>Node2</title>
<g id="a_node2"><a xlink:href="main_8cpp.html" target="_top" xlink:title=" ">
<polygon fill="white" stroke="black" points="94.65,-0.5 94.65,-30.5 211.65,-30.5 211.65,-0.5 94.65,-0.5"/>
<text text-anchor="start" x="102.65" y="-18.5" font-family="Helvetica,sans-Serif" font-size="10.00">BaseStationCode/src</text>
<text text-anchor="middle" x="153.15" y="-7.5" font-family="Helvetica,sans-Serif" font-size="10.00">/main.cpp</text>
</a>
</g>
</g>
<!-- Node1&#45;&gt;Node2 -->
<g id="edge1" class="edge">
<title>Node1&#45;&gt;Node2</title>
<path fill="none" stroke="midnightblue" d="M224.69,-276.6C155.76,-266.51 53.35,-239.15 8.15,-165 -26.92,-107.47 66.61,-54.75 119.58,-30.51"/>
<polygon fill="midnightblue" stroke="midnightblue" points="224.22,-280.07 234.61,-277.97 225.18,-273.14 224.22,-280.07"/>
</g>
<!-- Node3 -->
<g id="node3" class="node">
<title>Node3</title>
<g id="a_node3"><a xlink:href="lora_8h.html" target="_top" xlink:title="File that handles the LoRa radio and PJON.">
<polygon fill="white" stroke="black" points="147.65,-201.5 147.65,-231.5 264.65,-231.5 264.65,-201.5 147.65,-201.5"/>
<text text-anchor="start" x="155.65" y="-219.5" font-family="Helvetica,sans-Serif" font-size="10.00">BaseStationCode/src</text>
<text text-anchor="middle" x="206.15" y="-208.5" font-family="Helvetica,sans-Serif" font-size="10.00">/src/lora.h</text>
</a>
</g>
</g>
<!-- Node1&#45;&gt;Node3 -->
<g id="edge2" class="edge">
<title>Node1&#45;&gt;Node3</title>
<path fill="none" stroke="midnightblue" d="M265.94,-262.17C252.63,-252.23 236.95,-240.51 224.99,-231.58"/>
<polygon fill="midnightblue" stroke="midnightblue" points="264.17,-265.21 274.27,-268.4 268.36,-259.61 264.17,-265.21"/>
</g>
<!-- Node8 -->
<g id="node8" class="node">
<title>Node8</title>
<g id="a_node8"><a xlink:href="networking_8cpp.html" target="_top" xlink:title="File that handles connecting to WiFi and MQTT and staying connected.">
<polygon fill="white" stroke="black" points="489.65,-67.5 489.65,-97.5 606.65,-97.5 606.65,-67.5 489.65,-67.5"/>
<text text-anchor="start" x="497.65" y="-85.5" font-family="Helvetica,sans-Serif" font-size="10.00">BaseStationCode/src</text>
<text text-anchor="middle" x="548.15" y="-74.5" font-family="Helvetica,sans-Serif" font-size="10.00">/src/networking.cpp</text>
</a>
</g>
</g>
<!-- Node1&#45;&gt;Node8 -->
<g id="edge16" class="edge">
<title>Node1&#45;&gt;Node8</title>
<path fill="none" stroke="midnightblue" d="M312.86,-261.15C329.11,-244.06 353.15,-219.9 376.15,-201 426.31,-159.79 490.69,-118.6 524.69,-97.67"/>
<polygon fill="midnightblue" stroke="midnightblue" points="310.28,-258.79 305.98,-268.47 315.38,-263.59 310.28,-258.79"/>
</g>
<!-- Node11 -->
<g id="node11" class="node">
<title>Node11</title>
<g id="a_node11"><a xlink:href="rpc_8cpp.html" target="_top" xlink:title="Handles RPC calls.">
<polygon fill="white" stroke="black" points="384.65,-201.5 384.65,-231.5 501.65,-231.5 501.65,-201.5 384.65,-201.5"/>
<text text-anchor="start" x="392.65" y="-219.5" font-family="Helvetica,sans-Serif" font-size="10.00">BaseStationCode/src</text>
<text text-anchor="middle" x="443.15" y="-208.5" font-family="Helvetica,sans-Serif" font-size="10.00">/src/rpc.cpp</text>
</a>
</g>
</g>
<!-- Node1&#45;&gt;Node11 -->
<g id="edge17" class="edge">
<title>Node1&#45;&gt;Node11</title>
<path fill="none" stroke="midnightblue" d="M334.9,-264.41C358.85,-254.03 388.47,-241.2 410.67,-231.58"/>
<polygon fill="midnightblue" stroke="midnightblue" points="333.48,-261.21 325.7,-268.4 336.26,-267.63 333.48,-261.21"/>
</g>
<!-- Node3&#45;&gt;Node2 -->
<g id="edge3" class="edge">
<title>Node3&#45;&gt;Node2</title>
<path fill="none" stroke="midnightblue" d="M199.7,-191.27C188.52,-149.29 165.89,-64.33 156.93,-30.68"/>
<polygon fill="midnightblue" stroke="midnightblue" points="196.38,-192.43 202.34,-201.19 203.15,-190.62 196.38,-192.43"/>
</g>
<!-- Node4 -->
<g id="node4" class="node">
<title>Node4</title>
<g id="a_node4"><a xlink:href="lora_8cpp.html" target="_top" xlink:title="File that handles the LoRa radio and PJON.">
<polygon fill="white" stroke="black" points="17.65,-134.5 17.65,-164.5 134.65,-164.5 134.65,-134.5 17.65,-134.5"/>
<text text-anchor="start" x="25.65" y="-152.5" font-family="Helvetica,sans-Serif" font-size="10.00">BaseStationCode/src</text>
<text text-anchor="middle" x="76.15" y="-141.5" font-family="Helvetica,sans-Serif" font-size="10.00">/src/lora.cpp</text>
</a>
</g>
</g>
<!-- Node3&#45;&gt;Node4 -->
<g id="edge4" class="edge">
<title>Node3&#45;&gt;Node4</title>
<path fill="none" stroke="midnightblue" d="M168.86,-196.85C148.3,-186.58 123.2,-174.03 104.3,-164.58"/>
<polygon fill="midnightblue" stroke="midnightblue" points="167.43,-200.05 177.94,-201.4 170.56,-193.79 167.43,-200.05"/>
</g>
<!-- Node5 -->
<g id="node5" class="node">
<title>Node5</title>
<g id="a_node5"><a xlink:href="networking_8h.html" target="_top" xlink:title="Header file for networking.cpp.">
<polygon fill="white" stroke="black" points="210.65,-134.5 210.65,-164.5 327.65,-164.5 327.65,-134.5 210.65,-134.5"/>
<text text-anchor="start" x="218.65" y="-152.5" font-family="Helvetica,sans-Serif" font-size="10.00">BaseStationCode/src</text>
<text text-anchor="middle" x="269.15" y="-141.5" font-family="Helvetica,sans-Serif" font-size="10.00">/src/networking.h</text>
</a>
</g>
</g>
<!-- Node3&#45;&gt;Node5 -->
<g id="edge5" class="edge">
<title>Node3&#45;&gt;Node5</title>
<path fill="none" stroke="midnightblue" d="M220.83,-193.74C229.53,-184.12 240.46,-173.09 249.83,-164.58"/>
<polygon fill="midnightblue" stroke="midnightblue" points="218.08,-191.56 214.14,-201.4 223.36,-196.17 218.08,-191.56"/>
</g>
<!-- Node5&#45;&gt;Node1 -->
<g id="edge15" class="edge">
<title>Node5&#45;&gt;Node1</title>
<path fill="none" stroke="midnightblue" d="M273.51,-174.49C278.5,-201.92 286.5,-245.94 290.58,-268.37"/>
<polygon fill="midnightblue" stroke="midnightblue" points="276.93,-173.74 271.7,-164.52 270.05,-174.99 276.93,-173.74"/>
</g>
<!-- Node5&#45;&gt;Node2 -->
<g id="edge6" class="edge">
<title>Node5&#45;&gt;Node2</title>
<path fill="none" stroke="midnightblue" d="M242.16,-127.84C231.63,-119.17 219.8,-108.64 210.15,-98 190.43,-76.26 171.77,-47.45 161.45,-30.55"/>
<polygon fill="midnightblue" stroke="midnightblue" points="240.28,-130.81 250.26,-134.36 244.67,-125.36 240.28,-130.81"/>
</g>
<!-- Node5&#45;&gt;Node3 -->
<g id="edge10" class="edge">
<title>Node5&#45;&gt;Node3</title>
<path fill="none" stroke="midnightblue" d="M254.5,-172.23C245.81,-181.85 234.87,-192.88 225.5,-201.4"/>
<polygon fill="midnightblue" stroke="midnightblue" points="257.24,-174.41 261.18,-164.58 251.97,-169.81 257.24,-174.41"/>
</g>
<!-- Node6 -->
<g id="node6" class="node">
<title>Node6</title>
<g id="a_node6"><a xlink:href="leds_8h.html" target="_top" xlink:title="Controls the LEDs on the unit.">
<polygon fill="white" stroke="black" points="219.65,-67.5 219.65,-97.5 336.65,-97.5 336.65,-67.5 219.65,-67.5"/>
<text text-anchor="start" x="227.65" y="-85.5" font-family="Helvetica,sans-Serif" font-size="10.00">BaseStationCode/src</text>
<text text-anchor="middle" x="278.15" y="-74.5" font-family="Helvetica,sans-Serif" font-size="10.00">/src/leds.h</text>
</a>
</g>
</g>
<!-- Node5&#45;&gt;Node6 -->
<g id="edge7" class="edge">
<title>Node5&#45;&gt;Node6</title>
<path fill="none" stroke="midnightblue" d="M272.49,-124.4C273.74,-115.37 275.12,-105.41 276.2,-97.58"/>
<polygon fill="midnightblue" stroke="midnightblue" points="269.01,-124.01 271.1,-134.4 275.94,-124.97 269.01,-124.01"/>
</g>
<!-- Node5&#45;&gt;Node8 -->
<g id="edge11" class="edge">
<title>Node5&#45;&gt;Node8</title>
<path fill="none" stroke="midnightblue" d="M337.97,-132.47C384.46,-121.64 445.19,-107.49 489.4,-97.19"/>
<polygon fill="midnightblue" stroke="midnightblue" points="336.92,-129.12 327.98,-134.79 338.51,-135.93 336.92,-129.12"/>
</g>
<!-- Node9 -->
<g id="node9" class="node">
<title>Node9</title>
<g id="a_node9"><a xlink:href="ota_8h.html" target="_top" xlink:title="Handles over the air (OTA) updates.">
<polygon fill="white" stroke="black" points="354.65,-67.5 354.65,-97.5 471.65,-97.5 471.65,-67.5 354.65,-67.5"/>
<text text-anchor="start" x="362.65" y="-85.5" font-family="Helvetica,sans-Serif" font-size="10.00">BaseStationCode/src</text>
<text text-anchor="middle" x="413.15" y="-74.5" font-family="Helvetica,sans-Serif" font-size="10.00">/src/ota.h</text>
</a>
</g>
</g>
<!-- Node5&#45;&gt;Node9 -->
<g id="edge12" class="edge">
<title>Node5&#45;&gt;Node9</title>
<path fill="none" stroke="midnightblue" d="M309.54,-130.27C332.47,-119.92 360.75,-107.15 381.97,-97.58"/>
<polygon fill="midnightblue" stroke="midnightblue" points="308.07,-127.09 300.4,-134.4 310.95,-133.47 308.07,-127.09"/>
</g>
<!-- Node6&#45;&gt;Node2 -->
<g id="edge8" class="edge">
<title>Node6&#45;&gt;Node2</title>
<path fill="none" stroke="midnightblue" d="M242.02,-62.71C222.31,-52.46 198.31,-39.98 180.22,-30.58"/>
<polygon fill="midnightblue" stroke="midnightblue" points="240.54,-65.89 251.03,-67.4 243.77,-59.68 240.54,-65.89"/>
</g>
<!-- Node7 -->
<g id="node7" class="node">
<title>Node7</title>
<g id="a_node7"><a xlink:href="leds_8cpp.html" target="_top" xlink:title="Controls the LEDs on the unit.">
<polygon fill="white" stroke="black" points="229.65,-0.5 229.65,-30.5 346.65,-30.5 346.65,-0.5 229.65,-0.5"/>
<text text-anchor="start" x="237.65" y="-18.5" font-family="Helvetica,sans-Serif" font-size="10.00">BaseStationCode/src</text>
<text text-anchor="middle" x="288.15" y="-7.5" font-family="Helvetica,sans-Serif" font-size="10.00">/src/leds.cpp</text>
</a>
</g>
</g>
<!-- Node6&#45;&gt;Node7 -->
<g id="edge9" class="edge">
<title>Node6&#45;&gt;Node7</title>
<path fill="none" stroke="midnightblue" d="M281.86,-57.4C283.25,-48.37 284.78,-38.41 285.98,-30.58"/>
<polygon fill="midnightblue" stroke="midnightblue" points="278.38,-56.98 280.32,-67.4 285.3,-58.04 278.38,-56.98"/>
</g>
<!-- Node9&#45;&gt;Node2 -->
<g id="edge13" class="edge">
<title>Node9&#45;&gt;Node2</title>
<path fill="none" stroke="midnightblue" d="M347.09,-64.98C304.62,-54.37 250.03,-40.72 209.59,-30.61"/>
<polygon fill="midnightblue" stroke="midnightblue" points="346.5,-68.45 357.05,-67.48 348.2,-61.66 346.5,-68.45"/>
</g>
<!-- Node10 -->
<g id="node10" class="node">
<title>Node10</title>
<g id="a_node10"><a xlink:href="ota_8cpp.html" target="_top" xlink:title="Handles over the air (OTA) updates.">
<polygon fill="white" stroke="black" points="364.65,-0.5 364.65,-30.5 481.65,-30.5 481.65,-0.5 364.65,-0.5"/>
<text text-anchor="start" x="372.65" y="-18.5" font-family="Helvetica,sans-Serif" font-size="10.00">BaseStationCode/src</text>
<text text-anchor="middle" x="423.15" y="-7.5" font-family="Helvetica,sans-Serif" font-size="10.00">/src/ota.cpp</text>
</a>
</g>
</g>
<!-- Node9&#45;&gt;Node10 -->
<g id="edge14" class="edge">
<title>Node9&#45;&gt;Node10</title>
<path fill="none" stroke="midnightblue" d="M416.86,-57.4C418.25,-48.37 419.78,-38.41 420.98,-30.58"/>
<polygon fill="midnightblue" stroke="midnightblue" points="413.38,-56.98 415.32,-67.4 420.3,-58.04 413.38,-56.98"/>
</g>
</g>
</svg>
