<?xml version="1.0" encoding="UTF-8" standalone="no"?>
<!DOCTYPE svg PUBLIC "-//W3C//DTD SVG 1.1//EN"
 "http://www.w3.org/Graphics/SVG/1.1/DTD/svg11.dtd">
<!-- Generated by graphviz version 2.43.0 (0)
 -->
<!-- Title: BaseStationCode/src/src/rpc.h Pages: 1 -->
<svg width="482pt" height="307pt"
 viewBox="0.00 0.00 482.00 307.00" xmlns="http://www.w3.org/2000/svg" xmlns:xlink="http://www.w3.org/1999/xlink">
<g id="graph0" class="graph" transform="scale(1 1) rotate(0) translate(4 303)">
<title>BaseStationCode/src/src/rpc.h</title>
<polygon fill="white" stroke="transparent" points="-4,4 -4,-303 478,-303 478,4 -4,4"/>
<!-- Node1 -->
<g id="node1" class="node">
<title>Node1</title>
<g id="a_node1"><a xlink:title="Handles RPC calls.">
<polygon fill="#bfbfbf" stroke="black" points="116,-268.5 116,-298.5 233,-298.5 233,-268.5 116,-268.5"/>
<text text-anchor="start" x="124" y="-286.5" font-family="Helvetica,sans-Serif" font-size="10.00">BaseStationCode/src</text>
<text text-anchor="middle" x="174.5" y="-275.5" font-family="Helvetica,sans-Serif" font-size="10.00">/src/rpc.h</text>
</a>
</g>
</g>
<!-- Node2 -->
<g id="node2" class="node">
<title>Node2</title>
<g id="a_node2"><a xlink:href="main_8cpp.html" target="_top" xlink:title=" ">
<polygon fill="white" stroke="black" points="0,-0.5 0,-30.5 117,-30.5 117,-0.5 0,-0.5"/>
<text text-anchor="start" x="8" y="-18.5" font-family="Helvetica,sans-Serif" font-size="10.00">BaseStationCode/src</text>
<text text-anchor="middle" x="58.5" y="-7.5" font-family="Helvetica,sans-Serif" font-size="10.00">/main.cpp</text>
</a>
</g>
</g>
<!-- Node1&#45;&gt;Node2 -->
<g id="edge1" class="edge">
<title>Node1&#45;&gt;Node2</title>
<path fill="none" stroke="midnightblue" d="M117.8,-264.73C98.99,-256.86 78.93,-246.12 63.5,-232 38.24,-208.89 34.23,-198.1 25.5,-165 21.89,-151.31 20.23,-88.02 26.5,-67 30.48,-53.67 39.06,-40.46 46.33,-30.89"/>
<polygon fill="midnightblue" stroke="midnightblue" points="116.61,-268.03 127.2,-268.48 119.21,-261.52 116.61,-268.03"/>
</g>
<!-- Node3 -->
<g id="node3" class="node">
<title>Node3</title>
<g id="a_node3"><a xlink:href="lora_8h.html" target="_top" xlink:title="File that handles the LoRa radio and PJON.">
<polygon fill="white" stroke="black" points="73,-201.5 73,-231.5 190,-231.5 190,-201.5 73,-201.5"/>
<text text-anchor="start" x="81" y="-219.5" font-family="Helvetica,sans-Serif" font-size="10.00">BaseStationCode/src</text>
<text text-anchor="middle" x="131.5" y="-208.5" font-family="Helvetica,sans-Serif" font-size="10.00">/src/lora.h</text>
</a>
</g>
</g>
<!-- Node1&#45;&gt;Node3 -->
<g id="edge2" class="edge">
<title>Node1&#45;&gt;Node3</title>
<path fill="none" stroke="midnightblue" d="M159.53,-259.87C153.3,-250.46 146.27,-239.83 140.81,-231.58"/>
<polygon fill="midnightblue" stroke="midnightblue" points="156.73,-261.99 165.17,-268.4 162.57,-258.12 156.73,-261.99"/>
</g>
<!-- Node11 -->
<g id="node11" class="node">
<title>Node11</title>
<g id="a_node11"><a xlink:href="rpc_8cpp.html" target="_top" xlink:title="Handles RPC calls.">
<polygon fill="white" stroke="black" points="247,-201.5 247,-231.5 364,-231.5 364,-201.5 247,-201.5"/>
<text text-anchor="start" x="255" y="-219.5" font-family="Helvetica,sans-Serif" font-size="10.00">BaseStationCode/src</text>
<text text-anchor="middle" x="305.5" y="-208.5" font-family="Helvetica,sans-Serif" font-size="10.00">/src/rpc.cpp</text>
</a>
</g>
</g>
<!-- Node1&#45;&gt;Node11 -->
<g id="edge16" class="edge">
<title>Node1&#45;&gt;Node11</title>
<path fill="none" stroke="midnightblue" d="M212.08,-263.85C232.79,-253.58 258.09,-241.03 277.13,-231.58"/>
<polygon fill="midnightblue" stroke="midnightblue" points="210.33,-260.82 202.93,-268.4 213.44,-267.09 210.33,-260.82"/>
</g>
<!-- Node3&#45;&gt;Node2 -->
<g id="edge3" class="edge">
<title>Node3&#45;&gt;Node2</title>
<path fill="none" stroke="midnightblue" d="M75.48,-196.78C61.27,-189.22 47.72,-178.89 39.5,-165 13.82,-121.61 37.97,-58.7 51.18,-30.78"/>
<polygon fill="midnightblue" stroke="midnightblue" points="74.33,-200.12 84.86,-201.36 77.41,-193.83 74.33,-200.12"/>
</g>
<!-- Node4 -->
<g id="node4" class="node">
<title>Node4</title>
<g id="a_node4"><a xlink:href="lora_8cpp.html" target="_top" xlink:title="File that handles the LoRa radio and PJON.">
<polygon fill="white" stroke="black" points="49,-134.5 49,-164.5 166,-164.5 166,-134.5 49,-134.5"/>
<text text-anchor="start" x="57" y="-152.5" font-family="Helvetica,sans-Serif" font-size="10.00">BaseStationCode/src</text>
<text text-anchor="middle" x="107.5" y="-141.5" font-family="Helvetica,sans-Serif" font-size="10.00">/src/lora.cpp</text>
</a>
</g>
</g>
<!-- Node3&#45;&gt;Node4 -->
<g id="edge4" class="edge">
<title>Node3&#45;&gt;Node4</title>
<path fill="none" stroke="midnightblue" d="M122.82,-191.99C119.43,-182.8 115.65,-172.58 112.7,-164.58"/>
<polygon fill="midnightblue" stroke="midnightblue" points="119.55,-193.23 126.29,-201.4 126.11,-190.8 119.55,-193.23"/>
</g>
<!-- Node5 -->
<g id="node5" class="node">
<title>Node5</title>
<g id="a_node5"><a xlink:href="networking_8h.html" target="_top" xlink:title="Header file for networking.cpp.">
<polygon fill="white" stroke="black" points="184,-134.5 184,-164.5 301,-164.5 301,-134.5 184,-134.5"/>
<text text-anchor="start" x="192" y="-152.5" font-family="Helvetica,sans-Serif" font-size="10.00">BaseStationCode/src</text>
<text text-anchor="middle" x="242.5" y="-141.5" font-family="Helvetica,sans-Serif" font-size="10.00">/src/networking.h</text>
</a>
</g>
</g>
<!-- Node3&#45;&gt;Node5 -->
<g id="edge5" class="edge">
<title>Node3&#45;&gt;Node5</title>
<path fill="none" stroke="midnightblue" d="M158.53,-196.02C174.97,-185.9 195.88,-173.77 212.79,-164.58"/>
<polygon fill="midnightblue" stroke="midnightblue" points="156.54,-193.13 149.91,-201.4 160.24,-199.07 156.54,-193.13"/>
</g>
<!-- Node5&#45;&gt;Node1 -->
<g id="edge15" class="edge">
<title>Node5&#45;&gt;Node1</title>
<path fill="none" stroke="midnightblue" d="M230.52,-173.76C216.41,-201.14 193.43,-245.75 181.78,-268.37"/>
<polygon fill="midnightblue" stroke="midnightblue" points="233.81,-175.02 235.28,-164.52 227.58,-171.81 233.81,-175.02"/>
</g>
<!-- Node5&#45;&gt;Node2 -->
<g id="edge6" class="edge">
<title>Node5&#45;&gt;Node2</title>
<path fill="none" stroke="midnightblue" d="M176.9,-131.76C134.04,-120.26 84.71,-105.72 77.5,-98 60.24,-79.53 57.67,-48.51 57.79,-30.54"/>
<polygon fill="midnightblue" stroke="midnightblue" points="176.22,-135.2 186.78,-134.39 178.02,-128.43 176.22,-135.2"/>
</g>
<!-- Node5&#45;&gt;Node3 -->
<g id="edge10" class="edge">
<title>Node5&#45;&gt;Node3</title>
<path fill="none" stroke="midnightblue" d="M215.52,-169.95C199.08,-180.07 178.18,-192.2 161.26,-201.4"/>
<polygon fill="midnightblue" stroke="midnightblue" points="217.51,-172.84 224.14,-164.58 213.8,-166.9 217.51,-172.84"/>
</g>
<!-- Node6 -->
<g id="node6" class="node">
<title>Node6</title>
<g id="a_node6"><a xlink:href="leds_8h.html" target="_top" xlink:title="Controls the LEDs on the unit.">
<polygon fill="white" stroke="black" points="222,-67.5 222,-97.5 339,-97.5 339,-67.5 222,-67.5"/>
<text text-anchor="start" x="230" y="-85.5" font-family="Helvetica,sans-Serif" font-size="10.00">BaseStationCode/src</text>
<text text-anchor="middle" x="280.5" y="-74.5" font-family="Helvetica,sans-Serif" font-size="10.00">/src/leds.h</text>
</a>
</g>
</g>
<!-- Node5&#45;&gt;Node6 -->
<g id="edge7" class="edge">
<title>Node5&#45;&gt;Node6</title>
<path fill="none" stroke="midnightblue" d="M255.9,-125.58C261.36,-116.24 267.49,-105.75 272.27,-97.58"/>
<polygon fill="midnightblue" stroke="midnightblue" points="252.77,-124 250.75,-134.4 258.81,-127.53 252.77,-124"/>
</g>
<!-- Node8 -->
<g id="node8" class="node">
<title>Node8</title>
<g id="a_node8"><a xlink:href="networking_8cpp.html" target="_top" xlink:title="File that handles connecting to WiFi and MQTT and staying connected.">
<polygon fill="white" stroke="black" points="87,-67.5 87,-97.5 204,-97.5 204,-67.5 87,-67.5"/>
<text text-anchor="start" x="95" y="-85.5" font-family="Helvetica,sans-Serif" font-size="10.00">BaseStationCode/src</text>
<text text-anchor="middle" x="145.5" y="-74.5" font-family="Helvetica,sans-Serif" font-size="10.00">/src/networking.cpp</text>
</a>
</g>
</g>
<!-- Node5&#45;&gt;Node8 -->
<g id="edge11" class="edge">
<title>Node5&#45;&gt;Node8</title>
<path fill="none" stroke="midnightblue" d="M213,-128.73C197.99,-118.68 180.1,-106.68 166.51,-97.58"/>
<polygon fill="midnightblue" stroke="midnightblue" points="211.2,-131.74 221.45,-134.4 215.09,-125.92 211.2,-131.74"/>
</g>
<!-- Node9 -->
<g id="node9" class="node">
<title>Node9</title>
<g id="a_node9"><a xlink:href="ota_8h.html" target="_top" xlink:title="Handles over the air (OTA) updates.">
<polygon fill="white" stroke="black" points="357,-67.5 357,-97.5 474,-97.5 474,-67.5 357,-67.5"/>
<text text-anchor="start" x="365" y="-85.5" font-family="Helvetica,sans-Serif" font-size="10.00">BaseStationCode/src</text>
<text text-anchor="middle" x="415.5" y="-74.5" font-family="Helvetica,sans-Serif" font-size="10.00">/src/ota.h</text>
</a>
</g>
</g>
<!-- Node5&#45;&gt;Node9 -->
<g id="edge12" class="edge">
<title>Node5&#45;&gt;Node9</title>
<path fill="none" stroke="midnightblue" d="M289.56,-130.82C317.37,-120.37 352.09,-107.32 378.03,-97.58"/>
<polygon fill="midnightblue" stroke="midnightblue" points="288.17,-127.6 280.04,-134.4 290.63,-134.16 288.17,-127.6"/>
</g>
<!-- Node6&#45;&gt;Node2 -->
<g id="edge8" class="edge">
<title>Node6&#45;&gt;Node2</title>
<path fill="none" stroke="midnightblue" d="M222.71,-64.58C186.65,-54.02 140.78,-40.59 106.69,-30.61"/>
<polygon fill="midnightblue" stroke="midnightblue" points="222.02,-68.02 232.6,-67.48 223.99,-61.31 222.02,-68.02"/>
</g>
<!-- Node7 -->
<g id="node7" class="node">
<title>Node7</title>
<g id="a_node7"><a xlink:href="leds_8cpp.html" target="_top" xlink:title="Controls the LEDs on the unit.">
<polygon fill="white" stroke="black" points="222,-0.5 222,-30.5 339,-30.5 339,-0.5 222,-0.5"/>
<text text-anchor="start" x="230" y="-18.5" font-family="Helvetica,sans-Serif" font-size="10.00">BaseStationCode/src</text>
<text text-anchor="middle" x="280.5" y="-7.5" font-family="Helvetica,sans-Serif" font-size="10.00">/src/leds.cpp</text>
</a>
</g>
</g>
<!-- Node6&#45;&gt;Node7 -->
<g id="edge9" class="edge">
<title>Node6&#45;&gt;Node7</title>
<path fill="none" stroke="midnightblue" d="M280.5,-57.11C280.5,-48.15 280.5,-38.32 280.5,-30.58"/>
<polygon fill="midnightblue" stroke="midnightblue" points="277,-57.4 280.5,-67.4 284,-57.4 277,-57.4"/>
</g>
<!-- Node9&#45;&gt;Node2 -->
<g id="edge13" class="edge">
<title>Node9&#45;&gt;Node2</title>
<path fill="none" stroke="midnightblue" d="M346.88,-66.72C261.79,-50.25 173.73,-35.31 117.23,-26.01"/>
<polygon fill="midnightblue" stroke="midnightblue" points="346.22,-70.16 356.7,-68.63 347.55,-63.29 346.22,-70.16"/>
</g>
<!-- Node10 -->
<g id="node10" class="node">
<title>Node10</title>
<g id="a_node10"><a xlink:href="ota_8cpp.html" target="_top" xlink:title="Handles over the air (OTA) updates.">
<polygon fill="white" stroke="black" points="357,-0.5 357,-30.5 474,-30.5 474,-0.5 357,-0.5"/>
<text text-anchor="start" x="365" y="-18.5" font-family="Helvetica,sans-Serif" font-size="10.00">BaseStationCode/src</text>
<text text-anchor="middle" x="415.5" y="-7.5" font-family="Helvetica,sans-Serif" font-size="10.00">/src/ota.cpp</text>
</a>
</g>
</g>
<!-- Node9&#45;&gt;Node10 -->
<g id="edge14" class="edge">
<title>Node9&#45;&gt;Node10</title>
<path fill="none" stroke="midnightblue" d="M415.5,-57.11C415.5,-48.15 415.5,-38.32 415.5,-30.58"/>
<polygon fill="midnightblue" stroke="midnightblue" points="412,-57.4 415.5,-67.4 419,-57.4 412,-57.4"/>
</g>
</g>
</svg>
