<?xml version="1.0" encoding="UTF-8" standalone="no"?>
<!DOCTYPE svg PUBLIC "-//W3C//DTD SVG 1.1//EN"
 "http://www.w3.org/Graphics/SVG/1.1/DTD/svg11.dtd">
<!-- Generated by graphviz version 2.43.0 (0)
 -->
<!-- Title: BaseStationCode/src/src/rpc.h Pages: 1 -->
<!--zoomable 431 -->
<svg id="main" version="1.1" xmlns="http://www.w3.org/2000/svg" xmlns:xlink="http://www.w3.org/1999/xlink" xml:space="preserve" onload="init(evt)">
<style type="text/css"><![CDATA[
.edge:hover path { stroke: red; }
.edge:hover polygon { stroke: red; fill: red; }
]]></style>
<script type="text/javascript"><![CDATA[
var edges = document.getElementsByTagName('g');
if (edges && edges.length) {
  for (var i=0;i<edges.length;i++) {
    if (edges[i].id.substr(0,4)=='edge') {
      edges[i].setAttribute('class','edge');
    }
  }
}
]]></script>
        <defs>
                <circle id="rim" cx="0" cy="0" r="7"/>
                <circle id="rim2" cx="0" cy="0" r="3.5"/>
                <g id="zoomPlus">
                        <use xlink:href="#rim" fill="#404040">
                                <set attributeName="fill" to="#808080" begin="zoomplus.mouseover" end="zoomplus.mouseout"/>
                        </use>
                        <path d="M-4,0h8M0,-4v8" fill="none" stroke="white" stroke-width="1.5" pointer-events="none"/>
                </g>
                <g id="zoomMin">
                        <use xlink:href="#rim" fill="#404040">
                                <set attributeName="fill" to="#808080" begin="zoomminus.mouseover" end="zoomminus.mouseout"/>
                        </use>
                        <path d="M-4,0h8" fill="none" stroke="white" stroke-width="1.5" pointer-events="none"/>
                </g>
                <g id="dirArrow">
                        <path fill="none" stroke="white" stroke-width="1.5" d="M0,-3.0v7 M-2.5,-0.5L0,-3.0L2.5,-0.5"/>
                </g>
               <g id="resetDef">
                       <use xlink:href="#rim2" fill="#404040">
                               <set attributeName="fill" to="#808080" begin="reset.mouseover" end="reset.mouseout"/>
                       </use>
               </g>
        </defs>

<script type="text/javascript">
var viewWidth = 598;
var viewHeight = 431;
var sectionId = 'dynsection-0';
</script>
<script xlink:href="svgpan.js"/>
<svg id="graph" class="graph">
<g id="viewport">
<title>BaseStationCode/src/src/rpc.h</title>
<polygon fill="white" stroke="transparent" points="-4,4 -4,-427 594,-427 594,4 -4,4"/>
<!-- Node1 -->
<g id="node1" class="node">
<title>Node1</title>
<g id="a_node1"><a xlink:title="Handles RPC calls.">
<polygon fill="#bfbfbf" stroke="black" points="152.5,-392.5 152.5,-422.5 269.5,-422.5 269.5,-392.5 152.5,-392.5"/>
<text text-anchor="start" x="160.5" y="-410.5" font-family="Helvetica,sans-Serif" font-size="10.00">BaseStationCode/src</text>
<text text-anchor="middle" x="211" y="-399.5" font-family="Helvetica,sans-Serif" font-size="10.00">/src/rpc.h</text>
</a>
</g>
</g>
<!-- Node2 -->
<g id="node2" class="node">
<title>Node2</title>
<g id="a_node2"><a xlink:href="defines_8h.html" target="_top" xlink:title="Definitions and other preprocessor and global stuff.">
<polygon fill="white" stroke="black" points="263,-56.5 263,-75.5 333,-75.5 333,-56.5 263,-56.5"/>
<text text-anchor="middle" x="298" y="-63.5" font-family="Helvetica,sans-Serif" font-size="10.00">../defines.h</text>
</a>
</g>
</g>
<!-- Node1&#45;&gt;Node2 -->
<g id="edge1" class="edge">
<title>Node1&#45;&gt;Node2</title>
<path fill="none" stroke="midnightblue" d="M269.58,-402.92C339.77,-395.09 448,-370.19 448,-291 448,-291 448,-291 448,-177 448,-123.71 385.67,-93.41 341.37,-78.61"/>
<polygon fill="midnightblue" stroke="midnightblue" points="342.25,-75.22 331.66,-75.52 340.13,-81.89 342.25,-75.22"/>
</g>
<!-- Node8 -->
<g id="node8" class="node">
<title>Node8</title>
<g id="a_node8"><a xlink:href="topics_8h.html" target="_top" xlink:title="MQTT topics for a thingsboard gateway.">
<polygon fill="white" stroke="black" points="0,-0.5 0,-19.5 72,-19.5 72,-0.5 0,-0.5"/>
<text text-anchor="middle" x="36" y="-7.5" font-family="Helvetica,sans-Serif" font-size="10.00">src/topics.h</text>
</a>
</g>
</g>
<!-- Node1&#45;&gt;Node8 -->
<g id="edge8" class="edge">
<title>Node1&#45;&gt;Node8</title>
<path fill="none" stroke="midnightblue" d="M152.24,-393.54C101.4,-378.45 36,-347.97 36,-291 36,-291 36,-291 36,-121 36,-88.95 36,-51.64 36,-29.75"/>
<polygon fill="midnightblue" stroke="midnightblue" points="39.5,-29.56 36,-19.56 32.5,-29.56 39.5,-29.56"/>
</g>
<!-- Node9 -->
<g id="node9" class="node">
<title>Node9</title>
<g id="a_node9"><a xlink:href="alarm_8h.html" target="_top" xlink:title="Handles alarms.">
<polygon fill="white" stroke="black" points="77,-280.5 77,-299.5 131,-299.5 131,-280.5 77,-280.5"/>
<text text-anchor="middle" x="104" y="-287.5" font-family="Helvetica,sans-Serif" font-size="10.00">alarm.h</text>
</a>
</g>
</g>
<!-- Node1&#45;&gt;Node9 -->
<g id="edge9" class="edge">
<title>Node1&#45;&gt;Node9</title>
<path fill="none" stroke="midnightblue" d="M195.6,-392.29C185.04,-382.38 170.85,-368.69 159,-356 144.1,-340.05 128.09,-320.87 117.21,-307.5"/>
<polygon fill="midnightblue" stroke="midnightblue" points="119.87,-305.22 110.86,-299.64 114.42,-309.62 119.87,-305.22"/>
</g>
<!-- Node10 -->
<g id="node10" class="node">
<title>Node10</title>
<g id="a_node10"><a xlink:href="devices_8h.html" target="_top" xlink:title="Devices and manager for all known devices the base station connects to.">
<polygon fill="white" stroke="black" points="204.5,-224.5 204.5,-243.5 267.5,-243.5 267.5,-224.5 204.5,-224.5"/>
<text text-anchor="middle" x="236" y="-231.5" font-family="Helvetica,sans-Serif" font-size="10.00">devices.h</text>
</a>
</g>
</g>
<!-- Node1&#45;&gt;Node10 -->
<g id="edge11" class="edge">
<title>Node1&#45;&gt;Node10</title>
<path fill="none" stroke="midnightblue" d="M213.05,-392.47C217.53,-361.7 228.23,-288.33 233.27,-253.7"/>
<polygon fill="midnightblue" stroke="midnightblue" points="236.77,-253.96 234.75,-243.56 229.85,-252.95 236.77,-253.96"/>
</g>
<!-- Node12 -->
<g id="node12" class="node">
<title>Node12</title>
<g id="a_node12"><a xlink:href="fields_8h.html" target="_top" xlink:title="Contains fields classes.">
<polygon fill="white" stroke="black" points="178,-168.5 178,-187.5 230,-187.5 230,-168.5 178,-168.5"/>
<text text-anchor="middle" x="204" y="-175.5" font-family="Helvetica,sans-Serif" font-size="10.00">fields.h</text>
</a>
</g>
</g>
<!-- Node1&#45;&gt;Node12 -->
<g id="edge20" class="edge">
<title>Node1&#45;&gt;Node12</title>
<path fill="none" stroke="midnightblue" d="M207.95,-392.29C201.76,-361.57 188.79,-286.67 195,-224 195.87,-215.17 197.69,-205.51 199.47,-197.4"/>
<polygon fill="midnightblue" stroke="midnightblue" points="202.9,-198.08 201.77,-187.55 196.08,-196.49 202.9,-198.08"/>
</g>
<!-- Node14 -->
<g id="node14" class="node">
<title>Node14</title>
<g id="a_node14"><a xlink:href="networking_8h.html" target="_top" xlink:title="Header file for networking.cpp.">
<polygon fill="white" stroke="black" points="239,-336.5 239,-355.5 319,-355.5 319,-336.5 239,-336.5"/>
<text text-anchor="middle" x="279" y="-343.5" font-family="Helvetica,sans-Serif" font-size="10.00">networking.h</text>
</a>
</g>
</g>
<!-- Node1&#45;&gt;Node14 -->
<g id="edge21" class="edge">
<title>Node1&#45;&gt;Node14</title>
<path fill="none" stroke="midnightblue" d="M227.12,-392.4C237.4,-383.4 250.75,-371.72 261.33,-362.47"/>
<polygon fill="midnightblue" stroke="midnightblue" points="263.88,-364.88 269.11,-355.66 259.27,-359.61 263.88,-364.88"/>
</g>
<!-- Node3 -->
<g id="node3" class="node">
<title>Node3</title>
<g id="a_node3"><a xlink:title=" ">
<polygon fill="white" stroke="#bfbfbf" points="510,-0.5 510,-19.5 590,-19.5 590,-0.5 510,-0.5"/>
<text text-anchor="middle" x="550" y="-7.5" font-family="Helvetica,sans-Serif" font-size="10.00">credentials.h</text>
</a>
</g>
</g>
<!-- Node2&#45;&gt;Node3 -->
<g id="edge2" class="edge">
<title>Node2&#45;&gt;Node3</title>
<path fill="none" stroke="midnightblue" d="M333.04,-57.49C376.56,-48.16 451.09,-32.19 500.45,-21.62"/>
<polygon fill="midnightblue" stroke="midnightblue" points="501.23,-25.03 510.28,-19.51 499.77,-18.18 501.23,-25.03"/>
</g>
<!-- Node4 -->
<g id="node4" class="node">
<title>Node4</title>
<g id="a_node4"><a xlink:title=" ">
<polygon fill="white" stroke="#bfbfbf" points="90.5,-0.5 90.5,-19.5 153.5,-19.5 153.5,-0.5 90.5,-0.5"/>
<text text-anchor="middle" x="122" y="-7.5" font-family="Helvetica,sans-Serif" font-size="10.00">Arduino.h</text>
</a>
</g>
</g>
<!-- Node2&#45;&gt;Node4 -->
<g id="edge3" class="edge">
<title>Node2&#45;&gt;Node4</title>
<path fill="none" stroke="midnightblue" d="M270.11,-56.44C240.25,-47.28 192.69,-32.69 159.54,-22.52"/>
<polygon fill="midnightblue" stroke="midnightblue" points="160.34,-19.1 149.76,-19.52 158.29,-25.8 160.34,-19.1"/>
</g>
<!-- Node5 -->
<g id="node5" class="node">
<title>Node5</title>
<g id="a_node5"><a xlink:title=" ">
<polygon fill="white" stroke="#bfbfbf" points="172,-0.5 172,-19.5 262,-19.5 262,-0.5 172,-0.5"/>
<text text-anchor="middle" x="217" y="-7.5" font-family="Helvetica,sans-Serif" font-size="10.00">PubSubClient.h</text>
</a>
</g>
</g>
<!-- Node2&#45;&gt;Node5 -->
<g id="edge4" class="edge">
<title>Node2&#45;&gt;Node5</title>
<path fill="none" stroke="midnightblue" d="M284.99,-56.32C272.47,-47.98 253.32,-35.21 238.53,-25.35"/>
<polygon fill="midnightblue" stroke="midnightblue" points="240.24,-22.29 229.98,-19.65 236.36,-28.11 240.24,-22.29"/>
</g>
<!-- Node6 -->
<g id="node6" class="node">
<title>Node6</title>
<g id="a_node6"><a xlink:title=" ">
<polygon fill="white" stroke="#bfbfbf" points="280.5,-0.5 280.5,-19.5 363.5,-19.5 363.5,-0.5 280.5,-0.5"/>
<text text-anchor="middle" x="322" y="-7.5" font-family="Helvetica,sans-Serif" font-size="10.00">ArduinoJson.h</text>
</a>
</g>
</g>
<!-- Node2&#45;&gt;Node6 -->
<g id="edge5" class="edge">
<title>Node2&#45;&gt;Node6</title>
<path fill="none" stroke="midnightblue" d="M301.96,-56.08C305.21,-48.77 309.92,-38.18 313.95,-29.1"/>
<polygon fill="midnightblue" stroke="midnightblue" points="317.25,-30.31 318.11,-19.75 310.85,-27.47 317.25,-30.31"/>
</g>
<!-- Node7 -->
<g id="node7" class="node">
<title>Node7</title>
<g id="a_node7"><a xlink:title=" ">
<polygon fill="white" stroke="#bfbfbf" points="382,-0.5 382,-19.5 492,-19.5 492,-0.5 382,-0.5"/>
<text text-anchor="middle" x="437" y="-7.5" font-family="Helvetica,sans-Serif" font-size="10.00">PJONThroughLora.h</text>
</a>
</g>
</g>
<!-- Node2&#45;&gt;Node7 -->
<g id="edge6" class="edge">
<title>Node2&#45;&gt;Node7</title>
<path fill="none" stroke="midnightblue" d="M320.02,-56.44C343.1,-47.48 379.56,-33.31 405.64,-23.18"/>
<polygon fill="midnightblue" stroke="midnightblue" points="407.02,-26.4 415.08,-19.52 404.49,-19.88 407.02,-26.4"/>
</g>
<!-- Node2&#45;&gt;Node8 -->
<g id="edge7" class="edge">
<title>Node2&#45;&gt;Node8</title>
<path fill="none" stroke="midnightblue" d="M262.94,-57.77C216.27,-48.15 133.64,-31.12 82.01,-20.48"/>
<polygon fill="midnightblue" stroke="midnightblue" points="82.62,-17.03 72.12,-18.44 81.2,-23.89 82.62,-17.03"/>
</g>
<!-- Node9&#45;&gt;Node2 -->
<g id="edge10" class="edge">
<title>Node9&#45;&gt;Node2</title>
<path fill="none" stroke="midnightblue" d="M99.87,-280.42C87.14,-252.53 51.71,-163.34 93,-112 112.63,-87.59 198.35,-75.67 252.54,-70.48"/>
<polygon fill="midnightblue" stroke="midnightblue" points="252.96,-73.95 262.6,-69.55 252.32,-66.98 252.96,-73.95"/>
</g>
<!-- Node10&#45;&gt;Node2 -->
<g id="edge12" class="edge">
<title>Node10&#45;&gt;Node2</title>
<path fill="none" stroke="midnightblue" d="M246.3,-224.3C264.38,-208.25 301.22,-171.99 315,-132 320.45,-116.18 314.46,-97.68 308.13,-84.47"/>
<polygon fill="midnightblue" stroke="midnightblue" points="311.18,-82.75 303.41,-75.54 304.99,-86.01 311.18,-82.75"/>
</g>
<!-- Node11 -->
<g id="node11" class="node">
<title>Node11</title>
<g id="a_node11"><a xlink:href="lookups_8h.html" target="_top" xlink:title="Lookupable and lookupable manager base classes.">
<polygon fill="white" stroke="black" points="242.5,-112.5 242.5,-131.5 305.5,-131.5 305.5,-112.5 242.5,-112.5"/>
<text text-anchor="middle" x="274" y="-119.5" font-family="Helvetica,sans-Serif" font-size="10.00">lookups.h</text>
</a>
</g>
</g>
<!-- Node10&#45;&gt;Node11 -->
<g id="edge13" class="edge">
<title>Node10&#45;&gt;Node11</title>
<path fill="none" stroke="midnightblue" d="M238.98,-224.37C245.14,-206.54 259.39,-165.3 267.69,-141.27"/>
<polygon fill="midnightblue" stroke="midnightblue" points="271.07,-142.19 271.03,-131.59 264.46,-139.9 271.07,-142.19"/>
</g>
<!-- Node10&#45;&gt;Node12 -->
<g id="edge15" class="edge">
<title>Node10&#45;&gt;Node12</title>
<path fill="none" stroke="midnightblue" d="M230.72,-224.08C226.29,-216.61 219.84,-205.72 214.38,-196.52"/>
<polygon fill="midnightblue" stroke="midnightblue" points="217.29,-194.57 209.19,-187.75 211.27,-198.14 217.29,-194.57"/>
</g>
<!-- Node11&#45;&gt;Node2 -->
<g id="edge14" class="edge">
<title>Node11&#45;&gt;Node2</title>
<path fill="none" stroke="midnightblue" d="M277.96,-112.08C281.21,-104.77 285.92,-94.18 289.95,-85.1"/>
<polygon fill="midnightblue" stroke="midnightblue" points="293.25,-86.31 294.11,-75.75 286.85,-83.47 293.25,-86.31"/>
</g>
<!-- Node12&#45;&gt;Node2 -->
<g id="edge16" class="edge">
<title>Node12&#45;&gt;Node2</title>
<path fill="none" stroke="midnightblue" d="M206.44,-168.2C210.46,-154.9 219.51,-129.37 234,-112 244.57,-99.33 259.53,-88.55 272.32,-80.72"/>
<polygon fill="midnightblue" stroke="midnightblue" points="274.29,-83.62 281.16,-75.55 270.76,-77.57 274.29,-83.62"/>
</g>
<!-- Node12&#45;&gt;Node11 -->
<g id="edge17" class="edge">
<title>Node12&#45;&gt;Node11</title>
<path fill="none" stroke="midnightblue" d="M215.25,-168.32C225.8,-160.18 241.8,-147.84 254.44,-138.09"/>
<polygon fill="midnightblue" stroke="midnightblue" points="256.77,-140.71 262.55,-131.83 252.49,-135.17 256.77,-140.71"/>
</g>
<!-- Node13 -->
<g id="node13" class="node">
<title>Node13</title>
<g id="a_node13"><a xlink:href="conversions_8h.html" target="_top" xlink:title="General functions for converting to and from char arrays.">
<polygon fill="white" stroke="black" points="102,-112.5 102,-131.5 186,-131.5 186,-112.5 102,-112.5"/>
<text text-anchor="middle" x="144" y="-119.5" font-family="Helvetica,sans-Serif" font-size="10.00">conversions.h</text>
</a>
</g>
</g>
<!-- Node12&#45;&gt;Node13 -->
<g id="edge18" class="edge">
<title>Node12&#45;&gt;Node13</title>
<path fill="none" stroke="midnightblue" d="M194.36,-168.32C185.49,-160.34 172.13,-148.31 161.39,-138.65"/>
<polygon fill="midnightblue" stroke="midnightblue" points="163.59,-135.92 153.82,-131.83 158.91,-141.13 163.59,-135.92"/>
</g>
<!-- Node13&#45;&gt;Node2 -->
<g id="edge19" class="edge">
<title>Node13&#45;&gt;Node2</title>
<path fill="none" stroke="midnightblue" d="M168.4,-112.44C194.2,-103.4 235.08,-89.06 264.02,-78.92"/>
<polygon fill="midnightblue" stroke="midnightblue" points="265.43,-82.13 273.71,-75.52 263.12,-75.52 265.43,-82.13"/>
</g>
<!-- Node14&#45;&gt;Node2 -->
<g id="edge22" class="edge">
<title>Node14&#45;&gt;Node2</title>
<path fill="none" stroke="midnightblue" d="M305.19,-336.41C343.42,-322.03 410,-289.2 410,-235 410,-235 410,-235 410,-177 410,-130.61 360.49,-97.28 327.31,-80.15"/>
<polygon fill="midnightblue" stroke="midnightblue" points="328.54,-76.86 318.02,-75.56 325.43,-83.13 328.54,-76.86"/>
</g>
<!-- Node14&#45;&gt;Node10 -->
<g id="edge23" class="edge">
<title>Node14&#45;&gt;Node10</title>
<path fill="none" stroke="midnightblue" d="M275.63,-336.37C268.62,-318.46 252.39,-276.92 243.02,-252.95"/>
<polygon fill="midnightblue" stroke="midnightblue" points="246.26,-251.63 239.36,-243.59 239.74,-254.18 246.26,-251.63"/>
</g>
<!-- Node15 -->
<g id="node15" class="node">
<title>Node15</title>
<g id="a_node15"><a xlink:href="lora_8h.html" target="_top" xlink:title="File that handles the LoRa radio and PJON.">
<polygon fill="white" stroke="black" points="277,-280.5 277,-299.5 321,-299.5 321,-280.5 277,-280.5"/>
<text text-anchor="middle" x="299" y="-287.5" font-family="Helvetica,sans-Serif" font-size="10.00">lora.h</text>
</a>
</g>
</g>
<!-- Node14&#45;&gt;Node15 -->
<g id="edge24" class="edge">
<title>Node14&#45;&gt;Node15</title>
<path fill="none" stroke="midnightblue" d="M277.14,-336.08C278.31,-328.69 281.88,-317.95 286.01,-308.81"/>
<polygon fill="midnightblue" stroke="midnightblue" points="289.21,-310.25 290.63,-299.75 282.97,-307.07 289.21,-310.25"/>
</g>
<!-- Node15&#45;&gt;Node1 -->
<g id="edge29" class="edge">
<title>Node15&#45;&gt;Node1</title>
<path fill="none" stroke="midnightblue" d="M308.38,-299.87C320.92,-312.83 340.22,-337.42 328,-356 316.72,-373.16 298.24,-384.51 279.26,-392.02"/>
<polygon fill="midnightblue" stroke="midnightblue" points="277.84,-388.81 269.63,-395.5 280.22,-395.39 277.84,-388.81"/>
</g>
<!-- Node15&#45;&gt;Node2 -->
<g id="edge25" class="edge">
<title>Node15&#45;&gt;Node2</title>
<path fill="none" stroke="midnightblue" d="M303.39,-280.33C315.98,-254.29 350.02,-174.71 330,-112 326.66,-101.54 319.9,-91.43 313.45,-83.45"/>
<polygon fill="midnightblue" stroke="midnightblue" points="315.94,-80.98 306.75,-75.71 310.65,-85.56 315.94,-80.98"/>
</g>
<!-- Node15&#45;&gt;Node10 -->
<g id="edge27" class="edge">
<title>Node15&#45;&gt;Node10</title>
<path fill="none" stroke="midnightblue" d="M288.88,-280.32C279.47,-272.26 265.26,-260.08 253.93,-250.37"/>
<polygon fill="midnightblue" stroke="midnightblue" points="256.18,-247.68 246.31,-243.83 251.62,-253 256.18,-247.68"/>
</g>
<!-- Node15&#45;&gt;Node11 -->
<g id="edge26" class="edge">
<title>Node15&#45;&gt;Node11</title>
<path fill="none" stroke="midnightblue" d="M297.66,-280.08C293.72,-253.95 282.16,-177.21 276.8,-141.58"/>
<polygon fill="midnightblue" stroke="midnightblue" points="280.24,-140.94 275.29,-131.57 273.32,-141.98 280.24,-140.94"/>
</g>
<!-- Node15&#45;&gt;Node14 -->
<g id="edge28" class="edge">
<title>Node15&#45;&gt;Node14</title>
<path fill="none" stroke="midnightblue" d="M300.89,-299.75C299.75,-307.09 296.2,-317.82 292.08,-326.98"/>
<polygon fill="midnightblue" stroke="midnightblue" points="288.87,-325.58 287.47,-336.08 295.11,-328.74 288.87,-325.58"/>
</g>
</g>
</svg>
        <g id="navigator" transform="translate(0 0)" fill="#404254">
                <rect fill="#f2f5e9" fill-opacity="0.5" stroke="#606060" stroke-width=".5" x="0" y="0" width="60" height="60"/>
                <use id="zoomplus" xlink:href="#zoomPlus" x="17" y="9" onmousedown="handleZoom(evt,'in')"/>
                <use id="zoomminus" xlink:href="#zoomMin" x="42" y="9" onmousedown="handleZoom(evt,'out')"/>
                <use id="reset" xlink:href="#resetDef" x="30" y="36" onmousedown="handleReset()"/>
                <g id="arrowUp" xlink:href="#dirArrow" transform="translate(30 24)" onmousedown="handlePan(0,-1)">
                  <use xlink:href="#rim" fill="#404040">
                        <set attributeName="fill" to="#808080" begin="arrowUp.mouseover" end="arrowUp.mouseout"/>
                  </use>
                  <path fill="none" stroke="white" stroke-width="1.5" d="M0,-3.0v7 M-2.5,-0.5L0,-3.0L2.5,-0.5"/>
                </g>
                <g id="arrowRight" xlink:href="#dirArrow" transform="rotate(90) translate(36 -43)" onmousedown="handlePan(1,0)">
                  <use xlink:href="#rim" fill="#404040">
                        <set attributeName="fill" to="#808080" begin="arrowRight.mouseover" end="arrowRight.mouseout"/>
                  </use>
                  <path fill="none" stroke="white" stroke-width="1.5" d="M0,-3.0v7 M-2.5,-0.5L0,-3.0L2.5,-0.5"/>
                </g>
                <g id="arrowDown" xlink:href="#dirArrow" transform="rotate(180) translate(-30 -48)" onmousedown="handlePan(0,1)">
                  <use xlink:href="#rim" fill="#404040">
                        <set attributeName="fill" to="#808080" begin="arrowDown.mouseover" end="arrowDown.mouseout"/>
                  </use>
                  <path fill="none" stroke="white" stroke-width="1.5" d="M0,-3.0v7 M-2.5,-0.5L0,-3.0L2.5,-0.5"/>
                </g>
                <g id="arrowLeft" xlink:href="#dirArrow" transform="rotate(270) translate(-36 17)" onmousedown="handlePan(-1,0)">
                  <use xlink:href="#rim" fill="#404040">
                        <set attributeName="fill" to="#808080" begin="arrowLeft.mouseover" end="arrowLeft.mouseout"/>
                  </use>
                  <path fill="none" stroke="white" stroke-width="1.5" d="M0,-3.0v7 M-2.5,-0.5L0,-3.0L2.5,-0.5"/>
                </g>
        </g>
        <svg viewBox="0 0 15 15" width="100%" height="30px" preserveAspectRatio="xMaxYMin meet">
         <g id="arrow_out" transform="scale(0.3 0.3)">
          <a xlink:href="rpc_8h__incl_org.svg" target="_base">
           <rect id="button" ry="5" rx="5" y="6" x="6" height="38" width="38"
                fill="#f2f5e9" fill-opacity="0.5" stroke="#606060" stroke-width="1.0"/>
           <path id="arrow"
             d="M 11.500037,31.436501 C 11.940474,20.09759 22.043105,11.32322 32.158766,21.979434 L 37.068811,17.246167 C 37.068811,17.246167 37.088388,32 37.088388,32 L 22.160133,31.978069 C 22.160133,31.978069 26.997745,27.140456 26.997745,27.140456 C 18.528582,18.264221 13.291696,25.230495 11.500037,31.436501 z"
             style="fill:#404040;"/>
          </a>
         </g>
        </svg>
</svg>
