<?xml version="1.0" encoding="UTF-8" standalone="no"?>
<!DOCTYPE svg PUBLIC "-//W3C//DTD SVG 1.1//EN"
 "http://www.w3.org/Graphics/SVG/1.1/DTD/svg11.dtd">
<!-- Generated by graphviz version 2.43.0 (0)
 -->
<!-- Title: BaseStationCode/src/src/rpc.cpp Pages: 1 -->
<!--zoomable 487 -->
<svg id="main" version="1.1" xmlns="http://www.w3.org/2000/svg" xmlns:xlink="http://www.w3.org/1999/xlink" xml:space="preserve" onload="init(evt)">
<style type="text/css"><![CDATA[
.edge:hover path { stroke: red; }
.edge:hover polygon { stroke: red; fill: red; }
]]></style>
<script type="text/javascript"><![CDATA[
var edges = document.getElementsByTagName('g');
if (edges && edges.length) {
  for (var i=0;i<edges.length;i++) {
    if (edges[i].id.substr(0,4)=='edge') {
      edges[i].setAttribute('class','edge');
    }
  }
}
]]></script>
        <defs>
                <circle id="rim" cx="0" cy="0" r="7"/>
                <circle id="rim2" cx="0" cy="0" r="3.5"/>
                <g id="zoomPlus">
                        <use xlink:href="#rim" fill="#404040">
                                <set attributeName="fill" to="#808080" begin="zoomplus.mouseover" end="zoomplus.mouseout"/>
                        </use>
                        <path d="M-4,0h8M0,-4v8" fill="none" stroke="white" stroke-width="1.5" pointer-events="none"/>
                </g>
                <g id="zoomMin">
                        <use xlink:href="#rim" fill="#404040">
                                <set attributeName="fill" to="#808080" begin="zoomminus.mouseover" end="zoomminus.mouseout"/>
                        </use>
                        <path d="M-4,0h8" fill="none" stroke="white" stroke-width="1.5" pointer-events="none"/>
                </g>
                <g id="dirArrow">
                        <path fill="none" stroke="white" stroke-width="1.5" d="M0,-3.0v7 M-2.5,-0.5L0,-3.0L2.5,-0.5"/>
                </g>
               <g id="resetDef">
                       <use xlink:href="#rim2" fill="#404040">
                               <set attributeName="fill" to="#808080" begin="reset.mouseover" end="reset.mouseout"/>
                       </use>
               </g>
        </defs>

<script type="text/javascript">
var viewWidth = 566;
var viewHeight = 487;
var sectionId = 'dynsection-0';
</script>
<script xlink:href="svgpan.js"/>
<svg id="graph" class="graph">
<g id="viewport">
<title>BaseStationCode/src/src/rpc.cpp</title>
<polygon fill="white" stroke="transparent" points="-4,4 -4,-483 561.5,-483 561.5,4 -4,4"/>
<!-- Node1 -->
<g id="node1" class="node">
<title>Node1</title>
<g id="a_node1"><a xlink:title="Handles RPC calls.">
<polygon fill="#bfbfbf" stroke="black" points="152.5,-448.5 152.5,-478.5 269.5,-478.5 269.5,-448.5 152.5,-448.5"/>
<text text-anchor="start" x="160.5" y="-466.5" font-family="Helvetica,sans-Serif" font-size="10.00">BaseStationCode/src</text>
<text text-anchor="middle" x="211" y="-455.5" font-family="Helvetica,sans-Serif" font-size="10.00">/src/rpc.cpp</text>
</a>
</g>
</g>
<!-- Node2 -->
<g id="node2" class="node">
<title>Node2</title>
<g id="a_node2"><a xlink:href="rpc_8h.html" target="_top" xlink:title="Handles RPC calls.">
<polygon fill="white" stroke="black" points="190.5,-392.5 190.5,-411.5 231.5,-411.5 231.5,-392.5 190.5,-392.5"/>
<text text-anchor="middle" x="211" y="-399.5" font-family="Helvetica,sans-Serif" font-size="10.00">rpc.h</text>
</a>
</g>
</g>
<!-- Node1&#45;&gt;Node2 -->
<g id="edge1" class="edge">
<title>Node1&#45;&gt;Node2</title>
<path fill="none" stroke="midnightblue" d="M211,-448.4C211,-440.47 211,-430.46 211,-421.86"/>
<polygon fill="midnightblue" stroke="midnightblue" points="214.5,-421.66 211,-411.66 207.5,-421.66 214.5,-421.66"/>
</g>
<!-- Node3 -->
<g id="node3" class="node">
<title>Node3</title>
<g id="a_node3"><a xlink:href="defines_8h.html" target="_top" xlink:title="Definitions and other preprocessor and global stuff.">
<polygon fill="white" stroke="black" points="255,-56.5 255,-75.5 325,-75.5 325,-56.5 255,-56.5"/>
<text text-anchor="middle" x="290" y="-63.5" font-family="Helvetica,sans-Serif" font-size="10.00">../defines.h</text>
</a>
</g>
</g>
<!-- Node2&#45;&gt;Node3 -->
<g id="edge2" class="edge">
<title>Node2&#45;&gt;Node3</title>
<path fill="none" stroke="midnightblue" d="M231.62,-400.84C289.28,-399.19 448,-386.03 448,-291 448,-291 448,-291 448,-177 448,-121.46 381.42,-91.67 334.7,-77.61"/>
<polygon fill="midnightblue" stroke="midnightblue" points="335.64,-74.24 325.07,-74.84 333.71,-80.97 335.64,-74.24"/>
</g>
<!-- Node9 -->
<g id="node9" class="node">
<title>Node9</title>
<g id="a_node9"><a xlink:href="topics_8h.html" target="_top" xlink:title="MQTT topics for a thingsboard gateway.">
<polygon fill="white" stroke="black" points="0,-0.5 0,-19.5 72,-19.5 72,-0.5 0,-0.5"/>
<text text-anchor="middle" x="36" y="-7.5" font-family="Helvetica,sans-Serif" font-size="10.00">src/topics.h</text>
</a>
</g>
</g>
<!-- Node2&#45;&gt;Node9 -->
<g id="edge9" class="edge">
<title>Node2&#45;&gt;Node9</title>
<path fill="none" stroke="midnightblue" d="M190.24,-397.94C143.88,-389.81 36,-363.13 36,-291 36,-291 36,-291 36,-121 36,-88.95 36,-51.64 36,-29.75"/>
<polygon fill="midnightblue" stroke="midnightblue" points="39.5,-29.56 36,-19.56 32.5,-29.56 39.5,-29.56"/>
</g>
<!-- Node10 -->
<g id="node10" class="node">
<title>Node10</title>
<g id="a_node10"><a xlink:href="alarm_8h.html" target="_top" xlink:title="Handles alarms.">
<polygon fill="white" stroke="black" points="77,-280.5 77,-299.5 131,-299.5 131,-280.5 77,-280.5"/>
<text text-anchor="middle" x="104" y="-287.5" font-family="Helvetica,sans-Serif" font-size="10.00">alarm.h</text>
</a>
</g>
</g>
<!-- Node2&#45;&gt;Node10 -->
<g id="edge10" class="edge">
<title>Node2&#45;&gt;Node10</title>
<path fill="none" stroke="midnightblue" d="M200.21,-392.49C189.39,-383.76 172.43,-369.58 159,-356 143.65,-340.48 127.71,-321.24 116.97,-307.73"/>
<polygon fill="midnightblue" stroke="midnightblue" points="119.65,-305.48 110.72,-299.78 114.15,-309.81 119.65,-305.48"/>
</g>
<!-- Node11 -->
<g id="node11" class="node">
<title>Node11</title>
<g id="a_node11"><a xlink:href="devices_8h.html" target="_top" xlink:title="Devices and manager for all known devices the base station connects to.">
<polygon fill="white" stroke="black" points="204.5,-224.5 204.5,-243.5 267.5,-243.5 267.5,-224.5 204.5,-224.5"/>
<text text-anchor="middle" x="236" y="-231.5" font-family="Helvetica,sans-Serif" font-size="10.00">devices.h</text>
</a>
</g>
</g>
<!-- Node2&#45;&gt;Node11 -->
<g id="edge12" class="edge">
<title>Node2&#45;&gt;Node11</title>
<path fill="none" stroke="midnightblue" d="M212.34,-392.08C216.28,-365.95 227.84,-289.21 233.2,-253.58"/>
<polygon fill="midnightblue" stroke="midnightblue" points="236.68,-253.98 234.71,-243.57 229.76,-252.94 236.68,-253.98"/>
</g>
<!-- Node13 -->
<g id="node13" class="node">
<title>Node13</title>
<g id="a_node13"><a xlink:href="fields_8h.html" target="_top" xlink:title="Contains fields classes.">
<polygon fill="white" stroke="black" points="178,-168.5 178,-187.5 230,-187.5 230,-168.5 178,-168.5"/>
<text text-anchor="middle" x="204" y="-175.5" font-family="Helvetica,sans-Serif" font-size="10.00">fields.h</text>
</a>
</g>
</g>
<!-- Node2&#45;&gt;Node13 -->
<g id="edge21" class="edge">
<title>Node2&#45;&gt;Node13</title>
<path fill="none" stroke="midnightblue" d="M209.02,-392.15C203.47,-366.28 188.62,-288.48 195,-224 195.87,-215.17 197.69,-205.51 199.47,-197.4"/>
<polygon fill="midnightblue" stroke="midnightblue" points="202.9,-198.08 201.77,-187.55 196.08,-196.49 202.9,-198.08"/>
</g>
<!-- Node15 -->
<g id="node15" class="node">
<title>Node15</title>
<g id="a_node15"><a xlink:href="networking_8h.html" target="_top" xlink:title="Header file for networking.cpp.">
<polygon fill="white" stroke="black" points="239,-336.5 239,-355.5 319,-355.5 319,-336.5 239,-336.5"/>
<text text-anchor="middle" x="279" y="-343.5" font-family="Helvetica,sans-Serif" font-size="10.00">networking.h</text>
</a>
</g>
</g>
<!-- Node2&#45;&gt;Node15 -->
<g id="edge22" class="edge">
<title>Node2&#45;&gt;Node15</title>
<path fill="none" stroke="midnightblue" d="M221.93,-392.32C232.17,-384.18 247.72,-371.84 260,-362.09"/>
<polygon fill="midnightblue" stroke="midnightblue" points="262.22,-364.79 267.88,-355.83 257.87,-359.31 262.22,-364.79"/>
</g>
<!-- Node4 -->
<g id="node4" class="node">
<title>Node4</title>
<g id="a_node4"><a xlink:title=" ">
<polygon fill="white" stroke="#bfbfbf" points="494.5,-0.5 494.5,-19.5 557.5,-19.5 557.5,-0.5 494.5,-0.5"/>
<text text-anchor="middle" x="526" y="-7.5" font-family="Helvetica,sans-Serif" font-size="10.00">Arduino.h</text>
</a>
</g>
</g>
<!-- Node3&#45;&gt;Node4 -->
<g id="edge3" class="edge">
<title>Node3&#45;&gt;Node4</title>
<path fill="none" stroke="midnightblue" d="M325.08,-56.97C367.57,-47.25 439.09,-30.89 484.35,-20.53"/>
<polygon fill="midnightblue" stroke="midnightblue" points="485.17,-23.93 494.14,-18.29 483.61,-17.11 485.17,-23.93"/>
</g>
<!-- Node5 -->
<g id="node5" class="node">
<title>Node5</title>
<g id="a_node5"><a xlink:title=" ">
<polygon fill="white" stroke="#bfbfbf" points="90.5,-0.5 90.5,-19.5 137.5,-19.5 137.5,-0.5 90.5,-0.5"/>
<text text-anchor="middle" x="114" y="-7.5" font-family="Helvetica,sans-Serif" font-size="10.00">WiFi.h</text>
</a>
</g>
</g>
<!-- Node3&#45;&gt;Node5 -->
<g id="edge4" class="edge">
<title>Node3&#45;&gt;Node5</title>
<path fill="none" stroke="midnightblue" d="M262.11,-56.44C230.93,-46.88 180.45,-31.39 147.24,-21.2"/>
<polygon fill="midnightblue" stroke="midnightblue" points="148.12,-17.81 137.53,-18.22 146.07,-24.5 148.12,-17.81"/>
</g>
<!-- Node6 -->
<g id="node6" class="node">
<title>Node6</title>
<g id="a_node6"><a xlink:title=" ">
<polygon fill="white" stroke="#bfbfbf" points="156,-0.5 156,-19.5 246,-19.5 246,-0.5 156,-0.5"/>
<text text-anchor="middle" x="201" y="-7.5" font-family="Helvetica,sans-Serif" font-size="10.00">PubSubClient.h</text>
</a>
</g>
</g>
<!-- Node3&#45;&gt;Node6 -->
<g id="edge5" class="edge">
<title>Node3&#45;&gt;Node6</title>
<path fill="none" stroke="midnightblue" d="M275.7,-56.32C261.82,-47.9 240.51,-34.97 224.2,-25.07"/>
<polygon fill="midnightblue" stroke="midnightblue" points="225.63,-21.85 215.26,-19.65 222,-27.83 225.63,-21.85"/>
</g>
<!-- Node7 -->
<g id="node7" class="node">
<title>Node7</title>
<g id="a_node7"><a xlink:title=" ">
<polygon fill="white" stroke="#bfbfbf" points="264.5,-0.5 264.5,-19.5 347.5,-19.5 347.5,-0.5 264.5,-0.5"/>
<text text-anchor="middle" x="306" y="-7.5" font-family="Helvetica,sans-Serif" font-size="10.00">ArduinoJson.h</text>
</a>
</g>
</g>
<!-- Node3&#45;&gt;Node7 -->
<g id="edge6" class="edge">
<title>Node3&#45;&gt;Node7</title>
<path fill="none" stroke="midnightblue" d="M292.64,-56.08C294.79,-48.85 297.88,-38.41 300.55,-29.4"/>
<polygon fill="midnightblue" stroke="midnightblue" points="303.92,-30.33 303.41,-19.75 297.21,-28.34 303.92,-30.33"/>
</g>
<!-- Node8 -->
<g id="node8" class="node">
<title>Node8</title>
<g id="a_node8"><a xlink:title=" ">
<polygon fill="white" stroke="#bfbfbf" points="366,-0.5 366,-19.5 476,-19.5 476,-0.5 366,-0.5"/>
<text text-anchor="middle" x="421" y="-7.5" font-family="Helvetica,sans-Serif" font-size="10.00">PJONThroughLora.h</text>
</a>
</g>
</g>
<!-- Node3&#45;&gt;Node8 -->
<g id="edge7" class="edge">
<title>Node3&#45;&gt;Node8</title>
<path fill="none" stroke="midnightblue" d="M310.76,-56.44C332.32,-47.56 366.26,-33.56 390.79,-23.45"/>
<polygon fill="midnightblue" stroke="midnightblue" points="392.43,-26.56 400.34,-19.52 389.76,-20.09 392.43,-26.56"/>
</g>
<!-- Node3&#45;&gt;Node9 -->
<g id="edge8" class="edge">
<title>Node3&#45;&gt;Node9</title>
<path fill="none" stroke="midnightblue" d="M254.95,-57.55C210.01,-47.99 131.95,-31.4 82.19,-20.82"/>
<polygon fill="midnightblue" stroke="midnightblue" points="82.84,-17.38 72.33,-18.72 81.39,-24.23 82.84,-17.38"/>
</g>
<!-- Node10&#45;&gt;Node3 -->
<g id="edge11" class="edge">
<title>Node10&#45;&gt;Node3</title>
<path fill="none" stroke="midnightblue" d="M99.89,-280.43C87.21,-252.59 51.92,-163.52 93,-112 111.61,-88.66 192.51,-76.47 244.68,-70.91"/>
<polygon fill="midnightblue" stroke="midnightblue" points="245.11,-74.39 254.7,-69.89 244.4,-67.42 245.11,-74.39"/>
</g>
<!-- Node11&#45;&gt;Node3 -->
<g id="edge13" class="edge">
<title>Node11&#45;&gt;Node3</title>
<path fill="none" stroke="midnightblue" d="M246.3,-224.3C264.38,-208.25 301.22,-171.99 315,-132 320.64,-115.63 312.14,-97.23 303.56,-84.19"/>
<polygon fill="midnightblue" stroke="midnightblue" points="306.18,-81.84 297.5,-75.76 300.49,-85.92 306.18,-81.84"/>
</g>
<!-- Node12 -->
<g id="node12" class="node">
<title>Node12</title>
<g id="a_node12"><a xlink:href="lookups_8h.html" target="_top" xlink:title="Lookupable and lookupable manager base classes.">
<polygon fill="white" stroke="black" points="242.5,-112.5 242.5,-131.5 305.5,-131.5 305.5,-112.5 242.5,-112.5"/>
<text text-anchor="middle" x="274" y="-119.5" font-family="Helvetica,sans-Serif" font-size="10.00">lookups.h</text>
</a>
</g>
</g>
<!-- Node11&#45;&gt;Node12 -->
<g id="edge14" class="edge">
<title>Node11&#45;&gt;Node12</title>
<path fill="none" stroke="midnightblue" d="M238.98,-224.37C245.14,-206.54 259.39,-165.3 267.69,-141.27"/>
<polygon fill="midnightblue" stroke="midnightblue" points="271.07,-142.19 271.03,-131.59 264.46,-139.9 271.07,-142.19"/>
</g>
<!-- Node11&#45;&gt;Node13 -->
<g id="edge16" class="edge">
<title>Node11&#45;&gt;Node13</title>
<path fill="none" stroke="midnightblue" d="M230.72,-224.08C226.29,-216.61 219.84,-205.72 214.38,-196.52"/>
<polygon fill="midnightblue" stroke="midnightblue" points="217.29,-194.57 209.19,-187.75 211.27,-198.14 217.29,-194.57"/>
</g>
<!-- Node12&#45;&gt;Node3 -->
<g id="edge15" class="edge">
<title>Node12&#45;&gt;Node3</title>
<path fill="none" stroke="midnightblue" d="M276.64,-112.08C278.79,-104.85 281.88,-94.41 284.55,-85.4"/>
<polygon fill="midnightblue" stroke="midnightblue" points="287.92,-86.33 287.41,-75.75 281.21,-84.34 287.92,-86.33"/>
</g>
<!-- Node13&#45;&gt;Node3 -->
<g id="edge17" class="edge">
<title>Node13&#45;&gt;Node3</title>
<path fill="none" stroke="midnightblue" d="M206.58,-168.31C210.79,-155.16 220.08,-129.83 234,-112 243.33,-100.06 256.42,-89.31 267.6,-81.32"/>
<polygon fill="midnightblue" stroke="midnightblue" points="269.78,-84.07 276.05,-75.53 265.82,-78.3 269.78,-84.07"/>
</g>
<!-- Node13&#45;&gt;Node12 -->
<g id="edge18" class="edge">
<title>Node13&#45;&gt;Node12</title>
<path fill="none" stroke="midnightblue" d="M215.25,-168.32C225.8,-160.18 241.8,-147.84 254.44,-138.09"/>
<polygon fill="midnightblue" stroke="midnightblue" points="256.77,-140.71 262.55,-131.83 252.49,-135.17 256.77,-140.71"/>
</g>
<!-- Node14 -->
<g id="node14" class="node">
<title>Node14</title>
<g id="a_node14"><a xlink:href="conversions_8h.html" target="_top" xlink:title="General functions for converting to and from char arrays.">
<polygon fill="white" stroke="black" points="102,-112.5 102,-131.5 186,-131.5 186,-112.5 102,-112.5"/>
<text text-anchor="middle" x="144" y="-119.5" font-family="Helvetica,sans-Serif" font-size="10.00">conversions.h</text>
</a>
</g>
</g>
<!-- Node13&#45;&gt;Node14 -->
<g id="edge19" class="edge">
<title>Node13&#45;&gt;Node14</title>
<path fill="none" stroke="midnightblue" d="M194.36,-168.32C185.49,-160.34 172.13,-148.31 161.39,-138.65"/>
<polygon fill="midnightblue" stroke="midnightblue" points="163.59,-135.92 153.82,-131.83 158.91,-141.13 163.59,-135.92"/>
</g>
<!-- Node14&#45;&gt;Node3 -->
<g id="edge20" class="edge">
<title>Node14&#45;&gt;Node3</title>
<path fill="none" stroke="midnightblue" d="M167.13,-112.44C191.48,-103.44 230.01,-89.19 257.42,-79.05"/>
<polygon fill="midnightblue" stroke="midnightblue" points="258.81,-82.27 266.97,-75.52 256.38,-75.7 258.81,-82.27"/>
</g>
<!-- Node15&#45;&gt;Node3 -->
<g id="edge23" class="edge">
<title>Node15&#45;&gt;Node3</title>
<path fill="none" stroke="midnightblue" d="M305.19,-336.41C343.42,-322.03 410,-289.2 410,-235 410,-235 410,-235 410,-177 410,-129.08 357.36,-96.38 321.81,-79.76"/>
<polygon fill="midnightblue" stroke="midnightblue" points="322.85,-76.4 312.29,-75.5 319.99,-82.78 322.85,-76.4"/>
</g>
<!-- Node15&#45;&gt;Node11 -->
<g id="edge24" class="edge">
<title>Node15&#45;&gt;Node11</title>
<path fill="none" stroke="midnightblue" d="M275.63,-336.37C268.62,-318.46 252.39,-276.92 243.02,-252.95"/>
<polygon fill="midnightblue" stroke="midnightblue" points="246.26,-251.63 239.36,-243.59 239.74,-254.18 246.26,-251.63"/>
</g>
<!-- Node16 -->
<g id="node16" class="node">
<title>Node16</title>
<g id="a_node16"><a xlink:href="lora_8h.html" target="_top" xlink:title="File that handles the LoRa radio and PJON.">
<polygon fill="white" stroke="black" points="277,-280.5 277,-299.5 321,-299.5 321,-280.5 277,-280.5"/>
<text text-anchor="middle" x="299" y="-287.5" font-family="Helvetica,sans-Serif" font-size="10.00">lora.h</text>
</a>
</g>
</g>
<!-- Node15&#45;&gt;Node16 -->
<g id="edge25" class="edge">
<title>Node15&#45;&gt;Node16</title>
<path fill="none" stroke="midnightblue" d="M277.14,-336.08C278.31,-328.69 281.88,-317.95 286.01,-308.81"/>
<polygon fill="midnightblue" stroke="midnightblue" points="289.21,-310.25 290.63,-299.75 282.97,-307.07 289.21,-310.25"/>
</g>
<!-- Node16&#45;&gt;Node2 -->
<g id="edge30" class="edge">
<title>Node16&#45;&gt;Node2</title>
<path fill="none" stroke="midnightblue" d="M308.06,-299.51C320.7,-312.43 340.73,-337.46 328,-356 308.77,-384 269.51,-394.58 241.78,-398.58"/>
<polygon fill="midnightblue" stroke="midnightblue" points="241.28,-395.12 231.78,-399.81 242.14,-402.06 241.28,-395.12"/>
</g>
<!-- Node16&#45;&gt;Node3 -->
<g id="edge26" class="edge">
<title>Node16&#45;&gt;Node3</title>
<path fill="none" stroke="midnightblue" d="M303.59,-280.23C316.7,-253.9 351.98,-173.62 329,-112 324.83,-100.81 316.48,-90.56 308.58,-82.68"/>
<polygon fill="midnightblue" stroke="midnightblue" points="310.7,-79.87 300.99,-75.63 305.94,-85 310.7,-79.87"/>
</g>
<!-- Node16&#45;&gt;Node11 -->
<g id="edge28" class="edge">
<title>Node16&#45;&gt;Node11</title>
<path fill="none" stroke="midnightblue" d="M288.88,-280.32C279.47,-272.26 265.26,-260.08 253.93,-250.37"/>
<polygon fill="midnightblue" stroke="midnightblue" points="256.18,-247.68 246.31,-243.83 251.62,-253 256.18,-247.68"/>
</g>
<!-- Node16&#45;&gt;Node12 -->
<g id="edge27" class="edge">
<title>Node16&#45;&gt;Node12</title>
<path fill="none" stroke="midnightblue" d="M297.66,-280.08C293.72,-253.95 282.16,-177.21 276.8,-141.58"/>
<polygon fill="midnightblue" stroke="midnightblue" points="280.24,-140.94 275.29,-131.57 273.32,-141.98 280.24,-140.94"/>
</g>
<!-- Node16&#45;&gt;Node15 -->
<g id="edge29" class="edge">
<title>Node16&#45;&gt;Node15</title>
<path fill="none" stroke="midnightblue" d="M300.89,-299.75C299.75,-307.09 296.2,-317.82 292.08,-326.98"/>
<polygon fill="midnightblue" stroke="midnightblue" points="288.87,-325.58 287.47,-336.08 295.11,-328.74 288.87,-325.58"/>
</g>
</g>
</svg>
        <g id="navigator" transform="translate(0 0)" fill="#404254">
                <rect fill="#f2f5e9" fill-opacity="0.5" stroke="#606060" stroke-width=".5" x="0" y="0" width="60" height="60"/>
                <use id="zoomplus" xlink:href="#zoomPlus" x="17" y="9" onmousedown="handleZoom(evt,'in')"/>
                <use id="zoomminus" xlink:href="#zoomMin" x="42" y="9" onmousedown="handleZoom(evt,'out')"/>
                <use id="reset" xlink:href="#resetDef" x="30" y="36" onmousedown="handleReset()"/>
                <g id="arrowUp" xlink:href="#dirArrow" transform="translate(30 24)" onmousedown="handlePan(0,-1)">
                  <use xlink:href="#rim" fill="#404040">
                        <set attributeName="fill" to="#808080" begin="arrowUp.mouseover" end="arrowUp.mouseout"/>
                  </use>
                  <path fill="none" stroke="white" stroke-width="1.5" d="M0,-3.0v7 M-2.5,-0.5L0,-3.0L2.5,-0.5"/>
                </g>
                <g id="arrowRight" xlink:href="#dirArrow" transform="rotate(90) translate(36 -43)" onmousedown="handlePan(1,0)">
                  <use xlink:href="#rim" fill="#404040">
                        <set attributeName="fill" to="#808080" begin="arrowRight.mouseover" end="arrowRight.mouseout"/>
                  </use>
                  <path fill="none" stroke="white" stroke-width="1.5" d="M0,-3.0v7 M-2.5,-0.5L0,-3.0L2.5,-0.5"/>
                </g>
                <g id="arrowDown" xlink:href="#dirArrow" transform="rotate(180) translate(-30 -48)" onmousedown="handlePan(0,1)">
                  <use xlink:href="#rim" fill="#404040">
                        <set attributeName="fill" to="#808080" begin="arrowDown.mouseover" end="arrowDown.mouseout"/>
                  </use>
                  <path fill="none" stroke="white" stroke-width="1.5" d="M0,-3.0v7 M-2.5,-0.5L0,-3.0L2.5,-0.5"/>
                </g>
                <g id="arrowLeft" xlink:href="#dirArrow" transform="rotate(270) translate(-36 17)" onmousedown="handlePan(-1,0)">
                  <use xlink:href="#rim" fill="#404040">
                        <set attributeName="fill" to="#808080" begin="arrowLeft.mouseover" end="arrowLeft.mouseout"/>
                  </use>
                  <path fill="none" stroke="white" stroke-width="1.5" d="M0,-3.0v7 M-2.5,-0.5L0,-3.0L2.5,-0.5"/>
                </g>
        </g>
        <svg viewBox="0 0 15 15" width="100%" height="30px" preserveAspectRatio="xMaxYMin meet">
         <g id="arrow_out" transform="scale(0.3 0.3)">
          <a xlink:href="rpc_8cpp__incl_org.svg" target="_base">
           <rect id="button" ry="5" rx="5" y="6" x="6" height="38" width="38"
                fill="#f2f5e9" fill-opacity="0.5" stroke="#606060" stroke-width="1.0"/>
           <path id="arrow"
             d="M 11.500037,31.436501 C 11.940474,20.09759 22.043105,11.32322 32.158766,21.979434 L 37.068811,17.246167 C 37.068811,17.246167 37.088388,32 37.088388,32 L 22.160133,31.978069 C 22.160133,31.978069 26.997745,27.140456 26.997745,27.140456 C 18.528582,18.264221 13.291696,25.230495 11.500037,31.436501 z"
             style="fill:#404040;"/>
          </a>
         </g>
        </svg>
</svg>
