<?xml version="1.0" encoding="UTF-8" standalone="no"?>
<!DOCTYPE svg PUBLIC "-//W3C//DTD SVG 1.1//EN"
 "http://www.w3.org/Graphics/SVG/1.1/DTD/svg11.dtd">
<!-- Generated by graphviz version 2.43.0 (0)
 -->
<!-- Title: BaseStationCode/src/src/rpc.h Pages: 1 -->
<!--zoomable 302 -->

<svg id="main" version="1.1" xmlns="http://www.w3.org/2000/svg" xmlns:xlink="http://www.w3.org/1999/xlink" xml:space="preserve" onload="init(evt)">
<style type="text/css"><![CDATA[
.node, .edge {opacity: 0.7;}
.node.selected, .edge.selected {opacity: 1;}
.edge:hover path { stroke: red; }
.edge:hover polygon { stroke: red; fill: red; }
]]></style>

<defs>
  <circle id="rim" cx="0" cy="0" r="7"/>
  <circle id="rim2" cx="0" cy="0" r="3.5"/>
  <g id="zoomPlus">
    <use xlink:href="#rim" fill="#404040"><set attributeName="fill" to="#808080" begin="zoomplus.mouseover" end="zoomplus.mouseout"/></use>
    <path d="M-4,0h8M0,-4v8" fill="none" stroke="white" stroke-width="1.5" pointer-events="none"/>
  </g>
  <g id="zoomMin">
    <use xlink:href="#rim" fill="#404040"><set attributeName="fill" to="#808080" begin="zoomminus.mouseover" end="zoomminus.mouseout"/></use>
    <path d="M-4,0h8" fill="none" stroke="white" stroke-width="1.5" pointer-events="none"/>
  </g>
  <g id="arrowUp" transform="translate(30 24)">
    <use xlink:href="#rim"/>
    <path pointer-events="none" fill="none" stroke="white" stroke-width="1.5" d="M0,-3.0v7 M-2.5,-0.5L0,-3.0L2.5,-0.5"/>
  </g>
  <g id="arrowRight" transform="rotate(90) translate(36 -43)">
    <use xlink:href="#rim"/>
    <path pointer-events="none" fill="none" stroke="white" stroke-width="1.5" d="M0,-3.0v7 M-2.5,-0.5L0,-3.0L2.5,-0.5"/>
  </g>
  <g id="arrowDown" transform="rotate(180) translate(-30 -48)">
    <use xlink:href="#rim"/>
    <path pointer-events="none" fill="none" stroke="white" stroke-width="1.5" d="M0,-3.0v7 M-2.5,-0.5L0,-3.0L2.5,-0.5"/>
  </g>
  <g id="arrowLeft" transform="rotate(270) translate(-36 17)">
    <use xlink:href="#rim"/>
    <path pointer-events="none" fill="none" stroke="white" stroke-width="1.5" d="M0,-3.0v7 M-2.5,-0.5L0,-3.0L2.5,-0.5"/>
  </g>
  <g id="resetDef">
    <use xlink:href="#rim2" fill="#404040"><set attributeName="fill" to="#808080" begin="reset.mouseover" end="reset.mouseout"/></use>
  </g>
</defs>
<script type="application/ecmascript">
var viewWidth = 655;
var viewHeight = 302;
var sectionId = 'dynsection-1';
</script>
<script type="application/ecmascript" xlink:href="svg.min.js"/>
<svg id="graph" class="graph">
<g id="viewport">
<title>BaseStationCode/src/src/rpc.h</title>
<!-- Node1 -->
<g id="Node000001" class="node">
<title>Node1</title>
<g id="a_Node000001"><a xlink:title="Handles RPC calls.">
<polygon fill="#999999" stroke="#666666" points="382,-294 265,-294 265,-264 382,-264 382,-294"/>
<text text-anchor="start" x="273" y="-282" font-family="Helvetica,sans-Serif" font-size="10.00">BaseStationCode/src</text>
<text text-anchor="middle" x="323.5" y="-271" font-family="Helvetica,sans-Serif" font-size="10.00">/src/rpc.h</text>
</a>
</g>
</g>
<!-- Node2 -->
<g id="Node000002" class="node">
<title>Node2</title>
<g id="a_Node000002"><a xlink:href="main_8cpp.html" target="_top" xlink:title=" ">
<polygon fill="white" stroke="#666666" points="117,-30 0,-30 0,0 117,0 117,-30"/>
<text text-anchor="start" x="8" y="-18" font-family="Helvetica,sans-Serif" font-size="10.00">BaseStationCode/src</text>
<text text-anchor="middle" x="58.5" y="-7" font-family="Helvetica,sans-Serif" font-size="10.00">/main.cpp</text>
</a>
</g>
</g>
<!-- Node1&#45;&gt;Node2 -->
<g id="edge1_Node000001_Node000002" class="edge">
<title>Node1&#45;&gt;Node2</title>
<g id="a_edge1_Node000001_Node000002"><a xlink:title=" ">
<path fill="none" stroke="#63b8ff" d="M255,-265.68C196.84,-251.35 116.35,-221.57 74.5,-162 46.06,-121.52 51.54,-58.55 55.86,-30.42"/>
<polygon fill="#63b8ff" stroke="#63b8ff" points="254.32,-269.11 264.86,-268.01 255.94,-262.3 254.32,-269.11"/>
</a>
</g>
</g>
<!-- Node3 -->
<g id="Node000003" class="node">
<title>Node3</title>
<g id="a_Node000003"><a xlink:href="lora_8h.html" target="_top" xlink:title="File that handles the LoRa radio and PJON.">
<polygon fill="white" stroke="#666666" points="295,-228 178,-228 178,-198 295,-198 295,-228"/>
<text text-anchor="start" x="186" y="-216" font-family="Helvetica,sans-Serif" font-size="10.00">BaseStationCode/src</text>
<text text-anchor="middle" x="236.5" y="-205" font-family="Helvetica,sans-Serif" font-size="10.00">/src/lora.h</text>
</a>
</g>
</g>
<!-- Node1&#45;&gt;Node3 -->
<g id="edge2_Node000001_Node000003" class="edge">
<title>Node1&#45;&gt;Node3</title>
<g id="a_edge2_Node000001_Node000003"><a xlink:title=" ">
<path fill="none" stroke="#63b8ff" d="M295.98,-257.75C282.89,-248.13 267.57,-236.86 255.75,-228.16"/>
<polygon fill="#63b8ff" stroke="#63b8ff" points="294.06,-260.69 304.19,-263.8 298.21,-255.05 294.06,-260.69"/>
</a>
</g>
</g>
<!-- Node8 -->
<g id="Node000008" class="node">
<title>Node8</title>
<g id="a_Node000008"><a xlink:href="networking_8cpp.html" target="_top" xlink:title="File that handles connecting to WiFi and MQTT and staying connected.">
<polygon fill="white" stroke="#666666" points="647,-96 530,-96 530,-66 647,-66 647,-96"/>
<text text-anchor="start" x="538" y="-84" font-family="Helvetica,sans-Serif" font-size="10.00">BaseStationCode/src</text>
<text text-anchor="middle" x="588.5" y="-73" font-family="Helvetica,sans-Serif" font-size="10.00">/src/networking.cpp</text>
</a>
</g>
</g>
<!-- Node1&#45;&gt;Node8 -->
<g id="edge17_Node000001_Node000008" class="edge">
<title>Node1&#45;&gt;Node8</title>
<g id="a_edge17_Node000001_Node000008"><a xlink:title=" ">
<path fill="none" stroke="#63b8ff" d="M343.85,-256.13C360.03,-239.31 383.67,-215.99 406.5,-198 459.04,-156.61 526.8,-116.54 563,-96.08"/>
<polygon fill="#63b8ff" stroke="#63b8ff" points="340.89,-254.16 336.54,-263.81 345.97,-258.98 340.89,-254.16"/>
</a>
</g>
</g>
<!-- Node12 -->
<g id="Node000012" class="node">
<title>Node12</title>
<g id="a_Node000012"><a xlink:href="rpc_8cpp.html" target="_top" xlink:title="Handles RPC calls.">
<polygon fill="white" stroke="#666666" points="532,-228 415,-228 415,-198 532,-198 532,-228"/>
<text text-anchor="start" x="423" y="-216" font-family="Helvetica,sans-Serif" font-size="10.00">BaseStationCode/src</text>
<text text-anchor="middle" x="473.5" y="-205" font-family="Helvetica,sans-Serif" font-size="10.00">/src/rpc.cpp</text>
</a>
</g>
</g>
<!-- Node1&#45;&gt;Node12 -->
<g id="edge18_Node000001_Node000012" class="edge">
<title>Node1&#45;&gt;Node12</title>
<g id="a_edge18_Node000001_Node000012"><a xlink:title=" ">
<path fill="none" stroke="#63b8ff" d="M365.88,-259.92C389.58,-249.8 418.69,-237.38 440.66,-228.01"/>
<polygon fill="#63b8ff" stroke="#63b8ff" points="364.24,-256.81 356.42,-263.95 366.99,-263.25 364.24,-256.81"/>
</a>
</g>
</g>
<!-- Node3&#45;&gt;Node2 -->
<g id="edge3_Node000003_Node000002" class="edge">
<title>Node3&#45;&gt;Node2</title>
<g id="a_edge3_Node000003_Node000002"><a xlink:title=" ">
<path fill="none" stroke="#63b8ff" d="M167.95,-201.49C142.36,-194.31 115.04,-182.26 96.5,-162 61.84,-124.13 57.98,-58.67 58.07,-30.06"/>
<polygon fill="#63b8ff" stroke="#63b8ff" points="167.09,-204.88 177.65,-204 168.85,-198.1 167.09,-204.88"/>
</a>
</g>
</g>
<!-- Node4 -->
<g id="Node000004" class="node">
<title>Node4</title>
<g id="a_Node000004"><a xlink:href="lora_8cpp.html" target="_top" xlink:title="File that handles the LoRa radio and PJON.">
<polygon fill="white" stroke="#666666" points="223,-162 106,-162 106,-132 223,-132 223,-162"/>
<text text-anchor="start" x="114" y="-150" font-family="Helvetica,sans-Serif" font-size="10.00">BaseStationCode/src</text>
<text text-anchor="middle" x="164.5" y="-139" font-family="Helvetica,sans-Serif" font-size="10.00">/src/lora.cpp</text>
</a>
</g>
</g>
<!-- Node3&#45;&gt;Node4 -->
<g id="edge4_Node000003_Node000004" class="edge">
<title>Node3&#45;&gt;Node4</title>
<g id="a_edge4_Node000003_Node000004"><a xlink:title=" ">
<path fill="none" stroke="#63b8ff" d="M212.79,-190.92C202.17,-181.49 189.93,-170.61 180.43,-162.16"/>
<polygon fill="#63b8ff" stroke="#63b8ff" points="210.72,-193.77 220.52,-197.8 215.37,-188.54 210.72,-193.77"/>
</a>
</g>
</g>
<!-- Node5 -->
<g id="Node000005" class="node">
<title>Node5</title>
<g id="a_Node000005"><a xlink:href="networking_8h.html" target="_top" xlink:title="Header file for networking.cpp.">
<polygon fill="white" stroke="#666666" points="358,-162 241,-162 241,-132 358,-132 358,-162"/>
<text text-anchor="start" x="249" y="-150" font-family="Helvetica,sans-Serif" font-size="10.00">BaseStationCode/src</text>
<text text-anchor="middle" x="299.5" y="-139" font-family="Helvetica,sans-Serif" font-size="10.00">/src/networking.h</text>
</a>
</g>
</g>
<!-- Node3&#45;&gt;Node5 -->
<g id="edge5_Node000003_Node000005" class="edge">
<title>Node3&#45;&gt;Node5</title>
<g id="a_edge5_Node000003_Node000005"><a xlink:title=" ">
<path fill="none" stroke="#63b8ff" d="M251.63,-190.09C260.14,-180.85 270.71,-170.36 279.84,-162.16"/>
<polygon fill="#63b8ff" stroke="#63b8ff" points="248.8,-188 244.76,-197.8 254.03,-192.66 248.8,-188"/>
</a>
</g>
</g>
<!-- Node5&#45;&gt;Node1 -->
<g id="edge15_Node000005_Node000001" class="edge">
<title>Node5&#45;&gt;Node1</title>
<g id="a_edge15_Node000005_Node000001"><a xlink:title=" ">
<path fill="none" stroke="#63b8ff" d="M303.99,-172.3C308.96,-199.27 316.83,-241.86 320.89,-263.84"/>
<polygon fill="#63b8ff" stroke="#63b8ff" points="307.37,-171.34 302.11,-162.14 300.48,-172.61 307.37,-171.34"/>
</a>
</g>
</g>
<!-- Node5&#45;&gt;Node2 -->
<g id="edge6_Node000005_Node000002" class="edge">
<title>Node5&#45;&gt;Node2</title>
<g id="a_edge6_Node000005_Node000002"><a xlink:title=" ">
<path fill="none" stroke="#63b8ff" d="M230.82,-129.71C182.7,-117.89 125.31,-102.84 115.5,-96 91.15,-79.04 73.57,-48.17 64.8,-30.14"/>
<polygon fill="#63b8ff" stroke="#63b8ff" points="230.06,-133.13 240.61,-132.1 231.73,-126.33 230.06,-133.13"/>
</a>
</g>
</g>
<!-- Node5&#45;&gt;Node3 -->
<g id="edge10_Node000005_Node000003" class="edge">
<title>Node5&#45;&gt;Node3</title>
<g id="a_edge10_Node000005_Node000003"><a xlink:title=" ">
<path fill="none" stroke="#63b8ff" d="M284.41,-169.87C275.91,-179.1 265.34,-189.59 256.2,-197.8"/>
<polygon fill="#63b8ff" stroke="#63b8ff" points="287.24,-171.96 291.27,-162.16 282.01,-167.31 287.24,-171.96"/>
</a>
</g>
</g>
<!-- Node6 -->
<g id="Node000006" class="node">
<title>Node6</title>
<g id="a_Node000006"><a xlink:href="leds_8h.html" target="_top" xlink:title="Controls the LEDs on the unit.">
<polygon fill="white" stroke="#666666" points="242,-96 125,-96 125,-66 242,-66 242,-96"/>
<text text-anchor="start" x="133" y="-84" font-family="Helvetica,sans-Serif" font-size="10.00">BaseStationCode/src</text>
<text text-anchor="middle" x="183.5" y="-73" font-family="Helvetica,sans-Serif" font-size="10.00">/src/leds.h</text>
</a>
</g>
</g>
<!-- Node5&#45;&gt;Node6 -->
<g id="edge7_Node000005_Node000006" class="edge">
<title>Node5&#45;&gt;Node6</title>
<g id="a_edge7_Node000005_Node000006"><a xlink:title=" ">
<path fill="none" stroke="#63b8ff" d="M265.01,-126.97C247,-117.03 225.35,-105.09 208.9,-96.01"/>
<polygon fill="#63b8ff" stroke="#63b8ff" points="263.6,-130.19 274.04,-131.95 266.98,-124.06 263.6,-130.19"/>
</a>
</g>
</g>
<!-- Node5&#45;&gt;Node8 -->
<g id="edge11_Node000005_Node000008" class="edge">
<title>Node5&#45;&gt;Node8</title>
<g id="a_edge11_Node000005_Node000008"><a xlink:title=" ">
<path fill="none" stroke="#63b8ff" d="M368.26,-130.77C417.46,-119.88 482.99,-105.37 529.75,-95.01"/>
<polygon fill="#63b8ff" stroke="#63b8ff" points="367.34,-127.39 358.33,-132.97 368.85,-134.23 367.34,-127.39"/>
</a>
</g>
</g>
<!-- Node9 -->
<g id="Node000009" class="node">
<title>Node9</title>
<g id="a_Node000009"><a xlink:href="ota_8h.html" target="_top" xlink:title="Handles over the air (OTA) updates.">
<polygon fill="white" stroke="#666666" points="377,-96 260,-96 260,-66 377,-66 377,-96"/>
<text text-anchor="start" x="268" y="-84" font-family="Helvetica,sans-Serif" font-size="10.00">BaseStationCode/src</text>
<text text-anchor="middle" x="318.5" y="-73" font-family="Helvetica,sans-Serif" font-size="10.00">/src/ota.h</text>
</a>
</g>
</g>
<!-- Node5&#45;&gt;Node9 -->
<g id="edge12_Node000005_Node000009" class="edge">
<title>Node5&#45;&gt;Node9</title>
<g id="a_edge12_Node000005_Node000009"><a xlink:title=" ">
<path fill="none" stroke="#63b8ff" d="M306.59,-122.11C309.19,-113.38 312.03,-103.78 314.3,-96.16"/>
<polygon fill="#63b8ff" stroke="#63b8ff" points="303.21,-121.21 303.72,-131.8 309.92,-123.21 303.21,-121.21"/>
</a>
</g>
</g>
<!-- Node11 -->
<g id="Node000011" class="node">
<title>Node11</title>
<g id="a_Node000011"><a xlink:href="timeseries_8cpp.html" target="_top" xlink:title=" ">
<polygon fill="white" stroke="#666666" points="512,-96 395,-96 395,-66 512,-66 512,-96"/>
<text text-anchor="start" x="403" y="-84" font-family="Helvetica,sans-Serif" font-size="10.00">BaseStationCode/src</text>
<text text-anchor="middle" x="453.5" y="-73" font-family="Helvetica,sans-Serif" font-size="10.00">/src/timeseries.cpp</text>
</a>
</g>
</g>
<!-- Node5&#45;&gt;Node11 -->
<g id="edge16_Node000005_Node000011" class="edge">
<title>Node5&#45;&gt;Node11</title>
<g id="a_edge16_Node000005_Node000011"><a xlink:title=" ">
<path fill="none" stroke="#63b8ff" d="M342.68,-128.05C367.08,-117.91 397.13,-105.43 419.78,-96.01"/>
<polygon fill="#63b8ff" stroke="#63b8ff" points="341.19,-124.89 333.3,-131.95 343.87,-131.35 341.19,-124.89"/>
</a>
</g>
</g>
<!-- Node6&#45;&gt;Node2 -->
<g id="edge8_Node000006_Node000002" class="edge">
<title>Node6&#45;&gt;Node2</title>
<g id="a_edge8_Node000006_Node000002"><a xlink:title=" ">
<path fill="none" stroke="#63b8ff" d="M147.13,-61.38C127.57,-51.36 103.85,-39.22 85.87,-30.01"/>
<polygon fill="#63b8ff" stroke="#63b8ff" points="145.57,-64.51 156.07,-65.95 148.76,-58.28 145.57,-64.51"/>
</a>
</g>
</g>
<!-- Node7 -->
<g id="Node000007" class="node">
<title>Node7</title>
<g id="a_Node000007"><a xlink:href="leds_8cpp.html" target="_top" xlink:title="Controls the LEDs on the unit.">
<polygon fill="white" stroke="#666666" points="252,-30 135,-30 135,0 252,0 252,-30"/>
<text text-anchor="start" x="143" y="-18" font-family="Helvetica,sans-Serif" font-size="10.00">BaseStationCode/src</text>
<text text-anchor="middle" x="193.5" y="-7" font-family="Helvetica,sans-Serif" font-size="10.00">/src/leds.cpp</text>
</a>
</g>
</g>
<!-- Node6&#45;&gt;Node7 -->
<g id="edge9_Node000006_Node000007" class="edge">
<title>Node6&#45;&gt;Node7</title>
<g id="a_edge9_Node000006_Node000007"><a xlink:title=" ">
<path fill="none" stroke="#63b8ff" d="M187.28,-55.83C188.63,-47.17 190.11,-37.7 191.29,-30.16"/>
<polygon fill="#63b8ff" stroke="#63b8ff" points="183.81,-55.38 185.72,-65.8 190.72,-56.46 183.81,-55.38"/>
</a>
</g>
</g>
<!-- Node9&#45;&gt;Node2 -->
<g id="edge13_Node000009_Node000002" class="edge">
<title>Node9&#45;&gt;Node2</title>
<g id="a_edge13_Node000009_Node000002"><a xlink:title=" ">
<path fill="none" stroke="#63b8ff" d="M251.54,-63.52C209.37,-53.14 155.53,-39.88 115.43,-30.01"/>
<polygon fill="#63b8ff" stroke="#63b8ff" points="250.9,-66.96 261.44,-65.95 252.57,-60.17 250.9,-66.96"/>
</a>
</g>
</g>
<!-- Node10 -->
<g id="Node000010" class="node">
<title>Node10</title>
<g id="a_Node000010"><a xlink:href="ota_8cpp.html" target="_top" xlink:title="Handles over the air (OTA) updates.">
<polygon fill="white" stroke="#666666" points="387,-30 270,-30 270,0 387,0 387,-30"/>
<text text-anchor="start" x="278" y="-18" font-family="Helvetica,sans-Serif" font-size="10.00">BaseStationCode/src</text>
<text text-anchor="middle" x="328.5" y="-7" font-family="Helvetica,sans-Serif" font-size="10.00">/src/ota.cpp</text>
</a>
</g>
</g>
<!-- Node9&#45;&gt;Node10 -->
<g id="edge14_Node000009_Node000010" class="edge">
<title>Node9&#45;&gt;Node10</title>
<g id="a_edge14_Node000009_Node000010"><a xlink:title=" ">
<path fill="none" stroke="#63b8ff" d="M322.28,-55.83C323.63,-47.17 325.11,-37.7 326.29,-30.16"/>
<polygon fill="#63b8ff" stroke="#63b8ff" points="318.81,-55.38 320.72,-65.8 325.72,-56.46 318.81,-55.38"/>
</a>
</g>
</g>
</g>
</svg>

<g id="navigator" transform="translate(0 0)" fill="#404254">
  <rect fill="#f2f5e9" fill-opacity="0.5" stroke="#606060" stroke-width=".5" x="0" y="0" width="60" height="60"/>
  <use id="zoomplus" xlink:href="#zoomPlus" x="17" y="9" onmousedown="handleZoom(evt,'in')"/>
  <use id="zoomminus" xlink:href="#zoomMin" x="42" y="9" onmousedown="handleZoom(evt,'out')"/>
  <use id="reset" xlink:href="#resetDef" x="30" y="36" onmousedown="handleReset()"/>
   <use id="arrowup" xlink:href="#arrowUp" x="0" y="0" onmousedown="handlePan(0,-1)"/>
  <use id="arrowright" xlink:href="#arrowRight" x="0" y="0" onmousedown="handlePan(1,0)"/>
  <use id="arrowdown" xlink:href="#arrowDown" x="0" y="0" onmousedown="handlePan(0,1)"/>
  <use id="arrowleft" xlink:href="#arrowLeft" x="0" y="0" onmousedown="handlePan(-1,0)"/>
</g>
<svg viewBox="0 0 15 15" width="100%" height="30px" preserveAspectRatio="xMaxYMin meet">
 <g id="arrow_out" transform="scale(0.3 0.3)">
  <a xlink:href="rpc_8h__dep__incl_org.svg" target="_base">
   <rect id="button" ry="5" rx="5" y="6" x="6" height="38" width="38"
        fill="#f2f5e9" fill-opacity="0.5" stroke="#606060" stroke-width="1.0"/>
   <path id="arrow"
     d="M 11.500037,31.436501 C 11.940474,20.09759 22.043105,11.32322 32.158766,21.979434 L 37.068811,17.246167 C 37.068811,17.246167 37.088388,32 37.088388,32 L 22.160133,31.978069 C 22.160133,31.978069 26.997745,27.140456 26.997745,27.140456 C 18.528582,18.264221 13.291696,25.230495 11.500037,31.436501 z"
     style="fill:#404040;"/>
  </a>
 </g>
</svg>

<style type='text/css'>
<![CDATA[
[data-mouse-over-selected='false'] { opacity: 0.7; }
[data-mouse-over-selected='true']  { opacity: 1.0; }
]]>
</style>
<script type="application/ecmascript"><![CDATA[
document.addEventListener('DOMContentLoaded', (event) => {
  highlightEdges();
  highlightAdjacentNodes();
});
]]></script>
</svg>
