<?xml version="1.0" encoding="UTF-8" standalone="no"?>
<!DOCTYPE svg PUBLIC "-//W3C//DTD SVG 1.1//EN"
 "http://www.w3.org/Graphics/SVG/1.1/DTD/svg11.dtd">
<!-- Generated by graphviz version 2.43.0 (0)
 -->
<!-- Title: BaseStationCode/src/src/rpc.h Pages: 1 -->
<!--zoomable 307 -->
<svg id="main" version="1.1" xmlns="http://www.w3.org/2000/svg" xmlns:xlink="http://www.w3.org/1999/xlink" xml:space="preserve" onload="init(evt)">
<style type="text/css"><![CDATA[
.edge:hover path { stroke: red; }
.edge:hover polygon { stroke: red; fill: red; }
]]></style>
<script type="text/javascript"><![CDATA[
var edges = document.getElementsByTagName('g');
if (edges && edges.length) {
  for (var i=0;i<edges.length;i++) {
    if (edges[i].id.substr(0,4)=='edge') {
      edges[i].setAttribute('class','edge');
    }
  }
}
]]></script>
        <defs>
                <circle id="rim" cx="0" cy="0" r="7"/>
                <circle id="rim2" cx="0" cy="0" r="3.5"/>
                <g id="zoomPlus">
                        <use xlink:href="#rim" fill="#404040">
                                <set attributeName="fill" to="#808080" begin="zoomplus.mouseover" end="zoomplus.mouseout"/>
                        </use>
                        <path d="M-4,0h8M0,-4v8" fill="none" stroke="white" stroke-width="1.5" pointer-events="none"/>
                </g>
                <g id="zoomMin">
                        <use xlink:href="#rim" fill="#404040">
                                <set attributeName="fill" to="#808080" begin="zoomminus.mouseover" end="zoomminus.mouseout"/>
                        </use>
                        <path d="M-4,0h8" fill="none" stroke="white" stroke-width="1.5" pointer-events="none"/>
                </g>
                <g id="dirArrow">
                        <path fill="none" stroke="white" stroke-width="1.5" d="M0,-3.0v7 M-2.5,-0.5L0,-3.0L2.5,-0.5"/>
                </g>
               <g id="resetDef">
                       <use xlink:href="#rim2" fill="#404040">
                               <set attributeName="fill" to="#808080" begin="reset.mouseover" end="reset.mouseout"/>
                       </use>
               </g>
        </defs>

<script type="text/javascript">
var viewWidth = 655;
var viewHeight = 307;
var sectionId = 'dynsection-1';
</script>
<script xlink:href="svgpan.js"/>
<svg id="graph" class="graph">
<g id="viewport">
<title>BaseStationCode/src/src/rpc.h</title>
<polygon fill="white" stroke="transparent" points="-4,4 -4,-303 651,-303 651,4 -4,4"/>
<!-- Node1 -->
<g id="node1" class="node">
<title>Node1</title>
<g id="a_node1"><a xlink:title="Handles RPC calls.">
<polygon fill="#bfbfbf" stroke="black" points="265,-268.5 265,-298.5 382,-298.5 382,-268.5 265,-268.5"/>
<text text-anchor="start" x="273" y="-286.5" font-family="Helvetica,sans-Serif" font-size="10.00">BaseStationCode/src</text>
<text text-anchor="middle" x="323.5" y="-275.5" font-family="Helvetica,sans-Serif" font-size="10.00">/src/rpc.h</text>
</a>
</g>
</g>
<!-- Node2 -->
<g id="node2" class="node">
<title>Node2</title>
<g id="a_node2"><a xlink:href="main_8cpp.html" target="_top" xlink:title=" ">
<polygon fill="white" stroke="black" points="0,-0.5 0,-30.5 117,-30.5 117,-0.5 0,-0.5"/>
<text text-anchor="start" x="8" y="-18.5" font-family="Helvetica,sans-Serif" font-size="10.00">BaseStationCode/src</text>
<text text-anchor="middle" x="58.5" y="-7.5" font-family="Helvetica,sans-Serif" font-size="10.00">/main.cpp</text>
</a>
</g>
</g>
<!-- Node1&#45;&gt;Node2 -->
<g id="edge1" class="edge">
<title>Node1&#45;&gt;Node2</title>
<path fill="none" stroke="midnightblue" d="M255.01,-270.14C196.41,-255.67 115.12,-225.51 73.5,-165 44.86,-123.37 51.15,-59 55.77,-30.69"/>
<polygon fill="midnightblue" stroke="midnightblue" points="254.4,-273.6 264.94,-272.5 256.02,-266.78 254.4,-273.6"/>
</g>
<!-- Node3 -->
<g id="node3" class="node">
<title>Node3</title>
<g id="a_node3"><a xlink:href="lora_8h.html" target="_top" xlink:title="File that handles the LoRa radio and PJON.">
<polygon fill="white" stroke="black" points="178,-201.5 178,-231.5 295,-231.5 295,-201.5 178,-201.5"/>
<text text-anchor="start" x="186" y="-219.5" font-family="Helvetica,sans-Serif" font-size="10.00">BaseStationCode/src</text>
<text text-anchor="middle" x="236.5" y="-208.5" font-family="Helvetica,sans-Serif" font-size="10.00">/src/lora.h</text>
</a>
</g>
</g>
<!-- Node1&#45;&gt;Node3 -->
<g id="edge2" class="edge">
<title>Node1&#45;&gt;Node3</title>
<path fill="none" stroke="midnightblue" d="M296.29,-262.17C282.98,-252.23 267.3,-240.51 255.34,-231.58"/>
<polygon fill="midnightblue" stroke="midnightblue" points="294.52,-265.21 304.62,-268.4 298.71,-259.61 294.52,-265.21"/>
</g>
<!-- Node8 -->
<g id="node8" class="node">
<title>Node8</title>
<g id="a_node8"><a xlink:href="networking_8cpp.html" target="_top" xlink:title="File that handles connecting to WiFi and MQTT and staying connected.">
<polygon fill="white" stroke="black" points="530,-67.5 530,-97.5 647,-97.5 647,-67.5 530,-67.5"/>
<text text-anchor="start" x="538" y="-85.5" font-family="Helvetica,sans-Serif" font-size="10.00">BaseStationCode/src</text>
<text text-anchor="middle" x="588.5" y="-74.5" font-family="Helvetica,sans-Serif" font-size="10.00">/src/networking.cpp</text>
</a>
</g>
</g>
<!-- Node1&#45;&gt;Node8 -->
<g id="edge17" class="edge">
<title>Node1&#45;&gt;Node8</title>
<path fill="none" stroke="midnightblue" d="M343.08,-260.99C359.26,-243.8 383.25,-219.6 406.5,-201 459.07,-158.94 527.1,-118.25 563.28,-97.58"/>
<polygon fill="midnightblue" stroke="midnightblue" points="340.48,-258.64 336.23,-268.35 345.61,-263.41 340.48,-258.64"/>
</g>
<!-- Node12 -->
<g id="node12" class="node">
<title>Node12</title>
<g id="a_node12"><a xlink:href="rpc_8cpp.html" target="_top" xlink:title="Handles RPC calls.">
<polygon fill="white" stroke="black" points="415,-201.5 415,-231.5 532,-231.5 532,-201.5 415,-201.5"/>
<text text-anchor="start" x="423" y="-219.5" font-family="Helvetica,sans-Serif" font-size="10.00">BaseStationCode/src</text>
<text text-anchor="middle" x="473.5" y="-208.5" font-family="Helvetica,sans-Serif" font-size="10.00">/src/rpc.cpp</text>
</a>
</g>
</g>
<!-- Node1&#45;&gt;Node12 -->
<g id="edge18" class="edge">
<title>Node1&#45;&gt;Node12</title>
<path fill="none" stroke="midnightblue" d="M365.25,-264.41C389.2,-254.03 418.82,-241.2 441.02,-231.58"/>
<polygon fill="midnightblue" stroke="midnightblue" points="363.83,-261.21 356.05,-268.4 366.61,-267.63 363.83,-261.21"/>
</g>
<!-- Node3&#45;&gt;Node2 -->
<g id="edge3" class="edge">
<title>Node3&#45;&gt;Node2</title>
<path fill="none" stroke="midnightblue" d="M168.21,-204.86C142.52,-197.61 115.07,-185.43 96.5,-165 61.42,-126.4 57.78,-59.86 58,-30.79"/>
<polygon fill="midnightblue" stroke="midnightblue" points="167.39,-208.26 177.95,-207.4 169.16,-201.49 167.39,-208.26"/>
</g>
<!-- Node4 -->
<g id="node4" class="node">
<title>Node4</title>
<g id="a_node4"><a xlink:href="lora_8cpp.html" target="_top" xlink:title="File that handles the LoRa radio and PJON.">
<polygon fill="white" stroke="black" points="106,-134.5 106,-164.5 223,-164.5 223,-134.5 106,-134.5"/>
<text text-anchor="start" x="114" y="-152.5" font-family="Helvetica,sans-Serif" font-size="10.00">BaseStationCode/src</text>
<text text-anchor="middle" x="164.5" y="-141.5" font-family="Helvetica,sans-Serif" font-size="10.00">/src/lora.cpp</text>
</a>
</g>
</g>
<!-- Node3&#45;&gt;Node4 -->
<g id="edge4" class="edge">
<title>Node3&#45;&gt;Node4</title>
<path fill="none" stroke="midnightblue" d="M213.35,-194.6C202.48,-184.78 189.8,-173.34 180.09,-164.58"/>
<polygon fill="midnightblue" stroke="midnightblue" points="211.11,-197.29 220.88,-201.4 215.8,-192.1 211.11,-197.29"/>
</g>
<!-- Node5 -->
<g id="node5" class="node">
<title>Node5</title>
<g id="a_node5"><a xlink:href="networking_8h.html" target="_top" xlink:title="Header file for networking.cpp.">
<polygon fill="white" stroke="black" points="241,-134.5 241,-164.5 358,-164.5 358,-134.5 241,-134.5"/>
<text text-anchor="start" x="249" y="-152.5" font-family="Helvetica,sans-Serif" font-size="10.00">BaseStationCode/src</text>
<text text-anchor="middle" x="299.5" y="-141.5" font-family="Helvetica,sans-Serif" font-size="10.00">/src/networking.h</text>
</a>
</g>
</g>
<!-- Node3&#45;&gt;Node5 -->
<g id="edge5" class="edge">
<title>Node3&#45;&gt;Node5</title>
<path fill="none" stroke="midnightblue" d="M251.18,-193.74C259.88,-184.12 270.81,-173.09 280.18,-164.58"/>
<polygon fill="midnightblue" stroke="midnightblue" points="248.43,-191.56 244.49,-201.4 253.71,-196.17 248.43,-191.56"/>
</g>
<!-- Node5&#45;&gt;Node1 -->
<g id="edge15" class="edge">
<title>Node5&#45;&gt;Node1</title>
<path fill="none" stroke="midnightblue" d="M303.86,-174.49C308.85,-201.92 316.85,-245.94 320.93,-268.37"/>
<polygon fill="midnightblue" stroke="midnightblue" points="307.28,-173.74 302.05,-164.52 300.4,-174.99 307.28,-173.74"/>
</g>
<!-- Node5&#45;&gt;Node2 -->
<g id="edge6" class="edge">
<title>Node5&#45;&gt;Node2</title>
<path fill="none" stroke="midnightblue" d="M230.8,-132.04C182.68,-120.11 125.28,-104.9 115.5,-98 90.81,-80.59 73.24,-48.9 64.59,-30.58"/>
<polygon fill="midnightblue" stroke="midnightblue" points="230.05,-135.46 240.59,-134.46 231.72,-128.66 230.05,-135.46"/>
</g>
<!-- Node5&#45;&gt;Node3 -->
<g id="edge10" class="edge">
<title>Node5&#45;&gt;Node3</title>
<path fill="none" stroke="midnightblue" d="M284.85,-172.23C276.16,-181.85 265.22,-192.88 255.85,-201.4"/>
<polygon fill="midnightblue" stroke="midnightblue" points="287.59,-174.41 291.53,-164.58 282.32,-169.81 287.59,-174.41"/>
</g>
<!-- Node6 -->
<g id="node6" class="node">
<title>Node6</title>
<g id="a_node6"><a xlink:href="leds_8h.html" target="_top" xlink:title="Controls the LEDs on the unit.">
<polygon fill="white" stroke="black" points="125,-67.5 125,-97.5 242,-97.5 242,-67.5 125,-67.5"/>
<text text-anchor="start" x="133" y="-85.5" font-family="Helvetica,sans-Serif" font-size="10.00">BaseStationCode/src</text>
<text text-anchor="middle" x="183.5" y="-74.5" font-family="Helvetica,sans-Serif" font-size="10.00">/src/leds.h</text>
</a>
</g>
</g>
<!-- Node5&#45;&gt;Node6 -->
<g id="edge7" class="edge">
<title>Node5&#45;&gt;Node6</title>
<path fill="none" stroke="midnightblue" d="M265.23,-129.3C247.08,-119.12 225.18,-106.85 208.62,-97.58"/>
<polygon fill="midnightblue" stroke="midnightblue" points="263.9,-132.56 274.33,-134.4 267.32,-126.45 263.9,-132.56"/>
</g>
<!-- Node5&#45;&gt;Node8 -->
<g id="edge11" class="edge">
<title>Node5&#45;&gt;Node8</title>
<path fill="none" stroke="midnightblue" d="M368.26,-133.04C417.46,-121.97 482.99,-107.23 529.75,-96.71"/>
<polygon fill="midnightblue" stroke="midnightblue" points="367.32,-129.66 358.33,-135.27 368.86,-136.49 367.32,-129.66"/>
</g>
<!-- Node9 -->
<g id="node9" class="node">
<title>Node9</title>
<g id="a_node9"><a xlink:href="ota_8h.html" target="_top" xlink:title="Handles over the air (OTA) updates.">
<polygon fill="white" stroke="black" points="260,-67.5 260,-97.5 377,-97.5 377,-67.5 260,-67.5"/>
<text text-anchor="start" x="268" y="-85.5" font-family="Helvetica,sans-Serif" font-size="10.00">BaseStationCode/src</text>
<text text-anchor="middle" x="318.5" y="-74.5" font-family="Helvetica,sans-Serif" font-size="10.00">/src/ota.h</text>
</a>
</g>
</g>
<!-- Node5&#45;&gt;Node9 -->
<g id="edge12" class="edge">
<title>Node5&#45;&gt;Node9</title>
<path fill="none" stroke="midnightblue" d="M306.46,-124.7C309.12,-115.59 312.07,-105.49 314.39,-97.58"/>
<polygon fill="midnightblue" stroke="midnightblue" points="303.07,-123.82 303.62,-134.4 309.79,-125.78 303.07,-123.82"/>
</g>
<!-- Node11 -->
<g id="node11" class="node">
<title>Node11</title>
<g id="a_node11"><a xlink:href="timeseries_8cpp.html" target="_top" xlink:title=" ">
<polygon fill="white" stroke="black" points="395,-67.5 395,-97.5 512,-97.5 512,-67.5 395,-67.5"/>
<text text-anchor="start" x="403" y="-85.5" font-family="Helvetica,sans-Serif" font-size="10.00">BaseStationCode/src</text>
<text text-anchor="middle" x="453.5" y="-74.5" font-family="Helvetica,sans-Serif" font-size="10.00">/src/timeseries.cpp</text>
</a>
</g>
</g>
<!-- Node5&#45;&gt;Node11 -->
<g id="edge16" class="edge">
<title>Node5&#45;&gt;Node11</title>
<path fill="none" stroke="midnightblue" d="M342.37,-130.41C366.95,-120.03 397.36,-107.2 420.15,-97.58"/>
<polygon fill="midnightblue" stroke="midnightblue" points="340.77,-127.28 332.92,-134.4 343.49,-133.73 340.77,-127.28"/>
</g>
<!-- Node6&#45;&gt;Node2 -->
<g id="edge8" class="edge">
<title>Node6&#45;&gt;Node2</title>
<path fill="none" stroke="midnightblue" d="M147.37,-62.71C127.66,-52.46 103.66,-39.98 85.57,-30.58"/>
<polygon fill="midnightblue" stroke="midnightblue" points="145.89,-65.89 156.38,-67.4 149.12,-59.68 145.89,-65.89"/>
</g>
<!-- Node7 -->
<g id="node7" class="node">
<title>Node7</title>
<g id="a_node7"><a xlink:href="leds_8cpp.html" target="_top" xlink:title="Controls the LEDs on the unit.">
<polygon fill="white" stroke="black" points="135,-0.5 135,-30.5 252,-30.5 252,-0.5 135,-0.5"/>
<text text-anchor="start" x="143" y="-18.5" font-family="Helvetica,sans-Serif" font-size="10.00">BaseStationCode/src</text>
<text text-anchor="middle" x="193.5" y="-7.5" font-family="Helvetica,sans-Serif" font-size="10.00">/src/leds.cpp</text>
</a>
</g>
</g>
<!-- Node6&#45;&gt;Node7 -->
<g id="edge9" class="edge">
<title>Node6&#45;&gt;Node7</title>
<path fill="none" stroke="midnightblue" d="M187.21,-57.4C188.6,-48.37 190.13,-38.41 191.33,-30.58"/>
<polygon fill="midnightblue" stroke="midnightblue" points="183.73,-56.98 185.67,-67.4 190.65,-58.04 183.73,-56.98"/>
</g>
<!-- Node9&#45;&gt;Node2 -->
<g id="edge13" class="edge">
<title>Node9&#45;&gt;Node2</title>
<path fill="none" stroke="midnightblue" d="M252.44,-64.98C209.97,-54.37 155.38,-40.72 114.94,-30.61"/>
<polygon fill="midnightblue" stroke="midnightblue" points="251.85,-68.45 262.4,-67.48 253.55,-61.66 251.85,-68.45"/>
</g>
<!-- Node10 -->
<g id="node10" class="node">
<title>Node10</title>
<g id="a_node10"><a xlink:href="ota_8cpp.html" target="_top" xlink:title="Handles over the air (OTA) updates.">
<polygon fill="white" stroke="black" points="270,-0.5 270,-30.5 387,-30.5 387,-0.5 270,-0.5"/>
<text text-anchor="start" x="278" y="-18.5" font-family="Helvetica,sans-Serif" font-size="10.00">BaseStationCode/src</text>
<text text-anchor="middle" x="328.5" y="-7.5" font-family="Helvetica,sans-Serif" font-size="10.00">/src/ota.cpp</text>
</a>
</g>
</g>
<!-- Node9&#45;&gt;Node10 -->
<g id="edge14" class="edge">
<title>Node9&#45;&gt;Node10</title>
<path fill="none" stroke="midnightblue" d="M322.21,-57.4C323.6,-48.37 325.13,-38.41 326.33,-30.58"/>
<polygon fill="midnightblue" stroke="midnightblue" points="318.73,-56.98 320.67,-67.4 325.65,-58.04 318.73,-56.98"/>
</g>
</g>
</svg>
        <g id="navigator" transform="translate(0 0)" fill="#404254">
                <rect fill="#f2f5e9" fill-opacity="0.5" stroke="#606060" stroke-width=".5" x="0" y="0" width="60" height="60"/>
                <use id="zoomplus" xlink:href="#zoomPlus" x="17" y="9" onmousedown="handleZoom(evt,'in')"/>
                <use id="zoomminus" xlink:href="#zoomMin" x="42" y="9" onmousedown="handleZoom(evt,'out')"/>
                <use id="reset" xlink:href="#resetDef" x="30" y="36" onmousedown="handleReset()"/>
                <g id="arrowUp" xlink:href="#dirArrow" transform="translate(30 24)" onmousedown="handlePan(0,-1)">
                  <use xlink:href="#rim" fill="#404040">
                        <set attributeName="fill" to="#808080" begin="arrowUp.mouseover" end="arrowUp.mouseout"/>
                  </use>
                  <path fill="none" stroke="white" stroke-width="1.5" d="M0,-3.0v7 M-2.5,-0.5L0,-3.0L2.5,-0.5"/>
                </g>
                <g id="arrowRight" xlink:href="#dirArrow" transform="rotate(90) translate(36 -43)" onmousedown="handlePan(1,0)">
                  <use xlink:href="#rim" fill="#404040">
                        <set attributeName="fill" to="#808080" begin="arrowRight.mouseover" end="arrowRight.mouseout"/>
                  </use>
                  <path fill="none" stroke="white" stroke-width="1.5" d="M0,-3.0v7 M-2.5,-0.5L0,-3.0L2.5,-0.5"/>
                </g>
                <g id="arrowDown" xlink:href="#dirArrow" transform="rotate(180) translate(-30 -48)" onmousedown="handlePan(0,1)">
                  <use xlink:href="#rim" fill="#404040">
                        <set attributeName="fill" to="#808080" begin="arrowDown.mouseover" end="arrowDown.mouseout"/>
                  </use>
                  <path fill="none" stroke="white" stroke-width="1.5" d="M0,-3.0v7 M-2.5,-0.5L0,-3.0L2.5,-0.5"/>
                </g>
                <g id="arrowLeft" xlink:href="#dirArrow" transform="rotate(270) translate(-36 17)" onmousedown="handlePan(-1,0)">
                  <use xlink:href="#rim" fill="#404040">
                        <set attributeName="fill" to="#808080" begin="arrowLeft.mouseover" end="arrowLeft.mouseout"/>
                  </use>
                  <path fill="none" stroke="white" stroke-width="1.5" d="M0,-3.0v7 M-2.5,-0.5L0,-3.0L2.5,-0.5"/>
                </g>
        </g>
        <svg viewBox="0 0 15 15" width="100%" height="30px" preserveAspectRatio="xMaxYMin meet">
         <g id="arrow_out" transform="scale(0.3 0.3)">
          <a xlink:href="rpc_8h__dep__incl_org.svg" target="_base">
           <rect id="button" ry="5" rx="5" y="6" x="6" height="38" width="38"
                fill="#f2f5e9" fill-opacity="0.5" stroke="#606060" stroke-width="1.0"/>
           <path id="arrow"
             d="M 11.500037,31.436501 C 11.940474,20.09759 22.043105,11.32322 32.158766,21.979434 L 37.068811,17.246167 C 37.068811,17.246167 37.088388,32 37.088388,32 L 22.160133,31.978069 C 22.160133,31.978069 26.997745,27.140456 26.997745,27.140456 C 18.528582,18.264221 13.291696,25.230495 11.500037,31.436501 z"
             style="fill:#404040;"/>
          </a>
         </g>
        </svg>
</svg>
