<?xml version="1.0" encoding="UTF-8" standalone="no"?>
<!DOCTYPE svg PUBLIC "-//W3C//DTD SVG 1.1//EN"
 "http://www.w3.org/Graphics/SVG/1.1/DTD/svg11.dtd">
<!-- Generated by graphviz version 2.43.0 (0)
 -->
<!-- Title: mqttReceived Pages: 1 -->
<svg width="407pt" height="142pt"
 viewBox="0.00 0.00 407.00 142.00" xmlns="http://www.w3.org/2000/svg" xmlns:xlink="http://www.w3.org/1999/xlink">
<g id="graph0" class="graph" transform="scale(1 1) rotate(0) translate(4 138)">
<title>mqttReceived</title>
<polygon fill="white" stroke="transparent" points="-4,4 -4,-138 403,-138 403,4 -4,4"/>
<!-- Node1 -->
<g id="node1" class="node">
<title>Node1</title>
<g id="a_node1"><a xlink:title="Function that is called when an mqtt message is received.">
<polygon fill="#bfbfbf" stroke="black" points="0,-38.5 0,-57.5 85,-57.5 85,-38.5 0,-38.5"/>
<text text-anchor="middle" x="42.5" y="-45.5" font-family="Helvetica,sans-Serif" font-size="10.00">mqttReceived</text>
</a>
</g>
</g>
<!-- Node2 -->
<g id="node2" class="node">
<title>Node2</title>
<g id="a_node2"><a xlink:href="rpc_8cpp.html#a4cfe66424e5527493ec95bc8ffed5bc7" target="_top" xlink:title="Handles an RPC message addressed to remote devices.">
<polygon fill="white" stroke="black" points="121,-76.5 121,-95.5 196,-95.5 196,-76.5 121,-76.5"/>
<text text-anchor="middle" x="158.5" y="-83.5" font-family="Helvetica,sans-Serif" font-size="10.00">rpcGateway</text>
</a>
</g>
</g>
<!-- Node1&#45;&gt;Node2 -->
<g id="edge1" class="edge">
<title>Node1&#45;&gt;Node2</title>
<path fill="none" stroke="midnightblue" d="M72.27,-57.59C86.44,-62.31 103.74,-68.08 119.03,-73.18"/>
<polygon fill="midnightblue" stroke="midnightblue" points="118.15,-76.57 128.74,-76.41 120.36,-69.93 118.15,-76.57"/>
</g>
<!-- Node5 -->
<g id="node5" class="node">
<title>Node5</title>
<g id="a_node5"><a xlink:href="rpc_8cpp.html#ae128ecfe100603224c2fda1ff5f5ce0a" target="_top" xlink:title="Handles an RPC message addressed to this device (not one of the remote devices).">
<polygon fill="white" stroke="black" points="135,-38.5 135,-57.5 182,-57.5 182,-38.5 135,-38.5"/>
<text text-anchor="middle" x="158.5" y="-45.5" font-family="Helvetica,sans-Serif" font-size="10.00">rpcMe</text>
</a>
</g>
</g>
<!-- Node1&#45;&gt;Node5 -->
<g id="edge4" class="edge">
<title>Node1&#45;&gt;Node5</title>
<path fill="none" stroke="midnightblue" d="M85.3,-48C98.28,-48 112.39,-48 124.66,-48"/>
<polygon fill="midnightblue" stroke="midnightblue" points="124.9,-51.5 134.9,-48 124.9,-44.5 124.9,-51.5"/>
</g>
<!-- Node7 -->
<g id="node7" class="node">
<title>Node7</title>
<g id="a_node7"><a xlink:href="rpc_8cpp.html#adfc4d7c2e3b046a5fb41b597ebd9f727" target="_top" xlink:title="Checks if one string starts with another (quicker than strstr?)">
<polygon fill="white" stroke="black" points="125,-0.5 125,-19.5 192,-19.5 192,-0.5 125,-0.5"/>
<text text-anchor="middle" x="158.5" y="-7.5" font-family="Helvetica,sans-Serif" font-size="10.00">startsWith</text>
</a>
</g>
</g>
<!-- Node1&#45;&gt;Node7 -->
<g id="edge6" class="edge">
<title>Node1&#45;&gt;Node7</title>
<path fill="none" stroke="midnightblue" d="M72.27,-38.41C86.44,-33.69 103.74,-27.92 119.03,-22.82"/>
<polygon fill="midnightblue" stroke="midnightblue" points="120.36,-26.07 128.74,-19.59 118.15,-19.43 120.36,-26.07"/>
</g>
<!-- Node3 -->
<g id="node3" class="node">
<title>Node3</title>
<g id="a_node3"><a xlink:href="class_lookup_manager.html#aaa9c3082dae381c5079f5346e3c9426b" target="_top" xlink:title="Gets the object matching the given name.">
<polygon fill="white" stroke="black" points="232,-114.5 232,-133.5 399,-133.5 399,-114.5 232,-114.5"/>
<text text-anchor="middle" x="315.5" y="-121.5" font-family="Helvetica,sans-Serif" font-size="10.00">LookupManager::getWithName</text>
</a>
</g>
</g>
<!-- Node2&#45;&gt;Node3 -->
<g id="edge2" class="edge">
<title>Node2&#45;&gt;Node3</title>
<path fill="none" stroke="midnightblue" d="M195.22,-95.59C206.92,-98.67 220,-102.05 232,-105 241.74,-107.4 252.15,-109.87 262.18,-112.2"/>
<polygon fill="midnightblue" stroke="midnightblue" points="261.52,-115.64 272.05,-114.48 263.09,-108.82 261.52,-115.64"/>
</g>
<!-- Node4 -->
<g id="node4" class="node">
<title>Node4</title>
<g id="a_node4"><a xlink:href="class_field.html#a9b3b13d9abe0884a93b294edc0396f74" target="_top" xlink:title="handles an RPC call for a field.">
<polygon fill="white" stroke="black" points="267,-76.5 267,-95.5 364,-95.5 364,-76.5 267,-76.5"/>
<text text-anchor="middle" x="315.5" y="-83.5" font-family="Helvetica,sans-Serif" font-size="10.00">Field::handleRpc</text>
</a>
</g>
</g>
<!-- Node2&#45;&gt;Node4 -->
<g id="edge3" class="edge">
<title>Node2&#45;&gt;Node4</title>
<path fill="none" stroke="midnightblue" d="M196.23,-86C214.31,-86 236.52,-86 256.79,-86"/>
<polygon fill="midnightblue" stroke="midnightblue" points="256.87,-89.5 266.87,-86 256.87,-82.5 256.87,-89.5"/>
</g>
<!-- Node6 -->
<g id="node6" class="node">
<title>Node6</title>
<g id="a_node6"><a xlink:href="rpc_8cpp.html#a8d99d63355a7dac3b1264ced57f255d9" target="_top" xlink:title="Replies to an RPC message for this device.">
<polygon fill="white" stroke="black" points="278.5,-38.5 278.5,-57.5 352.5,-57.5 352.5,-38.5 278.5,-38.5"/>
<text text-anchor="middle" x="315.5" y="-45.5" font-family="Helvetica,sans-Serif" font-size="10.00">replyMeRpc</text>
</a>
</g>
</g>
<!-- Node5&#45;&gt;Node6 -->
<g id="edge5" class="edge">
<title>Node5&#45;&gt;Node6</title>
<path fill="none" stroke="midnightblue" d="M182.04,-48C204.55,-48 239.8,-48 268.28,-48"/>
<polygon fill="midnightblue" stroke="midnightblue" points="268.43,-51.5 278.43,-48 268.43,-44.5 268.43,-51.5"/>
</g>
</g>
</svg>
