<?xml version="1.0" encoding="UTF-8" standalone="no"?>
<!DOCTYPE svg PUBLIC "-//W3C//DTD SVG 1.1//EN"
 "http://www.w3.org/Graphics/SVG/1.1/DTD/svg11.dtd">
<!-- Generated by graphviz version 2.43.0 (0)
 -->
<!-- Title: BaseStationCode/src/src/rpc.h Pages: 1 -->
<svg width="566pt" height="423pt"
 viewBox="0.00 0.00 565.50 423.00" xmlns="http://www.w3.org/2000/svg" xmlns:xlink="http://www.w3.org/1999/xlink">
<g id="graph0" class="graph" transform="scale(1 1) rotate(0) translate(4 419)">
<title>BaseStationCode/src/src/rpc.h</title>
<!-- Node1 -->
<g id="Node000001" class="node">
<title>Node1</title>
<g id="a_Node000001"><a xlink:title="Handles RPC calls.">
<polygon fill="#999999" stroke="#666666" points="269.5,-415 152.5,-415 152.5,-385 269.5,-385 269.5,-415"/>
<text text-anchor="start" x="160.5" y="-403" font-family="Helvetica,sans-Serif" font-size="10.00">BaseStationCode/src</text>
<text text-anchor="middle" x="211" y="-392" font-family="Helvetica,sans-Serif" font-size="10.00">/src/rpc.h</text>
</a>
</g>
</g>
<!-- Node2 -->
<g id="Node000002" class="node">
<title>Node2</title>
<g id="a_Node000002"><a xlink:href="defines_8h.html" target="_top" xlink:title="Definitions and other preprocessor and global stuff.">
<polygon fill="white" stroke="#666666" points="325,-74 255,-74 255,-55 325,-55 325,-74"/>
<text text-anchor="middle" x="290" y="-62" font-family="Helvetica,sans-Serif" font-size="10.00">../defines.h</text>
</a>
</g>
</g>
<!-- Node1&#45;&gt;Node2 -->
<g id="edge1_Node000001_Node000002" class="edge">
<title>Node1&#45;&gt;Node2</title>
<g id="a_edge1_Node000001_Node000002"><a xlink:title=" ">
<path fill="none" stroke="#63b8ff" d="M269.58,-395.83C339.77,-388.51 448,-364.42 448,-285.5 448,-285.5 448,-285.5 448,-173.5 448,-118.4 381.7,-89.37 335,-75.75"/>
<polygon fill="#63b8ff" stroke="#63b8ff" points="335.64,-72.3 325.07,-73 333.77,-79.04 335.64,-72.3"/>
</a>
</g>
</g>
<!-- Node8 -->
<g id="Node000008" class="node">
<title>Node8</title>
<g id="a_Node000008"><a xlink:href="topics_8h.html" target="_top" xlink:title="MQTT topics for a thingsboard gateway.">
<polygon fill="white" stroke="#666666" points="72,-19 0,-19 0,0 72,0 72,-19"/>
<text text-anchor="middle" x="36" y="-7" font-family="Helvetica,sans-Serif" font-size="10.00">src/topics.h</text>
</a>
</g>
</g>
<!-- Node1&#45;&gt;Node8 -->
<g id="edge8_Node000001_Node000008" class="edge">
<title>Node1&#45;&gt;Node8</title>
<g id="a_edge8_Node000001_Node000008"><a xlink:title=" ">
<path fill="none" stroke="#63b8ff" d="M152.24,-386.57C101.4,-371.97 36,-342.17 36,-285.5 36,-285.5 36,-285.5 36,-118.5 36,-87.19 36,-50.77 36,-29.23"/>
<polygon fill="#63b8ff" stroke="#63b8ff" points="39.5,-29.18 36,-19.18 32.5,-29.18 39.5,-29.18"/>
</a>
</g>
</g>
<!-- Node9 -->
<g id="Node000009" class="node">
<title>Node9</title>
<g id="a_Node000009"><a xlink:href="alarm_8h.html" target="_top" xlink:title="Handles alarms.">
<polygon fill="white" stroke="#666666" points="131,-294 77,-294 77,-275 131,-275 131,-294"/>
<text text-anchor="middle" x="104" y="-282" font-family="Helvetica,sans-Serif" font-size="10.00">alarm.h</text>
</a>
</g>
</g>
<!-- Node1&#45;&gt;Node9 -->
<g id="edge9_Node000001_Node000009" class="edge">
<title>Node1&#45;&gt;Node9</title>
<g id="a_edge9_Node000001_Node000009"><a xlink:title=" ">
<path fill="none" stroke="#63b8ff" d="M195.63,-384.91C185.08,-375.08 170.9,-361.53 159,-349 144.48,-333.7 128.81,-315.42 117.93,-302.41"/>
<polygon fill="#63b8ff" stroke="#63b8ff" points="120.31,-299.81 111.23,-294.35 114.93,-304.28 120.31,-299.81"/>
</a>
</g>
</g>
<!-- Node10 -->
<g id="Node000010" class="node">
<title>Node10</title>
<g id="a_Node000010"><a xlink:href="devices_8h.html" target="_top" xlink:title="Devices and manager for all known devices the base station connects to.">
<polygon fill="white" stroke="#666666" points="267.5,-239 204.5,-239 204.5,-220 267.5,-220 267.5,-239"/>
<text text-anchor="middle" x="236" y="-227" font-family="Helvetica,sans-Serif" font-size="10.00">devices.h</text>
</a>
</g>
</g>
<!-- Node1&#45;&gt;Node10 -->
<g id="edge11_Node000001_Node000010" class="edge">
<title>Node1&#45;&gt;Node10</title>
<g id="a_edge11_Node000001_Node000010"><a xlink:title=" ">
<path fill="none" stroke="#63b8ff" d="M213.09,-384.92C217.58,-354.65 228.16,-283.35 233.22,-249.27"/>
<polygon fill="#63b8ff" stroke="#63b8ff" points="236.7,-249.66 234.7,-239.25 229.77,-248.63 236.7,-249.66"/>
</a>
</g>
</g>
<!-- Node12 -->
<g id="Node000012" class="node">
<title>Node12</title>
<g id="a_Node000012"><a xlink:href="fields_8h.html" target="_top" xlink:title="Contains fields classes.">
<polygon fill="white" stroke="#666666" points="230,-184 178,-184 178,-165 230,-165 230,-184"/>
<text text-anchor="middle" x="204" y="-172" font-family="Helvetica,sans-Serif" font-size="10.00">fields.h</text>
</a>
</g>
</g>
<!-- Node1&#45;&gt;Node12 -->
<g id="edge20_Node000001_Node000012" class="edge">
<title>Node1&#45;&gt;Node12</title>
<g id="a_edge20_Node000001_Node000012"><a xlink:title=" ">
<path fill="none" stroke="#63b8ff" d="M207.87,-384.6C201.65,-354.19 188.88,-281.16 195,-220 195.85,-211.47 197.61,-202.16 199.34,-194.27"/>
<polygon fill="#63b8ff" stroke="#63b8ff" points="202.8,-194.82 201.68,-184.29 195.99,-193.22 202.8,-194.82"/>
</a>
</g>
</g>
<!-- Node14 -->
<g id="Node000014" class="node">
<title>Node14</title>
<g id="a_Node000014"><a xlink:href="networking_8h.html" target="_top" xlink:title="Header file for networking.cpp.">
<polygon fill="white" stroke="#666666" points="319,-349 239,-349 239,-330 319,-330 319,-349"/>
<text text-anchor="middle" x="279" y="-337" font-family="Helvetica,sans-Serif" font-size="10.00">networking.h</text>
</a>
</g>
</g>
<!-- Node1&#45;&gt;Node14 -->
<g id="edge21_Node000001_Node000014" class="edge">
<title>Node1&#45;&gt;Node14</title>
<g id="a_edge21_Node000001_Node000014"><a xlink:title=" ">
<path fill="none" stroke="#63b8ff" d="M227.46,-384.84C237.63,-376.09 250.69,-364.85 261.12,-355.88"/>
<polygon fill="#63b8ff" stroke="#63b8ff" points="263.51,-358.44 268.81,-349.27 258.95,-353.13 263.51,-358.44"/>
</a>
</g>
</g>
<!-- Node3 -->
<g id="Node000003" class="node">
<title>Node3</title>
<g id="a_Node000003"><a xlink:title=" ">
<polygon fill="#e0e0e0" stroke="#999999" points="557.5,-19 494.5,-19 494.5,0 557.5,0 557.5,-19"/>
<text text-anchor="middle" x="526" y="-7" font-family="Helvetica,sans-Serif" font-size="10.00">Arduino.h</text>
</a>
</g>
</g>
<!-- Node2&#45;&gt;Node3 -->
<g id="edge2_Node000002_Node000003" class="edge">
<title>Node2&#45;&gt;Node3</title>
<g id="a_edge2_Node000002_Node000003"><a xlink:title=" ">
<path fill="none" stroke="#63b8ff" d="M325.08,-55.62C367.57,-46.08 439.09,-30.02 484.35,-19.85"/>
<polygon fill="#63b8ff" stroke="#63b8ff" points="485.15,-23.26 494.14,-17.66 483.62,-16.43 485.15,-23.26"/>
</a>
</g>
</g>
<!-- Node4 -->
<g id="Node000004" class="node">
<title>Node4</title>
<g id="a_Node000004"><a xlink:title=" ">
<polygon fill="#e0e0e0" stroke="#999999" points="137.5,-19 90.5,-19 90.5,0 137.5,0 137.5,-19"/>
<text text-anchor="middle" x="114" y="-7" font-family="Helvetica,sans-Serif" font-size="10.00">WiFi.h</text>
</a>
</g>
</g>
<!-- Node2&#45;&gt;Node4 -->
<g id="edge3_Node000002_Node000004" class="edge">
<title>Node2&#45;&gt;Node4</title>
<g id="a_edge3_Node000002_Node000004"><a xlink:title=" ">
<path fill="none" stroke="#63b8ff" d="M261.72,-54.98C230.55,-45.6 180.44,-30.51 147.37,-20.55"/>
<polygon fill="#63b8ff" stroke="#63b8ff" points="148.28,-17.17 137.69,-17.63 146.26,-23.87 148.28,-17.17"/>
</a>
</g>
</g>
<!-- Node5 -->
<g id="Node000005" class="node">
<title>Node5</title>
<g id="a_Node000005"><a xlink:title=" ">
<polygon fill="#e0e0e0" stroke="#999999" points="246,-19 156,-19 156,0 246,0 246,-19"/>
<text text-anchor="middle" x="201" y="-7" font-family="Helvetica,sans-Serif" font-size="10.00">PubSubClient.h</text>
</a>
</g>
</g>
<!-- Node2&#45;&gt;Node5 -->
<g id="edge4_Node000002_Node000005" class="edge">
<title>Node2&#45;&gt;Node5</title>
<g id="a_edge4_Node000002_Node000005"><a xlink:title=" ">
<path fill="none" stroke="#63b8ff" d="M275.7,-54.98C261.9,-46.77 240.76,-34.18 224.49,-24.49"/>
<polygon fill="#63b8ff" stroke="#63b8ff" points="225.94,-21.28 215.56,-19.17 222.36,-27.29 225.94,-21.28"/>
</a>
</g>
</g>
<!-- Node6 -->
<g id="Node000006" class="node">
<title>Node6</title>
<g id="a_Node000006"><a xlink:title=" ">
<polygon fill="#e0e0e0" stroke="#999999" points="347.5,-19 264.5,-19 264.5,0 347.5,0 347.5,-19"/>
<text text-anchor="middle" x="306" y="-7" font-family="Helvetica,sans-Serif" font-size="10.00">ArduinoJson.h</text>
</a>
</g>
</g>
<!-- Node2&#45;&gt;Node6 -->
<g id="edge5_Node000002_Node000006" class="edge">
<title>Node2&#45;&gt;Node6</title>
<g id="a_edge5_Node000002_Node000006"><a xlink:title=" ">
<path fill="none" stroke="#63b8ff" d="M292.64,-54.75C294.76,-47.72 297.81,-37.62 300.46,-28.84"/>
<polygon fill="#63b8ff" stroke="#63b8ff" points="303.87,-29.67 303.41,-19.09 297.17,-27.65 303.87,-29.67"/>
</a>
</g>
</g>
<!-- Node7 -->
<g id="Node000007" class="node">
<title>Node7</title>
<g id="a_Node000007"><a xlink:title=" ">
<polygon fill="#e0e0e0" stroke="#999999" points="476,-19 366,-19 366,0 476,0 476,-19"/>
<text text-anchor="middle" x="421" y="-7" font-family="Helvetica,sans-Serif" font-size="10.00">PJONThroughLora.h</text>
</a>
</g>
</g>
<!-- Node2&#45;&gt;Node7 -->
<g id="edge6_Node000002_Node000007" class="edge">
<title>Node2&#45;&gt;Node7</title>
<g id="a_edge6_Node000002_Node000007"><a xlink:title=" ">
<path fill="none" stroke="#63b8ff" d="M311.05,-54.98C332.41,-46.34 365.7,-32.87 390.06,-23.02"/>
<polygon fill="#63b8ff" stroke="#63b8ff" points="391.61,-26.17 399.57,-19.17 388.99,-19.68 391.61,-26.17"/>
</a>
</g>
</g>
<!-- Node2&#45;&gt;Node8 -->
<g id="edge7_Node000002_Node000008" class="edge">
<title>Node2&#45;&gt;Node8</title>
<g id="a_edge7_Node000002_Node000008"><a xlink:title=" ">
<path fill="none" stroke="#63b8ff" d="M254.95,-56.19C210.01,-46.81 131.95,-30.52 82.19,-20.14"/>
<polygon fill="#63b8ff" stroke="#63b8ff" points="82.84,-16.7 72.33,-18.08 81.41,-23.55 82.84,-16.7"/>
</a>
</g>
</g>
<!-- Node9&#45;&gt;Node2 -->
<g id="edge10_Node000009_Node000002" class="edge">
<title>Node9&#45;&gt;Node2</title>
<g id="a_edge10_Node000009_Node000002"><a xlink:title=" ">
<path fill="none" stroke="#63b8ff" d="M99.78,-274.71C87.13,-246.98 52.86,-160.22 93,-110 111.63,-86.7 192.52,-74.71 244.68,-69.29"/>
<polygon fill="#63b8ff" stroke="#63b8ff" points="245.1,-72.77 254.71,-68.3 244.41,-65.81 245.1,-72.77"/>
</a>
</g>
</g>
<!-- Node10&#45;&gt;Node2 -->
<g id="edge12_Node000010_Node000002" class="edge">
<title>Node10&#45;&gt;Node2</title>
<g id="a_edge12_Node000010_Node000002"><a xlink:title=" ">
<path fill="none" stroke="#63b8ff" d="M246.29,-219.96C264.37,-204.21 301.2,-168.57 315,-129 320.59,-112.98 312.1,-95 303.53,-82.28"/>
<polygon fill="#63b8ff" stroke="#63b8ff" points="306.22,-80.03 297.48,-74.05 300.58,-84.18 306.22,-80.03"/>
</a>
</g>
</g>
<!-- Node11 -->
<g id="Node000011" class="node">
<title>Node11</title>
<g id="a_Node000011"><a xlink:href="lookups_8h.html" target="_top" xlink:title="Lookupable and lookupable manager base classes.">
<polygon fill="white" stroke="#666666" points="305.5,-129 242.5,-129 242.5,-110 305.5,-110 305.5,-129"/>
<text text-anchor="middle" x="274" y="-117" font-family="Helvetica,sans-Serif" font-size="10.00">lookups.h</text>
</a>
</g>
</g>
<!-- Node10&#45;&gt;Node11 -->
<g id="edge13_Node000010_Node000011" class="edge">
<title>Node10&#45;&gt;Node11</title>
<g id="a_edge13_Node000010_Node000011"><a xlink:title=" ">
<path fill="none" stroke="#63b8ff" d="M239.11,-219.66C245.32,-202.01 259.37,-162.09 267.62,-138.64"/>
<polygon fill="#63b8ff" stroke="#63b8ff" points="270.94,-139.75 270.95,-129.16 264.33,-137.43 270.94,-139.75"/>
</a>
</g>
</g>
<!-- Node10&#45;&gt;Node12 -->
<g id="edge15_Node000010_Node000012" class="edge">
<title>Node10&#45;&gt;Node12</title>
<g id="a_edge15_Node000010_Node000012"><a xlink:title=" ">
<path fill="none" stroke="#63b8ff" d="M230.72,-219.75C226.29,-212.42 219.84,-201.73 214.38,-192.7"/>
<polygon fill="#63b8ff" stroke="#63b8ff" points="217.35,-190.84 209.19,-184.09 211.36,-194.46 217.35,-190.84"/>
</a>
</g>
</g>
<!-- Node11&#45;&gt;Node2 -->
<g id="edge14_Node000011_Node000002" class="edge">
<title>Node11&#45;&gt;Node2</title>
<g id="a_edge14_Node000011_Node000002"><a xlink:title=" ">
<path fill="none" stroke="#63b8ff" d="M276.64,-109.75C278.76,-102.72 281.81,-92.62 284.46,-83.84"/>
<polygon fill="#63b8ff" stroke="#63b8ff" points="287.87,-84.67 287.41,-74.09 281.17,-82.65 287.87,-84.67"/>
</a>
</g>
</g>
<!-- Node12&#45;&gt;Node2 -->
<g id="edge16_Node000012_Node000002" class="edge">
<title>Node12&#45;&gt;Node2</title>
<g id="a_edge16_Node000012_Node000002"><a xlink:title=" ">
<path fill="none" stroke="#63b8ff" d="M206.76,-164.58C211.07,-151.6 220.37,-127.2 234,-110 243.25,-98.33 256.13,-87.83 267.2,-79.96"/>
<polygon fill="#63b8ff" stroke="#63b8ff" points="269.3,-82.77 275.59,-74.24 265.35,-76.98 269.3,-82.77"/>
</a>
</g>
</g>
<!-- Node12&#45;&gt;Node11 -->
<g id="edge17_Node000012_Node000011" class="edge">
<title>Node12&#45;&gt;Node11</title>
<g id="a_edge17_Node000012_Node000011"><a xlink:title=" ">
<path fill="none" stroke="#63b8ff" d="M215.25,-164.98C225.8,-157 241.8,-144.88 254.44,-135.31"/>
<polygon fill="#63b8ff" stroke="#63b8ff" points="256.69,-138 262.55,-129.17 252.46,-132.42 256.69,-138"/>
</a>
</g>
</g>
<!-- Node13 -->
<g id="Node000013" class="node">
<title>Node13</title>
<g id="a_Node000013"><a xlink:href="conversions_8h.html" target="_top" xlink:title="General functions for converting to and from char arrays.">
<polygon fill="white" stroke="#666666" points="186,-129 102,-129 102,-110 186,-110 186,-129"/>
<text text-anchor="middle" x="144" y="-117" font-family="Helvetica,sans-Serif" font-size="10.00">conversions.h</text>
</a>
</g>
</g>
<!-- Node12&#45;&gt;Node13 -->
<g id="edge18_Node000012_Node000013" class="edge">
<title>Node12&#45;&gt;Node13</title>
<g id="a_edge18_Node000012_Node000013"><a xlink:title=" ">
<path fill="none" stroke="#63b8ff" d="M194.36,-164.98C185.49,-157.15 172.13,-145.34 161.39,-135.86"/>
<polygon fill="#63b8ff" stroke="#63b8ff" points="163.63,-133.17 153.82,-129.17 158.99,-138.41 163.63,-133.17"/>
</a>
</g>
</g>
<!-- Node13&#45;&gt;Node2 -->
<g id="edge19_Node000013_Node000002" class="edge">
<title>Node13&#45;&gt;Node2</title>
<g id="a_edge19_Node000013_Node000002"><a xlink:title=" ">
<path fill="none" stroke="#63b8ff" d="M167.46,-109.98C191.58,-101.23 229.37,-87.51 256.6,-77.62"/>
<polygon fill="#63b8ff" stroke="#63b8ff" points="257.91,-80.87 266.12,-74.17 255.52,-74.29 257.91,-80.87"/>
</a>
</g>
</g>
<!-- Node14&#45;&gt;Node2 -->
<g id="edge22_Node000014_Node000002" class="edge">
<title>Node14&#45;&gt;Node2</title>
<g id="a_edge22_Node000014_Node000002"><a xlink:title=" ">
<path fill="none" stroke="#63b8ff" d="M305.83,-329.98C344.15,-315.92 410,-284 410,-230.5 410,-230.5 410,-230.5 410,-173.5 410,-126.36 358.2,-94.54 322.67,-78.26"/>
<polygon fill="#63b8ff" stroke="#63b8ff" points="323.7,-74.89 313.14,-74.09 320.89,-81.31 323.7,-74.89"/>
</a>
</g>
</g>
<!-- Node14&#45;&gt;Node10 -->
<g id="edge23_Node000014_Node000010" class="edge">
<title>Node14&#45;&gt;Node10</title>
<g id="a_edge23_Node000014_Node000010"><a xlink:title=" ">
<path fill="none" stroke="#63b8ff" d="M275.48,-329.66C268.45,-312.01 252.56,-272.09 243.22,-248.64"/>
<polygon fill="#63b8ff" stroke="#63b8ff" points="246.4,-247.15 239.45,-239.16 239.89,-249.74 246.4,-247.15"/>
</a>
</g>
</g>
<!-- Node15 -->
<g id="Node000015" class="node">
<title>Node15</title>
<g id="a_Node000015"><a xlink:href="lora_8h.html" target="_top" xlink:title="File that handles the LoRa radio and PJON.">
<polygon fill="white" stroke="#666666" points="321,-294 277,-294 277,-275 321,-275 321,-294"/>
<text text-anchor="middle" x="299" y="-282" font-family="Helvetica,sans-Serif" font-size="10.00">lora.h</text>
</a>
</g>
</g>
<!-- Node14&#45;&gt;Node15 -->
<g id="edge24_Node000014_Node000015" class="edge">
<title>Node14&#45;&gt;Node15</title>
<g id="a_edge24_Node000014_Node000015"><a xlink:title=" ">
<path fill="none" stroke="#63b8ff" d="M277.14,-329.75C278.31,-322.49 281.88,-311.95 286.01,-302.98"/>
<polygon fill="#63b8ff" stroke="#63b8ff" points="289.13,-304.58 290.63,-294.09 282.92,-301.35 289.13,-304.58"/>
</a>
</g>
</g>
<!-- Node15&#45;&gt;Node1 -->
<g id="edge29_Node000015_Node000001" class="edge">
<title>Node15&#45;&gt;Node1</title>
<g id="a_edge29_Node000015_Node000001"><a xlink:title=" ">
<path fill="none" stroke="#63b8ff" d="M308.33,-294.15C320.8,-306.8 340.02,-330.79 328,-349 316.7,-366.11 298.22,-377.39 279.24,-384.81"/>
<polygon fill="#63b8ff" stroke="#63b8ff" points="277.85,-381.59 269.61,-388.25 280.21,-388.18 277.85,-381.59"/>
</a>
</g>
</g>
<!-- Node15&#45;&gt;Node2 -->
<g id="edge25_Node000015_Node000002" class="edge">
<title>Node15&#45;&gt;Node2</title>
<g id="a_edge25_Node000015_Node000002"><a xlink:title=" ">
<path fill="none" stroke="#63b8ff" d="M303.56,-274.9C316.6,-249.09 351.71,-170.37 329,-110 324.82,-98.89 316.48,-88.75 308.57,-80.96"/>
<polygon fill="#63b8ff" stroke="#63b8ff" points="310.72,-78.19 300.99,-74.01 305.99,-83.35 310.72,-78.19"/>
</a>
</g>
</g>
<!-- Node15&#45;&gt;Node10 -->
<g id="edge27_Node000015_Node000010" class="edge">
<title>Node15&#45;&gt;Node10</title>
<g id="a_edge27_Node000015_Node000010"><a xlink:title=" ">
<path fill="none" stroke="#63b8ff" d="M288.88,-274.98C279.56,-267.15 265.53,-255.34 254.26,-245.86"/>
<polygon fill="#63b8ff" stroke="#63b8ff" points="256.21,-242.93 246.31,-239.17 251.71,-248.29 256.21,-242.93"/>
</a>
</g>
</g>
<!-- Node15&#45;&gt;Node11 -->
<g id="edge26_Node000015_Node000011" class="edge">
<title>Node15&#45;&gt;Node11</title>
<g id="a_edge26_Node000015_Node000011"><a xlink:title=" ">
<path fill="none" stroke="#63b8ff" d="M297.66,-274.74C293.74,-249.2 282.27,-174.43 276.87,-139.23"/>
<polygon fill="#63b8ff" stroke="#63b8ff" points="280.33,-138.66 275.35,-129.31 273.41,-139.72 280.33,-138.66"/>
</a>
</g>
</g>
<!-- Node15&#45;&gt;Node14 -->
<g id="edge28_Node000015_Node000014" class="edge">
<title>Node15&#45;&gt;Node14</title>
<g id="a_edge28_Node000015_Node000014"><a xlink:title=" ">
<path fill="none" stroke="#63b8ff" d="M300.89,-294.09C299.75,-301.29 296.2,-311.82 292.08,-320.82"/>
<polygon fill="#63b8ff" stroke="#63b8ff" points="288.95,-319.26 287.47,-329.75 295.17,-322.47 288.95,-319.26"/>
</a>
</g>
</g>
</g>
</svg>
