<?xml version="1.0" encoding="UTF-8" standalone="no"?>
<!DOCTYPE svg PUBLIC "-//W3C//DTD SVG 1.1//EN"
 "http://www.w3.org/Graphics/SVG/1.1/DTD/svg11.dtd">
<!-- Generated by graphviz version 2.43.0 (0)
 -->
<!-- Title: resetReasonName Pages: 1 -->
<svg width="586pt" height="27pt"
 viewBox="0.00 0.00 586.00 27.00" xmlns="http://www.w3.org/2000/svg" xmlns:xlink="http://www.w3.org/1999/xlink">
<g id="graph0" class="graph" transform="scale(1 1) rotate(0) translate(4 23)">
<title>resetReasonName</title>
<!-- Node1 -->
<g id="Node000001" class="node">
<title>Node1</title>
<g id="a_Node000001"><a xlink:title="Converts a reset reason returned by esp_reset_reason() into a string.">
<polygon fill="#999999" stroke="#666666" points="578,-19 471,-19 471,0 578,0 578,-19"/>
<text text-anchor="middle" x="524.5" y="-7" font-family="Helvetica,sans-Serif" font-size="10.00">resetReasonName</text>
</a>
</g>
</g>
<!-- Node2 -->
<g id="Node000002" class="node">
<title>Node2</title>
<g id="a_Node000002"><a xlink:href="rpc_8cpp.html#a966e66eaf82bb85dffba775b5442f3f6" target="_top" xlink:title="Informs thingsboard what software version is running. This does not use a queue as this could be sent...">
<polygon fill="white" stroke="#666666" points="435,-19 325,-19 325,0 435,0 435,-19"/>
<text text-anchor="middle" x="380" y="-7" font-family="Helvetica,sans-Serif" font-size="10.00">setVersionAttribute</text>
</a>
</g>
</g>
<!-- Node1&#45;&gt;Node2 -->
<g id="edge1_Node000001_Node000002" class="edge">
<title>Node1&#45;&gt;Node2</title>
<g id="a_edge1_Node000001_Node000002"><a xlink:title=" ">
<path fill="none" stroke="#63b8ff" d="M460.66,-9.5C452.22,-9.5 443.62,-9.5 435.35,-9.5"/>
<polygon fill="#63b8ff" stroke="#63b8ff" points="460.84,-13 470.84,-9.5 460.84,-6 460.84,-13"/>
</a>
</g>
</g>
<!-- Node3 -->
<g id="Node000003" class="node">
<title>Node3</title>
<g id="a_Node000003"><a xlink:href="networking_8cpp.html#a9ad5cb858c24c53a6eaa846b713bd120" target="_top" xlink:title="Connects to the MQTT broker.">
<polygon fill="white" stroke="#666666" points="289,-19 209,-19 209,0 289,0 289,-19"/>
<text text-anchor="middle" x="249" y="-7" font-family="Helvetica,sans-Serif" font-size="10.00">mqttConnect</text>
</a>
</g>
</g>
<!-- Node2&#45;&gt;Node3 -->
<g id="edge2_Node000002_Node000003" class="edge">
<title>Node2&#45;&gt;Node3</title>
<g id="a_edge2_Node000002_Node000003"><a xlink:title=" ">
<path fill="none" stroke="#63b8ff" d="M314.6,-9.5C305.99,-9.5 297.38,-9.5 289.38,-9.5"/>
<polygon fill="#63b8ff" stroke="#63b8ff" points="314.67,-13 324.67,-9.5 314.67,-6 314.67,-13"/>
</a>
</g>
</g>
<!-- Node4 -->
<g id="Node000004" class="node">
<title>Node4</title>
<g id="a_Node000004"><a xlink:href="networking_8cpp.html#ad26b4549029330bc2b554fa4ed1e5bc7" target="_top" xlink:title=" ">
<polygon fill="white" stroke="#666666" points="173,-19 80,-19 80,0 173,0 173,-19"/>
<text text-anchor="middle" x="126.5" y="-7" font-family="Helvetica,sans-Serif" font-size="10.00">networkingTask</text>
</a>
</g>
</g>
<!-- Node3&#45;&gt;Node4 -->
<g id="edge3_Node000003_Node000004" class="edge">
<title>Node3&#45;&gt;Node4</title>
<g id="a_edge3_Node000003_Node000004"><a xlink:title=" ">
<path fill="none" stroke="#63b8ff" d="M198.74,-9.5C190.27,-9.5 181.5,-9.5 173.13,-9.5"/>
<polygon fill="#63b8ff" stroke="#63b8ff" points="198.88,-13 208.88,-9.5 198.88,-6 198.88,-13"/>
</a>
</g>
</g>
<!-- Node5 -->
<g id="Node000005" class="node">
<title>Node5</title>
<g id="a_Node000005"><a xlink:href="main_8cpp.html#a4fc01d736fe50cf5b977f755b675f11d" target="_top" xlink:title=" ">
<polygon fill="white" stroke="#666666" points="44,-19 0,-19 0,0 44,0 44,-19"/>
<text text-anchor="middle" x="22" y="-7" font-family="Helvetica,sans-Serif" font-size="10.00">setup</text>
</a>
</g>
</g>
<!-- Node4&#45;&gt;Node5 -->
<g id="edge4_Node000004_Node000005" class="edge">
<title>Node4&#45;&gt;Node5</title>
<g id="a_edge4_Node000004_Node000005"><a xlink:title=" ">
<path fill="none" stroke="#63b8ff" d="M69.93,-9.5C60.73,-9.5 51.7,-9.5 44.07,-9.5"/>
<polygon fill="#63b8ff" stroke="#63b8ff" points="69.95,-13 79.95,-9.5 69.95,-6 69.95,-13"/>
</a>
</g>
</g>
</g>
</svg>
