<?xml version="1.0" encoding="UTF-8" standalone="no"?>
<!DOCTYPE svg PUBLIC "-//W3C//DTD SVG 1.1//EN"
 "http://www.w3.org/Graphics/SVG/1.1/DTD/svg11.dtd">
<!-- Generated by graphviz version 2.43.0 (0)
 -->
<!-- Title: ESP32BaseStation/src/rpc.h Pages: 1 -->
<svg width="379pt" height="240pt"
 viewBox="0.00 0.00 379.00 240.00" xmlns="http://www.w3.org/2000/svg" xmlns:xlink="http://www.w3.org/1999/xlink">
<g id="graph0" class="graph" transform="scale(1 1) rotate(0) translate(4 236)">
<title>ESP32BaseStation/src/rpc.h</title>
<polygon fill="white" stroke="transparent" points="-4,4 -4,-236 375,-236 375,4 -4,4"/>
<!-- Node1 -->
<g id="node1" class="node">
<title>Node1</title>
<g id="a_node1"><a xlink:title="Handles RPC calls.">
<polygon fill="#bfbfbf" stroke="black" points="160,-201.5 160,-231.5 282,-231.5 282,-201.5 160,-201.5"/>
<text text-anchor="start" x="168" y="-219.5" font-family="Helvetica,sans-Serif" font-size="10.00">ESP32BaseStation/src</text>
<text text-anchor="middle" x="221" y="-208.5" font-family="Helvetica,sans-Serif" font-size="10.00">/rpc.h</text>
</a>
</g>
</g>
<!-- Node2 -->
<g id="node2" class="node">
<title>Node2</title>
<g id="a_node2"><a xlink:href="_e_s_p32_base_station_8ino.html" target="_top" xlink:title="Main file for a base station to connect to remote sensors on a farm.">
<polygon fill="white" stroke="black" points="0,-0.5 0,-30.5 162,-30.5 162,-0.5 0,-0.5"/>
<text text-anchor="start" x="8" y="-18.5" font-family="Helvetica,sans-Serif" font-size="10.00">ESP32BaseStation/ESP32Base</text>
<text text-anchor="middle" x="81" y="-7.5" font-family="Helvetica,sans-Serif" font-size="10.00">Station.ino</text>
</a>
</g>
</g>
<!-- Node1&#45;&gt;Node2 -->
<g id="edge1" class="edge">
<title>Node1&#45;&gt;Node2</title>
<path fill="none" stroke="midnightblue" d="M149.97,-207.06C123.88,-200.12 96.87,-187.59 81,-165 52.11,-123.86 67.23,-59.23 76.08,-30.77"/>
<polygon fill="midnightblue" stroke="midnightblue" points="149.35,-210.51 159.89,-209.45 150.99,-203.7 149.35,-210.51"/>
</g>
<!-- Node3 -->
<g id="node3" class="node">
<title>Node3</title>
<g id="a_node3"><a xlink:href="lora_8h.html" target="_top" xlink:title="File that handles the LoRa radio and PJON.">
<polygon fill="white" stroke="black" points="90,-134.5 90,-164.5 212,-164.5 212,-134.5 90,-134.5"/>
<text text-anchor="start" x="98" y="-152.5" font-family="Helvetica,sans-Serif" font-size="10.00">ESP32BaseStation/src</text>
<text text-anchor="middle" x="151" y="-141.5" font-family="Helvetica,sans-Serif" font-size="10.00">/lora.h</text>
</a>
</g>
</g>
<!-- Node1&#45;&gt;Node3 -->
<g id="edge2" class="edge">
<title>Node1&#45;&gt;Node3</title>
<path fill="none" stroke="midnightblue" d="M198.18,-194.31C187.68,-184.56 175.51,-173.26 166.16,-164.58"/>
<polygon fill="midnightblue" stroke="midnightblue" points="196.1,-197.16 205.81,-201.4 200.86,-192.03 196.1,-197.16"/>
</g>
<!-- Node7 -->
<g id="node7" class="node">
<title>Node7</title>
<g id="a_node7"><a xlink:href="rpc_8cpp.html" target="_top" xlink:title="Handles RPC calls.">
<polygon fill="white" stroke="black" points="230,-134.5 230,-164.5 352,-164.5 352,-134.5 230,-134.5"/>
<text text-anchor="start" x="238" y="-152.5" font-family="Helvetica,sans-Serif" font-size="10.00">ESP32BaseStation/src</text>
<text text-anchor="middle" x="291" y="-141.5" font-family="Helvetica,sans-Serif" font-size="10.00">/rpc.cpp</text>
</a>
</g>
</g>
<!-- Node1&#45;&gt;Node7 -->
<g id="edge10" class="edge">
<title>Node1&#45;&gt;Node7</title>
<path fill="none" stroke="midnightblue" d="M243.82,-194.31C254.32,-184.56 266.49,-173.26 275.84,-164.58"/>
<polygon fill="midnightblue" stroke="midnightblue" points="241.14,-192.03 236.19,-201.4 245.9,-197.16 241.14,-192.03"/>
</g>
<!-- Node3&#45;&gt;Node2 -->
<g id="edge3" class="edge">
<title>Node3&#45;&gt;Node2</title>
<path fill="none" stroke="midnightblue" d="M124.39,-127.54C115.43,-119.23 106.16,-109.02 100,-98 87.95,-76.44 83.52,-47.57 81.91,-30.61"/>
<polygon fill="midnightblue" stroke="midnightblue" points="122.28,-130.34 132.09,-134.33 126.9,-125.09 122.28,-130.34"/>
</g>
<!-- Node4 -->
<g id="node4" class="node">
<title>Node4</title>
<g id="a_node4"><a xlink:href="lora_8cpp.html" target="_top" xlink:title="File that handles the LoRa radio and PJON.">
<polygon fill="white" stroke="black" points="109,-67.5 109,-97.5 231,-97.5 231,-67.5 109,-67.5"/>
<text text-anchor="start" x="117" y="-85.5" font-family="Helvetica,sans-Serif" font-size="10.00">ESP32BaseStation/src</text>
<text text-anchor="middle" x="170" y="-74.5" font-family="Helvetica,sans-Serif" font-size="10.00">/lora.cpp</text>
</a>
</g>
</g>
<!-- Node3&#45;&gt;Node4 -->
<g id="edge4" class="edge">
<title>Node3&#45;&gt;Node4</title>
<path fill="none" stroke="midnightblue" d="M157.96,-124.7C160.62,-115.59 163.57,-105.49 165.89,-97.58"/>
<polygon fill="midnightblue" stroke="midnightblue" points="154.57,-123.82 155.12,-134.4 161.29,-125.78 154.57,-123.82"/>
</g>
<!-- Node5 -->
<g id="node5" class="node">
<title>Node5</title>
<g id="a_node5"><a xlink:href="networking_8h.html" target="_top" xlink:title="Header file for networking.cpp.">
<polygon fill="white" stroke="black" points="249,-67.5 249,-97.5 371,-97.5 371,-67.5 249,-67.5"/>
<text text-anchor="start" x="257" y="-85.5" font-family="Helvetica,sans-Serif" font-size="10.00">ESP32BaseStation/src</text>
<text text-anchor="middle" x="310" y="-74.5" font-family="Helvetica,sans-Serif" font-size="10.00">/networking.h</text>
</a>
</g>
</g>
<!-- Node3&#45;&gt;Node5 -->
<g id="edge5" class="edge">
<title>Node3&#45;&gt;Node5</title>
<path fill="none" stroke="midnightblue" d="M189.14,-130.41C213.56,-120.03 245.1,-107.2 269.89,-97.58"/>
<polygon fill="midnightblue" stroke="midnightblue" points="187.64,-127.24 179.82,-134.4 190.39,-133.68 187.64,-127.24"/>
</g>
<!-- Node5&#45;&gt;Node1 -->
<g id="edge9" class="edge">
<title>Node5&#45;&gt;Node1</title>
<path fill="none" stroke="midnightblue" d="M337.53,-104.32C356.19,-121.03 375.1,-144.92 361,-165 343.1,-190.48 311.04,-203.16 282.11,-209.45"/>
<polygon fill="midnightblue" stroke="midnightblue" points="339.54,-101.44 329.65,-97.64 335.01,-106.77 339.54,-101.44"/>
</g>
<!-- Node5&#45;&gt;Node2 -->
<g id="edge6" class="edge">
<title>Node5&#45;&gt;Node2</title>
<path fill="none" stroke="midnightblue" d="M250.86,-64.71C213.6,-54.14 166.03,-40.63 130.71,-30.61"/>
<polygon fill="midnightblue" stroke="midnightblue" points="250.02,-68.11 260.59,-67.48 251.93,-61.38 250.02,-68.11"/>
</g>
<!-- Node5&#45;&gt;Node3 -->
<g id="edge7" class="edge">
<title>Node5&#45;&gt;Node3</title>
<path fill="none" stroke="midnightblue" d="M271.93,-101.56C247.53,-111.94 215.99,-124.77 191.18,-134.4"/>
<polygon fill="midnightblue" stroke="midnightblue" points="273.43,-104.73 281.24,-97.58 270.67,-98.3 273.43,-104.73"/>
</g>
<!-- Node6 -->
<g id="node6" class="node">
<title>Node6</title>
<g id="a_node6"><a xlink:href="networking_8cpp.html" target="_top" xlink:title="File that handles connecting to WiFi and MQTT and staying connected.">
<polygon fill="white" stroke="black" points="249,-0.5 249,-30.5 371,-30.5 371,-0.5 249,-0.5"/>
<text text-anchor="start" x="257" y="-18.5" font-family="Helvetica,sans-Serif" font-size="10.00">ESP32BaseStation/src</text>
<text text-anchor="middle" x="310" y="-7.5" font-family="Helvetica,sans-Serif" font-size="10.00">/networking.cpp</text>
</a>
</g>
</g>
<!-- Node5&#45;&gt;Node6 -->
<g id="edge8" class="edge">
<title>Node5&#45;&gt;Node6</title>
<path fill="none" stroke="midnightblue" d="M310,-57.11C310,-48.15 310,-38.32 310,-30.58"/>
<polygon fill="midnightblue" stroke="midnightblue" points="306.5,-57.4 310,-67.4 313.5,-57.4 306.5,-57.4"/>
</g>
</g>
</svg>
