<?xml version="1.0" encoding="UTF-8" standalone="no"?>
<!DOCTYPE svg PUBLIC "-//W3C//DTD SVG 1.1//EN"
 "http://www.w3.org/Graphics/SVG/1.1/DTD/svg11.dtd">
<!-- Generated by graphviz version 2.43.0 (0)
 -->
<!-- Title: MqttMsg Pages: 1 -->
<svg width="148pt" height="93pt"
 viewBox="0.00 0.00 147.50 93.00" xmlns="http://www.w3.org/2000/svg" xmlns:xlink="http://www.w3.org/1999/xlink">
<g id="graph0" class="graph" transform="scale(1 1) rotate(0) translate(4 89)">
<title>MqttMsg</title>
<!-- Node1 -->
<g id="Node000001" class="node">
<title>Node1</title>
<g id="a_Node000001"><a xlink:title=" ">
<polygon fill="#999999" stroke="#666666" points="104,-19 45,-19 45,0 104,0 104,-19"/>
<text text-anchor="middle" x="74.5" y="-7" font-family="Helvetica,sans-Serif" font-size="10.00">MqttMsg</text>
</a>
</g>
</g>
<!-- Node2 -->
<g id="Node000002" class="node">
<title>Node2</title>
<g id="a_Node000002"><a xlink:title=" ">
<polygon fill="white" stroke="#666666" points="75,-85 0,-85 0,-66 75,-66 75,-85"/>
<text text-anchor="middle" x="37.5" y="-73" font-family="Helvetica,sans-Serif" font-size="10.00">const char *</text>
</a>
</g>
</g>
<!-- Node2&#45;&gt;Node1 -->
<g id="edge1_Node000001_Node000002" class="edge">
<title>Node2&#45;&gt;Node1</title>
<g id="a_edge1_Node000001_Node000002"><a xlink:title=" ">
<path fill="none" stroke="#9a32cd" stroke-dasharray="5,2" d="M47.59,-57.05C54.63,-44.86 63.74,-29.11 69.35,-19.41"/>
<polygon fill="#9a32cd" stroke="#9a32cd" points="44.46,-55.46 42.49,-65.87 50.53,-58.96 44.46,-55.46"/>
</a>
</g>
<text text-anchor="middle" x="72.5" y="-40" font-family="Helvetica,sans-Serif" font-size="10.00" fill="grey"> topic</text>
</g>
<!-- Node3 -->
<g id="Node000003" class="node">
<title>Node3</title>
<g id="a_Node000003"><a xlink:title=" ">
<polygon fill="white" stroke="#666666" points="131.5,-85 93.5,-85 93.5,-66 131.5,-66 131.5,-85"/>
<text text-anchor="middle" x="112.5" y="-73" font-family="Helvetica,sans-Serif" font-size="10.00">char</text>
</a>
</g>
</g>
<!-- Node3&#45;&gt;Node1 -->
<g id="edge2_Node000001_Node000003" class="edge">
<title>Node3&#45;&gt;Node1</title>
<g id="a_edge2_Node000001_Node000003"><a xlink:title=" ">
<path fill="none" stroke="#9a32cd" stroke-dasharray="5,2" d="M102.22,-56.87C98.54,-50.59 94.35,-43.47 90.5,-37 86.98,-31.09 82.98,-24.46 79.86,-19.32"/>
<polygon fill="#9a32cd" stroke="#9a32cd" points="99.4,-58.98 107.46,-65.84 105.44,-55.44 99.4,-58.98"/>
</a>
</g>
<text text-anchor="middle" x="118" y="-40" font-family="Helvetica,sans-Serif" font-size="10.00" fill="grey"> payload</text>
</g>
</g>
</svg>
