<?xml version="1.0" encoding="UTF-8" standalone="no"?>
<!DOCTYPE svg PUBLIC "-//W3C//DTD SVG 1.1//EN"
 "http://www.w3.org/Graphics/SVG/1.1/DTD/svg11.dtd">
<!-- Generated by graphviz version 2.43.0 (0)
 -->
<!-- Title: BaseStationCode/src/src/timeseries.cpp Pages: 1 -->
<!--zoomable 478 -->

<svg id="main" version="1.1" xmlns="http://www.w3.org/2000/svg" xmlns:xlink="http://www.w3.org/1999/xlink" xml:space="preserve" onload="init(evt)">
<style type="text/css"><![CDATA[
.node, .edge {opacity: 0.7;}
.node.selected, .edge.selected {opacity: 1;}
.edge:hover path { stroke: red; }
.edge:hover polygon { stroke: red; fill: red; }
]]></style>

<defs>
  <circle id="rim" cx="0" cy="0" r="7"/>
  <circle id="rim2" cx="0" cy="0" r="3.5"/>
  <g id="zoomPlus">
    <use xlink:href="#rim" fill="#404040"><set attributeName="fill" to="#808080" begin="zoomplus.mouseover" end="zoomplus.mouseout"/></use>
    <path d="M-4,0h8M0,-4v8" fill="none" stroke="white" stroke-width="1.5" pointer-events="none"/>
  </g>
  <g id="zoomMin">
    <use xlink:href="#rim" fill="#404040"><set attributeName="fill" to="#808080" begin="zoomminus.mouseover" end="zoomminus.mouseout"/></use>
    <path d="M-4,0h8" fill="none" stroke="white" stroke-width="1.5" pointer-events="none"/>
  </g>
  <g id="arrowUp" transform="translate(30 24)">
    <use xlink:href="#rim"/>
    <path pointer-events="none" fill="none" stroke="white" stroke-width="1.5" d="M0,-3.0v7 M-2.5,-0.5L0,-3.0L2.5,-0.5"/>
  </g>
  <g id="arrowRight" transform="rotate(90) translate(36 -43)">
    <use xlink:href="#rim"/>
    <path pointer-events="none" fill="none" stroke="white" stroke-width="1.5" d="M0,-3.0v7 M-2.5,-0.5L0,-3.0L2.5,-0.5"/>
  </g>
  <g id="arrowDown" transform="rotate(180) translate(-30 -48)">
    <use xlink:href="#rim"/>
    <path pointer-events="none" fill="none" stroke="white" stroke-width="1.5" d="M0,-3.0v7 M-2.5,-0.5L0,-3.0L2.5,-0.5"/>
  </g>
  <g id="arrowLeft" transform="rotate(270) translate(-36 17)">
    <use xlink:href="#rim"/>
    <path pointer-events="none" fill="none" stroke="white" stroke-width="1.5" d="M0,-3.0v7 M-2.5,-0.5L0,-3.0L2.5,-0.5"/>
  </g>
  <g id="resetDef">
    <use xlink:href="#rim2" fill="#404040"><set attributeName="fill" to="#808080" begin="reset.mouseover" end="reset.mouseout"/></use>
  </g>
</defs>
<script type="application/ecmascript">
var viewWidth = 591;
var viewHeight = 478;
var sectionId = 'dynsection-0';
</script>
<script type="application/ecmascript" xlink:href="svg.min.js"/>
<svg id="graph" class="graph">
<g id="viewport">
<title>BaseStationCode/src/src/timeseries.cpp</title>
<!-- Node1 -->
<g id="Node000001" class="node">
<title>Node1</title>
<g id="a_Node000001"><a xlink:title=" ">
<polygon fill="#999999" stroke="#666666" points="506.5,-470 389.5,-470 389.5,-440 506.5,-440 506.5,-470"/>
<text text-anchor="start" x="397.5" y="-458" font-family="Helvetica,sans-Serif" font-size="10.00">BaseStationCode/src</text>
<text text-anchor="middle" x="448" y="-447" font-family="Helvetica,sans-Serif" font-size="10.00">/src/timeseries.cpp</text>
</a>
</g>
</g>
<!-- Node2 -->
<g id="Node000002" class="node">
<title>Node2</title>
<g id="a_Node000002"><a xlink:href="timeseries_8h.html" target="_top" xlink:title="Measures the temperature and pressure and sends them every so often as timeseries.">
<polygon fill="white" stroke="#666666" points="582.5,-349 505.5,-349 505.5,-330 582.5,-330 582.5,-349"/>
<text text-anchor="middle" x="544" y="-337" font-family="Helvetica,sans-Serif" font-size="10.00">timeseries.h</text>
</a>
</g>
</g>
<!-- Node1&#45;&gt;Node2 -->
<g id="edge1_Node000001_Node000002" class="edge">
<title>Node1&#45;&gt;Node2</title>
<g id="a_edge1_Node000001_Node000002"><a xlink:title=" ">
<path fill="none" stroke="#63b8ff" d="M460.16,-439.63C477.97,-418.56 511.1,-379.4 529.94,-357.13"/>
<polygon fill="#63b8ff" stroke="#63b8ff" points="532.83,-359.12 536.62,-349.23 527.49,-354.6 532.83,-359.12"/>
</a>
</g>
</g>
<!-- Node10 -->
<g id="Node000010" class="node">
<title>Node10</title>
<g id="a_Node000010"><a xlink:href="networking_8h.html" target="_top" xlink:title="Header file for networking.cpp.">
<polygon fill="white" stroke="#666666" points="454,-404 374,-404 374,-385 454,-385 454,-404"/>
<text text-anchor="middle" x="414" y="-392" font-family="Helvetica,sans-Serif" font-size="10.00">networking.h</text>
</a>
</g>
</g>
<!-- Node1&#45;&gt;Node10 -->
<g id="edge9_Node000001_Node000010" class="edge">
<title>Node1&#45;&gt;Node10</title>
<g id="a_edge9_Node000001_Node000010"><a xlink:title=" ">
<path fill="none" stroke="#63b8ff" d="M439.77,-439.84C435.09,-431.78 429.18,-421.62 424.2,-413.06"/>
<polygon fill="#63b8ff" stroke="#63b8ff" points="427.15,-411.15 419.09,-404.27 421.09,-414.67 427.15,-411.15"/>
</a>
</g>
</g>
<!-- Node3 -->
<g id="Node000003" class="node">
<title>Node3</title>
<g id="a_Node000003"><a xlink:href="defines_8h.html" target="_top" xlink:title="Definitions and other preprocessor and global stuff.">
<polygon fill="white" stroke="#666666" points="376,-74 306,-74 306,-55 376,-55 376,-74"/>
<text text-anchor="middle" x="341" y="-62" font-family="Helvetica,sans-Serif" font-size="10.00">../defines.h</text>
</a>
</g>
</g>
<!-- Node2&#45;&gt;Node3 -->
<g id="edge2_Node000002_Node000003" class="edge">
<title>Node2&#45;&gt;Node3</title>
<g id="a_edge2_Node000002_Node000003"><a xlink:title=" ">
<path fill="none" stroke="#63b8ff" d="M542.11,-329.87C538.29,-311.62 530,-267.75 530,-230.5 530,-230.5 530,-230.5 530,-173.5 530,-107.5 442.05,-81.29 386.14,-71.29"/>
<polygon fill="#63b8ff" stroke="#63b8ff" points="386.55,-67.81 376.11,-69.61 385.39,-74.72 386.55,-67.81"/>
</a>
</g>
</g>
<!-- Node4 -->
<g id="Node000004" class="node">
<title>Node4</title>
<g id="a_Node000004"><a xlink:title=" ">
<polygon fill="#e0e0e0" stroke="#999999" points="491.5,-19 428.5,-19 428.5,0 491.5,0 491.5,-19"/>
<text text-anchor="middle" x="460" y="-7" font-family="Helvetica,sans-Serif" font-size="10.00">Arduino.h</text>
</a>
</g>
</g>
<!-- Node3&#45;&gt;Node4 -->
<g id="edge3_Node000003_Node000004" class="edge">
<title>Node3&#45;&gt;Node4</title>
<g id="a_edge3_Node000003_Node000004"><a xlink:title=" ">
<path fill="none" stroke="#63b8ff" d="M360.12,-54.98C379.35,-46.42 409.23,-33.11 431.31,-23.28"/>
<polygon fill="#63b8ff" stroke="#63b8ff" points="432.82,-26.44 440.53,-19.17 429.97,-20.04 432.82,-26.44"/>
</a>
</g>
</g>
<!-- Node5 -->
<g id="Node000005" class="node">
<title>Node5</title>
<g id="a_Node000005"><a xlink:title=" ">
<polygon fill="#e0e0e0" stroke="#999999" points="556.5,-19 509.5,-19 509.5,0 556.5,0 556.5,-19"/>
<text text-anchor="middle" x="533" y="-7" font-family="Helvetica,sans-Serif" font-size="10.00">WiFi.h</text>
</a>
</g>
</g>
<!-- Node3&#45;&gt;Node5 -->
<g id="edge4_Node000003_Node000005" class="edge">
<title>Node3&#45;&gt;Node5</title>
<g id="a_edge4_Node000003_Node000005"><a xlink:title=" ">
<path fill="none" stroke="#63b8ff" d="M371.85,-54.98C406.77,-45.34 463.48,-29.69 499.48,-19.75"/>
<polygon fill="#63b8ff" stroke="#63b8ff" points="500.78,-23.02 509.49,-16.99 498.92,-16.28 500.78,-23.02"/>
</a>
</g>
</g>
<!-- Node6 -->
<g id="Node000006" class="node">
<title>Node6</title>
<g id="a_Node000006"><a xlink:title=" ">
<polygon fill="#e0e0e0" stroke="#999999" points="180,-19 90,-19 90,0 180,0 180,-19"/>
<text text-anchor="middle" x="135" y="-7" font-family="Helvetica,sans-Serif" font-size="10.00">PubSubClient.h</text>
</a>
</g>
</g>
<!-- Node3&#45;&gt;Node6 -->
<g id="edge5_Node000003_Node000006" class="edge">
<title>Node3&#45;&gt;Node6</title>
<g id="a_edge5_Node000003_Node000006"><a xlink:title=" ">
<path fill="none" stroke="#63b8ff" d="M307.9,-54.98C272.72,-45.93 216.93,-31.58 178.28,-21.64"/>
<polygon fill="#63b8ff" stroke="#63b8ff" points="178.91,-18.18 168.36,-19.08 177.17,-24.96 178.91,-18.18"/>
</a>
</g>
</g>
<!-- Node7 -->
<g id="Node000007" class="node">
<title>Node7</title>
<g id="a_Node000007"><a xlink:title=" ">
<polygon fill="#e0e0e0" stroke="#999999" points="281.5,-19 198.5,-19 198.5,0 281.5,0 281.5,-19"/>
<text text-anchor="middle" x="240" y="-7" font-family="Helvetica,sans-Serif" font-size="10.00">ArduinoJson.h</text>
</a>
</g>
</g>
<!-- Node3&#45;&gt;Node7 -->
<g id="edge6_Node000003_Node000007" class="edge">
<title>Node3&#45;&gt;Node7</title>
<g id="a_edge6_Node000003_Node000007"><a xlink:title=" ">
<path fill="none" stroke="#63b8ff" d="M324.77,-54.98C308.82,-46.61 284.22,-33.7 265.62,-23.95"/>
<polygon fill="#63b8ff" stroke="#63b8ff" points="267,-20.72 256.52,-19.17 263.75,-26.92 267,-20.72"/>
</a>
</g>
</g>
<!-- Node8 -->
<g id="Node000008" class="node">
<title>Node8</title>
<g id="a_Node000008"><a xlink:title=" ">
<polygon fill="#e0e0e0" stroke="#999999" points="410,-19 300,-19 300,0 410,0 410,-19"/>
<text text-anchor="middle" x="355" y="-7" font-family="Helvetica,sans-Serif" font-size="10.00">PJONThroughLora.h</text>
</a>
</g>
</g>
<!-- Node3&#45;&gt;Node8 -->
<g id="edge7_Node000003_Node000008" class="edge">
<title>Node3&#45;&gt;Node8</title>
<g id="a_edge7_Node000003_Node000008"><a xlink:title=" ">
<path fill="none" stroke="#63b8ff" d="M343.31,-54.75C345.17,-47.72 347.84,-37.62 350.15,-28.84"/>
<polygon fill="#63b8ff" stroke="#63b8ff" points="353.56,-29.65 352.73,-19.09 346.79,-27.86 353.56,-29.65"/>
</a>
</g>
</g>
<!-- Node9 -->
<g id="Node000009" class="node">
<title>Node9</title>
<g id="a_Node000009"><a xlink:href="topics_8h.html" target="_top" xlink:title="MQTT topics for a thingsboard gateway.">
<polygon fill="white" stroke="#666666" points="72,-19 0,-19 0,0 72,0 72,-19"/>
<text text-anchor="middle" x="36" y="-7" font-family="Helvetica,sans-Serif" font-size="10.00">src/topics.h</text>
</a>
</g>
</g>
<!-- Node3&#45;&gt;Node9 -->
<g id="edge8_Node000003_Node000009" class="edge">
<title>Node3&#45;&gt;Node9</title>
<g id="a_edge8_Node000003_Node000009"><a xlink:title=" ">
<path fill="none" stroke="#63b8ff" d="M305.64,-57.65C257.44,-49.62 168.17,-34.61 82.26,-19.2"/>
<polygon fill="#63b8ff" stroke="#63b8ff" points="82.8,-15.74 72.34,-17.42 81.56,-22.63 82.8,-15.74"/>
</a>
</g>
</g>
<!-- Node10&#45;&gt;Node3 -->
<g id="edge10_Node000010_Node000003" class="edge">
<title>Node10&#45;&gt;Node3</title>
<g id="a_edge10_Node000010_Node000003"><a xlink:title=" ">
<path fill="none" stroke="#63b8ff" d="M423.3,-384.97C440.82,-367.92 477,-327.61 477,-285.5 477,-285.5 477,-285.5 477,-173.5 477,-123.36 419.62,-92.79 379.4,-77.52"/>
<polygon fill="#63b8ff" stroke="#63b8ff" points="380.44,-74.18 369.84,-74.05 378.05,-80.76 380.44,-74.18"/>
</a>
</g>
</g>
<!-- Node11 -->
<g id="Node000011" class="node">
<title>Node11</title>
<g id="a_Node000011"><a xlink:href="devices_8h.html" target="_top" xlink:title="Devices and manager for all known devices the base station connects to.">
<polygon fill="white" stroke="#666666" points="404.5,-239 341.5,-239 341.5,-220 404.5,-220 404.5,-239"/>
<text text-anchor="middle" x="373" y="-227" font-family="Helvetica,sans-Serif" font-size="10.00">devices.h</text>
</a>
</g>
</g>
<!-- Node10&#45;&gt;Node11 -->
<g id="edge11_Node000010_Node000011" class="edge">
<title>Node10&#45;&gt;Node11</title>
<g id="a_edge11_Node000010_Node000011"><a xlink:title=" ">
<path fill="none" stroke="#63b8ff" d="M413.64,-384.77C413,-372.44 411.3,-349.27 407,-330 400.49,-300.84 388.41,-268.29 380.54,-248.61"/>
<polygon fill="#63b8ff" stroke="#63b8ff" points="383.68,-247.04 376.66,-239.1 377.19,-249.68 383.68,-247.04"/>
</a>
</g>
</g>
<!-- Node15 -->
<g id="Node000015" class="node">
<title>Node15</title>
<g id="a_Node000015"><a xlink:href="lora_8h.html" target="_top" xlink:title="File that handles the LoRa radio and PJON.">
<polygon fill="white" stroke="#666666" points="398,-349 354,-349 354,-330 398,-330 398,-349"/>
<text text-anchor="middle" x="376" y="-337" font-family="Helvetica,sans-Serif" font-size="10.00">lora.h</text>
</a>
</g>
</g>
<!-- Node10&#45;&gt;Node15 -->
<g id="edge20_Node000010_Node000015" class="edge">
<title>Node10&#45;&gt;Node15</title>
<g id="a_edge20_Node000010_Node000015"><a xlink:title=" ">
<path fill="none" stroke="#63b8ff" d="M402.56,-384.75C395.8,-377.49 387.83,-366.95 382.14,-357.98"/>
<polygon fill="#63b8ff" stroke="#63b8ff" points="385.05,-356.01 377.03,-349.09 378.98,-359.5 385.05,-356.01"/>
</a>
</g>
</g>
<!-- Node11&#45;&gt;Node3 -->
<g id="edge12_Node000011_Node000003" class="edge">
<title>Node11&#45;&gt;Node3</title>
<g id="a_edge12_Node000011_Node000003"><a xlink:title=" ">
<path fill="none" stroke="#63b8ff" d="M376.16,-219.79C382.93,-199.65 397.08,-148.63 382,-110 377.6,-98.73 368.86,-88.59 360.57,-80.85"/>
<polygon fill="#63b8ff" stroke="#63b8ff" points="362.77,-78.12 352.93,-74.2 358.18,-83.4 362.77,-78.12"/>
</a>
</g>
</g>
<!-- Node12 -->
<g id="Node000012" class="node">
<title>Node12</title>
<g id="a_Node000012"><a xlink:href="lookups_8h.html" target="_top" xlink:title="Lookupable and lookupable manager base classes.">
<polygon fill="white" stroke="#666666" points="372.5,-129 309.5,-129 309.5,-110 372.5,-110 372.5,-129"/>
<text text-anchor="middle" x="341" y="-117" font-family="Helvetica,sans-Serif" font-size="10.00">lookups.h</text>
</a>
</g>
</g>
<!-- Node11&#45;&gt;Node12 -->
<g id="edge13_Node000011_Node000012" class="edge">
<title>Node11&#45;&gt;Node12</title>
<g id="a_edge13_Node000011_Node000012"><a xlink:title=" ">
<path fill="none" stroke="#63b8ff" d="M370.38,-219.66C365.18,-202.09 353.43,-162.45 346.47,-138.95"/>
<polygon fill="#63b8ff" stroke="#63b8ff" points="349.76,-137.75 343.57,-129.16 343.05,-139.74 349.76,-137.75"/>
</a>
</g>
</g>
<!-- Node13 -->
<g id="Node000013" class="node">
<title>Node13</title>
<g id="a_Node000013"><a xlink:href="fields_8h.html" target="_top" xlink:title="Contains fields classes.">
<polygon fill="white" stroke="#666666" points="277,-184 225,-184 225,-165 277,-165 277,-184"/>
<text text-anchor="middle" x="251" y="-172" font-family="Helvetica,sans-Serif" font-size="10.00">fields.h</text>
</a>
</g>
</g>
<!-- Node11&#45;&gt;Node13 -->
<g id="edge15_Node000011_Node000013" class="edge">
<title>Node11&#45;&gt;Node13</title>
<g id="a_edge15_Node000011_Node000013"><a xlink:title=" ">
<path fill="none" stroke="#63b8ff" d="M353.4,-219.98C333.68,-211.42 303.05,-198.11 280.42,-188.28"/>
<polygon fill="#63b8ff" stroke="#63b8ff" points="281.52,-184.94 270.96,-184.17 278.74,-191.37 281.52,-184.94"/>
</a>
</g>
</g>
<!-- Node12&#45;&gt;Node3 -->
<g id="edge14_Node000012_Node000003" class="edge">
<title>Node12&#45;&gt;Node3</title>
<g id="a_edge14_Node000012_Node000003"><a xlink:title=" ">
<path fill="none" stroke="#63b8ff" d="M341,-109.75C341,-102.8 341,-92.85 341,-84.13"/>
<polygon fill="#63b8ff" stroke="#63b8ff" points="344.5,-84.09 341,-74.09 337.5,-84.09 344.5,-84.09"/>
</a>
</g>
</g>
<!-- Node13&#45;&gt;Node3 -->
<g id="edge16_Node000013_Node000003" class="edge">
<title>Node13&#45;&gt;Node3</title>
<g id="a_edge16_Node000013_Node000003"><a xlink:title=" ">
<path fill="none" stroke="#63b8ff" d="M234.67,-164.94C214.04,-152.99 182.93,-130.47 198,-110 220.18,-79.86 262.62,-69.55 295.53,-66.29"/>
<polygon fill="#63b8ff" stroke="#63b8ff" points="296.15,-69.75 305.84,-65.47 295.59,-62.77 296.15,-69.75"/>
</a>
</g>
</g>
<!-- Node13&#45;&gt;Node12 -->
<g id="edge17_Node000013_Node000012" class="edge">
<title>Node13&#45;&gt;Node12</title>
<g id="a_edge17_Node000013_Node000012"><a xlink:title=" ">
<path fill="none" stroke="#63b8ff" d="M265.46,-164.98C279.42,-156.77 300.79,-144.18 317.25,-134.49"/>
<polygon fill="#63b8ff" stroke="#63b8ff" points="319.44,-137.26 326.28,-129.17 315.88,-131.23 319.44,-137.26"/>
</a>
</g>
</g>
<!-- Node14 -->
<g id="Node000014" class="node">
<title>Node14</title>
<g id="a_Node000014"><a xlink:href="conversions_8h.html" target="_top" xlink:title="General functions for converting to and from char arrays.">
<polygon fill="white" stroke="#666666" points="291,-129 207,-129 207,-110 291,-110 291,-129"/>
<text text-anchor="middle" x="249" y="-117" font-family="Helvetica,sans-Serif" font-size="10.00">conversions.h</text>
</a>
</g>
</g>
<!-- Node13&#45;&gt;Node14 -->
<g id="edge18_Node000013_Node000014" class="edge">
<title>Node13&#45;&gt;Node14</title>
<g id="a_edge18_Node000013_Node000014"><a xlink:title=" ">
<path fill="none" stroke="#63b8ff" d="M250.67,-164.75C250.41,-157.8 250.03,-147.85 249.7,-139.13"/>
<polygon fill="#63b8ff" stroke="#63b8ff" points="253.2,-138.95 249.32,-129.09 246.2,-139.21 253.2,-138.95"/>
</a>
</g>
</g>
<!-- Node14&#45;&gt;Node3 -->
<g id="edge19_Node000014_Node000003" class="edge">
<title>Node14&#45;&gt;Node3</title>
<g id="a_edge19_Node000014_Node000003"><a xlink:title=" ">
<path fill="none" stroke="#63b8ff" d="M263.78,-109.98C278.18,-101.69 300.31,-88.94 317.19,-79.22"/>
<polygon fill="#63b8ff" stroke="#63b8ff" points="319.03,-82.19 325.95,-74.17 315.54,-76.13 319.03,-82.19"/>
</a>
</g>
</g>
<!-- Node15&#45;&gt;Node3 -->
<g id="edge21_Node000015_Node000003" class="edge">
<title>Node15&#45;&gt;Node3</title>
<g id="a_edge21_Node000015_Node000003"><a xlink:title=" ">
<path fill="none" stroke="#63b8ff" d="M380.6,-329.76C389.22,-312.83 407.53,-274.1 414,-239 415.53,-230.7 414.61,-228.42 414,-220 410.44,-170.73 422.81,-152.72 398,-110 390.69,-97.41 378.3,-87.09 366.94,-79.57"/>
<polygon fill="#63b8ff" stroke="#63b8ff" points="368.51,-76.43 358.16,-74.15 364.83,-82.39 368.51,-76.43"/>
</a>
</g>
</g>
<!-- Node15&#45;&gt;Node10 -->
<g id="edge24_Node000015_Node000010" class="edge">
<title>Node15&#45;&gt;Node10</title>
<g id="a_edge24_Node000015_Node000010"><a xlink:title=" ">
<path fill="none" stroke="#63b8ff" d="M387.29,-349.09C394.03,-356.29 402,-366.82 407.73,-375.82"/>
<polygon fill="#63b8ff" stroke="#63b8ff" points="404.86,-377.84 412.89,-384.75 410.92,-374.34 404.86,-377.84"/>
</a>
</g>
</g>
<!-- Node15&#45;&gt;Node11 -->
<g id="edge23_Node000015_Node000011" class="edge">
<title>Node15&#45;&gt;Node11</title>
<g id="a_edge23_Node000015_Node000011"><a xlink:title=" ">
<path fill="none" stroke="#63b8ff" d="M375.75,-329.66C375.27,-312.17 374.18,-272.8 373.52,-249.27"/>
<polygon fill="#63b8ff" stroke="#63b8ff" points="377.02,-249.06 373.24,-239.16 370.02,-249.25 377.02,-249.06"/>
</a>
</g>
</g>
<!-- Node15&#45;&gt;Node12 -->
<g id="edge22_Node000015_Node000012" class="edge">
<title>Node15&#45;&gt;Node12</title>
<g id="a_edge22_Node000015_Node000012"><a xlink:title=" ">
<path fill="none" stroke="#63b8ff" d="M370.81,-329.85C361.06,-313.06 340.36,-274.57 333,-239 325.82,-204.29 331.89,-162.78 336.65,-139.24"/>
<polygon fill="#63b8ff" stroke="#63b8ff" points="340.12,-139.75 338.82,-129.23 333.28,-138.26 340.12,-139.75"/>
</a>
</g>
</g>
<!-- Node16 -->
<g id="Node000016" class="node">
<title>Node16</title>
<g id="a_Node000016"><a xlink:href="rpc_8h.html" target="_top" xlink:title="Handles RPC calls.">
<polygon fill="white" stroke="#666666" points="271.5,-294 230.5,-294 230.5,-275 271.5,-275 271.5,-294"/>
<text text-anchor="middle" x="251" y="-282" font-family="Helvetica,sans-Serif" font-size="10.00">rpc.h</text>
</a>
</g>
</g>
<!-- Node15&#45;&gt;Node16 -->
<g id="edge25_Node000015_Node000016" class="edge">
<title>Node15&#45;&gt;Node16</title>
<g id="a_edge25_Node000015_Node000016"><a xlink:title=" ">
<path fill="none" stroke="#63b8ff" d="M355.92,-329.98C335.63,-321.38 304.04,-307.99 280.83,-298.15"/>
<polygon fill="#63b8ff" stroke="#63b8ff" points="282.02,-294.85 271.45,-294.17 279.29,-301.3 282.02,-294.85"/>
</a>
</g>
</g>
<!-- Node16&#45;&gt;Node3 -->
<g id="edge26_Node000016_Node000003" class="edge">
<title>Node16&#45;&gt;Node3</title>
<g id="a_edge26_Node000016_Node000003"><a xlink:title=" ">
<path fill="none" stroke="#63b8ff" d="M242.62,-274.69C217.9,-247.62 149.46,-164.21 190,-110 214.21,-77.63 260.84,-67.81 295.91,-65.29"/>
<polygon fill="#63b8ff" stroke="#63b8ff" points="296.14,-68.78 305.93,-64.74 295.75,-61.79 296.14,-68.78"/>
</a>
</g>
</g>
<!-- Node16&#45;&gt;Node9 -->
<g id="edge27_Node000016_Node000009" class="edge">
<title>Node16&#45;&gt;Node9</title>
<g id="a_edge27_Node000016_Node000009"><a xlink:title=" ">
<path fill="none" stroke="#63b8ff" d="M230.38,-282.65C176.57,-279.21 36,-261.97 36,-175.5 36,-175.5 36,-175.5 36,-118.5 36,-87.19 36,-50.77 36,-29.23"/>
<polygon fill="#63b8ff" stroke="#63b8ff" points="39.5,-29.18 36,-19.18 32.5,-29.18 39.5,-29.18"/>
</a>
</g>
</g>
<!-- Node16&#45;&gt;Node10 -->
<g id="edge32_Node000016_Node000010" class="edge">
<title>Node16&#45;&gt;Node10</title>
<g id="a_edge32_Node000016_Node000010"><a xlink:title=" ">
<path fill="none" stroke="#63b8ff" d="M263.41,-294.01C281.34,-306.27 315.58,-329.58 345,-349 360.56,-359.27 378.24,-370.67 391.8,-379.35"/>
<polygon fill="#63b8ff" stroke="#63b8ff" points="390.15,-382.45 400.46,-384.89 393.92,-376.55 390.15,-382.45"/>
</a>
</g>
</g>
<!-- Node16&#45;&gt;Node11 -->
<g id="edge30_Node000016_Node000011" class="edge">
<title>Node16&#45;&gt;Node11</title>
<g id="a_edge30_Node000016_Node000011"><a xlink:title=" ">
<path fill="none" stroke="#63b8ff" d="M270.6,-274.98C290.32,-266.42 320.95,-253.11 343.58,-243.28"/>
<polygon fill="#63b8ff" stroke="#63b8ff" points="345.26,-246.37 353.04,-239.17 342.48,-239.94 345.26,-246.37"/>
</a>
</g>
</g>
<!-- Node16&#45;&gt;Node13 -->
<g id="edge31_Node000016_Node000013" class="edge">
<title>Node16&#45;&gt;Node13</title>
<g id="a_edge31_Node000016_Node000013"><a xlink:title=" ">
<path fill="none" stroke="#63b8ff" d="M251,-274.66C251,-257.17 251,-217.8 251,-194.27"/>
<polygon fill="#63b8ff" stroke="#63b8ff" points="254.5,-194.16 251,-184.16 247.5,-194.16 254.5,-194.16"/>
</a>
</g>
</g>
<!-- Node17 -->
<g id="Node000017" class="node">
<title>Node17</title>
<g id="a_Node000017"><a xlink:href="alarm_8h.html" target="_top" xlink:title="Handles alarms.">
<polygon fill="white" stroke="#666666" points="118,-184 64,-184 64,-165 118,-165 118,-184"/>
<text text-anchor="middle" x="91" y="-172" font-family="Helvetica,sans-Serif" font-size="10.00">alarm.h</text>
</a>
</g>
</g>
<!-- Node16&#45;&gt;Node17 -->
<g id="edge28_Node000016_Node000017" class="edge">
<title>Node16&#45;&gt;Node17</title>
<g id="a_edge28_Node000016_Node000017"><a xlink:title=" ">
<path fill="none" stroke="#63b8ff" d="M230.07,-279.86C204.61,-274.56 161.38,-262.65 132,-239 116.86,-226.82 105.52,-207.49 98.65,-193.35"/>
<polygon fill="#63b8ff" stroke="#63b8ff" points="101.78,-191.79 94.44,-184.15 95.42,-194.7 101.78,-191.79"/>
</a>
</g>
</g>
<!-- Node17&#45;&gt;Node3 -->
<g id="edge29_Node000017_Node000003" class="edge">
<title>Node17&#45;&gt;Node3</title>
<g id="a_edge29_Node000017_Node000003"><a xlink:title=" ">
<path fill="none" stroke="#63b8ff" d="M93.33,-164.97C97.58,-151.12 107.95,-123.89 127,-110 153.43,-90.73 241.3,-77.23 295.89,-70.47"/>
<polygon fill="#63b8ff" stroke="#63b8ff" points="296.49,-73.93 306,-69.25 295.65,-66.98 296.49,-73.93"/>
</a>
</g>
</g>
</g>
</svg>

<g id="navigator" transform="translate(0 0)" fill="#404254">
  <rect fill="#f2f5e9" fill-opacity="0.5" stroke="#606060" stroke-width=".5" x="0" y="0" width="60" height="60"/>
  <use id="zoomplus" xlink:href="#zoomPlus" x="17" y="9" onmousedown="handleZoom(evt,'in')"/>
  <use id="zoomminus" xlink:href="#zoomMin" x="42" y="9" onmousedown="handleZoom(evt,'out')"/>
  <use id="reset" xlink:href="#resetDef" x="30" y="36" onmousedown="handleReset()"/>
   <use id="arrowup" xlink:href="#arrowUp" x="0" y="0" onmousedown="handlePan(0,-1)"/>
  <use id="arrowright" xlink:href="#arrowRight" x="0" y="0" onmousedown="handlePan(1,0)"/>
  <use id="arrowdown" xlink:href="#arrowDown" x="0" y="0" onmousedown="handlePan(0,1)"/>
  <use id="arrowleft" xlink:href="#arrowLeft" x="0" y="0" onmousedown="handlePan(-1,0)"/>
</g>
<svg viewBox="0 0 15 15" width="100%" height="30px" preserveAspectRatio="xMaxYMin meet">
 <g id="arrow_out" transform="scale(0.3 0.3)">
  <a xlink:href="timeseries_8cpp__incl_org.svg" target="_base">
   <rect id="button" ry="5" rx="5" y="6" x="6" height="38" width="38"
        fill="#f2f5e9" fill-opacity="0.5" stroke="#606060" stroke-width="1.0"/>
   <path id="arrow"
     d="M 11.500037,31.436501 C 11.940474,20.09759 22.043105,11.32322 32.158766,21.979434 L 37.068811,17.246167 C 37.068811,17.246167 37.088388,32 37.088388,32 L 22.160133,31.978069 C 22.160133,31.978069 26.997745,27.140456 26.997745,27.140456 C 18.528582,18.264221 13.291696,25.230495 11.500037,31.436501 z"
     style="fill:#404040;"/>
  </a>
 </g>
</svg>

<style type='text/css'>
<![CDATA[
[data-mouse-over-selected='false'] { opacity: 0.7; }
[data-mouse-over-selected='true']  { opacity: 1.0; }
]]>
</style>
<script type="application/ecmascript"><![CDATA[
document.addEventListener('DOMContentLoaded', (event) => {
  highlightEdges();
  highlightAdjacentNodes();
});
]]></script>
</svg>
