<?xml version="1.0" encoding="UTF-8" standalone="no"?>
<!DOCTYPE svg PUBLIC "-//W3C//DTD SVG 1.1//EN"
 "http://www.w3.org/Graphics/SVG/1.1/DTD/svg11.dtd">
<!-- Generated by graphviz version 2.43.0 (0)
 -->
<!-- Title: BaseStationCode/src/src/timeseries.cpp Pages: 1 -->
<!--zoomable 487 -->
<svg id="main" version="1.1" xmlns="http://www.w3.org/2000/svg" xmlns:xlink="http://www.w3.org/1999/xlink" xml:space="preserve" onload="init(evt)">
<style type="text/css"><![CDATA[
.edge:hover path { stroke: red; }
.edge:hover polygon { stroke: red; fill: red; }
]]></style>
<script type="text/javascript"><![CDATA[
var edges = document.getElementsByTagName('g');
if (edges && edges.length) {
  for (var i=0;i<edges.length;i++) {
    if (edges[i].id.substr(0,4)=='edge') {
      edges[i].setAttribute('class','edge');
    }
  }
}
]]></script>
        <defs>
                <circle id="rim" cx="0" cy="0" r="7"/>
                <circle id="rim2" cx="0" cy="0" r="3.5"/>
                <g id="zoomPlus">
                        <use xlink:href="#rim" fill="#404040">
                                <set attributeName="fill" to="#808080" begin="zoomplus.mouseover" end="zoomplus.mouseout"/>
                        </use>
                        <path d="M-4,0h8M0,-4v8" fill="none" stroke="white" stroke-width="1.5" pointer-events="none"/>
                </g>
                <g id="zoomMin">
                        <use xlink:href="#rim" fill="#404040">
                                <set attributeName="fill" to="#808080" begin="zoomminus.mouseover" end="zoomminus.mouseout"/>
                        </use>
                        <path d="M-4,0h8" fill="none" stroke="white" stroke-width="1.5" pointer-events="none"/>
                </g>
                <g id="dirArrow">
                        <path fill="none" stroke="white" stroke-width="1.5" d="M0,-3.0v7 M-2.5,-0.5L0,-3.0L2.5,-0.5"/>
                </g>
               <g id="resetDef">
                       <use xlink:href="#rim2" fill="#404040">
                               <set attributeName="fill" to="#808080" begin="reset.mouseover" end="reset.mouseout"/>
                       </use>
               </g>
        </defs>

<script type="text/javascript">
var viewWidth = 591;
var viewHeight = 487;
var sectionId = 'dynsection-0';
</script>
<script xlink:href="svgpan.js"/>
<svg id="graph" class="graph">
<g id="viewport">
<title>BaseStationCode/src/src/timeseries.cpp</title>
<polygon fill="white" stroke="transparent" points="-4,4 -4,-483 586.5,-483 586.5,4 -4,4"/>
<!-- Node1 -->
<g id="node1" class="node">
<title>Node1</title>
<g id="a_node1"><a xlink:title=" ">
<polygon fill="#bfbfbf" stroke="black" points="389.5,-448.5 389.5,-478.5 506.5,-478.5 506.5,-448.5 389.5,-448.5"/>
<text text-anchor="start" x="397.5" y="-466.5" font-family="Helvetica,sans-Serif" font-size="10.00">BaseStationCode/src</text>
<text text-anchor="middle" x="448" y="-455.5" font-family="Helvetica,sans-Serif" font-size="10.00">/src/timeseries.cpp</text>
</a>
</g>
</g>
<!-- Node2 -->
<g id="node2" class="node">
<title>Node2</title>
<g id="a_node2"><a xlink:href="timeseries_8h.html" target="_top" xlink:title="Measures the temperature and pressure and sends them every so often as timeseries.">
<polygon fill="white" stroke="black" points="505.5,-336.5 505.5,-355.5 582.5,-355.5 582.5,-336.5 505.5,-336.5"/>
<text text-anchor="middle" x="544" y="-343.5" font-family="Helvetica,sans-Serif" font-size="10.00">timeseries.h</text>
</a>
</g>
</g>
<!-- Node1&#45;&gt;Node2 -->
<g id="edge1" class="edge">
<title>Node1&#45;&gt;Node2</title>
<path fill="none" stroke="midnightblue" d="M459.77,-448.34C477.62,-426.86 511.44,-386.17 530.34,-363.43"/>
<polygon fill="midnightblue" stroke="midnightblue" points="533.09,-365.6 536.79,-355.67 527.71,-361.12 533.09,-365.6"/>
</g>
<!-- Node10 -->
<g id="node10" class="node">
<title>Node10</title>
<g id="a_node10"><a xlink:href="networking_8h.html" target="_top" xlink:title="Header file for networking.cpp.">
<polygon fill="white" stroke="black" points="374,-392.5 374,-411.5 454,-411.5 454,-392.5 374,-392.5"/>
<text text-anchor="middle" x="414" y="-399.5" font-family="Helvetica,sans-Serif" font-size="10.00">networking.h</text>
</a>
</g>
</g>
<!-- Node1&#45;&gt;Node10 -->
<g id="edge9" class="edge">
<title>Node1&#45;&gt;Node10</title>
<path fill="none" stroke="midnightblue" d="M439.94,-448.4C435.15,-440.02 429.04,-429.33 423.96,-420.42"/>
<polygon fill="midnightblue" stroke="midnightblue" points="426.95,-418.6 418.95,-411.66 420.87,-422.08 426.95,-418.6"/>
</g>
<!-- Node3 -->
<g id="node3" class="node">
<title>Node3</title>
<g id="a_node3"><a xlink:href="defines_8h.html" target="_top" xlink:title="Definitions and other preprocessor and global stuff.">
<polygon fill="white" stroke="black" points="306,-56.5 306,-75.5 376,-75.5 376,-56.5 306,-56.5"/>
<text text-anchor="middle" x="341" y="-63.5" font-family="Helvetica,sans-Serif" font-size="10.00">../defines.h</text>
</a>
</g>
</g>
<!-- Node2&#45;&gt;Node3 -->
<g id="edge2" class="edge">
<title>Node2&#45;&gt;Node3</title>
<path fill="none" stroke="midnightblue" d="M542.17,-336.49C538.37,-318.07 530,-273.12 530,-235 530,-235 530,-235 530,-177 530,-110.7 442.05,-83.67 386.14,-73.18"/>
<polygon fill="midnightblue" stroke="midnightblue" points="386.56,-69.7 376.11,-71.41 385.35,-76.59 386.56,-69.7"/>
</g>
<!-- Node4 -->
<g id="node4" class="node">
<title>Node4</title>
<g id="a_node4"><a xlink:title=" ">
<polygon fill="white" stroke="#bfbfbf" points="428.5,-0.5 428.5,-19.5 491.5,-19.5 491.5,-0.5 428.5,-0.5"/>
<text text-anchor="middle" x="460" y="-7.5" font-family="Helvetica,sans-Serif" font-size="10.00">Arduino.h</text>
</a>
</g>
</g>
<!-- Node3&#45;&gt;Node4 -->
<g id="edge3" class="edge">
<title>Node3&#45;&gt;Node4</title>
<path fill="none" stroke="midnightblue" d="M359.86,-56.44C379.27,-47.64 409.73,-33.81 431.96,-23.72"/>
<polygon fill="midnightblue" stroke="midnightblue" points="433.57,-26.84 441.23,-19.52 430.68,-20.46 433.57,-26.84"/>
</g>
<!-- Node5 -->
<g id="node5" class="node">
<title>Node5</title>
<g id="a_node5"><a xlink:title=" ">
<polygon fill="white" stroke="#bfbfbf" points="509.5,-0.5 509.5,-19.5 556.5,-19.5 556.5,-0.5 509.5,-0.5"/>
<text text-anchor="middle" x="533" y="-7.5" font-family="Helvetica,sans-Serif" font-size="10.00">WiFi.h</text>
</a>
</g>
</g>
<!-- Node3&#45;&gt;Node5 -->
<g id="edge4" class="edge">
<title>Node3&#45;&gt;Node5</title>
<path fill="none" stroke="midnightblue" d="M371.42,-56.44C406.26,-46.65 463.17,-30.64 499.32,-20.47"/>
<polygon fill="midnightblue" stroke="midnightblue" points="500.7,-23.72 509.38,-17.64 498.8,-16.98 500.7,-23.72"/>
</g>
<!-- Node6 -->
<g id="node6" class="node">
<title>Node6</title>
<g id="a_node6"><a xlink:title=" ">
<polygon fill="white" stroke="#bfbfbf" points="90,-0.5 90,-19.5 180,-19.5 180,-0.5 90,-0.5"/>
<text text-anchor="middle" x="135" y="-7.5" font-family="Helvetica,sans-Serif" font-size="10.00">PubSubClient.h</text>
</a>
</g>
</g>
<!-- Node3&#45;&gt;Node6 -->
<g id="edge5" class="edge">
<title>Node3&#45;&gt;Node6</title>
<path fill="none" stroke="midnightblue" d="M308.36,-56.44C272.95,-47.16 216.29,-32.31 177.45,-22.13"/>
<polygon fill="midnightblue" stroke="midnightblue" points="178.05,-18.67 167.49,-19.52 176.27,-25.44 178.05,-18.67"/>
</g>
<!-- Node7 -->
<g id="node7" class="node">
<title>Node7</title>
<g id="a_node7"><a xlink:title=" ">
<polygon fill="white" stroke="#bfbfbf" points="198.5,-0.5 198.5,-19.5 281.5,-19.5 281.5,-0.5 198.5,-0.5"/>
<text text-anchor="middle" x="240" y="-7.5" font-family="Helvetica,sans-Serif" font-size="10.00">ArduinoJson.h</text>
</a>
</g>
</g>
<!-- Node3&#45;&gt;Node7 -->
<g id="edge6" class="edge">
<title>Node3&#45;&gt;Node7</title>
<path fill="none" stroke="midnightblue" d="M324.77,-56.32C308.65,-47.7 283.7,-34.36 265.04,-24.39"/>
<polygon fill="midnightblue" stroke="midnightblue" points="266.66,-21.28 256.19,-19.65 263.36,-27.46 266.66,-21.28"/>
</g>
<!-- Node8 -->
<g id="node8" class="node">
<title>Node8</title>
<g id="a_node8"><a xlink:title=" ">
<polygon fill="white" stroke="#bfbfbf" points="300,-0.5 300,-19.5 410,-19.5 410,-0.5 300,-0.5"/>
<text text-anchor="middle" x="355" y="-7.5" font-family="Helvetica,sans-Serif" font-size="10.00">PJONThroughLora.h</text>
</a>
</g>
</g>
<!-- Node3&#45;&gt;Node8 -->
<g id="edge7" class="edge">
<title>Node3&#45;&gt;Node8</title>
<path fill="none" stroke="midnightblue" d="M343.31,-56.08C345.17,-48.93 347.84,-38.64 350.15,-29.69"/>
<polygon fill="midnightblue" stroke="midnightblue" points="353.61,-30.31 352.73,-19.75 346.83,-28.55 353.61,-30.31"/>
</g>
<!-- Node9 -->
<g id="node9" class="node">
<title>Node9</title>
<g id="a_node9"><a xlink:href="topics_8h.html" target="_top" xlink:title="MQTT topics for a thingsboard gateway.">
<polygon fill="white" stroke="black" points="0,-0.5 0,-19.5 72,-19.5 72,-0.5 0,-0.5"/>
<text text-anchor="middle" x="36" y="-7.5" font-family="Helvetica,sans-Serif" font-size="10.00">src/topics.h</text>
</a>
</g>
</g>
<!-- Node3&#45;&gt;Node9 -->
<g id="edge8" class="edge">
<title>Node3&#45;&gt;Node9</title>
<path fill="none" stroke="midnightblue" d="M305.62,-59.18C257.4,-51.17 168.1,-36.12 82.24,-20.2"/>
<polygon fill="midnightblue" stroke="midnightblue" points="82.81,-16.74 72.33,-18.35 81.52,-23.62 82.81,-16.74"/>
</g>
<!-- Node10&#45;&gt;Node3 -->
<g id="edge10" class="edge">
<title>Node10&#45;&gt;Node3</title>
<path fill="none" stroke="midnightblue" d="M423.3,-392.28C440.82,-374.85 477,-333.69 477,-291 477,-291 477,-291 477,-177 477,-126.08 418.66,-94.67 378.4,-79.06"/>
<polygon fill="midnightblue" stroke="midnightblue" points="379.44,-75.72 368.85,-75.52 377.01,-82.28 379.44,-75.72"/>
</g>
<!-- Node11 -->
<g id="node11" class="node">
<title>Node11</title>
<g id="a_node11"><a xlink:href="devices_8h.html" target="_top" xlink:title="Devices and manager for all known devices the base station connects to.">
<polygon fill="white" stroke="black" points="341.5,-224.5 341.5,-243.5 404.5,-243.5 404.5,-224.5 341.5,-224.5"/>
<text text-anchor="middle" x="373" y="-231.5" font-family="Helvetica,sans-Serif" font-size="10.00">devices.h</text>
</a>
</g>
</g>
<!-- Node10&#45;&gt;Node11 -->
<g id="edge11" class="edge">
<title>Node10&#45;&gt;Node11</title>
<path fill="none" stroke="midnightblue" d="M413.67,-392.49C413.06,-379.98 411.38,-355.96 407,-336 400.48,-306.28 388.31,-273.07 380.43,-253.11"/>
<polygon fill="midnightblue" stroke="midnightblue" points="383.64,-251.71 376.66,-243.73 377.15,-254.32 383.64,-251.71"/>
</g>
<!-- Node15 -->
<g id="node15" class="node">
<title>Node15</title>
<g id="a_node15"><a xlink:href="lora_8h.html" target="_top" xlink:title="File that handles the LoRa radio and PJON.">
<polygon fill="white" stroke="black" points="354,-336.5 354,-355.5 398,-355.5 398,-336.5 354,-336.5"/>
<text text-anchor="middle" x="376" y="-343.5" font-family="Helvetica,sans-Serif" font-size="10.00">lora.h</text>
</a>
</g>
</g>
<!-- Node10&#45;&gt;Node15 -->
<g id="edge20" class="edge">
<title>Node10&#45;&gt;Node15</title>
<path fill="none" stroke="midnightblue" d="M402.56,-392.08C395.73,-384.61 387.66,-373.72 381.96,-364.52"/>
<polygon fill="midnightblue" stroke="midnightblue" points="384.98,-362.75 377.03,-355.75 378.88,-366.18 384.98,-362.75"/>
</g>
<!-- Node11&#45;&gt;Node3 -->
<g id="edge12" class="edge">
<title>Node11&#45;&gt;Node3</title>
<path fill="none" stroke="midnightblue" d="M376.08,-224.42C382.88,-204.08 397.37,-151.68 382,-112 377.55,-100.5 368.63,-90.13 360.25,-82.25"/>
<polygon fill="midnightblue" stroke="midnightblue" points="362.37,-79.46 352.54,-75.51 357.76,-84.73 362.37,-79.46"/>
</g>
<!-- Node12 -->
<g id="node12" class="node">
<title>Node12</title>
<g id="a_node12"><a xlink:href="lookups_8h.html" target="_top" xlink:title="Lookupable and lookupable manager base classes.">
<polygon fill="white" stroke="black" points="309.5,-112.5 309.5,-131.5 372.5,-131.5 372.5,-112.5 309.5,-112.5"/>
<text text-anchor="middle" x="341" y="-119.5" font-family="Helvetica,sans-Serif" font-size="10.00">lookups.h</text>
</a>
</g>
</g>
<!-- Node11&#45;&gt;Node12 -->
<g id="edge13" class="edge">
<title>Node11&#45;&gt;Node12</title>
<path fill="none" stroke="midnightblue" d="M370.49,-224.37C365.3,-206.54 353.3,-165.3 346.32,-141.27"/>
<polygon fill="midnightblue" stroke="midnightblue" points="349.65,-140.22 343.5,-131.59 342.93,-142.17 349.65,-140.22"/>
</g>
<!-- Node13 -->
<g id="node13" class="node">
<title>Node13</title>
<g id="a_node13"><a xlink:href="fields_8h.html" target="_top" xlink:title="Contains fields classes.">
<polygon fill="white" stroke="black" points="225,-168.5 225,-187.5 277,-187.5 277,-168.5 225,-168.5"/>
<text text-anchor="middle" x="251" y="-175.5" font-family="Helvetica,sans-Serif" font-size="10.00">fields.h</text>
</a>
</g>
</g>
<!-- Node11&#45;&gt;Node13 -->
<g id="edge15" class="edge">
<title>Node11&#45;&gt;Node13</title>
<path fill="none" stroke="midnightblue" d="M353.67,-224.44C333.68,-215.6 302.26,-201.69 279.44,-191.59"/>
<polygon fill="midnightblue" stroke="midnightblue" points="280.8,-188.36 270.24,-187.52 277.97,-194.76 280.8,-188.36"/>
</g>
<!-- Node12&#45;&gt;Node3 -->
<g id="edge14" class="edge">
<title>Node12&#45;&gt;Node3</title>
<path fill="none" stroke="midnightblue" d="M341,-112.08C341,-105.01 341,-94.86 341,-85.99"/>
<polygon fill="midnightblue" stroke="midnightblue" points="344.5,-85.75 341,-75.75 337.5,-85.75 344.5,-85.75"/>
</g>
<!-- Node13&#45;&gt;Node3 -->
<g id="edge16" class="edge">
<title>Node13&#45;&gt;Node3</title>
<path fill="none" stroke="midnightblue" d="M234.97,-168.39C214.28,-156.16 182.67,-132.9 198,-112 220.16,-81.8 262.6,-71.33 295.51,-67.96"/>
<polygon fill="midnightblue" stroke="midnightblue" points="296.16,-71.42 305.83,-67.09 295.57,-64.44 296.16,-71.42"/>
</g>
<!-- Node13&#45;&gt;Node12 -->
<g id="edge17" class="edge">
<title>Node13&#45;&gt;Node12</title>
<path fill="none" stroke="midnightblue" d="M265.46,-168.32C279.5,-159.9 301.05,-146.97 317.54,-137.07"/>
<polygon fill="midnightblue" stroke="midnightblue" points="319.8,-139.8 326.58,-131.65 316.2,-133.8 319.8,-139.8"/>
</g>
<!-- Node14 -->
<g id="node14" class="node">
<title>Node14</title>
<g id="a_node14"><a xlink:href="conversions_8h.html" target="_top" xlink:title="General functions for converting to and from char arrays.">
<polygon fill="white" stroke="black" points="207,-112.5 207,-131.5 291,-131.5 291,-112.5 207,-112.5"/>
<text text-anchor="middle" x="249" y="-119.5" font-family="Helvetica,sans-Serif" font-size="10.00">conversions.h</text>
</a>
</g>
</g>
<!-- Node13&#45;&gt;Node14 -->
<g id="edge18" class="edge">
<title>Node13&#45;&gt;Node14</title>
<path fill="none" stroke="midnightblue" d="M250.67,-168.08C250.41,-161.01 250.03,-150.86 249.7,-141.99"/>
<polygon fill="midnightblue" stroke="midnightblue" points="253.19,-141.61 249.32,-131.75 246.2,-141.87 253.19,-141.61"/>
</g>
<!-- Node14&#45;&gt;Node3 -->
<g id="edge19" class="edge">
<title>Node14&#45;&gt;Node3</title>
<path fill="none" stroke="midnightblue" d="M263.78,-112.32C278.27,-103.82 300.57,-90.73 317.49,-80.8"/>
<polygon fill="midnightblue" stroke="midnightblue" points="319.4,-83.74 326.26,-75.65 315.86,-77.7 319.4,-83.74"/>
</g>
<!-- Node15&#45;&gt;Node3 -->
<g id="edge21" class="edge">
<title>Node15&#45;&gt;Node3</title>
<path fill="none" stroke="midnightblue" d="M380.46,-336.39C389.03,-319.32 407.5,-279.76 414,-244 415.59,-235.25 414.63,-232.87 414,-224 410.44,-173.84 423.08,-155.58 398,-112 390.66,-99.24 378.15,-88.76 366.72,-81.13"/>
<polygon fill="midnightblue" stroke="midnightblue" points="368.24,-77.95 357.91,-75.63 364.54,-83.89 368.24,-77.95"/>
</g>
<!-- Node15&#45;&gt;Node10 -->
<g id="edge24" class="edge">
<title>Node15&#45;&gt;Node10</title>
<path fill="none" stroke="midnightblue" d="M387.29,-355.75C394.1,-363.17 402.17,-374.05 407.91,-383.27"/>
<polygon fill="midnightblue" stroke="midnightblue" points="404.92,-385.1 412.89,-392.08 411.01,-381.66 404.92,-385.1"/>
</g>
<!-- Node15&#45;&gt;Node11 -->
<g id="edge23" class="edge">
<title>Node15&#45;&gt;Node11</title>
<path fill="none" stroke="midnightblue" d="M375.76,-336.37C375.28,-318.62 374.16,-277.67 373.51,-253.6"/>
<polygon fill="midnightblue" stroke="midnightblue" points="377.01,-253.49 373.23,-243.59 370.01,-253.68 377.01,-253.49"/>
</g>
<!-- Node15&#45;&gt;Node12 -->
<g id="edge22" class="edge">
<title>Node15&#45;&gt;Node12</title>
<path fill="none" stroke="midnightblue" d="M370.96,-336.47C361.27,-319.55 340.39,-280.23 333,-244 325.7,-208.21 331.97,-165.34 336.77,-141.44"/>
<polygon fill="midnightblue" stroke="midnightblue" points="340.2,-142.13 338.88,-131.61 333.36,-140.66 340.2,-142.13"/>
</g>
<!-- Node16 -->
<g id="node16" class="node">
<title>Node16</title>
<g id="a_node16"><a xlink:href="rpc_8h.html" target="_top" xlink:title="Handles RPC calls.">
<polygon fill="white" stroke="black" points="230.5,-280.5 230.5,-299.5 271.5,-299.5 271.5,-280.5 230.5,-280.5"/>
<text text-anchor="middle" x="251" y="-287.5" font-family="Helvetica,sans-Serif" font-size="10.00">rpc.h</text>
</a>
</g>
</g>
<!-- Node15&#45;&gt;Node16 -->
<g id="edge25" class="edge">
<title>Node15&#45;&gt;Node16</title>
<path fill="none" stroke="midnightblue" d="M356.19,-336.44C335.71,-327.6 303.52,-313.69 280.14,-303.59"/>
<polygon fill="midnightblue" stroke="midnightblue" points="281.28,-300.27 270.71,-299.52 278.51,-306.7 281.28,-300.27"/>
</g>
<!-- Node16&#45;&gt;Node3 -->
<g id="edge26" class="edge">
<title>Node16&#45;&gt;Node3</title>
<path fill="none" stroke="midnightblue" d="M242.83,-280.4C217.98,-253.2 147.5,-167.57 189,-112 213.36,-79.39 260.3,-69.44 295.61,-66.85"/>
<polygon fill="midnightblue" stroke="midnightblue" points="295.9,-70.34 305.69,-66.28 295.51,-63.35 295.9,-70.34"/>
</g>
<!-- Node16&#45;&gt;Node9 -->
<g id="edge27" class="edge">
<title>Node16&#45;&gt;Node9</title>
<path fill="none" stroke="midnightblue" d="M230.38,-287.99C176.57,-284.15 36,-265.79 36,-179 36,-179 36,-179 36,-121 36,-88.95 36,-51.64 36,-29.75"/>
<polygon fill="midnightblue" stroke="midnightblue" points="39.5,-29.56 36,-19.56 32.5,-29.56 39.5,-29.56"/>
</g>
<!-- Node16&#45;&gt;Node10 -->
<g id="edge32" class="edge">
<title>Node16&#45;&gt;Node10</title>
<path fill="none" stroke="midnightblue" d="M263.1,-299.52C280.92,-312.04 315.35,-336.09 345,-356 360.63,-366.5 378.43,-378.09 392.03,-386.89"/>
<polygon fill="midnightblue" stroke="midnightblue" points="390.4,-390 400.7,-392.48 394.19,-384.12 390.4,-390"/>
</g>
<!-- Node16&#45;&gt;Node11 -->
<g id="edge30" class="edge">
<title>Node16&#45;&gt;Node11</title>
<path fill="none" stroke="midnightblue" d="M270.33,-280.44C290.32,-271.6 321.74,-257.69 344.56,-247.59"/>
<polygon fill="midnightblue" stroke="midnightblue" points="346.03,-250.76 353.76,-243.52 343.2,-244.36 346.03,-250.76"/>
</g>
<!-- Node16&#45;&gt;Node13 -->
<g id="edge31" class="edge">
<title>Node16&#45;&gt;Node13</title>
<path fill="none" stroke="midnightblue" d="M251,-280.37C251,-262.62 251,-221.67 251,-197.6"/>
<polygon fill="midnightblue" stroke="midnightblue" points="254.5,-197.59 251,-187.59 247.5,-197.59 254.5,-197.59"/>
</g>
<!-- Node17 -->
<g id="node17" class="node">
<title>Node17</title>
<g id="a_node17"><a xlink:href="alarm_8h.html" target="_top" xlink:title="Handles alarms.">
<polygon fill="white" stroke="black" points="64,-168.5 64,-187.5 118,-187.5 118,-168.5 64,-168.5"/>
<text text-anchor="middle" x="91" y="-175.5" font-family="Helvetica,sans-Serif" font-size="10.00">alarm.h</text>
</a>
</g>
</g>
<!-- Node16&#45;&gt;Node17 -->
<g id="edge28" class="edge">
<title>Node16&#45;&gt;Node17</title>
<path fill="none" stroke="midnightblue" d="M230.48,-285.41C205.03,-280.08 161.43,-268.03 132,-244 116.7,-231.5 105.38,-211.72 98.56,-197.26"/>
<polygon fill="midnightblue" stroke="midnightblue" points="101.64,-195.57 94.39,-187.85 95.24,-198.41 101.64,-195.57"/>
</g>
<!-- Node17&#45;&gt;Node3 -->
<g id="edge29" class="edge">
<title>Node17&#45;&gt;Node3</title>
<path fill="none" stroke="midnightblue" d="M93.27,-168.28C97.44,-154.11 107.7,-126.25 127,-112 153.32,-92.56 241.24,-78.9 295.85,-72.04"/>
<polygon fill="midnightblue" stroke="midnightblue" points="296.47,-75.49 305.97,-70.8 295.62,-68.55 296.47,-75.49"/>
</g>
</g>
</svg>
        <g id="navigator" transform="translate(0 0)" fill="#404254">
                <rect fill="#f2f5e9" fill-opacity="0.5" stroke="#606060" stroke-width=".5" x="0" y="0" width="60" height="60"/>
                <use id="zoomplus" xlink:href="#zoomPlus" x="17" y="9" onmousedown="handleZoom(evt,'in')"/>
                <use id="zoomminus" xlink:href="#zoomMin" x="42" y="9" onmousedown="handleZoom(evt,'out')"/>
                <use id="reset" xlink:href="#resetDef" x="30" y="36" onmousedown="handleReset()"/>
                <g id="arrowUp" xlink:href="#dirArrow" transform="translate(30 24)" onmousedown="handlePan(0,-1)">
                  <use xlink:href="#rim" fill="#404040">
                        <set attributeName="fill" to="#808080" begin="arrowUp.mouseover" end="arrowUp.mouseout"/>
                  </use>
                  <path fill="none" stroke="white" stroke-width="1.5" d="M0,-3.0v7 M-2.5,-0.5L0,-3.0L2.5,-0.5"/>
                </g>
                <g id="arrowRight" xlink:href="#dirArrow" transform="rotate(90) translate(36 -43)" onmousedown="handlePan(1,0)">
                  <use xlink:href="#rim" fill="#404040">
                        <set attributeName="fill" to="#808080" begin="arrowRight.mouseover" end="arrowRight.mouseout"/>
                  </use>
                  <path fill="none" stroke="white" stroke-width="1.5" d="M0,-3.0v7 M-2.5,-0.5L0,-3.0L2.5,-0.5"/>
                </g>
                <g id="arrowDown" xlink:href="#dirArrow" transform="rotate(180) translate(-30 -48)" onmousedown="handlePan(0,1)">
                  <use xlink:href="#rim" fill="#404040">
                        <set attributeName="fill" to="#808080" begin="arrowDown.mouseover" end="arrowDown.mouseout"/>
                  </use>
                  <path fill="none" stroke="white" stroke-width="1.5" d="M0,-3.0v7 M-2.5,-0.5L0,-3.0L2.5,-0.5"/>
                </g>
                <g id="arrowLeft" xlink:href="#dirArrow" transform="rotate(270) translate(-36 17)" onmousedown="handlePan(-1,0)">
                  <use xlink:href="#rim" fill="#404040">
                        <set attributeName="fill" to="#808080" begin="arrowLeft.mouseover" end="arrowLeft.mouseout"/>
                  </use>
                  <path fill="none" stroke="white" stroke-width="1.5" d="M0,-3.0v7 M-2.5,-0.5L0,-3.0L2.5,-0.5"/>
                </g>
        </g>
        <svg viewBox="0 0 15 15" width="100%" height="30px" preserveAspectRatio="xMaxYMin meet">
         <g id="arrow_out" transform="scale(0.3 0.3)">
          <a xlink:href="timeseries_8cpp__incl_org.svg" target="_base">
           <rect id="button" ry="5" rx="5" y="6" x="6" height="38" width="38"
                fill="#f2f5e9" fill-opacity="0.5" stroke="#606060" stroke-width="1.0"/>
           <path id="arrow"
             d="M 11.500037,31.436501 C 11.940474,20.09759 22.043105,11.32322 32.158766,21.979434 L 37.068811,17.246167 C 37.068811,17.246167 37.088388,32 37.088388,32 L 22.160133,31.978069 C 22.160133,31.978069 26.997745,27.140456 26.997745,27.140456 C 18.528582,18.264221 13.291696,25.230495 11.500037,31.436501 z"
             style="fill:#404040;"/>
          </a>
         </g>
        </svg>
</svg>
