<?xml version="1.0" encoding="UTF-8" standalone="no"?>
<!DOCTYPE svg PUBLIC "-//W3C//DTD SVG 1.1//EN"
 "http://www.w3.org/Graphics/SVG/1.1/DTD/svg11.dtd">
<!-- Generated by graphviz version 2.43.0 (0)
 -->
<!-- Title: BaseStationCode/src/src/topics.h Pages: 1 -->
<!--zoomable 642 -->
<svg id="main" version="1.1" xmlns="http://www.w3.org/2000/svg" xmlns:xlink="http://www.w3.org/1999/xlink" xml:space="preserve" onload="init(evt)">
<style type="text/css"><![CDATA[
.edge:hover path { stroke: red; }
.edge:hover polygon { stroke: red; fill: red; }
]]></style>
<script type="text/javascript"><![CDATA[
var edges = document.getElementsByTagName('g');
if (edges && edges.length) {
  for (var i=0;i<edges.length;i++) {
    if (edges[i].id.substr(0,4)=='edge') {
      edges[i].setAttribute('class','edge');
    }
  }
}
]]></script>
        <defs>
                <circle id="rim" cx="0" cy="0" r="7"/>
                <circle id="rim2" cx="0" cy="0" r="3.5"/>
                <g id="zoomPlus">
                        <use xlink:href="#rim" fill="#404040">
                                <set attributeName="fill" to="#808080" begin="zoomplus.mouseover" end="zoomplus.mouseout"/>
                        </use>
                        <path d="M-4,0h8M0,-4v8" fill="none" stroke="white" stroke-width="1.5" pointer-events="none"/>
                </g>
                <g id="zoomMin">
                        <use xlink:href="#rim" fill="#404040">
                                <set attributeName="fill" to="#808080" begin="zoomminus.mouseover" end="zoomminus.mouseout"/>
                        </use>
                        <path d="M-4,0h8" fill="none" stroke="white" stroke-width="1.5" pointer-events="none"/>
                </g>
                <g id="dirArrow">
                        <path fill="none" stroke="white" stroke-width="1.5" d="M0,-3.0v7 M-2.5,-0.5L0,-3.0L2.5,-0.5"/>
                </g>
               <g id="resetDef">
                       <use xlink:href="#rim2" fill="#404040">
                               <set attributeName="fill" to="#808080" begin="reset.mouseover" end="reset.mouseout"/>
                       </use>
               </g>
        </defs>

<script type="text/javascript">
var viewWidth = 1167;
var viewHeight = 642;
var sectionId = 'dynsection-0';
</script>
<script xlink:href="svgpan.js"/>
<svg id="graph" class="graph">
<g id="viewport">
<title>BaseStationCode/src/src/topics.h</title>
<polygon fill="white" stroke="transparent" points="-4,4 -4,-638 1163,-638 1163,4 -4,4"/>
<!-- Node1 -->
<g id="node1" class="node">
<title>Node1</title>
<g id="a_node1"><a xlink:title="MQTT topics for a thingsboard gateway.">
<polygon fill="#bfbfbf" stroke="black" points="277.5,-603.5 277.5,-633.5 394.5,-633.5 394.5,-603.5 277.5,-603.5"/>
<text text-anchor="start" x="285.5" y="-621.5" font-family="Helvetica,sans-Serif" font-size="10.00">BaseStationCode/src</text>
<text text-anchor="middle" x="336" y="-610.5" font-family="Helvetica,sans-Serif" font-size="10.00">/src/topics.h</text>
</a>
</g>
</g>
<!-- Node2 -->
<g id="node2" class="node">
<title>Node2</title>
<g id="a_node2"><a xlink:href="defines_8h.html" target="_top" xlink:title="Definitions and other preprocessor and global stuff.">
<polygon fill="white" stroke="black" points="428.5,-536.5 428.5,-566.5 545.5,-566.5 545.5,-536.5 428.5,-536.5"/>
<text text-anchor="start" x="436.5" y="-554.5" font-family="Helvetica,sans-Serif" font-size="10.00">BaseStationCode/src</text>
<text text-anchor="middle" x="487" y="-543.5" font-family="Helvetica,sans-Serif" font-size="10.00">/defines.h</text>
</a>
</g>
</g>
<!-- Node1&#45;&gt;Node2 -->
<g id="edge1" class="edge">
<title>Node1&#45;&gt;Node2</title>
<path fill="none" stroke="midnightblue" d="M378.03,-599.41C402.14,-589.03 431.95,-576.2 454.3,-566.58"/>
<polygon fill="midnightblue" stroke="midnightblue" points="376.57,-596.23 368.76,-603.4 379.33,-602.66 376.57,-596.23"/>
</g>
<!-- Node8 -->
<g id="node8" class="node">
<title>Node8</title>
<g id="a_node8"><a xlink:href="rpc_8h.html" target="_top" xlink:title="Handles RPC calls.">
<polygon fill="white" stroke="black" points="378.5,-268.5 378.5,-298.5 495.5,-298.5 495.5,-268.5 378.5,-268.5"/>
<text text-anchor="start" x="386.5" y="-286.5" font-family="Helvetica,sans-Serif" font-size="10.00">BaseStationCode/src</text>
<text text-anchor="middle" x="437" y="-275.5" font-family="Helvetica,sans-Serif" font-size="10.00">/src/rpc.h</text>
</a>
</g>
</g>
<!-- Node1&#45;&gt;Node8 -->
<g id="edge52" class="edge">
<title>Node1&#45;&gt;Node8</title>
<path fill="none" stroke="midnightblue" d="M339.19,-593.35C346.36,-543.48 366.23,-426.13 405,-335 410.53,-322.01 419.21,-308.57 426.14,-298.82"/>
<polygon fill="midnightblue" stroke="midnightblue" points="335.7,-593.08 337.78,-603.47 342.63,-594.05 335.7,-593.08"/>
</g>
<!-- Node3 -->
<g id="node3" class="node">
<title>Node3</title>
<g id="a_node3"><a xlink:href="main_8cpp.html" target="_top" xlink:title=" ">
<polygon fill="white" stroke="black" points="532.5,-0.5 532.5,-30.5 649.5,-30.5 649.5,-0.5 532.5,-0.5"/>
<text text-anchor="start" x="540.5" y="-18.5" font-family="Helvetica,sans-Serif" font-size="10.00">BaseStationCode/src</text>
<text text-anchor="middle" x="591" y="-7.5" font-family="Helvetica,sans-Serif" font-size="10.00">/main.cpp</text>
</a>
</g>
</g>
<!-- Node2&#45;&gt;Node3 -->
<g id="edge2" class="edge">
<title>Node2&#45;&gt;Node3</title>
<path fill="none" stroke="midnightblue" d="M555.68,-548.14C706.21,-542.5 1055.54,-526.68 1102,-500 1140.33,-477.99 1159,-462.7 1159,-418.5 1159,-418.5 1159,-418.5 1159,-148.5 1159,-91.85 1113.17,-89.08 1061,-67 988.16,-36.17 758.56,-23.14 649.56,-18.58"/>
<polygon fill="midnightblue" stroke="midnightblue" points="555.49,-544.64 545.62,-548.51 555.74,-551.64 555.49,-544.64"/>
</g>
<!-- Node4 -->
<g id="node4" class="node">
<title>Node4</title>
<g id="a_node4"><a xlink:href="alarm_8h.html" target="_top" xlink:title="Handles alarms.">
<polygon fill="white" stroke="black" points="128.5,-335.5 128.5,-365.5 245.5,-365.5 245.5,-335.5 128.5,-335.5"/>
<text text-anchor="start" x="136.5" y="-353.5" font-family="Helvetica,sans-Serif" font-size="10.00">BaseStationCode/src</text>
<text text-anchor="middle" x="187" y="-342.5" font-family="Helvetica,sans-Serif" font-size="10.00">/src/alarm.h</text>
</a>
</g>
</g>
<!-- Node2&#45;&gt;Node4 -->
<g id="edge3" class="edge">
<title>Node2&#45;&gt;Node4</title>
<path fill="none" stroke="midnightblue" d="M418.19,-541.84C360.68,-533.41 284.29,-519.1 260,-500 215.51,-465.02 196.27,-395.94 189.76,-365.95"/>
<polygon fill="midnightblue" stroke="midnightblue" points="417.93,-545.33 428.33,-543.29 418.92,-538.41 417.93,-545.33"/>
</g>
<!-- Node6 -->
<g id="node6" class="node">
<title>Node6</title>
<g id="a_node6"><a xlink:href="leds_8h.html" target="_top" xlink:title="Controls the LEDs on the unit.">
<polygon fill="white" stroke="black" points="97.5,-67.5 97.5,-97.5 214.5,-97.5 214.5,-67.5 97.5,-67.5"/>
<text text-anchor="start" x="105.5" y="-85.5" font-family="Helvetica,sans-Serif" font-size="10.00">BaseStationCode/src</text>
<text text-anchor="middle" x="156" y="-74.5" font-family="Helvetica,sans-Serif" font-size="10.00">/src/leds.h</text>
</a>
</g>
</g>
<!-- Node2&#45;&gt;Node6 -->
<g id="edge43" class="edge">
<title>Node2&#45;&gt;Node6</title>
<path fill="none" stroke="midnightblue" d="M418.07,-546.2C283.75,-535.92 0,-504.09 0,-418.5 0,-418.5 0,-418.5 0,-215.5 0,-155.01 69.2,-116.54 115.42,-97.59"/>
<polygon fill="midnightblue" stroke="midnightblue" points="418.02,-549.71 428.26,-546.96 418.54,-542.73 418.02,-549.71"/>
</g>
<!-- Node2&#45;&gt;Node8 -->
<g id="edge51" class="edge">
<title>Node2&#45;&gt;Node8</title>
<path fill="none" stroke="midnightblue" d="M450.57,-530.97C438.76,-522.9 426.73,-512.47 419,-500 378.37,-434.41 414.57,-335.26 430.43,-298.69"/>
<polygon fill="midnightblue" stroke="midnightblue" points="448.76,-533.97 459.07,-536.43 452.55,-528.08 448.76,-533.97"/>
</g>
<!-- Node9 -->
<g id="node9" class="node">
<title>Node9</title>
<g id="a_node9"><a xlink:href="lora_8h.html" target="_top" xlink:title="File that handles the LoRa radio and PJON.">
<polygon fill="white" stroke="black" points="628.5,-201.5 628.5,-231.5 745.5,-231.5 745.5,-201.5 628.5,-201.5"/>
<text text-anchor="start" x="636.5" y="-219.5" font-family="Helvetica,sans-Serif" font-size="10.00">BaseStationCode/src</text>
<text text-anchor="middle" x="687" y="-208.5" font-family="Helvetica,sans-Serif" font-size="10.00">/src/lora.h</text>
</a>
</g>
</g>
<!-- Node2&#45;&gt;Node9 -->
<g id="edge48" class="edge">
<title>Node2&#45;&gt;Node9</title>
<path fill="none" stroke="midnightblue" d="M555.72,-545.56C646.14,-538.28 799.62,-523 851,-500 902.08,-477.13 947,-474.47 947,-418.5 947,-418.5 947,-418.5 947,-349.5 947,-309.72 940.84,-293.13 910,-268 885.15,-247.75 802.9,-232.95 745.57,-224.79"/>
<polygon fill="midnightblue" stroke="midnightblue" points="555.25,-542.09 545.55,-546.37 555.8,-549.07 555.25,-542.09"/>
</g>
<!-- Node11 -->
<g id="node11" class="node">
<title>Node11</title>
<g id="a_node11"><a xlink:href="networking_8h.html" target="_top" xlink:title="Header file for networking.cpp.">
<polygon fill="white" stroke="black" points="427.5,-134.5 427.5,-164.5 544.5,-164.5 544.5,-134.5 427.5,-134.5"/>
<text text-anchor="start" x="435.5" y="-152.5" font-family="Helvetica,sans-Serif" font-size="10.00">BaseStationCode/src</text>
<text text-anchor="middle" x="486" y="-141.5" font-family="Helvetica,sans-Serif" font-size="10.00">/src/networking.h</text>
</a>
</g>
</g>
<!-- Node2&#45;&gt;Node11 -->
<g id="edge49" class="edge">
<title>Node2&#45;&gt;Node11</title>
<path fill="none" stroke="midnightblue" d="M427.7,-532.97C376.94,-513.87 312,-477.85 312,-418.5 312,-418.5 312,-418.5 312,-282.5 312,-245.31 305.85,-228.41 331,-201 355.59,-174.2 394.55,-161.58 427.25,-155.66"/>
<polygon fill="midnightblue" stroke="midnightblue" points="426.73,-536.34 437.32,-536.45 429.11,-529.75 426.73,-536.34"/>
</g>
<!-- Node13 -->
<g id="node13" class="node">
<title>Node13</title>
<g id="a_node13"><a xlink:href="ota_8h.html" target="_top" xlink:title="Handles over the air (OTA) updates.">
<polygon fill="white" stroke="black" points="271.5,-67.5 271.5,-97.5 388.5,-97.5 388.5,-67.5 271.5,-67.5"/>
<text text-anchor="start" x="279.5" y="-85.5" font-family="Helvetica,sans-Serif" font-size="10.00">BaseStationCode/src</text>
<text text-anchor="middle" x="330" y="-74.5" font-family="Helvetica,sans-Serif" font-size="10.00">/src/ota.h</text>
</a>
</g>
</g>
<!-- Node2&#45;&gt;Node13 -->
<g id="edge50" class="edge">
<title>Node2&#45;&gt;Node13</title>
<path fill="none" stroke="midnightblue" d="M418.43,-537.8C356.16,-521.84 274,-487.67 274,-418.5 274,-418.5 274,-418.5 274,-282.5 274,-210.72 308.18,-129.64 323.13,-97.6"/>
<polygon fill="midnightblue" stroke="midnightblue" points="417.69,-541.22 428.23,-540.21 419.36,-534.42 417.69,-541.22"/>
</g>
<!-- Node16 -->
<g id="node16" class="node">
<title>Node16</title>
<g id="a_node16"><a xlink:href="audio_8h.html" target="_top" xlink:title="Plays audio.">
<polygon fill="white" stroke="black" points="975.5,-469.5 975.5,-499.5 1092.5,-499.5 1092.5,-469.5 975.5,-469.5"/>
<text text-anchor="start" x="983.5" y="-487.5" font-family="Helvetica,sans-Serif" font-size="10.00">BaseStationCode/src</text>
<text text-anchor="middle" x="1034" y="-476.5" font-family="Helvetica,sans-Serif" font-size="10.00">/src/audio.h</text>
</a>
</g>
</g>
<!-- Node2&#45;&gt;Node16 -->
<g id="edge24" class="edge">
<title>Node2&#45;&gt;Node16</title>
<path fill="none" stroke="midnightblue" d="M555.66,-545.14C648.08,-537.47 817.48,-521.85 961,-500 965.6,-499.3 970.35,-498.51 975.11,-497.67"/>
<polygon fill="midnightblue" stroke="midnightblue" points="555.27,-541.66 545.6,-545.96 555.85,-548.63 555.27,-541.66"/>
</g>
<!-- Node18 -->
<g id="node18" class="node">
<title>Node18</title>
<g id="a_node18"><a xlink:href="conversions_8h.html" target="_top" xlink:title="General functions for converting to and from char arrays.">
<polygon fill="white" stroke="black" points="428.5,-469.5 428.5,-499.5 545.5,-499.5 545.5,-469.5 428.5,-469.5"/>
<text text-anchor="start" x="436.5" y="-487.5" font-family="Helvetica,sans-Serif" font-size="10.00">BaseStationCode/src</text>
<text text-anchor="middle" x="487" y="-476.5" font-family="Helvetica,sans-Serif" font-size="10.00">/src/conversions.h</text>
</a>
</g>
</g>
<!-- Node2&#45;&gt;Node18 -->
<g id="edge27" class="edge">
<title>Node2&#45;&gt;Node18</title>
<path fill="none" stroke="midnightblue" d="M487,-526.11C487,-517.15 487,-507.32 487,-499.58"/>
<polygon fill="midnightblue" stroke="midnightblue" points="483.5,-526.4 487,-536.4 490.5,-526.4 483.5,-526.4"/>
</g>
<!-- Node20 -->
<g id="node20" class="node">
<title>Node20</title>
<g id="a_node20"><a xlink:href="fields_8h.html" target="_top" xlink:title="Contains fields classes.">
<polygon fill="white" stroke="black" points="551.5,-402.5 551.5,-432.5 668.5,-432.5 668.5,-402.5 551.5,-402.5"/>
<text text-anchor="start" x="559.5" y="-420.5" font-family="Helvetica,sans-Serif" font-size="10.00">BaseStationCode/src</text>
<text text-anchor="middle" x="610" y="-409.5" font-family="Helvetica,sans-Serif" font-size="10.00">/src/fields.h</text>
</a>
</g>
</g>
<!-- Node2&#45;&gt;Node20 -->
<g id="edge42" class="edge">
<title>Node2&#45;&gt;Node20</title>
<path fill="none" stroke="midnightblue" d="M517.71,-530.54C529.74,-521.93 543.22,-511.26 554,-500 574.18,-478.92 592.25,-449.89 602.12,-432.77"/>
<polygon fill="midnightblue" stroke="midnightblue" points="515.47,-527.84 509.26,-536.42 519.47,-533.58 515.47,-527.84"/>
</g>
<!-- Node22 -->
<g id="node22" class="node">
<title>Node22</title>
<g id="a_node22"><a xlink:href="devices_8h.html" target="_top" xlink:title="Devices and manager for all known devices the base station connects to.">
<polygon fill="white" stroke="black" points="614.5,-335.5 614.5,-365.5 731.5,-365.5 731.5,-335.5 614.5,-335.5"/>
<text text-anchor="start" x="622.5" y="-353.5" font-family="Helvetica,sans-Serif" font-size="10.00">BaseStationCode/src</text>
<text text-anchor="middle" x="673" y="-342.5" font-family="Helvetica,sans-Serif" font-size="10.00">/src/devices.h</text>
</a>
</g>
</g>
<!-- Node2&#45;&gt;Node22 -->
<g id="edge41" class="edge">
<title>Node2&#45;&gt;Node22</title>
<path fill="none" stroke="midnightblue" d="M544.84,-532.87C590.27,-515.54 650.17,-484.14 677,-433 688.19,-411.67 682.75,-382.73 677.84,-365.69"/>
<polygon fill="midnightblue" stroke="midnightblue" points="543.56,-529.61 535.39,-536.35 545.98,-536.18 543.56,-529.61"/>
</g>
<!-- Node25 -->
<g id="node25" class="node">
<title>Node25</title>
<g id="a_node25"><a xlink:href="lookups_8h.html" target="_top" xlink:title="Lookupable and lookupable manager base classes.">
<polygon fill="white" stroke="black" points="725.5,-469.5 725.5,-499.5 842.5,-499.5 842.5,-469.5 725.5,-469.5"/>
<text text-anchor="start" x="733.5" y="-487.5" font-family="Helvetica,sans-Serif" font-size="10.00">BaseStationCode/src</text>
<text text-anchor="middle" x="784" y="-476.5" font-family="Helvetica,sans-Serif" font-size="10.00">/src/lookups.h</text>
</a>
</g>
</g>
<!-- Node2&#45;&gt;Node25 -->
<g id="edge44" class="edge">
<title>Node2&#45;&gt;Node25</title>
<path fill="none" stroke="midnightblue" d="M555.71,-535.46C607.11,-524.21 676.66,-508.99 725.44,-498.32"/>
<polygon fill="midnightblue" stroke="midnightblue" points="554.7,-532.1 545.68,-537.66 556.19,-538.94 554.7,-532.1"/>
</g>
<!-- Node4&#45;&gt;Node3 -->
<g id="edge4" class="edge">
<title>Node4&#45;&gt;Node3</title>
<path fill="none" stroke="midnightblue" d="M191.86,-325.26C205.14,-260.05 242.37,-84.63 262,-67 281.78,-49.24 443.09,-30.92 532.26,-22.02"/>
<polygon fill="midnightblue" stroke="midnightblue" points="188.35,-324.92 189.8,-335.42 195.22,-326.31 188.35,-324.92"/>
</g>
<!-- Node5 -->
<g id="node5" class="node">
<title>Node5</title>
<g id="a_node5"><a xlink:href="alarm_8cpp.html" target="_top" xlink:title="Handles alarms.">
<polygon fill="white" stroke="black" points="28.5,-268.5 28.5,-298.5 145.5,-298.5 145.5,-268.5 28.5,-268.5"/>
<text text-anchor="start" x="36.5" y="-286.5" font-family="Helvetica,sans-Serif" font-size="10.00">BaseStationCode/src</text>
<text text-anchor="middle" x="87" y="-275.5" font-family="Helvetica,sans-Serif" font-size="10.00">/src/alarm.cpp</text>
</a>
</g>
</g>
<!-- Node4&#45;&gt;Node5 -->
<g id="edge5" class="edge">
<title>Node4&#45;&gt;Node5</title>
<path fill="none" stroke="midnightblue" d="M156.59,-329.73C141.12,-319.68 122.67,-307.68 108.66,-298.58"/>
<polygon fill="midnightblue" stroke="midnightblue" points="155.01,-332.88 165.3,-335.4 158.82,-327.01 155.01,-332.88"/>
</g>
<!-- Node4&#45;&gt;Node6 -->
<g id="edge6" class="edge">
<title>Node4&#45;&gt;Node6</title>
<path fill="none" stroke="midnightblue" d="M184.15,-325.07C177.8,-270.57 162.65,-140.52 157.64,-97.55"/>
<polygon fill="midnightblue" stroke="midnightblue" points="180.7,-325.67 185.33,-335.2 187.65,-324.86 180.7,-325.67"/>
</g>
<!-- Node4&#45;&gt;Node8 -->
<g id="edge9" class="edge">
<title>Node4&#45;&gt;Node8</title>
<path fill="none" stroke="midnightblue" d="M250.78,-332.92C291.58,-322.31 343.93,-308.7 382.73,-298.61"/>
<polygon fill="midnightblue" stroke="midnightblue" points="249.74,-329.57 240.94,-335.48 251.5,-336.35 249.74,-329.57"/>
</g>
<!-- Node6&#45;&gt;Node3 -->
<g id="edge7" class="edge">
<title>Node6&#45;&gt;Node3</title>
<path fill="none" stroke="midnightblue" d="M224.54,-67.77C226.04,-67.5 227.53,-67.25 229,-67 335.52,-49.01 460.47,-32.61 532.22,-23.65"/>
<polygon fill="midnightblue" stroke="midnightblue" points="223.74,-64.35 214.52,-69.57 224.98,-71.24 223.74,-64.35"/>
</g>
<!-- Node7 -->
<g id="node7" class="node">
<title>Node7</title>
<g id="a_node7"><a xlink:href="leds_8cpp.html" target="_top" xlink:title="Controls the LEDs on the unit.">
<polygon fill="white" stroke="black" points="97.5,-0.5 97.5,-30.5 214.5,-30.5 214.5,-0.5 97.5,-0.5"/>
<text text-anchor="start" x="105.5" y="-18.5" font-family="Helvetica,sans-Serif" font-size="10.00">BaseStationCode/src</text>
<text text-anchor="middle" x="156" y="-7.5" font-family="Helvetica,sans-Serif" font-size="10.00">/src/leds.cpp</text>
</a>
</g>
</g>
<!-- Node6&#45;&gt;Node7 -->
<g id="edge8" class="edge">
<title>Node6&#45;&gt;Node7</title>
<path fill="none" stroke="midnightblue" d="M156,-57.11C156,-48.15 156,-38.32 156,-30.58"/>
<polygon fill="midnightblue" stroke="midnightblue" points="152.5,-57.4 156,-67.4 159.5,-57.4 152.5,-57.4"/>
</g>
<!-- Node8&#45;&gt;Node3 -->
<g id="edge10" class="edge">
<title>Node8&#45;&gt;Node3</title>
<path fill="none" stroke="midnightblue" d="M464.22,-261.99C490.72,-240.61 530.22,-204.71 553,-165 578.68,-120.22 587.26,-58.03 589.91,-30.53"/>
<polygon fill="midnightblue" stroke="midnightblue" points="461.78,-259.46 456.11,-268.41 466.12,-264.95 461.78,-259.46"/>
</g>
<!-- Node8&#45;&gt;Node9 -->
<g id="edge11" class="edge">
<title>Node8&#45;&gt;Node9</title>
<path fill="none" stroke="midnightblue" d="M500.78,-265.92C541.58,-255.31 593.93,-241.7 632.73,-231.61"/>
<polygon fill="midnightblue" stroke="midnightblue" points="499.74,-262.57 490.94,-268.48 501.5,-269.35 499.74,-262.57"/>
</g>
<!-- Node15 -->
<g id="node15" class="node">
<title>Node15</title>
<g id="a_node15"><a xlink:href="rpc_8cpp.html" target="_top" xlink:title="Handles RPC calls.">
<polygon fill="white" stroke="black" points="340.5,-201.5 340.5,-231.5 457.5,-231.5 457.5,-201.5 340.5,-201.5"/>
<text text-anchor="start" x="348.5" y="-219.5" font-family="Helvetica,sans-Serif" font-size="10.00">BaseStationCode/src</text>
<text text-anchor="middle" x="399" y="-208.5" font-family="Helvetica,sans-Serif" font-size="10.00">/src/rpc.cpp</text>
</a>
</g>
</g>
<!-- Node8&#45;&gt;Node15 -->
<g id="edge23" class="edge">
<title>Node8&#45;&gt;Node15</title>
<path fill="none" stroke="midnightblue" d="M423.6,-259.58C418.14,-250.24 412.01,-239.75 407.23,-231.58"/>
<polygon fill="midnightblue" stroke="midnightblue" points="420.69,-261.53 428.75,-268.4 426.73,-258 420.69,-261.53"/>
</g>
<!-- Node9&#45;&gt;Node3 -->
<g id="edge12" class="edge">
<title>Node9&#45;&gt;Node3</title>
<path fill="none" stroke="midnightblue" d="M667.65,-193.36C660.85,-184.87 653.54,-174.85 648,-165 621.89,-118.54 602.75,-57.73 594.91,-30.61"/>
<polygon fill="midnightblue" stroke="midnightblue" points="665.12,-195.79 674.19,-201.27 670.52,-191.33 665.12,-195.79"/>
</g>
<!-- Node10 -->
<g id="node10" class="node">
<title>Node10</title>
<g id="a_node10"><a xlink:href="lora_8cpp.html" target="_top" xlink:title="File that handles the LoRa radio and PJON.">
<polygon fill="white" stroke="black" points="657.5,-134.5 657.5,-164.5 774.5,-164.5 774.5,-134.5 657.5,-134.5"/>
<text text-anchor="start" x="665.5" y="-152.5" font-family="Helvetica,sans-Serif" font-size="10.00">BaseStationCode/src</text>
<text text-anchor="middle" x="716" y="-141.5" font-family="Helvetica,sans-Serif" font-size="10.00">/src/lora.cpp</text>
</a>
</g>
</g>
<!-- Node9&#45;&gt;Node10 -->
<g id="edge13" class="edge">
<title>Node9&#45;&gt;Node10</title>
<path fill="none" stroke="midnightblue" d="M697.49,-191.99C701.59,-182.8 706.15,-172.58 709.72,-164.58"/>
<polygon fill="midnightblue" stroke="midnightblue" points="694.17,-190.84 693.29,-201.4 700.56,-193.69 694.17,-190.84"/>
</g>
<!-- Node9&#45;&gt;Node11 -->
<g id="edge14" class="edge">
<title>Node9&#45;&gt;Node11</title>
<path fill="none" stroke="midnightblue" d="M628.24,-198.44C594.58,-187.91 553.39,-174.55 523.96,-164.61"/>
<polygon fill="midnightblue" stroke="midnightblue" points="627.38,-201.84 637.97,-201.48 629.46,-195.16 627.38,-201.84"/>
</g>
<!-- Node11&#45;&gt;Node3 -->
<g id="edge15" class="edge">
<title>Node11&#45;&gt;Node3</title>
<path fill="none" stroke="midnightblue" d="M458.73,-127.5C440.28,-110.69 421.66,-86.75 436,-67 457.86,-36.88 498.16,-24.38 532.19,-19.34"/>
<polygon fill="midnightblue" stroke="midnightblue" points="456.67,-130.35 466.53,-134.23 461.25,-125.05 456.67,-130.35"/>
</g>
<!-- Node11&#45;&gt;Node6 -->
<g id="edge16" class="edge">
<title>Node11&#45;&gt;Node6</title>
<path fill="none" stroke="midnightblue" d="M417.25,-134.96C357.33,-123.16 271.36,-106.22 214.63,-95.05"/>
<polygon fill="midnightblue" stroke="midnightblue" points="416.89,-138.46 427.38,-136.95 418.25,-131.59 416.89,-138.46"/>
</g>
<!-- Node11&#45;&gt;Node8 -->
<g id="edge22" class="edge">
<title>Node11&#45;&gt;Node8</title>
<path fill="none" stroke="midnightblue" d="M481.92,-174.66C478.69,-191.17 473.47,-213.36 466,-232 460.81,-244.95 452.79,-258.61 446.5,-268.46"/>
<polygon fill="midnightblue" stroke="midnightblue" points="485.38,-175.19 483.76,-164.72 478.5,-173.91 485.38,-175.19"/>
</g>
<!-- Node11&#45;&gt;Node9 -->
<g id="edge17" class="edge">
<title>Node11&#45;&gt;Node9</title>
<path fill="none" stroke="midnightblue" d="M544.93,-167.61C578.56,-178.14 619.68,-191.47 649.06,-201.4"/>
<polygon fill="midnightblue" stroke="midnightblue" points="545.79,-164.21 535.2,-164.58 543.71,-170.89 545.79,-164.21"/>
</g>
<!-- Node12 -->
<g id="node12" class="node">
<title>Node12</title>
<g id="a_node12"><a xlink:href="networking_8cpp.html" target="_top" xlink:title="File that handles connecting to WiFi and MQTT and staying connected.">
<polygon fill="white" stroke="black" points="445.5,-67.5 445.5,-97.5 562.5,-97.5 562.5,-67.5 445.5,-67.5"/>
<text text-anchor="start" x="453.5" y="-85.5" font-family="Helvetica,sans-Serif" font-size="10.00">BaseStationCode/src</text>
<text text-anchor="middle" x="504" y="-74.5" font-family="Helvetica,sans-Serif" font-size="10.00">/src/networking.cpp</text>
</a>
</g>
</g>
<!-- Node11&#45;&gt;Node12 -->
<g id="edge18" class="edge">
<title>Node11&#45;&gt;Node12</title>
<path fill="none" stroke="midnightblue" d="M492.59,-124.7C495.11,-115.59 497.91,-105.49 500.1,-97.58"/>
<polygon fill="midnightblue" stroke="midnightblue" points="489.2,-123.82 489.91,-134.4 495.95,-125.69 489.2,-123.82"/>
</g>
<!-- Node11&#45;&gt;Node13 -->
<g id="edge19" class="edge">
<title>Node11&#45;&gt;Node13</title>
<path fill="none" stroke="midnightblue" d="M442.91,-130.54C417.94,-120.14 386.97,-107.24 363.78,-97.58"/>
<polygon fill="midnightblue" stroke="midnightblue" points="441.57,-133.78 452.15,-134.4 444.27,-127.32 441.57,-133.78"/>
</g>
<!-- Node13&#45;&gt;Node3 -->
<g id="edge20" class="edge">
<title>Node13&#45;&gt;Node3</title>
<path fill="none" stroke="midnightblue" d="M396.05,-65.05C438.72,-54.43 493.66,-40.74 534.34,-30.61"/>
<polygon fill="midnightblue" stroke="midnightblue" points="395.17,-61.66 386.31,-67.48 396.86,-68.46 395.17,-61.66"/>
</g>
<!-- Node14 -->
<g id="node14" class="node">
<title>Node14</title>
<g id="a_node14"><a xlink:href="ota_8cpp.html" target="_top" xlink:title="Handles over the air (OTA) updates.">
<polygon fill="white" stroke="black" points="271.5,-0.5 271.5,-30.5 388.5,-30.5 388.5,-0.5 271.5,-0.5"/>
<text text-anchor="start" x="279.5" y="-18.5" font-family="Helvetica,sans-Serif" font-size="10.00">BaseStationCode/src</text>
<text text-anchor="middle" x="330" y="-7.5" font-family="Helvetica,sans-Serif" font-size="10.00">/src/ota.cpp</text>
</a>
</g>
</g>
<!-- Node13&#45;&gt;Node14 -->
<g id="edge21" class="edge">
<title>Node13&#45;&gt;Node14</title>
<path fill="none" stroke="midnightblue" d="M330,-57.11C330,-48.15 330,-38.32 330,-30.58"/>
<polygon fill="midnightblue" stroke="midnightblue" points="326.5,-57.4 330,-67.4 333.5,-57.4 326.5,-57.4"/>
</g>
<!-- Node16&#45;&gt;Node3 -->
<g id="edge25" class="edge">
<title>Node16&#45;&gt;Node3</title>
<path fill="none" stroke="midnightblue" d="M1069.79,-463.94C1081.65,-455.81 1093.89,-445.37 1102,-433 1122.4,-401.9 1121,-388.69 1121,-351.5 1121,-351.5 1121,-351.5 1121,-148.5 1121,-52.25 787.74,-25.65 649.74,-18.75"/>
<polygon fill="midnightblue" stroke="midnightblue" points="1067.77,-461.07 1061.28,-469.44 1071.57,-466.95 1067.77,-461.07"/>
</g>
<!-- Node17 -->
<g id="node17" class="node">
<title>Node17</title>
<g id="a_node17"><a xlink:href="audio_8cpp.html" target="_top" xlink:title="Plays audio.">
<polygon fill="white" stroke="black" points="975.5,-402.5 975.5,-432.5 1092.5,-432.5 1092.5,-402.5 975.5,-402.5"/>
<text text-anchor="start" x="983.5" y="-420.5" font-family="Helvetica,sans-Serif" font-size="10.00">BaseStationCode/src</text>
<text text-anchor="middle" x="1034" y="-409.5" font-family="Helvetica,sans-Serif" font-size="10.00">/src/audio.cpp</text>
</a>
</g>
</g>
<!-- Node16&#45;&gt;Node17 -->
<g id="edge26" class="edge">
<title>Node16&#45;&gt;Node17</title>
<path fill="none" stroke="midnightblue" d="M1034,-459.11C1034,-450.15 1034,-440.32 1034,-432.58"/>
<polygon fill="midnightblue" stroke="midnightblue" points="1030.5,-459.4 1034,-469.4 1037.5,-459.4 1030.5,-459.4"/>
</g>
<!-- Node19 -->
<g id="node19" class="node">
<title>Node19</title>
<g id="a_node19"><a xlink:href="conversions_8cpp.html" target="_top" xlink:title="General functions for converting to and from char arrays.">
<polygon fill="white" stroke="black" points="416.5,-402.5 416.5,-432.5 533.5,-432.5 533.5,-402.5 416.5,-402.5"/>
<text text-anchor="start" x="424.5" y="-420.5" font-family="Helvetica,sans-Serif" font-size="10.00">BaseStationCode/src</text>
<text text-anchor="middle" x="475" y="-409.5" font-family="Helvetica,sans-Serif" font-size="10.00">/src/conversions.cpp</text>
</a>
</g>
</g>
<!-- Node18&#45;&gt;Node19 -->
<g id="edge28" class="edge">
<title>Node18&#45;&gt;Node19</title>
<path fill="none" stroke="midnightblue" d="M482.55,-459.4C480.88,-450.37 479.04,-440.41 477.6,-432.58"/>
<polygon fill="midnightblue" stroke="midnightblue" points="479.14,-460.2 484.4,-469.4 486.02,-458.93 479.14,-460.2"/>
</g>
<!-- Node18&#45;&gt;Node20 -->
<g id="edge29" class="edge">
<title>Node18&#45;&gt;Node20</title>
<path fill="none" stroke="midnightblue" d="M522.55,-464.71C541.95,-454.46 565.56,-441.98 583.36,-432.58"/>
<polygon fill="midnightblue" stroke="midnightblue" points="520.9,-461.63 513.69,-469.4 524.17,-467.82 520.9,-461.63"/>
</g>
<!-- Node20&#45;&gt;Node8 -->
<g id="edge40" class="edge">
<title>Node20&#45;&gt;Node8</title>
<path fill="none" stroke="midnightblue" d="M547.75,-399.49C516.06,-389.78 481.77,-377.32 470,-366 450.86,-347.58 442.49,-316.55 439.1,-298.56"/>
<polygon fill="midnightblue" stroke="midnightblue" points="546.89,-402.88 557.48,-402.41 548.91,-396.18 546.89,-402.88"/>
</g>
<!-- Node21 -->
<g id="node21" class="node">
<title>Node21</title>
<g id="a_node21"><a xlink:href="device__list_8h.html" target="_top" xlink:title="List of all devices and fields known to the system.">
<polygon fill="white" stroke="black" points="763.5,-268.5 763.5,-298.5 880.5,-298.5 880.5,-268.5 763.5,-268.5"/>
<text text-anchor="start" x="771.5" y="-286.5" font-family="Helvetica,sans-Serif" font-size="10.00">BaseStationCode/src</text>
<text text-anchor="middle" x="822" y="-275.5" font-family="Helvetica,sans-Serif" font-size="10.00">/device_list.h</text>
</a>
</g>
</g>
<!-- Node20&#45;&gt;Node21 -->
<g id="edge30" class="edge">
<title>Node20&#45;&gt;Node21</title>
<path fill="none" stroke="midnightblue" d="M669.8,-399.08C692.77,-390.93 718.6,-379.91 740,-366 769.11,-347.07 796.33,-316.51 810.91,-298.68"/>
<polygon fill="midnightblue" stroke="midnightblue" points="668.47,-395.84 660.15,-402.4 670.74,-402.46 668.47,-395.84"/>
</g>
<!-- Node20&#45;&gt;Node22 -->
<g id="edge32" class="edge">
<title>Node20&#45;&gt;Node22</title>
<path fill="none" stroke="midnightblue" d="M630.81,-395.02C640.2,-385.34 651.02,-374.17 659.36,-365.58"/>
<polygon fill="midnightblue" stroke="midnightblue" points="628.12,-392.78 623.67,-402.4 633.14,-397.65 628.12,-392.78"/>
</g>
<!-- Node24 -->
<g id="node24" class="node">
<title>Node24</title>
<g id="a_node24"><a xlink:href="fields_8cpp.html" target="_top" xlink:title="Contains fields classes.">
<polygon fill="white" stroke="black" points="479.5,-335.5 479.5,-365.5 596.5,-365.5 596.5,-335.5 479.5,-335.5"/>
<text text-anchor="start" x="487.5" y="-353.5" font-family="Helvetica,sans-Serif" font-size="10.00">BaseStationCode/src</text>
<text text-anchor="middle" x="538" y="-342.5" font-family="Helvetica,sans-Serif" font-size="10.00">/src/fields.cpp</text>
</a>
</g>
</g>
<!-- Node20&#45;&gt;Node24 -->
<g id="edge39" class="edge">
<title>Node20&#45;&gt;Node24</title>
<path fill="none" stroke="midnightblue" d="M586.85,-395.6C575.98,-385.78 563.3,-374.34 553.59,-365.58"/>
<polygon fill="midnightblue" stroke="midnightblue" points="584.61,-398.29 594.38,-402.4 589.3,-393.1 584.61,-398.29"/>
</g>
<!-- Node21&#45;&gt;Node3 -->
<g id="edge31" class="edge">
<title>Node21&#45;&gt;Node3</title>
<path fill="none" stroke="midnightblue" d="M821.09,-258.25C818.78,-226.72 810.74,-171.32 783,-134 744.3,-81.94 675.06,-47.99 631.16,-30.55"/>
<polygon fill="midnightblue" stroke="midnightblue" points="817.61,-258.56 821.69,-268.33 824.59,-258.14 817.61,-258.56"/>
</g>
<!-- Node22&#45;&gt;Node6 -->
<g id="edge35" class="edge">
<title>Node22&#45;&gt;Node6</title>
<path fill="none" stroke="midnightblue" d="M635.3,-330.7C618.53,-321.81 598.81,-310.6 582,-299 526.45,-260.67 524.17,-235.23 466,-201 381.67,-151.38 272.64,-115.84 208.9,-97.57"/>
<polygon fill="midnightblue" stroke="midnightblue" points="633.79,-333.86 644.27,-335.39 637.03,-327.66 633.79,-333.86"/>
</g>
<!-- Node22&#45;&gt;Node8 -->
<g id="edge38" class="edge">
<title>Node22&#45;&gt;Node8</title>
<path fill="none" stroke="midnightblue" d="M612.06,-332.71C573.65,-322.14 524.63,-308.63 488.23,-298.61"/>
<polygon fill="midnightblue" stroke="midnightblue" points="611.51,-336.19 622.08,-335.48 613.37,-329.45 611.51,-336.19"/>
</g>
<!-- Node22&#45;&gt;Node9 -->
<g id="edge36" class="edge">
<title>Node22&#45;&gt;Node9</title>
<path fill="none" stroke="midnightblue" d="M642.75,-329.02C633.32,-320.9 624.07,-310.68 619,-299 613.52,-286.36 612.81,-280.31 619,-268 626.99,-252.1 642.62,-239.95 656.88,-231.56"/>
<polygon fill="midnightblue" stroke="midnightblue" points="640.64,-331.81 650.63,-335.35 645.02,-326.36 640.64,-331.81"/>
</g>
<!-- Node22&#45;&gt;Node11 -->
<g id="edge37" class="edge">
<title>Node22&#45;&gt;Node11</title>
<path fill="none" stroke="midnightblue" d="M645.06,-329.14C633.93,-320.43 621.33,-309.79 611,-299 573.44,-259.77 573.82,-241.83 538,-201 526.71,-188.13 512.74,-174.69 502.13,-164.91"/>
<polygon fill="midnightblue" stroke="midnightblue" points="643.16,-332.09 653.23,-335.39 647.42,-326.53 643.16,-332.09"/>
</g>
<!-- Node22&#45;&gt;Node21 -->
<g id="edge33" class="edge">
<title>Node22&#45;&gt;Node21</title>
<path fill="none" stroke="midnightblue" d="M714.79,-331.27C738.52,-320.92 767.78,-308.15 789.73,-298.58"/>
<polygon fill="midnightblue" stroke="midnightblue" points="713.1,-328.19 705.33,-335.4 715.9,-334.61 713.1,-328.19"/>
</g>
<!-- Node23 -->
<g id="node23" class="node">
<title>Node23</title>
<g id="a_node23"><a xlink:href="devices_8cpp.html" target="_top" xlink:title="Devices and manager for all known devices the base station connects to.">
<polygon fill="white" stroke="black" points="628.5,-268.5 628.5,-298.5 745.5,-298.5 745.5,-268.5 628.5,-268.5"/>
<text text-anchor="start" x="636.5" y="-286.5" font-family="Helvetica,sans-Serif" font-size="10.00">BaseStationCode/src</text>
<text text-anchor="middle" x="687" y="-275.5" font-family="Helvetica,sans-Serif" font-size="10.00">/src/devices.cpp</text>
</a>
</g>
</g>
<!-- Node22&#45;&gt;Node23 -->
<g id="edge34" class="edge">
<title>Node22&#45;&gt;Node23</title>
<path fill="none" stroke="midnightblue" d="M678.19,-325.4C680.14,-316.37 682.28,-306.41 683.97,-298.58"/>
<polygon fill="midnightblue" stroke="midnightblue" points="674.72,-324.88 676.04,-335.4 681.56,-326.36 674.72,-324.88"/>
</g>
<!-- Node25&#45;&gt;Node9 -->
<g id="edge47" class="edge">
<title>Node25&#45;&gt;Node9</title>
<path fill="none" stroke="midnightblue" d="M808.66,-462.52C853.31,-422.01 938.53,-331.44 889,-268 871.45,-245.53 798.83,-231.57 745.67,-224.17"/>
<polygon fill="midnightblue" stroke="midnightblue" points="806.23,-459.99 801.09,-469.26 810.89,-465.22 806.23,-459.99"/>
</g>
<!-- Node25&#45;&gt;Node20 -->
<g id="edge46" class="edge">
<title>Node25&#45;&gt;Node20</title>
<path fill="none" stroke="midnightblue" d="M736.67,-465.82C708.7,-455.37 673.77,-442.32 647.68,-432.58"/>
<polygon fill="midnightblue" stroke="midnightblue" points="735.65,-469.18 746.24,-469.4 738.1,-462.62 735.65,-469.18"/>
</g>
<!-- Node25&#45;&gt;Node22 -->
<g id="edge45" class="edge">
<title>Node25&#45;&gt;Node22</title>
<path fill="none" stroke="midnightblue" d="M765.54,-461.54C742.59,-434.25 704.1,-388.48 684.79,-365.52"/>
<polygon fill="midnightblue" stroke="midnightblue" points="763.01,-463.97 772.12,-469.37 768.36,-459.47 763.01,-463.97"/>
</g>
</g>
</svg>
        <g id="navigator" transform="translate(0 0)" fill="#404254">
                <rect fill="#f2f5e9" fill-opacity="0.5" stroke="#606060" stroke-width=".5" x="0" y="0" width="60" height="60"/>
                <use id="zoomplus" xlink:href="#zoomPlus" x="17" y="9" onmousedown="handleZoom(evt,'in')"/>
                <use id="zoomminus" xlink:href="#zoomMin" x="42" y="9" onmousedown="handleZoom(evt,'out')"/>
                <use id="reset" xlink:href="#resetDef" x="30" y="36" onmousedown="handleReset()"/>
                <g id="arrowUp" xlink:href="#dirArrow" transform="translate(30 24)" onmousedown="handlePan(0,-1)">
                  <use xlink:href="#rim" fill="#404040">
                        <set attributeName="fill" to="#808080" begin="arrowUp.mouseover" end="arrowUp.mouseout"/>
                  </use>
                  <path fill="none" stroke="white" stroke-width="1.5" d="M0,-3.0v7 M-2.5,-0.5L0,-3.0L2.5,-0.5"/>
                </g>
                <g id="arrowRight" xlink:href="#dirArrow" transform="rotate(90) translate(36 -43)" onmousedown="handlePan(1,0)">
                  <use xlink:href="#rim" fill="#404040">
                        <set attributeName="fill" to="#808080" begin="arrowRight.mouseover" end="arrowRight.mouseout"/>
                  </use>
                  <path fill="none" stroke="white" stroke-width="1.5" d="M0,-3.0v7 M-2.5,-0.5L0,-3.0L2.5,-0.5"/>
                </g>
                <g id="arrowDown" xlink:href="#dirArrow" transform="rotate(180) translate(-30 -48)" onmousedown="handlePan(0,1)">
                  <use xlink:href="#rim" fill="#404040">
                        <set attributeName="fill" to="#808080" begin="arrowDown.mouseover" end="arrowDown.mouseout"/>
                  </use>
                  <path fill="none" stroke="white" stroke-width="1.5" d="M0,-3.0v7 M-2.5,-0.5L0,-3.0L2.5,-0.5"/>
                </g>
                <g id="arrowLeft" xlink:href="#dirArrow" transform="rotate(270) translate(-36 17)" onmousedown="handlePan(-1,0)">
                  <use xlink:href="#rim" fill="#404040">
                        <set attributeName="fill" to="#808080" begin="arrowLeft.mouseover" end="arrowLeft.mouseout"/>
                  </use>
                  <path fill="none" stroke="white" stroke-width="1.5" d="M0,-3.0v7 M-2.5,-0.5L0,-3.0L2.5,-0.5"/>
                </g>
        </g>
        <svg viewBox="0 0 15 15" width="100%" height="30px" preserveAspectRatio="xMaxYMin meet">
         <g id="arrow_out" transform="scale(0.3 0.3)">
          <a xlink:href="topics_8h__dep__incl_org.svg" target="_base">
           <rect id="button" ry="5" rx="5" y="6" x="6" height="38" width="38"
                fill="#f2f5e9" fill-opacity="0.5" stroke="#606060" stroke-width="1.0"/>
           <path id="arrow"
             d="M 11.500037,31.436501 C 11.940474,20.09759 22.043105,11.32322 32.158766,21.979434 L 37.068811,17.246167 C 37.068811,17.246167 37.088388,32 37.088388,32 L 22.160133,31.978069 C 22.160133,31.978069 26.997745,27.140456 26.997745,27.140456 C 18.528582,18.264221 13.291696,25.230495 11.500037,31.436501 z"
             style="fill:#404040;"/>
          </a>
         </g>
        </svg>
</svg>
