<?xml version="1.0" encoding="UTF-8" standalone="no"?>
<!DOCTYPE svg PUBLIC "-//W3C//DTD SVG 1.1//EN"
 "http://www.w3.org/Graphics/SVG/1.1/DTD/svg11.dtd">
<!-- Generated by graphviz version 2.43.0 (0)
 -->
<!-- Title: BaseStationCode/src/src/topics.h Pages: 1 -->
<!--zoomable 642 -->
<svg id="main" version="1.1" xmlns="http://www.w3.org/2000/svg" xmlns:xlink="http://www.w3.org/1999/xlink" xml:space="preserve" onload="init(evt)">
<style type="text/css"><![CDATA[
.edge:hover path { stroke: red; }
.edge:hover polygon { stroke: red; fill: red; }
]]></style>
<script type="text/javascript"><![CDATA[
var edges = document.getElementsByTagName('g');
if (edges && edges.length) {
  for (var i=0;i<edges.length;i++) {
    if (edges[i].id.substr(0,4)=='edge') {
      edges[i].setAttribute('class','edge');
    }
  }
}
]]></script>
        <defs>
                <circle id="rim" cx="0" cy="0" r="7"/>
                <circle id="rim2" cx="0" cy="0" r="3.5"/>
                <g id="zoomPlus">
                        <use xlink:href="#rim" fill="#404040">
                                <set attributeName="fill" to="#808080" begin="zoomplus.mouseover" end="zoomplus.mouseout"/>
                        </use>
                        <path d="M-4,0h8M0,-4v8" fill="none" stroke="white" stroke-width="1.5" pointer-events="none"/>
                </g>
                <g id="zoomMin">
                        <use xlink:href="#rim" fill="#404040">
                                <set attributeName="fill" to="#808080" begin="zoomminus.mouseover" end="zoomminus.mouseout"/>
                        </use>
                        <path d="M-4,0h8" fill="none" stroke="white" stroke-width="1.5" pointer-events="none"/>
                </g>
                <g id="dirArrow">
                        <path fill="none" stroke="white" stroke-width="1.5" d="M0,-3.0v7 M-2.5,-0.5L0,-3.0L2.5,-0.5"/>
                </g>
               <g id="resetDef">
                       <use xlink:href="#rim2" fill="#404040">
                               <set attributeName="fill" to="#808080" begin="reset.mouseover" end="reset.mouseout"/>
                       </use>
               </g>
        </defs>

<script type="text/javascript">
var viewWidth = 1163;
var viewHeight = 642;
var sectionId = 'dynsection-0';
</script>
<script xlink:href="svgpan.js"/>
<svg id="graph" class="graph">
<g id="viewport">
<title>BaseStationCode/src/src/topics.h</title>
<polygon fill="white" stroke="transparent" points="-4,4 -4,-638 1159,-638 1159,4 -4,4"/>
<!-- Node1 -->
<g id="node1" class="node">
<title>Node1</title>
<g id="a_node1"><a xlink:title="MQTT topics for a thingsboard gateway.">
<polygon fill="#bfbfbf" stroke="black" points="518.5,-603.5 518.5,-633.5 635.5,-633.5 635.5,-603.5 518.5,-603.5"/>
<text text-anchor="start" x="526.5" y="-621.5" font-family="Helvetica,sans-Serif" font-size="10.00">BaseStationCode/src</text>
<text text-anchor="middle" x="577" y="-610.5" font-family="Helvetica,sans-Serif" font-size="10.00">/src/topics.h</text>
</a>
</g>
</g>
<!-- Node2 -->
<g id="node2" class="node">
<title>Node2</title>
<g id="a_node2"><a xlink:href="defines_8h.html" target="_top" xlink:title="Definitions and other preprocessor and global stuff.">
<polygon fill="white" stroke="black" points="672.5,-536.5 672.5,-566.5 789.5,-566.5 789.5,-536.5 672.5,-536.5"/>
<text text-anchor="start" x="680.5" y="-554.5" font-family="Helvetica,sans-Serif" font-size="10.00">BaseStationCode/src</text>
<text text-anchor="middle" x="731" y="-543.5" font-family="Helvetica,sans-Serif" font-size="10.00">/defines.h</text>
</a>
</g>
</g>
<!-- Node1&#45;&gt;Node2 -->
<g id="edge1" class="edge">
<title>Node1&#45;&gt;Node2</title>
<path fill="none" stroke="midnightblue" d="M619.87,-599.41C644.45,-589.03 674.86,-576.2 697.65,-566.58"/>
<polygon fill="midnightblue" stroke="midnightblue" points="618.27,-596.28 610.42,-603.4 620.99,-602.73 618.27,-596.28"/>
</g>
<!-- Node10 -->
<g id="node10" class="node">
<title>Node10</title>
<g id="a_node10"><a xlink:href="rpc_8h.html" target="_top" xlink:title="Handles RPC calls.">
<polygon fill="white" stroke="black" points="413.5,-268.5 413.5,-298.5 530.5,-298.5 530.5,-268.5 413.5,-268.5"/>
<text text-anchor="start" x="421.5" y="-286.5" font-family="Helvetica,sans-Serif" font-size="10.00">BaseStationCode/src</text>
<text text-anchor="middle" x="472" y="-275.5" font-family="Helvetica,sans-Serif" font-size="10.00">/src/rpc.h</text>
</a>
</g>
</g>
<!-- Node1&#45;&gt;Node10 -->
<g id="edge53" class="edge">
<title>Node1&#45;&gt;Node10</title>
<path fill="none" stroke="midnightblue" d="M537.95,-598.63C499.66,-577.08 447,-537.91 447,-485.5 447,-485.5 447,-485.5 447,-416.5 447,-372.88 460.34,-322.56 467.53,-298.59"/>
<polygon fill="midnightblue" stroke="midnightblue" points="536.39,-601.76 546.85,-603.47 539.74,-595.62 536.39,-601.76"/>
</g>
<!-- Node3 -->
<g id="node3" class="node">
<title>Node3</title>
<g id="a_node3"><a xlink:href="main_8cpp.html" target="_top" xlink:title=" ">
<polygon fill="white" stroke="black" points="532.5,-0.5 532.5,-30.5 649.5,-30.5 649.5,-0.5 532.5,-0.5"/>
<text text-anchor="start" x="540.5" y="-18.5" font-family="Helvetica,sans-Serif" font-size="10.00">BaseStationCode/src</text>
<text text-anchor="middle" x="591" y="-7.5" font-family="Helvetica,sans-Serif" font-size="10.00">/main.cpp</text>
</a>
</g>
</g>
<!-- Node2&#45;&gt;Node3 -->
<g id="edge2" class="edge">
<title>Node2&#45;&gt;Node3</title>
<path fill="none" stroke="midnightblue" d="M662.43,-545.3C480.61,-530.6 0,-485.42 0,-418.5 0,-418.5 0,-418.5 0,-148.5 0,-40.15 383.15,-20.7 532.44,-17.24"/>
<polygon fill="midnightblue" stroke="midnightblue" points="662.17,-548.79 672.41,-546.1 662.73,-541.81 662.17,-548.79"/>
</g>
<!-- Node4 -->
<g id="node4" class="node">
<title>Node4</title>
<g id="a_node4"><a xlink:href="alarm_8h.html" target="_top" xlink:title="Handles alarms.">
<polygon fill="white" stroke="black" points="247.5,-335.5 247.5,-365.5 364.5,-365.5 364.5,-335.5 247.5,-335.5"/>
<text text-anchor="start" x="255.5" y="-353.5" font-family="Helvetica,sans-Serif" font-size="10.00">BaseStationCode/src</text>
<text text-anchor="middle" x="306" y="-342.5" font-family="Helvetica,sans-Serif" font-size="10.00">/src/alarm.h</text>
</a>
</g>
</g>
<!-- Node2&#45;&gt;Node4 -->
<g id="edge3" class="edge">
<title>Node2&#45;&gt;Node4</title>
<path fill="none" stroke="midnightblue" d="M662.14,-547.18C607.78,-542.25 531.31,-530.06 471,-500 402.7,-465.96 341.35,-395.74 317.05,-365.67"/>
<polygon fill="midnightblue" stroke="midnightblue" points="662.11,-550.69 672.37,-548.05 662.7,-543.72 662.11,-550.69"/>
</g>
<!-- Node6 -->
<g id="node6" class="node">
<title>Node6</title>
<g id="a_node6"><a xlink:href="audio_8h.html" target="_top" xlink:title="Plays audio.">
<polygon fill="white" stroke="black" points="66.5,-268.5 66.5,-298.5 183.5,-298.5 183.5,-268.5 66.5,-268.5"/>
<text text-anchor="start" x="74.5" y="-286.5" font-family="Helvetica,sans-Serif" font-size="10.00">BaseStationCode/src</text>
<text text-anchor="middle" x="125" y="-275.5" font-family="Helvetica,sans-Serif" font-size="10.00">/src/audio.h</text>
</a>
</g>
</g>
<!-- Node2&#45;&gt;Node6 -->
<g id="edge27" class="edge">
<title>Node2&#45;&gt;Node6</title>
<path fill="none" stroke="midnightblue" d="M662.29,-548.58C597.33,-544.67 498.27,-533.19 419,-500 297.29,-449.04 178.81,-338.14 139.04,-298.74"/>
<polygon fill="midnightblue" stroke="midnightblue" points="662.24,-552.08 672.41,-549.15 662.63,-545.1 662.24,-552.08"/>
</g>
<!-- Node8 -->
<g id="node8" class="node">
<title>Node8</title>
<g id="a_node8"><a xlink:href="leds_8h.html" target="_top" xlink:title="Controls the LEDs on the unit.">
<polygon fill="white" stroke="black" points="662.5,-67.5 662.5,-97.5 779.5,-97.5 779.5,-67.5 662.5,-67.5"/>
<text text-anchor="start" x="670.5" y="-85.5" font-family="Helvetica,sans-Serif" font-size="10.00">BaseStationCode/src</text>
<text text-anchor="middle" x="721" y="-74.5" font-family="Helvetica,sans-Serif" font-size="10.00">/src/leds.h</text>
</a>
</g>
</g>
<!-- Node2&#45;&gt;Node8 -->
<g id="edge44" class="edge">
<title>Node2&#45;&gt;Node8</title>
<path fill="none" stroke="midnightblue" d="M799.89,-547.61C858.97,-542.97 945.2,-530.97 1014,-500 1067.23,-476.04 1117,-476.88 1117,-418.5 1117,-418.5 1117,-418.5 1117,-215.5 1117,-178.31 1125.74,-158.77 1098,-134 1046.43,-87.96 857.21,-109.22 789,-98 785.9,-97.49 782.73,-96.94 779.54,-96.35"/>
<polygon fill="midnightblue" stroke="midnightblue" points="799.26,-544.15 789.55,-548.37 799.78,-551.13 799.26,-544.15"/>
</g>
<!-- Node2&#45;&gt;Node10 -->
<g id="edge52" class="edge">
<title>Node2&#45;&gt;Node10</title>
<path fill="none" stroke="midnightblue" d="M662.44,-535.97C608.68,-520.5 537.68,-490.08 505,-433 479.54,-388.54 473.72,-326.18 472.39,-298.59"/>
<polygon fill="midnightblue" stroke="midnightblue" points="661.69,-539.39 672.26,-538.68 663.56,-532.64 661.69,-539.39"/>
</g>
<!-- Node11 -->
<g id="node11" class="node">
<title>Node11</title>
<g id="a_node11"><a xlink:href="lora_8h.html" target="_top" xlink:title="File that handles the LoRa radio and PJON.">
<polygon fill="white" stroke="black" points="884.5,-201.5 884.5,-231.5 1001.5,-231.5 1001.5,-201.5 884.5,-201.5"/>
<text text-anchor="start" x="892.5" y="-219.5" font-family="Helvetica,sans-Serif" font-size="10.00">BaseStationCode/src</text>
<text text-anchor="middle" x="943" y="-208.5" font-family="Helvetica,sans-Serif" font-size="10.00">/src/lora.h</text>
</a>
</g>
</g>
<!-- Node2&#45;&gt;Node11 -->
<g id="edge49" class="edge">
<title>Node2&#45;&gt;Node11</title>
<path fill="none" stroke="midnightblue" d="M799.63,-541.67C854.85,-533.31 926.78,-519.18 949,-500 978.46,-474.57 981,-457.41 981,-418.5 981,-418.5 981,-418.5 981,-349.5 981,-305.14 960.94,-255.56 949.97,-231.76"/>
<polygon fill="midnightblue" stroke="midnightblue" points="798.91,-538.24 789.53,-543.17 799.93,-545.16 798.91,-538.24"/>
</g>
<!-- Node13 -->
<g id="node13" class="node">
<title>Node13</title>
<g id="a_node13"><a xlink:href="networking_8h.html" target="_top" xlink:title="Header file for networking.cpp.">
<polygon fill="white" stroke="black" points="797.5,-134.5 797.5,-164.5 914.5,-164.5 914.5,-134.5 797.5,-134.5"/>
<text text-anchor="start" x="805.5" y="-152.5" font-family="Helvetica,sans-Serif" font-size="10.00">BaseStationCode/src</text>
<text text-anchor="middle" x="856" y="-141.5" font-family="Helvetica,sans-Serif" font-size="10.00">/src/networking.h</text>
</a>
</g>
</g>
<!-- Node2&#45;&gt;Node13 -->
<g id="edge50" class="edge">
<title>Node2&#45;&gt;Node13</title>
<path fill="none" stroke="midnightblue" d="M799.94,-549.17C888.24,-543.38 1030,-518.52 1030,-418.5 1030,-418.5 1030,-418.5 1030,-282.5 1030,-245.31 1036.15,-228.41 1011,-201 986.41,-174.2 947.45,-161.58 914.75,-155.66"/>
<polygon fill="midnightblue" stroke="midnightblue" points="799.49,-545.69 789.72,-549.77 799.9,-552.68 799.49,-545.69"/>
</g>
<!-- Node15 -->
<g id="node15" class="node">
<title>Node15</title>
<g id="a_node15"><a xlink:href="ota_8h.html" target="_top" xlink:title="Handles over the air (OTA) updates.">
<polygon fill="white" stroke="black" points="971.5,-67.5 971.5,-97.5 1088.5,-97.5 1088.5,-67.5 971.5,-67.5"/>
<text text-anchor="start" x="979.5" y="-85.5" font-family="Helvetica,sans-Serif" font-size="10.00">BaseStationCode/src</text>
<text text-anchor="middle" x="1030" y="-74.5" font-family="Helvetica,sans-Serif" font-size="10.00">/src/ota.h</text>
</a>
</g>
</g>
<!-- Node2&#45;&gt;Node15 -->
<g id="edge51" class="edge">
<title>Node2&#45;&gt;Node15</title>
<path fill="none" stroke="midnightblue" d="M799.76,-544.81C883.45,-537.08 1019.29,-521.69 1065,-500 1113.76,-476.87 1155,-472.46 1155,-418.5 1155,-418.5 1155,-418.5 1155,-215.5 1155,-176.25 1147.16,-163.25 1121,-134 1106.67,-117.97 1086,-105.93 1067.98,-97.64"/>
<polygon fill="midnightblue" stroke="midnightblue" points="799.21,-541.35 789.57,-545.74 799.84,-548.32 799.21,-541.35"/>
</g>
<!-- Node18 -->
<g id="node18" class="node">
<title>Node18</title>
<g id="a_node18"><a xlink:href="conversions_8h.html" target="_top" xlink:title="General functions for converting to and from char arrays.">
<polygon fill="white" stroke="black" points="585.5,-469.5 585.5,-499.5 702.5,-499.5 702.5,-469.5 585.5,-469.5"/>
<text text-anchor="start" x="593.5" y="-487.5" font-family="Helvetica,sans-Serif" font-size="10.00">BaseStationCode/src</text>
<text text-anchor="middle" x="644" y="-476.5" font-family="Helvetica,sans-Serif" font-size="10.00">/src/conversions.h</text>
</a>
</g>
</g>
<!-- Node2&#45;&gt;Node18 -->
<g id="edge28" class="edge">
<title>Node2&#45;&gt;Node18</title>
<path fill="none" stroke="midnightblue" d="M703.79,-530.17C690.48,-520.23 674.8,-508.51 662.84,-499.58"/>
<polygon fill="midnightblue" stroke="midnightblue" points="702.02,-533.21 712.12,-536.4 706.21,-527.61 702.02,-533.21"/>
</g>
<!-- Node20 -->
<g id="node20" class="node">
<title>Node20</title>
<g id="a_node20"><a xlink:href="fields_8h.html" target="_top" xlink:title="Contains fields classes.">
<polygon fill="white" stroke="black" points="648.5,-402.5 648.5,-432.5 765.5,-432.5 765.5,-402.5 648.5,-402.5"/>
<text text-anchor="start" x="656.5" y="-420.5" font-family="Helvetica,sans-Serif" font-size="10.00">BaseStationCode/src</text>
<text text-anchor="middle" x="707" y="-409.5" font-family="Helvetica,sans-Serif" font-size="10.00">/src/fields.h</text>
</a>
</g>
</g>
<!-- Node2&#45;&gt;Node20 -->
<g id="edge43" class="edge">
<title>Node2&#45;&gt;Node20</title>
<path fill="none" stroke="midnightblue" d="M726.62,-526.39C721.62,-498.9 713.62,-454.89 709.55,-432.52"/>
<polygon fill="midnightblue" stroke="midnightblue" points="723.2,-527.16 728.43,-536.37 730.09,-525.91 723.2,-527.16"/>
</g>
<!-- Node22 -->
<g id="node22" class="node">
<title>Node22</title>
<g id="a_node22"><a xlink:href="devices_8h.html" target="_top" xlink:title="Devices and manager for all known devices the base station connects to.">
<polygon fill="white" stroke="black" points="735.5,-335.5 735.5,-365.5 852.5,-365.5 852.5,-335.5 735.5,-335.5"/>
<text text-anchor="start" x="743.5" y="-353.5" font-family="Helvetica,sans-Serif" font-size="10.00">BaseStationCode/src</text>
<text text-anchor="middle" x="794" y="-342.5" font-family="Helvetica,sans-Serif" font-size="10.00">/src/devices.h</text>
</a>
</g>
</g>
<!-- Node2&#45;&gt;Node22 -->
<g id="edge42" class="edge">
<title>Node2&#45;&gt;Node22</title>
<path fill="none" stroke="midnightblue" d="M740.93,-526.75C750.51,-503.23 765,-466.06 775,-433 782.02,-409.78 787.97,-382.17 791.25,-365.78"/>
<polygon fill="midnightblue" stroke="midnightblue" points="737.6,-525.65 737.03,-536.23 744.07,-528.32 737.6,-525.65"/>
</g>
<!-- Node25 -->
<g id="node25" class="node">
<title>Node25</title>
<g id="a_node25"><a xlink:href="lookups_8h.html" target="_top" xlink:title="Lookupable and lookupable manager base classes.">
<polygon fill="white" stroke="black" points="822.5,-469.5 822.5,-499.5 939.5,-499.5 939.5,-469.5 822.5,-469.5"/>
<text text-anchor="start" x="830.5" y="-487.5" font-family="Helvetica,sans-Serif" font-size="10.00">BaseStationCode/src</text>
<text text-anchor="middle" x="881" y="-476.5" font-family="Helvetica,sans-Serif" font-size="10.00">/src/lookups.h</text>
</a>
</g>
</g>
<!-- Node2&#45;&gt;Node25 -->
<g id="edge45" class="edge">
<title>Node2&#45;&gt;Node25</title>
<path fill="none" stroke="midnightblue" d="M772.75,-532.41C796.7,-522.03 826.32,-509.2 848.52,-499.58"/>
<polygon fill="midnightblue" stroke="midnightblue" points="771.33,-529.21 763.55,-536.4 774.11,-535.63 771.33,-529.21"/>
</g>
<!-- Node4&#45;&gt;Node3 -->
<g id="edge4" class="edge">
<title>Node4&#45;&gt;Node3</title>
<path fill="none" stroke="midnightblue" d="M278.68,-328.8C250.93,-305.21 212,-263.85 212,-217.5 212,-217.5 212,-217.5 212,-148.5 212,-81.52 425.74,-40.7 532.2,-24.52"/>
<polygon fill="midnightblue" stroke="midnightblue" points="276.58,-331.61 286.52,-335.26 281.03,-326.2 276.58,-331.61"/>
</g>
<!-- Node5 -->
<g id="node5" class="node">
<title>Node5</title>
<g id="a_node5"><a xlink:href="alarm_8cpp.html" target="_top" xlink:title="Handles alarms.">
<polygon fill="white" stroke="black" points="278.5,-268.5 278.5,-298.5 395.5,-298.5 395.5,-268.5 278.5,-268.5"/>
<text text-anchor="start" x="286.5" y="-286.5" font-family="Helvetica,sans-Serif" font-size="10.00">BaseStationCode/src</text>
<text text-anchor="middle" x="337" y="-275.5" font-family="Helvetica,sans-Serif" font-size="10.00">/src/alarm.cpp</text>
</a>
</g>
</g>
<!-- Node4&#45;&gt;Node5 -->
<g id="edge5" class="edge">
<title>Node4&#45;&gt;Node5</title>
<path fill="none" stroke="midnightblue" d="M317.07,-326.28C321.49,-317.02 326.43,-306.66 330.29,-298.58"/>
<polygon fill="midnightblue" stroke="midnightblue" points="313.87,-324.86 312.73,-335.4 320.19,-327.88 313.87,-324.86"/>
</g>
<!-- Node4&#45;&gt;Node6 -->
<g id="edge6" class="edge">
<title>Node4&#45;&gt;Node6</title>
<path fill="none" stroke="midnightblue" d="M257.14,-331.96C227.99,-321.48 191.46,-308.37 164.2,-298.58"/>
<polygon fill="midnightblue" stroke="midnightblue" points="256.13,-335.31 266.73,-335.4 258.5,-328.72 256.13,-335.31"/>
</g>
<!-- Node4&#45;&gt;Node8 -->
<g id="edge9" class="edge">
<title>Node4&#45;&gt;Node8</title>
<path fill="none" stroke="midnightblue" d="M284.53,-327.7C270.62,-310.83 257.11,-287.18 269,-268 353.64,-131.5 560.65,-95.99 662.48,-86.75"/>
<polygon fill="midnightblue" stroke="midnightblue" points="282.06,-330.19 291.29,-335.39 287.32,-325.57 282.06,-330.19"/>
</g>
<!-- Node4&#45;&gt;Node10 -->
<g id="edge12" class="edge">
<title>Node4&#45;&gt;Node10</title>
<path fill="none" stroke="midnightblue" d="M351.51,-331.68C378.13,-321.26 411.27,-308.28 436.05,-298.58"/>
<polygon fill="midnightblue" stroke="midnightblue" points="350.05,-328.49 342.02,-335.4 352.61,-335.01 350.05,-328.49"/>
</g>
<!-- Node6&#45;&gt;Node3 -->
<g id="edge7" class="edge">
<title>Node6&#45;&gt;Node3</title>
<path fill="none" stroke="midnightblue" d="M86.1,-262.86C74.59,-254.96 63.37,-244.67 57,-232 50.81,-219.69 51.57,-213.66 57,-201 91.1,-121.56 119.93,-104.13 198,-67 255.85,-39.49 437.55,-25.28 532.26,-19.58"/>
<polygon fill="midnightblue" stroke="midnightblue" points="84.57,-266.03 94.88,-268.44 88.32,-260.13 84.57,-266.03"/>
</g>
<!-- Node7 -->
<g id="node7" class="node">
<title>Node7</title>
<g id="a_node7"><a xlink:href="audio_8cpp.html" target="_top" xlink:title="Plays audio.">
<polygon fill="white" stroke="black" points="66.5,-201.5 66.5,-231.5 183.5,-231.5 183.5,-201.5 66.5,-201.5"/>
<text text-anchor="start" x="74.5" y="-219.5" font-family="Helvetica,sans-Serif" font-size="10.00">BaseStationCode/src</text>
<text text-anchor="middle" x="125" y="-208.5" font-family="Helvetica,sans-Serif" font-size="10.00">/src/audio.cpp</text>
</a>
</g>
</g>
<!-- Node6&#45;&gt;Node7 -->
<g id="edge8" class="edge">
<title>Node6&#45;&gt;Node7</title>
<path fill="none" stroke="midnightblue" d="M125,-258.11C125,-249.15 125,-239.32 125,-231.58"/>
<polygon fill="midnightblue" stroke="midnightblue" points="121.5,-258.4 125,-268.4 128.5,-258.4 121.5,-258.4"/>
</g>
<!-- Node8&#45;&gt;Node3 -->
<g id="edge10" class="edge">
<title>Node8&#45;&gt;Node3</title>
<path fill="none" stroke="midnightblue" d="M683.71,-62.85C663.15,-52.58 638.05,-40.03 619.15,-30.58"/>
<polygon fill="midnightblue" stroke="midnightblue" points="682.28,-66.05 692.79,-67.4 685.41,-59.79 682.28,-66.05"/>
</g>
<!-- Node9 -->
<g id="node9" class="node">
<title>Node9</title>
<g id="a_node9"><a xlink:href="leds_8cpp.html" target="_top" xlink:title="Controls the LEDs on the unit.">
<polygon fill="white" stroke="black" points="667.5,-0.5 667.5,-30.5 784.5,-30.5 784.5,-0.5 667.5,-0.5"/>
<text text-anchor="start" x="675.5" y="-18.5" font-family="Helvetica,sans-Serif" font-size="10.00">BaseStationCode/src</text>
<text text-anchor="middle" x="726" y="-7.5" font-family="Helvetica,sans-Serif" font-size="10.00">/src/leds.cpp</text>
</a>
</g>
</g>
<!-- Node8&#45;&gt;Node9 -->
<g id="edge11" class="edge">
<title>Node8&#45;&gt;Node9</title>
<path fill="none" stroke="midnightblue" d="M722.85,-57.4C723.55,-48.37 724.31,-38.41 724.92,-30.58"/>
<polygon fill="midnightblue" stroke="midnightblue" points="719.36,-57.16 722.08,-67.4 726.34,-57.69 719.36,-57.16"/>
</g>
<!-- Node10&#45;&gt;Node3 -->
<g id="edge13" class="edge">
<title>Node10&#45;&gt;Node3</title>
<path fill="none" stroke="midnightblue" d="M507.21,-262.8C518.89,-254.67 530.96,-244.25 539,-232 582.4,-165.88 589.63,-67.05 590.79,-30.63"/>
<polygon fill="midnightblue" stroke="midnightblue" points="505.26,-259.9 498.83,-268.32 509.11,-265.75 505.26,-259.9"/>
</g>
<!-- Node10&#45;&gt;Node11 -->
<g id="edge14" class="edge">
<title>Node10&#45;&gt;Node11</title>
<path fill="none" stroke="midnightblue" d="M540.79,-267.96C669.37,-246.56 703.84,-247.76 829,-232 847.01,-229.73 866.63,-227.24 884.42,-224.98"/>
<polygon fill="midnightblue" stroke="midnightblue" points="539.83,-264.57 530.54,-269.68 540.99,-271.48 539.83,-264.57"/>
</g>
<!-- Node17 -->
<g id="node17" class="node">
<title>Node17</title>
<g id="a_node17"><a xlink:href="rpc_8cpp.html" target="_top" xlink:title="Handles RPC calls.">
<polygon fill="white" stroke="black" points="412.5,-201.5 412.5,-231.5 529.5,-231.5 529.5,-201.5 412.5,-201.5"/>
<text text-anchor="start" x="420.5" y="-219.5" font-family="Helvetica,sans-Serif" font-size="10.00">BaseStationCode/src</text>
<text text-anchor="middle" x="471" y="-208.5" font-family="Helvetica,sans-Serif" font-size="10.00">/src/rpc.cpp</text>
</a>
</g>
</g>
<!-- Node10&#45;&gt;Node17 -->
<g id="edge26" class="edge">
<title>Node10&#45;&gt;Node17</title>
<path fill="none" stroke="midnightblue" d="M471.62,-258.11C471.49,-249.15 471.34,-239.32 471.22,-231.58"/>
<polygon fill="midnightblue" stroke="midnightblue" points="468.13,-258.45 471.78,-268.4 475.13,-258.34 468.13,-258.45"/>
</g>
<!-- Node11&#45;&gt;Node3 -->
<g id="edge15" class="edge">
<title>Node11&#45;&gt;Node3</title>
<path fill="none" stroke="midnightblue" d="M947.95,-191.13C953.08,-158.14 956.4,-99.65 924,-67 882.14,-24.81 717.55,-41.2 659,-31 655.91,-30.46 652.74,-29.88 649.55,-29.28"/>
<polygon fill="midnightblue" stroke="midnightblue" points="944.45,-190.81 946.18,-201.26 951.35,-192.01 944.45,-190.81"/>
</g>
<!-- Node12 -->
<g id="node12" class="node">
<title>Node12</title>
<g id="a_node12"><a xlink:href="lora_8cpp.html" target="_top" xlink:title="File that handles the LoRa radio and PJON.">
<polygon fill="white" stroke="black" points="971.5,-134.5 971.5,-164.5 1088.5,-164.5 1088.5,-134.5 971.5,-134.5"/>
<text text-anchor="start" x="979.5" y="-152.5" font-family="Helvetica,sans-Serif" font-size="10.00">BaseStationCode/src</text>
<text text-anchor="middle" x="1030" y="-141.5" font-family="Helvetica,sans-Serif" font-size="10.00">/src/lora.cpp</text>
</a>
</g>
</g>
<!-- Node11&#45;&gt;Node12 -->
<g id="edge16" class="edge">
<title>Node11&#45;&gt;Node12</title>
<path fill="none" stroke="midnightblue" d="M970.21,-195.17C983.52,-185.23 999.2,-173.51 1011.16,-164.58"/>
<polygon fill="midnightblue" stroke="midnightblue" points="967.79,-192.61 961.88,-201.4 971.98,-198.21 967.79,-192.61"/>
</g>
<!-- Node11&#45;&gt;Node13 -->
<g id="edge17" class="edge">
<title>Node11&#45;&gt;Node13</title>
<path fill="none" stroke="midnightblue" d="M909.88,-195.45C895.72,-185.45 880.06,-173.6 869.17,-164.58"/>
<polygon fill="midnightblue" stroke="midnightblue" points="908.23,-198.57 918.44,-201.4 912.22,-192.82 908.23,-198.57"/>
</g>
<!-- Node13&#45;&gt;Node3 -->
<g id="edge18" class="edge">
<title>Node13&#45;&gt;Node3</title>
<path fill="none" stroke="midnightblue" d="M787.08,-142.69C745.75,-136.56 693.7,-123.94 654,-98 627.8,-80.88 607.98,-49.08 598.06,-30.67"/>
<polygon fill="midnightblue" stroke="midnightblue" points="786.68,-146.17 797.07,-144.08 787.64,-139.24 786.68,-146.17"/>
</g>
<!-- Node13&#45;&gt;Node8 -->
<g id="edge19" class="edge">
<title>Node13&#45;&gt;Node8</title>
<path fill="none" stroke="midnightblue" d="M817.56,-129.99C796.16,-119.69 769.95,-107.07 750.24,-97.58"/>
<polygon fill="midnightblue" stroke="midnightblue" points="816.18,-133.21 826.71,-134.4 819.22,-126.9 816.18,-133.21"/>
</g>
<!-- Node13&#45;&gt;Node10 -->
<g id="edge25" class="edge">
<title>Node13&#45;&gt;Node10</title>
<path fill="none" stroke="midnightblue" d="M805.62,-167.82C728.7,-194.26 583.44,-244.19 512.73,-268.5"/>
<polygon fill="midnightblue" stroke="midnightblue" points="806.79,-171.12 815.11,-164.56 804.51,-164.5 806.79,-171.12"/>
</g>
<!-- Node13&#45;&gt;Node11 -->
<g id="edge20" class="edge">
<title>Node13&#45;&gt;Node11</title>
<path fill="none" stroke="midnightblue" d="M889.08,-170.52C903.24,-180.51 918.9,-192.37 929.8,-201.4"/>
<polygon fill="midnightblue" stroke="midnightblue" points="890.73,-167.4 880.52,-164.58 886.74,-173.15 890.73,-167.4"/>
</g>
<!-- Node14 -->
<g id="node14" class="node">
<title>Node14</title>
<g id="a_node14"><a xlink:href="networking_8cpp.html" target="_top" xlink:title="File that handles connecting to WiFi and MQTT and staying connected.">
<polygon fill="white" stroke="black" points="797.5,-67.5 797.5,-97.5 914.5,-97.5 914.5,-67.5 797.5,-67.5"/>
<text text-anchor="start" x="805.5" y="-85.5" font-family="Helvetica,sans-Serif" font-size="10.00">BaseStationCode/src</text>
<text text-anchor="middle" x="856" y="-74.5" font-family="Helvetica,sans-Serif" font-size="10.00">/src/networking.cpp</text>
</a>
</g>
</g>
<!-- Node13&#45;&gt;Node14 -->
<g id="edge21" class="edge">
<title>Node13&#45;&gt;Node14</title>
<path fill="none" stroke="midnightblue" d="M856,-124.11C856,-115.15 856,-105.32 856,-97.58"/>
<polygon fill="midnightblue" stroke="midnightblue" points="852.5,-124.4 856,-134.4 859.5,-124.4 852.5,-124.4"/>
</g>
<!-- Node13&#45;&gt;Node15 -->
<g id="edge22" class="edge">
<title>Node13&#45;&gt;Node15</title>
<path fill="none" stroke="midnightblue" d="M903.33,-130.82C931.3,-120.37 966.23,-107.32 992.32,-97.58"/>
<polygon fill="midnightblue" stroke="midnightblue" points="901.9,-127.62 893.76,-134.4 904.35,-134.18 901.9,-127.62"/>
</g>
<!-- Node15&#45;&gt;Node3 -->
<g id="edge23" class="edge">
<title>Node15&#45;&gt;Node3</title>
<path fill="none" stroke="midnightblue" d="M961.47,-67.73C959.97,-67.48 958.48,-67.24 957,-67 825.26,-45.99 790.59,-52.93 659,-31 655.9,-30.48 652.74,-29.92 649.54,-29.33"/>
<polygon fill="midnightblue" stroke="midnightblue" points="961.05,-71.21 971.5,-69.47 962.25,-64.31 961.05,-71.21"/>
</g>
<!-- Node16 -->
<g id="node16" class="node">
<title>Node16</title>
<g id="a_node16"><a xlink:href="ota_8cpp.html" target="_top" xlink:title="Handles over the air (OTA) updates.">
<polygon fill="white" stroke="black" points="971.5,-0.5 971.5,-30.5 1088.5,-30.5 1088.5,-0.5 971.5,-0.5"/>
<text text-anchor="start" x="979.5" y="-18.5" font-family="Helvetica,sans-Serif" font-size="10.00">BaseStationCode/src</text>
<text text-anchor="middle" x="1030" y="-7.5" font-family="Helvetica,sans-Serif" font-size="10.00">/src/ota.cpp</text>
</a>
</g>
</g>
<!-- Node15&#45;&gt;Node16 -->
<g id="edge24" class="edge">
<title>Node15&#45;&gt;Node16</title>
<path fill="none" stroke="midnightblue" d="M1030,-57.11C1030,-48.15 1030,-38.32 1030,-30.58"/>
<polygon fill="midnightblue" stroke="midnightblue" points="1026.5,-57.4 1030,-67.4 1033.5,-57.4 1026.5,-57.4"/>
</g>
<!-- Node19 -->
<g id="node19" class="node">
<title>Node19</title>
<g id="a_node19"><a xlink:href="conversions_8cpp.html" target="_top" xlink:title="General functions for converting to and from char arrays.">
<polygon fill="white" stroke="black" points="513.5,-402.5 513.5,-432.5 630.5,-432.5 630.5,-402.5 513.5,-402.5"/>
<text text-anchor="start" x="521.5" y="-420.5" font-family="Helvetica,sans-Serif" font-size="10.00">BaseStationCode/src</text>
<text text-anchor="middle" x="572" y="-409.5" font-family="Helvetica,sans-Serif" font-size="10.00">/src/conversions.cpp</text>
</a>
</g>
</g>
<!-- Node18&#45;&gt;Node19 -->
<g id="edge29" class="edge">
<title>Node18&#45;&gt;Node19</title>
<path fill="none" stroke="midnightblue" d="M620.85,-462.6C609.98,-452.78 597.3,-441.34 587.59,-432.58"/>
<polygon fill="midnightblue" stroke="midnightblue" points="618.61,-465.29 628.38,-469.4 623.3,-460.1 618.61,-465.29"/>
</g>
<!-- Node18&#45;&gt;Node20 -->
<g id="edge30" class="edge">
<title>Node18&#45;&gt;Node20</title>
<path fill="none" stroke="midnightblue" d="M664.81,-462.02C674.2,-452.34 685.02,-441.17 693.36,-432.58"/>
<polygon fill="midnightblue" stroke="midnightblue" points="662.12,-459.78 657.67,-469.4 667.14,-464.65 662.12,-459.78"/>
</g>
<!-- Node20&#45;&gt;Node10 -->
<g id="edge41" class="edge">
<title>Node20&#45;&gt;Node10</title>
<path fill="none" stroke="midnightblue" d="M638.56,-401.53C610.71,-393.58 579.03,-382.05 553,-366 523.46,-347.78 496.65,-316.68 482.51,-298.62"/>
<polygon fill="midnightblue" stroke="midnightblue" points="637.66,-404.91 648.24,-404.19 639.52,-398.16 637.66,-404.91"/>
</g>
<!-- Node21 -->
<g id="node21" class="node">
<title>Node21</title>
<g id="a_node21"><a xlink:href="device__list_8h.html" target="_top" xlink:title="List of all devices and fields known to the system.">
<polygon fill="white" stroke="black" points="548.5,-268.5 548.5,-298.5 665.5,-298.5 665.5,-268.5 548.5,-268.5"/>
<text text-anchor="start" x="556.5" y="-286.5" font-family="Helvetica,sans-Serif" font-size="10.00">BaseStationCode/src</text>
<text text-anchor="middle" x="607" y="-275.5" font-family="Helvetica,sans-Serif" font-size="10.00">/device_list.h</text>
</a>
</g>
</g>
<!-- Node20&#45;&gt;Node21 -->
<g id="edge31" class="edge">
<title>Node20&#45;&gt;Node21</title>
<path fill="none" stroke="midnightblue" d="M706.16,-392.06C704.48,-374.72 699.93,-351.67 688,-335 676.52,-318.96 658.21,-306.92 641.9,-298.63"/>
<polygon fill="midnightblue" stroke="midnightblue" points="702.71,-392.77 706.9,-402.5 709.69,-392.28 702.71,-392.77"/>
</g>
<!-- Node20&#45;&gt;Node22 -->
<g id="edge33" class="edge">
<title>Node20&#45;&gt;Node22</title>
<path fill="none" stroke="midnightblue" d="M734.21,-396.17C747.52,-386.23 763.2,-374.51 775.16,-365.58"/>
<polygon fill="midnightblue" stroke="midnightblue" points="731.79,-393.61 725.88,-402.4 735.98,-399.21 731.79,-393.61"/>
</g>
<!-- Node24 -->
<g id="node24" class="node">
<title>Node24</title>
<g id="a_node24"><a xlink:href="fields_8cpp.html" target="_top" xlink:title="Contains fields classes.">
<polygon fill="white" stroke="black" points="561.5,-335.5 561.5,-365.5 678.5,-365.5 678.5,-335.5 561.5,-335.5"/>
<text text-anchor="start" x="569.5" y="-353.5" font-family="Helvetica,sans-Serif" font-size="10.00">BaseStationCode/src</text>
<text text-anchor="middle" x="620" y="-342.5" font-family="Helvetica,sans-Serif" font-size="10.00">/src/fields.cpp</text>
</a>
</g>
</g>
<!-- Node20&#45;&gt;Node24 -->
<g id="edge40" class="edge">
<title>Node20&#45;&gt;Node24</title>
<path fill="none" stroke="midnightblue" d="M679.79,-396.17C666.48,-386.23 650.8,-374.51 638.84,-365.58"/>
<polygon fill="midnightblue" stroke="midnightblue" points="678.02,-399.21 688.12,-402.4 682.21,-393.61 678.02,-399.21"/>
</g>
<!-- Node21&#45;&gt;Node3 -->
<g id="edge32" class="edge">
<title>Node21&#45;&gt;Node3</title>
<path fill="none" stroke="midnightblue" d="M605.53,-258.07C602.25,-203.57 594.43,-73.52 591.85,-30.55"/>
<polygon fill="midnightblue" stroke="midnightblue" points="602.05,-258.43 606.14,-268.2 609.03,-258.01 602.05,-258.43"/>
</g>
<!-- Node22&#45;&gt;Node8 -->
<g id="edge36" class="edge">
<title>Node22&#45;&gt;Node8</title>
<path fill="none" stroke="midnightblue" d="M804.01,-325.52C809.51,-309.24 814.4,-287.26 810,-268 794.47,-200.05 750.55,-128 730.82,-97.96"/>
<polygon fill="midnightblue" stroke="midnightblue" points="800.58,-324.72 800.4,-335.31 807.15,-327.14 800.58,-324.72"/>
</g>
<!-- Node22&#45;&gt;Node10 -->
<g id="edge39" class="edge">
<title>Node22&#45;&gt;Node10</title>
<path fill="none" stroke="midnightblue" d="M725.49,-336.15C674.34,-326.11 602.75,-311.93 540,-299 536.93,-298.37 533.78,-297.71 530.59,-297.05"/>
<polygon fill="midnightblue" stroke="midnightblue" points="724.95,-339.61 735.44,-338.1 726.3,-332.74 724.95,-339.61"/>
</g>
<!-- Node22&#45;&gt;Node11 -->
<g id="edge37" class="edge">
<title>Node22&#45;&gt;Node11</title>
<path fill="none" stroke="midnightblue" d="M833.87,-330.66C849.49,-322.22 866.99,-311.37 881,-299 903.92,-278.76 924.03,-248.93 934.76,-231.53"/>
<polygon fill="midnightblue" stroke="midnightblue" points="832.16,-327.6 824.93,-335.35 835.41,-333.8 832.16,-327.6"/>
</g>
<!-- Node22&#45;&gt;Node13 -->
<g id="edge38" class="edge">
<title>Node22&#45;&gt;Node13</title>
<path fill="none" stroke="midnightblue" d="M820.61,-328.61C829.24,-320.36 837.89,-310.17 843,-299 863.77,-253.57 860.61,-192.24 857.8,-164.8"/>
<polygon fill="midnightblue" stroke="midnightblue" points="818.22,-326.05 813.13,-335.34 822.9,-331.25 818.22,-326.05"/>
</g>
<!-- Node22&#45;&gt;Node21 -->
<g id="edge34" class="edge">
<title>Node22&#45;&gt;Node21</title>
<path fill="none" stroke="midnightblue" d="M743.92,-332.09C713.73,-321.6 675.78,-308.41 647.5,-298.58"/>
<polygon fill="midnightblue" stroke="midnightblue" points="742.83,-335.42 753.42,-335.4 745.13,-328.81 742.83,-335.42"/>
</g>
<!-- Node23 -->
<g id="node23" class="node">
<title>Node23</title>
<g id="a_node23"><a xlink:href="devices_8cpp.html" target="_top" xlink:title="Devices and manager for all known devices the base station connects to.">
<polygon fill="white" stroke="black" points="683.5,-268.5 683.5,-298.5 800.5,-298.5 800.5,-268.5 683.5,-268.5"/>
<text text-anchor="start" x="691.5" y="-286.5" font-family="Helvetica,sans-Serif" font-size="10.00">BaseStationCode/src</text>
<text text-anchor="middle" x="742" y="-275.5" font-family="Helvetica,sans-Serif" font-size="10.00">/src/devices.cpp</text>
</a>
</g>
</g>
<!-- Node22&#45;&gt;Node23 -->
<g id="edge35" class="edge">
<title>Node22&#45;&gt;Node23</title>
<path fill="none" stroke="midnightblue" d="M776.36,-327.45C768.72,-317.9 760,-307 753.26,-298.58"/>
<polygon fill="midnightblue" stroke="midnightblue" points="773.74,-329.77 782.72,-335.4 779.2,-325.4 773.74,-329.77"/>
</g>
<!-- Node25&#45;&gt;Node11 -->
<g id="edge48" class="edge">
<title>Node25&#45;&gt;Node11</title>
<path fill="none" stroke="midnightblue" d="M886.62,-459.41C899.27,-405.12 929.69,-274.61 939.73,-231.55"/>
<polygon fill="midnightblue" stroke="midnightblue" points="883.19,-458.67 884.33,-469.2 890.01,-460.25 883.19,-458.67"/>
</g>
<!-- Node25&#45;&gt;Node20 -->
<g id="edge47" class="edge">
<title>Node25&#45;&gt;Node20</title>
<path fill="none" stroke="midnightblue" d="M833.67,-465.82C805.7,-455.37 770.77,-442.32 744.68,-432.58"/>
<polygon fill="midnightblue" stroke="midnightblue" points="832.65,-469.18 843.24,-469.4 835.1,-462.62 832.65,-469.18"/>
</g>
<!-- Node25&#45;&gt;Node22 -->
<g id="edge46" class="edge">
<title>Node25&#45;&gt;Node22</title>
<path fill="none" stroke="midnightblue" d="M866.06,-460.83C848.02,-433.47 818.24,-388.28 803.24,-365.52"/>
<polygon fill="midnightblue" stroke="midnightblue" points="863.26,-462.95 871.69,-469.37 869.11,-459.1 863.26,-462.95"/>
</g>
</g>
</svg>
        <g id="navigator" transform="translate(0 0)" fill="#404254">
                <rect fill="#f2f5e9" fill-opacity="0.5" stroke="#606060" stroke-width=".5" x="0" y="0" width="60" height="60"/>
                <use id="zoomplus" xlink:href="#zoomPlus" x="17" y="9" onmousedown="handleZoom(evt,'in')"/>
                <use id="zoomminus" xlink:href="#zoomMin" x="42" y="9" onmousedown="handleZoom(evt,'out')"/>
                <use id="reset" xlink:href="#resetDef" x="30" y="36" onmousedown="handleReset()"/>
                <g id="arrowUp" xlink:href="#dirArrow" transform="translate(30 24)" onmousedown="handlePan(0,-1)">
                  <use xlink:href="#rim" fill="#404040">
                        <set attributeName="fill" to="#808080" begin="arrowUp.mouseover" end="arrowUp.mouseout"/>
                  </use>
                  <path fill="none" stroke="white" stroke-width="1.5" d="M0,-3.0v7 M-2.5,-0.5L0,-3.0L2.5,-0.5"/>
                </g>
                <g id="arrowRight" xlink:href="#dirArrow" transform="rotate(90) translate(36 -43)" onmousedown="handlePan(1,0)">
                  <use xlink:href="#rim" fill="#404040">
                        <set attributeName="fill" to="#808080" begin="arrowRight.mouseover" end="arrowRight.mouseout"/>
                  </use>
                  <path fill="none" stroke="white" stroke-width="1.5" d="M0,-3.0v7 M-2.5,-0.5L0,-3.0L2.5,-0.5"/>
                </g>
                <g id="arrowDown" xlink:href="#dirArrow" transform="rotate(180) translate(-30 -48)" onmousedown="handlePan(0,1)">
                  <use xlink:href="#rim" fill="#404040">
                        <set attributeName="fill" to="#808080" begin="arrowDown.mouseover" end="arrowDown.mouseout"/>
                  </use>
                  <path fill="none" stroke="white" stroke-width="1.5" d="M0,-3.0v7 M-2.5,-0.5L0,-3.0L2.5,-0.5"/>
                </g>
                <g id="arrowLeft" xlink:href="#dirArrow" transform="rotate(270) translate(-36 17)" onmousedown="handlePan(-1,0)">
                  <use xlink:href="#rim" fill="#404040">
                        <set attributeName="fill" to="#808080" begin="arrowLeft.mouseover" end="arrowLeft.mouseout"/>
                  </use>
                  <path fill="none" stroke="white" stroke-width="1.5" d="M0,-3.0v7 M-2.5,-0.5L0,-3.0L2.5,-0.5"/>
                </g>
        </g>
        <svg viewBox="0 0 15 15" width="100%" height="30px" preserveAspectRatio="xMaxYMin meet">
         <g id="arrow_out" transform="scale(0.3 0.3)">
          <a xlink:href="topics_8h__dep__incl_org.svg" target="_base">
           <rect id="button" ry="5" rx="5" y="6" x="6" height="38" width="38"
                fill="#f2f5e9" fill-opacity="0.5" stroke="#606060" stroke-width="1.0"/>
           <path id="arrow"
             d="M 11.500037,31.436501 C 11.940474,20.09759 22.043105,11.32322 32.158766,21.979434 L 37.068811,17.246167 C 37.068811,17.246167 37.088388,32 37.088388,32 L 22.160133,31.978069 C 22.160133,31.978069 26.997745,27.140456 26.997745,27.140456 C 18.528582,18.264221 13.291696,25.230495 11.500037,31.436501 z"
             style="fill:#404040;"/>
          </a>
         </g>
        </svg>
</svg>
