<?xml version="1.0" encoding="UTF-8" standalone="no"?>
<!DOCTYPE svg PUBLIC "-//W3C//DTD SVG 1.1//EN"
 "http://www.w3.org/Graphics/SVG/1.1/DTD/svg11.dtd">
<!-- Generated by graphviz version 2.43.0 (0)
 -->
<!-- Title: BaseStationCode/src/src/topics.h Pages: 1 -->
<!--zoomable 642 -->
<svg id="main" version="1.1" xmlns="http://www.w3.org/2000/svg" xmlns:xlink="http://www.w3.org/1999/xlink" xml:space="preserve" onload="init(evt)">
<style type="text/css"><![CDATA[
.edge:hover path { stroke: red; }
.edge:hover polygon { stroke: red; fill: red; }
]]></style>
<script type="text/javascript"><![CDATA[
var edges = document.getElementsByTagName('g');
if (edges && edges.length) {
  for (var i=0;i<edges.length;i++) {
    if (edges[i].id.substr(0,4)=='edge') {
      edges[i].setAttribute('class','edge');
    }
  }
}
]]></script>
        <defs>
                <circle id="rim" cx="0" cy="0" r="7"/>
                <circle id="rim2" cx="0" cy="0" r="3.5"/>
                <g id="zoomPlus">
                        <use xlink:href="#rim" fill="#404040">
                                <set attributeName="fill" to="#808080" begin="zoomplus.mouseover" end="zoomplus.mouseout"/>
                        </use>
                        <path d="M-4,0h8M0,-4v8" fill="none" stroke="white" stroke-width="1.5" pointer-events="none"/>
                </g>
                <g id="zoomMin">
                        <use xlink:href="#rim" fill="#404040">
                                <set attributeName="fill" to="#808080" begin="zoomminus.mouseover" end="zoomminus.mouseout"/>
                        </use>
                        <path d="M-4,0h8" fill="none" stroke="white" stroke-width="1.5" pointer-events="none"/>
                </g>
                <g id="dirArrow">
                        <path fill="none" stroke="white" stroke-width="1.5" d="M0,-3.0v7 M-2.5,-0.5L0,-3.0L2.5,-0.5"/>
                </g>
               <g id="resetDef">
                       <use xlink:href="#rim2" fill="#404040">
                               <set attributeName="fill" to="#808080" begin="reset.mouseover" end="reset.mouseout"/>
                       </use>
               </g>
        </defs>

<script type="text/javascript">
var viewWidth = 1117;
var viewHeight = 642;
var sectionId = 'dynsection-0';
</script>
<script xlink:href="svgpan.js"/>
<svg id="graph" class="graph">
<g id="viewport">
<title>BaseStationCode/src/src/topics.h</title>
<polygon fill="white" stroke="transparent" points="-4,4 -4,-638 1113.47,-638 1113.47,4 -4,4"/>
<!-- Node1 -->
<g id="node1" class="node">
<title>Node1</title>
<g id="a_node1"><a xlink:title="MQTT topics for a thingsboard gateway.">
<polygon fill="#bfbfbf" stroke="black" points="659.47,-603.5 659.47,-633.5 776.47,-633.5 776.47,-603.5 659.47,-603.5"/>
<text text-anchor="start" x="667.47" y="-621.5" font-family="Helvetica,sans-Serif" font-size="10.00">BaseStationCode/src</text>
<text text-anchor="middle" x="717.97" y="-610.5" font-family="Helvetica,sans-Serif" font-size="10.00">/src/topics.h</text>
</a>
</g>
</g>
<!-- Node2 -->
<g id="node2" class="node">
<title>Node2</title>
<g id="a_node2"><a xlink:href="defines_8h.html" target="_top" xlink:title="Definitions and other preprocessor and global stuff.">
<polygon fill="white" stroke="black" points="516.47,-536.5 516.47,-566.5 633.47,-566.5 633.47,-536.5 516.47,-536.5"/>
<text text-anchor="start" x="524.47" y="-554.5" font-family="Helvetica,sans-Serif" font-size="10.00">BaseStationCode/src</text>
<text text-anchor="middle" x="574.97" y="-543.5" font-family="Helvetica,sans-Serif" font-size="10.00">/defines.h</text>
</a>
</g>
</g>
<!-- Node1&#45;&gt;Node2 -->
<g id="edge1" class="edge">
<title>Node1&#45;&gt;Node2</title>
<path fill="none" stroke="midnightblue" d="M677.56,-599.13C654.84,-588.8 626.91,-576.11 605.94,-566.58"/>
<polygon fill="midnightblue" stroke="midnightblue" points="676.39,-602.44 686.94,-603.4 679.29,-596.07 676.39,-602.44"/>
</g>
<!-- Node8 -->
<g id="node8" class="node">
<title>Node8</title>
<g id="a_node8"><a xlink:href="rpc_8h.html" target="_top" xlink:title="Handles RPC calls.">
<polygon fill="white" stroke="black" points="569.47,-268.5 569.47,-298.5 686.47,-298.5 686.47,-268.5 569.47,-268.5"/>
<text text-anchor="start" x="577.47" y="-286.5" font-family="Helvetica,sans-Serif" font-size="10.00">BaseStationCode/src</text>
<text text-anchor="middle" x="627.97" y="-275.5" font-family="Helvetica,sans-Serif" font-size="10.00">/src/rpc.h</text>
</a>
</g>
</g>
<!-- Node1&#45;&gt;Node8 -->
<g id="edge57" class="edge">
<title>Node1&#45;&gt;Node8</title>
<path fill="none" stroke="midnightblue" d="M743.68,-596.71C774.16,-569.34 819.16,-518.86 804.97,-469 785.8,-401.62 773.01,-382.99 721.97,-335 705.37,-319.39 683.02,-307.12 664.28,-298.59"/>
<polygon fill="midnightblue" stroke="midnightblue" points="741.15,-594.26 735.91,-603.47 745.75,-599.54 741.15,-594.26"/>
</g>
<!-- Node3 -->
<g id="node3" class="node">
<title>Node3</title>
<g id="a_node3"><a xlink:href="main_8cpp.html" target="_top" xlink:title=" ">
<polygon fill="white" stroke="black" points="387.47,-0.5 387.47,-30.5 504.47,-30.5 504.47,-0.5 387.47,-0.5"/>
<text text-anchor="start" x="395.47" y="-18.5" font-family="Helvetica,sans-Serif" font-size="10.00">BaseStationCode/src</text>
<text text-anchor="middle" x="445.97" y="-7.5" font-family="Helvetica,sans-Serif" font-size="10.00">/main.cpp</text>
</a>
</g>
</g>
<!-- Node2&#45;&gt;Node3 -->
<g id="edge2" class="edge">
<title>Node2&#45;&gt;Node3</title>
<path fill="none" stroke="midnightblue" d="M506.18,-548.34C393.64,-543.93 175.72,-531.51 105.97,-500 57.09,-477.92 16.97,-472.13 16.97,-418.5 16.97,-418.5 16.97,-418.5 16.97,-148.5 16.97,-130.9 -65.13,-146.29 136.97,-67 220.09,-34.39 323.75,-22.84 387.38,-18.75"/>
<polygon fill="midnightblue" stroke="midnightblue" points="506.28,-551.84 516.4,-548.73 506.54,-544.85 506.28,-551.84"/>
</g>
<!-- Node4 -->
<g id="node4" class="node">
<title>Node4</title>
<g id="a_node4"><a xlink:href="alarm_8h.html" target="_top" xlink:title="Handles alarms.">
<polygon fill="white" stroke="black" points="886.47,-335.5 886.47,-365.5 1003.47,-365.5 1003.47,-335.5 886.47,-335.5"/>
<text text-anchor="start" x="894.47" y="-353.5" font-family="Helvetica,sans-Serif" font-size="10.00">BaseStationCode/src</text>
<text text-anchor="middle" x="944.97" y="-342.5" font-family="Helvetica,sans-Serif" font-size="10.00">/src/alarm.h</text>
</a>
</g>
</g>
<!-- Node2&#45;&gt;Node4 -->
<g id="edge3" class="edge">
<title>Node2&#45;&gt;Node4</title>
<path fill="none" stroke="midnightblue" d="M643.61,-546.12C691.45,-540.6 755.33,-528.13 804.97,-500 866.01,-465.42 916.38,-395.5 936.07,-365.59"/>
<polygon fill="midnightblue" stroke="midnightblue" points="643.23,-542.64 633.66,-547.2 643.98,-549.6 643.23,-542.64"/>
</g>
<!-- Node6 -->
<g id="node6" class="node">
<title>Node6</title>
<g id="a_node6"><a xlink:href="leds_8h.html" target="_top" xlink:title="Controls the LEDs on the unit.">
<polygon fill="white" stroke="black" points="857.47,-67.5 857.47,-97.5 974.47,-97.5 974.47,-67.5 857.47,-67.5"/>
<text text-anchor="start" x="865.47" y="-85.5" font-family="Helvetica,sans-Serif" font-size="10.00">BaseStationCode/src</text>
<text text-anchor="middle" x="915.97" y="-74.5" font-family="Helvetica,sans-Serif" font-size="10.00">/src/leds.h</text>
</a>
</g>
</g>
<!-- Node2&#45;&gt;Node6 -->
<g id="edge45" class="edge">
<title>Node2&#45;&gt;Node6</title>
<path fill="none" stroke="midnightblue" d="M643.73,-547.23C749.26,-537.89 945.99,-502.13 1012.97,-366 1059.67,-271.1 1013.47,-225.24 959.97,-134 952.09,-120.56 940.4,-107.35 931.06,-97.82"/>
<polygon fill="midnightblue" stroke="midnightblue" points="643.17,-543.77 633.5,-548.08 643.75,-550.74 643.17,-543.77"/>
</g>
<!-- Node2&#45;&gt;Node8 -->
<g id="edge53" class="edge">
<title>Node2&#45;&gt;Node8</title>
<path fill="none" stroke="midnightblue" d="M628.65,-532.71C647.99,-524.66 669.18,-513.81 685.97,-500 714.27,-476.74 722.77,-467.88 733.97,-433 752.14,-376.45 686.83,-323.08 650.58,-298.56"/>
<polygon fill="midnightblue" stroke="midnightblue" points="627.31,-529.48 619.32,-536.44 629.91,-535.98 627.31,-529.48"/>
</g>
<!-- Node9 -->
<g id="node9" class="node">
<title>Node9</title>
<g id="a_node9"><a xlink:href="lora_8h.html" target="_top" xlink:title="File that handles the LoRa radio and PJON.">
<polygon fill="white" stroke="black" points="319.47,-201.5 319.47,-231.5 436.47,-231.5 436.47,-201.5 319.47,-201.5"/>
<text text-anchor="start" x="327.47" y="-219.5" font-family="Helvetica,sans-Serif" font-size="10.00">BaseStationCode/src</text>
<text text-anchor="middle" x="377.97" y="-208.5" font-family="Helvetica,sans-Serif" font-size="10.00">/src/lora.h</text>
</a>
</g>
</g>
<!-- Node2&#45;&gt;Node9 -->
<g id="edge50" class="edge">
<title>Node2&#45;&gt;Node9</title>
<path fill="none" stroke="midnightblue" d="M505.84,-546.7C396.93,-540 195.53,-524.44 173.97,-500 127.46,-447.26 240.08,-270.73 242.97,-268 263.89,-248.24 293.26,-236.04 319.26,-228.6"/>
<polygon fill="midnightblue" stroke="midnightblue" points="505.89,-550.21 516.08,-547.32 506.31,-543.22 505.89,-550.21"/>
</g>
<!-- Node11 -->
<g id="node11" class="node">
<title>Node11</title>
<g id="a_node11"><a xlink:href="networking_8h.html" target="_top" xlink:title="Header file for networking.cpp.">
<polygon fill="white" stroke="black" points="667.47,-134.5 667.47,-164.5 784.47,-164.5 784.47,-134.5 667.47,-134.5"/>
<text text-anchor="start" x="675.47" y="-152.5" font-family="Helvetica,sans-Serif" font-size="10.00">BaseStationCode/src</text>
<text text-anchor="middle" x="725.97" y="-141.5" font-family="Helvetica,sans-Serif" font-size="10.00">/src/networking.h</text>
</a>
</g>
</g>
<!-- Node2&#45;&gt;Node11 -->
<g id="edge51" class="edge">
<title>Node2&#45;&gt;Node11</title>
<path fill="none" stroke="midnightblue" d="M643.67,-538.31C706.91,-522.68 790.97,-488.69 790.97,-418.5 790.97,-418.5 790.97,-418.5 790.97,-282.5 790.97,-235.5 757.39,-187.87 738.5,-164.8"/>
<polygon fill="midnightblue" stroke="midnightblue" points="642.64,-534.96 633.71,-540.67 644.25,-541.77 642.64,-534.96"/>
</g>
<!-- Node13 -->
<g id="node13" class="node">
<title>Node13</title>
<g id="a_node13"><a xlink:href="ota_8h.html" target="_top" xlink:title="Handles over the air (OTA) updates.">
<polygon fill="white" stroke="black" points="992.47,-67.5 992.47,-97.5 1109.47,-97.5 1109.47,-67.5 992.47,-67.5"/>
<text text-anchor="start" x="1000.47" y="-85.5" font-family="Helvetica,sans-Serif" font-size="10.00">BaseStationCode/src</text>
<text text-anchor="middle" x="1050.97" y="-74.5" font-family="Helvetica,sans-Serif" font-size="10.00">/src/ota.h</text>
</a>
</g>
</g>
<!-- Node2&#45;&gt;Node13 -->
<g id="edge52" class="edge">
<title>Node2&#45;&gt;Node13</title>
<path fill="none" stroke="midnightblue" d="M643.82,-546.84C781.78,-537.61 1078.97,-507.4 1078.97,-418.5 1078.97,-418.5 1078.97,-418.5 1078.97,-215.5 1078.97,-171.69 1064.03,-121.45 1055.98,-97.55"/>
<polygon fill="midnightblue" stroke="midnightblue" points="643.53,-543.35 633.77,-547.49 643.98,-550.33 643.53,-543.35"/>
</g>
<!-- Node17 -->
<g id="node17" class="node">
<title>Node17</title>
<g id="a_node17"><a xlink:href="audio_8h.html" target="_top" xlink:title="Plays audio.">
<polygon fill="white" stroke="black" points="183.47,-469.5 183.47,-499.5 300.47,-499.5 300.47,-469.5 183.47,-469.5"/>
<text text-anchor="start" x="191.47" y="-487.5" font-family="Helvetica,sans-Serif" font-size="10.00">BaseStationCode/src</text>
<text text-anchor="middle" x="241.97" y="-476.5" font-family="Helvetica,sans-Serif" font-size="10.00">/src/audio.h</text>
</a>
</g>
</g>
<!-- Node2&#45;&gt;Node17 -->
<g id="edge26" class="edge">
<title>Node2&#45;&gt;Node17</title>
<path fill="none" stroke="midnightblue" d="M506.16,-537.81C452.62,-527.84 376.5,-513.43 309.97,-500 306.9,-499.38 303.74,-498.73 300.56,-498.08"/>
<polygon fill="midnightblue" stroke="midnightblue" points="505.75,-541.3 516.22,-539.68 507.03,-534.41 505.75,-541.3"/>
</g>
<!-- Node19 -->
<g id="node19" class="node">
<title>Node19</title>
<g id="a_node19"><a xlink:href="conversions_8h.html" target="_top" xlink:title="General functions for converting to and from char arrays.">
<polygon fill="white" stroke="black" points="559.47,-469.5 559.47,-499.5 676.47,-499.5 676.47,-469.5 559.47,-469.5"/>
<text text-anchor="start" x="567.47" y="-487.5" font-family="Helvetica,sans-Serif" font-size="10.00">BaseStationCode/src</text>
<text text-anchor="middle" x="617.97" y="-476.5" font-family="Helvetica,sans-Serif" font-size="10.00">/src/conversions.h</text>
</a>
</g>
</g>
<!-- Node2&#45;&gt;Node19 -->
<g id="edge29" class="edge">
<title>Node2&#45;&gt;Node19</title>
<path fill="none" stroke="midnightblue" d="M589.94,-527.87C596.17,-518.46 603.2,-507.83 608.66,-499.58"/>
<polygon fill="midnightblue" stroke="midnightblue" points="586.9,-526.12 584.3,-536.4 592.74,-529.99 586.9,-526.12"/>
</g>
<!-- Node21 -->
<g id="node21" class="node">
<title>Node21</title>
<g id="a_node21"><a xlink:href="fields_8h.html" target="_top" xlink:title="Contains fields classes.">
<polygon fill="white" stroke="black" points="472.47,-402.5 472.47,-432.5 589.47,-432.5 589.47,-402.5 472.47,-402.5"/>
<text text-anchor="start" x="480.47" y="-420.5" font-family="Helvetica,sans-Serif" font-size="10.00">BaseStationCode/src</text>
<text text-anchor="middle" x="530.97" y="-409.5" font-family="Helvetica,sans-Serif" font-size="10.00">/src/fields.h</text>
</a>
</g>
</g>
<!-- Node2&#45;&gt;Node21 -->
<g id="edge44" class="edge">
<title>Node2&#45;&gt;Node21</title>
<path fill="none" stroke="midnightblue" d="M562.63,-527.08C558.53,-518.69 554.2,-509.07 550.97,-500 542.76,-476.94 536.71,-449.05 533.53,-432.6"/>
<polygon fill="midnightblue" stroke="midnightblue" points="559.62,-528.89 567.24,-536.25 565.87,-525.74 559.62,-528.89"/>
</g>
<!-- Node23 -->
<g id="node23" class="node">
<title>Node23</title>
<g id="a_node23"><a xlink:href="devices_8h.html" target="_top" xlink:title="Devices and manager for all known devices the base station connects to.">
<polygon fill="white" stroke="black" points="390.47,-335.5 390.47,-365.5 507.47,-365.5 507.47,-335.5 390.47,-335.5"/>
<text text-anchor="start" x="398.47" y="-353.5" font-family="Helvetica,sans-Serif" font-size="10.00">BaseStationCode/src</text>
<text text-anchor="middle" x="448.97" y="-342.5" font-family="Helvetica,sans-Serif" font-size="10.00">/src/devices.h</text>
</a>
</g>
</g>
<!-- Node2&#45;&gt;Node23 -->
<g id="edge43" class="edge">
<title>Node2&#45;&gt;Node23</title>
<path fill="none" stroke="midnightblue" d="M548.28,-530.1C522.43,-508.8 484.25,-472.97 463.97,-433 452.91,-411.19 449.92,-382.41 449.17,-365.53"/>
<polygon fill="midnightblue" stroke="midnightblue" points="546.22,-532.94 556.2,-536.49 550.62,-527.49 546.22,-532.94"/>
</g>
<!-- Node26 -->
<g id="node26" class="node">
<title>Node26</title>
<g id="a_node26"><a xlink:href="lookups_8h.html" target="_top" xlink:title="Lookupable and lookupable manager base classes.">
<polygon fill="white" stroke="black" points="318.47,-469.5 318.47,-499.5 435.47,-499.5 435.47,-469.5 318.47,-469.5"/>
<text text-anchor="start" x="326.47" y="-487.5" font-family="Helvetica,sans-Serif" font-size="10.00">BaseStationCode/src</text>
<text text-anchor="middle" x="376.97" y="-476.5" font-family="Helvetica,sans-Serif" font-size="10.00">/src/lookups.h</text>
</a>
</g>
</g>
<!-- Node2&#45;&gt;Node26 -->
<g id="edge46" class="edge">
<title>Node2&#45;&gt;Node26</title>
<path fill="none" stroke="midnightblue" d="M522.36,-533.23C490.33,-522.71 449.93,-509.45 419.85,-499.58"/>
<polygon fill="midnightblue" stroke="midnightblue" points="521.42,-536.6 532.01,-536.4 523.6,-529.95 521.42,-536.6"/>
</g>
<!-- Node27 -->
<g id="node27" class="node">
<title>Node27</title>
<g id="a_node27"><a xlink:href="timeseries_8h.html" target="_top" xlink:title="Measures the temperature and pressure and sends them every so often as timeseries.">
<polygon fill="white" stroke="black" points="45.47,-134.5 45.47,-164.5 162.47,-164.5 162.47,-134.5 45.47,-134.5"/>
<text text-anchor="start" x="53.47" y="-152.5" font-family="Helvetica,sans-Serif" font-size="10.00">BaseStationCode/src</text>
<text text-anchor="middle" x="103.97" y="-141.5" font-family="Helvetica,sans-Serif" font-size="10.00">/src/timeseries.h</text>
</a>
</g>
</g>
<!-- Node2&#45;&gt;Node27 -->
<g id="edge54" class="edge">
<title>Node2&#45;&gt;Node27</title>
<path fill="none" stroke="midnightblue" d="M506.24,-548.14C403.97,-543.64 217.51,-531.3 158.97,-500 116.86,-477.49 88.97,-466.25 88.97,-418.5 88.97,-418.5 88.97,-418.5 88.97,-282.5 88.97,-239.37 96.98,-188.82 101.29,-164.7"/>
<polygon fill="midnightblue" stroke="midnightblue" points="506.33,-551.65 516.47,-548.58 506.63,-544.65 506.33,-551.65"/>
</g>
<!-- Node4&#45;&gt;Node3 -->
<g id="edge4" class="edge">
<title>Node4&#45;&gt;Node3</title>
<path fill="none" stroke="midnightblue" d="M891.21,-331.09C875.59,-323.37 859.83,-312.89 848.97,-299 826,-269.62 828.97,-254.8 828.97,-217.5 828.97,-217.5 828.97,-217.5 828.97,-148.5 828.97,-90.82 780.45,-90.94 727.97,-67 655.57,-33.96 563.52,-22.5 504.66,-18.54"/>
<polygon fill="midnightblue" stroke="midnightblue" points="889.81,-334.29 900.35,-335.31 892.74,-327.94 889.81,-334.29"/>
</g>
<!-- Node5 -->
<g id="node5" class="node">
<title>Node5</title>
<g id="a_node5"><a xlink:href="alarm_8cpp.html" target="_top" xlink:title="Handles alarms.">
<polygon fill="white" stroke="black" points="857.47,-268.5 857.47,-298.5 974.47,-298.5 974.47,-268.5 857.47,-268.5"/>
<text text-anchor="start" x="865.47" y="-286.5" font-family="Helvetica,sans-Serif" font-size="10.00">BaseStationCode/src</text>
<text text-anchor="middle" x="915.97" y="-275.5" font-family="Helvetica,sans-Serif" font-size="10.00">/src/alarm.cpp</text>
</a>
</g>
</g>
<!-- Node4&#45;&gt;Node5 -->
<g id="edge5" class="edge">
<title>Node4&#45;&gt;Node5</title>
<path fill="none" stroke="midnightblue" d="M934.48,-325.99C930.39,-316.8 925.82,-306.58 922.25,-298.58"/>
<polygon fill="midnightblue" stroke="midnightblue" points="931.41,-327.69 938.68,-335.4 937.8,-324.84 931.41,-327.69"/>
</g>
<!-- Node4&#45;&gt;Node6 -->
<g id="edge6" class="edge">
<title>Node4&#45;&gt;Node6</title>
<path fill="none" stroke="midnightblue" d="M966.99,-327.53C973.8,-319.28 980.43,-309.38 983.97,-299 988.42,-285.96 986.39,-281.56 983.97,-268 972.16,-201.79 938.26,-128.23 923.26,-97.83"/>
<polygon fill="midnightblue" stroke="midnightblue" points="964.23,-325.36 960.24,-335.17 969.48,-330 964.23,-325.36"/>
</g>
<!-- Node4&#45;&gt;Node8 -->
<g id="edge9" class="edge">
<title>Node4&#45;&gt;Node8</title>
<path fill="none" stroke="midnightblue" d="M876.52,-335.46C819.93,-323.86 740.41,-307.55 686.68,-296.54"/>
<polygon fill="midnightblue" stroke="midnightblue" points="875.96,-338.92 886.46,-337.5 877.37,-332.06 875.96,-338.92"/>
</g>
<!-- Node6&#45;&gt;Node3 -->
<g id="edge7" class="edge">
<title>Node6&#45;&gt;Node3</title>
<path fill="none" stroke="midnightblue" d="M847.44,-67.74C845.94,-67.49 844.45,-67.24 842.97,-67 723.31,-47.53 582.32,-31.14 504.68,-22.68"/>
<polygon fill="midnightblue" stroke="midnightblue" points="847.01,-71.22 857.47,-69.51 848.22,-64.33 847.01,-71.22"/>
</g>
<!-- Node7 -->
<g id="node7" class="node">
<title>Node7</title>
<g id="a_node7"><a xlink:href="leds_8cpp.html" target="_top" xlink:title="Controls the LEDs on the unit.">
<polygon fill="white" stroke="black" points="857.47,-0.5 857.47,-30.5 974.47,-30.5 974.47,-0.5 857.47,-0.5"/>
<text text-anchor="start" x="865.47" y="-18.5" font-family="Helvetica,sans-Serif" font-size="10.00">BaseStationCode/src</text>
<text text-anchor="middle" x="915.97" y="-7.5" font-family="Helvetica,sans-Serif" font-size="10.00">/src/leds.cpp</text>
</a>
</g>
</g>
<!-- Node6&#45;&gt;Node7 -->
<g id="edge8" class="edge">
<title>Node6&#45;&gt;Node7</title>
<path fill="none" stroke="midnightblue" d="M915.97,-57.11C915.97,-48.15 915.97,-38.32 915.97,-30.58"/>
<polygon fill="midnightblue" stroke="midnightblue" points="912.47,-57.4 915.97,-67.4 919.47,-57.4 912.47,-57.4"/>
</g>
<!-- Node8&#45;&gt;Node3 -->
<g id="edge10" class="edge">
<title>Node8&#45;&gt;Node3</title>
<path fill="none" stroke="midnightblue" d="M559.47,-273.39C532.55,-266.38 503.67,-253.96 484.97,-232 458.85,-201.31 449.25,-73.66 446.72,-30.69"/>
<polygon fill="midnightblue" stroke="midnightblue" points="558.74,-276.82 569.28,-275.74 560.37,-270.01 558.74,-276.82"/>
</g>
<!-- Node8&#45;&gt;Node9 -->
<g id="edge11" class="edge">
<title>Node8&#45;&gt;Node9</title>
<path fill="none" stroke="midnightblue" d="M564.19,-265.92C523.39,-255.31 471.04,-241.7 432.25,-231.61"/>
<polygon fill="midnightblue" stroke="midnightblue" points="563.47,-269.35 574.03,-268.48 565.24,-262.57 563.47,-269.35"/>
</g>
<!-- Node12 -->
<g id="node12" class="node">
<title>Node12</title>
<g id="a_node12"><a xlink:href="networking_8cpp.html" target="_top" xlink:title="File that handles connecting to WiFi and MQTT and staying connected.">
<polygon fill="white" stroke="black" points="580.47,-67.5 580.47,-97.5 697.47,-97.5 697.47,-67.5 580.47,-67.5"/>
<text text-anchor="start" x="588.47" y="-85.5" font-family="Helvetica,sans-Serif" font-size="10.00">BaseStationCode/src</text>
<text text-anchor="middle" x="638.97" y="-74.5" font-family="Helvetica,sans-Serif" font-size="10.00">/src/networking.cpp</text>
</a>
</g>
</g>
<!-- Node8&#45;&gt;Node12 -->
<g id="edge24" class="edge">
<title>Node8&#45;&gt;Node12</title>
<path fill="none" stroke="midnightblue" d="M629.33,-258C631.65,-215.93 636.33,-131.26 638.19,-97.68"/>
<polygon fill="midnightblue" stroke="midnightblue" points="625.82,-258.01 628.76,-268.19 632.81,-258.4 625.82,-258.01"/>
</g>
<!-- Node16 -->
<g id="node16" class="node">
<title>Node16</title>
<g id="a_node16"><a xlink:href="rpc_8cpp.html" target="_top" xlink:title="Handles RPC calls.">
<polygon fill="white" stroke="black" points="493.47,-201.5 493.47,-231.5 610.47,-231.5 610.47,-201.5 493.47,-201.5"/>
<text text-anchor="start" x="501.47" y="-219.5" font-family="Helvetica,sans-Serif" font-size="10.00">BaseStationCode/src</text>
<text text-anchor="middle" x="551.97" y="-208.5" font-family="Helvetica,sans-Serif" font-size="10.00">/src/rpc.cpp</text>
</a>
</g>
</g>
<!-- Node8&#45;&gt;Node16 -->
<g id="edge25" class="edge">
<title>Node8&#45;&gt;Node16</title>
<path fill="none" stroke="midnightblue" d="M603.87,-261.88C592.32,-252.01 578.78,-240.43 568.43,-231.58"/>
<polygon fill="midnightblue" stroke="midnightblue" points="601.61,-264.56 611.48,-268.4 606.16,-259.24 601.61,-264.56"/>
</g>
<!-- Node9&#45;&gt;Node3 -->
<g id="edge12" class="edge">
<title>Node9&#45;&gt;Node3</title>
<path fill="none" stroke="midnightblue" d="M393.25,-192.93C398.49,-184.45 404.01,-174.55 407.97,-165 427.55,-117.81 439.14,-57.87 443.71,-30.85"/>
<polygon fill="midnightblue" stroke="midnightblue" points="390.22,-191.18 387.78,-201.49 396.12,-194.95 390.22,-191.18"/>
</g>
<!-- Node10 -->
<g id="node10" class="node">
<title>Node10</title>
<g id="a_node10"><a xlink:href="lora_8cpp.html" target="_top" xlink:title="File that handles the LoRa radio and PJON.">
<polygon fill="white" stroke="black" points="281.47,-134.5 281.47,-164.5 398.47,-164.5 398.47,-134.5 281.47,-134.5"/>
<text text-anchor="start" x="289.47" y="-152.5" font-family="Helvetica,sans-Serif" font-size="10.00">BaseStationCode/src</text>
<text text-anchor="middle" x="339.97" y="-141.5" font-family="Helvetica,sans-Serif" font-size="10.00">/src/lora.cpp</text>
</a>
</g>
</g>
<!-- Node9&#45;&gt;Node10 -->
<g id="edge13" class="edge">
<title>Node9&#45;&gt;Node10</title>
<path fill="none" stroke="midnightblue" d="M364.57,-192.58C359.11,-183.24 352.98,-172.75 348.2,-164.58"/>
<polygon fill="midnightblue" stroke="midnightblue" points="361.66,-194.53 369.73,-201.4 367.7,-191 361.66,-194.53"/>
</g>
<!-- Node9&#45;&gt;Node11 -->
<g id="edge14" class="edge">
<title>Node9&#45;&gt;Node11</title>
<path fill="none" stroke="midnightblue" d="M446.9,-201.57C511.35,-189.22 606.44,-171.5 667.34,-160.51"/>
<polygon fill="midnightblue" stroke="midnightblue" points="445.99,-198.18 436.83,-203.5 447.31,-205.05 445.99,-198.18"/>
</g>
<!-- Node11&#45;&gt;Node3 -->
<g id="edge15" class="edge">
<title>Node11&#45;&gt;Node3</title>
<path fill="none" stroke="midnightblue" d="M726.92,-124.29C726.26,-106.02 722.21,-81.67 706.97,-67 678.67,-39.75 572.58,-26.41 504.68,-20.53"/>
<polygon fill="midnightblue" stroke="midnightblue" points="723.42,-124.5 726.97,-134.48 730.42,-124.47 723.42,-124.5"/>
</g>
<!-- Node11&#45;&gt;Node6 -->
<g id="edge16" class="edge">
<title>Node11&#45;&gt;Node6</title>
<path fill="none" stroke="midnightblue" d="M776.86,-131.09C807.53,-120.6 846.09,-107.41 874.83,-97.58"/>
<polygon fill="midnightblue" stroke="midnightblue" points="775.53,-127.85 767.2,-134.4 777.79,-134.47 775.53,-127.85"/>
</g>
<!-- Node11&#45;&gt;Node8 -->
<g id="edge22" class="edge">
<title>Node11&#45;&gt;Node8</title>
<path fill="none" stroke="midnightblue" d="M709.5,-172.69C689.25,-199.97 655.48,-245.45 638.46,-268.37"/>
<polygon fill="midnightblue" stroke="midnightblue" points="712.41,-174.64 715.56,-164.52 706.79,-170.47 712.41,-174.64"/>
</g>
<!-- Node11&#45;&gt;Node9 -->
<g id="edge17" class="edge">
<title>Node11&#45;&gt;Node9</title>
<path fill="none" stroke="midnightblue" d="M657.25,-164.39C592.81,-176.74 497.59,-194.48 436.62,-205.49"/>
<polygon fill="midnightblue" stroke="midnightblue" points="658.16,-167.78 667.32,-162.46 656.84,-160.91 658.16,-167.78"/>
</g>
<!-- Node11&#45;&gt;Node12 -->
<g id="edge18" class="edge">
<title>Node11&#45;&gt;Node12</title>
<path fill="none" stroke="midnightblue" d="M698.76,-128.17C685.45,-118.23 669.78,-106.51 657.81,-97.58"/>
<polygon fill="midnightblue" stroke="midnightblue" points="696.99,-131.21 707.09,-134.4 701.18,-125.61 696.99,-131.21"/>
</g>
<!-- Node11&#45;&gt;Node13 -->
<g id="edge19" class="edge">
<title>Node11&#45;&gt;Node13</title>
<path fill="none" stroke="midnightblue" d="M794.81,-135.41C846.83,-125.43 919.96,-111.19 983.97,-98 986.65,-97.45 989.39,-96.88 992.16,-96.3"/>
<polygon fill="midnightblue" stroke="midnightblue" points="793.86,-132.03 784.7,-137.35 795.18,-138.9 793.86,-132.03"/>
</g>
<!-- Node15 -->
<g id="node15" class="node">
<title>Node15</title>
<g id="a_node15"><a xlink:href="timeseries_8cpp.html" target="_top" xlink:title=" ">
<polygon fill="white" stroke="black" points="281.47,-67.5 281.47,-97.5 398.47,-97.5 398.47,-67.5 281.47,-67.5"/>
<text text-anchor="start" x="289.47" y="-85.5" font-family="Helvetica,sans-Serif" font-size="10.00">BaseStationCode/src</text>
<text text-anchor="middle" x="339.97" y="-74.5" font-family="Helvetica,sans-Serif" font-size="10.00">/src/timeseries.cpp</text>
</a>
</g>
</g>
<!-- Node11&#45;&gt;Node15 -->
<g id="edge23" class="edge">
<title>Node11&#45;&gt;Node15</title>
<path fill="none" stroke="midnightblue" d="M657.24,-136.93C583.61,-124.53 467.97,-105.05 398.52,-93.36"/>
<polygon fill="midnightblue" stroke="midnightblue" points="656.9,-140.42 667.35,-138.63 658.07,-133.52 656.9,-140.42"/>
</g>
<!-- Node13&#45;&gt;Node3 -->
<g id="edge20" class="edge">
<title>Node13&#45;&gt;Node3</title>
<path fill="none" stroke="midnightblue" d="M982.1,-66.82C803.19,-39.7 602.16,-25.54 504.77,-19.71"/>
<polygon fill="midnightblue" stroke="midnightblue" points="981.81,-70.31 992.22,-68.37 982.87,-63.39 981.81,-70.31"/>
</g>
<!-- Node14 -->
<g id="node14" class="node">
<title>Node14</title>
<g id="a_node14"><a xlink:href="ota_8cpp.html" target="_top" xlink:title="Handles over the air (OTA) updates.">
<polygon fill="white" stroke="black" points="992.47,-0.5 992.47,-30.5 1109.47,-30.5 1109.47,-0.5 992.47,-0.5"/>
<text text-anchor="start" x="1000.47" y="-18.5" font-family="Helvetica,sans-Serif" font-size="10.00">BaseStationCode/src</text>
<text text-anchor="middle" x="1050.97" y="-7.5" font-family="Helvetica,sans-Serif" font-size="10.00">/src/ota.cpp</text>
</a>
</g>
</g>
<!-- Node13&#45;&gt;Node14 -->
<g id="edge21" class="edge">
<title>Node13&#45;&gt;Node14</title>
<path fill="none" stroke="midnightblue" d="M1050.97,-57.11C1050.97,-48.15 1050.97,-38.32 1050.97,-30.58"/>
<polygon fill="midnightblue" stroke="midnightblue" points="1047.47,-57.4 1050.97,-67.4 1054.47,-57.4 1047.47,-57.4"/>
</g>
<!-- Node17&#45;&gt;Node3 -->
<g id="edge27" class="edge">
<title>Node17&#45;&gt;Node3</title>
<path fill="none" stroke="midnightblue" d="M209.35,-463.3C199.29,-455.23 189.43,-444.99 183.97,-433 178.26,-420.46 182.54,-415.7 183.97,-402 199.84,-250.63 150.06,-177.26 254.97,-67 273.12,-47.93 338.17,-33.57 387.36,-25.13"/>
<polygon fill="midnightblue" stroke="midnightblue" points="207.28,-466.12 217.39,-469.29 211.46,-460.51 207.28,-466.12"/>
</g>
<!-- Node18 -->
<g id="node18" class="node">
<title>Node18</title>
<g id="a_node18"><a xlink:href="audio_8cpp.html" target="_top" xlink:title="Plays audio.">
<polygon fill="white" stroke="black" points="193.47,-402.5 193.47,-432.5 310.47,-432.5 310.47,-402.5 193.47,-402.5"/>
<text text-anchor="start" x="201.47" y="-420.5" font-family="Helvetica,sans-Serif" font-size="10.00">BaseStationCode/src</text>
<text text-anchor="middle" x="251.97" y="-409.5" font-family="Helvetica,sans-Serif" font-size="10.00">/src/audio.cpp</text>
</a>
</g>
</g>
<!-- Node17&#45;&gt;Node18 -->
<g id="edge28" class="edge">
<title>Node17&#45;&gt;Node18</title>
<path fill="none" stroke="midnightblue" d="M245.68,-459.4C247.07,-450.37 248.6,-440.41 249.81,-432.58"/>
<polygon fill="midnightblue" stroke="midnightblue" points="242.2,-458.98 244.14,-469.4 249.12,-460.04 242.2,-458.98"/>
</g>
<!-- Node20 -->
<g id="node20" class="node">
<title>Node20</title>
<g id="a_node20"><a xlink:href="conversions_8cpp.html" target="_top" xlink:title="General functions for converting to and from char arrays.">
<polygon fill="white" stroke="black" points="607.47,-402.5 607.47,-432.5 724.47,-432.5 724.47,-402.5 607.47,-402.5"/>
<text text-anchor="start" x="615.47" y="-420.5" font-family="Helvetica,sans-Serif" font-size="10.00">BaseStationCode/src</text>
<text text-anchor="middle" x="665.97" y="-409.5" font-family="Helvetica,sans-Serif" font-size="10.00">/src/conversions.cpp</text>
</a>
</g>
</g>
<!-- Node19&#45;&gt;Node20 -->
<g id="edge30" class="edge">
<title>Node19&#45;&gt;Node20</title>
<path fill="none" stroke="midnightblue" d="M634.47,-461.16C641.47,-451.68 649.42,-440.92 655.58,-432.58"/>
<polygon fill="midnightblue" stroke="midnightblue" points="631.51,-459.27 628.39,-469.4 637.14,-463.43 631.51,-459.27"/>
</g>
<!-- Node19&#45;&gt;Node21 -->
<g id="edge31" class="edge">
<title>Node19&#45;&gt;Node21</title>
<path fill="none" stroke="midnightblue" d="M590.76,-463.17C577.45,-453.23 561.78,-441.51 549.81,-432.58"/>
<polygon fill="midnightblue" stroke="midnightblue" points="588.99,-466.21 599.09,-469.4 593.18,-460.61 588.99,-466.21"/>
</g>
<!-- Node21&#45;&gt;Node8 -->
<g id="edge42" class="edge">
<title>Node21&#45;&gt;Node8</title>
<path fill="none" stroke="midnightblue" d="M588.73,-399.2C615.98,-389.76 644.21,-377.65 651.97,-366 665.96,-345.01 650.55,-315.7 638.78,-298.55"/>
<polygon fill="midnightblue" stroke="midnightblue" points="587.53,-395.92 579.17,-402.43 589.77,-402.55 587.53,-395.92"/>
</g>
<!-- Node22 -->
<g id="node22" class="node">
<title>Node22</title>
<g id="a_node22"><a xlink:href="device__list_8h.html" target="_top" xlink:title="List of all devices and fields known to the system.">
<polygon fill="white" stroke="black" points="260.47,-268.5 260.47,-298.5 377.47,-298.5 377.47,-268.5 260.47,-268.5"/>
<text text-anchor="start" x="268.47" y="-286.5" font-family="Helvetica,sans-Serif" font-size="10.00">BaseStationCode/src</text>
<text text-anchor="middle" x="318.97" y="-275.5" font-family="Helvetica,sans-Serif" font-size="10.00">/device_list.h</text>
</a>
</g>
</g>
<!-- Node21&#45;&gt;Node22 -->
<g id="edge32" class="edge">
<title>Node21&#45;&gt;Node22</title>
<path fill="none" stroke="midnightblue" d="M462.72,-402.41C435.87,-394.65 405.83,-383.03 381.97,-366 356.64,-347.93 336.64,-316.77 326.43,-298.67"/>
<polygon fill="midnightblue" stroke="midnightblue" points="461.88,-405.81 472.45,-405.1 463.74,-399.06 461.88,-405.81"/>
</g>
<!-- Node21&#45;&gt;Node23 -->
<g id="edge34" class="edge">
<title>Node21&#45;&gt;Node23</title>
<path fill="none" stroke="midnightblue" d="M505.32,-396.17C492.78,-386.23 478.01,-374.51 466.73,-365.58"/>
<polygon fill="midnightblue" stroke="midnightblue" points="503.17,-398.93 513.18,-402.4 507.52,-393.44 503.17,-398.93"/>
</g>
<!-- Node25 -->
<g id="node25" class="node">
<title>Node25</title>
<g id="a_node25"><a xlink:href="fields_8cpp.html" target="_top" xlink:title="Contains fields classes.">
<polygon fill="white" stroke="black" points="525.47,-335.5 525.47,-365.5 642.47,-365.5 642.47,-335.5 525.47,-335.5"/>
<text text-anchor="start" x="533.47" y="-353.5" font-family="Helvetica,sans-Serif" font-size="10.00">BaseStationCode/src</text>
<text text-anchor="middle" x="583.97" y="-342.5" font-family="Helvetica,sans-Serif" font-size="10.00">/src/fields.cpp</text>
</a>
</g>
</g>
<!-- Node21&#45;&gt;Node25 -->
<g id="edge41" class="edge">
<title>Node21&#45;&gt;Node25</title>
<path fill="none" stroke="midnightblue" d="M548.95,-394.45C556.74,-384.9 565.62,-374 572.49,-365.58"/>
<polygon fill="midnightblue" stroke="midnightblue" points="546.08,-392.43 542.47,-402.4 551.5,-396.86 546.08,-392.43"/>
</g>
<!-- Node22&#45;&gt;Node3 -->
<g id="edge33" class="edge">
<title>Node22&#45;&gt;Node3</title>
<path fill="none" stroke="midnightblue" d="M303.49,-259.79C276.77,-217.52 228.93,-125.74 272.97,-67 286.91,-48.41 342.89,-34.4 387.45,-25.9"/>
<polygon fill="midnightblue" stroke="midnightblue" points="300.61,-261.78 308.98,-268.26 306.48,-257.97 300.61,-261.78"/>
</g>
<!-- Node23&#45;&gt;Node6 -->
<g id="edge37" class="edge">
<title>Node23&#45;&gt;Node6</title>
<path fill="none" stroke="midnightblue" d="M517.47,-335.04C608.75,-319.15 641.82,-341.48 718.97,-299 811.56,-248.03 884.01,-137.14 907.7,-97.74"/>
<polygon fill="midnightblue" stroke="midnightblue" points="516.75,-331.62 507.55,-336.88 518.02,-338.5 516.75,-331.62"/>
</g>
<!-- Node23&#45;&gt;Node8 -->
<g id="edge40" class="edge">
<title>Node23&#45;&gt;Node8</title>
<path fill="none" stroke="midnightblue" d="M497.29,-331.96C526.12,-321.48 562.25,-308.37 589.21,-298.58"/>
<polygon fill="midnightblue" stroke="midnightblue" points="496.02,-328.69 487.81,-335.4 498.41,-335.27 496.02,-328.69"/>
</g>
<!-- Node23&#45;&gt;Node9 -->
<g id="edge38" class="edge">
<title>Node23&#45;&gt;Node9</title>
<path fill="none" stroke="midnightblue" d="M491.23,-330.08C503.38,-322.25 515.18,-311.96 521.97,-299 528.37,-286.8 529.94,-279.24 521.97,-268 511.59,-253.36 471.86,-240.07 436.75,-230.8"/>
<polygon fill="midnightblue" stroke="midnightblue" points="489.19,-327.22 482.38,-335.34 492.77,-333.23 489.19,-327.22"/>
</g>
<!-- Node23&#45;&gt;Node11 -->
<g id="edge39" class="edge">
<title>Node23&#45;&gt;Node11</title>
<path fill="none" stroke="midnightblue" d="M517.52,-335.09C599.67,-321.28 640.75,-354.17 695.97,-299 732.63,-262.38 730.63,-194.18 727.77,-164.69"/>
<polygon fill="midnightblue" stroke="midnightblue" points="516.75,-331.68 507.57,-336.96 518.04,-338.55 516.75,-331.68"/>
</g>
<!-- Node23&#45;&gt;Node22 -->
<g id="edge35" class="edge">
<title>Node23&#45;&gt;Node22</title>
<path fill="none" stroke="midnightblue" d="M411.68,-330.85C391.12,-320.58 366.02,-308.03 347.13,-298.58"/>
<polygon fill="midnightblue" stroke="midnightblue" points="410.25,-334.05 420.76,-335.4 413.39,-327.79 410.25,-334.05"/>
</g>
<!-- Node24 -->
<g id="node24" class="node">
<title>Node24</title>
<g id="a_node24"><a xlink:href="devices_8cpp.html" target="_top" xlink:title="Devices and manager for all known devices the base station connects to.">
<polygon fill="white" stroke="black" points="395.47,-268.5 395.47,-298.5 512.47,-298.5 512.47,-268.5 395.47,-268.5"/>
<text text-anchor="start" x="403.47" y="-286.5" font-family="Helvetica,sans-Serif" font-size="10.00">BaseStationCode/src</text>
<text text-anchor="middle" x="453.97" y="-275.5" font-family="Helvetica,sans-Serif" font-size="10.00">/src/devices.cpp</text>
</a>
</g>
</g>
<!-- Node23&#45;&gt;Node24 -->
<g id="edge36" class="edge">
<title>Node23&#45;&gt;Node24</title>
<path fill="none" stroke="midnightblue" d="M450.83,-325.4C451.52,-316.37 452.29,-306.41 452.89,-298.58"/>
<polygon fill="midnightblue" stroke="midnightblue" points="447.33,-325.16 450.06,-335.4 454.31,-325.69 447.33,-325.16"/>
</g>
<!-- Node26&#45;&gt;Node9 -->
<g id="edge49" class="edge">
<title>Node26&#45;&gt;Node9</title>
<path fill="none" stroke="midnightblue" d="M361.18,-460.95C328.19,-413.76 254.78,-308.16 251.97,-299 247.93,-285.83 244.25,-279.41 251.97,-268 267.16,-245.55 294.13,-233.08 319.23,-226.15"/>
<polygon fill="midnightblue" stroke="midnightblue" points="358.42,-463.12 367.02,-469.31 364.16,-459.11 358.42,-463.12"/>
</g>
<!-- Node26&#45;&gt;Node21 -->
<g id="edge48" class="edge">
<title>Node26&#45;&gt;Node21</title>
<path fill="none" stroke="midnightblue" d="M419.84,-465.41C444.43,-455.03 474.83,-442.2 497.62,-432.58"/>
<polygon fill="midnightblue" stroke="midnightblue" points="418.24,-462.28 410.39,-469.4 420.96,-468.73 418.24,-462.28"/>
</g>
<!-- Node26&#45;&gt;Node23 -->
<g id="edge47" class="edge">
<title>Node26&#45;&gt;Node23</title>
<path fill="none" stroke="midnightblue" d="M389.53,-460.48C404.48,-433.07 428.96,-388.19 441.32,-365.52"/>
<polygon fill="midnightblue" stroke="midnightblue" points="386.39,-458.92 384.68,-469.37 392.54,-462.27 386.39,-458.92"/>
</g>
<!-- Node27&#45;&gt;Node3 -->
<g id="edge55" class="edge">
<title>Node27&#45;&gt;Node3</title>
<path fill="none" stroke="midnightblue" d="M118.06,-125.81C131,-106.99 151.94,-81.1 176.97,-67 242.7,-29.98 330.35,-19.45 387.46,-16.8"/>
<polygon fill="midnightblue" stroke="midnightblue" points="114.98,-124.14 112.37,-134.4 120.81,-128 114.98,-124.14"/>
</g>
<!-- Node27&#45;&gt;Node15 -->
<g id="edge56" class="edge">
<title>Node27&#45;&gt;Node15</title>
<path fill="none" stroke="midnightblue" d="M164.92,-131.71C203.32,-121.14 252.34,-107.63 288.74,-97.61"/>
<polygon fill="midnightblue" stroke="midnightblue" points="163.6,-128.45 154.89,-134.48 165.46,-135.19 163.6,-128.45"/>
</g>
</g>
</svg>
        <g id="navigator" transform="translate(0 0)" fill="#404254">
                <rect fill="#f2f5e9" fill-opacity="0.5" stroke="#606060" stroke-width=".5" x="0" y="0" width="60" height="60"/>
                <use id="zoomplus" xlink:href="#zoomPlus" x="17" y="9" onmousedown="handleZoom(evt,'in')"/>
                <use id="zoomminus" xlink:href="#zoomMin" x="42" y="9" onmousedown="handleZoom(evt,'out')"/>
                <use id="reset" xlink:href="#resetDef" x="30" y="36" onmousedown="handleReset()"/>
                <g id="arrowUp" xlink:href="#dirArrow" transform="translate(30 24)" onmousedown="handlePan(0,-1)">
                  <use xlink:href="#rim" fill="#404040">
                        <set attributeName="fill" to="#808080" begin="arrowUp.mouseover" end="arrowUp.mouseout"/>
                  </use>
                  <path fill="none" stroke="white" stroke-width="1.5" d="M0,-3.0v7 M-2.5,-0.5L0,-3.0L2.5,-0.5"/>
                </g>
                <g id="arrowRight" xlink:href="#dirArrow" transform="rotate(90) translate(36 -43)" onmousedown="handlePan(1,0)">
                  <use xlink:href="#rim" fill="#404040">
                        <set attributeName="fill" to="#808080" begin="arrowRight.mouseover" end="arrowRight.mouseout"/>
                  </use>
                  <path fill="none" stroke="white" stroke-width="1.5" d="M0,-3.0v7 M-2.5,-0.5L0,-3.0L2.5,-0.5"/>
                </g>
                <g id="arrowDown" xlink:href="#dirArrow" transform="rotate(180) translate(-30 -48)" onmousedown="handlePan(0,1)">
                  <use xlink:href="#rim" fill="#404040">
                        <set attributeName="fill" to="#808080" begin="arrowDown.mouseover" end="arrowDown.mouseout"/>
                  </use>
                  <path fill="none" stroke="white" stroke-width="1.5" d="M0,-3.0v7 M-2.5,-0.5L0,-3.0L2.5,-0.5"/>
                </g>
                <g id="arrowLeft" xlink:href="#dirArrow" transform="rotate(270) translate(-36 17)" onmousedown="handlePan(-1,0)">
                  <use xlink:href="#rim" fill="#404040">
                        <set attributeName="fill" to="#808080" begin="arrowLeft.mouseover" end="arrowLeft.mouseout"/>
                  </use>
                  <path fill="none" stroke="white" stroke-width="1.5" d="M0,-3.0v7 M-2.5,-0.5L0,-3.0L2.5,-0.5"/>
                </g>
        </g>
        <svg viewBox="0 0 15 15" width="100%" height="30px" preserveAspectRatio="xMaxYMin meet">
         <g id="arrow_out" transform="scale(0.3 0.3)">
          <a xlink:href="topics_8h__dep__incl_org.svg" target="_base">
           <rect id="button" ry="5" rx="5" y="6" x="6" height="38" width="38"
                fill="#f2f5e9" fill-opacity="0.5" stroke="#606060" stroke-width="1.0"/>
           <path id="arrow"
             d="M 11.500037,31.436501 C 11.940474,20.09759 22.043105,11.32322 32.158766,21.979434 L 37.068811,17.246167 C 37.068811,17.246167 37.088388,32 37.088388,32 L 22.160133,31.978069 C 22.160133,31.978069 26.997745,27.140456 26.997745,27.140456 C 18.528582,18.264221 13.291696,25.230495 11.500037,31.436501 z"
             style="fill:#404040;"/>
          </a>
         </g>
        </svg>
</svg>
