<?xml version="1.0" encoding="UTF-8" standalone="no"?>
<!DOCTYPE svg PUBLIC "-//W3C//DTD SVG 1.1//EN"
 "http://www.w3.org/Graphics/SVG/1.1/DTD/svg11.dtd">
<!-- Generated by graphviz version 2.43.0 (0)
 -->
<!-- Title: BaseStationCode/src/src/topics.h Pages: 1 -->
<svg width="1223pt" height="642pt"
 viewBox="0.00 0.00 1222.50 642.00" xmlns="http://www.w3.org/2000/svg" xmlns:xlink="http://www.w3.org/1999/xlink">
<g id="graph0" class="graph" transform="scale(1 1) rotate(0) translate(4 638)">
<title>BaseStationCode/src/src/topics.h</title>
<polygon fill="white" stroke="transparent" points="-4,4 -4,-638 1218.5,-638 1218.5,4 -4,4"/>
<!-- Node1 -->
<g id="node1" class="node">
<title>Node1</title>
<g id="a_node1"><a xlink:title="MQTT topics for a thingsboard gateway.">
<polygon fill="#bfbfbf" stroke="black" points="239.5,-603.5 239.5,-633.5 356.5,-633.5 356.5,-603.5 239.5,-603.5"/>
<text text-anchor="start" x="247.5" y="-621.5" font-family="Helvetica,sans-Serif" font-size="10.00">BaseStationCode/src</text>
<text text-anchor="middle" x="298" y="-610.5" font-family="Helvetica,sans-Serif" font-size="10.00">/src/topics.h</text>
</a>
</g>
</g>
<!-- Node2 -->
<g id="node2" class="node">
<title>Node2</title>
<g id="a_node2"><a xlink:href="defines_8h.html" target="_top" xlink:title="Definitions and other preprocessor and global stuff.">
<polygon fill="white" stroke="black" points="542.5,-536.5 542.5,-566.5 659.5,-566.5 659.5,-536.5 542.5,-536.5"/>
<text text-anchor="start" x="550.5" y="-554.5" font-family="Helvetica,sans-Serif" font-size="10.00">BaseStationCode/src</text>
<text text-anchor="middle" x="601" y="-543.5" font-family="Helvetica,sans-Serif" font-size="10.00">/defines.h</text>
</a>
</g>
</g>
<!-- Node1&#45;&gt;Node2 -->
<g id="edge1" class="edge">
<title>Node1&#45;&gt;Node2</title>
<path fill="none" stroke="midnightblue" d="M366.77,-602.75C419.73,-591.39 492.15,-575.85 542.38,-565.07"/>
<polygon fill="midnightblue" stroke="midnightblue" points="365.82,-599.37 356.78,-604.89 367.29,-606.21 365.82,-599.37"/>
</g>
<!-- Node8 -->
<g id="node8" class="node">
<title>Node8</title>
<g id="a_node8"><a xlink:href="rpc_8h.html" target="_top" xlink:title="Handles RPC calls.">
<polygon fill="white" stroke="black" points="316.5,-268.5 316.5,-298.5 433.5,-298.5 433.5,-268.5 316.5,-268.5"/>
<text text-anchor="start" x="324.5" y="-286.5" font-family="Helvetica,sans-Serif" font-size="10.00">BaseStationCode/src</text>
<text text-anchor="middle" x="375" y="-275.5" font-family="Helvetica,sans-Serif" font-size="10.00">/src/rpc.h</text>
</a>
</g>
</g>
<!-- Node1&#45;&gt;Node8 -->
<g id="edge53" class="edge">
<title>Node1&#45;&gt;Node8</title>
<path fill="none" stroke="midnightblue" d="M229.29,-616.09C141.29,-610.21 0,-585.24 0,-485.5 0,-485.5 0,-485.5 0,-416.5 0,-350.24 210.94,-309.12 316.41,-292.7"/>
<polygon fill="midnightblue" stroke="midnightblue" points="229.29,-619.59 239.48,-616.7 229.71,-612.61 229.29,-619.59"/>
</g>
<!-- Node3 -->
<g id="node3" class="node">
<title>Node3</title>
<g id="a_node3"><a xlink:href="main_8cpp.html" target="_top" xlink:title=" ">
<polygon fill="white" stroke="black" points="726.5,-0.5 726.5,-30.5 843.5,-30.5 843.5,-0.5 726.5,-0.5"/>
<text text-anchor="start" x="734.5" y="-18.5" font-family="Helvetica,sans-Serif" font-size="10.00">BaseStationCode/src</text>
<text text-anchor="middle" x="785" y="-7.5" font-family="Helvetica,sans-Serif" font-size="10.00">/main.cpp</text>
</a>
</g>
</g>
<!-- Node2&#45;&gt;Node3 -->
<g id="edge2" class="edge">
<title>Node2&#45;&gt;Node3</title>
<path fill="none" stroke="midnightblue" d="M669.71,-548.75C771.37,-545.04 955.86,-533.76 1012,-500 1049.88,-477.22 1069,-462.7 1069,-418.5 1069,-418.5 1069,-418.5 1069,-148.5 1069,-49.95 926.64,-24.78 843.5,-18.48"/>
<polygon fill="midnightblue" stroke="midnightblue" points="669.41,-545.25 659.54,-549.1 669.66,-552.25 669.41,-545.25"/>
</g>
<!-- Node4 -->
<g id="node4" class="node">
<title>Node4</title>
<g id="a_node4"><a xlink:href="alarm_8h.html" target="_top" xlink:title="Handles alarms.">
<polygon fill="white" stroke="black" points="147.5,-335.5 147.5,-365.5 264.5,-365.5 264.5,-335.5 147.5,-335.5"/>
<text text-anchor="start" x="155.5" y="-353.5" font-family="Helvetica,sans-Serif" font-size="10.00">BaseStationCode/src</text>
<text text-anchor="middle" x="206" y="-342.5" font-family="Helvetica,sans-Serif" font-size="10.00">/src/alarm.h</text>
</a>
</g>
</g>
<!-- Node2&#45;&gt;Node4 -->
<g id="edge3" class="edge">
<title>Node2&#45;&gt;Node4</title>
<path fill="none" stroke="midnightblue" d="M532.16,-547.06C449.82,-541.71 318.15,-528.83 279,-500 233.2,-466.27 214.58,-395.88 208.49,-365.72"/>
<polygon fill="midnightblue" stroke="midnightblue" points="532,-550.56 542.2,-547.69 532.44,-543.57 532,-550.56"/>
</g>
<!-- Node6 -->
<g id="node6" class="node">
<title>Node6</title>
<g id="a_node6"><a xlink:href="leds_8h.html" target="_top" xlink:title="Controls the LEDs on the unit.">
<polygon fill="white" stroke="black" points="141.5,-67.5 141.5,-97.5 258.5,-97.5 258.5,-67.5 141.5,-67.5"/>
<text text-anchor="start" x="149.5" y="-85.5" font-family="Helvetica,sans-Serif" font-size="10.00">BaseStationCode/src</text>
<text text-anchor="middle" x="200" y="-74.5" font-family="Helvetica,sans-Serif" font-size="10.00">/src/leds.h</text>
</a>
</g>
</g>
<!-- Node2&#45;&gt;Node6 -->
<g id="edge44" class="edge">
<title>Node2&#45;&gt;Node6</title>
<path fill="none" stroke="midnightblue" d="M532.31,-548.74C382.15,-543.02 38,-518.97 38,-418.5 38,-418.5 38,-418.5 38,-215.5 38,-154.19 108.6,-116.3 156.59,-97.63"/>
<polygon fill="midnightblue" stroke="midnightblue" points="532.22,-552.24 542.34,-549.1 532.48,-545.24 532.22,-552.24"/>
</g>
<!-- Node2&#45;&gt;Node8 -->
<g id="edge52" class="edge">
<title>Node2&#45;&gt;Node8</title>
<path fill="none" stroke="midnightblue" d="M532.51,-538.73C476.02,-524.72 400.95,-494.89 374,-433 354.13,-387.38 364.79,-326.14 371.24,-298.77"/>
<polygon fill="midnightblue" stroke="midnightblue" points="531.93,-542.19 542.47,-541.09 533.55,-535.38 531.93,-542.19"/>
</g>
<!-- Node9 -->
<g id="node9" class="node">
<title>Node9</title>
<g id="a_node9"><a xlink:href="lora_8h.html" target="_top" xlink:title="File that handles the LoRa radio and PJON.">
<polygon fill="white" stroke="black" points="798.5,-201.5 798.5,-231.5 915.5,-231.5 915.5,-201.5 798.5,-201.5"/>
<text text-anchor="start" x="806.5" y="-219.5" font-family="Helvetica,sans-Serif" font-size="10.00">BaseStationCode/src</text>
<text text-anchor="middle" x="857" y="-208.5" font-family="Helvetica,sans-Serif" font-size="10.00">/src/lora.h</text>
</a>
</g>
</g>
<!-- Node2&#45;&gt;Node9 -->
<g id="edge49" class="edge">
<title>Node2&#45;&gt;Node9</title>
<path fill="none" stroke="midnightblue" d="M669.75,-542.99C725.59,-535.41 798.21,-521.69 818,-500 889.25,-421.92 868.78,-277.59 860.02,-231.82"/>
<polygon fill="midnightblue" stroke="midnightblue" points="668.99,-539.56 659.54,-544.33 669.91,-546.5 668.99,-539.56"/>
</g>
<!-- Node11 -->
<g id="node11" class="node">
<title>Node11</title>
<g id="a_node11"><a xlink:href="networking_8h.html" target="_top" xlink:title="Header file for networking.cpp.">
<polygon fill="white" stroke="black" points="711.5,-134.5 711.5,-164.5 828.5,-164.5 828.5,-134.5 711.5,-134.5"/>
<text text-anchor="start" x="719.5" y="-152.5" font-family="Helvetica,sans-Serif" font-size="10.00">BaseStationCode/src</text>
<text text-anchor="middle" x="770" y="-141.5" font-family="Helvetica,sans-Serif" font-size="10.00">/src/networking.h</text>
</a>
</g>
</g>
<!-- Node2&#45;&gt;Node11 -->
<g id="edge50" class="edge">
<title>Node2&#45;&gt;Node11</title>
<path fill="none" stroke="midnightblue" d="M532.13,-548.15C488.68,-543.42 433.67,-531.06 395,-500 309.03,-430.93 253.78,-364.59 307,-268 333.89,-219.19 360.69,-220.22 413,-201 513.47,-164.09 639.01,-153.95 711.29,-151.3"/>
<polygon fill="midnightblue" stroke="midnightblue" points="532.04,-551.66 542.34,-549.15 532.73,-544.7 532.04,-551.66"/>
</g>
<!-- Node13 -->
<g id="node13" class="node">
<title>Node13</title>
<g id="a_node13"><a xlink:href="ota_8h.html" target="_top" xlink:title="Handles over the air (OTA) updates.">
<polygon fill="white" stroke="black" points="1097.5,-67.5 1097.5,-97.5 1214.5,-97.5 1214.5,-67.5 1097.5,-67.5"/>
<text text-anchor="start" x="1105.5" y="-85.5" font-family="Helvetica,sans-Serif" font-size="10.00">BaseStationCode/src</text>
<text text-anchor="middle" x="1156" y="-74.5" font-family="Helvetica,sans-Serif" font-size="10.00">/src/ota.h</text>
</a>
</g>
</g>
<!-- Node2&#45;&gt;Node13 -->
<g id="edge51" class="edge">
<title>Node2&#45;&gt;Node13</title>
<path fill="none" stroke="midnightblue" d="M669.82,-547.49C795.44,-541.38 1051.91,-525.89 1083,-500 1112.02,-475.84 1107,-456.26 1107,-418.5 1107,-418.5 1107,-418.5 1107,-215.5 1107,-170.03 1132.87,-120.95 1147.01,-97.51"/>
<polygon fill="midnightblue" stroke="midnightblue" points="669.36,-544.01 659.54,-547.98 669.7,-551 669.36,-544.01"/>
</g>
<!-- Node16 -->
<g id="node16" class="node">
<title>Node16</title>
<g id="a_node16"><a xlink:href="audio_8h.html" target="_top" xlink:title="Plays audio.">
<polygon fill="white" stroke="black" points="885.5,-469.5 885.5,-499.5 1002.5,-499.5 1002.5,-469.5 885.5,-469.5"/>
<text text-anchor="start" x="893.5" y="-487.5" font-family="Helvetica,sans-Serif" font-size="10.00">BaseStationCode/src</text>
<text text-anchor="middle" x="944" y="-476.5" font-family="Helvetica,sans-Serif" font-size="10.00">/src/audio.h</text>
</a>
</g>
</g>
<!-- Node2&#45;&gt;Node16 -->
<g id="edge25" class="edge">
<title>Node2&#45;&gt;Node16</title>
<path fill="none" stroke="midnightblue" d="M669.67,-537.87C724.27,-527.78 802.56,-513.2 871,-500 875.69,-499.09 880.56,-498.15 885.44,-497.19"/>
<polygon fill="midnightblue" stroke="midnightblue" points="668.96,-534.45 659.76,-539.7 670.23,-541.33 668.96,-534.45"/>
</g>
<!-- Node18 -->
<g id="node18" class="node">
<title>Node18</title>
<g id="a_node18"><a xlink:href="conversions_8h.html" target="_top" xlink:title="General functions for converting to and from char arrays.">
<polygon fill="white" stroke="black" points="455.5,-469.5 455.5,-499.5 572.5,-499.5 572.5,-469.5 455.5,-469.5"/>
<text text-anchor="start" x="463.5" y="-487.5" font-family="Helvetica,sans-Serif" font-size="10.00">BaseStationCode/src</text>
<text text-anchor="middle" x="514" y="-476.5" font-family="Helvetica,sans-Serif" font-size="10.00">/src/conversions.h</text>
</a>
</g>
</g>
<!-- Node2&#45;&gt;Node18 -->
<g id="edge28" class="edge">
<title>Node2&#45;&gt;Node18</title>
<path fill="none" stroke="midnightblue" d="M573.79,-530.17C560.48,-520.23 544.8,-508.51 532.84,-499.58"/>
<polygon fill="midnightblue" stroke="midnightblue" points="572.02,-533.21 582.12,-536.4 576.21,-527.61 572.02,-533.21"/>
</g>
<!-- Node20 -->
<g id="node20" class="node">
<title>Node20</title>
<g id="a_node20"><a xlink:href="fields_8h.html" target="_top" xlink:title="Contains fields classes.">
<polygon fill="white" stroke="black" points="518.5,-402.5 518.5,-432.5 635.5,-432.5 635.5,-402.5 518.5,-402.5"/>
<text text-anchor="start" x="526.5" y="-420.5" font-family="Helvetica,sans-Serif" font-size="10.00">BaseStationCode/src</text>
<text text-anchor="middle" x="577" y="-409.5" font-family="Helvetica,sans-Serif" font-size="10.00">/src/fields.h</text>
</a>
</g>
</g>
<!-- Node2&#45;&gt;Node20 -->
<g id="edge43" class="edge">
<title>Node2&#45;&gt;Node20</title>
<path fill="none" stroke="midnightblue" d="M596.62,-526.39C591.62,-498.9 583.62,-454.89 579.55,-432.52"/>
<polygon fill="midnightblue" stroke="midnightblue" points="593.2,-527.16 598.43,-536.37 600.09,-525.91 593.2,-527.16"/>
</g>
<!-- Node22 -->
<g id="node22" class="node">
<title>Node22</title>
<g id="a_node22"><a xlink:href="devices_8h.html" target="_top" xlink:title="Devices and manager for all known devices the base station connects to.">
<polygon fill="white" stroke="black" points="605.5,-335.5 605.5,-365.5 722.5,-365.5 722.5,-335.5 605.5,-335.5"/>
<text text-anchor="start" x="613.5" y="-353.5" font-family="Helvetica,sans-Serif" font-size="10.00">BaseStationCode/src</text>
<text text-anchor="middle" x="664" y="-342.5" font-family="Helvetica,sans-Serif" font-size="10.00">/src/devices.h</text>
</a>
</g>
</g>
<!-- Node2&#45;&gt;Node22 -->
<g id="edge42" class="edge">
<title>Node2&#45;&gt;Node22</title>
<path fill="none" stroke="midnightblue" d="M610.59,-526.7C619.87,-503.15 633.96,-465.94 644,-433 651.09,-409.73 657.44,-382.13 661,-365.76"/>
<polygon fill="midnightblue" stroke="midnightblue" points="607.25,-525.62 606.81,-536.2 613.76,-528.2 607.25,-525.62"/>
</g>
<!-- Node25 -->
<g id="node25" class="node">
<title>Node25</title>
<g id="a_node25"><a xlink:href="lookups_8h.html" target="_top" xlink:title="Lookupable and lookupable manager base classes.">
<polygon fill="white" stroke="black" points="692.5,-469.5 692.5,-499.5 809.5,-499.5 809.5,-469.5 692.5,-469.5"/>
<text text-anchor="start" x="700.5" y="-487.5" font-family="Helvetica,sans-Serif" font-size="10.00">BaseStationCode/src</text>
<text text-anchor="middle" x="751" y="-476.5" font-family="Helvetica,sans-Serif" font-size="10.00">/src/lookups.h</text>
</a>
</g>
</g>
<!-- Node2&#45;&gt;Node25 -->
<g id="edge45" class="edge">
<title>Node2&#45;&gt;Node25</title>
<path fill="none" stroke="midnightblue" d="M642.75,-532.41C666.7,-522.03 696.32,-509.2 718.52,-499.58"/>
<polygon fill="midnightblue" stroke="midnightblue" points="641.33,-529.21 633.55,-536.4 644.11,-535.63 641.33,-529.21"/>
</g>
<!-- Node4&#45;&gt;Node3 -->
<g id="edge4" class="edge">
<title>Node4&#45;&gt;Node3</title>
<path fill="none" stroke="midnightblue" d="M211.95,-325.34C220.82,-293.54 240.21,-237.41 274,-201 396.39,-69.13 620.1,-31.34 726.18,-20.65"/>
<polygon fill="midnightblue" stroke="midnightblue" points="208.53,-324.56 209.34,-335.13 215.29,-326.37 208.53,-324.56"/>
</g>
<!-- Node5 -->
<g id="node5" class="node">
<title>Node5</title>
<g id="a_node5"><a xlink:href="alarm_8cpp.html" target="_top" xlink:title="Handles alarms.">
<polygon fill="white" stroke="black" points="66.5,-268.5 66.5,-298.5 183.5,-298.5 183.5,-268.5 66.5,-268.5"/>
<text text-anchor="start" x="74.5" y="-286.5" font-family="Helvetica,sans-Serif" font-size="10.00">BaseStationCode/src</text>
<text text-anchor="middle" x="125" y="-275.5" font-family="Helvetica,sans-Serif" font-size="10.00">/src/alarm.cpp</text>
</a>
</g>
</g>
<!-- Node4&#45;&gt;Node5 -->
<g id="edge5" class="edge">
<title>Node4&#45;&gt;Node5</title>
<path fill="none" stroke="midnightblue" d="M180.31,-328.88C168,-319.01 153.57,-307.43 142.54,-298.58"/>
<polygon fill="midnightblue" stroke="midnightblue" points="178.43,-331.87 188.42,-335.4 182.82,-326.41 178.43,-331.87"/>
</g>
<!-- Node4&#45;&gt;Node6 -->
<g id="edge6" class="edge">
<title>Node4&#45;&gt;Node6</title>
<path fill="none" stroke="midnightblue" d="M205.45,-325.07C204.22,-270.57 201.29,-140.52 200.32,-97.55"/>
<polygon fill="midnightblue" stroke="midnightblue" points="201.95,-325.28 205.68,-335.2 208.95,-325.12 201.95,-325.28"/>
</g>
<!-- Node4&#45;&gt;Node8 -->
<g id="edge9" class="edge">
<title>Node4&#45;&gt;Node8</title>
<path fill="none" stroke="midnightblue" d="M252.33,-331.68C279.43,-321.26 313.17,-308.28 338.4,-298.58"/>
<polygon fill="midnightblue" stroke="midnightblue" points="250.75,-328.54 242.67,-335.4 253.26,-335.07 250.75,-328.54"/>
</g>
<!-- Node6&#45;&gt;Node3 -->
<g id="edge7" class="edge">
<title>Node6&#45;&gt;Node3</title>
<path fill="none" stroke="midnightblue" d="M269.09,-67.6C270.4,-67.39 271.71,-67.19 273,-67 436.46,-42.76 631.05,-27.18 726.42,-20.41"/>
<polygon fill="midnightblue" stroke="midnightblue" points="268.17,-64.2 258.88,-69.29 269.32,-71.11 268.17,-64.2"/>
</g>
<!-- Node7 -->
<g id="node7" class="node">
<title>Node7</title>
<g id="a_node7"><a xlink:href="leds_8cpp.html" target="_top" xlink:title="Controls the LEDs on the unit.">
<polygon fill="white" stroke="black" points="141.5,-0.5 141.5,-30.5 258.5,-30.5 258.5,-0.5 141.5,-0.5"/>
<text text-anchor="start" x="149.5" y="-18.5" font-family="Helvetica,sans-Serif" font-size="10.00">BaseStationCode/src</text>
<text text-anchor="middle" x="200" y="-7.5" font-family="Helvetica,sans-Serif" font-size="10.00">/src/leds.cpp</text>
</a>
</g>
</g>
<!-- Node6&#45;&gt;Node7 -->
<g id="edge8" class="edge">
<title>Node6&#45;&gt;Node7</title>
<path fill="none" stroke="midnightblue" d="M200,-57.11C200,-48.15 200,-38.32 200,-30.58"/>
<polygon fill="midnightblue" stroke="midnightblue" points="196.5,-57.4 200,-67.4 203.5,-57.4 196.5,-57.4"/>
</g>
<!-- Node8&#45;&gt;Node3 -->
<g id="edge10" class="edge">
<title>Node8&#45;&gt;Node3</title>
<path fill="none" stroke="midnightblue" d="M375.34,-258.26C376.46,-241.37 379.79,-218.78 389,-201 408.36,-163.6 421.25,-157.79 456,-134 540.71,-76.01 657.21,-43.34 726.45,-27.86"/>
<polygon fill="midnightblue" stroke="midnightblue" points="371.83,-258.28 374.88,-268.42 378.83,-258.59 371.83,-258.28"/>
</g>
<!-- Node8&#45;&gt;Node9 -->
<g id="edge11" class="edge">
<title>Node8&#45;&gt;Node9</title>
<path fill="none" stroke="midnightblue" d="M443.65,-267.81C575.57,-245.92 719.69,-230.57 798.34,-222.92"/>
<polygon fill="midnightblue" stroke="midnightblue" points="443.05,-264.36 433.77,-269.46 444.21,-271.26 443.05,-264.36"/>
</g>
<!-- Node12 -->
<g id="node12" class="node">
<title>Node12</title>
<g id="a_node12"><a xlink:href="networking_8cpp.html" target="_top" xlink:title="File that handles connecting to WiFi and MQTT and staying connected.">
<polygon fill="white" stroke="black" points="639.5,-67.5 639.5,-97.5 756.5,-97.5 756.5,-67.5 639.5,-67.5"/>
<text text-anchor="start" x="647.5" y="-85.5" font-family="Helvetica,sans-Serif" font-size="10.00">BaseStationCode/src</text>
<text text-anchor="middle" x="698" y="-74.5" font-family="Helvetica,sans-Serif" font-size="10.00">/src/networking.cpp</text>
</a>
</g>
</g>
<!-- Node8&#45;&gt;Node12 -->
<g id="edge23" class="edge">
<title>Node8&#45;&gt;Node12</title>
<path fill="none" stroke="midnightblue" d="M381.05,-258.5C386.67,-240.58 396.68,-216.6 413,-201 476.74,-140.08 576.48,-108.91 639.48,-94.42"/>
<polygon fill="midnightblue" stroke="midnightblue" points="377.65,-257.66 378.24,-268.24 384.38,-259.6 377.65,-257.66"/>
</g>
<!-- Node15 -->
<g id="node15" class="node">
<title>Node15</title>
<g id="a_node15"><a xlink:href="rpc_8cpp.html" target="_top" xlink:title="Handles RPC calls.">
<polygon fill="white" stroke="black" points="465.5,-201.5 465.5,-231.5 582.5,-231.5 582.5,-201.5 465.5,-201.5"/>
<text text-anchor="start" x="473.5" y="-219.5" font-family="Helvetica,sans-Serif" font-size="10.00">BaseStationCode/src</text>
<text text-anchor="middle" x="524" y="-208.5" font-family="Helvetica,sans-Serif" font-size="10.00">/src/rpc.cpp</text>
</a>
</g>
</g>
<!-- Node8&#45;&gt;Node15 -->
<g id="edge24" class="edge">
<title>Node8&#45;&gt;Node15</title>
<path fill="none" stroke="midnightblue" d="M416.79,-264.27C440.52,-253.92 469.78,-241.15 491.73,-231.58"/>
<polygon fill="midnightblue" stroke="midnightblue" points="415.1,-261.19 407.33,-268.4 417.9,-267.61 415.1,-261.19"/>
</g>
<!-- Node9&#45;&gt;Node3 -->
<g id="edge12" class="edge">
<title>Node9&#45;&gt;Node3</title>
<path fill="none" stroke="midnightblue" d="M852.29,-191.58C848.78,-175.17 843.48,-153 837,-134 823.9,-95.57 803.14,-52.4 792.24,-30.65"/>
<polygon fill="midnightblue" stroke="midnightblue" points="848.88,-192.36 854.34,-201.44 855.73,-190.94 848.88,-192.36"/>
</g>
<!-- Node10 -->
<g id="node10" class="node">
<title>Node10</title>
<g id="a_node10"><a xlink:href="lora_8cpp.html" target="_top" xlink:title="File that handles the LoRa radio and PJON.">
<polygon fill="white" stroke="black" points="885.5,-134.5 885.5,-164.5 1002.5,-164.5 1002.5,-134.5 885.5,-134.5"/>
<text text-anchor="start" x="893.5" y="-152.5" font-family="Helvetica,sans-Serif" font-size="10.00">BaseStationCode/src</text>
<text text-anchor="middle" x="944" y="-141.5" font-family="Helvetica,sans-Serif" font-size="10.00">/src/lora.cpp</text>
</a>
</g>
</g>
<!-- Node9&#45;&gt;Node10 -->
<g id="edge13" class="edge">
<title>Node9&#45;&gt;Node10</title>
<path fill="none" stroke="midnightblue" d="M884.21,-195.17C897.52,-185.23 913.2,-173.51 925.16,-164.58"/>
<polygon fill="midnightblue" stroke="midnightblue" points="881.79,-192.61 875.88,-201.4 885.98,-198.21 881.79,-192.61"/>
</g>
<!-- Node9&#45;&gt;Node11 -->
<g id="edge14" class="edge">
<title>Node9&#45;&gt;Node11</title>
<path fill="none" stroke="midnightblue" d="M823.88,-195.45C809.72,-185.45 794.06,-173.6 783.17,-164.58"/>
<polygon fill="midnightblue" stroke="midnightblue" points="822.23,-198.57 832.44,-201.4 826.22,-192.82 822.23,-198.57"/>
</g>
<!-- Node11&#45;&gt;Node3 -->
<g id="edge15" class="edge">
<title>Node11&#45;&gt;Node3</title>
<path fill="none" stroke="midnightblue" d="M772.74,-124.39C775.86,-96.9 780.86,-52.89 783.41,-30.52"/>
<polygon fill="midnightblue" stroke="midnightblue" points="769.26,-124.04 771.61,-134.37 776.21,-124.83 769.26,-124.04"/>
</g>
<!-- Node11&#45;&gt;Node6 -->
<g id="edge16" class="edge">
<title>Node11&#45;&gt;Node6</title>
<path fill="none" stroke="midnightblue" d="M700.91,-134.6C699.6,-134.39 698.29,-134.19 697,-134 539.39,-110.39 351.98,-94.66 258.75,-87.66"/>
<polygon fill="midnightblue" stroke="midnightblue" points="700.68,-138.11 711.12,-136.31 701.83,-131.21 700.68,-138.11"/>
</g>
<!-- Node11&#45;&gt;Node8 -->
<g id="edge22" class="edge">
<title>Node11&#45;&gt;Node8</title>
<path fill="none" stroke="midnightblue" d="M700.79,-156.6C621.64,-164.45 497.61,-179.66 456,-201 424.76,-217.02 398.19,-249.54 384.63,-268.29"/>
<polygon fill="midnightblue" stroke="midnightblue" points="701.56,-160.04 711.17,-155.59 700.88,-153.07 701.56,-160.04"/>
</g>
<!-- Node11&#45;&gt;Node9 -->
<g id="edge17" class="edge">
<title>Node11&#45;&gt;Node9</title>
<path fill="none" stroke="midnightblue" d="M803.08,-170.52C817.24,-180.51 832.9,-192.37 843.8,-201.4"/>
<polygon fill="midnightblue" stroke="midnightblue" points="804.73,-167.4 794.52,-164.58 800.74,-173.15 804.73,-167.4"/>
</g>
<!-- Node11&#45;&gt;Node12 -->
<g id="edge18" class="edge">
<title>Node11&#45;&gt;Node12</title>
<path fill="none" stroke="midnightblue" d="M746.85,-127.6C735.98,-117.78 723.3,-106.34 713.59,-97.58"/>
<polygon fill="midnightblue" stroke="midnightblue" points="744.61,-130.29 754.38,-134.4 749.3,-125.1 744.61,-130.29"/>
</g>
<!-- Node11&#45;&gt;Node13 -->
<g id="edge19" class="edge">
<title>Node11&#45;&gt;Node13</title>
<path fill="none" stroke="midnightblue" d="M838.73,-136.93C912.37,-124.53 1028,-105.05 1097.46,-93.36"/>
<polygon fill="midnightblue" stroke="midnightblue" points="837.91,-133.52 828.63,-138.63 839.07,-140.42 837.91,-133.52"/>
</g>
<!-- Node13&#45;&gt;Node3 -->
<g id="edge20" class="edge">
<title>Node13&#45;&gt;Node3</title>
<path fill="none" stroke="midnightblue" d="M1087.45,-67.83C1085.95,-67.55 1084.47,-67.27 1083,-67 1000.04,-51.73 903.77,-35.73 843.61,-25.93"/>
<polygon fill="midnightblue" stroke="midnightblue" points="1086.98,-71.3 1097.46,-69.72 1088.28,-64.42 1086.98,-71.3"/>
</g>
<!-- Node14 -->
<g id="node14" class="node">
<title>Node14</title>
<g id="a_node14"><a xlink:href="ota_8cpp.html" target="_top" xlink:title="Handles over the air (OTA) updates.">
<polygon fill="white" stroke="black" points="1097.5,-0.5 1097.5,-30.5 1214.5,-30.5 1214.5,-0.5 1097.5,-0.5"/>
<text text-anchor="start" x="1105.5" y="-18.5" font-family="Helvetica,sans-Serif" font-size="10.00">BaseStationCode/src</text>
<text text-anchor="middle" x="1156" y="-7.5" font-family="Helvetica,sans-Serif" font-size="10.00">/src/ota.cpp</text>
</a>
</g>
</g>
<!-- Node13&#45;&gt;Node14 -->
<g id="edge21" class="edge">
<title>Node13&#45;&gt;Node14</title>
<path fill="none" stroke="midnightblue" d="M1156,-57.11C1156,-48.15 1156,-38.32 1156,-30.58"/>
<polygon fill="midnightblue" stroke="midnightblue" points="1152.5,-57.4 1156,-67.4 1159.5,-57.4 1152.5,-57.4"/>
</g>
<!-- Node16&#45;&gt;Node3 -->
<g id="edge26" class="edge">
<title>Node16&#45;&gt;Node3</title>
<path fill="none" stroke="midnightblue" d="M979.79,-463.94C991.65,-455.81 1003.89,-445.37 1012,-433 1032.4,-401.9 1031,-388.69 1031,-351.5 1031,-351.5 1031,-351.5 1031,-148.5 1031,-63.8 916.37,-33.23 843.61,-22.35"/>
<polygon fill="midnightblue" stroke="midnightblue" points="977.77,-461.07 971.28,-469.44 981.57,-466.95 977.77,-461.07"/>
</g>
<!-- Node17 -->
<g id="node17" class="node">
<title>Node17</title>
<g id="a_node17"><a xlink:href="audio_8cpp.html" target="_top" xlink:title="Plays audio.">
<polygon fill="white" stroke="black" points="885.5,-402.5 885.5,-432.5 1002.5,-432.5 1002.5,-402.5 885.5,-402.5"/>
<text text-anchor="start" x="893.5" y="-420.5" font-family="Helvetica,sans-Serif" font-size="10.00">BaseStationCode/src</text>
<text text-anchor="middle" x="944" y="-409.5" font-family="Helvetica,sans-Serif" font-size="10.00">/src/audio.cpp</text>
</a>
</g>
</g>
<!-- Node16&#45;&gt;Node17 -->
<g id="edge27" class="edge">
<title>Node16&#45;&gt;Node17</title>
<path fill="none" stroke="midnightblue" d="M944,-459.11C944,-450.15 944,-440.32 944,-432.58"/>
<polygon fill="midnightblue" stroke="midnightblue" points="940.5,-459.4 944,-469.4 947.5,-459.4 940.5,-459.4"/>
</g>
<!-- Node19 -->
<g id="node19" class="node">
<title>Node19</title>
<g id="a_node19"><a xlink:href="conversions_8cpp.html" target="_top" xlink:title="General functions for converting to and from char arrays.">
<polygon fill="white" stroke="black" points="383.5,-402.5 383.5,-432.5 500.5,-432.5 500.5,-402.5 383.5,-402.5"/>
<text text-anchor="start" x="391.5" y="-420.5" font-family="Helvetica,sans-Serif" font-size="10.00">BaseStationCode/src</text>
<text text-anchor="middle" x="442" y="-409.5" font-family="Helvetica,sans-Serif" font-size="10.00">/src/conversions.cpp</text>
</a>
</g>
</g>
<!-- Node18&#45;&gt;Node19 -->
<g id="edge29" class="edge">
<title>Node18&#45;&gt;Node19</title>
<path fill="none" stroke="midnightblue" d="M490.85,-462.6C479.98,-452.78 467.3,-441.34 457.59,-432.58"/>
<polygon fill="midnightblue" stroke="midnightblue" points="488.61,-465.29 498.38,-469.4 493.3,-460.1 488.61,-465.29"/>
</g>
<!-- Node18&#45;&gt;Node20 -->
<g id="edge30" class="edge">
<title>Node18&#45;&gt;Node20</title>
<path fill="none" stroke="midnightblue" d="M534.81,-462.02C544.2,-452.34 555.02,-441.17 563.36,-432.58"/>
<polygon fill="midnightblue" stroke="midnightblue" points="532.12,-459.78 527.67,-469.4 537.14,-464.65 532.12,-459.78"/>
</g>
<!-- Node20&#45;&gt;Node8 -->
<g id="edge41" class="edge">
<title>Node20&#45;&gt;Node8</title>
<path fill="none" stroke="midnightblue" d="M565.47,-393.03C555.46,-374.88 539.38,-350.32 519,-335 503.81,-323.58 460.4,-309.09 425.18,-298.57"/>
<polygon fill="midnightblue" stroke="midnightblue" points="562.63,-395.15 570.39,-402.36 568.82,-391.88 562.63,-395.15"/>
</g>
<!-- Node21 -->
<g id="node21" class="node">
<title>Node21</title>
<g id="a_node21"><a xlink:href="device__list_8h.html" target="_top" xlink:title="List of all devices and fields known to the system.">
<polygon fill="white" stroke="black" points="451.5,-268.5 451.5,-298.5 568.5,-298.5 568.5,-268.5 451.5,-268.5"/>
<text text-anchor="start" x="459.5" y="-286.5" font-family="Helvetica,sans-Serif" font-size="10.00">BaseStationCode/src</text>
<text text-anchor="middle" x="510" y="-275.5" font-family="Helvetica,sans-Serif" font-size="10.00">/device_list.h</text>
</a>
</g>
</g>
<!-- Node20&#45;&gt;Node21 -->
<g id="edge31" class="edge">
<title>Node20&#45;&gt;Node21</title>
<path fill="none" stroke="midnightblue" d="M572.63,-392.16C568.96,-375.39 562.73,-352.99 553,-335 545.66,-321.43 534.22,-308.23 524.99,-298.73"/>
<polygon fill="midnightblue" stroke="midnightblue" points="569.26,-393.15 574.68,-402.26 576.12,-391.76 569.26,-393.15"/>
</g>
<!-- Node20&#45;&gt;Node22 -->
<g id="edge33" class="edge">
<title>Node20&#45;&gt;Node22</title>
<path fill="none" stroke="midnightblue" d="M604.21,-396.17C617.52,-386.23 633.2,-374.51 645.16,-365.58"/>
<polygon fill="midnightblue" stroke="midnightblue" points="601.79,-393.61 595.88,-402.4 605.98,-399.21 601.79,-393.61"/>
</g>
<!-- Node24 -->
<g id="node24" class="node">
<title>Node24</title>
<g id="a_node24"><a xlink:href="fields_8cpp.html" target="_top" xlink:title="Contains fields classes.">
<polygon fill="white" stroke="black" points="393.5,-335.5 393.5,-365.5 510.5,-365.5 510.5,-335.5 393.5,-335.5"/>
<text text-anchor="start" x="401.5" y="-353.5" font-family="Helvetica,sans-Serif" font-size="10.00">BaseStationCode/src</text>
<text text-anchor="middle" x="452" y="-342.5" font-family="Helvetica,sans-Serif" font-size="10.00">/src/fields.cpp</text>
</a>
</g>
</g>
<!-- Node20&#45;&gt;Node24 -->
<g id="edge40" class="edge">
<title>Node20&#45;&gt;Node24</title>
<path fill="none" stroke="midnightblue" d="M540.87,-397.71C521.16,-387.46 497.16,-374.98 479.07,-365.58"/>
<polygon fill="midnightblue" stroke="midnightblue" points="539.39,-400.89 549.88,-402.4 542.62,-394.68 539.39,-400.89"/>
</g>
<!-- Node21&#45;&gt;Node3 -->
<g id="edge32" class="edge">
<title>Node21&#45;&gt;Node3</title>
<path fill="none" stroke="midnightblue" d="M553.82,-263.52C567.55,-255.6 581.57,-245.14 591,-232 634.95,-170.79 578.97,-122.44 630,-67 654.63,-40.24 693.59,-27.62 726.28,-21.69"/>
<polygon fill="midnightblue" stroke="midnightblue" points="552.01,-260.52 544.88,-268.35 555.34,-266.67 552.01,-260.52"/>
</g>
<!-- Node22&#45;&gt;Node6 -->
<g id="edge36" class="edge">
<title>Node22&#45;&gt;Node6</title>
<path fill="none" stroke="midnightblue" d="M690.13,-328.33C707.13,-311.88 724.07,-288.49 712,-268 618.81,-109.88 372.26,-85.49 258.73,-82.93"/>
<polygon fill="midnightblue" stroke="midnightblue" points="687.45,-326.04 682.42,-335.36 692.17,-331.21 687.45,-326.04"/>
</g>
<!-- Node22&#45;&gt;Node8 -->
<g id="edge39" class="edge">
<title>Node22&#45;&gt;Node8</title>
<path fill="none" stroke="midnightblue" d="M595.24,-334.04C546.04,-322.97 480.51,-308.23 433.75,-297.71"/>
<polygon fill="midnightblue" stroke="midnightblue" points="594.64,-337.49 605.17,-336.27 596.18,-330.66 594.64,-337.49"/>
</g>
<!-- Node22&#45;&gt;Node9 -->
<g id="edge37" class="edge">
<title>Node22&#45;&gt;Node9</title>
<path fill="none" stroke="midnightblue" d="M719.87,-331.88C741.05,-323.73 764.69,-312.77 784,-299 810.76,-279.92 834.69,-249.41 847.39,-231.63"/>
<polygon fill="midnightblue" stroke="midnightblue" points="718.49,-328.66 710.34,-335.43 720.93,-335.22 718.49,-328.66"/>
</g>
<!-- Node22&#45;&gt;Node11 -->
<g id="edge38" class="edge">
<title>Node22&#45;&gt;Node11</title>
<path fill="none" stroke="midnightblue" d="M709.61,-330.61C723.32,-322.77 737.08,-312.34 746,-299 774.31,-256.67 773.42,-192.67 771.38,-164.57"/>
<polygon fill="midnightblue" stroke="midnightblue" points="707.83,-327.59 700.65,-335.38 711.12,-333.77 707.83,-327.59"/>
</g>
<!-- Node22&#45;&gt;Node21 -->
<g id="edge34" class="edge">
<title>Node22&#45;&gt;Node21</title>
<path fill="none" stroke="midnightblue" d="M621.13,-331.41C596.55,-321.03 566.14,-308.2 543.35,-298.58"/>
<polygon fill="midnightblue" stroke="midnightblue" points="620.01,-334.73 630.58,-335.4 622.73,-328.28 620.01,-334.73"/>
</g>
<!-- Node23 -->
<g id="node23" class="node">
<title>Node23</title>
<g id="a_node23"><a xlink:href="devices_8cpp.html" target="_top" xlink:title="Devices and manager for all known devices the base station connects to.">
<polygon fill="white" stroke="black" points="586.5,-268.5 586.5,-298.5 703.5,-298.5 703.5,-268.5 586.5,-268.5"/>
<text text-anchor="start" x="594.5" y="-286.5" font-family="Helvetica,sans-Serif" font-size="10.00">BaseStationCode/src</text>
<text text-anchor="middle" x="645" y="-275.5" font-family="Helvetica,sans-Serif" font-size="10.00">/src/devices.cpp</text>
</a>
</g>
</g>
<!-- Node22&#45;&gt;Node23 -->
<g id="edge35" class="edge">
<title>Node22&#45;&gt;Node23</title>
<path fill="none" stroke="midnightblue" d="M657.04,-325.7C654.38,-316.59 651.43,-306.49 649.11,-298.58"/>
<polygon fill="midnightblue" stroke="midnightblue" points="653.71,-326.78 659.88,-335.4 660.43,-324.82 653.71,-326.78"/>
</g>
<!-- Node25&#45;&gt;Node9 -->
<g id="edge48" class="edge">
<title>Node25&#45;&gt;Node9</title>
<path fill="none" stroke="midnightblue" d="M760.47,-459.74C782.02,-405.66 834.21,-274.7 851.4,-231.55"/>
<polygon fill="midnightblue" stroke="midnightblue" points="757.15,-458.61 756.7,-469.2 763.65,-461.2 757.15,-458.61"/>
</g>
<!-- Node25&#45;&gt;Node20 -->
<g id="edge47" class="edge">
<title>Node25&#45;&gt;Node20</title>
<path fill="none" stroke="midnightblue" d="M703.67,-465.82C675.7,-455.37 640.77,-442.32 614.68,-432.58"/>
<polygon fill="midnightblue" stroke="midnightblue" points="702.65,-469.18 713.24,-469.4 705.1,-462.62 702.65,-469.18"/>
</g>
<!-- Node25&#45;&gt;Node22 -->
<g id="edge46" class="edge">
<title>Node25&#45;&gt;Node22</title>
<path fill="none" stroke="midnightblue" d="M736.06,-460.83C718.02,-433.47 688.24,-388.28 673.24,-365.52"/>
<polygon fill="midnightblue" stroke="midnightblue" points="733.26,-462.95 741.69,-469.37 739.11,-459.1 733.26,-462.95"/>
</g>
</g>
</svg>
