<?xml version="1.0" encoding="UTF-8" standalone="no"?>
<!DOCTYPE svg PUBLIC "-//W3C//DTD SVG 1.1//EN"
 "http://www.w3.org/Graphics/SVG/1.1/DTD/svg11.dtd">
<!-- Generated by graphviz version 2.43.0 (0)
 -->
<!-- Title: ESP32BaseStation/src/topics.h Pages: 1 -->
<!--zoomable 564 -->
<svg id="main" version="1.1" xmlns="http://www.w3.org/2000/svg" xmlns:xlink="http://www.w3.org/1999/xlink" xml:space="preserve" onload="init(evt)">
<style type="text/css"><![CDATA[
.edge:hover path { stroke: red; }
.edge:hover polygon { stroke: red; fill: red; }
]]></style>
<script type="text/javascript"><![CDATA[
var edges = document.getElementsByTagName('g');
if (edges && edges.length) {
  for (var i=0;i<edges.length;i++) {
    if (edges[i].id.substr(0,4)=='edge') {
      edges[i].setAttribute('class','edge');
    }
  }
}
]]></script>
        <defs>
                <circle id="rim" cx="0" cy="0" r="7"/>
                <circle id="rim2" cx="0" cy="0" r="3.5"/>
                <g id="zoomPlus">
                        <use xlink:href="#rim" fill="#404040">
                                <set attributeName="fill" to="#808080" begin="zoomplus.mouseover" end="zoomplus.mouseout"/>
                        </use>
                        <path d="M-4,0h8M0,-4v8" fill="none" stroke="white" stroke-width="1.5" pointer-events="none"/>
                </g>
                <g id="zoomMin">
                        <use xlink:href="#rim" fill="#404040">
                                <set attributeName="fill" to="#808080" begin="zoomminus.mouseover" end="zoomminus.mouseout"/>
                        </use>
                        <path d="M-4,0h8" fill="none" stroke="white" stroke-width="1.5" pointer-events="none"/>
                </g>
                <g id="dirArrow">
                        <path fill="none" stroke="white" stroke-width="1.5" d="M0,-3.0v7 M-2.5,-0.5L0,-3.0L2.5,-0.5"/>
                </g>
               <g id="resetDef">
                       <use xlink:href="#rim2" fill="#404040">
                               <set attributeName="fill" to="#808080" begin="reset.mouseover" end="reset.mouseout"/>
                       </use>
               </g>
        </defs>

<script type="text/javascript">
var viewWidth = 1069;
var viewHeight = 564;
var sectionId = 'dynsection-0';
</script>
<script xlink:href="svgpan.js"/>
<svg id="graph" class="graph">
<g id="viewport">
<title>ESP32BaseStation/src/topics.h</title>
<polygon fill="white" stroke="transparent" points="-4,4 -4,-560 1065,-560 1065,4 -4,4"/>
<!-- Node1 -->
<g id="node1" class="node">
<title>Node1</title>
<g id="a_node1"><a xlink:title="MQTT topics for a thingsboard gateway.">
<polygon fill="#bfbfbf" stroke="black" points="362,-525.5 362,-555.5 484,-555.5 484,-525.5 362,-525.5"/>
<text text-anchor="start" x="370" y="-543.5" font-family="Helvetica,sans-Serif" font-size="10.00">ESP32BaseStation/src</text>
<text text-anchor="middle" x="423" y="-532.5" font-family="Helvetica,sans-Serif" font-size="10.00">/topics.h</text>
</a>
</g>
</g>
<!-- Node2 -->
<g id="node2" class="node">
<title>Node2</title>
<g id="a_node2"><a xlink:href="defines_8h.html" target="_top" xlink:title="Definitions and other preprocessor and global stuff.">
<polygon fill="white" stroke="black" points="442,-469.5 442,-488.5 594,-488.5 594,-469.5 442,-469.5"/>
<text text-anchor="middle" x="518" y="-476.5" font-family="Helvetica,sans-Serif" font-size="10.00">ESP32BaseStation/defines.h</text>
</a>
</g>
</g>
<!-- Node1&#45;&gt;Node2 -->
<g id="edge1" class="edge">
<title>Node1&#45;&gt;Node2</title>
<path fill="none" stroke="midnightblue" d="M454.02,-520.07C470.96,-509.46 491.08,-496.86 504.18,-488.66"/>
<polygon fill="midnightblue" stroke="midnightblue" points="452.13,-517.13 445.51,-525.4 455.85,-523.06 452.13,-517.13"/>
</g>
<!-- Node8 -->
<g id="node8" class="node">
<title>Node8</title>
<g id="a_node8"><a xlink:href="rpc_8h.html" target="_top" xlink:title="Handles RPC calls.">
<polygon fill="white" stroke="black" points="394,-201.5 394,-231.5 516,-231.5 516,-201.5 394,-201.5"/>
<text text-anchor="start" x="402" y="-219.5" font-family="Helvetica,sans-Serif" font-size="10.00">ESP32BaseStation/src</text>
<text text-anchor="middle" x="455" y="-208.5" font-family="Helvetica,sans-Serif" font-size="10.00">/rpc.h</text>
</a>
</g>
</g>
<!-- Node1&#45;&gt;Node8 -->
<g id="edge43" class="edge">
<title>Node1&#45;&gt;Node8</title>
<path fill="none" stroke="midnightblue" d="M392.68,-519.04C364.88,-497.59 328,-461.1 328,-418.5 328,-418.5 328,-418.5 328,-349.5 328,-293.37 388.37,-251.89 425.86,-231.54"/>
<polygon fill="midnightblue" stroke="midnightblue" points="390.85,-522.05 400.97,-525.21 395.03,-516.43 390.85,-522.05"/>
</g>
<!-- Node3 -->
<g id="node3" class="node">
<title>Node3</title>
<g id="a_node3"><a xlink:href="_e_s_p32_base_station_8ino.html" target="_top" xlink:title="Main file for a base station to connect to remote sensors on a farm.">
<polygon fill="white" stroke="black" points="323,-0.5 323,-30.5 485,-30.5 485,-0.5 323,-0.5"/>
<text text-anchor="start" x="331" y="-18.5" font-family="Helvetica,sans-Serif" font-size="10.00">ESP32BaseStation/ESP32Base</text>
<text text-anchor="middle" x="404" y="-7.5" font-family="Helvetica,sans-Serif" font-size="10.00">Station.ino</text>
</a>
</g>
</g>
<!-- Node2&#45;&gt;Node3 -->
<g id="edge2" class="edge">
<title>Node2&#45;&gt;Node3</title>
<path fill="none" stroke="midnightblue" d="M481.37,-465.83C436.4,-448.3 366,-411.31 366,-351.5 366,-351.5 366,-351.5 366,-148.5 366,-104.14 386.06,-54.56 397.03,-30.76"/>
<polygon fill="midnightblue" stroke="midnightblue" points="480.23,-469.14 490.83,-469.38 482.69,-462.59 480.23,-469.14"/>
</g>
<!-- Node4 -->
<g id="node4" class="node">
<title>Node4</title>
<g id="a_node4"><a xlink:href="alarm_8h.html" target="_top" xlink:title="Handles alarms.">
<polygon fill="white" stroke="black" points="140,-268.5 140,-298.5 262,-298.5 262,-268.5 140,-268.5"/>
<text text-anchor="start" x="148" y="-286.5" font-family="Helvetica,sans-Serif" font-size="10.00">ESP32BaseStation/src</text>
<text text-anchor="middle" x="201" y="-275.5" font-family="Helvetica,sans-Serif" font-size="10.00">/alarm.h</text>
</a>
</g>
</g>
<!-- Node2&#45;&gt;Node4 -->
<g id="edge3" class="edge">
<title>Node2&#45;&gt;Node4</title>
<path fill="none" stroke="midnightblue" d="M431.84,-470.08C372.59,-463.14 300.36,-451.27 276,-433 230.25,-398.69 210.4,-328.62 203.76,-298.63"/>
<polygon fill="midnightblue" stroke="midnightblue" points="431.65,-473.58 441.99,-471.24 432.45,-466.63 431.65,-473.58"/>
</g>
<!-- Node6 -->
<g id="node6" class="node">
<title>Node6</title>
<g id="a_node6"><a xlink:href="audio_8h.html" target="_top" xlink:title="Plays audio.">
<polygon fill="white" stroke="black" points="197,-201.5 197,-231.5 319,-231.5 319,-201.5 197,-201.5"/>
<text text-anchor="start" x="205" y="-219.5" font-family="Helvetica,sans-Serif" font-size="10.00">ESP32BaseStation/src</text>
<text text-anchor="middle" x="258" y="-208.5" font-family="Helvetica,sans-Serif" font-size="10.00">/audio.h</text>
</a>
</g>
</g>
<!-- Node2&#45;&gt;Node6 -->
<g id="edge20" class="edge">
<title>Node2&#45;&gt;Node6</title>
<path fill="none" stroke="midnightblue" d="M432.01,-469.66C403.91,-463.29 374.24,-452.2 352,-433 319.17,-404.66 276.07,-274.88 262.38,-231.6"/>
<polygon fill="midnightblue" stroke="midnightblue" points="431.36,-473.1 441.87,-471.73 432.8,-466.25 431.36,-473.1"/>
</g>
<!-- Node2&#45;&gt;Node8 -->
<g id="edge42" class="edge">
<title>Node2&#45;&gt;Node8</title>
<path fill="none" stroke="midnightblue" d="M488.74,-464.72C474.79,-457.13 458.83,-446.44 448,-433 428.06,-408.25 428.65,-397.28 423,-366 414.05,-316.43 436.27,-258.16 448.13,-231.77"/>
<polygon fill="midnightblue" stroke="midnightblue" points="487.49,-468.01 497.98,-469.47 490.69,-461.78 487.49,-468.01"/>
</g>
<!-- Node9 -->
<g id="node9" class="node">
<title>Node9</title>
<g id="a_node9"><a xlink:href="lora_8h.html" target="_top" xlink:title="File that handles the LoRa radio and PJON.">
<polygon fill="white" stroke="black" points="850,-134.5 850,-164.5 972,-164.5 972,-134.5 850,-134.5"/>
<text text-anchor="start" x="858" y="-152.5" font-family="Helvetica,sans-Serif" font-size="10.00">ESP32BaseStation/src</text>
<text text-anchor="middle" x="911" y="-141.5" font-family="Helvetica,sans-Serif" font-size="10.00">/lora.h</text>
</a>
</g>
</g>
<!-- Node2&#45;&gt;Node9 -->
<g id="edge40" class="edge">
<title>Node2&#45;&gt;Node9</title>
<path fill="none" stroke="midnightblue" d="M604.43,-474.12C696.17,-468.81 834.26,-457.04 881,-433 924.77,-410.48 956,-400.73 956,-351.5 956,-351.5 956,-351.5 956,-282.5 956,-237.47 932.24,-188.19 919.25,-164.61"/>
<polygon fill="midnightblue" stroke="midnightblue" points="604.1,-470.63 594.31,-474.69 604.49,-477.62 604.1,-470.63"/>
</g>
<!-- Node11 -->
<g id="node11" class="node">
<title>Node11</title>
<g id="a_node11"><a xlink:href="networking_8h.html" target="_top" xlink:title="Header file for networking.cpp.">
<polygon fill="white" stroke="black" points="761,-67.5 761,-97.5 883,-97.5 883,-67.5 761,-67.5"/>
<text text-anchor="start" x="769" y="-85.5" font-family="Helvetica,sans-Serif" font-size="10.00">ESP32BaseStation/src</text>
<text text-anchor="middle" x="822" y="-74.5" font-family="Helvetica,sans-Serif" font-size="10.00">/networking.h</text>
</a>
</g>
</g>
<!-- Node2&#45;&gt;Node11 -->
<g id="edge41" class="edge">
<title>Node2&#45;&gt;Node11</title>
<path fill="none" stroke="midnightblue" d="M604.55,-475.15C705.98,-470.64 867.07,-459.46 921,-433 966.29,-410.78 1000,-401.95 1000,-351.5 1000,-351.5 1000,-351.5 1000,-215.5 1000,-178.31 1006.25,-161.31 981,-134 955.93,-106.88 916.39,-94.25 883.02,-88.4"/>
<polygon fill="midnightblue" stroke="midnightblue" points="604.16,-471.66 594.32,-475.59 604.46,-478.66 604.16,-471.66"/>
</g>
<!-- Node14 -->
<g id="node14" class="node">
<title>Node14</title>
<g id="a_node14"><a xlink:href="conversions_8h.html" target="_top" xlink:title="General functions for converting to and from char arrays.">
<polygon fill="white" stroke="black" points="457,-402.5 457,-432.5 579,-432.5 579,-402.5 457,-402.5"/>
<text text-anchor="start" x="465" y="-420.5" font-family="Helvetica,sans-Serif" font-size="10.00">ESP32BaseStation/src</text>
<text text-anchor="middle" x="518" y="-409.5" font-family="Helvetica,sans-Serif" font-size="10.00">/conversions.h</text>
</a>
</g>
</g>
<!-- Node2&#45;&gt;Node14 -->
<g id="edge21" class="edge">
<title>Node2&#45;&gt;Node14</title>
<path fill="none" stroke="midnightblue" d="M518,-459.23C518,-450.59 518,-440.5 518,-432.52"/>
<polygon fill="midnightblue" stroke="midnightblue" points="514.5,-459.48 518,-469.48 521.5,-459.48 514.5,-459.48"/>
</g>
<!-- Node16 -->
<g id="node16" class="node">
<title>Node16</title>
<g id="a_node16"><a xlink:href="fields_8h.html" target="_top" xlink:title="Contains fields classes.">
<polygon fill="white" stroke="black" points="572,-335.5 572,-365.5 694,-365.5 694,-335.5 572,-335.5"/>
<text text-anchor="start" x="580" y="-353.5" font-family="Helvetica,sans-Serif" font-size="10.00">ESP32BaseStation/src</text>
<text text-anchor="middle" x="633" y="-342.5" font-family="Helvetica,sans-Serif" font-size="10.00">/fields.h</text>
</a>
</g>
</g>
<!-- Node2&#45;&gt;Node16 -->
<g id="edge35" class="edge">
<title>Node2&#45;&gt;Node16</title>
<path fill="none" stroke="midnightblue" d="M545.61,-464.48C559.53,-456.67 575.97,-445.86 588,-433 606.99,-412.7 620.78,-382.89 627.78,-365.51"/>
<polygon fill="midnightblue" stroke="midnightblue" points="543.61,-461.57 536.45,-469.38 546.92,-467.74 543.61,-461.57"/>
</g>
<!-- Node18 -->
<g id="node18" class="node">
<title>Node18</title>
<g id="a_node18"><a xlink:href="devices_8h.html" target="_top" xlink:title="Devices and manager for all known devices the base station connects to.">
<polygon fill="white" stroke="black" points="712,-268.5 712,-298.5 834,-298.5 834,-268.5 712,-268.5"/>
<text text-anchor="start" x="720" y="-286.5" font-family="Helvetica,sans-Serif" font-size="10.00">ESP32BaseStation/src</text>
<text text-anchor="middle" x="773" y="-275.5" font-family="Helvetica,sans-Serif" font-size="10.00">/devices.h</text>
</a>
</g>
</g>
<!-- Node2&#45;&gt;Node18 -->
<g id="edge34" class="edge">
<title>Node2&#45;&gt;Node18</title>
<path fill="none" stroke="midnightblue" d="M548.38,-465.45C567.43,-457.13 592.22,-445.49 613,-433 655.74,-407.31 666.53,-400.01 703,-366 726.19,-344.37 749.45,-315.53 762.46,-298.59"/>
<polygon fill="midnightblue" stroke="midnightblue" points="546.8,-462.32 538.99,-469.48 549.56,-468.75 546.8,-462.32"/>
</g>
<!-- Node21 -->
<g id="node21" class="node">
<title>Node21</title>
<g id="a_node21"><a xlink:href="lookups_8h.html" target="_top" xlink:title="Lookupable and lookupable manager base classes.">
<polygon fill="white" stroke="black" points="750,-402.5 750,-432.5 872,-432.5 872,-402.5 750,-402.5"/>
<text text-anchor="start" x="758" y="-420.5" font-family="Helvetica,sans-Serif" font-size="10.00">ESP32BaseStation/src</text>
<text text-anchor="middle" x="811" y="-409.5" font-family="Helvetica,sans-Serif" font-size="10.00">/lookups.h</text>
</a>
</g>
</g>
<!-- Node2&#45;&gt;Node21 -->
<g id="edge36" class="edge">
<title>Node2&#45;&gt;Node21</title>
<path fill="none" stroke="midnightblue" d="M570,-467.44C620.38,-457.21 696.75,-441.7 749.98,-430.89"/>
<polygon fill="midnightblue" stroke="midnightblue" points="569.08,-464.05 559.98,-469.48 570.48,-470.91 569.08,-464.05"/>
</g>
<!-- Node4&#45;&gt;Node3 -->
<g id="edge4" class="edge">
<title>Node4&#45;&gt;Node3</title>
<path fill="none" stroke="midnightblue" d="M186.37,-259.53C168.82,-228.75 144.62,-173.44 169,-134 204.79,-76.09 278.73,-45.76 334.16,-30.54"/>
<polygon fill="midnightblue" stroke="midnightblue" points="183.43,-261.43 191.55,-268.25 189.45,-257.86 183.43,-261.43"/>
</g>
<!-- Node5 -->
<g id="node5" class="node">
<title>Node5</title>
<g id="a_node5"><a xlink:href="alarm_8cpp.html" target="_top" xlink:title="Handles alarms.">
<polygon fill="white" stroke="black" points="0,-201.5 0,-231.5 122,-231.5 122,-201.5 0,-201.5"/>
<text text-anchor="start" x="8" y="-219.5" font-family="Helvetica,sans-Serif" font-size="10.00">ESP32BaseStation/src</text>
<text text-anchor="middle" x="61" y="-208.5" font-family="Helvetica,sans-Serif" font-size="10.00">/alarm.cpp</text>
</a>
</g>
</g>
<!-- Node4&#45;&gt;Node5 -->
<g id="edge5" class="edge">
<title>Node4&#45;&gt;Node5</title>
<path fill="none" stroke="midnightblue" d="M161.43,-264.13C139.19,-253.8 111.85,-241.11 91.32,-231.58"/>
<polygon fill="midnightblue" stroke="midnightblue" points="160.08,-267.36 170.62,-268.4 163.03,-261.01 160.08,-267.36"/>
</g>
<!-- Node4&#45;&gt;Node6 -->
<g id="edge6" class="edge">
<title>Node4&#45;&gt;Node6</title>
<path fill="none" stroke="midnightblue" d="M220.09,-260.74C228.52,-251.12 238.19,-240.09 245.66,-231.58"/>
<polygon fill="midnightblue" stroke="midnightblue" points="217.33,-258.57 213.37,-268.4 222.59,-263.18 217.33,-258.57"/>
</g>
<!-- Node4&#45;&gt;Node8 -->
<g id="edge9" class="edge">
<title>Node4&#45;&gt;Node8</title>
<path fill="none" stroke="midnightblue" d="M265.54,-265.98C307.03,-255.37 360.36,-241.72 399.86,-231.61"/>
<polygon fill="midnightblue" stroke="midnightblue" points="264.62,-262.61 255.8,-268.48 266.36,-269.39 264.62,-262.61"/>
</g>
<!-- Node6&#45;&gt;Node3 -->
<g id="edge7" class="edge">
<title>Node6&#45;&gt;Node3</title>
<path fill="none" stroke="midnightblue" d="M282.92,-194.44C291.94,-185.95 301.69,-175.64 309,-165 335.93,-125.8 324.88,-106.07 352,-67 361.62,-53.15 375.41,-39.96 386.38,-30.54"/>
<polygon fill="midnightblue" stroke="midnightblue" points="280.31,-192.08 275.27,-201.4 285.02,-197.26 280.31,-192.08"/>
</g>
<!-- Node7 -->
<g id="node7" class="node">
<title>Node7</title>
<g id="a_node7"><a xlink:href="audio_8cpp.html" target="_top" xlink:title="Plays audio.">
<polygon fill="white" stroke="black" points="178,-134.5 178,-164.5 300,-164.5 300,-134.5 178,-134.5"/>
<text text-anchor="start" x="186" y="-152.5" font-family="Helvetica,sans-Serif" font-size="10.00">ESP32BaseStation/src</text>
<text text-anchor="middle" x="239" y="-141.5" font-family="Helvetica,sans-Serif" font-size="10.00">/audio.cpp</text>
</a>
</g>
</g>
<!-- Node6&#45;&gt;Node7 -->
<g id="edge8" class="edge">
<title>Node6&#45;&gt;Node7</title>
<path fill="none" stroke="midnightblue" d="M251.04,-191.7C248.38,-182.59 245.43,-172.49 243.11,-164.58"/>
<polygon fill="midnightblue" stroke="midnightblue" points="247.71,-192.78 253.88,-201.4 254.43,-190.82 247.71,-192.78"/>
</g>
<!-- Node8&#45;&gt;Node3 -->
<g id="edge10" class="edge">
<title>Node8&#45;&gt;Node3</title>
<path fill="none" stroke="midnightblue" d="M437.73,-192.94C432.16,-184.58 426.52,-174.75 423,-165 406.07,-118.05 403.85,-58 403.8,-30.9"/>
<polygon fill="midnightblue" stroke="midnightblue" points="435.04,-195.2 443.65,-201.37 440.77,-191.17 435.04,-195.2"/>
</g>
<!-- Node8&#45;&gt;Node9 -->
<g id="edge11" class="edge">
<title>Node8&#45;&gt;Node9</title>
<path fill="none" stroke="midnightblue" d="M526.17,-200.88C646.6,-180.84 775.77,-165.37 849.95,-157.07"/>
<polygon fill="midnightblue" stroke="midnightblue" points="525.32,-197.47 516.03,-202.58 526.47,-204.38 525.32,-197.47"/>
</g>
<!-- Node13 -->
<g id="node13" class="node">
<title>Node13</title>
<g id="a_node13"><a xlink:href="rpc_8cpp.html" target="_top" xlink:title="Handles RPC calls.">
<polygon fill="white" stroke="black" points="432,-134.5 432,-164.5 554,-164.5 554,-134.5 432,-134.5"/>
<text text-anchor="start" x="440" y="-152.5" font-family="Helvetica,sans-Serif" font-size="10.00">ESP32BaseStation/src</text>
<text text-anchor="middle" x="493" y="-141.5" font-family="Helvetica,sans-Serif" font-size="10.00">/rpc.cpp</text>
</a>
</g>
</g>
<!-- Node8&#45;&gt;Node13 -->
<g id="edge19" class="edge">
<title>Node8&#45;&gt;Node13</title>
<path fill="none" stroke="midnightblue" d="M468.4,-192.58C473.86,-183.24 479.99,-172.75 484.77,-164.58"/>
<polygon fill="midnightblue" stroke="midnightblue" points="465.27,-191 463.25,-201.4 471.31,-194.53 465.27,-191"/>
</g>
<!-- Node9&#45;&gt;Node3 -->
<g id="edge12" class="edge">
<title>Node9&#45;&gt;Node3</title>
<path fill="none" stroke="midnightblue" d="M912.31,-124.17C911.87,-105.66 907.94,-81.05 892,-67 862.17,-40.71 616.17,-25.9 485.26,-19.81"/>
<polygon fill="midnightblue" stroke="midnightblue" points="908.81,-124.21 912.23,-134.23 915.81,-124.26 908.81,-124.21"/>
</g>
<!-- Node10 -->
<g id="node10" class="node">
<title>Node10</title>
<g id="a_node10"><a xlink:href="lora_8cpp.html" target="_top" xlink:title="File that handles the LoRa radio and PJON.">
<polygon fill="white" stroke="black" points="939,-67.5 939,-97.5 1061,-97.5 1061,-67.5 939,-67.5"/>
<text text-anchor="start" x="947" y="-85.5" font-family="Helvetica,sans-Serif" font-size="10.00">ESP32BaseStation/src</text>
<text text-anchor="middle" x="1000" y="-74.5" font-family="Helvetica,sans-Serif" font-size="10.00">/lora.cpp</text>
</a>
</g>
</g>
<!-- Node9&#45;&gt;Node10 -->
<g id="edge13" class="edge">
<title>Node9&#45;&gt;Node10</title>
<path fill="none" stroke="midnightblue" d="M938.45,-128.45C952.14,-118.45 968.37,-106.6 980.73,-97.58"/>
<polygon fill="midnightblue" stroke="midnightblue" points="936.32,-125.67 930.31,-134.4 940.45,-131.32 936.32,-125.67"/>
</g>
<!-- Node9&#45;&gt;Node11 -->
<g id="edge14" class="edge">
<title>Node9&#45;&gt;Node11</title>
<path fill="none" stroke="midnightblue" d="M877.67,-128.73C863.09,-118.68 846.87,-106.68 835.6,-97.58"/>
<polygon fill="midnightblue" stroke="midnightblue" points="875.77,-131.68 886.01,-134.4 879.7,-125.88 875.77,-131.68"/>
</g>
<!-- Node11&#45;&gt;Node3 -->
<g id="edge15" class="edge">
<title>Node11&#45;&gt;Node3</title>
<path fill="none" stroke="midnightblue" d="M750.66,-70.41C676.99,-58.95 562.22,-41.1 485.14,-29.12"/>
<polygon fill="midnightblue" stroke="midnightblue" points="750.35,-73.9 760.77,-71.98 751.43,-66.98 750.35,-73.9"/>
</g>
<!-- Node11&#45;&gt;Node8 -->
<g id="edge18" class="edge">
<title>Node11&#45;&gt;Node8</title>
<path fill="none" stroke="midnightblue" d="M773.4,-100.98C699.77,-127.46 561.37,-177.24 493.93,-201.5"/>
<polygon fill="midnightblue" stroke="midnightblue" points="774.69,-104.23 782.92,-97.56 772.32,-97.65 774.69,-104.23"/>
</g>
<!-- Node11&#45;&gt;Node9 -->
<g id="edge16" class="edge">
<title>Node11&#45;&gt;Node9</title>
<path fill="none" stroke="midnightblue" d="M855.29,-103.24C869.86,-113.29 886.08,-125.28 897.37,-134.4"/>
<polygon fill="midnightblue" stroke="midnightblue" points="857.19,-100.3 846.95,-97.58 853.26,-106.09 857.19,-100.3"/>
</g>
<!-- Node12 -->
<g id="node12" class="node">
<title>Node12</title>
<g id="a_node12"><a xlink:href="networking_8cpp.html" target="_top" xlink:title="File that handles connecting to WiFi and MQTT and staying connected.">
<polygon fill="white" stroke="black" points="761,-0.5 761,-30.5 883,-30.5 883,-0.5 761,-0.5"/>
<text text-anchor="start" x="769" y="-18.5" font-family="Helvetica,sans-Serif" font-size="10.00">ESP32BaseStation/src</text>
<text text-anchor="middle" x="822" y="-7.5" font-family="Helvetica,sans-Serif" font-size="10.00">/networking.cpp</text>
</a>
</g>
</g>
<!-- Node11&#45;&gt;Node12 -->
<g id="edge17" class="edge">
<title>Node11&#45;&gt;Node12</title>
<path fill="none" stroke="midnightblue" d="M822,-57.11C822,-48.15 822,-38.32 822,-30.58"/>
<polygon fill="midnightblue" stroke="midnightblue" points="818.5,-57.4 822,-67.4 825.5,-57.4 818.5,-57.4"/>
</g>
<!-- Node15 -->
<g id="node15" class="node">
<title>Node15</title>
<g id="a_node15"><a xlink:href="conversions_8cpp.html" target="_top" xlink:title="General functions for converting to and from char arrays.">
<polygon fill="white" stroke="black" points="432,-335.5 432,-365.5 554,-365.5 554,-335.5 432,-335.5"/>
<text text-anchor="start" x="440" y="-353.5" font-family="Helvetica,sans-Serif" font-size="10.00">ESP32BaseStation/src</text>
<text text-anchor="middle" x="493" y="-342.5" font-family="Helvetica,sans-Serif" font-size="10.00">/conversions.cpp</text>
</a>
</g>
</g>
<!-- Node14&#45;&gt;Node15 -->
<g id="edge22" class="edge">
<title>Node14&#45;&gt;Node15</title>
<path fill="none" stroke="midnightblue" d="M508.96,-392.99C505.42,-383.8 501.49,-373.58 498.41,-365.58"/>
<polygon fill="midnightblue" stroke="midnightblue" points="505.72,-394.32 512.58,-402.4 512.25,-391.81 505.72,-394.32"/>
</g>
<!-- Node14&#45;&gt;Node16 -->
<g id="edge23" class="edge">
<title>Node14&#45;&gt;Node16</title>
<path fill="none" stroke="midnightblue" d="M551.98,-397.3C569.97,-387.12 591.68,-374.85 608.1,-365.58"/>
<polygon fill="midnightblue" stroke="midnightblue" points="549.94,-394.43 542.95,-402.4 553.38,-400.52 549.94,-394.43"/>
</g>
<!-- Node16&#45;&gt;Node8 -->
<g id="edge33" class="edge">
<title>Node16&#45;&gt;Node8</title>
<path fill="none" stroke="midnightblue" d="M601.14,-329.98C586.8,-320.91 569.8,-309.77 555,-299 524.4,-276.73 490.62,-248.34 471.2,-231.62"/>
<polygon fill="midnightblue" stroke="midnightblue" points="599.36,-332.99 609.69,-335.34 603.08,-327.06 599.36,-332.99"/>
</g>
<!-- Node17 -->
<g id="node17" class="node">
<title>Node17</title>
<g id="a_node17"><a xlink:href="device__list_8h.html" target="_top" xlink:title="List of all devices and fields known to the system.">
<polygon fill="white" stroke="black" points="534,-201.5 534,-231.5 674,-231.5 674,-201.5 534,-201.5"/>
<text text-anchor="start" x="542" y="-219.5" font-family="Helvetica,sans-Serif" font-size="10.00">ESP32BaseStation/device</text>
<text text-anchor="middle" x="604" y="-208.5" font-family="Helvetica,sans-Serif" font-size="10.00">_list.h</text>
</a>
</g>
</g>
<!-- Node16&#45;&gt;Node17 -->
<g id="edge24" class="edge">
<title>Node16&#45;&gt;Node17</title>
<path fill="none" stroke="midnightblue" d="M593.03,-330.12C581.17,-322.23 569.59,-311.88 563,-299 550.95,-275.45 572.07,-247.94 588.21,-231.66"/>
<polygon fill="midnightblue" stroke="midnightblue" points="591.31,-333.17 601.66,-335.44 594.98,-327.21 591.31,-333.17"/>
</g>
<!-- Node16&#45;&gt;Node18 -->
<g id="edge26" class="edge">
<title>Node16&#45;&gt;Node18</title>
<path fill="none" stroke="midnightblue" d="M672.57,-331.13C694.81,-320.8 722.15,-308.11 742.68,-298.58"/>
<polygon fill="midnightblue" stroke="midnightblue" points="670.97,-328.01 663.38,-335.4 673.92,-334.36 670.97,-328.01"/>
</g>
<!-- Node20 -->
<g id="node20" class="node">
<title>Node20</title>
<g id="a_node20"><a xlink:href="fields_8cpp.html" target="_top" xlink:title="Contains fields classes.">
<polygon fill="white" stroke="black" points="572,-268.5 572,-298.5 694,-298.5 694,-268.5 572,-268.5"/>
<text text-anchor="start" x="580" y="-286.5" font-family="Helvetica,sans-Serif" font-size="10.00">ESP32BaseStation/src</text>
<text text-anchor="middle" x="633" y="-275.5" font-family="Helvetica,sans-Serif" font-size="10.00">/fields.cpp</text>
</a>
</g>
</g>
<!-- Node16&#45;&gt;Node20 -->
<g id="edge32" class="edge">
<title>Node16&#45;&gt;Node20</title>
<path fill="none" stroke="midnightblue" d="M633,-325.11C633,-316.15 633,-306.32 633,-298.58"/>
<polygon fill="midnightblue" stroke="midnightblue" points="629.5,-325.4 633,-335.4 636.5,-325.4 629.5,-325.4"/>
</g>
<!-- Node17&#45;&gt;Node3 -->
<g id="edge25" class="edge">
<title>Node17&#45;&gt;Node3</title>
<path fill="none" stroke="midnightblue" d="M595.61,-191.98C588.67,-174.7 577.59,-151.31 563,-134 524.29,-88.07 464.21,-50.03 430.06,-30.55"/>
<polygon fill="midnightblue" stroke="midnightblue" points="592.36,-193.28 599.21,-201.36 598.89,-190.77 592.36,-193.28"/>
</g>
<!-- Node18&#45;&gt;Node8 -->
<g id="edge31" class="edge">
<title>Node18&#45;&gt;Node8</title>
<path fill="none" stroke="midnightblue" d="M701.91,-267.78C622.29,-251.51 600.98,-247.55 525,-232 522.08,-231.4 519.1,-230.79 516.08,-230.17"/>
<polygon fill="midnightblue" stroke="midnightblue" points="701.42,-271.26 711.92,-269.83 702.82,-264.4 701.42,-271.26"/>
</g>
<!-- Node18&#45;&gt;Node9 -->
<g id="edge29" class="edge">
<title>Node18&#45;&gt;Node9</title>
<path fill="none" stroke="midnightblue" d="M811.77,-263.52C826.61,-255.12 843.06,-244.34 856,-232 877.24,-211.73 894.77,-181.91 903.98,-164.52"/>
<polygon fill="midnightblue" stroke="midnightblue" points="809.88,-260.56 802.78,-268.43 813.24,-266.7 809.88,-260.56"/>
</g>
<!-- Node18&#45;&gt;Node11 -->
<g id="edge30" class="edge">
<title>Node18&#45;&gt;Node11</title>
<path fill="none" stroke="midnightblue" d="M800.9,-261.75C809.69,-253.57 818.32,-243.38 823,-232 841.93,-185.98 831.75,-124.95 825.59,-97.69"/>
<polygon fill="midnightblue" stroke="midnightblue" points="798.49,-259.21 793.24,-268.41 803.08,-264.5 798.49,-259.21"/>
</g>
<!-- Node18&#45;&gt;Node17 -->
<g id="edge27" class="edge">
<title>Node18&#45;&gt;Node17</title>
<path fill="none" stroke="midnightblue" d="M726.67,-264.68C699.57,-254.26 665.83,-241.28 640.6,-231.58"/>
<polygon fill="midnightblue" stroke="midnightblue" points="725.74,-268.07 736.33,-268.4 728.25,-261.54 725.74,-268.07"/>
</g>
<!-- Node19 -->
<g id="node19" class="node">
<title>Node19</title>
<g id="a_node19"><a xlink:href="devices_8cpp.html" target="_top" xlink:title="Devices and manager for all known devices the base station connects to.">
<polygon fill="white" stroke="black" points="692,-201.5 692,-231.5 814,-231.5 814,-201.5 692,-201.5"/>
<text text-anchor="start" x="700" y="-219.5" font-family="Helvetica,sans-Serif" font-size="10.00">ESP32BaseStation/src</text>
<text text-anchor="middle" x="753" y="-208.5" font-family="Helvetica,sans-Serif" font-size="10.00">/devices.cpp</text>
</a>
</g>
</g>
<!-- Node18&#45;&gt;Node19 -->
<g id="edge28" class="edge">
<title>Node18&#45;&gt;Node19</title>
<path fill="none" stroke="midnightblue" d="M765.68,-258.7C762.87,-249.59 759.77,-239.49 757.33,-231.58"/>
<polygon fill="midnightblue" stroke="midnightblue" points="762.37,-259.87 768.66,-268.4 769.06,-257.81 762.37,-259.87"/>
</g>
<!-- Node21&#45;&gt;Node9 -->
<g id="edge39" class="edge">
<title>Node21&#45;&gt;Node9</title>
<path fill="none" stroke="midnightblue" d="M820.34,-392.81C834.1,-357.77 860.52,-290 882,-232 890.71,-208.48 900.4,-180.96 906.08,-164.67"/>
<polygon fill="midnightblue" stroke="midnightblue" points="817.05,-391.61 816.65,-402.19 823.57,-394.17 817.05,-391.61"/>
</g>
<!-- Node21&#45;&gt;Node16 -->
<g id="edge38" class="edge">
<title>Node21&#45;&gt;Node16</title>
<path fill="none" stroke="midnightblue" d="M762.95,-398.96C734.28,-388.48 698.36,-375.37 671.55,-365.58"/>
<polygon fill="midnightblue" stroke="midnightblue" points="761.78,-402.25 772.38,-402.4 764.18,-395.68 761.78,-402.25"/>
</g>
<!-- Node21&#45;&gt;Node18 -->
<g id="edge37" class="edge">
<title>Node21&#45;&gt;Node18</title>
<path fill="none" stroke="midnightblue" d="M804.16,-392.75C796.26,-365.29 783.5,-320.99 777.04,-298.52"/>
<polygon fill="midnightblue" stroke="midnightblue" points="800.8,-393.73 806.93,-402.37 807.53,-391.8 800.8,-393.73"/>
</g>
</g>
</svg>
        <g id="navigator" transform="translate(0 0)" fill="#404254">
                <rect fill="#f2f5e9" fill-opacity="0.5" stroke="#606060" stroke-width=".5" x="0" y="0" width="60" height="60"/>
                <use id="zoomplus" xlink:href="#zoomPlus" x="17" y="9" onmousedown="handleZoom(evt,'in')"/>
                <use id="zoomminus" xlink:href="#zoomMin" x="42" y="9" onmousedown="handleZoom(evt,'out')"/>
                <use id="reset" xlink:href="#resetDef" x="30" y="36" onmousedown="handleReset()"/>
                <g id="arrowUp" xlink:href="#dirArrow" transform="translate(30 24)" onmousedown="handlePan(0,-1)">
                  <use xlink:href="#rim" fill="#404040">
                        <set attributeName="fill" to="#808080" begin="arrowUp.mouseover" end="arrowUp.mouseout"/>
                  </use>
                  <path fill="none" stroke="white" stroke-width="1.5" d="M0,-3.0v7 M-2.5,-0.5L0,-3.0L2.5,-0.5"/>
                </g>
                <g id="arrowRight" xlink:href="#dirArrow" transform="rotate(90) translate(36 -43)" onmousedown="handlePan(1,0)">
                  <use xlink:href="#rim" fill="#404040">
                        <set attributeName="fill" to="#808080" begin="arrowRight.mouseover" end="arrowRight.mouseout"/>
                  </use>
                  <path fill="none" stroke="white" stroke-width="1.5" d="M0,-3.0v7 M-2.5,-0.5L0,-3.0L2.5,-0.5"/>
                </g>
                <g id="arrowDown" xlink:href="#dirArrow" transform="rotate(180) translate(-30 -48)" onmousedown="handlePan(0,1)">
                  <use xlink:href="#rim" fill="#404040">
                        <set attributeName="fill" to="#808080" begin="arrowDown.mouseover" end="arrowDown.mouseout"/>
                  </use>
                  <path fill="none" stroke="white" stroke-width="1.5" d="M0,-3.0v7 M-2.5,-0.5L0,-3.0L2.5,-0.5"/>
                </g>
                <g id="arrowLeft" xlink:href="#dirArrow" transform="rotate(270) translate(-36 17)" onmousedown="handlePan(-1,0)">
                  <use xlink:href="#rim" fill="#404040">
                        <set attributeName="fill" to="#808080" begin="arrowLeft.mouseover" end="arrowLeft.mouseout"/>
                  </use>
                  <path fill="none" stroke="white" stroke-width="1.5" d="M0,-3.0v7 M-2.5,-0.5L0,-3.0L2.5,-0.5"/>
                </g>
        </g>
        <svg viewBox="0 0 15 15" width="100%" height="30px" preserveAspectRatio="xMaxYMin meet">
         <g id="arrow_out" transform="scale(0.3 0.3)">
          <a xlink:href="topics_8h__dep__incl_org.svg" target="_base">
           <rect id="button" ry="5" rx="5" y="6" x="6" height="38" width="38"
                fill="#f2f5e9" fill-opacity="0.5" stroke="#606060" stroke-width="1.0"/>
           <path id="arrow"
             d="M 11.500037,31.436501 C 11.940474,20.09759 22.043105,11.32322 32.158766,21.979434 L 37.068811,17.246167 C 37.068811,17.246167 37.088388,32 37.088388,32 L 22.160133,31.978069 C 22.160133,31.978069 26.997745,27.140456 26.997745,27.140456 C 18.528582,18.264221 13.291696,25.230495 11.500037,31.436501 z"
             style="fill:#404040;"/>
          </a>
         </g>
        </svg>
</svg>
