<?xml version="1.0" encoding="UTF-8" standalone="no"?>
<!DOCTYPE svg PUBLIC "-//W3C//DTD SVG 1.1//EN"
 "http://www.w3.org/Graphics/SVG/1.1/DTD/svg11.dtd">
<!-- Generated by graphviz version 2.43.0 (0)
 -->
<!-- Title: BaseStationCode/src/src/topics.h Pages: 1 -->
<svg width="1101pt" height="632pt"
 viewBox="0.00 0.00 1100.50 632.00" xmlns="http://www.w3.org/2000/svg" xmlns:xlink="http://www.w3.org/1999/xlink">
<g id="graph0" class="graph" transform="scale(1 1) rotate(0) translate(4 628)">
<title>BaseStationCode/src/src/topics.h</title>
<!-- Node1 -->
<g id="Node000001" class="node">
<title>Node1</title>
<g id="a_Node000001"><a xlink:title="MQTT topics for a thingsboard gateway.">
<polygon fill="#999999" stroke="#666666" points="759.5,-624 642.5,-624 642.5,-594 759.5,-594 759.5,-624"/>
<text text-anchor="start" x="650.5" y="-612" font-family="Helvetica,sans-Serif" font-size="10.00">BaseStationCode/src</text>
<text text-anchor="middle" x="701" y="-601" font-family="Helvetica,sans-Serif" font-size="10.00">/src/topics.h</text>
</a>
</g>
</g>
<!-- Node2 -->
<g id="Node000002" class="node">
<title>Node2</title>
<g id="a_Node000002"><a xlink:href="defines_8h.html" target="_top" xlink:title="Definitions and other preprocessor and global stuff.">
<polygon fill="white" stroke="#666666" points="616.5,-558 499.5,-558 499.5,-528 616.5,-528 616.5,-558"/>
<text text-anchor="start" x="507.5" y="-546" font-family="Helvetica,sans-Serif" font-size="10.00">BaseStationCode/src</text>
<text text-anchor="middle" x="558" y="-535" font-family="Helvetica,sans-Serif" font-size="10.00">/defines.h</text>
</a>
</g>
</g>
<!-- Node1&#45;&gt;Node2 -->
<g id="edge1_Node000001_Node000002" class="edge">
<title>Node1&#45;&gt;Node2</title>
<g id="a_edge1_Node000001_Node000002"><a xlink:title=" ">
<path fill="none" stroke="#63b8ff" d="M660.3,-589.78C637.75,-579.69 610.16,-567.34 589.31,-558.01"/>
<polygon fill="#63b8ff" stroke="#63b8ff" points="659.06,-593.06 669.62,-593.95 661.92,-586.68 659.06,-593.06"/>
</a>
</g>
</g>
<!-- Node8 -->
<g id="Node000008" class="node">
<title>Node8</title>
<g id="a_Node000008"><a xlink:href="rpc_8h.html" target="_top" xlink:title="Handles RPC calls.">
<polygon fill="white" stroke="#666666" points="669.5,-294 552.5,-294 552.5,-264 669.5,-264 669.5,-294"/>
<text text-anchor="start" x="560.5" y="-282" font-family="Helvetica,sans-Serif" font-size="10.00">BaseStationCode/src</text>
<text text-anchor="middle" x="611" y="-271" font-family="Helvetica,sans-Serif" font-size="10.00">/src/rpc.h</text>
</a>
</g>
</g>
<!-- Node1&#45;&gt;Node8 -->
<g id="edge57_Node000001_Node000008" class="edge">
<title>Node1&#45;&gt;Node8</title>
<g id="a_edge57_Node000001_Node000008"><a xlink:title=" ">
<path fill="none" stroke="#63b8ff" d="M727.15,-587.19C757.57,-560.26 801.97,-510.97 788,-462 769.05,-395.59 756.55,-377.06 706,-330 689.36,-314.51 667,-302.42 648.16,-294.02"/>
<polygon fill="#63b8ff" stroke="#63b8ff" points="724.69,-584.69 719.38,-593.86 729.24,-590 724.69,-584.69"/>
</a>
</g>
</g>
<!-- Node3 -->
<g id="Node000003" class="node">
<title>Node3</title>
<g id="a_Node000003"><a xlink:href="main_8cpp.html" target="_top" xlink:title=" ">
<polygon fill="white" stroke="#666666" points="487.5,-30 370.5,-30 370.5,0 487.5,0 487.5,-30"/>
<text text-anchor="start" x="378.5" y="-18" font-family="Helvetica,sans-Serif" font-size="10.00">BaseStationCode/src</text>
<text text-anchor="middle" x="429" y="-7" font-family="Helvetica,sans-Serif" font-size="10.00">/main.cpp</text>
</a>
</g>
</g>
<!-- Node2&#45;&gt;Node3 -->
<g id="edge2_Node000002_Node000003" class="edge">
<title>Node2&#45;&gt;Node3</title>
<g id="a_edge2_Node000002_Node000003"><a xlink:title=" ">
<path fill="none" stroke="#63b8ff" d="M488.97,-539.77C376.62,-535.3 159.75,-522.86 90,-492 41.06,-470.35 0,-465.52 0,-412 0,-412 0,-412 0,-146 0,-69.54 252.76,-33.86 370.25,-21.41"/>
<polygon fill="#63b8ff" stroke="#63b8ff" points="489.05,-543.28 499.18,-540.17 489.32,-536.29 489.05,-543.28"/>
</a>
</g>
</g>
<!-- Node4 -->
<g id="Node000004" class="node">
<title>Node4</title>
<g id="a_Node000004"><a xlink:href="alarm_8h.html" target="_top" xlink:title="Handles alarms.">
<polygon fill="white" stroke="#666666" points="986.5,-360 869.5,-360 869.5,-330 986.5,-330 986.5,-360"/>
<text text-anchor="start" x="877.5" y="-348" font-family="Helvetica,sans-Serif" font-size="10.00">BaseStationCode/src</text>
<text text-anchor="middle" x="928" y="-337" font-family="Helvetica,sans-Serif" font-size="10.00">/src/alarm.h</text>
</a>
</g>
</g>
<!-- Node2&#45;&gt;Node4 -->
<g id="edge3_Node000002_Node000004" class="edge">
<title>Node2&#45;&gt;Node4</title>
<g id="a_edge3_Node000002_Node000004"><a xlink:title=" ">
<path fill="none" stroke="#63b8ff" d="M626.56,-537.66C674.36,-532.2 738.23,-519.85 788,-492 848.37,-458.21 898.73,-389.97 918.74,-360.31"/>
<polygon fill="#63b8ff" stroke="#63b8ff" points="626.19,-534.18 616.62,-538.73 626.93,-541.14 626.19,-534.18"/>
</a>
</g>
</g>
<!-- Node6 -->
<g id="Node000006" class="node">
<title>Node6</title>
<g id="a_Node000006"><a xlink:href="leds_8h.html" target="_top" xlink:title="Controls the LEDs on the unit.">
<polygon fill="white" stroke="#666666" points="957.5,-96 840.5,-96 840.5,-66 957.5,-66 957.5,-96"/>
<text text-anchor="start" x="848.5" y="-84" font-family="Helvetica,sans-Serif" font-size="10.00">BaseStationCode/src</text>
<text text-anchor="middle" x="899" y="-73" font-family="Helvetica,sans-Serif" font-size="10.00">/src/leds.h</text>
</a>
</g>
</g>
<!-- Node2&#45;&gt;Node6 -->
<g id="edge45_Node000002_Node000006" class="edge">
<title>Node2&#45;&gt;Node6</title>
<g id="a_edge45_Node000002_Node000006"><a xlink:title=" ">
<path fill="none" stroke="#63b8ff" d="M627.09,-539.06C732.6,-530.22 928.75,-495.44 996,-360 1042.27,-266.82 996.06,-221.49 943,-132 935.1,-118.67 923.41,-105.6 914.07,-96.16"/>
<polygon fill="#63b8ff" stroke="#63b8ff" points="626.55,-535.59 616.86,-539.86 627.1,-542.57 626.55,-535.59"/>
</a>
</g>
</g>
<!-- Node2&#45;&gt;Node8 -->
<g id="edge53_Node000002_Node000008" class="edge">
<title>Node2&#45;&gt;Node8</title>
<g id="a_edge53_Node000002_Node000008"><a xlink:title=" ">
<path fill="none" stroke="#63b8ff" d="M612.13,-524.21C631.34,-516.26 652.3,-505.57 669,-492 697.14,-469.12 705.78,-460.49 717,-426 735.07,-370.45 670.55,-318.35 634.19,-294.16"/>
<polygon fill="#63b8ff" stroke="#63b8ff" points="610.58,-521.06 602.58,-528 613.16,-527.56 610.58,-521.06"/>
</a>
</g>
</g>
<!-- Node9 -->
<g id="Node000009" class="node">
<title>Node9</title>
<g id="a_Node000009"><a xlink:href="lora_8h.html" target="_top" xlink:title="File that handles the LoRa radio and PJON.">
<polygon fill="white" stroke="#666666" points="419.5,-228 302.5,-228 302.5,-198 419.5,-198 419.5,-228"/>
<text text-anchor="start" x="310.5" y="-216" font-family="Helvetica,sans-Serif" font-size="10.00">BaseStationCode/src</text>
<text text-anchor="middle" x="361" y="-205" font-family="Helvetica,sans-Serif" font-size="10.00">/src/lora.h</text>
</a>
</g>
</g>
<!-- Node2&#45;&gt;Node9 -->
<g id="edge50_Node000002_Node000009" class="edge">
<title>Node2&#45;&gt;Node9</title>
<g id="a_edge50_Node000002_Node000009"><a xlink:title=" ">
<path fill="none" stroke="#63b8ff" d="M488.87,-538.29C379.97,-531.73 178.57,-516.42 157,-492 110.91,-439.81 222.71,-267.08 226,-264 246.98,-244.35 276.35,-232.27 302.35,-224.92"/>
<polygon fill="#63b8ff" stroke="#63b8ff" points="488.92,-541.8 499.11,-538.9 489.33,-534.81 488.92,-541.8"/>
</a>
</g>
</g>
<!-- Node11 -->
<g id="Node000011" class="node">
<title>Node11</title>
<g id="a_Node000011"><a xlink:href="networking_8h.html" target="_top" xlink:title="Header file for networking.cpp.">
<polygon fill="white" stroke="#666666" points="767.5,-162 650.5,-162 650.5,-132 767.5,-132 767.5,-162"/>
<text text-anchor="start" x="658.5" y="-150" font-family="Helvetica,sans-Serif" font-size="10.00">BaseStationCode/src</text>
<text text-anchor="middle" x="709" y="-139" font-family="Helvetica,sans-Serif" font-size="10.00">/src/networking.h</text>
</a>
</g>
</g>
<!-- Node2&#45;&gt;Node11 -->
<g id="edge51_Node000002_Node000011" class="edge">
<title>Node2&#45;&gt;Node11</title>
<g id="a_edge51_Node000002_Node000011"><a xlink:title=" ">
<path fill="none" stroke="#63b8ff" d="M626.69,-530.33C689.93,-515.18 774,-481.9 774,-412 774,-412 774,-412 774,-278 774,-231.57 740.42,-184.73 721.53,-162.05"/>
<polygon fill="#63b8ff" stroke="#63b8ff" points="625.7,-526.96 616.74,-532.61 627.27,-533.79 625.7,-526.96"/>
</a>
</g>
</g>
<!-- Node13 -->
<g id="Node000013" class="node">
<title>Node13</title>
<g id="a_Node000013"><a xlink:href="ota_8h.html" target="_top" xlink:title="Handles over the air (OTA) updates.">
<polygon fill="white" stroke="#666666" points="1092.5,-96 975.5,-96 975.5,-66 1092.5,-66 1092.5,-96"/>
<text text-anchor="start" x="983.5" y="-84" font-family="Helvetica,sans-Serif" font-size="10.00">BaseStationCode/src</text>
<text text-anchor="middle" x="1034" y="-73" font-family="Helvetica,sans-Serif" font-size="10.00">/src/ota.h</text>
</a>
</g>
</g>
<!-- Node2&#45;&gt;Node13 -->
<g id="edge52_Node000002_Node000013" class="edge">
<title>Node2&#45;&gt;Node13</title>
<g id="a_edge52_Node000002_Node000013"><a xlink:title=" ">
<path fill="none" stroke="#63b8ff" d="M626.85,-538.6C764.81,-529.89 1062,-500.82 1062,-412 1062,-412 1062,-412 1062,-212 1062,-169.06 1047.22,-119.89 1039.14,-96.21"/>
<polygon fill="#63b8ff" stroke="#63b8ff" points="626.57,-535.11 616.8,-539.21 627,-542.09 626.57,-535.11"/>
</a>
</g>
</g>
<!-- Node17 -->
<g id="Node000017" class="node">
<title>Node17</title>
<g id="a_Node000017"><a xlink:href="audio_8h.html" target="_top" xlink:title="Plays audio.">
<polygon fill="white" stroke="#666666" points="283.5,-492 166.5,-492 166.5,-462 283.5,-462 283.5,-492"/>
<text text-anchor="start" x="174.5" y="-480" font-family="Helvetica,sans-Serif" font-size="10.00">BaseStationCode/src</text>
<text text-anchor="middle" x="225" y="-469" font-family="Helvetica,sans-Serif" font-size="10.00">/src/audio.h</text>
</a>
</g>
</g>
<!-- Node2&#45;&gt;Node17 -->
<g id="edge26_Node000002_Node000017" class="edge">
<title>Node2&#45;&gt;Node17</title>
<g id="a_edge26_Node000002_Node000017"><a xlink:title=" ">
<path fill="none" stroke="#63b8ff" d="M489.21,-529.34C435.68,-519.42 359.56,-505.13 293,-492 289.93,-491.39 286.77,-490.77 283.59,-490.13"/>
<polygon fill="#63b8ff" stroke="#63b8ff" points="488.8,-532.83 499.27,-531.21 490.07,-525.94 488.8,-532.83"/>
</a>
</g>
</g>
<!-- Node19 -->
<g id="Node000019" class="node">
<title>Node19</title>
<g id="a_Node000019"><a xlink:href="conversions_8h.html" target="_top" xlink:title="General functions for converting to and from char arrays.">
<polygon fill="white" stroke="#666666" points="659.5,-492 542.5,-492 542.5,-462 659.5,-462 659.5,-492"/>
<text text-anchor="start" x="550.5" y="-480" font-family="Helvetica,sans-Serif" font-size="10.00">BaseStationCode/src</text>
<text text-anchor="middle" x="601" y="-469" font-family="Helvetica,sans-Serif" font-size="10.00">/src/conversions.h</text>
</a>
</g>
</g>
<!-- Node2&#45;&gt;Node19 -->
<g id="edge29_Node000002_Node000019" class="edge">
<title>Node2&#45;&gt;Node19</title>
<g id="a_edge29_Node000002_Node000019"><a xlink:title=" ">
<path fill="none" stroke="#63b8ff" d="M573.29,-519.24C579.36,-510.21 586.14,-500.11 591.48,-492.16"/>
<polygon fill="#63b8ff" stroke="#63b8ff" points="570.21,-517.54 567.54,-527.8 576.03,-521.45 570.21,-517.54"/>
</a>
</g>
</g>
<!-- Node21 -->
<g id="Node000021" class="node">
<title>Node21</title>
<g id="a_Node000021"><a xlink:href="fields_8h.html" target="_top" xlink:title="Contains fields classes.">
<polygon fill="white" stroke="#666666" points="572.5,-426 455.5,-426 455.5,-396 572.5,-396 572.5,-426"/>
<text text-anchor="start" x="463.5" y="-414" font-family="Helvetica,sans-Serif" font-size="10.00">BaseStationCode/src</text>
<text text-anchor="middle" x="514" y="-403" font-family="Helvetica,sans-Serif" font-size="10.00">/src/fields.h</text>
</a>
</g>
</g>
<!-- Node2&#45;&gt;Node21 -->
<g id="edge44_Node000002_Node000021" class="edge">
<title>Node2&#45;&gt;Node21</title>
<g id="a_edge44_Node000002_Node000021"><a xlink:title=" ">
<path fill="none" stroke="#63b8ff" d="M545.67,-518.81C541.57,-510.51 537.24,-500.98 534,-492 525.89,-469.51 519.85,-442.32 516.63,-426.13"/>
<polygon fill="#63b8ff" stroke="#63b8ff" points="542.63,-520.56 550.28,-527.89 548.87,-517.39 542.63,-520.56"/>
</a>
</g>
</g>
<!-- Node23 -->
<g id="Node000023" class="node">
<title>Node23</title>
<g id="a_Node000023"><a xlink:href="devices_8h.html" target="_top" xlink:title="Devices and manager for all known devices the base station connects to.">
<polygon fill="white" stroke="#666666" points="490.5,-360 373.5,-360 373.5,-330 490.5,-330 490.5,-360"/>
<text text-anchor="start" x="381.5" y="-348" font-family="Helvetica,sans-Serif" font-size="10.00">BaseStationCode/src</text>
<text text-anchor="middle" x="432" y="-337" font-family="Helvetica,sans-Serif" font-size="10.00">/src/devices.h</text>
</a>
</g>
</g>
<!-- Node2&#45;&gt;Node23 -->
<g id="edge43_Node000002_Node000023" class="edge">
<title>Node2&#45;&gt;Node23</title>
<g id="a_edge43_Node000002_Node000023"><a xlink:title=" ">
<path fill="none" stroke="#63b8ff" d="M530.9,-521.56C505.07,-500.54 467.22,-465.38 447,-426 436.09,-404.76 433.05,-376.7 432.24,-360.08"/>
<polygon fill="#63b8ff" stroke="#63b8ff" points="528.82,-524.39 538.82,-527.88 533.18,-518.91 528.82,-524.39"/>
</a>
</g>
</g>
<!-- Node26 -->
<g id="Node000026" class="node">
<title>Node26</title>
<g id="a_Node000026"><a xlink:href="lookups_8h.html" target="_top" xlink:title="Lookupable and lookupable manager base classes.">
<polygon fill="white" stroke="#666666" points="418.5,-492 301.5,-492 301.5,-462 418.5,-462 418.5,-492"/>
<text text-anchor="start" x="309.5" y="-480" font-family="Helvetica,sans-Serif" font-size="10.00">BaseStationCode/src</text>
<text text-anchor="middle" x="360" y="-469" font-family="Helvetica,sans-Serif" font-size="10.00">/src/lookups.h</text>
</a>
</g>
</g>
<!-- Node2&#45;&gt;Node26 -->
<g id="edge46_Node000002_Node000026" class="edge">
<title>Node2&#45;&gt;Node26</title>
<g id="a_edge46_Node000002_Node000026"><a xlink:title=" ">
<path fill="none" stroke="#63b8ff" d="M504.96,-524.86C473.17,-514.58 433.25,-501.68 403.35,-492.01"/>
<polygon fill="#63b8ff" stroke="#63b8ff" points="503.96,-528.21 514.55,-527.95 506.11,-521.55 503.96,-528.21"/>
</a>
</g>
</g>
<!-- Node27 -->
<g id="Node000027" class="node">
<title>Node27</title>
<g id="a_Node000027"><a xlink:href="timeseries_8h.html" target="_top" xlink:title="Measures the temperature and pressure and sends them every so often as timeseries.">
<polygon fill="white" stroke="#666666" points="145.5,-162 28.5,-162 28.5,-132 145.5,-132 145.5,-162"/>
<text text-anchor="start" x="36.5" y="-150" font-family="Helvetica,sans-Serif" font-size="10.00">BaseStationCode/src</text>
<text text-anchor="middle" x="87" y="-139" font-family="Helvetica,sans-Serif" font-size="10.00">/src/timeseries.h</text>
</a>
</g>
</g>
<!-- Node2&#45;&gt;Node27 -->
<g id="edge54_Node000002_Node000027" class="edge">
<title>Node2&#45;&gt;Node27</title>
<g id="a_edge54_Node000002_Node000027"><a xlink:title=" ">
<path fill="none" stroke="#63b8ff" d="M489.09,-539.58C387.07,-535.02 201.58,-522.68 143,-492 100.89,-469.95 72,-459.54 72,-412 72,-412 72,-412 72,-278 72,-235.74 79.92,-186.26 84.25,-162.37"/>
<polygon fill="#63b8ff" stroke="#63b8ff" points="489.15,-543.09 499.3,-540.02 489.46,-536.09 489.15,-543.09"/>
</a>
</g>
</g>
<!-- Node4&#45;&gt;Node3 -->
<g id="edge4_Node000004_Node000003" class="edge">
<title>Node4&#45;&gt;Node3</title>
<g id="a_edge4_Node000004_Node000003"><a xlink:title=" ">
<path fill="none" stroke="#63b8ff" d="M873.43,-325.42C858.09,-317.83 842.7,-307.56 832,-294 809.3,-265.22 812,-250.65 812,-214 812,-214 812,-214 812,-146 812,-88.74 763.22,-89.49 711,-66 638.45,-33.37 546.43,-21.99 487.62,-18.05"/>
<polygon fill="#63b8ff" stroke="#63b8ff" points="872.38,-328.8 882.93,-329.81 875.31,-322.44 872.38,-328.8"/>
</a>
</g>
</g>
<!-- Node5 -->
<g id="Node000005" class="node">
<title>Node5</title>
<g id="a_Node000005"><a xlink:href="alarm_8cpp.html" target="_top" xlink:title="Handles alarms.">
<polygon fill="white" stroke="#666666" points="957.5,-294 840.5,-294 840.5,-264 957.5,-264 957.5,-294"/>
<text text-anchor="start" x="848.5" y="-282" font-family="Helvetica,sans-Serif" font-size="10.00">BaseStationCode/src</text>
<text text-anchor="middle" x="899" y="-271" font-family="Helvetica,sans-Serif" font-size="10.00">/src/alarm.cpp</text>
</a>
</g>
</g>
<!-- Node4&#45;&gt;Node5 -->
<g id="edge5_Node000004_Node000005" class="edge">
<title>Node4&#45;&gt;Node5</title>
<g id="a_edge5_Node000004_Node000005"><a xlink:title=" ">
<path fill="none" stroke="#63b8ff" d="M917.43,-320.68C913.41,-311.79 908.94,-301.95 905.42,-294.16"/>
<polygon fill="#63b8ff" stroke="#63b8ff" points="914.25,-322.13 921.56,-329.8 920.62,-319.24 914.25,-322.13"/>
</a>
</g>
</g>
<!-- Node4&#45;&gt;Node6 -->
<g id="edge6_Node000004_Node000006" class="edge">
<title>Node4&#45;&gt;Node6</title>
<g id="a_edge6_Node000004_Node000006"><a xlink:title=" ">
<path fill="none" stroke="#63b8ff" d="M950.01,-322.28C956.82,-314.12 963.46,-304.31 967,-294 971.34,-281.39 969.37,-277.12 967,-264 955.18,-198.61 921.29,-126.08 906.29,-96.13"/>
<polygon fill="#63b8ff" stroke="#63b8ff" points="947.31,-320.05 943.26,-329.84 952.53,-324.72 947.31,-320.05"/>
</a>
</g>
</g>
<!-- Node4&#45;&gt;Node8 -->
<g id="edge9_Node000004_Node000008" class="edge">
<title>Node4&#45;&gt;Node8</title>
<g id="a_edge9_Node000004_Node000008"><a xlink:title=" ">
<path fill="none" stroke="#63b8ff" d="M859.55,-330.18C802.96,-318.75 723.44,-302.7 669.71,-291.85"/>
<polygon fill="#63b8ff" stroke="#63b8ff" points="858.99,-333.64 869.49,-332.19 860.38,-326.78 858.99,-333.64"/>
</a>
</g>
</g>
<!-- Node6&#45;&gt;Node3 -->
<g id="edge7_Node000006_Node000003" class="edge">
<title>Node6&#45;&gt;Node3</title>
<g id="a_edge7_Node000006_Node000003"><a xlink:title=" ">
<path fill="none" stroke="#63b8ff" d="M830.46,-66.72C828.96,-66.48 827.47,-66.23 826,-66 706.28,-47 565.31,-30.67 487.69,-22.2"/>
<polygon fill="#63b8ff" stroke="#63b8ff" points="830.04,-70.2 840.49,-68.44 831.22,-63.3 830.04,-70.2"/>
</a>
</g>
</g>
<!-- Node7 -->
<g id="Node000007" class="node">
<title>Node7</title>
<g id="a_Node000007"><a xlink:href="leds_8cpp.html" target="_top" xlink:title="Controls the LEDs on the unit.">
<polygon fill="white" stroke="#666666" points="957.5,-30 840.5,-30 840.5,0 957.5,0 957.5,-30"/>
<text text-anchor="start" x="848.5" y="-18" font-family="Helvetica,sans-Serif" font-size="10.00">BaseStationCode/src</text>
<text text-anchor="middle" x="899" y="-7" font-family="Helvetica,sans-Serif" font-size="10.00">/src/leds.cpp</text>
</a>
</g>
</g>
<!-- Node6&#45;&gt;Node7 -->
<g id="edge8_Node000006_Node000007" class="edge">
<title>Node6&#45;&gt;Node7</title>
<g id="a_edge8_Node000006_Node000007"><a xlink:title=" ">
<path fill="none" stroke="#63b8ff" d="M899,-55.54C899,-46.96 899,-37.61 899,-30.16"/>
<polygon fill="#63b8ff" stroke="#63b8ff" points="895.5,-55.8 899,-65.8 902.5,-55.8 895.5,-55.8"/>
</a>
</g>
</g>
<!-- Node8&#45;&gt;Node3 -->
<g id="edge10_Node000008_Node000003" class="edge">
<title>Node8&#45;&gt;Node3</title>
<g id="a_edge10_Node000008_Node000003"><a xlink:title=" ">
<path fill="none" stroke="#63b8ff" d="M542.55,-269.12C515.63,-262.19 486.74,-249.88 468,-228 442.26,-197.94 432.43,-72.85 429.79,-30.27"/>
<polygon fill="#63b8ff" stroke="#63b8ff" points="541.81,-272.54 552.35,-271.43 543.42,-265.73 541.81,-272.54"/>
</a>
</g>
</g>
<!-- Node8&#45;&gt;Node9 -->
<g id="edge11_Node000008_Node000009" class="edge">
<title>Node8&#45;&gt;Node9</title>
<g id="a_edge11_Node000008_Node000009"><a xlink:title=" ">
<path fill="none" stroke="#63b8ff" d="M546.36,-261.45C505.85,-251.08 454.21,-237.86 415.74,-228.01"/>
<polygon fill="#63b8ff" stroke="#63b8ff" points="545.58,-264.87 556.14,-263.95 547.32,-258.08 545.58,-264.87"/>
</a>
</g>
</g>
<!-- Node12 -->
<g id="Node000012" class="node">
<title>Node12</title>
<g id="a_Node000012"><a xlink:href="networking_8cpp.html" target="_top" xlink:title="File that handles connecting to WiFi and MQTT and staying connected.">
<polygon fill="white" stroke="#666666" points="680.5,-96 563.5,-96 563.5,-66 680.5,-66 680.5,-96"/>
<text text-anchor="start" x="571.5" y="-84" font-family="Helvetica,sans-Serif" font-size="10.00">BaseStationCode/src</text>
<text text-anchor="middle" x="622" y="-73" font-family="Helvetica,sans-Serif" font-size="10.00">/src/networking.cpp</text>
</a>
</g>
</g>
<!-- Node8&#45;&gt;Node12 -->
<g id="edge24_Node000008_Node000012" class="edge">
<title>Node8&#45;&gt;Node12</title>
<g id="a_edge24_Node000008_Node000012"><a xlink:title=" ">
<path fill="none" stroke="#63b8ff" d="M612.35,-253.89C614.67,-212.58 619.34,-129.48 621.2,-96.23"/>
<polygon fill="#63b8ff" stroke="#63b8ff" points="608.86,-253.72 611.79,-263.9 615.85,-254.12 608.86,-253.72"/>
</a>
</g>
</g>
<!-- Node16 -->
<g id="Node000016" class="node">
<title>Node16</title>
<g id="a_Node000016"><a xlink:href="rpc_8cpp.html" target="_top" xlink:title="Handles RPC calls.">
<polygon fill="white" stroke="#666666" points="593.5,-228 476.5,-228 476.5,-198 593.5,-198 593.5,-228"/>
<text text-anchor="start" x="484.5" y="-216" font-family="Helvetica,sans-Serif" font-size="10.00">BaseStationCode/src</text>
<text text-anchor="middle" x="535" y="-205" font-family="Helvetica,sans-Serif" font-size="10.00">/src/rpc.cpp</text>
</a>
</g>
</g>
<!-- Node8&#45;&gt;Node16 -->
<g id="edge25_Node000008_Node000016" class="edge">
<title>Node8&#45;&gt;Node16</title>
<g id="a_edge25_Node000008_Node000016"><a xlink:title=" ">
<path fill="none" stroke="#63b8ff" d="M586.3,-257.2C575.02,-247.7 561.95,-236.69 551.82,-228.16"/>
<polygon fill="#63b8ff" stroke="#63b8ff" points="584.23,-260.03 594.13,-263.8 588.74,-254.68 584.23,-260.03"/>
</a>
</g>
</g>
<!-- Node9&#45;&gt;Node3 -->
<g id="edge12_Node000009_Node000003" class="edge">
<title>Node9&#45;&gt;Node3</title>
<g id="a_edge12_Node000009_Node000003"><a xlink:title=" ">
<path fill="none" stroke="#63b8ff" d="M376.5,-189.29C381.66,-180.98 387.09,-171.32 391,-162 410.47,-115.63 422.11,-56.69 426.71,-30.12"/>
<polygon fill="#63b8ff" stroke="#63b8ff" points="373.55,-187.41 371.08,-197.71 379.44,-191.19 373.55,-187.41"/>
</a>
</g>
</g>
<!-- Node10 -->
<g id="Node000010" class="node">
<title>Node10</title>
<g id="a_Node000010"><a xlink:href="lora_8cpp.html" target="_top" xlink:title="File that handles the LoRa radio and PJON.">
<polygon fill="white" stroke="#666666" points="381.5,-162 264.5,-162 264.5,-132 381.5,-132 381.5,-162"/>
<text text-anchor="start" x="272.5" y="-150" font-family="Helvetica,sans-Serif" font-size="10.00">BaseStationCode/src</text>
<text text-anchor="middle" x="323" y="-139" font-family="Helvetica,sans-Serif" font-size="10.00">/src/lora.cpp</text>
</a>
</g>
</g>
<!-- Node9&#45;&gt;Node10 -->
<g id="edge13_Node000009_Node000010" class="edge">
<title>Node9&#45;&gt;Node10</title>
<g id="a_edge13_Node000009_Node000010"><a xlink:title=" ">
<path fill="none" stroke="#63b8ff" d="M347.32,-188.96C342,-180 336.08,-170.03 331.41,-162.16"/>
<polygon fill="#63b8ff" stroke="#63b8ff" points="344.45,-190.98 352.57,-197.8 350.47,-187.41 344.45,-190.98"/>
</a>
</g>
</g>
<!-- Node9&#45;&gt;Node11 -->
<g id="edge14_Node000009_Node000011" class="edge">
<title>Node9&#45;&gt;Node11</title>
<g id="a_edge14_Node000009_Node000011"><a xlink:title=" ">
<path fill="none" stroke="#63b8ff" d="M429.93,-198.28C494.38,-186.13 589.47,-168.68 650.37,-157.86"/>
<polygon fill="#63b8ff" stroke="#63b8ff" points="429.03,-194.89 419.86,-200.19 430.33,-201.77 429.03,-194.89"/>
</a>
</g>
</g>
<!-- Node11&#45;&gt;Node3 -->
<g id="edge15_Node000011_Node000003" class="edge">
<title>Node11&#45;&gt;Node3</title>
<g id="a_edge15_Node000011_Node000003"><a xlink:title=" ">
<path fill="none" stroke="#63b8ff" d="M709.81,-121.91C709.05,-104 704.93,-80.29 690,-66 661.63,-38.85 555.56,-25.69 487.68,-19.93"/>
<polygon fill="#63b8ff" stroke="#63b8ff" points="706.31,-121.96 709.92,-131.92 713.31,-121.88 706.31,-121.96"/>
</a>
</g>
</g>
<!-- Node11&#45;&gt;Node6 -->
<g id="edge16_Node000011_Node000006" class="edge">
<title>Node11&#45;&gt;Node6</title>
<g id="a_edge16_Node000011_Node000006"><a xlink:title=" ">
<path fill="none" stroke="#63b8ff" d="M760.29,-128.72C790.73,-118.47 828.84,-105.63 857.4,-96.01"/>
<polygon fill="#63b8ff" stroke="#63b8ff" points="759.06,-125.45 750.7,-131.95 761.29,-132.08 759.06,-125.45"/>
</a>
</g>
</g>
<!-- Node11&#45;&gt;Node8 -->
<g id="edge22_Node000011_Node000008" class="edge">
<title>Node11&#45;&gt;Node8</title>
<g id="a_edge22_Node000011_Node000008"><a xlink:title=" ">
<path fill="none" stroke="#63b8ff" d="M692.28,-170.18C672.08,-196.98 638.68,-241.28 621.67,-263.84"/>
<polygon fill="#63b8ff" stroke="#63b8ff" points="695.11,-172.23 698.34,-162.14 689.52,-168.02 695.11,-172.23"/>
</a>
</g>
</g>
<!-- Node11&#45;&gt;Node9 -->
<g id="edge17_Node000011_Node000009" class="edge">
<title>Node11&#45;&gt;Node9</title>
<g id="a_edge17_Node000011_Node000009"><a xlink:title=" ">
<path fill="none" stroke="#63b8ff" d="M640.28,-161.68C575.83,-173.83 480.61,-191.31 419.65,-202.14"/>
<polygon fill="#63b8ff" stroke="#63b8ff" points="641.17,-165.07 650.35,-159.77 639.87,-158.19 641.17,-165.07"/>
</a>
</g>
</g>
<!-- Node11&#45;&gt;Node12 -->
<g id="edge18_Node000011_Node000012" class="edge">
<title>Node11&#45;&gt;Node12</title>
<g id="a_edge18_Node000011_Node000012"><a xlink:title=" ">
<path fill="none" stroke="#63b8ff" d="M681.48,-125.75C668.39,-116.13 653.07,-104.86 641.25,-96.16"/>
<polygon fill="#63b8ff" stroke="#63b8ff" points="679.56,-128.69 689.69,-131.8 683.71,-123.05 679.56,-128.69"/>
</a>
</g>
</g>
<!-- Node11&#45;&gt;Node13 -->
<g id="edge19_Node000011_Node000013" class="edge">
<title>Node11&#45;&gt;Node13</title>
<g id="a_edge19_Node000011_Node000013"><a xlink:title=" ">
<path fill="none" stroke="#63b8ff" d="M777.82,-132.94C829.82,-123.01 902.95,-108.9 967,-96 969.68,-95.46 972.42,-94.9 975.18,-94.34"/>
<polygon fill="#63b8ff" stroke="#63b8ff" points="776.88,-129.56 767.71,-134.87 778.19,-136.44 776.88,-129.56"/>
</a>
</g>
</g>
<!-- Node15 -->
<g id="Node000015" class="node">
<title>Node15</title>
<g id="a_Node000015"><a xlink:href="timeseries_8cpp.html" target="_top" xlink:title=" ">
<polygon fill="white" stroke="#666666" points="381.5,-96 264.5,-96 264.5,-66 381.5,-66 381.5,-96"/>
<text text-anchor="start" x="272.5" y="-84" font-family="Helvetica,sans-Serif" font-size="10.00">BaseStationCode/src</text>
<text text-anchor="middle" x="323" y="-73" font-family="Helvetica,sans-Serif" font-size="10.00">/src/timeseries.cpp</text>
</a>
</g>
</g>
<!-- Node11&#45;&gt;Node15 -->
<g id="edge23_Node000011_Node000015" class="edge">
<title>Node11&#45;&gt;Node15</title>
<g id="a_edge23_Node000011_Node000015"><a xlink:title=" ">
<path fill="none" stroke="#63b8ff" d="M640.27,-134.6C566.63,-122.4 451,-103.22 381.54,-91.71"/>
<polygon fill="#63b8ff" stroke="#63b8ff" points="639.94,-138.1 650.37,-136.28 641.08,-131.19 639.94,-138.1"/>
</a>
</g>
</g>
<!-- Node13&#45;&gt;Node3 -->
<g id="edge20_Node000013_Node000003" class="edge">
<title>Node13&#45;&gt;Node3</title>
<g id="a_edge20_Node000013_Node000003"><a xlink:title=" ">
<path fill="none" stroke="#63b8ff" d="M965.12,-65.82C786.13,-39.4 585.14,-25.18 487.78,-19.28"/>
<polygon fill="#63b8ff" stroke="#63b8ff" points="964.83,-69.31 975.24,-67.33 965.87,-62.39 964.83,-69.31"/>
</a>
</g>
</g>
<!-- Node14 -->
<g id="Node000014" class="node">
<title>Node14</title>
<g id="a_Node000014"><a xlink:href="ota_8cpp.html" target="_top" xlink:title="Handles over the air (OTA) updates.">
<polygon fill="white" stroke="#666666" points="1092.5,-30 975.5,-30 975.5,0 1092.5,0 1092.5,-30"/>
<text text-anchor="start" x="983.5" y="-18" font-family="Helvetica,sans-Serif" font-size="10.00">BaseStationCode/src</text>
<text text-anchor="middle" x="1034" y="-7" font-family="Helvetica,sans-Serif" font-size="10.00">/src/ota.cpp</text>
</a>
</g>
</g>
<!-- Node13&#45;&gt;Node14 -->
<g id="edge21_Node000013_Node000014" class="edge">
<title>Node13&#45;&gt;Node14</title>
<g id="a_edge21_Node000013_Node000014"><a xlink:title=" ">
<path fill="none" stroke="#63b8ff" d="M1034,-55.54C1034,-46.96 1034,-37.61 1034,-30.16"/>
<polygon fill="#63b8ff" stroke="#63b8ff" points="1030.5,-55.8 1034,-65.8 1037.5,-55.8 1030.5,-55.8"/>
</a>
</g>
</g>
<!-- Node17&#45;&gt;Node3 -->
<g id="edge27_Node000017_Node000003" class="edge">
<title>Node17&#45;&gt;Node3</title>
<g id="a_edge27_Node000017_Node000003"><a xlink:title=" ">
<path fill="none" stroke="#63b8ff" d="M192.09,-455.82C182.13,-447.88 172.41,-437.8 167,-426 161.45,-413.88 165.59,-409.26 167,-396 182.87,-246.82 134.28,-174.4 238,-66 256.19,-46.99 321.23,-32.8 370.41,-24.49"/>
<polygon fill="#63b8ff" stroke="#63b8ff" points="190.3,-458.85 200.42,-461.99 194.46,-453.23 190.3,-458.85"/>
</a>
</g>
</g>
<!-- Node18 -->
<g id="Node000018" class="node">
<title>Node18</title>
<g id="a_Node000018"><a xlink:href="audio_8cpp.html" target="_top" xlink:title="Plays audio.">
<polygon fill="white" stroke="#666666" points="293.5,-426 176.5,-426 176.5,-396 293.5,-396 293.5,-426"/>
<text text-anchor="start" x="184.5" y="-414" font-family="Helvetica,sans-Serif" font-size="10.00">BaseStationCode/src</text>
<text text-anchor="middle" x="235" y="-403" font-family="Helvetica,sans-Serif" font-size="10.00">/src/audio.cpp</text>
</a>
</g>
</g>
<!-- Node17&#45;&gt;Node18 -->
<g id="edge28_Node000017_Node000018" class="edge">
<title>Node17&#45;&gt;Node18</title>
<g id="a_edge28_Node000017_Node000018"><a xlink:title=" ">
<path fill="none" stroke="#63b8ff" d="M228.78,-451.83C230.13,-443.17 231.61,-433.7 232.79,-426.16"/>
<polygon fill="#63b8ff" stroke="#63b8ff" points="225.31,-451.38 227.22,-461.8 232.22,-452.46 225.31,-451.38"/>
</a>
</g>
</g>
<!-- Node20 -->
<g id="Node000020" class="node">
<title>Node20</title>
<g id="a_Node000020"><a xlink:href="conversions_8cpp.html" target="_top" xlink:title="General functions for converting to and from char arrays.">
<polygon fill="white" stroke="#666666" points="707.5,-426 590.5,-426 590.5,-396 707.5,-396 707.5,-426"/>
<text text-anchor="start" x="598.5" y="-414" font-family="Helvetica,sans-Serif" font-size="10.00">BaseStationCode/src</text>
<text text-anchor="middle" x="649" y="-403" font-family="Helvetica,sans-Serif" font-size="10.00">/src/conversions.cpp</text>
</a>
</g>
</g>
<!-- Node19&#45;&gt;Node20 -->
<g id="edge30_Node000019_Node000020" class="edge">
<title>Node19&#45;&gt;Node20</title>
<g id="a_edge30_Node000019_Node000020"><a xlink:title=" ">
<path fill="none" stroke="#63b8ff" d="M617.86,-453.53C624.68,-444.43 632.35,-434.19 638.38,-426.16"/>
<polygon fill="#63b8ff" stroke="#63b8ff" points="614.85,-451.7 611.65,-461.8 620.45,-455.9 614.85,-451.7"/>
</a>
</g>
</g>
<!-- Node19&#45;&gt;Node21 -->
<g id="edge31_Node000019_Node000021" class="edge">
<title>Node19&#45;&gt;Node21</title>
<g id="a_edge31_Node000019_Node000021"><a xlink:title=" ">
<path fill="none" stroke="#63b8ff" d="M573.48,-455.75C560.39,-446.13 545.07,-434.86 533.25,-426.16"/>
<polygon fill="#63b8ff" stroke="#63b8ff" points="571.56,-458.69 581.69,-461.8 575.71,-453.05 571.56,-458.69"/>
</a>
</g>
</g>
<!-- Node21&#45;&gt;Node8 -->
<g id="edge42_Node000021_Node000008" class="edge">
<title>Node21&#45;&gt;Node8</title>
<g id="a_edge42_Node000021_Node000008"><a xlink:title=" ">
<path fill="none" stroke="#63b8ff" d="M572.35,-392.74C599.4,-383.44 627.29,-371.53 635,-360 648.7,-339.51 633.62,-310.95 621.95,-294.08"/>
<polygon fill="#63b8ff" stroke="#63b8ff" points="571.22,-389.43 562.84,-395.92 573.44,-396.07 571.22,-389.43"/>
</a>
</g>
</g>
<!-- Node22 -->
<g id="Node000022" class="node">
<title>Node22</title>
<g id="a_Node000022"><a xlink:href="device__list_8h.html" target="_top" xlink:title="List of all devices and fields known to the system.">
<polygon fill="white" stroke="#666666" points="360.5,-294 243.5,-294 243.5,-264 360.5,-264 360.5,-294"/>
<text text-anchor="start" x="251.5" y="-282" font-family="Helvetica,sans-Serif" font-size="10.00">BaseStationCode/src</text>
<text text-anchor="middle" x="302" y="-271" font-family="Helvetica,sans-Serif" font-size="10.00">/device_list.h</text>
</a>
</g>
</g>
<!-- Node21&#45;&gt;Node22 -->
<g id="edge32_Node000021_Node000022" class="edge">
<title>Node21&#45;&gt;Node22</title>
<g id="a_edge32_Node000021_Node000022"><a xlink:title=" ">
<path fill="none" stroke="#63b8ff" d="M445.49,-395.96C418.74,-388.28 388.84,-376.8 365,-360 340,-342.39 320.02,-312.04 309.69,-294.22"/>
<polygon fill="#63b8ff" stroke="#63b8ff" points="444.62,-399.35 455.19,-398.63 446.47,-392.6 444.62,-399.35"/>
</a>
</g>
</g>
<!-- Node21&#45;&gt;Node23 -->
<g id="edge34_Node000021_Node000023" class="edge">
<title>Node21&#45;&gt;Node23</title>
<g id="a_edge34_Node000021_Node000023"><a xlink:title=" ">
<path fill="none" stroke="#63b8ff" d="M487.71,-389.48C475.45,-379.91 461.18,-368.77 450.15,-360.16"/>
<polygon fill="#63b8ff" stroke="#63b8ff" points="485.76,-392.4 495.8,-395.8 490.07,-386.88 485.76,-392.4"/>
</a>
</g>
</g>
<!-- Node25 -->
<g id="Node000025" class="node">
<title>Node25</title>
<g id="a_Node000025"><a xlink:href="fields_8cpp.html" target="_top" xlink:title="Contains fields classes.">
<polygon fill="white" stroke="#666666" points="625.5,-360 508.5,-360 508.5,-330 625.5,-330 625.5,-360"/>
<text text-anchor="start" x="516.5" y="-348" font-family="Helvetica,sans-Serif" font-size="10.00">BaseStationCode/src</text>
<text text-anchor="middle" x="567" y="-337" font-family="Helvetica,sans-Serif" font-size="10.00">/src/fields.cpp</text>
</a>
</g>
</g>
<!-- Node21&#45;&gt;Node25 -->
<g id="edge41_Node000021_Node000025" class="edge">
<title>Node21&#45;&gt;Node25</title>
<g id="a_edge41_Node000021_Node000025"><a xlink:title=" ">
<path fill="none" stroke="#63b8ff" d="M532.15,-388.09C539.8,-378.85 548.48,-368.36 555.27,-360.16"/>
<polygon fill="#63b8ff" stroke="#63b8ff" points="529.44,-385.86 525.76,-395.8 534.84,-390.33 529.44,-385.86"/>
</a>
</g>
</g>
<!-- Node22&#45;&gt;Node3 -->
<g id="edge33_Node000022_Node000003" class="edge">
<title>Node22&#45;&gt;Node3</title>
<g id="a_edge33_Node000022_Node000003"><a xlink:title=" ">
<path fill="none" stroke="#63b8ff" d="M286.46,-255.4C259.91,-213.69 212.65,-123.65 256,-66 269.95,-47.45 325.93,-33.59 370.48,-25.23"/>
<polygon fill="#63b8ff" stroke="#63b8ff" points="283.68,-257.54 292.09,-263.99 289.54,-253.71 283.68,-257.54"/>
</a>
</g>
</g>
<!-- Node23&#45;&gt;Node6 -->
<g id="edge37_Node000023_Node000006" class="edge">
<title>Node23&#45;&gt;Node6</title>
<g id="a_edge37_Node000023_Node000006"><a xlink:title=" ">
<path fill="none" stroke="#63b8ff" d="M500.51,-330.03C591.83,-314.42 624.67,-336.16 702,-294 793.97,-243.85 866.81,-134.76 890.67,-96.01"/>
<polygon fill="#63b8ff" stroke="#63b8ff" points="499.8,-326.6 490.59,-331.83 501.05,-333.49 499.8,-326.6"/>
</a>
</g>
</g>
<!-- Node23&#45;&gt;Node8 -->
<g id="edge40_Node000023_Node000008" class="edge">
<title>Node23&#45;&gt;Node8</title>
<g id="a_edge40_Node000023_Node000008"><a xlink:title=" ">
<path fill="none" stroke="#63b8ff" d="M481.07,-326.46C509.62,-316.25 545.13,-303.55 571.81,-294.01"/>
<polygon fill="#63b8ff" stroke="#63b8ff" points="479.52,-323.29 471.28,-329.95 481.88,-329.88 479.52,-323.29"/>
</a>
</g>
</g>
<!-- Node23&#45;&gt;Node9 -->
<g id="edge38_Node000023_Node000009" class="edge">
<title>Node23&#45;&gt;Node9</title>
<g id="a_edge38_Node000023_Node000009"><a xlink:title=" ">
<path fill="none" stroke="#63b8ff" d="M474.55,-324.66C486.6,-316.94 498.26,-306.79 505,-294 511.22,-282.21 512.73,-274.86 505,-264 494.61,-249.39 454.87,-236.24 419.77,-227.09"/>
<polygon fill="#63b8ff" stroke="#63b8ff" points="472.6,-321.74 465.78,-329.85 476.17,-327.77 472.6,-321.74"/>
</a>
</g>
</g>
<!-- Node23&#45;&gt;Node11 -->
<g id="edge39_Node000023_Node000011" class="edge">
<title>Node23&#45;&gt;Node11</title>
<g id="a_edge39_Node000023_Node000011"><a xlink:title=" ">
<path fill="none" stroke="#63b8ff" d="M500.56,-330.08C582.74,-316.53 623.69,-349.08 679,-294 714.94,-258.21 713.43,-191.64 710.75,-162.4"/>
<polygon fill="#63b8ff" stroke="#63b8ff" points="499.8,-326.66 490.6,-331.92 501.07,-333.55 499.8,-326.66"/>
</a>
</g>
</g>
<!-- Node23&#45;&gt;Node22 -->
<g id="edge35_Node000023_Node000022" class="edge">
<title>Node23&#45;&gt;Node22</title>
<g id="a_edge35_Node000023_Node000022"><a xlink:title=" ">
<path fill="none" stroke="#63b8ff" d="M394.45,-325.51C374.05,-315.47 349.24,-303.26 330.46,-294.01"/>
<polygon fill="#63b8ff" stroke="#63b8ff" points="392.95,-328.68 403.47,-329.95 396.05,-322.4 392.95,-328.68"/>
</a>
</g>
</g>
<!-- Node24 -->
<g id="Node000024" class="node">
<title>Node24</title>
<g id="a_Node000024"><a xlink:href="devices_8cpp.html" target="_top" xlink:title="Devices and manager for all known devices the base station connects to.">
<polygon fill="white" stroke="#666666" points="495.5,-294 378.5,-294 378.5,-264 495.5,-264 495.5,-294"/>
<text text-anchor="start" x="386.5" y="-282" font-family="Helvetica,sans-Serif" font-size="10.00">BaseStationCode/src</text>
<text text-anchor="middle" x="437" y="-271" font-family="Helvetica,sans-Serif" font-size="10.00">/src/devices.cpp</text>
</a>
</g>
</g>
<!-- Node23&#45;&gt;Node24 -->
<g id="edge36_Node000023_Node000024" class="edge">
<title>Node23&#45;&gt;Node24</title>
<g id="a_edge36_Node000023_Node000024"><a xlink:title=" ">
<path fill="none" stroke="#63b8ff" d="M433.89,-319.83C434.56,-311.17 435.3,-301.7 435.89,-294.16"/>
<polygon fill="#63b8ff" stroke="#63b8ff" points="430.4,-319.55 433.11,-329.8 437.38,-320.1 430.4,-319.55"/>
</a>
</g>
</g>
<!-- Node26&#45;&gt;Node9 -->
<g id="edge49_Node000026_Node000009" class="edge">
<title>Node26&#45;&gt;Node9</title>
<g id="a_edge49_Node000026_Node000009"><a xlink:title=" ">
<path fill="none" stroke="#63b8ff" d="M343.97,-453.43C310.87,-406.72 237.81,-303.05 235,-294 231.05,-281.27 227.51,-275.03 235,-264 250.2,-241.61 277.17,-229.25 302.27,-222.42"/>
<polygon fill="#63b8ff" stroke="#63b8ff" points="341.2,-455.58 349.84,-461.71 346.91,-451.53 341.2,-455.58"/>
</a>
</g>
</g>
<!-- Node26&#45;&gt;Node21 -->
<g id="edge48_Node000026_Node000021" class="edge">
<title>Node26&#45;&gt;Node21</title>
<g id="a_edge48_Node000026_Node000021"><a xlink:title=" ">
<path fill="none" stroke="#63b8ff" d="M403.18,-458.05C427.58,-447.91 457.63,-435.43 480.28,-426.01"/>
<polygon fill="#63b8ff" stroke="#63b8ff" points="401.69,-454.89 393.8,-461.95 404.37,-461.35 401.69,-454.89"/>
</a>
</g>
</g>
<!-- Node26&#45;&gt;Node23 -->
<g id="edge47_Node000026_Node000023" class="edge">
<title>Node26&#45;&gt;Node23</title>
<g id="a_edge47_Node000026_Node000023"><a xlink:title=" ">
<path fill="none" stroke="#63b8ff" d="M372.88,-452.75C387.78,-425.84 411.84,-382.4 424.17,-360.14"/>
<polygon fill="#63b8ff" stroke="#63b8ff" points="369.63,-451.4 367.84,-461.84 375.75,-454.79 369.63,-451.4"/>
</a>
</g>
</g>
<!-- Node27&#45;&gt;Node3 -->
<g id="edge55_Node000027_Node000003" class="edge">
<title>Node27&#45;&gt;Node3</title>
<g id="a_edge55_Node000027_Node000003"><a xlink:title=" ">
<path fill="none" stroke="#63b8ff" d="M101.4,-123.4C114.42,-104.95 135.29,-79.74 160,-66 225.8,-29.41 313.24,-18.96 370.3,-16.31"/>
<polygon fill="#63b8ff" stroke="#63b8ff" points="98.39,-121.61 95.66,-131.84 104.18,-125.54 98.39,-121.61"/>
</a>
</g>
</g>
<!-- Node27&#45;&gt;Node15 -->
<g id="edge56_Node000027_Node000015" class="edge">
<title>Node27&#45;&gt;Node15</title>
<g id="a_edge56_Node000027_Node000015"><a xlink:title=" ">
<path fill="none" stroke="#63b8ff" d="M148.75,-129.25C186.88,-118.91 235.24,-105.8 271.33,-96.01"/>
<polygon fill="#63b8ff" stroke="#63b8ff" points="147.53,-125.96 138.79,-131.95 149.36,-132.72 147.53,-125.96"/>
</a>
</g>
</g>
</g>
</svg>
