<?xml version="1.0" encoding="UTF-8" standalone="no"?>
<!DOCTYPE svg PUBLIC "-//W3C//DTD SVG 1.1//EN"
 "http://www.w3.org/Graphics/SVG/1.1/DTD/svg11.dtd">
<!-- Generated by graphviz version 2.43.0 (0)
 -->
<!-- Title: ESP32BaseStation/src/topics.h Pages: 1 -->
<svg width="1068pt" height="631pt"
 viewBox="0.00 0.00 1068.00 631.00" xmlns="http://www.w3.org/2000/svg" xmlns:xlink="http://www.w3.org/1999/xlink">
<g id="graph0" class="graph" transform="scale(1 1) rotate(0) translate(4 627)">
<title>ESP32BaseStation/src/topics.h</title>
<polygon fill="white" stroke="transparent" points="-4,4 -4,-627 1064,-627 1064,4 -4,4"/>
<!-- Node1 -->
<g id="node1" class="node">
<title>Node1</title>
<g id="a_node1"><a xlink:title="MQTT topics for a thingsboard gateway.">
<polygon fill="#bfbfbf" stroke="black" points="385,-592.5 385,-622.5 507,-622.5 507,-592.5 385,-592.5"/>
<text text-anchor="start" x="393" y="-610.5" font-family="Helvetica,sans-Serif" font-size="10.00">ESP32BaseStation/src</text>
<text text-anchor="middle" x="446" y="-599.5" font-family="Helvetica,sans-Serif" font-size="10.00">/topics.h</text>
</a>
</g>
</g>
<!-- Node2 -->
<g id="node2" class="node">
<title>Node2</title>
<g id="a_node2"><a xlink:href="defines_8h.html" target="_top" xlink:title="Definitions and other preprocessor and global stuff.">
<polygon fill="white" stroke="black" points="479,-536.5 479,-555.5 631,-555.5 631,-536.5 479,-536.5"/>
<text text-anchor="middle" x="555" y="-543.5" font-family="Helvetica,sans-Serif" font-size="10.00">ESP32BaseStation/defines.h</text>
</a>
</g>
</g>
<!-- Node1&#45;&gt;Node2 -->
<g id="edge1" class="edge">
<title>Node1&#45;&gt;Node2</title>
<path fill="none" stroke="midnightblue" d="M480.8,-587.51C500.39,-576.81 523.91,-563.97 539.14,-555.66"/>
<polygon fill="midnightblue" stroke="midnightblue" points="478.93,-584.54 471.83,-592.4 482.29,-590.68 478.93,-584.54"/>
</g>
<!-- Node10 -->
<g id="node10" class="node">
<title>Node10</title>
<g id="a_node10"><a xlink:href="rpc_8h.html" target="_top" xlink:title="Handles RPC calls.">
<polygon fill="white" stroke="black" points="384,-268.5 384,-298.5 506,-298.5 506,-268.5 384,-268.5"/>
<text text-anchor="start" x="392" y="-286.5" font-family="Helvetica,sans-Serif" font-size="10.00">ESP32BaseStation/src</text>
<text text-anchor="middle" x="445" y="-275.5" font-family="Helvetica,sans-Serif" font-size="10.00">/rpc.h</text>
</a>
</g>
</g>
<!-- Node1&#45;&gt;Node10 -->
<g id="edge49" class="edge">
<title>Node1&#45;&gt;Node10</title>
<path fill="none" stroke="midnightblue" d="M445.6,-582.27C444.9,-538.89 443.49,-445.13 443,-366 442.91,-352.22 442.73,-348.78 443,-335 443.24,-322.72 443.82,-308.77 444.29,-298.64"/>
<polygon fill="midnightblue" stroke="midnightblue" points="442.1,-582.46 445.76,-592.4 449.1,-582.35 442.1,-582.46"/>
</g>
<!-- Node3 -->
<g id="node3" class="node">
<title>Node3</title>
<g id="a_node3"><a xlink:href="_e_s_p32_base_station_8ino.html" target="_top" xlink:title="Main file for a base station to connect to remote sensors on a farm.">
<polygon fill="white" stroke="black" points="459,-0.5 459,-30.5 621,-30.5 621,-0.5 459,-0.5"/>
<text text-anchor="start" x="467" y="-18.5" font-family="Helvetica,sans-Serif" font-size="10.00">ESP32BaseStation/ESP32Base</text>
<text text-anchor="middle" x="540" y="-7.5" font-family="Helvetica,sans-Serif" font-size="10.00">Station.ino</text>
</a>
</g>
</g>
<!-- Node2&#45;&gt;Node3 -->
<g id="edge2" class="edge">
<title>Node2&#45;&gt;Node3</title>
<path fill="none" stroke="midnightblue" d="M641.65,-545.94C757.6,-545.63 955.54,-539.12 1015,-500 1049.57,-477.26 1060,-459.88 1060,-418.5 1060,-418.5 1060,-418.5 1060,-148.5 1060,-59.08 767.5,-29.54 621.25,-20.36"/>
<polygon fill="midnightblue" stroke="midnightblue" points="641.38,-542.44 631.39,-545.95 641.39,-549.44 641.38,-542.44"/>
</g>
<!-- Node4 -->
<g id="node4" class="node">
<title>Node4</title>
<g id="a_node4"><a xlink:href="alarm_8h.html" target="_top" xlink:title="Handles alarms.">
<polygon fill="white" stroke="black" points="193,-335.5 193,-365.5 315,-365.5 315,-335.5 193,-335.5"/>
<text text-anchor="start" x="201" y="-353.5" font-family="Helvetica,sans-Serif" font-size="10.00">ESP32BaseStation/src</text>
<text text-anchor="middle" x="254" y="-342.5" font-family="Helvetica,sans-Serif" font-size="10.00">/alarm.h</text>
</a>
</g>
</g>
<!-- Node2&#45;&gt;Node4 -->
<g id="edge3" class="edge">
<title>Node2&#45;&gt;Node4</title>
<path fill="none" stroke="midnightblue" d="M496.42,-534.18C467.81,-527.22 433.68,-516.35 406,-500 343.42,-463.04 287.14,-395.02 264.53,-365.64"/>
<polygon fill="midnightblue" stroke="midnightblue" points="495.76,-537.62 506.29,-536.48 497.35,-530.8 495.76,-537.62"/>
</g>
<!-- Node6 -->
<g id="node6" class="node">
<title>Node6</title>
<g id="a_node6"><a xlink:href="audio_8h.html" target="_top" xlink:title="Plays audio.">
<polygon fill="white" stroke="black" points="244,-268.5 244,-298.5 366,-298.5 366,-268.5 244,-268.5"/>
<text text-anchor="start" x="252" y="-286.5" font-family="Helvetica,sans-Serif" font-size="10.00">ESP32BaseStation/src</text>
<text text-anchor="middle" x="305" y="-275.5" font-family="Helvetica,sans-Serif" font-size="10.00">/audio.h</text>
</a>
</g>
</g>
<!-- Node2&#45;&gt;Node6 -->
<g id="edge24" class="edge">
<title>Node2&#45;&gt;Node6</title>
<path fill="none" stroke="midnightblue" d="M526.59,-531.89C511.03,-523.92 491.92,-512.83 477,-500 402.23,-435.71 336.42,-335.34 313.56,-298.59"/>
<polygon fill="midnightblue" stroke="midnightblue" points="525.25,-535.12 535.76,-536.43 528.35,-528.85 525.25,-535.12"/>
</g>
<!-- Node8 -->
<g id="node8" class="node">
<title>Node8</title>
<g id="a_node8"><a xlink:href="leds_8h.html" target="_top" xlink:title="Controls the LEDs on the unit.">
<polygon fill="white" stroke="black" points="117,-67.5 117,-97.5 239,-97.5 239,-67.5 117,-67.5"/>
<text text-anchor="start" x="125" y="-85.5" font-family="Helvetica,sans-Serif" font-size="10.00">ESP32BaseStation/src</text>
<text text-anchor="middle" x="178" y="-74.5" font-family="Helvetica,sans-Serif" font-size="10.00">/leds.h</text>
</a>
</g>
</g>
<!-- Node2&#45;&gt;Node8 -->
<g id="edge41" class="edge">
<title>Node2&#45;&gt;Node8</title>
<path fill="none" stroke="midnightblue" d="M468.96,-543.05C313.09,-537.16 0,-513.51 0,-418.5 0,-418.5 0,-418.5 0,-215.5 0,-152.02 73.94,-115.53 126.52,-97.62"/>
<polygon fill="midnightblue" stroke="midnightblue" points="468.87,-546.55 478.99,-543.41 469.13,-539.55 468.87,-546.55"/>
</g>
<!-- Node2&#45;&gt;Node10 -->
<g id="edge48" class="edge">
<title>Node2&#45;&gt;Node10</title>
<path fill="none" stroke="midnightblue" d="M529.94,-531.02C518.29,-523.31 505.22,-512.71 497,-500 454.06,-433.58 446.55,-334.93 445.26,-298.6"/>
<polygon fill="midnightblue" stroke="midnightblue" points="528.14,-534.02 538.48,-536.35 531.84,-528.08 528.14,-534.02"/>
</g>
<!-- Node11 -->
<g id="node11" class="node">
<title>Node11</title>
<g id="a_node11"><a xlink:href="lora_8h.html" target="_top" xlink:title="File that handles the LoRa radio and PJON.">
<polygon fill="white" stroke="black" points="702,-201.5 702,-231.5 824,-231.5 824,-201.5 702,-201.5"/>
<text text-anchor="start" x="710" y="-219.5" font-family="Helvetica,sans-Serif" font-size="10.00">ESP32BaseStation/src</text>
<text text-anchor="middle" x="763" y="-208.5" font-family="Helvetica,sans-Serif" font-size="10.00">/lora.h</text>
</a>
</g>
</g>
<!-- Node2&#45;&gt;Node11 -->
<g id="edge46" class="edge">
<title>Node2&#45;&gt;Node11</title>
<path fill="none" stroke="midnightblue" d="M641.53,-540.72C759.91,-534.15 960.86,-520.19 988,-500 1019.49,-476.58 1022,-457.75 1022,-418.5 1022,-418.5 1022,-418.5 1022,-349.5 1022,-309.9 1016.57,-293.17 986,-268 961.6,-247.91 881.26,-233.27 824.02,-225.08"/>
<polygon fill="midnightblue" stroke="midnightblue" points="641.19,-537.23 631.39,-541.27 641.57,-544.22 641.19,-537.23"/>
</g>
<!-- Node13 -->
<g id="node13" class="node">
<title>Node13</title>
<g id="a_node13"><a xlink:href="networking_8h.html" target="_top" xlink:title="Header file for networking.cpp.">
<polygon fill="white" stroke="black" points="561,-134.5 561,-164.5 683,-164.5 683,-134.5 561,-134.5"/>
<text text-anchor="start" x="569" y="-152.5" font-family="Helvetica,sans-Serif" font-size="10.00">ESP32BaseStation/src</text>
<text text-anchor="middle" x="622" y="-141.5" font-family="Helvetica,sans-Serif" font-size="10.00">/networking.h</text>
</a>
</g>
</g>
<!-- Node2&#45;&gt;Node13 -->
<g id="edge47" class="edge">
<title>Node2&#45;&gt;Node13</title>
<path fill="none" stroke="midnightblue" d="M542.76,-527.83C537.75,-519.79 532.55,-509.82 530,-500 519.07,-457.84 522.4,-444.89 530,-402 546.71,-307.69 596.1,-202.31 614.75,-164.74"/>
<polygon fill="midnightblue" stroke="midnightblue" points="539.92,-529.89 548.37,-536.27 545.75,-526.01 539.92,-529.89"/>
</g>
<!-- Node16 -->
<g id="node16" class="node">
<title>Node16</title>
<g id="a_node16"><a xlink:href="conversions_8h.html" target="_top" xlink:title="General functions for converting to and from char arrays.">
<polygon fill="white" stroke="black" points="539,-469.5 539,-499.5 661,-499.5 661,-469.5 539,-469.5"/>
<text text-anchor="start" x="547" y="-487.5" font-family="Helvetica,sans-Serif" font-size="10.00">ESP32BaseStation/src</text>
<text text-anchor="middle" x="600" y="-476.5" font-family="Helvetica,sans-Serif" font-size="10.00">/conversions.h</text>
</a>
</g>
</g>
<!-- Node2&#45;&gt;Node16 -->
<g id="edge25" class="edge">
<title>Node2&#45;&gt;Node16</title>
<path fill="none" stroke="midnightblue" d="M567.67,-528.25C574.52,-519.19 582.89,-508.12 589.39,-499.52"/>
<polygon fill="midnightblue" stroke="midnightblue" points="564.69,-526.39 561.45,-536.48 570.27,-530.61 564.69,-526.39"/>
</g>
<!-- Node18 -->
<g id="node18" class="node">
<title>Node18</title>
<g id="a_node18"><a xlink:href="fields_8h.html" target="_top" xlink:title="Contains fields classes.">
<polygon fill="white" stroke="black" points="679,-402.5 679,-432.5 801,-432.5 801,-402.5 679,-402.5"/>
<text text-anchor="start" x="687" y="-420.5" font-family="Helvetica,sans-Serif" font-size="10.00">ESP32BaseStation/src</text>
<text text-anchor="middle" x="740" y="-409.5" font-family="Helvetica,sans-Serif" font-size="10.00">/fields.h</text>
</a>
</g>
</g>
<!-- Node2&#45;&gt;Node18 -->
<g id="edge40" class="edge">
<title>Node2&#45;&gt;Node18</title>
<path fill="none" stroke="midnightblue" d="M598.79,-533.43C621.38,-526.13 648.6,-515.18 670,-500 696.32,-481.33 719.03,-450.67 731,-432.76"/>
<polygon fill="midnightblue" stroke="midnightblue" points="597.62,-530.13 589.1,-536.43 599.69,-536.81 597.62,-530.13"/>
</g>
<!-- Node20 -->
<g id="node20" class="node">
<title>Node20</title>
<g id="a_node20"><a xlink:href="devices_8h.html" target="_top" xlink:title="Devices and manager for all known devices the base station connects to.">
<polygon fill="white" stroke="black" points="714,-335.5 714,-365.5 836,-365.5 836,-335.5 714,-335.5"/>
<text text-anchor="start" x="722" y="-353.5" font-family="Helvetica,sans-Serif" font-size="10.00">ESP32BaseStation/src</text>
<text text-anchor="middle" x="775" y="-342.5" font-family="Helvetica,sans-Serif" font-size="10.00">/devices.h</text>
</a>
</g>
</g>
<!-- Node2&#45;&gt;Node20 -->
<g id="edge39" class="edge">
<title>Node2&#45;&gt;Node20</title>
<path fill="none" stroke="midnightblue" d="M638.26,-534.49C698.74,-521.82 775.73,-494 810,-433 822.67,-410.45 803.64,-382.39 789.06,-365.77"/>
<polygon fill="midnightblue" stroke="midnightblue" points="637.45,-531.08 628.33,-536.46 638.82,-537.94 637.45,-531.08"/>
</g>
<!-- Node23 -->
<g id="node23" class="node">
<title>Node23</title>
<g id="a_node23"><a xlink:href="lookups_8h.html" target="_top" xlink:title="Lookupable and lookupable manager base classes.">
<polygon fill="white" stroke="black" points="857,-469.5 857,-499.5 979,-499.5 979,-469.5 857,-469.5"/>
<text text-anchor="start" x="865" y="-487.5" font-family="Helvetica,sans-Serif" font-size="10.00">ESP32BaseStation/src</text>
<text text-anchor="middle" x="918" y="-476.5" font-family="Helvetica,sans-Serif" font-size="10.00">/lookups.h</text>
</a>
</g>
</g>
<!-- Node2&#45;&gt;Node23 -->
<g id="edge42" class="edge">
<title>Node2&#45;&gt;Node23</title>
<path fill="none" stroke="midnightblue" d="M623.79,-534.96C682.21,-526.27 768.23,-513.07 843,-500 847.44,-499.22 852.03,-498.4 856.64,-497.55"/>
<polygon fill="midnightblue" stroke="midnightblue" points="622.95,-531.55 613.57,-536.48 623.98,-538.47 622.95,-531.55"/>
</g>
<!-- Node4&#45;&gt;Node3 -->
<g id="edge4" class="edge">
<title>Node4&#45;&gt;Node3</title>
<path fill="none" stroke="midnightblue" d="M240.95,-326.57C230.45,-309.3 214.58,-285.65 197,-268 177.42,-248.34 158.76,-256.63 146,-232 139.66,-219.77 138.76,-212.72 146,-201 213.41,-91.93 364.66,-46.39 458.92,-28.08"/>
<polygon fill="midnightblue" stroke="midnightblue" points="238.1,-328.62 246.21,-335.43 244.12,-325.05 238.1,-328.62"/>
</g>
<!-- Node5 -->
<g id="node5" class="node">
<title>Node5</title>
<g id="a_node5"><a xlink:href="alarm_8cpp.html" target="_top" xlink:title="Handles alarms.">
<polygon fill="white" stroke="black" points="66,-268.5 66,-298.5 188,-298.5 188,-268.5 66,-268.5"/>
<text text-anchor="start" x="74" y="-286.5" font-family="Helvetica,sans-Serif" font-size="10.00">ESP32BaseStation/src</text>
<text text-anchor="middle" x="127" y="-275.5" font-family="Helvetica,sans-Serif" font-size="10.00">/alarm.cpp</text>
</a>
</g>
</g>
<!-- Node4&#45;&gt;Node5 -->
<g id="edge5" class="edge">
<title>Node4&#45;&gt;Node5</title>
<path fill="none" stroke="midnightblue" d="M217.3,-330.71C197.27,-320.46 172.88,-307.98 154.5,-298.58"/>
<polygon fill="midnightblue" stroke="midnightblue" points="215.95,-333.96 226.44,-335.4 219.14,-327.72 215.95,-333.96"/>
</g>
<!-- Node4&#45;&gt;Node6 -->
<g id="edge6" class="edge">
<title>Node4&#45;&gt;Node6</title>
<path fill="none" stroke="midnightblue" d="M271.3,-327.45C278.79,-317.9 287.34,-307 293.96,-298.58"/>
<polygon fill="midnightblue" stroke="midnightblue" points="268.49,-325.37 265.07,-335.4 273.99,-329.69 268.49,-325.37"/>
</g>
<!-- Node4&#45;&gt;Node8 -->
<g id="edge9" class="edge">
<title>Node4&#45;&gt;Node8</title>
<path fill="none" stroke="midnightblue" d="M182.66,-340.47C132.83,-332.52 72.57,-319.06 57,-299 3.21,-229.68 112.57,-133.59 158.75,-97.74"/>
<polygon fill="midnightblue" stroke="midnightblue" points="182.37,-343.96 192.79,-342.03 183.44,-337.04 182.37,-343.96"/>
</g>
<!-- Node4&#45;&gt;Node10 -->
<g id="edge12" class="edge">
<title>Node4&#45;&gt;Node10</title>
<path fill="none" stroke="midnightblue" d="M305.15,-332.09C335.99,-321.6 374.75,-308.41 403.64,-298.58"/>
<polygon fill="midnightblue" stroke="midnightblue" points="303.78,-328.86 295.44,-335.4 306.04,-335.49 303.78,-328.86"/>
</g>
<!-- Node6&#45;&gt;Node3 -->
<g id="edge7" class="edge">
<title>Node6&#45;&gt;Node3</title>
<path fill="none" stroke="midnightblue" d="M306.68,-257.97C308.78,-240.95 313.47,-218.31 324,-201 372.95,-120.52 469.1,-57.43 514.76,-30.58"/>
<polygon fill="midnightblue" stroke="midnightblue" points="303.17,-257.93 305.65,-268.23 310.13,-258.63 303.17,-257.93"/>
</g>
<!-- Node7 -->
<g id="node7" class="node">
<title>Node7</title>
<g id="a_node7"><a xlink:href="audio_8cpp.html" target="_top" xlink:title="Plays audio.">
<polygon fill="white" stroke="black" points="155,-201.5 155,-231.5 277,-231.5 277,-201.5 155,-201.5"/>
<text text-anchor="start" x="163" y="-219.5" font-family="Helvetica,sans-Serif" font-size="10.00">ESP32BaseStation/src</text>
<text text-anchor="middle" x="216" y="-208.5" font-family="Helvetica,sans-Serif" font-size="10.00">/audio.cpp</text>
</a>
</g>
</g>
<!-- Node6&#45;&gt;Node7 -->
<g id="edge8" class="edge">
<title>Node6&#45;&gt;Node7</title>
<path fill="none" stroke="midnightblue" d="M277.55,-262.45C263.86,-252.45 247.63,-240.6 235.27,-231.58"/>
<polygon fill="midnightblue" stroke="midnightblue" points="275.55,-265.32 285.69,-268.4 279.68,-259.67 275.55,-265.32"/>
</g>
<!-- Node8&#45;&gt;Node3 -->
<g id="edge10" class="edge">
<title>Node8&#45;&gt;Node3</title>
<path fill="none" stroke="midnightblue" d="M249.23,-67.7C250.49,-67.46 251.75,-67.23 253,-67 322.4,-54.19 401.39,-40.34 458.91,-30.4"/>
<polygon fill="midnightblue" stroke="midnightblue" points="248.56,-64.26 239.38,-69.55 249.85,-71.14 248.56,-64.26"/>
</g>
<!-- Node9 -->
<g id="node9" class="node">
<title>Node9</title>
<g id="a_node9"><a xlink:href="leds_8cpp.html" target="_top" xlink:title="Controls the LEDs on the unit.">
<polygon fill="white" stroke="black" points="117,-0.5 117,-30.5 239,-30.5 239,-0.5 117,-0.5"/>
<text text-anchor="start" x="125" y="-18.5" font-family="Helvetica,sans-Serif" font-size="10.00">ESP32BaseStation/src</text>
<text text-anchor="middle" x="178" y="-7.5" font-family="Helvetica,sans-Serif" font-size="10.00">/leds.cpp</text>
</a>
</g>
</g>
<!-- Node8&#45;&gt;Node9 -->
<g id="edge11" class="edge">
<title>Node8&#45;&gt;Node9</title>
<path fill="none" stroke="midnightblue" d="M178,-57.11C178,-48.15 178,-38.32 178,-30.58"/>
<polygon fill="midnightblue" stroke="midnightblue" points="174.5,-57.4 178,-67.4 181.5,-57.4 174.5,-57.4"/>
</g>
<!-- Node10&#45;&gt;Node3 -->
<g id="edge13" class="edge">
<title>Node10&#45;&gt;Node3</title>
<path fill="none" stroke="midnightblue" d="M454.04,-258.78C457.23,-250.34 460.81,-240.76 464,-232 491.57,-156.33 523.21,-65.16 535.12,-30.66"/>
<polygon fill="midnightblue" stroke="midnightblue" points="450.67,-257.79 450.4,-268.38 457.22,-260.27 450.67,-257.79"/>
</g>
<!-- Node10&#45;&gt;Node11 -->
<g id="edge14" class="edge">
<title>Node10&#45;&gt;Node11</title>
<path fill="none" stroke="midnightblue" d="M516.13,-267.96C571.94,-256.55 648.81,-240.84 701.87,-229.99"/>
<polygon fill="midnightblue" stroke="midnightblue" points="515.41,-264.54 506.31,-269.97 516.81,-271.39 515.41,-264.54"/>
</g>
<!-- Node15 -->
<g id="node15" class="node">
<title>Node15</title>
<g id="a_node15"><a xlink:href="rpc_8cpp.html" target="_top" xlink:title="Handles RPC calls.">
<polygon fill="white" stroke="black" points="333,-201.5 333,-231.5 455,-231.5 455,-201.5 333,-201.5"/>
<text text-anchor="start" x="341" y="-219.5" font-family="Helvetica,sans-Serif" font-size="10.00">ESP32BaseStation/src</text>
<text text-anchor="middle" x="394" y="-208.5" font-family="Helvetica,sans-Serif" font-size="10.00">/rpc.cpp</text>
</a>
</g>
</g>
<!-- Node10&#45;&gt;Node15 -->
<g id="edge23" class="edge">
<title>Node10&#45;&gt;Node15</title>
<path fill="none" stroke="midnightblue" d="M427.7,-260.45C420.21,-250.9 411.66,-240 405.04,-231.58"/>
<polygon fill="midnightblue" stroke="midnightblue" points="425.01,-262.69 433.93,-268.4 430.51,-258.37 425.01,-262.69"/>
</g>
<!-- Node11&#45;&gt;Node3 -->
<g id="edge15" class="edge">
<title>Node11&#45;&gt;Node3</title>
<path fill="none" stroke="midnightblue" d="M758.5,-190.9C751.17,-153.37 735.67,-84.35 718,-67 692.34,-41.79 655.06,-28.97 621.24,-22.53"/>
<polygon fill="midnightblue" stroke="midnightblue" points="755.12,-191.84 760.43,-201.01 761.99,-190.53 755.12,-191.84"/>
</g>
<!-- Node12 -->
<g id="node12" class="node">
<title>Node12</title>
<g id="a_node12"><a xlink:href="lora_8cpp.html" target="_top" xlink:title="File that handles the LoRa radio and PJON.">
<polygon fill="white" stroke="black" points="765,-134.5 765,-164.5 887,-164.5 887,-134.5 765,-134.5"/>
<text text-anchor="start" x="773" y="-152.5" font-family="Helvetica,sans-Serif" font-size="10.00">ESP32BaseStation/src</text>
<text text-anchor="middle" x="826" y="-141.5" font-family="Helvetica,sans-Serif" font-size="10.00">/lora.cpp</text>
</a>
</g>
</g>
<!-- Node11&#45;&gt;Node12 -->
<g id="edge16" class="edge">
<title>Node11&#45;&gt;Node12</title>
<path fill="none" stroke="midnightblue" d="M783.81,-194.02C793.2,-184.34 804.02,-173.17 812.36,-164.58"/>
<polygon fill="midnightblue" stroke="midnightblue" points="781.12,-191.78 776.67,-201.4 786.14,-196.65 781.12,-191.78"/>
</g>
<!-- Node11&#45;&gt;Node13 -->
<g id="edge17" class="edge">
<title>Node11&#45;&gt;Node13</title>
<path fill="none" stroke="midnightblue" d="M717.32,-197.27C693.91,-186.92 666.37,-174.15 646.86,-164.58"/>
<polygon fill="midnightblue" stroke="midnightblue" points="716.16,-200.58 726.73,-201.4 718.97,-194.17 716.16,-200.58"/>
</g>
<!-- Node13&#45;&gt;Node3 -->
<g id="edge18" class="edge">
<title>Node13&#45;&gt;Node3</title>
<path fill="none" stroke="midnightblue" d="M600.88,-126.99C593.11,-118.4 584.6,-108.15 578,-98 563.62,-75.88 551.66,-47.45 545.2,-30.68"/>
<polygon fill="midnightblue" stroke="midnightblue" points="598.37,-129.42 607.74,-134.35 603.49,-124.65 598.37,-129.42"/>
</g>
<!-- Node13&#45;&gt;Node8 -->
<g id="edge19" class="edge">
<title>Node13&#45;&gt;Node8</title>
<path fill="none" stroke="midnightblue" d="M550.77,-138.07C464.56,-125.45 320.86,-104.41 239.35,-92.48"/>
<polygon fill="midnightblue" stroke="midnightblue" points="550.33,-141.54 560.73,-139.53 551.34,-134.62 550.33,-141.54"/>
</g>
<!-- Node13&#45;&gt;Node10 -->
<g id="edge22" class="edge">
<title>Node13&#45;&gt;Node10</title>
<path fill="none" stroke="midnightblue" d="M601.91,-172.01C585.03,-189.4 559.76,-213.87 535,-232 515.77,-246.08 492.23,-259.16 474.05,-268.48"/>
<polygon fill="midnightblue" stroke="midnightblue" points="604.65,-174.21 609.04,-164.57 599.59,-169.37 604.65,-174.21"/>
</g>
<!-- Node13&#45;&gt;Node11 -->
<g id="edge20" class="edge">
<title>Node13&#45;&gt;Node11</title>
<path fill="none" stroke="midnightblue" d="M667.62,-168.7C691.02,-179.05 718.55,-191.81 738.08,-201.4"/>
<polygon fill="midnightblue" stroke="midnightblue" points="668.77,-165.39 658.21,-164.58 665.96,-171.8 668.77,-165.39"/>
</g>
<!-- Node14 -->
<g id="node14" class="node">
<title>Node14</title>
<g id="a_node14"><a xlink:href="networking_8cpp.html" target="_top" xlink:title="File that handles connecting to WiFi and MQTT and staying connected.">
<polygon fill="white" stroke="black" points="587,-67.5 587,-97.5 709,-97.5 709,-67.5 587,-67.5"/>
<text text-anchor="start" x="595" y="-85.5" font-family="Helvetica,sans-Serif" font-size="10.00">ESP32BaseStation/src</text>
<text text-anchor="middle" x="648" y="-74.5" font-family="Helvetica,sans-Serif" font-size="10.00">/networking.cpp</text>
</a>
</g>
</g>
<!-- Node13&#45;&gt;Node14 -->
<g id="edge21" class="edge">
<title>Node13&#45;&gt;Node14</title>
<path fill="none" stroke="midnightblue" d="M631.4,-124.99C635.08,-115.8 639.17,-105.58 642.37,-97.58"/>
<polygon fill="midnightblue" stroke="midnightblue" points="628.11,-123.81 627.64,-134.4 634.61,-126.41 628.11,-123.81"/>
</g>
<!-- Node17 -->
<g id="node17" class="node">
<title>Node17</title>
<g id="a_node17"><a xlink:href="conversions_8cpp.html" target="_top" xlink:title="General functions for converting to and from char arrays.">
<polygon fill="white" stroke="black" points="539,-402.5 539,-432.5 661,-432.5 661,-402.5 539,-402.5"/>
<text text-anchor="start" x="547" y="-420.5" font-family="Helvetica,sans-Serif" font-size="10.00">ESP32BaseStation/src</text>
<text text-anchor="middle" x="600" y="-409.5" font-family="Helvetica,sans-Serif" font-size="10.00">/conversions.cpp</text>
</a>
</g>
</g>
<!-- Node16&#45;&gt;Node17 -->
<g id="edge26" class="edge">
<title>Node16&#45;&gt;Node17</title>
<path fill="none" stroke="midnightblue" d="M600,-459.11C600,-450.15 600,-440.32 600,-432.58"/>
<polygon fill="midnightblue" stroke="midnightblue" points="596.5,-459.4 600,-469.4 603.5,-459.4 596.5,-459.4"/>
</g>
<!-- Node16&#45;&gt;Node18 -->
<g id="edge27" class="edge">
<title>Node16&#45;&gt;Node18</title>
<path fill="none" stroke="midnightblue" d="M639.57,-465.13C661.81,-454.8 689.15,-442.11 709.68,-432.58"/>
<polygon fill="midnightblue" stroke="midnightblue" points="637.97,-462.01 630.38,-469.4 640.92,-468.36 637.97,-462.01"/>
</g>
<!-- Node18&#45;&gt;Node10 -->
<g id="edge38" class="edge">
<title>Node18&#45;&gt;Node10</title>
<path fill="none" stroke="midnightblue" d="M668.87,-401.4C636.34,-393.14 597.82,-381.4 565,-366 525.56,-347.49 484.62,-316.78 462.23,-298.81"/>
<polygon fill="midnightblue" stroke="midnightblue" points="668.21,-404.84 678.76,-403.85 669.9,-398.05 668.21,-404.84"/>
</g>
<!-- Node19 -->
<g id="node19" class="node">
<title>Node19</title>
<g id="a_node19"><a xlink:href="device__list_8h.html" target="_top" xlink:title="List of all devices and fields known to the system.">
<polygon fill="white" stroke="black" points="816,-268.5 816,-298.5 956,-298.5 956,-268.5 816,-268.5"/>
<text text-anchor="start" x="824" y="-286.5" font-family="Helvetica,sans-Serif" font-size="10.00">ESP32BaseStation/device</text>
<text text-anchor="middle" x="886" y="-275.5" font-family="Helvetica,sans-Serif" font-size="10.00">_list.h</text>
</a>
</g>
</g>
<!-- Node18&#45;&gt;Node19 -->
<g id="edge28" class="edge">
<title>Node18&#45;&gt;Node19</title>
<path fill="none" stroke="midnightblue" d="M794.53,-398.38C812.2,-390.52 830.88,-379.87 845,-366 864.55,-346.8 876.4,-316.33 882.03,-298.59"/>
<polygon fill="midnightblue" stroke="midnightblue" points="792.7,-395.35 784.84,-402.46 795.42,-401.8 792.7,-395.35"/>
</g>
<!-- Node18&#45;&gt;Node20 -->
<g id="edge30" class="edge">
<title>Node18&#45;&gt;Node20</title>
<path fill="none" stroke="midnightblue" d="M752.34,-393.58C757.37,-384.24 763.02,-373.75 767.42,-365.58"/>
<polygon fill="midnightblue" stroke="midnightblue" points="749.25,-391.93 747.59,-402.4 755.42,-395.25 749.25,-391.93"/>
</g>
<!-- Node22 -->
<g id="node22" class="node">
<title>Node22</title>
<g id="a_node22"><a xlink:href="fields_8cpp.html" target="_top" xlink:title="Contains fields classes.">
<polygon fill="white" stroke="black" points="574,-335.5 574,-365.5 696,-365.5 696,-335.5 574,-335.5"/>
<text text-anchor="start" x="582" y="-353.5" font-family="Helvetica,sans-Serif" font-size="10.00">ESP32BaseStation/src</text>
<text text-anchor="middle" x="635" y="-342.5" font-family="Helvetica,sans-Serif" font-size="10.00">/fields.cpp</text>
</a>
</g>
</g>
<!-- Node18&#45;&gt;Node22 -->
<g id="edge37" class="edge">
<title>Node18&#45;&gt;Node22</title>
<path fill="none" stroke="midnightblue" d="M708.52,-397.02C692.18,-386.9 672.59,-374.77 657.74,-365.58"/>
<polygon fill="midnightblue" stroke="midnightblue" points="706.87,-400.11 717.22,-402.4 710.56,-394.16 706.87,-400.11"/>
</g>
<!-- Node19&#45;&gt;Node3 -->
<g id="edge29" class="edge">
<title>Node19&#45;&gt;Node3</title>
<path fill="none" stroke="midnightblue" d="M895.8,-258.75C907.04,-227.41 920.91,-171.8 896,-134 864.94,-86.85 712.46,-49.64 617.41,-30.55"/>
<polygon fill="midnightblue" stroke="midnightblue" points="892.42,-257.8 892.15,-268.39 898.97,-260.28 892.42,-257.8"/>
</g>
<!-- Node20&#45;&gt;Node8 -->
<g id="edge33" class="edge">
<title>Node20&#45;&gt;Node8</title>
<path fill="none" stroke="midnightblue" d="M707.97,-332.72C678.73,-324.29 644.47,-312.9 615,-299 542.64,-264.87 534.86,-238.14 464,-201 379.84,-156.89 275.34,-117.61 218.86,-97.56"/>
<polygon fill="midnightblue" stroke="midnightblue" points="707.11,-336.11 717.68,-335.46 709.01,-329.37 707.11,-336.11"/>
</g>
<!-- Node20&#45;&gt;Node10 -->
<g id="edge36" class="edge">
<title>Node20&#45;&gt;Node10</title>
<path fill="none" stroke="midnightblue" d="M704.01,-334.81C630.37,-320.07 556.69,-305.84 506.24,-296.17"/>
<polygon fill="midnightblue" stroke="midnightblue" points="703.43,-338.27 713.93,-336.8 704.81,-331.4 703.43,-338.27"/>
</g>
<!-- Node20&#45;&gt;Node11 -->
<g id="edge34" class="edge">
<title>Node20&#45;&gt;Node11</title>
<path fill="none" stroke="midnightblue" d="M773.49,-325.11C772.42,-308.91 770.84,-287.16 769,-268 767.82,-255.7 766.13,-241.75 764.85,-231.63"/>
<polygon fill="midnightblue" stroke="midnightblue" points="770.01,-325.6 774.15,-335.35 777,-325.14 770.01,-325.6"/>
</g>
<!-- Node20&#45;&gt;Node13 -->
<g id="edge35" class="edge">
<title>Node20&#45;&gt;Node13</title>
<path fill="none" stroke="midnightblue" d="M703.75,-332.91C671.61,-323.89 638.68,-311.94 629,-299 613.38,-278.13 618.05,-197.74 620.72,-164.75"/>
<polygon fill="midnightblue" stroke="midnightblue" points="703.11,-336.37 713.68,-335.62 704.95,-329.61 703.11,-336.37"/>
</g>
<!-- Node20&#45;&gt;Node19 -->
<g id="edge31" class="edge">
<title>Node20&#45;&gt;Node19</title>
<path fill="none" stroke="midnightblue" d="M807.8,-330.3C825.16,-320.12 846.12,-307.85 861.96,-298.58"/>
<polygon fill="midnightblue" stroke="midnightblue" points="805.95,-327.32 799.09,-335.4 809.48,-333.36 805.95,-327.32"/>
</g>
<!-- Node21 -->
<g id="node21" class="node">
<title>Node21</title>
<g id="a_node21"><a xlink:href="devices_8cpp.html" target="_top" xlink:title="Devices and manager for all known devices the base station connects to.">
<polygon fill="white" stroke="black" points="638,-268.5 638,-298.5 760,-298.5 760,-268.5 638,-268.5"/>
<text text-anchor="start" x="646" y="-286.5" font-family="Helvetica,sans-Serif" font-size="10.00">ESP32BaseStation/src</text>
<text text-anchor="middle" x="699" y="-275.5" font-family="Helvetica,sans-Serif" font-size="10.00">/devices.cpp</text>
</a>
</g>
</g>
<!-- Node20&#45;&gt;Node21 -->
<g id="edge32" class="edge">
<title>Node20&#45;&gt;Node21</title>
<path fill="none" stroke="midnightblue" d="M750.89,-328.88C739.34,-319.01 725.81,-307.43 715.46,-298.58"/>
<polygon fill="midnightblue" stroke="midnightblue" points="748.63,-331.56 758.51,-335.4 753.18,-326.24 748.63,-331.56"/>
</g>
<!-- Node23&#45;&gt;Node11 -->
<g id="edge45" class="edge">
<title>Node23&#45;&gt;Node11</title>
<path fill="none" stroke="midnightblue" d="M933.66,-460.95C960.99,-418.56 1010.34,-326.07 965,-268 947.73,-245.88 877.12,-232.02 824.21,-224.53"/>
<polygon fill="midnightblue" stroke="midnightblue" points="930.65,-459.16 928.05,-469.44 936.49,-463.03 930.65,-459.16"/>
</g>
<!-- Node23&#45;&gt;Node18 -->
<g id="edge44" class="edge">
<title>Node23&#45;&gt;Node18</title>
<path fill="none" stroke="midnightblue" d="M869.95,-465.96C841.28,-455.48 805.36,-442.37 778.55,-432.58"/>
<polygon fill="midnightblue" stroke="midnightblue" points="868.78,-469.25 879.38,-469.4 871.18,-462.68 868.78,-469.25"/>
</g>
<!-- Node23&#45;&gt;Node20 -->
<g id="edge43" class="edge">
<title>Node23&#45;&gt;Node20</title>
<path fill="none" stroke="midnightblue" d="M899.94,-461.72C885.35,-444.68 863.88,-420.79 843,-402 828.14,-388.62 809.87,-375.2 796.02,-365.57"/>
<polygon fill="midnightblue" stroke="midnightblue" points="897.39,-464.12 906.52,-469.49 902.73,-459.6 897.39,-464.12"/>
</g>
</g>
</svg>
