<?xml version="1.0" encoding="UTF-8" standalone="no"?>
<!DOCTYPE svg PUBLIC "-//W3C//DTD SVG 1.1//EN"
 "http://www.w3.org/Graphics/SVG/1.1/DTD/svg11.dtd">
<!-- Generated by graphviz version 2.43.0 (0)
 -->
<!-- Title: ESP32BaseStation/src/topics.h Pages: 1 -->
<svg width="1201pt" height="631pt"
 viewBox="0.00 0.00 1201.00 631.00" xmlns="http://www.w3.org/2000/svg" xmlns:xlink="http://www.w3.org/1999/xlink">
<g id="graph0" class="graph" transform="scale(1 1) rotate(0) translate(4 627)">
<title>ESP32BaseStation/src/topics.h</title>
<polygon fill="white" stroke="transparent" points="-4,4 -4,-627 1197,-627 1197,4 -4,4"/>
<!-- Node1 -->
<g id="node1" class="node">
<title>Node1</title>
<g id="a_node1"><a xlink:title="MQTT topics for a thingsboard gateway.">
<polygon fill="#bfbfbf" stroke="black" points="549,-592.5 549,-622.5 671,-622.5 671,-592.5 549,-592.5"/>
<text text-anchor="start" x="557" y="-610.5" font-family="Helvetica,sans-Serif" font-size="10.00">ESP32BaseStation/src</text>
<text text-anchor="middle" x="610" y="-599.5" font-family="Helvetica,sans-Serif" font-size="10.00">/topics.h</text>
</a>
</g>
</g>
<!-- Node2 -->
<g id="node2" class="node">
<title>Node2</title>
<g id="a_node2"><a xlink:href="defines_8h.html" target="_top" xlink:title="Definitions and other preprocessor and global stuff.">
<polygon fill="white" stroke="black" points="680,-536.5 680,-555.5 832,-555.5 832,-536.5 680,-536.5"/>
<text text-anchor="middle" x="756" y="-543.5" font-family="Helvetica,sans-Serif" font-size="10.00">ESP32BaseStation/defines.h</text>
</a>
</g>
</g>
<!-- Node1&#45;&gt;Node2 -->
<g id="edge1" class="edge">
<title>Node1&#45;&gt;Node2</title>
<path fill="none" stroke="midnightblue" d="M654.13,-588.52C680.85,-577.63 713.71,-564.23 734.76,-555.66"/>
<polygon fill="midnightblue" stroke="midnightblue" points="652.54,-585.38 644.6,-592.4 655.18,-591.87 652.54,-585.38"/>
</g>
<!-- Node10 -->
<g id="node10" class="node">
<title>Node10</title>
<g id="a_node10"><a xlink:href="rpc_8h.html" target="_top" xlink:title="Handles RPC calls.">
<polygon fill="white" stroke="black" points="422,-268.5 422,-298.5 544,-298.5 544,-268.5 422,-268.5"/>
<text text-anchor="start" x="430" y="-286.5" font-family="Helvetica,sans-Serif" font-size="10.00">ESP32BaseStation/src</text>
<text text-anchor="middle" x="483" y="-275.5" font-family="Helvetica,sans-Serif" font-size="10.00">/rpc.h</text>
</a>
</g>
</g>
<!-- Node1&#45;&gt;Node10 -->
<g id="edge53" class="edge">
<title>Node1&#45;&gt;Node10</title>
<path fill="none" stroke="midnightblue" d="M559.21,-588.44C517.06,-569.83 464,-536.31 464,-485.5 464,-485.5 464,-485.5 464,-416.5 464,-373.2 474.14,-322.73 479.6,-298.66"/>
<polygon fill="midnightblue" stroke="midnightblue" points="557.98,-591.73 568.55,-592.41 560.72,-585.28 557.98,-591.73"/>
</g>
<!-- Node3 -->
<g id="node3" class="node">
<title>Node3</title>
<g id="a_node3"><a xlink:href="_e_s_p32_base_station_8ino.html" target="_top" xlink:title="Main file for a base station to connect to remote sensors on a farm.">
<polygon fill="white" stroke="black" points="522,-0.5 522,-30.5 684,-30.5 684,-0.5 522,-0.5"/>
<text text-anchor="start" x="530" y="-18.5" font-family="Helvetica,sans-Serif" font-size="10.00">ESP32BaseStation/ESP32Base</text>
<text text-anchor="middle" x="603" y="-7.5" font-family="Helvetica,sans-Serif" font-size="10.00">Station.ino</text>
</a>
</g>
</g>
<!-- Node2&#45;&gt;Node3 -->
<g id="edge2" class="edge">
<title>Node2&#45;&gt;Node3</title>
<path fill="none" stroke="midnightblue" d="M669.6,-539.48C471.22,-525.66 0,-485.74 0,-418.5 0,-418.5 0,-418.5 0,-148.5 0,-42.87 357.54,-21.65 521.99,-17.47"/>
<polygon fill="midnightblue" stroke="midnightblue" points="669.48,-542.98 679.7,-540.18 669.97,-536 669.48,-542.98"/>
</g>
<!-- Node4 -->
<g id="node4" class="node">
<title>Node4</title>
<g id="a_node4"><a xlink:href="alarm_8h.html" target="_top" xlink:title="Handles alarms.">
<polygon fill="white" stroke="black" points="250,-335.5 250,-365.5 372,-365.5 372,-335.5 250,-335.5"/>
<text text-anchor="start" x="258" y="-353.5" font-family="Helvetica,sans-Serif" font-size="10.00">ESP32BaseStation/src</text>
<text text-anchor="middle" x="311" y="-342.5" font-family="Helvetica,sans-Serif" font-size="10.00">/alarm.h</text>
</a>
</g>
</g>
<!-- Node2&#45;&gt;Node4 -->
<g id="edge3" class="edge">
<title>Node2&#45;&gt;Node4</title>
<path fill="none" stroke="midnightblue" d="M669.51,-542.04C615.27,-537.43 545.05,-526.32 488,-500 415.88,-466.73 349.44,-396.09 323.03,-365.79"/>
<polygon fill="midnightblue" stroke="midnightblue" points="669.55,-545.55 679.79,-542.85 670.1,-538.57 669.55,-545.55"/>
</g>
<!-- Node6 -->
<g id="node6" class="node">
<title>Node6</title>
<g id="a_node6"><a xlink:href="audio_8h.html" target="_top" xlink:title="Plays audio.">
<polygon fill="white" stroke="black" points="66,-268.5 66,-298.5 188,-298.5 188,-268.5 66,-268.5"/>
<text text-anchor="start" x="74" y="-286.5" font-family="Helvetica,sans-Serif" font-size="10.00">ESP32BaseStation/src</text>
<text text-anchor="middle" x="127" y="-275.5" font-family="Helvetica,sans-Serif" font-size="10.00">/audio.h</text>
</a>
</g>
</g>
<!-- Node2&#45;&gt;Node6 -->
<g id="edge27" class="edge">
<title>Node2&#45;&gt;Node6</title>
<path fill="none" stroke="midnightblue" d="M669.66,-543.87C602.97,-540.45 509.45,-529.99 433,-500 306.58,-450.4 182.63,-338.15 141.37,-298.61"/>
<polygon fill="midnightblue" stroke="midnightblue" points="669.56,-547.37 679.72,-544.34 669.89,-540.38 669.56,-547.37"/>
</g>
<!-- Node8 -->
<g id="node8" class="node">
<title>Node8</title>
<g id="a_node8"><a xlink:href="leds_8h.html" target="_top" xlink:title="Controls the LEDs on the unit.">
<polygon fill="white" stroke="black" points="687,-67.5 687,-97.5 809,-97.5 809,-67.5 687,-67.5"/>
<text text-anchor="start" x="695" y="-85.5" font-family="Helvetica,sans-Serif" font-size="10.00">ESP32BaseStation/src</text>
<text text-anchor="middle" x="748" y="-74.5" font-family="Helvetica,sans-Serif" font-size="10.00">/leds.h</text>
</a>
</g>
</g>
<!-- Node2&#45;&gt;Node8 -->
<g id="edge44" class="edge">
<title>Node2&#45;&gt;Node8</title>
<path fill="none" stroke="midnightblue" d="M842.33,-541.88C900.6,-537.3 978.2,-526.26 1042,-500 1099.26,-476.43 1155,-480.42 1155,-418.5 1155,-418.5 1155,-418.5 1155,-215.5 1155,-178.31 1163.78,-158.73 1136,-134 1082.87,-86.72 888.23,-109.22 818,-98 815.06,-97.53 812.05,-97.02 809.02,-96.48"/>
<polygon fill="midnightblue" stroke="midnightblue" points="841.77,-538.42 832.06,-542.64 842.29,-545.4 841.77,-538.42"/>
</g>
<!-- Node2&#45;&gt;Node10 -->
<g id="edge52" class="edge">
<title>Node2&#45;&gt;Node10</title>
<path fill="none" stroke="midnightblue" d="M694.26,-534.26C663.74,-527.31 627.1,-516.41 597,-500 557.47,-478.44 544.51,-471.4 521,-433 494.04,-388.97 486.12,-326.39 483.86,-298.66"/>
<polygon fill="midnightblue" stroke="midnightblue" points="693.84,-537.75 704.36,-536.47 695.34,-530.91 693.84,-537.75"/>
</g>
<!-- Node11 -->
<g id="node11" class="node">
<title>Node11</title>
<g id="a_node11"><a xlink:href="lora_8h.html" target="_top" xlink:title="File that handles the LoRa radio and PJON.">
<polygon fill="white" stroke="black" points="916,-201.5 916,-231.5 1038,-231.5 1038,-201.5 916,-201.5"/>
<text text-anchor="start" x="924" y="-219.5" font-family="Helvetica,sans-Serif" font-size="10.00">ESP32BaseStation/src</text>
<text text-anchor="middle" x="977" y="-208.5" font-family="Helvetica,sans-Serif" font-size="10.00">/lora.h</text>
</a>
</g>
</g>
<!-- Node2&#45;&gt;Node11 -->
<g id="edge49" class="edge">
<title>Node2&#45;&gt;Node11</title>
<path fill="none" stroke="midnightblue" d="M842.35,-535.29C895.49,-527.86 957.42,-516.14 979,-500 1011.8,-475.47 1022,-459.45 1022,-418.5 1022,-418.5 1022,-418.5 1022,-349.5 1022,-304.47 998.24,-255.19 985.25,-231.61"/>
<polygon fill="midnightblue" stroke="midnightblue" points="841.64,-531.85 832.2,-536.67 842.58,-538.79 841.64,-531.85"/>
</g>
<!-- Node13 -->
<g id="node13" class="node">
<title>Node13</title>
<g id="a_node13"><a xlink:href="networking_8h.html" target="_top" xlink:title="Header file for networking.cpp.">
<polygon fill="white" stroke="black" points="827,-134.5 827,-164.5 949,-164.5 949,-134.5 827,-134.5"/>
<text text-anchor="start" x="835" y="-152.5" font-family="Helvetica,sans-Serif" font-size="10.00">ESP32BaseStation/src</text>
<text text-anchor="middle" x="888" y="-141.5" font-family="Helvetica,sans-Serif" font-size="10.00">/networking.h</text>
</a>
</g>
</g>
<!-- Node2&#45;&gt;Node13 -->
<g id="edge50" class="edge">
<title>Node2&#45;&gt;Node13</title>
<path fill="none" stroke="midnightblue" d="M842.39,-536.6C904.12,-529.29 980.88,-517.17 1008,-500 1045.56,-476.22 1066,-462.96 1066,-418.5 1066,-418.5 1066,-418.5 1066,-282.5 1066,-245.31 1072.25,-228.31 1047,-201 1021.93,-173.88 982.39,-161.25 949.02,-155.4"/>
<polygon fill="midnightblue" stroke="midnightblue" points="841.76,-533.15 832.23,-537.77 842.56,-540.1 841.76,-533.15"/>
</g>
<!-- Node15 -->
<g id="node15" class="node">
<title>Node15</title>
<g id="a_node15"><a xlink:href="ota_8h.html" target="_top" xlink:title="Handles over the air (OTA) updates.">
<polygon fill="white" stroke="black" points="1005,-67.5 1005,-97.5 1127,-97.5 1127,-67.5 1005,-67.5"/>
<text text-anchor="start" x="1013" y="-85.5" font-family="Helvetica,sans-Serif" font-size="10.00">ESP32BaseStation/src</text>
<text text-anchor="middle" x="1066" y="-74.5" font-family="Helvetica,sans-Serif" font-size="10.00">/ota.h</text>
</a>
</g>
</g>
<!-- Node2&#45;&gt;Node15 -->
<g id="edge51" class="edge">
<title>Node2&#45;&gt;Node15</title>
<path fill="none" stroke="midnightblue" d="M842.04,-539.29C928.02,-532.6 1053.62,-519.82 1098,-500 1148.8,-477.32 1193,-474.13 1193,-418.5 1193,-418.5 1193,-418.5 1193,-215.5 1193,-176.25 1185.3,-163.13 1159,-134 1144.47,-117.91 1123.58,-105.92 1105.27,-97.67"/>
<polygon fill="midnightblue" stroke="midnightblue" points="841.72,-535.81 832.02,-540.06 842.26,-542.79 841.72,-535.81"/>
</g>
<!-- Node18 -->
<g id="node18" class="node">
<title>Node18</title>
<g id="a_node18"><a xlink:href="conversions_8h.html" target="_top" xlink:title="General functions for converting to and from char arrays.">
<polygon fill="white" stroke="black" points="606,-469.5 606,-499.5 728,-499.5 728,-469.5 606,-469.5"/>
<text text-anchor="start" x="614" y="-487.5" font-family="Helvetica,sans-Serif" font-size="10.00">ESP32BaseStation/src</text>
<text text-anchor="middle" x="667" y="-476.5" font-family="Helvetica,sans-Serif" font-size="10.00">/conversions.h</text>
</a>
</g>
</g>
<!-- Node2&#45;&gt;Node18 -->
<g id="edge28" class="edge">
<title>Node2&#45;&gt;Node18</title>
<path fill="none" stroke="midnightblue" d="M734.67,-530.74C720.52,-521.28 702.05,-508.93 687.98,-499.52"/>
<polygon fill="midnightblue" stroke="midnightblue" points="732.99,-533.83 743.25,-536.48 736.88,-528.01 732.99,-533.83"/>
</g>
<!-- Node20 -->
<g id="node20" class="node">
<title>Node20</title>
<g id="a_node20"><a xlink:href="fields_8h.html" target="_top" xlink:title="Contains fields classes.">
<polygon fill="white" stroke="black" points="670,-402.5 670,-432.5 792,-432.5 792,-402.5 670,-402.5"/>
<text text-anchor="start" x="678" y="-420.5" font-family="Helvetica,sans-Serif" font-size="10.00">ESP32BaseStation/src</text>
<text text-anchor="middle" x="731" y="-409.5" font-family="Helvetica,sans-Serif" font-size="10.00">/fields.h</text>
</a>
</g>
</g>
<!-- Node2&#45;&gt;Node20 -->
<g id="edge43" class="edge">
<title>Node2&#45;&gt;Node20</title>
<path fill="none" stroke="midnightblue" d="M752.33,-526.45C747.31,-501.03 738.39,-455.91 733.84,-432.89"/>
<polygon fill="midnightblue" stroke="midnightblue" points="748.91,-527.17 754.28,-536.31 755.78,-525.82 748.91,-527.17"/>
</g>
<!-- Node22 -->
<g id="node22" class="node">
<title>Node22</title>
<g id="a_node22"><a xlink:href="devices_8h.html" target="_top" xlink:title="Devices and manager for all known devices the base station connects to.">
<polygon fill="white" stroke="black" points="759,-335.5 759,-365.5 881,-365.5 881,-335.5 759,-335.5"/>
<text text-anchor="start" x="767" y="-353.5" font-family="Helvetica,sans-Serif" font-size="10.00">ESP32BaseStation/src</text>
<text text-anchor="middle" x="820" y="-342.5" font-family="Helvetica,sans-Serif" font-size="10.00">/devices.h</text>
</a>
</g>
</g>
<!-- Node2&#45;&gt;Node22 -->
<g id="edge42" class="edge">
<title>Node2&#45;&gt;Node22</title>
<path fill="none" stroke="midnightblue" d="M764.17,-527.14C773.93,-505.29 790.27,-467.01 801,-433 808.34,-409.72 814.23,-381.9 817.41,-365.52"/>
<polygon fill="midnightblue" stroke="midnightblue" points="760.89,-525.9 759.96,-536.45 767.27,-528.78 760.89,-525.9"/>
</g>
<!-- Node25 -->
<g id="node25" class="node">
<title>Node25</title>
<g id="a_node25"><a xlink:href="lookups_8h.html" target="_top" xlink:title="Lookupable and lookupable manager base classes.">
<polygon fill="white" stroke="black" points="848,-469.5 848,-499.5 970,-499.5 970,-469.5 848,-469.5"/>
<text text-anchor="start" x="856" y="-487.5" font-family="Helvetica,sans-Serif" font-size="10.00">ESP32BaseStation/src</text>
<text text-anchor="middle" x="909" y="-476.5" font-family="Helvetica,sans-Serif" font-size="10.00">/lookups.h</text>
</a>
</g>
</g>
<!-- Node2&#45;&gt;Node25 -->
<g id="edge45" class="edge">
<title>Node2&#45;&gt;Node25</title>
<path fill="none" stroke="midnightblue" d="M787.25,-532.85C812.1,-523.18 846.91,-509.65 872.94,-499.52"/>
<polygon fill="midnightblue" stroke="midnightblue" points="785.97,-529.59 777.92,-536.48 788.51,-536.11 785.97,-529.59"/>
</g>
<!-- Node4&#45;&gt;Node3 -->
<g id="edge4" class="edge">
<title>Node4&#45;&gt;Node3</title>
<path fill="none" stroke="midnightblue" d="M283.39,-328.87C255.34,-305.32 216,-264.01 216,-217.5 216,-217.5 216,-217.5 216,-148.5 216,-84.43 408.39,-45.09 521.87,-27.45"/>
<polygon fill="midnightblue" stroke="midnightblue" points="281.35,-331.72 291.32,-335.31 285.76,-326.29 281.35,-331.72"/>
</g>
<!-- Node5 -->
<g id="node5" class="node">
<title>Node5</title>
<g id="a_node5"><a xlink:href="alarm_8cpp.html" target="_top" xlink:title="Handles alarms.">
<polygon fill="white" stroke="black" points="282,-268.5 282,-298.5 404,-298.5 404,-268.5 282,-268.5"/>
<text text-anchor="start" x="290" y="-286.5" font-family="Helvetica,sans-Serif" font-size="10.00">ESP32BaseStation/src</text>
<text text-anchor="middle" x="343" y="-275.5" font-family="Helvetica,sans-Serif" font-size="10.00">/alarm.cpp</text>
</a>
</g>
</g>
<!-- Node4&#45;&gt;Node5 -->
<g id="edge5" class="edge">
<title>Node4&#45;&gt;Node5</title>
<path fill="none" stroke="midnightblue" d="M322.43,-326.28C326.99,-317.02 332.09,-306.66 336.07,-298.58"/>
<polygon fill="midnightblue" stroke="midnightblue" points="319.22,-324.88 317.94,-335.4 325.5,-327.97 319.22,-324.88"/>
</g>
<!-- Node4&#45;&gt;Node6 -->
<g id="edge6" class="edge">
<title>Node4&#45;&gt;Node6</title>
<path fill="none" stroke="midnightblue" d="M261.33,-331.96C231.7,-321.48 194.56,-308.37 166.85,-298.58"/>
<polygon fill="midnightblue" stroke="midnightblue" points="260.48,-335.37 271.07,-335.4 262.81,-328.76 260.48,-335.37"/>
</g>
<!-- Node4&#45;&gt;Node8 -->
<g id="edge9" class="edge">
<title>Node4&#45;&gt;Node8</title>
<path fill="none" stroke="midnightblue" d="M289.03,-327.7C274.77,-310.83 260.91,-287.18 273,-268 362.37,-126.16 579.7,-93.21 686.59,-85.67"/>
<polygon fill="midnightblue" stroke="midnightblue" points="286.65,-330.3 295.94,-335.39 291.86,-325.62 286.65,-330.3"/>
</g>
<!-- Node4&#45;&gt;Node10 -->
<g id="edge12" class="edge">
<title>Node4&#45;&gt;Node10</title>
<path fill="none" stroke="midnightblue" d="M357.79,-331.82C385.43,-321.37 419.96,-308.32 445.75,-298.58"/>
<polygon fill="midnightblue" stroke="midnightblue" points="356.44,-328.59 348.32,-335.4 358.91,-335.13 356.44,-328.59"/>
</g>
<!-- Node6&#45;&gt;Node3 -->
<g id="edge7" class="edge">
<title>Node6&#45;&gt;Node3</title>
<path fill="none" stroke="midnightblue" d="M87.03,-263.12C75.17,-255.23 63.59,-244.88 57,-232 50.72,-219.73 51.48,-213.62 57,-201 92.17,-120.61 122.45,-104.03 202,-67 257.11,-41.35 421.28,-27.29 521.66,-20.88"/>
<polygon fill="midnightblue" stroke="midnightblue" points="85.31,-266.17 95.66,-268.44 88.98,-260.21 85.31,-266.17"/>
</g>
<!-- Node7 -->
<g id="node7" class="node">
<title>Node7</title>
<g id="a_node7"><a xlink:href="audio_8cpp.html" target="_top" xlink:title="Plays audio.">
<polygon fill="white" stroke="black" points="66,-201.5 66,-231.5 188,-231.5 188,-201.5 66,-201.5"/>
<text text-anchor="start" x="74" y="-219.5" font-family="Helvetica,sans-Serif" font-size="10.00">ESP32BaseStation/src</text>
<text text-anchor="middle" x="127" y="-208.5" font-family="Helvetica,sans-Serif" font-size="10.00">/audio.cpp</text>
</a>
</g>
</g>
<!-- Node6&#45;&gt;Node7 -->
<g id="edge8" class="edge">
<title>Node6&#45;&gt;Node7</title>
<path fill="none" stroke="midnightblue" d="M127,-258.11C127,-249.15 127,-239.32 127,-231.58"/>
<polygon fill="midnightblue" stroke="midnightblue" points="123.5,-258.4 127,-268.4 130.5,-258.4 123.5,-258.4"/>
</g>
<!-- Node8&#45;&gt;Node3 -->
<g id="edge10" class="edge">
<title>Node8&#45;&gt;Node3</title>
<path fill="none" stroke="midnightblue" d="M707.33,-63.27C684.24,-52.92 655.76,-40.15 634.4,-30.58"/>
<polygon fill="midnightblue" stroke="midnightblue" points="705.98,-66.5 716.54,-67.4 708.84,-60.11 705.98,-66.5"/>
</g>
<!-- Node9 -->
<g id="node9" class="node">
<title>Node9</title>
<g id="a_node9"><a xlink:href="leds_8cpp.html" target="_top" xlink:title="Controls the LEDs on the unit.">
<polygon fill="white" stroke="black" points="702,-0.5 702,-30.5 824,-30.5 824,-0.5 702,-0.5"/>
<text text-anchor="start" x="710" y="-18.5" font-family="Helvetica,sans-Serif" font-size="10.00">ESP32BaseStation/src</text>
<text text-anchor="middle" x="763" y="-7.5" font-family="Helvetica,sans-Serif" font-size="10.00">/leds.cpp</text>
</a>
</g>
</g>
<!-- Node8&#45;&gt;Node9 -->
<g id="edge11" class="edge">
<title>Node8&#45;&gt;Node9</title>
<path fill="none" stroke="midnightblue" d="M753.56,-57.4C755.65,-48.37 757.94,-38.41 759.75,-30.58"/>
<polygon fill="midnightblue" stroke="midnightblue" points="750.09,-56.87 751.25,-67.4 756.91,-58.44 750.09,-56.87"/>
</g>
<!-- Node10&#45;&gt;Node3 -->
<g id="edge13" class="edge">
<title>Node10&#45;&gt;Node3</title>
<path fill="none" stroke="midnightblue" d="M520.14,-262.94C532.26,-254.87 544.72,-244.45 553,-232 596.71,-166.28 602.46,-67.21 603.03,-30.68"/>
<polygon fill="midnightblue" stroke="midnightblue" points="518.04,-260.13 511.43,-268.41 521.76,-266.06 518.04,-260.13"/>
</g>
<!-- Node10&#45;&gt;Node11 -->
<g id="edge14" class="edge">
<title>Node10&#45;&gt;Node11</title>
<path fill="none" stroke="midnightblue" d="M554.04,-267.92C690.76,-246.11 727.38,-248.16 861,-232 878.83,-229.84 898.2,-227.45 915.91,-225.23"/>
<polygon fill="midnightblue" stroke="midnightblue" points="553.34,-264.49 544.02,-269.53 554.45,-271.4 553.34,-264.49"/>
</g>
<!-- Node17 -->
<g id="node17" class="node">
<title>Node17</title>
<g id="a_node17"><a xlink:href="rpc_8cpp.html" target="_top" xlink:title="Handles RPC calls.">
<polygon fill="white" stroke="black" points="422,-201.5 422,-231.5 544,-231.5 544,-201.5 422,-201.5"/>
<text text-anchor="start" x="430" y="-219.5" font-family="Helvetica,sans-Serif" font-size="10.00">ESP32BaseStation/src</text>
<text text-anchor="middle" x="483" y="-208.5" font-family="Helvetica,sans-Serif" font-size="10.00">/rpc.cpp</text>
</a>
</g>
</g>
<!-- Node10&#45;&gt;Node17 -->
<g id="edge26" class="edge">
<title>Node10&#45;&gt;Node17</title>
<path fill="none" stroke="midnightblue" d="M483,-258.11C483,-249.15 483,-239.32 483,-231.58"/>
<polygon fill="midnightblue" stroke="midnightblue" points="479.5,-258.4 483,-268.4 486.5,-258.4 479.5,-258.4"/>
</g>
<!-- Node11&#45;&gt;Node3 -->
<g id="edge15" class="edge">
<title>Node11&#45;&gt;Node3</title>
<path fill="none" stroke="midnightblue" d="M981.95,-191.13C987.08,-158.14 990.4,-99.65 958,-67 916.14,-24.81 751.79,-39.73 693,-31 690.18,-30.58 687.32,-30.15 684.42,-29.71"/>
<polygon fill="midnightblue" stroke="midnightblue" points="978.45,-190.81 980.18,-201.26 985.35,-192.01 978.45,-190.81"/>
</g>
<!-- Node12 -->
<g id="node12" class="node">
<title>Node12</title>
<g id="a_node12"><a xlink:href="lora_8cpp.html" target="_top" xlink:title="File that handles the LoRa radio and PJON.">
<polygon fill="white" stroke="black" points="1005,-134.5 1005,-164.5 1127,-164.5 1127,-134.5 1005,-134.5"/>
<text text-anchor="start" x="1013" y="-152.5" font-family="Helvetica,sans-Serif" font-size="10.00">ESP32BaseStation/src</text>
<text text-anchor="middle" x="1066" y="-141.5" font-family="Helvetica,sans-Serif" font-size="10.00">/lora.cpp</text>
</a>
</g>
</g>
<!-- Node11&#45;&gt;Node12 -->
<g id="edge16" class="edge">
<title>Node11&#45;&gt;Node12</title>
<path fill="none" stroke="midnightblue" d="M1004.45,-195.45C1018.14,-185.45 1034.37,-173.6 1046.73,-164.58"/>
<polygon fill="midnightblue" stroke="midnightblue" points="1002.32,-192.67 996.31,-201.4 1006.45,-198.32 1002.32,-192.67"/>
</g>
<!-- Node11&#45;&gt;Node13 -->
<g id="edge17" class="edge">
<title>Node11&#45;&gt;Node13</title>
<path fill="none" stroke="midnightblue" d="M943.67,-195.73C929.09,-185.68 912.87,-173.68 901.6,-164.58"/>
<polygon fill="midnightblue" stroke="midnightblue" points="941.77,-198.68 952.01,-201.4 945.7,-192.88 941.77,-198.68"/>
</g>
<!-- Node13&#45;&gt;Node3 -->
<g id="edge18" class="edge">
<title>Node13&#45;&gt;Node3</title>
<path fill="none" stroke="midnightblue" d="M816.53,-141.87C773.96,-135.44 720.2,-122.81 678,-98 648.99,-80.95 624.6,-49.12 612.06,-30.69"/>
<polygon fill="midnightblue" stroke="midnightblue" points="816.14,-145.36 826.53,-143.3 817.13,-138.43 816.14,-145.36"/>
</g>
<!-- Node13&#45;&gt;Node8 -->
<g id="edge19" class="edge">
<title>Node13&#45;&gt;Node8</title>
<path fill="none" stroke="midnightblue" d="M848.43,-130.13C826.19,-119.8 798.85,-107.11 778.32,-97.58"/>
<polygon fill="midnightblue" stroke="midnightblue" points="847.08,-133.36 857.62,-134.4 850.03,-127.01 847.08,-133.36"/>
</g>
<!-- Node13&#45;&gt;Node10 -->
<g id="edge25" class="edge">
<title>Node13&#45;&gt;Node10</title>
<path fill="none" stroke="midnightblue" d="M835.36,-167.66C754.36,-194.06 600.69,-244.14 525.96,-268.5"/>
<polygon fill="midnightblue" stroke="midnightblue" points="836.45,-170.98 844.87,-164.56 834.28,-164.33 836.45,-170.98"/>
</g>
<!-- Node13&#45;&gt;Node11 -->
<g id="edge20" class="edge">
<title>Node13&#45;&gt;Node11</title>
<path fill="none" stroke="midnightblue" d="M921.29,-170.24C935.86,-180.29 952.08,-192.28 963.37,-201.4"/>
<polygon fill="midnightblue" stroke="midnightblue" points="923.19,-167.3 912.95,-164.58 919.26,-173.09 923.19,-167.3"/>
</g>
<!-- Node14 -->
<g id="node14" class="node">
<title>Node14</title>
<g id="a_node14"><a xlink:href="networking_8cpp.html" target="_top" xlink:title="File that handles connecting to WiFi and MQTT and staying connected.">
<polygon fill="white" stroke="black" points="827,-67.5 827,-97.5 949,-97.5 949,-67.5 827,-67.5"/>
<text text-anchor="start" x="835" y="-85.5" font-family="Helvetica,sans-Serif" font-size="10.00">ESP32BaseStation/src</text>
<text text-anchor="middle" x="888" y="-74.5" font-family="Helvetica,sans-Serif" font-size="10.00">/networking.cpp</text>
</a>
</g>
</g>
<!-- Node13&#45;&gt;Node14 -->
<g id="edge21" class="edge">
<title>Node13&#45;&gt;Node14</title>
<path fill="none" stroke="midnightblue" d="M888,-124.11C888,-115.15 888,-105.32 888,-97.58"/>
<polygon fill="midnightblue" stroke="midnightblue" points="884.5,-124.4 888,-134.4 891.5,-124.4 884.5,-124.4"/>
</g>
<!-- Node13&#45;&gt;Node15 -->
<g id="edge22" class="edge">
<title>Node13&#45;&gt;Node15</title>
<path fill="none" stroke="midnightblue" d="M936.05,-130.96C964.72,-120.48 1000.64,-107.37 1027.45,-97.58"/>
<polygon fill="midnightblue" stroke="midnightblue" points="934.82,-127.68 926.62,-134.4 937.22,-134.25 934.82,-127.68"/>
</g>
<!-- Node15&#45;&gt;Node3 -->
<g id="edge23" class="edge">
<title>Node15&#45;&gt;Node3</title>
<path fill="none" stroke="midnightblue" d="M994.79,-67.61C993.52,-67.4 992.25,-67.2 991,-67 859.2,-46.33 825.1,-49.61 693,-31 690.18,-30.6 687.31,-30.19 684.41,-29.76"/>
<polygon fill="midnightblue" stroke="midnightblue" points="994.22,-71.06 1004.67,-69.28 995.39,-64.16 994.22,-71.06"/>
</g>
<!-- Node16 -->
<g id="node16" class="node">
<title>Node16</title>
<g id="a_node16"><a xlink:href="ota_8cpp.html" target="_top" xlink:title="Handles over the air (OTA) updates.">
<polygon fill="white" stroke="black" points="1005,-0.5 1005,-30.5 1127,-30.5 1127,-0.5 1005,-0.5"/>
<text text-anchor="start" x="1013" y="-18.5" font-family="Helvetica,sans-Serif" font-size="10.00">ESP32BaseStation/src</text>
<text text-anchor="middle" x="1066" y="-7.5" font-family="Helvetica,sans-Serif" font-size="10.00">/ota.cpp</text>
</a>
</g>
</g>
<!-- Node15&#45;&gt;Node16 -->
<g id="edge24" class="edge">
<title>Node15&#45;&gt;Node16</title>
<path fill="none" stroke="midnightblue" d="M1066,-57.11C1066,-48.15 1066,-38.32 1066,-30.58"/>
<polygon fill="midnightblue" stroke="midnightblue" points="1062.5,-57.4 1066,-67.4 1069.5,-57.4 1062.5,-57.4"/>
</g>
<!-- Node19 -->
<g id="node19" class="node">
<title>Node19</title>
<g id="a_node19"><a xlink:href="conversions_8cpp.html" target="_top" xlink:title="General functions for converting to and from char arrays.">
<polygon fill="white" stroke="black" points="530,-402.5 530,-432.5 652,-432.5 652,-402.5 530,-402.5"/>
<text text-anchor="start" x="538" y="-420.5" font-family="Helvetica,sans-Serif" font-size="10.00">ESP32BaseStation/src</text>
<text text-anchor="middle" x="591" y="-409.5" font-family="Helvetica,sans-Serif" font-size="10.00">/conversions.cpp</text>
</a>
</g>
</g>
<!-- Node18&#45;&gt;Node19 -->
<g id="edge29" class="edge">
<title>Node18&#45;&gt;Node19</title>
<path fill="none" stroke="midnightblue" d="M642.89,-462.88C631.34,-453.01 617.81,-441.43 607.46,-432.58"/>
<polygon fill="midnightblue" stroke="midnightblue" points="640.63,-465.56 650.51,-469.4 645.18,-460.24 640.63,-465.56"/>
</g>
<!-- Node18&#45;&gt;Node20 -->
<g id="edge30" class="edge">
<title>Node18&#45;&gt;Node20</title>
<path fill="none" stroke="midnightblue" d="M688.15,-462.02C697.68,-452.34 708.67,-441.17 717.14,-432.58"/>
<polygon fill="midnightblue" stroke="midnightblue" points="685.41,-459.81 680.89,-469.4 690.4,-464.73 685.41,-459.81"/>
</g>
<!-- Node20&#45;&gt;Node10 -->
<g id="edge41" class="edge">
<title>Node20&#45;&gt;Node10</title>
<path fill="none" stroke="midnightblue" d="M660,-401.04C631.48,-393.06 599.02,-381.63 572,-366 540.45,-347.74 510.67,-316.65 494.83,-298.61"/>
<polygon fill="midnightblue" stroke="midnightblue" points="659.34,-404.49 669.91,-403.72 661.17,-397.73 659.34,-404.49"/>
</g>
<!-- Node21 -->
<g id="node21" class="node">
<title>Node21</title>
<g id="a_node21"><a xlink:href="device__list_8h.html" target="_top" xlink:title="List of all devices and fields known to the system.">
<polygon fill="white" stroke="black" points="562,-268.5 562,-298.5 702,-298.5 702,-268.5 562,-268.5"/>
<text text-anchor="start" x="570" y="-286.5" font-family="Helvetica,sans-Serif" font-size="10.00">ESP32BaseStation/device</text>
<text text-anchor="middle" x="632" y="-275.5" font-family="Helvetica,sans-Serif" font-size="10.00">_list.h</text>
</a>
</g>
</g>
<!-- Node20&#45;&gt;Node21 -->
<g id="edge31" class="edge">
<title>Node20&#45;&gt;Node21</title>
<path fill="none" stroke="midnightblue" d="M730.11,-391.77C728.39,-374.48 723.81,-351.61 712,-335 700.57,-318.94 682.28,-306.84 666.07,-298.52"/>
<polygon fill="midnightblue" stroke="midnightblue" points="726.65,-392.49 730.87,-402.21 733.63,-391.98 726.65,-392.49"/>
</g>
<!-- Node20&#45;&gt;Node22 -->
<g id="edge33" class="edge">
<title>Node20&#45;&gt;Node22</title>
<path fill="none" stroke="midnightblue" d="M758.45,-396.45C772.14,-386.45 788.37,-374.6 800.73,-365.58"/>
<polygon fill="midnightblue" stroke="midnightblue" points="756.32,-393.67 750.31,-402.4 760.45,-399.32 756.32,-393.67"/>
</g>
<!-- Node24 -->
<g id="node24" class="node">
<title>Node24</title>
<g id="a_node24"><a xlink:href="fields_8cpp.html" target="_top" xlink:title="Contains fields classes.">
<polygon fill="white" stroke="black" points="581,-335.5 581,-365.5 703,-365.5 703,-335.5 581,-335.5"/>
<text text-anchor="start" x="589" y="-353.5" font-family="Helvetica,sans-Serif" font-size="10.00">ESP32BaseStation/src</text>
<text text-anchor="middle" x="642" y="-342.5" font-family="Helvetica,sans-Serif" font-size="10.00">/fields.cpp</text>
</a>
</g>
</g>
<!-- Node20&#45;&gt;Node24 -->
<g id="edge40" class="edge">
<title>Node20&#45;&gt;Node24</title>
<path fill="none" stroke="midnightblue" d="M703.55,-396.45C689.86,-386.45 673.63,-374.6 661.27,-365.58"/>
<polygon fill="midnightblue" stroke="midnightblue" points="701.55,-399.32 711.69,-402.4 705.68,-393.67 701.55,-399.32"/>
</g>
<!-- Node21&#45;&gt;Node3 -->
<g id="edge32" class="edge">
<title>Node21&#45;&gt;Node3</title>
<path fill="none" stroke="midnightblue" d="M629.34,-258.07C623.4,-203.57 609.22,-73.52 604.53,-30.55"/>
<polygon fill="midnightblue" stroke="midnightblue" points="625.88,-258.64 630.44,-268.2 632.84,-257.88 625.88,-258.64"/>
</g>
<!-- Node22&#45;&gt;Node8 -->
<g id="edge36" class="edge">
<title>Node22&#45;&gt;Node8</title>
<path fill="none" stroke="midnightblue" d="M837.41,-327.09C842.88,-318.75 848.21,-308.89 851,-299 854.74,-285.74 854.47,-281.33 851,-268 832.89,-198.42 782.14,-127.23 759.34,-97.69"/>
<polygon fill="midnightblue" stroke="midnightblue" points="834.4,-325.29 831.54,-335.49 840.14,-329.3 834.4,-325.29"/>
</g>
<!-- Node22&#45;&gt;Node10 -->
<g id="edge39" class="edge">
<title>Node22&#45;&gt;Node10</title>
<path fill="none" stroke="midnightblue" d="M748.84,-336.39C695.01,-326.38 619.3,-312.14 553,-299 550.08,-298.42 547.09,-297.82 544.07,-297.22"/>
<polygon fill="midnightblue" stroke="midnightblue" points="748.5,-339.88 758.97,-338.27 749.77,-333 748.5,-339.88"/>
</g>
<!-- Node22&#45;&gt;Node11 -->
<g id="edge37" class="edge">
<title>Node22&#45;&gt;Node11</title>
<path fill="none" stroke="midnightblue" d="M869.8,-331.09C887.52,-323 906.81,-312.28 922,-299 944.23,-279.56 961.53,-249.18 970.42,-231.52"/>
<polygon fill="midnightblue" stroke="midnightblue" points="867.92,-328.09 860.16,-335.31 870.73,-334.5 867.92,-328.09"/>
</g>
<!-- Node22&#45;&gt;Node13 -->
<g id="edge38" class="edge">
<title>Node22&#45;&gt;Node13</title>
<path fill="none" stroke="midnightblue" d="M855.93,-329.71C866.94,-321.71 877.78,-311.4 884,-299 906.43,-254.28 897.16,-192.06 891.36,-164.54"/>
<polygon fill="midnightblue" stroke="midnightblue" points="853.88,-326.87 847.55,-335.37 857.8,-332.67 853.88,-326.87"/>
</g>
<!-- Node22&#45;&gt;Node21 -->
<g id="edge34" class="edge">
<title>Node22&#45;&gt;Node21</title>
<path fill="none" stroke="midnightblue" d="M769.65,-332.09C739.3,-321.6 701.15,-308.41 672.71,-298.58"/>
<polygon fill="midnightblue" stroke="midnightblue" points="768.61,-335.44 779.21,-335.4 770.9,-328.82 768.61,-335.44"/>
</g>
<!-- Node23 -->
<g id="node23" class="node">
<title>Node23</title>
<g id="a_node23"><a xlink:href="devices_8cpp.html" target="_top" xlink:title="Devices and manager for all known devices the base station connects to.">
<polygon fill="white" stroke="black" points="720,-268.5 720,-298.5 842,-298.5 842,-268.5 720,-268.5"/>
<text text-anchor="start" x="728" y="-286.5" font-family="Helvetica,sans-Serif" font-size="10.00">ESP32BaseStation/src</text>
<text text-anchor="middle" x="781" y="-275.5" font-family="Helvetica,sans-Serif" font-size="10.00">/devices.cpp</text>
</a>
</g>
</g>
<!-- Node22&#45;&gt;Node23 -->
<g id="edge35" class="edge">
<title>Node22&#45;&gt;Node23</title>
<path fill="none" stroke="midnightblue" d="M806.25,-326.58C800.64,-317.24 794.35,-306.75 789.45,-298.58"/>
<polygon fill="midnightblue" stroke="midnightblue" points="803.39,-328.62 811.54,-335.4 809.39,-325.02 803.39,-328.62"/>
</g>
<!-- Node25&#45;&gt;Node11 -->
<g id="edge48" class="edge">
<title>Node25&#45;&gt;Node11</title>
<path fill="none" stroke="midnightblue" d="M915.16,-459.41C929.04,-405.12 962.4,-274.61 973.41,-231.55"/>
<polygon fill="midnightblue" stroke="midnightblue" points="911.74,-458.64 912.66,-469.2 918.52,-460.38 911.74,-458.64"/>
</g>
<!-- Node25&#45;&gt;Node20 -->
<g id="edge47" class="edge">
<title>Node25&#45;&gt;Node20</title>
<path fill="none" stroke="midnightblue" d="M860.95,-465.96C832.28,-455.48 796.36,-442.37 769.55,-432.58"/>
<polygon fill="midnightblue" stroke="midnightblue" points="859.78,-469.25 870.38,-469.4 862.18,-462.68 859.78,-469.25"/>
</g>
<!-- Node25&#45;&gt;Node22 -->
<g id="edge46" class="edge">
<title>Node25&#45;&gt;Node22</title>
<path fill="none" stroke="midnightblue" d="M893.72,-460.83C875.26,-433.47 844.8,-388.28 829.46,-365.52"/>
<polygon fill="midnightblue" stroke="midnightblue" points="890.98,-463.04 899.48,-469.37 896.79,-459.13 890.98,-463.04"/>
</g>
</g>
</svg>
